solid 
 facet normal -0.000000e+00  0.000000e+00 -1.000000e+00
   outer loop
     vertex  9.095238e-01 -1.587302e-02 -1.380952e-01
     vertex -1.058730e+00 -6.031746e-01 -1.380952e-01
     vertex -1.058730e+00 -1.587302e-02 -1.380952e-01
   endloop
 endfacet
 facet normal  0.000000e+00 -0.000000e+00 -1.000000e+00
   outer loop
     vertex  9.095238e-01 -1.587302e-02 -1.380952e-01
     vertex  9.095238e-01 -6.031746e-01 -1.380952e-01
     vertex -1.058730e+00 -6.031746e-01 -1.380952e-01
   endloop
 endfacet
 facet normal -1.000000e+00  0.000000e+00  0.000000e+00
   outer loop
     vertex -1.058730e+00 -1.587302e-02 -1.380952e-01
     vertex -1.058730e+00 -6.031746e-01 -1.111102e-02
     vertex -1.058730e+00 -1.587302e-02 -1.111102e-02
   endloop
 endfacet
 facet normal -1.000000e+00  0.000000e+00  0.000000e+00
   outer loop
     vertex -1.058730e+00 -1.587302e-02 -1.380952e-01
     vertex -1.058730e+00 -6.031746e-01 -1.380952e-01
     vertex -1.058730e+00 -6.031746e-01 -1.111102e-02
   endloop
 endfacet
 facet normal  1.000000e+00  0.000000e+00  0.000000e+00
   outer loop
     vertex  9.095238e-01 -1.587302e-02 -1.111102e-02
     vertex  9.095238e-01 -6.031746e-01 -1.380952e-01
     vertex  9.095238e-01 -1.587302e-02 -1.380952e-01
   endloop
 endfacet
 facet normal  1.000000e+00  0.000000e+00  0.000000e+00
   outer loop
     vertex  9.095238e-01 -1.587302e-02 -1.111102e-02
     vertex  9.095238e-01 -6.031746e-01 -1.111102e-02
     vertex  9.095238e-01 -6.031746e-01 -1.380952e-01
   endloop
 endfacet
 facet normal  0.000000e+00  0.000000e+00 -1.000000e+00
   outer loop
     vertex  9.095238e-01 -1.587302e-02 -1.380952e-01
     vertex -1.058730e+00 -1.587302e-02 -1.380952e-01
     vertex -1.058730e+00  0.000000e+00 -1.380952e-01
   endloop
 endfacet
 facet normal  0.000000e+00  0.000000e+00 -1.000000e+00
   outer loop
     vertex  9.095238e-01 -1.587302e-02 -1.380952e-01
     vertex -1.058730e+00  0.000000e+00 -1.380952e-01
     vertex  9.095238e-01  0.000000e+00 -1.380952e-01
   endloop
 endfacet
 facet normal  0.000000e+00 -1.000000e+00 -0.000000e+00
   outer loop
     vertex  9.095238e-01 -6.031746e-01 -1.111102e-02
     vertex -1.058730e+00 -6.031746e-01 -1.380952e-01
     vertex  9.095238e-01 -6.031746e-01 -1.380952e-01
   endloop
 endfacet
 facet normal -0.000000e+00 -1.000000e+00  0.000000e+00
   outer loop
     vertex  9.095238e-01 -6.031746e-01 -1.111102e-02
     vertex -1.058730e+00 -6.031746e-01 -1.111102e-02
     vertex -1.058730e+00 -6.031746e-01 -1.380952e-01
   endloop
 endfacet
 facet normal -0.000000e+00  0.000000e+00  1.000000e+00
   outer loop
     vertex -1.058730e+00 -1.587302e-02 -1.111102e-02
     vertex  9.095238e-01 -6.031746e-01 -1.111102e-02
     vertex  9.095238e-01 -1.587302e-02 -1.111102e-02
   endloop
 endfacet
 facet normal  0.000000e+00  0.000000e+00  1.000000e+00
   outer loop
     vertex -1.058730e+00 -1.587302e-02 -1.111102e-02
     vertex -1.058730e+00 -6.031746e-01 -1.111102e-02
     vertex  9.095238e-01 -6.031746e-01 -1.111102e-02
   endloop
 endfacet
 facet normal -1.000000e+00  0.000000e+00  0.000000e+00
   outer loop
     vertex -1.058730e+00 -1.587302e-02 -1.380952e-01
     vertex -1.058730e+00 -1.587302e-02 -1.111102e-02
     vertex -1.058730e+00  0.000000e+00 -1.111102e-02
   endloop
 endfacet
 facet normal -1.000000e+00  0.000000e+00  0.000000e+00
   outer loop
     vertex -1.058730e+00 -1.587302e-02 -1.380952e-01
     vertex -1.058730e+00  0.000000e+00 -1.111102e-02
     vertex -1.058730e+00  0.000000e+00 -1.380952e-01
   endloop
 endfacet
 facet normal  1.000000e+00  0.000000e+00  0.000000e+00
   outer loop
     vertex  9.095238e-01 -1.587302e-02 -1.111102e-02
     vertex  9.095238e-01 -1.587302e-02 -1.380952e-01
     vertex  9.095238e-01  0.000000e+00 -1.380952e-01
   endloop
 endfacet
 facet normal  1.000000e+00 -0.000000e+00  0.000000e+00
   outer loop
     vertex  9.095238e-01 -1.587302e-02 -1.111102e-02
     vertex  9.095238e-01  0.000000e+00 -1.380952e-01
     vertex  9.095238e-01  0.000000e+00 -1.111102e-02
   endloop
 endfacet
 facet normal  0.000000e+00  1.000000e+00  0.000000e+00
   outer loop
     vertex  9.095238e-01 -4.510281e-17 -1.111102e-02
     vertex  9.095238e-01 -4.510281e-17 -1.380952e-01
     vertex -1.058730e+00 -4.510281e-17 -1.380952e-01
   endloop
 endfacet
 facet normal  0.000000e+00  1.000000e+00  0.000000e+00
   outer loop
     vertex  9.095238e-01 -4.510281e-17 -1.111102e-02
     vertex -1.058730e+00 -4.510281e-17 -1.380952e-01
     vertex -1.058730e+00 -4.510281e-17 -1.111102e-02
   endloop
 endfacet
 facet normal  0.000000e+00  0.000000e+00  1.000000e+00
   outer loop
     vertex -1.058730e+00 -1.587302e-02 -1.111102e-02
     vertex  9.095238e-01 -1.587302e-02 -1.111102e-02
     vertex  9.095238e-01  0.000000e+00 -1.111102e-02
   endloop
 endfacet
 facet normal  0.000000e+00  0.000000e+00  1.000000e+00
   outer loop
     vertex -1.058730e+00 -1.587302e-02 -1.111102e-02
     vertex  9.095238e-01  0.000000e+00 -1.111102e-02
     vertex -1.058730e+00  0.000000e+00 -1.111102e-02
   endloop
 endfacet
endsolid
