solid 
 facet normal -1.000000e+00  0.000000e+00 -0.000000e+00
   outer loop
     vertex -1.070018e+00 -3.174603e-02 -3.405643e-01
     vertex -1.070018e+00 -1.587302e-02 -4.068783e-01
     vertex -1.070018e+00 -3.174606e-02 -4.068783e-01
   endloop
 endfacet
 facet normal -1.000000e+00 -0.000000e+00  0.000000e+00
   outer loop
     vertex -1.070018e+00 -1.587302e-02  2.562611e-01
     vertex -1.070018e+00 -3.174603e-02  1.567902e-01
     vertex -1.070018e+00 -3.174606e-02  2.562611e-01
   endloop
 endfacet
 facet normal -1.000000e+00  0.000000e+00 -0.000000e+00
   outer loop
     vertex -1.070018e+00 -1.587302e-02  2.562611e-01
     vertex -1.070018e+00 -1.587302e-02 -4.068783e-01
     vertex -1.070018e+00 -3.174603e-02 -3.405643e-01
   endloop
 endfacet
 facet normal -1.000000e+00  0.000000e+00  0.000000e+00
   outer loop
     vertex -1.070018e+00 -1.587302e-02  2.562611e-01
     vertex -1.070018e+00 -3.174603e-02 -3.405643e-01
     vertex -1.070018e+00 -3.174603e-02  1.567902e-01
   endloop
 endfacet
 facet normal  0.000000e+00  0.000000e+00 -1.000000e+00
   outer loop
     vertex  8.199295e-01 -3.174603e-02 -4.068783e-01
     vertex  9.194004e-01 -1.587302e-02 -4.068783e-01
     vertex  9.194004e-01 -3.174606e-02 -4.068783e-01
   endloop
 endfacet
 facet normal  0.000000e+00  0.000000e+00 -1.000000e+00
   outer loop
     vertex -1.070018e+00 -1.587302e-02 -4.068783e-01
     vertex -1.003704e+00 -3.174603e-02 -4.068783e-01
     vertex -1.070018e+00 -3.174606e-02 -4.068783e-01
   endloop
 endfacet
 facet normal  0.000000e+00  0.000000e+00 -1.000000e+00
   outer loop
     vertex -1.070018e+00 -1.587302e-02 -4.068783e-01
     vertex  9.194004e-01 -1.587302e-02 -4.068783e-01
     vertex  8.199295e-01 -3.174603e-02 -4.068783e-01
   endloop
 endfacet
 facet normal  0.000000e+00  0.000000e+00 -1.000000e+00
   outer loop
     vertex -1.070018e+00 -1.587302e-02 -4.068783e-01
     vertex  8.199295e-01 -3.174603e-02 -4.068783e-01
     vertex -1.003704e+00 -3.174603e-02 -4.068783e-01
   endloop
 endfacet
 facet normal  0.000000e+00  0.000000e+00  1.000000e+00
   outer loop
     vertex -1.003704e+00 -3.174603e-02  2.562611e-01
     vertex -1.070018e+00 -1.587302e-02  2.562611e-01
     vertex -1.070018e+00 -3.174606e-02  2.562611e-01
   endloop
 endfacet
 facet normal  0.000000e+00  0.000000e+00  1.000000e+00
   outer loop
     vertex  9.194004e-01 -1.587302e-02  2.562611e-01
     vertex  8.199295e-01 -3.174603e-02  2.562611e-01
     vertex  9.194004e-01 -3.174606e-02  2.562611e-01
   endloop
 endfacet
 facet normal  0.000000e+00  0.000000e+00  1.000000e+00
   outer loop
     vertex  9.194004e-01 -1.587302e-02  2.562611e-01
     vertex -1.070018e+00 -1.587302e-02  2.562611e-01
     vertex -1.003704e+00 -3.174603e-02  2.562611e-01
   endloop
 endfacet
 facet normal  0.000000e+00  0.000000e+00  1.000000e+00
   outer loop
     vertex  9.194004e-01 -1.587302e-02  2.562611e-01
     vertex -1.003704e+00 -3.174603e-02  2.562611e-01
     vertex  8.199295e-01 -3.174603e-02  2.562611e-01
   endloop
 endfacet
 facet normal -1.000000e+00  0.000000e+00  0.000000e+00
   outer loop
     vertex -1.070018e+00 -1.587302e-02  2.562611e-01
     vertex -1.070018e+00  0.000000e+00 -4.068783e-01
     vertex -1.070018e+00 -1.587302e-02 -4.068783e-01
   endloop
 endfacet
 facet normal -1.000000e+00  0.000000e+00  0.000000e+00
   outer loop
     vertex -1.070018e+00 -1.587302e-02  2.562611e-01
     vertex -1.070018e+00  0.000000e+00  2.562611e-01
     vertex -1.070018e+00  0.000000e+00 -4.068783e-01
   endloop
 endfacet
 facet normal -1.000000e+00  0.000000e+00  0.000000e+00
   outer loop
     vertex -1.070018e+00 -4.761904e-02 -4.068783e-01
     vertex -1.070018e+00 -4.761904e-02 -3.405643e-01
     vertex -1.070018e+00 -3.174603e-02 -3.405643e-01
   endloop
 endfacet
 facet normal -1.000000e+00  0.000000e+00  0.000000e+00
   outer loop
     vertex -1.070018e+00 -4.761904e-02 -4.068783e-01
     vertex -1.070018e+00 -3.174603e-02 -3.405643e-01
     vertex -1.070018e+00 -3.174606e-02 -4.068783e-01
   endloop
 endfacet
 facet normal -0.000000e+00 -1.000000e+00  0.000000e+00
   outer loop
     vertex -1.003704e+00 -3.174603e-02  1.567902e-01
     vertex -1.070018e+00 -3.174603e-02  1.567902e-01
     vertex -1.070018e+00 -3.174603e-02 -3.405643e-01
   endloop
 endfacet
 facet normal  0.000000e+00 -1.000000e+00 -0.000000e+00
   outer loop
     vertex -1.003704e+00 -3.174603e-02  1.567902e-01
     vertex -1.070018e+00 -3.174603e-02 -3.405643e-01
     vertex -1.003704e+00 -3.174603e-02 -3.405643e-01
   endloop
 endfacet
 facet normal -0.000000e+00 -1.000000e+00  0.000000e+00
   outer loop
     vertex  8.199295e-01 -3.174603e-02 -3.405643e-01
     vertex -1.003704e+00 -3.174603e-02 -3.405643e-01
     vertex -1.003704e+00 -3.174603e-02 -4.068783e-01
   endloop
 endfacet
 facet normal  0.000000e+00 -1.000000e+00 -0.000000e+00
   outer loop
     vertex  8.199295e-01 -3.174603e-02 -3.405643e-01
     vertex -1.003704e+00 -3.174603e-02 -4.068783e-01
     vertex  8.199295e-01 -3.174603e-02 -4.068783e-01
   endloop
 endfacet
 facet normal -0.000000e+00 -1.000000e+00  0.000000e+00
   outer loop
     vertex  8.199295e-01 -3.174603e-02  1.567902e-01
     vertex -1.003704e+00 -3.174603e-02  1.567902e-01
     vertex -1.003704e+00 -3.174603e-02 -3.405643e-01
   endloop
 endfacet
 facet normal  0.000000e+00 -1.000000e+00 -0.000000e+00
   outer loop
     vertex  8.199295e-01 -3.174603e-02  1.567902e-01
     vertex -1.003704e+00 -3.174603e-02 -3.405643e-01
     vertex  8.199295e-01 -3.174603e-02 -3.405643e-01
   endloop
 endfacet
 facet normal -0.000000e+00 -1.000000e+00  0.000000e+00
   outer loop
     vertex  8.199295e-01 -3.174603e-02  2.562611e-01
     vertex -1.003704e+00 -3.174603e-02  2.562611e-01
     vertex -1.003704e+00 -3.174603e-02  1.567902e-01
   endloop
 endfacet
 facet normal  0.000000e+00 -1.000000e+00 -0.000000e+00
   outer loop
     vertex  8.199295e-01 -3.174603e-02  2.562611e-01
     vertex -1.003704e+00 -3.174603e-02  1.567902e-01
     vertex  8.199295e-01 -3.174603e-02  1.567902e-01
   endloop
 endfacet
 facet normal  0.000000e+00 -1.000000e+00 -0.000000e+00
   outer loop
     vertex  9.194004e-01 -3.174603e-02  1.567902e-01
     vertex  8.199295e-01 -3.174603e-02 -3.405643e-01
     vertex  9.194004e-01 -3.174603e-02 -3.405643e-01
   endloop
 endfacet
 facet normal -0.000000e+00 -1.000000e+00  0.000000e+00
   outer loop
     vertex  9.194004e-01 -3.174603e-02  1.567902e-01
     vertex  8.199295e-01 -3.174603e-02  1.567902e-01
     vertex  8.199295e-01 -3.174603e-02 -3.405643e-01
   endloop
 endfacet
 facet normal -1.000000e+00  0.000000e+00  0.000000e+00
   outer loop
     vertex -1.070018e+00 -4.761904e-02  1.567902e-01
     vertex -1.070018e+00 -4.761904e-02  2.562611e-01
     vertex -1.070018e+00 -3.174606e-02  2.562611e-01
   endloop
 endfacet
 facet normal -1.000000e+00  0.000000e+00  0.000000e+00
   outer loop
     vertex -1.070018e+00 -4.761904e-02  1.567902e-01
     vertex -1.070018e+00 -3.174606e-02  2.562611e-01
     vertex -1.070018e+00 -3.174603e-02  1.567902e-01
   endloop
 endfacet
 facet normal  1.000000e+00  0.000000e+00 -0.000000e+00
   outer loop
     vertex  9.194004e-01 -3.174603e-02  1.567902e-01
     vertex  9.194004e-01 -1.587302e-02  2.562611e-01
     vertex  9.194004e-01 -3.174606e-02  2.562611e-01
   endloop
 endfacet
 facet normal  1.000000e+00  0.000000e+00  0.000000e+00
   outer loop
     vertex  9.194004e-01 -1.587302e-02 -4.068783e-01
     vertex  9.194004e-01 -3.174603e-02 -3.405643e-01
     vertex  9.194004e-01 -3.174606e-02 -4.068783e-01
   endloop
 endfacet
 facet normal  1.000000e+00  0.000000e+00 -0.000000e+00
   outer loop
     vertex  9.194004e-01 -1.587302e-02 -4.068783e-01
     vertex  9.194004e-01 -1.587302e-02  2.562611e-01
     vertex  9.194004e-01 -3.174603e-02  1.567902e-01
   endloop
 endfacet
 facet normal  1.000000e+00  0.000000e+00  0.000000e+00
   outer loop
     vertex  9.194004e-01 -1.587302e-02 -4.068783e-01
     vertex  9.194004e-01 -3.174603e-02  1.567902e-01
     vertex  9.194004e-01 -3.174603e-02 -3.405643e-01
   endloop
 endfacet
 facet normal  0.000000e+00  0.000000e+00 -1.000000e+00
   outer loop
     vertex -1.070018e+00 -1.587302e-02 -4.068783e-01
     vertex  9.194004e-01  0.000000e+00 -4.068783e-01
     vertex  9.194004e-01 -1.587302e-02 -4.068783e-01
   endloop
 endfacet
 facet normal  0.000000e+00  0.000000e+00 -1.000000e+00
   outer loop
     vertex -1.070018e+00 -1.587302e-02 -4.068783e-01
     vertex -1.070018e+00  0.000000e+00 -4.068783e-01
     vertex  9.194004e-01  0.000000e+00 -4.068783e-01
   endloop
 endfacet
 facet normal  0.000000e+00  0.000000e+00 -1.000000e+00
   outer loop
     vertex  9.194004e-01 -4.761904e-02 -4.068783e-01
     vertex  8.199295e-01 -4.761904e-02 -4.068783e-01
     vertex  8.199295e-01 -3.174603e-02 -4.068783e-01
   endloop
 endfacet
 facet normal  0.000000e+00  0.000000e+00 -1.000000e+00
   outer loop
     vertex  9.194004e-01 -4.761904e-02 -4.068783e-01
     vertex  8.199295e-01 -3.174603e-02 -4.068783e-01
     vertex  9.194004e-01 -3.174606e-02 -4.068783e-01
   endloop
 endfacet
 facet normal  0.000000e+00  0.000000e+00 -1.000000e+00
   outer loop
     vertex -1.003704e+00 -4.761904e-02 -4.068783e-01
     vertex -1.070018e+00 -4.761904e-02 -4.068783e-01
     vertex -1.070018e+00 -3.174606e-02 -4.068783e-01
   endloop
 endfacet
 facet normal  0.000000e+00  0.000000e+00 -1.000000e+00
   outer loop
     vertex -1.003704e+00 -4.761904e-02 -4.068783e-01
     vertex -1.070018e+00 -3.174606e-02 -4.068783e-01
     vertex -1.003704e+00 -3.174603e-02 -4.068783e-01
   endloop
 endfacet
 facet normal  0.000000e+00  0.000000e+00  1.000000e+00
   outer loop
     vertex  9.194004e-01 -1.587302e-02  2.562611e-01
     vertex -1.070018e+00  0.000000e+00  2.562611e-01
     vertex -1.070018e+00 -1.587302e-02  2.562611e-01
   endloop
 endfacet
 facet normal  0.000000e+00 -0.000000e+00  1.000000e+00
   outer loop
     vertex  9.194004e-01 -1.587302e-02  2.562611e-01
     vertex  9.194004e-01  0.000000e+00  2.562611e-01
     vertex -1.070018e+00  0.000000e+00  2.562611e-01
   endloop
 endfacet
 facet normal  0.000000e+00  0.000000e+00  1.000000e+00
   outer loop
     vertex -1.070018e+00 -4.761904e-02  2.562611e-01
     vertex -1.003704e+00 -4.761904e-02  2.562611e-01
     vertex -1.003704e+00 -3.174603e-02  2.562611e-01
   endloop
 endfacet
 facet normal  0.000000e+00  0.000000e+00  1.000000e+00
   outer loop
     vertex -1.070018e+00 -4.761904e-02  2.562611e-01
     vertex -1.003704e+00 -3.174603e-02  2.562611e-01
     vertex -1.070018e+00 -3.174606e-02  2.562611e-01
   endloop
 endfacet
 facet normal  0.000000e+00  0.000000e+00  1.000000e+00
   outer loop
     vertex  9.194004e-01 -4.761904e-02  2.562611e-01
     vertex  8.199295e-01 -3.174603e-02  2.562611e-01
     vertex  8.199295e-01 -4.761904e-02  2.562611e-01
   endloop
 endfacet
 facet normal  0.000000e+00 -0.000000e+00  1.000000e+00
   outer loop
     vertex  9.194004e-01 -4.761904e-02  2.562611e-01
     vertex  9.194004e-01 -3.174606e-02  2.562611e-01
     vertex  8.199295e-01 -3.174603e-02  2.562611e-01
   endloop
 endfacet
 facet normal  0.000000e+00  1.000000e+00  0.000000e+00
   outer loop
     vertex  9.194004e-01  0.000000e+00  2.562611e-01
     vertex  9.194004e-01  0.000000e+00 -4.068783e-01
     vertex -1.070018e+00  0.000000e+00 -4.068783e-01
   endloop
 endfacet
 facet normal  0.000000e+00  1.000000e+00  0.000000e+00
   outer loop
     vertex  9.194004e-01  0.000000e+00  2.562611e-01
     vertex -1.070018e+00  0.000000e+00 -4.068783e-01
     vertex -1.070018e+00  0.000000e+00  2.562611e-01
   endloop
 endfacet
 facet normal  0.000000e+00  0.000000e+00  1.000000e+00
   outer loop
     vertex -1.070018e+00 -4.761904e-02 -3.405643e-01
     vertex -1.003704e+00 -4.761904e-02 -3.405643e-01
     vertex -1.003704e+00 -3.174603e-02 -3.405643e-01
   endloop
 endfacet
 facet normal  0.000000e+00  0.000000e+00  1.000000e+00
   outer loop
     vertex -1.070018e+00 -4.761904e-02 -3.405643e-01
     vertex -1.003704e+00 -3.174603e-02 -3.405643e-01
     vertex -1.070018e+00 -3.174603e-02 -3.405643e-01
   endloop
 endfacet
 facet normal -1.000000e+00  0.000000e+00  0.000000e+00
   outer loop
     vertex -1.070018e+00 -4.761904e-02 -4.068783e-01
     vertex -1.070018e+00 -4.126984e-01 -3.405643e-01
     vertex -1.070018e+00 -4.761904e-02 -3.405643e-01
   endloop
 endfacet
 facet normal -1.000000e+00  0.000000e+00  0.000000e+00
   outer loop
     vertex -1.070018e+00 -4.761904e-02 -4.068783e-01
     vertex -1.070018e+00 -4.126984e-01 -4.068783e-01
     vertex -1.070018e+00 -4.126984e-01 -3.405643e-01
   endloop
 endfacet
 facet normal  0.000000e+00  0.000000e+00 -1.000000e+00
   outer loop
     vertex -1.003704e+00 -4.761904e-02  1.567902e-01
     vertex -1.070018e+00 -4.761904e-02  1.567902e-01
     vertex -1.070018e+00 -3.174603e-02  1.567902e-01
   endloop
 endfacet
 facet normal  0.000000e+00  0.000000e+00 -1.000000e+00
   outer loop
     vertex -1.003704e+00 -4.761904e-02  1.567902e-01
     vertex -1.070018e+00 -3.174603e-02  1.567902e-01
     vertex -1.003704e+00 -3.174603e-02  1.567902e-01
   endloop
 endfacet
 facet normal  1.000000e+00  0.000000e+00  0.000000e+00
   outer loop
     vertex -1.003704e+00 -4.761904e-02  2.562611e-01
     vertex -1.003704e+00 -4.761904e-02  1.567902e-01
     vertex -1.003704e+00 -3.174603e-02  1.567902e-01
   endloop
 endfacet
 facet normal  1.000000e+00 -0.000000e+00  0.000000e+00
   outer loop
     vertex -1.003704e+00 -4.761904e-02  2.562611e-01
     vertex -1.003704e+00 -3.174603e-02  1.567902e-01
     vertex -1.003704e+00 -3.174603e-02  2.562611e-01
   endloop
 endfacet
 facet normal -1.000000e+00  0.000000e+00  0.000000e+00
   outer loop
     vertex  8.199295e-01 -4.761904e-02  2.562611e-01
     vertex  8.199295e-01 -3.174603e-02  1.567902e-01
     vertex  8.199295e-01 -4.761904e-02  1.567902e-01
   endloop
 endfacet
 facet normal -1.000000e+00  0.000000e+00  0.000000e+00
   outer loop
     vertex  8.199295e-01 -4.761904e-02  2.562611e-01
     vertex  8.199295e-01 -3.174603e-02  2.562611e-01
     vertex  8.199295e-01 -3.174603e-02  1.567902e-01
   endloop
 endfacet
 facet normal  0.000000e+00  0.000000e+00 -1.000000e+00
   outer loop
     vertex  8.199295e-01 -4.761904e-02  1.567902e-01
     vertex  9.194004e-01 -3.174603e-02  1.567902e-01
     vertex  9.194004e-01 -4.761904e-02  1.567902e-01
   endloop
 endfacet
 facet normal  0.000000e+00  0.000000e+00 -1.000000e+00
   outer loop
     vertex  8.199295e-01 -4.761904e-02  1.567902e-01
     vertex  8.199295e-01 -3.174603e-02  1.567902e-01
     vertex  9.194004e-01 -3.174603e-02  1.567902e-01
   endloop
 endfacet
 facet normal  0.000000e+00  0.000000e+00  1.000000e+00
   outer loop
     vertex  8.199295e-01 -4.761904e-02 -3.405643e-01
     vertex  9.194004e-01 -4.761904e-02 -3.405643e-01
     vertex  9.194004e-01 -3.174603e-02 -3.405643e-01
   endloop
 endfacet
 facet normal  0.000000e+00  0.000000e+00  1.000000e+00
   outer loop
     vertex  8.199295e-01 -4.761904e-02 -3.405643e-01
     vertex  9.194004e-01 -3.174603e-02 -3.405643e-01
     vertex  8.199295e-01 -3.174603e-02 -3.405643e-01
   endloop
 endfacet
 facet normal -1.000000e+00  0.000000e+00  0.000000e+00
   outer loop
     vertex  8.199295e-01 -4.761904e-02 -4.068783e-01
     vertex  8.199295e-01 -4.761904e-02 -3.405643e-01
     vertex  8.199295e-01 -3.174603e-02 -3.405643e-01
   endloop
 endfacet
 facet normal -1.000000e+00  0.000000e+00  0.000000e+00
   outer loop
     vertex  8.199295e-01 -4.761904e-02 -4.068783e-01
     vertex  8.199295e-01 -3.174603e-02 -3.405643e-01
     vertex  8.199295e-01 -3.174603e-02 -4.068783e-01
   endloop
 endfacet
 facet normal  1.000000e+00  0.000000e+00  0.000000e+00
   outer loop
     vertex -1.003704e+00 -4.761904e-02 -3.405643e-01
     vertex -1.003704e+00 -4.761904e-02 -4.068783e-01
     vertex -1.003704e+00 -3.174603e-02 -4.068783e-01
   endloop
 endfacet
 facet normal  1.000000e+00 -0.000000e+00  0.000000e+00
   outer loop
     vertex -1.003704e+00 -4.761904e-02 -3.405643e-01
     vertex -1.003704e+00 -3.174603e-02 -4.068783e-01
     vertex -1.003704e+00 -3.174603e-02 -3.405643e-01
   endloop
 endfacet
 facet normal -1.000000e+00  0.000000e+00  0.000000e+00
   outer loop
     vertex -1.070018e+00 -4.761904e-02  1.567902e-01
     vertex -1.070018e+00 -4.126984e-01  2.562611e-01
     vertex -1.070018e+00 -4.761904e-02  2.562611e-01
   endloop
 endfacet
 facet normal -1.000000e+00  0.000000e+00  0.000000e+00
   outer loop
     vertex -1.070018e+00 -4.761904e-02  1.567902e-01
     vertex -1.070018e+00 -4.126984e-01  1.567902e-01
     vertex -1.070018e+00 -4.126984e-01  2.562611e-01
   endloop
 endfacet
 facet normal  1.000000e+00  0.000000e+00  0.000000e+00
   outer loop
     vertex  9.194004e-01 -1.587302e-02 -4.068783e-01
     vertex  9.194004e-01  0.000000e+00  2.562611e-01
     vertex  9.194004e-01 -1.587302e-02  2.562611e-01
   endloop
 endfacet
 facet normal  1.000000e+00  0.000000e+00  0.000000e+00
   outer loop
     vertex  9.194004e-01 -1.587302e-02 -4.068783e-01
     vertex  9.194004e-01  0.000000e+00 -4.068783e-01
     vertex  9.194004e-01  0.000000e+00  2.562611e-01
   endloop
 endfacet
 facet normal  1.000000e+00  0.000000e+00  0.000000e+00
   outer loop
     vertex  9.194004e-01 -4.761904e-02  1.567902e-01
     vertex  9.194004e-01 -3.174606e-02  2.562611e-01
     vertex  9.194004e-01 -4.761904e-02  2.562611e-01
   endloop
 endfacet
 facet normal  1.000000e+00  0.000000e+00  0.000000e+00
   outer loop
     vertex  9.194004e-01 -4.761904e-02  1.567902e-01
     vertex  9.194004e-01 -3.174603e-02  1.567902e-01
     vertex  9.194004e-01 -3.174606e-02  2.562611e-01
   endloop
 endfacet
 facet normal  1.000000e+00  0.000000e+00  0.000000e+00
   outer loop
     vertex  9.194004e-01 -4.761904e-02 -3.405643e-01
     vertex  9.194004e-01 -4.761904e-02 -4.068783e-01
     vertex  9.194004e-01 -3.174606e-02 -4.068783e-01
   endloop
 endfacet
 facet normal  1.000000e+00 -0.000000e+00  0.000000e+00
   outer loop
     vertex  9.194004e-01 -4.761904e-02 -3.405643e-01
     vertex  9.194004e-01 -3.174606e-02 -4.068783e-01
     vertex  9.194004e-01 -3.174603e-02 -3.405643e-01
   endloop
 endfacet
 facet normal -0.000000e+00  0.000000e+00 -1.000000e+00
   outer loop
     vertex  9.194004e-01 -4.761904e-02 -4.068783e-01
     vertex  8.199295e-01 -4.126984e-01 -4.068783e-01
     vertex  8.199295e-01 -4.761904e-02 -4.068783e-01
   endloop
 endfacet
 facet normal  0.000000e+00 -0.000000e+00 -1.000000e+00
   outer loop
     vertex  9.194004e-01 -4.761904e-02 -4.068783e-01
     vertex  9.194004e-01 -4.126984e-01 -4.068783e-01
     vertex  8.199295e-01 -4.126984e-01 -4.068783e-01
   endloop
 endfacet
 facet normal -0.000000e+00  0.000000e+00 -1.000000e+00
   outer loop
     vertex -1.003704e+00 -4.761904e-02 -4.068783e-01
     vertex -1.070018e+00 -4.126984e-01 -4.068783e-01
     vertex -1.070018e+00 -4.761904e-02 -4.068783e-01
   endloop
 endfacet
 facet normal  0.000000e+00 -0.000000e+00 -1.000000e+00
   outer loop
     vertex -1.003704e+00 -4.761904e-02 -4.068783e-01
     vertex -1.003704e+00 -4.126984e-01 -4.068783e-01
     vertex -1.070018e+00 -4.126984e-01 -4.068783e-01
   endloop
 endfacet
 facet normal -0.000000e+00  0.000000e+00  1.000000e+00
   outer loop
     vertex -1.070018e+00 -4.761904e-02  2.562611e-01
     vertex -1.003704e+00 -4.126984e-01  2.562611e-01
     vertex -1.003704e+00 -4.761904e-02  2.562611e-01
   endloop
 endfacet
 facet normal  0.000000e+00  0.000000e+00  1.000000e+00
   outer loop
     vertex -1.070018e+00 -4.761904e-02  2.562611e-01
     vertex -1.070018e+00 -4.126984e-01  2.562611e-01
     vertex -1.003704e+00 -4.126984e-01  2.562611e-01
   endloop
 endfacet
 facet normal  0.000000e+00  0.000000e+00  1.000000e+00
   outer loop
     vertex  9.194004e-01 -4.761904e-02  2.562611e-01
     vertex  8.199295e-01 -4.761904e-02  2.562611e-01
     vertex  8.199295e-01 -4.126984e-01  2.562611e-01
   endloop
 endfacet
 facet normal  0.000000e+00  0.000000e+00  1.000000e+00
   outer loop
     vertex  9.194004e-01 -4.761904e-02  2.562611e-01
     vertex  8.199295e-01 -4.126984e-01  2.562611e-01
     vertex  9.194004e-01 -4.126984e-01  2.562611e-01
   endloop
 endfacet
 facet normal -0.000000e+00  0.000000e+00  1.000000e+00
   outer loop
     vertex -1.070018e+00 -4.761904e-02 -3.405643e-01
     vertex -1.003704e+00 -4.126984e-01 -3.405643e-01
     vertex -1.003704e+00 -4.761904e-02 -3.405643e-01
   endloop
 endfacet
 facet normal  0.000000e+00  0.000000e+00  1.000000e+00
   outer loop
     vertex -1.070018e+00 -4.761904e-02 -3.405643e-01
     vertex -1.070018e+00 -4.126984e-01 -3.405643e-01
     vertex -1.003704e+00 -4.126984e-01 -3.405643e-01
   endloop
 endfacet
 facet normal  0.000000e+00 -1.000000e+00 -0.000000e+00
   outer loop
     vertex -1.003704e+00 -4.126984e-01 -3.405643e-01
     vertex -1.070018e+00 -4.126984e-01 -4.068783e-01
     vertex -1.003704e+00 -4.126984e-01 -4.068783e-01
   endloop
 endfacet
 facet normal -0.000000e+00 -1.000000e+00  0.000000e+00
   outer loop
     vertex -1.003704e+00 -4.126984e-01 -3.405643e-01
     vertex -1.070018e+00 -4.126984e-01 -3.405643e-01
     vertex -1.070018e+00 -4.126984e-01 -4.068783e-01
   endloop
 endfacet
 facet normal -0.000000e+00  0.000000e+00 -1.000000e+00
   outer loop
     vertex -1.003704e+00 -4.761904e-02  1.567902e-01
     vertex -1.070018e+00 -4.126984e-01  1.567902e-01
     vertex -1.070018e+00 -4.761904e-02  1.567902e-01
   endloop
 endfacet
 facet normal  0.000000e+00 -0.000000e+00 -1.000000e+00
   outer loop
     vertex -1.003704e+00 -4.761904e-02  1.567902e-01
     vertex -1.003704e+00 -4.126984e-01  1.567902e-01
     vertex -1.070018e+00 -4.126984e-01  1.567902e-01
   endloop
 endfacet
 facet normal  1.000000e+00  0.000000e+00  0.000000e+00
   outer loop
     vertex -1.003704e+00 -4.761904e-02  2.562611e-01
     vertex -1.003704e+00 -4.126984e-01  1.567902e-01
     vertex -1.003704e+00 -4.761904e-02  1.567902e-01
   endloop
 endfacet
 facet normal  1.000000e+00  0.000000e+00  0.000000e+00
   outer loop
     vertex -1.003704e+00 -4.761904e-02  2.562611e-01
     vertex -1.003704e+00 -4.126984e-01  2.562611e-01
     vertex -1.003704e+00 -4.126984e-01  1.567902e-01
   endloop
 endfacet
 facet normal -1.000000e+00  0.000000e+00 -0.000000e+00
   outer loop
     vertex  8.199295e-01 -4.761904e-02  2.562611e-01
     vertex  8.199295e-01 -4.761904e-02  1.567902e-01
     vertex  8.199295e-01 -4.126984e-01  1.567902e-01
   endloop
 endfacet
 facet normal -1.000000e+00 -0.000000e+00  0.000000e+00
   outer loop
     vertex  8.199295e-01 -4.761904e-02  2.562611e-01
     vertex  8.199295e-01 -4.126984e-01  1.567902e-01
     vertex  8.199295e-01 -4.126984e-01  2.562611e-01
   endloop
 endfacet
 facet normal  0.000000e+00  0.000000e+00 -1.000000e+00
   outer loop
     vertex  8.199295e-01 -4.761904e-02  1.567902e-01
     vertex  9.194004e-01 -4.761904e-02  1.567902e-01
     vertex  9.194004e-01 -4.126984e-01  1.567902e-01
   endloop
 endfacet
 facet normal  0.000000e+00  0.000000e+00 -1.000000e+00
   outer loop
     vertex  8.199295e-01 -4.761904e-02  1.567902e-01
     vertex  9.194004e-01 -4.126984e-01  1.567902e-01
     vertex  8.199295e-01 -4.126984e-01  1.567902e-01
   endloop
 endfacet
 facet normal -0.000000e+00  0.000000e+00  1.000000e+00
   outer loop
     vertex  8.199295e-01 -4.761904e-02 -3.405643e-01
     vertex  9.194004e-01 -4.126984e-01 -3.405643e-01
     vertex  9.194004e-01 -4.761904e-02 -3.405643e-01
   endloop
 endfacet
 facet normal  0.000000e+00  0.000000e+00  1.000000e+00
   outer loop
     vertex  8.199295e-01 -4.761904e-02 -3.405643e-01
     vertex  8.199295e-01 -4.126984e-01 -3.405643e-01
     vertex  9.194004e-01 -4.126984e-01 -3.405643e-01
   endloop
 endfacet
 facet normal -1.000000e+00  0.000000e+00  0.000000e+00
   outer loop
     vertex  8.199295e-01 -4.761904e-02 -4.068783e-01
     vertex  8.199295e-01 -4.126984e-01 -3.405643e-01
     vertex  8.199295e-01 -4.761904e-02 -3.405643e-01
   endloop
 endfacet
 facet normal -1.000000e+00  0.000000e+00  0.000000e+00
   outer loop
     vertex  8.199295e-01 -4.761904e-02 -4.068783e-01
     vertex  8.199295e-01 -4.126984e-01 -4.068783e-01
     vertex  8.199295e-01 -4.126984e-01 -3.405643e-01
   endloop
 endfacet
 facet normal  1.000000e+00  0.000000e+00  0.000000e+00
   outer loop
     vertex -1.003704e+00 -4.761904e-02 -3.405643e-01
     vertex -1.003704e+00 -4.126984e-01 -4.068783e-01
     vertex -1.003704e+00 -4.761904e-02 -4.068783e-01
   endloop
 endfacet
 facet normal  1.000000e+00  0.000000e+00  0.000000e+00
   outer loop
     vertex -1.003704e+00 -4.761904e-02 -3.405643e-01
     vertex -1.003704e+00 -4.126984e-01 -3.405643e-01
     vertex -1.003704e+00 -4.126984e-01 -4.068783e-01
   endloop
 endfacet
 facet normal  0.000000e+00 -1.000000e+00 -0.000000e+00
   outer loop
     vertex -1.003704e+00 -4.126984e-01  2.562611e-01
     vertex -1.070018e+00 -4.126984e-01  1.567902e-01
     vertex -1.003704e+00 -4.126984e-01  1.567902e-01
   endloop
 endfacet
 facet normal -0.000000e+00 -1.000000e+00  0.000000e+00
   outer loop
     vertex -1.003704e+00 -4.126984e-01  2.562611e-01
     vertex -1.070018e+00 -4.126984e-01  2.562611e-01
     vertex -1.070018e+00 -4.126984e-01  1.567902e-01
   endloop
 endfacet
 facet normal  1.000000e+00  0.000000e+00 -0.000000e+00
   outer loop
     vertex  9.194004e-01 -4.761904e-02  1.567902e-01
     vertex  9.194004e-01 -4.761904e-02  2.562611e-01
     vertex  9.194004e-01 -4.126984e-01  2.562611e-01
   endloop
 endfacet
 facet normal  1.000000e+00  0.000000e+00  0.000000e+00
   outer loop
     vertex  9.194004e-01 -4.761904e-02  1.567902e-01
     vertex  9.194004e-01 -4.126984e-01  2.562611e-01
     vertex  9.194004e-01 -4.126984e-01  1.567902e-01
   endloop
 endfacet
 facet normal  1.000000e+00  0.000000e+00  0.000000e+00
   outer loop
     vertex  9.194004e-01 -4.761904e-02 -3.405643e-01
     vertex  9.194004e-01 -4.126984e-01 -4.068783e-01
     vertex  9.194004e-01 -4.761904e-02 -4.068783e-01
   endloop
 endfacet
 facet normal  1.000000e+00  0.000000e+00  0.000000e+00
   outer loop
     vertex  9.194004e-01 -4.761904e-02 -3.405643e-01
     vertex  9.194004e-01 -4.126984e-01 -3.405643e-01
     vertex  9.194004e-01 -4.126984e-01 -4.068783e-01
   endloop
 endfacet
 facet normal  0.000000e+00 -1.000000e+00 -0.000000e+00
   outer loop
     vertex  9.194004e-01 -4.126984e-01 -3.405643e-01
     vertex  8.199295e-01 -4.126984e-01 -4.068783e-01
     vertex  9.194004e-01 -4.126984e-01 -4.068783e-01
   endloop
 endfacet
 facet normal -0.000000e+00 -1.000000e+00  0.000000e+00
   outer loop
     vertex  9.194004e-01 -4.126984e-01 -3.405643e-01
     vertex  8.199295e-01 -4.126984e-01 -3.405643e-01
     vertex  8.199295e-01 -4.126984e-01 -4.068783e-01
   endloop
 endfacet
 facet normal  0.000000e+00 -1.000000e+00 -0.000000e+00
   outer loop
     vertex  9.194004e-01 -4.126984e-01  2.562611e-01
     vertex  8.199295e-01 -4.126984e-01  1.567902e-01
     vertex  9.194004e-01 -4.126984e-01  1.567902e-01
   endloop
 endfacet
 facet normal -0.000000e+00 -1.000000e+00  0.000000e+00
   outer loop
     vertex  9.194004e-01 -4.126984e-01  2.562611e-01
     vertex  8.199295e-01 -4.126984e-01  2.562611e-01
     vertex  8.199295e-01 -4.126984e-01  1.567902e-01
   endloop
 endfacet
endsolid
