solid 
 facet normal  0.000000e+00  0.000000e+00 -1.000000e+00
   outer loop
     vertex -1.587302e-02 -1.571428e-01 -5.873017e-02
     vertex  9.841270e-01 -2.015873e-01 -5.873017e-02
     vertex -1.587302e-02 -2.015873e-01 -5.873017e-02
   endloop
 endfacet
 facet normal  0.000000e+00  0.000000e+00 -1.000000e+00
   outer loop
     vertex -1.587302e-02 -1.571428e-01 -5.873017e-02
     vertex  9.841270e-01 -1.571428e-01 -5.873017e-02
     vertex  9.841270e-01 -2.015873e-01 -5.873017e-02
   endloop
 endfacet
 facet normal  0.000000e+00 -1.000000e+00  0.000000e+00
   outer loop
     vertex -1.587302e-02 -2.015873e-01 -5.873017e-02
     vertex  9.841270e-01 -2.015873e-01 -7.936522e-03
     vertex -1.587302e-02 -2.015873e-01 -7.936522e-03
   endloop
 endfacet
 facet normal  0.000000e+00 -1.000000e+00  0.000000e+00
   outer loop
     vertex -1.587302e-02 -2.015873e-01 -5.873017e-02
     vertex  9.841270e-01 -2.015873e-01 -5.873017e-02
     vertex  9.841270e-01 -2.015873e-01 -7.936522e-03
   endloop
 endfacet
 facet normal  0.000000e+00 -9.230769e-01 -3.846154e-01
   outer loop
     vertex -1.587302e-02 -6.190473e-02 -2.873016e-01
     vertex  9.841270e-01 -1.571428e-01 -5.873017e-02
     vertex -1.587302e-02 -1.571428e-01 -5.873017e-02
   endloop
 endfacet
 facet normal  0.000000e+00 -9.230769e-01 -3.846154e-01
   outer loop
     vertex -1.587302e-02 -6.190473e-02 -2.873016e-01
     vertex  9.841270e-01 -6.190473e-02 -2.873016e-01
     vertex  9.841270e-01 -1.571428e-01 -5.873017e-02
   endloop
 endfacet
 facet normal  0.000000e+00 -0.000000e+00 -1.000000e+00
   outer loop
     vertex -1.587302e-02 -1.571428e-01 -5.873017e-02
     vertex -1.587302e-02 -2.015873e-01 -5.873017e-02
     vertex -3.174603e-02 -2.015873e-01 -5.873017e-02
   endloop
 endfacet
 facet normal -0.000000e+00  0.000000e+00 -1.000000e+00
   outer loop
     vertex -1.587302e-02 -1.571428e-01 -5.873017e-02
     vertex -3.174603e-02 -2.015873e-01 -5.873017e-02
     vertex -3.174603e-02 -1.571428e-01 -5.873017e-02
   endloop
 endfacet
 facet normal  1.000000e+00  0.000000e+00  0.000000e+00
   outer loop
     vertex  9.841270e-01 -2.015873e-01 -7.936522e-03
     vertex  9.841270e-01 -2.015873e-01 -5.873017e-02
     vertex  9.841270e-01 -1.571428e-01 -5.873017e-02
   endloop
 endfacet
 facet normal  1.000000e+00  0.000000e+00  0.000000e+00
   outer loop
     vertex  9.841270e-01  7.777782e-02 -2.873016e-01
     vertex  9.841270e-01 -8.483242e-02 -2.104056e-01
     vertex  9.841270e-01 -6.190473e-02 -2.873016e-01
   endloop
 endfacet
 facet normal  1.000000e+00  0.000000e+00  0.000000e+00
   outer loop
     vertex  9.841270e-01 -3.403877e-02 -1.370370e-01
     vertex  9.841270e-01 -8.483242e-02 -2.104056e-01
     vertex  9.841270e-01  7.777782e-02 -2.873016e-01
   endloop
 endfacet
 facet normal  1.000000e+00  0.000000e+00  0.000000e+00
   outer loop
     vertex  9.841270e-01 -3.403877e-02 -1.370370e-01
     vertex  9.841270e-01 -1.571428e-01 -5.873017e-02
     vertex  9.841270e-01 -8.483242e-02 -1.370370e-01
   endloop
 endfacet
 facet normal  1.000000e+00  0.000000e+00  0.000000e+00
   outer loop
     vertex  9.841270e-01  7.777782e-02 -7.936522e-03
     vertex  9.841270e-01 -2.015873e-01 -7.936522e-03
     vertex  9.841270e-01 -1.571428e-01 -5.873017e-02
   endloop
 endfacet
 facet normal  1.000000e+00  0.000000e+00  0.000000e+00
   outer loop
     vertex  9.841270e-01  7.777782e-02 -7.936522e-03
     vertex  9.841270e-01 -3.403877e-02 -1.370370e-01
     vertex  9.841270e-01  7.777782e-02 -2.873016e-01
   endloop
 endfacet
 facet normal  1.000000e+00  0.000000e+00  0.000000e+00
   outer loop
     vertex  9.841270e-01  7.777782e-02 -7.936522e-03
     vertex  9.841270e-01 -1.571428e-01 -5.873017e-02
     vertex  9.841270e-01 -3.403877e-02 -1.370370e-01
   endloop
 endfacet
 facet normal  1.000000e+00  0.000000e+00  0.000000e+00
   outer loop
     vertex  9.841270e-01 -1.571428e-01 -5.873017e-02
     vertex  9.841270e-01 -6.190473e-02 -2.873016e-01
     vertex  9.841270e-01 -8.483242e-02 -2.104056e-01
   endloop
 endfacet
 facet normal  1.000000e+00  0.000000e+00  0.000000e+00
   outer loop
     vertex  9.841270e-01 -1.571428e-01 -5.873017e-02
     vertex  9.841270e-01 -8.483242e-02 -2.104056e-01
     vertex  9.841270e-01 -8.483242e-02 -1.370370e-01
   endloop
 endfacet
 facet normal  0.000000e+00  0.000000e+00  1.000000e+00
   outer loop
     vertex -1.587302e-02 -2.015873e-01 -7.936522e-03
     vertex  9.841270e-01  7.777782e-02 -7.936522e-03
     vertex -1.587302e-02  7.777782e-02 -7.936522e-03
   endloop
 endfacet
 facet normal  0.000000e+00  0.000000e+00  1.000000e+00
   outer loop
     vertex -1.587302e-02 -2.015873e-01 -7.936522e-03
     vertex  9.841270e-01 -2.015873e-01 -7.936522e-03
     vertex  9.841270e-01  7.777782e-02 -7.936522e-03
   endloop
 endfacet
 facet normal  0.000000e+00 -1.000000e+00  0.000000e+00
   outer loop
     vertex -1.587302e-02 -2.015873e-01 -5.873017e-02
     vertex -1.587302e-02 -2.015873e-01 -7.936522e-03
     vertex -3.174603e-02 -2.015873e-01 -7.936522e-03
   endloop
 endfacet
 facet normal  0.000000e+00 -1.000000e+00  0.000000e+00
   outer loop
     vertex -1.587302e-02 -2.015873e-01 -5.873017e-02
     vertex -3.174603e-02 -2.015873e-01 -7.936522e-03
     vertex -3.174603e-02 -2.015873e-01 -5.873017e-02
   endloop
 endfacet
 facet normal  0.000000e+00  0.000000e+00 -1.000000e+00
   outer loop
     vertex -1.587302e-02  7.777782e-02 -2.873016e-01
     vertex  9.841270e-01 -6.190473e-02 -2.873016e-01
     vertex -1.587302e-02 -6.190473e-02 -2.873016e-01
   endloop
 endfacet
 facet normal  0.000000e+00  0.000000e+00 -1.000000e+00
   outer loop
     vertex -1.587302e-02  7.777782e-02 -2.873016e-01
     vertex  9.841270e-01  7.777782e-02 -2.873016e-01
     vertex  9.841270e-01 -6.190473e-02 -2.873016e-01
   endloop
 endfacet
 facet normal  0.000000e+00 -9.230769e-01 -3.846154e-01
   outer loop
     vertex -1.587302e-02 -6.190473e-02 -2.873016e-01
     vertex -1.587302e-02 -1.571428e-01 -5.873017e-02
     vertex -3.174603e-02 -1.571428e-01 -5.873017e-02
   endloop
 endfacet
 facet normal -0.000000e+00 -9.230769e-01 -3.846154e-01
   outer loop
     vertex -1.587302e-02 -6.190473e-02 -2.873016e-01
     vertex -3.174603e-02 -1.571428e-01 -5.873017e-02
     vertex -3.174603e-02 -6.190473e-02 -2.873016e-01
   endloop
 endfacet
 facet normal -1.000000e+00  0.000000e+00  0.000000e+00
   outer loop
     vertex -3.174603e-02 -2.015873e-01 -7.936522e-03
     vertex -3.174603e-02 -1.571428e-01 -5.873017e-02
     vertex -3.174603e-02 -2.015873e-01 -5.873017e-02
   endloop
 endfacet
 facet normal -1.000000e+00  0.000000e+00  0.000000e+00
   outer loop
     vertex -3.174603e-02  7.777782e-02 -2.873016e-01
     vertex -3.174603e-02 -6.190473e-02 -2.873016e-01
     vertex -3.174603e-02 -8.483242e-02 -2.104056e-01
   endloop
 endfacet
 facet normal -1.000000e+00  0.000000e+00 -0.000000e+00
   outer loop
     vertex -3.174603e-02 -3.403877e-02 -1.370370e-01
     vertex -3.174603e-02  7.777782e-02 -2.873016e-01
     vertex -3.174603e-02 -8.483242e-02 -2.104056e-01
   endloop
 endfacet
 facet normal -1.000000e+00  0.000000e+00  0.000000e+00
   outer loop
     vertex -3.174603e-02 -3.403877e-02 -1.370370e-01
     vertex -3.174603e-02 -8.483242e-02 -1.370370e-01
     vertex -3.174603e-02 -1.571428e-01 -5.873017e-02
   endloop
 endfacet
 facet normal -1.000000e+00 -0.000000e+00  0.000000e+00
   outer loop
     vertex -3.174603e-02  7.777782e-02 -7.936522e-03
     vertex -3.174603e-02 -1.571428e-01 -5.873017e-02
     vertex -3.174603e-02 -2.015873e-01 -7.936522e-03
   endloop
 endfacet
 facet normal -1.000000e+00  0.000000e+00 -0.000000e+00
   outer loop
     vertex -3.174603e-02  7.777782e-02 -7.936522e-03
     vertex -3.174603e-02  7.777782e-02 -2.873016e-01
     vertex -3.174603e-02 -3.403877e-02 -1.370370e-01
   endloop
 endfacet
 facet normal -1.000000e+00  0.000000e+00  0.000000e+00
   outer loop
     vertex -3.174603e-02  7.777782e-02 -7.936522e-03
     vertex -3.174603e-02 -3.403877e-02 -1.370370e-01
     vertex -3.174603e-02 -1.571428e-01 -5.873017e-02
   endloop
 endfacet
 facet normal -1.000000e+00  0.000000e+00  0.000000e+00
   outer loop
     vertex -3.174603e-02 -1.571428e-01 -5.873017e-02
     vertex -3.174603e-02 -8.483242e-02 -2.104056e-01
     vertex -3.174603e-02 -6.190473e-02 -2.873016e-01
   endloop
 endfacet
 facet normal -1.000000e+00  0.000000e+00  0.000000e+00
   outer loop
     vertex -3.174603e-02 -1.571428e-01 -5.873017e-02
     vertex -3.174603e-02 -8.483242e-02 -1.370370e-01
     vertex -3.174603e-02 -8.483242e-02 -2.104056e-01
   endloop
 endfacet
 facet normal  0.000000e+00  1.000000e+00  0.000000e+00
   outer loop
     vertex -1.587302e-02  7.777782e-02 -7.936522e-03
     vertex  9.841270e-01  7.777782e-02 -2.873016e-01
     vertex -1.587302e-02  7.777782e-02 -2.873016e-01
   endloop
 endfacet
 facet normal -0.000000e+00  1.000000e+00  0.000000e+00
   outer loop
     vertex -1.587302e-02  7.777782e-02 -7.936522e-03
     vertex  9.841270e-01  7.777782e-02 -7.936522e-03
     vertex  9.841270e-01  7.777782e-02 -2.873016e-01
   endloop
 endfacet
 facet normal  1.000000e+00  0.000000e+00  0.000000e+00
   outer loop
     vertex  9.841270e-01 -3.403877e-02 -1.370370e-01
     vertex  9.841270e-01 -8.483242e-02 -1.370370e-01
     vertex  9.841270e-01 -8.483242e-02 -2.104056e-01
   endloop
 endfacet
 facet normal  0.000000e+00 -0.000000e+00  1.000000e+00
   outer loop
     vertex -1.587302e-02 -2.015873e-01 -7.936522e-03
     vertex -1.587302e-02  7.777782e-02 -7.936522e-03
     vertex -3.174603e-02  7.777782e-02 -7.936522e-03
   endloop
 endfacet
 facet normal  0.000000e+00  0.000000e+00  1.000000e+00
   outer loop
     vertex -1.587302e-02 -2.015873e-01 -7.936522e-03
     vertex -3.174603e-02  7.777782e-02 -7.936522e-03
     vertex -3.174603e-02 -2.015873e-01 -7.936522e-03
   endloop
 endfacet
 facet normal  0.000000e+00 -0.000000e+00 -1.000000e+00
   outer loop
     vertex -1.587302e-02  7.777782e-02 -2.873016e-01
     vertex -1.587302e-02 -6.190473e-02 -2.873016e-01
     vertex -3.174603e-02 -6.190473e-02 -2.873016e-01
   endloop
 endfacet
 facet normal -0.000000e+00  0.000000e+00 -1.000000e+00
   outer loop
     vertex -1.587302e-02  7.777782e-02 -2.873016e-01
     vertex -3.174603e-02 -6.190473e-02 -2.873016e-01
     vertex -3.174603e-02  7.777782e-02 -2.873016e-01
   endloop
 endfacet
 facet normal  0.000000e+00  1.000000e+00  0.000000e+00
   outer loop
     vertex -1.587302e-02  7.777782e-02 -7.936522e-03
     vertex -1.587302e-02  7.777782e-02 -2.873016e-01
     vertex -3.174603e-02  7.777782e-02 -2.873016e-01
   endloop
 endfacet
 facet normal  0.000000e+00  1.000000e+00  0.000000e+00
   outer loop
     vertex -1.587302e-02  7.777782e-02 -7.936522e-03
     vertex -3.174603e-02  7.777782e-02 -2.873016e-01
     vertex -3.174603e-02  7.777782e-02 -7.936522e-03
   endloop
 endfacet
 facet normal -1.000000e+00 -0.000000e+00  0.000000e+00
   outer loop
     vertex -3.174603e-02 -3.403877e-02 -1.370370e-01
     vertex -3.174603e-02 -8.483242e-02 -2.104056e-01
     vertex -3.174603e-02 -8.483242e-02 -1.370370e-01
   endloop
 endfacet
endsolid
