solid 
 facet normal  0.000000e+00 -1.000000e+00  0.000000e+00
   outer loop
     vertex  4.855379e-01 -3.758377e-01 -1.587302e-02
     vertex -7.391535e-01 -3.758377e-01  4.126984e-01
     vertex -7.391535e-01 -3.758377e-01 -1.587302e-02
   endloop
 endfacet
 facet normal  0.000000e+00 -1.000000e+00  0.000000e+00
   outer loop
     vertex  4.855379e-01 -3.758377e-01 -1.587302e-02
     vertex  4.855379e-01 -3.758377e-01  4.126984e-01
     vertex -7.391535e-01 -3.758377e-01  4.126984e-01
   endloop
 endfacet
 facet normal -1.000000e+00  0.000000e+00  0.000000e+00
   outer loop
     vertex -7.391535e-01 -3.758377e-01 -1.587302e-02
     vertex -7.391535e-01  2.365080e-01  4.126984e-01
     vertex -7.391535e-01  2.365080e-01 -1.587302e-02
   endloop
 endfacet
 facet normal -1.000000e+00  0.000000e+00  0.000000e+00
   outer loop
     vertex -7.391535e-01 -3.758377e-01 -1.587302e-02
     vertex -7.391535e-01 -3.758377e-01  4.126984e-01
     vertex -7.391535e-01  2.365080e-01  4.126984e-01
   endloop
 endfacet
 facet normal  1.000000e+00  0.000000e+00  0.000000e+00
   outer loop
     vertex  4.855379e-01  2.365080e-01 -1.587302e-02
     vertex  4.855379e-01 -3.758377e-01  4.126984e-01
     vertex  4.855379e-01 -3.758377e-01 -1.587302e-02
   endloop
 endfacet
 facet normal  1.000000e+00  0.000000e+00 -0.000000e+00
   outer loop
     vertex  4.855379e-01  2.365080e-01 -1.587302e-02
     vertex  4.855379e-01  2.365080e-01  4.126984e-01
     vertex  4.855379e-01 -3.758377e-01  4.126984e-01
   endloop
 endfacet
 facet normal -0.000000e+00 -1.000000e+00  0.000000e+00
   outer loop
     vertex  4.855379e-01 -3.758377e-01 -1.587302e-02
     vertex -7.391535e-01 -3.758377e-01 -1.587302e-02
     vertex -7.391535e-01 -3.758377e-01 -3.174603e-02
   endloop
 endfacet
 facet normal  0.000000e+00 -1.000000e+00 -0.000000e+00
   outer loop
     vertex  4.855379e-01 -3.758377e-01 -1.587302e-02
     vertex -7.391535e-01 -3.758377e-01 -3.174603e-02
     vertex  4.855379e-01 -3.758377e-01 -3.174603e-02
   endloop
 endfacet
 facet normal  0.000000e+00  0.000000e+00  1.000000e+00
   outer loop
     vertex  4.855379e-01  2.365080e-01  4.126984e-01
     vertex -7.391535e-01 -3.758377e-01  4.126984e-01
     vertex  4.855379e-01 -3.758377e-01  4.126984e-01
   endloop
 endfacet
 facet normal  0.000000e+00  0.000000e+00  1.000000e+00
   outer loop
     vertex  4.855379e-01  2.365080e-01  4.126984e-01
     vertex -7.391535e-01  2.365080e-01  4.126984e-01
     vertex -7.391535e-01 -3.758377e-01  4.126984e-01
   endloop
 endfacet
 facet normal  0.000000e+00  1.000000e+00  0.000000e+00
   outer loop
     vertex -7.391535e-01  2.365080e-01 -1.587302e-02
     vertex  4.855379e-01  2.365080e-01  4.126984e-01
     vertex  4.855379e-01  2.365080e-01 -1.587302e-02
   endloop
 endfacet
 facet normal  0.000000e+00  1.000000e+00  0.000000e+00
   outer loop
     vertex -7.391535e-01  2.365080e-01 -1.587302e-02
     vertex -7.391535e-01  2.365080e-01  4.126984e-01
     vertex  4.855379e-01  2.365080e-01  4.126984e-01
   endloop
 endfacet
 facet normal -1.000000e+00  0.000000e+00  0.000000e+00
   outer loop
     vertex -7.391535e-01 -3.758377e-01 -1.587302e-02
     vertex -7.391535e-01  2.365080e-01 -1.587302e-02
     vertex -7.391535e-01  2.365080e-01 -3.174603e-02
   endloop
 endfacet
 facet normal -1.000000e+00  0.000000e+00  0.000000e+00
   outer loop
     vertex -7.391535e-01 -3.758377e-01 -1.587302e-02
     vertex -7.391535e-01  2.365080e-01 -3.174603e-02
     vertex -7.391535e-01 -3.758377e-01 -3.174603e-02
   endloop
 endfacet
 facet normal  1.000000e+00  0.000000e+00  0.000000e+00
   outer loop
     vertex  4.855379e-01  2.365080e-01 -1.587302e-02
     vertex  4.855379e-01 -3.758377e-01 -1.587302e-02
     vertex  4.855379e-01 -3.758377e-01 -3.174603e-02
   endloop
 endfacet
 facet normal  1.000000e+00  0.000000e+00  0.000000e+00
   outer loop
     vertex  4.855379e-01  2.365080e-01 -1.587302e-02
     vertex  4.855379e-01 -3.758377e-01 -3.174603e-02
     vertex  4.855379e-01  2.365080e-01 -3.174603e-02
   endloop
 endfacet
 facet normal  0.000000e+00 -0.000000e+00 -1.000000e+00
   outer loop
     vertex  4.855379e-01  2.365080e-01 -3.174603e-02
     vertex  4.855379e-01 -3.758377e-01 -3.174603e-02
     vertex -7.391535e-01 -3.758377e-01 -3.174603e-02
   endloop
 endfacet
 facet normal -0.000000e+00  0.000000e+00 -1.000000e+00
   outer loop
     vertex  4.855379e-01  2.365080e-01 -3.174603e-02
     vertex -7.391535e-01 -3.758377e-01 -3.174603e-02
     vertex -7.391535e-01  2.365080e-01 -3.174603e-02
   endloop
 endfacet
 facet normal -0.000000e+00  1.000000e+00  0.000000e+00
   outer loop
     vertex -7.391535e-01  2.365080e-01 -1.587302e-02
     vertex  4.855379e-01  2.365080e-01 -1.587302e-02
     vertex  4.855379e-01  2.365080e-01 -3.174603e-02
   endloop
 endfacet
 facet normal  0.000000e+00  1.000000e+00  0.000000e+00
   outer loop
     vertex -7.391535e-01  2.365080e-01 -1.587302e-02
     vertex  4.855379e-01  2.365080e-01 -3.174603e-02
     vertex -7.391535e-01  2.365080e-01 -3.174603e-02
   endloop
 endfacet
endsolid
