solid 
 facet normal -0.000000e+00  0.000000e+00 -1.000000e+00
   outer loop
     vertex  2.645552e-03  7.042329e-01 -3.174603e-02
     vertex -1.851851e-02 -1.000000e-01 -3.174603e-02
     vertex -1.851851e-02  7.042329e-01 -3.174603e-02
   endloop
 endfacet
 facet normal  0.000000e+00 -0.000000e+00 -1.000000e+00
   outer loop
     vertex  2.645552e-03  7.042329e-01 -3.174603e-02
     vertex  2.645552e-03 -1.000000e-01 -3.174603e-02
     vertex -1.851851e-02 -1.000000e-01 -3.174603e-02
   endloop
 endfacet
 facet normal  0.000000e+00  0.000000e+00 -1.000000e+00
   outer loop
     vertex  2.645552e-03 -1.211640e-01 -3.174603e-02
     vertex -1.055556e+00 -1.211640e-01 -3.174603e-02
     vertex -1.851851e-02 -1.000000e-01 -3.174603e-02
   endloop
 endfacet
 facet normal -0.000000e+00 -0.000000e+00 -1.000000e+00
   outer loop
     vertex  2.645552e-03 -1.000000e-01 -3.174603e-02
     vertex  2.645552e-03 -1.211640e-01 -3.174603e-02
     vertex -1.851851e-02 -1.000000e-01 -3.174603e-02
   endloop
 endfacet
 facet normal -0.000000e+00  0.000000e+00 -1.000000e+00
   outer loop
     vertex -1.851851e-02  7.042329e-01 -3.174603e-02
     vertex -1.055556e+00 -1.211640e-01 -3.174603e-02
     vertex -1.055556e+00  7.253969e-01 -3.174603e-02
   endloop
 endfacet
 facet normal  0.000000e+00  0.000000e+00 -1.000000e+00
   outer loop
     vertex -1.851851e-02  7.042329e-01 -3.174603e-02
     vertex -1.851851e-02 -1.000000e-01 -3.174603e-02
     vertex -1.055556e+00 -1.211640e-01 -3.174603e-02
   endloop
 endfacet
 facet normal  0.000000e+00 -0.000000e+00 -1.000000e+00
   outer loop
     vertex  2.645552e-03  7.253969e-01 -3.174603e-02
     vertex  2.645552e-03  7.042329e-01 -3.174603e-02
     vertex -1.851851e-02  7.042329e-01 -3.174603e-02
   endloop
 endfacet
 facet normal -0.000000e+00  0.000000e+00 -1.000000e+00
   outer loop
     vertex  2.645552e-03  7.253969e-01 -3.174603e-02
     vertex -1.851851e-02  7.042329e-01 -3.174603e-02
     vertex -1.055556e+00  7.253969e-01 -3.174603e-02
   endloop
 endfacet
 facet normal  1.000000e+00 -0.000000e+00  0.000000e+00
   outer loop
     vertex  2.645552e-03 -1.000000e-01 -1.587302e-02
     vertex  2.645552e-03  7.042329e-01 -3.174603e-02
     vertex  2.645552e-03  7.042329e-01 -1.587302e-02
   endloop
 endfacet
 facet normal  1.000000e+00  0.000000e+00  0.000000e+00
   outer loop
     vertex  2.645552e-03 -1.000000e-01 -1.587302e-02
     vertex  2.645552e-03 -1.000000e-01 -3.174603e-02
     vertex  2.645552e-03  7.042329e-01 -3.174603e-02
   endloop
 endfacet
 facet normal -1.000000e+00  0.000000e+00  0.000000e+00
   outer loop
     vertex -1.055556e+00 -1.211640e-01 -1.587302e-02
     vertex -1.055556e+00  7.253969e-01 -1.587302e-02
     vertex -1.055556e+00  7.253969e-01 -3.174603e-02
   endloop
 endfacet
 facet normal -1.000000e+00  0.000000e+00  0.000000e+00
   outer loop
     vertex -1.055556e+00 -1.211640e-01 -1.587302e-02
     vertex -1.055556e+00  7.253969e-01 -3.174603e-02
     vertex -1.055556e+00 -1.211640e-01 -3.174603e-02
   endloop
 endfacet
 facet normal -0.000000e+00  1.000000e+00  0.000000e+00
   outer loop
     vertex -1.055556e+00  7.253969e-01 -1.587302e-02
     vertex  2.645552e-03  7.253969e-01 -1.587302e-02
     vertex  2.645552e-03  7.253969e-01 -3.174603e-02
   endloop
 endfacet
 facet normal  0.000000e+00  1.000000e+00  0.000000e+00
   outer loop
     vertex -1.055556e+00  7.253969e-01 -1.587302e-02
     vertex  2.645552e-03  7.253969e-01 -3.174603e-02
     vertex -1.055556e+00  7.253969e-01 -3.174603e-02
   endloop
 endfacet
 facet normal  1.000000e+00  0.000000e+00  0.000000e+00
   outer loop
     vertex  2.645552e-03  7.253969e-01 -1.587302e-02
     vertex  2.645552e-03  7.042329e-01 -1.587302e-02
     vertex  2.645552e-03  7.042329e-01 -3.174603e-02
   endloop
 endfacet
 facet normal  1.000000e+00  0.000000e+00  0.000000e+00
   outer loop
     vertex  2.645552e-03  7.253969e-01 -1.587302e-02
     vertex  2.645552e-03  7.042329e-01 -3.174603e-02
     vertex  2.645552e-03  7.253969e-01 -3.174603e-02
   endloop
 endfacet
 facet normal  1.000000e+00  0.000000e+00  0.000000e+00
   outer loop
     vertex  2.645552e-03 -1.000000e-01 -1.587302e-02
     vertex  2.645552e-03 -1.211640e-01 -1.587302e-02
     vertex  2.645552e-03 -1.211640e-01 -3.174603e-02
   endloop
 endfacet
 facet normal  1.000000e+00  0.000000e+00  0.000000e+00
   outer loop
     vertex  2.645552e-03 -1.000000e-01 -1.587302e-02
     vertex  2.645552e-03 -1.211640e-01 -3.174603e-02
     vertex  2.645552e-03 -1.000000e-01 -3.174603e-02
   endloop
 endfacet
 facet normal -0.000000e+00 -1.000000e+00  0.000000e+00
   outer loop
     vertex  2.645552e-03 -1.211640e-01 -1.587302e-02
     vertex -1.055556e+00 -1.211640e-01 -1.587302e-02
     vertex -1.055556e+00 -1.211640e-01 -3.174603e-02
   endloop
 endfacet
 facet normal  0.000000e+00 -1.000000e+00 -0.000000e+00
   outer loop
     vertex  2.645552e-03 -1.211640e-01 -1.587302e-02
     vertex -1.055556e+00 -1.211640e-01 -3.174603e-02
     vertex  2.645552e-03 -1.211640e-01 -3.174603e-02
   endloop
 endfacet
 facet normal  1.000000e+00  0.000000e+00  0.000000e+00
   outer loop
     vertex  2.645552e-03 -1.000000e-01 -1.587302e-02
     vertex  2.645552e-03  7.042329e-01 -1.587302e-02
     vertex  2.645552e-03  7.042329e-01  6.000000e-08
   endloop
 endfacet
 facet normal  1.000000e+00  0.000000e+00  0.000000e+00
   outer loop
     vertex  2.645552e-03 -1.000000e-01 -1.587302e-02
     vertex  2.645552e-03  7.042329e-01  6.000000e-08
     vertex  2.645552e-03 -1.000000e-01  6.000000e-08
   endloop
 endfacet
 facet normal -1.000000e+00  0.000000e+00  0.000000e+00
   outer loop
     vertex -1.055556e+00 -1.211640e-01 -1.587302e-02
     vertex -1.055556e+00  7.253969e-01  6.000000e-08
     vertex -1.055556e+00  7.253969e-01 -1.587302e-02
   endloop
 endfacet
 facet normal -1.000000e+00  0.000000e+00  0.000000e+00
   outer loop
     vertex -1.055556e+00 -1.211640e-01 -1.587302e-02
     vertex -1.055556e+00 -1.211640e-01  6.000000e-08
     vertex -1.055556e+00  7.253969e-01  6.000000e-08
   endloop
 endfacet
 facet normal  0.000000e+00  1.000000e+00  0.000000e+00
   outer loop
     vertex -1.055556e+00  7.253969e-01 -1.587302e-02
     vertex  2.645552e-03  7.253969e-01  6.000000e-08
     vertex  2.645552e-03  7.253969e-01 -1.587302e-02
   endloop
 endfacet
 facet normal  0.000000e+00  1.000000e+00  0.000000e+00
   outer loop
     vertex -1.055556e+00  7.253969e-01 -1.587302e-02
     vertex -1.055556e+00  7.253969e-01  6.000000e-08
     vertex  2.645552e-03  7.253969e-01  6.000000e-08
   endloop
 endfacet
 facet normal  1.000000e+00  0.000000e+00  0.000000e+00
   outer loop
     vertex  2.645552e-03  7.253969e-01 -1.587302e-02
     vertex  2.645552e-03  7.042329e-01  6.000000e-08
     vertex  2.645552e-03  7.042329e-01 -1.587302e-02
   endloop
 endfacet
 facet normal  1.000000e+00  0.000000e+00 -0.000000e+00
   outer loop
     vertex  2.645552e-03  7.253969e-01 -1.587302e-02
     vertex  2.645552e-03  7.253969e-01  6.000000e-08
     vertex  2.645552e-03  7.042329e-01  6.000000e-08
   endloop
 endfacet
 facet normal  1.000000e+00  0.000000e+00  0.000000e+00
   outer loop
     vertex  2.645552e-03 -1.000000e-01 -1.587302e-02
     vertex  2.645552e-03 -1.211640e-01  6.000000e-08
     vertex  2.645552e-03 -1.211640e-01 -1.587302e-02
   endloop
 endfacet
 facet normal  1.000000e+00  0.000000e+00 -0.000000e+00
   outer loop
     vertex  2.645552e-03 -1.000000e-01 -1.587302e-02
     vertex  2.645552e-03 -1.000000e-01  6.000000e-08
     vertex  2.645552e-03 -1.211640e-01  6.000000e-08
   endloop
 endfacet
 facet normal  0.000000e+00 -1.000000e+00  0.000000e+00
   outer loop
     vertex  2.645552e-03 -1.211640e-01 -1.587302e-02
     vertex -1.055556e+00 -1.211640e-01  6.000000e-08
     vertex -1.055556e+00 -1.211640e-01 -1.587302e-02
   endloop
 endfacet
 facet normal  0.000000e+00 -1.000000e+00  0.000000e+00
   outer loop
     vertex  2.645552e-03 -1.211640e-01 -1.587302e-02
     vertex  2.645552e-03 -1.211640e-01  6.000000e-08
     vertex -1.055556e+00 -1.211640e-01  6.000000e-08
   endloop
 endfacet
 facet normal  1.000000e+00  0.000000e+00  0.000000e+00
   outer loop
     vertex  2.645552e-03 -1.000000e-01  6.000000e-08
     vertex  2.645552e-03  7.042329e-01  6.000000e-08
     vertex  2.645552e-03  7.042329e-01  3.809524e-01
   endloop
 endfacet
 facet normal  1.000000e+00  0.000000e+00  0.000000e+00
   outer loop
     vertex  2.645552e-03 -1.000000e-01  6.000000e-08
     vertex  2.645552e-03  7.042329e-01  3.809524e-01
     vertex  2.645552e-03 -1.000000e-01  3.809524e-01
   endloop
 endfacet
 facet normal  0.000000e+00  0.000000e+00  1.000000e+00
   outer loop
     vertex  2.645552e-03 -1.211640e-01  6.000000e-08
     vertex -1.851851e-02 -1.000000e-01  6.000000e-08
     vertex -1.055556e+00 -1.211640e-01  6.000000e-08
   endloop
 endfacet
 facet normal  0.000000e+00  0.000000e+00  1.000000e+00
   outer loop
     vertex  2.645552e-03 -1.000000e-01  6.000000e-08
     vertex -1.851851e-02 -1.000000e-01  6.000000e-08
     vertex  2.645552e-03 -1.211640e-01  6.000000e-08
   endloop
 endfacet
 facet normal  0.000000e+00  0.000000e+00  1.000000e+00
   outer loop
     vertex -1.851851e-02  7.042329e-01  6.000000e-08
     vertex -1.055556e+00  7.253969e-01  6.000000e-08
     vertex -1.055556e+00 -1.211640e-01  6.000000e-08
   endloop
 endfacet
 facet normal  0.000000e+00  0.000000e+00  1.000000e+00
   outer loop
     vertex -1.851851e-02  7.042329e-01  6.000000e-08
     vertex -1.055556e+00 -1.211640e-01  6.000000e-08
     vertex -1.851851e-02 -1.000000e-01  6.000000e-08
   endloop
 endfacet
 facet normal  0.000000e+00  0.000000e+00  1.000000e+00
   outer loop
     vertex  2.645552e-03  7.253969e-01  6.000000e-08
     vertex -1.851851e-02  7.042329e-01  6.000000e-08
     vertex  2.645552e-03  7.042329e-01  6.000000e-08
   endloop
 endfacet
 facet normal  0.000000e+00  0.000000e+00  1.000000e+00
   outer loop
     vertex  2.645552e-03  7.253969e-01  6.000000e-08
     vertex -1.055556e+00  7.253969e-01  6.000000e-08
     vertex -1.851851e-02  7.042329e-01  6.000000e-08
   endloop
 endfacet
 facet normal  0.000000e+00 -1.000000e+00  0.000000e+00
   outer loop
     vertex -1.851851e-02 -1.000000e-01  6.000000e-08
     vertex  2.645552e-03 -1.000000e-01  6.000000e-08
     vertex  2.645552e-03 -1.000000e-01  3.809524e-01
   endloop
 endfacet
 facet normal  0.000000e+00 -1.000000e+00  0.000000e+00
   outer loop
     vertex -1.851851e-02 -1.000000e-01  6.000000e-08
     vertex  2.645552e-03 -1.000000e-01  3.809524e-01
     vertex -1.851851e-02 -1.000000e-01  3.809524e-01
   endloop
 endfacet
 facet normal  0.000000e+00  0.000000e+00  1.000000e+00
   outer loop
     vertex  2.645552e-03  7.042329e-01  3.809524e-01
     vertex -1.851851e-02  7.042329e-01  3.809524e-01
     vertex -1.851851e-02 -1.000000e-01  3.809524e-01
   endloop
 endfacet
 facet normal  0.000000e+00  0.000000e+00  1.000000e+00
   outer loop
     vertex  2.645552e-03  7.042329e-01  3.809524e-01
     vertex -1.851851e-02 -1.000000e-01  3.809524e-01
     vertex  2.645552e-03 -1.000000e-01  3.809524e-01
   endloop
 endfacet
 facet normal  0.000000e+00  1.000000e+00  0.000000e+00
   outer loop
     vertex  2.645552e-03  7.042329e-01  6.000000e-08
     vertex -1.851851e-02  7.042329e-01  6.000000e-08
     vertex -1.851851e-02  7.042329e-01  3.809524e-01
   endloop
 endfacet
 facet normal  0.000000e+00  1.000000e+00 -0.000000e+00
   outer loop
     vertex  2.645552e-03  7.042329e-01  6.000000e-08
     vertex -1.851851e-02  7.042329e-01  3.809524e-01
     vertex  2.645552e-03  7.042329e-01  3.809524e-01
   endloop
 endfacet
 facet normal -1.000000e+00  3.882585e-17  0.000000e+00
   outer loop
     vertex -1.851851e-02  7.042329e-01  6.000000e-08
     vertex -1.851851e-02 -1.000000e-01  6.000000e-08
     vertex -1.851851e-02 -1.000000e-01  3.809524e-01
   endloop
 endfacet
 facet normal -1.000000e+00  3.882585e-17  0.000000e+00
   outer loop
     vertex -1.851851e-02  7.042329e-01  6.000000e-08
     vertex -1.851851e-02 -1.000000e-01  3.809524e-01
     vertex -1.851851e-02  7.042329e-01  3.809524e-01
   endloop
 endfacet
endsolid
