solid 
 facet normal -1.000000e+00  0.000000e+00 -0.000000e+00
   outer loop
     vertex -4.391542e-02 -1.587302e-02  3.645504e-01
     vertex -4.391542e-02 -1.587302e-02 -4.179886e-02
     vertex -4.391542e-02 -4.444445e-01 -4.179886e-02
   endloop
 endfacet
 facet normal -1.000000e+00 -0.000000e+00  0.000000e+00
   outer loop
     vertex -4.391542e-02 -1.587302e-02  3.645504e-01
     vertex -4.391542e-02 -4.444445e-01 -4.179886e-02
     vertex -4.391542e-02 -4.444445e-01  3.645504e-01
   endloop
 endfacet
 facet normal  0.000000e+00  0.000000e+00 -1.000000e+00
   outer loop
     vertex -4.391542e-02 -1.587302e-02 -4.179886e-02
     vertex  9.380952e-01 -1.587302e-02 -4.179886e-02
     vertex  9.380952e-01 -4.444445e-01 -4.179886e-02
   endloop
 endfacet
 facet normal  0.000000e+00  0.000000e+00 -1.000000e+00
   outer loop
     vertex -4.391542e-02 -1.587302e-02 -4.179886e-02
     vertex  9.380952e-01 -4.444445e-01 -4.179886e-02
     vertex -4.391542e-02 -4.444445e-01 -4.179886e-02
   endloop
 endfacet
 facet normal -1.141795e-15  0.000000e+00  1.000000e+00
   outer loop
     vertex -4.391542e-02 -1.587302e-02  3.645504e-01
     vertex -4.391542e-02 -4.444445e-01  3.645504e-01
     vertex  1.019369e-01 -4.444444e-01  3.645504e-01
   endloop
 endfacet
 facet normal  0.000000e+00  3.885781e-16  1.000000e+00
   outer loop
     vertex  1.019369e-01 -1.587302e-02  3.645504e-01
     vertex -4.391542e-02 -1.587302e-02  3.645504e-01
     vertex  1.019369e-01 -4.444444e-01  3.645504e-01
   endloop
 endfacet
 facet normal -1.000000e+00  0.000000e+00  0.000000e+00
   outer loop
     vertex -4.391542e-02 -1.587302e-02  3.645504e-01
     vertex -4.391542e-02  0.000000e+00 -4.179886e-02
     vertex -4.391542e-02 -1.587302e-02 -4.179886e-02
   endloop
 endfacet
 facet normal -1.000000e+00  0.000000e+00  0.000000e+00
   outer loop
     vertex -4.391542e-02 -1.587302e-02  3.645504e-01
     vertex -4.391542e-02  0.000000e+00  3.645504e-01
     vertex -4.391542e-02  0.000000e+00 -4.179886e-02
   endloop
 endfacet
 facet normal  1.710407e-07 -1.000000e+00  1.413756e-07
   outer loop
     vertex  6.151518e-02 -4.444444e-01  2.550493e-01
     vertex -4.391542e-02 -4.444445e-01 -4.179886e-02
     vertex  7.226927e-02 -4.444444e-01  2.420387e-01
   endloop
 endfacet
 facet normal  1.221704e-07 -1.000000e+00  1.613799e-07
   outer loop
     vertex  8.572751e-02 -4.444444e-01  2.318503e-01
     vertex  7.226927e-02 -4.444444e-01  2.420387e-01
     vertex -4.391542e-02 -4.444445e-01 -4.179886e-02
   endloop
 endfacet
 facet normal  5.690948e-07 -1.000000e+00  0.000000e+00
   outer loop
     vertex -4.391542e-02 -4.444445e-01  3.645504e-01
     vertex -4.391542e-02 -4.444445e-01 -4.179886e-02
     vertex  6.151518e-02 -4.444444e-01  2.550493e-01
   endloop
 endfacet
 facet normal  1.168166e-06 -1.000000e+00  5.768025e-07
   outer loop
     vertex  5.404186e-02 -4.444444e-01  2.701846e-01
     vertex -4.391542e-02 -4.444445e-01  3.645504e-01
     vertex  6.151518e-02 -4.444444e-01  2.550493e-01
   endloop
 endfacet
 facet normal  8.008404e-08 -1.000000e+00  1.813185e-07
   outer loop
     vertex  1.011683e-01 -4.444444e-01  2.250305e-01
     vertex  8.572751e-02 -4.444444e-01  2.318503e-01
     vertex -4.391542e-02 -4.444445e-01 -4.179886e-02
   endloop
 endfacet
 facet normal  7.873675e-07 -1.000000e+00  1.815106e-07
   outer loop
     vertex  5.025004e-02 -4.444444e-01  2.866330e-01
     vertex -4.391542e-02 -4.444445e-01  3.645504e-01
     vertex  5.404186e-02 -4.444444e-01  2.701846e-01
   endloop
 endfacet
 facet normal  3.797016e-08 -1.000000e+00  2.042172e-07
   outer loop
     vertex  1.177637e-01 -4.444444e-01  2.219449e-01
     vertex  1.011683e-01 -4.444444e-01  2.250305e-01
     vertex -4.391542e-02 -4.444445e-01 -4.179886e-02
   endloop
 endfacet
 facet normal  6.342850e-07 -1.000000e+00 -3.494196e-09
   outer loop
     vertex  5.034303e-02 -4.444444e-01  3.035126e-01
     vertex -4.391542e-02 -4.444445e-01  3.645504e-01
     vertex  5.025004e-02 -4.444444e-01  2.866330e-01
   endloop
 endfacet
 facet normal -1.131967e-08 -1.000000e+00  2.344327e-07
   outer loop
     vertex  1.346238e-01 -4.444444e-01  2.227590e-01
     vertex  1.177637e-01 -4.444444e-01  2.219449e-01
     vertex -4.391542e-02 -4.444445e-01 -4.179886e-02
   endloop
 endfacet
 facet normal  5.502595e-07 -1.000000e+00 -1.332517e-07
   outer loop
     vertex  5.431584e-02 -4.444444e-01  3.199182e-01
     vertex -4.391542e-02 -4.444445e-01  3.645504e-01
     vertex  5.034303e-02 -4.444444e-01  3.035126e-01
   endloop
 endfacet
 facet normal  4.963429e-07 -1.000000e+00 -2.519173e-07
   outer loop
     vertex  6.195545e-02 -4.444444e-01  3.349702e-01
     vertex -4.391542e-02 -4.444445e-01  3.645504e-01
     vertex  5.431584e-02 -4.444444e-01  3.199182e-01
   endloop
 endfacet
 facet normal  4.584552e-07 -1.000000e+00 -3.875217e-07
   outer loop
     vertex  7.285223e-02 -4.444444e-01  3.478616e-01
     vertex -4.391542e-02 -4.444445e-01  3.645504e-01
     vertex  6.195545e-02 -4.444444e-01  3.349702e-01
   endloop
 endfacet
 facet normal  4.306487e-07 -1.000000e+00 -5.820780e-07
   outer loop
     vertex  8.642191e-02 -4.444444e-01  3.579011e-01
     vertex -4.391542e-02 -4.444445e-01  3.645504e-01
     vertex  7.285223e-02 -4.444444e-01  3.478616e-01
   endloop
 endfacet
 facet normal  2.056875e-07 -1.000000e+00 -4.991699e-06
   outer loop
     vertex  1.019369e-01 -4.444444e-01  3.645504e-01
     vertex -4.391542e-02 -4.444445e-01  3.645504e-01
     vertex  8.642191e-02 -4.444444e-01  3.579011e-01
   endloop
 endfacet
 facet normal -9.458226e-08 -1.000000e+00  3.285152e-07
   outer loop
     vertex  3.793650e-01 -4.444445e-01  1.105821e-01
     vertex  1.508447e-01 -4.444444e-01  2.274291e-01
     vertex  1.346238e-01 -4.444444e-01  2.227590e-01
   endloop
 endfacet
 facet normal -1.375388e-07 -1.000000e+00  2.445041e-07
   outer loop
     vertex  3.793650e-01 -4.444445e-01  1.105821e-01
     vertex  1.655566e-01 -4.444444e-01  2.357049e-01
     vertex  1.508447e-01 -4.444444e-01  2.274291e-01
   endloop
 endfacet
 facet normal -1.716185e-07 -1.000000e+00  1.862690e-07
   outer loop
     vertex  3.793650e-01 -4.444445e-01  1.105821e-01
     vertex  1.779706e-01 -4.444444e-01  2.471425e-01
     vertex  1.655566e-01 -4.444444e-01  2.357049e-01
   endloop
 endfacet
 facet normal -2.043119e-07 -1.000000e+00  1.380541e-07
   outer loop
     vertex  3.793650e-01 -4.444445e-01  1.105821e-01
     vertex  1.874211e-01 -4.444444e-01  2.611288e-01
     vertex  1.779706e-01 -4.444444e-01  2.471425e-01
   endloop
 endfacet
 facet normal -2.409827e-07 -1.000000e+00  9.129951e-08
   outer loop
     vertex  3.793650e-01 -4.444445e-01  1.105821e-01
     vertex  1.934015e-01 -4.444444e-01  2.769137e-01
     vertex  1.874211e-01 -4.444444e-01  2.611288e-01
   endloop
 endfacet
 facet normal -1.078470e-07 -1.000000e+00  2.995750e-07
   outer loop
     vertex  3.793650e-01 -4.444445e-01  1.105821e-01
     vertex  1.346238e-01 -4.444444e-01  2.227590e-01
     vertex -4.391542e-02 -4.444445e-01 -4.179886e-02
   endloop
 endfacet
 facet normal -1.243208e-07 -1.000000e+00 -5.520623e-06
   outer loop
     vertex  3.793650e-01 -4.444445e-01  3.645504e-01
     vertex  1.380538e-01 -4.444444e-01  3.645504e-01
     vertex  1.532381e-01 -4.444444e-01  3.587742e-01
   endloop
 endfacet
 facet normal -2.552485e-07 -1.000000e+00 -3.949789e-07
   outer loop
     vertex  3.793650e-01 -4.444445e-01  3.645504e-01
     vertex  1.532381e-01 -4.444444e-01  3.587742e-01
     vertex  1.668828e-01 -4.444444e-01  3.499566e-01
   endloop
 endfacet
 facet normal -2.641795e-07 -1.000000e+00 -2.649457e-07
   outer loop
     vertex  3.793650e-01 -4.444445e-01  3.645504e-01
     vertex  1.668828e-01 -4.444444e-01  3.499566e-01
     vertex  1.783870e-01 -4.444444e-01  3.384857e-01
   endloop
 endfacet
 facet normal -2.753189e-07 -1.000000e+00 -1.790528e-07
   outer loop
     vertex  3.793650e-01 -4.444445e-01  3.645504e-01
     vertex  1.783870e-01 -4.444444e-01  3.384857e-01
     vertex  1.872441e-01 -4.444444e-01  3.248666e-01
   endloop
 endfacet
 facet normal -2.893682e-07 -1.000000e+00 -1.110357e-07
   outer loop
     vertex  3.793650e-01 -4.444445e-01  3.645504e-01
     vertex  1.872441e-01 -4.444444e-01  3.248666e-01
     vertex  1.930642e-01 -4.444444e-01  3.096990e-01
   endloop
 endfacet
 facet normal -3.077918e-07 -1.000000e+00 -4.846069e-08
   outer loop
     vertex  3.793650e-01 -4.444445e-01  3.645504e-01
     vertex  1.930642e-01 -4.444444e-01  3.096990e-01
     vertex  1.955909e-01 -4.444444e-01  2.936509e-01
   endloop
 endfacet
 facet normal -3.438404e-07 -1.000000e+00  4.497878e-08
   outer loop
     vertex  3.793650e-01 -4.444445e-01  3.645504e-01
     vertex  1.955909e-01 -4.444444e-01  2.936509e-01
     vertex  1.934015e-01 -4.444444e-01  2.769137e-01
   endloop
 endfacet
 facet normal -3.226439e-07 -1.000000e+00 -0.000000e+00
   outer loop
     vertex  3.793650e-01 -4.444445e-01  3.645504e-01
     vertex  1.934015e-01 -4.444444e-01  2.769137e-01
     vertex  3.793650e-01 -4.444445e-01  1.105821e-01
   endloop
 endfacet
 facet normal  0.000000e+00 -1.000000e+00  0.000000e+00
   outer loop
     vertex  9.380952e-01 -4.444445e-01 -4.179886e-02
     vertex  3.793650e-01 -4.444445e-01  1.105821e-01
     vertex -4.391542e-02 -4.444445e-01 -4.179886e-02
   endloop
 endfacet
 facet normal -0.000000e+00 -1.000000e+00 -0.000000e+00
   outer loop
     vertex  9.380952e-01 -4.444445e-01  1.105821e-01
     vertex  3.793650e-01 -4.444445e-01  1.105821e-01
     vertex  9.380952e-01 -4.444445e-01 -4.179886e-02
   endloop
 endfacet
 facet normal  1.000000e+00  0.000000e+00 -0.000000e+00
   outer loop
     vertex  9.380952e-01 -1.587302e-02 -4.179886e-02
     vertex  9.380952e-01 -1.587302e-02  1.105821e-01
     vertex  9.380952e-01 -4.444445e-01  1.105821e-01
   endloop
 endfacet
 facet normal  1.000000e+00  0.000000e+00  0.000000e+00
   outer loop
     vertex  9.380952e-01 -1.587302e-02 -4.179886e-02
     vertex  9.380952e-01 -4.444445e-01  1.105821e-01
     vertex  9.380952e-01 -4.444445e-01 -4.179886e-02
   endloop
 endfacet
 facet normal  0.000000e+00  0.000000e+00 -1.000000e+00
   outer loop
     vertex -4.391542e-02 -1.587302e-02 -4.179886e-02
     vertex  9.380952e-01  0.000000e+00 -4.179886e-02
     vertex  9.380952e-01 -1.587302e-02 -4.179886e-02
   endloop
 endfacet
 facet normal  0.000000e+00  0.000000e+00 -1.000000e+00
   outer loop
     vertex -4.391542e-02 -1.587302e-02 -4.179886e-02
     vertex -4.391542e-02  0.000000e+00 -4.179886e-02
     vertex  9.380952e-01  0.000000e+00 -4.179886e-02
   endloop
 endfacet
 facet normal  0.000000e+00  0.000000e+00  1.000000e+00
   outer loop
     vertex  1.019369e-01 -1.587302e-02  3.645504e-01
     vertex -4.391542e-02  0.000000e+00  3.645504e-01
     vertex -4.391542e-02 -1.587302e-02  3.645504e-01
   endloop
 endfacet
 facet normal  0.000000e+00 -0.000000e+00  1.000000e+00
   outer loop
     vertex  1.019369e-01 -1.587302e-02  3.645504e-01
     vertex  1.019369e-01  0.000000e+00  3.645504e-01
     vertex -4.391542e-02  0.000000e+00  3.645504e-01
   endloop
 endfacet
 facet normal -2.351765e-01  2.991586e-03  9.719481e-01
   outer loop
     vertex  1.019369e-01  0.000000e+00  3.645504e-01
     vertex  1.137567e-01  1.269842e-01  3.670195e-01
     vertex  9.758345e-02  1.269842e-01  3.631061e-01
   endloop
 endfacet
 facet normal -2.044829e-01  0.000000e+00  9.788701e-01
   outer loop
     vertex  1.019369e-01 -1.587302e-02  3.645504e-01
     vertex  1.137567e-01  1.269842e-01  3.670195e-01
     vertex  1.019369e-01  0.000000e+00  3.645504e-01
   endloop
 endfacet
 facet normal -2.044829e-01  0.000000e+00  9.788701e-01
   outer loop
     vertex  1.137567e-01 -4.444444e-01  3.670195e-01
     vertex  1.137567e-01  1.269842e-01  3.670195e-01
     vertex  1.019369e-01 -1.587302e-02  3.645504e-01
   endloop
 endfacet
 facet normal -1.500876e-01  1.556665e-03  9.886715e-01
   outer loop
     vertex  1.097732e-01 -4.444444e-01  3.664148e-01
     vertex  1.137567e-01 -4.444444e-01  3.670195e-01
     vertex  1.019369e-01 -1.587302e-02  3.645504e-01
   endloop
 endfacet
 facet normal -2.044829e-01  5.194180e-04  9.788700e-01
   outer loop
     vertex  1.058293e-01 -4.444444e-01  3.655909e-01
     vertex  1.097732e-01 -4.444444e-01  3.664148e-01
     vertex  1.019369e-01 -1.587302e-02  3.645504e-01
   endloop
 endfacet
 facet normal -4.494647e-01  2.890655e-03  8.932934e-01
   outer loop
     vertex  8.642191e-02  0.000000e+00  3.579011e-01
     vertex  9.758345e-02  1.269842e-01  3.631061e-01
     vertex  8.271903e-02  1.269842e-01  3.556270e-01
   endloop
 endfacet
 facet normal -2.582533e-01  1.412427e-16  9.660772e-01
   outer loop
     vertex  1.019369e-01 -4.444444e-01  3.645504e-01
     vertex  1.058293e-01 -4.444444e-01  3.655909e-01
     vertex  1.019369e-01 -1.587302e-02  3.645504e-01
   endloop
 endfacet
 facet normal -6.403330e-01  2.783437e-03  7.680924e-01
   outer loop
     vertex  7.285223e-02  0.000000e+00  3.478616e-01
     vertex  8.271903e-02  1.269842e-01  3.556270e-01
     vertex  6.993796e-02  1.269842e-01  3.449719e-01
   endloop
 endfacet
 facet normal -5.947610e-01 -2.947120e-03  8.038972e-01
   outer loop
     vertex  7.285223e-02  0.000000e+00  3.478616e-01
     vertex  8.642191e-02  0.000000e+00  3.579011e-01
     vertex  8.271903e-02  1.269842e-01  3.556270e-01
   endloop
 endfacet
 facet normal -7.978359e-01  2.669931e-03  6.028688e-01
   outer loop
     vertex  6.195545e-02  0.000000e+00  3.349702e-01
     vertex  6.993796e-02  1.269842e-01  3.449719e-01
     vertex  5.990622e-02  1.269842e-01  3.316959e-01
   endloop
 endfacet
 facet normal -7.637132e-01 -2.836758e-03  6.455494e-01
   outer loop
     vertex  6.195545e-02  0.000000e+00  3.349702e-01
     vertex  7.285223e-02  0.000000e+00  3.478616e-01
     vertex  6.993796e-02  1.269842e-01  3.449719e-01
   endloop
 endfacet
 facet normal -9.137665e-01  2.550139e-03  4.062317e-01
   outer loop
     vertex  5.431584e-02  0.000000e+00  3.199182e-01
     vertex  5.990622e-02  1.269842e-01  3.316959e-01
     vertex  5.314653e-02  1.269842e-01  3.164908e-01
   endloop
 endfacet
 facet normal -8.917158e-01 -2.720109e-03  4.525875e-01
   outer loop
     vertex  5.431584e-02  0.000000e+00  3.199182e-01
     vertex  6.195545e-02  0.000000e+00  3.349702e-01
     vertex  5.990622e-02  1.269842e-01  3.316959e-01
   endloop
 endfacet
 facet normal -9.820842e-01  2.424063e-03  1.884272e-01
   outer loop
     vertex  5.034303e-02  0.000000e+00  3.035126e-01
     vertex  5.314653e-02  1.269842e-01  3.164908e-01
     vertex  5.001110e-02  1.269842e-01  3.001489e-01
   endloop
 endfacet
 facet normal -9.719053e-01 -2.597175e-03  2.353581e-01
   outer loop
     vertex  5.034303e-02  0.000000e+00  3.035126e-01
     vertex  5.431584e-02  0.000000e+00  3.199182e-01
     vertex  5.314653e-02  1.269842e-01  3.164908e-01
   endloop
 endfacet
 facet normal -9.992289e-01  2.291703e-03 -3.919568e-02
   outer loop
     vertex  5.025004e-02  0.000000e+00  2.866330e-01
     vertex  5.001110e-02  1.269842e-01  3.001489e-01
     vertex  5.066332e-02  1.269842e-01  2.835218e-01
   endloop
 endfacet
 facet normal -9.999818e-01 -2.467957e-03  5.508773e-03
   outer loop
     vertex  5.025004e-02  0.000000e+00  2.866330e-01
     vertex  5.034303e-02  0.000000e+00  3.035126e-01
     vertex  5.001110e-02  1.269842e-01  3.001489e-01
   endloop
 endfacet
 facet normal -9.643074e-01  2.153062e-03 -2.647764e-01
   outer loop
     vertex  5.404186e-02  0.000000e+00  2.701846e-01
     vertex  5.066332e-02  1.269842e-01  2.835218e-01
     vertex  5.506919e-02  1.269842e-01  2.674757e-01
   endloop
 endfacet
 facet normal -9.744399e-01 -2.332456e-03 -2.246361e-01
   outer loop
     vertex  5.404186e-02  0.000000e+00  2.701846e-01
     vertex  5.025004e-02  0.000000e+00  2.866330e-01
     vertex  5.066332e-02  1.269842e-01  2.835218e-01
   endloop
 endfacet
 facet normal -8.791393e-01  2.008140e-03 -4.765606e-01
   outer loop
     vertex  6.151518e-02  0.000000e+00  2.550493e-01
     vertex  5.506919e-02  1.269842e-01  2.674757e-01
     vertex  6.299915e-02  1.269842e-01  2.528469e-01
   endloop
 endfacet
 facet normal -8.966492e-01 -2.190674e-03 -4.427363e-01
   outer loop
     vertex  6.151518e-02  0.000000e+00  2.550493e-01
     vertex  5.404186e-02  0.000000e+00  2.701846e-01
     vertex  5.506919e-02  1.269842e-01  2.674757e-01
   endloop
 endfacet
 facet normal -7.481623e-01  1.856939e-03 -6.635132e-01
   outer loop
     vertex  7.226927e-02  0.000000e+00  2.420387e-01
     vertex  6.299915e-02  1.269842e-01  2.528469e-01
     vertex  7.403999e-02  1.269842e-01  2.403975e-01
   endloop
 endfacet
 facet normal -7.707807e-01 -2.042613e-03 -6.370973e-01
   outer loop
     vertex  7.226927e-02  0.000000e+00  2.420387e-01
     vertex  6.151518e-02  0.000000e+00  2.550493e-01
     vertex  6.299915e-02  1.269842e-01  2.528469e-01
   endloop
 endfacet
 facet normal -5.782012e-01  1.699462e-03 -8.158925e-01
   outer loop
     vertex  8.572751e-02  0.000000e+00  2.318503e-01
     vertex  7.403999e-02  1.269842e-01  2.403975e-01
     vertex  8.761642e-02  1.269842e-01  2.307762e-01
   endloop
 endfacet
 facet normal -6.035833e-01 -1.888274e-03 -7.972977e-01
   outer loop
     vertex  8.572751e-02  0.000000e+00  2.318503e-01
     vertex  7.226927e-02  0.000000e+00  2.420387e-01
     vertex  7.403999e-02  1.269842e-01  2.403975e-01
   endloop
 endfacet
 facet normal -4.040220e-01 -1.727658e-03 -9.147476e-01
   outer loop
     vertex  1.011683e-01  0.000000e+00  2.250305e-01
     vertex  8.572751e-02  0.000000e+00  2.318503e-01
     vertex  8.761642e-02  1.269842e-01  2.307762e-01
   endloop
 endfacet
 facet normal -3.781119e-01  1.535709e-03 -9.257586e-01
   outer loop
     vertex  1.011683e-01  0.000000e+00  2.250305e-01
     vertex  8.761642e-02  1.269842e-01  2.307762e-01
     vertex  1.030210e-01  1.269842e-01  2.244844e-01
   endloop
 endfacet
 facet normal -1.827972e-01 -1.560768e-03 -9.831494e-01
   outer loop
     vertex  1.177637e-01  0.000000e+00  2.219449e-01
     vertex  1.011683e-01  0.000000e+00  2.250305e-01
     vertex  1.030210e-01  1.269842e-01  2.244844e-01
   endloop
 endfacet
 facet normal -1.583205e-01  1.365682e-03 -9.873868e-01
   outer loop
     vertex  1.177637e-01  0.000000e+00  2.219449e-01
     vertex  1.030210e-01  1.269842e-01  2.244844e-01
     vertex  1.194511e-01  1.269842e-01  2.218500e-01
   endloop
 endfacet
 facet normal  4.822916e-02 -1.387605e-03 -9.988353e-01
   outer loop
     vertex  1.346238e-01  0.000000e+00  2.227590e-01
     vertex  1.177637e-01  0.000000e+00  2.219449e-01
     vertex  1.194511e-01  1.269842e-01  2.218500e-01
   endloop
 endfacet
 facet normal  6.972054e-02  1.189383e-03 -9.975659e-01
   outer loop
     vertex  1.346238e-01  0.000000e+00  2.227590e-01
     vertex  1.194511e-01  1.269842e-01  2.218500e-01
     vertex  1.360505e-01  1.269842e-01  2.230101e-01
   endloop
 endfacet
 facet normal  2.766696e-01 -1.208172e-03 -9.609643e-01
   outer loop
     vertex  1.508447e-01  0.000000e+00  2.274291e-01
     vertex  1.346238e-01  0.000000e+00  2.227590e-01
     vertex  1.360505e-01  1.269842e-01  2.230101e-01
   endloop
 endfacet
 facet normal  2.941288e-01  1.006815e-03 -9.557653e-01
   outer loop
     vertex  1.508447e-01  0.000000e+00  2.274291e-01
     vertex  1.360505e-01  1.269842e-01  2.230101e-01
     vertex  1.519544e-01  1.269842e-01  2.279044e-01
   endloop
 endfacet
 facet normal  5.032111e-01  8.179791e-04 -8.641631e-01
   outer loop
     vertex  1.655566e-01  0.000000e+00  2.357049e-01
     vertex  1.519544e-01  1.269842e-01  2.279044e-01
     vertex  1.663341e-01  1.269842e-01  2.362778e-01
   endloop
 endfacet
 facet normal  4.902754e-01 -1.022469e-03 -8.715670e-01
   outer loop
     vertex  1.655566e-01  0.000000e+00  2.357049e-01
     vertex  1.508447e-01  0.000000e+00  2.274291e-01
     vertex  1.519544e-01  1.269842e-01  2.279044e-01
   endloop
 endfacet
 facet normal  6.860730e-01  6.228774e-04 -7.275325e-01
   outer loop
     vertex  1.779706e-01  0.000000e+00  2.471425e-01
     vertex  1.663341e-01  1.269842e-01  2.362778e-01
     vertex  1.784402e-01  1.269842e-01  2.476940e-01
   endloop
 endfacet
 facet normal  6.775929e-01 -8.305004e-04 -7.354367e-01
   outer loop
     vertex  1.779706e-01  0.000000e+00  2.471425e-01
     vertex  1.655566e-01  0.000000e+00  2.357049e-01
     vertex  1.663341e-01  1.269842e-01  2.362778e-01
   endloop
 endfacet
 facet normal  8.331860e-01  4.215121e-04 -5.529927e-01
   outer loop
     vertex  1.874211e-01  0.000000e+00  2.611288e-01
     vertex  1.784402e-01  1.269842e-01  2.476940e-01
     vertex  1.876419e-01  1.269842e-01  2.615582e-01
   endloop
 endfacet
 facet normal  8.285784e-01 -6.322667e-04 -5.598728e-01
   outer loop
     vertex  1.874211e-01  0.000000e+00  2.611288e-01
     vertex  1.779706e-01  0.000000e+00  2.471425e-01
     vertex  1.784402e-01  1.269842e-01  2.476940e-01
   endloop
 endfacet
 facet normal  9.368847e-01  2.138856e-04 -3.496383e-01
   outer loop
     vertex  1.934015e-01  0.000000e+00  2.769137e-01
     vertex  1.876419e-01  1.269842e-01  2.615582e-01
     vertex  1.934599e-01  1.269842e-01  2.771479e-01
   endloop
 endfacet
 facet normal  9.351360e-01 -4.277705e-04 -3.542887e-01
   outer loop
     vertex  1.934015e-01  0.000000e+00  2.769137e-01
     vertex  1.874211e-01  0.000000e+00  2.611288e-01
     vertex  1.876419e-01  1.269842e-01  2.615582e-01
   endloop
 endfacet
 facet normal  9.917657e-01  0.000000e+00 -1.280656e-01
   outer loop
     vertex  1.955909e-01  0.000000e+00  2.936509e-01
     vertex  1.934599e-01  1.269842e-01  2.771479e-01
     vertex  1.955909e-01  1.269842e-01  2.936509e-01
   endloop
 endfacet
 facet normal  9.915522e-01 -2.170142e-04 -1.297079e-01
   outer loop
     vertex  1.955909e-01  0.000000e+00  2.936509e-01
     vertex  1.934015e-01  0.000000e+00  2.769137e-01
     vertex  1.934599e-01  1.269842e-01  2.771479e-01
   endloop
 endfacet
 facet normal -3.939181e-01 -3.051194e-03  9.191405e-01
   outer loop
     vertex  8.642191e-02  0.000000e+00  3.579011e-01
     vertex  1.019369e-01  0.000000e+00  3.645504e-01
     vertex  9.758345e-02  1.269842e-01  3.631061e-01
   endloop
 endfacet
 facet normal  0.000000e+00  1.000000e+00  0.000000e+00
   outer loop
     vertex  6.151518e-02  0.000000e+00  2.550493e-01
     vertex  7.226927e-02  0.000000e+00  2.420387e-01
     vertex -4.391542e-02  0.000000e+00 -4.179886e-02
   endloop
 endfacet
 facet normal  0.000000e+00  1.000000e+00  0.000000e+00
   outer loop
     vertex  8.572751e-02  0.000000e+00  2.318503e-01
     vertex -4.391542e-02  0.000000e+00 -4.179886e-02
     vertex  7.226927e-02  0.000000e+00  2.420387e-01
   endloop
 endfacet
 facet normal  0.000000e+00  1.000000e+00  0.000000e+00
   outer loop
     vertex -4.391542e-02  0.000000e+00  3.645504e-01
     vertex  6.151518e-02  0.000000e+00  2.550493e-01
     vertex -4.391542e-02  0.000000e+00 -4.179886e-02
   endloop
 endfacet
 facet normal  0.000000e+00  1.000000e+00  0.000000e+00
   outer loop
     vertex  5.404186e-02  0.000000e+00  2.701846e-01
     vertex  6.151518e-02  0.000000e+00  2.550493e-01
     vertex -4.391542e-02  0.000000e+00  3.645504e-01
   endloop
 endfacet
 facet normal  0.000000e+00  1.000000e+00  0.000000e+00
   outer loop
     vertex  1.011683e-01  0.000000e+00  2.250305e-01
     vertex -4.391542e-02  0.000000e+00 -4.179886e-02
     vertex  8.572751e-02  0.000000e+00  2.318503e-01
   endloop
 endfacet
 facet normal  0.000000e+00  1.000000e+00  0.000000e+00
   outer loop
     vertex  5.025004e-02  0.000000e+00  2.866330e-01
     vertex  5.404186e-02  0.000000e+00  2.701846e-01
     vertex -4.391542e-02  0.000000e+00  3.645504e-01
   endloop
 endfacet
 facet normal  0.000000e+00  1.000000e+00  0.000000e+00
   outer loop
     vertex  1.177637e-01  0.000000e+00  2.219449e-01
     vertex -4.391542e-02  0.000000e+00 -4.179886e-02
     vertex  1.011683e-01  0.000000e+00  2.250305e-01
   endloop
 endfacet
 facet normal  0.000000e+00  1.000000e+00  0.000000e+00
   outer loop
     vertex  5.034303e-02  0.000000e+00  3.035126e-01
     vertex  5.025004e-02  0.000000e+00  2.866330e-01
     vertex -4.391542e-02  0.000000e+00  3.645504e-01
   endloop
 endfacet
 facet normal  0.000000e+00  1.000000e+00  0.000000e+00
   outer loop
     vertex  1.346238e-01  0.000000e+00  2.227590e-01
     vertex -4.391542e-02  0.000000e+00 -4.179886e-02
     vertex  1.177637e-01  0.000000e+00  2.219449e-01
   endloop
 endfacet
 facet normal  0.000000e+00  1.000000e+00  0.000000e+00
   outer loop
     vertex  5.431584e-02  0.000000e+00  3.199182e-01
     vertex  5.034303e-02  0.000000e+00  3.035126e-01
     vertex -4.391542e-02  0.000000e+00  3.645504e-01
   endloop
 endfacet
 facet normal  0.000000e+00  1.000000e+00  0.000000e+00
   outer loop
     vertex  6.195545e-02  0.000000e+00  3.349702e-01
     vertex  5.431584e-02  0.000000e+00  3.199182e-01
     vertex -4.391542e-02  0.000000e+00  3.645504e-01
   endloop
 endfacet
 facet normal  0.000000e+00  1.000000e+00  0.000000e+00
   outer loop
     vertex  7.285223e-02  0.000000e+00  3.478616e-01
     vertex  6.195545e-02  0.000000e+00  3.349702e-01
     vertex -4.391542e-02  0.000000e+00  3.645504e-01
   endloop
 endfacet
 facet normal  0.000000e+00  1.000000e+00  0.000000e+00
   outer loop
     vertex  8.642191e-02  0.000000e+00  3.579011e-01
     vertex  7.285223e-02  0.000000e+00  3.478616e-01
     vertex -4.391542e-02  0.000000e+00  3.645504e-01
   endloop
 endfacet
 facet normal  0.000000e+00  1.000000e+00  0.000000e+00
   outer loop
     vertex  1.019369e-01  0.000000e+00  3.645504e-01
     vertex  8.642191e-02  0.000000e+00  3.579011e-01
     vertex -4.391542e-02  0.000000e+00  3.645504e-01
   endloop
 endfacet
 facet normal  0.000000e+00  1.000000e+00  0.000000e+00
   outer loop
     vertex  3.793650e-01  0.000000e+00  1.105821e-01
     vertex  1.346238e-01  0.000000e+00  2.227590e-01
     vertex  1.508447e-01  0.000000e+00  2.274291e-01
   endloop
 endfacet
 facet normal  0.000000e+00  1.000000e+00  0.000000e+00
   outer loop
     vertex  3.793650e-01  0.000000e+00  1.105821e-01
     vertex  1.508447e-01  0.000000e+00  2.274291e-01
     vertex  1.655566e-01  0.000000e+00  2.357049e-01
   endloop
 endfacet
 facet normal  0.000000e+00  1.000000e+00  0.000000e+00
   outer loop
     vertex  3.793650e-01  0.000000e+00  1.105821e-01
     vertex  1.655566e-01  0.000000e+00  2.357049e-01
     vertex  1.779706e-01  0.000000e+00  2.471425e-01
   endloop
 endfacet
 facet normal  0.000000e+00  1.000000e+00  0.000000e+00
   outer loop
     vertex  3.793650e-01  0.000000e+00  1.105821e-01
     vertex  1.779706e-01  0.000000e+00  2.471425e-01
     vertex  1.874211e-01  0.000000e+00  2.611288e-01
   endloop
 endfacet
 facet normal  0.000000e+00  1.000000e+00  0.000000e+00
   outer loop
     vertex  3.793650e-01  0.000000e+00  1.105821e-01
     vertex  1.874211e-01  0.000000e+00  2.611288e-01
     vertex  1.934015e-01  0.000000e+00  2.769137e-01
   endloop
 endfacet
 facet normal  0.000000e+00  1.000000e+00  0.000000e+00
   outer loop
     vertex  3.793650e-01  0.000000e+00  1.105821e-01
     vertex -4.391542e-02  0.000000e+00 -4.179886e-02
     vertex  1.346238e-01  0.000000e+00  2.227590e-01
   endloop
 endfacet
 facet normal  0.000000e+00  1.000000e+00  0.000000e+00
   outer loop
     vertex  3.793650e-01  0.000000e+00  3.645504e-01
     vertex  1.955909e-01  0.000000e+00  2.936509e-01
     vertex  1.930642e-01  0.000000e+00  3.096990e-01
   endloop
 endfacet
 facet normal  0.000000e+00  1.000000e+00  0.000000e+00
   outer loop
     vertex  3.793650e-01  0.000000e+00  3.645504e-01
     vertex  1.930642e-01  0.000000e+00  3.096990e-01
     vertex  1.872441e-01  0.000000e+00  3.248666e-01
   endloop
 endfacet
 facet normal  0.000000e+00  1.000000e+00  0.000000e+00
   outer loop
     vertex  3.793650e-01  0.000000e+00  3.645504e-01
     vertex  1.872441e-01  0.000000e+00  3.248666e-01
     vertex  1.783870e-01  0.000000e+00  3.384857e-01
   endloop
 endfacet
 facet normal  0.000000e+00  1.000000e+00  0.000000e+00
   outer loop
     vertex  3.793650e-01  0.000000e+00  3.645504e-01
     vertex  1.783870e-01  0.000000e+00  3.384857e-01
     vertex  1.668828e-01  0.000000e+00  3.499566e-01
   endloop
 endfacet
 facet normal  0.000000e+00  1.000000e+00  0.000000e+00
   outer loop
     vertex  3.793650e-01  0.000000e+00  3.645504e-01
     vertex  1.668828e-01  0.000000e+00  3.499566e-01
     vertex  1.532381e-01  0.000000e+00  3.587742e-01
   endloop
 endfacet
 facet normal  0.000000e+00  1.000000e+00  0.000000e+00
   outer loop
     vertex  3.793650e-01  0.000000e+00  3.645504e-01
     vertex  1.532381e-01  0.000000e+00  3.587742e-01
     vertex  1.380538e-01  0.000000e+00  3.645504e-01
   endloop
 endfacet
 facet normal  0.000000e+00  1.000000e+00  0.000000e+00
   outer loop
     vertex  3.793650e-01  0.000000e+00  3.645504e-01
     vertex  1.934015e-01  0.000000e+00  2.769137e-01
     vertex  1.955909e-01  0.000000e+00  2.936509e-01
   endloop
 endfacet
 facet normal  0.000000e+00  1.000000e+00  0.000000e+00
   outer loop
     vertex  3.793650e-01  0.000000e+00  3.645504e-01
     vertex  3.793650e-01  0.000000e+00  1.105821e-01
     vertex  1.934015e-01  0.000000e+00  2.769137e-01
   endloop
 endfacet
 facet normal  0.000000e+00  1.000000e+00  0.000000e+00
   outer loop
     vertex  9.380952e-01  0.000000e+00 -4.179886e-02
     vertex -4.391542e-02  0.000000e+00 -4.179886e-02
     vertex  3.793650e-01  0.000000e+00  1.105821e-01
   endloop
 endfacet
 facet normal  0.000000e+00  1.000000e+00  0.000000e+00
   outer loop
     vertex  9.380952e-01  0.000000e+00  1.105821e-01
     vertex  9.380952e-01  0.000000e+00 -4.179886e-02
     vertex  3.793650e-01  0.000000e+00  1.105821e-01
   endloop
 endfacet
 facet normal  0.000000e+00 -1.000000e+00  0.000000e+00
   outer loop
     vertex  1.222223e-01 -4.444444e-01  2.936509e-01
     vertex  6.195545e-02 -4.444444e-01  3.349702e-01
     vertex  5.431584e-02 -4.444444e-01  3.199182e-01
   endloop
 endfacet
 facet normal  0.000000e+00 -1.000000e+00  0.000000e+00
   outer loop
     vertex  1.222223e-01 -4.444444e-01  2.936509e-01
     vertex  5.431584e-02 -4.444444e-01  3.199182e-01
     vertex  5.034303e-02 -4.444444e-01  3.035126e-01
   endloop
 endfacet
 facet normal -0.000000e+00 -1.000000e+00  0.000000e+00
   outer loop
     vertex  1.222223e-01 -4.444444e-01  2.936509e-01
     vertex  5.034303e-02 -4.444444e-01  3.035126e-01
     vertex  5.025004e-02 -4.444444e-01  2.866330e-01
   endloop
 endfacet
 facet normal  0.000000e+00 -1.000000e+00  0.000000e+00
   outer loop
     vertex  1.222223e-01 -4.444444e-01  2.936509e-01
     vertex  5.025004e-02 -4.444444e-01  2.866330e-01
     vertex  5.404186e-02 -4.444444e-01  2.701846e-01
   endloop
 endfacet
 facet normal  0.000000e+00 -1.000000e+00  0.000000e+00
   outer loop
     vertex  1.222223e-01 -4.444444e-01  2.936509e-01
     vertex  5.404186e-02 -4.444444e-01  2.701846e-01
     vertex  6.151518e-02 -4.444444e-01  2.550493e-01
   endloop
 endfacet
 facet normal  0.000000e+00 -1.000000e+00  0.000000e+00
   outer loop
     vertex  1.222223e-01 -4.444444e-01  2.936509e-01
     vertex  6.151518e-02 -4.444444e-01  2.550493e-01
     vertex  7.226927e-02 -4.444444e-01  2.420387e-01
   endloop
 endfacet
 facet normal  0.000000e+00 -1.000000e+00  0.000000e+00
   outer loop
     vertex  1.222223e-01 -4.444444e-01  2.936509e-01
     vertex  7.226927e-02 -4.444444e-01  2.420387e-01
     vertex  8.572751e-02 -4.444444e-01  2.318503e-01
   endloop
 endfacet
 facet normal  0.000000e+00 -1.000000e+00  0.000000e+00
   outer loop
     vertex  1.222223e-01 -4.444444e-01  2.936509e-01
     vertex  8.572751e-02 -4.444444e-01  2.318503e-01
     vertex  1.011683e-01 -4.444444e-01  2.250305e-01
   endloop
 endfacet
 facet normal  0.000000e+00 -1.000000e+00  0.000000e+00
   outer loop
     vertex  1.222223e-01 -4.444444e-01  2.936509e-01
     vertex  1.011683e-01 -4.444444e-01  2.250305e-01
     vertex  1.177637e-01 -4.444444e-01  2.219449e-01
   endloop
 endfacet
 facet normal  0.000000e+00 -1.000000e+00 -0.000000e+00
   outer loop
     vertex  1.222223e-01 -4.444444e-01  2.936509e-01
     vertex  1.177637e-01 -4.444444e-01  2.219449e-01
     vertex  1.346238e-01 -4.444444e-01  2.227590e-01
   endloop
 endfacet
 facet normal  0.000000e+00 -1.000000e+00  0.000000e+00
   outer loop
     vertex  1.222223e-01 -4.444444e-01  2.936509e-01
     vertex  1.346238e-01 -4.444444e-01  2.227590e-01
     vertex  1.508447e-01 -4.444444e-01  2.274291e-01
   endloop
 endfacet
 facet normal  0.000000e+00 -1.000000e+00  0.000000e+00
   outer loop
     vertex  1.222223e-01 -4.444444e-01  2.936509e-01
     vertex  1.508447e-01 -4.444444e-01  2.274291e-01
     vertex  1.655566e-01 -4.444444e-01  2.357049e-01
   endloop
 endfacet
 facet normal  0.000000e+00 -1.000000e+00 -0.000000e+00
   outer loop
     vertex  7.285223e-02 -4.444444e-01  3.478616e-01
     vertex  6.195545e-02 -4.444444e-01  3.349702e-01
     vertex  1.222223e-01 -4.444444e-01  2.936509e-01
   endloop
 endfacet
 facet normal -0.000000e+00 -1.000000e+00  0.000000e+00
   outer loop
     vertex  1.779706e-01 -4.444444e-01  2.471425e-01
     vertex  1.222223e-01 -4.444444e-01  2.936509e-01
     vertex  1.655566e-01 -4.444444e-01  2.357049e-01
   endloop
 endfacet
 facet normal  0.000000e+00 -1.000000e+00 -0.000000e+00
   outer loop
     vertex  8.642191e-02 -4.444444e-01  3.579011e-01
     vertex  7.285223e-02 -4.444444e-01  3.478616e-01
     vertex  1.222223e-01 -4.444444e-01  2.936509e-01
   endloop
 endfacet
 facet normal -0.000000e+00 -1.000000e+00  0.000000e+00
   outer loop
     vertex  1.874211e-01 -4.444444e-01  2.611288e-01
     vertex  1.222223e-01 -4.444444e-01  2.936509e-01
     vertex  1.779706e-01 -4.444444e-01  2.471425e-01
   endloop
 endfacet
 facet normal -0.000000e+00 -1.000000e+00  0.000000e+00
   outer loop
     vertex  1.934015e-01 -4.444444e-01  2.769137e-01
     vertex  1.222223e-01 -4.444444e-01  2.936509e-01
     vertex  1.874211e-01 -4.444444e-01  2.611288e-01
   endloop
 endfacet
 facet normal -6.207171e-20 -1.000000e+00 -4.511762e-06
   outer loop
     vertex  1.140416e-01 -4.444444e-01  3.645504e-01
     vertex  1.019369e-01 -4.444444e-01  3.645504e-01
     vertex  8.642191e-02 -4.444444e-01  3.579011e-01
   endloop
 endfacet
 facet normal -9.577115e-07 -1.000000e+00 -5.336395e-07
   outer loop
     vertex  1.140416e-01 -4.444444e-01  3.645504e-01
     vertex  8.642191e-02 -4.444444e-01  3.579011e-01
     vertex  1.222223e-01 -4.444444e-01  2.936509e-01
   endloop
 endfacet
 facet normal -0.000000e+00 -1.000000e+00  0.000000e+00
   outer loop
     vertex  1.955909e-01 -4.444444e-01  2.936509e-01
     vertex  1.222223e-01 -4.444444e-01  2.936509e-01
     vertex  1.934015e-01 -4.444444e-01  2.769137e-01
   endloop
 endfacet
 facet normal  1.483669e-21 -1.000000e+00 -4.231342e-07
   outer loop
     vertex  1.380538e-01 -4.444444e-01  3.645504e-01
     vertex  1.222223e-01 -4.444444e-01  3.645504e-01
     vertex  1.222223e-01 -4.444444e-01  2.936509e-01
   endloop
 endfacet
 facet normal  0.000000e+00 -1.000000e+00 -0.000000e+00
   outer loop
     vertex  1.930642e-01 -4.444444e-01  3.096990e-01
     vertex  1.222223e-01 -4.444444e-01  2.936509e-01
     vertex  1.955909e-01 -4.444444e-01  2.936509e-01
   endloop
 endfacet
 facet normal  1.672679e-06 -1.000000e+00 -7.966343e-07
   outer loop
     vertex  1.532381e-01 -4.444444e-01  3.587742e-01
     vertex  1.380538e-01 -4.444444e-01  3.645504e-01
     vertex  1.222223e-01 -4.444444e-01  2.936509e-01
   endloop
 endfacet
 facet normal  0.000000e+00 -1.000000e+00 -0.000000e+00
   outer loop
     vertex  1.872441e-01 -4.444444e-01  3.248666e-01
     vertex  1.222223e-01 -4.444444e-01  2.936509e-01
     vertex  1.930642e-01 -4.444444e-01  3.096990e-01
   endloop
 endfacet
 facet normal -0.000000e+00 -1.000000e+00  0.000000e+00
   outer loop
     vertex  1.668828e-01 -4.444444e-01  3.499566e-01
     vertex  1.532381e-01 -4.444444e-01  3.587742e-01
     vertex  1.222223e-01 -4.444444e-01  2.936509e-01
   endloop
 endfacet
 facet normal  0.000000e+00 -1.000000e+00 -0.000000e+00
   outer loop
     vertex  1.783870e-01 -4.444444e-01  3.384857e-01
     vertex  1.222223e-01 -4.444444e-01  2.936509e-01
     vertex  1.872441e-01 -4.444444e-01  3.248666e-01
   endloop
 endfacet
 facet normal -0.000000e+00 -1.000000e+00  0.000000e+00
   outer loop
     vertex  1.783870e-01 -4.444444e-01  3.384857e-01
     vertex  1.668828e-01 -4.444444e-01  3.499566e-01
     vertex  1.222223e-01 -4.444444e-01  2.936509e-01
   endloop
 endfacet
 facet normal  0.000000e+00  1.295260e-16  1.000000e+00
   outer loop
     vertex  3.793650e-01 -1.587302e-02  3.645504e-01
     vertex  1.380538e-01 -1.587302e-02  3.645504e-01
     vertex  1.380538e-01 -4.444444e-01  3.645504e-01
   endloop
 endfacet
 facet normal  2.300396e-16  0.000000e+00  1.000000e+00
   outer loop
     vertex  3.793650e-01 -1.587302e-02  3.645504e-01
     vertex  1.380538e-01 -4.444444e-01  3.645504e-01
     vertex  3.793650e-01 -4.444445e-01  3.645504e-01
   endloop
 endfacet
 facet normal  1.000000e+00  0.000000e+00 -0.000000e+00
   outer loop
     vertex  3.793650e-01 -1.587302e-02  1.105821e-01
     vertex  3.793650e-01 -1.587302e-02  3.645504e-01
     vertex  3.793650e-01 -4.444445e-01  3.645504e-01
   endloop
 endfacet
 facet normal  1.000000e+00  0.000000e+00  0.000000e+00
   outer loop
     vertex  3.793650e-01 -1.587302e-02  1.105821e-01
     vertex  3.793650e-01 -4.444445e-01  3.645504e-01
     vertex  3.793650e-01 -4.444445e-01  1.105821e-01
   endloop
 endfacet
 facet normal  0.000000e+00  0.000000e+00  1.000000e+00
   outer loop
     vertex  9.380952e-01 -1.587302e-02  1.105821e-01
     vertex  3.793650e-01 -1.587302e-02  1.105821e-01
     vertex  3.793650e-01 -4.444445e-01  1.105821e-01
   endloop
 endfacet
 facet normal  0.000000e+00  0.000000e+00  1.000000e+00
   outer loop
     vertex  9.380952e-01 -1.587302e-02  1.105821e-01
     vertex  3.793650e-01 -4.444445e-01  1.105821e-01
     vertex  9.380952e-01 -4.444445e-01  1.105821e-01
   endloop
 endfacet
 facet normal  1.000000e+00  0.000000e+00  0.000000e+00
   outer loop
     vertex  9.380952e-01 -1.587302e-02 -4.179886e-02
     vertex  9.380952e-01  0.000000e+00  1.105821e-01
     vertex  9.380952e-01 -1.587302e-02  1.105821e-01
   endloop
 endfacet
 facet normal  1.000000e+00  0.000000e+00  0.000000e+00
   outer loop
     vertex  9.380952e-01 -1.587302e-02 -4.179886e-02
     vertex  9.380952e-01  0.000000e+00 -4.179886e-02
     vertex  9.380952e-01  0.000000e+00  1.105821e-01
   endloop
 endfacet
 facet normal -2.273875e-06 -1.000000e+00  1.088516e-05
   outer loop
     vertex  1.140416e-01 -4.444444e-01  3.645504e-01
     vertex  1.097732e-01 -4.444444e-01  3.664148e-01
     vertex  1.058293e-01 -4.444444e-01  3.655909e-01
   endloop
 endfacet
 facet normal  3.966584e-19 -1.000000e+00  2.883162e-05
   outer loop
     vertex  1.140416e-01 -4.444444e-01  3.645504e-01
     vertex  1.058293e-01 -4.444444e-01  3.655909e-01
     vertex  1.019369e-01 -4.444444e-01  3.645504e-01
   endloop
 endfacet
 facet normal -1.812720e-06 -1.000000e+00  1.194092e-05
   outer loop
     vertex  1.137567e-01 -4.444444e-01  3.670195e-01
     vertex  1.097732e-01 -4.444444e-01  3.664148e-01
     vertex  1.140416e-01 -4.444444e-01  3.645504e-01
   endloop
 endfacet
 facet normal  1.553260e-01  1.566190e-04  9.878632e-01
   outer loop
     vertex  1.380538e-01  0.000000e+00  3.645504e-01
     vertex  1.382395e-01  1.269842e-01  3.645010e-01
     vertex  1.222223e-01  1.269842e-01  3.670195e-01
   endloop
 endfacet
 facet normal  1.540998e-01 -0.000000e+00  9.880553e-01
   outer loop
     vertex  1.380538e-01 -1.587302e-02  3.645504e-01
     vertex  1.380538e-01  0.000000e+00  3.645504e-01
     vertex  1.222223e-01  1.269842e-01  3.670195e-01
   endloop
 endfacet
 facet normal  8.550137e-02  0.000000e+00  9.963381e-01
   outer loop
     vertex  1.275522e-01 -4.444444e-01  3.665621e-01
     vertex  1.222223e-01  1.269842e-01  3.670195e-01
     vertex  1.222223e-01 -4.444444e-01  3.670195e-01
   endloop
 endfacet
 facet normal  1.603088e-01  7.051709e-04  9.870667e-01
   outer loop
     vertex  1.275522e-01 -4.444444e-01  3.665621e-01
     vertex  1.380538e-01 -1.587302e-02  3.645504e-01
     vertex  1.222223e-01  1.269842e-01  3.670195e-01
   endloop
 endfacet
 facet normal  1.540997e-01  8.619549e-04  9.880549e-01
   outer loop
     vertex  1.328377e-01 -4.444444e-01  3.657377e-01
     vertex  1.380538e-01 -1.587302e-02  3.645504e-01
     vertex  1.275522e-01 -4.444444e-01  3.665621e-01
   endloop
 endfacet
 facet normal  3.576694e-01  1.307754e-04  9.338483e-01
   outer loop
     vertex  1.532381e-01  0.000000e+00  3.587742e-01
     vertex  1.533810e-01  1.269842e-01  3.587018e-01
     vertex  1.382395e-01  1.269842e-01  3.645010e-01
   endloop
 endfacet
 facet normal  3.555435e-01 -1.569304e-04  9.346597e-01
   outer loop
     vertex  1.532381e-01  0.000000e+00  3.587742e-01
     vertex  1.382395e-01  1.269842e-01  3.645010e-01
     vertex  1.380538e-01  0.000000e+00  3.645504e-01
   endloop
 endfacet
 facet normal  2.219624e-01 -1.324541e-16  9.750552e-01
   outer loop
     vertex  1.380538e-01 -4.444444e-01  3.645504e-01
     vertex  1.380538e-01 -1.587302e-02  3.645504e-01
     vertex  1.328377e-01 -4.444444e-01  3.657377e-01
   endloop
 endfacet
 facet normal  5.443253e-01  1.048279e-04  8.388742e-01
   outer loop
     vertex  1.668828e-01  0.000000e+00  3.499566e-01
     vertex  1.669825e-01  1.269842e-01  3.498761e-01
     vertex  1.533810e-01  1.269842e-01  3.587018e-01
   endloop
 endfacet
 facet normal  5.427625e-01 -1.310349e-04  8.398862e-01
   outer loop
     vertex  1.668828e-01  0.000000e+00  3.499566e-01
     vertex  1.533810e-01  1.269842e-01  3.587018e-01
     vertex  1.532381e-01  0.000000e+00  3.587742e-01
   endloop
 endfacet
 facet normal  7.071068e-01  7.877665e-05  7.071068e-01
   outer loop
     vertex  1.783870e-01  0.000000e+00  3.384857e-01
     vertex  1.784475e-01  1.269842e-01  3.384110e-01
     vertex  1.669825e-01  1.269842e-01  3.498761e-01
   endloop
 endfacet
 facet normal  7.060821e-01 -1.050355e-04  7.081300e-01
   outer loop
     vertex  1.783870e-01  0.000000e+00  3.384857e-01
     vertex  1.669825e-01  1.269842e-01  3.498761e-01
     vertex  1.668828e-01  0.000000e+00  3.499566e-01
   endloop
 endfacet
 facet normal  8.388742e-01  5.262157e-05  5.443253e-01
   outer loop
     vertex  1.872441e-01  0.000000e+00  3.248666e-01
     vertex  1.872732e-01  1.269842e-01  3.248095e-01
     vertex  1.784475e-01  1.269842e-01  3.384110e-01
   endloop
 endfacet
 facet normal  8.383107e-01 -7.893235e-05  5.451927e-01
   outer loop
     vertex  1.872441e-01  0.000000e+00  3.248666e-01
     vertex  1.784475e-01  1.269842e-01  3.384110e-01
     vertex  1.783870e-01  0.000000e+00  3.384857e-01
   endloop
 endfacet
 facet normal  9.338483e-01  2.636268e-05  3.576694e-01
   outer loop
     vertex  1.930642e-01  0.000000e+00  3.096990e-01
     vertex  1.930725e-01  1.269842e-01  3.096681e-01
     vertex  1.872732e-01  1.269842e-01  3.248095e-01
   endloop
 endfacet
 facet normal  9.336261e-01 -5.272537e-05  3.582489e-01
   outer loop
     vertex  1.930642e-01  0.000000e+00  3.096990e-01
     vertex  1.872732e-01  1.269842e-01  3.248095e-01
     vertex  1.872441e-01  0.000000e+00  3.248666e-01
   endloop
 endfacet
 facet normal  9.878633e-01 -0.000000e+00  1.553260e-01
   outer loop
     vertex  1.955909e-01  0.000000e+00  2.936509e-01
     vertex  1.955909e-01  1.269842e-01  2.936509e-01
     vertex  1.930725e-01  1.269842e-01  3.096681e-01
   endloop
 endfacet
 facet normal  9.878311e-01 -2.641458e-05  1.555304e-01
   outer loop
     vertex  1.955909e-01  0.000000e+00  2.936509e-01
     vertex  1.930725e-01  1.269842e-01  3.096681e-01
     vertex  1.930642e-01  0.000000e+00  3.096990e-01
   endloop
 endfacet
 facet normal  0.000000e+00  1.000000e+00  0.000000e+00
   outer loop
     vertex  1.222223e-01  1.269842e-01  2.936509e-01
     vertex  5.990622e-02  1.269842e-01  3.316959e-01
     vertex  6.993796e-02  1.269842e-01  3.449719e-01
   endloop
 endfacet
 facet normal  0.000000e+00  1.000000e+00  0.000000e+00
   outer loop
     vertex  1.222223e-01  1.269842e-01  2.936509e-01
     vertex  5.314653e-02  1.269842e-01  3.164908e-01
     vertex  5.990622e-02  1.269842e-01  3.316959e-01
   endloop
 endfacet
 facet normal  0.000000e+00  1.000000e+00  0.000000e+00
   outer loop
     vertex  1.222223e-01  1.269842e-01  2.936509e-01
     vertex  5.001110e-02  1.269842e-01  3.001489e-01
     vertex  5.314653e-02  1.269842e-01  3.164908e-01
   endloop
 endfacet
 facet normal  0.000000e+00  1.000000e+00  0.000000e+00
   outer loop
     vertex  1.222223e-01  1.269842e-01  2.936509e-01
     vertex  5.066332e-02  1.269842e-01  2.835218e-01
     vertex  5.001110e-02  1.269842e-01  3.001489e-01
   endloop
 endfacet
 facet normal  0.000000e+00  1.000000e+00  0.000000e+00
   outer loop
     vertex  1.222223e-01  1.269842e-01  2.936509e-01
     vertex  5.506919e-02  1.269842e-01  2.674757e-01
     vertex  5.066332e-02  1.269842e-01  2.835218e-01
   endloop
 endfacet
 facet normal  0.000000e+00  1.000000e+00  0.000000e+00
   outer loop
     vertex  1.222223e-01  1.269842e-01  2.936509e-01
     vertex  6.299915e-02  1.269842e-01  2.528469e-01
     vertex  5.506919e-02  1.269842e-01  2.674757e-01
   endloop
 endfacet
 facet normal  0.000000e+00  1.000000e+00  0.000000e+00
   outer loop
     vertex  1.222223e-01  1.269842e-01  2.936509e-01
     vertex  7.403999e-02  1.269842e-01  2.403975e-01
     vertex  6.299915e-02  1.269842e-01  2.528469e-01
   endloop
 endfacet
 facet normal  0.000000e+00  1.000000e+00  0.000000e+00
   outer loop
     vertex  1.222223e-01  1.269842e-01  2.936509e-01
     vertex  8.761642e-02  1.269842e-01  2.307762e-01
     vertex  7.403999e-02  1.269842e-01  2.403975e-01
   endloop
 endfacet
 facet normal  0.000000e+00  1.000000e+00  0.000000e+00
   outer loop
     vertex  1.222223e-01  1.269842e-01  2.936509e-01
     vertex  1.030210e-01  1.269842e-01  2.244844e-01
     vertex  8.761642e-02  1.269842e-01  2.307762e-01
   endloop
 endfacet
 facet normal  0.000000e+00  1.000000e+00  0.000000e+00
   outer loop
     vertex  1.222223e-01  1.269842e-01  2.936509e-01
     vertex  1.194511e-01  1.269842e-01  2.218500e-01
     vertex  1.030210e-01  1.269842e-01  2.244844e-01
   endloop
 endfacet
 facet normal  0.000000e+00  1.000000e+00  0.000000e+00
   outer loop
     vertex  1.222223e-01  1.269842e-01  2.936509e-01
     vertex  1.360505e-01  1.269842e-01  2.230101e-01
     vertex  1.194511e-01  1.269842e-01  2.218500e-01
   endloop
 endfacet
 facet normal  0.000000e+00  1.000000e+00  0.000000e+00
   outer loop
     vertex  1.222223e-01  1.269842e-01  2.936509e-01
     vertex  1.519544e-01  1.269842e-01  2.279044e-01
     vertex  1.360505e-01  1.269842e-01  2.230101e-01
   endloop
 endfacet
 facet normal  0.000000e+00  1.000000e+00  0.000000e+00
   outer loop
     vertex  1.222223e-01  1.269842e-01  2.936509e-01
     vertex  1.663341e-01  1.269842e-01  2.362778e-01
     vertex  1.519544e-01  1.269842e-01  2.279044e-01
   endloop
 endfacet
 facet normal  0.000000e+00  1.000000e+00  0.000000e+00
   outer loop
     vertex  1.784402e-01  1.269842e-01  2.476940e-01
     vertex  1.663341e-01  1.269842e-01  2.362778e-01
     vertex  1.222223e-01  1.269842e-01  2.936509e-01
   endloop
 endfacet
 facet normal  0.000000e+00  1.000000e+00  0.000000e+00
   outer loop
     vertex  8.271903e-02  1.269842e-01  3.556270e-01
     vertex  1.222223e-01  1.269842e-01  2.936509e-01
     vertex  6.993796e-02  1.269842e-01  3.449719e-01
   endloop
 endfacet
 facet normal  0.000000e+00  1.000000e+00  0.000000e+00
   outer loop
     vertex  1.876419e-01  1.269842e-01  2.615582e-01
     vertex  1.784402e-01  1.269842e-01  2.476940e-01
     vertex  1.222223e-01  1.269842e-01  2.936509e-01
   endloop
 endfacet
 facet normal  0.000000e+00  1.000000e+00  0.000000e+00
   outer loop
     vertex  9.758345e-02  1.269842e-01  3.631061e-01
     vertex  1.222223e-01  1.269842e-01  2.936509e-01
     vertex  8.271903e-02  1.269842e-01  3.556270e-01
   endloop
 endfacet
 facet normal  0.000000e+00  1.000000e+00  0.000000e+00
   outer loop
     vertex  1.934599e-01  1.269842e-01  2.771479e-01
     vertex  1.876419e-01  1.269842e-01  2.615582e-01
     vertex  1.222223e-01  1.269842e-01  2.936509e-01
   endloop
 endfacet
 facet normal  0.000000e+00  1.000000e+00  0.000000e+00
   outer loop
     vertex  1.137567e-01  1.269842e-01  3.670195e-01
     vertex  1.222223e-01  1.269842e-01  2.936509e-01
     vertex  9.758345e-02  1.269842e-01  3.631061e-01
   endloop
 endfacet
 facet normal  0.000000e+00  1.000000e+00  0.000000e+00
   outer loop
     vertex  1.955909e-01  1.269842e-01  2.936509e-01
     vertex  1.934599e-01  1.269842e-01  2.771479e-01
     vertex  1.222223e-01  1.269842e-01  2.936509e-01
   endloop
 endfacet
 facet normal  9.934089e-01  0.000000e+00  1.146242e-01
   outer loop
     vertex  1.140416e-01  0.000000e+00  3.645504e-01
     vertex  1.222223e-01  0.000000e+00  2.936509e-01
     vertex  1.222223e-01  1.269842e-01  2.936509e-01
   endloop
 endfacet
 facet normal  9.934089e-01  1.625702e-17  1.146242e-01
   outer loop
     vertex  1.140416e-01  0.000000e+00  3.645504e-01
     vertex  1.222223e-01  1.269842e-01  2.936509e-01
     vertex  1.137567e-01  1.269842e-01  3.670195e-01
   endloop
 endfacet
 facet normal  9.934089e-01  0.000000e+00  1.146242e-01
   outer loop
     vertex  1.137567e-01 -4.444444e-01  3.670195e-01
     vertex  1.140416e-01 -4.444444e-01  3.645504e-01
     vertex  1.140416e-01 -1.587302e-02  3.645504e-01
   endloop
 endfacet
 facet normal  9.934089e-01  0.000000e+00  1.146242e-01
   outer loop
     vertex  1.137567e-01  1.269842e-01  3.670195e-01
     vertex  1.137567e-01 -4.444444e-01  3.670195e-01
     vertex  1.140416e-01 -1.587302e-02  3.645504e-01
   endloop
 endfacet
 facet normal  9.934089e-01  0.000000e+00  1.146242e-01
   outer loop
     vertex  1.137567e-01  1.269842e-01  3.670195e-01
     vertex  1.140416e-01 -1.587302e-02  3.645504e-01
     vertex  1.140416e-01  0.000000e+00  3.645504e-01
   endloop
 endfacet
 facet normal  0.000000e+00  0.000000e+00  1.000000e+00
   outer loop
     vertex  3.793650e-01 -1.587302e-02  3.645504e-01
     vertex  1.380538e-01  0.000000e+00  3.645504e-01
     vertex  1.380538e-01 -1.587302e-02  3.645504e-01
   endloop
 endfacet
 facet normal  0.000000e+00 -0.000000e+00  1.000000e+00
   outer loop
     vertex  3.793650e-01 -1.587302e-02  3.645504e-01
     vertex  3.793650e-01  0.000000e+00  3.645504e-01
     vertex  1.380538e-01  0.000000e+00  3.645504e-01
   endloop
 endfacet
 facet normal  1.000000e+00  0.000000e+00  0.000000e+00
   outer loop
     vertex  3.793650e-01 -1.587302e-02  1.105821e-01
     vertex  3.793650e-01  0.000000e+00  3.645504e-01
     vertex  3.793650e-01 -1.587302e-02  3.645504e-01
   endloop
 endfacet
 facet normal  1.000000e+00  0.000000e+00  0.000000e+00
   outer loop
     vertex  3.793650e-01 -1.587302e-02  1.105821e-01
     vertex  3.793650e-01  0.000000e+00  1.105821e-01
     vertex  3.793650e-01  0.000000e+00  3.645504e-01
   endloop
 endfacet
 facet normal  0.000000e+00  0.000000e+00  1.000000e+00
   outer loop
     vertex  9.380952e-01 -1.587302e-02  1.105821e-01
     vertex  3.793650e-01  0.000000e+00  1.105821e-01
     vertex  3.793650e-01 -1.587302e-02  1.105821e-01
   endloop
 endfacet
 facet normal  0.000000e+00 -0.000000e+00  1.000000e+00
   outer loop
     vertex  9.380952e-01 -1.587302e-02  1.105821e-01
     vertex  9.380952e-01  0.000000e+00  1.105821e-01
     vertex  3.793650e-01  0.000000e+00  1.105821e-01
   endloop
 endfacet
 facet normal -0.000000e+00 -1.000000e+00 -4.231342e-07
   outer loop
     vertex  1.222223e-01 -4.444444e-01  3.645504e-01
     vertex  1.140416e-01 -4.444444e-01  3.645504e-01
     vertex  1.222223e-01 -4.444444e-01  2.936509e-01
   endloop
 endfacet
 facet normal  1.042667e-06 -1.000000e+00  1.215008e-05
   outer loop
     vertex  1.275522e-01 -4.444444e-01  3.665621e-01
     vertex  1.222223e-01 -4.444444e-01  3.670195e-01
     vertex  1.222223e-01 -4.444444e-01  3.645504e-01
   endloop
 endfacet
 facet normal  1.645758e-06 -1.000000e+00  1.055226e-05
   outer loop
     vertex  1.328377e-01 -4.444444e-01  3.657377e-01
     vertex  1.275522e-01 -4.444444e-01  3.665621e-01
     vertex  1.222223e-01 -4.444444e-01  3.645504e-01
   endloop
 endfacet
 facet normal -8.859113e-20 -1.000000e+00  2.526570e-05
   outer loop
     vertex  1.380538e-01 -4.444444e-01  3.645504e-01
     vertex  1.328377e-01 -4.444444e-01  3.657377e-01
     vertex  1.222223e-01 -4.444444e-01  3.645504e-01
   endloop
 endfacet
 facet normal  0.000000e+00  1.000000e+00  0.000000e+00
   outer loop
     vertex  1.930725e-01  1.269842e-01  3.096681e-01
     vertex  1.955909e-01  1.269842e-01  2.936509e-01
     vertex  1.222223e-01  1.269842e-01  2.936509e-01
   endloop
 endfacet
 facet normal  0.000000e+00  1.000000e+00  0.000000e+00
   outer loop
     vertex  1.382395e-01  1.269842e-01  3.645010e-01
     vertex  1.222223e-01  1.269842e-01  2.936509e-01
     vertex  1.222223e-01  1.269842e-01  3.670195e-01
   endloop
 endfacet
 facet normal  0.000000e+00  1.000000e+00  0.000000e+00
   outer loop
     vertex  1.872732e-01  1.269842e-01  3.248095e-01
     vertex  1.930725e-01  1.269842e-01  3.096681e-01
     vertex  1.222223e-01  1.269842e-01  2.936509e-01
   endloop
 endfacet
 facet normal  0.000000e+00  1.000000e+00  0.000000e+00
   outer loop
     vertex  1.533810e-01  1.269842e-01  3.587018e-01
     vertex  1.222223e-01  1.269842e-01  2.936509e-01
     vertex  1.382395e-01  1.269842e-01  3.645010e-01
   endloop
 endfacet
 facet normal  0.000000e+00  1.000000e+00  0.000000e+00
   outer loop
     vertex  1.784475e-01  1.269842e-01  3.384110e-01
     vertex  1.872732e-01  1.269842e-01  3.248095e-01
     vertex  1.222223e-01  1.269842e-01  2.936509e-01
   endloop
 endfacet
 facet normal  0.000000e+00  1.000000e+00  0.000000e+00
   outer loop
     vertex  1.669825e-01  1.269842e-01  3.498761e-01
     vertex  1.222223e-01  1.269842e-01  2.936509e-01
     vertex  1.533810e-01  1.269842e-01  3.587018e-01
   endloop
 endfacet
 facet normal  0.000000e+00  1.000000e+00  0.000000e+00
   outer loop
     vertex  1.669825e-01  1.269842e-01  3.498761e-01
     vertex  1.784475e-01  1.269842e-01  3.384110e-01
     vertex  1.222223e-01  1.269842e-01  2.936509e-01
   endloop
 endfacet
 facet normal -1.000000e+00  0.000000e+00 -1.957389e-16
   outer loop
     vertex  1.222223e-01  0.000000e+00  3.645504e-01
     vertex  1.222223e-01  1.269842e-01  2.936509e-01
     vertex  1.222223e-01  0.000000e+00  2.936509e-01
   endloop
 endfacet
 facet normal -1.000000e+00  1.092875e-16  0.000000e+00
   outer loop
     vertex  1.222223e-01  0.000000e+00  3.645504e-01
     vertex  1.222223e-01  1.269842e-01  3.670195e-01
     vertex  1.222223e-01  1.269842e-01  2.936509e-01
   endloop
 endfacet
 facet normal -1.000000e+00 -3.238150e-17  3.934380e-22
   outer loop
     vertex  1.222223e-01 -4.444444e-01  3.670195e-01
     vertex  1.222223e-01 -1.587302e-02  3.645504e-01
     vertex  1.222223e-01 -4.444444e-01  3.645504e-01
   endloop
 endfacet
 facet normal -1.000000e+00  0.000000e+00  5.620543e-15
   outer loop
     vertex  1.222223e-01  1.269842e-01  3.670195e-01
     vertex  1.222223e-01 -1.587302e-02  3.645504e-01
     vertex  1.222223e-01 -4.444444e-01  3.670195e-01
   endloop
 endfacet
 facet normal -1.000000e+00  0.000000e+00  5.620543e-15
   outer loop
     vertex  1.222223e-01  1.269842e-01  3.670195e-01
     vertex  1.222223e-01  0.000000e+00  3.645504e-01
     vertex  1.222223e-01 -1.587302e-02  3.645504e-01
   endloop
 endfacet
 facet normal  0.000000e+00  1.000000e+00  0.000000e+00
   outer loop
     vertex  1.222223e-01  0.000000e+00  3.645504e-01
     vertex  1.222223e-01  0.000000e+00  2.936509e-01
     vertex  1.140416e-01  0.000000e+00  3.645504e-01
   endloop
 endfacet
 facet normal  0.000000e+00  0.000000e+00  1.000000e+00
   outer loop
     vertex  1.222223e-01 -1.587302e-02  3.645504e-01
     vertex  1.140416e-01  0.000000e+00  3.645504e-01
     vertex  1.140416e-01 -1.587302e-02  3.645504e-01
   endloop
 endfacet
 facet normal  0.000000e+00 -0.000000e+00  1.000000e+00
   outer loop
     vertex  1.222223e-01 -1.587302e-02  3.645504e-01
     vertex  1.222223e-01  0.000000e+00  3.645504e-01
     vertex  1.140416e-01  0.000000e+00  3.645504e-01
   endloop
 endfacet
 facet normal  0.000000e+00  0.000000e+00  1.000000e+00
   outer loop
     vertex  1.140416e-01 -1.587302e-02  3.645504e-01
     vertex  1.140416e-01 -4.444444e-01  3.645504e-01
     vertex  1.222223e-01 -4.444444e-01  3.645504e-01
   endloop
 endfacet
 facet normal  0.000000e+00  0.000000e+00  1.000000e+00
   outer loop
     vertex  1.222223e-01 -1.587302e-02  3.645504e-01
     vertex  1.140416e-01 -1.587302e-02  3.645504e-01
     vertex  1.222223e-01 -4.444444e-01  3.645504e-01
   endloop
 endfacet
endsolid
