solid 
 facet normal  0.000000e+00 -1.000000e+00  0.000000e+00
   outer loop
     vertex  3.659613e-01 -5.031746e-01 -1.587302e-02
     vertex -5.031746e-01 -5.031746e-01  4.126984e-01
     vertex -5.031746e-01 -5.031746e-01 -1.587302e-02
   endloop
 endfacet
 facet normal  0.000000e+00 -1.000000e+00  0.000000e+00
   outer loop
     vertex  3.659613e-01 -5.031746e-01 -1.587302e-02
     vertex  3.659613e-01 -5.031746e-01  4.126984e-01
     vertex -5.031746e-01 -5.031746e-01  4.126984e-01
   endloop
 endfacet
 facet normal -1.000000e+00  0.000000e+00  0.000000e+00
   outer loop
     vertex -5.031746e-01 -5.031746e-01 -1.587302e-02
     vertex -5.031746e-01  3.659613e-01  4.126984e-01
     vertex -5.031746e-01  3.659613e-01 -1.587302e-02
   endloop
 endfacet
 facet normal -1.000000e+00  0.000000e+00  0.000000e+00
   outer loop
     vertex -5.031746e-01 -5.031746e-01 -1.587302e-02
     vertex -5.031746e-01 -5.031746e-01  4.126984e-01
     vertex -5.031746e-01  3.659613e-01  4.126984e-01
   endloop
 endfacet
 facet normal  1.000000e+00  0.000000e+00  0.000000e+00
   outer loop
     vertex  3.659613e-01  3.659613e-01 -1.587302e-02
     vertex  3.659613e-01 -5.031746e-01  4.126984e-01
     vertex  3.659613e-01 -5.031746e-01 -1.587302e-02
   endloop
 endfacet
 facet normal  1.000000e+00  0.000000e+00 -0.000000e+00
   outer loop
     vertex  3.659613e-01  3.659613e-01 -1.587302e-02
     vertex  3.659613e-01  3.659613e-01  4.126984e-01
     vertex  3.659613e-01 -5.031746e-01  4.126984e-01
   endloop
 endfacet
 facet normal -0.000000e+00 -1.000000e+00  0.000000e+00
   outer loop
     vertex  3.659613e-01 -5.031746e-01 -1.587302e-02
     vertex -5.031746e-01 -5.031746e-01 -1.587302e-02
     vertex -5.031746e-01 -5.031746e-01 -3.174603e-02
   endloop
 endfacet
 facet normal  0.000000e+00 -1.000000e+00 -0.000000e+00
   outer loop
     vertex  3.659613e-01 -5.031746e-01 -1.587302e-02
     vertex -5.031746e-01 -5.031746e-01 -3.174603e-02
     vertex  3.659613e-01 -5.031746e-01 -3.174603e-02
   endloop
 endfacet
 facet normal  0.000000e+00  0.000000e+00  1.000000e+00
   outer loop
     vertex -2.103739e-01 -1.767900e-01  4.126984e-01
     vertex -5.031746e-01 -5.031746e-01  4.126984e-01
     vertex -1.922297e-01 -1.970402e-01  4.126984e-01
   endloop
 endfacet
 facet normal  0.000000e+00  0.000000e+00  1.000000e+00
   outer loop
     vertex -1.713303e-01 -2.144328e-01  4.126984e-01
     vertex -1.922297e-01 -1.970402e-01  4.126984e-01
     vertex -5.031746e-01 -5.031746e-01  4.126984e-01
   endloop
 endfacet
 facet normal  0.000000e+00  0.000000e+00  1.000000e+00
   outer loop
     vertex -2.253764e-01 -1.541138e-01  4.126984e-01
     vertex -5.031746e-01 -5.031746e-01  4.126984e-01
     vertex -2.103739e-01 -1.767900e-01  4.126984e-01
   endloop
 endfacet
 facet normal  0.000000e+00  0.000000e+00  1.000000e+00
   outer loop
     vertex -1.481213e-01 -2.285970e-01  4.126984e-01
     vertex -1.713303e-01 -2.144328e-01  4.126984e-01
     vertex -5.031746e-01 -5.031746e-01  4.126984e-01
   endloop
 endfacet
 facet normal  0.000000e+00  0.000000e+00  1.000000e+00
   outer loop
     vertex -2.369173e-01 -1.294948e-01  4.126984e-01
     vertex -5.031746e-01 -5.031746e-01  4.126984e-01
     vertex -2.253764e-01 -1.541138e-01  4.126984e-01
   endloop
 endfacet
 facet normal  0.000000e+00  0.000000e+00  1.000000e+00
   outer loop
     vertex -1.230973e-01 -2.392311e-01  4.126984e-01
     vertex -1.481213e-01 -2.285970e-01  4.126984e-01
     vertex -5.031746e-01 -5.031746e-01  4.126984e-01
   endloop
 endfacet
 facet normal  0.000000e+00  0.000000e+00  1.000000e+00
   outer loop
     vertex -2.447506e-01 -1.034579e-01  4.126984e-01
     vertex -5.031746e-01 -5.031746e-01  4.126984e-01
     vertex -2.369173e-01 -1.294948e-01  4.126984e-01
   endloop
 endfacet
 facet normal  0.000000e+00  0.000000e+00  1.000000e+00
   outer loop
     vertex -9.679159e-02 -2.461083e-01  4.126984e-01
     vertex -1.230973e-01 -2.392311e-01  4.126984e-01
     vertex -5.031746e-01 -5.031746e-01  4.126984e-01
   endloop
 endfacet
 facet normal  0.000000e+00  0.000000e+00  1.000000e+00
   outer loop
     vertex -2.487095e-01 -7.655782e-02  4.126984e-01
     vertex -5.031746e-01 -5.031746e-01  4.126984e-01
     vertex -2.447506e-01 -1.034579e-01  4.126984e-01
   endloop
 endfacet
 facet normal  0.000000e+00  0.000000e+00  1.000000e+00
   outer loop
     vertex -6.976491e-02 -2.490821e-01  4.126984e-01
     vertex -9.679159e-02 -2.461083e-01  4.126984e-01
     vertex -5.031746e-01 -5.031746e-01  4.126984e-01
   endloop
 endfacet
 facet normal  0.000000e+00  0.000000e+00  1.000000e+00
   outer loop
     vertex  3.659613e-01 -5.031746e-01  4.126984e-01
     vertex -4.259326e-02 -2.480890e-01  4.126984e-01
     vertex -6.976491e-02 -2.490821e-01  4.126984e-01
   endloop
 endfacet
 facet normal  0.000000e+00  0.000000e+00  1.000000e+00
   outer loop
     vertex  3.659613e-01 -5.031746e-01  4.126984e-01
     vertex -1.585576e-02 -2.431504e-01  4.126984e-01
     vertex -4.259326e-02 -2.480890e-01  4.126984e-01
   endloop
 endfacet
 facet normal  0.000000e+00  0.000000e+00  1.000000e+00
   outer loop
     vertex  3.659613e-01 -5.031746e-01  4.126984e-01
     vertex  9.877740e-03 -2.343713e-01  4.126984e-01
     vertex -1.585576e-02 -2.431504e-01  4.126984e-01
   endloop
 endfacet
 facet normal  0.000000e+00  0.000000e+00  1.000000e+00
   outer loop
     vertex  3.659613e-01 -5.031746e-01  4.126984e-01
     vertex  3.405877e-02 -2.219390e-01  4.126984e-01
     vertex  9.877740e-03 -2.343713e-01  4.126984e-01
   endloop
 endfacet
 facet normal  0.000000e+00  0.000000e+00  1.000000e+00
   outer loop
     vertex  3.659613e-01 -5.031746e-01  4.126984e-01
     vertex  5.617194e-02 -2.061184e-01  4.126984e-01
     vertex  3.405877e-02 -2.219390e-01  4.126984e-01
   endloop
 endfacet
 facet normal  0.000000e+00  0.000000e+00  1.000000e+00
   outer loop
     vertex  3.659613e-01 -5.031746e-01  4.126984e-01
     vertex -6.976491e-02 -2.490821e-01  4.126984e-01
     vertex -5.031746e-01 -5.031746e-01  4.126984e-01
   endloop
 endfacet
 facet normal  0.000000e+00  0.000000e+00  1.000000e+00
   outer loop
     vertex -5.031746e-01  3.659613e-01  4.126984e-01
     vertex -2.253764e-01  2.818791e-02  4.126984e-01
     vertex -2.103739e-01  5.086414e-02  4.126984e-01
   endloop
 endfacet
 facet normal  0.000000e+00  0.000000e+00  1.000000e+00
   outer loop
     vertex -5.031746e-01  3.659613e-01  4.126984e-01
     vertex -2.369173e-01  3.568963e-03  4.126984e-01
     vertex -2.253764e-01  2.818791e-02  4.126984e-01
   endloop
 endfacet
 facet normal  0.000000e+00  0.000000e+00  1.000000e+00
   outer loop
     vertex -5.031746e-01  3.659613e-01  4.126984e-01
     vertex -2.447506e-01 -2.246800e-02  4.126984e-01
     vertex -2.369173e-01  3.568963e-03  4.126984e-01
   endloop
 endfacet
 facet normal  0.000000e+00  0.000000e+00  1.000000e+00
   outer loop
     vertex -5.031746e-01  3.659613e-01  4.126984e-01
     vertex -2.487095e-01 -4.936803e-02  4.126984e-01
     vertex -2.447506e-01 -2.246800e-02  4.126984e-01
   endloop
 endfacet
 facet normal  0.000000e+00  0.000000e+00  1.000000e+00
   outer loop
     vertex -5.031746e-01  3.659613e-01  4.126984e-01
     vertex -2.487095e-01 -7.655782e-02  4.126984e-01
     vertex -2.487095e-01 -4.936803e-02  4.126984e-01
   endloop
 endfacet
 facet normal  0.000000e+00  0.000000e+00  1.000000e+00
   outer loop
     vertex -5.031746e-01  3.659613e-01  4.126984e-01
     vertex -5.031746e-01 -5.031746e-01  4.126984e-01
     vertex -2.487095e-01 -7.655782e-02  4.126984e-01
   endloop
 endfacet
 facet normal  0.000000e+00  0.000000e+00  1.000000e+00
   outer loop
     vertex -1.922297e-01  7.111433e-02  4.126984e-01
     vertex -5.031746e-01  3.659613e-01  4.126984e-01
     vertex -2.103739e-01  5.086414e-02  4.126984e-01
   endloop
 endfacet
 facet normal  0.000000e+00  0.000000e+00  1.000000e+00
   outer loop
     vertex  7.574597e-02 -1.872466e-01  4.126984e-01
     vertex  5.617194e-02 -2.061184e-01  4.126984e-01
     vertex  3.659613e-01 -5.031746e-01  4.126984e-01
   endloop
 endfacet
 facet normal  0.000000e+00  0.000000e+00  1.000000e+00
   outer loop
     vertex -1.713303e-01  8.850691e-02  4.126984e-01
     vertex -5.031746e-01  3.659613e-01  4.126984e-01
     vertex -1.922297e-01  7.111433e-02  4.126984e-01
   endloop
 endfacet
 facet normal  0.000000e+00  0.000000e+00  1.000000e+00
   outer loop
     vertex  9.236365e-02 -1.657260e-01  4.126984e-01
     vertex  7.574597e-02 -1.872466e-01  4.126984e-01
     vertex  3.659613e-01 -5.031746e-01  4.126984e-01
   endloop
 endfacet
 facet normal  0.000000e+00  0.000000e+00  1.000000e+00
   outer loop
     vertex -1.481213e-01  1.026712e-01  4.126984e-01
     vertex -5.031746e-01  3.659613e-01  4.126984e-01
     vertex -1.713303e-01  8.850691e-02  4.126984e-01
   endloop
 endfacet
 facet normal  0.000000e+00  0.000000e+00  1.000000e+00
   outer loop
     vertex  1.056708e-01 -1.420152e-01  4.126984e-01
     vertex  9.236365e-02 -1.657260e-01  4.126984e-01
     vertex  3.659613e-01 -5.031746e-01  4.126984e-01
   endloop
 endfacet
 facet normal  0.000000e+00  0.000000e+00  1.000000e+00
   outer loop
     vertex -1.230973e-01  1.133052e-01  4.126984e-01
     vertex -5.031746e-01  3.659613e-01  4.126984e-01
     vertex -1.481213e-01  1.026712e-01  4.126984e-01
   endloop
 endfacet
 facet normal  0.000000e+00  0.000000e+00  1.000000e+00
   outer loop
     vertex  1.153839e-01 -1.166195e-01  4.126984e-01
     vertex  1.056708e-01 -1.420152e-01  4.126984e-01
     vertex  3.659613e-01 -5.031746e-01  4.126984e-01
   endloop
 endfacet
 facet normal  0.000000e+00  0.000000e+00  1.000000e+00
   outer loop
     vertex -9.679159e-02  1.201824e-01  4.126984e-01
     vertex -5.031746e-01  3.659613e-01  4.126984e-01
     vertex -1.230973e-01  1.133052e-01  4.126984e-01
   endloop
 endfacet
 facet normal  0.000000e+00  0.000000e+00  1.000000e+00
   outer loop
     vertex  1.212957e-01 -9.008018e-02  4.126984e-01
     vertex  1.153839e-01 -1.166195e-01  4.126984e-01
     vertex  3.659613e-01 -5.031746e-01  4.126984e-01
   endloop
 endfacet
 facet normal  0.000000e+00  0.000000e+00  1.000000e+00
   outer loop
     vertex -6.976491e-02  1.231562e-01  4.126984e-01
     vertex -5.031746e-01  3.659613e-01  4.126984e-01
     vertex -9.679159e-02  1.201824e-01  4.126984e-01
   endloop
 endfacet
 facet normal  0.000000e+00  0.000000e+00  1.000000e+00
   outer loop
     vertex  1.232805e-01 -6.296293e-02  4.126984e-01
     vertex  1.212957e-01 -9.008018e-02  4.126984e-01
     vertex  3.659613e-01 -5.031746e-01  4.126984e-01
   endloop
 endfacet
 facet normal  0.000000e+00  0.000000e+00  1.000000e+00
   outer loop
     vertex  3.659613e-01  3.659613e-01  4.126984e-01
     vertex  1.232805e-01 -6.296293e-02  4.126984e-01
     vertex  3.659613e-01 -5.031746e-01  4.126984e-01
   endloop
 endfacet
 facet normal  0.000000e+00  0.000000e+00  1.000000e+00
   outer loop
     vertex  3.659613e-01  3.659613e-01  4.126984e-01
     vertex  1.212957e-01 -3.584567e-02  4.126984e-01
     vertex  1.232805e-01 -6.296293e-02  4.126984e-01
   endloop
 endfacet
 facet normal  0.000000e+00  0.000000e+00  1.000000e+00
   outer loop
     vertex  3.659613e-01  3.659613e-01  4.126984e-01
     vertex  1.153839e-01 -9.306376e-03  4.126984e-01
     vertex  1.212957e-01 -3.584567e-02  4.126984e-01
   endloop
 endfacet
 facet normal  0.000000e+00  0.000000e+00  1.000000e+00
   outer loop
     vertex  3.659613e-01  3.659613e-01  4.126984e-01
     vertex  1.056708e-01  1.608933e-02  4.126984e-01
     vertex  1.153839e-01 -9.306376e-03  4.126984e-01
   endloop
 endfacet
 facet normal  0.000000e+00  0.000000e+00  1.000000e+00
   outer loop
     vertex  3.659613e-01  3.659613e-01  4.126984e-01
     vertex  9.236365e-02  3.980017e-02  4.126984e-01
     vertex  1.056708e-01  1.608933e-02  4.126984e-01
   endloop
 endfacet
 facet normal  0.000000e+00  0.000000e+00  1.000000e+00
   outer loop
     vertex  3.659613e-01  3.659613e-01  4.126984e-01
     vertex  7.574597e-02  6.132079e-02  4.126984e-01
     vertex  9.236365e-02  3.980017e-02  4.126984e-01
   endloop
 endfacet
 facet normal  0.000000e+00  0.000000e+00  1.000000e+00
   outer loop
     vertex  3.659613e-01  3.659613e-01  4.126984e-01
     vertex  5.617194e-02  8.019252e-02  4.126984e-01
     vertex  7.574597e-02  6.132079e-02  4.126984e-01
   endloop
 endfacet
 facet normal  0.000000e+00  0.000000e+00  1.000000e+00
   outer loop
     vertex  3.659613e-01  3.659613e-01  4.126984e-01
     vertex  3.405877e-02  9.601314e-02  4.126984e-01
     vertex  5.617194e-02  8.019252e-02  4.126984e-01
   endloop
 endfacet
 facet normal  0.000000e+00  0.000000e+00  1.000000e+00
   outer loop
     vertex  3.659613e-01  3.659613e-01  4.126984e-01
     vertex  9.877740e-03  1.084455e-01  4.126984e-01
     vertex  3.405877e-02  9.601314e-02  4.126984e-01
   endloop
 endfacet
 facet normal  0.000000e+00  0.000000e+00  1.000000e+00
   outer loop
     vertex  3.659613e-01  3.659613e-01  4.126984e-01
     vertex -1.585576e-02  1.172245e-01  4.126984e-01
     vertex  9.877740e-03  1.084455e-01  4.126984e-01
   endloop
 endfacet
 facet normal  0.000000e+00  0.000000e+00  1.000000e+00
   outer loop
     vertex  3.659613e-01  3.659613e-01  4.126984e-01
     vertex -4.259326e-02  1.221632e-01  4.126984e-01
     vertex -1.585576e-02  1.172245e-01  4.126984e-01
   endloop
 endfacet
 facet normal  0.000000e+00  0.000000e+00  1.000000e+00
   outer loop
     vertex  3.659613e-01  3.659613e-01  4.126984e-01
     vertex -6.976491e-02  1.231562e-01  4.126984e-01
     vertex -4.259326e-02  1.221632e-01  4.126984e-01
   endloop
 endfacet
 facet normal  0.000000e+00  0.000000e+00  1.000000e+00
   outer loop
     vertex  3.659613e-01  3.659613e-01  4.126984e-01
     vertex -5.031746e-01  3.659613e-01  4.126984e-01
     vertex -6.976491e-02  1.231562e-01  4.126984e-01
   endloop
 endfacet
 facet normal  0.000000e+00  1.000000e+00  0.000000e+00
   outer loop
     vertex -5.031746e-01  3.659613e-01 -1.587302e-02
     vertex  3.659613e-01  3.659613e-01  4.126984e-01
     vertex  3.659613e-01  3.659613e-01 -1.587302e-02
   endloop
 endfacet
 facet normal  0.000000e+00  1.000000e+00  0.000000e+00
   outer loop
     vertex -5.031746e-01  3.659613e-01 -1.587302e-02
     vertex -5.031746e-01  3.659613e-01  4.126984e-01
     vertex  3.659613e-01  3.659613e-01  4.126984e-01
   endloop
 endfacet
 facet normal -1.000000e+00  0.000000e+00  0.000000e+00
   outer loop
     vertex -5.031746e-01 -5.031746e-01 -1.587302e-02
     vertex -5.031746e-01  3.659613e-01 -1.587302e-02
     vertex -5.031746e-01  3.659613e-01 -3.174603e-02
   endloop
 endfacet
 facet normal -1.000000e+00  0.000000e+00  0.000000e+00
   outer loop
     vertex -5.031746e-01 -5.031746e-01 -1.587302e-02
     vertex -5.031746e-01  3.659613e-01 -3.174603e-02
     vertex -5.031746e-01 -5.031746e-01 -3.174603e-02
   endloop
 endfacet
 facet normal  1.000000e+00  0.000000e+00  0.000000e+00
   outer loop
     vertex  3.659613e-01  3.659613e-01 -1.587302e-02
     vertex  3.659613e-01 -5.031746e-01 -1.587302e-02
     vertex  3.659613e-01 -5.031746e-01 -3.174603e-02
   endloop
 endfacet
 facet normal  1.000000e+00  0.000000e+00  0.000000e+00
   outer loop
     vertex  3.659613e-01  3.659613e-01 -1.587302e-02
     vertex  3.659613e-01 -5.031746e-01 -3.174603e-02
     vertex  3.659613e-01  3.659613e-01 -3.174603e-02
   endloop
 endfacet
 facet normal  3.556932e-17  3.187025e-17 -1.000000e+00
   outer loop
     vertex -2.103739e-01 -1.767900e-01 -3.174603e-02
     vertex -1.922297e-01 -1.970402e-01 -3.174603e-02
     vertex -5.031746e-01 -5.031746e-01 -3.174603e-02
   endloop
 endfacet
 facet normal  3.066672e-17  3.684990e-17 -1.000000e+00
   outer loop
     vertex -1.713303e-01 -2.144328e-01 -3.174603e-02
     vertex -5.031746e-01 -5.031746e-01 -3.174603e-02
     vertex -1.922297e-01 -1.970402e-01 -3.174603e-02
   endloop
 endfacet
 facet normal  4.091854e-17  2.707145e-17 -1.000000e+00
   outer loop
     vertex -2.253764e-01 -1.541138e-01 -3.174603e-02
     vertex -2.103739e-01 -1.767900e-01 -3.174603e-02
     vertex -5.031746e-01 -5.031746e-01 -3.174603e-02
   endloop
 endfacet
 facet normal  2.586033e-17  4.237376e-17 -1.000000e+00
   outer loop
     vertex -1.481213e-01 -2.285970e-01 -3.174603e-02
     vertex -5.031746e-01 -5.031746e-01 -3.174603e-02
     vertex -1.713303e-01 -2.144328e-01 -3.174603e-02
   endloop
 endfacet
 facet normal  4.715725e-17  2.210641e-17 -1.000000e+00
   outer loop
     vertex -2.369173e-01 -1.294948e-01 -3.174603e-02
     vertex -2.253764e-01 -1.541138e-01 -3.174603e-02
     vertex -5.031746e-01 -5.031746e-01 -3.174603e-02
   endloop
 endfacet
 facet normal  2.079198e-17  4.892760e-17 -1.000000e+00
   outer loop
     vertex -1.230973e-01 -2.392311e-01 -3.174603e-02
     vertex -5.031746e-01 -5.031746e-01 -3.174603e-02
     vertex -1.481213e-01 -2.285970e-01 -3.174603e-02
   endloop
 endfacet
 facet normal  5.497157e-17  1.653848e-17 -1.000000e+00
   outer loop
     vertex -2.447506e-01 -1.034579e-01 -3.174603e-02
     vertex -2.369173e-01 -1.294948e-01 -3.174603e-02
     vertex -5.031746e-01 -5.031746e-01 -3.174603e-02
   endloop
 endfacet
 facet normal  1.497953e-17  5.729750e-17 -1.000000e+00
   outer loop
     vertex -9.679159e-02 -2.461083e-01 -3.174603e-02
     vertex -5.031746e-01 -5.031746e-01 -3.174603e-02
     vertex -1.230973e-01 -2.392311e-01 -3.174603e-02
   endloop
 endfacet
 facet normal  6.561600e-17  9.656673e-18 -1.000000e+00
   outer loop
     vertex -2.487095e-01 -7.655782e-02 -3.174603e-02
     vertex -2.447506e-01 -1.034579e-01 -3.174603e-02
     vertex -5.031746e-01 -5.031746e-01 -3.174603e-02
   endloop
 endfacet
 facet normal  7.589892e-18  6.897939e-17 -1.000000e+00
   outer loop
     vertex -6.976491e-02 -2.490821e-01 -3.174603e-02
     vertex -5.031746e-01 -5.031746e-01 -3.174603e-02
     vertex -9.679159e-02 -2.461083e-01 -3.174603e-02
   endloop
 endfacet
 facet normal -2.817510e-18  7.709404e-17 -1.000000e+00
   outer loop
     vertex  3.659613e-01 -5.031746e-01 -3.174603e-02
     vertex -6.976491e-02 -2.490821e-01 -3.174603e-02
     vertex -4.259326e-02 -2.480890e-01 -3.174603e-02
   endloop
 endfacet
 facet normal -1.163226e-17  6.297601e-17 -1.000000e+00
   outer loop
     vertex  3.659613e-01 -5.031746e-01 -3.174603e-02
     vertex -4.259326e-02 -2.480890e-01 -3.174603e-02
     vertex -1.585576e-02 -2.431504e-01 -3.174603e-02
   endloop
 endfacet
 facet normal -1.819624e-17  5.333753e-17 -1.000000e+00
   outer loop
     vertex  3.659613e-01 -5.031746e-01 -3.174603e-02
     vertex -1.585576e-02 -2.431504e-01 -3.174603e-02
     vertex  9.877740e-03 -2.343713e-01 -3.174603e-02
   endloop
 endfacet
 facet normal -2.368468e-17  4.606700e-17 -1.000000e+00
   outer loop
     vertex  3.659613e-01 -5.031746e-01 -3.174603e-02
     vertex  9.877740e-03 -2.343713e-01 -3.174603e-02
     vertex  3.405877e-02 -2.219390e-01 -3.174603e-02
   endloop
 endfacet
 facet normal -2.871275e-17  4.013307e-17 -1.000000e+00
   outer loop
     vertex  3.659613e-01 -5.031746e-01 -3.174603e-02
     vertex  3.405877e-02 -2.219390e-01 -3.174603e-02
     vertex  5.617194e-02 -2.061184e-01 -3.174603e-02
   endloop
 endfacet
 facet normal  0.000000e+00  8.192559e-17 -1.000000e+00
   outer loop
     vertex  3.659613e-01 -5.031746e-01 -3.174603e-02
     vertex -5.031746e-01 -5.031746e-01 -3.174603e-02
     vertex -6.976491e-02 -2.490821e-01 -3.174603e-02
   endloop
 endfacet
 facet normal  4.152813e-17 -2.747475e-17 -1.000000e+00
   outer loop
     vertex -5.031746e-01  3.659613e-01 -3.174603e-02
     vertex -2.103739e-01  5.086414e-02 -3.174603e-02
     vertex -2.253764e-01  2.818791e-02 -3.174603e-02
   endloop
 endfacet
 facet normal  4.772937e-17 -2.237461e-17 -1.000000e+00
   outer loop
     vertex -5.031746e-01  3.659613e-01 -3.174603e-02
     vertex -2.253764e-01  2.818791e-02 -3.174603e-02
     vertex -2.369173e-01  3.568963e-03 -3.174603e-02
   endloop
 endfacet
 facet normal  5.546900e-17 -1.668814e-17 -1.000000e+00
   outer loop
     vertex -5.031746e-01  3.659613e-01 -3.174603e-02
     vertex -2.369173e-01  3.568963e-03 -3.174603e-02
     vertex -2.447506e-01 -2.246800e-02 -3.174603e-02
   endloop
 endfacet
 facet normal  6.596138e-17 -9.707503e-18 -1.000000e+00
   outer loop
     vertex -5.031746e-01  3.659613e-01 -3.174603e-02
     vertex -2.447506e-01 -2.246800e-02 -3.174603e-02
     vertex -2.487095e-01 -4.936803e-02 -3.174603e-02
   endloop
 endfacet
 facet normal  8.180564e-17 -2.226878e-31 -1.000000e+00
   outer loop
     vertex -5.031746e-01  3.659613e-01 -3.174603e-02
     vertex -2.487095e-01 -4.936803e-02 -3.174603e-02
     vertex -2.487095e-01 -7.655782e-02 -3.174603e-02
   endloop
 endfacet
 facet normal  8.180564e-17  0.000000e+00 -1.000000e+00
   outer loop
     vertex -5.031746e-01  3.659613e-01 -3.174603e-02
     vertex -2.487095e-01 -7.655782e-02 -3.174603e-02
     vertex -5.031746e-01 -5.031746e-01 -3.174603e-02
   endloop
 endfacet
 facet normal  3.619481e-17 -3.243069e-17 -1.000000e+00
   outer loop
     vertex -1.922297e-01  7.111433e-02 -3.174603e-02
     vertex -2.103739e-01  5.086414e-02 -3.174603e-02
     vertex -5.031746e-01  3.659613e-01 -3.174603e-02
   endloop
 endfacet
 facet normal -3.368939e-17  3.494311e-17 -1.000000e+00
   outer loop
     vertex  7.574597e-02 -1.872466e-01 -3.174603e-02
     vertex  3.659613e-01 -5.031746e-01 -3.174603e-02
     vertex  5.617194e-02 -2.061184e-01 -3.174603e-02
   endloop
 endfacet
 facet normal  3.129197e-17 -3.760121e-17 -1.000000e+00
   outer loop
     vertex -1.713303e-01  8.850691e-02 -3.174603e-02
     vertex -1.922297e-01  7.111433e-02 -3.174603e-02
     vertex -5.031746e-01  3.659613e-01 -3.174603e-02
   endloop
 endfacet
 facet normal -3.897037e-17  3.009194e-17 -1.000000e+00
   outer loop
     vertex  9.236365e-02 -1.657260e-01 -3.174603e-02
     vertex  3.659613e-01 -5.031746e-01 -3.174603e-02
     vertex  7.574597e-02 -1.872466e-01 -3.174603e-02
   endloop
 endfacet
 facet normal  2.646849e-17 -4.337026e-17 -1.000000e+00
   outer loop
     vertex -1.481213e-01  1.026712e-01 -3.174603e-02
     vertex -1.713303e-01  8.850691e-02 -3.174603e-02
     vertex -5.031746e-01  3.659613e-01 -3.174603e-02
   endloop
 endfacet
 facet normal -4.496209e-17  2.523395e-17 -1.000000e+00
   outer loop
     vertex  1.056708e-01 -1.420152e-01 -3.174603e-02
     vertex  3.659613e-01 -5.031746e-01 -3.174603e-02
     vertex  9.236365e-02 -1.657260e-01 -3.174603e-02
   endloop
 endfacet
 facet normal  2.135862e-17 -5.026103e-17 -1.000000e+00
   outer loop
     vertex -1.230973e-01  1.133052e-01 -3.174603e-02
     vertex -1.481213e-01  1.026712e-01 -3.174603e-02
     vertex -5.031746e-01  3.659613e-01 -3.174603e-02
   endloop
 endfacet
 facet normal -5.224780e-17  1.998309e-17 -1.000000e+00
   outer loop
     vertex  1.153839e-01 -1.166195e-01 -3.174603e-02
     vertex  3.659613e-01 -5.031746e-01 -3.174603e-02
     vertex  1.056708e-01 -1.420152e-01 -3.174603e-02
   endloop
 endfacet
 facet normal  1.545984e-17 -5.913473e-17 -1.000000e+00
   outer loop
     vertex -9.679159e-02  1.201824e-01 -3.174603e-02
     vertex -1.230973e-01  1.133052e-01 -3.174603e-02
     vertex -5.031746e-01  3.659613e-01 -3.174603e-02
   endloop
 endfacet
 facet normal -6.182814e-17  1.377280e-17 -1.000000e+00
   outer loop
     vertex  1.212957e-01 -9.008018e-02 -3.174603e-02
     vertex  3.659613e-01 -5.031746e-01 -3.174603e-02
     vertex  1.153839e-01 -1.166195e-01 -3.174603e-02
   endloop
 endfacet
 facet normal  7.884806e-18 -7.165967e-17 -1.000000e+00
   outer loop
     vertex -6.976491e-02  1.231562e-01 -3.174603e-02
     vertex -9.679159e-02  1.201824e-01 -3.174603e-02
     vertex -5.031746e-01  3.659613e-01 -3.174603e-02
   endloop
 endfacet
 facet normal -7.572452e-17  5.542321e-18 -1.000000e+00
   outer loop
     vertex  1.232805e-01 -6.296293e-02 -3.174603e-02
     vertex  3.659613e-01 -5.031746e-01 -3.174603e-02
     vertex  1.212957e-01 -9.008018e-02 -3.174603e-02
   endloop
 endfacet
 facet normal -8.577804e-17 -0.000000e+00 -1.000000e+00
   outer loop
     vertex  3.659613e-01  3.659613e-01 -3.174603e-02
     vertex  3.659613e-01 -5.031746e-01 -3.174603e-02
     vertex  1.232805e-01 -6.296293e-02 -3.174603e-02
   endloop
 endfacet
 facet normal -7.595278e-17 -5.559027e-18 -1.000000e+00
   outer loop
     vertex  3.659613e-01  3.659613e-01 -3.174603e-02
     vertex  1.232805e-01 -6.296293e-02 -3.174603e-02
     vertex  1.212957e-01 -3.584567e-02 -3.174603e-02
   endloop
 endfacet
 facet normal -6.229335e-17 -1.387643e-17 -1.000000e+00
   outer loop
     vertex  3.659613e-01  3.659613e-01 -3.174603e-02
     vertex  1.212957e-01 -3.584567e-02 -3.174603e-02
     vertex  1.153839e-01 -9.306376e-03 -3.174603e-02
   endloop
 endfacet
 facet normal -5.282013e-17 -2.020199e-17 -1.000000e+00
   outer loop
     vertex  3.659613e-01  3.659613e-01 -3.174603e-02
     vertex  1.153839e-01 -9.306376e-03 -3.174603e-02
     vertex  1.056708e-01  1.608933e-02 -3.174603e-02
   endloop
 endfacet
 facet normal -4.558583e-17 -2.558401e-17 -1.000000e+00
   outer loop
     vertex  3.659613e-01  3.659613e-01 -3.174603e-02
     vertex  1.056708e-01  1.608933e-02 -3.174603e-02
     vertex  9.236365e-02  3.980017e-02 -3.174603e-02
   endloop
 endfacet
 facet normal -3.961679e-17 -3.059109e-17 -1.000000e+00
   outer loop
     vertex  3.659613e-01  3.659613e-01 -3.174603e-02
     vertex  9.236365e-02  3.980017e-02 -3.174603e-02
     vertex  7.574597e-02  6.132079e-02 -3.174603e-02
   endloop
 endfacet
 facet normal -3.434004e-17 -3.561797e-17 -1.000000e+00
   outer loop
     vertex  3.659613e-01  3.659613e-01 -3.174603e-02
     vertex  7.574597e-02  6.132079e-02 -3.174603e-02
     vertex  5.617194e-02  8.019252e-02 -3.174603e-02
   endloop
 endfacet
 facet normal -2.935148e-17 -4.102585e-17 -1.000000e+00
   outer loop
     vertex  3.659613e-01  3.659613e-01 -3.174603e-02
     vertex  5.617194e-02  8.019252e-02 -3.174603e-02
     vertex  3.405877e-02  9.601314e-02 -3.174603e-02
   endloop
 endfacet
 facet normal -2.429145e-17 -4.724718e-17 -1.000000e+00
   outer loop
     vertex  3.659613e-01  3.659613e-01 -3.174603e-02
     vertex  3.405877e-02  9.601314e-02 -3.174603e-02
     vertex  9.877740e-03  1.084455e-01 -3.174603e-02
   endloop
 endfacet
 facet normal -1.873817e-17 -5.492606e-17 -1.000000e+00
   outer loop
     vertex  3.659613e-01  3.659613e-01 -3.174603e-02
     vertex  9.877740e-03  1.084455e-01 -3.174603e-02
     vertex -1.585576e-02  1.172245e-01 -3.174603e-02
   endloop
 endfacet
 facet normal -1.204352e-17 -6.520252e-17 -1.000000e+00
   outer loop
     vertex  3.659613e-01  3.659613e-01 -3.174603e-02
     vertex -1.585576e-02  1.172245e-01 -3.174603e-02
     vertex -4.259326e-02  1.221632e-01 -3.174603e-02
   endloop
 endfacet
 facet normal -2.940428e-18 -8.045739e-17 -1.000000e+00
   outer loop
     vertex  3.659613e-01  3.659613e-01 -3.174603e-02
     vertex -4.259326e-02  1.221632e-01 -3.174603e-02
     vertex -6.976491e-02  1.231562e-01 -3.174603e-02
   endloop
 endfacet
 facet normal -0.000000e+00 -8.573414e-17 -1.000000e+00
   outer loop
     vertex  3.659613e-01  3.659613e-01 -3.174603e-02
     vertex -6.976491e-02  1.231562e-01 -3.174603e-02
     vertex -5.031746e-01  3.659613e-01 -3.174603e-02
   endloop
 endfacet
 facet normal -9.973323e-01 -7.299531e-02  0.000000e+00
   outer loop
     vertex  1.212957e-01 -3.584567e-02  4.126984e-01
     vertex  1.232805e-01 -6.296293e-02 -3.174603e-02
     vertex  1.232805e-01 -6.296293e-02  4.126984e-01
   endloop
 endfacet
 facet normal -9.973323e-01 -7.299531e-02 -0.000000e+00
   outer loop
     vertex  1.212957e-01 -3.584567e-02  4.126984e-01
     vertex  1.212957e-01 -3.584567e-02 -3.174603e-02
     vertex  1.232805e-01 -6.296293e-02 -3.174603e-02
   endloop
 endfacet
 facet normal -9.760759e-01 -2.174302e-01 -0.000000e+00
   outer loop
     vertex  1.153839e-01 -9.306376e-03  4.126984e-01
     vertex  1.153839e-01 -9.306376e-03 -3.174603e-02
     vertex  1.212957e-01 -3.584567e-02 -3.174603e-02
   endloop
 endfacet
 facet normal -9.760759e-01 -2.174302e-01  0.000000e+00
   outer loop
     vertex  1.153839e-01 -9.306376e-03  4.126984e-01
     vertex  1.212957e-01 -3.584567e-02 -3.174603e-02
     vertex  1.212957e-01 -3.584567e-02  4.126984e-01
   endloop
 endfacet
 facet normal -9.340161e-01 -3.572309e-01  0.000000e+00
   outer loop
     vertex  1.056708e-01  1.608933e-02  4.126984e-01
     vertex  1.153839e-01 -9.306376e-03 -3.174603e-02
     vertex  1.153839e-01 -9.306376e-03  4.126984e-01
   endloop
 endfacet
 facet normal -9.340161e-01 -3.572309e-01 -0.000000e+00
   outer loop
     vertex  1.056708e-01  1.608933e-02  4.126984e-01
     vertex  1.056708e-01  1.608933e-02 -3.174603e-02
     vertex  1.153839e-01 -9.306376e-03 -3.174603e-02
   endloop
 endfacet
 facet normal -8.720494e-01 -4.894178e-01  0.000000e+00
   outer loop
     vertex  9.236365e-02  3.980017e-02  4.126984e-01
     vertex  1.056708e-01  1.608933e-02 -3.174603e-02
     vertex  1.056708e-01  1.608933e-02  4.126984e-01
   endloop
 endfacet
 facet normal -8.720494e-01 -4.894178e-01 -0.000000e+00
   outer loop
     vertex  9.236365e-02  3.980017e-02  4.126984e-01
     vertex  9.236365e-02  3.980017e-02 -3.174603e-02
     vertex  1.056708e-01  1.608933e-02 -3.174603e-02
   endloop
 endfacet
 facet normal -7.914965e-01 -6.111737e-01  0.000000e+00
   outer loop
     vertex  7.574597e-02  6.132079e-02  4.126984e-01
     vertex  9.236365e-02  3.980017e-02 -3.174603e-02
     vertex  9.236365e-02  3.980017e-02  4.126984e-01
   endloop
 endfacet
 facet normal -7.914965e-01 -6.111737e-01 -0.000000e+00
   outer loop
     vertex  7.574597e-02  6.132079e-02  4.126984e-01
     vertex  7.574597e-02  6.132079e-02 -3.174603e-02
     vertex  9.236365e-02  3.980017e-02 -3.174603e-02
   endloop
 endfacet
 facet normal -6.940742e-01 -7.199035e-01  0.000000e+00
   outer loop
     vertex  5.617194e-02  8.019252e-02  4.126984e-01
     vertex  7.574597e-02  6.132079e-02 -3.174603e-02
     vertex  7.574597e-02  6.132079e-02  4.126984e-01
   endloop
 endfacet
 facet normal -6.940742e-01 -7.199035e-01 -0.000000e+00
   outer loop
     vertex  5.617194e-02  8.019252e-02  4.126984e-01
     vertex  5.617194e-02  8.019252e-02 -3.174603e-02
     vertex  7.574597e-02  6.132079e-02 -3.174603e-02
   endloop
 endfacet
 facet normal -5.818589e-01 -8.132897e-01  0.000000e+00
   outer loop
     vertex  3.405877e-02  9.601314e-02  4.126984e-01
     vertex  5.617194e-02  8.019252e-02 -3.174603e-02
     vertex  5.617194e-02  8.019252e-02  4.126984e-01
   endloop
 endfacet
 facet normal -5.818589e-01 -8.132897e-01 -0.000000e+00
   outer loop
     vertex  3.405877e-02  9.601314e-02  4.126984e-01
     vertex  3.405877e-02  9.601314e-02 -3.174603e-02
     vertex  5.617194e-02  8.019252e-02 -3.174603e-02
   endloop
 endfacet
 facet normal -4.572423e-01 -8.893421e-01  0.000000e+00
   outer loop
     vertex  9.877740e-03  1.084455e-01  4.126984e-01
     vertex  3.405877e-02  9.601314e-02 -3.174603e-02
     vertex  3.405877e-02  9.601314e-02  4.126984e-01
   endloop
 endfacet
 facet normal -4.572423e-01 -8.893421e-01 -0.000000e+00
   outer loop
     vertex  9.877740e-03  1.084455e-01  4.126984e-01
     vertex  9.877740e-03  1.084455e-01 -3.174603e-02
     vertex  3.405877e-02  9.601314e-02 -3.174603e-02
   endloop
 endfacet
 facet normal -3.228804e-01 -9.464398e-01  0.000000e+00
   outer loop
     vertex -1.585576e-02  1.172245e-01  4.126984e-01
     vertex  9.877740e-03  1.084455e-01 -3.174603e-02
     vertex  9.877740e-03  1.084455e-01  4.126984e-01
   endloop
 endfacet
 facet normal -3.228804e-01 -9.464398e-01 -0.000000e+00
   outer loop
     vertex -1.585576e-02  1.172245e-01  4.126984e-01
     vertex -1.585576e-02  1.172245e-01 -3.174603e-02
     vertex  9.877740e-03  1.084455e-01 -3.174603e-02
   endloop
 endfacet
 facet normal -1.816369e-01 -9.833657e-01  0.000000e+00
   outer loop
     vertex -4.259326e-02  1.221632e-01  4.126984e-01
     vertex -1.585576e-02  1.172245e-01 -3.174603e-02
     vertex -1.585576e-02  1.172245e-01  4.126984e-01
   endloop
 endfacet
 facet normal -1.816369e-01 -9.833657e-01 -0.000000e+00
   outer loop
     vertex -4.259326e-02  1.221632e-01  4.126984e-01
     vertex -4.259326e-02  1.221632e-01 -3.174603e-02
     vertex -1.585576e-02  1.172245e-01 -3.174603e-02
   endloop
 endfacet
 facet normal -3.652202e-02 -9.993328e-01  0.000000e+00
   outer loop
     vertex -6.976491e-02  1.231562e-01  4.126984e-01
     vertex -4.259326e-02  1.221632e-01 -3.174603e-02
     vertex -4.259326e-02  1.221632e-01  4.126984e-01
   endloop
 endfacet
 facet normal -3.652202e-02 -9.993328e-01 -0.000000e+00
   outer loop
     vertex -6.976491e-02  1.231562e-01  4.126984e-01
     vertex -6.976491e-02  1.231562e-01 -3.174603e-02
     vertex -4.259326e-02  1.221632e-01 -3.174603e-02
   endloop
 endfacet
 facet normal  1.093712e-01 -9.940010e-01  0.000000e+00
   outer loop
     vertex -9.679159e-02  1.201824e-01  4.126984e-01
     vertex -6.976491e-02  1.231562e-01 -3.174603e-02
     vertex -6.976491e-02  1.231562e-01  4.126984e-01
   endloop
 endfacet
 facet normal  1.093712e-01 -9.940010e-01  0.000000e+00
   outer loop
     vertex -9.679159e-02  1.201824e-01  4.126984e-01
     vertex -9.679159e-02  1.201824e-01 -3.174603e-02
     vertex -6.976491e-02  1.231562e-01 -3.174603e-02
   endloop
 endfacet
 facet normal  2.529334e-01 -9.674837e-01  0.000000e+00
   outer loop
     vertex -1.230973e-01  1.133052e-01  4.126984e-01
     vertex -9.679159e-02  1.201824e-01 -3.174603e-02
     vertex -9.679159e-02  1.201824e-01  4.126984e-01
   endloop
 endfacet
 facet normal  2.529334e-01 -9.674837e-01  0.000000e+00
   outer loop
     vertex -1.230973e-01  1.133052e-01  4.126984e-01
     vertex -1.230973e-01  1.133052e-01 -3.174603e-02
     vertex -9.679159e-02  1.201824e-01 -3.174603e-02
   endloop
 endfacet
 facet normal  3.911047e-01 -9.203462e-01  0.000000e+00
   outer loop
     vertex -1.481213e-01  1.026712e-01  4.126984e-01
     vertex -1.230973e-01  1.133052e-01 -3.174603e-02
     vertex -1.230973e-01  1.133052e-01  4.126984e-01
   endloop
 endfacet
 facet normal  3.911047e-01 -9.203462e-01  0.000000e+00
   outer loop
     vertex -1.481213e-01  1.026712e-01  4.126984e-01
     vertex -1.481213e-01  1.026712e-01 -3.174603e-02
     vertex -1.230973e-01  1.133052e-01 -3.174603e-02
   endloop
 endfacet
 facet normal  5.209403e-01 -8.535931e-01  0.000000e+00
   outer loop
     vertex -1.481213e-01  1.026712e-01  4.126984e-01
     vertex -1.713303e-01  8.850691e-02 -3.174603e-02
     vertex -1.481213e-01  1.026712e-01 -3.174603e-02
   endloop
 endfacet
 facet normal  5.209403e-01 -8.535931e-01  0.000000e+00
   outer loop
     vertex -1.713303e-01  8.850691e-02  4.126984e-01
     vertex -1.713303e-01  8.850691e-02 -3.174603e-02
     vertex -1.481213e-01  1.026712e-01  4.126984e-01
   endloop
 endfacet
 facet normal  6.396730e-01 -7.686471e-01  0.000000e+00
   outer loop
     vertex -1.713303e-01  8.850691e-02  4.126984e-01
     vertex -1.922297e-01  7.111433e-02 -3.174603e-02
     vertex -1.713303e-01  8.850691e-02 -3.174603e-02
   endloop
 endfacet
 facet normal  6.396730e-01 -7.686471e-01  0.000000e+00
   outer loop
     vertex -1.922297e-01  7.111433e-02  4.126984e-01
     vertex -1.922297e-01  7.111433e-02 -3.174603e-02
     vertex -1.713303e-01  8.850691e-02  4.126984e-01
   endloop
 endfacet
 facet normal  7.447722e-01 -6.673188e-01  0.000000e+00
   outer loop
     vertex -2.103739e-01  5.086414e-02  4.126984e-01
     vertex -1.922297e-01  7.111433e-02 -3.174603e-02
     vertex -1.922297e-01  7.111433e-02  4.126984e-01
   endloop
 endfacet
 facet normal  7.447722e-01 -6.673188e-01  0.000000e+00
   outer loop
     vertex -2.103739e-01  5.086414e-02  4.126984e-01
     vertex -2.103739e-01  5.086414e-02 -3.174603e-02
     vertex -1.922297e-01  7.111433e-02 -3.174603e-02
   endloop
 endfacet
 facet normal  8.339978e-01 -5.517677e-01  0.000000e+00
   outer loop
     vertex -2.253764e-01  2.818791e-02  4.126984e-01
     vertex -2.253764e-01  2.818791e-02 -3.174603e-02
     vertex -2.103739e-01  5.086414e-02 -3.174603e-02
   endloop
 endfacet
 facet normal  8.339978e-01 -5.517677e-01  0.000000e+00
   outer loop
     vertex -2.253764e-01  2.818791e-02  4.126984e-01
     vertex -2.103739e-01  5.086414e-02 -3.174603e-02
     vertex -2.103739e-01  5.086414e-02  4.126984e-01
   endloop
 endfacet
 facet normal  9.054482e-01 -4.244567e-01  0.000000e+00
   outer loop
     vertex -2.253764e-01  2.818791e-02  4.126984e-01
     vertex -2.369173e-01  3.568963e-03 -3.174603e-02
     vertex -2.253764e-01  2.818791e-02 -3.174603e-02
   endloop
 endfacet
 facet normal  9.054482e-01 -4.244567e-01  0.000000e+00
   outer loop
     vertex -2.369173e-01  3.568963e-03  4.126984e-01
     vertex -2.369173e-01  3.568963e-03 -3.174603e-02
     vertex -2.253764e-01  2.818791e-02  4.126984e-01
   endloop
 endfacet
 facet normal  9.576006e-01 -2.880991e-01  0.000000e+00
   outer loop
     vertex -2.447506e-01 -2.246800e-02  4.126984e-01
     vertex -2.447506e-01 -2.246800e-02 -3.174603e-02
     vertex -2.369173e-01  3.568963e-03 -3.174603e-02
   endloop
 endfacet
 facet normal  9.576006e-01 -2.880991e-01  0.000000e+00
   outer loop
     vertex -2.447506e-01 -2.246800e-02  4.126984e-01
     vertex -2.369173e-01  3.568963e-03 -3.174603e-02
     vertex -2.369173e-01  3.568963e-03  4.126984e-01
   endloop
 endfacet
 facet normal  9.893434e-01 -1.456012e-01  0.000000e+00
   outer loop
     vertex -2.487095e-01 -4.936803e-02  4.126984e-01
     vertex -2.487095e-01 -4.936803e-02 -3.174603e-02
     vertex -2.447506e-01 -2.246800e-02 -3.174603e-02
   endloop
 endfacet
 facet normal  9.893434e-01 -1.456012e-01  0.000000e+00
   outer loop
     vertex -2.487095e-01 -4.936803e-02  4.126984e-01
     vertex -2.447506e-01 -2.246800e-02 -3.174603e-02
     vertex -2.447506e-01 -2.246800e-02  4.126984e-01
   endloop
 endfacet
 facet normal  1.000000e+00 -2.041618e-15  0.000000e+00
   outer loop
     vertex -2.487095e-01 -7.655782e-02  4.126984e-01
     vertex -2.487095e-01 -7.655782e-02 -3.174603e-02
     vertex -2.487095e-01 -4.936803e-02 -3.174603e-02
   endloop
 endfacet
 facet normal  1.000000e+00 -2.041618e-15  0.000000e+00
   outer loop
     vertex -2.487095e-01 -7.655782e-02  4.126984e-01
     vertex -2.487095e-01 -4.936803e-02 -3.174603e-02
     vertex -2.487095e-01 -4.936803e-02  4.126984e-01
   endloop
 endfacet
 facet normal  9.893434e-01  1.456012e-01  0.000000e+00
   outer loop
     vertex -2.447506e-01 -1.034579e-01  4.126984e-01
     vertex -2.447506e-01 -1.034579e-01 -3.174603e-02
     vertex -2.487095e-01 -7.655782e-02 -3.174603e-02
   endloop
 endfacet
 facet normal  9.893434e-01  1.456012e-01  0.000000e+00
   outer loop
     vertex -2.447506e-01 -1.034579e-01  4.126984e-01
     vertex -2.487095e-01 -7.655782e-02 -3.174603e-02
     vertex -2.487095e-01 -7.655782e-02  4.126984e-01
   endloop
 endfacet
 facet normal  9.576006e-01  2.880991e-01  0.000000e+00
   outer loop
     vertex -2.369173e-01 -1.294948e-01  4.126984e-01
     vertex -2.369173e-01 -1.294948e-01 -3.174603e-02
     vertex -2.447506e-01 -1.034579e-01 -3.174603e-02
   endloop
 endfacet
 facet normal  9.576006e-01  2.880991e-01  0.000000e+00
   outer loop
     vertex -2.369173e-01 -1.294948e-01  4.126984e-01
     vertex -2.447506e-01 -1.034579e-01 -3.174603e-02
     vertex -2.447506e-01 -1.034579e-01  4.126984e-01
   endloop
 endfacet
 facet normal  9.054482e-01  4.244567e-01  0.000000e+00
   outer loop
     vertex -2.253764e-01 -1.541138e-01  4.126984e-01
     vertex -2.253764e-01 -1.541138e-01 -3.174603e-02
     vertex -2.369173e-01 -1.294948e-01 -3.174603e-02
   endloop
 endfacet
 facet normal  9.054482e-01  4.244567e-01  0.000000e+00
   outer loop
     vertex -2.253764e-01 -1.541138e-01  4.126984e-01
     vertex -2.369173e-01 -1.294948e-01 -3.174603e-02
     vertex -2.369173e-01 -1.294948e-01  4.126984e-01
   endloop
 endfacet
 facet normal  8.339978e-01  5.517677e-01  0.000000e+00
   outer loop
     vertex -2.103739e-01 -1.767900e-01  4.126984e-01
     vertex -2.103739e-01 -1.767900e-01 -3.174603e-02
     vertex -2.253764e-01 -1.541138e-01 -3.174603e-02
   endloop
 endfacet
 facet normal  8.339978e-01  5.517677e-01  0.000000e+00
   outer loop
     vertex -2.103739e-01 -1.767900e-01  4.126984e-01
     vertex -2.253764e-01 -1.541138e-01 -3.174603e-02
     vertex -2.253764e-01 -1.541138e-01  4.126984e-01
   endloop
 endfacet
 facet normal  7.447722e-01  6.673188e-01  0.000000e+00
   outer loop
     vertex -1.922297e-01 -1.970402e-01  4.126984e-01
     vertex -1.922297e-01 -1.970402e-01 -3.174603e-02
     vertex -2.103739e-01 -1.767900e-01 -3.174603e-02
   endloop
 endfacet
 facet normal  7.447722e-01  6.673188e-01  0.000000e+00
   outer loop
     vertex -1.922297e-01 -1.970402e-01  4.126984e-01
     vertex -2.103739e-01 -1.767900e-01 -3.174603e-02
     vertex -2.103739e-01 -1.767900e-01  4.126984e-01
   endloop
 endfacet
 facet normal  6.396730e-01  7.686471e-01  0.000000e+00
   outer loop
     vertex -1.713303e-01 -2.144328e-01  4.126984e-01
     vertex -1.922297e-01 -1.970402e-01 -3.174603e-02
     vertex -1.922297e-01 -1.970402e-01  4.126984e-01
   endloop
 endfacet
 facet normal  6.396730e-01  7.686471e-01  0.000000e+00
   outer loop
     vertex -1.713303e-01 -2.144328e-01  4.126984e-01
     vertex -1.713303e-01 -2.144328e-01 -3.174603e-02
     vertex -1.922297e-01 -1.970402e-01 -3.174603e-02
   endloop
 endfacet
 facet normal  5.209403e-01  8.535931e-01  0.000000e+00
   outer loop
     vertex -1.481213e-01 -2.285970e-01  4.126984e-01
     vertex -1.713303e-01 -2.144328e-01 -3.174603e-02
     vertex -1.713303e-01 -2.144328e-01  4.126984e-01
   endloop
 endfacet
 facet normal  5.209403e-01  8.535931e-01  0.000000e+00
   outer loop
     vertex -1.481213e-01 -2.285970e-01  4.126984e-01
     vertex -1.481213e-01 -2.285970e-01 -3.174603e-02
     vertex -1.713303e-01 -2.144328e-01 -3.174603e-02
   endloop
 endfacet
 facet normal  3.911047e-01  9.203462e-01  0.000000e+00
   outer loop
     vertex -1.230973e-01 -2.392311e-01  4.126984e-01
     vertex -1.481213e-01 -2.285970e-01 -3.174603e-02
     vertex -1.481213e-01 -2.285970e-01  4.126984e-01
   endloop
 endfacet
 facet normal  3.911047e-01  9.203462e-01  0.000000e+00
   outer loop
     vertex -1.230973e-01 -2.392311e-01  4.126984e-01
     vertex -1.230973e-01 -2.392311e-01 -3.174603e-02
     vertex -1.481213e-01 -2.285970e-01 -3.174603e-02
   endloop
 endfacet
 facet normal  2.529334e-01  9.674837e-01  0.000000e+00
   outer loop
     vertex -9.679159e-02 -2.461083e-01  4.126984e-01
     vertex -1.230973e-01 -2.392311e-01 -3.174603e-02
     vertex -1.230973e-01 -2.392311e-01  4.126984e-01
   endloop
 endfacet
 facet normal  2.529334e-01  9.674837e-01  0.000000e+00
   outer loop
     vertex -9.679159e-02 -2.461083e-01  4.126984e-01
     vertex -9.679159e-02 -2.461083e-01 -3.174603e-02
     vertex -1.230973e-01 -2.392311e-01 -3.174603e-02
   endloop
 endfacet
 facet normal  1.093712e-01  9.940010e-01  0.000000e+00
   outer loop
     vertex -6.976491e-02 -2.490821e-01  4.126984e-01
     vertex -9.679159e-02 -2.461083e-01 -3.174603e-02
     vertex -9.679159e-02 -2.461083e-01  4.126984e-01
   endloop
 endfacet
 facet normal  1.093712e-01  9.940010e-01  0.000000e+00
   outer loop
     vertex -6.976491e-02 -2.490821e-01  4.126984e-01
     vertex -6.976491e-02 -2.490821e-01 -3.174603e-02
     vertex -9.679159e-02 -2.461083e-01 -3.174603e-02
   endloop
 endfacet
 facet normal -3.652202e-02  9.993328e-01  0.000000e+00
   outer loop
     vertex -4.259326e-02 -2.480890e-01  4.126984e-01
     vertex -6.976491e-02 -2.490821e-01 -3.174603e-02
     vertex -6.976491e-02 -2.490821e-01  4.126984e-01
   endloop
 endfacet
 facet normal -3.652202e-02  9.993328e-01  0.000000e+00
   outer loop
     vertex -4.259326e-02 -2.480890e-01  4.126984e-01
     vertex -4.259326e-02 -2.480890e-01 -3.174603e-02
     vertex -6.976491e-02 -2.490821e-01 -3.174603e-02
   endloop
 endfacet
 facet normal -1.816369e-01  9.833657e-01  0.000000e+00
   outer loop
     vertex -1.585576e-02 -2.431504e-01  4.126984e-01
     vertex -4.259326e-02 -2.480890e-01 -3.174603e-02
     vertex -4.259326e-02 -2.480890e-01  4.126984e-01
   endloop
 endfacet
 facet normal -1.816369e-01  9.833657e-01  0.000000e+00
   outer loop
     vertex -1.585576e-02 -2.431504e-01  4.126984e-01
     vertex -1.585576e-02 -2.431504e-01 -3.174603e-02
     vertex -4.259326e-02 -2.480890e-01 -3.174603e-02
   endloop
 endfacet
 facet normal -3.228804e-01  9.464398e-01  0.000000e+00
   outer loop
     vertex -1.585576e-02 -2.431504e-01  4.126984e-01
     vertex  9.877740e-03 -2.343713e-01 -3.174603e-02
     vertex -1.585576e-02 -2.431504e-01 -3.174603e-02
   endloop
 endfacet
 facet normal -3.228804e-01  9.464398e-01  0.000000e+00
   outer loop
     vertex  9.877740e-03 -2.343713e-01  4.126984e-01
     vertex  9.877740e-03 -2.343713e-01 -3.174603e-02
     vertex -1.585576e-02 -2.431504e-01  4.126984e-01
   endloop
 endfacet
 facet normal -4.572423e-01  8.893421e-01  0.000000e+00
   outer loop
     vertex  3.405877e-02 -2.219390e-01  4.126984e-01
     vertex  9.877740e-03 -2.343713e-01 -3.174603e-02
     vertex  9.877740e-03 -2.343713e-01  4.126984e-01
   endloop
 endfacet
 facet normal -4.572423e-01  8.893421e-01  0.000000e+00
   outer loop
     vertex  3.405877e-02 -2.219390e-01  4.126984e-01
     vertex  3.405877e-02 -2.219390e-01 -3.174603e-02
     vertex  9.877740e-03 -2.343713e-01 -3.174603e-02
   endloop
 endfacet
 facet normal -5.818589e-01  8.132897e-01  0.000000e+00
   outer loop
     vertex  3.405877e-02 -2.219390e-01  4.126984e-01
     vertex  5.617194e-02 -2.061184e-01 -3.174603e-02
     vertex  3.405877e-02 -2.219390e-01 -3.174603e-02
   endloop
 endfacet
 facet normal -5.818589e-01  8.132897e-01  0.000000e+00
   outer loop
     vertex  5.617194e-02 -2.061184e-01  4.126984e-01
     vertex  5.617194e-02 -2.061184e-01 -3.174603e-02
     vertex  3.405877e-02 -2.219390e-01  4.126984e-01
   endloop
 endfacet
 facet normal -6.940742e-01  7.199035e-01  0.000000e+00
   outer loop
     vertex  7.574597e-02 -1.872466e-01  4.126984e-01
     vertex  5.617194e-02 -2.061184e-01 -3.174603e-02
     vertex  5.617194e-02 -2.061184e-01  4.126984e-01
   endloop
 endfacet
 facet normal -6.940742e-01  7.199035e-01  0.000000e+00
   outer loop
     vertex  7.574597e-02 -1.872466e-01  4.126984e-01
     vertex  7.574597e-02 -1.872466e-01 -3.174603e-02
     vertex  5.617194e-02 -2.061184e-01 -3.174603e-02
   endloop
 endfacet
 facet normal -7.914965e-01  6.111737e-01  0.000000e+00
   outer loop
     vertex  7.574597e-02 -1.872466e-01  4.126984e-01
     vertex  9.236365e-02 -1.657260e-01 -3.174603e-02
     vertex  7.574597e-02 -1.872466e-01 -3.174603e-02
   endloop
 endfacet
 facet normal -7.914965e-01  6.111737e-01  0.000000e+00
   outer loop
     vertex  9.236365e-02 -1.657260e-01  4.126984e-01
     vertex  9.236365e-02 -1.657260e-01 -3.174603e-02
     vertex  7.574597e-02 -1.872466e-01  4.126984e-01
   endloop
 endfacet
 facet normal -8.720494e-01  4.894178e-01  0.000000e+00
   outer loop
     vertex  1.056708e-01 -1.420152e-01  4.126984e-01
     vertex  9.236365e-02 -1.657260e-01 -3.174603e-02
     vertex  9.236365e-02 -1.657260e-01  4.126984e-01
   endloop
 endfacet
 facet normal -8.720494e-01  4.894178e-01  0.000000e+00
   outer loop
     vertex  1.056708e-01 -1.420152e-01  4.126984e-01
     vertex  1.056708e-01 -1.420152e-01 -3.174603e-02
     vertex  9.236365e-02 -1.657260e-01 -3.174603e-02
   endloop
 endfacet
 facet normal -9.340161e-01  3.572309e-01  0.000000e+00
   outer loop
     vertex  1.153839e-01 -1.166195e-01  4.126984e-01
     vertex  1.056708e-01 -1.420152e-01 -3.174603e-02
     vertex  1.056708e-01 -1.420152e-01  4.126984e-01
   endloop
 endfacet
 facet normal -9.340161e-01  3.572309e-01  0.000000e+00
   outer loop
     vertex  1.153839e-01 -1.166195e-01  4.126984e-01
     vertex  1.153839e-01 -1.166195e-01 -3.174603e-02
     vertex  1.056708e-01 -1.420152e-01 -3.174603e-02
   endloop
 endfacet
 facet normal -9.760759e-01  2.174302e-01  0.000000e+00
   outer loop
     vertex  1.153839e-01 -1.166195e-01  4.126984e-01
     vertex  1.212957e-01 -9.008018e-02 -3.174603e-02
     vertex  1.153839e-01 -1.166195e-01 -3.174603e-02
   endloop
 endfacet
 facet normal -9.760759e-01  2.174302e-01  0.000000e+00
   outer loop
     vertex  1.212957e-01 -9.008018e-02  4.126984e-01
     vertex  1.212957e-01 -9.008018e-02 -3.174603e-02
     vertex  1.153839e-01 -1.166195e-01  4.126984e-01
   endloop
 endfacet
 facet normal -9.973323e-01  7.299531e-02  0.000000e+00
   outer loop
     vertex  1.212957e-01 -9.008018e-02  4.126984e-01
     vertex  1.232805e-01 -6.296293e-02 -3.174603e-02
     vertex  1.212957e-01 -9.008018e-02 -3.174603e-02
   endloop
 endfacet
 facet normal -9.973323e-01  7.299531e-02  0.000000e+00
   outer loop
     vertex  1.232805e-01 -6.296293e-02  4.126984e-01
     vertex  1.232805e-01 -6.296293e-02 -3.174603e-02
     vertex  1.212957e-01 -9.008018e-02  4.126984e-01
   endloop
 endfacet
 facet normal -0.000000e+00  1.000000e+00  0.000000e+00
   outer loop
     vertex -5.031746e-01  3.659613e-01 -1.587302e-02
     vertex  3.659613e-01  3.659613e-01 -1.587302e-02
     vertex  3.659613e-01  3.659613e-01 -3.174603e-02
   endloop
 endfacet
 facet normal  0.000000e+00  1.000000e+00  0.000000e+00
   outer loop
     vertex -5.031746e-01  3.659613e-01 -1.587302e-02
     vertex  3.659613e-01  3.659613e-01 -3.174603e-02
     vertex -5.031746e-01  3.659613e-01 -3.174603e-02
   endloop
 endfacet
endsolid
