solid 
 facet normal -0.000000e+00  0.000000e+00 -1.000000e+00
   outer loop
     vertex  3.599647e-01 -1.587302e-02 -5.308645e-02
     vertex -3.509703e-02 -1.904762e-01 -5.308645e-02
     vertex -3.509703e-02 -1.587302e-02 -5.308645e-02
   endloop
 endfacet
 facet normal  0.000000e+00 -0.000000e+00 -1.000000e+00
   outer loop
     vertex  3.599647e-01 -1.587302e-02 -5.308645e-02
     vertex  3.599647e-01 -1.904762e-01 -5.308645e-02
     vertex -3.509703e-02 -1.904762e-01 -5.308645e-02
   endloop
 endfacet
 facet normal -1.000000e+00  0.000000e+00  0.000000e+00
   outer loop
     vertex -3.509703e-02 -1.587302e-02 -5.308645e-02
     vertex -3.509703e-02 -1.904762e-01  5.395061e-01
     vertex -3.509703e-02 -1.587302e-02  5.395061e-01
   endloop
 endfacet
 facet normal -1.000000e+00  0.000000e+00  0.000000e+00
   outer loop
     vertex -3.509703e-02 -1.587302e-02 -5.308645e-02
     vertex -3.509703e-02 -1.904762e-01 -5.308645e-02
     vertex -3.509703e-02 -1.904762e-01  5.395061e-01
   endloop
 endfacet
 facet normal -1.000000e+00  0.000000e+00  0.000000e+00
   outer loop
     vertex  3.599647e-01 -1.587302e-02 -4.481482e-01
     vertex  3.599647e-01 -1.904762e-01 -5.308645e-02
     vertex  3.599647e-01 -1.587302e-02 -5.308645e-02
   endloop
 endfacet
 facet normal -1.000000e+00  0.000000e+00  0.000000e+00
   outer loop
     vertex  3.599647e-01 -1.587302e-02 -4.481482e-01
     vertex  3.599647e-01 -1.904762e-01 -4.481482e-01
     vertex  3.599647e-01 -1.904762e-01 -5.308645e-02
   endloop
 endfacet
 facet normal  0.000000e+00  0.000000e+00 -1.000000e+00
   outer loop
     vertex  3.599647e-01 -1.587302e-02 -5.308645e-02
     vertex -3.509703e-02 -1.587302e-02 -5.308645e-02
     vertex -3.509703e-02  0.000000e+00 -5.308645e-02
   endloop
 endfacet
 facet normal  0.000000e+00  0.000000e+00 -1.000000e+00
   outer loop
     vertex  3.599647e-01 -1.587302e-02 -5.308645e-02
     vertex -3.509703e-02  0.000000e+00 -5.308645e-02
     vertex  3.599647e-01  0.000000e+00 -5.308645e-02
   endloop
 endfacet
 facet normal  0.000000e+00 -1.000000e+00  0.000000e+00
   outer loop
     vertex  7.550265e-01 -1.904762e-01 -4.481482e-01
     vertex  3.599647e-01 -1.904762e-01 -5.308645e-02
     vertex  3.599647e-01 -1.904762e-01 -4.481482e-01
   endloop
 endfacet
 facet normal  0.000000e+00 -1.000000e+00  0.000000e+00
   outer loop
     vertex -3.509703e-02 -1.904762e-01  5.395061e-01
     vertex -3.509703e-02 -1.904762e-01 -5.308645e-02
     vertex  3.599647e-01 -1.904762e-01 -5.308645e-02
   endloop
 endfacet
 facet normal -0.000000e+00 -1.000000e+00  0.000000e+00
   outer loop
     vertex  7.550265e-01 -1.904762e-01  5.395061e-01
     vertex -3.509703e-02 -1.904762e-01  5.395061e-01
     vertex  3.599647e-01 -1.904762e-01 -5.308645e-02
   endloop
 endfacet
 facet normal  0.000000e+00 -1.000000e+00 -0.000000e+00
   outer loop
     vertex  7.550265e-01 -1.904762e-01  5.395061e-01
     vertex  3.599647e-01 -1.904762e-01 -5.308645e-02
     vertex  7.550265e-01 -1.904762e-01 -4.481482e-01
   endloop
 endfacet
 facet normal -0.000000e+00  0.000000e+00  1.000000e+00
   outer loop
     vertex -3.509703e-02 -1.587302e-02  5.395061e-01
     vertex  7.550265e-01 -1.904762e-01  5.395061e-01
     vertex  7.550265e-01 -1.587302e-02  5.395061e-01
   endloop
 endfacet
 facet normal  0.000000e+00  0.000000e+00  1.000000e+00
   outer loop
     vertex -3.509703e-02 -1.587302e-02  5.395061e-01
     vertex -3.509703e-02 -1.904762e-01  5.395061e-01
     vertex  7.550265e-01 -1.904762e-01  5.395061e-01
   endloop
 endfacet
 facet normal -1.000000e+00  0.000000e+00  0.000000e+00
   outer loop
     vertex -3.509703e-02 -1.587302e-02 -5.308645e-02
     vertex -3.509703e-02 -1.587302e-02  5.395061e-01
     vertex -3.509703e-02  0.000000e+00  5.395061e-01
   endloop
 endfacet
 facet normal -1.000000e+00  0.000000e+00  0.000000e+00
   outer loop
     vertex -3.509703e-02 -1.587302e-02 -5.308645e-02
     vertex -3.509703e-02  0.000000e+00  5.395061e-01
     vertex -3.509703e-02  0.000000e+00 -5.308645e-02
   endloop
 endfacet
 facet normal -0.000000e+00  0.000000e+00 -1.000000e+00
   outer loop
     vertex  7.550265e-01 -1.587302e-02 -4.481482e-01
     vertex  3.599647e-01 -1.904762e-01 -4.481482e-01
     vertex  3.599647e-01 -1.587302e-02 -4.481482e-01
   endloop
 endfacet
 facet normal  0.000000e+00 -0.000000e+00 -1.000000e+00
   outer loop
     vertex  7.550265e-01 -1.587302e-02 -4.481482e-01
     vertex  7.550265e-01 -1.904762e-01 -4.481482e-01
     vertex  3.599647e-01 -1.904762e-01 -4.481482e-01
   endloop
 endfacet
 facet normal -1.000000e+00  0.000000e+00  0.000000e+00
   outer loop
     vertex  3.599647e-01 -1.587302e-02 -4.481482e-01
     vertex  3.599647e-01 -1.587302e-02 -5.308645e-02
     vertex  3.599647e-01  0.000000e+00 -5.308645e-02
   endloop
 endfacet
 facet normal -1.000000e+00  0.000000e+00  0.000000e+00
   outer loop
     vertex  3.599647e-01 -1.587302e-02 -4.481482e-01
     vertex  3.599647e-01  0.000000e+00 -5.308645e-02
     vertex  3.599647e-01  0.000000e+00 -4.481482e-01
   endloop
 endfacet
 facet normal  0.000000e+00  1.000000e+00  0.000000e+00
   outer loop
     vertex  7.550265e-01  1.040834e-17 -4.481482e-01
     vertex  3.599647e-01  1.040834e-17 -4.481482e-01
     vertex  3.599647e-01  1.040834e-17 -5.308645e-02
   endloop
 endfacet
 facet normal  0.000000e+00  1.000000e+00  0.000000e+00
   outer loop
     vertex -3.509703e-02  1.040834e-17  5.395061e-01
     vertex  3.599647e-01  1.040834e-17 -5.308645e-02
     vertex -3.509703e-02  1.040834e-17 -5.308645e-02
   endloop
 endfacet
 facet normal  0.000000e+00  1.000000e+00  0.000000e+00
   outer loop
     vertex  7.550265e-01  1.040834e-17  5.395061e-01
     vertex  3.599647e-01  1.040834e-17 -5.308645e-02
     vertex -3.509703e-02  1.040834e-17  5.395061e-01
   endloop
 endfacet
 facet normal  0.000000e+00  1.000000e+00  0.000000e+00
   outer loop
     vertex  7.550265e-01  1.040834e-17  5.395061e-01
     vertex  7.550265e-01  1.040834e-17 -4.481482e-01
     vertex  3.599647e-01  1.040834e-17 -5.308645e-02
   endloop
 endfacet
 facet normal  1.000000e+00  0.000000e+00  0.000000e+00
   outer loop
     vertex  7.550265e-01 -1.587302e-02  5.395061e-01
     vertex  7.550265e-01 -1.904762e-01 -4.481482e-01
     vertex  7.550265e-01 -1.587302e-02 -4.481482e-01
   endloop
 endfacet
 facet normal  1.000000e+00  0.000000e+00  0.000000e+00
   outer loop
     vertex  7.550265e-01 -1.587302e-02  5.395061e-01
     vertex  7.550265e-01 -1.904762e-01  5.395061e-01
     vertex  7.550265e-01 -1.904762e-01 -4.481482e-01
   endloop
 endfacet
 facet normal  0.000000e+00  0.000000e+00  1.000000e+00
   outer loop
     vertex -3.509703e-02 -1.587302e-02  5.395061e-01
     vertex  7.550265e-01 -1.587302e-02  5.395061e-01
     vertex  7.550265e-01  0.000000e+00  5.395061e-01
   endloop
 endfacet
 facet normal  0.000000e+00  0.000000e+00  1.000000e+00
   outer loop
     vertex -3.509703e-02 -1.587302e-02  5.395061e-01
     vertex  7.550265e-01  0.000000e+00  5.395061e-01
     vertex -3.509703e-02  0.000000e+00  5.395061e-01
   endloop
 endfacet
 facet normal  0.000000e+00  0.000000e+00 -1.000000e+00
   outer loop
     vertex  7.550265e-01 -1.587302e-02 -4.481482e-01
     vertex  3.599647e-01 -1.587302e-02 -4.481482e-01
     vertex  3.599647e-01  0.000000e+00 -4.481482e-01
   endloop
 endfacet
 facet normal  0.000000e+00  0.000000e+00 -1.000000e+00
   outer loop
     vertex  7.550265e-01 -1.587302e-02 -4.481482e-01
     vertex  3.599647e-01  0.000000e+00 -4.481482e-01
     vertex  7.550265e-01  0.000000e+00 -4.481482e-01
   endloop
 endfacet
 facet normal  1.000000e+00  0.000000e+00  0.000000e+00
   outer loop
     vertex  7.550265e-01 -1.587302e-02  5.395061e-01
     vertex  7.550265e-01 -1.587302e-02 -4.481482e-01
     vertex  7.550265e-01  0.000000e+00 -4.481482e-01
   endloop
 endfacet
 facet normal  1.000000e+00 -0.000000e+00  0.000000e+00
   outer loop
     vertex  7.550265e-01 -1.587302e-02  5.395061e-01
     vertex  7.550265e-01  0.000000e+00 -4.481482e-01
     vertex  7.550265e-01  0.000000e+00  5.395061e-01
   endloop
 endfacet
endsolid
