solid 
 facet normal  0.000000e+00 -1.000000e+00  0.000000e+00
   outer loop
     vertex  6.968254e-01 -5.772487e-01 -1.587302e-02
     vertex -8.439153e-01 -5.772487e-01  0.000000e+00
     vertex -8.439153e-01 -5.772487e-01 -1.587302e-02
   endloop
 endfacet
 facet normal  0.000000e+00 -1.000000e+00  0.000000e+00
   outer loop
     vertex  6.968254e-01 -5.772487e-01 -1.587302e-02
     vertex  6.968254e-01 -5.772487e-01  0.000000e+00
     vertex -8.439153e-01 -5.772487e-01  0.000000e+00
   endloop
 endfacet
 facet normal -0.000000e+00 -1.000000e+00  0.000000e+00
   outer loop
     vertex  6.968254e-01 -5.772487e-01 -1.587302e-02
     vertex -8.439153e-01 -5.772487e-01 -1.587302e-02
     vertex -8.439153e-01 -5.772487e-01 -3.174603e-02
   endloop
 endfacet
 facet normal  0.000000e+00 -1.000000e+00 -0.000000e+00
   outer loop
     vertex  6.968254e-01 -5.772487e-01 -1.587302e-02
     vertex -8.439153e-01 -5.772487e-01 -3.174603e-02
     vertex  6.968254e-01 -5.772487e-01 -3.174603e-02
   endloop
 endfacet
 facet normal  1.000000e+00 -4.035226e-15  0.000000e+00
   outer loop
     vertex  6.968254e-01 -5.497354e-01  1.269841e-01
     vertex  6.968254e-01 -5.772487e-01  2.222223e-01
     vertex  6.968254e-01 -5.772487e-01  1.269841e-01
   endloop
 endfacet
 facet normal  1.000000e+00 -4.035226e-15  0.000000e+00
   outer loop
     vertex  6.968254e-01 -5.497354e-01  0.000000e+00
     vertex  6.968254e-01 -5.772487e-01  0.000000e+00
     vertex  6.968254e-01 -5.772487e-01 -1.587302e-02
   endloop
 endfacet
 facet normal  1.000000e+00  0.000000e+00  1.165734e-15
   outer loop
     vertex  6.968254e-01  4.301588e-01  2.222223e-01
     vertex  6.968254e-01 -5.772487e-01  2.222223e-01
     vertex  6.968254e-01 -5.497354e-01  1.269841e-01
   endloop
 endfacet
 facet normal  1.000000e+00  1.133003e-16  0.000000e+00
   outer loop
     vertex  6.968254e-01  4.301588e-01 -1.587302e-02
     vertex  6.968254e-01 -5.497354e-01  1.269841e-01
     vertex  6.968254e-01 -5.497354e-01  0.000000e+00
   endloop
 endfacet
 facet normal  1.000000e+00  1.133003e-16 -0.000000e+00
   outer loop
     vertex  6.968254e-01  4.301588e-01 -1.587302e-02
     vertex  6.968254e-01  4.301588e-01  2.222223e-01
     vertex  6.968254e-01 -5.497354e-01  1.269841e-01
   endloop
 endfacet
 facet normal  1.000000e+00  0.000000e+00 -6.994405e-15
   outer loop
     vertex  6.968254e-01  4.301588e-01 -1.587302e-02
     vertex  6.968254e-01 -5.497354e-01  0.000000e+00
     vertex  6.968254e-01 -5.772487e-01 -1.587302e-02
   endloop
 endfacet
 facet normal  0.000000e+00  0.000000e+00  1.000000e+00
   outer loop
     vertex  6.968254e-01 -5.772487e-01  0.000000e+00
     vertex -8.439153e-01 -5.497354e-01  0.000000e+00
     vertex -8.439153e-01 -5.772487e-01  0.000000e+00
   endloop
 endfacet
 facet normal  0.000000e+00 -0.000000e+00  1.000000e+00
   outer loop
     vertex  6.968254e-01 -5.772487e-01  0.000000e+00
     vertex  6.968254e-01 -5.497354e-01  0.000000e+00
     vertex -8.439153e-01 -5.497354e-01  0.000000e+00
   endloop
 endfacet
 facet normal -1.000000e+00  0.000000e+00  0.000000e+00
   outer loop
     vertex -8.439153e-01 -5.497354e-01  1.269841e-01
     vertex -8.439153e-01  4.301588e-01  2.222223e-01
     vertex -8.439153e-01  4.301588e-01 -1.587302e-02
   endloop
 endfacet
 facet normal -1.000000e+00  0.000000e+00  0.000000e+00
   outer loop
     vertex -8.439153e-01 -5.497354e-01  1.269841e-01
     vertex -8.439153e-01 -5.772487e-01  2.222223e-01
     vertex -8.439153e-01  4.301588e-01  2.222223e-01
   endloop
 endfacet
 facet normal -1.000000e+00  0.000000e+00  0.000000e+00
   outer loop
     vertex -8.439153e-01 -5.772487e-01  1.269841e-01
     vertex -8.439153e-01 -5.772487e-01  2.222223e-01
     vertex -8.439153e-01 -5.497354e-01  1.269841e-01
   endloop
 endfacet
 facet normal -1.000000e+00  0.000000e+00  0.000000e+00
   outer loop
     vertex -8.439153e-01 -5.497354e-01  0.000000e+00
     vertex -8.439153e-01 -5.497354e-01  1.269841e-01
     vertex -8.439153e-01  4.301588e-01 -1.587302e-02
   endloop
 endfacet
 facet normal -1.000000e+00  0.000000e+00  0.000000e+00
   outer loop
     vertex -8.439153e-01 -5.772487e-01 -1.587302e-02
     vertex -8.439153e-01 -5.772487e-01  0.000000e+00
     vertex -8.439153e-01 -5.497354e-01  0.000000e+00
   endloop
 endfacet
 facet normal -1.000000e+00  0.000000e+00  0.000000e+00
   outer loop
     vertex -8.439153e-01 -5.772487e-01 -1.587302e-02
     vertex -8.439153e-01 -5.497354e-01  0.000000e+00
     vertex -8.439153e-01  4.301588e-01 -1.587302e-02
   endloop
 endfacet
 facet normal -1.000000e+00  0.000000e+00  0.000000e+00
   outer loop
     vertex -8.439153e-01 -5.772487e-01 -1.587302e-02
     vertex -8.439153e-01  4.301588e-01 -1.587302e-02
     vertex -8.439153e-01  4.301588e-01 -3.174603e-02
   endloop
 endfacet
 facet normal -1.000000e+00  0.000000e+00  0.000000e+00
   outer loop
     vertex -8.439153e-01 -5.772487e-01 -1.587302e-02
     vertex -8.439153e-01  4.301588e-01 -3.174603e-02
     vertex -8.439153e-01 -5.772487e-01 -3.174603e-02
   endloop
 endfacet
 facet normal  1.000000e+00  0.000000e+00  0.000000e+00
   outer loop
     vertex  6.968254e-01  4.301588e-01 -1.587302e-02
     vertex  6.968254e-01 -5.772487e-01 -1.587302e-02
     vertex  6.968254e-01 -5.772487e-01 -3.174603e-02
   endloop
 endfacet
 facet normal  1.000000e+00  0.000000e+00  0.000000e+00
   outer loop
     vertex  6.968254e-01  4.301588e-01 -1.587302e-02
     vertex  6.968254e-01 -5.772487e-01 -3.174603e-02
     vertex  6.968254e-01  4.301588e-01 -3.174603e-02
   endloop
 endfacet
 facet normal  0.000000e+00 -0.000000e+00 -1.000000e+00
   outer loop
     vertex  6.968254e-01  4.301588e-01 -3.174603e-02
     vertex  6.968254e-01 -5.772487e-01 -3.174603e-02
     vertex -8.439153e-01 -5.772487e-01 -3.174603e-02
   endloop
 endfacet
 facet normal -0.000000e+00  0.000000e+00 -1.000000e+00
   outer loop
     vertex  6.968254e-01  4.301588e-01 -3.174603e-02
     vertex -8.439153e-01 -5.772487e-01 -3.174603e-02
     vertex -8.439153e-01  4.301588e-01 -3.174603e-02
   endloop
 endfacet
 facet normal  0.000000e+00  1.000000e+00  0.000000e+00
   outer loop
     vertex -8.439153e-01  4.301588e-01 -1.587302e-02
     vertex  6.968254e-01  4.301588e-01  2.222223e-01
     vertex  6.968254e-01  4.301588e-01 -1.587302e-02
   endloop
 endfacet
 facet normal  0.000000e+00  1.000000e+00  0.000000e+00
   outer loop
     vertex -8.439153e-01  4.301588e-01 -1.587302e-02
     vertex -8.439153e-01  4.301588e-01  2.222223e-01
     vertex  6.968254e-01  4.301588e-01  2.222223e-01
   endloop
 endfacet
 facet normal  0.000000e+00  0.000000e+00  1.000000e+00
   outer loop
     vertex  6.968254e-01  4.301588e-01  2.222223e-01
     vertex -8.439153e-01 -5.772487e-01  2.222223e-01
     vertex  6.968254e-01 -5.772487e-01  2.222223e-01
   endloop
 endfacet
 facet normal  0.000000e+00  0.000000e+00  1.000000e+00
   outer loop
     vertex  6.968254e-01  4.301588e-01  2.222223e-01
     vertex -8.439153e-01  4.301588e-01  2.222223e-01
     vertex -8.439153e-01 -5.772487e-01  2.222223e-01
   endloop
 endfacet
 facet normal  0.000000e+00 -1.000000e+00  0.000000e+00
   outer loop
     vertex  6.968254e-01 -5.772487e-01  1.269841e-01
     vertex -8.439153e-01 -5.772487e-01  2.222223e-01
     vertex -8.439153e-01 -5.772487e-01  1.269841e-01
   endloop
 endfacet
 facet normal  0.000000e+00 -1.000000e+00  0.000000e+00
   outer loop
     vertex  6.968254e-01 -5.772487e-01  1.269841e-01
     vertex  6.968254e-01 -5.772487e-01  2.222223e-01
     vertex -8.439153e-01 -5.772487e-01  2.222223e-01
   endloop
 endfacet
 facet normal  0.000000e+00  0.000000e+00 -1.000000e+00
   outer loop
     vertex  6.968254e-01 -5.772487e-01  1.269841e-01
     vertex -8.439153e-01 -5.772487e-01  1.269841e-01
     vertex -8.439153e-01 -5.497354e-01  1.269841e-01
   endloop
 endfacet
 facet normal  0.000000e+00  0.000000e+00 -1.000000e+00
   outer loop
     vertex  6.968254e-01 -5.772487e-01  1.269841e-01
     vertex -8.439153e-01 -5.497354e-01  1.269841e-01
     vertex  6.968254e-01 -5.497354e-01  1.269841e-01
   endloop
 endfacet
 facet normal  0.000000e+00 -1.000000e+00  0.000000e+00
   outer loop
     vertex  6.968254e-01 -5.497354e-01  0.000000e+00
     vertex -8.439153e-01 -5.497354e-01  1.269841e-01
     vertex -8.439153e-01 -5.497354e-01  0.000000e+00
   endloop
 endfacet
 facet normal  0.000000e+00 -1.000000e+00  0.000000e+00
   outer loop
     vertex  6.968254e-01 -5.497354e-01  0.000000e+00
     vertex  6.968254e-01 -5.497354e-01  1.269841e-01
     vertex -8.439153e-01 -5.497354e-01  1.269841e-01
   endloop
 endfacet
 facet normal -0.000000e+00  1.000000e+00  0.000000e+00
   outer loop
     vertex -8.439153e-01  4.301588e-01 -1.587302e-02
     vertex  6.968254e-01  4.301588e-01 -1.587302e-02
     vertex  6.968254e-01  4.301588e-01 -3.174603e-02
   endloop
 endfacet
 facet normal  0.000000e+00  1.000000e+00  0.000000e+00
   outer loop
     vertex -8.439153e-01  4.301588e-01 -1.587302e-02
     vertex  6.968254e-01  4.301588e-01 -3.174603e-02
     vertex -8.439153e-01  4.301588e-01 -3.174603e-02
   endloop
 endfacet
endsolid
