solid 
 facet normal  0.000000e+00 -1.000000e+00 -0.000000e+00
   outer loop
     vertex -3.174603e-02 -9.924163e-01  5.649031e-01
     vertex -1.015873e+00 -9.924163e-01 -4.171076e-01
     vertex -3.174603e-02 -9.924163e-01 -4.171076e-01
   endloop
 endfacet
 facet normal -0.000000e+00 -1.000000e+00  0.000000e+00
   outer loop
     vertex -3.174603e-02 -9.924163e-01  5.649031e-01
     vertex -1.015873e+00 -9.924163e-01  5.649031e-01
     vertex -1.015873e+00 -9.924163e-01 -4.171076e-01
   endloop
 endfacet
 facet normal  1.000000e+00  0.000000e+00  0.000000e+00
   outer loop
     vertex -3.174603e-02 -1.740741e-01  5.649031e-01
     vertex -3.174603e-02 -9.924163e-01 -4.171076e-01
     vertex -3.174603e-02 -1.740741e-01 -4.171076e-01
   endloop
 endfacet
 facet normal  1.000000e+00  0.000000e+00  0.000000e+00
   outer loop
     vertex -3.174603e-02 -1.740741e-01  5.649031e-01
     vertex -3.174603e-02 -9.924163e-01  5.649031e-01
     vertex -3.174603e-02 -9.924163e-01 -4.171076e-01
   endloop
 endfacet
 facet normal  0.000000e+00  0.000000e+00  1.000000e+00
   outer loop
     vertex -3.174603e-02 -1.740741e-01  5.649031e-01
     vertex -1.015873e+00 -9.924163e-01  5.649031e-01
     vertex -3.174603e-02 -9.924163e-01  5.649031e-01
   endloop
 endfacet
 facet normal  0.000000e+00  0.000000e+00  1.000000e+00
   outer loop
     vertex -3.174603e-02 -1.740741e-01  5.649031e-01
     vertex -1.015873e+00 -1.740741e-01  5.649031e-01
     vertex -1.015873e+00 -9.924163e-01  5.649031e-01
   endloop
 endfacet
 facet normal -1.000000e+00  0.000000e+00 -0.000000e+00
   outer loop
     vertex -1.015873e+00 -1.740741e-01  5.649031e-01
     vertex -1.015873e+00 -1.740741e-01 -4.171076e-01
     vertex -1.015873e+00 -9.924163e-01 -4.171076e-01
   endloop
 endfacet
 facet normal -1.000000e+00 -0.000000e+00  0.000000e+00
   outer loop
     vertex -1.015873e+00 -1.740741e-01  5.649031e-01
     vertex -1.015873e+00 -9.924163e-01 -4.171076e-01
     vertex -1.015873e+00 -9.924163e-01  5.649031e-01
   endloop
 endfacet
 facet normal  0.000000e+00  0.000000e+00 -1.000000e+00
   outer loop
     vertex -3.174603e-02 -9.924163e-01 -4.171076e-01
     vertex -1.015873e+00 -1.740741e-01 -4.171076e-01
     vertex -3.174603e-02 -1.740741e-01 -4.171076e-01
   endloop
 endfacet
 facet normal  0.000000e+00  0.000000e+00 -1.000000e+00
   outer loop
     vertex -3.174603e-02 -9.924163e-01 -4.171076e-01
     vertex -1.015873e+00 -9.924163e-01 -4.171076e-01
     vertex -1.015873e+00 -1.740741e-01 -4.171076e-01
   endloop
 endfacet
 facet normal  0.000000e+00  1.000000e+00 -0.000000e+00
   outer loop
     vertex -3.174603e-02 -1.740741e-01 -4.171076e-01
     vertex -1.015873e+00 -1.740741e-01  5.649031e-01
     vertex -3.174603e-02 -1.740741e-01  5.649031e-01
   endloop
 endfacet
 facet normal  0.000000e+00  1.000000e+00  0.000000e+00
   outer loop
     vertex -3.174603e-02 -1.740741e-01 -4.171076e-01
     vertex -1.015873e+00 -1.740741e-01 -4.171076e-01
     vertex -1.015873e+00 -1.740741e-01  5.649031e-01
   endloop
 endfacet
 facet normal  0.000000e+00  0.000000e+00 -1.000000e+00
   outer loop
     vertex -9.275133e-01  2.380953e-01 -8.248677e-01
     vertex -1.091710e-01  3.174604e-01 -8.248677e-01
     vertex -1.091710e-01  2.380953e-01 -8.248677e-01
   endloop
 endfacet
 facet normal  0.000000e+00  0.000000e+00 -1.000000e+00
   outer loop
     vertex -9.275133e-01  2.380953e-01 -8.248677e-01
     vertex -9.275133e-01  3.174604e-01 -8.248677e-01
     vertex -1.091710e-01  3.174604e-01 -8.248677e-01
   endloop
 endfacet
 facet normal  1.000000e+00  0.000000e+00  0.000000e+00
   outer loop
     vertex -1.091710e-01  2.380953e-01 -8.248677e-01
     vertex -1.091710e-01  3.174604e-01 -6.790115e-02
     vertex -1.091710e-01  2.380953e-01 -6.790115e-02
   endloop
 endfacet
 facet normal  1.000000e+00  0.000000e+00  0.000000e+00
   outer loop
     vertex -1.091710e-01  2.380953e-01 -8.248677e-01
     vertex -1.091710e-01  3.174604e-01 -8.248677e-01
     vertex -1.091710e-01  3.174604e-01 -6.790115e-02
   endloop
 endfacet
 facet normal -1.000000e+00  0.000000e+00  0.000000e+00
   outer loop
     vertex -9.275133e-01  2.380953e-01 -6.790115e-02
     vertex -9.275133e-01  3.174604e-01 -8.248677e-01
     vertex -9.275133e-01  2.380953e-01 -8.248677e-01
   endloop
 endfacet
 facet normal -1.000000e+00  0.000000e+00  0.000000e+00
   outer loop
     vertex -9.275133e-01  2.380953e-01 -6.790115e-02
     vertex -9.275133e-01  3.174604e-01 -6.790115e-02
     vertex -9.275133e-01  3.174604e-01 -8.248677e-01
   endloop
 endfacet
 facet normal  0.000000e+00  0.000000e+00 -1.000000e+00
   outer loop
     vertex -9.275133e-01  2.380953e-01 -8.248677e-01
     vertex -1.091710e-01  2.380953e-01 -8.248677e-01
     vertex -1.091710e-01  2.222223e-01 -8.248677e-01
   endloop
 endfacet
 facet normal  0.000000e+00  0.000000e+00 -1.000000e+00
   outer loop
     vertex -9.275133e-01  2.380953e-01 -8.248677e-01
     vertex -1.091710e-01  2.222223e-01 -8.248677e-01
     vertex -9.275133e-01  2.222223e-01 -8.248677e-01
   endloop
 endfacet
 facet normal  0.000000e+00  1.000000e+00  0.000000e+00
   outer loop
     vertex -9.275133e-01  3.174604e-01 -6.790115e-02
     vertex -1.091710e-01  3.174604e-01 -8.248677e-01
     vertex -9.275133e-01  3.174604e-01 -8.248677e-01
   endloop
 endfacet
 facet normal -0.000000e+00  1.000000e+00  0.000000e+00
   outer loop
     vertex -9.275133e-01  3.174604e-01 -6.790115e-02
     vertex -1.091710e-01  3.174604e-01 -6.790115e-02
     vertex -1.091710e-01  3.174604e-01 -8.248677e-01
   endloop
 endfacet
 facet normal  1.000000e+00  0.000000e+00  0.000000e+00
   outer loop
     vertex -1.091710e-01  2.380953e-01 -6.790115e-02
     vertex -1.091710e-01  3.174604e-01  1.980600e-01
     vertex -1.091710e-01  2.380953e-01  1.980600e-01
   endloop
 endfacet
 facet normal  1.000000e+00  0.000000e+00  0.000000e+00
   outer loop
     vertex -1.091710e-01  2.380953e-01 -6.790115e-02
     vertex -1.091710e-01  3.174604e-01 -6.790115e-02
     vertex -1.091710e-01  3.174604e-01  1.980600e-01
   endloop
 endfacet
 facet normal  1.000000e+00  0.000000e+00 -0.000000e+00
   outer loop
     vertex -1.091710e-01  2.380953e-01 -8.248677e-01
     vertex -1.091710e-01  2.380953e-01 -6.790115e-02
     vertex -1.091710e-01  2.222223e-01 -6.790115e-02
   endloop
 endfacet
 facet normal  1.000000e+00  0.000000e+00  0.000000e+00
   outer loop
     vertex -1.091710e-01  2.380953e-01 -8.248677e-01
     vertex -1.091710e-01  2.222223e-01 -6.790115e-02
     vertex -1.091710e-01  2.222223e-01 -8.248677e-01
   endloop
 endfacet
 facet normal -1.000000e+00  0.000000e+00  0.000000e+00
   outer loop
     vertex -9.275133e-01  2.380953e-01  1.980600e-01
     vertex -9.275133e-01  3.174604e-01 -6.790115e-02
     vertex -9.275133e-01  2.380953e-01 -6.790115e-02
   endloop
 endfacet
 facet normal -1.000000e+00  0.000000e+00  0.000000e+00
   outer loop
     vertex -9.275133e-01  2.380953e-01  1.980600e-01
     vertex -9.275133e-01  3.174604e-01  1.980600e-01
     vertex -9.275133e-01  3.174604e-01 -6.790115e-02
   endloop
 endfacet
 facet normal -1.000000e+00  0.000000e+00 -0.000000e+00
   outer loop
     vertex -9.275133e-01  2.380953e-01 -6.790115e-02
     vertex -9.275133e-01  2.380953e-01 -8.248677e-01
     vertex -9.275133e-01  2.222223e-01 -8.248677e-01
   endloop
 endfacet
 facet normal -1.000000e+00 -0.000000e+00  0.000000e+00
   outer loop
     vertex -9.275133e-01  2.380953e-01 -6.790115e-02
     vertex -9.275133e-01  2.222223e-01 -8.248677e-01
     vertex -9.275133e-01  2.222223e-01 -6.790115e-02
   endloop
 endfacet
 facet normal  0.000000e+00 -1.000000e+00  0.000000e+00
   outer loop
     vertex -9.275133e-01  2.222223e-01 -6.790115e-02
     vertex -9.275133e-01  2.222223e-01 -8.248677e-01
     vertex -1.091710e-01  2.222223e-01 -8.248677e-01
   endloop
 endfacet
 facet normal  0.000000e+00 -1.000000e+00  0.000000e+00
   outer loop
     vertex -9.275133e-01  2.222223e-01 -6.790115e-02
     vertex -1.091710e-01  2.222223e-01 -8.248677e-01
     vertex -1.091710e-01  2.222223e-01 -6.790115e-02
   endloop
 endfacet
 facet normal  0.000000e+00  1.000000e+00  0.000000e+00
   outer loop
     vertex -9.275133e-01  3.174604e-01  1.980600e-01
     vertex -1.091710e-01  3.174604e-01 -6.790115e-02
     vertex -9.275133e-01  3.174604e-01 -6.790115e-02
   endloop
 endfacet
 facet normal -0.000000e+00  1.000000e+00  0.000000e+00
   outer loop
     vertex -9.275133e-01  3.174604e-01  1.980600e-01
     vertex -1.091710e-01  3.174604e-01  1.980600e-01
     vertex -1.091710e-01  3.174604e-01 -6.790115e-02
   endloop
 endfacet
 facet normal  0.000000e+00  0.000000e+00  1.000000e+00
   outer loop
     vertex -1.091710e-01  2.380953e-01  1.980600e-01
     vertex -9.275133e-01  3.174604e-01  1.980600e-01
     vertex -9.275133e-01  2.380953e-01  1.980600e-01
   endloop
 endfacet
 facet normal  0.000000e+00 -0.000000e+00  1.000000e+00
   outer loop
     vertex -1.091710e-01  2.380953e-01  1.980600e-01
     vertex -1.091710e-01  3.174604e-01  1.980600e-01
     vertex -9.275133e-01  3.174604e-01  1.980600e-01
   endloop
 endfacet
 facet normal  1.000000e+00  0.000000e+00 -0.000000e+00
   outer loop
     vertex -1.091710e-01  2.380953e-01 -6.790115e-02
     vertex -1.091710e-01  2.380953e-01  1.980600e-01
     vertex -1.091710e-01  2.222223e-01  1.980600e-01
   endloop
 endfacet
 facet normal  1.000000e+00  0.000000e+00  0.000000e+00
   outer loop
     vertex -1.091710e-01  2.380953e-01 -6.790115e-02
     vertex -1.091710e-01  2.222223e-01  1.980600e-01
     vertex -1.091710e-01  2.222223e-01 -6.790115e-02
   endloop
 endfacet
 facet normal -1.000000e+00  0.000000e+00 -0.000000e+00
   outer loop
     vertex -9.275133e-01  2.380953e-01  1.980600e-01
     vertex -9.275133e-01  2.380953e-01 -6.790115e-02
     vertex -9.275133e-01  2.222223e-01 -6.790115e-02
   endloop
 endfacet
 facet normal -1.000000e+00 -0.000000e+00  0.000000e+00
   outer loop
     vertex -9.275133e-01  2.380953e-01  1.980600e-01
     vertex -9.275133e-01  2.222223e-01 -6.790115e-02
     vertex -9.275133e-01  2.222223e-01  1.980600e-01
   endloop
 endfacet
 facet normal  0.000000e+00 -1.000000e+00  0.000000e+00
   outer loop
     vertex -9.275133e-01  2.222223e-01  1.980600e-01
     vertex -9.275133e-01  2.222223e-01 -6.790115e-02
     vertex -1.091710e-01  2.222223e-01 -6.790115e-02
   endloop
 endfacet
 facet normal  0.000000e+00 -1.000000e+00  0.000000e+00
   outer loop
     vertex -9.275133e-01  2.222223e-01  1.980600e-01
     vertex -1.091710e-01  2.222223e-01 -6.790115e-02
     vertex -1.091710e-01  2.222223e-01  1.980600e-01
   endloop
 endfacet
 facet normal  0.000000e+00  0.000000e+00  1.000000e+00
   outer loop
     vertex -1.091710e-01  2.380953e-01  1.980600e-01
     vertex -9.275133e-01  2.380953e-01  1.980600e-01
     vertex -9.275133e-01  2.222223e-01  1.980600e-01
   endloop
 endfacet
 facet normal  0.000000e+00  0.000000e+00  1.000000e+00
   outer loop
     vertex -1.091710e-01  2.380953e-01  1.980600e-01
     vertex -9.275133e-01  2.222223e-01  1.980600e-01
     vertex -1.091710e-01  2.222223e-01  1.980600e-01
   endloop
 endfacet
endsolid
