solid 
 facet normal -0.000000e+00  0.000000e+00 -1.000000e+00
   outer loop
     vertex  9.222222e-01 -1.587302e-02 -3.015882e-02
     vertex -3.015882e-02 -1.015873e+00 -3.015882e-02
     vertex -3.015882e-02 -1.587302e-02 -3.015882e-02
   endloop
 endfacet
 facet normal  0.000000e+00 -0.000000e+00 -1.000000e+00
   outer loop
     vertex  9.222222e-01 -1.587302e-02 -3.015882e-02
     vertex  9.222222e-01 -1.015873e+00 -3.015882e-02
     vertex -3.015882e-02 -1.015873e+00 -3.015882e-02
   endloop
 endfacet
 facet normal -1.000000e+00  0.000000e+00  0.000000e+00
   outer loop
     vertex -3.015882e-02 -1.587302e-02 -3.015882e-02
     vertex -3.015882e-02 -1.015873e+00  6.936508e-01
     vertex -3.015882e-02 -1.587302e-02  6.936508e-01
   endloop
 endfacet
 facet normal -1.000000e+00  0.000000e+00  0.000000e+00
   outer loop
     vertex -3.015882e-02 -1.587302e-02 -3.015882e-02
     vertex -3.015882e-02 -1.015873e+00 -3.015882e-02
     vertex -3.015882e-02 -1.015873e+00  6.936508e-01
   endloop
 endfacet
 facet normal  1.000000e+00  0.000000e+00  0.000000e+00
   outer loop
     vertex  9.222222e-01 -1.587302e-02  6.936508e-01
     vertex  9.222222e-01 -1.015873e+00 -3.015882e-02
     vertex  9.222222e-01 -1.587302e-02 -3.015882e-02
   endloop
 endfacet
 facet normal  1.000000e+00  0.000000e+00  0.000000e+00
   outer loop
     vertex  9.222222e-01 -1.587302e-02  6.936508e-01
     vertex  9.222222e-01 -1.015873e+00  6.936508e-01
     vertex  9.222222e-01 -1.015873e+00 -3.015882e-02
   endloop
 endfacet
 facet normal  0.000000e+00  0.000000e+00 -1.000000e+00
   outer loop
     vertex  9.222222e-01 -1.587302e-02 -3.015882e-02
     vertex -3.015882e-02 -1.587302e-02 -3.015882e-02
     vertex -3.015882e-02  0.000000e+00 -3.015882e-02
   endloop
 endfacet
 facet normal  0.000000e+00  0.000000e+00 -1.000000e+00
   outer loop
     vertex  9.222222e-01 -1.587302e-02 -3.015882e-02
     vertex -3.015882e-02  0.000000e+00 -3.015882e-02
     vertex  9.222222e-01  0.000000e+00 -3.015882e-02
   endloop
 endfacet
 facet normal  0.000000e+00 -1.000000e+00 -0.000000e+00
   outer loop
     vertex  9.222222e-01 -1.015873e+00  6.936508e-01
     vertex -3.015882e-02 -1.015873e+00 -3.015882e-02
     vertex  9.222222e-01 -1.015873e+00 -3.015882e-02
   endloop
 endfacet
 facet normal -0.000000e+00 -1.000000e+00  0.000000e+00
   outer loop
     vertex  9.222222e-01 -1.015873e+00  6.936508e-01
     vertex -3.015882e-02 -1.015873e+00  6.936508e-01
     vertex -3.015882e-02 -1.015873e+00 -3.015882e-02
   endloop
 endfacet
 facet normal -0.000000e+00  0.000000e+00  1.000000e+00
   outer loop
     vertex -3.015882e-02 -1.587302e-02  6.936508e-01
     vertex  9.222222e-01 -1.015873e+00  6.936508e-01
     vertex  9.222222e-01 -1.587302e-02  6.936508e-01
   endloop
 endfacet
 facet normal  0.000000e+00  0.000000e+00  1.000000e+00
   outer loop
     vertex -3.015882e-02 -1.587302e-02  6.936508e-01
     vertex -3.015882e-02 -1.015873e+00  6.936508e-01
     vertex  9.222222e-01 -1.015873e+00  6.936508e-01
   endloop
 endfacet
 facet normal -1.000000e+00  0.000000e+00  0.000000e+00
   outer loop
     vertex -3.015882e-02 -1.587302e-02 -3.015882e-02
     vertex -3.015882e-02 -1.587302e-02  6.936508e-01
     vertex -3.015882e-02  0.000000e+00  6.936508e-01
   endloop
 endfacet
 facet normal -1.000000e+00  0.000000e+00  0.000000e+00
   outer loop
     vertex -3.015882e-02 -1.587302e-02 -3.015882e-02
     vertex -3.015882e-02  0.000000e+00  6.936508e-01
     vertex -3.015882e-02  0.000000e+00 -3.015882e-02
   endloop
 endfacet
 facet normal  1.000000e+00  0.000000e+00  0.000000e+00
   outer loop
     vertex  9.222222e-01 -1.587302e-02  6.936508e-01
     vertex  9.222222e-01 -1.587302e-02 -3.015882e-02
     vertex  9.222222e-01  0.000000e+00 -3.015882e-02
   endloop
 endfacet
 facet normal  1.000000e+00 -0.000000e+00  0.000000e+00
   outer loop
     vertex  9.222222e-01 -1.587302e-02  6.936508e-01
     vertex  9.222222e-01  0.000000e+00 -3.015882e-02
     vertex  9.222222e-01  0.000000e+00  6.936508e-01
   endloop
 endfacet
 facet normal  0.000000e+00  1.000000e+00  0.000000e+00
   outer loop
     vertex  9.222222e-01  6.591949e-17  6.936508e-01
     vertex  9.222222e-01  6.591949e-17 -3.015882e-02
     vertex -3.015882e-02  6.591949e-17 -3.015882e-02
   endloop
 endfacet
 facet normal  0.000000e+00  1.000000e+00  0.000000e+00
   outer loop
     vertex  9.222222e-01  6.591949e-17  6.936508e-01
     vertex -3.015882e-02  6.591949e-17 -3.015882e-02
     vertex -3.015882e-02  6.591949e-17  6.936508e-01
   endloop
 endfacet
 facet normal  0.000000e+00  0.000000e+00  1.000000e+00
   outer loop
     vertex -3.015882e-02 -1.587302e-02  6.936508e-01
     vertex  9.222222e-01 -1.587302e-02  6.936508e-01
     vertex  9.222222e-01  0.000000e+00  6.936508e-01
   endloop
 endfacet
 facet normal  0.000000e+00  0.000000e+00  1.000000e+00
   outer loop
     vertex -3.015882e-02 -1.587302e-02  6.936508e-01
     vertex  9.222222e-01  0.000000e+00  6.936508e-01
     vertex -3.015882e-02  0.000000e+00  6.936508e-01
   endloop
 endfacet
 facet normal  0.000000e+00  0.000000e+00 -1.000000e+00
   outer loop
     vertex -1.587302e-02  1.726632e-01 -5.910053e-01
     vertex  7.301587e-01 -5.328042e-01 -5.910053e-01
     vertex -1.587302e-02 -5.328042e-01 -5.910053e-01
   endloop
 endfacet
 facet normal  0.000000e+00  0.000000e+00 -1.000000e+00
   outer loop
     vertex -1.587302e-02  1.726632e-01 -5.910053e-01
     vertex  7.301587e-01  1.726632e-01 -5.910053e-01
     vertex  7.301587e-01 -5.328042e-01 -5.910053e-01
   endloop
 endfacet
 facet normal  0.000000e+00 -1.000000e+00  0.000000e+00
   outer loop
     vertex -1.587302e-02 -5.328042e-01 -5.910053e-01
     vertex  7.301587e-01 -5.328042e-01 -5.485007e-02
     vertex -1.587302e-02 -5.328042e-01 -5.485007e-02
   endloop
 endfacet
 facet normal  0.000000e+00 -1.000000e+00  0.000000e+00
   outer loop
     vertex -1.587302e-02 -5.328042e-01 -5.910053e-01
     vertex  7.301587e-01 -5.328042e-01 -5.910053e-01
     vertex  7.301587e-01 -5.328042e-01 -5.485007e-02
   endloop
 endfacet
 facet normal  0.000000e+00  1.000000e+00  0.000000e+00
   outer loop
     vertex -1.587302e-02  1.726632e-01 -5.485007e-02
     vertex  7.301587e-01  1.726632e-01 -5.910053e-01
     vertex -1.587302e-02  1.726632e-01 -5.910053e-01
   endloop
 endfacet
 facet normal -0.000000e+00  1.000000e+00  0.000000e+00
   outer loop
     vertex -1.587302e-02  1.726632e-01 -5.485007e-02
     vertex  7.301587e-01  1.726632e-01 -5.485007e-02
     vertex  7.301587e-01  1.726632e-01 -5.910053e-01
   endloop
 endfacet
 facet normal  0.000000e+00 -0.000000e+00 -1.000000e+00
   outer loop
     vertex -1.587302e-02  1.726632e-01 -5.910053e-01
     vertex -1.587302e-02 -5.328042e-01 -5.910053e-01
     vertex -3.174603e-02 -5.328042e-01 -5.910053e-01
   endloop
 endfacet
 facet normal -0.000000e+00  0.000000e+00 -1.000000e+00
   outer loop
     vertex -1.587302e-02  1.726632e-01 -5.910053e-01
     vertex -3.174603e-02 -5.328042e-01 -5.910053e-01
     vertex -3.174603e-02  1.726632e-01 -5.910053e-01
   endloop
 endfacet
 facet normal  1.000000e+00  0.000000e+00  0.000000e+00
   outer loop
     vertex  7.301587e-01  1.726632e-01 -5.485007e-02
     vertex  7.301587e-01 -5.328042e-01 -5.910053e-01
     vertex  7.301587e-01  1.726632e-01 -5.910053e-01
   endloop
 endfacet
 facet normal  1.000000e+00  0.000000e+00  0.000000e+00
   outer loop
     vertex  7.301587e-01  1.726632e-01 -5.485007e-02
     vertex  7.301587e-01 -5.328042e-01 -5.485007e-02
     vertex  7.301587e-01 -5.328042e-01 -5.910053e-01
   endloop
 endfacet
 facet normal  0.000000e+00  0.000000e+00  1.000000e+00
   outer loop
     vertex -1.587302e-02 -5.328042e-01 -5.485007e-02
     vertex  7.301587e-01  1.726632e-01 -5.485007e-02
     vertex -1.587302e-02  1.726632e-01 -5.485007e-02
   endloop
 endfacet
 facet normal  0.000000e+00  0.000000e+00  1.000000e+00
   outer loop
     vertex -1.587302e-02 -5.328042e-01 -5.485007e-02
     vertex  7.301587e-01 -5.328042e-01 -5.485007e-02
     vertex  7.301587e-01  1.726632e-01 -5.485007e-02
   endloop
 endfacet
 facet normal  0.000000e+00 -1.000000e+00  0.000000e+00
   outer loop
     vertex -1.587302e-02 -5.328042e-01 -5.910053e-01
     vertex -1.587302e-02 -5.328042e-01 -5.485007e-02
     vertex -3.174603e-02 -5.328042e-01 -5.485007e-02
   endloop
 endfacet
 facet normal  0.000000e+00 -1.000000e+00  0.000000e+00
   outer loop
     vertex -1.587302e-02 -5.328042e-01 -5.910053e-01
     vertex -3.174603e-02 -5.328042e-01 -5.485007e-02
     vertex -3.174603e-02 -5.328042e-01 -5.910053e-01
   endloop
 endfacet
 facet normal  0.000000e+00  1.000000e+00  0.000000e+00
   outer loop
     vertex -1.587302e-02  1.726632e-01 -5.485007e-02
     vertex -1.587302e-02  1.726632e-01 -5.910053e-01
     vertex -3.174603e-02  1.726632e-01 -5.910053e-01
   endloop
 endfacet
 facet normal  0.000000e+00  1.000000e+00  0.000000e+00
   outer loop
     vertex -1.587302e-02  1.726632e-01 -5.485007e-02
     vertex -3.174603e-02  1.726632e-01 -5.910053e-01
     vertex -3.174603e-02  1.726632e-01 -5.485007e-02
   endloop
 endfacet
 facet normal -1.000000e+00  0.000000e+00 -0.000000e+00
   outer loop
     vertex -3.174603e-02  1.726632e-01 -5.485007e-02
     vertex -3.174603e-02  1.726632e-01 -5.910053e-01
     vertex -3.174603e-02 -5.328042e-01 -5.910053e-01
   endloop
 endfacet
 facet normal -1.000000e+00 -0.000000e+00  0.000000e+00
   outer loop
     vertex -3.174603e-02  1.726632e-01 -5.485007e-02
     vertex -3.174603e-02 -5.328042e-01 -5.910053e-01
     vertex -3.174603e-02 -5.328042e-01 -5.485007e-02
   endloop
 endfacet
 facet normal  0.000000e+00 -0.000000e+00  1.000000e+00
   outer loop
     vertex -1.587302e-02 -5.328042e-01 -5.485007e-02
     vertex -1.587302e-02  1.726632e-01 -5.485007e-02
     vertex -3.174603e-02  1.726632e-01 -5.485007e-02
   endloop
 endfacet
 facet normal  0.000000e+00  0.000000e+00  1.000000e+00
   outer loop
     vertex -1.587302e-02 -5.328042e-01 -5.485007e-02
     vertex -3.174603e-02  1.726632e-01 -5.485007e-02
     vertex -3.174603e-02 -5.328042e-01 -5.485007e-02
   endloop
 endfacet
endsolid
