solid 
 facet normal -1.000000e+00  0.000000e+00  0.000000e+00
   outer loop
     vertex -5.507936e-01  4.114639e-01 -1.587302e-02
     vertex -5.507936e-01 -5.507936e-01 -1.587302e-02
     vertex -5.507936e-01 -5.507936e-01  2.222223e-01
   endloop
 endfacet
 facet normal -1.000000e+00  0.000000e+00  0.000000e+00
   outer loop
     vertex -5.507936e-01  4.114639e-01 -1.587302e-02
     vertex -5.507936e-01 -5.507936e-01  2.222223e-01
     vertex -5.507936e-01  4.114639e-01  2.222223e-01
   endloop
 endfacet
 facet normal  0.000000e+00 -1.000000e+00  0.000000e+00
   outer loop
     vertex -5.507936e-01 -5.507936e-01 -1.587302e-02
     vertex  4.114639e-01 -5.507936e-01 -1.587302e-02
     vertex  4.114639e-01 -5.507936e-01  2.222223e-01
   endloop
 endfacet
 facet normal  0.000000e+00 -1.000000e+00  0.000000e+00
   outer loop
     vertex -5.507936e-01 -5.507936e-01 -1.587302e-02
     vertex  4.114639e-01 -5.507936e-01  2.222223e-01
     vertex -5.507936e-01 -5.507936e-01  2.222223e-01
   endloop
 endfacet
 facet normal  0.000000e+00  1.000000e+00  0.000000e+00
   outer loop
     vertex  4.114639e-01  4.114639e-01 -1.587302e-02
     vertex -5.507936e-01  4.114639e-01 -1.587302e-02
     vertex -5.507936e-01  4.114639e-01  2.222223e-01
   endloop
 endfacet
 facet normal  0.000000e+00  1.000000e+00 -0.000000e+00
   outer loop
     vertex  4.114639e-01  4.114639e-01 -1.587302e-02
     vertex -5.507936e-01  4.114639e-01  2.222223e-01
     vertex  4.114639e-01  4.114639e-01  2.222223e-01
   endloop
 endfacet
 facet normal -1.000000e+00 -0.000000e+00  0.000000e+00
   outer loop
     vertex -5.507936e-01  4.114639e-01 -1.587302e-02
     vertex -5.507936e-01 -5.507936e-01 -3.174603e-02
     vertex -5.507936e-01 -5.507936e-01 -1.587302e-02
   endloop
 endfacet
 facet normal -1.000000e+00  0.000000e+00 -0.000000e+00
   outer loop
     vertex -5.507936e-01  4.114639e-01 -1.587302e-02
     vertex -5.507936e-01  4.114639e-01 -3.174603e-02
     vertex -5.507936e-01 -5.507936e-01 -3.174603e-02
   endloop
 endfacet
 facet normal  0.000000e+00  0.000000e+00  1.000000e+00
   outer loop
     vertex  4.114639e-01  4.114639e-01  2.222223e-01
     vertex -5.507936e-01 -5.507936e-01  2.222223e-01
     vertex  4.114639e-01 -5.507936e-01  2.222223e-01
   endloop
 endfacet
 facet normal  0.000000e+00  0.000000e+00  1.000000e+00
   outer loop
     vertex  4.114639e-01  4.114639e-01  2.222223e-01
     vertex -5.507936e-01  4.114639e-01  2.222223e-01
     vertex -5.507936e-01 -5.507936e-01  2.222223e-01
   endloop
 endfacet
 facet normal  1.000000e+00  0.000000e+00  0.000000e+00
   outer loop
     vertex  4.114639e-01 -5.507936e-01 -1.587302e-02
     vertex  4.114639e-01  4.114639e-01 -1.587302e-02
     vertex  4.114639e-01  4.114639e-01  2.222223e-01
   endloop
 endfacet
 facet normal  1.000000e+00  0.000000e+00  0.000000e+00
   outer loop
     vertex  4.114639e-01 -5.507936e-01 -1.587302e-02
     vertex  4.114639e-01  4.114639e-01  2.222223e-01
     vertex  4.114639e-01 -5.507936e-01  2.222223e-01
   endloop
 endfacet
 facet normal  0.000000e+00 -1.000000e+00  0.000000e+00
   outer loop
     vertex -5.507936e-01 -5.507936e-01 -1.587302e-02
     vertex  4.114639e-01 -5.507936e-01 -3.174603e-02
     vertex  4.114639e-01 -5.507936e-01 -1.587302e-02
   endloop
 endfacet
 facet normal  0.000000e+00 -1.000000e+00  0.000000e+00
   outer loop
     vertex -5.507936e-01 -5.507936e-01 -1.587302e-02
     vertex -5.507936e-01 -5.507936e-01 -3.174603e-02
     vertex  4.114639e-01 -5.507936e-01 -3.174603e-02
   endloop
 endfacet
 facet normal  0.000000e+00  1.000000e+00  0.000000e+00
   outer loop
     vertex  4.114639e-01  4.114639e-01 -1.587302e-02
     vertex -5.507936e-01  4.114639e-01 -3.174603e-02
     vertex -5.507936e-01  4.114639e-01 -1.587302e-02
   endloop
 endfacet
 facet normal  0.000000e+00  1.000000e+00  0.000000e+00
   outer loop
     vertex  4.114639e-01  4.114639e-01 -1.587302e-02
     vertex  4.114639e-01  4.114639e-01 -3.174603e-02
     vertex -5.507936e-01  4.114639e-01 -3.174603e-02
   endloop
 endfacet
 facet normal  0.000000e+00 -0.000000e+00 -1.000000e+00
   outer loop
     vertex  4.114639e-01  4.114639e-01 -3.174603e-02
     vertex  4.114639e-01 -5.507936e-01 -3.174603e-02
     vertex -5.507936e-01 -5.507936e-01 -3.174603e-02
   endloop
 endfacet
 facet normal -0.000000e+00  0.000000e+00 -1.000000e+00
   outer loop
     vertex  4.114639e-01  4.114639e-01 -3.174603e-02
     vertex -5.507936e-01 -5.507936e-01 -3.174603e-02
     vertex -5.507936e-01  4.114639e-01 -3.174603e-02
   endloop
 endfacet
 facet normal  1.000000e+00 -0.000000e+00  0.000000e+00
   outer loop
     vertex  4.114639e-01 -5.507936e-01 -1.587302e-02
     vertex  4.114639e-01  4.114639e-01 -3.174603e-02
     vertex  4.114639e-01  4.114639e-01 -1.587302e-02
   endloop
 endfacet
 facet normal  1.000000e+00  0.000000e+00  0.000000e+00
   outer loop
     vertex  4.114639e-01 -5.507936e-01 -1.587302e-02
     vertex  4.114639e-01 -5.507936e-01 -3.174603e-02
     vertex  4.114639e-01  4.114639e-01 -3.174603e-02
   endloop
 endfacet
 facet normal  3.546542e-01  0.000000e+00  9.349975e-01
   outer loop
     vertex  4.037038e-01 -1.587302e-02  2.689594e-01
     vertex -5.373898e-01 -1.587302e-02  6.259259e-01
     vertex -5.373898e-01 -2.539683e-01  6.259259e-01
   endloop
 endfacet
 facet normal  3.546542e-01  0.000000e+00  9.349975e-01
   outer loop
     vertex  4.037038e-01 -1.587302e-02  2.689594e-01
     vertex -5.373898e-01 -2.539683e-01  6.259259e-01
     vertex  4.037038e-01 -2.539683e-01  2.689594e-01
   endloop
 endfacet
 facet normal -1.000000e+00  0.000000e+00 -0.000000e+00
   outer loop
     vertex -5.373898e-01 -1.587302e-02  6.259259e-01
     vertex -5.373898e-01 -1.587302e-02  2.689594e-01
     vertex -5.373898e-01 -2.539683e-01  2.689594e-01
   endloop
 endfacet
 facet normal -1.000000e+00 -0.000000e+00  0.000000e+00
   outer loop
     vertex -5.373898e-01 -1.587302e-02  6.259259e-01
     vertex -5.373898e-01 -2.539683e-01  2.689594e-01
     vertex -5.373898e-01 -2.539683e-01  6.259259e-01
   endloop
 endfacet
 facet normal  0.000000e+00  0.000000e+00 -1.000000e+00
   outer loop
     vertex -5.373898e-01 -1.587302e-02  2.689594e-01
     vertex  4.037038e-01 -1.587302e-02  2.689594e-01
     vertex  4.037038e-01 -2.539683e-01  2.689594e-01
   endloop
 endfacet
 facet normal  0.000000e+00  0.000000e+00 -1.000000e+00
   outer loop
     vertex -5.373898e-01 -1.587302e-02  2.689594e-01
     vertex  4.037038e-01 -2.539683e-01  2.689594e-01
     vertex -5.373898e-01 -2.539683e-01  2.689594e-01
   endloop
 endfacet
 facet normal  3.546542e-01  0.000000e+00  9.349975e-01
   outer loop
     vertex  4.037038e-01 -1.587302e-02  2.689594e-01
     vertex -5.373898e-01  2.539682e-01  6.259259e-01
     vertex -5.373898e-01 -1.587302e-02  6.259259e-01
   endloop
 endfacet
 facet normal  3.546542e-01 -0.000000e+00  9.349975e-01
   outer loop
     vertex  4.037038e-01 -1.587302e-02  2.689594e-01
     vertex  4.037038e-01  2.539682e-01  2.689594e-01
     vertex -5.373898e-01  2.539682e-01  6.259259e-01
   endloop
 endfacet
 facet normal  0.000000e+00 -1.000000e+00  0.000000e+00
   outer loop
     vertex  4.037038e-01 -2.539683e-01  2.689594e-01
     vertex -5.373898e-01 -2.539683e-01  6.259259e-01
     vertex -5.373898e-01 -2.539683e-01  2.689594e-01
   endloop
 endfacet
 facet normal -1.000000e+00  0.000000e+00  0.000000e+00
   outer loop
     vertex -5.373898e-01 -1.587302e-02  6.259259e-01
     vertex -5.373898e-01  2.539682e-01  2.689594e-01
     vertex -5.373898e-01 -1.587302e-02  2.689594e-01
   endloop
 endfacet
 facet normal -1.000000e+00  0.000000e+00  0.000000e+00
   outer loop
     vertex -5.373898e-01 -1.587302e-02  6.259259e-01
     vertex -5.373898e-01  2.539682e-01  6.259259e-01
     vertex -5.373898e-01  2.539682e-01  2.689594e-01
   endloop
 endfacet
 facet normal  0.000000e+00  0.000000e+00 -1.000000e+00
   outer loop
     vertex -5.373898e-01 -1.587302e-02  2.689594e-01
     vertex  4.037038e-01  2.539682e-01  2.689594e-01
     vertex  4.037038e-01 -1.587302e-02  2.689594e-01
   endloop
 endfacet
 facet normal  0.000000e+00  0.000000e+00 -1.000000e+00
   outer loop
     vertex -5.373898e-01 -1.587302e-02  2.689594e-01
     vertex -5.373898e-01  2.539682e-01  2.689594e-01
     vertex  4.037038e-01  2.539682e-01  2.689594e-01
   endloop
 endfacet
 facet normal  0.000000e+00  1.000000e+00  0.000000e+00
   outer loop
     vertex  4.037038e-01  2.539682e-01  2.689594e-01
     vertex -5.373898e-01  2.539682e-01  2.689594e-01
     vertex -5.373898e-01  2.539682e-01  6.259259e-01
   endloop
 endfacet
endsolid
