solid 
 facet normal  0.000000e+00 -1.000000e+00  0.000000e+00
   outer loop
     vertex  6.305115e-01 -1.026984e+00 -1.587302e-02
     vertex  4.358025e-01 -1.026984e+00  3.492064e-01
     vertex  4.358025e-01 -1.026984e+00 -1.587302e-02
   endloop
 endfacet
 facet normal  0.000000e+00 -1.000000e+00  0.000000e+00
   outer loop
     vertex  6.305115e-01 -1.026984e+00 -1.587302e-02
     vertex  6.305115e-01 -1.026984e+00  3.492064e-01
     vertex  4.358025e-01 -1.026984e+00  3.492064e-01
   endloop
 endfacet
 facet normal -1.000000e+00  0.000000e+00  0.000000e+00
   outer loop
     vertex  4.358025e-01 -1.026984e+00 -1.587302e-02
     vertex  4.358025e-01 -2.098763e-02  3.492064e-01
     vertex  4.358025e-01 -2.098763e-02 -1.587302e-02
   endloop
 endfacet
 facet normal -1.000000e+00  0.000000e+00  0.000000e+00
   outer loop
     vertex  4.358025e-01 -1.026984e+00 -1.587302e-02
     vertex  4.358025e-01 -1.026984e+00  3.492064e-01
     vertex  4.358025e-01 -2.098763e-02  3.492064e-01
   endloop
 endfacet
 facet normal  1.000000e+00  0.000000e+00  0.000000e+00
   outer loop
     vertex  6.305115e-01 -2.098763e-02 -1.587302e-02
     vertex  6.305115e-01 -1.026984e+00  3.492064e-01
     vertex  6.305115e-01 -1.026984e+00 -1.587302e-02
   endloop
 endfacet
 facet normal  1.000000e+00  0.000000e+00 -0.000000e+00
   outer loop
     vertex  6.305115e-01 -2.098763e-02 -1.587302e-02
     vertex  6.305115e-01 -2.098763e-02  3.492064e-01
     vertex  6.305115e-01 -1.026984e+00  3.492064e-01
   endloop
 endfacet
 facet normal -0.000000e+00 -1.000000e+00  0.000000e+00
   outer loop
     vertex  6.305115e-01 -1.026984e+00 -1.587302e-02
     vertex  4.358025e-01 -1.026984e+00 -1.587302e-02
     vertex  4.358025e-01 -1.026984e+00 -3.174603e-02
   endloop
 endfacet
 facet normal  0.000000e+00 -1.000000e+00 -0.000000e+00
   outer loop
     vertex  6.305115e-01 -1.026984e+00 -1.587302e-02
     vertex  4.358025e-01 -1.026984e+00 -3.174603e-02
     vertex  6.305115e-01 -1.026984e+00 -3.174603e-02
   endloop
 endfacet
 facet normal  0.000000e+00  0.000000e+00  1.000000e+00
   outer loop
     vertex  6.305115e-01 -2.098763e-02  3.492064e-01
     vertex  4.358025e-01 -1.026984e+00  3.492064e-01
     vertex  6.305115e-01 -1.026984e+00  3.492064e-01
   endloop
 endfacet
 facet normal  0.000000e+00  0.000000e+00  1.000000e+00
   outer loop
     vertex  6.305115e-01 -2.098763e-02  3.492064e-01
     vertex  4.358025e-01 -2.098763e-02  3.492064e-01
     vertex  4.358025e-01 -1.026984e+00  3.492064e-01
   endloop
 endfacet
 facet normal  0.000000e+00  1.000000e+00  0.000000e+00
   outer loop
     vertex  4.358025e-01 -2.098763e-02 -1.587302e-02
     vertex  6.305115e-01 -2.098763e-02  3.492064e-01
     vertex  6.305115e-01 -2.098763e-02 -1.587302e-02
   endloop
 endfacet
 facet normal  0.000000e+00  1.000000e+00  0.000000e+00
   outer loop
     vertex  4.358025e-01 -2.098763e-02 -1.587302e-02
     vertex  4.358025e-01 -2.098763e-02  3.492064e-01
     vertex  6.305115e-01 -2.098763e-02  3.492064e-01
   endloop
 endfacet
 facet normal -1.000000e+00  0.000000e+00  0.000000e+00
   outer loop
     vertex  4.358025e-01 -1.026984e+00 -1.587302e-02
     vertex  4.358025e-01 -2.098763e-02 -1.587302e-02
     vertex  4.358025e-01 -2.098763e-02 -3.174603e-02
   endloop
 endfacet
 facet normal -1.000000e+00  0.000000e+00  0.000000e+00
   outer loop
     vertex  4.358025e-01 -1.026984e+00 -1.587302e-02
     vertex  4.358025e-01 -2.098763e-02 -3.174603e-02
     vertex  4.358025e-01 -1.026984e+00 -3.174603e-02
   endloop
 endfacet
 facet normal  1.000000e+00  0.000000e+00  0.000000e+00
   outer loop
     vertex  6.305115e-01 -2.098763e-02 -1.587302e-02
     vertex  6.305115e-01 -1.026984e+00 -1.587302e-02
     vertex  6.305115e-01 -1.026984e+00 -3.174603e-02
   endloop
 endfacet
 facet normal  1.000000e+00  0.000000e+00  0.000000e+00
   outer loop
     vertex  6.305115e-01 -2.098763e-02 -1.587302e-02
     vertex  6.305115e-01 -1.026984e+00 -3.174603e-02
     vertex  6.305115e-01 -2.098763e-02 -3.174603e-02
   endloop
 endfacet
 facet normal  0.000000e+00 -0.000000e+00 -1.000000e+00
   outer loop
     vertex  6.305115e-01 -2.098763e-02 -3.174603e-02
     vertex  6.305115e-01 -1.026984e+00 -3.174603e-02
     vertex  4.358025e-01 -1.026984e+00 -3.174603e-02
   endloop
 endfacet
 facet normal -0.000000e+00  0.000000e+00 -1.000000e+00
   outer loop
     vertex  6.305115e-01 -2.098763e-02 -3.174603e-02
     vertex  4.358025e-01 -1.026984e+00 -3.174603e-02
     vertex  4.358025e-01 -2.098763e-02 -3.174603e-02
   endloop
 endfacet
 facet normal -0.000000e+00  1.000000e+00  0.000000e+00
   outer loop
     vertex  4.358025e-01 -2.098763e-02 -1.587302e-02
     vertex  6.305115e-01 -2.098763e-02 -1.587302e-02
     vertex  6.305115e-01 -2.098763e-02 -3.174603e-02
   endloop
 endfacet
 facet normal  0.000000e+00  1.000000e+00  0.000000e+00
   outer loop
     vertex  4.358025e-01 -2.098763e-02 -1.587302e-02
     vertex  6.305115e-01 -2.098763e-02 -3.174603e-02
     vertex  4.358025e-01 -2.098763e-02 -3.174603e-02
   endloop
 endfacet
endsolid
