solid 
 facet normal  0.000000e+00 -0.000000e+00 -1.000000e+00
   outer loop
     vertex -3.174603e-02  1.169313e-01 -7.777789e-02
     vertex -3.174603e-02 -5.349206e-01 -7.777789e-02
     vertex -1.015873e+00 -5.349206e-01 -7.777789e-02
   endloop
 endfacet
 facet normal -0.000000e+00  0.000000e+00 -1.000000e+00
   outer loop
     vertex -3.174603e-02  1.169313e-01 -7.777789e-02
     vertex -1.015873e+00 -5.349206e-01 -7.777789e-02
     vertex -1.015873e+00  1.169313e-01 -7.777789e-02
   endloop
 endfacet
 facet normal  1.000000e+00  0.000000e+00  0.000000e+00
   outer loop
     vertex -3.174603e-02 -5.253968e-01  2.873016e-01
     vertex -3.174603e-02 -5.332491e-01  2.811149e-01
     vertex -3.174603e-02 -5.349206e-01  2.481481e-01
   endloop
 endfacet
 facet normal  1.000000e+00  0.000000e+00  0.000000e+00
   outer loop
     vertex -3.174603e-02 -5.253968e-01  2.873016e-01
     vertex -3.174603e-02 -5.349206e-01  2.481481e-01
     vertex -3.174603e-02 -5.253968e-01  1.222222e-01
   endloop
 endfacet
 facet normal  1.000000e+00  0.000000e+00  0.000000e+00
   outer loop
     vertex -3.174603e-02 -5.247933e-01  3.068667e-01
     vertex -3.174603e-02 -5.332491e-01  2.811149e-01
     vertex -3.174603e-02 -5.253968e-01  2.873016e-01
   endloop
 endfacet
 facet normal  1.000000e+00  0.000000e+00  0.000000e+00
   outer loop
     vertex -3.174603e-02 -5.282515e-01  3.137437e-01
     vertex -3.174603e-02 -5.332491e-01  2.811149e-01
     vertex -3.174603e-02 -5.247933e-01  3.068667e-01
   endloop
 endfacet
 facet normal  1.000000e+00  0.000000e+00  0.000000e+00
   outer loop
     vertex -3.174603e-02 -5.229852e-01  3.263574e-01
     vertex -3.174603e-02 -5.282515e-01  3.137437e-01
     vertex -3.174603e-02 -5.247933e-01  3.068667e-01
   endloop
 endfacet
 facet normal  1.000000e+00  0.000000e+00  0.000000e+00
   outer loop
     vertex -3.174603e-02 -5.199793e-01  3.456996e-01
     vertex -3.174603e-02 -5.282515e-01  3.137437e-01
     vertex -3.174603e-02 -5.229852e-01  3.263574e-01
   endloop
 endfacet
 facet normal  1.000000e+00  0.000000e+00  0.000000e+00
   outer loop
     vertex -3.174603e-02  1.169313e-01 -7.777789e-02
     vertex -3.174603e-02 -5.253968e-01  1.222222e-01
     vertex -3.174603e-02 -5.349206e-01 -7.777789e-02
   endloop
 endfacet
 facet normal  1.000000e+00  0.000000e+00  0.000000e+00
   outer loop
     vertex -3.174603e-02  1.095239e-01  1.222222e-01
     vertex -3.174603e-02 -5.253968e-01  1.222222e-01
     vertex -3.174603e-02  1.169313e-01 -7.777789e-02
   endloop
 endfacet
 facet normal  1.000000e+00  0.000000e+00  0.000000e+00
   outer loop
     vertex -3.174603e-02  1.095239e-01  2.873016e-01
     vertex -3.174603e-02  1.169313e-01  2.481481e-01
     vertex -3.174603e-02  1.158009e-01  2.752687e-01
   endloop
 endfacet
 facet normal  1.000000e+00  0.000000e+00  0.000000e+00
   outer loop
     vertex -3.174603e-02  1.124178e-01  3.022013e-01
     vertex -3.174603e-02  1.092214e-01  3.011559e-01
     vertex -3.174603e-02  1.095239e-01  2.873016e-01
   endloop
 endfacet
 facet normal  1.000000e+00  0.000000e+00  0.000000e+00
   outer loop
     vertex -3.174603e-02  1.124178e-01  3.022013e-01
     vertex -3.174603e-02  1.095239e-01  2.873016e-01
     vertex -3.174603e-02  1.158009e-01  2.752687e-01
   endloop
 endfacet
 facet normal  1.000000e+00  0.000000e+00  0.000000e+00
   outer loop
     vertex -3.174603e-02  1.083146e-01  3.149838e-01
     vertex -3.174603e-02  1.092214e-01  3.011559e-01
     vertex -3.174603e-02  1.124178e-01  3.022013e-01
   endloop
 endfacet
 facet normal  1.000000e+00  0.000000e+00  0.000000e+00
   outer loop
     vertex -3.174603e-02  1.068052e-01  3.287590e-01
     vertex -3.174603e-02  1.083146e-01  3.149838e-01
     vertex -3.174603e-02  1.124178e-01  3.022013e-01
   endloop
 endfacet
 facet normal  1.000000e+00  0.000000e+00  0.000000e+00
   outer loop
     vertex -3.174603e-02 -5.349206e-01  2.481481e-01
     vertex -3.174603e-02 -5.349206e-01 -7.777789e-02
     vertex -3.174603e-02 -5.253968e-01  1.222222e-01
   endloop
 endfacet
 facet normal  1.000000e+00  0.000000e+00 -0.000000e+00
   outer loop
     vertex -3.174603e-02  1.169313e-01 -7.777789e-02
     vertex -3.174603e-02  1.169313e-01  2.481481e-01
     vertex -3.174603e-02  1.095239e-01  1.222222e-01
   endloop
 endfacet
 facet normal  1.000000e+00  0.000000e+00  0.000000e+00
   outer loop
     vertex -3.174603e-02  1.095239e-01  2.873016e-01
     vertex -3.174603e-02  1.095239e-01  1.222222e-01
     vertex -3.174603e-02  1.169313e-01  2.481481e-01
   endloop
 endfacet
 facet normal  0.000000e+00  1.000000e+00 -4.257957e-17
   outer loop
     vertex -3.174603e-02  1.169313e-01  2.481481e-01
     vertex -3.174603e-02  1.169313e-01 -7.777789e-02
     vertex -1.015873e+00  1.169313e-01 -7.777789e-02
   endloop
 endfacet
 facet normal  0.000000e+00  1.000000e+00 -4.257957e-17
   outer loop
     vertex -3.174603e-02  1.169313e-01  2.481481e-01
     vertex -1.015873e+00  1.169313e-01 -7.777789e-02
     vertex -1.015873e+00  1.169313e-01  2.481481e-01
   endloop
 endfacet
 facet normal -1.000000e+00  0.000000e+00  0.000000e+00
   outer loop
     vertex -1.015873e+00 -5.273007e-01  3.182125e-01
     vertex -1.015873e+00 -5.349206e-01  2.481481e-01
     vertex -1.015873e+00 -5.330100e-01  2.833868e-01
   endloop
 endfacet
 facet normal -1.000000e+00  0.000000e+00  0.000000e+00
   outer loop
     vertex -1.015873e+00  1.169313e-01  2.481481e-01
     vertex -1.015873e+00  1.169313e-01 -7.777789e-02
     vertex -1.015873e+00 -5.349206e-01 -7.777789e-02
   endloop
 endfacet
 facet normal -1.000000e+00 -0.000000e+00  0.000000e+00
   outer loop
     vertex -1.015873e+00  1.169313e-01  2.481481e-01
     vertex -1.015873e+00 -5.349206e-01 -7.777789e-02
     vertex -1.015873e+00 -5.349206e-01  2.481481e-01
   endloop
 endfacet
 facet normal -1.000000e+00  0.000000e+00  0.000000e+00
   outer loop
     vertex -1.015873e+00 -8.835706e-02  5.509256e-01
     vertex -1.015873e+00 -1.562657e-01  5.697804e-01
     vertex -1.015873e+00 -1.218003e-01  5.621940e-01
   endloop
 endfacet
 facet normal -1.000000e+00  0.000000e+00  0.000000e+00
   outer loop
     vertex -1.015873e+00  5.047269e-02  4.453900e-01
     vertex -1.015873e+00  7.027729e-02  4.161804e-01
     vertex -1.015873e+00  8.680768e-02  3.850008e-01
   endloop
 endfacet
 facet normal -1.000000e+00  0.000000e+00  0.000000e+00
   outer loop
     vertex -1.015873e+00  2.762607e-02  4.722871e-01
     vertex -1.015873e+00  1.150207e-01  2.833868e-01
     vertex -1.015873e+00  1.169313e-01  2.481481e-01
   endloop
 endfacet
 facet normal -1.000000e+00  0.000000e+00  0.000000e+00
   outer loop
     vertex -1.015873e+00  2.762607e-02  4.722871e-01
     vertex -1.015873e+00  1.093113e-01  3.182125e-01
     vertex -1.015873e+00  1.150207e-01  2.833868e-01
   endloop
 endfacet
 facet normal -1.000000e+00  0.000000e+00  0.000000e+00
   outer loop
     vertex -1.015873e+00  2.762607e-02  4.722871e-01
     vertex -1.015873e+00  9.987006e-02  3.522167e-01
     vertex -1.015873e+00  1.093113e-01  3.182125e-01
   endloop
 endfacet
 facet normal -1.000000e+00  0.000000e+00  0.000000e+00
   outer loop
     vertex -1.015873e+00  2.762607e-02  4.722871e-01
     vertex -1.015873e+00  8.680768e-02  3.850008e-01
     vertex -1.015873e+00  9.987006e-02  3.522167e-01
   endloop
 endfacet
 facet normal -1.000000e+00  0.000000e+00  0.000000e+00
   outer loop
     vertex -1.015873e+00  2.762607e-02  4.722871e-01
     vertex -1.015873e+00 -2.608927e-02  5.179134e-01
     vertex -1.015873e+00  2.005291e-03  4.965564e-01
   endloop
 endfacet
 facet normal -1.000000e+00  0.000000e+00  0.000000e+00
   outer loop
     vertex -1.015873e+00  2.762607e-02  4.722871e-01
     vertex -1.015873e+00 -5.632823e-02  5.361075e-01
     vertex -1.015873e+00 -2.608927e-02  5.179134e-01
   endloop
 endfacet
 facet normal -1.000000e+00  0.000000e+00  0.000000e+00
   outer loop
     vertex -1.015873e+00  2.762607e-02  4.722871e-01
     vertex -1.015873e+00 -8.835706e-02  5.509256e-01
     vertex -1.015873e+00 -5.632823e-02  5.361075e-01
   endloop
 endfacet
 facet normal -1.000000e+00  0.000000e+00  0.000000e+00
   outer loop
     vertex -1.015873e+00  2.762607e-02  4.722871e-01
     vertex -1.015873e+00 -1.913494e-01  5.735960e-01
     vertex -1.015873e+00 -1.562657e-01  5.697804e-01
   endloop
 endfacet
 facet normal -1.000000e+00  0.000000e+00  0.000000e+00
   outer loop
     vertex -1.015873e+00  2.762607e-02  4.722871e-01
     vertex -1.015873e+00 -2.266400e-01  5.735960e-01
     vertex -1.015873e+00 -1.913494e-01  5.735960e-01
   endloop
 endfacet
 facet normal -1.000000e+00  0.000000e+00  0.000000e+00
   outer loop
     vertex -1.015873e+00  2.762607e-02  4.722871e-01
     vertex -1.015873e+00 -2.617236e-01  5.697804e-01
     vertex -1.015873e+00 -2.266400e-01  5.735960e-01
   endloop
 endfacet
 facet normal -1.000000e+00  0.000000e+00  0.000000e+00
   outer loop
     vertex -1.015873e+00  2.762607e-02  4.722871e-01
     vertex -1.015873e+00 -2.961891e-01  5.621940e-01
     vertex -1.015873e+00 -2.617236e-01  5.697804e-01
   endloop
 endfacet
 facet normal -1.000000e+00  0.000000e+00  0.000000e+00
   outer loop
     vertex -1.015873e+00  2.762607e-02  4.722871e-01
     vertex -1.015873e+00 -3.296323e-01  5.509256e-01
     vertex -1.015873e+00 -2.961891e-01  5.621940e-01
   endloop
 endfacet
 facet normal -1.000000e+00  0.000000e+00  0.000000e+00
   outer loop
     vertex -1.015873e+00  2.762607e-02  4.722871e-01
     vertex -1.015873e+00 -3.616611e-01  5.361075e-01
     vertex -1.015873e+00 -3.296323e-01  5.509256e-01
   endloop
 endfacet
 facet normal -1.000000e+00  0.000000e+00  0.000000e+00
   outer loop
     vertex -1.015873e+00  2.762607e-02  4.722871e-01
     vertex -1.015873e+00 -3.919001e-01  5.179134e-01
     vertex -1.015873e+00 -3.616611e-01  5.361075e-01
   endloop
 endfacet
 facet normal -1.000000e+00  0.000000e+00  0.000000e+00
   outer loop
     vertex -1.015873e+00  2.762607e-02  4.722871e-01
     vertex -1.015873e+00 -4.199947e-01  4.965564e-01
     vertex -1.015873e+00 -3.919001e-01  5.179134e-01
   endloop
 endfacet
 facet normal -1.000000e+00 -0.000000e+00  0.000000e+00
   outer loop
     vertex -1.015873e+00  2.762607e-02  4.722871e-01
     vertex -1.015873e+00 -4.456154e-01  4.722871e-01
     vertex -1.015873e+00 -4.199947e-01  4.965564e-01
   endloop
 endfacet
 facet normal -1.000000e+00  0.000000e+00  0.000000e+00
   outer loop
     vertex -1.015873e+00  2.762607e-02  4.722871e-01
     vertex -1.015873e+00 -4.684621e-01  4.453900e-01
     vertex -1.015873e+00 -4.456154e-01  4.722871e-01
   endloop
 endfacet
 facet normal -1.000000e+00  0.000000e+00  0.000000e+00
   outer loop
     vertex -1.015873e+00  2.762607e-02  4.722871e-01
     vertex -1.015873e+00 -4.882667e-01  4.161804e-01
     vertex -1.015873e+00 -4.684621e-01  4.453900e-01
   endloop
 endfacet
 facet normal -1.000000e+00  0.000000e+00  0.000000e+00
   outer loop
     vertex -1.015873e+00  2.762607e-02  4.722871e-01
     vertex -1.015873e+00 -5.047971e-01  3.850008e-01
     vertex -1.015873e+00 -4.882667e-01  4.161804e-01
   endloop
 endfacet
 facet normal -1.000000e+00  0.000000e+00  0.000000e+00
   outer loop
     vertex -1.015873e+00  2.762607e-02  4.722871e-01
     vertex -1.015873e+00 -5.178594e-01  3.522167e-01
     vertex -1.015873e+00 -5.047971e-01  3.850008e-01
   endloop
 endfacet
 facet normal -1.000000e+00  0.000000e+00  0.000000e+00
   outer loop
     vertex -1.015873e+00  2.762607e-02  4.722871e-01
     vertex -1.015873e+00 -5.273007e-01  3.182125e-01
     vertex -1.015873e+00 -5.178594e-01  3.522167e-01
   endloop
 endfacet
 facet normal -1.000000e+00  0.000000e+00  0.000000e+00
   outer loop
     vertex -1.015873e+00  2.762607e-02  4.722871e-01
     vertex -1.015873e+00 -5.349206e-01  2.481481e-01
     vertex -1.015873e+00 -5.273007e-01  3.182125e-01
   endloop
 endfacet
 facet normal -1.000000e+00  0.000000e+00  0.000000e+00
   outer loop
     vertex -1.015873e+00  2.762607e-02  4.722871e-01
     vertex -1.015873e+00  5.047269e-02  4.453900e-01
     vertex -1.015873e+00  8.680768e-02  3.850008e-01
   endloop
 endfacet
 facet normal -1.000000e+00  0.000000e+00 -0.000000e+00
   outer loop
     vertex -1.015873e+00  2.762607e-02  4.722871e-01
     vertex -1.015873e+00  1.169313e-01  2.481481e-01
     vertex -1.015873e+00 -5.349206e-01  2.481481e-01
   endloop
 endfacet
 facet normal -1.000000e+00  0.000000e+00  0.000000e+00
   outer loop
     vertex -1.015873e+00  2.762607e-02  4.722871e-01
     vertex -1.015873e+00 -1.562657e-01  5.697804e-01
     vertex -1.015873e+00 -8.835706e-02  5.509256e-01
   endloop
 endfacet
 facet normal  0.000000e+00 -1.000000e+00 -3.406366e-16
   outer loop
     vertex -3.174603e-02 -5.349206e-01 -7.777789e-02
     vertex -3.174603e-02 -5.349206e-01  2.481481e-01
     vertex -1.015873e+00 -5.349206e-01  2.481481e-01
   endloop
 endfacet
 facet normal -0.000000e+00 -1.000000e+00 -3.406366e-16
   outer loop
     vertex -3.174603e-02 -5.349206e-01 -7.777789e-02
     vertex -1.015873e+00 -5.349206e-01  2.481481e-01
     vertex -1.015873e+00 -5.349206e-01 -7.777789e-02
   endloop
 endfacet
 facet normal  0.000000e+00  9.991326e-01  4.164181e-02
   outer loop
     vertex -3.174603e-02  1.158009e-01  2.752687e-01
     vertex -3.174603e-02  1.169313e-01  2.481481e-01
     vertex -1.015873e+00  1.169313e-01  2.481481e-01
   endloop
 endfacet
 facet normal -3.450871e-04  9.985333e-01  5.413899e-02
   outer loop
     vertex -3.174603e-02  1.158009e-01  2.752687e-01
     vertex -1.015873e+00  1.169313e-01  2.481481e-01
     vertex -1.015873e+00  1.150207e-01  2.833868e-01
   endloop
 endfacet
 facet normal -4.828987e-04  9.868264e-01  1.617821e-01
   outer loop
     vertex -3.174603e-02  1.124178e-01  3.022013e-01
     vertex -1.015873e+00  1.150207e-01  2.833868e-01
     vertex -1.015873e+00  1.093113e-01  3.182125e-01
   endloop
 endfacet
 facet normal  2.414683e-04  9.922025e-01  1.246364e-01
   outer loop
     vertex -3.174603e-02  1.124178e-01  3.022013e-01
     vertex -3.174603e-02  1.158009e-01  2.752687e-01
     vertex -1.015873e+00  1.150207e-01  2.833868e-01
   endloop
 endfacet
 facet normal -4.133485e-04  9.635499e-01  2.675284e-01
   outer loop
     vertex -3.174603e-02  1.068052e-01  3.287590e-01
     vertex -1.015873e+00  1.093113e-01  3.182125e-01
     vertex -1.015873e+00  9.987006e-02  3.522167e-01
   endloop
 endfacet
 facet normal  2.756017e-04  9.783903e-01  2.067665e-01
   outer loop
     vertex -3.174603e-02  1.068052e-01  3.287590e-01
     vertex -3.174603e-02  1.124178e-01  3.022013e-01
     vertex -1.015873e+00  1.093113e-01  3.182125e-01
   endloop
 endfacet
 facet normal -4.097768e-04  9.289766e-01  3.701382e-01
   outer loop
     vertex -3.174603e-02  9.629665e-02  3.622748e-01
     vertex -1.015873e+00  9.987006e-02  3.522167e-01
     vertex -1.015873e+00  8.680768e-02  3.850008e-01
   endloop
 endfacet
 facet normal  4.070143e-04  9.541966e-01  2.991800e-01
   outer loop
     vertex -3.174603e-02  9.629665e-02  3.622748e-01
     vertex -3.174603e-02  1.068052e-01  3.287590e-01
     vertex -1.015873e+00  9.987006e-02  3.522167e-01
   endloop
 endfacet
 facet normal -4.061189e-04  8.835119e-01  4.684085e-01
   outer loop
     vertex -3.174603e-02  8.224237e-02  3.944651e-01
     vertex -1.015873e+00  8.680768e-02  3.850008e-01
     vertex -1.015873e+00  7.027729e-02  4.161804e-01
   endloop
 endfacet
 facet normal  4.033995e-04  9.164601e-01  4.001259e-01
   outer loop
     vertex -3.174603e-02  8.224237e-02  3.944651e-01
     vertex -3.174603e-02  9.629665e-02  3.622748e-01
     vertex -1.015873e+00  8.680768e-02  3.850008e-01
   endloop
 endfacet
 facet normal -4.023751e-04  8.276889e-01  5.611871e-01
   outer loop
     vertex -3.174603e-02  6.480562e-02  4.249561e-01
     vertex -1.015873e+00  7.027729e-02  4.161804e-01
     vertex -1.015873e+00  5.047269e-02  4.453900e-01
   endloop
 endfacet
 facet normal  3.996987e-04  8.680797e-01  4.964246e-01
   outer loop
     vertex -3.174603e-02  6.480562e-02  4.249561e-01
     vertex -3.174603e-02  8.224237e-02  3.944651e-01
     vertex -1.015873e+00  7.027729e-02  4.161804e-01
   endloop
 endfacet
 facet normal -3.985452e-04  7.621620e-01  6.473863e-01
   outer loop
     vertex -3.174603e-02  4.418893e-02  4.533937e-01
     vertex -1.015873e+00  5.047269e-02  4.453900e-01
     vertex -1.015873e+00  2.762607e-02  4.722871e-01
   endloop
 endfacet
 facet normal  3.959118e-04  8.096174e-01  5.869579e-01
   outer loop
     vertex -3.174603e-02  4.418893e-02  4.533937e-01
     vertex -3.174603e-02  6.480562e-02  4.249561e-01
     vertex -1.015873e+00  5.047269e-02  4.453900e-01
   endloop
 endfacet
 facet normal -3.946293e-04  6.876994e-01  7.259955e-01
   outer loop
     vertex -3.174603e-02  2.063173e-02  4.794475e-01
     vertex -1.015873e+00  2.762607e-02  4.722871e-01
     vertex -1.015873e+00  2.005291e-03  4.965564e-01
   endloop
 endfacet
 facet normal  3.920390e-04  7.417520e-01  6.706741e-01
   outer loop
     vertex -3.174603e-02  2.063173e-02  4.794475e-01
     vertex -3.174603e-02  4.418893e-02  4.533937e-01
     vertex -1.015873e+00  2.762607e-02  4.722871e-01
   endloop
 endfacet
 facet normal -3.906274e-04  6.051741e-01  7.960930e-01
   outer loop
     vertex -3.174603e-02 -5.592374e-03  5.028149e-01
     vertex -1.015873e+00  2.005291e-03  4.965564e-01
     vertex -1.015873e+00 -2.608927e-02  5.179134e-01
   endloop
 endfacet
 facet normal  3.880800e-04  6.652719e-01  7.466011e-01
   outer loop
     vertex -3.174603e-02 -5.592374e-03  5.028149e-01
     vertex -3.174603e-02  2.063173e-02  4.794475e-01
     vertex -1.015873e+00  2.005291e-03  4.965564e-01
   endloop
 endfacet
 facet normal  3.840351e-04  5.810652e-01  8.138569e-01
   outer loop
     vertex -3.174603e-02 -3.417882e-02  5.232246e-01
     vertex -3.174603e-02 -5.592374e-03  5.028149e-01
     vertex -1.015873e+00 -2.608927e-02  5.179134e-01
   endloop
 endfacet
 facet normal -3.865394e-04  5.155538e-01  8.568571e-01
   outer loop
     vertex -3.174603e-02 -3.417882e-02  5.232246e-01
     vertex -1.015873e+00 -2.608927e-02  5.179134e-01
     vertex -1.015873e+00 -5.632823e-02  5.361075e-01
   endloop
 endfacet
 facet normal  3.799041e-04  4.901099e-01  8.716605e-01
   outer loop
     vertex -3.174603e-02 -6.479559e-02  5.404396e-01
     vertex -3.174603e-02 -3.417882e-02  5.232246e-01
     vertex -1.015873e+00 -5.632823e-02  5.361075e-01
   endloop
 endfacet
 facet normal -3.823654e-04  4.198890e-01  9.075754e-01
   outer loop
     vertex -3.174603e-02 -6.479559e-02  5.404396e-01
     vertex -1.015873e+00 -5.632823e-02  5.361075e-01
     vertex -1.015873e+00 -8.835706e-02  5.509256e-01
   endloop
 endfacet
 facet normal  3.756871e-04  3.934625e-01  9.193406e-01
   outer loop
     vertex -3.174603e-02 -9.708712e-02  5.542598e-01
     vertex -3.174603e-02 -6.479559e-02  5.404396e-01
     vertex -1.015873e+00 -8.835706e-02  5.509256e-01
   endloop
 endfacet
 facet normal -3.781054e-04  3.193015e-01  9.476531e-01
   outer loop
     vertex -3.174603e-02 -9.708712e-02  5.542598e-01
     vertex -1.015873e+00 -8.835706e-02  5.509256e-01
     vertex -1.015873e+00 -1.218003e-01  5.621940e-01
   endloop
 endfacet
 facet normal  3.713841e-04  2.922453e-01  9.563433e-01
   outer loop
     vertex -3.174603e-02 -1.306783e-01  5.645248e-01
     vertex -3.174603e-02 -9.708712e-02  5.542598e-01
     vertex -1.015873e+00 -1.218003e-01  5.621940e-01
   endloop
 endfacet
 facet normal -3.737593e-04  2.149704e-01  9.766205e-01
   outer loop
     vertex -3.174603e-02 -1.306783e-01  5.645248e-01
     vertex -1.015873e+00 -1.218003e-01  5.621940e-01
     vertex -1.015873e+00 -1.562657e-01  5.697804e-01
   endloop
 endfacet
 facet normal -3.693273e-04  1.081190e-01  9.941379e-01
   outer loop
     vertex -3.174603e-02 -1.651791e-01  5.711154e-01
     vertex -1.015873e+00 -1.562657e-01  5.697804e-01
     vertex -1.015873e+00 -1.913494e-01  5.735960e-01
   endloop
 endfacet
 facet normal  3.669950e-04  1.876340e-01  9.822389e-01
   outer loop
     vertex -3.174603e-02 -1.651791e-01  5.711154e-01
     vertex -3.174603e-02 -1.306783e-01  5.645248e-01
     vertex -1.015873e+00 -1.562657e-01  5.697804e-01
   endloop
 endfacet
 facet normal -3.648092e-04 -3.145182e-15  9.999999e-01
   outer loop
     vertex -3.174603e-02 -2.001888e-01  5.739550e-01
     vertex -1.015873e+00 -1.913494e-01  5.735960e-01
     vertex -1.015873e+00 -2.266400e-01  5.735960e-01
   endloop
 endfacet
 facet normal  3.625199e-04  8.084344e-02  9.967267e-01
   outer loop
     vertex -3.174603e-02 -2.001888e-01  5.739550e-01
     vertex -3.174603e-02 -1.651791e-01  5.711154e-01
     vertex -1.015873e+00 -1.913494e-01  5.735960e-01
   endloop
 endfacet
 facet normal -3.602051e-04 -1.081190e-01  9.941379e-01
   outer loop
     vertex -3.174603e-02 -2.353008e-01  5.730106e-01
     vertex -1.015873e+00 -2.266400e-01  5.735960e-01
     vertex -1.015873e+00 -2.617236e-01  5.697804e-01
   endloop
 endfacet
 facet normal  3.579588e-04 -2.688602e-02  9.996384e-01
   outer loop
     vertex -3.174603e-02 -2.353008e-01  5.730106e-01
     vertex -3.174603e-02 -2.001888e-01  5.739550e-01
     vertex -1.015873e+00 -2.266400e-01  5.735960e-01
   endloop
 endfacet
 facet normal -3.555149e-04 -2.149704e-01  9.766205e-01
   outer loop
     vertex -3.174603e-02 -2.701072e-01  5.682933e-01
     vertex -1.015873e+00 -2.617236e-01  5.697804e-01
     vertex -1.015873e+00 -2.961891e-01  5.621940e-01
   endloop
 endfacet
 facet normal  3.533117e-04 -1.343032e-01  9.909402e-01
   outer loop
     vertex -3.174603e-02 -2.701072e-01  5.682933e-01
     vertex -3.174603e-02 -2.353008e-01  5.730106e-01
     vertex -1.015873e+00 -2.617236e-01  5.697804e-01
   endloop
 endfacet
 facet normal -3.507388e-04 -3.193015e-01  9.476531e-01
   outer loop
     vertex -3.174603e-02 -3.042039e-01  5.598577e-01
     vertex -1.015873e+00 -2.961891e-01  5.621940e-01
     vertex -1.015873e+00 -3.296323e-01  5.509256e-01
   endloop
 endfacet
 facet normal  3.485785e-04 -2.401606e-01  9.707331e-01
   outer loop
     vertex -3.174603e-02 -3.042039e-01  5.598577e-01
     vertex -3.174603e-02 -2.701072e-01  5.682933e-01
     vertex -1.015873e+00 -2.961891e-01  5.621940e-01
   endloop
 endfacet
 facet normal -3.458766e-04 -4.198891e-01  9.075754e-01
   outer loop
     vertex -3.174603e-02 -3.371948e-01  5.478019e-01
     vertex -1.015873e+00 -3.296323e-01  5.509256e-01
     vertex -1.015873e+00 -3.616611e-01  5.361075e-01
   endloop
 endfacet
 facet normal  3.437594e-04 -3.432288e-01  9.392518e-01
   outer loop
     vertex -3.174603e-02 -3.371948e-01  5.478019e-01
     vertex -3.174603e-02 -3.042039e-01  5.598577e-01
     vertex -1.015873e+00 -3.296323e-01  5.509256e-01
   endloop
 endfacet
 facet normal -3.409284e-04 -5.155538e-01  8.568571e-01
   outer loop
     vertex -3.174603e-02 -3.686967e-01  5.322659e-01
     vertex -1.015873e+00 -3.616611e-01  5.361075e-01
     vertex -1.015873e+00 -3.919001e-01  5.179134e-01
   endloop
 endfacet
 facet normal  3.388542e-04 -4.423106e-01  8.968619e-01
   outer loop
     vertex -3.174603e-02 -3.686967e-01  5.322659e-01
     vertex -3.174603e-02 -3.371948e-01  5.478019e-01
     vertex -1.015873e+00 -3.616611e-01  5.361075e-01
   endloop
 endfacet
 facet normal -3.358942e-04 -6.051742e-01  7.960930e-01
   outer loop
     vertex -3.174603e-02 -3.983439e-01  5.134301e-01
     vertex -1.015873e+00 -3.919001e-01  5.179134e-01
     vertex -1.015873e+00 -4.199947e-01  4.965564e-01
   endloop
 endfacet
 facet normal  3.338630e-04 -5.362554e-01  8.440557e-01
   outer loop
     vertex -3.174603e-02 -3.983439e-01  5.134301e-01
     vertex -3.174603e-02 -3.686967e-01  5.322659e-01
     vertex -1.015873e+00 -3.919001e-01  5.179134e-01
   endloop
 endfacet
 facet normal -3.307740e-04 -6.876994e-01  7.259955e-01
   outer loop
     vertex -3.174603e-02 -4.257919e-01  4.915133e-01
     vertex -1.015873e+00 -4.199947e-01  4.965564e-01
     vertex -1.015873e+00 -4.456154e-01  4.722871e-01
   endloop
 endfacet
 facet normal  3.287858e-04 -6.239721e-01  7.814466e-01
   outer loop
     vertex -3.174603e-02 -4.257919e-01  4.915133e-01
     vertex -3.174603e-02 -3.983439e-01  5.134301e-01
     vertex -1.015873e+00 -4.199947e-01  4.965564e-01
   endloop
 endfacet
 facet normal -3.255677e-04 -7.621620e-01  6.473863e-01
   outer loop
     vertex -3.174603e-02 -4.507221e-01  4.667700e-01
     vertex -1.015873e+00 -4.456154e-01  4.722871e-01
     vertex -1.015873e+00 -4.684621e-01  4.453900e-01
   endloop
 endfacet
 facet normal  3.236226e-04 -7.044419e-01  7.097616e-01
   outer loop
     vertex -3.174603e-02 -4.507221e-01  4.667700e-01
     vertex -3.174603e-02 -4.257919e-01  4.915133e-01
     vertex -1.015873e+00 -4.456154e-01  4.722871e-01
   endloop
 endfacet
 facet normal -3.202755e-04 -8.276889e-01  5.611871e-01
   outer loop
     vertex -3.174603e-02 -4.728448e-01  4.394877e-01
     vertex -1.015873e+00 -4.684621e-01  4.453900e-01
     vertex -1.015873e+00 -4.882667e-01  4.161804e-01
   endloop
 endfacet
 facet normal  3.183733e-04 -7.767302e-01  6.298334e-01
   outer loop
     vertex -3.174603e-02 -4.728448e-01  4.394877e-01
     vertex -3.174603e-02 -4.507221e-01  4.667700e-01
     vertex -1.015873e+00 -4.684621e-01  4.453900e-01
   endloop
 endfacet
 facet normal -3.148972e-04 -8.835120e-01  4.684085e-01
   outer loop
     vertex -3.174603e-02 -4.919031e-01  4.099831e-01
     vertex -1.015873e+00 -4.882667e-01  4.161804e-01
     vertex -1.015873e+00 -5.047971e-01  3.850008e-01
   endloop
 endfacet
 facet normal  3.130381e-04 -8.399974e-01  5.425903e-01
   outer loop
     vertex -3.174603e-02 -4.919031e-01  4.099831e-01
     vertex -3.174603e-02 -4.728448e-01  4.394877e-01
     vertex -1.015873e+00 -4.882667e-01  4.161804e-01
   endloop
 endfacet
 facet normal -3.094330e-04 -9.289766e-01  3.701382e-01
   outer loop
     vertex -3.174603e-02 -5.076756e-01  3.785989e-01
     vertex -1.015873e+00 -5.047971e-01  3.850008e-01
     vertex -1.015873e+00 -5.178594e-01  3.522167e-01
   endloop
 endfacet
 facet normal  3.076168e-04 -8.935089e-01  4.490454e-01
   outer loop
     vertex -3.174603e-02 -5.076756e-01  3.785989e-01
     vertex -3.174603e-02 -4.919031e-01  4.099831e-01
     vertex -1.015873e+00 -5.047971e-01  3.850008e-01
   endloop
 endfacet
 facet normal -3.038827e-04 -9.635499e-01  2.675284e-01
   outer loop
     vertex -3.174603e-02 -5.199793e-01  3.456996e-01
     vertex -1.015873e+00 -5.178594e-01  3.522167e-01
     vertex -1.015873e+00 -5.273007e-01  3.182125e-01
   endloop
 endfacet
 facet normal  3.021095e-04 -9.366430e-01  3.502853e-01
   outer loop
     vertex -3.174603e-02 -5.199793e-01  3.456996e-01
     vertex -3.174603e-02 -5.076756e-01  3.785989e-01
     vertex -1.015873e+00 -5.178594e-01  3.522167e-01
   endloop
 endfacet
 facet normal -2.188437e-04 -9.868265e-01  1.617821e-01
   outer loop
     vertex -3.174603e-02 -5.282515e-01  3.137437e-01
     vertex -1.015873e+00 -5.273007e-01  3.182125e-01
     vertex -1.015873e+00 -5.330100e-01  2.833868e-01
   endloop
 endfacet
 facet normal  2.025905e-04 -9.680896e-01  2.506042e-01
   outer loop
     vertex -3.174603e-02 -5.282515e-01  3.137437e-01
     vertex -3.174603e-02 -5.199793e-01  3.456996e-01
     vertex -1.015873e+00 -5.273007e-01  3.182125e-01
   endloop
 endfacet
 facet normal -1.175478e-04 -9.985334e-01  5.413900e-02
   outer loop
     vertex -3.174603e-02 -5.332491e-01  2.811149e-01
     vertex -1.015873e+00 -5.330100e-01  2.833868e-01
     vertex -1.015873e+00 -5.349206e-01  2.481481e-01
   endloop
 endfacet
 facet normal  1.094225e-04 -9.884728e-01  1.513982e-01
   outer loop
     vertex -3.174603e-02 -5.332491e-01  2.811149e-01
     vertex -3.174603e-02 -5.282515e-01  3.137437e-01
     vertex -1.015873e+00 -5.330100e-01  2.833868e-01
   endloop
 endfacet
 facet normal  0.000000e+00 -9.987170e-01  5.063927e-02
   outer loop
     vertex -3.174603e-02 -5.349206e-01  2.481481e-01
     vertex -3.174603e-02 -5.332491e-01  2.811149e-01
     vertex -1.015873e+00 -5.349206e-01  2.481481e-01
   endloop
 endfacet
 facet normal  0.000000e+00  9.997618e-01  2.182578e-02
   outer loop
     vertex -1.587302e-02  1.095239e-01  2.873016e-01
     vertex -3.174603e-02  1.095239e-01  2.873016e-01
     vertex -3.174603e-02  1.092214e-01  3.011559e-01
   endloop
 endfacet
 facet normal  1.705446e-02  9.977117e-01  6.542614e-02
   outer loop
     vertex -1.587302e-02  1.075277e-01  3.228459e-01
     vertex -3.174603e-02  1.092214e-01  3.011559e-01
     vertex -3.174603e-02  1.083146e-01  3.149838e-01
   endloop
 endfacet
 facet normal -4.670359e-03  9.940396e-01  1.089197e-01
   outer loop
     vertex -1.587302e-02  1.075277e-01  3.228459e-01
     vertex -3.174603e-02  1.083146e-01  3.149838e-01
     vertex -3.174603e-02  1.068052e-01  3.287590e-01
   endloop
 endfacet
 facet normal  2.990158e-02  9.979804e-01  5.604542e-02
   outer loop
     vertex -1.587302e-02  1.075277e-01  3.228459e-01
     vertex -1.587302e-02  1.095239e-01  2.873016e-01
     vertex -3.174603e-02  1.092214e-01  3.011559e-01
   endloop
 endfacet
 facet normal -1.423552e-02  9.827807e-01  1.842264e-01
   outer loop
     vertex -1.587302e-02  1.015645e-01  3.579432e-01
     vertex -3.174603e-02  1.068052e-01  3.287590e-01
     vertex -3.174603e-02  1.004518e-01  3.626525e-01
   endloop
 endfacet
 facet normal  1.752374e-02  9.857196e-01  1.674805e-01
   outer loop
     vertex -1.587302e-02  1.015645e-01  3.579432e-01
     vertex -1.587302e-02  1.075277e-01  3.228459e-01
     vertex -3.174603e-02  1.068052e-01  3.287590e-01
   endloop
 endfacet
 facet normal -1.135905e-02  9.570360e-01  2.897464e-01
   outer loop
     vertex -1.587302e-02  9.170904e-02  3.921521e-01
     vertex -3.174603e-02  1.004518e-01  3.626525e-01
     vertex -3.174603e-02  9.045954e-02  3.956570e-01
   endloop
 endfacet
 facet normal  1.477160e-02  9.608125e-01  2.768053e-01
   outer loop
     vertex -1.587302e-02  9.170904e-02  3.921521e-01
     vertex -1.587302e-02  1.015645e-01  3.579432e-01
     vertex -3.174603e-02  1.004518e-01  3.626525e-01
   endloop
 endfacet
 facet normal -8.234467e-03  9.199910e-01  3.918529e-01
   outer loop
     vertex -1.587302e-02  7.808540e-02  4.250425e-01
     vertex -3.174603e-02  9.045954e-02  3.956570e-01
     vertex -3.174603e-02  7.694647e-02  4.273829e-01
   endloop
 endfacet
 facet normal  1.177128e-02  9.238155e-01  3.826570e-01
   outer loop
     vertex -1.587302e-02  7.808540e-02  4.250425e-01
     vertex -1.587302e-02  9.170904e-02  3.921521e-01
     vertex -3.174603e-02  9.045954e-02  3.956570e-01
   endloop
 endfacet
 facet normal -4.861820e-03  8.720808e-01  4.893377e-01
   outer loop
     vertex -1.587302e-02  6.086487e-02  4.562007e-01
     vertex -3.174603e-02  7.694647e-02  4.273829e-01
     vertex -3.174603e-02  6.007200e-02  4.574560e-01
   endloop
 endfacet
 facet normal  8.522829e-03  8.751916e-01  4.837013e-01
   outer loop
     vertex -1.587302e-02  6.086487e-02  4.562007e-01
     vertex -1.587302e-02  7.808540e-02  4.250425e-01
     vertex -3.174603e-02  7.694647e-02  4.273829e-01
   endloop
 endfacet
 facet normal -1.241221e-03  8.138694e-01  5.810465e-01
   outer loop
     vertex -1.587302e-02  4.026401e-02  4.852349e-01
     vertex -3.174603e-02  6.007200e-02  4.574560e-01
     vertex -3.174603e-02  4.003525e-02  4.855214e-01
   endloop
 endfacet
 facet normal  1.267859e-03  7.460453e-01  6.658940e-01
   outer loop
     vertex -1.587302e-02  4.026401e-02  4.852349e-01
     vertex -3.174603e-02  4.003525e-02  4.855214e-01
     vertex -3.174603e-02  1.707261e-02  5.112479e-01
   endloop
 endfacet
 facet normal  5.026307e-03  8.155506e-01  5.786640e-01
   outer loop
     vertex -1.587302e-02  4.026401e-02  4.852349e-01
     vertex -1.587302e-02  6.086487e-02  4.562007e-01
     vertex -3.174603e-02  6.007200e-02  4.574560e-01
   endloop
 endfacet
 facet normal -2.515272e-03  6.694168e-01  7.428827e-01
   outer loop
     vertex -1.587302e-02  1.654188e-02  5.117799e-01
     vertex -3.174603e-02  1.707261e-02  5.112479e-01
     vertex -3.174603e-02 -8.544949e-03  5.343321e-01
   endloop
 endfacet
 facet normal  2.598518e-03  7.456396e-01  6.663443e-01
   outer loop
     vertex -1.587302e-02  1.654188e-02  5.117799e-01
     vertex -1.587302e-02  4.026401e-02  4.852349e-01
     vertex -3.174603e-02  1.707261e-02  5.112479e-01
   endloop
 endfacet
 facet normal  6.257671e-03  6.663335e-01  7.456276e-01
   outer loop
     vertex -1.587302e-02 -1.000319e-02  5.355021e-01
     vertex -1.587302e-02  1.654188e-02  5.117799e-01
     vertex -3.174603e-02 -8.544949e-03  5.343321e-01
   endloop
 endfacet
 facet normal -6.050550e-03  5.848827e-01  8.110953e-01
   outer loop
     vertex -1.587302e-02 -1.000319e-02  5.355021e-01
     vertex -3.174603e-02 -8.544949e-03  5.343321e-01
     vertex -3.174603e-02 -3.651518e-02  5.545015e-01
   endloop
 endfacet
 facet normal  9.668827e-03  5.786442e-01  8.155228e-01
   outer loop
     vertex -1.587302e-02 -3.903739e-02  5.561029e-01
     vertex -1.587302e-02 -1.000319e-02  5.355021e-01
     vertex -3.174603e-02 -3.651518e-02  5.545015e-01
   endloop
 endfacet
 facet normal -9.337834e-03  4.934451e-01  8.697268e-01
   outer loop
     vertex -1.587302e-02 -3.903739e-02  5.561029e-01
     vertex -3.174603e-02 -3.651518e-02  5.545015e-01
     vertex -3.174603e-02 -6.650804e-02  5.715182e-01
   endloop
 endfacet
 facet normal  1.283189e-02  4.836790e-01  8.751514e-01
   outer loop
     vertex -1.587302e-02 -7.019559e-02  5.733234e-01
     vertex -1.587302e-02 -3.903739e-02  5.561029e-01
     vertex -3.174603e-02 -6.650804e-02  5.715182e-01
   endloop
 endfacet
 facet normal -1.237703e-02  3.961869e-01  9.180865e-01
   outer loop
     vertex -1.587302e-02 -7.019559e-02  5.733234e-01
     vertex -3.174603e-02 -6.650804e-02  5.715182e-01
     vertex -3.174603e-02 -9.816966e-02  5.851813e-01
   endloop
 endfacet
 facet normal  1.574679e-02  3.826360e-01  9.237650e-01
   outer loop
     vertex -1.587302e-02 -1.030860e-01  5.869471e-01
     vertex -1.587302e-02 -7.019559e-02  5.733234e-01
     vertex -3.174603e-02 -9.816966e-02  5.851813e-01
   endloop
 endfacet
 facet normal -1.516809e-02  2.942590e-01  9.556053e-01
   outer loop
     vertex -1.587302e-02 -1.030860e-01  5.869471e-01
     vertex -3.174603e-02 -9.816966e-02  5.851813e-01
     vertex -3.174603e-02 -1.311264e-01  5.953296e-01
   endloop
 endfacet
 facet normal -1.771100e-02  1.888664e-01  9.818431e-01
   outer loop
     vertex -1.587302e-02 -1.372949e-01  5.968025e-01
     vertex -3.174603e-02 -1.311264e-01  5.953296e-01
     vertex -3.174603e-02 -1.649895e-01  6.018435e-01
   endloop
 endfacet
 facet normal  1.841353e-02  2.767886e-01  9.607544e-01
   outer loop
     vertex -1.587302e-02 -1.372949e-01  5.968025e-01
     vertex -1.587302e-02 -1.030860e-01  5.869471e-01
     vertex -3.174603e-02 -1.311264e-01  5.953296e-01
   endloop
 endfacet
 facet normal -2.000577e-02  8.125411e-02  9.964926e-01
   outer loop
     vertex -1.587302e-02 -1.723922e-01  6.027658e-01
     vertex -3.174603e-02 -1.649895e-01  6.018435e-01
     vertex -3.174603e-02 -1.993593e-01  6.046460e-01
   endloop
 endfacet
 facet normal  2.083210e-02  1.674699e-01  9.856571e-01
   outer loop
     vertex -1.587302e-02 -1.723922e-01  6.027658e-01
     vertex -1.587302e-02 -1.372949e-01  5.968025e-01
     vertex -3.174603e-02 -1.649895e-01  6.018435e-01
   endloop
 endfacet
 facet normal -2.205243e-02 -2.730756e-02  9.993838e-01
   outer loop
     vertex -1.587302e-02 -2.079365e-01  6.047619e-01
     vertex -3.174603e-02 -1.993593e-01  6.046460e-01
     vertex -3.174603e-02 -2.338303e-01  6.037041e-01
   endloop
 endfacet
 facet normal  2.300255e-02  5.605561e-02  9.981626e-01
   outer loop
     vertex -1.587302e-02 -2.079365e-01  6.047619e-01
     vertex -1.587302e-02 -1.723922e-01  6.027658e-01
     vertex -3.174603e-02 -1.993593e-01  6.046460e-01
   endloop
 endfacet
 facet normal -2.385103e-02 -1.355379e-01  9.904850e-01
   outer loop
     vertex -1.587302e-02 -2.434807e-01  6.027658e-01
     vertex -3.174603e-02 -2.338303e-01  6.037041e-01
     vertex -3.174603e-02 -2.679958e-01  5.990289e-01
   endloop
 endfacet
 facet normal  2.492491e-02 -5.605303e-02  9.981166e-01
   outer loop
     vertex -1.587302e-02 -2.434807e-01  6.027658e-01
     vertex -1.587302e-02 -2.079365e-01  6.047619e-01
     vertex -3.174603e-02 -2.338303e-01  6.037041e-01
   endloop
 endfacet
 facet normal -2.540162e-02 -2.421609e-01  9.699035e-01
   outer loop
     vertex -1.587302e-02 -2.785780e-01  5.968025e-01
     vertex -3.174603e-02 -2.679958e-01  5.990289e-01
     vertex -3.174603e-02 -3.014527e-01  5.906756e-01
   endloop
 endfacet
 facet normal  2.659926e-02 -1.674470e-01  9.855222e-01
   outer loop
     vertex -1.587302e-02 -2.785780e-01  5.968025e-01
     vertex -1.587302e-02 -2.434807e-01  6.027658e-01
     vertex -3.174603e-02 -2.679958e-01  5.990289e-01
   endloop
 endfacet
 facet normal -2.670425e-02 -3.459201e-01  9.378839e-01
   outer loop
     vertex -1.587302e-02 -3.127869e-01  5.869471e-01
     vertex -3.174603e-02 -3.014527e-01  5.906756e-01
     vertex -3.174603e-02 -3.338061e-01  5.787426e-01
   endloop
 endfacet
 facet normal  2.802564e-02 -2.767268e-01  9.605399e-01
   outer loop
     vertex -1.587302e-02 -3.127869e-01  5.869471e-01
     vertex -1.587302e-02 -2.785780e-01  5.968025e-01
     vertex -3.174603e-02 -3.014527e-01  5.906756e-01
   endloop
 endfacet
 facet normal -2.775897e-02 -4.455930e-01  8.948052e-01
   outer loop
     vertex -1.587302e-02 -3.456773e-01  5.733234e-01
     vertex -3.174603e-02 -3.338061e-01  5.787426e-01
     vertex -3.174603e-02 -3.646743e-01  5.633709e-01
   endloop
 endfacet
 facet normal  2.920412e-02 -3.825202e-01  9.234855e-01
   outer loop
     vertex -1.587302e-02 -3.456773e-01  5.733234e-01
     vertex -1.587302e-02 -3.127869e-01  5.869471e-01
     vertex -3.174603e-02 -3.338061e-01  5.787426e-01
   endloop
 endfacet
 facet normal -2.856584e-02 -5.400060e-01  8.411763e-01
   outer loop
     vertex -1.587302e-02 -3.768355e-01  5.561029e-01
     vertex -3.174603e-02 -3.646743e-01  5.633709e-01
     vertex -3.174603e-02 -3.936932e-01  5.447418e-01
   endloop
 endfacet
 facet normal  3.013476e-02 -4.834992e-01  8.748259e-01
   outer loop
     vertex -1.587302e-02 -3.768355e-01  5.561029e-01
     vertex -1.587302e-02 -3.456773e-01  5.733234e-01
     vertex -3.174603e-02 -3.646743e-01  5.633709e-01
   endloop
 endfacet
 facet normal -2.912489e-02 -6.280473e-01  7.776300e-01
   outer loop
     vertex -1.587302e-02 -4.058697e-01  5.355021e-01
     vertex -3.174603e-02 -3.936932e-01  5.447418e-01
     vertex -3.174603e-02 -4.205203e-01  5.230751e-01
   endloop
 endfacet
 facet normal  3.081759e-02 -5.783964e-01  8.151735e-01
   outer loop
     vertex -1.587302e-02 -4.058697e-01  5.355021e-01
     vertex -1.587302e-02 -3.768355e-01  5.561029e-01
     vertex -3.174603e-02 -3.936932e-01  5.447418e-01
   endloop
 endfacet
 facet normal -2.943615e-02 -7.086804e-01  7.049154e-01
   outer loop
     vertex -1.587302e-02 -4.324148e-01  5.117799e-01
     vertex -3.174603e-02 -4.205203e-01  5.230751e-01
     vertex -3.174603e-02 -4.448390e-01  4.986265e-01
   endloop
 endfacet
 facet normal  3.125267e-02 -6.660211e-01  7.452779e-01
   outer loop
     vertex -1.587302e-02 -4.324148e-01  5.117799e-01
     vertex -1.587302e-02 -4.058697e-01  5.355021e-01
     vertex -3.174603e-02 -4.205203e-01  5.230751e-01
   endloop
 endfacet
 facet normal -2.949963e-02 -7.809558e-01  6.238892e-01
   outer loop
     vertex -1.587302e-02 -4.561369e-01  4.852349e-01
     vertex -3.174603e-02 -4.448390e-01  4.986265e-01
     vertex -3.174603e-02 -4.663625e-01  4.716844e-01
   endloop
 endfacet
 facet normal  3.144000e-02 -7.452735e-01  6.660172e-01
   outer loop
     vertex -1.587302e-02 -4.561369e-01  4.852349e-01
     vertex -1.587302e-02 -4.324148e-01  5.117799e-01
     vertex -3.174603e-02 -4.448390e-01  4.986265e-01
   endloop
 endfacet
 facet normal -2.931535e-02 -8.440225e-01  5.355059e-01
   outer loop
     vertex -1.587302e-02 -4.767378e-01  4.562007e-01
     vertex -3.174603e-02 -4.663625e-01  4.716844e-01
     vertex -3.174603e-02 -4.848368e-01  4.425667e-01
   endloop
 endfacet
 facet normal  3.137962e-02 -8.151592e-01  5.783863e-01
   outer loop
     vertex -1.587302e-02 -4.767378e-01  4.562007e-01
     vertex -1.587302e-02 -4.561369e-01  4.852349e-01
     vertex -3.174603e-02 -4.663625e-01  4.716844e-01
   endloop
 endfacet
 facet normal -2.888328e-02 -8.971375e-01  4.408062e-01
   outer loop
     vertex -1.587302e-02 -4.939583e-01  4.250425e-01
     vertex -3.174603e-02 -4.848368e-01  4.425667e-01
     vertex -3.174603e-02 -5.000439e-01  4.116170e-01
   endloop
 endfacet
 facet normal  3.107150e-02 -8.748008e-01  4.834854e-01
   outer loop
     vertex -1.587302e-02 -4.939583e-01  4.250425e-01
     vertex -1.587302e-02 -4.767378e-01  4.562007e-01
     vertex -3.174603e-02 -4.848368e-01  4.425667e-01
   endloop
 endfacet
 facet normal -2.820341e-02 -9.396745e-01  3.409052e-01
   outer loop
     vertex -1.587302e-02 -5.075819e-01  3.921521e-01
     vertex -3.174603e-02 -5.000439e-01  4.116170e-01
     vertex -3.174603e-02 -5.118043e-01  3.792005e-01
   endloop
 endfacet
 facet normal  3.051563e-02 -9.234493e-01  3.825052e-01
   outer loop
     vertex -1.587302e-02 -5.075819e-01  3.921521e-01
     vertex -1.587302e-02 -4.939583e-01  4.250425e-01
     vertex -3.174603e-02 -5.000439e-01  4.116170e-01
   endloop
 endfacet
 facet normal -2.727571e-02 -9.711317e-01  2.369793e-01
   outer loop
     vertex -1.587302e-02 -5.174374e-01  3.579432e-01
     vertex -3.174603e-02 -5.118043e-01  3.792005e-01
     vertex -3.174603e-02 -5.199793e-01  3.456996e-01
   endloop
 endfacet
 facet normal  2.971198e-02 -9.604931e-01  2.767133e-01
   outer loop
     vertex -1.587302e-02 -5.174374e-01  3.579432e-01
     vertex -1.587302e-02 -5.075819e-01  3.921521e-01
     vertex -3.174603e-02 -5.118043e-01  3.792005e-01
   endloop
 endfacet
 facet normal  8.107540e-03 -9.881064e-01  1.535577e-01
   outer loop
     vertex -1.587302e-02 -5.234006e-01  3.228459e-01
     vertex -3.174603e-02 -5.199793e-01  3.456996e-01
     vertex -3.174603e-02 -5.229852e-01  3.263574e-01
   endloop
 endfacet
 facet normal -5.627618e-03 -9.957088e-01  9.237036e-02
   outer loop
     vertex -1.587302e-02 -5.234006e-01  3.228459e-01
     vertex -3.174603e-02 -5.229852e-01  3.263574e-01
     vertex -3.174603e-02 -5.247933e-01  3.068667e-01
   endloop
 endfacet
 facet normal  2.866052e-02 -9.854660e-01  1.674375e-01
   outer loop
     vertex -1.587302e-02 -5.234006e-01  3.228459e-01
     vertex -1.587302e-02 -5.174374e-01  3.579432e-01
     vertex -3.174603e-02 -5.199793e-01  3.456996e-01
   endloop
 endfacet
 facet normal  0.000000e+00 -9.995247e-01  3.082971e-02
   outer loop
     vertex -1.587302e-02 -5.253968e-01  2.873016e-01
     vertex -3.174603e-02 -5.247933e-01  3.068667e-01
     vertex -3.174603e-02 -5.253968e-01  2.873016e-01
   endloop
 endfacet
 facet normal  3.113843e-02 -9.979427e-01  5.604330e-02
   outer loop
     vertex -1.587302e-02 -5.253968e-01  2.873016e-01
     vertex -1.587302e-02 -5.234006e-01  3.228459e-01
     vertex -3.174603e-02 -5.247933e-01  3.068667e-01
   endloop
 endfacet
 facet normal  0.000000e+00 -1.000000e+00 -6.725389e-16
   outer loop
     vertex -1.587302e-02 -5.253968e-01  1.222222e-01
     vertex -1.587302e-02 -5.253968e-01  2.873016e-01
     vertex -3.174603e-02 -5.253968e-01  2.873016e-01
   endloop
 endfacet
 facet normal -0.000000e+00 -1.000000e+00 -6.725389e-16
   outer loop
     vertex -1.587302e-02 -5.253968e-01  1.222222e-01
     vertex -3.174603e-02 -5.253968e-01  2.873016e-01
     vertex -3.174603e-02 -5.253968e-01  1.222222e-01
   endloop
 endfacet
 facet normal  0.000000e+00 -0.000000e+00 -1.000000e+00
   outer loop
     vertex -1.587302e-02  1.095239e-01  1.222222e-01
     vertex -1.587302e-02 -5.253968e-01  1.222222e-01
     vertex -3.174603e-02 -5.253968e-01  1.222222e-01
   endloop
 endfacet
 facet normal -0.000000e+00  0.000000e+00 -1.000000e+00
   outer loop
     vertex -1.587302e-02  1.095239e-01  1.222222e-01
     vertex -3.174603e-02 -5.253968e-01  1.222222e-01
     vertex -3.174603e-02  1.095239e-01  1.222222e-01
   endloop
 endfacet
 facet normal  0.000000e+00  1.000000e+00 -8.406736e-17
   outer loop
     vertex -1.587302e-02  1.095239e-01  2.873016e-01
     vertex -1.587302e-02  1.095239e-01  1.222222e-01
     vertex -3.174603e-02  1.095239e-01  1.222222e-01
   endloop
 endfacet
 facet normal  0.000000e+00  1.000000e+00 -8.406736e-17
   outer loop
     vertex -1.587302e-02  1.095239e-01  2.873016e-01
     vertex -3.174603e-02  1.095239e-01  1.222222e-01
     vertex -3.174603e-02  1.095239e-01  2.873016e-01
   endloop
 endfacet
 facet normal -1.000000e+00 -0.000000e+00  0.000000e+00
   outer loop
     vertex -3.174603e-02 -5.076756e-01  3.785989e-01
     vertex -3.174603e-02 -5.199793e-01  3.456996e-01
     vertex -3.174603e-02 -5.118043e-01  3.792005e-01
   endloop
 endfacet
 facet normal -1.000000e+00  0.000000e+00  0.000000e+00
   outer loop
     vertex -3.174603e-02 -5.000439e-01  4.116170e-01
     vertex -3.174603e-02 -5.076756e-01  3.785989e-01
     vertex -3.174603e-02 -5.118043e-01  3.792005e-01
   endloop
 endfacet
 facet normal -1.000000e+00 -0.000000e+00  0.000000e+00
   outer loop
     vertex -3.174603e-02 -4.919031e-01  4.099831e-01
     vertex -3.174603e-02 -5.076756e-01  3.785989e-01
     vertex -3.174603e-02 -5.000439e-01  4.116170e-01
   endloop
 endfacet
 facet normal -1.000000e+00  0.000000e+00  0.000000e+00
   outer loop
     vertex -3.174603e-02 -4.848368e-01  4.425667e-01
     vertex -3.174603e-02 -4.919031e-01  4.099831e-01
     vertex -3.174603e-02 -5.000439e-01  4.116170e-01
   endloop
 endfacet
 facet normal -1.000000e+00 -0.000000e+00  0.000000e+00
   outer loop
     vertex -3.174603e-02 -4.728448e-01  4.394877e-01
     vertex -3.174603e-02 -4.919031e-01  4.099831e-01
     vertex -3.174603e-02 -4.848368e-01  4.425667e-01
   endloop
 endfacet
 facet normal -1.000000e+00  0.000000e+00  0.000000e+00
   outer loop
     vertex -3.174603e-02 -4.663625e-01  4.716844e-01
     vertex -3.174603e-02 -4.728448e-01  4.394877e-01
     vertex -3.174603e-02 -4.848368e-01  4.425667e-01
   endloop
 endfacet
 facet normal -1.000000e+00 -0.000000e+00  0.000000e+00
   outer loop
     vertex -3.174603e-02 -4.507221e-01  4.667700e-01
     vertex -3.174603e-02 -4.728448e-01  4.394877e-01
     vertex -3.174603e-02 -4.663625e-01  4.716844e-01
   endloop
 endfacet
 facet normal -1.000000e+00  0.000000e+00  0.000000e+00
   outer loop
     vertex -3.174603e-02 -4.448390e-01  4.986265e-01
     vertex -3.174603e-02 -4.507221e-01  4.667700e-01
     vertex -3.174603e-02 -4.663625e-01  4.716844e-01
   endloop
 endfacet
 facet normal -1.000000e+00 -0.000000e+00  0.000000e+00
   outer loop
     vertex -3.174603e-02 -4.257919e-01  4.915133e-01
     vertex -3.174603e-02 -4.507221e-01  4.667700e-01
     vertex -3.174603e-02 -4.448390e-01  4.986265e-01
   endloop
 endfacet
 facet normal -1.000000e+00  0.000000e+00  0.000000e+00
   outer loop
     vertex -3.174603e-02 -4.205203e-01  5.230751e-01
     vertex -3.174603e-02 -4.257919e-01  4.915133e-01
     vertex -3.174603e-02 -4.448390e-01  4.986265e-01
   endloop
 endfacet
 facet normal -1.000000e+00 -0.000000e+00  0.000000e+00
   outer loop
     vertex -3.174603e-02 -3.983439e-01  5.134301e-01
     vertex -3.174603e-02 -4.257919e-01  4.915133e-01
     vertex -3.174603e-02 -4.205203e-01  5.230751e-01
   endloop
 endfacet
 facet normal -1.000000e+00  0.000000e+00  0.000000e+00
   outer loop
     vertex -3.174603e-02 -3.936932e-01  5.447418e-01
     vertex -3.174603e-02 -3.983439e-01  5.134301e-01
     vertex -3.174603e-02 -4.205203e-01  5.230751e-01
   endloop
 endfacet
 facet normal -1.000000e+00 -0.000000e+00  0.000000e+00
   outer loop
     vertex -3.174603e-02 -3.686967e-01  5.322659e-01
     vertex -3.174603e-02 -3.983439e-01  5.134301e-01
     vertex -3.174603e-02 -3.936932e-01  5.447418e-01
   endloop
 endfacet
 facet normal -1.000000e+00  0.000000e+00  0.000000e+00
   outer loop
     vertex -3.174603e-02 -3.646743e-01  5.633709e-01
     vertex -3.174603e-02 -3.686967e-01  5.322659e-01
     vertex -3.174603e-02 -3.936932e-01  5.447418e-01
   endloop
 endfacet
 facet normal -1.000000e+00 -0.000000e+00  0.000000e+00
   outer loop
     vertex -3.174603e-02 -3.371948e-01  5.478019e-01
     vertex -3.174603e-02 -3.686967e-01  5.322659e-01
     vertex -3.174603e-02 -3.646743e-01  5.633709e-01
   endloop
 endfacet
 facet normal -1.000000e+00  0.000000e+00  0.000000e+00
   outer loop
     vertex -3.174603e-02 -3.338061e-01  5.787426e-01
     vertex -3.174603e-02 -3.371948e-01  5.478019e-01
     vertex -3.174603e-02 -3.646743e-01  5.633709e-01
   endloop
 endfacet
 facet normal -1.000000e+00 -0.000000e+00  0.000000e+00
   outer loop
     vertex -3.174603e-02 -3.042039e-01  5.598577e-01
     vertex -3.174603e-02 -3.371948e-01  5.478019e-01
     vertex -3.174603e-02 -3.338061e-01  5.787426e-01
   endloop
 endfacet
 facet normal -1.000000e+00  0.000000e+00  0.000000e+00
   outer loop
     vertex -3.174603e-02 -3.014527e-01  5.906756e-01
     vertex -3.174603e-02 -3.042039e-01  5.598577e-01
     vertex -3.174603e-02 -3.338061e-01  5.787426e-01
   endloop
 endfacet
 facet normal -1.000000e+00 -0.000000e+00  0.000000e+00
   outer loop
     vertex -3.174603e-02 -2.701072e-01  5.682933e-01
     vertex -3.174603e-02 -3.042039e-01  5.598577e-01
     vertex -3.174603e-02 -3.014527e-01  5.906756e-01
   endloop
 endfacet
 facet normal -1.000000e+00  0.000000e+00  0.000000e+00
   outer loop
     vertex -3.174603e-02 -2.679958e-01  5.990289e-01
     vertex -3.174603e-02 -2.701072e-01  5.682933e-01
     vertex -3.174603e-02 -3.014527e-01  5.906756e-01
   endloop
 endfacet
 facet normal -1.000000e+00 -0.000000e+00  0.000000e+00
   outer loop
     vertex -3.174603e-02 -2.353008e-01  5.730106e-01
     vertex -3.174603e-02 -2.701072e-01  5.682933e-01
     vertex -3.174603e-02 -2.679958e-01  5.990289e-01
   endloop
 endfacet
 facet normal -1.000000e+00  0.000000e+00  0.000000e+00
   outer loop
     vertex -3.174603e-02 -2.338303e-01  6.037041e-01
     vertex -3.174603e-02 -2.353008e-01  5.730106e-01
     vertex -3.174603e-02 -2.679958e-01  5.990289e-01
   endloop
 endfacet
 facet normal -1.000000e+00 -0.000000e+00  0.000000e+00
   outer loop
     vertex -3.174603e-02 -2.001888e-01  5.739550e-01
     vertex -3.174603e-02 -2.353008e-01  5.730106e-01
     vertex -3.174603e-02 -2.338303e-01  6.037041e-01
   endloop
 endfacet
 facet normal -1.000000e+00  0.000000e+00  0.000000e+00
   outer loop
     vertex -3.174603e-02 -1.993593e-01  6.046460e-01
     vertex -3.174603e-02 -2.001888e-01  5.739550e-01
     vertex -3.174603e-02 -2.338303e-01  6.037041e-01
   endloop
 endfacet
 facet normal -1.000000e+00 -0.000000e+00  0.000000e+00
   outer loop
     vertex -3.174603e-02 -1.649895e-01  6.018435e-01
     vertex -3.174603e-02 -2.001888e-01  5.739550e-01
     vertex -3.174603e-02 -1.993593e-01  6.046460e-01
   endloop
 endfacet
 facet normal -1.000000e+00  0.000000e+00  0.000000e+00
   outer loop
     vertex -3.174603e-02 -1.649895e-01  6.018435e-01
     vertex -3.174603e-02 -1.651791e-01  5.711154e-01
     vertex -3.174603e-02 -2.001888e-01  5.739550e-01
   endloop
 endfacet
 facet normal -1.000000e+00  0.000000e+00 -0.000000e+00
   outer loop
     vertex -3.174603e-02  1.004518e-01  3.626525e-01
     vertex -3.174603e-02  1.068052e-01  3.287590e-01
     vertex -3.174603e-02  9.629665e-02  3.622748e-01
   endloop
 endfacet
 facet normal -1.000000e+00 -0.000000e+00  0.000000e+00
   outer loop
     vertex -3.174603e-02 -1.311264e-01  5.953296e-01
     vertex -3.174603e-02 -1.651791e-01  5.711154e-01
     vertex -3.174603e-02 -1.649895e-01  6.018435e-01
   endloop
 endfacet
 facet normal -1.000000e+00  0.000000e+00 -0.000000e+00
   outer loop
     vertex -3.174603e-02 -1.311264e-01  5.953296e-01
     vertex -3.174603e-02 -1.306783e-01  5.645248e-01
     vertex -3.174603e-02 -1.651791e-01  5.711154e-01
   endloop
 endfacet
 facet normal -1.000000e+00  0.000000e+00  0.000000e+00
   outer loop
     vertex -3.174603e-02  9.045954e-02  3.956570e-01
     vertex -3.174603e-02  1.004518e-01  3.626525e-01
     vertex -3.174603e-02  9.629665e-02  3.622748e-01
   endloop
 endfacet
 facet normal -1.000000e+00  0.000000e+00 -0.000000e+00
   outer loop
     vertex -3.174603e-02  9.045954e-02  3.956570e-01
     vertex -3.174603e-02  9.629665e-02  3.622748e-01
     vertex -3.174603e-02  8.224237e-02  3.944651e-01
   endloop
 endfacet
 facet normal -1.000000e+00 -0.000000e+00  0.000000e+00
   outer loop
     vertex -3.174603e-02 -9.816966e-02  5.851813e-01
     vertex -3.174603e-02 -1.306783e-01  5.645248e-01
     vertex -3.174603e-02 -1.311264e-01  5.953296e-01
   endloop
 endfacet
 facet normal -1.000000e+00  0.000000e+00 -0.000000e+00
   outer loop
     vertex -3.174603e-02 -9.816966e-02  5.851813e-01
     vertex -3.174603e-02 -9.708712e-02  5.542598e-01
     vertex -3.174603e-02 -1.306783e-01  5.645248e-01
   endloop
 endfacet
 facet normal -1.000000e+00  0.000000e+00  0.000000e+00
   outer loop
     vertex -3.174603e-02  7.694647e-02  4.273829e-01
     vertex -3.174603e-02  9.045954e-02  3.956570e-01
     vertex -3.174603e-02  8.224237e-02  3.944651e-01
   endloop
 endfacet
 facet normal -1.000000e+00  0.000000e+00 -0.000000e+00
   outer loop
     vertex -3.174603e-02  7.694647e-02  4.273829e-01
     vertex -3.174603e-02  8.224237e-02  3.944651e-01
     vertex -3.174603e-02  6.480562e-02  4.249561e-01
   endloop
 endfacet
 facet normal -1.000000e+00 -0.000000e+00  0.000000e+00
   outer loop
     vertex -3.174603e-02 -6.650804e-02  5.715182e-01
     vertex -3.174603e-02 -9.708712e-02  5.542598e-01
     vertex -3.174603e-02 -9.816966e-02  5.851813e-01
   endloop
 endfacet
 facet normal -1.000000e+00  0.000000e+00 -0.000000e+00
   outer loop
     vertex -3.174603e-02 -6.650804e-02  5.715182e-01
     vertex -3.174603e-02 -6.479559e-02  5.404396e-01
     vertex -3.174603e-02 -9.708712e-02  5.542598e-01
   endloop
 endfacet
 facet normal -1.000000e+00  0.000000e+00 -0.000000e+00
   outer loop
     vertex -3.174603e-02  6.007200e-02  4.574560e-01
     vertex -3.174603e-02  6.480562e-02  4.249561e-01
     vertex -3.174603e-02  4.418893e-02  4.533937e-01
   endloop
 endfacet
 facet normal -1.000000e+00  0.000000e+00  0.000000e+00
   outer loop
     vertex -3.174603e-02  6.007200e-02  4.574560e-01
     vertex -3.174603e-02  7.694647e-02  4.273829e-01
     vertex -3.174603e-02  6.480562e-02  4.249561e-01
   endloop
 endfacet
 facet normal -1.000000e+00  0.000000e+00 -0.000000e+00
   outer loop
     vertex -3.174603e-02 -3.651518e-02  5.545015e-01
     vertex -3.174603e-02 -3.417882e-02  5.232246e-01
     vertex -3.174603e-02 -6.479559e-02  5.404396e-01
   endloop
 endfacet
 facet normal -1.000000e+00 -0.000000e+00  0.000000e+00
   outer loop
     vertex -3.174603e-02 -3.651518e-02  5.545015e-01
     vertex -3.174603e-02 -6.479559e-02  5.404396e-01
     vertex -3.174603e-02 -6.650804e-02  5.715182e-01
   endloop
 endfacet
 facet normal -1.000000e+00  0.000000e+00 -0.000000e+00
   outer loop
     vertex -3.174603e-02  4.003525e-02  4.855214e-01
     vertex -3.174603e-02  4.418893e-02  4.533937e-01
     vertex -3.174603e-02  2.063173e-02  4.794475e-01
   endloop
 endfacet
 facet normal -1.000000e+00  0.000000e+00  0.000000e+00
   outer loop
     vertex -3.174603e-02  4.003525e-02  4.855214e-01
     vertex -3.174603e-02  6.007200e-02  4.574560e-01
     vertex -3.174603e-02  4.418893e-02  4.533937e-01
   endloop
 endfacet
 facet normal -1.000000e+00 -0.000000e+00  0.000000e+00
   outer loop
     vertex -3.174603e-02 -8.544949e-03  5.343321e-01
     vertex -3.174603e-02 -3.417882e-02  5.232246e-01
     vertex -3.174603e-02 -3.651518e-02  5.545015e-01
   endloop
 endfacet
 facet normal -1.000000e+00  0.000000e+00 -0.000000e+00
   outer loop
     vertex -3.174603e-02 -8.544949e-03  5.343321e-01
     vertex -3.174603e-02 -5.592374e-03  5.028149e-01
     vertex -3.174603e-02 -3.417882e-02  5.232246e-01
   endloop
 endfacet
 facet normal -1.000000e+00 -0.000000e+00  0.000000e+00
   outer loop
     vertex -3.174603e-02  1.707261e-02  5.112479e-01
     vertex -3.174603e-02 -5.592374e-03  5.028149e-01
     vertex -3.174603e-02 -8.544949e-03  5.343321e-01
   endloop
 endfacet
 facet normal -1.000000e+00  0.000000e+00 -0.000000e+00
   outer loop
     vertex -3.174603e-02  1.707261e-02  5.112479e-01
     vertex -3.174603e-02  2.063173e-02  4.794475e-01
     vertex -3.174603e-02 -5.592374e-03  5.028149e-01
   endloop
 endfacet
 facet normal -1.000000e+00  0.000000e+00  0.000000e+00
   outer loop
     vertex -3.174603e-02  1.707261e-02  5.112479e-01
     vertex -3.174603e-02  4.003525e-02  4.855214e-01
     vertex -3.174603e-02  2.063173e-02  4.794475e-01
   endloop
 endfacet
 facet normal  0.000000e+00  9.984268e-01  5.607049e-02
   outer loop
     vertex -1.587302e-02  1.075277e-01  3.228459e-01
     vertex  1.269842e-01  1.095239e-01  2.873016e-01
     vertex -1.587302e-02  1.095239e-01  2.873016e-01
   endloop
 endfacet
 facet normal -0.000000e+00  9.984268e-01  5.607049e-02
   outer loop
     vertex -1.587302e-02  1.075277e-01  3.228459e-01
     vertex  1.269842e-01  1.075277e-01  3.228459e-01
     vertex  1.269842e-01  1.095239e-01  2.873016e-01
   endloop
 endfacet
 facet normal -0.000000e+00  9.858710e-01  1.675063e-01
   outer loop
     vertex -1.587302e-02  1.015645e-01  3.579432e-01
     vertex  1.269842e-01  1.015645e-01  3.579432e-01
     vertex  1.269842e-01  1.075277e-01  3.228459e-01
   endloop
 endfacet
 facet normal  0.000000e+00  9.858710e-01  1.675063e-01
   outer loop
     vertex -1.587302e-02  1.015645e-01  3.579432e-01
     vertex  1.269842e-01  1.075277e-01  3.228459e-01
     vertex -1.587302e-02  1.075277e-01  3.228459e-01
   endloop
 endfacet
 facet normal -0.000000e+00  9.609173e-01  2.768355e-01
   outer loop
     vertex -1.587302e-02  9.170904e-02  3.921521e-01
     vertex  1.269842e-01  9.170904e-02  3.921521e-01
     vertex  1.269842e-01  1.015645e-01  3.579432e-01
   endloop
 endfacet
 facet normal  0.000000e+00  9.609173e-01  2.768355e-01
   outer loop
     vertex -1.587302e-02  9.170904e-02  3.921521e-01
     vertex  1.269842e-01  1.015645e-01  3.579432e-01
     vertex -1.587302e-02  1.015645e-01  3.579432e-01
   endloop
 endfacet
 facet normal -0.000000e+00  9.238795e-01  3.826835e-01
   outer loop
     vertex -1.587302e-02  7.808540e-02  4.250425e-01
     vertex  1.269842e-01  7.808540e-02  4.250425e-01
     vertex  1.269842e-01  9.170904e-02  3.921521e-01
   endloop
 endfacet
 facet normal  0.000000e+00  9.238795e-01  3.826835e-01
   outer loop
     vertex -1.587302e-02  7.808540e-02  4.250425e-01
     vertex  1.269842e-01  9.170904e-02  3.921521e-01
     vertex -1.587302e-02  9.170904e-02  3.921521e-01
   endloop
 endfacet
 facet normal -0.000000e+00  8.752234e-01  4.837189e-01
   outer loop
     vertex -1.587302e-02  6.086487e-02  4.562007e-01
     vertex  1.269842e-01  6.086487e-02  4.562007e-01
     vertex  1.269842e-01  7.808540e-02  4.250425e-01
   endloop
 endfacet
 facet normal  0.000000e+00  8.752234e-01  4.837189e-01
   outer loop
     vertex -1.587302e-02  6.086487e-02  4.562007e-01
     vertex  1.269842e-01  7.808540e-02  4.250425e-01
     vertex -1.587302e-02  7.808540e-02  4.250425e-01
   endloop
 endfacet
 facet normal -0.000000e+00  8.155609e-01  5.786713e-01
   outer loop
     vertex -1.587302e-02  4.026401e-02  4.852349e-01
     vertex  1.269842e-01  4.026401e-02  4.852349e-01
     vertex  1.269842e-01  6.086487e-02  4.562007e-01
   endloop
 endfacet
 facet normal  0.000000e+00  8.155609e-01  5.786713e-01
   outer loop
     vertex -1.587302e-02  4.026401e-02  4.852349e-01
     vertex  1.269842e-01  6.086487e-02  4.562007e-01
     vertex -1.587302e-02  6.086487e-02  4.562007e-01
   endloop
 endfacet
 facet normal -0.000000e+00  7.456421e-01  6.663466e-01
   outer loop
     vertex -1.587302e-02  1.654188e-02  5.117799e-01
     vertex  1.269842e-01  1.654188e-02  5.117799e-01
     vertex  1.269842e-01  4.026401e-02  4.852349e-01
   endloop
 endfacet
 facet normal  0.000000e+00  7.456421e-01  6.663466e-01
   outer loop
     vertex -1.587302e-02  1.654188e-02  5.117799e-01
     vertex  1.269842e-01  4.026401e-02  4.852349e-01
     vertex -1.587302e-02  4.026401e-02  4.852349e-01
   endloop
 endfacet
 facet normal -0.000000e+00  6.663466e-01  7.456422e-01
   outer loop
     vertex -1.587302e-02 -1.000319e-02  5.355021e-01
     vertex  1.269842e-01 -1.000319e-02  5.355021e-01
     vertex  1.269842e-01  1.654188e-02  5.117799e-01
   endloop
 endfacet
 facet normal  0.000000e+00  6.663466e-01  7.456422e-01
   outer loop
     vertex -1.587302e-02 -1.000319e-02  5.355021e-01
     vertex  1.269842e-01  1.654188e-02  5.117799e-01
     vertex -1.587302e-02  1.654188e-02  5.117799e-01
   endloop
 endfacet
 facet normal -0.000000e+00  5.786713e-01  8.155609e-01
   outer loop
     vertex -1.587302e-02 -3.903739e-02  5.561029e-01
     vertex  1.269842e-01 -3.903739e-02  5.561029e-01
     vertex  1.269842e-01 -1.000319e-02  5.355021e-01
   endloop
 endfacet
 facet normal  0.000000e+00  5.786713e-01  8.155609e-01
   outer loop
     vertex -1.587302e-02 -3.903739e-02  5.561029e-01
     vertex  1.269842e-01 -1.000319e-02  5.355021e-01
     vertex -1.587302e-02 -1.000319e-02  5.355021e-01
   endloop
 endfacet
 facet normal  0.000000e+00  4.837189e-01  8.752234e-01
   outer loop
     vertex -1.587302e-02 -7.019559e-02  5.733234e-01
     vertex  1.269842e-01 -3.903739e-02  5.561029e-01
     vertex -1.587302e-02 -3.903739e-02  5.561029e-01
   endloop
 endfacet
 facet normal -0.000000e+00  4.837189e-01  8.752234e-01
   outer loop
     vertex -1.587302e-02 -7.019559e-02  5.733234e-01
     vertex  1.269842e-01 -7.019559e-02  5.733234e-01
     vertex  1.269842e-01 -3.903739e-02  5.561029e-01
   endloop
 endfacet
 facet normal  0.000000e+00  3.826834e-01  9.238795e-01
   outer loop
     vertex -1.587302e-02 -1.030860e-01  5.869471e-01
     vertex  1.269842e-01 -7.019559e-02  5.733234e-01
     vertex -1.587302e-02 -7.019559e-02  5.733234e-01
   endloop
 endfacet
 facet normal -0.000000e+00  3.826834e-01  9.238795e-01
   outer loop
     vertex -1.587302e-02 -1.030860e-01  5.869471e-01
     vertex  1.269842e-01 -1.030860e-01  5.869471e-01
     vertex  1.269842e-01 -7.019559e-02  5.733234e-01
   endloop
 endfacet
 facet normal  0.000000e+00  2.768355e-01  9.609173e-01
   outer loop
     vertex -1.587302e-02 -1.372949e-01  5.968025e-01
     vertex  1.269842e-01 -1.030860e-01  5.869471e-01
     vertex -1.587302e-02 -1.030860e-01  5.869471e-01
   endloop
 endfacet
 facet normal -0.000000e+00  2.768355e-01  9.609173e-01
   outer loop
     vertex -1.587302e-02 -1.372949e-01  5.968025e-01
     vertex  1.269842e-01 -1.372949e-01  5.968025e-01
     vertex  1.269842e-01 -1.030860e-01  5.869471e-01
   endloop
 endfacet
 facet normal -0.000000e+00  1.675062e-01  9.858710e-01
   outer loop
     vertex -1.587302e-02 -1.372949e-01  5.968025e-01
     vertex  1.269842e-01 -1.723922e-01  6.027658e-01
     vertex  1.269842e-01 -1.372949e-01  5.968025e-01
   endloop
 endfacet
 facet normal -0.000000e+00  1.675062e-01  9.858710e-01
   outer loop
     vertex -1.587302e-02 -1.723922e-01  6.027658e-01
     vertex  1.269842e-01 -1.723922e-01  6.027658e-01
     vertex -1.587302e-02 -1.372949e-01  5.968025e-01
   endloop
 endfacet
 facet normal  0.000000e+00  5.607045e-02  9.984268e-01
   outer loop
     vertex -1.587302e-02 -2.079365e-01  6.047619e-01
     vertex  1.269842e-01 -1.723922e-01  6.027658e-01
     vertex -1.587302e-02 -1.723922e-01  6.027658e-01
   endloop
 endfacet
 facet normal -0.000000e+00  5.607045e-02  9.984268e-01
   outer loop
     vertex -1.587302e-02 -2.079365e-01  6.047619e-01
     vertex  1.269842e-01 -2.079365e-01  6.047619e-01
     vertex  1.269842e-01 -1.723922e-01  6.027658e-01
   endloop
 endfacet
 facet normal  0.000000e+00 -5.607045e-02  9.984268e-01
   outer loop
     vertex -1.587302e-02 -2.434807e-01  6.027658e-01
     vertex  1.269842e-01 -2.434807e-01  6.027658e-01
     vertex  1.269842e-01 -2.079365e-01  6.047619e-01
   endloop
 endfacet
 facet normal  0.000000e+00 -5.607045e-02  9.984268e-01
   outer loop
     vertex -1.587302e-02 -2.434807e-01  6.027658e-01
     vertex  1.269842e-01 -2.079365e-01  6.047619e-01
     vertex -1.587302e-02 -2.079365e-01  6.047619e-01
   endloop
 endfacet
 facet normal  0.000000e+00 -1.675062e-01  9.858710e-01
   outer loop
     vertex -1.587302e-02 -2.785780e-01  5.968025e-01
     vertex  1.269842e-01 -2.785780e-01  5.968025e-01
     vertex  1.269842e-01 -2.434807e-01  6.027658e-01
   endloop
 endfacet
 facet normal  0.000000e+00 -2.768355e-01  9.609173e-01
   outer loop
     vertex -1.587302e-02 -2.785780e-01  5.968025e-01
     vertex  1.269842e-01 -3.127869e-01  5.869471e-01
     vertex  1.269842e-01 -2.785780e-01  5.968025e-01
   endloop
 endfacet
 facet normal  0.000000e+00 -1.675062e-01  9.858710e-01
   outer loop
     vertex -1.587302e-02 -2.785780e-01  5.968025e-01
     vertex  1.269842e-01 -2.434807e-01  6.027658e-01
     vertex -1.587302e-02 -2.434807e-01  6.027658e-01
   endloop
 endfacet
 facet normal  0.000000e+00 -2.768355e-01  9.609173e-01
   outer loop
     vertex -1.587302e-02 -3.127869e-01  5.869471e-01
     vertex  1.269842e-01 -3.127869e-01  5.869471e-01
     vertex -1.587302e-02 -2.785780e-01  5.968025e-01
   endloop
 endfacet
 facet normal  0.000000e+00 -3.826834e-01  9.238795e-01
   outer loop
     vertex -1.587302e-02 -3.456773e-01  5.733234e-01
     vertex  1.269842e-01 -3.456773e-01  5.733234e-01
     vertex  1.269842e-01 -3.127869e-01  5.869471e-01
   endloop
 endfacet
 facet normal  0.000000e+00 -3.826834e-01  9.238795e-01
   outer loop
     vertex -1.587302e-02 -3.456773e-01  5.733234e-01
     vertex  1.269842e-01 -3.127869e-01  5.869471e-01
     vertex -1.587302e-02 -3.127869e-01  5.869471e-01
   endloop
 endfacet
 facet normal  0.000000e+00 -4.837189e-01  8.752234e-01
   outer loop
     vertex -1.587302e-02 -3.768355e-01  5.561029e-01
     vertex  1.269842e-01 -3.768355e-01  5.561029e-01
     vertex  1.269842e-01 -3.456773e-01  5.733234e-01
   endloop
 endfacet
 facet normal  0.000000e+00 -4.837189e-01  8.752234e-01
   outer loop
     vertex -1.587302e-02 -3.768355e-01  5.561029e-01
     vertex  1.269842e-01 -3.456773e-01  5.733234e-01
     vertex -1.587302e-02 -3.456773e-01  5.733234e-01
   endloop
 endfacet
 facet normal  0.000000e+00 -5.786713e-01  8.155609e-01
   outer loop
     vertex -1.587302e-02 -4.058697e-01  5.355021e-01
     vertex  1.269842e-01 -4.058697e-01  5.355021e-01
     vertex  1.269842e-01 -3.768355e-01  5.561029e-01
   endloop
 endfacet
 facet normal  0.000000e+00 -6.663466e-01  7.456422e-01
   outer loop
     vertex -1.587302e-02 -4.058697e-01  5.355021e-01
     vertex  1.269842e-01 -4.324148e-01  5.117799e-01
     vertex  1.269842e-01 -4.058697e-01  5.355021e-01
   endloop
 endfacet
 facet normal  0.000000e+00 -5.786713e-01  8.155609e-01
   outer loop
     vertex -1.587302e-02 -4.058697e-01  5.355021e-01
     vertex  1.269842e-01 -3.768355e-01  5.561029e-01
     vertex -1.587302e-02 -3.768355e-01  5.561029e-01
   endloop
 endfacet
 facet normal  0.000000e+00 -6.663466e-01  7.456422e-01
   outer loop
     vertex -1.587302e-02 -4.324148e-01  5.117799e-01
     vertex  1.269842e-01 -4.324148e-01  5.117799e-01
     vertex -1.587302e-02 -4.058697e-01  5.355021e-01
   endloop
 endfacet
 facet normal  0.000000e+00 -7.456421e-01  6.663466e-01
   outer loop
     vertex -1.587302e-02 -4.561369e-01  4.852349e-01
     vertex  1.269842e-01 -4.561369e-01  4.852349e-01
     vertex  1.269842e-01 -4.324148e-01  5.117799e-01
   endloop
 endfacet
 facet normal  0.000000e+00 -8.155609e-01  5.786713e-01
   outer loop
     vertex -1.587302e-02 -4.561369e-01  4.852349e-01
     vertex  1.269842e-01 -4.767378e-01  4.562007e-01
     vertex  1.269842e-01 -4.561369e-01  4.852349e-01
   endloop
 endfacet
 facet normal  0.000000e+00 -7.456421e-01  6.663466e-01
   outer loop
     vertex -1.587302e-02 -4.561369e-01  4.852349e-01
     vertex  1.269842e-01 -4.324148e-01  5.117799e-01
     vertex -1.587302e-02 -4.324148e-01  5.117799e-01
   endloop
 endfacet
 facet normal  0.000000e+00 -8.155609e-01  5.786713e-01
   outer loop
     vertex -1.587302e-02 -4.767378e-01  4.562007e-01
     vertex  1.269842e-01 -4.767378e-01  4.562007e-01
     vertex -1.587302e-02 -4.561369e-01  4.852349e-01
   endloop
 endfacet
 facet normal  0.000000e+00 -8.752234e-01  4.837189e-01
   outer loop
     vertex -1.587302e-02 -4.939583e-01  4.250425e-01
     vertex  1.269842e-01 -4.939583e-01  4.250425e-01
     vertex  1.269842e-01 -4.767378e-01  4.562007e-01
   endloop
 endfacet
 facet normal  0.000000e+00 -8.752234e-01  4.837189e-01
   outer loop
     vertex -1.587302e-02 -4.939583e-01  4.250425e-01
     vertex  1.269842e-01 -4.767378e-01  4.562007e-01
     vertex -1.587302e-02 -4.767378e-01  4.562007e-01
   endloop
 endfacet
 facet normal  0.000000e+00 -9.238795e-01  3.826835e-01
   outer loop
     vertex -1.587302e-02 -5.075819e-01  3.921521e-01
     vertex  1.269842e-01 -5.075819e-01  3.921521e-01
     vertex  1.269842e-01 -4.939583e-01  4.250425e-01
   endloop
 endfacet
 facet normal  0.000000e+00 -9.238795e-01  3.826835e-01
   outer loop
     vertex -1.587302e-02 -5.075819e-01  3.921521e-01
     vertex  1.269842e-01 -4.939583e-01  4.250425e-01
     vertex -1.587302e-02 -4.939583e-01  4.250425e-01
   endloop
 endfacet
 facet normal  0.000000e+00 -9.609173e-01  2.768355e-01
   outer loop
     vertex -1.587302e-02 -5.174374e-01  3.579432e-01
     vertex  1.269842e-01 -5.174374e-01  3.579432e-01
     vertex  1.269842e-01 -5.075819e-01  3.921521e-01
   endloop
 endfacet
 facet normal  0.000000e+00 -9.858710e-01  1.675063e-01
   outer loop
     vertex -1.587302e-02 -5.174374e-01  3.579432e-01
     vertex  1.269842e-01 -5.234006e-01  3.228459e-01
     vertex  1.269842e-01 -5.174374e-01  3.579432e-01
   endloop
 endfacet
 facet normal  0.000000e+00 -9.609173e-01  2.768355e-01
   outer loop
     vertex -1.587302e-02 -5.174374e-01  3.579432e-01
     vertex  1.269842e-01 -5.075819e-01  3.921521e-01
     vertex -1.587302e-02 -5.075819e-01  3.921521e-01
   endloop
 endfacet
 facet normal  0.000000e+00 -9.858710e-01  1.675063e-01
   outer loop
     vertex -1.587302e-02 -5.234006e-01  3.228459e-01
     vertex  1.269842e-01 -5.234006e-01  3.228459e-01
     vertex -1.587302e-02 -5.174374e-01  3.579432e-01
   endloop
 endfacet
 facet normal  0.000000e+00 -9.984268e-01  5.607049e-02
   outer loop
     vertex -1.587302e-02 -5.253968e-01  2.873016e-01
     vertex  1.269842e-01 -5.253968e-01  2.873016e-01
     vertex  1.269842e-01 -5.234006e-01  3.228459e-01
   endloop
 endfacet
 facet normal  0.000000e+00 -9.984268e-01  5.607049e-02
   outer loop
     vertex -1.587302e-02 -5.253968e-01  2.873016e-01
     vertex  1.269842e-01 -5.234006e-01  3.228459e-01
     vertex -1.587302e-02 -5.234006e-01  3.228459e-01
   endloop
 endfacet
 facet normal  0.000000e+00 -1.000000e+00 -6.725389e-16
   outer loop
     vertex -1.587302e-02 -5.253968e-01  1.222222e-01
     vertex  1.269842e-01 -5.253968e-01  2.873016e-01
     vertex -1.587302e-02 -5.253968e-01  2.873016e-01
   endloop
 endfacet
 facet normal  0.000000e+00 -1.000000e+00 -6.725389e-16
   outer loop
     vertex -1.587302e-02 -5.253968e-01  1.222222e-01
     vertex  1.269842e-01 -5.253968e-01  1.222222e-01
     vertex  1.269842e-01 -5.253968e-01  2.873016e-01
   endloop
 endfacet
 facet normal  0.000000e+00  0.000000e+00 -1.000000e+00
   outer loop
     vertex -1.587302e-02  1.095239e-01  1.222222e-01
     vertex  1.269842e-01 -5.253968e-01  1.222222e-01
     vertex -1.587302e-02 -5.253968e-01  1.222222e-01
   endloop
 endfacet
 facet normal  0.000000e+00  0.000000e+00 -1.000000e+00
   outer loop
     vertex -1.587302e-02  1.095239e-01  1.222222e-01
     vertex  1.269842e-01  1.095239e-01  1.222222e-01
     vertex  1.269842e-01 -5.253968e-01  1.222222e-01
   endloop
 endfacet
 facet normal  0.000000e+00  1.000000e+00 -8.406736e-17
   outer loop
     vertex -1.587302e-02  1.095239e-01  2.873016e-01
     vertex  1.269842e-01  1.095239e-01  1.222222e-01
     vertex -1.587302e-02  1.095239e-01  1.222222e-01
   endloop
 endfacet
 facet normal  0.000000e+00  1.000000e+00 -8.406736e-17
   outer loop
     vertex -1.587302e-02  1.095239e-01  2.873016e-01
     vertex  1.269842e-01  1.095239e-01  2.873016e-01
     vertex  1.269842e-01  1.095239e-01  1.222222e-01
   endloop
 endfacet
 facet normal  1.000000e+00  0.000000e+00  0.000000e+00
   outer loop
     vertex  1.269842e-01  1.095239e-01  2.873016e-01
     vertex  1.269842e-01 -5.253968e-01  1.222222e-01
     vertex  1.269842e-01  1.095239e-01  1.222222e-01
   endloop
 endfacet
 facet normal  1.000000e+00  0.000000e+00  0.000000e+00
   outer loop
     vertex  1.269842e-01  1.095239e-01  2.873016e-01
     vertex  1.269842e-01 -5.253968e-01  2.873016e-01
     vertex  1.269842e-01 -5.253968e-01  1.222222e-01
   endloop
 endfacet
 facet normal  1.000000e+00  0.000000e+00  0.000000e+00
   outer loop
     vertex  1.269842e-01  9.170904e-02  3.921521e-01
     vertex  1.269842e-01  1.075277e-01  3.228459e-01
     vertex  1.269842e-01  1.015645e-01  3.579432e-01
   endloop
 endfacet
 facet normal  1.000000e+00  0.000000e+00  0.000000e+00
   outer loop
     vertex  1.269842e-01  6.086487e-02  4.562007e-01
     vertex  1.269842e-01  9.170904e-02  3.921521e-01
     vertex  1.269842e-01  7.808540e-02  4.250425e-01
   endloop
 endfacet
 facet normal  1.000000e+00  0.000000e+00  0.000000e+00
   outer loop
     vertex  1.269842e-01  1.654188e-02  5.117799e-01
     vertex  1.269842e-01  1.095239e-01  2.873016e-01
     vertex  1.269842e-01  1.075277e-01  3.228459e-01
   endloop
 endfacet
 facet normal  1.000000e+00  0.000000e+00  0.000000e+00
   outer loop
     vertex  1.269842e-01  1.654188e-02  5.117799e-01
     vertex  1.269842e-01  6.086487e-02  4.562007e-01
     vertex  1.269842e-01  4.026401e-02  4.852349e-01
   endloop
 endfacet
 facet normal  1.000000e+00  0.000000e+00  0.000000e+00
   outer loop
     vertex  1.269842e-01  1.654188e-02  5.117799e-01
     vertex  1.269842e-01 -1.000319e-02  5.355021e-01
     vertex  1.269842e-01 -3.903739e-02  5.561029e-01
   endloop
 endfacet
 facet normal  1.000000e+00  0.000000e+00  0.000000e+00
   outer loop
     vertex  1.269842e-01  1.654188e-02  5.117799e-01
     vertex  1.269842e-01 -3.903739e-02  5.561029e-01
     vertex  1.269842e-01 -7.019559e-02  5.733234e-01
   endloop
 endfacet
 facet normal  1.000000e+00  0.000000e+00  0.000000e+00
   outer loop
     vertex  1.269842e-01  1.654188e-02  5.117799e-01
     vertex  1.269842e-01 -7.019559e-02  5.733234e-01
     vertex  1.269842e-01 -1.030860e-01  5.869471e-01
   endloop
 endfacet
 facet normal  1.000000e+00  0.000000e+00  0.000000e+00
   outer loop
     vertex  1.269842e-01  1.654188e-02  5.117799e-01
     vertex  1.269842e-01 -1.030860e-01  5.869471e-01
     vertex  1.269842e-01 -1.372949e-01  5.968025e-01
   endloop
 endfacet
 facet normal  1.000000e+00  0.000000e+00  0.000000e+00
   outer loop
     vertex  1.269842e-01  1.654188e-02  5.117799e-01
     vertex  1.269842e-01 -1.372949e-01  5.968025e-01
     vertex  1.269842e-01 -1.723922e-01  6.027658e-01
   endloop
 endfacet
 facet normal  1.000000e+00  0.000000e+00  0.000000e+00
   outer loop
     vertex  1.269842e-01  1.654188e-02  5.117799e-01
     vertex  1.269842e-01 -1.723922e-01  6.027658e-01
     vertex  1.269842e-01 -2.079365e-01  6.047619e-01
   endloop
 endfacet
 facet normal  1.000000e+00  0.000000e+00  0.000000e+00
   outer loop
     vertex  1.269842e-01  1.654188e-02  5.117799e-01
     vertex  1.269842e-01 -2.079365e-01  6.047619e-01
     vertex  1.269842e-01 -2.434807e-01  6.027658e-01
   endloop
 endfacet
 facet normal  1.000000e+00  0.000000e+00  0.000000e+00
   outer loop
     vertex  1.269842e-01  1.654188e-02  5.117799e-01
     vertex  1.269842e-01 -2.434807e-01  6.027658e-01
     vertex  1.269842e-01 -2.785780e-01  5.968025e-01
   endloop
 endfacet
 facet normal  1.000000e+00  0.000000e+00  0.000000e+00
   outer loop
     vertex  1.269842e-01  1.654188e-02  5.117799e-01
     vertex  1.269842e-01 -2.785780e-01  5.968025e-01
     vertex  1.269842e-01 -3.127869e-01  5.869471e-01
   endloop
 endfacet
 facet normal  1.000000e+00  0.000000e+00  0.000000e+00
   outer loop
     vertex  1.269842e-01  1.654188e-02  5.117799e-01
     vertex  1.269842e-01 -3.127869e-01  5.869471e-01
     vertex  1.269842e-01 -3.456773e-01  5.733234e-01
   endloop
 endfacet
 facet normal  1.000000e+00  0.000000e+00  0.000000e+00
   outer loop
     vertex  1.269842e-01  1.654188e-02  5.117799e-01
     vertex  1.269842e-01 -3.456773e-01  5.733234e-01
     vertex  1.269842e-01 -3.768355e-01  5.561029e-01
   endloop
 endfacet
 facet normal  1.000000e+00  0.000000e+00  0.000000e+00
   outer loop
     vertex  1.269842e-01  1.654188e-02  5.117799e-01
     vertex  1.269842e-01 -3.768355e-01  5.561029e-01
     vertex  1.269842e-01 -4.058697e-01  5.355021e-01
   endloop
 endfacet
 facet normal  1.000000e+00  0.000000e+00  0.000000e+00
   outer loop
     vertex  1.269842e-01  1.654188e-02  5.117799e-01
     vertex  1.269842e-01 -4.058697e-01  5.355021e-01
     vertex  1.269842e-01 -4.324148e-01  5.117799e-01
   endloop
 endfacet
 facet normal  1.000000e+00  0.000000e+00  0.000000e+00
   outer loop
     vertex  1.269842e-01  1.654188e-02  5.117799e-01
     vertex  1.269842e-01 -4.324148e-01  5.117799e-01
     vertex  1.269842e-01 -4.561369e-01  4.852349e-01
   endloop
 endfacet
 facet normal  1.000000e+00  0.000000e+00  0.000000e+00
   outer loop
     vertex  1.269842e-01  1.654188e-02  5.117799e-01
     vertex  1.269842e-01 -4.561369e-01  4.852349e-01
     vertex  1.269842e-01 -4.767378e-01  4.562007e-01
   endloop
 endfacet
 facet normal  1.000000e+00  0.000000e+00  0.000000e+00
   outer loop
     vertex  1.269842e-01  1.654188e-02  5.117799e-01
     vertex  1.269842e-01 -4.767378e-01  4.562007e-01
     vertex  1.269842e-01 -4.939583e-01  4.250425e-01
   endloop
 endfacet
 facet normal  1.000000e+00  0.000000e+00  0.000000e+00
   outer loop
     vertex  1.269842e-01  1.654188e-02  5.117799e-01
     vertex  1.269842e-01 -4.939583e-01  4.250425e-01
     vertex  1.269842e-01 -5.075819e-01  3.921521e-01
   endloop
 endfacet
 facet normal  1.000000e+00  0.000000e+00  0.000000e+00
   outer loop
     vertex  1.269842e-01  1.654188e-02  5.117799e-01
     vertex  1.269842e-01 -5.075819e-01  3.921521e-01
     vertex  1.269842e-01 -5.174374e-01  3.579432e-01
   endloop
 endfacet
 facet normal  1.000000e+00  0.000000e+00  0.000000e+00
   outer loop
     vertex  1.269842e-01  1.654188e-02  5.117799e-01
     vertex  1.269842e-01 -5.174374e-01  3.579432e-01
     vertex  1.269842e-01 -5.234006e-01  3.228459e-01
   endloop
 endfacet
 facet normal  1.000000e+00  0.000000e+00  0.000000e+00
   outer loop
     vertex  1.269842e-01  1.654188e-02  5.117799e-01
     vertex  1.269842e-01 -5.234006e-01  3.228459e-01
     vertex  1.269842e-01 -5.253968e-01  2.873016e-01
   endloop
 endfacet
 facet normal  1.000000e+00  0.000000e+00  0.000000e+00
   outer loop
     vertex  1.269842e-01  1.654188e-02  5.117799e-01
     vertex  1.269842e-01 -5.253968e-01  2.873016e-01
     vertex  1.269842e-01  1.095239e-01  2.873016e-01
   endloop
 endfacet
 facet normal  1.000000e+00  0.000000e+00  0.000000e+00
   outer loop
     vertex  1.269842e-01  1.654188e-02  5.117799e-01
     vertex  1.269842e-01  1.075277e-01  3.228459e-01
     vertex  1.269842e-01  9.170904e-02  3.921521e-01
   endloop
 endfacet
 facet normal  1.000000e+00  0.000000e+00  0.000000e+00
   outer loop
     vertex  1.269842e-01  1.654188e-02  5.117799e-01
     vertex  1.269842e-01  9.170904e-02  3.921521e-01
     vertex  1.269842e-01  6.086487e-02  4.562007e-01
   endloop
 endfacet
endsolid
