solid 
 facet normal  0.000000e+00  0.000000e+00 -1.000000e+00
   outer loop
     vertex -1.587302e-02  7.253969e-01 -1.043915e+00
     vertex  6.000000e-08 -8.830687e-01 -1.043915e+00
     vertex -1.587302e-02 -8.830687e-01 -1.043915e+00
   endloop
 endfacet
 facet normal  0.000000e+00  0.000000e+00 -1.000000e+00
   outer loop
     vertex -1.587302e-02  7.253969e-01 -1.043915e+00
     vertex  6.000000e-08  7.253969e-01 -1.043915e+00
     vertex  6.000000e-08 -8.830687e-01 -1.043915e+00
   endloop
 endfacet
 facet normal  0.000000e+00 -1.000000e+00  0.000000e+00
   outer loop
     vertex -1.587302e-02 -8.830687e-01 -1.043915e+00
     vertex  6.000000e-08 -8.830687e-01  8.862434e-01
     vertex -1.587302e-02 -8.830687e-01  8.862434e-01
   endloop
 endfacet
 facet normal  0.000000e+00 -1.000000e+00  0.000000e+00
   outer loop
     vertex -1.587302e-02 -8.830687e-01 -1.043915e+00
     vertex  6.000000e-08 -8.830687e-01 -1.043915e+00
     vertex  6.000000e-08 -8.830687e-01  8.862434e-01
   endloop
 endfacet
 facet normal  0.000000e+00  1.000000e+00  0.000000e+00
   outer loop
     vertex -1.587302e-02  7.253969e-01  8.862434e-01
     vertex  6.000000e-08  7.253969e-01 -1.043915e+00
     vertex -1.587302e-02  7.253969e-01 -1.043915e+00
   endloop
 endfacet
 facet normal -0.000000e+00  1.000000e+00  0.000000e+00
   outer loop
     vertex -1.587302e-02  7.253969e-01  8.862434e-01
     vertex  6.000000e-08  7.253969e-01  8.862434e-01
     vertex  6.000000e-08  7.253969e-01 -1.043915e+00
   endloop
 endfacet
 facet normal  0.000000e+00 -0.000000e+00 -1.000000e+00
   outer loop
     vertex -1.587302e-02  7.253969e-01 -1.043915e+00
     vertex -1.587302e-02 -8.830687e-01 -1.043915e+00
     vertex -6.349206e-02 -8.830687e-01 -1.043915e+00
   endloop
 endfacet
 facet normal -0.000000e+00  0.000000e+00 -1.000000e+00
   outer loop
     vertex -1.587302e-02  7.253969e-01 -1.043915e+00
     vertex -6.349206e-02 -8.830687e-01 -1.043915e+00
     vertex -6.349206e-02  7.253969e-01 -1.043915e+00
   endloop
 endfacet
 facet normal  1.000000e+00  0.000000e+00  0.000000e+00
   outer loop
     vertex  6.000000e-08  7.253969e-01 -1.043915e+00
     vertex  6.000000e-08 -7.476190e-01  5.802466e-02
     vertex  6.000000e-08 -8.830687e-01 -1.043915e+00
   endloop
 endfacet
 facet normal  1.000000e+00  0.000000e+00  0.000000e+00
   outer loop
     vertex  6.000000e-08 -8.830687e-01  8.862434e-01
     vertex  6.000000e-08 -7.476190e-01  5.802466e-02
     vertex  6.000000e-08 -7.476190e-01  1.455027e-01
   endloop
 endfacet
 facet normal  1.000000e+00  0.000000e+00  0.000000e+00
   outer loop
     vertex  6.000000e-08  6.082893e-01  5.802466e-02
     vertex  6.000000e-08 -7.476190e-01  5.802466e-02
     vertex  6.000000e-08  7.253969e-01 -1.043915e+00
   endloop
 endfacet
 facet normal  1.000000e+00  0.000000e+00  0.000000e+00
   outer loop
     vertex  6.000000e-08  7.253969e-01  8.862434e-01
     vertex  6.000000e-08 -7.476190e-01  1.455027e-01
     vertex  6.000000e-08  6.082893e-01  1.455027e-01
   endloop
 endfacet
 facet normal  1.000000e+00  0.000000e+00  0.000000e+00
   outer loop
     vertex  6.000000e-08  7.253969e-01  8.862434e-01
     vertex  6.000000e-08  6.082893e-01  1.455027e-01
     vertex  6.000000e-08  6.082893e-01  5.802466e-02
   endloop
 endfacet
 facet normal  1.000000e+00  0.000000e+00  0.000000e+00
   outer loop
     vertex  6.000000e-08  7.253969e-01  8.862434e-01
     vertex  6.000000e-08 -8.830687e-01  8.862434e-01
     vertex  6.000000e-08 -7.476190e-01  1.455027e-01
   endloop
 endfacet
 facet normal  1.000000e+00  0.000000e+00 -0.000000e+00
   outer loop
     vertex  6.000000e-08  7.253969e-01 -1.043915e+00
     vertex  6.000000e-08  7.253969e-01  8.862434e-01
     vertex  6.000000e-08  6.082893e-01  5.802466e-02
   endloop
 endfacet
 facet normal  1.000000e+00  0.000000e+00  0.000000e+00
   outer loop
     vertex  6.000000e-08 -8.830687e-01  8.862434e-01
     vertex  6.000000e-08 -8.830687e-01 -1.043915e+00
     vertex  6.000000e-08 -7.476190e-01  5.802466e-02
   endloop
 endfacet
 facet normal  0.000000e+00  0.000000e+00  1.000000e+00
   outer loop
     vertex -1.587302e-02 -8.830687e-01  8.862434e-01
     vertex  6.000000e-08  7.253969e-01  8.862434e-01
     vertex -1.587302e-02  7.253969e-01  8.862434e-01
   endloop
 endfacet
 facet normal  0.000000e+00  0.000000e+00  1.000000e+00
   outer loop
     vertex -1.587302e-02 -8.830687e-01  8.862434e-01
     vertex  6.000000e-08 -8.830687e-01  8.862434e-01
     vertex  6.000000e-08  7.253969e-01  8.862434e-01
   endloop
 endfacet
 facet normal  0.000000e+00 -1.000000e+00  0.000000e+00
   outer loop
     vertex -1.587302e-02 -8.830687e-01 -1.043915e+00
     vertex -1.587302e-02 -8.830687e-01  8.862434e-01
     vertex -6.349206e-02 -8.830687e-01  8.862434e-01
   endloop
 endfacet
 facet normal  0.000000e+00 -1.000000e+00  0.000000e+00
   outer loop
     vertex -1.587302e-02 -8.830687e-01 -1.043915e+00
     vertex -6.349206e-02 -8.830687e-01  8.862434e-01
     vertex -6.349206e-02 -8.830687e-01 -1.043915e+00
   endloop
 endfacet
 facet normal  0.000000e+00  1.000000e+00  0.000000e+00
   outer loop
     vertex -1.587302e-02  7.253969e-01  8.862434e-01
     vertex -1.587302e-02  7.253969e-01 -1.043915e+00
     vertex -6.349206e-02  7.253969e-01 -1.043915e+00
   endloop
 endfacet
 facet normal  0.000000e+00  1.000000e+00  0.000000e+00
   outer loop
     vertex -1.587302e-02  7.253969e-01  8.862434e-01
     vertex -6.349206e-02  7.253969e-01 -1.043915e+00
     vertex -6.349206e-02  7.253969e-01  8.862434e-01
   endloop
 endfacet
 facet normal -1.000000e+00  0.000000e+00 -0.000000e+00
   outer loop
     vertex -6.349206e-02  7.253969e-01  8.862434e-01
     vertex -6.349206e-02  7.253969e-01 -1.043915e+00
     vertex -6.349206e-02 -8.830687e-01 -1.043915e+00
   endloop
 endfacet
 facet normal -1.000000e+00 -0.000000e+00  0.000000e+00
   outer loop
     vertex -6.349206e-02  7.253969e-01  8.862434e-01
     vertex -6.349206e-02 -8.830687e-01 -1.043915e+00
     vertex -6.349206e-02 -8.830687e-01  8.862434e-01
   endloop
 endfacet
 facet normal  0.000000e+00  0.000000e+00  1.000000e+00
   outer loop
     vertex  6.000000e-08  6.082893e-01  5.802466e-02
     vertex -3.174597e-02 -7.476190e-01  5.802466e-02
     vertex  6.000000e-08 -7.476190e-01  5.802466e-02
   endloop
 endfacet
 facet normal  0.000000e+00  0.000000e+00  1.000000e+00
   outer loop
     vertex  6.000000e-08  6.082893e-01  5.802466e-02
     vertex -3.174597e-02  6.082893e-01  5.802466e-02
     vertex -3.174597e-02 -7.476190e-01  5.802466e-02
   endloop
 endfacet
 facet normal  0.000000e+00 -1.000000e+00 -0.000000e+00
   outer loop
     vertex  6.000000e-08  6.082893e-01  1.455027e-01
     vertex -3.174597e-02  6.082893e-01  5.802466e-02
     vertex  6.000000e-08  6.082893e-01  5.802466e-02
   endloop
 endfacet
 facet normal -0.000000e+00 -1.000000e+00  0.000000e+00
   outer loop
     vertex  6.000000e-08  6.082893e-01  1.455027e-01
     vertex -3.174597e-02  6.082893e-01  1.455027e-01
     vertex -3.174597e-02  6.082893e-01  5.802466e-02
   endloop
 endfacet
 facet normal  0.000000e+00  0.000000e+00 -1.000000e+00
   outer loop
     vertex  6.000000e-08 -7.476190e-01  1.455027e-01
     vertex -3.174597e-02  6.082893e-01  1.455027e-01
     vertex  6.000000e-08  6.082893e-01  1.455027e-01
   endloop
 endfacet
 facet normal  0.000000e+00  0.000000e+00 -1.000000e+00
   outer loop
     vertex  6.000000e-08 -7.476190e-01  1.455027e-01
     vertex -3.174597e-02 -7.476190e-01  1.455027e-01
     vertex -3.174597e-02  6.082893e-01  1.455027e-01
   endloop
 endfacet
 facet normal  0.000000e+00  1.000000e+00 -0.000000e+00
   outer loop
     vertex  6.000000e-08 -7.476190e-01  5.802466e-02
     vertex -3.174597e-02 -7.476190e-01  1.455027e-01
     vertex  6.000000e-08 -7.476190e-01  1.455027e-01
   endloop
 endfacet
 facet normal  0.000000e+00  1.000000e+00  0.000000e+00
   outer loop
     vertex  6.000000e-08 -7.476190e-01  5.802466e-02
     vertex -3.174597e-02 -7.476190e-01  5.802466e-02
     vertex -3.174597e-02 -7.476190e-01  1.455027e-01
   endloop
 endfacet
 facet normal  0.000000e+00 -0.000000e+00  1.000000e+00
   outer loop
     vertex -1.587302e-02 -8.830687e-01  8.862434e-01
     vertex -1.587302e-02  7.253969e-01  8.862434e-01
     vertex -6.349206e-02  7.253969e-01  8.862434e-01
   endloop
 endfacet
 facet normal  0.000000e+00  0.000000e+00  1.000000e+00
   outer loop
     vertex -1.587302e-02 -8.830687e-01  8.862434e-01
     vertex -6.349206e-02  7.253969e-01  8.862434e-01
     vertex -6.349206e-02 -8.830687e-01  8.862434e-01
   endloop
 endfacet
 facet normal  1.000000e+00  0.000000e+00  0.000000e+00
   outer loop
     vertex -3.174597e-02  6.082893e-01  1.455027e-01
     vertex -3.174597e-02 -7.476190e-01  5.802466e-02
     vertex -3.174597e-02  6.082893e-01  5.802466e-02
   endloop
 endfacet
 facet normal  1.000000e+00  0.000000e+00  0.000000e+00
   outer loop
     vertex -3.174597e-02  6.082893e-01  1.455027e-01
     vertex -3.174597e-02 -7.476190e-01  1.455027e-01
     vertex -3.174597e-02 -7.476190e-01  5.802466e-02
   endloop
 endfacet
endsolid
