solid 
 facet normal  0.000000e+00 -1.000000e+00  0.000000e+00
   outer loop
     vertex  9.211640e-01 -4.708993e-02 -1.587302e-02
     vertex -2.698421e-02 -4.708993e-02  2.539683e-01
     vertex -2.698421e-02 -4.708993e-02 -1.587302e-02
   endloop
 endfacet
 facet normal  0.000000e+00 -1.000000e+00  0.000000e+00
   outer loop
     vertex  9.211640e-01 -4.708993e-02 -1.587302e-02
     vertex  9.211640e-01 -4.708993e-02  2.539683e-01
     vertex -2.698421e-02 -4.708993e-02  2.539683e-01
   endloop
 endfacet
 facet normal -1.000000e+00  2.755246e-15  0.000000e+00
   outer loop
     vertex -2.698421e-02  4.269842e-01 -1.587302e-02
     vertex -2.698421e-02  2.821745e-01  2.539683e-01
     vertex -2.698421e-02  4.269842e-01  2.539683e-01
   endloop
 endfacet
 facet normal -1.000000e+00 -1.504737e-16 -1.559348e-15
   outer loop
     vertex -2.698421e-02  9.771984e-02  2.539683e-01
     vertex -2.698421e-02  2.821745e-01  2.539683e-01
     vertex -2.698421e-02  4.269842e-01 -1.587302e-02
   endloop
 endfacet
 facet normal -1.000000e+00 -2.563576e-15  0.000000e+00
   outer loop
     vertex -2.698421e-02 -4.708993e-02 -1.587302e-02
     vertex -2.698421e-02 -4.708993e-02  2.539683e-01
     vertex -2.698421e-02  9.771984e-02  2.539683e-01
   endloop
 endfacet
 facet normal -1.000000e+00  0.000000e+00 -1.375738e-15
   outer loop
     vertex -2.698421e-02 -4.708993e-02 -1.587302e-02
     vertex -2.698421e-02  9.771984e-02  2.539683e-01
     vertex -2.698421e-02  4.269842e-01 -1.587302e-02
   endloop
 endfacet
 facet normal  1.000000e+00  0.000000e+00  0.000000e+00
   outer loop
     vertex  9.211640e-01  4.269842e-01 -1.587302e-02
     vertex  9.211640e-01 -4.708993e-02  2.539683e-01
     vertex  9.211640e-01 -4.708993e-02 -1.587302e-02
   endloop
 endfacet
 facet normal  1.000000e+00  0.000000e+00 -0.000000e+00
   outer loop
     vertex  9.211640e-01  4.269842e-01 -1.587302e-02
     vertex  9.211640e-01  4.269842e-01  2.539683e-01
     vertex  9.211640e-01 -4.708993e-02  2.539683e-01
   endloop
 endfacet
 facet normal -0.000000e+00 -1.000000e+00  0.000000e+00
   outer loop
     vertex  9.211640e-01 -4.708993e-02 -1.587302e-02
     vertex -2.698421e-02 -4.708993e-02 -1.587302e-02
     vertex -2.698421e-02 -4.708993e-02 -3.174603e-02
   endloop
 endfacet
 facet normal  0.000000e+00 -1.000000e+00 -0.000000e+00
   outer loop
     vertex  9.211640e-01 -4.708993e-02 -1.587302e-02
     vertex -2.698421e-02 -4.708993e-02 -3.174603e-02
     vertex  9.211640e-01 -4.708993e-02 -3.174603e-02
   endloop
 endfacet
 facet normal  0.000000e+00  0.000000e+00  1.000000e+00
   outer loop
     vertex  3.968525e-03  4.579267e-02  2.539683e-01
     vertex -2.698421e-02 -4.708993e-02  2.539683e-01
     vertex  2.423222e-02  2.327842e-02  2.539683e-01
   endloop
 endfacet
 facet normal  0.000000e+00  0.000000e+00  1.000000e+00
   outer loop
     vertex  4.724755e-02  3.585684e-03  2.539683e-01
     vertex  2.423222e-02  2.327842e-02  2.539683e-01
     vertex -2.698421e-02 -4.708993e-02  2.539683e-01
   endloop
 endfacet
 facet normal  0.000000e+00  0.000000e+00  1.000000e+00
   outer loop
     vertex -1.320051e-02  7.074729e-02  2.539683e-01
     vertex -2.698421e-02 -4.708993e-02  2.539683e-01
     vertex  3.968525e-03  4.579267e-02  2.539683e-01
   endloop
 endfacet
 facet normal  0.000000e+00  0.000000e+00  1.000000e+00
   outer loop
     vertex  7.262488e-02 -1.295216e-02  2.539683e-01
     vertex  4.724755e-02  3.585684e-03  2.539683e-01
     vertex -2.698421e-02 -4.708993e-02  2.539683e-01
   endloop
 endfacet
 facet normal  0.000000e+00  0.000000e+00  1.000000e+00
   outer loop
     vertex -2.698421e-02  9.771984e-02  2.539683e-01
     vertex -2.698421e-02 -4.708993e-02  2.539683e-01
     vertex -1.320051e-02  7.074729e-02  2.539683e-01
   endloop
 endfacet
 facet normal  0.000000e+00  0.000000e+00  1.000000e+00
   outer loop
     vertex  9.993460e-02 -2.605513e-02  2.539683e-01
     vertex  7.262488e-02 -1.295216e-02  2.539683e-01
     vertex -2.698421e-02 -4.708993e-02  2.539683e-01
   endloop
 endfacet
 facet normal  0.000000e+00  0.000000e+00  1.000000e+00
   outer loop
     vertex  1.287144e-01 -3.550143e-02  2.539683e-01
     vertex  9.993460e-02 -2.605513e-02  2.539683e-01
     vertex -2.698421e-02 -4.708993e-02  2.539683e-01
   endloop
 endfacet
 facet normal  0.000000e+00  0.000000e+00  1.000000e+00
   outer loop
     vertex  1.584770e-01 -4.113114e-02  2.539683e-01
     vertex  1.287144e-01 -3.550143e-02  2.539683e-01
     vertex -2.698421e-02 -4.708993e-02  2.539683e-01
   endloop
 endfacet
 facet normal  0.000000e+00  0.000000e+00  1.000000e+00
   outer loop
     vertex  1.887187e-01 -4.284894e-02  2.539683e-01
     vertex  1.584770e-01 -4.113114e-02  2.539683e-01
     vertex -2.698421e-02 -4.708993e-02  2.539683e-01
   endloop
 endfacet
 facet normal  0.000000e+00  0.000000e+00  1.000000e+00
   outer loop
     vertex -2.698421e-02  4.269842e-01  2.539683e-01
     vertex  3.968525e-03  3.341017e-01  2.539683e-01
     vertex  2.423222e-02  3.566159e-01  2.539683e-01
   endloop
 endfacet
 facet normal  0.000000e+00  0.000000e+00  1.000000e+00
   outer loop
     vertex -2.698421e-02  4.269842e-01  2.539683e-01
     vertex -1.320051e-02  3.091470e-01  2.539683e-01
     vertex  3.968525e-03  3.341017e-01  2.539683e-01
   endloop
 endfacet
 facet normal  0.000000e+00  0.000000e+00  1.000000e+00
   outer loop
     vertex -2.698421e-02  4.269842e-01  2.539683e-01
     vertex -2.698421e-02  2.821745e-01  2.539683e-01
     vertex -1.320051e-02  3.091470e-01  2.539683e-01
   endloop
 endfacet
 facet normal  0.000000e+00  0.000000e+00  1.000000e+00
   outer loop
     vertex  4.724755e-02  3.763086e-01  2.539683e-01
     vertex -2.698421e-02  4.269842e-01  2.539683e-01
     vertex  2.423222e-02  3.566159e-01  2.539683e-01
   endloop
 endfacet
 facet normal  0.000000e+00  0.000000e+00  1.000000e+00
   outer loop
     vertex  7.262488e-02  3.928465e-01  2.539683e-01
     vertex -2.698421e-02  4.269842e-01  2.539683e-01
     vertex  4.724755e-02  3.763086e-01  2.539683e-01
   endloop
 endfacet
 facet normal  0.000000e+00  0.000000e+00  1.000000e+00
   outer loop
     vertex  9.993460e-02  4.059495e-01  2.539683e-01
     vertex -2.698421e-02  4.269842e-01  2.539683e-01
     vertex  7.262488e-02  3.928465e-01  2.539683e-01
   endloop
 endfacet
 facet normal  0.000000e+00  0.000000e+00  1.000000e+00
   outer loop
     vertex  1.287144e-01  4.153958e-01  2.539683e-01
     vertex -2.698421e-02  4.269842e-01  2.539683e-01
     vertex  9.993460e-02  4.059495e-01  2.539683e-01
   endloop
 endfacet
 facet normal  0.000000e+00  0.000000e+00  1.000000e+00
   outer loop
     vertex  1.584770e-01  4.210255e-01  2.539683e-01
     vertex -2.698421e-02  4.269842e-01  2.539683e-01
     vertex  1.287144e-01  4.153958e-01  2.539683e-01
   endloop
 endfacet
 facet normal  0.000000e+00  0.000000e+00  1.000000e+00
   outer loop
     vertex  9.211640e-01 -4.708993e-02  2.539683e-01
     vertex  2.485918e-01 -3.449924e-02  2.539683e-01
     vertex  2.189274e-01 -4.062576e-02  2.539683e-01
   endloop
 endfacet
 facet normal  0.000000e+00  0.000000e+00  1.000000e+00
   outer loop
     vertex  9.211640e-01 -4.708993e-02  2.539683e-01
     vertex  2.772096e-01 -2.457309e-02  2.539683e-01
     vertex  2.485918e-01 -3.449924e-02  2.539683e-01
   endloop
 endfacet
 facet normal  0.000000e+00  0.000000e+00  1.000000e+00
   outer loop
     vertex  9.211640e-01 -4.708993e-02  2.539683e-01
     vertex  3.042965e-01 -1.101535e-02  2.539683e-01
     vertex  2.772096e-01 -2.457309e-02  2.539683e-01
   endloop
 endfacet
 facet normal  0.000000e+00  0.000000e+00  1.000000e+00
   outer loop
     vertex  9.211640e-01 -4.708993e-02  2.539683e-01
     vertex  3.293938e-01  5.944465e-03  2.539683e-01
     vertex  3.042965e-01 -1.101535e-02  2.539683e-01
   endloop
 endfacet
 facet normal  0.000000e+00  0.000000e+00  1.000000e+00
   outer loop
     vertex  9.211640e-01 -4.708993e-02  2.539683e-01
     vertex  3.520766e-01  2.601924e-02  2.539683e-01
     vertex  3.293938e-01  5.944465e-03  2.539683e-01
   endloop
 endfacet
 facet normal  0.000000e+00  0.000000e+00  1.000000e+00
   outer loop
     vertex  9.211640e-01 -4.708993e-02  2.539683e-01
     vertex  3.719611e-01  4.886914e-02  2.539683e-01
     vertex  3.520766e-01  2.601924e-02  2.539683e-01
   endloop
 endfacet
 facet normal  0.000000e+00  0.000000e+00  1.000000e+00
   outer loop
     vertex  9.211640e-01 -4.708993e-02  2.539683e-01
     vertex  3.887105e-01  7.410732e-02  2.539683e-01
     vertex  3.719611e-01  4.886914e-02  2.539683e-01
   endloop
 endfacet
 facet normal  0.000000e+00  0.000000e+00  1.000000e+00
   outer loop
     vertex  9.211640e-01 -4.708993e-02  2.539683e-01
     vertex  4.020413e-01  1.013066e-01  2.539683e-01
     vertex  3.887105e-01  7.410732e-02  2.539683e-01
   endloop
 endfacet
 facet normal  0.000000e+00  0.000000e+00  1.000000e+00
   outer loop
     vertex  9.211640e-01 -4.708993e-02  2.539683e-01
     vertex  4.117279e-01  1.300064e-01  2.539683e-01
     vertex  4.020413e-01  1.013066e-01  2.539683e-01
   endloop
 endfacet
 facet normal  0.000000e+00  0.000000e+00  1.000000e+00
   outer loop
     vertex  9.211640e-01 -4.708993e-02  2.539683e-01
     vertex  4.176062e-01  1.597209e-01  2.539683e-01
     vertex  4.117279e-01  1.300064e-01  2.539683e-01
   endloop
 endfacet
 facet normal  0.000000e+00  0.000000e+00  1.000000e+00
   outer loop
     vertex  9.211640e-01 -4.708993e-02  2.539683e-01
     vertex  4.195767e-01  1.899472e-01  2.539683e-01
     vertex  4.176062e-01  1.597209e-01  2.539683e-01
   endloop
 endfacet
 facet normal  0.000000e+00  0.000000e+00  1.000000e+00
   outer loop
     vertex  9.211640e-01  4.269842e-01  2.539683e-01
     vertex  4.176062e-01  2.201734e-01  2.539683e-01
     vertex  4.195767e-01  1.899472e-01  2.539683e-01
   endloop
 endfacet
 facet normal  0.000000e+00  0.000000e+00  1.000000e+00
   outer loop
     vertex  9.211640e-01  4.269842e-01  2.539683e-01
     vertex  4.117279e-01  2.498880e-01  2.539683e-01
     vertex  4.176062e-01  2.201734e-01  2.539683e-01
   endloop
 endfacet
 facet normal  0.000000e+00  0.000000e+00  1.000000e+00
   outer loop
     vertex  9.211640e-01  4.269842e-01  2.539683e-01
     vertex  4.020413e-01  2.785878e-01  2.539683e-01
     vertex  4.117279e-01  2.498880e-01  2.539683e-01
   endloop
 endfacet
 facet normal  0.000000e+00  0.000000e+00  1.000000e+00
   outer loop
     vertex  9.211640e-01  4.269842e-01  2.539683e-01
     vertex  3.887105e-01  3.057870e-01  2.539683e-01
     vertex  4.020413e-01  2.785878e-01  2.539683e-01
   endloop
 endfacet
 facet normal  0.000000e+00  0.000000e+00  1.000000e+00
   outer loop
     vertex  9.211640e-01  4.269842e-01  2.539683e-01
     vertex  3.719611e-01  3.310252e-01  2.539683e-01
     vertex  3.887105e-01  3.057870e-01  2.539683e-01
   endloop
 endfacet
 facet normal  0.000000e+00  0.000000e+00  1.000000e+00
   outer loop
     vertex  9.211640e-01  4.269842e-01  2.539683e-01
     vertex  3.520766e-01  3.538751e-01  2.539683e-01
     vertex  3.719611e-01  3.310252e-01  2.539683e-01
   endloop
 endfacet
 facet normal  0.000000e+00  0.000000e+00  1.000000e+00
   outer loop
     vertex  9.211640e-01  4.269842e-01  2.539683e-01
     vertex  3.293938e-01  3.739499e-01  2.539683e-01
     vertex  3.520766e-01  3.538751e-01  2.539683e-01
   endloop
 endfacet
 facet normal  0.000000e+00  0.000000e+00  1.000000e+00
   outer loop
     vertex  9.211640e-01  4.269842e-01  2.539683e-01
     vertex  3.042965e-01  3.909097e-01  2.539683e-01
     vertex  3.293938e-01  3.739499e-01  2.539683e-01
   endloop
 endfacet
 facet normal  0.000000e+00  0.000000e+00  1.000000e+00
   outer loop
     vertex  9.211640e-01  4.269842e-01  2.539683e-01
     vertex  4.195767e-01  1.899472e-01  2.539683e-01
     vertex  9.211640e-01 -4.708993e-02  2.539683e-01
   endloop
 endfacet
 facet normal  0.000000e+00  0.000000e+00  1.000000e+00
   outer loop
     vertex -2.698421e-02 -4.708993e-02  2.539683e-01
     vertex  9.211640e-01 -4.708993e-02  2.539683e-01
     vertex  1.887187e-01 -4.284894e-02  2.539683e-01
   endloop
 endfacet
 facet normal -0.000000e+00  0.000000e+00  1.000000e+00
   outer loop
     vertex  1.887187e-01 -4.284894e-02  2.539683e-01
     vertex  9.211640e-01 -4.708993e-02  2.539683e-01
     vertex  2.189274e-01 -4.062576e-02  2.539683e-01
   endloop
 endfacet
 facet normal  0.000000e+00  0.000000e+00  1.000000e+00
   outer loop
     vertex  9.211640e-01  4.269842e-01  2.539683e-01
     vertex -2.698421e-02  4.269842e-01  2.539683e-01
     vertex  1.887187e-01  4.227433e-01  2.539683e-01
   endloop
 endfacet
 facet normal  0.000000e+00  0.000000e+00  1.000000e+00
   outer loop
     vertex  1.887187e-01  4.227433e-01  2.539683e-01
     vertex -2.698421e-02  4.269842e-01  2.539683e-01
     vertex  1.584770e-01  4.210255e-01  2.539683e-01
   endloop
 endfacet
 facet normal  0.000000e+00  0.000000e+00  1.000000e+00
   outer loop
     vertex  9.211640e-01  4.269842e-01  2.539683e-01
     vertex  1.887187e-01  4.227433e-01  2.539683e-01
     vertex  2.189274e-01  4.205201e-01  2.539683e-01
   endloop
 endfacet
 facet normal  0.000000e+00  0.000000e+00  1.000000e+00
   outer loop
     vertex  9.211640e-01  4.269842e-01  2.539683e-01
     vertex  2.189274e-01  4.205201e-01  2.539683e-01
     vertex  2.485918e-01  4.143936e-01  2.539683e-01
   endloop
 endfacet
 facet normal  0.000000e+00  0.000000e+00  1.000000e+00
   outer loop
     vertex  9.211640e-01  4.269842e-01  2.539683e-01
     vertex  2.485918e-01  4.143936e-01  2.539683e-01
     vertex  2.772096e-01  4.044674e-01  2.539683e-01
   endloop
 endfacet
 facet normal  0.000000e+00  0.000000e+00  1.000000e+00
   outer loop
     vertex  9.211640e-01  4.269842e-01  2.539683e-01
     vertex  2.772096e-01  4.044674e-01  2.539683e-01
     vertex  3.042965e-01  3.909097e-01  2.539683e-01
   endloop
 endfacet
 facet normal  0.000000e+00  1.000000e+00  0.000000e+00
   outer loop
     vertex -2.698421e-02  4.269842e-01 -1.587302e-02
     vertex  9.211640e-01  4.269842e-01  2.539683e-01
     vertex  9.211640e-01  4.269842e-01 -1.587302e-02
   endloop
 endfacet
 facet normal  0.000000e+00  1.000000e+00  0.000000e+00
   outer loop
     vertex -2.698421e-02  4.269842e-01 -1.587302e-02
     vertex -2.698421e-02  4.269842e-01  2.539683e-01
     vertex  9.211640e-01  4.269842e-01  2.539683e-01
   endloop
 endfacet
 facet normal -1.000000e+00  0.000000e+00  0.000000e+00
   outer loop
     vertex -2.698421e-02 -4.708993e-02 -1.587302e-02
     vertex -2.698421e-02  4.269842e-01 -1.587302e-02
     vertex -2.698421e-02  4.269842e-01 -3.174603e-02
   endloop
 endfacet
 facet normal -1.000000e+00  0.000000e+00  0.000000e+00
   outer loop
     vertex -2.698421e-02 -4.708993e-02 -1.587302e-02
     vertex -2.698421e-02  4.269842e-01 -3.174603e-02
     vertex -2.698421e-02 -4.708993e-02 -3.174603e-02
   endloop
 endfacet
 facet normal  0.000000e+00  0.000000e+00 -1.000000e+00
   outer loop
     vertex -2.698421e-02  9.771984e-02  2.539683e-01
     vertex -3.624744e-02  2.567298e-01  2.539683e-01
     vertex -2.698421e-02  2.821745e-01  2.539683e-01
   endloop
 endfacet
 facet normal  0.000000e+00  0.000000e+00 -1.000000e+00
   outer loop
     vertex -2.698421e-02  9.771984e-02  2.539683e-01
     vertex -4.249343e-02  2.303816e-01  2.539683e-01
     vertex -3.624744e-02  2.567298e-01  2.539683e-01
   endloop
 endfacet
 facet normal  0.000000e+00  0.000000e+00 -1.000000e+00
   outer loop
     vertex -2.698421e-02  9.771984e-02  2.539683e-01
     vertex -4.563770e-02  2.034864e-01  2.539683e-01
     vertex -4.249343e-02  2.303816e-01  2.539683e-01
   endloop
 endfacet
 facet normal  0.000000e+00  0.000000e+00 -1.000000e+00
   outer loop
     vertex -2.698421e-02  9.771984e-02  2.539683e-01
     vertex -4.563770e-02  1.764080e-01  2.539683e-01
     vertex -4.563770e-02  2.034864e-01  2.539683e-01
   endloop
 endfacet
 facet normal  0.000000e+00  0.000000e+00 -1.000000e+00
   outer loop
     vertex -2.698421e-02  9.771984e-02  2.539683e-01
     vertex -4.249343e-02  1.495127e-01  2.539683e-01
     vertex -4.563770e-02  1.764080e-01  2.539683e-01
   endloop
 endfacet
 facet normal  0.000000e+00  0.000000e+00 -1.000000e+00
   outer loop
     vertex -2.698421e-02  9.771984e-02  2.539683e-01
     vertex -3.624744e-02  1.231645e-01  2.539683e-01
     vertex -4.249343e-02  1.495127e-01  2.539683e-01
   endloop
 endfacet
 facet normal  1.000000e+00  0.000000e+00  0.000000e+00
   outer loop
     vertex  9.211640e-01  4.269842e-01 -1.587302e-02
     vertex  9.211640e-01 -4.708993e-02 -1.587302e-02
     vertex  9.211640e-01 -4.708993e-02 -3.174603e-02
   endloop
 endfacet
 facet normal  1.000000e+00  0.000000e+00  0.000000e+00
   outer loop
     vertex  9.211640e-01  4.269842e-01 -1.587302e-02
     vertex  9.211640e-01 -4.708993e-02 -3.174603e-02
     vertex  9.211640e-01  4.269842e-01 -3.174603e-02
   endloop
 endfacet
 facet normal  0.000000e+00 -0.000000e+00 -1.000000e+00
   outer loop
     vertex  9.211640e-01  4.269842e-01 -3.174603e-02
     vertex  9.211640e-01 -4.708993e-02 -3.174603e-02
     vertex -2.698421e-02 -4.708993e-02 -3.174603e-02
   endloop
 endfacet
 facet normal -0.000000e+00  0.000000e+00 -1.000000e+00
   outer loop
     vertex  9.211640e-01  4.269842e-01 -3.174603e-02
     vertex -2.698421e-02 -4.708993e-02 -3.174603e-02
     vertex -2.698421e-02  4.269842e-01 -3.174603e-02
   endloop
 endfacet
 facet normal  9.978816e-01  6.505554e-02  0.000000e+00
   outer loop
     vertex  4.195767e-01  1.899472e-01  2.698413e-01
     vertex  4.195767e-01  1.899472e-01  2.539683e-01
     vertex  4.176062e-01  2.201734e-01  2.539683e-01
   endloop
 endfacet
 facet normal  9.978587e-01  6.540311e-02  6.647185e-04
   outer loop
     vertex  4.175851e-01  2.203342e-01  2.698413e-01
     vertex  4.195767e-01  1.899472e-01  2.698413e-01
     vertex  4.176062e-01  2.201734e-01  2.539683e-01
   endloop
 endfacet
 facet normal  9.809884e-01  1.940653e-01 -6.611668e-04
   outer loop
     vertex  4.175851e-01  2.203342e-01  2.698413e-01
     vertex  4.176062e-01  2.201734e-01  2.539683e-01
     vertex  4.117279e-01  2.498880e-01  2.539683e-01
   endloop
 endfacet
 facet normal  9.807844e-01  1.950902e-01  1.322333e-03
   outer loop
     vertex  4.116441e-01  2.502013e-01  2.698413e-01
     vertex  4.175851e-01  2.203342e-01  2.698413e-01
     vertex  4.117279e-01  2.498880e-01  2.539683e-01
   endloop
 endfacet
 facet normal  9.474877e-01  3.197895e-01 -1.315229e-03
   outer loop
     vertex  4.116441e-01  2.502013e-01  2.698413e-01
     vertex  4.117279e-01  2.498880e-01  2.539683e-01
     vertex  4.020413e-01  2.785878e-01  2.539683e-01
   endloop
 endfacet
 facet normal  9.469283e-01  3.214388e-01  1.972842e-03
   outer loop
     vertex  4.018556e-01  2.790375e-01  2.698413e-01
     vertex  4.116441e-01  2.502013e-01  2.698413e-01
     vertex  4.020413e-01  2.785878e-01  2.539683e-01
   endloop
 endfacet
 facet normal  8.979468e-01  4.400997e-01 -1.962186e-03
   outer loop
     vertex  4.018556e-01  2.790375e-01  2.698413e-01
     vertex  4.020413e-01  2.785878e-01  2.539683e-01
     vertex  3.887105e-01  3.057870e-01  2.539683e-01
   endloop
 endfacet
 facet normal  8.968697e-01  4.422872e-01  2.616244e-03
   outer loop
     vertex  3.883869e-01  3.063493e-01  2.698413e-01
     vertex  4.018556e-01  2.790375e-01  2.698413e-01
     vertex  3.887105e-01  3.057870e-01  2.539683e-01
   endloop
 endfacet
 facet normal  8.332044e-01  5.529590e-01 -2.602037e-03
   outer loop
     vertex  3.883869e-01  3.063493e-01  2.698413e-01
     vertex  3.887105e-01  3.057870e-01  2.539683e-01
     vertex  3.719611e-01  3.310252e-01  2.539683e-01
   endloop
 endfacet
 facet normal  8.314652e-01  5.555673e-01  3.252539e-03
   outer loop
     vertex  3.714685e-01  3.316694e-01  2.698413e-01
     vertex  3.883869e-01  3.063493e-01  2.698413e-01
     vertex  3.719611e-01  3.310252e-01  2.539683e-01
   endloop
 endfacet
 facet normal  7.543567e-01  6.564568e-01 -3.234780e-03
   outer loop
     vertex  3.714685e-01  3.316694e-01  2.698413e-01
     vertex  3.719611e-01  3.310252e-01  2.539683e-01
     vertex  3.520766e-01  3.538751e-01  2.539683e-01
   endloop
 endfacet
 facet normal  7.518341e-01  6.593408e-01  3.881726e-03
   outer loop
     vertex  3.513900e-01  3.545646e-01  2.698413e-01
     vertex  3.714685e-01  3.316694e-01  2.698413e-01
     vertex  3.520766e-01  3.538751e-01  2.539683e-01
   endloop
 endfacet
 facet normal  6.627387e-01  7.488408e-01 -3.860414e-03
   outer loop
     vertex  3.513900e-01  3.545646e-01  2.698413e-01
     vertex  3.520766e-01  3.538751e-01  2.539683e-01
     vertex  3.293938e-01  3.739499e-01  2.539683e-01
   endloop
 endfacet
 facet normal  6.593391e-01  7.518322e-01  4.503803e-03
   outer loop
     vertex  3.284947e-01  3.746432e-01  2.698413e-01
     vertex  3.513900e-01  3.545646e-01  2.698413e-01
     vertex  3.293938e-01  3.739499e-01  2.539683e-01
   endloop
 endfacet
 facet normal  5.599014e-01  8.285471e-01 -4.478939e-03
   outer loop
     vertex  3.284947e-01  3.746432e-01  2.698413e-01
     vertex  3.293938e-01  3.739499e-01  2.539683e-01
     vertex  3.042965e-01  3.909097e-01  2.539683e-01
   endloop
 endfacet
 facet normal  5.555630e-01  8.314587e-01  5.118770e-03
   outer loop
     vertex  3.031746e-01  3.915615e-01  2.698413e-01
     vertex  3.284947e-01  3.746432e-01  2.698413e-01
     vertex  3.042965e-01  3.909097e-01  2.539683e-01
   endloop
 endfacet
 facet normal  4.475861e-01  8.942264e-01 -5.090353e-03
   outer loop
     vertex  3.031746e-01  3.915615e-01  2.698413e-01
     vertex  3.042965e-01  3.909097e-01  2.539683e-01
     vertex  2.772096e-01  4.044674e-01  2.539683e-01
   endloop
 endfacet
 facet normal  4.422814e-01  8.968580e-01  5.726626e-03
   outer loop
     vertex  2.758628e-01  4.050302e-01  2.698413e-01
     vertex  3.031746e-01  3.915615e-01  2.698413e-01
     vertex  2.772096e-01  4.044674e-01  2.539683e-01
   endloop
 endfacet
 facet normal  3.276941e-01  9.447667e-01 -5.694657e-03
   outer loop
     vertex  2.758628e-01  4.050302e-01  2.698413e-01
     vertex  2.772096e-01  4.044674e-01  2.539683e-01
     vertex  2.485918e-01  4.143936e-01  2.539683e-01
   endloop
 endfacet
 facet normal  3.214330e-01  9.469112e-01  6.327370e-03
   outer loop
     vertex  2.470267e-01  4.148188e-01  2.698413e-01
     vertex  2.758628e-01  4.050302e-01  2.698413e-01
     vertex  2.485918e-01  4.143936e-01  2.539683e-01
   endloop
 endfacet
 facet normal  2.022554e-01  9.793126e-01 -6.291849e-03
   outer loop
     vertex  2.470267e-01  4.148188e-01  2.698413e-01
     vertex  2.485918e-01  4.143936e-01  2.539683e-01
     vertex  2.189274e-01  4.205201e-01  2.539683e-01
   endloop
 endfacet
 facet normal  1.950856e-01  9.807618e-01  6.921002e-03
   outer loop
     vertex  2.171596e-01  4.207597e-01  2.698413e-01
     vertex  2.470267e-01  4.148188e-01  2.698413e-01
     vertex  2.189274e-01  4.205201e-01  2.539683e-01
   endloop
 endfacet
 facet normal  7.339367e-02  9.972793e-01 -6.881928e-03
   outer loop
     vertex  2.171596e-01  4.207597e-01  2.698413e-01
     vertex  2.189274e-01  4.205201e-01  2.539683e-01
     vertex  1.887187e-01  4.227433e-01  2.539683e-01
   endloop
 endfacet
 facet normal  6.540129e-02  9.978308e-01  7.507521e-03
   outer loop
     vertex  1.867725e-01  4.227514e-01  2.698413e-01
     vertex  2.171596e-01  4.207597e-01  2.698413e-01
     vertex  1.887187e-01  4.227433e-01  2.539683e-01
   endloop
 endfacet
 facet normal -5.670955e-02  9.983628e-01 -7.464895e-03
   outer loop
     vertex  1.867725e-01  4.227514e-01  2.698413e-01
     vertex  1.887187e-01  4.227433e-01  2.539683e-01
     vertex  1.584770e-01  4.210255e-01  2.539683e-01
   endloop
 endfacet
 facet normal -6.540099e-02  9.978263e-01  8.086926e-03
   outer loop
     vertex  1.563855e-01  4.207597e-01  2.698413e-01
     vertex  1.867725e-01  4.227514e-01  2.698413e-01
     vertex  1.584770e-01  4.210255e-01  2.539683e-01
   endloop
 endfacet
 facet normal -1.858516e-01  9.825449e-01 -8.040747e-03
   outer loop
     vertex  1.563855e-01  4.207597e-01  2.698413e-01
     vertex  1.584770e-01  4.210255e-01  2.539683e-01
     vertex  1.287144e-01  4.153958e-01  2.539683e-01
   endloop
 endfacet
 facet normal -1.950830e-01  9.807485e-01  8.659217e-03
   outer loop
     vertex  1.265183e-01  4.148188e-01  2.698413e-01
     vertex  1.563855e-01  4.207597e-01  2.698413e-01
     vertex  1.287144e-01  4.153958e-01  2.539683e-01
   endloop
 endfacet
 facet normal -3.118462e-01  9.500936e-01 -8.609485e-03
   outer loop
     vertex  1.265183e-01  4.148188e-01  2.698413e-01
     vertex  1.287144e-01  4.153958e-01  2.539683e-01
     vertex  9.993460e-02  4.059495e-01  2.539683e-01
   endloop
 endfacet
 facet normal -3.214258e-01  9.468898e-01  9.224392e-03
   outer loop
     vertex  9.768218e-02  4.050302e-01  2.698413e-01
     vertex  1.265183e-01  4.148188e-01  2.698413e-01
     vertex  9.993460e-02  4.059495e-01  2.539683e-01
   endloop
 endfacet
 facet normal -4.325602e-01  9.015584e-01 -9.171108e-03
   outer loop
     vertex  9.768218e-02  4.050302e-01  2.698413e-01
     vertex  9.993460e-02  4.059495e-01  2.539683e-01
     vertex  7.262488e-02  3.928465e-01  2.539683e-01
   endloop
 endfacet
 facet normal -5.459502e-01  8.377612e-01 -9.725616e-03
   outer loop
     vertex  7.037038e-02  3.915615e-01  2.698413e-01
     vertex  7.262488e-02  3.928465e-01  2.539683e-01
     vertex  4.724755e-02  3.763086e-01  2.539683e-01
   endloop
 endfacet
 facet normal -4.422675e-01  8.968298e-01  9.782453e-03
   outer loop
     vertex  7.037038e-02  3.915615e-01  2.698413e-01
     vertex  9.768218e-02  4.050302e-01  2.698413e-01
     vertex  7.262488e-02  3.928465e-01  2.539683e-01
   endloop
 endfacet
 facet normal -6.500966e-01  7.597821e-01 -1.027301e-02
   outer loop
     vertex  4.505026e-02  3.746432e-01  2.698413e-01
     vertex  4.724755e-02  3.763086e-01  2.539683e-01
     vertex  2.423222e-02  3.566159e-01  2.539683e-01
   endloop
 endfacet
 facet normal -5.555406e-01  8.314252e-01  1.033340e-02
   outer loop
     vertex  4.505026e-02  3.746432e-01  2.698413e-01
     vertex  7.037038e-02  3.915615e-01  2.698413e-01
     vertex  4.724755e-02  3.763086e-01  2.539683e-01
   endloop
 endfacet
 facet normal -7.432363e-01  6.689416e-01 -1.081328e-02
   outer loop
     vertex  2.215505e-02  3.545646e-01  2.698413e-01
     vertex  2.423222e-02  3.566159e-01  2.539683e-01
     vertex  3.968525e-03  3.341017e-01  2.539683e-01
   endloop
 endfacet
 facet normal -6.593068e-01  7.517953e-01  1.087723e-02
   outer loop
     vertex  2.215505e-02  3.545646e-01  2.698413e-01
     vertex  4.505026e-02  3.746432e-01  2.698413e-01
     vertex  2.423222e-02  3.566159e-01  2.539683e-01
   endloop
 endfacet
 facet normal -8.237927e-01  5.667776e-01 -1.134644e-02
   outer loop
     vertex  2.076483e-03  3.316694e-01  2.698413e-01
     vertex  3.968525e-03  3.341017e-01  2.539683e-01
     vertex -1.320051e-02  3.091470e-01  2.539683e-01
   endloop
 endfacet
 facet normal -7.517908e-01  6.593029e-01  1.141394e-02
   outer loop
     vertex  2.076483e-03  3.316694e-01  2.698413e-01
     vertex  2.215505e-02  3.545646e-01  2.698413e-01
     vertex  3.968525e-03  3.341017e-01  2.539683e-01
   endloop
 endfacet
 facet normal -8.904022e-01  4.550198e-01 -1.187249e-02
   outer loop
     vertex -1.484188e-02  3.063493e-01  2.698413e-01
     vertex -1.320051e-02  3.091470e-01  2.539683e-01
     vertex -2.698421e-02  2.821745e-01  2.539683e-01
   endloop
 endfacet
 facet normal -8.314103e-01  5.555306e-01  1.194353e-02
   outer loop
     vertex -1.484188e-02  3.063493e-01  2.698413e-01
     vertex  2.076483e-03  3.316694e-01  2.698413e-01
     vertex -1.320051e-02  3.091470e-01  2.539683e-01
   endloop
 endfacet
 facet normal -9.396116e-01  3.420686e-01 -1.091087e-02
   outer loop
     vertex -2.831057e-02  2.790375e-01  2.698413e-01
     vertex -2.698421e-02  2.821745e-01  2.539683e-01
     vertex -3.624744e-02  2.567298e-01  2.539683e-01
   endloop
 endfacet
 facet normal -8.968031e-01  4.422543e-01  1.246601e-02
   outer loop
     vertex -2.831057e-02  2.790375e-01  2.698413e-01
     vertex -1.484188e-02  3.063493e-01  2.698413e-01
     vertex -2.698421e-02  2.821745e-01  2.539683e-01
   endloop
 endfacet
 facet normal -9.728646e-01  2.306233e-01 -1.863695e-02
   outer loop
     vertex -3.809912e-02  2.502013e-01  2.698413e-01
     vertex -3.624744e-02  2.567298e-01  2.539683e-01
     vertex -4.249343e-02  2.303816e-01  2.539683e-01
   endloop
 endfacet
 facet normal -9.467064e-01  3.213635e-01  2.173535e-02
   outer loop
     vertex -3.809912e-02  2.502013e-01  2.698413e-01
     vertex -2.831057e-02  2.790375e-01  2.698413e-01
     vertex -3.624744e-02  2.567298e-01  2.539683e-01
   endloop
 endfacet
 facet normal -9.929665e-01  1.160857e-01 -2.327173e-02
   outer loop
     vertex -4.404006e-02  2.203342e-01  2.698413e-01
     vertex -4.249343e-02  2.303816e-01  2.539683e-01
     vertex -4.563770e-02  2.034864e-01  2.539683e-01
   endloop
 endfacet
 facet normal -9.804031e-01  1.950143e-01  2.791302e-02
   outer loop
     vertex -4.404006e-02  2.203342e-01  2.698413e-01
     vertex -3.809912e-02  2.502013e-01  2.698413e-01
     vertex -4.249343e-02  2.303816e-01  2.539683e-01
   endloop
 endfacet
 facet normal -9.996920e-01  1.026412e-15 -2.481645e-02
   outer loop
     vertex -4.603174e-02  1.899472e-01  2.698413e-01
     vertex -4.563770e-02  2.034864e-01  2.539683e-01
     vertex -4.563770e-02  1.764080e-01  2.539683e-01
   endloop
 endfacet
 facet normal -9.973793e-01  6.537169e-02  3.100103e-02
   outer loop
     vertex -4.603174e-02  1.899472e-01  2.698413e-01
     vertex -4.404006e-02  2.203342e-01  2.698413e-01
     vertex -4.563770e-02  2.034864e-01  2.539683e-01
   endloop
 endfacet
 facet normal -9.973793e-01 -6.537169e-02  3.100103e-02
   outer loop
     vertex -4.404006e-02  1.595601e-01  2.698413e-01
     vertex -4.603174e-02  1.899472e-01  2.698413e-01
     vertex -4.563770e-02  1.764080e-01  2.539683e-01
   endloop
 endfacet
 facet normal -9.929665e-01 -1.160857e-01 -2.327173e-02
   outer loop
     vertex -4.404006e-02  1.595601e-01  2.698413e-01
     vertex -4.563770e-02  1.764080e-01  2.539683e-01
     vertex -4.249343e-02  1.495127e-01  2.539683e-01
   endloop
 endfacet
 facet normal -9.804031e-01 -1.950143e-01  2.791302e-02
   outer loop
     vertex -3.809912e-02  1.296930e-01  2.698413e-01
     vertex -4.404006e-02  1.595601e-01  2.698413e-01
     vertex -4.249343e-02  1.495127e-01  2.539683e-01
   endloop
 endfacet
 facet normal -9.728646e-01 -2.306233e-01 -1.863695e-02
   outer loop
     vertex -3.809912e-02  1.296930e-01  2.698413e-01
     vertex -4.249343e-02  1.495127e-01  2.539683e-01
     vertex -3.624744e-02  1.231645e-01  2.539683e-01
   endloop
 endfacet
 facet normal -9.467064e-01 -3.213635e-01  2.173535e-02
   outer loop
     vertex -2.831057e-02  1.008568e-01  2.698413e-01
     vertex -3.809912e-02  1.296930e-01  2.698413e-01
     vertex -3.624744e-02  1.231645e-01  2.539683e-01
   endloop
 endfacet
 facet normal -9.396116e-01 -3.420686e-01 -1.091087e-02
   outer loop
     vertex -2.831057e-02  1.008568e-01  2.698413e-01
     vertex -3.624744e-02  1.231645e-01  2.539683e-01
     vertex -2.698421e-02  9.771984e-02  2.539683e-01
   endloop
 endfacet
 facet normal -8.968031e-01 -4.422543e-01  1.246601e-02
   outer loop
     vertex -1.484188e-02  7.354505e-02  2.698413e-01
     vertex -2.831057e-02  1.008568e-01  2.698413e-01
     vertex -2.698421e-02  9.771984e-02  2.539683e-01
   endloop
 endfacet
 facet normal -8.904022e-01 -4.550198e-01 -1.187249e-02
   outer loop
     vertex -1.484188e-02  7.354505e-02  2.698413e-01
     vertex -2.698421e-02  9.771984e-02  2.539683e-01
     vertex -1.320051e-02  7.074729e-02  2.539683e-01
   endloop
 endfacet
 facet normal -8.314103e-01 -5.555306e-01  1.194353e-02
   outer loop
     vertex  2.076483e-03  4.822492e-02  2.698413e-01
     vertex -1.484188e-02  7.354505e-02  2.698413e-01
     vertex -1.320051e-02  7.074729e-02  2.539683e-01
   endloop
 endfacet
 facet normal -8.237927e-01 -5.667776e-01 -1.134644e-02
   outer loop
     vertex  2.076483e-03  4.822492e-02  2.698413e-01
     vertex -1.320051e-02  7.074729e-02  2.539683e-01
     vertex  3.968525e-03  4.579267e-02  2.539683e-01
   endloop
 endfacet
 facet normal -7.517908e-01 -6.593029e-01  1.141394e-02
   outer loop
     vertex  2.215505e-02  2.532971e-02  2.698413e-01
     vertex  2.076483e-03  4.822492e-02  2.698413e-01
     vertex  3.968525e-03  4.579267e-02  2.539683e-01
   endloop
 endfacet
 facet normal -7.432363e-01 -6.689416e-01 -1.081328e-02
   outer loop
     vertex  2.215505e-02  2.532971e-02  2.698413e-01
     vertex  3.968525e-03  4.579267e-02  2.539683e-01
     vertex  2.423222e-02  2.327842e-02  2.539683e-01
   endloop
 endfacet
 facet normal -6.593068e-01 -7.517953e-01  1.087723e-02
   outer loop
     vertex  4.505026e-02  5.251144e-03  2.698413e-01
     vertex  2.215505e-02  2.532971e-02  2.698413e-01
     vertex  2.423222e-02  2.327842e-02  2.539683e-01
   endloop
 endfacet
 facet normal -6.500966e-01 -7.597821e-01 -1.027301e-02
   outer loop
     vertex  4.505026e-02  5.251144e-03  2.698413e-01
     vertex  2.423222e-02  2.327842e-02  2.539683e-01
     vertex  4.724755e-02  3.585684e-03  2.539683e-01
   endloop
 endfacet
 facet normal -5.555406e-01 -8.314252e-01  1.033340e-02
   outer loop
     vertex  7.037038e-02 -1.166722e-02  2.698413e-01
     vertex  4.505026e-02  5.251144e-03  2.698413e-01
     vertex  4.724755e-02  3.585684e-03  2.539683e-01
   endloop
 endfacet
 facet normal -5.459502e-01 -8.377612e-01 -9.725616e-03
   outer loop
     vertex  7.037038e-02 -1.166722e-02  2.698413e-01
     vertex  4.724755e-02  3.585684e-03  2.539683e-01
     vertex  7.262488e-02 -1.295216e-02  2.539683e-01
   endloop
 endfacet
 facet normal -4.422675e-01 -8.968298e-01  9.782453e-03
   outer loop
     vertex  9.768218e-02 -2.513591e-02  2.698413e-01
     vertex  7.037038e-02 -1.166722e-02  2.698413e-01
     vertex  7.262488e-02 -1.295216e-02  2.539683e-01
   endloop
 endfacet
 facet normal -4.325602e-01 -9.015584e-01 -9.171108e-03
   outer loop
     vertex  9.768218e-02 -2.513591e-02  2.698413e-01
     vertex  7.262488e-02 -1.295216e-02  2.539683e-01
     vertex  9.993460e-02 -2.605513e-02  2.539683e-01
   endloop
 endfacet
 facet normal -3.214258e-01 -9.468898e-01  9.224392e-03
   outer loop
     vertex  1.265183e-01 -3.492446e-02  2.698413e-01
     vertex  9.768218e-02 -2.513591e-02  2.698413e-01
     vertex  9.993460e-02 -2.605513e-02  2.539683e-01
   endloop
 endfacet
 facet normal -3.118462e-01 -9.500936e-01 -8.609485e-03
   outer loop
     vertex  1.265183e-01 -3.492446e-02  2.698413e-01
     vertex  9.993460e-02 -2.605513e-02  2.539683e-01
     vertex  1.287144e-01 -3.550143e-02  2.539683e-01
   endloop
 endfacet
 facet normal -1.950830e-01 -9.807485e-01  8.659217e-03
   outer loop
     vertex  1.563855e-01 -4.086540e-02  2.698413e-01
     vertex  1.265183e-01 -3.492446e-02  2.698413e-01
     vertex  1.287144e-01 -3.550143e-02  2.539683e-01
   endloop
 endfacet
 facet normal -1.858516e-01 -9.825449e-01 -8.040747e-03
   outer loop
     vertex  1.563855e-01 -4.086540e-02  2.698413e-01
     vertex  1.287144e-01 -3.550143e-02  2.539683e-01
     vertex  1.584770e-01 -4.113114e-02  2.539683e-01
   endloop
 endfacet
 facet normal -6.540099e-02 -9.978263e-01  8.086926e-03
   outer loop
     vertex  1.867725e-01 -4.285707e-02  2.698413e-01
     vertex  1.563855e-01 -4.086540e-02  2.698413e-01
     vertex  1.584770e-01 -4.113114e-02  2.539683e-01
   endloop
 endfacet
 facet normal -5.670955e-02 -9.983628e-01 -7.464895e-03
   outer loop
     vertex  1.867725e-01 -4.285707e-02  2.698413e-01
     vertex  1.584770e-01 -4.113114e-02  2.539683e-01
     vertex  1.887187e-01 -4.284894e-02  2.539683e-01
   endloop
 endfacet
 facet normal  6.540129e-02 -9.978308e-01  7.507521e-03
   outer loop
     vertex  2.171596e-01 -4.086540e-02  2.698413e-01
     vertex  1.867725e-01 -4.285707e-02  2.698413e-01
     vertex  1.887187e-01 -4.284894e-02  2.539683e-01
   endloop
 endfacet
 facet normal  7.339367e-02 -9.972793e-01 -6.881928e-03
   outer loop
     vertex  2.171596e-01 -4.086540e-02  2.698413e-01
     vertex  1.887187e-01 -4.284894e-02  2.539683e-01
     vertex  2.189274e-01 -4.062576e-02  2.539683e-01
   endloop
 endfacet
 facet normal  1.950856e-01 -9.807618e-01  6.921002e-03
   outer loop
     vertex  2.470267e-01 -3.492446e-02  2.698413e-01
     vertex  2.171596e-01 -4.086540e-02  2.698413e-01
     vertex  2.189274e-01 -4.062576e-02  2.539683e-01
   endloop
 endfacet
 facet normal  2.022554e-01 -9.793126e-01 -6.291849e-03
   outer loop
     vertex  2.470267e-01 -3.492446e-02  2.698413e-01
     vertex  2.189274e-01 -4.062576e-02  2.539683e-01
     vertex  2.485918e-01 -3.449924e-02  2.539683e-01
   endloop
 endfacet
 facet normal  3.214330e-01 -9.469112e-01  6.327370e-03
   outer loop
     vertex  2.758628e-01 -2.513591e-02  2.698413e-01
     vertex  2.470267e-01 -3.492446e-02  2.698413e-01
     vertex  2.485918e-01 -3.449924e-02  2.539683e-01
   endloop
 endfacet
 facet normal  3.276941e-01 -9.447667e-01 -5.694657e-03
   outer loop
     vertex  2.758628e-01 -2.513591e-02  2.698413e-01
     vertex  2.485918e-01 -3.449924e-02  2.539683e-01
     vertex  2.772096e-01 -2.457309e-02  2.539683e-01
   endloop
 endfacet
 facet normal  4.422814e-01 -8.968580e-01  5.726626e-03
   outer loop
     vertex  3.031746e-01 -1.166722e-02  2.698413e-01
     vertex  2.758628e-01 -2.513591e-02  2.698413e-01
     vertex  2.772096e-01 -2.457309e-02  2.539683e-01
   endloop
 endfacet
 facet normal  4.475861e-01 -8.942264e-01 -5.090353e-03
   outer loop
     vertex  3.031746e-01 -1.166722e-02  2.698413e-01
     vertex  2.772096e-01 -2.457309e-02  2.539683e-01
     vertex  3.042965e-01 -1.101535e-02  2.539683e-01
   endloop
 endfacet
 facet normal  5.555630e-01 -8.314587e-01  5.118770e-03
   outer loop
     vertex  3.284947e-01  5.251144e-03  2.698413e-01
     vertex  3.031746e-01 -1.166722e-02  2.698413e-01
     vertex  3.042965e-01 -1.101535e-02  2.539683e-01
   endloop
 endfacet
 facet normal  5.599014e-01 -8.285471e-01 -4.478939e-03
   outer loop
     vertex  3.284947e-01  5.251144e-03  2.698413e-01
     vertex  3.042965e-01 -1.101535e-02  2.539683e-01
     vertex  3.293938e-01  5.944465e-03  2.539683e-01
   endloop
 endfacet
 facet normal  6.593391e-01 -7.518322e-01  4.503803e-03
   outer loop
     vertex  3.513900e-01  2.532971e-02  2.698413e-01
     vertex  3.284947e-01  5.251144e-03  2.698413e-01
     vertex  3.293938e-01  5.944465e-03  2.539683e-01
   endloop
 endfacet
 facet normal  6.627387e-01 -7.488408e-01 -3.860414e-03
   outer loop
     vertex  3.513900e-01  2.532971e-02  2.698413e-01
     vertex  3.293938e-01  5.944465e-03  2.539683e-01
     vertex  3.520766e-01  2.601924e-02  2.539683e-01
   endloop
 endfacet
 facet normal  7.518341e-01 -6.593408e-01  3.881726e-03
   outer loop
     vertex  3.714685e-01  4.822492e-02  2.698413e-01
     vertex  3.513900e-01  2.532971e-02  2.698413e-01
     vertex  3.520766e-01  2.601924e-02  2.539683e-01
   endloop
 endfacet
 facet normal  7.543567e-01 -6.564568e-01 -3.234780e-03
   outer loop
     vertex  3.714685e-01  4.822492e-02  2.698413e-01
     vertex  3.520766e-01  2.601924e-02  2.539683e-01
     vertex  3.719611e-01  4.886914e-02  2.539683e-01
   endloop
 endfacet
 facet normal  8.314652e-01 -5.555673e-01  3.252539e-03
   outer loop
     vertex  3.883869e-01  7.354505e-02  2.698413e-01
     vertex  3.714685e-01  4.822492e-02  2.698413e-01
     vertex  3.719611e-01  4.886914e-02  2.539683e-01
   endloop
 endfacet
 facet normal  8.332044e-01 -5.529590e-01 -2.602037e-03
   outer loop
     vertex  3.883869e-01  7.354505e-02  2.698413e-01
     vertex  3.719611e-01  4.886914e-02  2.539683e-01
     vertex  3.887105e-01  7.410732e-02  2.539683e-01
   endloop
 endfacet
 facet normal  8.968697e-01 -4.422872e-01  2.616244e-03
   outer loop
     vertex  4.018556e-01  1.008568e-01  2.698413e-01
     vertex  3.883869e-01  7.354505e-02  2.698413e-01
     vertex  3.887105e-01  7.410732e-02  2.539683e-01
   endloop
 endfacet
 facet normal  8.979468e-01 -4.400997e-01 -1.962186e-03
   outer loop
     vertex  4.018556e-01  1.008568e-01  2.698413e-01
     vertex  3.887105e-01  7.410732e-02  2.539683e-01
     vertex  4.020413e-01  1.013066e-01  2.539683e-01
   endloop
 endfacet
 facet normal  9.469283e-01 -3.214388e-01  1.972842e-03
   outer loop
     vertex  4.116441e-01  1.296930e-01  2.698413e-01
     vertex  4.018556e-01  1.008568e-01  2.698413e-01
     vertex  4.020413e-01  1.013066e-01  2.539683e-01
   endloop
 endfacet
 facet normal  9.474877e-01 -3.197895e-01 -1.315229e-03
   outer loop
     vertex  4.116441e-01  1.296930e-01  2.698413e-01
     vertex  4.020413e-01  1.013066e-01  2.539683e-01
     vertex  4.117279e-01  1.300064e-01  2.539683e-01
   endloop
 endfacet
 facet normal  9.807844e-01 -1.950902e-01  1.322333e-03
   outer loop
     vertex  4.175851e-01  1.595601e-01  2.698413e-01
     vertex  4.116441e-01  1.296930e-01  2.698413e-01
     vertex  4.117279e-01  1.300064e-01  2.539683e-01
   endloop
 endfacet
 facet normal  9.809884e-01 -1.940653e-01 -6.611668e-04
   outer loop
     vertex  4.175851e-01  1.595601e-01  2.698413e-01
     vertex  4.117279e-01  1.300064e-01  2.539683e-01
     vertex  4.176062e-01  1.597209e-01  2.539683e-01
   endloop
 endfacet
 facet normal  9.978587e-01 -6.540311e-02  6.647185e-04
   outer loop
     vertex  4.195767e-01  1.899472e-01  2.698413e-01
     vertex  4.175851e-01  1.595601e-01  2.698413e-01
     vertex  4.176062e-01  1.597209e-01  2.539683e-01
   endloop
 endfacet
 facet normal  9.978816e-01 -6.505554e-02  0.000000e+00
   outer loop
     vertex  4.195767e-01  1.899472e-01  2.698413e-01
     vertex  4.176062e-01  1.597209e-01  2.539683e-01
     vertex  4.195767e-01  1.899472e-01  2.539683e-01
   endloop
 endfacet
 facet normal -0.000000e+00  1.000000e+00  0.000000e+00
   outer loop
     vertex -2.698421e-02  4.269842e-01 -1.587302e-02
     vertex  9.211640e-01  4.269842e-01 -1.587302e-02
     vertex  9.211640e-01  4.269842e-01 -3.174603e-02
   endloop
 endfacet
 facet normal  0.000000e+00  1.000000e+00  0.000000e+00
   outer loop
     vertex -2.698421e-02  4.269842e-01 -1.587302e-02
     vertex  9.211640e-01  4.269842e-01 -3.174603e-02
     vertex -2.698421e-02  4.269842e-01 -3.174603e-02
   endloop
 endfacet
 facet normal  9.978589e-01  6.540313e-02  0.000000e+00
   outer loop
     vertex  4.175851e-01  2.203342e-01  2.698413e-01
     vertex  4.195767e-01  1.899472e-01  7.619048e-01
     vertex  4.195767e-01  1.899472e-01  2.698413e-01
   endloop
 endfacet
 facet normal  9.978589e-01  6.540313e-02 -0.000000e+00
   outer loop
     vertex  4.175851e-01  2.203342e-01  2.698413e-01
     vertex  4.175851e-01  2.203342e-01  7.619048e-01
     vertex  4.195767e-01  1.899472e-01  7.619048e-01
   endloop
 endfacet
 facet normal  9.807853e-01  1.950903e-01 -0.000000e+00
   outer loop
     vertex  4.116441e-01  2.502013e-01  2.698413e-01
     vertex  4.116441e-01  2.502013e-01  7.619048e-01
     vertex  4.175851e-01  2.203342e-01  7.619048e-01
   endloop
 endfacet
 facet normal  9.807853e-01  1.950903e-01  0.000000e+00
   outer loop
     vertex  4.116441e-01  2.502013e-01  2.698413e-01
     vertex  4.175851e-01  2.203342e-01  7.619048e-01
     vertex  4.175851e-01  2.203342e-01  2.698413e-01
   endloop
 endfacet
 facet normal  9.469301e-01  3.214395e-01  0.000000e+00
   outer loop
     vertex  4.018556e-01  2.790375e-01  2.698413e-01
     vertex  4.116441e-01  2.502013e-01  7.619048e-01
     vertex  4.116441e-01  2.502013e-01  2.698413e-01
   endloop
 endfacet
 facet normal  9.469301e-01  3.214395e-01 -0.000000e+00
   outer loop
     vertex  4.018556e-01  2.790375e-01  2.698413e-01
     vertex  4.018556e-01  2.790375e-01  7.619048e-01
     vertex  4.116441e-01  2.502013e-01  7.619048e-01
   endloop
 endfacet
 facet normal  8.968727e-01  4.422887e-01 -0.000000e+00
   outer loop
     vertex  3.883869e-01  3.063493e-01  2.698413e-01
     vertex  3.883869e-01  3.063493e-01  7.619048e-01
     vertex  4.018556e-01  2.790375e-01  7.619048e-01
   endloop
 endfacet
 facet normal  8.968727e-01  4.422887e-01  0.000000e+00
   outer loop
     vertex  3.883869e-01  3.063493e-01  2.698413e-01
     vertex  4.018556e-01  2.790375e-01  7.619048e-01
     vertex  4.018556e-01  2.790375e-01  2.698413e-01
   endloop
 endfacet
 facet normal  8.314696e-01  5.555702e-01 -0.000000e+00
   outer loop
     vertex  3.714685e-01  3.316694e-01  2.698413e-01
     vertex  3.714685e-01  3.316694e-01  7.619048e-01
     vertex  3.883869e-01  3.063493e-01  7.619048e-01
   endloop
 endfacet
 facet normal  8.314696e-01  5.555702e-01  0.000000e+00
   outer loop
     vertex  3.714685e-01  3.316694e-01  2.698413e-01
     vertex  3.883869e-01  3.063493e-01  7.619048e-01
     vertex  3.883869e-01  3.063493e-01  2.698413e-01
   endloop
 endfacet
 facet normal  7.518398e-01  6.593458e-01 -0.000000e+00
   outer loop
     vertex  3.513900e-01  3.545646e-01  2.698413e-01
     vertex  3.513900e-01  3.545646e-01  7.619048e-01
     vertex  3.714685e-01  3.316694e-01  7.619048e-01
   endloop
 endfacet
 facet normal  7.518398e-01  6.593458e-01  0.000000e+00
   outer loop
     vertex  3.513900e-01  3.545646e-01  2.698413e-01
     vertex  3.714685e-01  3.316694e-01  7.619048e-01
     vertex  3.714685e-01  3.316694e-01  2.698413e-01
   endloop
 endfacet
 facet normal  6.593458e-01  7.518398e-01 -0.000000e+00
   outer loop
     vertex  3.284947e-01  3.746432e-01  2.698413e-01
     vertex  3.284947e-01  3.746432e-01  7.619048e-01
     vertex  3.513900e-01  3.545646e-01  7.619048e-01
   endloop
 endfacet
 facet normal  5.555702e-01  8.314696e-01 -0.000000e+00
   outer loop
     vertex  3.284947e-01  3.746432e-01  2.698413e-01
     vertex  3.031746e-01  3.915615e-01  7.619048e-01
     vertex  3.284947e-01  3.746432e-01  7.619048e-01
   endloop
 endfacet
 facet normal  6.593458e-01  7.518398e-01  0.000000e+00
   outer loop
     vertex  3.284947e-01  3.746432e-01  2.698413e-01
     vertex  3.513900e-01  3.545646e-01  7.619048e-01
     vertex  3.513900e-01  3.545646e-01  2.698413e-01
   endloop
 endfacet
 facet normal  5.555702e-01  8.314696e-01 -0.000000e+00
   outer loop
     vertex  3.031746e-01  3.915615e-01  2.698413e-01
     vertex  3.031746e-01  3.915615e-01  7.619048e-01
     vertex  3.284947e-01  3.746432e-01  2.698413e-01
   endloop
 endfacet
 facet normal  4.422887e-01  8.968727e-01 -0.000000e+00
   outer loop
     vertex  2.758628e-01  4.050302e-01  2.698413e-01
     vertex  2.758628e-01  4.050302e-01  7.619048e-01
     vertex  3.031746e-01  3.915615e-01  7.619048e-01
   endloop
 endfacet
 facet normal  4.422887e-01  8.968727e-01  0.000000e+00
   outer loop
     vertex  2.758628e-01  4.050302e-01  2.698413e-01
     vertex  3.031746e-01  3.915615e-01  7.619048e-01
     vertex  3.031746e-01  3.915615e-01  2.698413e-01
   endloop
 endfacet
 facet normal  3.214395e-01  9.469301e-01 -0.000000e+00
   outer loop
     vertex  2.470267e-01  4.148188e-01  2.698413e-01
     vertex  2.470267e-01  4.148188e-01  7.619048e-01
     vertex  2.758628e-01  4.050302e-01  7.619048e-01
   endloop
 endfacet
 facet normal  3.214395e-01  9.469301e-01  0.000000e+00
   outer loop
     vertex  2.470267e-01  4.148188e-01  2.698413e-01
     vertex  2.758628e-01  4.050302e-01  7.619048e-01
     vertex  2.758628e-01  4.050302e-01  2.698413e-01
   endloop
 endfacet
 facet normal  1.950903e-01  9.807853e-01 -0.000000e+00
   outer loop
     vertex  2.171596e-01  4.207597e-01  2.698413e-01
     vertex  2.171596e-01  4.207597e-01  7.619048e-01
     vertex  2.470267e-01  4.148188e-01  7.619048e-01
   endloop
 endfacet
 facet normal  1.950903e-01  9.807853e-01  0.000000e+00
   outer loop
     vertex  2.171596e-01  4.207597e-01  2.698413e-01
     vertex  2.470267e-01  4.148188e-01  7.619048e-01
     vertex  2.470267e-01  4.148188e-01  2.698413e-01
   endloop
 endfacet
 facet normal  6.540313e-02  9.978589e-01 -0.000000e+00
   outer loop
     vertex  1.867725e-01  4.227514e-01  2.698413e-01
     vertex  1.867725e-01  4.227514e-01  7.619048e-01
     vertex  2.171596e-01  4.207597e-01  7.619048e-01
   endloop
 endfacet
 facet normal -6.540313e-02  9.978589e-01  0.000000e+00
   outer loop
     vertex  1.867725e-01  4.227514e-01  2.698413e-01
     vertex  1.563855e-01  4.207597e-01  7.619048e-01
     vertex  1.867725e-01  4.227514e-01  7.619048e-01
   endloop
 endfacet
 facet normal  6.540313e-02  9.978589e-01  0.000000e+00
   outer loop
     vertex  1.867725e-01  4.227514e-01  2.698413e-01
     vertex  2.171596e-01  4.207597e-01  7.619048e-01
     vertex  2.171596e-01  4.207597e-01  2.698413e-01
   endloop
 endfacet
 facet normal -6.540313e-02  9.978589e-01  0.000000e+00
   outer loop
     vertex  1.563855e-01  4.207597e-01  2.698413e-01
     vertex  1.563855e-01  4.207597e-01  7.619048e-01
     vertex  1.867725e-01  4.227514e-01  2.698413e-01
   endloop
 endfacet
 facet normal -1.950903e-01  9.807853e-01  0.000000e+00
   outer loop
     vertex  1.265183e-01  4.148188e-01  2.698413e-01
     vertex  1.265183e-01  4.148188e-01  7.619048e-01
     vertex  1.563855e-01  4.207597e-01  7.619048e-01
   endloop
 endfacet
 facet normal -1.950903e-01  9.807853e-01  0.000000e+00
   outer loop
     vertex  1.265183e-01  4.148188e-01  2.698413e-01
     vertex  1.563855e-01  4.207597e-01  7.619048e-01
     vertex  1.563855e-01  4.207597e-01  2.698413e-01
   endloop
 endfacet
 facet normal -3.214395e-01  9.469301e-01  0.000000e+00
   outer loop
     vertex  9.768218e-02  4.050302e-01  2.698413e-01
     vertex  9.768218e-02  4.050302e-01  7.619048e-01
     vertex  1.265183e-01  4.148188e-01  7.619048e-01
   endloop
 endfacet
 facet normal -3.214395e-01  9.469301e-01  0.000000e+00
   outer loop
     vertex  9.768218e-02  4.050302e-01  2.698413e-01
     vertex  1.265183e-01  4.148188e-01  7.619048e-01
     vertex  1.265183e-01  4.148188e-01  2.698413e-01
   endloop
 endfacet
 facet normal -4.422887e-01  8.968727e-01  0.000000e+00
   outer loop
     vertex  7.037038e-02  3.915615e-01  2.698413e-01
     vertex  7.037038e-02  3.915615e-01  7.619048e-01
     vertex  9.768218e-02  4.050302e-01  7.619048e-01
   endloop
 endfacet
 facet normal -4.422887e-01  8.968727e-01  0.000000e+00
   outer loop
     vertex  7.037038e-02  3.915615e-01  2.698413e-01
     vertex  9.768218e-02  4.050302e-01  7.619048e-01
     vertex  9.768218e-02  4.050302e-01  2.698413e-01
   endloop
 endfacet
 facet normal -5.555702e-01  8.314696e-01  0.000000e+00
   outer loop
     vertex  4.505026e-02  3.746432e-01  2.698413e-01
     vertex  4.505026e-02  3.746432e-01  7.619048e-01
     vertex  7.037038e-02  3.915615e-01  7.619048e-01
   endloop
 endfacet
 facet normal -5.555702e-01  8.314696e-01  0.000000e+00
   outer loop
     vertex  4.505026e-02  3.746432e-01  2.698413e-01
     vertex  7.037038e-02  3.915615e-01  7.619048e-01
     vertex  7.037038e-02  3.915615e-01  2.698413e-01
   endloop
 endfacet
 facet normal -6.593458e-01  7.518398e-01  0.000000e+00
   outer loop
     vertex  2.215505e-02  3.545646e-01  2.698413e-01
     vertex  2.215505e-02  3.545646e-01  7.619048e-01
     vertex  4.505026e-02  3.746432e-01  7.619048e-01
   endloop
 endfacet
 facet normal -6.593458e-01  7.518398e-01  0.000000e+00
   outer loop
     vertex  2.215505e-02  3.545646e-01  2.698413e-01
     vertex  4.505026e-02  3.746432e-01  7.619048e-01
     vertex  4.505026e-02  3.746432e-01  2.698413e-01
   endloop
 endfacet
 facet normal -7.518398e-01  6.593458e-01  0.000000e+00
   outer loop
     vertex  2.076483e-03  3.316694e-01  2.698413e-01
     vertex  2.076483e-03  3.316694e-01  7.619048e-01
     vertex  2.215505e-02  3.545646e-01  7.619048e-01
   endloop
 endfacet
 facet normal -7.518398e-01  6.593458e-01  0.000000e+00
   outer loop
     vertex  2.076483e-03  3.316694e-01  2.698413e-01
     vertex  2.215505e-02  3.545646e-01  7.619048e-01
     vertex  2.215505e-02  3.545646e-01  2.698413e-01
   endloop
 endfacet
 facet normal -8.314696e-01  5.555702e-01  0.000000e+00
   outer loop
     vertex -1.484188e-02  3.063493e-01  2.698413e-01
     vertex -1.484188e-02  3.063493e-01  7.619048e-01
     vertex  2.076483e-03  3.316694e-01  7.619048e-01
   endloop
 endfacet
 facet normal -8.968727e-01  4.422887e-01  0.000000e+00
   outer loop
     vertex -1.484188e-02  3.063493e-01  2.698413e-01
     vertex -2.831057e-02  2.790375e-01  7.619048e-01
     vertex -1.484188e-02  3.063493e-01  7.619048e-01
   endloop
 endfacet
 facet normal -8.314696e-01  5.555702e-01  0.000000e+00
   outer loop
     vertex -1.484188e-02  3.063493e-01  2.698413e-01
     vertex  2.076483e-03  3.316694e-01  7.619048e-01
     vertex  2.076483e-03  3.316694e-01  2.698413e-01
   endloop
 endfacet
 facet normal -8.968727e-01  4.422887e-01  0.000000e+00
   outer loop
     vertex -2.831057e-02  2.790375e-01  2.698413e-01
     vertex -2.831057e-02  2.790375e-01  7.619048e-01
     vertex -1.484188e-02  3.063493e-01  2.698413e-01
   endloop
 endfacet
 facet normal -9.469301e-01  3.214395e-01  0.000000e+00
   outer loop
     vertex -3.809912e-02  2.502013e-01  2.698413e-01
     vertex -3.809912e-02  2.502013e-01  7.619048e-01
     vertex -2.831057e-02  2.790375e-01  7.619048e-01
   endloop
 endfacet
 facet normal -9.807853e-01  1.950903e-01  0.000000e+00
   outer loop
     vertex -3.809912e-02  2.502013e-01  2.698413e-01
     vertex -4.404006e-02  2.203342e-01  7.619048e-01
     vertex -3.809912e-02  2.502013e-01  7.619048e-01
   endloop
 endfacet
 facet normal -9.469301e-01  3.214395e-01  0.000000e+00
   outer loop
     vertex -3.809912e-02  2.502013e-01  2.698413e-01
     vertex -2.831057e-02  2.790375e-01  7.619048e-01
     vertex -2.831057e-02  2.790375e-01  2.698413e-01
   endloop
 endfacet
 facet normal -9.807853e-01  1.950903e-01  0.000000e+00
   outer loop
     vertex -4.404006e-02  2.203342e-01  2.698413e-01
     vertex -4.404006e-02  2.203342e-01  7.619048e-01
     vertex -3.809912e-02  2.502013e-01  2.698413e-01
   endloop
 endfacet
 facet normal -9.978589e-01  6.540313e-02  0.000000e+00
   outer loop
     vertex -4.603174e-02  1.899472e-01  2.698413e-01
     vertex -4.603174e-02  1.899472e-01  7.619048e-01
     vertex -4.404006e-02  2.203342e-01  7.619048e-01
   endloop
 endfacet
 facet normal -9.978589e-01 -6.540313e-02  0.000000e+00
   outer loop
     vertex -4.603174e-02  1.899472e-01  2.698413e-01
     vertex -4.404006e-02  1.595601e-01  7.619048e-01
     vertex -4.603174e-02  1.899472e-01  7.619048e-01
   endloop
 endfacet
 facet normal -9.978589e-01  6.540313e-02  0.000000e+00
   outer loop
     vertex -4.603174e-02  1.899472e-01  2.698413e-01
     vertex -4.404006e-02  2.203342e-01  7.619048e-01
     vertex -4.404006e-02  2.203342e-01  2.698413e-01
   endloop
 endfacet
 facet normal -9.978589e-01 -6.540313e-02  0.000000e+00
   outer loop
     vertex -4.404006e-02  1.595601e-01  2.698413e-01
     vertex -4.404006e-02  1.595601e-01  7.619048e-01
     vertex -4.603174e-02  1.899472e-01  2.698413e-01
   endloop
 endfacet
 facet normal -9.807853e-01 -1.950903e-01  0.000000e+00
   outer loop
     vertex -3.809912e-02  1.296930e-01  2.698413e-01
     vertex -4.404006e-02  1.595601e-01  7.619048e-01
     vertex -4.404006e-02  1.595601e-01  2.698413e-01
   endloop
 endfacet
 facet normal -9.807853e-01 -1.950903e-01  0.000000e+00
   outer loop
     vertex -3.809912e-02  1.296930e-01  2.698413e-01
     vertex -3.809912e-02  1.296930e-01  7.619048e-01
     vertex -4.404006e-02  1.595601e-01  7.619048e-01
   endloop
 endfacet
 facet normal -9.469301e-01 -3.214395e-01  0.000000e+00
   outer loop
     vertex -2.831057e-02  1.008568e-01  2.698413e-01
     vertex -3.809912e-02  1.296930e-01  7.619048e-01
     vertex -3.809912e-02  1.296930e-01  2.698413e-01
   endloop
 endfacet
 facet normal -9.469301e-01 -3.214395e-01  0.000000e+00
   outer loop
     vertex -2.831057e-02  1.008568e-01  2.698413e-01
     vertex -2.831057e-02  1.008568e-01  7.619048e-01
     vertex -3.809912e-02  1.296930e-01  7.619048e-01
   endloop
 endfacet
 facet normal -8.968727e-01 -4.422887e-01  0.000000e+00
   outer loop
     vertex -1.484188e-02  7.354505e-02  2.698413e-01
     vertex -2.831057e-02  1.008568e-01  7.619048e-01
     vertex -2.831057e-02  1.008568e-01  2.698413e-01
   endloop
 endfacet
 facet normal -8.968727e-01 -4.422887e-01  0.000000e+00
   outer loop
     vertex -1.484188e-02  7.354505e-02  2.698413e-01
     vertex -1.484188e-02  7.354505e-02  7.619048e-01
     vertex -2.831057e-02  1.008568e-01  7.619048e-01
   endloop
 endfacet
 facet normal -8.314696e-01 -5.555702e-01  0.000000e+00
   outer loop
     vertex -1.484188e-02  7.354505e-02  2.698413e-01
     vertex  2.076483e-03  4.822492e-02  7.619048e-01
     vertex -1.484188e-02  7.354505e-02  7.619048e-01
   endloop
 endfacet
 facet normal -8.314696e-01 -5.555702e-01  0.000000e+00
   outer loop
     vertex  2.076483e-03  4.822492e-02  2.698413e-01
     vertex  2.076483e-03  4.822492e-02  7.619048e-01
     vertex -1.484188e-02  7.354505e-02  2.698413e-01
   endloop
 endfacet
 facet normal -7.518398e-01 -6.593458e-01  0.000000e+00
   outer loop
     vertex  2.215505e-02  2.532971e-02  2.698413e-01
     vertex  2.076483e-03  4.822492e-02  7.619048e-01
     vertex  2.076483e-03  4.822492e-02  2.698413e-01
   endloop
 endfacet
 facet normal -7.518398e-01 -6.593458e-01  0.000000e+00
   outer loop
     vertex  2.215505e-02  2.532971e-02  2.698413e-01
     vertex  2.215505e-02  2.532971e-02  7.619048e-01
     vertex  2.076483e-03  4.822492e-02  7.619048e-01
   endloop
 endfacet
 facet normal -6.593458e-01 -7.518398e-01  0.000000e+00
   outer loop
     vertex  4.505026e-02  5.251144e-03  2.698413e-01
     vertex  2.215505e-02  2.532971e-02  7.619048e-01
     vertex  2.215505e-02  2.532971e-02  2.698413e-01
   endloop
 endfacet
 facet normal -6.593458e-01 -7.518398e-01  0.000000e+00
   outer loop
     vertex  4.505026e-02  5.251144e-03  2.698413e-01
     vertex  4.505026e-02  5.251144e-03  7.619048e-01
     vertex  2.215505e-02  2.532971e-02  7.619048e-01
   endloop
 endfacet
 facet normal -5.555702e-01 -8.314696e-01  0.000000e+00
   outer loop
     vertex  4.505026e-02  5.251144e-03  2.698413e-01
     vertex  7.037038e-02 -1.166722e-02  7.619048e-01
     vertex  4.505026e-02  5.251144e-03  7.619048e-01
   endloop
 endfacet
 facet normal -5.555702e-01 -8.314696e-01  0.000000e+00
   outer loop
     vertex  7.037038e-02 -1.166722e-02  2.698413e-01
     vertex  7.037038e-02 -1.166722e-02  7.619048e-01
     vertex  4.505026e-02  5.251144e-03  2.698413e-01
   endloop
 endfacet
 facet normal -4.422887e-01 -8.968727e-01  0.000000e+00
   outer loop
     vertex  9.768218e-02 -2.513591e-02  2.698413e-01
     vertex  7.037038e-02 -1.166722e-02  7.619048e-01
     vertex  7.037038e-02 -1.166722e-02  2.698413e-01
   endloop
 endfacet
 facet normal -4.422887e-01 -8.968727e-01  0.000000e+00
   outer loop
     vertex  9.768218e-02 -2.513591e-02  2.698413e-01
     vertex  9.768218e-02 -2.513591e-02  7.619048e-01
     vertex  7.037038e-02 -1.166722e-02  7.619048e-01
   endloop
 endfacet
 facet normal -3.214395e-01 -9.469301e-01  0.000000e+00
   outer loop
     vertex  1.265183e-01 -3.492446e-02  2.698413e-01
     vertex  1.265183e-01 -3.492446e-02  7.619048e-01
     vertex  9.768218e-02 -2.513591e-02  7.619048e-01
   endloop
 endfacet
 facet normal -3.214395e-01 -9.469301e-01  0.000000e+00
   outer loop
     vertex  1.265183e-01 -3.492446e-02  2.698413e-01
     vertex  9.768218e-02 -2.513591e-02  7.619048e-01
     vertex  9.768218e-02 -2.513591e-02  2.698413e-01
   endloop
 endfacet
 facet normal -1.950903e-01 -9.807853e-01  0.000000e+00
   outer loop
     vertex  1.563855e-01 -4.086540e-02  2.698413e-01
     vertex  1.563855e-01 -4.086540e-02  7.619048e-01
     vertex  1.265183e-01 -3.492446e-02  7.619048e-01
   endloop
 endfacet
 facet normal -1.950903e-01 -9.807853e-01  0.000000e+00
   outer loop
     vertex  1.563855e-01 -4.086540e-02  2.698413e-01
     vertex  1.265183e-01 -3.492446e-02  7.619048e-01
     vertex  1.265183e-01 -3.492446e-02  2.698413e-01
   endloop
 endfacet
 facet normal -6.540313e-02 -9.978589e-01  0.000000e+00
   outer loop
     vertex  1.867725e-01 -4.285707e-02  2.698413e-01
     vertex  1.867725e-01 -4.285707e-02  7.619048e-01
     vertex  1.563855e-01 -4.086540e-02  7.619048e-01
   endloop
 endfacet
 facet normal -6.540313e-02 -9.978589e-01  0.000000e+00
   outer loop
     vertex  1.867725e-01 -4.285707e-02  2.698413e-01
     vertex  1.563855e-01 -4.086540e-02  7.619048e-01
     vertex  1.563855e-01 -4.086540e-02  2.698413e-01
   endloop
 endfacet
 facet normal  6.540313e-02 -9.978589e-01  0.000000e+00
   outer loop
     vertex  2.171596e-01 -4.086540e-02  2.698413e-01
     vertex  2.171596e-01 -4.086540e-02  7.619048e-01
     vertex  1.867725e-01 -4.285707e-02  7.619048e-01
   endloop
 endfacet
 facet normal  6.540313e-02 -9.978589e-01  0.000000e+00
   outer loop
     vertex  2.171596e-01 -4.086540e-02  2.698413e-01
     vertex  1.867725e-01 -4.285707e-02  7.619048e-01
     vertex  1.867725e-01 -4.285707e-02  2.698413e-01
   endloop
 endfacet
 facet normal  1.950903e-01 -9.807853e-01  0.000000e+00
   outer loop
     vertex  2.470267e-01 -3.492446e-02  2.698413e-01
     vertex  2.470267e-01 -3.492446e-02  7.619048e-01
     vertex  2.171596e-01 -4.086540e-02  7.619048e-01
   endloop
 endfacet
 facet normal  1.950903e-01 -9.807853e-01  0.000000e+00
   outer loop
     vertex  2.470267e-01 -3.492446e-02  2.698413e-01
     vertex  2.171596e-01 -4.086540e-02  7.619048e-01
     vertex  2.171596e-01 -4.086540e-02  2.698413e-01
   endloop
 endfacet
 facet normal  3.214395e-01 -9.469301e-01  0.000000e+00
   outer loop
     vertex  2.758628e-01 -2.513591e-02  2.698413e-01
     vertex  2.758628e-01 -2.513591e-02  7.619048e-01
     vertex  2.470267e-01 -3.492446e-02  7.619048e-01
   endloop
 endfacet
 facet normal  3.214395e-01 -9.469301e-01  0.000000e+00
   outer loop
     vertex  2.758628e-01 -2.513591e-02  2.698413e-01
     vertex  2.470267e-01 -3.492446e-02  7.619048e-01
     vertex  2.470267e-01 -3.492446e-02  2.698413e-01
   endloop
 endfacet
 facet normal  4.422887e-01 -8.968727e-01  0.000000e+00
   outer loop
     vertex  3.031746e-01 -1.166722e-02  2.698413e-01
     vertex  3.031746e-01 -1.166722e-02  7.619048e-01
     vertex  2.758628e-01 -2.513591e-02  7.619048e-01
   endloop
 endfacet
 facet normal  5.555702e-01 -8.314696e-01  0.000000e+00
   outer loop
     vertex  3.031746e-01 -1.166722e-02  2.698413e-01
     vertex  3.284947e-01  5.251144e-03  7.619048e-01
     vertex  3.031746e-01 -1.166722e-02  7.619048e-01
   endloop
 endfacet
 facet normal  4.422887e-01 -8.968727e-01  0.000000e+00
   outer loop
     vertex  3.031746e-01 -1.166722e-02  2.698413e-01
     vertex  2.758628e-01 -2.513591e-02  7.619048e-01
     vertex  2.758628e-01 -2.513591e-02  2.698413e-01
   endloop
 endfacet
 facet normal  5.555702e-01 -8.314696e-01  0.000000e+00
   outer loop
     vertex  3.284947e-01  5.251144e-03  2.698413e-01
     vertex  3.284947e-01  5.251144e-03  7.619048e-01
     vertex  3.031746e-01 -1.166722e-02  2.698413e-01
   endloop
 endfacet
 facet normal  6.593458e-01 -7.518398e-01  0.000000e+00
   outer loop
     vertex  3.513900e-01  2.532971e-02  2.698413e-01
     vertex  3.513900e-01  2.532971e-02  7.619048e-01
     vertex  3.284947e-01  5.251144e-03  7.619048e-01
   endloop
 endfacet
 facet normal  6.593458e-01 -7.518398e-01  0.000000e+00
   outer loop
     vertex  3.513900e-01  2.532971e-02  2.698413e-01
     vertex  3.284947e-01  5.251144e-03  7.619048e-01
     vertex  3.284947e-01  5.251144e-03  2.698413e-01
   endloop
 endfacet
 facet normal  7.518398e-01 -6.593458e-01  0.000000e+00
   outer loop
     vertex  3.714685e-01  4.822492e-02  2.698413e-01
     vertex  3.714685e-01  4.822492e-02  7.619048e-01
     vertex  3.513900e-01  2.532971e-02  7.619048e-01
   endloop
 endfacet
 facet normal  8.314696e-01 -5.555702e-01  0.000000e+00
   outer loop
     vertex  3.714685e-01  4.822492e-02  2.698413e-01
     vertex  3.883869e-01  7.354505e-02  7.619048e-01
     vertex  3.714685e-01  4.822492e-02  7.619048e-01
   endloop
 endfacet
 facet normal  7.518398e-01 -6.593458e-01  0.000000e+00
   outer loop
     vertex  3.714685e-01  4.822492e-02  2.698413e-01
     vertex  3.513900e-01  2.532971e-02  7.619048e-01
     vertex  3.513900e-01  2.532971e-02  2.698413e-01
   endloop
 endfacet
 facet normal  8.968727e-01 -4.422887e-01  0.000000e+00
   outer loop
     vertex  3.883869e-01  7.354505e-02  2.698413e-01
     vertex  4.018556e-01  1.008568e-01  7.619048e-01
     vertex  3.883869e-01  7.354505e-02  7.619048e-01
   endloop
 endfacet
 facet normal  8.314696e-01 -5.555702e-01  0.000000e+00
   outer loop
     vertex  3.883869e-01  7.354505e-02  2.698413e-01
     vertex  3.883869e-01  7.354505e-02  7.619048e-01
     vertex  3.714685e-01  4.822492e-02  2.698413e-01
   endloop
 endfacet
 facet normal  8.968727e-01 -4.422887e-01  0.000000e+00
   outer loop
     vertex  4.018556e-01  1.008568e-01  2.698413e-01
     vertex  4.018556e-01  1.008568e-01  7.619048e-01
     vertex  3.883869e-01  7.354505e-02  2.698413e-01
   endloop
 endfacet
 facet normal  9.469301e-01 -3.214395e-01  0.000000e+00
   outer loop
     vertex  4.116441e-01  1.296930e-01  2.698413e-01
     vertex  4.116441e-01  1.296930e-01  7.619048e-01
     vertex  4.018556e-01  1.008568e-01  7.619048e-01
   endloop
 endfacet
 facet normal  9.469301e-01 -3.214395e-01  0.000000e+00
   outer loop
     vertex  4.116441e-01  1.296930e-01  2.698413e-01
     vertex  4.018556e-01  1.008568e-01  7.619048e-01
     vertex  4.018556e-01  1.008568e-01  2.698413e-01
   endloop
 endfacet
 facet normal  9.807853e-01 -1.950903e-01  0.000000e+00
   outer loop
     vertex  4.175851e-01  1.595601e-01  2.698413e-01
     vertex  4.175851e-01  1.595601e-01  7.619048e-01
     vertex  4.116441e-01  1.296930e-01  7.619048e-01
   endloop
 endfacet
 facet normal  9.807853e-01 -1.950903e-01  0.000000e+00
   outer loop
     vertex  4.175851e-01  1.595601e-01  2.698413e-01
     vertex  4.116441e-01  1.296930e-01  7.619048e-01
     vertex  4.116441e-01  1.296930e-01  2.698413e-01
   endloop
 endfacet
 facet normal  9.978589e-01 -6.540313e-02  0.000000e+00
   outer loop
     vertex  4.195767e-01  1.899472e-01  2.698413e-01
     vertex  4.195767e-01  1.899472e-01  7.619048e-01
     vertex  4.175851e-01  1.595601e-01  7.619048e-01
   endloop
 endfacet
 facet normal  9.978589e-01 -6.540313e-02  0.000000e+00
   outer loop
     vertex  4.195767e-01  1.899472e-01  2.698413e-01
     vertex  4.175851e-01  1.595601e-01  7.619048e-01
     vertex  4.175851e-01  1.595601e-01  2.698413e-01
   endloop
 endfacet
 facet normal  0.000000e+00  0.000000e+00  1.000000e+00
   outer loop
     vertex  3.714685e-01  4.822492e-02  7.619048e-01
     vertex  3.284947e-01  5.251144e-03  7.619048e-01
     vertex  3.513900e-01  2.532971e-02  7.619048e-01
   endloop
 endfacet
 facet normal  0.000000e+00  0.000000e+00  1.000000e+00
   outer loop
     vertex  4.018556e-01  1.008568e-01  7.619048e-01
     vertex  3.714685e-01  4.822492e-02  7.619048e-01
     vertex  3.883869e-01  7.354505e-02  7.619048e-01
   endloop
 endfacet
 facet normal  0.000000e+00  0.000000e+00  1.000000e+00
   outer loop
     vertex  3.031746e-01  3.915615e-01  7.619048e-01
     vertex  2.758628e-01  4.050302e-01  7.619048e-01
     vertex  2.470267e-01  4.148188e-01  7.619048e-01
   endloop
 endfacet
 facet normal  0.000000e+00  0.000000e+00  1.000000e+00
   outer loop
     vertex  3.714685e-01  3.316694e-01  7.619048e-01
     vertex  4.175851e-01  2.203342e-01  7.619048e-01
     vertex  4.116441e-01  2.502013e-01  7.619048e-01
   endloop
 endfacet
 facet normal  0.000000e+00  0.000000e+00  1.000000e+00
   outer loop
     vertex  3.714685e-01  3.316694e-01  7.619048e-01
     vertex  4.116441e-01  2.502013e-01  7.619048e-01
     vertex  4.018556e-01  2.790375e-01  7.619048e-01
   endloop
 endfacet
 facet normal  0.000000e+00  0.000000e+00  1.000000e+00
   outer loop
     vertex  3.714685e-01  3.316694e-01  7.619048e-01
     vertex  4.018556e-01  2.790375e-01  7.619048e-01
     vertex  3.883869e-01  3.063493e-01  7.619048e-01
   endloop
 endfacet
 facet normal  0.000000e+00  0.000000e+00  1.000000e+00
   outer loop
     vertex  3.513900e-01  3.545646e-01  7.619048e-01
     vertex  4.195767e-01  1.899472e-01  7.619048e-01
     vertex  4.175851e-01  2.203342e-01  7.619048e-01
   endloop
 endfacet
 facet normal  0.000000e+00  0.000000e+00  1.000000e+00
   outer loop
     vertex  3.513900e-01  3.545646e-01  7.619048e-01
     vertex  3.284947e-01  5.251144e-03  7.619048e-01
     vertex  3.714685e-01  4.822492e-02  7.619048e-01
   endloop
 endfacet
 facet normal  0.000000e+00  0.000000e+00  1.000000e+00
   outer loop
     vertex  3.513900e-01  3.545646e-01  7.619048e-01
     vertex  3.284947e-01  3.746432e-01  7.619048e-01
     vertex  3.031746e-01  3.915615e-01  7.619048e-01
   endloop
 endfacet
 facet normal  0.000000e+00  0.000000e+00  1.000000e+00
   outer loop
     vertex  3.513900e-01  3.545646e-01  7.619048e-01
     vertex  3.714685e-01  4.822492e-02  7.619048e-01
     vertex  4.018556e-01  1.008568e-01  7.619048e-01
   endloop
 endfacet
 facet normal  0.000000e+00  0.000000e+00  1.000000e+00
   outer loop
     vertex  3.513900e-01  3.545646e-01  7.619048e-01
     vertex  2.470267e-01  4.148188e-01  7.619048e-01
     vertex  2.171596e-01  4.207597e-01  7.619048e-01
   endloop
 endfacet
 facet normal  0.000000e+00  0.000000e+00  1.000000e+00
   outer loop
     vertex  3.513900e-01  3.545646e-01  7.619048e-01
     vertex  2.171596e-01  4.207597e-01  7.619048e-01
     vertex  1.867725e-01  4.227514e-01  7.619048e-01
   endloop
 endfacet
 facet normal  0.000000e+00  0.000000e+00  1.000000e+00
   outer loop
     vertex  3.513900e-01  3.545646e-01  7.619048e-01
     vertex  1.867725e-01  4.227514e-01  7.619048e-01
     vertex  1.563855e-01  4.207597e-01  7.619048e-01
   endloop
 endfacet
 facet normal  0.000000e+00  0.000000e+00  1.000000e+00
   outer loop
     vertex  3.513900e-01  3.545646e-01  7.619048e-01
     vertex  1.563855e-01  4.207597e-01  7.619048e-01
     vertex  1.265183e-01  4.148188e-01  7.619048e-01
   endloop
 endfacet
 facet normal  0.000000e+00  0.000000e+00  1.000000e+00
   outer loop
     vertex  3.513900e-01  3.545646e-01  7.619048e-01
     vertex  1.265183e-01  4.148188e-01  7.619048e-01
     vertex  9.768218e-02  4.050302e-01  7.619048e-01
   endloop
 endfacet
 facet normal  0.000000e+00  0.000000e+00  1.000000e+00
   outer loop
     vertex  3.513900e-01  3.545646e-01  7.619048e-01
     vertex  9.768218e-02  4.050302e-01  7.619048e-01
     vertex  7.037038e-02  3.915615e-01  7.619048e-01
   endloop
 endfacet
 facet normal  0.000000e+00  0.000000e+00  1.000000e+00
   outer loop
     vertex  3.513900e-01  3.545646e-01  7.619048e-01
     vertex  7.037038e-02  3.915615e-01  7.619048e-01
     vertex  4.505026e-02  3.746432e-01  7.619048e-01
   endloop
 endfacet
 facet normal  0.000000e+00  0.000000e+00  1.000000e+00
   outer loop
     vertex  3.513900e-01  3.545646e-01  7.619048e-01
     vertex  4.505026e-02  3.746432e-01  7.619048e-01
     vertex  2.215505e-02  3.545646e-01  7.619048e-01
   endloop
 endfacet
 facet normal  0.000000e+00  0.000000e+00  1.000000e+00
   outer loop
     vertex  3.513900e-01  3.545646e-01  7.619048e-01
     vertex  2.215505e-02  3.545646e-01  7.619048e-01
     vertex  2.076483e-03  3.316694e-01  7.619048e-01
   endloop
 endfacet
 facet normal  0.000000e+00  0.000000e+00  1.000000e+00
   outer loop
     vertex  3.513900e-01  3.545646e-01  7.619048e-01
     vertex  2.076483e-03  3.316694e-01  7.619048e-01
     vertex -1.484188e-02  3.063493e-01  7.619048e-01
   endloop
 endfacet
 facet normal  0.000000e+00  0.000000e+00  1.000000e+00
   outer loop
     vertex  3.513900e-01  3.545646e-01  7.619048e-01
     vertex -1.484188e-02  3.063493e-01  7.619048e-01
     vertex -2.831057e-02  2.790375e-01  7.619048e-01
   endloop
 endfacet
 facet normal  0.000000e+00  0.000000e+00  1.000000e+00
   outer loop
     vertex  3.513900e-01  3.545646e-01  7.619048e-01
     vertex -2.831057e-02  2.790375e-01  7.619048e-01
     vertex -3.809912e-02  2.502013e-01  7.619048e-01
   endloop
 endfacet
 facet normal  0.000000e+00  0.000000e+00  1.000000e+00
   outer loop
     vertex  3.513900e-01  3.545646e-01  7.619048e-01
     vertex  3.031746e-01  3.915615e-01  7.619048e-01
     vertex  2.470267e-01  4.148188e-01  7.619048e-01
   endloop
 endfacet
 facet normal  0.000000e+00  0.000000e+00  1.000000e+00
   outer loop
     vertex  3.513900e-01  3.545646e-01  7.619048e-01
     vertex -3.809912e-02  2.502013e-01  7.619048e-01
     vertex -4.404006e-02  2.203342e-01  7.619048e-01
   endloop
 endfacet
 facet normal  0.000000e+00  0.000000e+00  1.000000e+00
   outer loop
     vertex  3.513900e-01  3.545646e-01  7.619048e-01
     vertex -4.404006e-02  2.203342e-01  7.619048e-01
     vertex -4.603174e-02  1.899472e-01  7.619048e-01
   endloop
 endfacet
 facet normal  0.000000e+00  0.000000e+00  1.000000e+00
   outer loop
     vertex  3.513900e-01  3.545646e-01  7.619048e-01
     vertex -4.603174e-02  1.899472e-01  7.619048e-01
     vertex -4.404006e-02  1.595601e-01  7.619048e-01
   endloop
 endfacet
 facet normal  0.000000e+00  0.000000e+00  1.000000e+00
   outer loop
     vertex  3.513900e-01  3.545646e-01  7.619048e-01
     vertex -4.404006e-02  1.595601e-01  7.619048e-01
     vertex -3.809912e-02  1.296930e-01  7.619048e-01
   endloop
 endfacet
 facet normal  0.000000e+00  0.000000e+00  1.000000e+00
   outer loop
     vertex  3.513900e-01  3.545646e-01  7.619048e-01
     vertex -3.809912e-02  1.296930e-01  7.619048e-01
     vertex -2.831057e-02  1.008568e-01  7.619048e-01
   endloop
 endfacet
 facet normal  0.000000e+00  0.000000e+00  1.000000e+00
   outer loop
     vertex  3.513900e-01  3.545646e-01  7.619048e-01
     vertex -2.831057e-02  1.008568e-01  7.619048e-01
     vertex -1.484188e-02  7.354505e-02  7.619048e-01
   endloop
 endfacet
 facet normal  0.000000e+00  0.000000e+00  1.000000e+00
   outer loop
     vertex  3.513900e-01  3.545646e-01  7.619048e-01
     vertex -1.484188e-02  7.354505e-02  7.619048e-01
     vertex  2.076483e-03  4.822492e-02  7.619048e-01
   endloop
 endfacet
 facet normal  0.000000e+00  0.000000e+00  1.000000e+00
   outer loop
     vertex  3.513900e-01  3.545646e-01  7.619048e-01
     vertex  2.076483e-03  4.822492e-02  7.619048e-01
     vertex  2.215505e-02  2.532971e-02  7.619048e-01
   endloop
 endfacet
 facet normal  0.000000e+00  0.000000e+00  1.000000e+00
   outer loop
     vertex  3.513900e-01  3.545646e-01  7.619048e-01
     vertex  2.215505e-02  2.532971e-02  7.619048e-01
     vertex  4.505026e-02  5.251144e-03  7.619048e-01
   endloop
 endfacet
 facet normal  0.000000e+00  0.000000e+00  1.000000e+00
   outer loop
     vertex  3.513900e-01  3.545646e-01  7.619048e-01
     vertex  4.505026e-02  5.251144e-03  7.619048e-01
     vertex  7.037038e-02 -1.166722e-02  7.619048e-01
   endloop
 endfacet
 facet normal  0.000000e+00  0.000000e+00  1.000000e+00
   outer loop
     vertex  3.513900e-01  3.545646e-01  7.619048e-01
     vertex  7.037038e-02 -1.166722e-02  7.619048e-01
     vertex  9.768218e-02 -2.513591e-02  7.619048e-01
   endloop
 endfacet
 facet normal  0.000000e+00  0.000000e+00  1.000000e+00
   outer loop
     vertex  3.513900e-01  3.545646e-01  7.619048e-01
     vertex  9.768218e-02 -2.513591e-02  7.619048e-01
     vertex  1.265183e-01 -3.492446e-02  7.619048e-01
   endloop
 endfacet
 facet normal  0.000000e+00  0.000000e+00  1.000000e+00
   outer loop
     vertex  3.513900e-01  3.545646e-01  7.619048e-01
     vertex  1.265183e-01 -3.492446e-02  7.619048e-01
     vertex  1.563855e-01 -4.086540e-02  7.619048e-01
   endloop
 endfacet
 facet normal  0.000000e+00  0.000000e+00  1.000000e+00
   outer loop
     vertex  3.513900e-01  3.545646e-01  7.619048e-01
     vertex  1.563855e-01 -4.086540e-02  7.619048e-01
     vertex  1.867725e-01 -4.285707e-02  7.619048e-01
   endloop
 endfacet
 facet normal  0.000000e+00  0.000000e+00  1.000000e+00
   outer loop
     vertex  3.513900e-01  3.545646e-01  7.619048e-01
     vertex  1.867725e-01 -4.285707e-02  7.619048e-01
     vertex  2.171596e-01 -4.086540e-02  7.619048e-01
   endloop
 endfacet
 facet normal  0.000000e+00  0.000000e+00  1.000000e+00
   outer loop
     vertex  3.513900e-01  3.545646e-01  7.619048e-01
     vertex  2.171596e-01 -4.086540e-02  7.619048e-01
     vertex  2.470267e-01 -3.492446e-02  7.619048e-01
   endloop
 endfacet
 facet normal  0.000000e+00  0.000000e+00  1.000000e+00
   outer loop
     vertex  3.513900e-01  3.545646e-01  7.619048e-01
     vertex  2.470267e-01 -3.492446e-02  7.619048e-01
     vertex  2.758628e-01 -2.513591e-02  7.619048e-01
   endloop
 endfacet
 facet normal  0.000000e+00  0.000000e+00  1.000000e+00
   outer loop
     vertex  3.513900e-01  3.545646e-01  7.619048e-01
     vertex  2.758628e-01 -2.513591e-02  7.619048e-01
     vertex  3.031746e-01 -1.166722e-02  7.619048e-01
   endloop
 endfacet
 facet normal  0.000000e+00  0.000000e+00  1.000000e+00
   outer loop
     vertex  3.513900e-01  3.545646e-01  7.619048e-01
     vertex  3.031746e-01 -1.166722e-02  7.619048e-01
     vertex  3.284947e-01  5.251144e-03  7.619048e-01
   endloop
 endfacet
 facet normal  0.000000e+00  0.000000e+00  1.000000e+00
   outer loop
     vertex  3.513900e-01  3.545646e-01  7.619048e-01
     vertex  4.018556e-01  1.008568e-01  7.619048e-01
     vertex  4.116441e-01  1.296930e-01  7.619048e-01
   endloop
 endfacet
 facet normal  0.000000e+00  0.000000e+00  1.000000e+00
   outer loop
     vertex  3.513900e-01  3.545646e-01  7.619048e-01
     vertex  4.116441e-01  1.296930e-01  7.619048e-01
     vertex  4.175851e-01  1.595601e-01  7.619048e-01
   endloop
 endfacet
 facet normal  0.000000e+00  0.000000e+00  1.000000e+00
   outer loop
     vertex  3.513900e-01  3.545646e-01  7.619048e-01
     vertex  4.175851e-01  1.595601e-01  7.619048e-01
     vertex  4.195767e-01  1.899472e-01  7.619048e-01
   endloop
 endfacet
 facet normal  0.000000e+00  0.000000e+00  1.000000e+00
   outer loop
     vertex  3.513900e-01  3.545646e-01  7.619048e-01
     vertex  4.175851e-01  2.203342e-01  7.619048e-01
     vertex  3.714685e-01  3.316694e-01  7.619048e-01
   endloop
 endfacet
endsolid
