solid 
 facet normal -0.000000e+00  0.000000e+00 -1.000000e+00
   outer loop
     vertex  9.416226e-01 -1.587302e-02 -6.543222e-02
     vertex -4.885370e-02 -3.492064e-01 -6.543222e-02
     vertex -4.885370e-02 -1.587302e-02 -6.543222e-02
   endloop
 endfacet
 facet normal  0.000000e+00 -0.000000e+00 -1.000000e+00
   outer loop
     vertex  9.416226e-01 -1.587302e-02 -6.543222e-02
     vertex  9.416226e-01 -3.492064e-01 -6.543222e-02
     vertex -4.885370e-02 -3.492064e-01 -6.543222e-02
   endloop
 endfacet
 facet normal -1.000000e+00  0.000000e+00  0.000000e+00
   outer loop
     vertex -4.885370e-02 -1.587302e-02 -6.543222e-02
     vertex -4.885370e-02 -3.492064e-01  1.349207e-01
     vertex -4.885370e-02 -1.587302e-02  1.349207e-01
   endloop
 endfacet
 facet normal -1.000000e+00  0.000000e+00  0.000000e+00
   outer loop
     vertex -4.885370e-02 -1.587302e-02 -6.543222e-02
     vertex -4.885370e-02 -3.492064e-01 -6.543222e-02
     vertex -4.885370e-02 -3.492064e-01  1.349207e-01
   endloop
 endfacet
 facet normal  1.000000e+00  0.000000e+00  0.000000e+00
   outer loop
     vertex  9.416226e-01 -1.587302e-02  5.582010e-01
     vertex  9.416226e-01 -3.492064e-01 -6.543222e-02
     vertex  9.416226e-01 -1.587302e-02 -6.543222e-02
   endloop
 endfacet
 facet normal  1.000000e+00  0.000000e+00  0.000000e+00
   outer loop
     vertex  9.416226e-01 -1.587302e-02  5.582010e-01
     vertex  9.416226e-01 -3.492064e-01  5.582010e-01
     vertex  9.416226e-01 -3.492064e-01 -6.543222e-02
   endloop
 endfacet
 facet normal  0.000000e+00  0.000000e+00 -1.000000e+00
   outer loop
     vertex  9.416226e-01 -1.587302e-02 -6.543222e-02
     vertex -4.885370e-02 -1.587302e-02 -6.543222e-02
     vertex -4.885370e-02  0.000000e+00 -6.543222e-02
   endloop
 endfacet
 facet normal  0.000000e+00  0.000000e+00 -1.000000e+00
   outer loop
     vertex  9.416226e-01 -1.587302e-02 -6.543222e-02
     vertex -4.885370e-02  0.000000e+00 -6.543222e-02
     vertex  9.416226e-01  0.000000e+00 -6.543222e-02
   endloop
 endfacet
 facet normal  8.896440e-08 -1.000000e+00  1.497358e-07
   outer loop
     vertex  2.883598e-01 -3.492063e-01  1.349207e-01
     vertex -4.885370e-02 -3.492064e-01  1.349207e-01
     vertex -4.885370e-02 -3.492064e-01 -6.543222e-02
   endloop
 endfacet
 facet normal  0.000000e+00 -1.000000e+00  2.994716e-07
   outer loop
     vertex  5.761906e-01 -3.492063e-01  1.349207e-01
     vertex  2.883598e-01 -3.492063e-01  1.349207e-01
     vertex -4.885370e-02 -3.492064e-01 -6.543222e-02
   endloop
 endfacet
 facet normal  0.000000e+00 -1.000000e+00  2.994716e-07
   outer loop
     vertex  9.416226e-01 -3.492064e-01 -6.543222e-02
     vertex  5.761906e-01 -3.492063e-01  1.349207e-01
     vertex -4.885370e-02 -3.492064e-01 -6.543222e-02
   endloop
 endfacet
 facet normal  0.000000e+00 -1.000000e+00  2.994716e-07
   outer loop
     vertex  9.317461e-01 -3.492063e-01  1.349207e-01
     vertex  5.761906e-01 -3.492063e-01  1.349207e-01
     vertex  9.416226e-01 -3.492064e-01 -6.543222e-02
   endloop
 endfacet
 facet normal -0.000000e+00 -1.000000e+00 -7.087502e-08
   outer loop
     vertex  5.761906e-01 -3.492064e-01  5.582010e-01
     vertex  2.883598e-01 -3.492064e-01  5.582010e-01
     vertex  2.883598e-01 -3.492063e-01  1.349207e-01
   endloop
 endfacet
 facet normal  0.000000e+00 -1.000000e+00 -7.087502e-08
   outer loop
     vertex  5.761906e-01 -3.492064e-01  5.582010e-01
     vertex  2.883598e-01 -3.492063e-01  1.349207e-01
     vertex  5.761906e-01 -3.492063e-01  1.349207e-01
   endloop
 endfacet
 facet normal -3.037534e-06 -1.000000e+00 -7.087502e-08
   outer loop
     vertex  9.416226e-01 -3.492064e-01  5.582010e-01
     vertex  9.317461e-01 -3.492064e-01  5.582010e-01
     vertex  9.317461e-01 -3.492063e-01  1.349207e-01
   endloop
 endfacet
 facet normal -6.075068e-06 -1.000000e+00  0.000000e+00
   outer loop
     vertex  9.416226e-01 -3.492064e-01 -6.543222e-02
     vertex  9.416226e-01 -3.492064e-01  5.582010e-01
     vertex  9.317461e-01 -3.492063e-01  1.349207e-01
   endloop
 endfacet
 facet normal -1.000000e+00  0.000000e+00  0.000000e+00
   outer loop
     vertex -4.885370e-02 -1.587302e-02 -6.543222e-02
     vertex -4.885370e-02 -1.587302e-02  1.349207e-01
     vertex -4.885370e-02  0.000000e+00  1.349207e-01
   endloop
 endfacet
 facet normal -1.000000e+00  0.000000e+00  0.000000e+00
   outer loop
     vertex -4.885370e-02 -1.587302e-02 -6.543222e-02
     vertex -4.885370e-02  0.000000e+00  1.349207e-01
     vertex -4.885370e-02  0.000000e+00 -6.543222e-02
   endloop
 endfacet
 facet normal  8.230860e-17  0.000000e+00  1.000000e+00
   outer loop
     vertex  2.883598e-01  0.000000e+00  1.349207e-01
     vertex -4.885370e-02  0.000000e+00  1.349207e-01
     vertex -4.885370e-02 -1.587302e-02  1.349207e-01
   endloop
 endfacet
 facet normal  8.230860e-17  0.000000e+00  1.000000e+00
   outer loop
     vertex  2.883598e-01 -3.492063e-01  1.349207e-01
     vertex -4.885370e-02 -1.587302e-02  1.349207e-01
     vertex -4.885370e-02 -3.492064e-01  1.349207e-01
   endloop
 endfacet
 facet normal  8.230860e-17 -0.000000e+00  1.000000e+00
   outer loop
     vertex  2.883598e-01 -3.492063e-01  1.349207e-01
     vertex  2.883598e-01  0.000000e+00  1.349207e-01
     vertex -4.885370e-02 -1.587302e-02  1.349207e-01
   endloop
 endfacet
 facet normal  0.000000e+00  0.000000e+00  1.000000e+00
   outer loop
     vertex  9.416226e-01 -1.587302e-02  5.582010e-01
     vertex  9.317461e-01 -3.492064e-01  5.582010e-01
     vertex  9.416226e-01 -3.492064e-01  5.582010e-01
   endloop
 endfacet
 facet normal -0.000000e+00  0.000000e+00  1.000000e+00
   outer loop
     vertex  9.317461e-01 -1.587302e-02  5.582010e-01
     vertex  9.317461e-01 -3.492064e-01  5.582010e-01
     vertex  9.416226e-01 -1.587302e-02  5.582010e-01
   endloop
 endfacet
 facet normal  1.000000e+00  0.000000e+00  0.000000e+00
   outer loop
     vertex  9.416226e-01 -1.587302e-02  5.582010e-01
     vertex  9.416226e-01 -1.587302e-02 -6.543222e-02
     vertex  9.416226e-01  0.000000e+00 -6.543222e-02
   endloop
 endfacet
 facet normal  1.000000e+00 -0.000000e+00  0.000000e+00
   outer loop
     vertex  9.416226e-01 -1.587302e-02  5.582010e-01
     vertex  9.416226e-01  0.000000e+00 -6.543222e-02
     vertex  9.416226e-01  0.000000e+00  5.582010e-01
   endloop
 endfacet
 facet normal  0.000000e+00  1.000000e+00  0.000000e+00
   outer loop
     vertex  2.883598e-01  0.000000e+00  1.349207e-01
     vertex -4.885370e-02  0.000000e+00 -6.543222e-02
     vertex -4.885370e-02  0.000000e+00  1.349207e-01
   endloop
 endfacet
 facet normal  0.000000e+00  1.000000e+00  0.000000e+00
   outer loop
     vertex  5.761906e-01  0.000000e+00  1.349207e-01
     vertex -4.885370e-02  0.000000e+00 -6.543222e-02
     vertex  2.883598e-01  0.000000e+00  1.349207e-01
   endloop
 endfacet
 facet normal  0.000000e+00  1.000000e+00  0.000000e+00
   outer loop
     vertex  9.416226e-01  0.000000e+00 -6.543222e-02
     vertex -4.885370e-02  0.000000e+00 -6.543222e-02
     vertex  5.761906e-01  0.000000e+00  1.349207e-01
   endloop
 endfacet
 facet normal  0.000000e+00  1.000000e+00  0.000000e+00
   outer loop
     vertex  9.317461e-01  0.000000e+00  1.349207e-01
     vertex  9.416226e-01  0.000000e+00 -6.543222e-02
     vertex  5.761906e-01  0.000000e+00  1.349207e-01
   endloop
 endfacet
 facet normal  0.000000e+00  1.000000e+00  0.000000e+00
   outer loop
     vertex  5.761906e-01  0.000000e+00  5.582010e-01
     vertex  2.883598e-01  0.000000e+00  1.349207e-01
     vertex  2.883598e-01  0.000000e+00  5.582010e-01
   endloop
 endfacet
 facet normal  0.000000e+00  1.000000e+00  0.000000e+00
   outer loop
     vertex  5.761906e-01  0.000000e+00  5.582010e-01
     vertex  5.761906e-01  0.000000e+00  1.349207e-01
     vertex  2.883598e-01  0.000000e+00  1.349207e-01
   endloop
 endfacet
 facet normal  0.000000e+00  1.000000e+00  0.000000e+00
   outer loop
     vertex  9.416226e-01  0.000000e+00  5.582010e-01
     vertex  9.317461e-01  0.000000e+00  1.349207e-01
     vertex  9.317461e-01  0.000000e+00  5.582010e-01
   endloop
 endfacet
 facet normal  0.000000e+00  1.000000e+00 -0.000000e+00
   outer loop
     vertex  9.416226e-01  0.000000e+00 -6.543222e-02
     vertex  9.317461e-01  0.000000e+00  1.349207e-01
     vertex  9.416226e-01  0.000000e+00  5.582010e-01
   endloop
 endfacet
 facet normal -1.000000e+00  0.000000e+00 -0.000000e+00
   outer loop
     vertex  2.883598e-01 -1.587302e-02  5.582010e-01
     vertex  2.883598e-01  0.000000e+00  1.349207e-01
     vertex  2.883598e-01 -3.492063e-01  1.349207e-01
   endloop
 endfacet
 facet normal -1.000000e+00  0.000000e+00  0.000000e+00
   outer loop
     vertex  2.883598e-01 -1.587302e-02  5.582010e-01
     vertex  2.883598e-01  0.000000e+00  5.582010e-01
     vertex  2.883598e-01  0.000000e+00  1.349207e-01
   endloop
 endfacet
 facet normal -1.000000e+00  0.000000e+00  0.000000e+00
   outer loop
     vertex  2.883598e-01 -3.492064e-01  5.582010e-01
     vertex  2.883598e-01 -1.587302e-02  5.582010e-01
     vertex  2.883598e-01 -3.492063e-01  1.349207e-01
   endloop
 endfacet
 facet normal  0.000000e+00  0.000000e+00  1.000000e+00
   outer loop
     vertex  5.761906e-01 -1.587302e-02  5.582010e-01
     vertex  2.883598e-01 -3.492064e-01  5.582010e-01
     vertex  5.761906e-01 -3.492064e-01  5.582010e-01
   endloop
 endfacet
 facet normal -0.000000e+00  0.000000e+00  1.000000e+00
   outer loop
     vertex  2.883598e-01 -1.587302e-02  5.582010e-01
     vertex  2.883598e-01 -3.492064e-01  5.582010e-01
     vertex  5.761906e-01 -1.587302e-02  5.582010e-01
   endloop
 endfacet
 facet normal  1.000000e+00  0.000000e+00 -0.000000e+00
   outer loop
     vertex  5.761906e-01  0.000000e+00  1.349207e-01
     vertex  5.761906e-01  0.000000e+00  5.582010e-01
     vertex  5.761906e-01 -1.587302e-02  5.582010e-01
   endloop
 endfacet
 facet normal  1.000000e+00  0.000000e+00 -0.000000e+00
   outer loop
     vertex  5.761906e-01 -3.492063e-01  1.349207e-01
     vertex  5.761906e-01 -1.587302e-02  5.582010e-01
     vertex  5.761906e-01 -3.492064e-01  5.582010e-01
   endloop
 endfacet
 facet normal  1.000000e+00  0.000000e+00  0.000000e+00
   outer loop
     vertex  5.761906e-01 -3.492063e-01  1.349207e-01
     vertex  5.761906e-01  0.000000e+00  1.349207e-01
     vertex  5.761906e-01 -1.587302e-02  5.582010e-01
   endloop
 endfacet
 facet normal  0.000000e+00  0.000000e+00  1.000000e+00
   outer loop
     vertex  9.317461e-01 -3.492063e-01  1.349207e-01
     vertex  5.761906e-01  0.000000e+00  1.349207e-01
     vertex  5.761906e-01 -3.492063e-01  1.349207e-01
   endloop
 endfacet
 facet normal  0.000000e+00 -0.000000e+00  1.000000e+00
   outer loop
     vertex  9.317461e-01 -3.492063e-01  1.349207e-01
     vertex  9.317461e-01  0.000000e+00  1.349207e-01
     vertex  5.761906e-01  0.000000e+00  1.349207e-01
   endloop
 endfacet
 facet normal -1.000000e+00  0.000000e+00 -0.000000e+00
   outer loop
     vertex  9.317461e-01 -1.587302e-02  5.582010e-01
     vertex  9.317461e-01  0.000000e+00  1.349207e-01
     vertex  9.317461e-01 -3.492063e-01  1.349207e-01
   endloop
 endfacet
 facet normal -1.000000e+00  0.000000e+00  0.000000e+00
   outer loop
     vertex  9.317461e-01 -1.587302e-02  5.582010e-01
     vertex  9.317461e-01  0.000000e+00  5.582010e-01
     vertex  9.317461e-01  0.000000e+00  1.349207e-01
   endloop
 endfacet
 facet normal -1.000000e+00  0.000000e+00  0.000000e+00
   outer loop
     vertex  9.317461e-01 -3.492064e-01  5.582010e-01
     vertex  9.317461e-01 -1.587302e-02  5.582010e-01
     vertex  9.317461e-01 -3.492063e-01  1.349207e-01
   endloop
 endfacet
 facet normal  0.000000e+00  0.000000e+00  1.000000e+00
   outer loop
     vertex  9.317461e-01 -1.587302e-02  5.582010e-01
     vertex  9.416226e-01 -1.587302e-02  5.582010e-01
     vertex  9.416226e-01  0.000000e+00  5.582010e-01
   endloop
 endfacet
 facet normal  0.000000e+00  0.000000e+00  1.000000e+00
   outer loop
     vertex  9.317461e-01 -1.587302e-02  5.582010e-01
     vertex  9.416226e-01  0.000000e+00  5.582010e-01
     vertex  9.317461e-01  0.000000e+00  5.582010e-01
   endloop
 endfacet
 facet normal  0.000000e+00  0.000000e+00  1.000000e+00
   outer loop
     vertex  2.883598e-01 -1.587302e-02  5.582010e-01
     vertex  5.761906e-01 -1.587302e-02  5.582010e-01
     vertex  5.761906e-01  0.000000e+00  5.582010e-01
   endloop
 endfacet
 facet normal  0.000000e+00  0.000000e+00  1.000000e+00
   outer loop
     vertex  2.883598e-01 -1.587302e-02  5.582010e-01
     vertex  5.761906e-01  0.000000e+00  5.582010e-01
     vertex  2.883598e-01  0.000000e+00  5.582010e-01
   endloop
 endfacet
endsolid
