solid 
 facet normal  0.000000e+00  0.000000e+00 -1.000000e+00
   outer loop
     vertex -1.587302e-02  1.222223e-01 -1.380952e-01
     vertex  7.619048e-01 -2.460317e-01 -1.380952e-01
     vertex -1.587302e-02 -2.460317e-01 -1.380952e-01
   endloop
 endfacet
 facet normal  0.000000e+00  0.000000e+00 -1.000000e+00
   outer loop
     vertex -1.587302e-02  1.222223e-01 -1.380952e-01
     vertex  7.619048e-01  1.222223e-01 -1.380952e-01
     vertex  7.619048e-01 -2.460317e-01 -1.380952e-01
   endloop
 endfacet
 facet normal  0.000000e+00 -1.000000e+00  0.000000e+00
   outer loop
     vertex -1.587302e-02 -2.460317e-01 -1.380952e-01
     vertex  7.619048e-01 -2.460317e-01  1.428576e-02
     vertex -1.587302e-02 -2.460317e-01  1.428576e-02
   endloop
 endfacet
 facet normal  0.000000e+00 -1.000000e+00  0.000000e+00
   outer loop
     vertex -1.587302e-02 -2.460317e-01 -1.380952e-01
     vertex  7.619048e-01 -2.460317e-01 -1.380952e-01
     vertex  7.619048e-01 -2.460317e-01  1.428576e-02
   endloop
 endfacet
 facet normal  0.000000e+00  1.000000e+00  0.000000e+00
   outer loop
     vertex -1.587302e-02  1.222223e-01  1.428576e-02
     vertex  7.619048e-01  1.222223e-01 -1.380952e-01
     vertex -1.587302e-02  1.222223e-01 -1.380952e-01
   endloop
 endfacet
 facet normal -0.000000e+00  1.000000e+00  0.000000e+00
   outer loop
     vertex -1.587302e-02  1.222223e-01  1.428576e-02
     vertex  7.619048e-01  1.222223e-01  1.428576e-02
     vertex  7.619048e-01  1.222223e-01 -1.380952e-01
   endloop
 endfacet
 facet normal  0.000000e+00 -0.000000e+00 -1.000000e+00
   outer loop
     vertex -1.587302e-02  1.222223e-01 -1.380952e-01
     vertex -1.587302e-02 -2.460317e-01 -1.380952e-01
     vertex -3.174603e-02 -2.460317e-01 -1.380952e-01
   endloop
 endfacet
 facet normal -0.000000e+00  0.000000e+00 -1.000000e+00
   outer loop
     vertex -1.587302e-02  1.222223e-01 -1.380952e-01
     vertex -3.174603e-02 -2.460317e-01 -1.380952e-01
     vertex -3.174603e-02  1.222223e-01 -1.380952e-01
   endloop
 endfacet
 facet normal  1.000000e+00  0.000000e+00  0.000000e+00
   outer loop
     vertex  7.619048e-01 -6.789938e-02 -7.185580e-02
     vertex  7.619048e-01 -7.069996e-02 -6.937471e-02
     vertex  7.619048e-01 -2.460317e-01 -1.380952e-01
   endloop
 endfacet
 facet normal  1.000000e+00  0.000000e+00  0.000000e+00
   outer loop
     vertex  7.619048e-01 -7.282539e-02 -6.629549e-02
     vertex  7.619048e-01 -2.460317e-01 -1.380952e-01
     vertex  7.619048e-01 -7.069996e-02 -6.937471e-02
   endloop
 endfacet
 facet normal  1.000000e+00  0.000000e+00  0.000000e+00
   outer loop
     vertex  7.619048e-01 -6.458643e-02 -7.359458e-02
     vertex  7.619048e-01 -6.789938e-02 -7.185580e-02
     vertex  7.619048e-01 -2.460317e-01 -1.380952e-01
   endloop
 endfacet
 facet normal  1.000000e+00  0.000000e+00  0.000000e+00
   outer loop
     vertex  7.619048e-01 -7.415215e-02 -6.279711e-02
     vertex  7.619048e-01 -2.460317e-01 -1.380952e-01
     vertex  7.619048e-01 -7.282539e-02 -6.629549e-02
   endloop
 endfacet
 facet normal  1.000000e+00  0.000000e+00  0.000000e+00
   outer loop
     vertex  7.619048e-01 -6.095362e-02 -7.448998e-02
     vertex  7.619048e-01 -6.458643e-02 -7.359458e-02
     vertex  7.619048e-01 -2.460317e-01 -1.380952e-01
   endloop
 endfacet
 facet normal  1.000000e+00  0.000000e+00  0.000000e+00
   outer loop
     vertex  7.619048e-01 -7.460314e-02 -5.908286e-02
     vertex  7.619048e-01 -2.460317e-01  1.428576e-02
     vertex  7.619048e-01 -2.460317e-01 -1.380952e-01
   endloop
 endfacet
 facet normal  1.000000e+00  0.000000e+00  0.000000e+00
   outer loop
     vertex  7.619048e-01 -7.460314e-02 -5.908286e-02
     vertex  7.619048e-01 -2.460317e-01 -1.380952e-01
     vertex  7.619048e-01 -7.415215e-02 -6.279711e-02
   endloop
 endfacet
 facet normal  1.000000e+00  0.000000e+00  0.000000e+00
   outer loop
     vertex  7.619048e-01 -7.415215e-02 -5.536861e-02
     vertex  7.619048e-01 -2.460317e-01  1.428576e-02
     vertex  7.619048e-01 -7.460314e-02 -5.908286e-02
   endloop
 endfacet
 facet normal  1.000000e+00  0.000000e+00  0.000000e+00
   outer loop
     vertex  7.619048e-01 -7.282539e-02 -5.187022e-02
     vertex  7.619048e-01 -2.460317e-01  1.428576e-02
     vertex  7.619048e-01 -7.415215e-02 -5.536861e-02
   endloop
 endfacet
 facet normal  1.000000e+00  0.000000e+00  0.000000e+00
   outer loop
     vertex  7.619048e-01 -7.069996e-02 -4.879101e-02
     vertex  7.619048e-01 -2.460317e-01  1.428576e-02
     vertex  7.619048e-01 -7.282539e-02 -5.187022e-02
   endloop
 endfacet
 facet normal  1.000000e+00  0.000000e+00  0.000000e+00
   outer loop
     vertex  7.619048e-01 -6.789938e-02 -4.630992e-02
     vertex  7.619048e-01 -2.460317e-01  1.428576e-02
     vertex  7.619048e-01 -7.069996e-02 -4.879101e-02
   endloop
 endfacet
 facet normal  1.000000e+00  0.000000e+00  0.000000e+00
   outer loop
     vertex  7.619048e-01 -6.458643e-02 -4.457114e-02
     vertex  7.619048e-01 -2.460317e-01  1.428576e-02
     vertex  7.619048e-01 -6.789938e-02 -4.630992e-02
   endloop
 endfacet
 facet normal  1.000000e+00  0.000000e+00  0.000000e+00
   outer loop
     vertex  7.619048e-01 -6.095362e-02 -4.367574e-02
     vertex  7.619048e-01 -2.460317e-01  1.428576e-02
     vertex  7.619048e-01 -6.458643e-02 -4.457114e-02
   endloop
 endfacet
 facet normal  1.000000e+00  0.000000e+00  0.000000e+00
   outer loop
     vertex  7.619048e-01  1.222223e-01 -1.380952e-01
     vertex  7.619048e-01 -5.721210e-02 -7.448998e-02
     vertex  7.619048e-01 -6.095362e-02 -7.448998e-02
   endloop
 endfacet
 facet normal  1.000000e+00  0.000000e+00  0.000000e+00
   outer loop
     vertex  7.619048e-01  1.222223e-01 -1.380952e-01
     vertex  7.619048e-01 -5.357929e-02 -7.359458e-02
     vertex  7.619048e-01 -5.721210e-02 -7.448998e-02
   endloop
 endfacet
 facet normal  1.000000e+00  0.000000e+00  0.000000e+00
   outer loop
     vertex  7.619048e-01  1.222223e-01 -1.380952e-01
     vertex  7.619048e-01 -5.026633e-02 -7.185580e-02
     vertex  7.619048e-01 -5.357929e-02 -7.359458e-02
   endloop
 endfacet
 facet normal  1.000000e+00  0.000000e+00  0.000000e+00
   outer loop
     vertex  7.619048e-01  1.222223e-01 -1.380952e-01
     vertex  7.619048e-01 -4.746576e-02 -6.937471e-02
     vertex  7.619048e-01 -5.026633e-02 -7.185580e-02
   endloop
 endfacet
 facet normal  1.000000e+00  0.000000e+00  0.000000e+00
   outer loop
     vertex  7.619048e-01  1.222223e-01 -1.380952e-01
     vertex  7.619048e-01 -4.534033e-02 -6.629549e-02
     vertex  7.619048e-01 -4.746576e-02 -6.937471e-02
   endloop
 endfacet
 facet normal  1.000000e+00  0.000000e+00  0.000000e+00
   outer loop
     vertex  7.619048e-01  1.222223e-01 -1.380952e-01
     vertex  7.619048e-01 -4.401357e-02 -6.279711e-02
     vertex  7.619048e-01 -4.534033e-02 -6.629549e-02
   endloop
 endfacet
 facet normal  1.000000e+00  0.000000e+00  0.000000e+00
   outer loop
     vertex  7.619048e-01  1.222223e-01 -1.380952e-01
     vertex  7.619048e-01 -4.356258e-02 -5.908286e-02
     vertex  7.619048e-01 -4.401357e-02 -6.279711e-02
   endloop
 endfacet
 facet normal  1.000000e+00  0.000000e+00  0.000000e+00
   outer loop
     vertex  7.619048e-01  1.222223e-01 -1.380952e-01
     vertex  7.619048e-01 -6.095362e-02 -7.448998e-02
     vertex  7.619048e-01 -2.460317e-01 -1.380952e-01
   endloop
 endfacet
 facet normal  1.000000e+00  0.000000e+00  0.000000e+00
   outer loop
     vertex  7.619048e-01  1.222223e-01  1.428576e-02
     vertex  7.619048e-01 -4.401357e-02 -5.536861e-02
     vertex  7.619048e-01 -4.356258e-02 -5.908286e-02
   endloop
 endfacet
 facet normal  1.000000e+00  0.000000e+00  0.000000e+00
   outer loop
     vertex  7.619048e-01  1.222223e-01  1.428576e-02
     vertex  7.619048e-01 -4.534033e-02 -5.187022e-02
     vertex  7.619048e-01 -4.401357e-02 -5.536861e-02
   endloop
 endfacet
 facet normal  1.000000e+00  0.000000e+00  0.000000e+00
   outer loop
     vertex  7.619048e-01  1.222223e-01  1.428576e-02
     vertex  7.619048e-01 -4.746576e-02 -4.879101e-02
     vertex  7.619048e-01 -4.534033e-02 -5.187022e-02
   endloop
 endfacet
 facet normal  1.000000e+00  0.000000e+00  0.000000e+00
   outer loop
     vertex  7.619048e-01  1.222223e-01  1.428576e-02
     vertex  7.619048e-01 -5.026633e-02 -4.630992e-02
     vertex  7.619048e-01 -4.746576e-02 -4.879101e-02
   endloop
 endfacet
 facet normal  1.000000e+00  0.000000e+00  0.000000e+00
   outer loop
     vertex  7.619048e-01  1.222223e-01  1.428576e-02
     vertex  7.619048e-01 -5.357929e-02 -4.457114e-02
     vertex  7.619048e-01 -5.026633e-02 -4.630992e-02
   endloop
 endfacet
 facet normal  1.000000e+00  0.000000e+00  0.000000e+00
   outer loop
     vertex  7.619048e-01  1.222223e-01  1.428576e-02
     vertex  7.619048e-01 -5.721210e-02 -4.367574e-02
     vertex  7.619048e-01 -5.357929e-02 -4.457114e-02
   endloop
 endfacet
 facet normal  1.000000e+00  0.000000e+00  0.000000e+00
   outer loop
     vertex  7.619048e-01  1.222223e-01  1.428576e-02
     vertex  7.619048e-01 -4.356258e-02 -5.908286e-02
     vertex  7.619048e-01  1.222223e-01 -1.380952e-01
   endloop
 endfacet
 facet normal  1.000000e+00  0.000000e+00  0.000000e+00
   outer loop
     vertex  7.619048e-01  1.222223e-01  1.428576e-02
     vertex  7.619048e-01 -2.460317e-01  1.428576e-02
     vertex  7.619048e-01 -6.095362e-02 -4.367574e-02
   endloop
 endfacet
 facet normal  1.000000e+00  0.000000e+00  0.000000e+00
   outer loop
     vertex  7.619048e-01  1.222223e-01  1.428576e-02
     vertex  7.619048e-01 -6.095362e-02 -4.367574e-02
     vertex  7.619048e-01 -5.721210e-02 -4.367574e-02
   endloop
 endfacet
 facet normal  0.000000e+00  0.000000e+00  1.000000e+00
   outer loop
     vertex -1.587302e-02 -2.460317e-01  1.428576e-02
     vertex  7.619048e-01  1.222223e-01  1.428576e-02
     vertex -1.587302e-02  1.222223e-01  1.428576e-02
   endloop
 endfacet
 facet normal  0.000000e+00  0.000000e+00  1.000000e+00
   outer loop
     vertex -1.587302e-02 -2.460317e-01  1.428576e-02
     vertex  7.619048e-01 -2.460317e-01  1.428576e-02
     vertex  7.619048e-01  1.222223e-01  1.428576e-02
   endloop
 endfacet
 facet normal  0.000000e+00 -1.000000e+00  0.000000e+00
   outer loop
     vertex -1.587302e-02 -2.460317e-01 -1.380952e-01
     vertex -1.587302e-02 -2.460317e-01  1.428576e-02
     vertex -3.174603e-02 -2.460317e-01  1.428576e-02
   endloop
 endfacet
 facet normal  0.000000e+00 -1.000000e+00  0.000000e+00
   outer loop
     vertex -1.587302e-02 -2.460317e-01 -1.380952e-01
     vertex -3.174603e-02 -2.460317e-01  1.428576e-02
     vertex -3.174603e-02 -2.460317e-01 -1.380952e-01
   endloop
 endfacet
 facet normal  0.000000e+00  1.000000e+00  0.000000e+00
   outer loop
     vertex -1.587302e-02  1.222223e-01  1.428576e-02
     vertex -1.587302e-02  1.222223e-01 -1.380952e-01
     vertex -3.174603e-02  1.222223e-01 -1.380952e-01
   endloop
 endfacet
 facet normal  0.000000e+00  1.000000e+00  0.000000e+00
   outer loop
     vertex -1.587302e-02  1.222223e-01  1.428576e-02
     vertex -3.174603e-02  1.222223e-01 -1.380952e-01
     vertex -3.174603e-02  1.222223e-01  1.428576e-02
   endloop
 endfacet
 facet normal -1.000000e+00  0.000000e+00 -0.000000e+00
   outer loop
     vertex -3.174603e-02  1.222223e-01  1.428576e-02
     vertex -3.174603e-02  1.222223e-01 -1.380952e-01
     vertex -3.174603e-02 -2.460317e-01 -1.380952e-01
   endloop
 endfacet
 facet normal -1.000000e+00 -0.000000e+00  0.000000e+00
   outer loop
     vertex -3.174603e-02  1.222223e-01  1.428576e-02
     vertex -3.174603e-02 -2.460317e-01 -1.380952e-01
     vertex -3.174603e-02 -2.460317e-01  1.428576e-02
   endloop
 endfacet
 facet normal  0.000000e+00  9.927089e-01  1.205367e-01
   outer loop
     vertex  7.777778e-01 -4.401357e-02 -5.536861e-02
     vertex  7.777778e-01 -4.356258e-02 -5.908286e-02
     vertex  7.619048e-01 -4.356258e-02 -5.908286e-02
   endloop
 endfacet
 facet normal  0.000000e+00  9.927089e-01  1.205367e-01
   outer loop
     vertex  7.777778e-01 -4.401357e-02 -5.536861e-02
     vertex  7.619048e-01 -4.356258e-02 -5.908286e-02
     vertex  7.619048e-01 -4.401357e-02 -5.536861e-02
   endloop
 endfacet
 facet normal  0.000000e+00  9.350162e-01  3.546049e-01
   outer loop
     vertex  7.777778e-01 -4.534033e-02 -5.187022e-02
     vertex  7.619048e-01 -4.401357e-02 -5.536861e-02
     vertex  7.619048e-01 -4.534033e-02 -5.187022e-02
   endloop
 endfacet
 facet normal  0.000000e+00  9.350162e-01  3.546049e-01
   outer loop
     vertex  7.777778e-01 -4.534033e-02 -5.187022e-02
     vertex  7.777778e-01 -4.401357e-02 -5.536861e-02
     vertex  7.619048e-01 -4.401357e-02 -5.536861e-02
   endloop
 endfacet
 facet normal  0.000000e+00  8.229839e-01  5.680647e-01
   outer loop
     vertex  7.777778e-01 -4.746576e-02 -4.879101e-02
     vertex  7.619048e-01 -4.534033e-02 -5.187022e-02
     vertex  7.619048e-01 -4.746576e-02 -4.879101e-02
   endloop
 endfacet
 facet normal  0.000000e+00  8.229839e-01  5.680647e-01
   outer loop
     vertex  7.777778e-01 -4.746576e-02 -4.879101e-02
     vertex  7.777778e-01 -4.534033e-02 -5.187022e-02
     vertex  7.619048e-01 -4.534033e-02 -5.187022e-02
   endloop
 endfacet
 facet normal  0.000000e+00  6.631227e-01  7.485107e-01
   outer loop
     vertex  7.777778e-01 -5.026633e-02 -4.630992e-02
     vertex  7.619048e-01 -4.746576e-02 -4.879101e-02
     vertex  7.619048e-01 -5.026633e-02 -4.630992e-02
   endloop
 endfacet
 facet normal  0.000000e+00  6.631227e-01  7.485107e-01
   outer loop
     vertex  7.777778e-01 -5.026633e-02 -4.630992e-02
     vertex  7.777778e-01 -4.746576e-02 -4.879101e-02
     vertex  7.619048e-01 -4.746576e-02 -4.879101e-02
   endloop
 endfacet
 facet normal  0.000000e+00  4.647232e-01  8.854560e-01
   outer loop
     vertex  7.777778e-01 -5.357929e-02 -4.457114e-02
     vertex  7.619048e-01 -5.026633e-02 -4.630992e-02
     vertex  7.619048e-01 -5.357929e-02 -4.457114e-02
   endloop
 endfacet
 facet normal  0.000000e+00  4.647232e-01  8.854560e-01
   outer loop
     vertex  7.777778e-01 -5.357929e-02 -4.457114e-02
     vertex  7.777778e-01 -5.026633e-02 -4.630992e-02
     vertex  7.619048e-01 -5.026633e-02 -4.630992e-02
   endloop
 endfacet
 facet normal  0.000000e+00  2.393157e-01  9.709418e-01
   outer loop
     vertex  7.777778e-01 -5.721210e-02 -4.367574e-02
     vertex  7.619048e-01 -5.357929e-02 -4.457114e-02
     vertex  7.619048e-01 -5.721210e-02 -4.367574e-02
   endloop
 endfacet
 facet normal  0.000000e+00  2.393157e-01  9.709418e-01
   outer loop
     vertex  7.777778e-01 -5.721210e-02 -4.367574e-02
     vertex  7.777778e-01 -5.357929e-02 -4.457114e-02
     vertex  7.619048e-01 -5.357929e-02 -4.457114e-02
   endloop
 endfacet
 facet normal  0.000000e+00  0.000000e+00  1.000000e+00
   outer loop
     vertex  7.777778e-01 -6.095362e-02 -4.367574e-02
     vertex  7.619048e-01 -5.721210e-02 -4.367574e-02
     vertex  7.619048e-01 -6.095362e-02 -4.367574e-02
   endloop
 endfacet
 facet normal  0.000000e+00 -0.000000e+00  1.000000e+00
   outer loop
     vertex  7.777778e-01 -6.095362e-02 -4.367574e-02
     vertex  7.777778e-01 -5.721210e-02 -4.367574e-02
     vertex  7.619048e-01 -5.721210e-02 -4.367574e-02
   endloop
 endfacet
 facet normal  0.000000e+00 -2.393157e-01  9.709418e-01
   outer loop
     vertex  7.777778e-01 -6.458643e-02 -4.457114e-02
     vertex  7.619048e-01 -6.095362e-02 -4.367574e-02
     vertex  7.619048e-01 -6.458643e-02 -4.457114e-02
   endloop
 endfacet
 facet normal  0.000000e+00 -2.393157e-01  9.709418e-01
   outer loop
     vertex  7.777778e-01 -6.458643e-02 -4.457114e-02
     vertex  7.777778e-01 -6.095362e-02 -4.367574e-02
     vertex  7.619048e-01 -6.095362e-02 -4.367574e-02
   endloop
 endfacet
 facet normal  0.000000e+00 -4.647232e-01  8.854560e-01
   outer loop
     vertex  7.777778e-01 -6.789938e-02 -4.630992e-02
     vertex  7.619048e-01 -6.458643e-02 -4.457114e-02
     vertex  7.619048e-01 -6.789938e-02 -4.630992e-02
   endloop
 endfacet
 facet normal  0.000000e+00 -4.647232e-01  8.854560e-01
   outer loop
     vertex  7.777778e-01 -6.789938e-02 -4.630992e-02
     vertex  7.777778e-01 -6.458643e-02 -4.457114e-02
     vertex  7.619048e-01 -6.458643e-02 -4.457114e-02
   endloop
 endfacet
 facet normal  0.000000e+00 -6.631227e-01  7.485107e-01
   outer loop
     vertex  7.777778e-01 -7.069996e-02 -4.879101e-02
     vertex  7.619048e-01 -6.789938e-02 -4.630992e-02
     vertex  7.619048e-01 -7.069996e-02 -4.879101e-02
   endloop
 endfacet
 facet normal  0.000000e+00 -6.631227e-01  7.485107e-01
   outer loop
     vertex  7.777778e-01 -7.069996e-02 -4.879101e-02
     vertex  7.777778e-01 -6.789938e-02 -4.630992e-02
     vertex  7.619048e-01 -6.789938e-02 -4.630992e-02
   endloop
 endfacet
 facet normal  0.000000e+00 -8.229839e-01  5.680647e-01
   outer loop
     vertex  7.777778e-01 -7.282539e-02 -5.187022e-02
     vertex  7.619048e-01 -7.069996e-02 -4.879101e-02
     vertex  7.619048e-01 -7.282539e-02 -5.187022e-02
   endloop
 endfacet
 facet normal  0.000000e+00 -8.229839e-01  5.680647e-01
   outer loop
     vertex  7.777778e-01 -7.282539e-02 -5.187022e-02
     vertex  7.777778e-01 -7.069996e-02 -4.879101e-02
     vertex  7.619048e-01 -7.069996e-02 -4.879101e-02
   endloop
 endfacet
 facet normal  0.000000e+00 -9.350162e-01  3.546049e-01
   outer loop
     vertex  7.777778e-01 -7.415215e-02 -5.536861e-02
     vertex  7.777778e-01 -7.282539e-02 -5.187022e-02
     vertex  7.619048e-01 -7.282539e-02 -5.187022e-02
   endloop
 endfacet
 facet normal  0.000000e+00 -9.350162e-01  3.546049e-01
   outer loop
     vertex  7.777778e-01 -7.415215e-02 -5.536861e-02
     vertex  7.619048e-01 -7.282539e-02 -5.187022e-02
     vertex  7.619048e-01 -7.415215e-02 -5.536861e-02
   endloop
 endfacet
 facet normal  0.000000e+00 -9.927089e-01  1.205367e-01
   outer loop
     vertex  7.777778e-01 -7.460314e-02 -5.908286e-02
     vertex  7.777778e-01 -7.415215e-02 -5.536861e-02
     vertex  7.619048e-01 -7.415215e-02 -5.536861e-02
   endloop
 endfacet
 facet normal  0.000000e+00 -9.927089e-01  1.205367e-01
   outer loop
     vertex  7.777778e-01 -7.460314e-02 -5.908286e-02
     vertex  7.619048e-01 -7.415215e-02 -5.536861e-02
     vertex  7.619048e-01 -7.460314e-02 -5.908286e-02
   endloop
 endfacet
 facet normal -0.000000e+00 -9.927089e-01 -1.205367e-01
   outer loop
     vertex  7.777778e-01 -7.415215e-02 -6.279711e-02
     vertex  7.619048e-01 -7.460314e-02 -5.908286e-02
     vertex  7.619048e-01 -7.415215e-02 -6.279711e-02
   endloop
 endfacet
 facet normal  0.000000e+00 -9.927089e-01 -1.205367e-01
   outer loop
     vertex  7.777778e-01 -7.415215e-02 -6.279711e-02
     vertex  7.777778e-01 -7.460314e-02 -5.908286e-02
     vertex  7.619048e-01 -7.460314e-02 -5.908286e-02
   endloop
 endfacet
 facet normal -0.000000e+00 -9.350162e-01 -3.546049e-01
   outer loop
     vertex  7.777778e-01 -7.282539e-02 -6.629549e-02
     vertex  7.619048e-01 -7.415215e-02 -6.279711e-02
     vertex  7.619048e-01 -7.282539e-02 -6.629549e-02
   endloop
 endfacet
 facet normal  0.000000e+00 -9.350162e-01 -3.546049e-01
   outer loop
     vertex  7.777778e-01 -7.282539e-02 -6.629549e-02
     vertex  7.777778e-01 -7.415215e-02 -6.279711e-02
     vertex  7.619048e-01 -7.415215e-02 -6.279711e-02
   endloop
 endfacet
 facet normal -0.000000e+00 -8.229839e-01 -5.680647e-01
   outer loop
     vertex  7.777778e-01 -7.069996e-02 -6.937471e-02
     vertex  7.619048e-01 -7.282539e-02 -6.629549e-02
     vertex  7.619048e-01 -7.069996e-02 -6.937471e-02
   endloop
 endfacet
 facet normal  0.000000e+00 -8.229839e-01 -5.680647e-01
   outer loop
     vertex  7.777778e-01 -7.069996e-02 -6.937471e-02
     vertex  7.777778e-01 -7.282539e-02 -6.629549e-02
     vertex  7.619048e-01 -7.282539e-02 -6.629549e-02
   endloop
 endfacet
 facet normal -0.000000e+00 -6.631227e-01 -7.485107e-01
   outer loop
     vertex  7.777778e-01 -6.789938e-02 -7.185580e-02
     vertex  7.619048e-01 -7.069996e-02 -6.937471e-02
     vertex  7.619048e-01 -6.789938e-02 -7.185580e-02
   endloop
 endfacet
 facet normal  0.000000e+00 -6.631227e-01 -7.485107e-01
   outer loop
     vertex  7.777778e-01 -6.789938e-02 -7.185580e-02
     vertex  7.777778e-01 -7.069996e-02 -6.937471e-02
     vertex  7.619048e-01 -7.069996e-02 -6.937471e-02
   endloop
 endfacet
 facet normal -0.000000e+00 -4.647232e-01 -8.854560e-01
   outer loop
     vertex  7.777778e-01 -6.458643e-02 -7.359458e-02
     vertex  7.619048e-01 -6.789938e-02 -7.185580e-02
     vertex  7.619048e-01 -6.458643e-02 -7.359458e-02
   endloop
 endfacet
 facet normal  0.000000e+00 -4.647232e-01 -8.854560e-01
   outer loop
     vertex  7.777778e-01 -6.458643e-02 -7.359458e-02
     vertex  7.777778e-01 -6.789938e-02 -7.185580e-02
     vertex  7.619048e-01 -6.789938e-02 -7.185580e-02
   endloop
 endfacet
 facet normal -0.000000e+00 -2.393157e-01 -9.709418e-01
   outer loop
     vertex  7.777778e-01 -6.095362e-02 -7.448998e-02
     vertex  7.619048e-01 -6.458643e-02 -7.359458e-02
     vertex  7.619048e-01 -6.095362e-02 -7.448998e-02
   endloop
 endfacet
 facet normal  0.000000e+00 -2.393157e-01 -9.709418e-01
   outer loop
     vertex  7.777778e-01 -6.095362e-02 -7.448998e-02
     vertex  7.777778e-01 -6.458643e-02 -7.359458e-02
     vertex  7.619048e-01 -6.458643e-02 -7.359458e-02
   endloop
 endfacet
 facet normal -0.000000e+00  0.000000e+00 -1.000000e+00
   outer loop
     vertex  7.777778e-01 -5.721210e-02 -7.448998e-02
     vertex  7.619048e-01 -6.095362e-02 -7.448998e-02
     vertex  7.619048e-01 -5.721210e-02 -7.448998e-02
   endloop
 endfacet
 facet normal  0.000000e+00 -0.000000e+00 -1.000000e+00
   outer loop
     vertex  7.777778e-01 -5.721210e-02 -7.448998e-02
     vertex  7.777778e-01 -6.095362e-02 -7.448998e-02
     vertex  7.619048e-01 -6.095362e-02 -7.448998e-02
   endloop
 endfacet
 facet normal  0.000000e+00  2.393157e-01 -9.709418e-01
   outer loop
     vertex  7.777778e-01 -5.357929e-02 -7.359458e-02
     vertex  7.619048e-01 -5.721210e-02 -7.448998e-02
     vertex  7.619048e-01 -5.357929e-02 -7.359458e-02
   endloop
 endfacet
 facet normal  0.000000e+00  2.393157e-01 -9.709418e-01
   outer loop
     vertex  7.777778e-01 -5.357929e-02 -7.359458e-02
     vertex  7.777778e-01 -5.721210e-02 -7.448998e-02
     vertex  7.619048e-01 -5.721210e-02 -7.448998e-02
   endloop
 endfacet
 facet normal  0.000000e+00  4.647232e-01 -8.854560e-01
   outer loop
     vertex  7.777778e-01 -5.026633e-02 -7.185580e-02
     vertex  7.619048e-01 -5.357929e-02 -7.359458e-02
     vertex  7.619048e-01 -5.026633e-02 -7.185580e-02
   endloop
 endfacet
 facet normal  0.000000e+00  4.647232e-01 -8.854560e-01
   outer loop
     vertex  7.777778e-01 -5.026633e-02 -7.185580e-02
     vertex  7.777778e-01 -5.357929e-02 -7.359458e-02
     vertex  7.619048e-01 -5.357929e-02 -7.359458e-02
   endloop
 endfacet
 facet normal  0.000000e+00  6.631227e-01 -7.485107e-01
   outer loop
     vertex  7.777778e-01 -4.746576e-02 -6.937471e-02
     vertex  7.619048e-01 -5.026633e-02 -7.185580e-02
     vertex  7.619048e-01 -4.746576e-02 -6.937471e-02
   endloop
 endfacet
 facet normal  0.000000e+00  6.631227e-01 -7.485107e-01
   outer loop
     vertex  7.777778e-01 -4.746576e-02 -6.937471e-02
     vertex  7.777778e-01 -5.026633e-02 -7.185580e-02
     vertex  7.619048e-01 -5.026633e-02 -7.185580e-02
   endloop
 endfacet
 facet normal  0.000000e+00  8.229839e-01 -5.680647e-01
   outer loop
     vertex  7.777778e-01 -4.534033e-02 -6.629549e-02
     vertex  7.619048e-01 -4.746576e-02 -6.937471e-02
     vertex  7.619048e-01 -4.534033e-02 -6.629549e-02
   endloop
 endfacet
 facet normal  0.000000e+00  8.229839e-01 -5.680647e-01
   outer loop
     vertex  7.777778e-01 -4.534033e-02 -6.629549e-02
     vertex  7.777778e-01 -4.746576e-02 -6.937471e-02
     vertex  7.619048e-01 -4.746576e-02 -6.937471e-02
   endloop
 endfacet
 facet normal  0.000000e+00  9.350162e-01 -3.546049e-01
   outer loop
     vertex  7.777778e-01 -4.401357e-02 -6.279711e-02
     vertex  7.619048e-01 -4.534033e-02 -6.629549e-02
     vertex  7.619048e-01 -4.401357e-02 -6.279711e-02
   endloop
 endfacet
 facet normal  0.000000e+00  9.350162e-01 -3.546049e-01
   outer loop
     vertex  7.777778e-01 -4.401357e-02 -6.279711e-02
     vertex  7.777778e-01 -4.534033e-02 -6.629549e-02
     vertex  7.619048e-01 -4.534033e-02 -6.629549e-02
   endloop
 endfacet
 facet normal  0.000000e+00  9.927089e-01 -1.205367e-01
   outer loop
     vertex  7.777778e-01 -4.356258e-02 -5.908286e-02
     vertex  7.619048e-01 -4.401357e-02 -6.279711e-02
     vertex  7.619048e-01 -4.356258e-02 -5.908286e-02
   endloop
 endfacet
 facet normal  0.000000e+00  9.927089e-01 -1.205367e-01
   outer loop
     vertex  7.777778e-01 -4.356258e-02 -5.908286e-02
     vertex  7.777778e-01 -4.401357e-02 -6.279711e-02
     vertex  7.619048e-01 -4.401357e-02 -6.279711e-02
   endloop
 endfacet
 facet normal  0.000000e+00 -0.000000e+00  1.000000e+00
   outer loop
     vertex -1.587302e-02 -2.460317e-01  1.428576e-02
     vertex -1.587302e-02  1.222223e-01  1.428576e-02
     vertex -3.174603e-02  1.222223e-01  1.428576e-02
   endloop
 endfacet
 facet normal  0.000000e+00  0.000000e+00  1.000000e+00
   outer loop
     vertex -1.587302e-02 -2.460317e-01  1.428576e-02
     vertex -3.174603e-02  1.222223e-01  1.428576e-02
     vertex -3.174603e-02 -2.460317e-01  1.428576e-02
   endloop
 endfacet
 facet normal  0.000000e+00  9.927089e-01  1.205367e-01
   outer loop
     vertex  7.777778e-01 -4.401357e-02 -5.536861e-02
     vertex  9.523810e-01 -4.356258e-02 -5.908286e-02
     vertex  7.777778e-01 -4.356258e-02 -5.908286e-02
   endloop
 endfacet
 facet normal -0.000000e+00  9.927089e-01  1.205367e-01
   outer loop
     vertex  7.777778e-01 -4.401357e-02 -5.536861e-02
     vertex  9.523810e-01 -4.401357e-02 -5.536861e-02
     vertex  9.523810e-01 -4.356258e-02 -5.908286e-02
   endloop
 endfacet
 facet normal -0.000000e+00  9.350162e-01  3.546049e-01
   outer loop
     vertex  7.777778e-01 -4.534033e-02 -5.187022e-02
     vertex  9.523810e-01 -4.534033e-02 -5.187022e-02
     vertex  9.523810e-01 -4.401357e-02 -5.536861e-02
   endloop
 endfacet
 facet normal  0.000000e+00  9.350162e-01  3.546049e-01
   outer loop
     vertex  7.777778e-01 -4.534033e-02 -5.187022e-02
     vertex  9.523810e-01 -4.401357e-02 -5.536861e-02
     vertex  7.777778e-01 -4.401357e-02 -5.536861e-02
   endloop
 endfacet
 facet normal -0.000000e+00  8.229839e-01  5.680647e-01
   outer loop
     vertex  7.777778e-01 -4.746576e-02 -4.879101e-02
     vertex  9.523810e-01 -4.746576e-02 -4.879101e-02
     vertex  9.523810e-01 -4.534033e-02 -5.187022e-02
   endloop
 endfacet
 facet normal  0.000000e+00  8.229839e-01  5.680647e-01
   outer loop
     vertex  7.777778e-01 -4.746576e-02 -4.879101e-02
     vertex  9.523810e-01 -4.534033e-02 -5.187022e-02
     vertex  7.777778e-01 -4.534033e-02 -5.187022e-02
   endloop
 endfacet
 facet normal -0.000000e+00  6.631227e-01  7.485107e-01
   outer loop
     vertex  7.777778e-01 -5.026633e-02 -4.630992e-02
     vertex  9.523810e-01 -5.026633e-02 -4.630992e-02
     vertex  9.523810e-01 -4.746576e-02 -4.879101e-02
   endloop
 endfacet
 facet normal  0.000000e+00  6.631227e-01  7.485107e-01
   outer loop
     vertex  7.777778e-01 -5.026633e-02 -4.630992e-02
     vertex  9.523810e-01 -4.746576e-02 -4.879101e-02
     vertex  7.777778e-01 -4.746576e-02 -4.879101e-02
   endloop
 endfacet
 facet normal -0.000000e+00  4.647232e-01  8.854560e-01
   outer loop
     vertex  7.777778e-01 -5.357929e-02 -4.457114e-02
     vertex  9.523810e-01 -5.357929e-02 -4.457114e-02
     vertex  9.523810e-01 -5.026633e-02 -4.630992e-02
   endloop
 endfacet
 facet normal  0.000000e+00  4.647232e-01  8.854560e-01
   outer loop
     vertex  7.777778e-01 -5.357929e-02 -4.457114e-02
     vertex  9.523810e-01 -5.026633e-02 -4.630992e-02
     vertex  7.777778e-01 -5.026633e-02 -4.630992e-02
   endloop
 endfacet
 facet normal -0.000000e+00  2.393157e-01  9.709418e-01
   outer loop
     vertex  7.777778e-01 -5.721210e-02 -4.367574e-02
     vertex  9.523810e-01 -5.721210e-02 -4.367574e-02
     vertex  9.523810e-01 -5.357929e-02 -4.457114e-02
   endloop
 endfacet
 facet normal  0.000000e+00  2.393157e-01  9.709418e-01
   outer loop
     vertex  7.777778e-01 -5.721210e-02 -4.367574e-02
     vertex  9.523810e-01 -5.357929e-02 -4.457114e-02
     vertex  7.777778e-01 -5.357929e-02 -4.457114e-02
   endloop
 endfacet
 facet normal  0.000000e+00  0.000000e+00  1.000000e+00
   outer loop
     vertex  7.777778e-01 -6.095362e-02 -4.367574e-02
     vertex  9.523810e-01 -6.095362e-02 -4.367574e-02
     vertex  9.523810e-01 -5.721210e-02 -4.367574e-02
   endloop
 endfacet
 facet normal  0.000000e+00  0.000000e+00  1.000000e+00
   outer loop
     vertex  7.777778e-01 -6.095362e-02 -4.367574e-02
     vertex  9.523810e-01 -5.721210e-02 -4.367574e-02
     vertex  7.777778e-01 -5.721210e-02 -4.367574e-02
   endloop
 endfacet
 facet normal  0.000000e+00 -2.393157e-01  9.709418e-01
   outer loop
     vertex  7.777778e-01 -6.458643e-02 -4.457114e-02
     vertex  9.523810e-01 -6.458643e-02 -4.457114e-02
     vertex  9.523810e-01 -6.095362e-02 -4.367574e-02
   endloop
 endfacet
 facet normal  0.000000e+00 -2.393157e-01  9.709418e-01
   outer loop
     vertex  7.777778e-01 -6.458643e-02 -4.457114e-02
     vertex  9.523810e-01 -6.095362e-02 -4.367574e-02
     vertex  7.777778e-01 -6.095362e-02 -4.367574e-02
   endloop
 endfacet
 facet normal  0.000000e+00 -4.647232e-01  8.854560e-01
   outer loop
     vertex  7.777778e-01 -6.789938e-02 -4.630992e-02
     vertex  9.523810e-01 -6.789938e-02 -4.630992e-02
     vertex  9.523810e-01 -6.458643e-02 -4.457114e-02
   endloop
 endfacet
 facet normal  0.000000e+00 -4.647232e-01  8.854560e-01
   outer loop
     vertex  7.777778e-01 -6.789938e-02 -4.630992e-02
     vertex  9.523810e-01 -6.458643e-02 -4.457114e-02
     vertex  7.777778e-01 -6.458643e-02 -4.457114e-02
   endloop
 endfacet
 facet normal  0.000000e+00 -6.631227e-01  7.485107e-01
   outer loop
     vertex  7.777778e-01 -7.069996e-02 -4.879101e-02
     vertex  9.523810e-01 -7.069996e-02 -4.879101e-02
     vertex  9.523810e-01 -6.789938e-02 -4.630992e-02
   endloop
 endfacet
 facet normal  0.000000e+00 -6.631227e-01  7.485107e-01
   outer loop
     vertex  7.777778e-01 -7.069996e-02 -4.879101e-02
     vertex  9.523810e-01 -6.789938e-02 -4.630992e-02
     vertex  7.777778e-01 -6.789938e-02 -4.630992e-02
   endloop
 endfacet
 facet normal  0.000000e+00 -8.229839e-01  5.680647e-01
   outer loop
     vertex  7.777778e-01 -7.282539e-02 -5.187022e-02
     vertex  9.523810e-01 -7.282539e-02 -5.187022e-02
     vertex  9.523810e-01 -7.069996e-02 -4.879101e-02
   endloop
 endfacet
 facet normal  0.000000e+00 -8.229839e-01  5.680647e-01
   outer loop
     vertex  7.777778e-01 -7.282539e-02 -5.187022e-02
     vertex  9.523810e-01 -7.069996e-02 -4.879101e-02
     vertex  7.777778e-01 -7.069996e-02 -4.879101e-02
   endloop
 endfacet
 facet normal  0.000000e+00 -9.350162e-01  3.546049e-01
   outer loop
     vertex  7.777778e-01 -7.415215e-02 -5.536861e-02
     vertex  9.523810e-01 -7.282539e-02 -5.187022e-02
     vertex  7.777778e-01 -7.282539e-02 -5.187022e-02
   endloop
 endfacet
 facet normal  0.000000e+00 -9.350162e-01  3.546049e-01
   outer loop
     vertex  7.777778e-01 -7.415215e-02 -5.536861e-02
     vertex  9.523810e-01 -7.415215e-02 -5.536861e-02
     vertex  9.523810e-01 -7.282539e-02 -5.187022e-02
   endloop
 endfacet
 facet normal  0.000000e+00 -9.927089e-01  1.205367e-01
   outer loop
     vertex  7.777778e-01 -7.460314e-02 -5.908286e-02
     vertex  9.523810e-01 -7.415215e-02 -5.536861e-02
     vertex  7.777778e-01 -7.415215e-02 -5.536861e-02
   endloop
 endfacet
 facet normal  0.000000e+00 -9.927089e-01  1.205367e-01
   outer loop
     vertex  7.777778e-01 -7.460314e-02 -5.908286e-02
     vertex  9.523810e-01 -7.460314e-02 -5.908286e-02
     vertex  9.523810e-01 -7.415215e-02 -5.536861e-02
   endloop
 endfacet
 facet normal  0.000000e+00 -9.927089e-01 -1.205367e-01
   outer loop
     vertex  7.777778e-01 -7.415215e-02 -6.279711e-02
     vertex  9.523810e-01 -7.415215e-02 -6.279711e-02
     vertex  9.523810e-01 -7.460314e-02 -5.908286e-02
   endloop
 endfacet
 facet normal  0.000000e+00 -9.927089e-01 -1.205367e-01
   outer loop
     vertex  7.777778e-01 -7.415215e-02 -6.279711e-02
     vertex  9.523810e-01 -7.460314e-02 -5.908286e-02
     vertex  7.777778e-01 -7.460314e-02 -5.908286e-02
   endloop
 endfacet
 facet normal  0.000000e+00 -9.350162e-01 -3.546049e-01
   outer loop
     vertex  7.777778e-01 -7.282539e-02 -6.629549e-02
     vertex  9.523810e-01 -7.282539e-02 -6.629549e-02
     vertex  9.523810e-01 -7.415215e-02 -6.279711e-02
   endloop
 endfacet
 facet normal  0.000000e+00 -9.350162e-01 -3.546049e-01
   outer loop
     vertex  7.777778e-01 -7.282539e-02 -6.629549e-02
     vertex  9.523810e-01 -7.415215e-02 -6.279711e-02
     vertex  7.777778e-01 -7.415215e-02 -6.279711e-02
   endloop
 endfacet
 facet normal  0.000000e+00 -8.229839e-01 -5.680647e-01
   outer loop
     vertex  7.777778e-01 -7.069996e-02 -6.937471e-02
     vertex  9.523810e-01 -7.069996e-02 -6.937471e-02
     vertex  9.523810e-01 -7.282539e-02 -6.629549e-02
   endloop
 endfacet
 facet normal  0.000000e+00 -8.229839e-01 -5.680647e-01
   outer loop
     vertex  7.777778e-01 -7.069996e-02 -6.937471e-02
     vertex  9.523810e-01 -7.282539e-02 -6.629549e-02
     vertex  7.777778e-01 -7.282539e-02 -6.629549e-02
   endloop
 endfacet
 facet normal  0.000000e+00 -6.631227e-01 -7.485107e-01
   outer loop
     vertex  7.777778e-01 -6.789938e-02 -7.185580e-02
     vertex  9.523810e-01 -6.789938e-02 -7.185580e-02
     vertex  9.523810e-01 -7.069996e-02 -6.937471e-02
   endloop
 endfacet
 facet normal  0.000000e+00 -6.631227e-01 -7.485107e-01
   outer loop
     vertex  7.777778e-01 -6.789938e-02 -7.185580e-02
     vertex  9.523810e-01 -7.069996e-02 -6.937471e-02
     vertex  7.777778e-01 -7.069996e-02 -6.937471e-02
   endloop
 endfacet
 facet normal  0.000000e+00 -4.647232e-01 -8.854560e-01
   outer loop
     vertex  7.777778e-01 -6.458643e-02 -7.359458e-02
     vertex  9.523810e-01 -6.458643e-02 -7.359458e-02
     vertex  9.523810e-01 -6.789938e-02 -7.185580e-02
   endloop
 endfacet
 facet normal  0.000000e+00 -2.393157e-01 -9.709418e-01
   outer loop
     vertex  7.777778e-01 -6.458643e-02 -7.359458e-02
     vertex  9.523810e-01 -6.095362e-02 -7.448998e-02
     vertex  9.523810e-01 -6.458643e-02 -7.359458e-02
   endloop
 endfacet
 facet normal  0.000000e+00 -4.647232e-01 -8.854560e-01
   outer loop
     vertex  7.777778e-01 -6.458643e-02 -7.359458e-02
     vertex  9.523810e-01 -6.789938e-02 -7.185580e-02
     vertex  7.777778e-01 -6.789938e-02 -7.185580e-02
   endloop
 endfacet
 facet normal  0.000000e+00  0.000000e+00 -1.000000e+00
   outer loop
     vertex  7.777778e-01 -6.095362e-02 -7.448998e-02
     vertex  9.523810e-01 -5.721210e-02 -7.448998e-02
     vertex  9.523810e-01 -6.095362e-02 -7.448998e-02
   endloop
 endfacet
 facet normal  0.000000e+00 -2.393157e-01 -9.709418e-01
   outer loop
     vertex  7.777778e-01 -6.095362e-02 -7.448998e-02
     vertex  9.523810e-01 -6.095362e-02 -7.448998e-02
     vertex  7.777778e-01 -6.458643e-02 -7.359458e-02
   endloop
 endfacet
 facet normal  0.000000e+00  2.393157e-01 -9.709418e-01
   outer loop
     vertex  7.777778e-01 -5.721210e-02 -7.448998e-02
     vertex  9.523810e-01 -5.357929e-02 -7.359458e-02
     vertex  9.523810e-01 -5.721210e-02 -7.448998e-02
   endloop
 endfacet
 facet normal  0.000000e+00  0.000000e+00 -1.000000e+00
   outer loop
     vertex  7.777778e-01 -5.721210e-02 -7.448998e-02
     vertex  9.523810e-01 -5.721210e-02 -7.448998e-02
     vertex  7.777778e-01 -6.095362e-02 -7.448998e-02
   endloop
 endfacet
 facet normal  0.000000e+00  2.393157e-01 -9.709418e-01
   outer loop
     vertex  7.777778e-01 -5.357929e-02 -7.359458e-02
     vertex  9.523810e-01 -5.357929e-02 -7.359458e-02
     vertex  7.777778e-01 -5.721210e-02 -7.448998e-02
   endloop
 endfacet
 facet normal  0.000000e+00  4.647232e-01 -8.854560e-01
   outer loop
     vertex  7.777778e-01 -5.026633e-02 -7.185580e-02
     vertex  9.523810e-01 -5.026633e-02 -7.185580e-02
     vertex  9.523810e-01 -5.357929e-02 -7.359458e-02
   endloop
 endfacet
 facet normal  0.000000e+00  4.647232e-01 -8.854560e-01
   outer loop
     vertex  7.777778e-01 -5.026633e-02 -7.185580e-02
     vertex  9.523810e-01 -5.357929e-02 -7.359458e-02
     vertex  7.777778e-01 -5.357929e-02 -7.359458e-02
   endloop
 endfacet
 facet normal  0.000000e+00  6.631227e-01 -7.485107e-01
   outer loop
     vertex  7.777778e-01 -4.746576e-02 -6.937471e-02
     vertex  9.523810e-01 -4.746576e-02 -6.937471e-02
     vertex  9.523810e-01 -5.026633e-02 -7.185580e-02
   endloop
 endfacet
 facet normal  0.000000e+00  8.229839e-01 -5.680647e-01
   outer loop
     vertex  7.777778e-01 -4.746576e-02 -6.937471e-02
     vertex  9.523810e-01 -4.534033e-02 -6.629549e-02
     vertex  9.523810e-01 -4.746576e-02 -6.937471e-02
   endloop
 endfacet
 facet normal  0.000000e+00  6.631227e-01 -7.485107e-01
   outer loop
     vertex  7.777778e-01 -4.746576e-02 -6.937471e-02
     vertex  9.523810e-01 -5.026633e-02 -7.185580e-02
     vertex  7.777778e-01 -5.026633e-02 -7.185580e-02
   endloop
 endfacet
 facet normal  0.000000e+00  9.350162e-01 -3.546049e-01
   outer loop
     vertex  7.777778e-01 -4.534033e-02 -6.629549e-02
     vertex  9.523810e-01 -4.401357e-02 -6.279711e-02
     vertex  9.523810e-01 -4.534033e-02 -6.629549e-02
   endloop
 endfacet
 facet normal  0.000000e+00  8.229839e-01 -5.680647e-01
   outer loop
     vertex  7.777778e-01 -4.534033e-02 -6.629549e-02
     vertex  9.523810e-01 -4.534033e-02 -6.629549e-02
     vertex  7.777778e-01 -4.746576e-02 -6.937471e-02
   endloop
 endfacet
 facet normal  0.000000e+00  9.350162e-01 -3.546049e-01
   outer loop
     vertex  7.777778e-01 -4.401357e-02 -6.279711e-02
     vertex  9.523810e-01 -4.401357e-02 -6.279711e-02
     vertex  7.777778e-01 -4.534033e-02 -6.629549e-02
   endloop
 endfacet
 facet normal  0.000000e+00  9.927089e-01 -1.205367e-01
   outer loop
     vertex  7.777778e-01 -4.356258e-02 -5.908286e-02
     vertex  9.523810e-01 -4.356258e-02 -5.908286e-02
     vertex  9.523810e-01 -4.401357e-02 -6.279711e-02
   endloop
 endfacet
 facet normal  0.000000e+00  9.927089e-01 -1.205367e-01
   outer loop
     vertex  7.777778e-01 -4.356258e-02 -5.908286e-02
     vertex  9.523810e-01 -4.401357e-02 -6.279711e-02
     vertex  7.777778e-01 -4.401357e-02 -6.279711e-02
   endloop
 endfacet
 facet normal  1.000000e+00  0.000000e+00  0.000000e+00
   outer loop
     vertex  9.523810e-01 -4.746576e-02 -4.879101e-02
     vertex  9.523810e-01 -4.356258e-02 -5.908286e-02
     vertex  9.523810e-01 -4.401357e-02 -5.536861e-02
   endloop
 endfacet
 facet normal  1.000000e+00  0.000000e+00  0.000000e+00
   outer loop
     vertex  9.523810e-01 -4.746576e-02 -4.879101e-02
     vertex  9.523810e-01 -4.401357e-02 -5.536861e-02
     vertex  9.523810e-01 -4.534033e-02 -5.187022e-02
   endloop
 endfacet
 facet normal  1.000000e+00  0.000000e+00  0.000000e+00
   outer loop
     vertex  9.523810e-01 -4.746576e-02 -4.879101e-02
     vertex  9.523810e-01 -5.026633e-02 -4.630992e-02
     vertex  9.523810e-01 -5.357929e-02 -4.457114e-02
   endloop
 endfacet
 facet normal  1.000000e+00  0.000000e+00  0.000000e+00
   outer loop
     vertex  9.523810e-01 -4.746576e-02 -4.879101e-02
     vertex  9.523810e-01 -5.357929e-02 -4.457114e-02
     vertex  9.523810e-01 -5.721210e-02 -4.367574e-02
   endloop
 endfacet
 facet normal  1.000000e+00  0.000000e+00  0.000000e+00
   outer loop
     vertex  9.523810e-01 -4.746576e-02 -4.879101e-02
     vertex  9.523810e-01 -5.721210e-02 -4.367574e-02
     vertex  9.523810e-01 -6.095362e-02 -4.367574e-02
   endloop
 endfacet
 facet normal  1.000000e+00  0.000000e+00  0.000000e+00
   outer loop
     vertex  9.523810e-01 -4.746576e-02 -4.879101e-02
     vertex  9.523810e-01 -6.095362e-02 -4.367574e-02
     vertex  9.523810e-01 -6.458643e-02 -4.457114e-02
   endloop
 endfacet
 facet normal  1.000000e+00  0.000000e+00  0.000000e+00
   outer loop
     vertex  9.523810e-01 -4.746576e-02 -4.879101e-02
     vertex  9.523810e-01 -6.458643e-02 -4.457114e-02
     vertex  9.523810e-01 -6.789938e-02 -4.630992e-02
   endloop
 endfacet
 facet normal  1.000000e+00  0.000000e+00  0.000000e+00
   outer loop
     vertex  9.523810e-01 -4.746576e-02 -4.879101e-02
     vertex  9.523810e-01 -6.789938e-02 -4.630992e-02
     vertex  9.523810e-01 -7.069996e-02 -4.879101e-02
   endloop
 endfacet
 facet normal  1.000000e+00  0.000000e+00  0.000000e+00
   outer loop
     vertex  9.523810e-01 -4.746576e-02 -4.879101e-02
     vertex  9.523810e-01 -7.069996e-02 -4.879101e-02
     vertex  9.523810e-01 -7.282539e-02 -5.187022e-02
   endloop
 endfacet
 facet normal  1.000000e+00  0.000000e+00  0.000000e+00
   outer loop
     vertex  9.523810e-01 -4.746576e-02 -4.879101e-02
     vertex  9.523810e-01 -7.282539e-02 -5.187022e-02
     vertex  9.523810e-01 -7.415215e-02 -5.536861e-02
   endloop
 endfacet
 facet normal  1.000000e+00  0.000000e+00  0.000000e+00
   outer loop
     vertex  9.523810e-01 -4.746576e-02 -4.879101e-02
     vertex  9.523810e-01 -7.415215e-02 -5.536861e-02
     vertex  9.523810e-01 -7.460314e-02 -5.908286e-02
   endloop
 endfacet
 facet normal  1.000000e+00  0.000000e+00  0.000000e+00
   outer loop
     vertex  9.523810e-01 -4.746576e-02 -4.879101e-02
     vertex  9.523810e-01 -7.460314e-02 -5.908286e-02
     vertex  9.523810e-01 -7.415215e-02 -6.279711e-02
   endloop
 endfacet
 facet normal  1.000000e+00  0.000000e+00  0.000000e+00
   outer loop
     vertex  9.523810e-01 -4.746576e-02 -4.879101e-02
     vertex  9.523810e-01 -7.415215e-02 -6.279711e-02
     vertex  9.523810e-01 -7.282539e-02 -6.629549e-02
   endloop
 endfacet
 facet normal  1.000000e+00  0.000000e+00  0.000000e+00
   outer loop
     vertex  9.523810e-01 -4.746576e-02 -4.879101e-02
     vertex  9.523810e-01 -7.282539e-02 -6.629549e-02
     vertex  9.523810e-01 -7.069996e-02 -6.937471e-02
   endloop
 endfacet
 facet normal  1.000000e+00  0.000000e+00  0.000000e+00
   outer loop
     vertex  9.523810e-01 -4.746576e-02 -4.879101e-02
     vertex  9.523810e-01 -7.069996e-02 -6.937471e-02
     vertex  9.523810e-01 -6.789938e-02 -7.185580e-02
   endloop
 endfacet
 facet normal  1.000000e+00  0.000000e+00  0.000000e+00
   outer loop
     vertex  9.523810e-01 -4.746576e-02 -4.879101e-02
     vertex  9.523810e-01 -6.789938e-02 -7.185580e-02
     vertex  9.523810e-01 -6.458643e-02 -7.359458e-02
   endloop
 endfacet
 facet normal  1.000000e+00  0.000000e+00  0.000000e+00
   outer loop
     vertex  9.523810e-01 -4.746576e-02 -4.879101e-02
     vertex  9.523810e-01 -6.458643e-02 -7.359458e-02
     vertex  9.523810e-01 -6.095362e-02 -7.448998e-02
   endloop
 endfacet
 facet normal  1.000000e+00  0.000000e+00  0.000000e+00
   outer loop
     vertex  9.523810e-01 -4.746576e-02 -4.879101e-02
     vertex  9.523810e-01 -6.095362e-02 -7.448998e-02
     vertex  9.523810e-01 -5.721210e-02 -7.448998e-02
   endloop
 endfacet
 facet normal  1.000000e+00  0.000000e+00  0.000000e+00
   outer loop
     vertex  9.523810e-01 -4.746576e-02 -4.879101e-02
     vertex  9.523810e-01 -5.721210e-02 -7.448998e-02
     vertex  9.523810e-01 -5.357929e-02 -7.359458e-02
   endloop
 endfacet
 facet normal  1.000000e+00  0.000000e+00  0.000000e+00
   outer loop
     vertex  9.523810e-01 -4.746576e-02 -4.879101e-02
     vertex  9.523810e-01 -5.357929e-02 -7.359458e-02
     vertex  9.523810e-01 -5.026633e-02 -7.185580e-02
   endloop
 endfacet
 facet normal  1.000000e+00  0.000000e+00  0.000000e+00
   outer loop
     vertex  9.523810e-01 -4.746576e-02 -4.879101e-02
     vertex  9.523810e-01 -5.026633e-02 -7.185580e-02
     vertex  9.523810e-01 -4.746576e-02 -6.937471e-02
   endloop
 endfacet
 facet normal  1.000000e+00  0.000000e+00  0.000000e+00
   outer loop
     vertex  9.523810e-01 -4.746576e-02 -4.879101e-02
     vertex  9.523810e-01 -4.746576e-02 -6.937471e-02
     vertex  9.523810e-01 -4.534033e-02 -6.629549e-02
   endloop
 endfacet
 facet normal  1.000000e+00  0.000000e+00  0.000000e+00
   outer loop
     vertex  9.523810e-01 -4.746576e-02 -4.879101e-02
     vertex  9.523810e-01 -4.534033e-02 -6.629549e-02
     vertex  9.523810e-01 -4.401357e-02 -6.279711e-02
   endloop
 endfacet
 facet normal  1.000000e+00  0.000000e+00  0.000000e+00
   outer loop
     vertex  9.523810e-01 -4.746576e-02 -4.879101e-02
     vertex  9.523810e-01 -4.401357e-02 -6.279711e-02
     vertex  9.523810e-01 -4.356258e-02 -5.908286e-02
   endloop
 endfacet
endsolid
