solid 
 facet normal  2.708594e-15 -1.000000e+00  6.518980e-15
   outer loop
     vertex -3.132389e-01 -5.645502e-01  5.159311e-01
     vertex -3.151676e-01 -5.645502e-01  5.507937e-01
     vertex -4.058201e-01 -5.645502e-01  5.714286e-01
   endloop
 endfacet
 facet normal -1.332887e-15 -1.000000e+00 -2.230383e-16
   outer loop
     vertex -3.074764e-01 -5.645502e-01  4.814939e-01
     vertex -3.132389e-01 -5.645502e-01  5.159311e-01
     vertex -4.058201e-01 -5.645502e-01  5.714286e-01
   endloop
 endfacet
 facet normal -1.524204e-15 -1.000000e+00 -4.322429e-16
   outer loop
     vertex -2.979503e-01 -5.645502e-01  4.479026e-01
     vertex -3.074764e-01 -5.645502e-01  4.814939e-01
     vertex -4.058201e-01 -5.645502e-01  5.714286e-01
   endloop
 endfacet
 facet normal -1.929273e-15 -1.000000e+00 -7.859723e-16
   outer loop
     vertex -2.847771e-01 -5.645502e-01  4.155671e-01
     vertex -2.979503e-01 -5.645502e-01  4.479026e-01
     vertex -4.058201e-01 -5.645502e-01  5.714286e-01
   endloop
 endfacet
 facet normal -1.459985e-16 -1.000000e+00 -2.545556e-16
   outer loop
     vertex -4.058201e-01 -5.645502e-01 -1.587302e-02
     vertex -1.409754e-01 -5.645502e-01  2.683689e-01
     vertex -1.712632e-01 -5.645502e-01  2.857403e-01
   endloop
 endfacet
 facet normal -1.715624e-16 -1.000000e+00 -2.346752e-16
   outer loop
     vertex -4.058201e-01 -5.645502e-01 -1.587302e-02
     vertex -1.712632e-01 -5.645502e-01  2.857403e-01
     vertex -1.994501e-01 -5.645502e-01  3.063466e-01
   endloop
 endfacet
 facet normal -1.989704e-16 -1.000000e+00 -2.171214e-16
   outer loop
     vertex -4.058201e-01 -5.645502e-01 -1.587302e-02
     vertex -1.994501e-01 -5.645502e-01  3.063466e-01
     vertex -2.251919e-01 -5.645502e-01  3.299365e-01
   endloop
 endfacet
 facet normal -2.298665e-16 -1.000000e+00 -2.009833e-16
   outer loop
     vertex -4.058201e-01 -5.645502e-01 -1.587302e-02
     vertex -2.251919e-01 -5.645502e-01  3.299365e-01
     vertex -2.481745e-01 -5.645502e-01  3.562219e-01
   endloop
 endfacet
 facet normal -2.665192e-16 -1.000000e+00 -1.854546e-16
   outer loop
     vertex -4.058201e-01 -5.645502e-01 -1.587302e-02
     vertex -2.481745e-01 -5.645502e-01  3.562219e-01
     vertex -2.681173e-01 -5.645502e-01  3.848820e-01
   endloop
 endfacet
 facet normal -3.124897e-16 -1.000000e+00 -1.696587e-16
   outer loop
     vertex -4.058201e-01 -5.645502e-01 -1.587302e-02
     vertex -2.681173e-01 -5.645502e-01  3.848820e-01
     vertex -2.847771e-01 -5.645502e-01  4.155671e-01
   endloop
 endfacet
 facet normal -9.172133e-16 -1.000000e+00  0.000000e+00
   outer loop
     vertex -4.058201e-01 -5.645502e-01 -1.587302e-02
     vertex -2.847771e-01 -5.645502e-01  4.155671e-01
     vertex -4.058201e-01 -5.645502e-01  5.714286e-01
   endloop
 endfacet
 facet normal -1.208787e-16 -1.000000e+00 -2.779612e-16
   outer loop
     vertex -1.089561e-01 -5.645502e-01  2.544445e-01
     vertex -1.409754e-01 -5.645502e-01  2.683689e-01
     vertex -4.058201e-01 -5.645502e-01 -1.587302e-02
   endloop
 endfacet
 facet normal -0.000000e+00 -1.000000e+00 -5.380312e-15
   outer loop
     vertex  2.164021e-01 -5.645502e-01  5.714286e-01
     vertex -4.058201e-01 -5.645502e-01  5.714286e-01
     vertex -3.151676e-01 -5.645502e-01  5.507937e-01
   endloop
 endfacet
 facet normal -2.088575e-16 -1.000000e+00  0.000000e+00
   outer loop
     vertex  2.164021e-01 -5.645502e-01  5.507937e-01
     vertex  2.164021e-01 -5.645502e-01  5.714286e-01
     vertex -3.151676e-01 -5.645502e-01  5.507937e-01
   endloop
 endfacet
 facet normal -9.475012e-17 -1.000000e+00 -3.066557e-16
   outer loop
     vertex -7.559631e-02 -5.645502e-01  2.441370e-01
     vertex -1.089561e-01 -5.645502e-01  2.544445e-01
     vertex -4.058201e-01 -5.645502e-01 -1.587302e-02
   endloop
 endfacet
 facet normal -6.575289e-17 -1.000000e+00 -3.434834e-16
   outer loop
     vertex -4.130308e-02 -5.645502e-01  2.375722e-01
     vertex -7.559631e-02 -5.645502e-01  2.441370e-01
     vertex -4.058201e-01 -5.645502e-01 -1.587302e-02
   endloop
 endfacet
 facet normal  4.140358e-15 -1.000000e+00  0.000000e+00
   outer loop
     vertex  2.164021e-01 -5.645502e-01 -1.587302e-02
     vertex  2.164021e-01 -5.645502e-01  3.196266e-01
     vertex  1.895874e-01 -5.645502e-01  2.972638e-01
   endloop
 endfacet
 facet normal  2.220378e-16 -1.000000e+00 -3.355352e-16
   outer loop
     vertex  2.164021e-01 -5.645502e-01 -1.587302e-02
     vertex  1.895874e-01 -5.645502e-01  2.972638e-01
     vertex  1.604696e-01 -5.645502e-01  2.779953e-01
   endloop
 endfacet
 facet normal  1.765928e-16 -1.000000e+00 -3.441849e-16
   outer loop
     vertex  2.164021e-01 -5.645502e-01 -1.587302e-02
     vertex  1.604696e-01 -5.645502e-01  2.779953e-01
     vertex  1.294041e-01 -5.645502e-01  2.620563e-01
   endloop
 endfacet
 facet normal  1.357957e-16 -1.000000e+00 -3.569553e-16
   outer loop
     vertex  2.164021e-01 -5.645502e-01 -1.587302e-02
     vertex  1.294041e-01 -5.645502e-01  2.620563e-01
     vertex  9.676987e-02 -5.645502e-01  2.496414e-01
   endloop
 endfacet
 facet normal  9.682249e-17 -1.000000e+00 -3.745153e-16
   outer loop
     vertex  2.164021e-01 -5.645502e-01 -1.587302e-02
     vertex  9.676987e-02 -5.645502e-01  2.496414e-01
     vertex  6.296537e-02 -5.645502e-01  2.409020e-01
   endloop
 endfacet
 facet normal  5.711860e-17 -1.000000e+00 -3.982405e-16
   outer loop
     vertex  2.164021e-01 -5.645502e-01 -1.587302e-02
     vertex  6.296537e-02 -5.645502e-01  2.409020e-01
     vertex  2.840314e-02 -5.645502e-01  2.359448e-01
   endloop
 endfacet
 facet normal  1.375145e-17 -1.000000e+00 -4.306170e-16
   outer loop
     vertex  2.164021e-01 -5.645502e-01 -1.587302e-02
     vertex  2.840314e-02 -5.645502e-01  2.359448e-01
     vertex -6.494986e-03 -5.645502e-01  2.348304e-01
   endloop
 endfacet
 facet normal -3.751034e-17 -1.000000e+00 -4.761932e-16
   outer loop
     vertex  2.164021e-01 -5.645502e-01 -1.587302e-02
     vertex -6.494986e-03 -5.645502e-01  2.348304e-01
     vertex -4.130308e-02 -5.645502e-01  2.375722e-01
   endloop
 endfacet
 facet normal -0.000000e+00 -1.000000e+00 -4.380524e-16
   outer loop
     vertex  2.164021e-01 -5.645502e-01 -1.587302e-02
     vertex -4.130308e-02 -5.645502e-01  2.375722e-01
     vertex -4.058201e-01 -5.645502e-01 -1.587302e-02
   endloop
 endfacet
 facet normal -0.000000e+00 -1.000000e+00  0.000000e+00
   outer loop
     vertex  2.164021e-01 -5.645502e-01 -1.587302e-02
     vertex -4.058201e-01 -5.645502e-01 -1.587302e-02
     vertex -4.058201e-01 -5.645502e-01 -3.174603e-02
   endloop
 endfacet
 facet normal  0.000000e+00 -1.000000e+00 -0.000000e+00
   outer loop
     vertex  2.164021e-01 -5.645502e-01 -1.587302e-02
     vertex -4.058201e-01 -5.645502e-01 -3.174603e-02
     vertex  2.164021e-01 -5.645502e-01 -3.174603e-02
   endloop
 endfacet
 facet normal  1.000000e+00  0.000000e+00  0.000000e+00
   outer loop
     vertex  2.164021e-01  1.465609e-01 -1.587302e-02
     vertex  2.164021e-01 -5.645502e-01  3.196266e-01
     vertex  2.164021e-01 -5.645502e-01 -1.587302e-02
   endloop
 endfacet
 facet normal  1.000000e+00  0.000000e+00 -0.000000e+00
   outer loop
     vertex  2.164021e-01  1.465609e-01 -1.587302e-02
     vertex  2.164021e-01  1.465609e-01  3.196266e-01
     vertex  2.164021e-01 -5.645502e-01  3.196266e-01
   endloop
 endfacet
 facet normal  9.984732e-01  0.000000e+00  5.523802e-02
   outer loop
     vertex -3.132389e-01  1.465609e-01  5.159311e-01
     vertex -3.151676e-01  1.465609e-01  5.507937e-01
     vertex -3.151676e-01 -5.645502e-01  5.507937e-01
   endloop
 endfacet
 facet normal  9.984732e-01  0.000000e+00  5.523802e-02
   outer loop
     vertex -3.132389e-01  1.465609e-01  5.159311e-01
     vertex -3.151676e-01 -5.645502e-01  5.507937e-01
     vertex -3.132389e-01 -5.645502e-01  5.159311e-01
   endloop
 endfacet
 facet normal  9.862869e-01  0.000000e+00  1.650400e-01
   outer loop
     vertex -3.074764e-01  1.465609e-01  4.814939e-01
     vertex -3.132389e-01 -5.645502e-01  5.159311e-01
     vertex -3.074764e-01 -5.645502e-01  4.814939e-01
   endloop
 endfacet
 facet normal  9.862869e-01  0.000000e+00  1.650400e-01
   outer loop
     vertex -3.074764e-01  1.465609e-01  4.814939e-01
     vertex -3.132389e-01  1.465609e-01  5.159311e-01
     vertex -3.132389e-01 -5.645502e-01  5.159311e-01
   endloop
 endfacet
 facet normal  9.620629e-01  0.000000e+00  2.728276e-01
   outer loop
     vertex -2.979503e-01  1.465609e-01  4.479026e-01
     vertex -3.074764e-01 -5.645502e-01  4.814939e-01
     vertex -2.979503e-01 -5.645502e-01  4.479026e-01
   endloop
 endfacet
 facet normal  9.620629e-01  0.000000e+00  2.728276e-01
   outer loop
     vertex -2.979503e-01  1.465609e-01  4.479026e-01
     vertex -3.074764e-01  1.465609e-01  4.814939e-01
     vertex -3.074764e-01 -5.645502e-01  4.814939e-01
   endloop
 endfacet
 facet normal  9.260970e-01  0.000000e+00  3.772854e-01
   outer loop
     vertex -2.847771e-01  1.465609e-01  4.155671e-01
     vertex -2.979503e-01 -5.645502e-01  4.479026e-01
     vertex -2.847771e-01 -5.645502e-01  4.155671e-01
   endloop
 endfacet
 facet normal  9.260970e-01  0.000000e+00  3.772854e-01
   outer loop
     vertex -2.847771e-01  1.465609e-01  4.155671e-01
     vertex -2.979503e-01  1.465609e-01  4.479026e-01
     vertex -2.979503e-01 -5.645502e-01  4.479026e-01
   endloop
 endfacet
 facet normal  8.788281e-01  0.000000e+00  4.771385e-01
   outer loop
     vertex -2.681173e-01  1.465609e-01  3.848820e-01
     vertex -2.847771e-01 -5.645502e-01  4.155671e-01
     vertex -2.681173e-01 -5.645502e-01  3.848820e-01
   endloop
 endfacet
 facet normal  8.788281e-01  0.000000e+00  4.771385e-01
   outer loop
     vertex -2.681173e-01  1.465609e-01  3.848820e-01
     vertex -2.847771e-01  1.465609e-01  4.155671e-01
     vertex -2.847771e-01 -5.645502e-01  4.155671e-01
   endloop
 endfacet
 facet normal  7.528199e-01  0.000000e+00  6.582265e-01
   outer loop
     vertex -2.481745e-01  1.465609e-01  3.562219e-01
     vertex -2.481745e-01 -5.645502e-01  3.562219e-01
     vertex -2.251919e-01 -5.645502e-01  3.299365e-01
   endloop
 endfacet
 facet normal  8.208331e-01  0.000000e+00  5.711681e-01
   outer loop
     vertex -2.481745e-01  1.465609e-01  3.562219e-01
     vertex -2.681173e-01 -5.645502e-01  3.848820e-01
     vertex -2.481745e-01 -5.645502e-01  3.562219e-01
   endloop
 endfacet
 facet normal  8.208331e-01  0.000000e+00  5.711681e-01
   outer loop
     vertex -2.481745e-01  1.465609e-01  3.562219e-01
     vertex -2.681173e-01  1.465609e-01  3.848820e-01
     vertex -2.681173e-01 -5.645502e-01  3.848820e-01
   endloop
 endfacet
 facet normal  7.528199e-01  0.000000e+00  6.582265e-01
   outer loop
     vertex -2.251919e-01  1.465609e-01  3.299365e-01
     vertex -2.481745e-01  1.465609e-01  3.562219e-01
     vertex -2.251919e-01 -5.645502e-01  3.299365e-01
   endloop
 endfacet
 facet normal  6.756185e-01  0.000000e+00  7.372514e-01
   outer loop
     vertex -1.994501e-01  1.465609e-01  3.063466e-01
     vertex -2.251919e-01 -5.645502e-01  3.299365e-01
     vertex -1.994501e-01 -5.645502e-01  3.063466e-01
   endloop
 endfacet
 facet normal  6.756185e-01  0.000000e+00  7.372514e-01
   outer loop
     vertex -1.994501e-01  1.465609e-01  3.063466e-01
     vertex -2.251919e-01  1.465609e-01  3.299365e-01
     vertex -2.251919e-01 -5.645502e-01  3.299365e-01
   endloop
 endfacet
 facet normal  5.901713e-01  0.000000e+00  8.072781e-01
   outer loop
     vertex -1.712632e-01  1.465609e-01  2.857403e-01
     vertex -1.994501e-01 -5.645502e-01  3.063466e-01
     vertex -1.712632e-01 -5.645502e-01  2.857403e-01
   endloop
 endfacet
 facet normal  5.901713e-01  0.000000e+00  8.072781e-01
   outer loop
     vertex -1.712632e-01  1.465609e-01  2.857403e-01
     vertex -1.994501e-01  1.465609e-01  3.063466e-01
     vertex -1.994501e-01 -5.645502e-01  3.063466e-01
   endloop
 endfacet
 facet normal  4.975209e-01  0.000000e+00  8.674520e-01
   outer loop
     vertex -1.409754e-01  1.465609e-01  2.683689e-01
     vertex -1.712632e-01 -5.645502e-01  2.857403e-01
     vertex -1.409754e-01 -5.645502e-01  2.683689e-01
   endloop
 endfacet
 facet normal  4.975209e-01  0.000000e+00  8.674520e-01
   outer loop
     vertex -1.409754e-01  1.465609e-01  2.683689e-01
     vertex -1.712632e-01  1.465609e-01  2.857403e-01
     vertex -1.712632e-01 -5.645502e-01  2.857403e-01
   endloop
 endfacet
 facet normal  3.987984e-01  0.000000e+00  9.170386e-01
   outer loop
     vertex -1.089561e-01  1.465609e-01  2.544445e-01
     vertex -1.409754e-01 -5.645502e-01  2.683689e-01
     vertex -1.089561e-01 -5.645502e-01  2.544445e-01
   endloop
 endfacet
 facet normal  3.987984e-01  0.000000e+00  9.170386e-01
   outer loop
     vertex -1.089561e-01  1.465609e-01  2.544445e-01
     vertex -1.409754e-01  1.465609e-01  2.683689e-01
     vertex -1.409754e-01 -5.645502e-01  2.683689e-01
   endloop
 endfacet
 facet normal  2.952085e-01  0.000000e+00  9.554329e-01
   outer loop
     vertex -7.559631e-02  1.465609e-01  2.441370e-01
     vertex -1.089561e-01 -5.645502e-01  2.544445e-01
     vertex -7.559631e-02 -5.645502e-01  2.441370e-01
   endloop
 endfacet
 facet normal  2.952085e-01  0.000000e+00  9.554329e-01
   outer loop
     vertex -7.559631e-02  1.465609e-01  2.441370e-01
     vertex -1.089561e-01  1.465609e-01  2.544445e-01
     vertex -1.089561e-01 -5.645502e-01  2.544445e-01
   endloop
 endfacet
 facet normal  1.880156e-01  0.000000e+00  9.821660e-01
   outer loop
     vertex -4.130308e-02  1.465609e-01  2.375722e-01
     vertex -7.559631e-02 -5.645502e-01  2.441370e-01
     vertex -4.130308e-02 -5.645502e-01  2.375722e-01
   endloop
 endfacet
 facet normal  1.880156e-01  0.000000e+00  9.821660e-01
   outer loop
     vertex -4.130308e-02  1.465609e-01  2.375722e-01
     vertex -7.559631e-02  1.465609e-01  2.441370e-01
     vertex -7.559631e-02 -5.645502e-01  2.441370e-01
   endloop
 endfacet
 facet normal  7.852802e-02  0.000000e+00  9.969119e-01
   outer loop
     vertex -6.494986e-03  1.465609e-01  2.348304e-01
     vertex -4.130308e-02  1.465609e-01  2.375722e-01
     vertex -4.130308e-02 -5.645502e-01  2.375722e-01
   endloop
 endfacet
 facet normal  7.852802e-02  0.000000e+00  9.969119e-01
   outer loop
     vertex -6.494986e-03  1.465609e-01  2.348304e-01
     vertex -4.130308e-02 -5.645502e-01  2.375722e-01
     vertex -6.494986e-03 -5.645502e-01  2.348304e-01
   endloop
 endfacet
 facet normal -3.191803e-02  0.000000e+00  9.994905e-01
   outer loop
     vertex  2.840314e-02  1.465609e-01  2.359448e-01
     vertex -6.494986e-03  1.465609e-01  2.348304e-01
     vertex -6.494986e-03 -5.645502e-01  2.348304e-01
   endloop
 endfacet
 facet normal -3.191803e-02  0.000000e+00  9.994905e-01
   outer loop
     vertex  2.840314e-02  1.465609e-01  2.359448e-01
     vertex -6.494986e-03 -5.645502e-01  2.348304e-01
     vertex  2.840314e-02 -5.645502e-01  2.359448e-01
   endloop
 endfacet
 facet normal -1.419745e-01  0.000000e+00  9.898703e-01
   outer loop
     vertex  6.296537e-02  1.465609e-01  2.409020e-01
     vertex  2.840314e-02  1.465609e-01  2.359448e-01
     vertex  2.840314e-02 -5.645502e-01  2.359448e-01
   endloop
 endfacet
 facet normal -1.419745e-01  0.000000e+00  9.898703e-01
   outer loop
     vertex  6.296537e-02  1.465609e-01  2.409020e-01
     vertex  2.840314e-02 -5.645502e-01  2.359448e-01
     vertex  6.296537e-02 -5.645502e-01  2.409020e-01
   endloop
 endfacet
 facet normal -2.502982e-01  0.000000e+00  9.681688e-01
   outer loop
     vertex  9.676987e-02  1.465609e-01  2.496414e-01
     vertex  6.296537e-02  1.465609e-01  2.409020e-01
     vertex  6.296537e-02 -5.645502e-01  2.409020e-01
   endloop
 endfacet
 facet normal -2.502982e-01  0.000000e+00  9.681688e-01
   outer loop
     vertex  9.676987e-02  1.465609e-01  2.496414e-01
     vertex  6.296537e-02 -5.645502e-01  2.409020e-01
     vertex  9.676987e-02 -5.645502e-01  2.496414e-01
   endloop
 endfacet
 facet normal -3.555670e-01  0.000000e+00  9.346508e-01
   outer loop
     vertex  1.294041e-01  1.465609e-01  2.620563e-01
     vertex  9.676987e-02  1.465609e-01  2.496414e-01
     vertex  9.676987e-02 -5.645502e-01  2.496414e-01
   endloop
 endfacet
 facet normal -3.555670e-01  0.000000e+00  9.346508e-01
   outer loop
     vertex  1.294041e-01  1.465609e-01  2.620563e-01
     vertex  9.676987e-02 -5.645502e-01  2.496414e-01
     vertex  1.294041e-01 -5.645502e-01  2.620563e-01
   endloop
 endfacet
 facet normal -5.518537e-01  0.000000e+00  8.339409e-01
   outer loop
     vertex  1.604696e-01  1.465609e-01  2.779953e-01
     vertex  1.604696e-01 -5.645502e-01  2.779953e-01
     vertex  1.895874e-01 -5.645502e-01  2.972638e-01
   endloop
 endfacet
 facet normal -4.564961e-01  0.000000e+00  8.897254e-01
   outer loop
     vertex  1.604696e-01  1.465609e-01  2.779953e-01
     vertex  1.294041e-01 -5.645502e-01  2.620563e-01
     vertex  1.604696e-01 -5.645502e-01  2.779953e-01
   endloop
 endfacet
 facet normal -4.564961e-01  0.000000e+00  8.897254e-01
   outer loop
     vertex  1.604696e-01  1.465609e-01  2.779953e-01
     vertex  1.294041e-01  1.465609e-01  2.620563e-01
     vertex  1.294041e-01 -5.645502e-01  2.620563e-01
   endloop
 endfacet
 facet normal -5.518537e-01  0.000000e+00  8.339409e-01
   outer loop
     vertex  1.895874e-01  1.465609e-01  2.972638e-01
     vertex  1.604696e-01  1.465609e-01  2.779953e-01
     vertex  1.895874e-01 -5.645502e-01  2.972638e-01
   endloop
 endfacet
 facet normal -6.404760e-01  0.000000e+00  7.679782e-01
   outer loop
     vertex  1.895874e-01  1.465609e-01  2.972638e-01
     vertex  1.895874e-01 -5.645502e-01  2.972638e-01
     vertex  2.164021e-01 -5.645502e-01  3.196266e-01
   endloop
 endfacet
 facet normal -6.404760e-01  0.000000e+00  7.679782e-01
   outer loop
     vertex  2.164021e-01  1.465609e-01  3.196266e-01
     vertex  1.895874e-01  1.465609e-01  2.972638e-01
     vertex  2.164021e-01 -5.645502e-01  3.196266e-01
   endloop
 endfacet
 facet normal  0.000000e+00  0.000000e+00 -1.000000e+00
   outer loop
     vertex -3.151676e-01  1.465609e-01  5.507937e-01
     vertex  2.164021e-01  1.465609e-01  5.507937e-01
     vertex  2.164021e-01 -5.645502e-01  5.507937e-01
   endloop
 endfacet
 facet normal  0.000000e+00  0.000000e+00 -1.000000e+00
   outer loop
     vertex -3.151676e-01  1.465609e-01  5.507937e-01
     vertex  2.164021e-01 -5.645502e-01  5.507937e-01
     vertex -3.151676e-01 -5.645502e-01  5.507937e-01
   endloop
 endfacet
 facet normal  1.000000e+00  0.000000e+00  0.000000e+00
   outer loop
     vertex  2.164021e-01  1.465609e-01  5.507937e-01
     vertex  2.164021e-01 -5.645502e-01  5.714286e-01
     vertex  2.164021e-01 -5.645502e-01  5.507937e-01
   endloop
 endfacet
 facet normal  1.000000e+00  0.000000e+00 -0.000000e+00
   outer loop
     vertex  2.164021e-01  1.465609e-01  5.507937e-01
     vertex  2.164021e-01  1.465609e-01  5.714286e-01
     vertex  2.164021e-01 -5.645502e-01  5.714286e-01
   endloop
 endfacet
 facet normal  0.000000e+00  0.000000e+00  1.000000e+00
   outer loop
     vertex  2.164021e-01  1.465609e-01  5.714286e-01
     vertex -4.058201e-01 -5.645502e-01  5.714286e-01
     vertex  2.164021e-01 -5.645502e-01  5.714286e-01
   endloop
 endfacet
 facet normal  0.000000e+00  0.000000e+00  1.000000e+00
   outer loop
     vertex  2.164021e-01  1.465609e-01  5.714286e-01
     vertex -4.058201e-01  1.465609e-01  5.714286e-01
     vertex -4.058201e-01 -5.645502e-01  5.714286e-01
   endloop
 endfacet
 facet normal -1.000000e+00  0.000000e+00  0.000000e+00
   outer loop
     vertex -4.058201e-01 -5.645502e-01 -1.587302e-02
     vertex -4.058201e-01  1.465609e-01  5.714286e-01
     vertex -4.058201e-01  1.465609e-01 -1.587302e-02
   endloop
 endfacet
 facet normal -1.000000e+00  0.000000e+00  0.000000e+00
   outer loop
     vertex -4.058201e-01 -5.645502e-01 -1.587302e-02
     vertex -4.058201e-01 -5.645502e-01  5.714286e-01
     vertex -4.058201e-01  1.465609e-01  5.714286e-01
   endloop
 endfacet
 facet normal -1.000000e+00  0.000000e+00  0.000000e+00
   outer loop
     vertex -4.058201e-01 -5.645502e-01 -1.587302e-02
     vertex -4.058201e-01  1.465609e-01 -1.587302e-02
     vertex -4.058201e-01  1.465609e-01 -3.174603e-02
   endloop
 endfacet
 facet normal -1.000000e+00  0.000000e+00  0.000000e+00
   outer loop
     vertex -4.058201e-01 -5.645502e-01 -1.587302e-02
     vertex -4.058201e-01  1.465609e-01 -3.174603e-02
     vertex -4.058201e-01 -5.645502e-01 -3.174603e-02
   endloop
 endfacet
 facet normal  1.000000e+00  0.000000e+00  0.000000e+00
   outer loop
     vertex  2.164021e-01  1.465609e-01 -1.587302e-02
     vertex  2.164021e-01 -5.645502e-01 -1.587302e-02
     vertex  2.164021e-01 -5.645502e-01 -3.174603e-02
   endloop
 endfacet
 facet normal  1.000000e+00  0.000000e+00  0.000000e+00
   outer loop
     vertex  2.164021e-01  1.465609e-01 -1.587302e-02
     vertex  2.164021e-01 -5.645502e-01 -3.174603e-02
     vertex  2.164021e-01  1.465609e-01 -3.174603e-02
   endloop
 endfacet
 facet normal  0.000000e+00 -0.000000e+00 -1.000000e+00
   outer loop
     vertex  2.164021e-01  1.465609e-01 -3.174603e-02
     vertex  2.164021e-01 -5.645502e-01 -3.174603e-02
     vertex -4.058201e-01 -5.645502e-01 -3.174603e-02
   endloop
 endfacet
 facet normal -0.000000e+00  0.000000e+00 -1.000000e+00
   outer loop
     vertex  2.164021e-01  1.465609e-01 -3.174603e-02
     vertex -4.058201e-01 -5.645502e-01 -3.174603e-02
     vertex -4.058201e-01  1.465609e-01 -3.174603e-02
   endloop
 endfacet
 facet normal  0.000000e+00  1.000000e+00  0.000000e+00
   outer loop
     vertex -3.151676e-01  1.465609e-01  5.507937e-01
     vertex  2.164021e-01  1.465609e-01  5.714286e-01
     vertex  2.164021e-01  1.465609e-01  5.507937e-01
   endloop
 endfacet
 facet normal  0.000000e+00  1.000000e+00 -0.000000e+00
   outer loop
     vertex  2.164021e-01  1.465609e-01 -1.587302e-02
     vertex  1.895874e-01  1.465609e-01  2.972638e-01
     vertex  2.164021e-01  1.465609e-01  3.196266e-01
   endloop
 endfacet
 facet normal  0.000000e+00  1.000000e+00  0.000000e+00
   outer loop
     vertex  2.164021e-01  1.465609e-01 -1.587302e-02
     vertex  1.604696e-01  1.465609e-01  2.779953e-01
     vertex  1.895874e-01  1.465609e-01  2.972638e-01
   endloop
 endfacet
 facet normal  0.000000e+00  1.000000e+00  0.000000e+00
   outer loop
     vertex  2.164021e-01  1.465609e-01 -1.587302e-02
     vertex  1.294041e-01  1.465609e-01  2.620563e-01
     vertex  1.604696e-01  1.465609e-01  2.779953e-01
   endloop
 endfacet
 facet normal  0.000000e+00  1.000000e+00  0.000000e+00
   outer loop
     vertex  2.164021e-01  1.465609e-01 -1.587302e-02
     vertex  9.676987e-02  1.465609e-01  2.496414e-01
     vertex  1.294041e-01  1.465609e-01  2.620563e-01
   endloop
 endfacet
 facet normal  0.000000e+00  1.000000e+00  0.000000e+00
   outer loop
     vertex  2.164021e-01  1.465609e-01 -1.587302e-02
     vertex  6.296537e-02  1.465609e-01  2.409020e-01
     vertex  9.676987e-02  1.465609e-01  2.496414e-01
   endloop
 endfacet
 facet normal  0.000000e+00  1.000000e+00  0.000000e+00
   outer loop
     vertex  2.164021e-01  1.465609e-01 -1.587302e-02
     vertex  2.840314e-02  1.465609e-01  2.359448e-01
     vertex  6.296537e-02  1.465609e-01  2.409020e-01
   endloop
 endfacet
 facet normal  0.000000e+00  1.000000e+00  0.000000e+00
   outer loop
     vertex  2.164021e-01  1.465609e-01 -1.587302e-02
     vertex -6.494986e-03  1.465609e-01  2.348304e-01
     vertex  2.840314e-02  1.465609e-01  2.359448e-01
   endloop
 endfacet
 facet normal  0.000000e+00  1.000000e+00  0.000000e+00
   outer loop
     vertex -4.130308e-02  1.465609e-01  2.375722e-01
     vertex -6.494986e-03  1.465609e-01  2.348304e-01
     vertex  2.164021e-01  1.465609e-01 -1.587302e-02
   endloop
 endfacet
 facet normal  0.000000e+00  1.000000e+00  0.000000e+00
   outer loop
     vertex -4.058201e-01  1.465609e-01  5.714286e-01
     vertex -3.132389e-01  1.465609e-01  5.159311e-01
     vertex -3.074764e-01  1.465609e-01  4.814939e-01
   endloop
 endfacet
 facet normal  0.000000e+00  1.000000e+00  0.000000e+00
   outer loop
     vertex -4.058201e-01  1.465609e-01  5.714286e-01
     vertex -3.151676e-01  1.465609e-01  5.507937e-01
     vertex -3.132389e-01  1.465609e-01  5.159311e-01
   endloop
 endfacet
 facet normal -0.000000e+00  1.000000e+00  0.000000e+00
   outer loop
     vertex -4.058201e-01  1.465609e-01  5.714286e-01
     vertex  2.164021e-01  1.465609e-01  5.714286e-01
     vertex -3.151676e-01  1.465609e-01  5.507937e-01
   endloop
 endfacet
 facet normal  0.000000e+00  1.000000e+00  0.000000e+00
   outer loop
     vertex -2.979503e-01  1.465609e-01  4.479026e-01
     vertex -4.058201e-01  1.465609e-01  5.714286e-01
     vertex -3.074764e-01  1.465609e-01  4.814939e-01
   endloop
 endfacet
 facet normal  0.000000e+00  1.000000e+00  0.000000e+00
   outer loop
     vertex -2.847771e-01  1.465609e-01  4.155671e-01
     vertex -4.058201e-01  1.465609e-01  5.714286e-01
     vertex -2.979503e-01  1.465609e-01  4.479026e-01
   endloop
 endfacet
 facet normal  0.000000e+00  1.000000e+00  0.000000e+00
   outer loop
     vertex -4.058201e-01  1.465609e-01 -1.587302e-02
     vertex -7.559631e-02  1.465609e-01  2.441370e-01
     vertex -4.130308e-02  1.465609e-01  2.375722e-01
   endloop
 endfacet
 facet normal  0.000000e+00  1.000000e+00  0.000000e+00
   outer loop
     vertex -4.058201e-01  1.465609e-01 -1.587302e-02
     vertex -1.089561e-01  1.465609e-01  2.544445e-01
     vertex -7.559631e-02  1.465609e-01  2.441370e-01
   endloop
 endfacet
 facet normal  0.000000e+00  1.000000e+00  0.000000e+00
   outer loop
     vertex -4.058201e-01  1.465609e-01 -1.587302e-02
     vertex -1.409754e-01  1.465609e-01  2.683689e-01
     vertex -1.089561e-01  1.465609e-01  2.544445e-01
   endloop
 endfacet
 facet normal  0.000000e+00  1.000000e+00  0.000000e+00
   outer loop
     vertex -4.058201e-01  1.465609e-01 -1.587302e-02
     vertex -1.712632e-01  1.465609e-01  2.857403e-01
     vertex -1.409754e-01  1.465609e-01  2.683689e-01
   endloop
 endfacet
 facet normal  0.000000e+00  1.000000e+00  0.000000e+00
   outer loop
     vertex -4.058201e-01  1.465609e-01 -1.587302e-02
     vertex -1.994501e-01  1.465609e-01  3.063466e-01
     vertex -1.712632e-01  1.465609e-01  2.857403e-01
   endloop
 endfacet
 facet normal  0.000000e+00  1.000000e+00  0.000000e+00
   outer loop
     vertex -4.058201e-01  1.465609e-01 -1.587302e-02
     vertex -2.251919e-01  1.465609e-01  3.299365e-01
     vertex -1.994501e-01  1.465609e-01  3.063466e-01
   endloop
 endfacet
 facet normal  0.000000e+00  1.000000e+00  0.000000e+00
   outer loop
     vertex -4.058201e-01  1.465609e-01 -1.587302e-02
     vertex -2.481745e-01  1.465609e-01  3.562219e-01
     vertex -2.251919e-01  1.465609e-01  3.299365e-01
   endloop
 endfacet
 facet normal  0.000000e+00  1.000000e+00  0.000000e+00
   outer loop
     vertex -4.058201e-01  1.465609e-01 -1.587302e-02
     vertex -2.681173e-01  1.465609e-01  3.848820e-01
     vertex -2.481745e-01  1.465609e-01  3.562219e-01
   endloop
 endfacet
 facet normal  0.000000e+00  1.000000e+00  0.000000e+00
   outer loop
     vertex -4.058201e-01  1.465609e-01 -1.587302e-02
     vertex -2.847771e-01  1.465609e-01  4.155671e-01
     vertex -2.681173e-01  1.465609e-01  3.848820e-01
   endloop
 endfacet
 facet normal  0.000000e+00  1.000000e+00  0.000000e+00
   outer loop
     vertex -4.058201e-01  1.465609e-01 -1.587302e-02
     vertex -4.130308e-02  1.465609e-01  2.375722e-01
     vertex  2.164021e-01  1.465609e-01 -1.587302e-02
   endloop
 endfacet
 facet normal  0.000000e+00  1.000000e+00  0.000000e+00
   outer loop
     vertex -4.058201e-01  1.465609e-01 -1.587302e-02
     vertex -4.058201e-01  1.465609e-01  5.714286e-01
     vertex -2.847771e-01  1.465609e-01  4.155671e-01
   endloop
 endfacet
 facet normal -0.000000e+00  1.000000e+00  0.000000e+00
   outer loop
     vertex -4.058201e-01  1.465609e-01 -1.587302e-02
     vertex  2.164021e-01  1.465609e-01 -1.587302e-02
     vertex  2.164021e-01  1.465609e-01 -3.174603e-02
   endloop
 endfacet
 facet normal  0.000000e+00  1.000000e+00  0.000000e+00
   outer loop
     vertex -4.058201e-01  1.465609e-01 -1.587302e-02
     vertex  2.164021e-01  1.465609e-01 -3.174603e-02
     vertex -4.058201e-01  1.465609e-01 -3.174603e-02
   endloop
 endfacet
endsolid
