solid 
 facet normal -0.000000e+00  0.000000e+00 -1.000000e+00
   outer loop
     vertex -2.557319e-02 -2.627863e-02  5.873018e-02
     vertex -5.253968e-01 -4.444445e-01  5.873018e-02
     vertex -5.253968e-01 -1.587302e-02  5.873018e-02
   endloop
 endfacet
 facet normal -0.000000e+00  0.000000e+00 -1.000000e+00
   outer loop
     vertex -2.557319e-02 -1.587302e-02  5.873018e-02
     vertex -2.557319e-02 -2.627863e-02  5.873018e-02
     vertex -5.253968e-01 -1.587302e-02  5.873018e-02
   endloop
 endfacet
 facet normal  0.000000e+00  0.000000e+00 -1.000000e+00
   outer loop
     vertex  8.968254e-01 -4.444445e-01  5.873018e-02
     vertex -5.253968e-01 -4.444445e-01  5.873018e-02
     vertex -2.557319e-02 -2.627863e-02  5.873018e-02
   endloop
 endfacet
 facet normal -0.000000e+00 -0.000000e+00 -1.000000e+00
   outer loop
     vertex  7.518519e-01 -2.627863e-02  5.873018e-02
     vertex  8.968254e-01 -4.444445e-01  5.873018e-02
     vertex -2.557319e-02 -2.627863e-02  5.873018e-02
   endloop
 endfacet
 facet normal -0.000000e+00  0.000000e+00 -1.000000e+00
   outer loop
     vertex  8.968254e-01 -1.587302e-02  5.873018e-02
     vertex  7.518519e-01 -2.627863e-02  5.873018e-02
     vertex  7.518519e-01 -1.587302e-02  5.873018e-02
   endloop
 endfacet
 facet normal  0.000000e+00 -0.000000e+00 -1.000000e+00
   outer loop
     vertex  8.968254e-01 -1.587302e-02  5.873018e-02
     vertex  8.968254e-01 -4.444445e-01  5.873018e-02
     vertex  7.518519e-01 -2.627863e-02  5.873018e-02
   endloop
 endfacet
 facet normal  0.000000e+00  0.000000e+00 -1.000000e+00
   outer loop
     vertex -2.557319e-02 -1.587302e-02  5.873018e-02
     vertex -5.253968e-01 -1.587302e-02  5.873018e-02
     vertex -5.253968e-01  0.000000e+00  5.873018e-02
   endloop
 endfacet
 facet normal  0.000000e+00  0.000000e+00 -1.000000e+00
   outer loop
     vertex -2.557319e-02 -1.587302e-02  5.873018e-02
     vertex -5.253968e-01  0.000000e+00  5.873018e-02
     vertex -2.557319e-02  0.000000e+00  5.873018e-02
   endloop
 endfacet
 facet normal  1.000000e+00 -0.000000e+00  5.331101e-17
   outer loop
     vertex -2.557319e-02 -1.587302e-02  5.873018e-02
     vertex -2.557319e-02  0.000000e+00  5.873018e-02
     vertex -2.557319e-02  0.000000e+00  2.539683e-01
   endloop
 endfacet
 facet normal  1.000000e+00  0.000000e+00  5.331101e-17
   outer loop
     vertex -2.557319e-02 -1.587302e-02  5.873018e-02
     vertex -2.557319e-02  0.000000e+00  2.539683e-01
     vertex -2.557319e-02 -2.627863e-02  2.539683e-01
   endloop
 endfacet
 facet normal  1.000000e+00 -1.000262e-15  0.000000e+00
   outer loop
     vertex -2.557319e-02 -2.627863e-02  5.873018e-02
     vertex -2.557319e-02 -1.587302e-02  5.873018e-02
     vertex -2.557319e-02 -2.627863e-02  2.539683e-01
   endloop
 endfacet
 facet normal  0.000000e+00  1.000000e+00  0.000000e+00
   outer loop
     vertex  7.518519e-01 -2.627863e-02  5.873018e-02
     vertex -2.557319e-02 -2.627863e-02  5.873018e-02
     vertex -2.557319e-02 -2.627863e-02  2.539683e-01
   endloop
 endfacet
 facet normal  0.000000e+00  1.000000e+00 -0.000000e+00
   outer loop
     vertex  7.518519e-01 -2.627863e-02  5.873018e-02
     vertex -2.557319e-02 -2.627863e-02  2.539683e-01
     vertex  7.518519e-01 -2.627863e-02  2.539683e-01
   endloop
 endfacet
 facet normal -1.000000e+00  0.000000e+00  0.000000e+00
   outer loop
     vertex  7.518519e-01 -1.587302e-02  5.873018e-02
     vertex  7.518519e-01 -2.627863e-02  5.873018e-02
     vertex  7.518519e-01 -2.627863e-02  2.539683e-01
   endloop
 endfacet
 facet normal -1.000000e+00  0.000000e+00  0.000000e+00
   outer loop
     vertex  7.518519e-01 -1.587302e-02  5.873018e-02
     vertex  7.518519e-01 -2.627863e-02  2.539683e-01
     vertex  7.518519e-01  0.000000e+00  2.539683e-01
   endloop
 endfacet
 facet normal -1.000000e+00  0.000000e+00  0.000000e+00
   outer loop
     vertex  7.518519e-01  0.000000e+00  5.873018e-02
     vertex  7.518519e-01 -1.587302e-02  5.873018e-02
     vertex  7.518519e-01  0.000000e+00  2.539683e-01
   endloop
 endfacet
 facet normal  0.000000e+00  0.000000e+00 -1.000000e+00
   outer loop
     vertex  8.968254e-01 -1.587302e-02  5.873018e-02
     vertex  7.518519e-01 -1.587302e-02  5.873018e-02
     vertex  7.518519e-01  0.000000e+00  5.873018e-02
   endloop
 endfacet
 facet normal  0.000000e+00  0.000000e+00 -1.000000e+00
   outer loop
     vertex  8.968254e-01 -1.587302e-02  5.873018e-02
     vertex  7.518519e-01  0.000000e+00  5.873018e-02
     vertex  8.968254e-01  0.000000e+00  5.873018e-02
   endloop
 endfacet
 facet normal  1.000000e+00  0.000000e+00  0.000000e+00
   outer loop
     vertex  8.968254e-01 -1.587302e-02  7.698413e-01
     vertex  8.968254e-01 -4.444445e-01  5.873018e-02
     vertex  8.968254e-01 -1.587302e-02  5.873018e-02
   endloop
 endfacet
 facet normal  1.000000e+00  0.000000e+00  0.000000e+00
   outer loop
     vertex  8.968254e-01 -1.587302e-02  7.698413e-01
     vertex  8.968254e-01 -4.444445e-01  7.698413e-01
     vertex  8.968254e-01 -4.444445e-01  5.873018e-02
   endloop
 endfacet
 facet normal  0.000000e+00 -1.000000e+00 -0.000000e+00
   outer loop
     vertex  8.968254e-01 -4.444445e-01  7.698413e-01
     vertex -5.253968e-01 -4.444445e-01  5.873018e-02
     vertex  8.968254e-01 -4.444445e-01  5.873018e-02
   endloop
 endfacet
 facet normal -0.000000e+00 -1.000000e+00  0.000000e+00
   outer loop
     vertex  8.968254e-01 -4.444445e-01  7.698413e-01
     vertex -5.253968e-01 -4.444445e-01  7.698413e-01
     vertex -5.253968e-01 -4.444445e-01  5.873018e-02
   endloop
 endfacet
 facet normal -1.000000e+00  0.000000e+00  0.000000e+00
   outer loop
     vertex -5.253968e-01 -1.587302e-02  5.873018e-02
     vertex -5.253968e-01 -4.444445e-01  7.698413e-01
     vertex -5.253968e-01 -1.587302e-02  7.698413e-01
   endloop
 endfacet
 facet normal -1.000000e+00  0.000000e+00  0.000000e+00
   outer loop
     vertex -5.253968e-01 -1.587302e-02  5.873018e-02
     vertex -5.253968e-01 -4.444445e-01  5.873018e-02
     vertex -5.253968e-01 -4.444445e-01  7.698413e-01
   endloop
 endfacet
 facet normal  0.000000e+00  1.000000e+00  0.000000e+00
   outer loop
     vertex -2.557319e-02  0.000000e+00  2.539683e-01
     vertex -2.557319e-02  0.000000e+00  5.873018e-02
     vertex -5.253968e-01  0.000000e+00  5.873018e-02
   endloop
 endfacet
 facet normal  0.000000e+00  1.000000e+00  0.000000e+00
   outer loop
     vertex -5.253968e-01  0.000000e+00  7.698413e-01
     vertex -2.557319e-02  0.000000e+00  2.539683e-01
     vertex -5.253968e-01  0.000000e+00  5.873018e-02
   endloop
 endfacet
 facet normal  0.000000e+00  1.000000e+00  0.000000e+00
   outer loop
     vertex  7.518519e-01  0.000000e+00  2.539683e-01
     vertex  8.968254e-01  0.000000e+00  5.873018e-02
     vertex  7.518519e-01  0.000000e+00  5.873018e-02
   endloop
 endfacet
 facet normal  0.000000e+00  1.000000e+00  0.000000e+00
   outer loop
     vertex  8.968254e-01  0.000000e+00  7.698413e-01
     vertex  7.518519e-01  0.000000e+00  2.539683e-01
     vertex -2.557319e-02  0.000000e+00  2.539683e-01
   endloop
 endfacet
 facet normal  0.000000e+00  1.000000e+00  0.000000e+00
   outer loop
     vertex  8.968254e-01  0.000000e+00  7.698413e-01
     vertex -2.557319e-02  0.000000e+00  2.539683e-01
     vertex -5.253968e-01  0.000000e+00  7.698413e-01
   endloop
 endfacet
 facet normal  0.000000e+00  1.000000e+00  0.000000e+00
   outer loop
     vertex  8.968254e-01  0.000000e+00  7.698413e-01
     vertex  8.968254e-01  0.000000e+00  5.873018e-02
     vertex  7.518519e-01  0.000000e+00  2.539683e-01
   endloop
 endfacet
 facet normal -1.000000e+00  0.000000e+00  0.000000e+00
   outer loop
     vertex -5.253968e-01 -1.587302e-02  5.873018e-02
     vertex -5.253968e-01 -1.587302e-02  7.698413e-01
     vertex -5.253968e-01  0.000000e+00  7.698413e-01
   endloop
 endfacet
 facet normal -1.000000e+00  0.000000e+00  0.000000e+00
   outer loop
     vertex -5.253968e-01 -1.587302e-02  5.873018e-02
     vertex -5.253968e-01  0.000000e+00  7.698413e-01
     vertex -5.253968e-01  0.000000e+00  5.873018e-02
   endloop
 endfacet
 facet normal -0.000000e+00  0.000000e+00 -1.000000e+00
   outer loop
     vertex  7.518519e-01  0.000000e+00  2.539683e-01
     vertex -2.557319e-02 -2.627863e-02  2.539683e-01
     vertex -2.557319e-02  0.000000e+00  2.539683e-01
   endloop
 endfacet
 facet normal  0.000000e+00 -0.000000e+00 -1.000000e+00
   outer loop
     vertex  7.518519e-01  0.000000e+00  2.539683e-01
     vertex  7.518519e-01 -2.627863e-02  2.539683e-01
     vertex -2.557319e-02 -2.627863e-02  2.539683e-01
   endloop
 endfacet
 facet normal  1.000000e+00  0.000000e+00  0.000000e+00
   outer loop
     vertex  8.968254e-01 -1.587302e-02  7.698413e-01
     vertex  8.968254e-01 -1.587302e-02  5.873018e-02
     vertex  8.968254e-01  0.000000e+00  5.873018e-02
   endloop
 endfacet
 facet normal  1.000000e+00 -0.000000e+00  0.000000e+00
   outer loop
     vertex  8.968254e-01 -1.587302e-02  7.698413e-01
     vertex  8.968254e-01  0.000000e+00  5.873018e-02
     vertex  8.968254e-01  0.000000e+00  7.698413e-01
   endloop
 endfacet
 facet normal -0.000000e+00  0.000000e+00  1.000000e+00
   outer loop
     vertex -5.253968e-01 -1.587302e-02  7.698413e-01
     vertex  8.968254e-01 -4.444445e-01  7.698413e-01
     vertex  8.968254e-01 -1.587302e-02  7.698413e-01
   endloop
 endfacet
 facet normal  0.000000e+00  0.000000e+00  1.000000e+00
   outer loop
     vertex -5.253968e-01 -1.587302e-02  7.698413e-01
     vertex -5.253968e-01 -4.444445e-01  7.698413e-01
     vertex  8.968254e-01 -4.444445e-01  7.698413e-01
   endloop
 endfacet
 facet normal  0.000000e+00  0.000000e+00  1.000000e+00
   outer loop
     vertex -5.253968e-01 -1.587302e-02  7.698413e-01
     vertex  8.968254e-01 -1.587302e-02  7.698413e-01
     vertex  8.968254e-01  0.000000e+00  7.698413e-01
   endloop
 endfacet
 facet normal  0.000000e+00  0.000000e+00  1.000000e+00
   outer loop
     vertex -5.253968e-01 -1.587302e-02  7.698413e-01
     vertex  8.968254e-01  0.000000e+00  7.698413e-01
     vertex -5.253968e-01  0.000000e+00  7.698413e-01
   endloop
 endfacet
endsolid
