solid 
 facet normal -9.486833e-01  0.000000e+00 -3.162278e-01
   outer loop
     vertex -6.008818e-01 -1.587302e-02 -8.142858e-01
     vertex -9.373897e-01 -5.396826e-01  1.952381e-01
     vertex -9.373897e-01 -1.587302e-02  1.952381e-01
   endloop
 endfacet
 facet normal -9.486833e-01 -0.000000e+00 -3.162278e-01
   outer loop
     vertex -6.008818e-01 -1.587302e-02 -8.142858e-01
     vertex -6.008818e-01 -5.396826e-01 -8.142858e-01
     vertex -9.373897e-01 -5.396826e-01  1.952381e-01
   endloop
 endfacet
 facet normal -5.943910e-01  0.000000e+00  8.041762e-01
   outer loop
     vertex -9.373897e-01 -1.587302e-02  1.952381e-01
     vertex -7.742501e-02 -5.396826e-01  8.308642e-01
     vertex -7.742501e-02 -1.587302e-02  8.308642e-01
   endloop
 endfacet
 facet normal -5.943910e-01  0.000000e+00  8.041762e-01
   outer loop
     vertex -9.373897e-01 -1.587302e-02  1.952381e-01
     vertex -9.373897e-01 -5.396826e-01  1.952381e-01
     vertex -7.742501e-02 -5.396826e-01  8.308642e-01
   endloop
 endfacet
 facet normal -0.000000e+00  0.000000e+00 -1.000000e+00
   outer loop
     vertex  4.086421e-01 -1.587302e-02 -8.142858e-01
     vertex -6.008818e-01 -5.396826e-01 -8.142858e-01
     vertex -6.008818e-01 -1.587302e-02 -8.142858e-01
   endloop
 endfacet
 facet normal  0.000000e+00 -0.000000e+00 -1.000000e+00
   outer loop
     vertex  4.086421e-01 -1.587302e-02 -8.142858e-01
     vertex  4.086421e-01 -5.396826e-01 -8.142858e-01
     vertex -6.008818e-01 -5.396826e-01 -8.142858e-01
   endloop
 endfacet
 facet normal -9.486833e-01  0.000000e+00 -3.162278e-01
   outer loop
     vertex -6.008818e-01 -1.587302e-02 -8.142858e-01
     vertex -9.373897e-01 -1.587302e-02  1.952381e-01
     vertex -9.373897e-01  5.714286e-01  1.952381e-01
   endloop
 endfacet
 facet normal -9.486833e-01  0.000000e+00 -3.162278e-01
   outer loop
     vertex -6.008818e-01 -1.587302e-02 -8.142858e-01
     vertex -9.373897e-01  5.714286e-01  1.952381e-01
     vertex -6.008818e-01  5.714286e-01 -8.142858e-01
   endloop
 endfacet
 facet normal  0.000000e+00 -1.000000e+00  0.000000e+00
   outer loop
     vertex  4.086421e-01 -5.396826e-01 -8.142858e-01
     vertex -9.373897e-01 -5.396826e-01  1.952381e-01
     vertex -6.008818e-01 -5.396826e-01 -8.142858e-01
   endloop
 endfacet
 facet normal  0.000000e+00 -1.000000e+00 -0.000000e+00
   outer loop
     vertex -7.742501e-02 -5.396826e-01  8.308642e-01
     vertex -9.373897e-01 -5.396826e-01  1.952381e-01
     vertex  4.086421e-01 -5.396826e-01 -8.142858e-01
   endloop
 endfacet
 facet normal -0.000000e+00 -1.000000e+00  0.000000e+00
   outer loop
     vertex  7.825397e-01 -5.396826e-01  1.952381e-01
     vertex -7.742501e-02 -5.396826e-01  8.308642e-01
     vertex  4.086421e-01 -5.396826e-01 -8.142858e-01
   endloop
 endfacet
 facet normal  5.943910e-01  0.000000e+00  8.041762e-01
   outer loop
     vertex -7.742501e-02 -1.587302e-02  8.308642e-01
     vertex  7.825397e-01 -5.396826e-01  1.952381e-01
     vertex  7.825397e-01 -1.587302e-02  1.952381e-01
   endloop
 endfacet
 facet normal  5.943910e-01  0.000000e+00  8.041762e-01
   outer loop
     vertex -7.742501e-02 -1.587302e-02  8.308642e-01
     vertex -7.742501e-02 -5.396826e-01  8.308642e-01
     vertex  7.825397e-01 -5.396826e-01  1.952381e-01
   endloop
 endfacet
 facet normal -5.943910e-01  0.000000e+00  8.041762e-01
   outer loop
     vertex -9.373897e-01 -1.587302e-02  1.952381e-01
     vertex -7.742501e-02 -1.587302e-02  8.308642e-01
     vertex -7.742501e-02  5.714286e-01  8.308642e-01
   endloop
 endfacet
 facet normal -5.943910e-01  0.000000e+00  8.041762e-01
   outer loop
     vertex -9.373897e-01 -1.587302e-02  1.952381e-01
     vertex -7.742501e-02  5.714286e-01  8.308642e-01
     vertex -9.373897e-01  5.714286e-01  1.952381e-01
   endloop
 endfacet
 facet normal  9.377488e-01  0.000000e+00 -3.473143e-01
   outer loop
     vertex  7.825397e-01 -1.587302e-02  1.952381e-01
     vertex  4.086421e-01 -5.396826e-01 -8.142858e-01
     vertex  4.086421e-01 -1.587302e-02 -8.142858e-01
   endloop
 endfacet
 facet normal  9.377488e-01  0.000000e+00 -3.473143e-01
   outer loop
     vertex  7.825397e-01 -1.587302e-02  1.952381e-01
     vertex  7.825397e-01 -5.396826e-01  1.952381e-01
     vertex  4.086421e-01 -5.396826e-01 -8.142858e-01
   endloop
 endfacet
 facet normal  0.000000e+00  0.000000e+00 -1.000000e+00
   outer loop
     vertex  4.086421e-01 -1.587302e-02 -8.142858e-01
     vertex -6.008818e-01 -1.587302e-02 -8.142858e-01
     vertex -6.008818e-01  5.714286e-01 -8.142858e-01
   endloop
 endfacet
 facet normal  0.000000e+00  0.000000e+00 -1.000000e+00
   outer loop
     vertex  4.086421e-01 -1.587302e-02 -8.142858e-01
     vertex -6.008818e-01  5.714286e-01 -8.142858e-01
     vertex  4.086421e-01  5.714286e-01 -8.142858e-01
   endloop
 endfacet
 facet normal  0.000000e+00  1.000000e+00  0.000000e+00
   outer loop
     vertex  4.086421e-01  5.714286e-01 -8.142858e-01
     vertex -6.008818e-01  5.714286e-01 -8.142858e-01
     vertex -9.373897e-01  5.714286e-01  1.952381e-01
   endloop
 endfacet
 facet normal  0.000000e+00  1.000000e+00  0.000000e+00
   outer loop
     vertex -7.742501e-02  5.714286e-01  8.308642e-01
     vertex  4.086421e-01  5.714286e-01 -8.142858e-01
     vertex -9.373897e-01  5.714286e-01  1.952381e-01
   endloop
 endfacet
 facet normal  0.000000e+00  1.000000e+00  0.000000e+00
   outer loop
     vertex  7.825397e-01  5.714286e-01  1.952381e-01
     vertex  4.086421e-01  5.714286e-01 -8.142858e-01
     vertex -7.742501e-02  5.714286e-01  8.308642e-01
   endloop
 endfacet
 facet normal  5.943910e-01  0.000000e+00  8.041762e-01
   outer loop
     vertex -7.742501e-02 -1.587302e-02  8.308642e-01
     vertex  7.825397e-01 -1.587302e-02  1.952381e-01
     vertex  7.825397e-01  5.714286e-01  1.952381e-01
   endloop
 endfacet
 facet normal  5.943910e-01 -0.000000e+00  8.041762e-01
   outer loop
     vertex -7.742501e-02 -1.587302e-02  8.308642e-01
     vertex  7.825397e-01  5.714286e-01  1.952381e-01
     vertex -7.742501e-02  5.714286e-01  8.308642e-01
   endloop
 endfacet
 facet normal  9.377488e-01  0.000000e+00 -3.473143e-01
   outer loop
     vertex  7.825397e-01 -1.587302e-02  1.952381e-01
     vertex  4.086421e-01 -1.587302e-02 -8.142858e-01
     vertex  4.086421e-01  5.714286e-01 -8.142858e-01
   endloop
 endfacet
 facet normal  9.377488e-01  0.000000e+00 -3.473143e-01
   outer loop
     vertex  7.825397e-01 -1.587302e-02  1.952381e-01
     vertex  4.086421e-01  5.714286e-01 -8.142858e-01
     vertex  7.825397e-01  5.714286e-01  1.952381e-01
   endloop
 endfacet
endsolid
