solid 
 facet normal -0.000000e+00  0.000000e+00 -1.000000e+00
   outer loop
     vertex  9.232804e-01 -1.587302e-02 -3.686073e-02
     vertex -3.051156e-02 -3.492064e-01 -3.686073e-02
     vertex -3.051156e-02 -1.587302e-02 -3.686073e-02
   endloop
 endfacet
 facet normal  0.000000e+00 -0.000000e+00 -1.000000e+00
   outer loop
     vertex  9.232804e-01 -1.587302e-02 -3.686073e-02
     vertex  9.232804e-01 -3.492064e-01 -3.686073e-02
     vertex -3.051156e-02 -3.492064e-01 -3.686073e-02
   endloop
 endfacet
 facet normal -1.000000e+00  0.000000e+00  0.000000e+00
   outer loop
     vertex -3.051156e-02 -1.587302e-02 -3.686073e-02
     vertex -3.051156e-02 -3.492064e-01  5.867725e-01
     vertex -3.051156e-02 -1.587302e-02  5.867725e-01
   endloop
 endfacet
 facet normal -1.000000e+00  0.000000e+00  0.000000e+00
   outer loop
     vertex -3.051156e-02 -1.587302e-02 -3.686073e-02
     vertex -3.051156e-02 -3.492064e-01 -3.686073e-02
     vertex -3.051156e-02 -3.492064e-01  5.867725e-01
   endloop
 endfacet
 facet normal  1.000000e+00  0.000000e+00  0.000000e+00
   outer loop
     vertex  9.232804e-01 -1.587302e-02  1.282187e-01
     vertex  9.232804e-01 -3.492064e-01 -3.686073e-02
     vertex  9.232804e-01 -1.587302e-02 -3.686073e-02
   endloop
 endfacet
 facet normal  1.000000e+00  0.000000e+00  0.000000e+00
   outer loop
     vertex  9.232804e-01 -1.587302e-02  1.282187e-01
     vertex  9.232804e-01 -3.492064e-01  1.282187e-01
     vertex  9.232804e-01 -3.492064e-01 -3.686073e-02
   endloop
 endfacet
 facet normal  0.000000e+00  0.000000e+00 -1.000000e+00
   outer loop
     vertex  9.232804e-01 -1.587302e-02 -3.686073e-02
     vertex -3.051156e-02 -1.587302e-02 -3.686073e-02
     vertex -3.051156e-02  0.000000e+00 -3.686073e-02
   endloop
 endfacet
 facet normal  0.000000e+00  0.000000e+00 -1.000000e+00
   outer loop
     vertex  9.232804e-01 -1.587302e-02 -3.686073e-02
     vertex -3.051156e-02  0.000000e+00 -3.686073e-02
     vertex  9.232804e-01  0.000000e+00 -3.686073e-02
   endloop
 endfacet
 facet normal  0.000000e+00 -1.000000e+00 -0.000000e+00
   outer loop
     vertex  8.456790e-01 -3.492064e-01  1.190476e-01
     vertex -3.051156e-02 -3.492064e-01 -3.686073e-02
     vertex  9.232804e-01 -3.492064e-01 -3.686073e-02
   endloop
 endfacet
 facet normal  0.000000e+00 -1.000000e+00 -0.000000e+00
   outer loop
     vertex  6.904762e-01 -3.492064e-01  2.742504e-01
     vertex -3.051156e-02 -3.492064e-01 -3.686073e-02
     vertex  8.456790e-01 -3.492064e-01  1.190476e-01
   endloop
 endfacet
 facet normal -0.000000e+00 -1.000000e+00  0.000000e+00
   outer loop
     vertex  4.463844e-01 -3.492064e-01  5.867725e-01
     vertex -3.051156e-02 -3.492064e-01  5.867725e-01
     vertex -3.051156e-02 -3.492064e-01 -3.686073e-02
   endloop
 endfacet
 facet normal  0.000000e+00 -1.000000e+00 -0.000000e+00
   outer loop
     vertex  4.463844e-01 -3.492064e-01  5.867725e-01
     vertex -3.051156e-02 -3.492064e-01 -3.686073e-02
     vertex  6.904762e-01 -3.492064e-01  2.742504e-01
   endloop
 endfacet
 facet normal  0.000000e+00 -1.000000e+00  0.000000e+00
   outer loop
     vertex  7.714074e-01 -3.492064e-01  2.742504e-01
     vertex  4.463844e-01 -3.492064e-01  5.867725e-01
     vertex  6.904762e-01 -3.492064e-01  2.742504e-01
   endloop
 endfacet
 facet normal -0.000000e+00 -1.000000e+00  0.000000e+00
   outer loop
     vertex  9.232804e-01 -3.492064e-01  1.282187e-01
     vertex  8.456790e-01 -3.492064e-01  2.028354e-01
     vertex  8.456790e-01 -3.492064e-01  1.190476e-01
   endloop
 endfacet
 facet normal  0.000000e+00 -1.000000e+00 -0.000000e+00
   outer loop
     vertex  9.232804e-01 -3.492064e-01  1.282187e-01
     vertex  8.456790e-01 -3.492064e-01  1.190476e-01
     vertex  9.232804e-01 -3.492064e-01 -3.686073e-02
   endloop
 endfacet
 facet normal -0.000000e+00  0.000000e+00  1.000000e+00
   outer loop
     vertex -3.051156e-02 -1.587302e-02  5.867725e-01
     vertex  4.463844e-01 -3.492064e-01  5.867725e-01
     vertex  4.463844e-01 -1.587302e-02  5.867725e-01
   endloop
 endfacet
 facet normal  0.000000e+00  0.000000e+00  1.000000e+00
   outer loop
     vertex -3.051156e-02 -1.587302e-02  5.867725e-01
     vertex -3.051156e-02 -3.492064e-01  5.867725e-01
     vertex  4.463844e-01 -3.492064e-01  5.867725e-01
   endloop
 endfacet
 facet normal -1.000000e+00  0.000000e+00  0.000000e+00
   outer loop
     vertex -3.051156e-02 -1.587302e-02 -3.686073e-02
     vertex -3.051156e-02 -1.587302e-02  5.867725e-01
     vertex -3.051156e-02  0.000000e+00  5.867725e-01
   endloop
 endfacet
 facet normal -1.000000e+00  0.000000e+00  0.000000e+00
   outer loop
     vertex -3.051156e-02 -1.587302e-02 -3.686073e-02
     vertex -3.051156e-02  0.000000e+00  5.867725e-01
     vertex -3.051156e-02  0.000000e+00 -3.686073e-02
   endloop
 endfacet
 facet normal  6.931087e-01  0.000000e+00  7.208331e-01
   outer loop
     vertex  8.456790e-01 -1.587302e-02  2.028354e-01
     vertex  9.232804e-01 -3.492064e-01  1.282187e-01
     vertex  9.232804e-01 -1.587302e-02  1.282187e-01
   endloop
 endfacet
 facet normal  6.931087e-01  0.000000e+00  7.208331e-01
   outer loop
     vertex  8.456790e-01 -1.587302e-02  2.028354e-01
     vertex  8.456790e-01 -3.492064e-01  2.028354e-01
     vertex  9.232804e-01 -3.492064e-01  1.282187e-01
   endloop
 endfacet
 facet normal  1.000000e+00  0.000000e+00  0.000000e+00
   outer loop
     vertex  9.232804e-01 -1.587302e-02  1.282187e-01
     vertex  9.232804e-01 -1.587302e-02 -3.686073e-02
     vertex  9.232804e-01  0.000000e+00 -3.686073e-02
   endloop
 endfacet
 facet normal  1.000000e+00 -0.000000e+00  0.000000e+00
   outer loop
     vertex  9.232804e-01 -1.587302e-02  1.282187e-01
     vertex  9.232804e-01  0.000000e+00 -3.686073e-02
     vertex  9.232804e-01  0.000000e+00  1.282187e-01
   endloop
 endfacet
 facet normal  0.000000e+00  1.000000e+00  0.000000e+00
   outer loop
     vertex  8.456790e-01  0.000000e+00  1.190476e-01
     vertex  9.232804e-01  0.000000e+00 -3.686073e-02
     vertex -3.051156e-02  0.000000e+00 -3.686073e-02
   endloop
 endfacet
 facet normal  0.000000e+00  1.000000e+00  0.000000e+00
   outer loop
     vertex  6.904762e-01  0.000000e+00  2.742504e-01
     vertex  8.456790e-01  0.000000e+00  1.190476e-01
     vertex -3.051156e-02  0.000000e+00 -3.686073e-02
   endloop
 endfacet
 facet normal  0.000000e+00  1.000000e+00  0.000000e+00
   outer loop
     vertex  4.463844e-01  0.000000e+00  5.867725e-01
     vertex -3.051156e-02  0.000000e+00 -3.686073e-02
     vertex -3.051156e-02  0.000000e+00  5.867725e-01
   endloop
 endfacet
 facet normal  0.000000e+00  1.000000e+00  0.000000e+00
   outer loop
     vertex  4.463844e-01  0.000000e+00  5.867725e-01
     vertex  6.904762e-01  0.000000e+00  2.742504e-01
     vertex -3.051156e-02  0.000000e+00 -3.686073e-02
   endloop
 endfacet
 facet normal  0.000000e+00  1.000000e+00  0.000000e+00
   outer loop
     vertex  7.714074e-01  0.000000e+00  2.742504e-01
     vertex  6.904762e-01  0.000000e+00  2.742504e-01
     vertex  4.463844e-01  0.000000e+00  5.867725e-01
   endloop
 endfacet
 facet normal  0.000000e+00  1.000000e+00  0.000000e+00
   outer loop
     vertex  9.232804e-01  0.000000e+00  1.282187e-01
     vertex  8.456790e-01  0.000000e+00  1.190476e-01
     vertex  8.456790e-01  0.000000e+00  2.028354e-01
   endloop
 endfacet
 facet normal  0.000000e+00  1.000000e+00  0.000000e+00
   outer loop
     vertex  9.232804e-01  0.000000e+00  1.282187e-01
     vertex  9.232804e-01  0.000000e+00 -3.686073e-02
     vertex  8.456790e-01  0.000000e+00  1.190476e-01
   endloop
 endfacet
 facet normal  6.931087e-01  0.000000e+00  7.208331e-01
   outer loop
     vertex  4.463844e-01 -1.587302e-02  5.867725e-01
     vertex  7.714074e-01 -3.492064e-01  2.742504e-01
     vertex  7.714074e-01 -1.587302e-02  2.742504e-01
   endloop
 endfacet
 facet normal  6.931087e-01  0.000000e+00  7.208331e-01
   outer loop
     vertex  4.463844e-01 -1.587302e-02  5.867725e-01
     vertex  4.463844e-01 -3.492064e-01  5.867725e-01
     vertex  7.714074e-01 -3.492064e-01  2.742504e-01
   endloop
 endfacet
 facet normal -0.000000e+00 -1.000000e+00 -0.000000e+00
   outer loop
     vertex  7.714074e-01 -3.492064e-01  2.742504e-01
     vertex  6.904762e-01 -3.492064e-01  2.742504e-01
     vertex  8.456790e-01 -3.492064e-01  1.190476e-01
   endloop
 endfacet
 facet normal -0.000000e+00 -1.000000e+00 -0.000000e+00
   outer loop
     vertex  8.456790e-01 -3.492064e-01  2.028354e-01
     vertex  7.714074e-01 -3.492064e-01  2.742504e-01
     vertex  8.456790e-01 -3.492064e-01  1.190476e-01
   endloop
 endfacet
 facet normal  0.000000e+00  0.000000e+00  1.000000e+00
   outer loop
     vertex -3.051156e-02 -1.587302e-02  5.867725e-01
     vertex  4.463844e-01 -1.587302e-02  5.867725e-01
     vertex  4.463844e-01  0.000000e+00  5.867725e-01
   endloop
 endfacet
 facet normal  0.000000e+00  0.000000e+00  1.000000e+00
   outer loop
     vertex -3.051156e-02 -1.587302e-02  5.867725e-01
     vertex  4.463844e-01  0.000000e+00  5.867725e-01
     vertex -3.051156e-02  0.000000e+00  5.867725e-01
   endloop
 endfacet
 facet normal  6.931087e-01  0.000000e+00  7.208331e-01
   outer loop
     vertex  8.456790e-01 -1.587302e-02  2.028354e-01
     vertex  9.232804e-01 -1.587302e-02  1.282187e-01
     vertex  9.232804e-01  0.000000e+00  1.282187e-01
   endloop
 endfacet
 facet normal  6.931087e-01 -0.000000e+00  7.208331e-01
   outer loop
     vertex  8.456790e-01 -1.587302e-02  2.028354e-01
     vertex  9.232804e-01  0.000000e+00  1.282187e-01
     vertex  8.456790e-01  0.000000e+00  2.028354e-01
   endloop
 endfacet
 facet normal  1.000000e+00  0.000000e+00  0.000000e+00
   outer loop
     vertex  8.456790e-01 -1.587302e-02  2.742504e-01
     vertex  8.456790e-01 -3.492064e-01  2.028354e-01
     vertex  8.456790e-01 -1.587302e-02  2.028354e-01
   endloop
 endfacet
 facet normal  1.000000e+00  0.000000e+00  0.000000e+00
   outer loop
     vertex  8.456790e-01 -1.587302e-02  2.742504e-01
     vertex  8.456790e-01 -3.492064e-01  2.742504e-01
     vertex  8.456790e-01 -3.492064e-01  2.028354e-01
   endloop
 endfacet
 facet normal  6.931087e-01  0.000000e+00  7.208331e-01
   outer loop
     vertex  4.463844e-01 -1.587302e-02  5.867725e-01
     vertex  7.714074e-01 -1.587302e-02  2.742504e-01
     vertex  7.714074e-01  0.000000e+00  2.742504e-01
   endloop
 endfacet
 facet normal  6.931087e-01 -0.000000e+00  7.208331e-01
   outer loop
     vertex  4.463844e-01 -1.587302e-02  5.867725e-01
     vertex  7.714074e-01  0.000000e+00  2.742504e-01
     vertex  4.463844e-01  0.000000e+00  5.867725e-01
   endloop
 endfacet
 facet normal  0.000000e+00  1.000000e+00  0.000000e+00
   outer loop
     vertex  7.714074e-01  0.000000e+00  2.742504e-01
     vertex  8.456790e-01  0.000000e+00  1.190476e-01
     vertex  6.904762e-01  0.000000e+00  2.742504e-01
   endloop
 endfacet
 facet normal  0.000000e+00  1.000000e+00  0.000000e+00
   outer loop
     vertex  8.456790e-01  0.000000e+00  2.028354e-01
     vertex  8.456790e-01  0.000000e+00  1.190476e-01
     vertex  7.714074e-01  0.000000e+00  2.742504e-01
   endloop
 endfacet
 facet normal -7.474072e-16  0.000000e+00  1.000000e+00
   outer loop
     vertex  7.714074e-01 -1.587302e-02  2.742504e-01
     vertex  8.456790e-01 -3.492064e-01  2.742504e-01
     vertex  8.456790e-01 -1.587302e-02  2.742504e-01
   endloop
 endfacet
 facet normal -7.474072e-16  0.000000e+00  1.000000e+00
   outer loop
     vertex  7.714074e-01 -1.587302e-02  2.742504e-01
     vertex  7.714074e-01 -3.492064e-01  2.742504e-01
     vertex  8.456790e-01 -3.492064e-01  2.742504e-01
   endloop
 endfacet
 facet normal  0.000000e+00 -1.000000e+00 -0.000000e+00
   outer loop
     vertex  8.456790e-01 -3.492064e-01  2.742504e-01
     vertex  7.714074e-01 -3.492064e-01  2.742504e-01
     vertex  8.456790e-01 -3.492064e-01  2.028354e-01
   endloop
 endfacet
 facet normal  1.000000e+00  0.000000e+00  0.000000e+00
   outer loop
     vertex  8.456790e-01 -1.587302e-02  2.742504e-01
     vertex  8.456790e-01 -1.587302e-02  2.028354e-01
     vertex  8.456790e-01  0.000000e+00  2.028354e-01
   endloop
 endfacet
 facet normal  1.000000e+00 -0.000000e+00  0.000000e+00
   outer loop
     vertex  8.456790e-01 -1.587302e-02  2.742504e-01
     vertex  8.456790e-01  0.000000e+00  2.028354e-01
     vertex  8.456790e-01  0.000000e+00  2.742504e-01
   endloop
 endfacet
 facet normal -7.474072e-16  0.000000e+00  1.000000e+00
   outer loop
     vertex  7.714074e-01 -1.587302e-02  2.742504e-01
     vertex  8.456790e-01 -1.587302e-02  2.742504e-01
     vertex  8.456790e-01  0.000000e+00  2.742504e-01
   endloop
 endfacet
 facet normal -7.474072e-16  0.000000e+00  1.000000e+00
   outer loop
     vertex  7.714074e-01 -1.587302e-02  2.742504e-01
     vertex  8.456790e-01  0.000000e+00  2.742504e-01
     vertex  7.714074e-01  0.000000e+00  2.742504e-01
   endloop
 endfacet
 facet normal  0.000000e+00  1.000000e+00  0.000000e+00
   outer loop
     vertex  8.456790e-01  0.000000e+00  2.742504e-01
     vertex  8.456790e-01  0.000000e+00  2.028354e-01
     vertex  7.714074e-01  0.000000e+00  2.742504e-01
   endloop
 endfacet
endsolid
