solid 
 facet normal  0.000000e+00  0.000000e+00 -1.000000e+00
   outer loop
     vertex -1.587302e-02  9.095238e-01 -2.428572e-01
     vertex  6.000000e-08 -1.058730e+00 -2.428572e-01
     vertex -1.587302e-02 -1.058730e+00 -2.428572e-01
   endloop
 endfacet
 facet normal  0.000000e+00  0.000000e+00 -1.000000e+00
   outer loop
     vertex -1.587302e-02  9.095238e-01 -2.428572e-01
     vertex  6.000000e-08  9.095238e-01 -2.428572e-01
     vertex  6.000000e-08 -1.058730e+00 -2.428572e-01
   endloop
 endfacet
 facet normal  0.000000e+00 -1.000000e+00  0.000000e+00
   outer loop
     vertex -1.587302e-02 -1.058730e+00 -2.428572e-01
     vertex  6.000000e-08 -1.058730e+00  2.650794e-01
     vertex -1.587302e-02 -1.058730e+00  2.650794e-01
   endloop
 endfacet
 facet normal  0.000000e+00 -1.000000e+00  0.000000e+00
   outer loop
     vertex -1.587302e-02 -1.058730e+00 -2.428572e-01
     vertex  6.000000e-08 -1.058730e+00 -2.428572e-01
     vertex  6.000000e-08 -1.058730e+00  2.650794e-01
   endloop
 endfacet
 facet normal  0.000000e+00  1.000000e+00  0.000000e+00
   outer loop
     vertex -1.587302e-02  9.095238e-01  2.650794e-01
     vertex  6.000000e-08  9.095238e-01 -2.428572e-01
     vertex -1.587302e-02  9.095238e-01 -2.428572e-01
   endloop
 endfacet
 facet normal -0.000000e+00  1.000000e+00  0.000000e+00
   outer loop
     vertex -1.587302e-02  9.095238e-01  2.650794e-01
     vertex  6.000000e-08  9.095238e-01  2.650794e-01
     vertex  6.000000e-08  9.095238e-01 -2.428572e-01
   endloop
 endfacet
 facet normal  0.000000e+00 -0.000000e+00 -1.000000e+00
   outer loop
     vertex -1.587302e-02  9.095238e-01 -2.428572e-01
     vertex -1.587302e-02 -1.058730e+00 -2.428572e-01
     vertex -6.349206e-02 -1.058730e+00 -2.428572e-01
   endloop
 endfacet
 facet normal -0.000000e+00  0.000000e+00 -1.000000e+00
   outer loop
     vertex -1.587302e-02  9.095238e-01 -2.428572e-01
     vertex -6.349206e-02 -1.058730e+00 -2.428572e-01
     vertex -6.349206e-02  9.095238e-01 -2.428572e-01
   endloop
 endfacet
 facet normal  1.000000e+00  0.000000e+00  0.000000e+00
   outer loop
     vertex  6.000000e-08  9.095238e-01  2.650794e-01
     vertex  6.000000e-08 -1.058730e+00 -2.428572e-01
     vertex  6.000000e-08  9.095238e-01 -2.428572e-01
   endloop
 endfacet
 facet normal  1.000000e+00  0.000000e+00  0.000000e+00
   outer loop
     vertex  6.000000e-08  9.095238e-01  2.650794e-01
     vertex  6.000000e-08 -1.058730e+00  2.650794e-01
     vertex  6.000000e-08 -1.058730e+00 -2.428572e-01
   endloop
 endfacet
 facet normal  0.000000e+00  0.000000e+00  1.000000e+00
   outer loop
     vertex -1.587302e-02 -1.058730e+00  2.650794e-01
     vertex  6.000000e-08  9.095238e-01  2.650794e-01
     vertex -1.587302e-02  9.095238e-01  2.650794e-01
   endloop
 endfacet
 facet normal  0.000000e+00  0.000000e+00  1.000000e+00
   outer loop
     vertex -1.587302e-02 -1.058730e+00  2.650794e-01
     vertex  6.000000e-08 -1.058730e+00  2.650794e-01
     vertex  6.000000e-08  9.095238e-01  2.650794e-01
   endloop
 endfacet
 facet normal  0.000000e+00 -1.000000e+00  0.000000e+00
   outer loop
     vertex -1.587302e-02 -1.058730e+00 -2.428572e-01
     vertex -1.587302e-02 -1.058730e+00  2.650794e-01
     vertex -6.349206e-02 -1.058730e+00  2.650794e-01
   endloop
 endfacet
 facet normal  0.000000e+00 -1.000000e+00  0.000000e+00
   outer loop
     vertex -1.587302e-02 -1.058730e+00 -2.428572e-01
     vertex -6.349206e-02 -1.058730e+00  2.650794e-01
     vertex -6.349206e-02 -1.058730e+00 -2.428572e-01
   endloop
 endfacet
 facet normal  0.000000e+00  1.000000e+00  0.000000e+00
   outer loop
     vertex -1.587302e-02  9.095238e-01  2.650794e-01
     vertex -1.587302e-02  9.095238e-01 -2.428572e-01
     vertex -6.349206e-02  9.095238e-01 -2.428572e-01
   endloop
 endfacet
 facet normal  0.000000e+00  1.000000e+00  0.000000e+00
   outer loop
     vertex -1.587302e-02  9.095238e-01  2.650794e-01
     vertex -6.349206e-02  9.095238e-01 -2.428572e-01
     vertex -6.349206e-02  9.095238e-01  2.650794e-01
   endloop
 endfacet
 facet normal -1.000000e+00  0.000000e+00 -0.000000e+00
   outer loop
     vertex -6.349206e-02  9.095238e-01  2.650794e-01
     vertex -6.349206e-02  9.095238e-01 -2.428572e-01
     vertex -6.349206e-02 -1.058730e+00 -2.428572e-01
   endloop
 endfacet
 facet normal -1.000000e+00 -0.000000e+00  0.000000e+00
   outer loop
     vertex -6.349206e-02  9.095238e-01  2.650794e-01
     vertex -6.349206e-02 -1.058730e+00 -2.428572e-01
     vertex -6.349206e-02 -1.058730e+00  2.650794e-01
   endloop
 endfacet
 facet normal  0.000000e+00 -0.000000e+00  1.000000e+00
   outer loop
     vertex -1.587302e-02 -1.058730e+00  2.650794e-01
     vertex -1.587302e-02  9.095238e-01  2.650794e-01
     vertex -6.349206e-02  9.095238e-01  2.650794e-01
   endloop
 endfacet
 facet normal  0.000000e+00  0.000000e+00  1.000000e+00
   outer loop
     vertex -1.587302e-02 -1.058730e+00  2.650794e-01
     vertex -6.349206e-02  9.095238e-01  2.650794e-01
     vertex -6.349206e-02 -1.058730e+00  2.650794e-01
   endloop
 endfacet
endsolid
