solid 
 facet normal -1.000000e+00  0.000000e+00  0.000000e+00
   outer loop
     vertex -2.839515e-02 -6.666667e-01 -3.509703e-02
     vertex -2.839515e-02 -6.666667e-01  7.550265e-01
     vertex -2.839515e-02 -4.930268e-01  7.550265e-01
   endloop
 endfacet
 facet normal -1.000000e+00 -0.000000e+00  0.000000e+00
   outer loop
     vertex -2.839515e-02 -8.941799e-02  1.377424e-01
     vertex -2.839515e-02 -6.666667e-01 -3.509703e-02
     vertex -2.839515e-02 -4.930268e-01  7.550265e-01
   endloop
 endfacet
 facet normal -1.000000e+00  0.000000e+00  0.000000e+00
   outer loop
     vertex -2.839515e-02 -8.941799e-02  1.377424e-01
     vertex -2.839515e-02 -8.941799e-02  7.493827e-01
     vertex -2.839515e-02 -1.587302e-02  7.550265e-01
   endloop
 endfacet
 facet normal -1.000000e+00  0.000000e+00  0.000000e+00
   outer loop
     vertex -2.839515e-02 -1.587302e-02 -3.509703e-02
     vertex -2.839515e-02 -6.666667e-01 -3.509703e-02
     vertex -2.839515e-02 -8.941799e-02  1.377424e-01
   endloop
 endfacet
 facet normal -1.000000e+00  0.000000e+00  0.000000e+00
   outer loop
     vertex -2.839515e-02 -1.587302e-02 -3.509703e-02
     vertex -2.839515e-02 -8.941799e-02  1.377424e-01
     vertex -2.839515e-02 -1.587302e-02  7.550265e-01
   endloop
 endfacet
 facet normal -1.000000e+00 -0.000000e+00  0.000000e+00
   outer loop
     vertex -2.839515e-02 -1.587302e-02  7.550265e-01
     vertex -2.839515e-02 -8.941799e-02  7.493827e-01
     vertex -2.839515e-02 -2.813089e-01  7.550265e-01
   endloop
 endfacet
 facet normal -1.000000e+00  0.000000e+00  0.000000e+00
   outer loop
     vertex -2.839515e-02 -1.587302e-02 -3.509703e-02
     vertex -2.839515e-02 -1.587302e-02  7.550265e-01
     vertex -2.839515e-02  0.000000e+00  7.550265e-01
   endloop
 endfacet
 facet normal -1.000000e+00  0.000000e+00  0.000000e+00
   outer loop
     vertex -2.839515e-02 -1.587302e-02 -3.509703e-02
     vertex -2.839515e-02  0.000000e+00  7.550265e-01
     vertex -2.839515e-02  0.000000e+00 -3.509703e-02
   endloop
 endfacet
 facet normal -0.000000e+00  0.000000e+00 -1.000000e+00
   outer loop
     vertex  9.197530e-01 -1.587302e-02 -3.509703e-02
     vertex -2.839515e-02 -6.666667e-01 -3.509703e-02
     vertex -2.839515e-02 -1.587302e-02 -3.509703e-02
   endloop
 endfacet
 facet normal  0.000000e+00 -0.000000e+00 -1.000000e+00
   outer loop
     vertex  9.197530e-01 -1.587302e-02 -3.509703e-02
     vertex  9.197530e-01 -6.666667e-01 -3.509703e-02
     vertex -2.839515e-02 -6.666667e-01 -3.509703e-02
   endloop
 endfacet
 facet normal -0.000000e+00 -1.000000e+00  0.000000e+00
   outer loop
     vertex  9.197530e-01 -6.666667e-01  7.550265e-01
     vertex -2.839515e-02 -6.666667e-01  7.550265e-01
     vertex -2.839515e-02 -6.666667e-01 -3.509703e-02
   endloop
 endfacet
 facet normal  0.000000e+00 -1.000000e+00 -0.000000e+00
   outer loop
     vertex  9.197530e-01 -6.666667e-01  7.550265e-01
     vertex -2.839515e-02 -6.666667e-01 -3.509703e-02
     vertex  9.197530e-01 -6.666667e-01 -3.509703e-02
   endloop
 endfacet
 facet normal -0.000000e+00  0.000000e+00  1.000000e+00
   outer loop
     vertex  6.349207e-01 -2.813089e-01  7.550265e-01
     vertex  9.197530e-01 -6.666667e-01  7.550265e-01
     vertex  9.197530e-01 -1.587302e-02  7.550265e-01
   endloop
 endfacet
 facet normal  0.000000e+00  0.000000e+00  1.000000e+00
   outer loop
     vertex  6.349207e-01 -2.813089e-01  7.550265e-01
     vertex  6.349207e-01 -4.930268e-01  7.550265e-01
     vertex  9.197530e-01 -6.666667e-01  7.550265e-01
   endloop
 endfacet
 facet normal  0.000000e+00  0.000000e+00  1.000000e+00
   outer loop
     vertex -2.839515e-02 -6.666667e-01  7.550265e-01
     vertex  9.197530e-01 -6.666667e-01  7.550265e-01
     vertex  6.349207e-01 -4.930268e-01  7.550265e-01
   endloop
 endfacet
 facet normal -0.000000e+00  0.000000e+00  1.000000e+00
   outer loop
     vertex -1.587302e-02 -4.930268e-01  7.550265e-01
     vertex -2.839515e-02 -6.666667e-01  7.550265e-01
     vertex  6.349207e-01 -4.930268e-01  7.550265e-01
   endloop
 endfacet
 facet normal -0.000000e+00  0.000000e+00  1.000000e+00
   outer loop
     vertex -2.839515e-02 -4.930268e-01  7.550265e-01
     vertex -2.839515e-02 -6.666667e-01  7.550265e-01
     vertex -1.587302e-02 -4.930268e-01  7.550265e-01
   endloop
 endfacet
 facet normal  0.000000e+00  0.000000e+00  1.000000e+00
   outer loop
     vertex -2.839515e-02 -1.587302e-02  7.550265e-01
     vertex -1.587302e-02 -2.813089e-01  7.550265e-01
     vertex  6.349207e-01 -2.813089e-01  7.550265e-01
   endloop
 endfacet
 facet normal  0.000000e+00  0.000000e+00  1.000000e+00
   outer loop
     vertex -2.839515e-02 -1.587302e-02  7.550265e-01
     vertex -2.839515e-02 -2.813089e-01  7.550265e-01
     vertex -1.587302e-02 -2.813089e-01  7.550265e-01
   endloop
 endfacet
 facet normal -0.000000e+00  0.000000e+00  1.000000e+00
   outer loop
     vertex -2.839515e-02 -1.587302e-02  7.550265e-01
     vertex  6.349207e-01 -2.813089e-01  7.550265e-01
     vertex  9.197530e-01 -1.587302e-02  7.550265e-01
   endloop
 endfacet
 facet normal -3.005361e-15  8.369696e-01  5.472494e-01
   outer loop
     vertex -1.587302e-02 -8.941799e-02  1.377424e-01
     vertex -2.839515e-02 -4.930268e-01  7.550265e-01
     vertex -1.587302e-02 -4.930268e-01  7.550265e-01
   endloop
 endfacet
 facet normal  0.000000e+00  8.369696e-01  5.472494e-01
   outer loop
     vertex -1.587302e-02 -8.941799e-02  1.377424e-01
     vertex -2.839515e-02 -8.941799e-02  1.377424e-01
     vertex -2.839515e-02 -4.930268e-01  7.550265e-01
   endloop
 endfacet
 facet normal  0.000000e+00 -1.000000e+00 -0.000000e+00
   outer loop
     vertex -1.587302e-02 -8.941799e-02  7.493827e-01
     vertex -2.839515e-02 -8.941799e-02  1.377424e-01
     vertex -1.587302e-02 -8.941799e-02  1.377424e-01
   endloop
 endfacet
 facet normal -0.000000e+00 -1.000000e+00  0.000000e+00
   outer loop
     vertex -1.587302e-02 -8.941799e-02  7.493827e-01
     vertex -2.839515e-02 -8.941799e-02  7.493827e-01
     vertex -2.839515e-02 -8.941799e-02  1.377424e-01
   endloop
 endfacet
 facet normal  0.000000e+00 -2.939902e-02 -9.995678e-01
   outer loop
     vertex -1.587302e-02 -2.813089e-01  7.550265e-01
     vertex -2.839515e-02 -8.941799e-02  7.493827e-01
     vertex -1.587302e-02 -8.941799e-02  7.493827e-01
   endloop
 endfacet
 facet normal  1.954907e-15 -2.939902e-02 -9.995678e-01
   outer loop
     vertex -1.587302e-02 -2.813089e-01  7.550265e-01
     vertex -2.839515e-02 -2.813089e-01  7.550265e-01
     vertex -2.839515e-02 -8.941799e-02  7.493827e-01
   endloop
 endfacet
 facet normal  0.000000e+00  0.000000e+00  1.000000e+00
   outer loop
     vertex -2.839515e-02 -1.587302e-02  7.550265e-01
     vertex  9.197530e-01 -1.587302e-02  7.550265e-01
     vertex  9.197530e-01  0.000000e+00  7.550265e-01
   endloop
 endfacet
 facet normal  0.000000e+00  0.000000e+00  1.000000e+00
   outer loop
     vertex -2.839515e-02 -1.587302e-02  7.550265e-01
     vertex  9.197530e-01  0.000000e+00  7.550265e-01
     vertex -2.839515e-02  0.000000e+00  7.550265e-01
   endloop
 endfacet
 facet normal  0.000000e+00  0.000000e+00 -1.000000e+00
   outer loop
     vertex  9.197530e-01 -1.587302e-02 -3.509703e-02
     vertex -2.839515e-02 -1.587302e-02 -3.509703e-02
     vertex -2.839515e-02  0.000000e+00 -3.509703e-02
   endloop
 endfacet
 facet normal  0.000000e+00  0.000000e+00 -1.000000e+00
   outer loop
     vertex  9.197530e-01 -1.587302e-02 -3.509703e-02
     vertex -2.839515e-02  0.000000e+00 -3.509703e-02
     vertex  9.197530e-01  0.000000e+00 -3.509703e-02
   endloop
 endfacet
 facet normal  0.000000e+00  1.000000e+00  0.000000e+00
   outer loop
     vertex  9.197530e-01 -4.510281e-17  7.550265e-01
     vertex -2.839515e-02 -4.510281e-17 -3.509703e-02
     vertex -2.839515e-02 -4.510281e-17  7.550265e-01
   endloop
 endfacet
 facet normal  0.000000e+00  1.000000e+00  0.000000e+00
   outer loop
     vertex  9.197530e-01 -4.510281e-17  7.550265e-01
     vertex  9.197530e-01 -4.510281e-17 -3.509703e-02
     vertex -2.839515e-02 -4.510281e-17 -3.509703e-02
   endloop
 endfacet
 facet normal  1.000000e+00  0.000000e+00  0.000000e+00
   outer loop
     vertex  9.197530e-01 -1.587302e-02  7.550265e-01
     vertex  9.197530e-01 -6.666667e-01 -3.509703e-02
     vertex  9.197530e-01 -1.587302e-02 -3.509703e-02
   endloop
 endfacet
 facet normal  1.000000e+00  0.000000e+00  0.000000e+00
   outer loop
     vertex  9.197530e-01 -1.587302e-02  7.550265e-01
     vertex  9.197530e-01 -6.666667e-01  7.550265e-01
     vertex  9.197530e-01 -6.666667e-01 -3.509703e-02
   endloop
 endfacet
 facet normal  0.000000e+00 -2.939902e-02 -9.995678e-01
   outer loop
     vertex -1.587302e-02 -2.813089e-01  7.550265e-01
     vertex -1.587302e-02 -8.941799e-02  7.493827e-01
     vertex  6.349207e-01 -8.941799e-02  7.493827e-01
   endloop
 endfacet
 facet normal -7.773765e-17 -2.939902e-02 -9.995678e-01
   outer loop
     vertex -1.587302e-02 -2.813089e-01  7.550265e-01
     vertex  6.349207e-01 -8.941799e-02  7.493827e-01
     vertex  6.349207e-01 -2.813089e-01  7.550265e-01
   endloop
 endfacet
 facet normal -1.000000e+00 -0.000000e+00 -0.000000e+00
   outer loop
     vertex  6.349207e-01 -2.813089e-01  7.550265e-01
     vertex  6.349207e-01 -8.941799e-02  1.377424e-01
     vertex  6.349207e-01 -4.930268e-01  7.550265e-01
   endloop
 endfacet
 facet normal -1.000000e+00 -0.000000e+00 -0.000000e+00
   outer loop
     vertex  6.349207e-01 -8.941799e-02  7.493827e-01
     vertex  6.349207e-01 -8.941799e-02  1.377424e-01
     vertex  6.349207e-01 -2.813089e-01  7.550265e-01
   endloop
 endfacet
 facet normal  0.000000e+00  8.369696e-01  5.472494e-01
   outer loop
     vertex -1.587302e-02 -8.941799e-02  1.377424e-01
     vertex -1.587302e-02 -4.930268e-01  7.550265e-01
     vertex  6.349207e-01 -4.930268e-01  7.550265e-01
   endloop
 endfacet
 facet normal -0.000000e+00  8.369696e-01  5.472494e-01
   outer loop
     vertex -1.587302e-02 -8.941799e-02  1.377424e-01
     vertex  6.349207e-01 -4.930268e-01  7.550265e-01
     vertex  6.349207e-01 -8.941799e-02  1.377424e-01
   endloop
 endfacet
 facet normal  0.000000e+00 -1.000000e+00  0.000000e+00
   outer loop
     vertex -1.587302e-02 -8.941799e-02  7.493827e-01
     vertex -1.587302e-02 -8.941799e-02  1.377424e-01
     vertex  6.349207e-01 -8.941799e-02  1.377424e-01
   endloop
 endfacet
 facet normal  0.000000e+00 -1.000000e+00  0.000000e+00
   outer loop
     vertex -1.587302e-02 -8.941799e-02  7.493827e-01
     vertex  6.349207e-01 -8.941799e-02  1.377424e-01
     vertex  6.349207e-01 -8.941799e-02  7.493827e-01
   endloop
 endfacet
 facet normal  1.000000e+00  0.000000e+00  0.000000e+00
   outer loop
     vertex  9.197530e-01 -1.587302e-02  7.550265e-01
     vertex  9.197530e-01 -1.587302e-02 -3.509703e-02
     vertex  9.197530e-01  0.000000e+00 -3.509703e-02
   endloop
 endfacet
 facet normal  1.000000e+00 -0.000000e+00  0.000000e+00
   outer loop
     vertex  9.197530e-01 -1.587302e-02  7.550265e-01
     vertex  9.197530e-01  0.000000e+00 -3.509703e-02
     vertex  9.197530e-01  0.000000e+00  7.550265e-01
   endloop
 endfacet
endsolid
