solid 
 facet normal  9.956982e-01  9.265536e-02 -0.000000e+00
   outer loop
     vertex  4.744272e-02 -6.119926e-02 -1.587302e-02
     vertex  4.557733e-02 -4.115334e-02  9.841270e-01
     vertex  4.744272e-02 -6.119926e-02  9.841270e-01
   endloop
 endfacet
 facet normal  9.615059e-01  2.747843e-01  4.728789e-05
   outer loop
     vertex  4.547941e-02 -4.063863e-02 -1.587302e-02
     vertex  4.004523e-02 -2.179580e-02  9.841270e-01
     vertex  4.557733e-02 -4.115334e-02  9.841270e-01
   endloop
 endfacet
 facet normal  9.954719e-01  9.505604e-02 -4.854599e-05
   outer loop
     vertex  4.547941e-02 -4.063863e-02 -1.587302e-02
     vertex  4.557733e-02 -4.115334e-02  9.841270e-01
     vertex  4.744272e-02 -6.119926e-02 -1.587302e-02
   endloop
 endfacet
 facet normal  8.942954e-01  4.474771e-01  9.205877e-05
   outer loop
     vertex  3.966047e-02 -2.082112e-02 -1.587302e-02
     vertex  3.103639e-02 -3.791379e-03  9.841270e-01
     vertex  4.004523e-02 -2.179580e-02  9.841270e-01
   endloop
 endfacet
 facet normal  9.594930e-01  2.817326e-01 -9.457551e-05
   outer loop
     vertex  3.966047e-02 -2.082112e-02 -1.587302e-02
     vertex  4.004523e-02 -2.179580e-02  9.841270e-01
     vertex  4.547941e-02 -4.063863e-02 -1.587302e-02
   endloop
 endfacet
 facet normal  7.963747e-01  6.048036e-01  1.343116e-04
   outer loop
     vertex  3.019619e-02 -2.462973e-03 -1.587302e-02
     vertex  1.886016e-02  1.224165e-02  9.841270e-01
     vertex  3.103639e-02 -3.791379e-03  9.841270e-01
   endloop
 endfacet
 facet normal  8.888354e-01  4.582265e-01 -1.380875e-04
   outer loop
     vertex  3.019619e-02 -2.462973e-03 -1.587302e-02
     vertex  3.103639e-02 -3.791379e-03  9.841270e-01
     vertex  3.966047e-02 -2.082112e-02 -1.587302e-02
   endloop
 endfacet
 facet normal  6.711064e-01  7.413610e-01  1.740454e-04
   outer loop
     vertex  1.742864e-02  1.377229e-02 -1.587302e-02
     vertex  3.934695e-03  2.575272e-02  9.841270e-01
     vertex  1.886016e-02  1.224165e-02  9.841270e-01
   endloop
 endfacet
 facet normal  7.860531e-01  6.181590e-01 -1.790809e-04
   outer loop
     vertex  1.742864e-02  1.377229e-02 -1.587302e-02
     vertex  1.886016e-02  1.224165e-02  9.841270e-01
     vertex  3.019619e-02 -2.462973e-03 -1.587302e-02
   endloop
 endfacet
 facet normal  5.227924e-01  8.524600e-01 -3.722935e-15
   outer loop
     vertex -1.322748e-02  3.627785e-02  7.301587e-01
     vertex -1.322748e-02  3.627785e-02  9.841270e-01
     vertex  3.934695e-03  2.575272e-02  9.841270e-01
   endloop
 endfacet
 facet normal  6.548607e-01  7.557496e-01 -2.175548e-04
   outer loop
     vertex  1.819269e-03  2.729788e-02 -1.587302e-02
     vertex  3.934695e-03  2.575272e-02  9.841270e-01
     vertex  1.742864e-02  1.377229e-02 -1.587302e-02
   endloop
 endfacet
 facet normal  5.204412e-01  8.538975e-01  2.184540e-04
   outer loop
     vertex  1.819269e-03  2.729788e-02 -1.587302e-02
     vertex -1.322748e-02  3.627785e-02  7.301587e-01
     vertex  3.934695e-03  2.575272e-02  9.841270e-01
   endloop
 endfacet
 facet normal  5.000000e-01  8.660254e-01 -3.398090e-04
   outer loop
     vertex -1.606775e-02  3.762496e-02 -1.587302e-02
     vertex -1.322748e-02  3.627785e-02  7.301587e-01
     vertex  1.819269e-03  2.729788e-02 -1.587302e-02
   endloop
 endfacet
 facet normal  3.489276e-01  9.371496e-01 -2.946396e-04
   outer loop
     vertex -1.606775e-02  3.762496e-02 -1.587302e-02
     vertex -2.673649e-02  4.183179e-02  7.301587e-01
     vertex -1.988854e-02  3.928210e-02  7.301587e-01
   endloop
 endfacet
 facet normal  4.111350e-01  9.115745e-01  8.076361e-05
   outer loop
     vertex -1.606775e-02  3.762496e-02 -1.587302e-02
     vertex -1.988854e-02  3.928210e-02  7.301587e-01
     vertex -1.322748e-02  3.627785e-02  7.301587e-01
   endloop
 endfacet
 facet normal  1.695229e-01  9.855263e-01 -7.765868e-16
   outer loop
     vertex -5.195711e-02  4.704889e-02  9.841270e-01
     vertex -3.374034e-02  4.391538e-02  9.841270e-01
     vertex -3.374034e-02  4.391538e-02  7.301587e-01
   endloop
 endfacet
 facet normal  3.270679e-01  9.450006e-01 -6.515192e-04
   outer loop
     vertex -3.558594e-02  4.438027e-02 -1.587302e-02
     vertex -2.673649e-02  4.183179e-02  7.301587e-01
     vertex -1.606775e-02  3.762496e-02 -1.587302e-02
   endloop
 endfacet
 facet normal  2.851418e-01  9.584853e-01 -1.081260e-04
   outer loop
     vertex -3.558594e-02  4.438027e-02 -1.587302e-02
     vertex -3.374034e-02  4.391538e-02  7.301587e-01
     vertex -2.673649e-02  4.183179e-02  7.301587e-01
   endloop
 endfacet
 facet normal  1.423148e-01  9.898214e-01  2.647406e-04
   outer loop
     vertex -5.602987e-02  4.731966e-02 -1.587302e-02
     vertex -3.374034e-02  4.391538e-02  7.301587e-01
     vertex -3.558594e-02  4.438027e-02 -1.587302e-02
   endloop
 endfacet
 facet normal  1.640879e-01  9.864456e-01 -4.011873e-04
   outer loop
     vertex -5.602987e-02  4.731966e-02 -1.587302e-02
     vertex -5.195711e-02  4.704889e-02  9.841270e-01
     vertex -3.374034e-02  4.391538e-02  7.301587e-01
   endloop
 endfacet
 facet normal  4.354568e-14  1.000000e+00  2.707735e-04
   outer loop
     vertex -5.602987e-02  4.731966e-02 -1.587302e-02
     vertex -7.044141e-02  4.704889e-02  9.841270e-01
     vertex -5.195711e-02  4.704889e-02  9.841270e-01
   endloop
 endfacet
 facet normal -1.695229e-01  9.855263e-01  7.421025e-16
   outer loop
     vertex -8.865818e-02  4.391538e-02  7.301587e-01
     vertex -8.865818e-02  4.391538e-02  9.841270e-01
     vertex -7.044141e-02  4.704889e-02  9.841270e-01
   endloop
 endfacet
 facet normal -4.758191e-02  9.988673e-01 -4.152622e-04
   outer loop
     vertex -7.666063e-02  4.633690e-02 -1.587302e-02
     vertex -7.044141e-02  4.704889e-02  9.841270e-01
     vertex -5.602987e-02  4.731966e-02 -1.587302e-02
   endloop
 endfacet
 facet normal -1.747436e-01  9.846139e-01  3.857316e-04
   outer loop
     vertex -7.666063e-02  4.633690e-02 -1.587302e-02
     vertex -8.865818e-02  4.391538e-02  7.301587e-01
     vertex -7.044141e-02  4.704889e-02  9.841270e-01
   endloop
 endfacet
 facet normal -2.357589e-01  9.718114e-01 -6.370613e-04
   outer loop
     vertex -9.673257e-02  4.146750e-02 -1.587302e-02
     vertex -8.865818e-02  4.391538e-02  7.301587e-01
     vertex -7.666063e-02  4.633690e-02 -1.587302e-02
   endloop
 endfacet
 facet normal -3.891796e-01  9.211619e-01 -2.617052e-04
   outer loop
     vertex -9.673257e-02  4.146750e-02 -1.587302e-02
     vertex -1.063492e-01  3.761655e-02  7.301587e-01
     vertex -1.005766e-01  4.005537e-02  7.301587e-01
   endloop
 endfacet
 facet normal -3.354207e-01  9.420684e-01  5.487061e-05
   outer loop
     vertex -9.673257e-02  4.146750e-02 -1.587302e-02
     vertex -1.005766e-01  4.005537e-02  7.301587e-01
     vertex -9.467310e-02  4.215731e-02  7.301587e-01
   endloop
 endfacet
 facet normal -2.805459e-01  9.598406e-01 -1.130481e-04
   outer loop
     vertex -9.673257e-02  4.146750e-02 -1.587302e-02
     vertex -9.467310e-02  4.215731e-02  7.301587e-01
     vertex -8.865818e-02  4.391538e-02  7.301587e-01
   endloop
 endfacet
 facet normal -4.983646e-01  8.669675e-01 -2.957927e-16
   outer loop
     vertex -1.238668e-01  2.754680e-02  9.841270e-01
     vertex -1.063492e-01  3.761655e-02  9.841270e-01
     vertex -1.063492e-01  3.761655e-02  7.301587e-01
   endloop
 endfacet
 facet normal -4.154149e-01  9.096318e-01 -6.594053e-04
   outer loop
     vertex -1.155203e-01  3.288745e-02 -1.587302e-02
     vertex -1.063492e-01  3.761655e-02  7.301587e-01
     vertex -9.673257e-02  4.146750e-02 -1.587302e-02
   endloop
 endfacet
 facet normal -4.924970e-01  8.703140e-01  5.374108e-04
   outer loop
     vertex -1.155203e-01  3.288745e-02 -1.587302e-02
     vertex -1.238668e-01  2.754680e-02  9.841270e-01
     vertex -1.063492e-01  3.761655e-02  7.301587e-01
   endloop
 endfacet
 facet normal -5.800568e-01  8.145759e-01 -4.910870e-04
   outer loop
     vertex -1.323446e-01  2.090687e-02 -1.587302e-02
     vertex -1.238668e-01  2.754680e-02  9.841270e-01
     vertex -1.155203e-01  3.288745e-02 -1.587302e-02
   endloop
 endfacet
 facet normal -6.502882e-01  7.596875e-01  4.687793e-04
   outer loop
     vertex -1.323446e-01  2.090687e-02 -1.587302e-02
     vertex -1.392167e-01  1.440734e-02  9.841270e-01
     vertex -1.238668e-01  2.754680e-02  9.841270e-01
   endloop
 endfacet
 facet normal -7.237340e-01  6.900789e-01 -4.883681e-04
   outer loop
     vertex -1.465976e-01  5.958754e-03 -1.587302e-02
     vertex -1.392167e-01  1.440734e-02  9.841270e-01
     vertex -1.323446e-01  2.090687e-02 -1.587302e-02
   endloop
 endfacet
 facet normal -7.797184e-01  6.261302e-01  4.651261e-04
   outer loop
     vertex -1.465976e-01  5.958754e-03 -1.587302e-02
     vertex -1.518680e-01 -1.347326e-03  9.841270e-01
     vertex -1.392167e-01  1.440734e-02  9.841270e-01
   endloop
 endfacet
 facet normal -8.412534e-01  5.406408e-01 -4.837806e-04
   outer loop
     vertex -1.577641e-01 -1.141663e-02 -1.587302e-02
     vertex -1.518680e-01 -1.347326e-03  9.841270e-01
     vertex -1.465976e-01  5.958754e-03 -1.587302e-02
   endloop
 endfacet
 facet normal -8.821784e-01  4.709151e-01  4.596044e-04
   outer loop
     vertex -1.577641e-01 -1.141663e-02 -1.587302e-02
     vertex -1.613831e-01 -1.917226e-02  9.841270e-01
     vertex -1.518680e-01 -1.347326e-03  9.841270e-01
   endloop
 endfacet
 facet normal -9.541241e-01  2.994112e-01  4.522144e-04
   outer loop
     vertex -1.654405e-01 -3.059128e-02 -1.587302e-02
     vertex -1.674329e-01 -3.845090e-02  9.841270e-01
     vertex -1.613831e-01 -1.917226e-02  9.841270e-01
   endloop
 endfacet
 facet normal -9.283678e-01  3.716624e-01 -4.773248e-04
   outer loop
     vertex -1.654405e-01 -3.059128e-02 -1.587302e-02
     vertex -1.613831e-01 -1.917226e-02  9.841270e-01
     vertex -1.577641e-01 -1.141663e-02 -1.587302e-02
   endloop
 endfacet
 facet normal -9.930668e-01  1.175508e-01  4.429561e-04
   outer loop
     vertex -1.693493e-01 -5.087218e-02 -1.587302e-02
     vertex -1.698081e-01 -5.851640e-02  9.841270e-01
     vertex -1.674329e-01 -3.845090e-02  9.841270e-01
   endloop
 endfacet
 facet normal -9.819286e-01  1.892512e-01 -4.690006e-04
   outer loop
     vertex -1.693493e-01 -5.087218e-02 -1.587302e-02
     vertex -1.674329e-01 -3.845090e-02  9.841270e-01
     vertex -1.654405e-01 -3.059128e-02 -1.587302e-02
   endloop
 endfacet
 facet normal -9.976595e-01 -6.837573e-02  4.318297e-04
   outer loop
     vertex -1.693493e-01 -7.152634e-02 -1.587302e-02
     vertex -1.684265e-01 -7.867470e-02  9.841270e-01
     vertex -1.698081e-01 -5.851640e-02  9.841270e-01
   endloop
 endfacet
 facet normal -9.999999e-01 -2.687651e-15 -4.588082e-04
   outer loop
     vertex -1.693493e-01 -7.152634e-02 -1.587302e-02
     vertex -1.698081e-01 -5.851640e-02  9.841270e-01
     vertex -1.693493e-01 -5.087218e-02 -1.587302e-02
   endloop
 endfacet
 facet normal -9.677435e-01 -2.519371e-01  4.188354e-04
   outer loop
     vertex -1.654405e-01 -9.180724e-02 -1.587302e-02
     vertex -1.633360e-01 -9.822852e-02  9.841270e-01
     vertex -1.684265e-01 -7.867470e-02  9.841270e-01
   endloop
 endfacet
 facet normal -9.819286e-01 -1.892512e-01 -4.467478e-04
   outer loop
     vertex -1.654405e-01 -9.180724e-02 -1.587302e-02
     vertex -1.684265e-01 -7.867470e-02  9.841270e-01
     vertex -1.693493e-01 -7.152634e-02 -1.587302e-02
   endloop
 endfacet
 facet normal -9.043535e-01 -4.267841e-01  4.039734e-04
   outer loop
     vertex -1.577641e-01 -1.109819e-01 -1.587302e-02
     vertex -1.547126e-01 -1.165015e-01  9.841270e-01
     vertex -1.633360e-01 -9.822852e-02  9.841270e-01
   endloop
 endfacet
 facet normal -9.283678e-01 -3.716624e-01 -4.328196e-04
   outer loop
     vertex -1.577641e-01 -1.109819e-01 -1.587302e-02
     vertex -1.633360e-01 -9.822852e-02  9.841270e-01
     vertex -1.654405e-01 -9.180724e-02 -1.587302e-02
   endloop
 endfacet
 facet normal -8.096820e-01 -5.868687e-01  3.872439e-04
   outer loop
     vertex -1.465976e-01 -1.283573e-01 -1.587302e-02
     vertex -1.428545e-01 -1.328616e-01  9.841270e-01
     vertex -1.547126e-01 -1.165015e-01  9.841270e-01
   endloop
 endfacet
 facet normal -8.412535e-01 -5.406408e-01 -4.170238e-04
   outer loop
     vertex -1.465976e-01 -1.283573e-01 -1.587302e-02
     vertex -1.547126e-01 -1.165015e-01  9.841270e-01
     vertex -1.577641e-01 -1.109819e-01 -1.587302e-02
   endloop
 endfacet
 facet normal -6.870039e-01 -7.266537e-01  3.686473e-04
   outer loop
     vertex -1.323446e-01 -1.433054e-01 -1.587302e-02
     vertex -1.281721e-01 -1.467429e-01  9.841270e-01
     vertex -1.428545e-01 -1.328616e-01  9.841270e-01
   endloop
 endfacet
 facet normal -7.237340e-01 -6.900790e-01 -3.993608e-04
   outer loop
     vertex -1.323446e-01 -1.433054e-01 -1.587302e-02
     vertex -1.428545e-01 -1.328616e-01  9.841270e-01
     vertex -1.465976e-01 -1.283573e-01 -1.587302e-02
   endloop
 endfacet
 facet normal -5.800569e-01 -8.145759e-01 -3.798308e-04
   outer loop
     vertex -1.155203e-01 -1.552860e-01 -1.587302e-02
     vertex -1.281721e-01 -1.467429e-01  9.841270e-01
     vertex -1.323446e-01 -1.433054e-01 -1.587302e-02
   endloop
 endfacet
 facet normal -5.405624e-01 -8.413038e-01  3.481840e-04
   outer loop
     vertex -1.155203e-01 -1.552860e-01 -1.587302e-02
     vertex -1.111730e-01 -1.576653e-01  9.841270e-01
     vertex -1.281721e-01 -1.467429e-01  9.841270e-01
   endloop
 endfacet
 facet normal -3.754231e-01 -9.268535e-01  3.258541e-04
   outer loop
     vertex -9.673257e-02 -1.638660e-01 -1.587302e-02
     vertex -9.244542e-02 -1.652510e-01  9.841270e-01
     vertex -1.111730e-01 -1.576653e-01  9.841270e-01
   endloop
 endfacet
 facet normal -4.154150e-01 -9.096319e-01 -3.584341e-04
   outer loop
     vertex -9.673257e-02 -1.638660e-01 -1.587302e-02
     vertex -1.111730e-01 -1.576653e-01  9.841270e-01
     vertex -1.155203e-01 -1.552860e-01 -1.587302e-02
   endloop
 endfacet
 facet normal -1.972979e-01 -9.803435e-01  3.016581e-04
   outer loop
     vertex -7.666063e-02 -1.687354e-01 -1.587302e-02
     vertex -7.263701e-02 -1.692375e-01  9.841270e-01
     vertex -9.244542e-02 -1.652510e-01  9.841270e-01
   endloop
 endfacet
 facet normal -2.357589e-01 -9.718115e-01 -3.351711e-04
   outer loop
     vertex -7.666063e-02 -1.687354e-01 -1.587302e-02
     vertex -9.244542e-02 -1.652510e-01  9.841270e-01
     vertex -9.673257e-02 -1.638660e-01 -1.587302e-02
   endloop
 endfacet
 facet normal -1.234821e-02 -9.999237e-01  2.755965e-04
   outer loop
     vertex -5.602987e-02 -1.697182e-01 -1.587302e-02
     vertex -5.243296e-02 -1.694870e-01  9.841270e-01
     vertex -7.263701e-02 -1.692375e-01  9.841270e-01
   endloop
 endfacet
 facet normal -4.758191e-02 -9.988673e-01 -3.100423e-04
   outer loop
     vertex -5.602987e-02 -1.697182e-01 -1.587302e-02
     vertex -7.263701e-02 -1.692375e-01  9.841270e-01
     vertex -7.666063e-02 -1.687354e-01 -1.587302e-02
   endloop
 endfacet
 facet normal  1.423148e-01 -9.898214e-01 -2.830480e-04
   outer loop
     vertex -3.558594e-02 -1.667788e-01 -1.587302e-02
     vertex -5.243296e-02 -1.694870e-01  9.841270e-01
     vertex -5.602987e-02 -1.697182e-01 -1.587302e-02
   endloop
 endfacet
 facet normal  1.730286e-01 -9.849168e-01  2.476697e-04
   outer loop
     vertex -3.558594e-02 -1.667788e-01 -1.587302e-02
     vertex -3.253214e-02 -1.659908e-01  9.841270e-01
     vertex -5.243296e-02 -1.694870e-01  9.841270e-01
   endloop
 endfacet
 facet normal  3.270680e-01 -9.450008e-01 -2.541888e-04
   outer loop
     vertex -1.606775e-02 -1.600235e-01 -1.587302e-02
     vertex -3.253214e-02 -1.659908e-01  9.841270e-01
     vertex -3.558594e-02 -1.667788e-01 -1.587302e-02
   endloop
 endfacet
 facet normal  3.524204e-01 -9.358418e-01  2.178781e-04
   outer loop
     vertex -1.606775e-02 -1.600235e-01 -1.587302e-02
     vertex -1.362290e-02 -1.588700e-01  9.841270e-01
     vertex -3.253214e-02 -1.659908e-01  9.841270e-01
   endloop
 endfacet
 facet normal  5.000000e-01 -8.660254e-01 -2.234650e-04
   outer loop
     vertex  1.819269e-03 -1.496964e-01 -1.587302e-02
     vertex -1.362290e-02 -1.588700e-01  9.841270e-01
     vertex -1.606775e-02 -1.600235e-01 -1.587302e-02
   endloop
 endfacet
 facet normal  5.196220e-01 -8.543962e-01  1.862223e-04
   outer loop
     vertex  1.819269e-03 -1.496964e-01 -1.587302e-02
     vertex  3.640675e-03 -1.483707e-01  9.841270e-01
     vertex -1.362290e-02 -1.588700e-01  9.841270e-01
   endloop
 endfacet
 facet normal  6.548607e-01 -7.557496e-01 -1.908773e-04
   outer loop
     vertex  1.742864e-02 -1.361708e-01 -1.587302e-02
     vertex  3.640675e-03 -1.483707e-01  9.841270e-01
     vertex  1.819269e-03 -1.496964e-01 -1.587302e-02
   endloop
 endfacet
 facet normal  6.688500e-01 -7.433973e-01  1.527028e-04
   outer loop
     vertex  1.742864e-02 -1.361708e-01 -1.587302e-02
     vertex  1.866145e-02 -1.348562e-01  9.841270e-01
     vertex  3.640675e-03 -1.483707e-01  9.841270e-01
   endloop
 endfacet
 facet normal  7.860531e-01 -6.181590e-01 -1.564262e-04
   outer loop
     vertex  3.019619e-02 -1.199355e-01 -1.587302e-02
     vertex  1.866145e-02 -1.348562e-01  9.841270e-01
     vertex  1.742864e-02 -1.361708e-01 -1.587302e-02
   endloop
 endfacet
 facet normal  7.949427e-01 -6.066845e-01  1.173202e-04
   outer loop
     vertex  3.019619e-02 -1.199355e-01 -1.587302e-02
     vertex  3.091987e-02 -1.187939e-01  9.841270e-01
     vertex  1.866145e-02 -1.348562e-01  9.841270e-01
   endloop
 endfacet
 facet normal  8.888354e-01 -4.582265e-01 -1.201122e-04
   outer loop
     vertex  3.966047e-02 -1.015774e-01 -1.587302e-02
     vertex  3.091987e-02 -1.187939e-01  9.841270e-01
     vertex  3.019619e-02 -1.199355e-01 -1.587302e-02
   endloop
 endfacet
 facet normal  8.935385e-01 -4.489866e-01  8.007510e-05
   outer loop
     vertex  3.966047e-02 -1.015774e-01 -1.587302e-02
     vertex  3.999191e-02 -1.007395e-01  9.841270e-01
     vertex  3.091987e-02 -1.187939e-01  9.841270e-01
   endloop
 endfacet
 facet normal  9.594930e-01 -2.817326e-01 -8.193611e-05
   outer loop
     vertex  4.547941e-02 -8.175989e-02 -1.587302e-02
     vertex  3.999191e-02 -1.007395e-01  9.841270e-01
     vertex  3.966047e-02 -1.015774e-01 -1.587302e-02
   endloop
 endfacet
 facet normal  9.612270e-01 -2.757583e-01  4.096814e-05
   outer loop
     vertex  4.547941e-02 -8.175989e-02 -1.587302e-02
     vertex  4.556377e-02 -8.131730e-02  9.841270e-01
     vertex  3.999191e-02 -1.007395e-01  9.841270e-01
   endloop
 endfacet
 facet normal  9.954719e-01 -9.505604e-02 -4.189847e-05
   outer loop
     vertex  4.744272e-02 -6.119926e-02 -1.587302e-02
     vertex  4.556377e-02 -8.131730e-02  9.841270e-01
     vertex  4.547941e-02 -8.175989e-02 -1.587302e-02
   endloop
 endfacet
 facet normal  9.956669e-01 -9.299162e-02  0.000000e+00
   outer loop
     vertex  4.744272e-02 -6.119926e-02 -1.587302e-02
     vertex  4.744272e-02 -6.119926e-02  9.841270e-01
     vertex  4.556377e-02 -8.131730e-02  9.841270e-01
   endloop
 endfacet
 facet normal  9.954719e-01  9.505604e-02  0.000000e+00
   outer loop
     vertex  4.547941e-02 -4.063863e-02 -1.587302e-02
     vertex  4.744272e-02 -6.119926e-02 -1.587302e-02
     vertex  4.744272e-02 -6.119926e-02 -3.174603e-02
   endloop
 endfacet
 facet normal  9.954719e-01  9.505604e-02  0.000000e+00
   outer loop
     vertex  4.547941e-02 -4.063863e-02 -1.587302e-02
     vertex  4.744272e-02 -6.119926e-02 -3.174603e-02
     vertex  4.547941e-02 -4.063863e-02 -3.174603e-02
   endloop
 endfacet
 facet normal  9.594930e-01  2.817326e-01  0.000000e+00
   outer loop
     vertex  3.966047e-02 -2.082112e-02 -1.587302e-02
     vertex  4.547941e-02 -4.063863e-02 -3.174603e-02
     vertex  3.966047e-02 -2.082112e-02 -3.174603e-02
   endloop
 endfacet
 facet normal  9.594930e-01  2.817326e-01  0.000000e+00
   outer loop
     vertex  3.966047e-02 -2.082112e-02 -1.587302e-02
     vertex  4.547941e-02 -4.063863e-02 -1.587302e-02
     vertex  4.547941e-02 -4.063863e-02 -3.174603e-02
   endloop
 endfacet
 facet normal  8.888354e-01  4.582265e-01  0.000000e+00
   outer loop
     vertex  3.019619e-02 -2.462973e-03 -1.587302e-02
     vertex  3.966047e-02 -2.082112e-02 -3.174603e-02
     vertex  3.019619e-02 -2.462973e-03 -3.174603e-02
   endloop
 endfacet
 facet normal  8.888354e-01  4.582265e-01  0.000000e+00
   outer loop
     vertex  3.019619e-02 -2.462973e-03 -1.587302e-02
     vertex  3.966047e-02 -2.082112e-02 -1.587302e-02
     vertex  3.966047e-02 -2.082112e-02 -3.174603e-02
   endloop
 endfacet
 facet normal  7.860531e-01  6.181590e-01  0.000000e+00
   outer loop
     vertex  1.742864e-02  1.377229e-02 -1.587302e-02
     vertex  3.019619e-02 -2.462973e-03 -3.174603e-02
     vertex  1.742864e-02  1.377229e-02 -3.174603e-02
   endloop
 endfacet
 facet normal  7.860531e-01  6.181590e-01  0.000000e+00
   outer loop
     vertex  1.742864e-02  1.377229e-02 -1.587302e-02
     vertex  3.019619e-02 -2.462973e-03 -1.587302e-02
     vertex  3.019619e-02 -2.462973e-03 -3.174603e-02
   endloop
 endfacet
 facet normal  6.548607e-01  7.557496e-01  0.000000e+00
   outer loop
     vertex  1.819269e-03  2.729788e-02 -1.587302e-02
     vertex  1.742864e-02  1.377229e-02 -3.174603e-02
     vertex  1.819269e-03  2.729788e-02 -3.174603e-02
   endloop
 endfacet
 facet normal  6.548607e-01  7.557496e-01  0.000000e+00
   outer loop
     vertex  1.819269e-03  2.729788e-02 -1.587302e-02
     vertex  1.742864e-02  1.377229e-02 -1.587302e-02
     vertex  1.742864e-02  1.377229e-02 -3.174603e-02
   endloop
 endfacet
 facet normal  5.000000e-01  8.660254e-01  0.000000e+00
   outer loop
     vertex -1.606775e-02  3.762496e-02 -1.587302e-02
     vertex  1.819269e-03  2.729788e-02 -3.174603e-02
     vertex -1.606775e-02  3.762496e-02 -3.174603e-02
   endloop
 endfacet
 facet normal  5.000000e-01  8.660254e-01  0.000000e+00
   outer loop
     vertex -1.606775e-02  3.762496e-02 -1.587302e-02
     vertex  1.819269e-03  2.729788e-02 -1.587302e-02
     vertex  1.819269e-03  2.729788e-02 -3.174603e-02
   endloop
 endfacet
 facet normal  3.270680e-01  9.450008e-01  0.000000e+00
   outer loop
     vertex -3.558594e-02  4.438027e-02 -1.587302e-02
     vertex -1.606775e-02  3.762496e-02 -3.174603e-02
     vertex -3.558594e-02  4.438027e-02 -3.174603e-02
   endloop
 endfacet
 facet normal  3.270680e-01  9.450008e-01  0.000000e+00
   outer loop
     vertex -3.558594e-02  4.438027e-02 -1.587302e-02
     vertex -1.606775e-02  3.762496e-02 -1.587302e-02
     vertex -1.606775e-02  3.762496e-02 -3.174603e-02
   endloop
 endfacet
 facet normal  1.423148e-01  9.898214e-01  0.000000e+00
   outer loop
     vertex -5.602987e-02  4.731966e-02 -1.587302e-02
     vertex -3.558594e-02  4.438027e-02 -1.587302e-02
     vertex -3.558594e-02  4.438027e-02 -3.174603e-02
   endloop
 endfacet
 facet normal  1.423148e-01  9.898214e-01  0.000000e+00
   outer loop
     vertex -5.602987e-02  4.731966e-02 -1.587302e-02
     vertex -3.558594e-02  4.438027e-02 -3.174603e-02
     vertex -5.602987e-02  4.731966e-02 -3.174603e-02
   endloop
 endfacet
 facet normal -4.758192e-02  9.988673e-01  0.000000e+00
   outer loop
     vertex -7.666063e-02  4.633690e-02 -1.587302e-02
     vertex -5.602987e-02  4.731966e-02 -1.587302e-02
     vertex -5.602987e-02  4.731966e-02 -3.174603e-02
   endloop
 endfacet
 facet normal -4.758192e-02  9.988673e-01  0.000000e+00
   outer loop
     vertex -7.666063e-02  4.633690e-02 -1.587302e-02
     vertex -5.602987e-02  4.731966e-02 -3.174603e-02
     vertex -7.666063e-02  4.633690e-02 -3.174603e-02
   endloop
 endfacet
 facet normal -2.357589e-01  9.718116e-01  0.000000e+00
   outer loop
     vertex -9.673257e-02  4.146750e-02 -1.587302e-02
     vertex -7.666063e-02  4.633690e-02 -3.174603e-02
     vertex -9.673257e-02  4.146750e-02 -3.174603e-02
   endloop
 endfacet
 facet normal -2.357589e-01  9.718116e-01  0.000000e+00
   outer loop
     vertex -9.673257e-02  4.146750e-02 -1.587302e-02
     vertex -7.666063e-02  4.633690e-02 -1.587302e-02
     vertex -7.666063e-02  4.633690e-02 -3.174603e-02
   endloop
 endfacet
 facet normal -4.154150e-01  9.096320e-01  0.000000e+00
   outer loop
     vertex -1.155203e-01  3.288745e-02 -1.587302e-02
     vertex -9.673257e-02  4.146750e-02 -3.174603e-02
     vertex -1.155203e-01  3.288745e-02 -3.174603e-02
   endloop
 endfacet
 facet normal -4.154150e-01  9.096320e-01  0.000000e+00
   outer loop
     vertex -1.155203e-01  3.288745e-02 -1.587302e-02
     vertex -9.673257e-02  4.146750e-02 -1.587302e-02
     vertex -9.673257e-02  4.146750e-02 -3.174603e-02
   endloop
 endfacet
 facet normal -5.800569e-01  8.145760e-01  0.000000e+00
   outer loop
     vertex -1.323446e-01  2.090687e-02 -1.587302e-02
     vertex -1.155203e-01  3.288745e-02 -3.174603e-02
     vertex -1.323446e-01  2.090687e-02 -3.174603e-02
   endloop
 endfacet
 facet normal -5.800569e-01  8.145760e-01  0.000000e+00
   outer loop
     vertex -1.323446e-01  2.090687e-02 -1.587302e-02
     vertex -1.155203e-01  3.288745e-02 -1.587302e-02
     vertex -1.155203e-01  3.288745e-02 -3.174603e-02
   endloop
 endfacet
 facet normal -7.237340e-01  6.900790e-01  0.000000e+00
   outer loop
     vertex -1.465976e-01  5.958754e-03 -1.587302e-02
     vertex -1.323446e-01  2.090687e-02 -3.174603e-02
     vertex -1.465976e-01  5.958754e-03 -3.174603e-02
   endloop
 endfacet
 facet normal -7.237340e-01  6.900790e-01  0.000000e+00
   outer loop
     vertex -1.465976e-01  5.958754e-03 -1.587302e-02
     vertex -1.323446e-01  2.090687e-02 -1.587302e-02
     vertex -1.323446e-01  2.090687e-02 -3.174603e-02
   endloop
 endfacet
 facet normal -8.412535e-01  5.406408e-01  0.000000e+00
   outer loop
     vertex -1.577641e-01 -1.141663e-02 -1.587302e-02
     vertex -1.465976e-01  5.958754e-03 -3.174603e-02
     vertex -1.577641e-01 -1.141663e-02 -3.174603e-02
   endloop
 endfacet
 facet normal -8.412535e-01  5.406408e-01  0.000000e+00
   outer loop
     vertex -1.577641e-01 -1.141663e-02 -1.587302e-02
     vertex -1.465976e-01  5.958754e-03 -1.587302e-02
     vertex -1.465976e-01  5.958754e-03 -3.174603e-02
   endloop
 endfacet
 facet normal -9.283679e-01  3.716625e-01  0.000000e+00
   outer loop
     vertex -1.654405e-01 -3.059128e-02 -1.587302e-02
     vertex -1.577641e-01 -1.141663e-02 -3.174603e-02
     vertex -1.654405e-01 -3.059128e-02 -3.174603e-02
   endloop
 endfacet
 facet normal -9.283679e-01  3.716625e-01  0.000000e+00
   outer loop
     vertex -1.654405e-01 -3.059128e-02 -1.587302e-02
     vertex -1.577641e-01 -1.141663e-02 -1.587302e-02
     vertex -1.577641e-01 -1.141663e-02 -3.174603e-02
   endloop
 endfacet
 facet normal -9.819287e-01  1.892512e-01  0.000000e+00
   outer loop
     vertex -1.693493e-01 -5.087218e-02 -1.587302e-02
     vertex -1.654405e-01 -3.059128e-02 -3.174603e-02
     vertex -1.693493e-01 -5.087218e-02 -3.174603e-02
   endloop
 endfacet
 facet normal -9.819287e-01  1.892512e-01  0.000000e+00
   outer loop
     vertex -1.693493e-01 -5.087218e-02 -1.587302e-02
     vertex -1.654405e-01 -3.059128e-02 -1.587302e-02
     vertex -1.654405e-01 -3.059128e-02 -3.174603e-02
   endloop
 endfacet
 facet normal -1.000000e+00 -2.687651e-15 -0.000000e+00
   outer loop
     vertex -1.693493e-01 -7.152634e-02 -1.587302e-02
     vertex -1.693493e-01 -5.087218e-02 -3.174603e-02
     vertex -1.693493e-01 -7.152634e-02 -3.174603e-02
   endloop
 endfacet
 facet normal -1.000000e+00 -2.687651e-15  0.000000e+00
   outer loop
     vertex -1.693493e-01 -7.152634e-02 -1.587302e-02
     vertex -1.693493e-01 -5.087218e-02 -1.587302e-02
     vertex -1.693493e-01 -5.087218e-02 -3.174603e-02
   endloop
 endfacet
 facet normal -9.819287e-01 -1.892512e-01 -0.000000e+00
   outer loop
     vertex -1.654405e-01 -9.180724e-02 -1.587302e-02
     vertex -1.693493e-01 -7.152634e-02 -3.174603e-02
     vertex -1.654405e-01 -9.180724e-02 -3.174603e-02
   endloop
 endfacet
 facet normal -9.819287e-01 -1.892512e-01  0.000000e+00
   outer loop
     vertex -1.654405e-01 -9.180724e-02 -1.587302e-02
     vertex -1.693493e-01 -7.152634e-02 -1.587302e-02
     vertex -1.693493e-01 -7.152634e-02 -3.174603e-02
   endloop
 endfacet
 facet normal -9.283679e-01 -3.716625e-01 -0.000000e+00
   outer loop
     vertex -1.577641e-01 -1.109819e-01 -1.587302e-02
     vertex -1.654405e-01 -9.180724e-02 -3.174603e-02
     vertex -1.577641e-01 -1.109819e-01 -3.174603e-02
   endloop
 endfacet
 facet normal -9.283679e-01 -3.716625e-01  0.000000e+00
   outer loop
     vertex -1.577641e-01 -1.109819e-01 -1.587302e-02
     vertex -1.654405e-01 -9.180724e-02 -1.587302e-02
     vertex -1.654405e-01 -9.180724e-02 -3.174603e-02
   endloop
 endfacet
 facet normal -8.412535e-01 -5.406408e-01 -0.000000e+00
   outer loop
     vertex -1.465976e-01 -1.283573e-01 -1.587302e-02
     vertex -1.577641e-01 -1.109819e-01 -3.174603e-02
     vertex -1.465976e-01 -1.283573e-01 -3.174603e-02
   endloop
 endfacet
 facet normal -8.412535e-01 -5.406408e-01  0.000000e+00
   outer loop
     vertex -1.465976e-01 -1.283573e-01 -1.587302e-02
     vertex -1.577641e-01 -1.109819e-01 -1.587302e-02
     vertex -1.577641e-01 -1.109819e-01 -3.174603e-02
   endloop
 endfacet
 facet normal -7.237340e-01 -6.900790e-01 -0.000000e+00
   outer loop
     vertex -1.323446e-01 -1.433054e-01 -1.587302e-02
     vertex -1.465976e-01 -1.283573e-01 -3.174603e-02
     vertex -1.323446e-01 -1.433054e-01 -3.174603e-02
   endloop
 endfacet
 facet normal -7.237340e-01 -6.900790e-01  0.000000e+00
   outer loop
     vertex -1.323446e-01 -1.433054e-01 -1.587302e-02
     vertex -1.465976e-01 -1.283573e-01 -1.587302e-02
     vertex -1.465976e-01 -1.283573e-01 -3.174603e-02
   endloop
 endfacet
 facet normal -5.800569e-01 -8.145760e-01 -0.000000e+00
   outer loop
     vertex -1.155203e-01 -1.552860e-01 -1.587302e-02
     vertex -1.323446e-01 -1.433054e-01 -3.174603e-02
     vertex -1.155203e-01 -1.552860e-01 -3.174603e-02
   endloop
 endfacet
 facet normal -5.800569e-01 -8.145760e-01  0.000000e+00
   outer loop
     vertex -1.155203e-01 -1.552860e-01 -1.587302e-02
     vertex -1.323446e-01 -1.433054e-01 -1.587302e-02
     vertex -1.323446e-01 -1.433054e-01 -3.174603e-02
   endloop
 endfacet
 facet normal -4.154150e-01 -9.096320e-01 -0.000000e+00
   outer loop
     vertex -9.673257e-02 -1.638660e-01 -1.587302e-02
     vertex -1.155203e-01 -1.552860e-01 -3.174603e-02
     vertex -9.673257e-02 -1.638660e-01 -3.174603e-02
   endloop
 endfacet
 facet normal -4.154150e-01 -9.096320e-01  0.000000e+00
   outer loop
     vertex -9.673257e-02 -1.638660e-01 -1.587302e-02
     vertex -1.155203e-01 -1.552860e-01 -1.587302e-02
     vertex -1.155203e-01 -1.552860e-01 -3.174603e-02
   endloop
 endfacet
 facet normal -2.357589e-01 -9.718116e-01 -0.000000e+00
   outer loop
     vertex -7.666063e-02 -1.687354e-01 -1.587302e-02
     vertex -9.673257e-02 -1.638660e-01 -3.174603e-02
     vertex -7.666063e-02 -1.687354e-01 -3.174603e-02
   endloop
 endfacet
 facet normal -2.357589e-01 -9.718116e-01  0.000000e+00
   outer loop
     vertex -7.666063e-02 -1.687354e-01 -1.587302e-02
     vertex -9.673257e-02 -1.638660e-01 -1.587302e-02
     vertex -9.673257e-02 -1.638660e-01 -3.174603e-02
   endloop
 endfacet
 facet normal -4.758192e-02 -9.988673e-01 -0.000000e+00
   outer loop
     vertex -5.602987e-02 -1.697182e-01 -1.587302e-02
     vertex -7.666063e-02 -1.687354e-01 -3.174603e-02
     vertex -5.602987e-02 -1.697182e-01 -3.174603e-02
   endloop
 endfacet
 facet normal -4.758192e-02 -9.988673e-01  0.000000e+00
   outer loop
     vertex -5.602987e-02 -1.697182e-01 -1.587302e-02
     vertex -7.666063e-02 -1.687354e-01 -1.587302e-02
     vertex -7.666063e-02 -1.687354e-01 -3.174603e-02
   endloop
 endfacet
 facet normal  1.423148e-01 -9.898214e-01  0.000000e+00
   outer loop
     vertex -3.558594e-02 -1.667788e-01 -1.587302e-02
     vertex -5.602987e-02 -1.697182e-01 -3.174603e-02
     vertex -3.558594e-02 -1.667788e-01 -3.174603e-02
   endloop
 endfacet
 facet normal  1.423148e-01 -9.898214e-01  0.000000e+00
   outer loop
     vertex -3.558594e-02 -1.667788e-01 -1.587302e-02
     vertex -5.602987e-02 -1.697182e-01 -1.587302e-02
     vertex -5.602987e-02 -1.697182e-01 -3.174603e-02
   endloop
 endfacet
 facet normal  3.270680e-01 -9.450008e-01  0.000000e+00
   outer loop
     vertex -1.606775e-02 -1.600235e-01 -1.587302e-02
     vertex -3.558594e-02 -1.667788e-01 -3.174603e-02
     vertex -1.606775e-02 -1.600235e-01 -3.174603e-02
   endloop
 endfacet
 facet normal  3.270680e-01 -9.450008e-01  0.000000e+00
   outer loop
     vertex -1.606775e-02 -1.600235e-01 -1.587302e-02
     vertex -3.558594e-02 -1.667788e-01 -1.587302e-02
     vertex -3.558594e-02 -1.667788e-01 -3.174603e-02
   endloop
 endfacet
 facet normal  5.000000e-01 -8.660254e-01  0.000000e+00
   outer loop
     vertex  1.819269e-03 -1.496964e-01 -1.587302e-02
     vertex -1.606775e-02 -1.600235e-01 -3.174603e-02
     vertex  1.819269e-03 -1.496964e-01 -3.174603e-02
   endloop
 endfacet
 facet normal  5.000000e-01 -8.660254e-01  0.000000e+00
   outer loop
     vertex  1.819269e-03 -1.496964e-01 -1.587302e-02
     vertex -1.606775e-02 -1.600235e-01 -1.587302e-02
     vertex -1.606775e-02 -1.600235e-01 -3.174603e-02
   endloop
 endfacet
 facet normal  6.548607e-01 -7.557496e-01  0.000000e+00
   outer loop
     vertex  1.742864e-02 -1.361708e-01 -1.587302e-02
     vertex  1.819269e-03 -1.496964e-01 -3.174603e-02
     vertex  1.742864e-02 -1.361708e-01 -3.174603e-02
   endloop
 endfacet
 facet normal  6.548607e-01 -7.557496e-01  0.000000e+00
   outer loop
     vertex  1.742864e-02 -1.361708e-01 -1.587302e-02
     vertex  1.819269e-03 -1.496964e-01 -1.587302e-02
     vertex  1.819269e-03 -1.496964e-01 -3.174603e-02
   endloop
 endfacet
 facet normal  7.860531e-01 -6.181590e-01  0.000000e+00
   outer loop
     vertex  3.019619e-02 -1.199355e-01 -1.587302e-02
     vertex  1.742864e-02 -1.361708e-01 -3.174603e-02
     vertex  3.019619e-02 -1.199355e-01 -3.174603e-02
   endloop
 endfacet
 facet normal  7.860531e-01 -6.181590e-01  0.000000e+00
   outer loop
     vertex  3.019619e-02 -1.199355e-01 -1.587302e-02
     vertex  1.742864e-02 -1.361708e-01 -1.587302e-02
     vertex  1.742864e-02 -1.361708e-01 -3.174603e-02
   endloop
 endfacet
 facet normal  8.888354e-01 -4.582265e-01  0.000000e+00
   outer loop
     vertex  3.966047e-02 -1.015774e-01 -1.587302e-02
     vertex  3.019619e-02 -1.199355e-01 -3.174603e-02
     vertex  3.966047e-02 -1.015774e-01 -3.174603e-02
   endloop
 endfacet
 facet normal  8.888354e-01 -4.582265e-01  0.000000e+00
   outer loop
     vertex  3.966047e-02 -1.015774e-01 -1.587302e-02
     vertex  3.019619e-02 -1.199355e-01 -1.587302e-02
     vertex  3.019619e-02 -1.199355e-01 -3.174603e-02
   endloop
 endfacet
 facet normal  9.594930e-01 -2.817326e-01  0.000000e+00
   outer loop
     vertex  4.547941e-02 -8.175989e-02 -1.587302e-02
     vertex  3.966047e-02 -1.015774e-01 -3.174603e-02
     vertex  4.547941e-02 -8.175989e-02 -3.174603e-02
   endloop
 endfacet
 facet normal  9.594930e-01 -2.817326e-01  0.000000e+00
   outer loop
     vertex  4.547941e-02 -8.175989e-02 -1.587302e-02
     vertex  3.966047e-02 -1.015774e-01 -1.587302e-02
     vertex  3.966047e-02 -1.015774e-01 -3.174603e-02
   endloop
 endfacet
 facet normal  9.954719e-01 -9.505604e-02  0.000000e+00
   outer loop
     vertex  4.744272e-02 -6.119926e-02 -1.587302e-02
     vertex  4.547941e-02 -8.175989e-02 -1.587302e-02
     vertex  4.547941e-02 -8.175989e-02 -3.174603e-02
   endloop
 endfacet
 facet normal  9.954719e-01 -9.505604e-02  0.000000e+00
   outer loop
     vertex  4.744272e-02 -6.119926e-02 -1.587302e-02
     vertex  4.547941e-02 -8.175989e-02 -3.174603e-02
     vertex  4.744272e-02 -6.119926e-02 -3.174603e-02
   endloop
 endfacet
 facet normal  0.000000e+00  0.000000e+00  1.000000e+00
   outer loop
     vertex -1.063492e-01 -4.920632e-02  9.841270e-01
     vertex -1.613831e-01 -1.917226e-02  9.841270e-01
     vertex -1.674329e-01 -3.845090e-02  9.841270e-01
   endloop
 endfacet
 facet normal  0.000000e+00  0.000000e+00  1.000000e+00
   outer loop
     vertex -1.063492e-01 -4.920632e-02  9.841270e-01
     vertex -1.674329e-01 -3.845090e-02  9.841270e-01
     vertex -1.698081e-01 -5.851640e-02  9.841270e-01
   endloop
 endfacet
 facet normal  0.000000e+00  0.000000e+00  1.000000e+00
   outer loop
     vertex -1.063492e-01 -4.920632e-02  9.841270e-01
     vertex -1.698081e-01 -5.851640e-02  9.841270e-01
     vertex -1.684265e-01 -7.867470e-02  9.841270e-01
   endloop
 endfacet
 facet normal  0.000000e+00  0.000000e+00  1.000000e+00
   outer loop
     vertex -1.063492e-01 -4.920632e-02  9.841270e-01
     vertex -1.684265e-01 -7.867470e-02  9.841270e-01
     vertex -1.633360e-01 -9.822852e-02  9.841270e-01
   endloop
 endfacet
 facet normal  0.000000e+00  0.000000e+00  1.000000e+00
   outer loop
     vertex -1.063492e-01 -4.920632e-02  9.841270e-01
     vertex -1.633360e-01 -9.822852e-02  9.841270e-01
     vertex -1.547126e-01 -1.165015e-01  9.841270e-01
   endloop
 endfacet
 facet normal  0.000000e+00  0.000000e+00  1.000000e+00
   outer loop
     vertex -1.063492e-01 -4.920632e-02  9.841270e-01
     vertex -1.547126e-01 -1.165015e-01  9.841270e-01
     vertex -1.428545e-01 -1.328616e-01  9.841270e-01
   endloop
 endfacet
 facet normal  0.000000e+00  0.000000e+00  1.000000e+00
   outer loop
     vertex -1.063492e-01 -4.920632e-02  9.841270e-01
     vertex -1.428545e-01 -1.328616e-01  9.841270e-01
     vertex -1.281721e-01 -1.467429e-01  9.841270e-01
   endloop
 endfacet
 facet normal  0.000000e+00  0.000000e+00  1.000000e+00
   outer loop
     vertex -1.063492e-01 -4.920632e-02  9.841270e-01
     vertex -1.281721e-01 -1.467429e-01  9.841270e-01
     vertex -1.111730e-01 -1.576653e-01  9.841270e-01
   endloop
 endfacet
 facet normal  0.000000e+00  0.000000e+00  1.000000e+00
   outer loop
     vertex -1.063492e-01 -4.920632e-02  9.841270e-01
     vertex -1.111730e-01 -1.576653e-01  9.841270e-01
     vertex -9.244542e-02 -1.652510e-01  9.841270e-01
   endloop
 endfacet
 facet normal  0.000000e+00  0.000000e+00  1.000000e+00
   outer loop
     vertex -1.063492e-01 -4.920632e-02  9.841270e-01
     vertex -9.244542e-02 -1.652510e-01  9.841270e-01
     vertex -7.263701e-02 -1.692375e-01  9.841270e-01
   endloop
 endfacet
 facet normal  0.000000e+00  0.000000e+00  1.000000e+00
   outer loop
     vertex -1.063492e-01 -4.920632e-02  9.841270e-01
     vertex -7.263701e-02 -1.692375e-01  9.841270e-01
     vertex -5.243296e-02 -1.694870e-01  9.841270e-01
   endloop
 endfacet
 facet normal  0.000000e+00  0.000000e+00  1.000000e+00
   outer loop
     vertex -1.518680e-01 -1.347326e-03  9.841270e-01
     vertex -1.613831e-01 -1.917226e-02  9.841270e-01
     vertex -1.063492e-01 -4.920632e-02  9.841270e-01
   endloop
 endfacet
 facet normal  0.000000e+00  0.000000e+00  1.000000e+00
   outer loop
     vertex -1.392167e-01  1.440734e-02  9.841270e-01
     vertex -1.518680e-01 -1.347326e-03  9.841270e-01
     vertex -1.063492e-01 -4.920632e-02  9.841270e-01
   endloop
 endfacet
 facet normal  0.000000e+00  0.000000e+00  1.000000e+00
   outer loop
     vertex -1.238668e-01  2.754680e-02  9.841270e-01
     vertex -1.392167e-01  1.440734e-02  9.841270e-01
     vertex -1.063492e-01 -4.920632e-02  9.841270e-01
   endloop
 endfacet
 facet normal  0.000000e+00  0.000000e+00  1.000000e+00
   outer loop
     vertex -1.063492e-01  3.761655e-02  9.841270e-01
     vertex -1.238668e-01  2.754680e-02  9.841270e-01
     vertex -1.063492e-01 -4.920632e-02  9.841270e-01
   endloop
 endfacet
 facet normal  0.000000e+00  0.000000e+00  1.000000e+00
   outer loop
     vertex -1.322748e-02 -4.920632e-02  9.841270e-01
     vertex -5.243296e-02 -1.694870e-01  9.841270e-01
     vertex -3.253214e-02 -1.659908e-01  9.841270e-01
   endloop
 endfacet
 facet normal  0.000000e+00  0.000000e+00  1.000000e+00
   outer loop
     vertex -1.322748e-02 -4.920632e-02  9.841270e-01
     vertex -3.253214e-02 -1.659908e-01  9.841270e-01
     vertex -1.362290e-02 -1.588700e-01  9.841270e-01
   endloop
 endfacet
 facet normal  0.000000e+00  0.000000e+00  1.000000e+00
   outer loop
     vertex -1.322748e-02 -4.920632e-02  9.841270e-01
     vertex -1.362290e-02 -1.588700e-01  9.841270e-01
     vertex  3.640675e-03 -1.483707e-01  9.841270e-01
   endloop
 endfacet
 facet normal  0.000000e+00  0.000000e+00  1.000000e+00
   outer loop
     vertex -1.322748e-02 -4.920632e-02  9.841270e-01
     vertex  3.640675e-03 -1.483707e-01  9.841270e-01
     vertex  1.866145e-02 -1.348562e-01  9.841270e-01
   endloop
 endfacet
 facet normal  0.000000e+00  0.000000e+00  1.000000e+00
   outer loop
     vertex -1.322748e-02 -4.920632e-02  9.841270e-01
     vertex  1.866145e-02 -1.348562e-01  9.841270e-01
     vertex  3.091987e-02 -1.187939e-01  9.841270e-01
   endloop
 endfacet
 facet normal  0.000000e+00  0.000000e+00  1.000000e+00
   outer loop
     vertex -1.322748e-02 -4.920632e-02  9.841270e-01
     vertex -1.063492e-01 -4.920632e-02  9.841270e-01
     vertex -5.243296e-02 -1.694870e-01  9.841270e-01
   endloop
 endfacet
 facet normal  0.000000e+00  0.000000e+00  1.000000e+00
   outer loop
     vertex  3.999191e-02 -1.007395e-01  9.841270e-01
     vertex -1.322748e-02 -4.920632e-02  9.841270e-01
     vertex  3.091987e-02 -1.187939e-01  9.841270e-01
   endloop
 endfacet
 facet normal  0.000000e+00  0.000000e+00  1.000000e+00
   outer loop
     vertex  4.556377e-02 -8.131730e-02  9.841270e-01
     vertex -1.322748e-02 -4.920632e-02  9.841270e-01
     vertex  3.999191e-02 -1.007395e-01  9.841270e-01
   endloop
 endfacet
 facet normal  0.000000e+00  0.000000e+00  1.000000e+00
   outer loop
     vertex  4.744272e-02 -6.119926e-02  9.841270e-01
     vertex -1.322748e-02 -4.920632e-02  9.841270e-01
     vertex  4.556377e-02 -8.131730e-02  9.841270e-01
   endloop
 endfacet
 facet normal  0.000000e+00  0.000000e+00  1.000000e+00
   outer loop
     vertex  4.557733e-02 -4.115334e-02  9.841270e-01
     vertex -1.322748e-02 -4.920632e-02  9.841270e-01
     vertex  4.744272e-02 -6.119926e-02  9.841270e-01
   endloop
 endfacet
 facet normal  0.000000e+00  0.000000e+00  1.000000e+00
   outer loop
     vertex  4.004523e-02 -2.179580e-02  9.841270e-01
     vertex -1.322748e-02 -4.920632e-02  9.841270e-01
     vertex  4.557733e-02 -4.115334e-02  9.841270e-01
   endloop
 endfacet
 facet normal  0.000000e+00  0.000000e+00  1.000000e+00
   outer loop
     vertex  3.103639e-02 -3.791379e-03  9.841270e-01
     vertex -1.322748e-02 -4.920632e-02  9.841270e-01
     vertex  4.004523e-02 -2.179580e-02  9.841270e-01
   endloop
 endfacet
 facet normal  0.000000e+00  0.000000e+00  1.000000e+00
   outer loop
     vertex  3.934695e-03  2.575272e-02  9.841270e-01
     vertex -1.322748e-02  3.627785e-02  9.841270e-01
     vertex -1.322748e-02 -4.920632e-02  9.841270e-01
   endloop
 endfacet
 facet normal  0.000000e+00  0.000000e+00  1.000000e+00
   outer loop
     vertex  1.886016e-02  1.224165e-02  9.841270e-01
     vertex -1.322748e-02 -4.920632e-02  9.841270e-01
     vertex  3.103639e-02 -3.791379e-03  9.841270e-01
   endloop
 endfacet
 facet normal  0.000000e+00  0.000000e+00  1.000000e+00
   outer loop
     vertex  1.886016e-02  1.224165e-02  9.841270e-01
     vertex  3.934695e-03  2.575272e-02  9.841270e-01
     vertex -1.322748e-02 -4.920632e-02  9.841270e-01
   endloop
 endfacet
 facet normal  1.000000e+00 -2.717284e-15 -9.289445e-16
   outer loop
     vertex -1.063492e-01 -4.920632e-02  9.841270e-01
     vertex -1.063492e-01  3.761655e-02  7.301587e-01
     vertex -1.063492e-01  3.761655e-02  9.841270e-01
   endloop
 endfacet
 facet normal  1.000000e+00  0.000000e+00  0.000000e+00
   outer loop
     vertex -1.063492e-01 -4.920632e-02  9.841270e-01
     vertex -1.063492e-01 -4.920632e-02  7.301587e-01
     vertex -1.063492e-01  3.761655e-02  7.301587e-01
   endloop
 endfacet
 facet normal  0.000000e+00  0.000000e+00  1.000000e+00
   outer loop
     vertex -1.005766e-01  4.005537e-02  7.301587e-01
     vertex -1.063492e-01  3.761655e-02  7.301587e-01
     vertex -1.063492e-01 -4.920632e-02  7.301587e-01
   endloop
 endfacet
 facet normal  0.000000e+00  0.000000e+00  1.000000e+00
   outer loop
     vertex -9.467310e-02  4.215731e-02  7.301587e-01
     vertex -1.005766e-01  4.005537e-02  7.301587e-01
     vertex -1.063492e-01 -4.920632e-02  7.301587e-01
   endloop
 endfacet
 facet normal  0.000000e+00  0.000000e+00  1.000000e+00
   outer loop
     vertex -8.865818e-02  4.391538e-02  7.301587e-01
     vertex -9.467310e-02  4.215731e-02  7.301587e-01
     vertex -1.063492e-01 -4.920632e-02  7.301587e-01
   endloop
 endfacet
 facet normal  0.000000e+00  0.000000e+00  1.000000e+00
   outer loop
     vertex -3.374034e-02  4.391538e-02  7.301587e-01
     vertex -1.063492e-01 -4.920632e-02  7.301587e-01
     vertex -1.322748e-02 -4.920632e-02  7.301587e-01
   endloop
 endfacet
 facet normal  0.000000e+00  0.000000e+00  1.000000e+00
   outer loop
     vertex -3.374034e-02  4.391538e-02  7.301587e-01
     vertex -8.865818e-02  4.391538e-02  7.301587e-01
     vertex -1.063492e-01 -4.920632e-02  7.301587e-01
   endloop
 endfacet
 facet normal  0.000000e+00  0.000000e+00  1.000000e+00
   outer loop
     vertex -2.673649e-02  4.183179e-02  7.301587e-01
     vertex -3.374034e-02  4.391538e-02  7.301587e-01
     vertex -1.322748e-02 -4.920632e-02  7.301587e-01
   endloop
 endfacet
 facet normal  0.000000e+00  0.000000e+00  1.000000e+00
   outer loop
     vertex -1.988854e-02  3.928210e-02  7.301587e-01
     vertex -2.673649e-02  4.183179e-02  7.301587e-01
     vertex -1.322748e-02 -4.920632e-02  7.301587e-01
   endloop
 endfacet
 facet normal  0.000000e+00  0.000000e+00  1.000000e+00
   outer loop
     vertex -1.322748e-02  3.627785e-02  7.301587e-01
     vertex -1.988854e-02  3.928210e-02  7.301587e-01
     vertex -1.322748e-02 -4.920632e-02  7.301587e-01
   endloop
 endfacet
 facet normal -2.223768e-14 -1.000000e+00 -2.431649e-15
   outer loop
     vertex -8.865818e-02  4.391538e-02  9.841270e-01
     vertex -3.374034e-02  4.391538e-02  7.301587e-01
     vertex -3.374034e-02  4.391538e-02  9.841270e-01
   endloop
 endfacet
 facet normal  0.000000e+00 -1.000000e+00  2.377005e-15
   outer loop
     vertex -8.865818e-02  4.391538e-02  9.841270e-01
     vertex -8.865818e-02  4.391538e-02  7.301587e-01
     vertex -3.374034e-02  4.391538e-02  7.301587e-01
   endloop
 endfacet
 facet normal  0.000000e+00  0.000000e+00  1.000000e+00
   outer loop
     vertex -5.195711e-02  4.704889e-02  9.841270e-01
     vertex -7.044141e-02  4.704889e-02  9.841270e-01
     vertex -8.865818e-02  4.391538e-02  9.841270e-01
   endloop
 endfacet
 facet normal  0.000000e+00  0.000000e+00  1.000000e+00
   outer loop
     vertex -3.374034e-02  4.391538e-02  9.841270e-01
     vertex -5.195711e-02  4.704889e-02  9.841270e-01
     vertex -8.865818e-02  4.391538e-02  9.841270e-01
   endloop
 endfacet
 facet normal -1.000000e+00 -3.549232e-14  0.000000e+00
   outer loop
     vertex -1.322748e-02  3.627785e-02  9.841270e-01
     vertex -1.322748e-02 -4.920632e-02  7.301587e-01
     vertex -1.322748e-02 -4.920632e-02  9.841270e-01
   endloop
 endfacet
 facet normal -1.000000e+00  0.000000e+00 -1.194650e-14
   outer loop
     vertex -1.322748e-02  3.627785e-02  9.841270e-01
     vertex -1.322748e-02  3.627785e-02  7.301587e-01
     vertex -1.322748e-02 -4.920632e-02  7.301587e-01
   endloop
 endfacet
 facet normal  0.000000e+00  0.000000e+00 -1.000000e+00
   outer loop
     vertex  1.742864e-02  1.377229e-02 -3.174603e-02
     vertex  4.547941e-02 -4.063863e-02 -3.174603e-02
     vertex  4.744272e-02 -6.119926e-02 -3.174603e-02
   endloop
 endfacet
 facet normal  0.000000e+00  0.000000e+00 -1.000000e+00
   outer loop
     vertex  1.742864e-02  1.377229e-02 -3.174603e-02
     vertex  3.966047e-02 -2.082112e-02 -3.174603e-02
     vertex  4.547941e-02 -4.063863e-02 -3.174603e-02
   endloop
 endfacet
 facet normal  0.000000e+00  0.000000e+00 -1.000000e+00
   outer loop
     vertex  1.742864e-02  1.377229e-02 -3.174603e-02
     vertex  3.019619e-02 -2.462973e-03 -3.174603e-02
     vertex  3.966047e-02 -2.082112e-02 -3.174603e-02
   endloop
 endfacet
 facet normal  0.000000e+00  0.000000e+00 -1.000000e+00
   outer loop
     vertex  1.742864e-02  1.377229e-02 -3.174603e-02
     vertex -1.606775e-02  3.762496e-02 -3.174603e-02
     vertex  1.819269e-03  2.729788e-02 -3.174603e-02
   endloop
 endfacet
 facet normal  0.000000e+00  0.000000e+00 -1.000000e+00
   outer loop
     vertex  1.742864e-02  1.377229e-02 -3.174603e-02
     vertex -3.558594e-02  4.438027e-02 -3.174603e-02
     vertex -1.606775e-02  3.762496e-02 -3.174603e-02
   endloop
 endfacet
 facet normal  0.000000e+00  0.000000e+00 -1.000000e+00
   outer loop
     vertex  1.742864e-02  1.377229e-02 -3.174603e-02
     vertex -5.602987e-02  4.731966e-02 -3.174603e-02
     vertex -3.558594e-02  4.438027e-02 -3.174603e-02
   endloop
 endfacet
 facet normal  0.000000e+00  0.000000e+00 -1.000000e+00
   outer loop
     vertex  1.742864e-02  1.377229e-02 -3.174603e-02
     vertex -7.666063e-02  4.633690e-02 -3.174603e-02
     vertex -5.602987e-02  4.731966e-02 -3.174603e-02
   endloop
 endfacet
 facet normal  0.000000e+00  0.000000e+00 -1.000000e+00
   outer loop
     vertex  1.742864e-02  1.377229e-02 -3.174603e-02
     vertex -9.673257e-02  4.146750e-02 -3.174603e-02
     vertex -7.666063e-02  4.633690e-02 -3.174603e-02
   endloop
 endfacet
 facet normal  0.000000e+00  0.000000e+00 -1.000000e+00
   outer loop
     vertex  1.742864e-02  1.377229e-02 -3.174603e-02
     vertex -1.155203e-01  3.288745e-02 -3.174603e-02
     vertex -9.673257e-02  4.146750e-02 -3.174603e-02
   endloop
 endfacet
 facet normal  0.000000e+00  0.000000e+00 -1.000000e+00
   outer loop
     vertex  1.742864e-02  1.377229e-02 -3.174603e-02
     vertex -1.323446e-01  2.090687e-02 -3.174603e-02
     vertex -1.155203e-01  3.288745e-02 -3.174603e-02
   endloop
 endfacet
 facet normal -0.000000e+00  0.000000e+00 -1.000000e+00
   outer loop
     vertex  1.742864e-02  1.377229e-02 -3.174603e-02
     vertex -1.465976e-01  5.958754e-03 -3.174603e-02
     vertex -1.323446e-01  2.090687e-02 -3.174603e-02
   endloop
 endfacet
 facet normal  0.000000e+00  0.000000e+00 -1.000000e+00
   outer loop
     vertex  1.742864e-02  1.377229e-02 -3.174603e-02
     vertex -1.577641e-01 -1.141663e-02 -3.174603e-02
     vertex -1.465976e-01  5.958754e-03 -3.174603e-02
   endloop
 endfacet
 facet normal  0.000000e+00  0.000000e+00 -1.000000e+00
   outer loop
     vertex  1.742864e-02  1.377229e-02 -3.174603e-02
     vertex -1.654405e-01 -3.059128e-02 -3.174603e-02
     vertex -1.577641e-01 -1.141663e-02 -3.174603e-02
   endloop
 endfacet
 facet normal  0.000000e+00  0.000000e+00 -1.000000e+00
   outer loop
     vertex  1.742864e-02  1.377229e-02 -3.174603e-02
     vertex -1.693493e-01 -5.087218e-02 -3.174603e-02
     vertex -1.654405e-01 -3.059128e-02 -3.174603e-02
   endloop
 endfacet
 facet normal  0.000000e+00  0.000000e+00 -1.000000e+00
   outer loop
     vertex  1.742864e-02  1.377229e-02 -3.174603e-02
     vertex -1.693493e-01 -7.152634e-02 -3.174603e-02
     vertex -1.693493e-01 -5.087218e-02 -3.174603e-02
   endloop
 endfacet
 facet normal  0.000000e+00  0.000000e+00 -1.000000e+00
   outer loop
     vertex  1.742864e-02  1.377229e-02 -3.174603e-02
     vertex -1.654405e-01 -9.180724e-02 -3.174603e-02
     vertex -1.693493e-01 -7.152634e-02 -3.174603e-02
   endloop
 endfacet
 facet normal  0.000000e+00  0.000000e+00 -1.000000e+00
   outer loop
     vertex  1.742864e-02  1.377229e-02 -3.174603e-02
     vertex -1.577641e-01 -1.109819e-01 -3.174603e-02
     vertex -1.654405e-01 -9.180724e-02 -3.174603e-02
   endloop
 endfacet
 facet normal  0.000000e+00  0.000000e+00 -1.000000e+00
   outer loop
     vertex  1.742864e-02  1.377229e-02 -3.174603e-02
     vertex -1.465976e-01 -1.283573e-01 -3.174603e-02
     vertex -1.577641e-01 -1.109819e-01 -3.174603e-02
   endloop
 endfacet
 facet normal  0.000000e+00  0.000000e+00 -1.000000e+00
   outer loop
     vertex  1.742864e-02  1.377229e-02 -3.174603e-02
     vertex -1.323446e-01 -1.433054e-01 -3.174603e-02
     vertex -1.465976e-01 -1.283573e-01 -3.174603e-02
   endloop
 endfacet
 facet normal  0.000000e+00  0.000000e+00 -1.000000e+00
   outer loop
     vertex  1.742864e-02  1.377229e-02 -3.174603e-02
     vertex -1.155203e-01 -1.552860e-01 -3.174603e-02
     vertex -1.323446e-01 -1.433054e-01 -3.174603e-02
   endloop
 endfacet
 facet normal  0.000000e+00  0.000000e+00 -1.000000e+00
   outer loop
     vertex  1.742864e-02  1.377229e-02 -3.174603e-02
     vertex -9.673257e-02 -1.638660e-01 -3.174603e-02
     vertex -1.155203e-01 -1.552860e-01 -3.174603e-02
   endloop
 endfacet
 facet normal  0.000000e+00  0.000000e+00 -1.000000e+00
   outer loop
     vertex  1.742864e-02  1.377229e-02 -3.174603e-02
     vertex -7.666063e-02 -1.687354e-01 -3.174603e-02
     vertex -9.673257e-02 -1.638660e-01 -3.174603e-02
   endloop
 endfacet
 facet normal  0.000000e+00  0.000000e+00 -1.000000e+00
   outer loop
     vertex  1.742864e-02  1.377229e-02 -3.174603e-02
     vertex -5.602987e-02 -1.697182e-01 -3.174603e-02
     vertex -7.666063e-02 -1.687354e-01 -3.174603e-02
   endloop
 endfacet
 facet normal  0.000000e+00  0.000000e+00 -1.000000e+00
   outer loop
     vertex  1.742864e-02  1.377229e-02 -3.174603e-02
     vertex -3.558594e-02 -1.667788e-01 -3.174603e-02
     vertex -5.602987e-02 -1.697182e-01 -3.174603e-02
   endloop
 endfacet
 facet normal  0.000000e+00  0.000000e+00 -1.000000e+00
   outer loop
     vertex  1.742864e-02  1.377229e-02 -3.174603e-02
     vertex -1.606775e-02 -1.600235e-01 -3.174603e-02
     vertex -3.558594e-02 -1.667788e-01 -3.174603e-02
   endloop
 endfacet
 facet normal  0.000000e+00  0.000000e+00 -1.000000e+00
   outer loop
     vertex  1.742864e-02  1.377229e-02 -3.174603e-02
     vertex  1.819269e-03 -1.496964e-01 -3.174603e-02
     vertex -1.606775e-02 -1.600235e-01 -3.174603e-02
   endloop
 endfacet
 facet normal  0.000000e+00 -0.000000e+00 -1.000000e+00
   outer loop
     vertex  1.742864e-02  1.377229e-02 -3.174603e-02
     vertex  1.742864e-02 -1.361708e-01 -3.174603e-02
     vertex  1.819269e-03 -1.496964e-01 -3.174603e-02
   endloop
 endfacet
 facet normal  0.000000e+00  0.000000e+00 -1.000000e+00
   outer loop
     vertex  1.742864e-02  1.377229e-02 -3.174603e-02
     vertex  3.019619e-02 -1.199355e-01 -3.174603e-02
     vertex  1.742864e-02 -1.361708e-01 -3.174603e-02
   endloop
 endfacet
 facet normal  0.000000e+00  0.000000e+00 -1.000000e+00
   outer loop
     vertex  1.742864e-02  1.377229e-02 -3.174603e-02
     vertex  3.966047e-02 -1.015774e-01 -3.174603e-02
     vertex  3.019619e-02 -1.199355e-01 -3.174603e-02
   endloop
 endfacet
 facet normal  0.000000e+00  0.000000e+00 -1.000000e+00
   outer loop
     vertex  1.742864e-02  1.377229e-02 -3.174603e-02
     vertex  4.547941e-02 -8.175989e-02 -3.174603e-02
     vertex  3.966047e-02 -1.015774e-01 -3.174603e-02
   endloop
 endfacet
 facet normal  0.000000e+00  0.000000e+00 -1.000000e+00
   outer loop
     vertex  1.742864e-02  1.377229e-02 -3.174603e-02
     vertex  4.744272e-02 -6.119926e-02 -3.174603e-02
     vertex  4.547941e-02 -8.175989e-02 -3.174603e-02
   endloop
 endfacet
 facet normal  0.000000e+00  1.000000e+00  0.000000e+00
   outer loop
     vertex -1.322748e-02 -4.920632e-02  9.841270e-01
     vertex -1.063492e-01 -4.920632e-02  7.301587e-01
     vertex -1.063492e-01 -4.920632e-02  9.841270e-01
   endloop
 endfacet
 facet normal  0.000000e+00  1.000000e+00  0.000000e+00
   outer loop
     vertex -1.322748e-02 -4.920632e-02  9.841270e-01
     vertex -1.322748e-02 -4.920632e-02  7.301587e-01
     vertex -1.063492e-01 -4.920632e-02  7.301587e-01
   endloop
 endfacet
endsolid
