solid 
 facet normal  0.000000e+00 -1.000000e+00  0.000000e+00
   outer loop
     vertex -1.587302e-02 -1.058730e+00  2.063501e-02
     vertex -1.587302e-02 -1.058730e+00 -1.698412e-01
     vertex  1.904762e-01 -1.058730e+00 -1.698412e-01
   endloop
 endfacet
 facet normal  0.000000e+00 -1.000000e+00  0.000000e+00
   outer loop
     vertex -1.587302e-02 -1.058730e+00  2.063501e-02
     vertex  1.904762e-01 -1.058730e+00 -1.698412e-01
     vertex  1.904762e-01 -1.058730e+00  2.063501e-02
   endloop
 endfacet
 facet normal  0.000000e+00  0.000000e+00 -1.000000e+00
   outer loop
     vertex -1.587302e-02 -1.058730e+00 -1.698412e-01
     vertex -1.587302e-02  9.095238e-01 -1.698412e-01
     vertex  1.904762e-01  9.095238e-01 -1.698412e-01
   endloop
 endfacet
 facet normal  0.000000e+00  0.000000e+00 -1.000000e+00
   outer loop
     vertex -1.587302e-02 -1.058730e+00 -1.698412e-01
     vertex  1.904762e-01  9.095238e-01 -1.698412e-01
     vertex  1.904762e-01 -1.058730e+00 -1.698412e-01
   endloop
 endfacet
 facet normal  0.000000e+00  0.000000e+00  1.000000e+00
   outer loop
     vertex  9.523815e-02 -1.063492e-01  2.063501e-02
     vertex -1.587302e-02 -1.058730e+00  2.063501e-02
     vertex  1.904762e-01 -1.058730e+00  2.063501e-02
   endloop
 endfacet
 facet normal  0.000000e+00  0.000000e+00  1.000000e+00
   outer loop
     vertex  9.523815e-02 -1.063492e-01  2.063501e-02
     vertex  1.904762e-01 -1.058730e+00  2.063501e-02
     vertex  1.904762e-01 -1.063492e-01  2.063501e-02
   endloop
 endfacet
 facet normal  4.383037e-33 -3.759894e-18  1.000000e+00
   outer loop
     vertex  1.904762e-01  9.095238e-01  2.063501e-02
     vertex  9.523815e-02 -1.322748e-02  2.063501e-02
     vertex  1.904762e-01 -1.322748e-02  2.063501e-02
   endloop
 endfacet
 facet normal  0.000000e+00 -3.759894e-18  1.000000e+00
   outer loop
     vertex -1.587302e-02  9.095238e-01  2.063501e-02
     vertex  9.523815e-02 -1.322748e-02  2.063501e-02
     vertex  1.904762e-01  9.095238e-01  2.063501e-02
   endloop
 endfacet
 facet normal  0.000000e+00  0.000000e+00  1.000000e+00
   outer loop
     vertex -1.587302e-02  9.095238e-01  2.063501e-02
     vertex -1.587302e-02 -1.058730e+00  2.063501e-02
     vertex  9.523815e-02 -1.063492e-01  2.063501e-02
   endloop
 endfacet
 facet normal  3.406364e-16  3.725713e-17  1.000000e+00
   outer loop
     vertex -1.587302e-02  9.095238e-01  2.063501e-02
     vertex  9.523815e-02 -1.063492e-01  2.063501e-02
     vertex  9.523815e-02 -1.322748e-02  2.063501e-02
   endloop
 endfacet
 facet normal  0.000000e+00 -1.000000e+00 -0.000000e+00
   outer loop
     vertex -1.587302e-02 -1.058730e+00  2.063501e-02
     vertex -3.174603e-02 -1.058730e+00 -1.698412e-01
     vertex -1.587302e-02 -1.058730e+00 -1.698412e-01
   endloop
 endfacet
 facet normal -0.000000e+00 -1.000000e+00  0.000000e+00
   outer loop
     vertex -1.587302e-02 -1.058730e+00  2.063501e-02
     vertex -3.174603e-02 -1.058730e+00  2.063501e-02
     vertex -3.174603e-02 -1.058730e+00 -1.698412e-01
   endloop
 endfacet
 facet normal  1.000000e+00  0.000000e+00  0.000000e+00
   outer loop
     vertex  1.904762e-01 -1.063492e-01 -2.063496e-02
     vertex  1.904762e-01 -1.058730e+00  2.063501e-02
     vertex  1.904762e-01 -1.058730e+00 -1.698412e-01
   endloop
 endfacet
 facet normal  1.000000e+00  0.000000e+00  0.000000e+00
   outer loop
     vertex  1.904762e-01 -1.063492e-01  2.063501e-02
     vertex  1.904762e-01 -1.058730e+00  2.063501e-02
     vertex  1.904762e-01 -1.063492e-01 -2.063496e-02
   endloop
 endfacet
 facet normal  1.000000e+00  0.000000e+00  0.000000e+00
   outer loop
     vertex  1.904762e-01  9.095238e-01 -1.698412e-01
     vertex  1.904762e-01 -1.322748e-02 -2.063496e-02
     vertex  1.904762e-01 -1.063492e-01 -2.063496e-02
   endloop
 endfacet
 facet normal  1.000000e+00  0.000000e+00  0.000000e+00
   outer loop
     vertex  1.904762e-01  9.095238e-01 -1.698412e-01
     vertex  1.904762e-01 -1.063492e-01 -2.063496e-02
     vertex  1.904762e-01 -1.058730e+00 -1.698412e-01
   endloop
 endfacet
 facet normal  1.000000e+00  0.000000e+00  0.000000e+00
   outer loop
     vertex  1.904762e-01  9.095238e-01  2.063501e-02
     vertex  1.904762e-01 -1.322748e-02  2.063501e-02
     vertex  1.904762e-01 -1.322748e-02 -2.063496e-02
   endloop
 endfacet
 facet normal  1.000000e+00  0.000000e+00  0.000000e+00
   outer loop
     vertex  1.904762e-01  9.095238e-01  2.063501e-02
     vertex  1.904762e-01 -1.322748e-02 -2.063496e-02
     vertex  1.904762e-01  9.095238e-01 -1.698412e-01
   endloop
 endfacet
 facet normal  0.000000e+00  1.000000e+00  0.000000e+00
   outer loop
     vertex -1.587302e-02  9.095238e-01 -1.698412e-01
     vertex -1.587302e-02  9.095238e-01  2.063501e-02
     vertex  1.904762e-01  9.095238e-01  2.063501e-02
   endloop
 endfacet
 facet normal  0.000000e+00  1.000000e+00  0.000000e+00
   outer loop
     vertex -1.587302e-02  9.095238e-01 -1.698412e-01
     vertex  1.904762e-01  9.095238e-01  2.063501e-02
     vertex  1.904762e-01  9.095238e-01 -1.698412e-01
   endloop
 endfacet
 facet normal  0.000000e+00  0.000000e+00 -1.000000e+00
   outer loop
     vertex -1.587302e-02 -1.058730e+00 -1.698412e-01
     vertex -3.174603e-02  9.095238e-01 -1.698412e-01
     vertex -1.587302e-02  9.095238e-01 -1.698412e-01
   endloop
 endfacet
 facet normal  0.000000e+00  0.000000e+00 -1.000000e+00
   outer loop
     vertex -1.587302e-02 -1.058730e+00 -1.698412e-01
     vertex -3.174603e-02 -1.058730e+00 -1.698412e-01
     vertex -3.174603e-02  9.095238e-01 -1.698412e-01
   endloop
 endfacet
 facet normal  0.000000e+00  0.000000e+00  1.000000e+00
   outer loop
     vertex -1.587302e-02  9.095238e-01  2.063501e-02
     vertex -3.174603e-02 -1.058730e+00  2.063501e-02
     vertex -1.587302e-02 -1.058730e+00  2.063501e-02
   endloop
 endfacet
 facet normal  0.000000e+00  0.000000e+00  1.000000e+00
   outer loop
     vertex -1.587302e-02  9.095238e-01  2.063501e-02
     vertex -3.174603e-02  9.095238e-01  2.063501e-02
     vertex -3.174603e-02 -1.058730e+00  2.063501e-02
   endloop
 endfacet
 facet normal  3.460774e-16 -1.000000e+00  7.986376e-16
   outer loop
     vertex  1.904762e-01 -1.322748e-02 -2.063496e-02
     vertex  1.904762e-01 -1.322748e-02  2.063501e-02
     vertex  9.523815e-02 -1.322748e-02  2.063501e-02
   endloop
 endfacet
 facet normal  0.000000e+00 -1.000000e+00  0.000000e+00
   outer loop
     vertex  1.904762e-01 -1.322748e-02 -2.063496e-02
     vertex  9.523815e-02 -1.322748e-02  2.063501e-02
     vertex  9.523815e-02 -1.322748e-02 -2.063496e-02
   endloop
 endfacet
 facet normal  1.000000e+00  0.000000e+00  0.000000e+00
   outer loop
     vertex  9.523815e-02 -1.322748e-02  2.063501e-02
     vertex  9.523815e-02 -1.063492e-01  2.063501e-02
     vertex  9.523815e-02 -1.063492e-01 -2.063496e-02
   endloop
 endfacet
 facet normal  1.000000e+00  0.000000e+00  0.000000e+00
   outer loop
     vertex  9.523815e-02 -1.322748e-02  2.063501e-02
     vertex  9.523815e-02 -1.063492e-01 -2.063496e-02
     vertex  9.523815e-02 -1.322748e-02 -2.063496e-02
   endloop
 endfacet
 facet normal  0.000000e+00  1.000000e+00  3.362685e-16
   outer loop
     vertex  1.904762e-01 -1.063492e-01  2.063501e-02
     vertex  1.904762e-01 -1.063492e-01 -2.063496e-02
     vertex  9.523815e-02 -1.063492e-01 -2.063496e-02
   endloop
 endfacet
 facet normal  1.457168e-16  1.000000e+00  0.000000e+00
   outer loop
     vertex  1.904762e-01 -1.063492e-01  2.063501e-02
     vertex  9.523815e-02 -1.063492e-01 -2.063496e-02
     vertex  9.523815e-02 -1.063492e-01  2.063501e-02
   endloop
 endfacet
 facet normal -1.000000e+00  0.000000e+00 -0.000000e+00
   outer loop
     vertex -3.174603e-02  9.095238e-01  2.063501e-02
     vertex -3.174603e-02  9.095238e-01 -1.698412e-01
     vertex -3.174603e-02 -1.058730e+00 -1.698412e-01
   endloop
 endfacet
 facet normal -1.000000e+00 -0.000000e+00  0.000000e+00
   outer loop
     vertex -3.174603e-02  9.095238e-01  2.063501e-02
     vertex -3.174603e-02 -1.058730e+00 -1.698412e-01
     vertex -3.174603e-02 -1.058730e+00  2.063501e-02
   endloop
 endfacet
 facet normal  0.000000e+00 -0.000000e+00  1.000000e+00
   outer loop
     vertex  1.904762e-01 -1.063492e-01 -2.063496e-02
     vertex  1.904762e-01 -1.322748e-02 -2.063496e-02
     vertex  9.523815e-02 -1.322748e-02 -2.063496e-02
   endloop
 endfacet
 facet normal  0.000000e+00  0.000000e+00  1.000000e+00
   outer loop
     vertex  1.904762e-01 -1.063492e-01 -2.063496e-02
     vertex  9.523815e-02 -1.322748e-02 -2.063496e-02
     vertex  9.523815e-02 -1.063492e-01 -2.063496e-02
   endloop
 endfacet
 facet normal  0.000000e+00  1.000000e+00 -0.000000e+00
   outer loop
     vertex -1.587302e-02  9.095238e-01 -1.698412e-01
     vertex -3.174603e-02  9.095238e-01  2.063501e-02
     vertex -1.587302e-02  9.095238e-01  2.063501e-02
   endloop
 endfacet
 facet normal  0.000000e+00  1.000000e+00  0.000000e+00
   outer loop
     vertex -1.587302e-02  9.095238e-01 -1.698412e-01
     vertex -3.174603e-02  9.095238e-01 -1.698412e-01
     vertex -3.174603e-02  9.095238e-01  2.063501e-02
   endloop
 endfacet
endsolid
