solid 
 facet normal  0.000000e+00 -1.000000e+00  0.000000e+00
   outer loop
     vertex  5.582011e-01 -1.049559e+00 -1.587302e-02
     vertex -7.130511e-01 -1.049559e+00  6.349207e-01
     vertex -7.130511e-01 -1.049559e+00 -1.587302e-02
   endloop
 endfacet
 facet normal  0.000000e+00 -1.000000e+00  0.000000e+00
   outer loop
     vertex  5.582011e-01 -1.049559e+00 -1.587302e-02
     vertex  5.582011e-01 -1.049559e+00  6.349207e-01
     vertex -7.130511e-01 -1.049559e+00  6.349207e-01
   endloop
 endfacet
 facet normal -1.000000e+00  0.000000e+00  0.000000e+00
   outer loop
     vertex -7.130511e-01 -1.049559e+00 -1.587302e-02
     vertex -7.130511e-01  8.947091e-01  6.349207e-01
     vertex -7.130511e-01  8.947091e-01 -1.587302e-02
   endloop
 endfacet
 facet normal -1.000000e+00  0.000000e+00  0.000000e+00
   outer loop
     vertex -7.130511e-01 -1.049559e+00 -1.587302e-02
     vertex -7.130511e-01 -1.049559e+00  6.349207e-01
     vertex -7.130511e-01  8.947091e-01  6.349207e-01
   endloop
 endfacet
 facet normal  1.000000e+00  0.000000e+00  0.000000e+00
   outer loop
     vertex  5.582011e-01  8.947091e-01 -1.587302e-02
     vertex  5.582011e-01 -1.049559e+00  6.349207e-01
     vertex  5.582011e-01 -1.049559e+00 -1.587302e-02
   endloop
 endfacet
 facet normal  1.000000e+00  0.000000e+00 -0.000000e+00
   outer loop
     vertex  5.582011e-01  8.947091e-01 -1.587302e-02
     vertex  5.582011e-01  8.947091e-01  6.349207e-01
     vertex  5.582011e-01 -1.049559e+00  6.349207e-01
   endloop
 endfacet
 facet normal -0.000000e+00 -1.000000e+00  0.000000e+00
   outer loop
     vertex  5.582011e-01 -1.049559e+00 -1.587302e-02
     vertex -7.130511e-01 -1.049559e+00 -1.587302e-02
     vertex -7.130511e-01 -1.049559e+00 -3.174603e-02
   endloop
 endfacet
 facet normal  0.000000e+00 -1.000000e+00 -0.000000e+00
   outer loop
     vertex  5.582011e-01 -1.049559e+00 -1.587302e-02
     vertex -7.130511e-01 -1.049559e+00 -3.174603e-02
     vertex  5.582011e-01 -1.049559e+00 -3.174603e-02
   endloop
 endfacet
 facet normal  0.000000e+00  0.000000e+00  1.000000e+00
   outer loop
     vertex  5.582011e-01 -1.049559e+00  6.349207e-01
     vertex  4.220459e-01 -1.003704e+00  6.349207e-01
     vertex -5.726631e-01 -1.003704e+00  6.349207e-01
   endloop
 endfacet
 facet normal  0.000000e+00  0.000000e+00  1.000000e+00
   outer loop
     vertex  5.582011e-01 -1.049559e+00  6.349207e-01
     vertex -5.726631e-01 -1.003704e+00  6.349207e-01
     vertex -7.130511e-01 -1.049559e+00  6.349207e-01
   endloop
 endfacet
 facet normal  0.000000e+00  0.000000e+00  1.000000e+00
   outer loop
     vertex -7.130511e-01  8.947091e-01  6.349207e-01
     vertex -7.130511e-01 -1.049559e+00  6.349207e-01
     vertex -5.726631e-01 -1.003704e+00  6.349207e-01
   endloop
 endfacet
 facet normal  0.000000e+00  0.000000e+00  1.000000e+00
   outer loop
     vertex -5.726631e-01  8.530865e-01  6.349207e-01
     vertex -7.130511e-01  8.947091e-01  6.349207e-01
     vertex -5.726631e-01 -1.003704e+00  6.349207e-01
   endloop
 endfacet
 facet normal  0.000000e+00  0.000000e+00  1.000000e+00
   outer loop
     vertex  5.582011e-01  8.947091e-01  6.349207e-01
     vertex  4.220459e-01  8.530865e-01  6.349207e-01
     vertex  4.220459e-01 -1.003704e+00  6.349207e-01
   endloop
 endfacet
 facet normal  0.000000e+00  0.000000e+00  1.000000e+00
   outer loop
     vertex  5.582011e-01  8.947091e-01  6.349207e-01
     vertex  4.220459e-01 -1.003704e+00  6.349207e-01
     vertex  5.582011e-01 -1.049559e+00  6.349207e-01
   endloop
 endfacet
 facet normal  0.000000e+00  0.000000e+00  1.000000e+00
   outer loop
     vertex  5.582011e-01  8.947091e-01  6.349207e-01
     vertex -7.130511e-01  8.947091e-01  6.349207e-01
     vertex -5.726631e-01  8.530865e-01  6.349207e-01
   endloop
 endfacet
 facet normal  0.000000e+00  0.000000e+00  1.000000e+00
   outer loop
     vertex  5.582011e-01  8.947091e-01  6.349207e-01
     vertex -5.726631e-01  8.530865e-01  6.349207e-01
     vertex  4.220459e-01  8.530865e-01  6.349207e-01
   endloop
 endfacet
 facet normal  0.000000e+00  1.000000e+00  0.000000e+00
   outer loop
     vertex -7.130511e-01  8.947091e-01 -1.587302e-02
     vertex  5.582011e-01  8.947091e-01  6.349207e-01
     vertex  5.582011e-01  8.947091e-01 -1.587302e-02
   endloop
 endfacet
 facet normal  0.000000e+00  1.000000e+00  0.000000e+00
   outer loop
     vertex -7.130511e-01  8.947091e-01 -1.587302e-02
     vertex -7.130511e-01  8.947091e-01  6.349207e-01
     vertex  5.582011e-01  8.947091e-01  6.349207e-01
   endloop
 endfacet
 facet normal -1.000000e+00  0.000000e+00  0.000000e+00
   outer loop
     vertex -7.130511e-01 -1.049559e+00 -1.587302e-02
     vertex -7.130511e-01  8.947091e-01 -1.587302e-02
     vertex -7.130511e-01  8.947091e-01 -3.174603e-02
   endloop
 endfacet
 facet normal -1.000000e+00  0.000000e+00  0.000000e+00
   outer loop
     vertex -7.130511e-01 -1.049559e+00 -1.587302e-02
     vertex -7.130511e-01  8.947091e-01 -3.174603e-02
     vertex -7.130511e-01 -1.049559e+00 -3.174603e-02
   endloop
 endfacet
 facet normal  1.000000e+00  0.000000e+00  0.000000e+00
   outer loop
     vertex  5.582011e-01  8.947091e-01 -1.587302e-02
     vertex  5.582011e-01 -1.049559e+00 -1.587302e-02
     vertex  5.582011e-01 -1.049559e+00 -3.174603e-02
   endloop
 endfacet
 facet normal  1.000000e+00  0.000000e+00  0.000000e+00
   outer loop
     vertex  5.582011e-01  8.947091e-01 -1.587302e-02
     vertex  5.582011e-01 -1.049559e+00 -3.174603e-02
     vertex  5.582011e-01  8.947091e-01 -3.174603e-02
   endloop
 endfacet
 facet normal  0.000000e+00 -0.000000e+00 -1.000000e+00
   outer loop
     vertex  5.582011e-01  8.947091e-01 -3.174603e-02
     vertex  5.582011e-01 -1.049559e+00 -3.174603e-02
     vertex -7.130511e-01 -1.049559e+00 -3.174603e-02
   endloop
 endfacet
 facet normal -0.000000e+00  0.000000e+00 -1.000000e+00
   outer loop
     vertex  5.582011e-01  8.947091e-01 -3.174603e-02
     vertex -7.130511e-01 -1.049559e+00 -3.174603e-02
     vertex -7.130511e-01  8.947091e-01 -3.174603e-02
   endloop
 endfacet
 facet normal  0.000000e+00  1.000000e+00  0.000000e+00
   outer loop
     vertex  4.220459e-01 -1.003704e+00  6.349207e-01
     vertex -5.726631e-01 -1.003704e+00  0.000000e+00
     vertex -5.726631e-01 -1.003704e+00  6.349207e-01
   endloop
 endfacet
 facet normal  0.000000e+00  1.000000e+00  0.000000e+00
   outer loop
     vertex  4.220459e-01 -1.003704e+00  6.349207e-01
     vertex  4.220459e-01 -1.003704e+00  0.000000e+00
     vertex -5.726631e-01 -1.003704e+00  0.000000e+00
   endloop
 endfacet
 facet normal -1.000000e+00 -0.000000e+00  0.000000e+00
   outer loop
     vertex  4.220459e-01  8.530865e-01  6.349207e-01
     vertex  4.220459e-01 -1.003704e+00  0.000000e+00
     vertex  4.220459e-01 -1.003704e+00  6.349207e-01
   endloop
 endfacet
 facet normal -1.000000e+00  0.000000e+00 -0.000000e+00
   outer loop
     vertex  4.220459e-01  8.530865e-01  6.349207e-01
     vertex  4.220459e-01  8.530865e-01  0.000000e+00
     vertex  4.220459e-01 -1.003704e+00  0.000000e+00
   endloop
 endfacet
 facet normal  0.000000e+00 -1.000000e+00  0.000000e+00
   outer loop
     vertex -5.726631e-01  8.530865e-01  6.349207e-01
     vertex  4.220459e-01  8.530865e-01  0.000000e+00
     vertex  4.220459e-01  8.530865e-01  6.349207e-01
   endloop
 endfacet
 facet normal  0.000000e+00 -1.000000e+00  0.000000e+00
   outer loop
     vertex -5.726631e-01  8.530865e-01  6.349207e-01
     vertex -5.726631e-01  8.530865e-01  0.000000e+00
     vertex  4.220459e-01  8.530865e-01  0.000000e+00
   endloop
 endfacet
 facet normal  1.000000e+00 -0.000000e+00  0.000000e+00
   outer loop
     vertex -5.726631e-01 -1.003704e+00  6.349207e-01
     vertex -5.726631e-01  8.530865e-01  0.000000e+00
     vertex -5.726631e-01  8.530865e-01  6.349207e-01
   endloop
 endfacet
 facet normal  1.000000e+00  0.000000e+00  0.000000e+00
   outer loop
     vertex -5.726631e-01 -1.003704e+00  6.349207e-01
     vertex -5.726631e-01 -1.003704e+00  0.000000e+00
     vertex -5.726631e-01  8.530865e-01  0.000000e+00
   endloop
 endfacet
 facet normal -0.000000e+00  1.000000e+00  0.000000e+00
   outer loop
     vertex -7.130511e-01  8.947091e-01 -1.587302e-02
     vertex  5.582011e-01  8.947091e-01 -1.587302e-02
     vertex  5.582011e-01  8.947091e-01 -3.174603e-02
   endloop
 endfacet
 facet normal  0.000000e+00  1.000000e+00  0.000000e+00
   outer loop
     vertex -7.130511e-01  8.947091e-01 -1.587302e-02
     vertex  5.582011e-01  8.947091e-01 -3.174603e-02
     vertex -7.130511e-01  8.947091e-01 -3.174603e-02
   endloop
 endfacet
 facet normal  0.000000e+00  0.000000e+00  1.000000e+00
   outer loop
     vertex  4.220459e-01  8.530865e-01  0.000000e+00
     vertex -5.726631e-01 -1.003704e+00  0.000000e+00
     vertex  4.220459e-01 -1.003704e+00  0.000000e+00
   endloop
 endfacet
 facet normal  0.000000e+00  0.000000e+00  1.000000e+00
   outer loop
     vertex  4.220459e-01  8.530865e-01  0.000000e+00
     vertex -5.726631e-01  8.530865e-01  0.000000e+00
     vertex -5.726631e-01 -1.003704e+00  0.000000e+00
   endloop
 endfacet
endsolid
