solid 
 facet normal -0.000000e+00  0.000000e+00 -1.000000e+00
   outer loop
     vertex  8.730157e-02 -1.587302e-02 -5.238093e-02
     vertex -3.968257e-02 -1.015873e+00 -5.238093e-02
     vertex -3.968257e-02 -1.587302e-02 -5.238093e-02
   endloop
 endfacet
 facet normal  0.000000e+00 -0.000000e+00 -1.000000e+00
   outer loop
     vertex  8.730157e-02 -1.587302e-02 -5.238093e-02
     vertex  8.730157e-02 -1.015873e+00 -5.238093e-02
     vertex -3.968257e-02 -1.015873e+00 -5.238093e-02
   endloop
 endfacet
 facet normal -1.000000e+00  0.000000e+00  0.000000e+00
   outer loop
     vertex -3.968257e-02 -1.587302e-02 -5.238093e-02
     vertex -3.968257e-02 -1.015873e+00  3.285714e-01
     vertex -3.968257e-02 -1.587302e-02  3.285714e-01
   endloop
 endfacet
 facet normal -1.000000e+00  0.000000e+00  0.000000e+00
   outer loop
     vertex -3.968257e-02 -1.587302e-02 -5.238093e-02
     vertex -3.968257e-02 -1.015873e+00 -5.238093e-02
     vertex -3.968257e-02 -1.015873e+00  3.285714e-01
   endloop
 endfacet
 facet normal  1.000000e+00  0.000000e+00  0.000000e+00
   outer loop
     vertex  8.730157e-02 -1.587302e-02  3.285714e-01
     vertex  8.730157e-02 -1.015873e+00 -5.238093e-02
     vertex  8.730157e-02 -1.587302e-02 -5.238093e-02
   endloop
 endfacet
 facet normal  1.000000e+00  0.000000e+00  0.000000e+00
   outer loop
     vertex  8.730157e-02 -1.587302e-02  3.285714e-01
     vertex  8.730157e-02 -1.015873e+00  3.285714e-01
     vertex  8.730157e-02 -1.015873e+00 -5.238093e-02
   endloop
 endfacet
 facet normal  0.000000e+00  0.000000e+00 -1.000000e+00
   outer loop
     vertex  8.730157e-02 -1.587302e-02 -5.238093e-02
     vertex -3.968257e-02 -1.587302e-02 -5.238093e-02
     vertex -3.968257e-02  0.000000e+00 -5.238093e-02
   endloop
 endfacet
 facet normal  0.000000e+00  0.000000e+00 -1.000000e+00
   outer loop
     vertex  8.730157e-02 -1.587302e-02 -5.238093e-02
     vertex -3.968257e-02  0.000000e+00 -5.238093e-02
     vertex  8.730157e-02  0.000000e+00 -5.238093e-02
   endloop
 endfacet
 facet normal  0.000000e+00 -1.000000e+00 -0.000000e+00
   outer loop
     vertex  8.730157e-02 -1.015873e+00  3.285714e-01
     vertex -3.968257e-02 -1.015873e+00 -5.238093e-02
     vertex  8.730157e-02 -1.015873e+00 -5.238093e-02
   endloop
 endfacet
 facet normal -0.000000e+00 -1.000000e+00  0.000000e+00
   outer loop
     vertex  8.730157e-02 -1.015873e+00  3.285714e-01
     vertex -3.968257e-02 -1.015873e+00  3.285714e-01
     vertex -3.968257e-02 -1.015873e+00 -5.238093e-02
   endloop
 endfacet
 facet normal -0.000000e+00  0.000000e+00  1.000000e+00
   outer loop
     vertex -3.968257e-02 -1.587302e-02  3.285714e-01
     vertex  8.730157e-02 -1.015873e+00  3.285714e-01
     vertex  8.730157e-02 -1.587302e-02  3.285714e-01
   endloop
 endfacet
 facet normal  0.000000e+00  0.000000e+00  1.000000e+00
   outer loop
     vertex -3.968257e-02 -1.587302e-02  3.285714e-01
     vertex -3.968257e-02 -1.015873e+00  3.285714e-01
     vertex  8.730157e-02 -1.015873e+00  3.285714e-01
   endloop
 endfacet
 facet normal -1.000000e+00  0.000000e+00  0.000000e+00
   outer loop
     vertex -3.968257e-02 -1.587302e-02 -5.238093e-02
     vertex -3.968257e-02 -1.587302e-02  3.285714e-01
     vertex -3.968257e-02  0.000000e+00  3.285714e-01
   endloop
 endfacet
 facet normal -1.000000e+00  0.000000e+00  0.000000e+00
   outer loop
     vertex -3.968257e-02 -1.587302e-02 -5.238093e-02
     vertex -3.968257e-02  0.000000e+00  3.285714e-01
     vertex -3.968257e-02  0.000000e+00 -5.238093e-02
   endloop
 endfacet
 facet normal  1.000000e+00  0.000000e+00  0.000000e+00
   outer loop
     vertex  8.730157e-02 -1.587302e-02  3.285714e-01
     vertex  8.730157e-02 -1.587302e-02 -5.238093e-02
     vertex  8.730157e-02  0.000000e+00 -5.238093e-02
   endloop
 endfacet
 facet normal  1.000000e+00 -0.000000e+00  0.000000e+00
   outer loop
     vertex  8.730157e-02 -1.587302e-02  3.285714e-01
     vertex  8.730157e-02  0.000000e+00 -5.238093e-02
     vertex  8.730157e-02  0.000000e+00  3.285714e-01
   endloop
 endfacet
 facet normal  0.000000e+00  1.000000e+00  0.000000e+00
   outer loop
     vertex  8.730157e-02  6.591949e-17  3.285714e-01
     vertex  8.730157e-02  6.591949e-17 -5.238093e-02
     vertex -3.968257e-02  6.591949e-17 -5.238093e-02
   endloop
 endfacet
 facet normal  0.000000e+00  1.000000e+00  0.000000e+00
   outer loop
     vertex  8.730157e-02  6.591949e-17  3.285714e-01
     vertex -3.968257e-02  6.591949e-17 -5.238093e-02
     vertex -3.968257e-02  6.591949e-17  3.285714e-01
   endloop
 endfacet
 facet normal  0.000000e+00  0.000000e+00  1.000000e+00
   outer loop
     vertex -3.968257e-02 -1.587302e-02  3.285714e-01
     vertex  8.730157e-02 -1.587302e-02  3.285714e-01
     vertex  8.730157e-02  0.000000e+00  3.285714e-01
   endloop
 endfacet
 facet normal  0.000000e+00  0.000000e+00  1.000000e+00
   outer loop
     vertex -3.968257e-02 -1.587302e-02  3.285714e-01
     vertex  8.730157e-02  0.000000e+00  3.285714e-01
     vertex -3.968257e-02  0.000000e+00  3.285714e-01
   endloop
 endfacet
endsolid
