solid 
 facet normal -1.000000e+00  0.000000e+00  0.000000e+00
   outer loop
     vertex -1.080952e+00  1.522047e-01 -1.587302e-02
     vertex -1.080952e+00 -3.021164e-01 -1.587302e-02
     vertex -1.080952e+00 -3.021164e-01  9.523815e-02
   endloop
 endfacet
 facet normal -1.000000e+00  0.000000e+00  0.000000e+00
   outer loop
     vertex -1.080952e+00  1.522047e-01 -1.587302e-02
     vertex -1.080952e+00 -3.021164e-01  9.523815e-02
     vertex -1.080952e+00  1.522047e-01  9.523815e-02
   endloop
 endfacet
 facet normal  0.000000e+00 -1.000000e+00  0.000000e+00
   outer loop
     vertex -1.080952e+00 -3.021164e-01 -1.587302e-02
     vertex -9.186949e-01 -3.021164e-01 -1.587302e-02
     vertex -9.186949e-01 -3.021164e-01  9.523815e-02
   endloop
 endfacet
 facet normal  0.000000e+00 -1.000000e+00  0.000000e+00
   outer loop
     vertex -1.080952e+00 -3.021164e-01 -1.587302e-02
     vertex -9.186949e-01 -3.021164e-01  9.523815e-02
     vertex -1.080952e+00 -3.021164e-01  9.523815e-02
   endloop
 endfacet
 facet normal  1.989558e-16  1.000000e+00  0.000000e+00
   outer loop
     vertex -8.019400e-01  1.522047e-01  0.000000e+00
     vertex -1.080952e+00  1.522047e-01 -1.587302e-02
     vertex -1.080952e+00  1.522047e-01  9.523815e-02
   endloop
 endfacet
 facet normal  9.947791e-17  1.000000e+00  1.748601e-15
   outer loop
     vertex -8.019400e-01  1.522047e-01 -1.587302e-02
     vertex -1.080952e+00  1.522047e-01 -1.587302e-02
     vertex -8.019400e-01  1.522047e-01  0.000000e+00
   endloop
 endfacet
 facet normal  0.000000e+00  1.000000e+00 -5.828668e-16
   outer loop
     vertex  6.499119e-01  1.522047e-01  0.000000e+00
     vertex -8.019400e-01  1.522047e-01  0.000000e+00
     vertex -1.080952e+00  1.522047e-01  9.523815e-02
   endloop
 endfacet
 facet normal  0.000000e+00  1.000000e+00 -5.828668e-16
   outer loop
     vertex  9.310406e-01  1.522047e-01  9.523815e-02
     vertex  6.499119e-01  1.522047e-01  0.000000e+00
     vertex -1.080952e+00  1.522047e-01  9.523815e-02
   endloop
 endfacet
 facet normal -9.872905e-17  1.000000e+00  1.748601e-15
   outer loop
     vertex  9.310406e-01  1.522047e-01 -1.587302e-02
     vertex  6.499119e-01  1.522047e-01 -1.587302e-02
     vertex  6.499119e-01  1.522047e-01  0.000000e+00
   endloop
 endfacet
 facet normal -1.974581e-16  1.000000e+00  0.000000e+00
   outer loop
     vertex  9.310406e-01  1.522047e-01 -1.587302e-02
     vertex  6.499119e-01  1.522047e-01  0.000000e+00
     vertex  9.310406e-01  1.522047e-01  9.523815e-02
   endloop
 endfacet
 facet normal -1.000000e+00 -0.000000e+00  0.000000e+00
   outer loop
     vertex -1.080952e+00  1.522047e-01 -1.587302e-02
     vertex -1.080952e+00 -3.021164e-01 -3.174603e-02
     vertex -1.080952e+00 -3.021164e-01 -1.587302e-02
   endloop
 endfacet
 facet normal -1.000000e+00  0.000000e+00 -0.000000e+00
   outer loop
     vertex -1.080952e+00  1.522047e-01 -1.587302e-02
     vertex -1.080952e+00  1.522047e-01 -3.174603e-02
     vertex -1.080952e+00 -3.021164e-01 -3.174603e-02
   endloop
 endfacet
 facet normal  0.000000e+00  0.000000e+00  1.000000e+00
   outer loop
     vertex -1.080952e+00  1.522047e-01  9.523815e-02
     vertex -1.080952e+00 -3.021164e-01  9.523815e-02
     vertex -9.186949e-01 -3.021164e-01  9.523815e-02
   endloop
 endfacet
 facet normal  0.000000e+00  0.000000e+00  1.000000e+00
   outer loop
     vertex  7.363316e-01 -3.021164e-01  9.523815e-02
     vertex -1.080952e+00  1.522047e-01  9.523815e-02
     vertex -9.186949e-01 -3.021164e-01  9.523815e-02
   endloop
 endfacet
 facet normal  0.000000e+00  0.000000e+00  1.000000e+00
   outer loop
     vertex  9.310406e-01  1.522047e-01  9.523815e-02
     vertex  7.363316e-01 -3.021164e-01  9.523815e-02
     vertex  9.310406e-01 -3.021164e-01  9.523815e-02
   endloop
 endfacet
 facet normal  0.000000e+00  0.000000e+00  1.000000e+00
   outer loop
     vertex  9.310406e-01  1.522047e-01  9.523815e-02
     vertex -1.080952e+00  1.522047e-01  9.523815e-02
     vertex  7.363316e-01 -3.021164e-01  9.523815e-02
   endloop
 endfacet
 facet normal  0.000000e+00 -1.000000e+00  0.000000e+00
   outer loop
     vertex  6.499119e-01 -3.021164e-01  0.000000e+00
     vertex  7.363316e-01 -3.021164e-01 -1.587302e-02
     vertex  7.363316e-01 -3.021164e-01  9.523815e-02
   endloop
 endfacet
 facet normal  0.000000e+00 -1.000000e+00  0.000000e+00
   outer loop
     vertex  6.499119e-01 -3.021164e-01 -1.587302e-02
     vertex  7.363316e-01 -3.021164e-01 -1.587302e-02
     vertex  6.499119e-01 -3.021164e-01  0.000000e+00
   endloop
 endfacet
 facet normal  3.823472e-17 -1.000000e+00 -3.469445e-17
   outer loop
     vertex -8.019400e-01 -3.021164e-01  0.000000e+00
     vertex  6.499119e-01 -3.021164e-01  0.000000e+00
     vertex  7.363316e-01 -3.021164e-01  9.523815e-02
   endloop
 endfacet
 facet normal  0.000000e+00 -1.000000e+00  5.828668e-16
   outer loop
     vertex -9.186949e-01 -3.021164e-01  9.523815e-02
     vertex -8.019400e-01 -3.021164e-01  0.000000e+00
     vertex  7.363316e-01 -3.021164e-01  9.523815e-02
   endloop
 endfacet
 facet normal -4.754503e-16 -1.000000e+00  0.000000e+00
   outer loop
     vertex -9.186949e-01 -3.021164e-01 -1.587302e-02
     vertex -8.019400e-01 -3.021164e-01 -1.587302e-02
     vertex -8.019400e-01 -3.021164e-01  0.000000e+00
   endloop
 endfacet
 facet normal -4.754503e-16 -1.000000e+00  0.000000e+00
   outer loop
     vertex -9.186949e-01 -3.021164e-01 -1.587302e-02
     vertex -8.019400e-01 -3.021164e-01  0.000000e+00
     vertex -9.186949e-01 -3.021164e-01  9.523815e-02
   endloop
 endfacet
 facet normal  0.000000e+00 -1.000000e+00  0.000000e+00
   outer loop
     vertex -1.080952e+00 -3.021164e-01 -1.587302e-02
     vertex -9.186949e-01 -3.021164e-01 -3.174603e-02
     vertex -9.186949e-01 -3.021164e-01 -1.587302e-02
   endloop
 endfacet
 facet normal  0.000000e+00 -1.000000e+00  0.000000e+00
   outer loop
     vertex -1.080952e+00 -3.021164e-01 -1.587302e-02
     vertex -1.080952e+00 -3.021164e-01 -3.174603e-02
     vertex -9.186949e-01 -3.021164e-01 -3.174603e-02
   endloop
 endfacet
 facet normal  9.947791e-17  1.000000e+00  0.000000e+00
   outer loop
     vertex -8.019400e-01  1.522047e-01 -1.587302e-02
     vertex -1.080952e+00  1.522047e-01 -3.174603e-02
     vertex -1.080952e+00  1.522047e-01 -1.587302e-02
   endloop
 endfacet
 facet normal  0.000000e+00  1.000000e+00  1.748601e-15
   outer loop
     vertex -8.019400e-01  1.522047e-01 -1.587302e-02
     vertex -8.019400e-01  1.522047e-01 -3.174603e-02
     vertex -1.080952e+00  1.522047e-01 -3.174603e-02
   endloop
 endfacet
 facet normal -1.000000e+00  0.000000e+00  0.000000e+00
   outer loop
     vertex -8.019400e-01  1.522047e-01 -1.587302e-02
     vertex -8.019400e-01  8.393298e-01  0.000000e+00
     vertex -8.019400e-01  8.393298e-01 -1.587302e-02
   endloop
 endfacet
 facet normal -1.000000e+00  0.000000e+00  0.000000e+00
   outer loop
     vertex -8.019400e-01  1.522047e-01 -1.587302e-02
     vertex -8.019400e-01  1.522047e-01  0.000000e+00
     vertex -8.019400e-01  8.393298e-01  0.000000e+00
   endloop
 endfacet
 facet normal  0.000000e+00  0.000000e+00  1.000000e+00
   outer loop
     vertex  6.499119e-01  1.522047e-01  0.000000e+00
     vertex -8.019400e-01  8.393298e-01  0.000000e+00
     vertex -8.019400e-01  1.522047e-01  0.000000e+00
   endloop
 endfacet
 facet normal  0.000000e+00 -0.000000e+00  1.000000e+00
   outer loop
     vertex  6.499119e-01  1.522047e-01  0.000000e+00
     vertex  6.499119e-01  8.393298e-01  0.000000e+00
     vertex -8.019400e-01  8.393298e-01  0.000000e+00
   endloop
 endfacet
 facet normal  1.000000e+00  1.615751e-16  6.994405e-15
   outer loop
     vertex  6.499119e-01  8.393298e-01 -1.587302e-02
     vertex  6.499119e-01  1.522047e-01  0.000000e+00
     vertex  6.499119e-01  1.522047e-01 -1.587302e-02
   endloop
 endfacet
 facet normal  1.000000e+00  0.000000e+00 -0.000000e+00
   outer loop
     vertex  6.499119e-01  8.393298e-01 -1.587302e-02
     vertex  6.499119e-01  8.393298e-01  0.000000e+00
     vertex  6.499119e-01  1.522047e-01  0.000000e+00
   endloop
 endfacet
 facet normal -9.872905e-17  1.000000e+00  1.748601e-15
   outer loop
     vertex  9.310406e-01  1.522047e-01 -1.587302e-02
     vertex  6.499119e-01  1.522047e-01 -3.174603e-02
     vertex  6.499119e-01  1.522047e-01 -1.587302e-02
   endloop
 endfacet
 facet normal  0.000000e+00  1.000000e+00  0.000000e+00
   outer loop
     vertex  9.310406e-01  1.522047e-01 -1.587302e-02
     vertex  9.310406e-01  1.522047e-01 -3.174603e-02
     vertex  6.499119e-01  1.522047e-01 -3.174603e-02
   endloop
 endfacet
 facet normal  1.000000e+00  0.000000e+00  0.000000e+00
   outer loop
     vertex  9.310406e-01 -3.021164e-01 -1.587302e-02
     vertex  9.310406e-01  1.522047e-01 -1.587302e-02
     vertex  9.310406e-01  1.522047e-01  9.523815e-02
   endloop
 endfacet
 facet normal  1.000000e+00  0.000000e+00  0.000000e+00
   outer loop
     vertex  9.310406e-01 -3.021164e-01 -1.587302e-02
     vertex  9.310406e-01  1.522047e-01  9.523815e-02
     vertex  9.310406e-01 -3.021164e-01  9.523815e-02
   endloop
 endfacet
 facet normal  0.000000e+00  0.000000e+00 -1.000000e+00
   outer loop
     vertex -1.080952e+00  1.522047e-01 -3.174603e-02
     vertex -9.186949e-01 -3.021164e-01 -3.174603e-02
     vertex -1.080952e+00 -3.021164e-01 -3.174603e-02
   endloop
 endfacet
 facet normal  0.000000e+00 -0.000000e+00 -1.000000e+00
   outer loop
     vertex -8.019400e-01  1.522047e-01 -3.174603e-02
     vertex -8.019400e-01 -3.021164e-01 -3.174603e-02
     vertex -9.186949e-01 -3.021164e-01 -3.174603e-02
   endloop
 endfacet
 facet normal -0.000000e+00  0.000000e+00 -1.000000e+00
   outer loop
     vertex -8.019400e-01  1.522047e-01 -3.174603e-02
     vertex -9.186949e-01 -3.021164e-01 -3.174603e-02
     vertex -1.080952e+00  1.522047e-01 -3.174603e-02
   endloop
 endfacet
 facet normal  0.000000e+00 -1.000000e+00  0.000000e+00
   outer loop
     vertex  7.363316e-01 -3.021164e-01 -1.587302e-02
     vertex  9.310406e-01 -3.021164e-01 -1.587302e-02
     vertex  9.310406e-01 -3.021164e-01  9.523815e-02
   endloop
 endfacet
 facet normal  0.000000e+00 -1.000000e+00  0.000000e+00
   outer loop
     vertex  7.363316e-01 -3.021164e-01 -1.587302e-02
     vertex  9.310406e-01 -3.021164e-01  9.523815e-02
     vertex  7.363316e-01 -3.021164e-01  9.523815e-02
   endloop
 endfacet
 facet normal  0.000000e+00 -1.000000e+00  0.000000e+00
   outer loop
     vertex  6.499119e-01 -3.021164e-01 -1.587302e-02
     vertex  7.363316e-01 -3.021164e-01 -3.174603e-02
     vertex  7.363316e-01 -3.021164e-01 -1.587302e-02
   endloop
 endfacet
 facet normal  0.000000e+00 -1.000000e+00  0.000000e+00
   outer loop
     vertex  6.499119e-01 -3.021164e-01 -1.587302e-02
     vertex  6.499119e-01 -3.021164e-01 -3.174603e-02
     vertex  7.363316e-01 -3.021164e-01 -3.174603e-02
   endloop
 endfacet
 facet normal  1.000000e+00  0.000000e+00  0.000000e+00
   outer loop
     vertex  6.499119e-01 -3.021164e-01 -1.587302e-02
     vertex  6.499119e-01 -7.507937e-01  0.000000e+00
     vertex  6.499119e-01 -7.507937e-01 -1.587302e-02
   endloop
 endfacet
 facet normal  1.000000e+00  0.000000e+00 -0.000000e+00
   outer loop
     vertex  6.499119e-01 -3.021164e-01 -1.587302e-02
     vertex  6.499119e-01 -3.021164e-01  0.000000e+00
     vertex  6.499119e-01 -7.507937e-01  0.000000e+00
   endloop
 endfacet
 facet normal  0.000000e+00  0.000000e+00  1.000000e+00
   outer loop
     vertex  6.499119e-01 -7.507937e-01  0.000000e+00
     vertex -8.019400e-01 -3.021164e-01  0.000000e+00
     vertex -8.019400e-01 -7.507937e-01  0.000000e+00
   endloop
 endfacet
 facet normal  0.000000e+00 -0.000000e+00  1.000000e+00
   outer loop
     vertex  6.499119e-01 -7.507937e-01  0.000000e+00
     vertex  6.499119e-01 -3.021164e-01  0.000000e+00
     vertex -8.019400e-01 -3.021164e-01  0.000000e+00
   endloop
 endfacet
 facet normal -1.000000e+00  0.000000e+00  0.000000e+00
   outer loop
     vertex -8.019400e-01 -7.507937e-01 -1.587302e-02
     vertex -8.019400e-01 -3.021164e-01  0.000000e+00
     vertex -8.019400e-01 -3.021164e-01 -1.587302e-02
   endloop
 endfacet
 facet normal -1.000000e+00  0.000000e+00  0.000000e+00
   outer loop
     vertex -8.019400e-01 -7.507937e-01 -1.587302e-02
     vertex -8.019400e-01 -7.507937e-01  0.000000e+00
     vertex -8.019400e-01 -3.021164e-01  0.000000e+00
   endloop
 endfacet
 facet normal -4.754503e-16 -1.000000e+00 -3.497203e-15
   outer loop
     vertex -9.186949e-01 -3.021164e-01 -1.587302e-02
     vertex -8.019400e-01 -3.021164e-01 -3.174603e-02
     vertex -8.019400e-01 -3.021164e-01 -1.587302e-02
   endloop
 endfacet
 facet normal  0.000000e+00 -1.000000e+00  0.000000e+00
   outer loop
     vertex -9.186949e-01 -3.021164e-01 -1.587302e-02
     vertex -9.186949e-01 -3.021164e-01 -3.174603e-02
     vertex -8.019400e-01 -3.021164e-01 -3.174603e-02
   endloop
 endfacet
 facet normal -1.000000e+00  0.000000e+00  0.000000e+00
   outer loop
     vertex -8.019400e-01  1.522047e-01 -3.174603e-02
     vertex -8.019400e-01  8.393298e-01 -1.587302e-02
     vertex -8.019400e-01  8.393298e-01 -6.349212e-02
   endloop
 endfacet
 facet normal -1.000000e+00  0.000000e+00  0.000000e+00
   outer loop
     vertex -8.019400e-01  1.522047e-01 -1.587302e-02
     vertex -8.019400e-01  8.393298e-01 -1.587302e-02
     vertex -8.019400e-01  1.522047e-01 -3.174603e-02
   endloop
 endfacet
 facet normal -1.000000e+00  0.000000e+00  0.000000e+00
   outer loop
     vertex -8.019400e-01 -7.507937e-01 -6.349212e-02
     vertex -8.019400e-01 -3.021164e-01 -3.174603e-02
     vertex -8.019400e-01  1.522047e-01 -3.174603e-02
   endloop
 endfacet
 facet normal -1.000000e+00  0.000000e+00  0.000000e+00
   outer loop
     vertex -8.019400e-01 -7.507937e-01 -6.349212e-02
     vertex -8.019400e-01  1.522047e-01 -3.174603e-02
     vertex -8.019400e-01  8.393298e-01 -6.349212e-02
   endloop
 endfacet
 facet normal -1.000000e+00  0.000000e+00  0.000000e+00
   outer loop
     vertex -8.019400e-01 -7.507937e-01 -1.587302e-02
     vertex -8.019400e-01 -3.021164e-01 -1.587302e-02
     vertex -8.019400e-01 -3.021164e-01 -3.174603e-02
   endloop
 endfacet
 facet normal -1.000000e+00  0.000000e+00  0.000000e+00
   outer loop
     vertex -8.019400e-01 -7.507937e-01 -1.587302e-02
     vertex -8.019400e-01 -3.021164e-01 -3.174603e-02
     vertex -8.019400e-01 -7.507937e-01 -6.349212e-02
   endloop
 endfacet
 facet normal  0.000000e+00  1.000000e+00  0.000000e+00
   outer loop
     vertex -8.019400e-01  8.393298e-01 -1.587302e-02
     vertex  6.499119e-01  8.393298e-01  0.000000e+00
     vertex  6.499119e-01  8.393298e-01 -1.587302e-02
   endloop
 endfacet
 facet normal  0.000000e+00  1.000000e+00  0.000000e+00
   outer loop
     vertex -8.019400e-01  8.393298e-01 -1.587302e-02
     vertex -8.019400e-01  8.393298e-01  0.000000e+00
     vertex  6.499119e-01  8.393298e-01  0.000000e+00
   endloop
 endfacet
 facet normal  1.000000e+00  0.000000e+00  0.000000e+00
   outer loop
     vertex  6.499119e-01 -3.021164e-01 -3.174603e-02
     vertex  6.499119e-01 -7.507937e-01 -1.587302e-02
     vertex  6.499119e-01 -7.507937e-01 -6.349212e-02
   endloop
 endfacet
 facet normal  1.000000e+00  0.000000e+00  0.000000e+00
   outer loop
     vertex  6.499119e-01 -3.021164e-01 -1.587302e-02
     vertex  6.499119e-01 -7.507937e-01 -1.587302e-02
     vertex  6.499119e-01 -3.021164e-01 -3.174603e-02
   endloop
 endfacet
 facet normal  1.000000e+00 -2.443697e-16  3.453753e-15
   outer loop
     vertex  6.499119e-01  1.522047e-01 -3.174603e-02
     vertex  6.499119e-01 -3.021164e-01 -3.174603e-02
     vertex  6.499119e-01 -7.507937e-01 -6.349212e-02
   endloop
 endfacet
 facet normal  1.000000e+00  0.000000e+00 -3.497196e-15
   outer loop
     vertex  6.499119e-01  8.393298e-01 -6.349212e-02
     vertex  6.499119e-01  1.522047e-01 -3.174603e-02
     vertex  6.499119e-01 -7.507937e-01 -6.349212e-02
   endloop
 endfacet
 facet normal  1.000000e+00  1.615751e-16  0.000000e+00
   outer loop
     vertex  6.499119e-01  8.393298e-01 -1.587302e-02
     vertex  6.499119e-01  1.522047e-01 -1.587302e-02
     vertex  6.499119e-01  1.522047e-01 -3.174603e-02
   endloop
 endfacet
 facet normal  1.000000e+00  1.615751e-16  0.000000e+00
   outer loop
     vertex  6.499119e-01  8.393298e-01 -1.587302e-02
     vertex  6.499119e-01  1.522047e-01 -3.174603e-02
     vertex  6.499119e-01  8.393298e-01 -6.349212e-02
   endloop
 endfacet
 facet normal  1.000000e+00 -0.000000e+00  0.000000e+00
   outer loop
     vertex  9.310406e-01 -3.021164e-01 -1.587302e-02
     vertex  9.310406e-01  1.522047e-01 -3.174603e-02
     vertex  9.310406e-01  1.522047e-01 -1.587302e-02
   endloop
 endfacet
 facet normal  1.000000e+00  0.000000e+00  0.000000e+00
   outer loop
     vertex  9.310406e-01 -3.021164e-01 -1.587302e-02
     vertex  9.310406e-01 -3.021164e-01 -3.174603e-02
     vertex  9.310406e-01  1.522047e-01 -3.174603e-02
   endloop
 endfacet
 facet normal  0.000000e+00 -0.000000e+00 -1.000000e+00
   outer loop
     vertex  6.499119e-01  1.522047e-01 -3.174603e-02
     vertex  7.363316e-01 -3.021164e-01 -3.174603e-02
     vertex  6.499119e-01 -3.021164e-01 -3.174603e-02
   endloop
 endfacet
 facet normal  0.000000e+00 -0.000000e+00 -1.000000e+00
   outer loop
     vertex  9.310406e-01  1.522047e-01 -3.174603e-02
     vertex  9.310406e-01 -3.021164e-01 -3.174603e-02
     vertex  7.363316e-01 -3.021164e-01 -3.174603e-02
   endloop
 endfacet
 facet normal -0.000000e+00  0.000000e+00 -1.000000e+00
   outer loop
     vertex  9.310406e-01  1.522047e-01 -3.174603e-02
     vertex  7.363316e-01 -3.021164e-01 -3.174603e-02
     vertex  6.499119e-01  1.522047e-01 -3.174603e-02
   endloop
 endfacet
 facet normal  0.000000e+00 -1.000000e+00  0.000000e+00
   outer loop
     vertex  7.363316e-01 -3.021164e-01 -1.587302e-02
     vertex  9.310406e-01 -3.021164e-01 -3.174603e-02
     vertex  9.310406e-01 -3.021164e-01 -1.587302e-02
   endloop
 endfacet
 facet normal  0.000000e+00 -1.000000e+00  0.000000e+00
   outer loop
     vertex  7.363316e-01 -3.021164e-01 -1.587302e-02
     vertex  7.363316e-01 -3.021164e-01 -3.174603e-02
     vertex  9.310406e-01 -3.021164e-01 -3.174603e-02
   endloop
 endfacet
 facet normal  0.000000e+00 -1.000000e+00  0.000000e+00
   outer loop
     vertex  6.499119e-01 -7.507937e-01 -1.587302e-02
     vertex -8.019400e-01 -7.507937e-01  0.000000e+00
     vertex -8.019400e-01 -7.507937e-01 -1.587302e-02
   endloop
 endfacet
 facet normal  0.000000e+00 -1.000000e+00  0.000000e+00
   outer loop
     vertex  6.499119e-01 -7.507937e-01 -1.587302e-02
     vertex  6.499119e-01 -7.507937e-01  0.000000e+00
     vertex -8.019400e-01 -7.507937e-01  0.000000e+00
   endloop
 endfacet
 facet normal -0.000000e+00 -1.000000e+00  0.000000e+00
   outer loop
     vertex  6.499119e-01 -7.507937e-01 -1.587302e-02
     vertex -8.019400e-01 -7.507937e-01 -1.587302e-02
     vertex -8.019400e-01 -7.507937e-01 -6.349212e-02
   endloop
 endfacet
 facet normal  0.000000e+00 -1.000000e+00 -0.000000e+00
   outer loop
     vertex  6.499119e-01 -7.507937e-01 -1.587302e-02
     vertex -8.019400e-01 -7.507937e-01 -6.349212e-02
     vertex  6.499119e-01 -7.507937e-01 -6.349212e-02
   endloop
 endfacet
 facet normal  0.000000e+00  0.000000e+00 -1.000000e+00
   outer loop
     vertex  6.499119e-01 -7.507937e-01 -6.349212e-02
     vertex -8.019400e-01  8.393298e-01 -6.349212e-02
     vertex  6.499119e-01  8.393298e-01 -6.349212e-02
   endloop
 endfacet
 facet normal  0.000000e+00  0.000000e+00 -1.000000e+00
   outer loop
     vertex  6.499119e-01 -7.507937e-01 -6.349212e-02
     vertex -8.019400e-01 -7.507937e-01 -6.349212e-02
     vertex -8.019400e-01  8.393298e-01 -6.349212e-02
   endloop
 endfacet
 facet normal -0.000000e+00  1.000000e+00  0.000000e+00
   outer loop
     vertex -8.019400e-01  8.393298e-01 -1.587302e-02
     vertex  6.499119e-01  8.393298e-01 -1.587302e-02
     vertex  6.499119e-01  8.393298e-01 -6.349212e-02
   endloop
 endfacet
 facet normal  0.000000e+00  1.000000e+00  0.000000e+00
   outer loop
     vertex -8.019400e-01  8.393298e-01 -1.587302e-02
     vertex  6.499119e-01  8.393298e-01 -6.349212e-02
     vertex -8.019400e-01  8.393298e-01 -6.349212e-02
   endloop
 endfacet
endsolid
