solid 
 facet normal  0.000000e+00 -4.166458e-16 -1.000000e+00
   outer loop
     vertex -5.079365e-01 -8.898882e-02 -4.065256e-01
     vertex -5.079365e-01 -2.222223e-01 -4.065256e-01
     vertex -5.712523e-01 -2.222223e-01 -4.065256e-01
   endloop
 endfacet
 facet normal -8.767345e-16 -0.000000e+00 -1.000000e+00
   outer loop
     vertex -5.712523e-01 -1.587302e-02 -4.065256e-01
     vertex -5.079365e-01 -8.898882e-02 -4.065256e-01
     vertex -5.712523e-01 -2.222223e-01 -4.065256e-01
   endloop
 endfacet
 facet normal  6.273634e-17  0.000000e+00 -1.000000e+00
   outer loop
     vertex  3.768959e-01 -1.587302e-02 -4.065256e-01
     vertex  3.768959e-01 -8.898882e-02 -4.065256e-01
     vertex -5.079365e-01 -8.898882e-02 -4.065256e-01
   endloop
 endfacet
 facet normal  0.000000e+00  7.592223e-16 -1.000000e+00
   outer loop
     vertex  3.768959e-01 -1.587302e-02 -4.065256e-01
     vertex -5.079365e-01 -8.898882e-02 -4.065256e-01
     vertex -5.712523e-01 -1.587302e-02 -4.065256e-01
   endloop
 endfacet
 facet normal  0.000000e+00  0.000000e+00 -1.000000e+00
   outer loop
     vertex  3.768959e-01 -1.587302e-02 -4.065256e-01
     vertex -5.712523e-01 -1.587302e-02 -4.065256e-01
     vertex -5.712523e-01  0.000000e+00 -4.065256e-01
   endloop
 endfacet
 facet normal  0.000000e+00  0.000000e+00 -1.000000e+00
   outer loop
     vertex  3.768959e-01 -1.587302e-02 -4.065256e-01
     vertex -5.712523e-01  0.000000e+00 -4.065256e-01
     vertex  3.768959e-01  0.000000e+00 -4.065256e-01
   endloop
 endfacet
 facet normal  1.000000e+00  0.000000e+00  0.000000e+00
   outer loop
     vertex  3.768959e-01 -1.587302e-02 -4.065256e-01
     vertex  3.768959e-01 -6.238725e-02 -3.918510e-01
     vertex  3.768959e-01 -8.898882e-02 -4.065256e-01
   endloop
 endfacet
 facet normal  1.000000e+00  0.000000e+00  0.000000e+00
   outer loop
     vertex  3.768959e-01 -3.788112e-02 -3.738945e-01
     vertex  3.768959e-01 -6.238725e-02 -3.918510e-01
     vertex  3.768959e-01 -1.587302e-02 -4.065256e-01
   endloop
 endfacet
 facet normal  1.000000e+00  0.000000e+00  0.000000e+00
   outer loop
     vertex  3.768959e-01 -1.587302e-02 -3.529510e-01
     vertex  3.768959e-01 -3.788112e-02 -3.738945e-01
     vertex  3.768959e-01 -1.587302e-02 -4.065256e-01
   endloop
 endfacet
 facet normal  0.000000e+00 -9.980267e-01 -6.279037e-02
   outer loop
     vertex  4.761905e-01 -4.251150e-01 -2.217720e-01
     vertex  4.761905e-01 -4.269841e-01 -1.920634e-01
     vertex -5.079365e-01 -4.269841e-01 -1.920634e-01
   endloop
 endfacet
 facet normal -1.443191e-07 -9.980264e-01 -6.279513e-02
   outer loop
     vertex  4.761905e-01 -4.251150e-01 -2.217720e-01
     vertex -5.079365e-01 -4.269841e-01 -1.920634e-01
     vertex -5.079365e-01 -4.251147e-01 -2.217743e-01
   endloop
 endfacet
 facet normal -2.886164e-07 -9.822846e-01 -1.873952e-01
   outer loop
     vertex  4.761905e-01 -4.195372e-01 -2.510121e-01
     vertex -5.079365e-01 -4.251147e-01 -2.217743e-01
     vertex -5.079365e-01 -4.195360e-01 -2.510165e-01
   endloop
 endfacet
 facet normal  1.443082e-07 -9.822873e-01 -1.873812e-01
   outer loop
     vertex  4.761905e-01 -4.195372e-01 -2.510121e-01
     vertex  4.761905e-01 -4.251150e-01 -2.217720e-01
     vertex -5.079365e-01 -4.251147e-01 -2.217743e-01
   endloop
 endfacet
 facet normal -4.328917e-07 -9.510492e-01 -3.090396e-01
   outer loop
     vertex  4.761905e-01 -4.103385e-01 -2.793226e-01
     vertex -5.079365e-01 -4.195360e-01 -2.510165e-01
     vertex -5.079365e-01 -4.103360e-01 -2.793289e-01
   endloop
 endfacet
 facet normal  2.885945e-07 -9.510566e-01 -3.090169e-01
   outer loop
     vertex  4.761905e-01 -4.103385e-01 -2.793226e-01
     vertex  4.761905e-01 -4.195372e-01 -2.510121e-01
     vertex -5.079365e-01 -4.195360e-01 -2.510165e-01
   endloop
 endfacet
 facet normal -5.771452e-07 -9.048129e-01 -4.258094e-01
   outer loop
     vertex  4.761905e-01 -3.976642e-01 -3.062569e-01
     vertex -5.079365e-01 -4.103360e-01 -2.793289e-01
     vertex -5.079365e-01 -3.976599e-01 -3.062648e-01
   endloop
 endfacet
 facet normal  4.328589e-07 -9.048271e-01 -4.257792e-01
   outer loop
     vertex  4.761905e-01 -3.976642e-01 -3.062569e-01
     vertex  4.761905e-01 -4.103385e-01 -2.793226e-01
     vertex -5.079365e-01 -4.103360e-01 -2.793289e-01
   endloop
 endfacet
 facet normal -7.213767e-07 -8.443050e-01 -5.358630e-01
   outer loop
     vertex  4.761905e-01 -3.817141e-01 -3.313903e-01
     vertex -5.079365e-01 -3.976599e-01 -3.062648e-01
     vertex -5.079365e-01 -3.817074e-01 -3.313995e-01
   endloop
 endfacet
 facet normal  5.771014e-07 -8.443280e-01 -5.358267e-01
   outer loop
     vertex  4.761905e-01 -3.817141e-01 -3.313903e-01
     vertex  4.761905e-01 -3.976642e-01 -3.062569e-01
     vertex -5.079365e-01 -3.976599e-01 -3.062648e-01
   endloop
 endfacet
 facet normal -8.655864e-07 -7.704798e-01 -6.374644e-01
   outer loop
     vertex  4.761905e-01 -3.627396e-01 -3.543265e-01
     vertex -5.079365e-01 -3.817074e-01 -3.313995e-01
     vertex -5.079365e-01 -3.627303e-01 -3.543364e-01
   endloop
 endfacet
 facet normal  7.213220e-07 -7.705133e-01 -6.374239e-01
   outer loop
     vertex  4.761905e-01 -3.627396e-01 -3.543265e-01
     vertex  4.761905e-01 -3.817141e-01 -3.313903e-01
     vertex -5.079365e-01 -3.817074e-01 -3.313995e-01
   endloop
 endfacet
 facet normal -1.009774e-06 -6.845019e-01 -7.290110e-01
   outer loop
     vertex  4.761905e-01 -3.410402e-01 -3.747036e-01
     vertex -5.079365e-01 -3.627303e-01 -3.543364e-01
     vertex -5.079365e-01 -3.410280e-01 -3.747137e-01
   endloop
 endfacet
 facet normal  8.655207e-07 -6.845472e-01 -7.289686e-01
   outer loop
     vertex  4.761905e-01 -3.410402e-01 -3.747036e-01
     vertex  4.761905e-01 -3.627396e-01 -3.543265e-01
     vertex -5.079365e-01 -3.627303e-01 -3.543364e-01
   endloop
 endfacet
 facet normal -1.153940e-06 -5.877274e-01 -8.090590e-01
   outer loop
     vertex  4.761905e-01 -3.169579e-01 -3.922005e-01
     vertex -5.079365e-01 -3.410280e-01 -3.747137e-01
     vertex -5.079365e-01 -3.169426e-01 -3.922102e-01
   endloop
 endfacet
 facet normal  1.009698e-06 -5.877853e-01 -8.090170e-01
   outer loop
     vertex  4.761905e-01 -3.169579e-01 -3.922005e-01
     vertex  4.761905e-01 -3.410402e-01 -3.747036e-01
     vertex -5.079365e-01 -3.410280e-01 -3.747137e-01
   endloop
 endfacet
 facet normal -1.298084e-06 -4.816826e-01 -8.763457e-01
   outer loop
     vertex  4.761905e-01 -2.908725e-01 -4.065410e-01
     vertex -5.079365e-01 -3.169426e-01 -3.922102e-01
     vertex -5.079365e-01 -2.908541e-01 -4.065497e-01
   endloop
 endfacet
 facet normal  1.153853e-06 -4.817537e-01 -8.763067e-01
   outer loop
     vertex  4.761905e-01 -2.908725e-01 -4.065410e-01
     vertex  4.761905e-01 -3.169579e-01 -3.922005e-01
     vertex -5.079365e-01 -3.169426e-01 -3.922102e-01
   endloop
 endfacet
 facet normal -1.442206e-06 -3.680403e-01 -9.298098e-01
   outer loop
     vertex  4.761905e-01 -2.631955e-01 -4.174991e-01
     vertex -5.079365e-01 -2.908541e-01 -4.065497e-01
     vertex -5.079365e-01 -2.631740e-01 -4.175061e-01
   endloop
 endfacet
 facet normal  1.297986e-06 -3.681246e-01 -9.297765e-01
   outer loop
     vertex  4.761905e-01 -2.631955e-01 -4.174991e-01
     vertex  4.761905e-01 -2.908725e-01 -4.065410e-01
     vertex -5.079365e-01 -2.908541e-01 -4.065497e-01
   endloop
 endfacet
 facet normal  1.442097e-06 -2.486899e-01 -9.685832e-01
   outer loop
     vertex  4.761905e-01 -2.343634e-01 -4.249019e-01
     vertex  4.761905e-01 -2.631955e-01 -4.174991e-01
     vertex -5.079365e-01 -2.631740e-01 -4.175061e-01
   endloop
 endfacet
 facet normal -1.586306e-06 -2.485929e-01 -9.686081e-01
   outer loop
     vertex  4.761905e-01 -2.343634e-01 -4.249019e-01
     vertex -5.079365e-01 -2.631740e-01 -4.175061e-01
     vertex -5.079365e-01 -2.343389e-01 -4.249066e-01
   endloop
 endfacet
 facet normal  1.586186e-06 -1.253332e-01 -9.921147e-01
   outer loop
     vertex  4.761905e-01 -2.048307e-01 -4.286328e-01
     vertex  4.761905e-01 -2.343634e-01 -4.249019e-01
     vertex -5.079365e-01 -2.343389e-01 -4.249066e-01
   endloop
 endfacet
 facet normal -1.730385e-06 -1.252244e-01 -9.921284e-01
   outer loop
     vertex  4.761905e-01 -2.048307e-01 -4.286328e-01
     vertex -5.079365e-01 -2.343389e-01 -4.249066e-01
     vertex -5.079365e-01 -2.048036e-01 -4.286345e-01
   endloop
 endfacet
 facet normal  1.730253e-06  0.000000e+00 -1.000000e+00
   outer loop
     vertex  4.761905e-01 -1.750634e-01 -4.286328e-01
     vertex  4.761905e-01 -2.048307e-01 -4.286328e-01
     vertex -5.079365e-01 -2.048036e-01 -4.286345e-01
   endloop
 endfacet
 facet normal -1.874441e-06  1.192819e-04 -1.000000e+00
   outer loop
     vertex  4.761905e-01 -1.750634e-01 -4.286328e-01
     vertex -5.079365e-01 -2.048036e-01 -4.286345e-01
     vertex -5.079365e-01 -1.750340e-01 -4.286309e-01
   endloop
 endfacet
 facet normal  1.874299e-06  1.253332e-01 -9.921147e-01
   outer loop
     vertex  4.761905e-01 -1.455307e-01 -4.249019e-01
     vertex  4.761905e-01 -1.750634e-01 -4.286328e-01
     vertex -5.079365e-01 -1.750340e-01 -4.286309e-01
   endloop
 endfacet
 facet normal -2.018476e-06  1.254611e-01 -9.920985e-01
   outer loop
     vertex  4.761905e-01 -1.455307e-01 -4.249019e-01
     vertex -5.079365e-01 -1.750340e-01 -4.286309e-01
     vertex -5.079365e-01 -1.454996e-01 -4.248960e-01
   endloop
 endfacet
 facet normal  2.018323e-06  2.486899e-01 -9.685832e-01
   outer loop
     vertex  4.761905e-01 -1.166986e-01 -4.174991e-01
     vertex  4.761905e-01 -1.455307e-01 -4.249019e-01
     vertex -5.079365e-01 -1.454996e-01 -4.248960e-01
   endloop
 endfacet
 facet normal -2.162488e-06  2.488239e-01 -9.685487e-01
   outer loop
     vertex  4.761905e-01 -1.166986e-01 -4.174991e-01
     vertex -5.079365e-01 -1.454996e-01 -4.248960e-01
     vertex -5.079365e-01 -1.166663e-01 -4.174886e-01
   endloop
 endfacet
 facet normal  2.165199e-06  3.682023e-01 -9.297457e-01
   outer loop
     vertex  3.768959e-01 -8.898882e-02 -4.065256e-01
     vertex  4.761905e-01 -1.166986e-01 -4.174991e-01
     vertex -5.079365e-01 -1.166663e-01 -4.174886e-01
   endloop
 endfacet
 facet normal  4.099980e-17  3.682621e-01 -9.297220e-01
   outer loop
     vertex  3.768959e-01 -8.898882e-02 -4.065256e-01
     vertex -5.079365e-01 -1.166663e-01 -4.174886e-01
     vertex -5.079365e-01 -8.898882e-02 -4.065256e-01
   endloop
 endfacet
 facet normal -2.291375e-05  3.681246e-01 -9.297765e-01
   outer loop
     vertex  4.761905e-01 -8.902156e-02 -4.065410e-01
     vertex  4.761905e-01 -1.166986e-01 -4.174991e-01
     vertex  3.768959e-01 -8.898882e-02 -4.065256e-01
   endloop
 endfacet
 facet normal  2.285821e-05  4.817537e-01 -8.763067e-01
   outer loop
     vertex  4.761905e-01 -6.293623e-02 -3.922005e-01
     vertex  4.761905e-01 -8.902156e-02 -4.065410e-01
     vertex  3.768959e-01 -8.898882e-02 -4.065256e-01
   endloop
 endfacet
 facet normal -4.110210e-04  4.830230e-01 -8.756076e-01
   outer loop
     vertex  4.761905e-01 -6.293623e-02 -3.922005e-01
     vertex  3.768959e-01 -8.898882e-02 -4.065256e-01
     vertex  3.768959e-01 -6.238725e-02 -3.918510e-01
   endloop
 endfacet
 facet normal  4.025412e-04  5.877853e-01 -8.090169e-01
   outer loop
     vertex  4.761905e-01 -3.885392e-02 -3.747036e-01
     vertex  4.761905e-01 -6.293623e-02 -3.922005e-01
     vertex  3.768959e-01 -6.238725e-02 -3.918510e-01
   endloop
 endfacet
 facet normal -7.826948e-04  5.910502e-01 -8.066344e-01
   outer loop
     vertex  4.761905e-01 -3.885392e-02 -3.747036e-01
     vertex  3.768959e-01 -6.238725e-02 -3.918510e-01
     vertex  3.768959e-01 -3.788112e-02 -3.738945e-01
   endloop
 endfacet
 facet normal  7.662056e-04  6.845470e-01 -7.289684e-01
   outer loop
     vertex  4.761905e-01 -1.715445e-02 -3.543265e-01
     vertex  4.761905e-01 -3.885392e-02 -3.747036e-01
     vertex  3.768959e-01 -3.788112e-02 -3.738945e-01
   endloop
 endfacet
 facet normal -1.138349e-03  6.893680e-01 -7.244105e-01
   outer loop
     vertex  4.761905e-01 -1.715445e-02 -3.543265e-01
     vertex  3.768959e-01 -3.788112e-02 -3.738945e-01
     vertex  3.768959e-01 -1.587302e-02 -3.529510e-01
   endloop
 endfacet
 facet normal  4.056870e-04  7.461158e-01 -6.658161e-01
   outer loop
     vertex  3.768959e-01 -1.036079e-02 -3.467740e-01
     vertex  4.761905e-01 -1.715445e-02 -3.543265e-01
     vertex  3.768959e-01 -1.587302e-02 -3.529510e-01
   endloop
 endfacet
 facet normal  3.978048e-03  7.689059e-01 -6.393496e-01
   outer loop
     vertex  3.768959e-01 -5.067629e-03 -3.404082e-01
     vertex  4.761905e-01 -1.715445e-02 -3.543265e-01
     vertex  3.768959e-01 -1.036079e-02 -3.467740e-01
   endloop
 endfacet
 facet normal -7.943395e-18  8.380269e-01 -5.456290e-01
   outer loop
     vertex  3.768959e-01  0.000000e+00 -3.338615e-01
     vertex -5.079365e-01  2.775558e-17 -3.338615e-01
     vertex -5.079365e-01  1.657618e-02 -3.084023e-01
   endloop
 endfacet
 facet normal  7.398180e-04  7.907699e-01 -6.121131e-01
   outer loop
     vertex  4.761905e-01  1.819977e-03 -3.313903e-01
     vertex  3.768959e-01 -5.067629e-03 -3.404082e-01
     vertex  3.768959e-01  0.000000e+00 -3.338615e-01
   endloop
 endfacet
 facet normal  4.443596e-03  7.705057e-01 -6.374176e-01
   outer loop
     vertex  4.761905e-01  1.819977e-03 -3.313903e-01
     vertex  4.761905e-01 -1.715445e-02 -3.543265e-01
     vertex  3.768959e-01 -5.067629e-03 -3.404082e-01
   endloop
 endfacet
 facet normal  1.610894e-04  8.405776e-01 -5.416911e-01
   outer loop
     vertex  4.761905e-01  1.777013e-02 -3.062569e-01
     vertex  3.768959e-01  0.000000e+00 -3.338615e-01
     vertex -5.079365e-01  1.657618e-02 -3.084023e-01
   endloop
 endfacet
 facet normal -2.140417e-03  8.443260e-01 -5.358255e-01
   outer loop
     vertex  4.761905e-01  1.777013e-02 -3.062569e-01
     vertex  4.761905e-01  1.819977e-03 -3.313903e-01
     vertex  3.768959e-01  0.000000e+00 -3.338615e-01
   endloop
 endfacet
 facet normal -1.469799e-04  9.009310e-01 -4.339623e-01
   outer loop
     vertex  4.761905e-01  1.777013e-02 -3.062569e-01
     vertex -5.079365e-01  1.657618e-02 -3.084023e-01
     vertex -5.079365e-01  2.975993e-02 -2.810321e-01
   endloop
 endfacet
 facet normal -1.126535e-04  9.490361e-01 -3.151673e-01
   outer loop
     vertex  4.761905e-01  3.044445e-02 -2.793226e-01
     vertex -5.079365e-01  2.975993e-02 -2.810321e-01
     vertex -5.079365e-01  3.933469e-02 -2.522004e-01
   endloop
 endfacet
 facet normal  1.102352e-04  9.048271e-01 -4.257792e-01
   outer loop
     vertex  4.761905e-01  3.044445e-02 -2.793226e-01
     vertex  4.761905e-01  1.777013e-02 -3.062569e-01
     vertex -5.079365e-01  2.975993e-02 -2.810321e-01
   endloop
 endfacet
 facet normal -7.671459e-05  9.815520e-01 -1.911952e-01
   outer loop
     vertex  4.761905e-01  3.964307e-02 -2.510121e-01
     vertex -5.079365e-01  3.933469e-02 -2.522004e-01
     vertex -5.079365e-01  4.514319e-02 -2.223809e-01
   endloop
 endfacet
 facet normal  7.510246e-05  9.510566e-01 -3.090169e-01
   outer loop
     vertex  4.761905e-01  3.964307e-02 -2.510121e-01
     vertex  4.761905e-01  3.044445e-02 -2.793226e-01
     vertex -5.079365e-01  3.933469e-02 -2.522004e-01
   endloop
 endfacet
 facet normal -3.916333e-05  9.979446e-01 -6.408252e-02
   outer loop
     vertex  4.761905e-01  4.522091e-02 -2.217720e-01
     vertex -5.079365e-01  4.514319e-02 -2.223809e-01
     vertex -5.079365e-01  4.709001e-02 -1.920634e-01
   endloop
 endfacet
 facet normal  3.835733e-05  9.822873e-01 -1.873812e-01
   outer loop
     vertex  4.761905e-01  4.522091e-02 -2.217720e-01
     vertex  4.761905e-01  3.964307e-02 -2.510121e-01
     vertex -5.079365e-01  4.514319e-02 -2.223809e-01
   endloop
 endfacet
 facet normal  0.000000e+00  9.980267e-01 -6.279037e-02
   outer loop
     vertex  4.761905e-01  4.709001e-02 -1.920634e-01
     vertex  4.761905e-01  4.522091e-02 -2.217720e-01
     vertex -5.079365e-01  4.709001e-02 -1.920634e-01
   endloop
 endfacet
 facet normal -1.000000e+00  0.000000e+00  0.000000e+00
   outer loop
     vertex -5.079365e-01 -2.222223e-01 -4.065256e-01
     vertex -5.079365e-01 -2.343389e-01 -4.249066e-01
     vertex -5.079365e-01 -2.631740e-01 -4.175061e-01
   endloop
 endfacet
 facet normal -1.000000e+00  0.000000e+00 -0.000000e+00
   outer loop
     vertex -5.079365e-01 -2.222223e-01 -4.065256e-01
     vertex -5.079365e-01 -2.048036e-01 -4.286345e-01
     vertex -5.079365e-01 -2.343389e-01 -4.249066e-01
   endloop
 endfacet
 facet normal -1.000000e+00 -0.000000e+00  0.000000e+00
   outer loop
     vertex -5.079365e-01 -1.750340e-01 -4.286309e-01
     vertex -5.079365e-01 -2.048036e-01 -4.286345e-01
     vertex -5.079365e-01 -2.222223e-01 -4.065256e-01
   endloop
 endfacet
 facet normal -1.000000e+00  0.000000e+00  0.000000e+00
   outer loop
     vertex -5.079365e-01 -2.967203e-01 -2.912414e-01
     vertex -5.079365e-01 -3.627303e-01 -3.543364e-01
     vertex -5.079365e-01 -3.817074e-01 -3.313995e-01
   endloop
 endfacet
 facet normal -1.000000e+00  0.000000e+00  0.000000e+00
   outer loop
     vertex -5.079365e-01 -2.967203e-01 -2.912414e-01
     vertex -5.079365e-01 -3.410280e-01 -3.747137e-01
     vertex -5.079365e-01 -3.627303e-01 -3.543364e-01
   endloop
 endfacet
 facet normal -1.000000e+00  0.000000e+00  0.000000e+00
   outer loop
     vertex -5.079365e-01 -2.807839e-01 -3.059724e-01
     vertex -5.079365e-01 -3.169426e-01 -3.922102e-01
     vertex -5.079365e-01 -3.410280e-01 -3.747137e-01
   endloop
 endfacet
 facet normal -1.000000e+00 -0.000000e+00  0.000000e+00
   outer loop
     vertex -5.079365e-01 -2.807839e-01 -3.059724e-01
     vertex -5.079365e-01 -3.410280e-01 -3.747137e-01
     vertex -5.079365e-01 -2.967203e-01 -2.912414e-01
   endloop
 endfacet
 facet normal -1.000000e+00  0.000000e+00  0.000000e+00
   outer loop
     vertex -5.079365e-01 -3.101837e-01 -2.742208e-01
     vertex -5.079365e-01 -3.817074e-01 -3.313995e-01
     vertex -5.079365e-01 -3.976599e-01 -3.062648e-01
   endloop
 endfacet
 facet normal -1.000000e+00  0.000000e+00 -0.000000e+00
   outer loop
     vertex -5.079365e-01 -3.101837e-01 -2.742208e-01
     vertex -5.079365e-01 -2.967203e-01 -2.912414e-01
     vertex -5.079365e-01 -3.817074e-01 -3.313995e-01
   endloop
 endfacet
 facet normal -1.000000e+00  0.000000e+00  0.000000e+00
   outer loop
     vertex -5.079365e-01 -2.627591e-01 -3.180584e-01
     vertex -5.079365e-01 -2.908541e-01 -4.065497e-01
     vertex -5.079365e-01 -3.169426e-01 -3.922102e-01
   endloop
 endfacet
 facet normal -1.000000e+00 -0.000000e+00  0.000000e+00
   outer loop
     vertex -5.079365e-01 -2.627591e-01 -3.180584e-01
     vertex -5.079365e-01 -3.169426e-01 -3.922102e-01
     vertex -5.079365e-01 -2.807839e-01 -3.059724e-01
   endloop
 endfacet
 facet normal -1.000000e+00  0.000000e+00  0.000000e+00
   outer loop
     vertex -5.079365e-01 -3.208496e-01 -2.553209e-01
     vertex -5.079365e-01 -3.976599e-01 -3.062648e-01
     vertex -5.079365e-01 -4.103360e-01 -2.793289e-01
   endloop
 endfacet
 facet normal -1.000000e+00  0.000000e+00 -0.000000e+00
   outer loop
     vertex -5.079365e-01 -3.208496e-01 -2.553209e-01
     vertex -5.079365e-01 -3.101837e-01 -2.742208e-01
     vertex -5.079365e-01 -3.976599e-01 -3.062648e-01
   endloop
 endfacet
 facet normal -1.000000e+00  0.000000e+00  0.000000e+00
   outer loop
     vertex -5.079365e-01 -2.430803e-01 -3.272079e-01
     vertex -5.079365e-01 -2.631740e-01 -4.175061e-01
     vertex -5.079365e-01 -2.908541e-01 -4.065497e-01
   endloop
 endfacet
 facet normal -1.000000e+00  0.000000e+00 -0.000000e+00
   outer loop
     vertex -5.079365e-01 -2.430803e-01 -3.272079e-01
     vertex -5.079365e-01 -2.222223e-01 -4.065256e-01
     vertex -5.079365e-01 -2.631740e-01 -4.175061e-01
   endloop
 endfacet
 facet normal -1.000000e+00 -0.000000e+00  0.000000e+00
   outer loop
     vertex -5.079365e-01 -2.430803e-01 -3.272079e-01
     vertex -5.079365e-01 -2.908541e-01 -4.065497e-01
     vertex -5.079365e-01 -2.627591e-01 -3.180584e-01
   endloop
 endfacet
 facet normal -1.000000e+00  0.000000e+00  0.000000e+00
   outer loop
     vertex -5.079365e-01 -3.284607e-01 -2.349975e-01
     vertex -5.079365e-01 -4.103360e-01 -2.793289e-01
     vertex -5.079365e-01 -4.195360e-01 -2.510165e-01
   endloop
 endfacet
 facet normal -1.000000e+00  0.000000e+00 -0.000000e+00
   outer loop
     vertex -5.079365e-01 -3.284607e-01 -2.349975e-01
     vertex -5.079365e-01 -3.208496e-01 -2.553209e-01
     vertex -5.079365e-01 -4.103360e-01 -2.793289e-01
   endloop
 endfacet
 facet normal -1.000000e+00 -0.000000e+00 -0.000000e+00
   outer loop
     vertex -5.079365e-01 -2.222223e-01 -3.332004e-01
     vertex -5.079365e-01 -2.222223e-01 -4.065256e-01
     vertex -5.079365e-01 -2.430803e-01 -3.272079e-01
   endloop
 endfacet
 facet normal -1.000000e+00  0.000000e+00  0.000000e+00
   outer loop
     vertex -5.079365e-01 -3.328334e-01 -2.137408e-01
     vertex -5.079365e-01 -4.195360e-01 -2.510165e-01
     vertex -5.079365e-01 -4.251147e-01 -2.217743e-01
   endloop
 endfacet
 facet normal -1.000000e+00  0.000000e+00 -0.000000e+00
   outer loop
     vertex -5.079365e-01 -3.328334e-01 -2.137408e-01
     vertex -5.079365e-01 -3.284607e-01 -2.349975e-01
     vertex -5.079365e-01 -4.195360e-01 -2.510165e-01
   endloop
 endfacet
 facet normal -1.000000e+00 -0.000000e+00  0.000000e+00
   outer loop
     vertex -5.079365e-01 -3.338624e-01 -1.920634e-01
     vertex -5.079365e-01 -4.251147e-01 -2.217743e-01
     vertex -5.079365e-01 -4.269841e-01 -1.920634e-01
   endloop
 endfacet
 facet normal -1.000000e+00  0.000000e+00 -0.000000e+00
   outer loop
     vertex -5.079365e-01 -3.338624e-01 -1.920634e-01
     vertex -5.079365e-01 -3.328334e-01 -2.137408e-01
     vertex -5.079365e-01 -4.251147e-01 -2.217743e-01
   endloop
 endfacet
 facet normal -1.000000e+00 -0.000000e+00  0.000000e+00
   outer loop
     vertex -5.079365e-01 -8.898882e-02 -4.065256e-01
     vertex -5.079365e-01 -1.166663e-01 -4.174886e-01
     vertex -5.079365e-01 -2.222223e-01 -4.065256e-01
   endloop
 endfacet
 facet normal -1.000000e+00 -0.000000e+00  0.000000e+00
   outer loop
     vertex -5.079365e-01 -1.166663e-01 -4.174886e-01
     vertex -5.079365e-01 -1.454996e-01 -4.248960e-01
     vertex -5.079365e-01 -2.222223e-01 -4.065256e-01
   endloop
 endfacet
 facet normal -1.000000e+00 -0.000000e+00  0.000000e+00
   outer loop
     vertex -5.079365e-01 -1.454996e-01 -4.248960e-01
     vertex -5.079365e-01 -1.750340e-01 -4.286309e-01
     vertex -5.079365e-01 -2.222223e-01 -4.065256e-01
   endloop
 endfacet
 facet normal  0.000000e+00 -1.000000e+00 -3.785272e-16
   outer loop
     vertex -5.079365e-01 -2.222223e-01 -3.332004e-01
     vertex -5.712523e-01 -2.222223e-01 -4.065256e-01
     vertex -5.079365e-01 -2.222223e-01 -4.065256e-01
   endloop
 endfacet
 facet normal -4.383672e-16 -1.000000e+00 -0.000000e+00
   outer loop
     vertex -5.712523e-01 -2.222223e-01 -7.072307e-02
     vertex -5.712523e-01 -2.222223e-01 -4.065256e-01
     vertex -5.079365e-01 -2.222223e-01 -3.332004e-01
   endloop
 endfacet
 facet normal -0.000000e+00 -1.000000e+00  0.000000e+00
   outer loop
     vertex -3.539683e-01 -2.222223e-01  1.860671e-01
     vertex -5.712523e-01 -2.222223e-01  3.835979e-01
     vertex -5.712523e-01 -2.222223e-01 -7.072307e-02
   endloop
 endfacet
 facet normal -9.724738e-17 -1.000000e+00  8.228626e-17
   outer loop
     vertex -3.539683e-01 -2.222223e-01  1.860671e-01
     vertex -5.712523e-01 -2.222223e-01 -7.072307e-02
     vertex -5.079365e-01 -2.222223e-01 -3.332004e-01
   endloop
 endfacet
 facet normal -0.000000e+00 -1.000000e+00 -0.000000e+00
   outer loop
     vertex -3.539683e-01 -2.222223e-01  3.835979e-01
     vertex -5.712523e-01 -2.222223e-01  3.835979e-01
     vertex -3.539683e-01 -2.222223e-01  1.860671e-01
   endloop
 endfacet
 facet normal  3.136817e-17 -1.000000e+00  1.431905e-17
   outer loop
     vertex  1.398589e-01 -2.222223e-01  1.860671e-01
     vertex -5.079365e-01 -2.222223e-01 -3.332004e-01
     vertex  3.768959e-01 -2.222223e-01 -3.332004e-01
   endloop
 endfacet
 facet normal  0.000000e+00 -1.000000e+00  5.345140e-17
   outer loop
     vertex  1.398589e-01 -2.222223e-01  1.860671e-01
     vertex -3.539683e-01 -2.222223e-01  1.860671e-01
     vertex -5.079365e-01 -2.222223e-01 -3.332004e-01
   endloop
 endfacet
 facet normal -0.000000e+00 -1.000000e+00  0.000000e+00
   outer loop
     vertex  3.768959e-01 -2.222223e-01  3.835979e-01
     vertex  1.398589e-01 -2.222223e-01  3.835979e-01
     vertex  1.398589e-01 -2.222223e-01  1.860671e-01
   endloop
 endfacet
 facet normal  0.000000e+00 -1.000000e+00 -0.000000e+00
   outer loop
     vertex  3.768959e-01 -2.222223e-01  3.835979e-01
     vertex  1.398589e-01 -2.222223e-01  1.860671e-01
     vertex  3.768959e-01 -2.222223e-01 -3.332004e-01
   endloop
 endfacet
 facet normal -1.000000e+00  0.000000e+00  0.000000e+00
   outer loop
     vertex -5.712523e-01 -1.587302e-02 -4.065256e-01
     vertex -5.712523e-01 -2.222223e-01 -7.072307e-02
     vertex -5.712523e-01 -1.587302e-02 -7.072307e-02
   endloop
 endfacet
 facet normal -1.000000e+00  0.000000e+00  0.000000e+00
   outer loop
     vertex -5.712523e-01 -1.587302e-02 -4.065256e-01
     vertex -5.712523e-01 -2.222223e-01 -4.065256e-01
     vertex -5.712523e-01 -2.222223e-01 -7.072307e-02
   endloop
 endfacet
 facet normal -1.000000e+00  0.000000e+00  0.000000e+00
   outer loop
     vertex -5.712523e-01 -1.587302e-02 -4.065256e-01
     vertex -5.712523e-01 -1.587302e-02 -7.072307e-02
     vertex -5.712523e-01  0.000000e+00 -7.072307e-02
   endloop
 endfacet
 facet normal -1.000000e+00  0.000000e+00  0.000000e+00
   outer loop
     vertex -5.712523e-01 -1.587302e-02 -4.065256e-01
     vertex -5.712523e-01  0.000000e+00 -7.072307e-02
     vertex -5.712523e-01  0.000000e+00 -4.065256e-01
   endloop
 endfacet
 facet normal  1.000000e+00  0.000000e+00  0.000000e+00
   outer loop
     vertex  3.768959e-01 -1.587302e-02 -3.529510e-01
     vertex  3.768959e-01 -1.587302e-02 -4.065256e-01
     vertex  3.768959e-01  0.000000e+00 -4.065256e-01
   endloop
 endfacet
 facet normal  1.000000e+00  0.000000e+00  0.000000e+00
   outer loop
     vertex  3.768959e-01 -1.036079e-02 -3.467740e-01
     vertex  3.768959e-01 -1.587302e-02 -3.529510e-01
     vertex  3.768959e-01  0.000000e+00 -4.065256e-01
   endloop
 endfacet
 facet normal  1.000000e+00  0.000000e+00  0.000000e+00
   outer loop
     vertex  3.768959e-01 -5.067629e-03 -3.404082e-01
     vertex  3.768959e-01 -1.036079e-02 -3.467740e-01
     vertex  3.768959e-01  0.000000e+00 -4.065256e-01
   endloop
 endfacet
 facet normal  1.000000e+00  0.000000e+00  0.000000e+00
   outer loop
     vertex  3.768959e-01  0.000000e+00 -3.338615e-01
     vertex  3.768959e-01 -5.067629e-03 -3.404082e-01
     vertex  3.768959e-01  0.000000e+00 -4.065256e-01
   endloop
 endfacet
 facet normal -6.630074e-16  1.000000e+00  1.957401e-16
   outer loop
     vertex -5.079365e-01  0.000000e+00 -1.920634e-01
     vertex -5.079365e-01  2.775558e-17 -3.338615e-01
     vertex -5.712523e-01  0.000000e+00 -4.065256e-01
   endloop
 endfacet
 facet normal  0.000000e+00  1.000000e+00  0.000000e+00
   outer loop
     vertex -5.712523e-01  0.000000e+00 -7.072307e-02
     vertex -5.079365e-01  0.000000e+00 -1.920634e-01
     vertex -5.712523e-01  0.000000e+00 -4.065256e-01
   endloop
 endfacet
 facet normal  0.000000e+00  1.000000e+00  0.000000e+00
   outer loop
     vertex -3.539683e-01  0.000000e+00  1.860671e-01
     vertex -5.712523e-01  0.000000e+00 -7.072307e-02
     vertex -5.712523e-01  0.000000e+00  3.835979e-01
   endloop
 endfacet
 facet normal  0.000000e+00  1.000000e+00  0.000000e+00
   outer loop
     vertex -3.539683e-01  0.000000e+00  1.860671e-01
     vertex -5.079365e-01  0.000000e+00 -1.920634e-01
     vertex -5.712523e-01  0.000000e+00 -7.072307e-02
   endloop
 endfacet
 facet normal  0.000000e+00  1.000000e+00 -3.819711e-16
   outer loop
     vertex  3.768959e-01  0.000000e+00 -4.065256e-01
     vertex -5.712523e-01  0.000000e+00 -4.065256e-01
     vertex -5.079365e-01  2.775558e-17 -3.338615e-01
   endloop
 endfacet
 facet normal  0.000000e+00  1.000000e+00  0.000000e+00
   outer loop
     vertex -3.539683e-01  0.000000e+00  3.835979e-01
     vertex -3.539683e-01  0.000000e+00  1.860671e-01
     vertex -5.712523e-01  0.000000e+00  3.835979e-01
   endloop
 endfacet
 facet normal  3.136817e-17  1.000000e+00  0.000000e+00
   outer loop
     vertex  3.768959e-01  0.000000e+00 -3.338615e-01
     vertex  3.768959e-01  0.000000e+00 -4.065256e-01
     vertex -5.079365e-01  2.775558e-17 -3.338615e-01
   endloop
 endfacet
 facet normal  0.000000e+00  1.000000e+00  0.000000e+00
   outer loop
     vertex  1.398589e-01  0.000000e+00  1.860671e-01
     vertex  3.768959e-01  0.000000e+00 -1.920634e-01
     vertex -5.079365e-01  0.000000e+00 -1.920634e-01
   endloop
 endfacet
 facet normal  0.000000e+00  1.000000e+00  0.000000e+00
   outer loop
     vertex  1.398589e-01  0.000000e+00  1.860671e-01
     vertex -5.079365e-01  0.000000e+00 -1.920634e-01
     vertex -3.539683e-01  0.000000e+00  1.860671e-01
   endloop
 endfacet
 facet normal  0.000000e+00  1.000000e+00  0.000000e+00
   outer loop
     vertex  3.768959e-01  0.000000e+00  3.835979e-01
     vertex  1.398589e-01  0.000000e+00  1.860671e-01
     vertex  1.398589e-01  0.000000e+00  3.835979e-01
   endloop
 endfacet
 facet normal  0.000000e+00  1.000000e+00  0.000000e+00
   outer loop
     vertex  3.768959e-01  0.000000e+00  3.835979e-01
     vertex  3.768959e-01  0.000000e+00 -1.920634e-01
     vertex  1.398589e-01  0.000000e+00  1.860671e-01
   endloop
 endfacet
 facet normal  1.000000e+00  0.000000e+00  0.000000e+00
   outer loop
     vertex  4.761905e-01 -2.902933e-01 -2.977425e-01
     vertex  4.761905e-01 -3.627396e-01 -3.543265e-01
     vertex  4.761905e-01 -3.410402e-01 -3.747036e-01
   endloop
 endfacet
 facet normal  1.000000e+00  0.000000e+00  0.000000e+00
   outer loop
     vertex  4.761905e-01 -3.059480e-01 -2.801832e-01
     vertex  4.761905e-01 -3.817141e-01 -3.313903e-01
     vertex  4.761905e-01 -3.627396e-01 -3.543265e-01
   endloop
 endfacet
 facet normal  1.000000e+00  0.000000e+00  0.000000e+00
   outer loop
     vertex  4.761905e-01 -3.059480e-01 -2.801832e-01
     vertex  4.761905e-01 -3.627396e-01 -3.543265e-01
     vertex  4.761905e-01 -2.902933e-01 -2.977425e-01
   endloop
 endfacet
 facet normal  1.000000e+00  0.000000e+00  0.000000e+00
   outer loop
     vertex  4.761905e-01 -2.719150e-01 -3.124271e-01
     vertex  4.761905e-01 -3.410402e-01 -3.747036e-01
     vertex  4.761905e-01 -3.169579e-01 -3.922005e-01
   endloop
 endfacet
 facet normal  1.000000e+00  0.000000e+00  0.000000e+00
   outer loop
     vertex  4.761905e-01 -2.719150e-01 -3.124271e-01
     vertex  4.761905e-01 -2.902933e-01 -2.977425e-01
     vertex  4.761905e-01 -3.410402e-01 -3.747036e-01
   endloop
 endfacet
 facet normal  1.000000e+00  0.000000e+00  0.000000e+00
   outer loop
     vertex  4.761905e-01 -3.184355e-01 -2.602467e-01
     vertex  4.761905e-01 -4.103385e-01 -2.793226e-01
     vertex  4.761905e-01 -3.976642e-01 -3.062569e-01
   endloop
 endfacet
 facet normal  1.000000e+00  0.000000e+00  0.000000e+00
   outer loop
     vertex  4.761905e-01 -3.184355e-01 -2.602467e-01
     vertex  4.761905e-01 -3.976642e-01 -3.062569e-01
     vertex  4.761905e-01 -3.817141e-01 -3.313903e-01
   endloop
 endfacet
 facet normal  1.000000e+00  0.000000e+00  0.000000e+00
   outer loop
     vertex  4.761905e-01 -3.184355e-01 -2.602467e-01
     vertex  4.761905e-01 -3.817141e-01 -3.313903e-01
     vertex  4.761905e-01 -3.059480e-01 -2.801832e-01
   endloop
 endfacet
 facet normal  1.000000e+00  0.000000e+00  0.000000e+00
   outer loop
     vertex  4.761905e-01 -2.513339e-01 -3.238209e-01
     vertex  4.761905e-01 -3.169579e-01 -3.922005e-01
     vertex  4.761905e-01 -2.908725e-01 -4.065410e-01
   endloop
 endfacet
 facet normal  1.000000e+00  0.000000e+00  0.000000e+00
   outer loop
     vertex  4.761905e-01 -2.513339e-01 -3.238209e-01
     vertex  4.761905e-01 -2.908725e-01 -4.065410e-01
     vertex  4.761905e-01 -2.631955e-01 -4.174991e-01
   endloop
 endfacet
 facet normal  1.000000e+00  0.000000e+00  0.000000e+00
   outer loop
     vertex  4.761905e-01 -2.513339e-01 -3.238209e-01
     vertex  4.761905e-01 -2.719150e-01 -3.124271e-01
     vertex  4.761905e-01 -3.169579e-01 -3.922005e-01
   endloop
 endfacet
 facet normal  1.000000e+00  0.000000e+00  0.000000e+00
   outer loop
     vertex  4.761905e-01 -3.274020e-01 -2.384981e-01
     vertex  4.761905e-01 -4.195372e-01 -2.510121e-01
     vertex  4.761905e-01 -4.103385e-01 -2.793226e-01
   endloop
 endfacet
 facet normal  1.000000e+00  0.000000e+00  0.000000e+00
   outer loop
     vertex  4.761905e-01 -3.274020e-01 -2.384981e-01
     vertex  4.761905e-01 -4.103385e-01 -2.793226e-01
     vertex  4.761905e-01 -3.184355e-01 -2.602467e-01
   endloop
 endfacet
 facet normal  1.000000e+00  0.000000e+00  0.000000e+00
   outer loop
     vertex  4.761905e-01 -2.291332e-01 -3.316010e-01
     vertex  4.761905e-01 -2.631955e-01 -4.174991e-01
     vertex  4.761905e-01 -2.343634e-01 -4.249019e-01
   endloop
 endfacet
 facet normal  1.000000e+00  0.000000e+00  0.000000e+00
   outer loop
     vertex  4.761905e-01 -2.291332e-01 -3.316010e-01
     vertex  4.761905e-01 -2.513339e-01 -3.238209e-01
     vertex  4.761905e-01 -2.631955e-01 -4.174991e-01
   endloop
 endfacet
 facet normal  1.000000e+00  0.000000e+00  0.000000e+00
   outer loop
     vertex  4.761905e-01 -3.325933e-01 -2.155536e-01
     vertex  4.761905e-01 -4.251150e-01 -2.217720e-01
     vertex  4.761905e-01 -4.195372e-01 -2.510121e-01
   endloop
 endfacet
 facet normal  1.000000e+00  0.000000e+00  0.000000e+00
   outer loop
     vertex  4.761905e-01 -3.325933e-01 -2.155536e-01
     vertex  4.761905e-01 -4.195372e-01 -2.510121e-01
     vertex  4.761905e-01 -3.274020e-01 -2.384981e-01
   endloop
 endfacet
 facet normal  1.000000e+00  0.000000e+00  0.000000e+00
   outer loop
     vertex  4.761905e-01 -2.059421e-01 -3.355470e-01
     vertex  4.761905e-01 -2.343634e-01 -4.249019e-01
     vertex  4.761905e-01 -2.048307e-01 -4.286328e-01
   endloop
 endfacet
 facet normal  1.000000e+00  0.000000e+00  0.000000e+00
   outer loop
     vertex  4.761905e-01 -2.059421e-01 -3.355470e-01
     vertex  4.761905e-01 -2.291332e-01 -3.316010e-01
     vertex  4.761905e-01 -2.343634e-01 -4.249019e-01
   endloop
 endfacet
 facet normal  1.000000e+00  0.000000e+00  0.000000e+00
   outer loop
     vertex  4.761905e-01 -3.338624e-01 -1.920634e-01
     vertex  4.761905e-01 -4.269841e-01 -1.920634e-01
     vertex  4.761905e-01 -4.251150e-01 -2.217720e-01
   endloop
 endfacet
 facet normal  1.000000e+00  0.000000e+00  0.000000e+00
   outer loop
     vertex  4.761905e-01 -3.338624e-01 -1.920634e-01
     vertex  4.761905e-01 -4.251150e-01 -2.217720e-01
     vertex  4.761905e-01 -3.325933e-01 -2.155536e-01
   endloop
 endfacet
 facet normal  1.000000e+00  0.000000e+00  0.000000e+00
   outer loop
     vertex  4.761905e-01 -1.824176e-01 -3.355470e-01
     vertex  4.761905e-01 -2.048307e-01 -4.286328e-01
     vertex  4.761905e-01 -1.750634e-01 -4.286328e-01
   endloop
 endfacet
 facet normal  1.000000e+00  0.000000e+00  0.000000e+00
   outer loop
     vertex  4.761905e-01 -1.824176e-01 -3.355470e-01
     vertex  4.761905e-01 -1.750634e-01 -4.286328e-01
     vertex  4.761905e-01 -1.455307e-01 -4.249019e-01
   endloop
 endfacet
 facet normal  1.000000e+00  0.000000e+00  0.000000e+00
   outer loop
     vertex  4.761905e-01 -1.824176e-01 -3.355470e-01
     vertex  4.761905e-01 -2.059421e-01 -3.355470e-01
     vertex  4.761905e-01 -2.048307e-01 -4.286328e-01
   endloop
 endfacet
 facet normal  1.000000e+00  0.000000e+00  0.000000e+00
   outer loop
     vertex  4.761905e-01 -1.592265e-01 -3.316010e-01
     vertex  4.761905e-01 -1.455307e-01 -4.249019e-01
     vertex  4.761905e-01 -1.166986e-01 -4.174991e-01
   endloop
 endfacet
 facet normal  1.000000e+00  0.000000e+00  0.000000e+00
   outer loop
     vertex  4.761905e-01 -1.592265e-01 -3.316010e-01
     vertex  4.761905e-01 -1.824176e-01 -3.355470e-01
     vertex  4.761905e-01 -1.455307e-01 -4.249019e-01
   endloop
 endfacet
 facet normal  1.000000e+00  0.000000e+00  0.000000e+00
   outer loop
     vertex  4.761905e-01 -1.370258e-01 -3.238209e-01
     vertex  4.761905e-01 -1.592265e-01 -3.316010e-01
     vertex  4.761905e-01 -1.166986e-01 -4.174991e-01
   endloop
 endfacet
 facet normal  1.000000e+00  0.000000e+00  0.000000e+00
   outer loop
     vertex  4.761905e-01 -1.370258e-01 -3.238209e-01
     vertex  4.761905e-01 -1.166986e-01 -4.174991e-01
     vertex  4.761905e-01 -8.902156e-02 -4.065410e-01
   endloop
 endfacet
 facet normal  1.000000e+00  0.000000e+00  0.000000e+00
   outer loop
     vertex  4.761905e-01 -1.164447e-01 -3.124271e-01
     vertex  4.761905e-01 -1.370258e-01 -3.238209e-01
     vertex  4.761905e-01 -8.902156e-02 -4.065410e-01
   endloop
 endfacet
 facet normal  1.000000e+00  0.000000e+00  0.000000e+00
   outer loop
     vertex  4.761905e-01 -1.164447e-01 -3.124271e-01
     vertex  4.761905e-01 -8.902156e-02 -4.065410e-01
     vertex  4.761905e-01 -6.293623e-02 -3.922005e-01
   endloop
 endfacet
 facet normal  1.000000e+00  0.000000e+00  0.000000e+00
   outer loop
     vertex  4.761905e-01 -3.885392e-02 -3.747036e-01
     vertex  4.761905e-01 -1.164447e-01 -3.124271e-01
     vertex  4.761905e-01 -6.293623e-02 -3.922005e-01
   endloop
 endfacet
 facet normal  1.000000e+00  0.000000e+00  0.000000e+00
   outer loop
     vertex  4.761905e-01 -9.806644e-02 -2.977425e-01
     vertex  4.761905e-01 -1.164447e-01 -3.124271e-01
     vertex  4.761905e-01 -3.885392e-02 -3.747036e-01
   endloop
 endfacet
 facet normal  1.000000e+00  0.000000e+00  0.000000e+00
   outer loop
     vertex  4.761905e-01 -1.715445e-02 -3.543265e-01
     vertex  4.761905e-01 -9.806644e-02 -2.977425e-01
     vertex  4.761905e-01 -3.885392e-02 -3.747036e-01
   endloop
 endfacet
 facet normal  1.000000e+00  0.000000e+00  0.000000e+00
   outer loop
     vertex  4.761905e-01 -8.241173e-02 -2.801832e-01
     vertex  4.761905e-01 -9.806644e-02 -2.977425e-01
     vertex  4.761905e-01 -1.715445e-02 -3.543265e-01
   endloop
 endfacet
 facet normal  1.000000e+00  0.000000e+00  0.000000e+00
   outer loop
     vertex  4.761905e-01  1.819977e-03 -3.313903e-01
     vertex  4.761905e-01 -8.241173e-02 -2.801832e-01
     vertex  4.761905e-01 -1.715445e-02 -3.543265e-01
   endloop
 endfacet
 facet normal  1.000000e+00  0.000000e+00  0.000000e+00
   outer loop
     vertex  4.761905e-01  1.819977e-03 -3.313903e-01
     vertex  4.761905e-01 -6.992420e-02 -2.602467e-01
     vertex  4.761905e-01 -8.241173e-02 -2.801832e-01
   endloop
 endfacet
 facet normal  1.000000e+00  0.000000e+00  0.000000e+00
   outer loop
     vertex  4.761905e-01  1.777013e-02 -3.062569e-01
     vertex  4.761905e-01 -6.992420e-02 -2.602467e-01
     vertex  4.761905e-01  1.819977e-03 -3.313903e-01
   endloop
 endfacet
 facet normal  1.000000e+00  0.000000e+00  0.000000e+00
   outer loop
     vertex  4.761905e-01  3.044445e-02 -2.793226e-01
     vertex  4.761905e-01 -6.992420e-02 -2.602467e-01
     vertex  4.761905e-01  1.777013e-02 -3.062569e-01
   endloop
 endfacet
 facet normal  1.000000e+00  0.000000e+00  0.000000e+00
   outer loop
     vertex  4.761905e-01  3.044445e-02 -2.793226e-01
     vertex  4.761905e-01 -6.095773e-02 -2.384981e-01
     vertex  4.761905e-01 -6.992420e-02 -2.602467e-01
   endloop
 endfacet
 facet normal  1.000000e+00  0.000000e+00  0.000000e+00
   outer loop
     vertex  4.761905e-01  3.964307e-02 -2.510121e-01
     vertex  4.761905e-01 -5.576639e-02 -2.155536e-01
     vertex  4.761905e-01 -6.095773e-02 -2.384981e-01
   endloop
 endfacet
 facet normal  1.000000e+00  0.000000e+00  0.000000e+00
   outer loop
     vertex  4.761905e-01  3.964307e-02 -2.510121e-01
     vertex  4.761905e-01 -6.095773e-02 -2.384981e-01
     vertex  4.761905e-01  3.044445e-02 -2.793226e-01
   endloop
 endfacet
 facet normal  1.000000e+00  0.000000e+00  0.000000e+00
   outer loop
     vertex  4.761905e-01  4.522091e-02 -2.217720e-01
     vertex  4.761905e-01 -5.449730e-02 -1.920634e-01
     vertex  4.761905e-01 -5.576639e-02 -2.155536e-01
   endloop
 endfacet
 facet normal  1.000000e+00  0.000000e+00  0.000000e+00
   outer loop
     vertex  4.761905e-01  4.522091e-02 -2.217720e-01
     vertex  4.761905e-01 -5.576639e-02 -2.155536e-01
     vertex  4.761905e-01  3.964307e-02 -2.510121e-01
   endloop
 endfacet
 facet normal  1.000000e+00  0.000000e+00  0.000000e+00
   outer loop
     vertex  4.761905e-01  4.709001e-02 -1.920634e-01
     vertex  4.761905e-01 -5.449730e-02 -1.920634e-01
     vertex  4.761905e-01  4.522091e-02 -2.217720e-01
   endloop
 endfacet
 facet normal  0.000000e+00  0.000000e+00  1.000000e+00
   outer loop
     vertex  3.768959e-01  0.000000e+00 -1.920634e-01
     vertex -5.079365e-01  4.709001e-02 -1.920634e-01
     vertex -5.079365e-01  0.000000e+00 -1.920634e-01
   endloop
 endfacet
 facet normal  0.000000e+00  0.000000e+00  1.000000e+00
   outer loop
     vertex  4.761905e-01 -5.449730e-02 -1.920634e-01
     vertex  3.768959e-01  0.000000e+00 -1.920634e-01
     vertex  3.768959e-01 -1.587302e-02 -1.920634e-01
   endloop
 endfacet
 facet normal  0.000000e+00  0.000000e+00  1.000000e+00
   outer loop
     vertex  4.761905e-01 -5.449730e-02 -1.920634e-01
     vertex  3.768959e-01 -1.587302e-02 -1.920634e-01
     vertex  3.768959e-01 -5.449730e-02 -1.920634e-01
   endloop
 endfacet
 facet normal  0.000000e+00 -0.000000e+00  1.000000e+00
   outer loop
     vertex  4.761905e-01 -5.449730e-02 -1.920634e-01
     vertex  4.761905e-01  4.709001e-02 -1.920634e-01
     vertex  3.768959e-01  0.000000e+00 -1.920634e-01
   endloop
 endfacet
 facet normal  0.000000e+00  0.000000e+00  1.000000e+00
   outer loop
     vertex  4.761905e-01  4.709001e-02 -1.920634e-01
     vertex -5.079365e-01  4.709001e-02 -1.920634e-01
     vertex  3.768959e-01  0.000000e+00 -1.920634e-01
   endloop
 endfacet
 facet normal -1.000000e+00  0.000000e+00  0.000000e+00
   outer loop
     vertex -5.079365e-01  0.000000e+00 -1.920634e-01
     vertex -5.079365e-01  1.657618e-02 -3.084023e-01
     vertex -5.079365e-01  2.775558e-17 -3.338615e-01
   endloop
 endfacet
 facet normal -1.000000e+00  0.000000e+00  0.000000e+00
   outer loop
     vertex -5.079365e-01  0.000000e+00 -1.920634e-01
     vertex -5.079365e-01  2.975993e-02 -2.810321e-01
     vertex -5.079365e-01  1.657618e-02 -3.084023e-01
   endloop
 endfacet
 facet normal -1.000000e+00  0.000000e+00  0.000000e+00
   outer loop
     vertex -5.079365e-01  0.000000e+00 -1.920634e-01
     vertex -5.079365e-01  3.933469e-02 -2.522004e-01
     vertex -5.079365e-01  2.975993e-02 -2.810321e-01
   endloop
 endfacet
 facet normal -1.000000e+00 -0.000000e+00  0.000000e+00
   outer loop
     vertex -5.079365e-01  4.514319e-02 -2.223809e-01
     vertex -5.079365e-01  3.933469e-02 -2.522004e-01
     vertex -5.079365e-01  0.000000e+00 -1.920634e-01
   endloop
 endfacet
 facet normal -1.000000e+00 -0.000000e+00  0.000000e+00
   outer loop
     vertex -5.079365e-01  4.709001e-02 -1.920634e-01
     vertex -5.079365e-01  4.514319e-02 -2.223809e-01
     vertex -5.079365e-01  0.000000e+00 -1.920634e-01
   endloop
 endfacet
 facet normal  0.000000e+00 -0.000000e+00  1.000000e+00
   outer loop
     vertex  4.761905e-01 -4.269841e-01 -1.920634e-01
     vertex  4.761905e-01 -3.338624e-01 -1.920634e-01
     vertex -5.079365e-01 -3.338624e-01 -1.920634e-01
   endloop
 endfacet
 facet normal  0.000000e+00  0.000000e+00  1.000000e+00
   outer loop
     vertex  4.761905e-01 -4.269841e-01 -1.920634e-01
     vertex -5.079365e-01 -3.338624e-01 -1.920634e-01
     vertex -5.079365e-01 -4.269841e-01 -1.920634e-01
   endloop
 endfacet
 facet normal  0.000000e+00 -9.986656e-01  5.164363e-02
   outer loop
     vertex  3.768959e-01 -5.567899e-02 -2.149146e-01
     vertex  4.761905e-01 -5.449730e-02 -1.920634e-01
     vertex  3.768959e-01 -5.449730e-02 -1.920634e-01
   endloop
 endfacet
 facet normal -5.317564e-04 -9.985436e-01  5.394795e-02
   outer loop
     vertex  4.761905e-01 -5.576639e-02 -2.155536e-01
     vertex  4.761905e-01 -5.449730e-02 -1.920634e-01
     vertex  3.768959e-01 -5.567899e-02 -2.149146e-01
   endloop
 endfacet
 facet normal  5.168172e-04 -9.768508e-01  2.139212e-01
   outer loop
     vertex  3.768959e-01 -6.057388e-02 -2.372667e-01
     vertex  4.761905e-01 -5.576639e-02 -2.155536e-01
     vertex  3.768959e-01 -5.567899e-02 -2.149146e-01
   endloop
 endfacet
 facet normal -1.033631e-03 -9.753461e-01  2.206783e-01
   outer loop
     vertex  4.761905e-01 -6.095773e-02 -2.384981e-01
     vertex  4.761905e-01 -5.576639e-02 -2.155536e-01
     vertex  3.768959e-01 -6.057388e-02 -2.372667e-01
   endloop
 endfacet
 facet normal  1.003748e-03 -9.288465e-01  3.704634e-01
   outer loop
     vertex  3.768959e-01 -6.905073e-02 -2.585203e-01
     vertex  4.761905e-01 -6.095773e-02 -2.384981e-01
     vertex  3.768959e-01 -6.057388e-02 -2.372667e-01
   endloop
 endfacet
 facet normal -1.505614e-03 -9.245099e-01  3.811550e-01
   outer loop
     vertex  4.761905e-01 -6.992420e-02 -2.602467e-01
     vertex  4.761905e-01 -6.095773e-02 -2.384981e-01
     vertex  3.768959e-01 -6.905073e-02 -2.585203e-01
   endloop
 endfacet
 facet normal  1.460781e-03 -8.559399e-01  5.170733e-01
   outer loop
     vertex  3.768959e-01 -8.088228e-02 -2.781057e-01
     vertex  4.761905e-01 -6.992420e-02 -2.602467e-01
     vertex  3.768959e-01 -6.905073e-02 -2.585203e-01
   endloop
 endfacet
 facet normal -1.947694e-03 -8.474757e-01  5.308306e-01
   outer loop
     vertex  4.761905e-01 -8.241173e-02 -2.801832e-01
     vertex  4.761905e-01 -6.992420e-02 -2.602467e-01
     vertex  3.768959e-01 -8.088228e-02 -2.781057e-01
   endloop
 endfacet
 facet normal  1.887906e-03 -7.600856e-01  6.498203e-01
   outer loop
     vertex  3.768959e-01 -9.575132e-02 -2.954978e-01
     vertex  4.761905e-01 -8.241173e-02 -2.801832e-01
     vertex  3.768959e-01 -8.088228e-02 -2.781057e-01
   endloop
 endfacet
 facet normal -2.359862e-03 -7.464265e-01  6.654637e-01
   outer loop
     vertex  4.761905e-01 -9.806644e-02 -2.977425e-01
     vertex  4.761905e-01 -8.241173e-02 -2.801832e-01
     vertex  3.768959e-01 -9.575132e-02 -2.954978e-01
   endloop
 endfacet
 facet normal  2.285116e-03 -6.438535e-01  7.651454e-01
   outer loop
     vertex  3.768959e-01 -1.132592e-01 -3.102303e-01
     vertex  4.761905e-01 -9.806644e-02 -2.977425e-01
     vertex  3.768959e-01 -9.575132e-02 -2.954978e-01
   endloop
 endfacet
 facet normal -2.742109e-03 -6.242258e-01  7.812391e-01
   outer loop
     vertex  4.761905e-01 -1.164447e-01 -3.124271e-01
     vertex  4.761905e-01 -9.806644e-02 -2.977425e-01
     vertex  3.768959e-01 -1.132592e-01 -3.102303e-01
   endloop
 endfacet
 facet normal  2.652400e-03 -5.103600e-01  8.599568e-01
   outer loop
     vertex  3.768959e-01 -1.329366e-01 -3.219083e-01
     vertex  4.761905e-01 -1.164447e-01 -3.124271e-01
     vertex  3.768959e-01 -1.132592e-01 -3.102303e-01
   endloop
 endfacet
 facet normal -3.094427e-03 -4.843366e-01  8.748763e-01
   outer loop
     vertex  4.761905e-01 -1.370258e-01 -3.238209e-01
     vertex  4.761905e-01 -1.164447e-01 -3.124271e-01
     vertex  3.768959e-01 -1.329366e-01 -3.219083e-01
   endloop
 endfacet
 facet normal  2.989752e-03 -3.631840e-01  9.317126e-01
   outer loop
     vertex  3.768959e-01 -1.542559e-01 -3.302186e-01
     vertex  4.761905e-01 -1.370258e-01 -3.238209e-01
     vertex  3.768959e-01 -1.329366e-01 -3.219083e-01
   endloop
 endfacet
 facet normal -3.416809e-03 -3.307230e-01  9.437217e-01
   outer loop
     vertex  4.761905e-01 -1.592265e-01 -3.316010e-01
     vertex  4.761905e-01 -1.370258e-01 -3.238209e-01
     vertex  3.768959e-01 -1.542559e-01 -3.302186e-01
   endloop
 endfacet
 facet normal  3.297164e-03 -2.062714e-01  9.784893e-01
   outer loop
     vertex  3.768959e-01 -1.766455e-01 -3.349385e-01
     vertex  4.761905e-01 -1.592265e-01 -3.316010e-01
     vertex  3.768959e-01 -1.542559e-01 -3.302186e-01
   endloop
 endfacet
 facet normal -3.709248e-03 -1.677379e-01  9.858246e-01
   outer loop
     vertex  4.761905e-01 -1.824176e-01 -3.355470e-01
     vertex  4.761905e-01 -1.592265e-01 -3.316010e-01
     vertex  3.768959e-01 -1.766455e-01 -3.349385e-01
   endloop
 endfacet
 facet normal  3.574630e-03 -4.382898e-02  9.990327e-01
   outer loop
     vertex  3.768959e-01 -1.995053e-01 -3.359414e-01
     vertex  4.761905e-01 -1.824176e-01 -3.355470e-01
     vertex  3.768959e-01 -1.766455e-01 -3.349385e-01
   endloop
 endfacet
 facet normal -3.971738e-03  0.000000e+00  9.999921e-01
   outer loop
     vertex  4.761905e-01 -2.059421e-01 -3.355470e-01
     vertex  4.761905e-01 -1.824176e-01 -3.355470e-01
     vertex  3.768959e-01 -1.995053e-01 -3.359414e-01
   endloop
 endfacet
 facet normal  1.722300e-16  2.761278e-01  9.611209e-01
   outer loop
     vertex  3.768959e-01 -2.222223e-01 -3.332004e-01
     vertex -5.079365e-01 -2.222223e-01 -3.332004e-01
     vertex -5.079365e-01 -2.430803e-01 -3.272079e-01
   endloop
 endfacet
 facet normal  3.822145e-03  1.197882e-01  9.927921e-01
   outer loop
     vertex  3.768959e-01 -2.222223e-01 -3.332004e-01
     vertex  4.761905e-01 -2.059421e-01 -3.355470e-01
     vertex  3.768959e-01 -1.995053e-01 -3.359414e-01
   endloop
 endfacet
 facet normal  9.554830e-04  2.384754e-01  9.711481e-01
   outer loop
     vertex  4.761905e-01 -2.291332e-01 -3.316010e-01
     vertex  3.768959e-01 -2.222223e-01 -3.332004e-01
     vertex -5.079365e-01 -2.430803e-01 -3.272079e-01
   endloop
 endfacet
 facet normal -4.204274e-03  1.677376e-01  9.858227e-01
   outer loop
     vertex  4.761905e-01 -2.291332e-01 -3.316010e-01
     vertex  4.761905e-01 -2.059421e-01 -3.355470e-01
     vertex  3.768959e-01 -2.222223e-01 -3.332004e-01
   endloop
 endfacet
 facet normal  4.150451e-04  4.216037e-01  9.067801e-01
   outer loop
     vertex  4.761905e-01 -2.513339e-01 -3.238209e-01
     vertex -5.079365e-01 -2.430803e-01 -3.272079e-01
     vertex -5.079365e-01 -2.627591e-01 -3.180584e-01
   endloop
 endfacet
 facet normal -4.742865e-04  3.307249e-01  9.437271e-01
   outer loop
     vertex  4.761905e-01 -2.513339e-01 -3.238209e-01
     vertex  4.761905e-01 -2.291332e-01 -3.316010e-01
     vertex -5.079365e-01 -2.430803e-01 -3.272079e-01
   endloop
 endfacet
 facet normal  4.286668e-04  5.569121e-01  8.305713e-01
   outer loop
     vertex  4.761905e-01 -2.719150e-01 -3.124271e-01
     vertex -5.079365e-01 -2.627591e-01 -3.180584e-01
     vertex -5.079365e-01 -2.807839e-01 -3.059724e-01
   endloop
 endfacet
 facet normal -5.000649e-04  4.843389e-01  8.748803e-01
   outer loop
     vertex  4.761905e-01 -2.719150e-01 -3.124271e-01
     vertex  4.761905e-01 -2.513339e-01 -3.238209e-01
     vertex -5.079365e-01 -2.627591e-01 -3.180584e-01
   endloop
 endfacet
 facet normal -5.015293e-04  6.242281e-01  7.812420e-01
   outer loop
     vertex  4.761905e-01 -2.902933e-01 -2.977425e-01
     vertex  4.761905e-01 -2.719150e-01 -3.124271e-01
     vertex -5.079365e-01 -2.807839e-01 -3.059724e-01
   endloop
 endfacet
 facet normal  4.179739e-04  6.787900e-01  7.343324e-01
   outer loop
     vertex  4.761905e-01 -2.902933e-01 -2.977425e-01
     vertex -5.079365e-01 -2.807839e-01 -3.059724e-01
     vertex -5.079365e-01 -2.967203e-01 -2.912414e-01
   endloop
 endfacet
 facet normal -4.786795e-04  7.464285e-01  6.654655e-01
   outer loop
     vertex  4.761905e-01 -3.059480e-01 -2.801832e-01
     vertex  4.761905e-01 -2.902933e-01 -2.977425e-01
     vertex -5.079365e-01 -2.967203e-01 -2.912414e-01
   endloop
 endfacet
 facet normal  3.829682e-04  7.842980e-01  6.203841e-01
   outer loop
     vertex  4.761905e-01 -3.059480e-01 -2.801832e-01
     vertex -5.079365e-01 -2.967203e-01 -2.912414e-01
     vertex -5.079365e-01 -3.101837e-01 -2.742208e-01
   endloop
 endfacet
 facet normal -4.315195e-04  8.474772e-01  5.308316e-01
   outer loop
     vertex  4.761905e-01 -3.184355e-01 -2.602467e-01
     vertex  4.761905e-01 -3.059480e-01 -2.801832e-01
     vertex -5.079365e-01 -3.101837e-01 -2.742208e-01
   endloop
 endfacet
 facet normal  3.236558e-04  8.708919e-01  4.914746e-01
   outer loop
     vertex  4.761905e-01 -3.184355e-01 -2.602467e-01
     vertex -5.079365e-01 -3.101837e-01 -2.742208e-01
     vertex -5.079365e-01 -3.208496e-01 -2.553209e-01
   endloop
 endfacet
 facet normal -3.600571e-04  9.245109e-01  3.811554e-01
   outer loop
     vertex  4.761905e-01 -3.274020e-01 -2.384981e-01
     vertex  4.761905e-01 -3.184355e-01 -2.602467e-01
     vertex -5.079365e-01 -3.208496e-01 -2.553209e-01
   endloop
 endfacet
 facet normal  2.400467e-04  9.364831e-01  3.507126e-01
   outer loop
     vertex  4.761905e-01 -3.274020e-01 -2.384981e-01
     vertex -5.079365e-01 -3.208496e-01 -2.553209e-01
     vertex -5.079365e-01 -3.284607e-01 -2.349975e-01
   endloop
 endfacet
 facet normal -2.643049e-04  9.753466e-01  2.206784e-01
   outer loop
     vertex  4.761905e-01 -3.325933e-01 -2.155536e-01
     vertex  4.761905e-01 -3.274020e-01 -2.384981e-01
     vertex -5.079365e-01 -3.284607e-01 -2.349975e-01
   endloop
 endfacet
 facet normal  1.321553e-04  9.794900e-01  2.014927e-01
   outer loop
     vertex  4.761905e-01 -3.325933e-01 -2.155536e-01
     vertex -5.079365e-01 -3.284607e-01 -2.349975e-01
     vertex -5.079365e-01 -3.328334e-01 -2.137408e-01
   endloop
 endfacet
 facet normal -1.442790e-04  9.985437e-01  5.394796e-02
   outer loop
     vertex  4.761905e-01 -3.338624e-01 -1.920634e-01
     vertex  4.761905e-01 -3.325933e-01 -2.155536e-01
     vertex -5.079365e-01 -3.328334e-01 -2.137408e-01
   endloop
 endfacet
 facet normal  0.000000e+00  9.988753e-01  4.741361e-02
   outer loop
     vertex  4.761905e-01 -3.338624e-01 -1.920634e-01
     vertex -5.079365e-01 -3.328334e-01 -2.137408e-01
     vertex -5.079365e-01 -3.338624e-01 -1.920634e-01
   endloop
 endfacet
 facet normal -1.000000e+00  0.000000e+00  0.000000e+00
   outer loop
     vertex -5.712523e-01 -1.587302e-02 -7.072307e-02
     vertex -5.712523e-01 -2.222223e-01  3.835979e-01
     vertex -5.712523e-01 -1.587302e-02  3.835979e-01
   endloop
 endfacet
 facet normal -1.000000e+00  0.000000e+00  0.000000e+00
   outer loop
     vertex -5.712523e-01 -1.587302e-02 -7.072307e-02
     vertex -5.712523e-01 -2.222223e-01 -7.072307e-02
     vertex -5.712523e-01 -2.222223e-01  3.835979e-01
   endloop
 endfacet
 facet normal -0.000000e+00  0.000000e+00  1.000000e+00
   outer loop
     vertex -5.712523e-01 -1.587302e-02  3.835979e-01
     vertex -3.539683e-01 -2.222223e-01  3.835979e-01
     vertex -3.539683e-01 -1.587302e-02  3.835979e-01
   endloop
 endfacet
 facet normal  0.000000e+00  0.000000e+00  1.000000e+00
   outer loop
     vertex -5.712523e-01 -1.587302e-02  3.835979e-01
     vertex -5.712523e-01 -2.222223e-01  3.835979e-01
     vertex -3.539683e-01 -2.222223e-01  3.835979e-01
   endloop
 endfacet
 facet normal  1.000000e+00  0.000000e+00  0.000000e+00
   outer loop
     vertex -3.539683e-01 -1.587302e-02  3.835979e-01
     vertex -3.539683e-01 -2.222223e-01  1.860671e-01
     vertex -3.539683e-01 -1.587302e-02  1.860671e-01
   endloop
 endfacet
 facet normal  1.000000e+00  0.000000e+00  0.000000e+00
   outer loop
     vertex -3.539683e-01 -1.587302e-02  3.835979e-01
     vertex -3.539683e-01 -2.222223e-01  3.835979e-01
     vertex -3.539683e-01 -2.222223e-01  1.860671e-01
   endloop
 endfacet
 facet normal -0.000000e+00  0.000000e+00  1.000000e+00
   outer loop
     vertex -3.539683e-01 -1.587302e-02  1.860671e-01
     vertex  1.398589e-01 -2.222223e-01  1.860671e-01
     vertex  1.398589e-01 -1.587302e-02  1.860671e-01
   endloop
 endfacet
 facet normal  0.000000e+00  0.000000e+00  1.000000e+00
   outer loop
     vertex -3.539683e-01 -1.587302e-02  1.860671e-01
     vertex -3.539683e-01 -2.222223e-01  1.860671e-01
     vertex  1.398589e-01 -2.222223e-01  1.860671e-01
   endloop
 endfacet
 facet normal -1.000000e+00  0.000000e+00  0.000000e+00
   outer loop
     vertex  1.398589e-01 -1.587302e-02  1.860671e-01
     vertex  1.398589e-01 -2.222223e-01  3.835979e-01
     vertex  1.398589e-01 -1.587302e-02  3.835979e-01
   endloop
 endfacet
 facet normal -1.000000e+00  0.000000e+00  0.000000e+00
   outer loop
     vertex  1.398589e-01 -1.587302e-02  1.860671e-01
     vertex  1.398589e-01 -2.222223e-01  1.860671e-01
     vertex  1.398589e-01 -2.222223e-01  3.835979e-01
   endloop
 endfacet
 facet normal -0.000000e+00  0.000000e+00  1.000000e+00
   outer loop
     vertex  1.398589e-01 -1.587302e-02  3.835979e-01
     vertex  3.768959e-01 -2.222223e-01  3.835979e-01
     vertex  3.768959e-01 -1.587302e-02  3.835979e-01
   endloop
 endfacet
 facet normal  0.000000e+00  0.000000e+00  1.000000e+00
   outer loop
     vertex  1.398589e-01 -1.587302e-02  3.835979e-01
     vertex  1.398589e-01 -2.222223e-01  3.835979e-01
     vertex  3.768959e-01 -2.222223e-01  3.835979e-01
   endloop
 endfacet
 facet normal  1.000000e+00  0.000000e+00  0.000000e+00
   outer loop
     vertex  3.768959e-01 -5.449730e-02 -1.920634e-01
     vertex  3.768959e-01 -2.222223e-01 -3.332004e-01
     vertex  3.768959e-01 -1.995053e-01 -3.359414e-01
   endloop
 endfacet
 facet normal  1.000000e+00  0.000000e+00  0.000000e+00
   outer loop
     vertex  3.768959e-01 -5.449730e-02 -1.920634e-01
     vertex  3.768959e-01 -1.995053e-01 -3.359414e-01
     vertex  3.768959e-01 -1.766455e-01 -3.349385e-01
   endloop
 endfacet
 facet normal  1.000000e+00  0.000000e+00  0.000000e+00
   outer loop
     vertex  3.768959e-01 -5.449730e-02 -1.920634e-01
     vertex  3.768959e-01 -1.766455e-01 -3.349385e-01
     vertex  3.768959e-01 -1.542559e-01 -3.302186e-01
   endloop
 endfacet
 facet normal  1.000000e+00  0.000000e+00  0.000000e+00
   outer loop
     vertex  3.768959e-01 -5.449730e-02 -1.920634e-01
     vertex  3.768959e-01 -1.542559e-01 -3.302186e-01
     vertex  3.768959e-01 -1.329366e-01 -3.219083e-01
   endloop
 endfacet
 facet normal  1.000000e+00  0.000000e+00  0.000000e+00
   outer loop
     vertex  3.768959e-01 -5.449730e-02 -1.920634e-01
     vertex  3.768959e-01 -1.329366e-01 -3.219083e-01
     vertex  3.768959e-01 -1.132592e-01 -3.102303e-01
   endloop
 endfacet
 facet normal  1.000000e+00  0.000000e+00  0.000000e+00
   outer loop
     vertex  3.768959e-01 -5.449730e-02 -1.920634e-01
     vertex  3.768959e-01 -1.132592e-01 -3.102303e-01
     vertex  3.768959e-01 -9.575132e-02 -2.954978e-01
   endloop
 endfacet
 facet normal  1.000000e+00  0.000000e+00  0.000000e+00
   outer loop
     vertex  3.768959e-01 -5.449730e-02 -1.920634e-01
     vertex  3.768959e-01 -9.575132e-02 -2.954978e-01
     vertex  3.768959e-01 -8.088228e-02 -2.781057e-01
   endloop
 endfacet
 facet normal  1.000000e+00  0.000000e+00  0.000000e+00
   outer loop
     vertex  3.768959e-01 -5.449730e-02 -1.920634e-01
     vertex  3.768959e-01 -8.088228e-02 -2.781057e-01
     vertex  3.768959e-01 -6.905073e-02 -2.585203e-01
   endloop
 endfacet
 facet normal  1.000000e+00  0.000000e+00  0.000000e+00
   outer loop
     vertex  3.768959e-01 -5.449730e-02 -1.920634e-01
     vertex  3.768959e-01 -6.905073e-02 -2.585203e-01
     vertex  3.768959e-01 -6.057388e-02 -2.372667e-01
   endloop
 endfacet
 facet normal  1.000000e+00  0.000000e+00  0.000000e+00
   outer loop
     vertex  3.768959e-01 -5.449730e-02 -1.920634e-01
     vertex  3.768959e-01 -6.057388e-02 -2.372667e-01
     vertex  3.768959e-01 -5.567899e-02 -2.149146e-01
   endloop
 endfacet
 facet normal  1.000000e+00  0.000000e+00  0.000000e+00
   outer loop
     vertex  3.768959e-01 -2.222223e-01  3.835979e-01
     vertex  3.768959e-01 -2.222223e-01 -3.332004e-01
     vertex  3.768959e-01 -5.449730e-02 -1.920634e-01
   endloop
 endfacet
 facet normal  1.000000e+00  0.000000e+00  0.000000e+00
   outer loop
     vertex  3.768959e-01 -1.587302e-02  3.835979e-01
     vertex  3.768959e-01 -5.449730e-02 -1.920634e-01
     vertex  3.768959e-01 -1.587302e-02 -1.920634e-01
   endloop
 endfacet
 facet normal  1.000000e+00  0.000000e+00  0.000000e+00
   outer loop
     vertex  3.768959e-01 -1.587302e-02  3.835979e-01
     vertex  3.768959e-01 -2.222223e-01  3.835979e-01
     vertex  3.768959e-01 -5.449730e-02 -1.920634e-01
   endloop
 endfacet
 facet normal -1.000000e+00  0.000000e+00  0.000000e+00
   outer loop
     vertex -5.712523e-01 -1.587302e-02 -7.072307e-02
     vertex -5.712523e-01 -1.587302e-02  3.835979e-01
     vertex -5.712523e-01  0.000000e+00  3.835979e-01
   endloop
 endfacet
 facet normal -1.000000e+00  0.000000e+00  0.000000e+00
   outer loop
     vertex -5.712523e-01 -1.587302e-02 -7.072307e-02
     vertex -5.712523e-01  0.000000e+00  3.835979e-01
     vertex -5.712523e-01  0.000000e+00 -7.072307e-02
   endloop
 endfacet
 facet normal  0.000000e+00  0.000000e+00  1.000000e+00
   outer loop
     vertex -5.712523e-01 -1.587302e-02  3.835979e-01
     vertex -3.539683e-01 -1.587302e-02  3.835979e-01
     vertex -3.539683e-01  0.000000e+00  3.835979e-01
   endloop
 endfacet
 facet normal  0.000000e+00  0.000000e+00  1.000000e+00
   outer loop
     vertex -5.712523e-01 -1.587302e-02  3.835979e-01
     vertex -3.539683e-01  0.000000e+00  3.835979e-01
     vertex -5.712523e-01  0.000000e+00  3.835979e-01
   endloop
 endfacet
 facet normal  1.000000e+00  0.000000e+00  0.000000e+00
   outer loop
     vertex -3.539683e-01 -1.587302e-02  3.835979e-01
     vertex -3.539683e-01 -1.587302e-02  1.860671e-01
     vertex -3.539683e-01  0.000000e+00  1.860671e-01
   endloop
 endfacet
 facet normal  1.000000e+00 -0.000000e+00  0.000000e+00
   outer loop
     vertex -3.539683e-01 -1.587302e-02  3.835979e-01
     vertex -3.539683e-01  0.000000e+00  1.860671e-01
     vertex -3.539683e-01  0.000000e+00  3.835979e-01
   endloop
 endfacet
 facet normal  0.000000e+00  0.000000e+00  1.000000e+00
   outer loop
     vertex -3.539683e-01 -1.587302e-02  1.860671e-01
     vertex  1.398589e-01 -1.587302e-02  1.860671e-01
     vertex  1.398589e-01  0.000000e+00  1.860671e-01
   endloop
 endfacet
 facet normal  0.000000e+00  0.000000e+00  1.000000e+00
   outer loop
     vertex -3.539683e-01 -1.587302e-02  1.860671e-01
     vertex  1.398589e-01  0.000000e+00  1.860671e-01
     vertex -3.539683e-01  0.000000e+00  1.860671e-01
   endloop
 endfacet
 facet normal -1.000000e+00  0.000000e+00  0.000000e+00
   outer loop
     vertex  1.398589e-01 -1.587302e-02  1.860671e-01
     vertex  1.398589e-01 -1.587302e-02  3.835979e-01
     vertex  1.398589e-01  0.000000e+00  3.835979e-01
   endloop
 endfacet
 facet normal -1.000000e+00  0.000000e+00  0.000000e+00
   outer loop
     vertex  1.398589e-01 -1.587302e-02  1.860671e-01
     vertex  1.398589e-01  0.000000e+00  3.835979e-01
     vertex  1.398589e-01  0.000000e+00  1.860671e-01
   endloop
 endfacet
 facet normal  0.000000e+00  0.000000e+00  1.000000e+00
   outer loop
     vertex  1.398589e-01 -1.587302e-02  3.835979e-01
     vertex  3.768959e-01 -1.587302e-02  3.835979e-01
     vertex  3.768959e-01  0.000000e+00  3.835979e-01
   endloop
 endfacet
 facet normal  0.000000e+00  0.000000e+00  1.000000e+00
   outer loop
     vertex  1.398589e-01 -1.587302e-02  3.835979e-01
     vertex  3.768959e-01  0.000000e+00  3.835979e-01
     vertex  1.398589e-01  0.000000e+00  3.835979e-01
   endloop
 endfacet
 facet normal  1.000000e+00  0.000000e+00  0.000000e+00
   outer loop
     vertex  3.768959e-01 -1.587302e-02  3.835979e-01
     vertex  3.768959e-01 -1.587302e-02 -1.920634e-01
     vertex  3.768959e-01  0.000000e+00 -1.920634e-01
   endloop
 endfacet
 facet normal  1.000000e+00 -0.000000e+00  0.000000e+00
   outer loop
     vertex  3.768959e-01 -1.587302e-02  3.835979e-01
     vertex  3.768959e-01  0.000000e+00 -1.920634e-01
     vertex  3.768959e-01  0.000000e+00  3.835979e-01
   endloop
 endfacet
endsolid
