solid 
 facet normal  0.000000e+00  0.000000e+00 -1.000000e+00
   outer loop
     vertex  2.142858e-01  0.000000e+00 -3.444444e-01
     vertex -3.444444e-01  0.000000e+00 -3.444444e-01
     vertex -3.444444e-01  9.841270e-01 -3.444444e-01
   endloop
 endfacet
 facet normal  0.000000e+00  0.000000e+00 -1.000000e+00
   outer loop
     vertex  2.142858e-01  0.000000e+00 -3.444444e-01
     vertex -3.444444e-01  9.841270e-01 -3.444444e-01
     vertex  2.142858e-01  9.841270e-01 -3.444444e-01
   endloop
 endfacet
 facet normal -0.000000e+00 -1.000000e+00  0.000000e+00
   outer loop
     vertex -9.540716e-02  0.000000e+00 -1.112328e-01
     vertex -1.066095e-01  0.000000e+00 -1.013085e-01
     vertex -3.444444e-01  0.000000e+00 -3.444444e-01
   endloop
 endfacet
 facet normal  0.000000e+00 -1.000000e+00 -0.000000e+00
   outer loop
     vertex -1.151112e-01  0.000000e+00 -8.899160e-02
     vertex -3.444444e-01  0.000000e+00 -3.444444e-01
     vertex -1.066095e-01  0.000000e+00 -1.013085e-01
   endloop
 endfacet
 facet normal -0.000000e+00 -1.000000e+00  0.000000e+00
   outer loop
     vertex -8.215533e-02  0.000000e+00 -1.181879e-01
     vertex -9.540716e-02  0.000000e+00 -1.112328e-01
     vertex -3.444444e-01  0.000000e+00 -3.444444e-01
   endloop
 endfacet
 facet normal  0.000000e+00 -1.000000e+00 -0.000000e+00
   outer loop
     vertex -1.204182e-01  0.000000e+00 -7.499805e-02
     vertex -3.444444e-01  0.000000e+00 -3.444444e-01
     vertex -1.151112e-01  0.000000e+00 -8.899160e-02
   endloop
 endfacet
 facet normal -0.000000e+00 -1.000000e+00  0.000000e+00
   outer loop
     vertex -6.762411e-02  0.000000e+00 -1.217695e-01
     vertex -8.215533e-02  0.000000e+00 -1.181879e-01
     vertex -3.444444e-01  0.000000e+00 -3.444444e-01
   endloop
 endfacet
 facet normal  0.000000e+00 -1.000000e+00 -0.000000e+00
   outer loop
     vertex -1.222222e-01  0.000000e+00 -6.014106e-02
     vertex -3.444444e-01  0.000000e+00 -3.444444e-01
     vertex -1.204182e-01  0.000000e+00 -7.499805e-02
   endloop
 endfacet
 facet normal  0.000000e+00 -1.000000e+00  0.000000e+00
   outer loop
     vertex -3.444444e-01  0.000000e+00  2.142858e-01
     vertex -1.204182e-01  0.000000e+00 -4.528407e-02
     vertex -1.151112e-01  0.000000e+00 -3.129052e-02
   endloop
 endfacet
 facet normal  0.000000e+00 -1.000000e+00  0.000000e+00
   outer loop
     vertex -3.444444e-01  0.000000e+00  2.142858e-01
     vertex -1.222222e-01  0.000000e+00 -6.014106e-02
     vertex -1.204182e-01  0.000000e+00 -4.528407e-02
   endloop
 endfacet
 facet normal  0.000000e+00 -1.000000e+00  0.000000e+00
   outer loop
     vertex -3.444444e-01  0.000000e+00  2.142858e-01
     vertex -3.444444e-01  0.000000e+00 -3.444444e-01
     vertex -1.222222e-01  0.000000e+00 -6.014106e-02
   endloop
 endfacet
 facet normal  0.000000e+00 -1.000000e+00  0.000000e+00
   outer loop
     vertex  2.142858e-01  0.000000e+00 -3.444444e-01
     vertex -5.265801e-02  0.000000e+00 -1.217695e-01
     vertex -6.762411e-02  0.000000e+00 -1.217695e-01
   endloop
 endfacet
 facet normal  0.000000e+00 -1.000000e+00  0.000000e+00
   outer loop
     vertex  2.142858e-01  0.000000e+00 -3.444444e-01
     vertex -3.812679e-02  0.000000e+00 -1.181879e-01
     vertex -5.265801e-02  0.000000e+00 -1.217695e-01
   endloop
 endfacet
 facet normal  0.000000e+00 -1.000000e+00  0.000000e+00
   outer loop
     vertex  2.142858e-01  0.000000e+00 -3.444444e-01
     vertex -2.487496e-02  0.000000e+00 -1.112328e-01
     vertex -3.812679e-02  0.000000e+00 -1.181879e-01
   endloop
 endfacet
 facet normal  0.000000e+00 -1.000000e+00  0.000000e+00
   outer loop
     vertex  2.142858e-01  0.000000e+00 -3.444444e-01
     vertex -6.762411e-02  0.000000e+00 -1.217695e-01
     vertex -3.444444e-01  0.000000e+00 -3.444444e-01
   endloop
 endfacet
 facet normal -0.000000e+00 -1.000000e+00  0.000000e+00
   outer loop
     vertex -1.066095e-01  0.000000e+00 -1.897366e-02
     vertex -3.444444e-01  0.000000e+00  2.142858e-01
     vertex -1.151112e-01  0.000000e+00 -3.129052e-02
   endloop
 endfacet
 facet normal  0.000000e+00 -1.000000e+00 -0.000000e+00
   outer loop
     vertex -1.367267e-02  0.000000e+00 -1.013085e-01
     vertex -2.487496e-02  0.000000e+00 -1.112328e-01
     vertex  2.142858e-01  0.000000e+00 -3.444444e-01
   endloop
 endfacet
 facet normal -0.000000e+00 -1.000000e+00  0.000000e+00
   outer loop
     vertex -9.540716e-02  0.000000e+00 -9.049292e-03
     vertex -3.444444e-01  0.000000e+00  2.142858e-01
     vertex -1.066095e-01  0.000000e+00 -1.897366e-02
   endloop
 endfacet
 facet normal  0.000000e+00 -1.000000e+00 -0.000000e+00
   outer loop
     vertex -5.170949e-03  0.000000e+00 -8.899160e-02
     vertex -1.367267e-02  0.000000e+00 -1.013085e-01
     vertex  2.142858e-01  0.000000e+00 -3.444444e-01
   endloop
 endfacet
 facet normal -0.000000e+00 -1.000000e+00  0.000000e+00
   outer loop
     vertex -8.215533e-02  0.000000e+00 -2.094195e-03
     vertex -3.444444e-01  0.000000e+00  2.142858e-01
     vertex -9.540716e-02  0.000000e+00 -9.049292e-03
   endloop
 endfacet
 facet normal  0.000000e+00 -1.000000e+00 -0.000000e+00
   outer loop
     vertex  1.361054e-04  0.000000e+00 -7.499805e-02
     vertex -5.170949e-03  0.000000e+00 -8.899160e-02
     vertex  2.142858e-01  0.000000e+00 -3.444444e-01
   endloop
 endfacet
 facet normal -0.000000e+00 -1.000000e+00  0.000000e+00
   outer loop
     vertex -6.762411e-02  0.000000e+00  1.487429e-03
     vertex -3.444444e-01  0.000000e+00  2.142858e-01
     vertex -8.215533e-02  0.000000e+00 -2.094195e-03
   endloop
 endfacet
 facet normal  0.000000e+00 -1.000000e+00 -0.000000e+00
   outer loop
     vertex  1.940070e-03  0.000000e+00 -6.014106e-02
     vertex  1.361054e-04  0.000000e+00 -7.499805e-02
     vertex  2.142858e-01  0.000000e+00 -3.444444e-01
   endloop
 endfacet
 facet normal  0.000000e+00 -1.000000e+00  0.000000e+00
   outer loop
     vertex  2.142858e-01  0.000000e+00  2.142858e-01
     vertex  1.361054e-04  0.000000e+00 -4.528407e-02
     vertex  1.940070e-03  0.000000e+00 -6.014106e-02
   endloop
 endfacet
 facet normal  0.000000e+00 -1.000000e+00  0.000000e+00
   outer loop
     vertex  2.142858e-01  0.000000e+00  2.142858e-01
     vertex -5.170949e-03  0.000000e+00 -3.129052e-02
     vertex  1.361054e-04  0.000000e+00 -4.528407e-02
   endloop
 endfacet
 facet normal  0.000000e+00 -1.000000e+00  0.000000e+00
   outer loop
     vertex  2.142858e-01  0.000000e+00  2.142858e-01
     vertex -1.367267e-02  0.000000e+00 -1.897366e-02
     vertex -5.170949e-03  0.000000e+00 -3.129052e-02
   endloop
 endfacet
 facet normal  0.000000e+00 -1.000000e+00  0.000000e+00
   outer loop
     vertex  2.142858e-01  0.000000e+00  2.142858e-01
     vertex -2.487496e-02  0.000000e+00 -9.049292e-03
     vertex -1.367267e-02  0.000000e+00 -1.897366e-02
   endloop
 endfacet
 facet normal  0.000000e+00 -1.000000e+00  0.000000e+00
   outer loop
     vertex  2.142858e-01  0.000000e+00  2.142858e-01
     vertex -3.812679e-02  0.000000e+00 -2.094195e-03
     vertex -2.487496e-02  0.000000e+00 -9.049292e-03
   endloop
 endfacet
 facet normal  0.000000e+00 -1.000000e+00  0.000000e+00
   outer loop
     vertex  2.142858e-01  0.000000e+00  2.142858e-01
     vertex -5.265801e-02  0.000000e+00  1.487429e-03
     vertex -3.812679e-02  0.000000e+00 -2.094195e-03
   endloop
 endfacet
 facet normal  0.000000e+00 -1.000000e+00  0.000000e+00
   outer loop
     vertex  2.142858e-01  0.000000e+00  2.142858e-01
     vertex -6.762411e-02  0.000000e+00  1.487429e-03
     vertex -5.265801e-02  0.000000e+00  1.487429e-03
   endloop
 endfacet
 facet normal  0.000000e+00 -1.000000e+00 -0.000000e+00
   outer loop
     vertex  2.142858e-01  0.000000e+00  2.142858e-01
     vertex  1.940070e-03  0.000000e+00 -6.014106e-02
     vertex  2.142858e-01  0.000000e+00 -3.444444e-01
   endloop
 endfacet
 facet normal -0.000000e+00 -1.000000e+00  0.000000e+00
   outer loop
     vertex  2.142858e-01  0.000000e+00  2.142858e-01
     vertex -3.444444e-01  0.000000e+00  2.142858e-01
     vertex -6.762411e-02  0.000000e+00  1.487429e-03
   endloop
 endfacet
 facet normal  1.000000e+00  0.000000e+00  0.000000e+00
   outer loop
     vertex  2.142858e-01  0.000000e+00  2.142858e-01
     vertex  2.142858e-01  0.000000e+00 -3.444444e-01
     vertex  2.142858e-01  9.841270e-01 -3.444444e-01
   endloop
 endfacet
 facet normal  1.000000e+00 -0.000000e+00  0.000000e+00
   outer loop
     vertex  2.142858e-01  0.000000e+00  2.142858e-01
     vertex  2.142858e-01  9.841270e-01 -3.444444e-01
     vertex  2.142858e-01  9.841270e-01  2.142858e-01
   endloop
 endfacet
 facet normal  0.000000e+00  1.000000e+00  0.000000e+00
   outer loop
     vertex  2.142858e-01  9.841270e-01  2.142858e-01
     vertex  2.142858e-01  9.841270e-01 -3.444444e-01
     vertex -3.444444e-01  9.841270e-01 -3.444444e-01
   endloop
 endfacet
 facet normal  0.000000e+00  1.000000e+00  0.000000e+00
   outer loop
     vertex  2.142858e-01  9.841270e-01  2.142858e-01
     vertex -3.444444e-01  9.841270e-01 -3.444444e-01
     vertex -3.444444e-01  9.841270e-01  2.142858e-01
   endloop
 endfacet
 facet normal -1.000000e+00  0.000000e+00  0.000000e+00
   outer loop
     vertex -3.444444e-01  0.000000e+00 -3.444444e-01
     vertex -3.444444e-01  0.000000e+00  2.142858e-01
     vertex -3.444444e-01  9.841270e-01  2.142858e-01
   endloop
 endfacet
 facet normal -1.000000e+00  0.000000e+00  0.000000e+00
   outer loop
     vertex -3.444444e-01  0.000000e+00 -3.444444e-01
     vertex -3.444444e-01  9.841270e-01  2.142858e-01
     vertex -3.444444e-01  9.841270e-01 -3.444444e-01
   endloop
 endfacet
 facet normal  0.000000e+00  0.000000e+00  1.000000e+00
   outer loop
     vertex -3.444444e-01  0.000000e+00  2.142858e-01
     vertex  2.142858e-01  0.000000e+00  2.142858e-01
     vertex  2.142858e-01  9.841270e-01  2.142858e-01
   endloop
 endfacet
 facet normal  0.000000e+00  0.000000e+00  1.000000e+00
   outer loop
     vertex -3.444444e-01  0.000000e+00  2.142858e-01
     vertex  2.142858e-01  9.841270e-01  2.142858e-01
     vertex -3.444444e-01  9.841270e-01  2.142858e-01
   endloop
 endfacet
 facet normal  9.927089e-01  0.000000e+00  1.205367e-01
   outer loop
     vertex  1.361054e-04 -1.587302e-02 -4.528407e-02
     vertex  1.940070e-03 -1.587302e-02 -6.014106e-02
     vertex  1.940070e-03  0.000000e+00 -6.014106e-02
   endloop
 endfacet
 facet normal  9.927089e-01 -0.000000e+00  1.205367e-01
   outer loop
     vertex  1.361054e-04 -1.587302e-02 -4.528407e-02
     vertex  1.940070e-03  0.000000e+00 -6.014106e-02
     vertex  1.361054e-04  0.000000e+00 -4.528407e-02
   endloop
 endfacet
 facet normal  9.350162e-01 -0.000000e+00  3.546049e-01
   outer loop
     vertex -5.170949e-03 -1.587302e-02 -3.129052e-02
     vertex  1.361054e-04  0.000000e+00 -4.528407e-02
     vertex -5.170949e-03  0.000000e+00 -3.129052e-02
   endloop
 endfacet
 facet normal  9.350162e-01  0.000000e+00  3.546049e-01
   outer loop
     vertex -5.170949e-03 -1.587302e-02 -3.129052e-02
     vertex  1.361054e-04 -1.587302e-02 -4.528407e-02
     vertex  1.361054e-04  0.000000e+00 -4.528407e-02
   endloop
 endfacet
 facet normal  8.229839e-01 -0.000000e+00  5.680647e-01
   outer loop
     vertex -1.367267e-02 -1.587302e-02 -1.897366e-02
     vertex -5.170949e-03  0.000000e+00 -3.129052e-02
     vertex -1.367267e-02  0.000000e+00 -1.897366e-02
   endloop
 endfacet
 facet normal  8.229839e-01  0.000000e+00  5.680647e-01
   outer loop
     vertex -1.367267e-02 -1.587302e-02 -1.897366e-02
     vertex -5.170949e-03 -1.587302e-02 -3.129052e-02
     vertex -5.170949e-03  0.000000e+00 -3.129052e-02
   endloop
 endfacet
 facet normal  6.631227e-01 -0.000000e+00  7.485107e-01
   outer loop
     vertex -2.487496e-02 -1.587302e-02 -9.049292e-03
     vertex -1.367267e-02  0.000000e+00 -1.897366e-02
     vertex -2.487496e-02  0.000000e+00 -9.049292e-03
   endloop
 endfacet
 facet normal  6.631227e-01  0.000000e+00  7.485107e-01
   outer loop
     vertex -2.487496e-02 -1.587302e-02 -9.049292e-03
     vertex -1.367267e-02 -1.587302e-02 -1.897366e-02
     vertex -1.367267e-02  0.000000e+00 -1.897366e-02
   endloop
 endfacet
 facet normal  4.647232e-01 -0.000000e+00  8.854560e-01
   outer loop
     vertex -3.812679e-02 -1.587302e-02 -2.094195e-03
     vertex -2.487496e-02  0.000000e+00 -9.049292e-03
     vertex -3.812679e-02  0.000000e+00 -2.094195e-03
   endloop
 endfacet
 facet normal  4.647232e-01  0.000000e+00  8.854560e-01
   outer loop
     vertex -3.812679e-02 -1.587302e-02 -2.094195e-03
     vertex -2.487496e-02 -1.587302e-02 -9.049292e-03
     vertex -2.487496e-02  0.000000e+00 -9.049292e-03
   endloop
 endfacet
 facet normal  2.393157e-01 -0.000000e+00  9.709418e-01
   outer loop
     vertex -5.265801e-02 -1.587302e-02  1.487429e-03
     vertex -3.812679e-02  0.000000e+00 -2.094195e-03
     vertex -5.265801e-02  0.000000e+00  1.487429e-03
   endloop
 endfacet
 facet normal  2.393157e-01  0.000000e+00  9.709418e-01
   outer loop
     vertex -5.265801e-02 -1.587302e-02  1.487429e-03
     vertex -3.812679e-02 -1.587302e-02 -2.094195e-03
     vertex -3.812679e-02  0.000000e+00 -2.094195e-03
   endloop
 endfacet
 facet normal  0.000000e+00  0.000000e+00  1.000000e+00
   outer loop
     vertex -6.762411e-02 -1.587302e-02  1.487429e-03
     vertex -5.265801e-02  0.000000e+00  1.487429e-03
     vertex -6.762411e-02  0.000000e+00  1.487429e-03
   endloop
 endfacet
 facet normal  0.000000e+00  0.000000e+00  1.000000e+00
   outer loop
     vertex -6.762411e-02 -1.587302e-02  1.487429e-03
     vertex -5.265801e-02 -1.587302e-02  1.487429e-03
     vertex -5.265801e-02  0.000000e+00  1.487429e-03
   endloop
 endfacet
 facet normal -2.393157e-01  0.000000e+00  9.709418e-01
   outer loop
     vertex -8.215533e-02 -1.587302e-02 -2.094195e-03
     vertex -6.762411e-02  0.000000e+00  1.487429e-03
     vertex -8.215533e-02  0.000000e+00 -2.094195e-03
   endloop
 endfacet
 facet normal -2.393157e-01  0.000000e+00  9.709418e-01
   outer loop
     vertex -8.215533e-02 -1.587302e-02 -2.094195e-03
     vertex -6.762411e-02 -1.587302e-02  1.487429e-03
     vertex -6.762411e-02  0.000000e+00  1.487429e-03
   endloop
 endfacet
 facet normal -4.647232e-01  0.000000e+00  8.854560e-01
   outer loop
     vertex -9.540716e-02 -1.587302e-02 -9.049292e-03
     vertex -8.215533e-02  0.000000e+00 -2.094195e-03
     vertex -9.540716e-02  0.000000e+00 -9.049292e-03
   endloop
 endfacet
 facet normal -4.647232e-01  0.000000e+00  8.854560e-01
   outer loop
     vertex -9.540716e-02 -1.587302e-02 -9.049292e-03
     vertex -8.215533e-02 -1.587302e-02 -2.094195e-03
     vertex -8.215533e-02  0.000000e+00 -2.094195e-03
   endloop
 endfacet
 facet normal -6.631227e-01  0.000000e+00  7.485107e-01
   outer loop
     vertex -1.066095e-01 -1.587302e-02 -1.897366e-02
     vertex -9.540716e-02  0.000000e+00 -9.049292e-03
     vertex -1.066095e-01  0.000000e+00 -1.897366e-02
   endloop
 endfacet
 facet normal -6.631227e-01  0.000000e+00  7.485107e-01
   outer loop
     vertex -1.066095e-01 -1.587302e-02 -1.897366e-02
     vertex -9.540716e-02 -1.587302e-02 -9.049292e-03
     vertex -9.540716e-02  0.000000e+00 -9.049292e-03
   endloop
 endfacet
 facet normal -8.229839e-01  0.000000e+00  5.680647e-01
   outer loop
     vertex -1.151112e-01 -1.587302e-02 -3.129052e-02
     vertex -1.066095e-01 -1.587302e-02 -1.897366e-02
     vertex -1.066095e-01  0.000000e+00 -1.897366e-02
   endloop
 endfacet
 facet normal -8.229839e-01  0.000000e+00  5.680647e-01
   outer loop
     vertex -1.151112e-01 -1.587302e-02 -3.129052e-02
     vertex -1.066095e-01  0.000000e+00 -1.897366e-02
     vertex -1.151112e-01  0.000000e+00 -3.129052e-02
   endloop
 endfacet
 facet normal -9.350162e-01  0.000000e+00  3.546049e-01
   outer loop
     vertex -1.204182e-01 -1.587302e-02 -4.528407e-02
     vertex -1.151112e-01 -1.587302e-02 -3.129052e-02
     vertex -1.151112e-01  0.000000e+00 -3.129052e-02
   endloop
 endfacet
 facet normal -9.350162e-01  0.000000e+00  3.546049e-01
   outer loop
     vertex -1.204182e-01 -1.587302e-02 -4.528407e-02
     vertex -1.151112e-01  0.000000e+00 -3.129052e-02
     vertex -1.204182e-01  0.000000e+00 -4.528407e-02
   endloop
 endfacet
 facet normal -9.927089e-01  0.000000e+00  1.205367e-01
   outer loop
     vertex -1.222222e-01 -1.587302e-02 -6.014106e-02
     vertex -1.204182e-01 -1.587302e-02 -4.528407e-02
     vertex -1.204182e-01  0.000000e+00 -4.528407e-02
   endloop
 endfacet
 facet normal -9.927089e-01  0.000000e+00  1.205367e-01
   outer loop
     vertex -1.222222e-01 -1.587302e-02 -6.014106e-02
     vertex -1.204182e-01  0.000000e+00 -4.528407e-02
     vertex -1.222222e-01  0.000000e+00 -6.014106e-02
   endloop
 endfacet
 facet normal -9.927089e-01  0.000000e+00 -1.205367e-01
   outer loop
     vertex -1.204182e-01 -1.587302e-02 -7.499805e-02
     vertex -1.222222e-01  0.000000e+00 -6.014106e-02
     vertex -1.204182e-01  0.000000e+00 -7.499805e-02
   endloop
 endfacet
 facet normal -9.927089e-01  0.000000e+00 -1.205367e-01
   outer loop
     vertex -1.204182e-01 -1.587302e-02 -7.499805e-02
     vertex -1.222222e-01 -1.587302e-02 -6.014106e-02
     vertex -1.222222e-01  0.000000e+00 -6.014106e-02
   endloop
 endfacet
 facet normal -9.350162e-01  0.000000e+00 -3.546049e-01
   outer loop
     vertex -1.151112e-01 -1.587302e-02 -8.899160e-02
     vertex -1.204182e-01 -1.587302e-02 -7.499805e-02
     vertex -1.204182e-01  0.000000e+00 -7.499805e-02
   endloop
 endfacet
 facet normal -9.350162e-01  0.000000e+00 -3.546049e-01
   outer loop
     vertex -1.151112e-01 -1.587302e-02 -8.899160e-02
     vertex -1.204182e-01  0.000000e+00 -7.499805e-02
     vertex -1.151112e-01  0.000000e+00 -8.899160e-02
   endloop
 endfacet
 facet normal -8.229839e-01  0.000000e+00 -5.680647e-01
   outer loop
     vertex -1.066095e-01 -1.587302e-02 -1.013085e-01
     vertex -1.151112e-01  0.000000e+00 -8.899160e-02
     vertex -1.066095e-01  0.000000e+00 -1.013085e-01
   endloop
 endfacet
 facet normal -8.229839e-01  0.000000e+00 -5.680647e-01
   outer loop
     vertex -1.066095e-01 -1.587302e-02 -1.013085e-01
     vertex -1.151112e-01 -1.587302e-02 -8.899160e-02
     vertex -1.151112e-01  0.000000e+00 -8.899160e-02
   endloop
 endfacet
 facet normal -6.631227e-01  0.000000e+00 -7.485107e-01
   outer loop
     vertex -9.540716e-02 -1.587302e-02 -1.112328e-01
     vertex -1.066095e-01  0.000000e+00 -1.013085e-01
     vertex -9.540716e-02  0.000000e+00 -1.112328e-01
   endloop
 endfacet
 facet normal -6.631227e-01  0.000000e+00 -7.485107e-01
   outer loop
     vertex -9.540716e-02 -1.587302e-02 -1.112328e-01
     vertex -1.066095e-01 -1.587302e-02 -1.013085e-01
     vertex -1.066095e-01  0.000000e+00 -1.013085e-01
   endloop
 endfacet
 facet normal -4.647232e-01  0.000000e+00 -8.854560e-01
   outer loop
     vertex -8.215533e-02 -1.587302e-02 -1.181879e-01
     vertex -9.540716e-02  0.000000e+00 -1.112328e-01
     vertex -8.215533e-02  0.000000e+00 -1.181879e-01
   endloop
 endfacet
 facet normal -4.647232e-01  0.000000e+00 -8.854560e-01
   outer loop
     vertex -8.215533e-02 -1.587302e-02 -1.181879e-01
     vertex -9.540716e-02 -1.587302e-02 -1.112328e-01
     vertex -9.540716e-02  0.000000e+00 -1.112328e-01
   endloop
 endfacet
 facet normal -2.393157e-01  0.000000e+00 -9.709418e-01
   outer loop
     vertex -6.762411e-02 -1.587302e-02 -1.217695e-01
     vertex -8.215533e-02  0.000000e+00 -1.181879e-01
     vertex -6.762411e-02  0.000000e+00 -1.217695e-01
   endloop
 endfacet
 facet normal -2.393157e-01  0.000000e+00 -9.709418e-01
   outer loop
     vertex -6.762411e-02 -1.587302e-02 -1.217695e-01
     vertex -8.215533e-02 -1.587302e-02 -1.181879e-01
     vertex -8.215533e-02  0.000000e+00 -1.181879e-01
   endloop
 endfacet
 facet normal -1.854562e-15  0.000000e+00 -1.000000e+00
   outer loop
     vertex -5.265801e-02 -1.587302e-02 -1.217695e-01
     vertex -6.762411e-02  0.000000e+00 -1.217695e-01
     vertex -5.265801e-02  0.000000e+00 -1.217695e-01
   endloop
 endfacet
 facet normal -1.854562e-15  0.000000e+00 -1.000000e+00
   outer loop
     vertex -5.265801e-02 -1.587302e-02 -1.217695e-01
     vertex -6.762411e-02 -1.587302e-02 -1.217695e-01
     vertex -6.762411e-02  0.000000e+00 -1.217695e-01
   endloop
 endfacet
 facet normal  2.393157e-01  0.000000e+00 -9.709418e-01
   outer loop
     vertex -3.812679e-02 -1.587302e-02 -1.181879e-01
     vertex -5.265801e-02  0.000000e+00 -1.217695e-01
     vertex -3.812679e-02  0.000000e+00 -1.181879e-01
   endloop
 endfacet
 facet normal  2.393157e-01  0.000000e+00 -9.709418e-01
   outer loop
     vertex -3.812679e-02 -1.587302e-02 -1.181879e-01
     vertex -5.265801e-02 -1.587302e-02 -1.217695e-01
     vertex -5.265801e-02  0.000000e+00 -1.217695e-01
   endloop
 endfacet
 facet normal  4.647232e-01  0.000000e+00 -8.854560e-01
   outer loop
     vertex -2.487496e-02 -1.587302e-02 -1.112328e-01
     vertex -3.812679e-02  0.000000e+00 -1.181879e-01
     vertex -2.487496e-02  0.000000e+00 -1.112328e-01
   endloop
 endfacet
 facet normal  4.647232e-01  0.000000e+00 -8.854560e-01
   outer loop
     vertex -2.487496e-02 -1.587302e-02 -1.112328e-01
     vertex -3.812679e-02 -1.587302e-02 -1.181879e-01
     vertex -3.812679e-02  0.000000e+00 -1.181879e-01
   endloop
 endfacet
 facet normal  6.631227e-01  0.000000e+00 -7.485107e-01
   outer loop
     vertex -1.367267e-02 -1.587302e-02 -1.013085e-01
     vertex -2.487496e-02  0.000000e+00 -1.112328e-01
     vertex -1.367267e-02  0.000000e+00 -1.013085e-01
   endloop
 endfacet
 facet normal  6.631227e-01  0.000000e+00 -7.485107e-01
   outer loop
     vertex -1.367267e-02 -1.587302e-02 -1.013085e-01
     vertex -2.487496e-02 -1.587302e-02 -1.112328e-01
     vertex -2.487496e-02  0.000000e+00 -1.112328e-01
   endloop
 endfacet
 facet normal  8.229839e-01  0.000000e+00 -5.680647e-01
   outer loop
     vertex -5.170949e-03 -1.587302e-02 -8.899160e-02
     vertex -1.367267e-02  0.000000e+00 -1.013085e-01
     vertex -5.170949e-03  0.000000e+00 -8.899160e-02
   endloop
 endfacet
 facet normal  8.229839e-01  0.000000e+00 -5.680647e-01
   outer loop
     vertex -5.170949e-03 -1.587302e-02 -8.899160e-02
     vertex -1.367267e-02 -1.587302e-02 -1.013085e-01
     vertex -1.367267e-02  0.000000e+00 -1.013085e-01
   endloop
 endfacet
 facet normal  9.350162e-01  0.000000e+00 -3.546049e-01
   outer loop
     vertex  1.361054e-04 -1.587302e-02 -7.499805e-02
     vertex -5.170949e-03  0.000000e+00 -8.899160e-02
     vertex  1.361054e-04  0.000000e+00 -7.499805e-02
   endloop
 endfacet
 facet normal  9.350162e-01  0.000000e+00 -3.546049e-01
   outer loop
     vertex  1.361054e-04 -1.587302e-02 -7.499805e-02
     vertex -5.170949e-03 -1.587302e-02 -8.899160e-02
     vertex -5.170949e-03  0.000000e+00 -8.899160e-02
   endloop
 endfacet
 facet normal  9.927089e-01  0.000000e+00 -1.205367e-01
   outer loop
     vertex  1.940070e-03 -1.587302e-02 -6.014106e-02
     vertex  1.361054e-04  0.000000e+00 -7.499805e-02
     vertex  1.940070e-03  0.000000e+00 -6.014106e-02
   endloop
 endfacet
 facet normal  9.927089e-01  0.000000e+00 -1.205367e-01
   outer loop
     vertex  1.940070e-03 -1.587302e-02 -6.014106e-02
     vertex  1.361054e-04 -1.587302e-02 -7.499805e-02
     vertex  1.361054e-04  0.000000e+00 -7.499805e-02
   endloop
 endfacet
 facet normal  9.927089e-01  0.000000e+00  1.205367e-01
   outer loop
     vertex  1.361054e-04 -1.587302e-02 -4.528407e-02
     vertex  1.940070e-03 -2.857143e-01 -6.014106e-02
     vertex  1.940070e-03 -1.587302e-02 -6.014106e-02
   endloop
 endfacet
 facet normal  9.927089e-01  0.000000e+00  1.205367e-01
   outer loop
     vertex  1.361054e-04 -1.587302e-02 -4.528407e-02
     vertex  1.361054e-04 -2.857143e-01 -4.528407e-02
     vertex  1.940070e-03 -2.857143e-01 -6.014106e-02
   endloop
 endfacet
 facet normal  9.350162e-01  0.000000e+00  3.546049e-01
   outer loop
     vertex -5.170949e-03 -1.587302e-02 -3.129052e-02
     vertex -5.170949e-03 -2.857143e-01 -3.129052e-02
     vertex  1.361054e-04 -2.857143e-01 -4.528407e-02
   endloop
 endfacet
 facet normal  9.350162e-01  0.000000e+00  3.546049e-01
   outer loop
     vertex -5.170949e-03 -1.587302e-02 -3.129052e-02
     vertex  1.361054e-04 -2.857143e-01 -4.528407e-02
     vertex  1.361054e-04 -1.587302e-02 -4.528407e-02
   endloop
 endfacet
 facet normal  8.229839e-01  0.000000e+00  5.680647e-01
   outer loop
     vertex -1.367267e-02 -1.587302e-02 -1.897366e-02
     vertex -1.367267e-02 -2.857143e-01 -1.897366e-02
     vertex -5.170949e-03 -2.857143e-01 -3.129052e-02
   endloop
 endfacet
 facet normal  8.229839e-01  0.000000e+00  5.680647e-01
   outer loop
     vertex -1.367267e-02 -1.587302e-02 -1.897366e-02
     vertex -5.170949e-03 -2.857143e-01 -3.129052e-02
     vertex -5.170949e-03 -1.587302e-02 -3.129052e-02
   endloop
 endfacet
 facet normal  6.631227e-01  0.000000e+00  7.485107e-01
   outer loop
     vertex -2.487496e-02 -1.587302e-02 -9.049292e-03
     vertex -2.487496e-02 -2.857143e-01 -9.049292e-03
     vertex -1.367267e-02 -2.857143e-01 -1.897366e-02
   endloop
 endfacet
 facet normal  6.631227e-01  0.000000e+00  7.485107e-01
   outer loop
     vertex -2.487496e-02 -1.587302e-02 -9.049292e-03
     vertex -1.367267e-02 -2.857143e-01 -1.897366e-02
     vertex -1.367267e-02 -1.587302e-02 -1.897366e-02
   endloop
 endfacet
 facet normal  4.647232e-01  0.000000e+00  8.854560e-01
   outer loop
     vertex -3.812679e-02 -1.587302e-02 -2.094195e-03
     vertex -3.812679e-02 -2.857143e-01 -2.094195e-03
     vertex -2.487496e-02 -2.857143e-01 -9.049292e-03
   endloop
 endfacet
 facet normal  4.647232e-01  0.000000e+00  8.854560e-01
   outer loop
     vertex -3.812679e-02 -1.587302e-02 -2.094195e-03
     vertex -2.487496e-02 -2.857143e-01 -9.049292e-03
     vertex -2.487496e-02 -1.587302e-02 -9.049292e-03
   endloop
 endfacet
 facet normal  2.393157e-01  0.000000e+00  9.709418e-01
   outer loop
     vertex -5.265801e-02 -1.587302e-02  1.487429e-03
     vertex -5.265801e-02 -2.857143e-01  1.487429e-03
     vertex -3.812679e-02 -2.857143e-01 -2.094195e-03
   endloop
 endfacet
 facet normal  2.393157e-01  0.000000e+00  9.709418e-01
   outer loop
     vertex -5.265801e-02 -1.587302e-02  1.487429e-03
     vertex -3.812679e-02 -2.857143e-01 -2.094195e-03
     vertex -3.812679e-02 -1.587302e-02 -2.094195e-03
   endloop
 endfacet
 facet normal  0.000000e+00  0.000000e+00  1.000000e+00
   outer loop
     vertex -6.762411e-02 -1.587302e-02  1.487429e-03
     vertex -6.762411e-02 -2.857143e-01  1.487429e-03
     vertex -5.265801e-02 -2.857143e-01  1.487429e-03
   endloop
 endfacet
 facet normal -0.000000e+00  0.000000e+00  1.000000e+00
   outer loop
     vertex -6.762411e-02 -1.587302e-02  1.487429e-03
     vertex -5.265801e-02 -2.857143e-01  1.487429e-03
     vertex -5.265801e-02 -1.587302e-02  1.487429e-03
   endloop
 endfacet
 facet normal -2.393157e-01  0.000000e+00  9.709418e-01
   outer loop
     vertex -8.215533e-02 -1.587302e-02 -2.094195e-03
     vertex -8.215533e-02 -2.857143e-01 -2.094195e-03
     vertex -6.762411e-02 -2.857143e-01  1.487429e-03
   endloop
 endfacet
 facet normal -2.393157e-01  0.000000e+00  9.709418e-01
   outer loop
     vertex -8.215533e-02 -1.587302e-02 -2.094195e-03
     vertex -6.762411e-02 -2.857143e-01  1.487429e-03
     vertex -6.762411e-02 -1.587302e-02  1.487429e-03
   endloop
 endfacet
 facet normal -4.647232e-01  0.000000e+00  8.854560e-01
   outer loop
     vertex -9.540716e-02 -1.587302e-02 -9.049292e-03
     vertex -9.540716e-02 -2.857143e-01 -9.049292e-03
     vertex -8.215533e-02 -2.857143e-01 -2.094195e-03
   endloop
 endfacet
 facet normal -4.647232e-01  0.000000e+00  8.854560e-01
   outer loop
     vertex -9.540716e-02 -1.587302e-02 -9.049292e-03
     vertex -8.215533e-02 -2.857143e-01 -2.094195e-03
     vertex -8.215533e-02 -1.587302e-02 -2.094195e-03
   endloop
 endfacet
 facet normal -6.631227e-01  0.000000e+00  7.485107e-01
   outer loop
     vertex -1.066095e-01 -1.587302e-02 -1.897366e-02
     vertex -1.066095e-01 -2.857143e-01 -1.897366e-02
     vertex -9.540716e-02 -2.857143e-01 -9.049292e-03
   endloop
 endfacet
 facet normal -6.631227e-01  0.000000e+00  7.485107e-01
   outer loop
     vertex -1.066095e-01 -1.587302e-02 -1.897366e-02
     vertex -9.540716e-02 -2.857143e-01 -9.049292e-03
     vertex -9.540716e-02 -1.587302e-02 -9.049292e-03
   endloop
 endfacet
 facet normal -8.229839e-01  0.000000e+00  5.680647e-01
   outer loop
     vertex -1.151112e-01 -1.587302e-02 -3.129052e-02
     vertex -1.066095e-01 -2.857143e-01 -1.897366e-02
     vertex -1.066095e-01 -1.587302e-02 -1.897366e-02
   endloop
 endfacet
 facet normal -8.229839e-01  0.000000e+00  5.680647e-01
   outer loop
     vertex -1.151112e-01 -1.587302e-02 -3.129052e-02
     vertex -1.151112e-01 -2.857143e-01 -3.129052e-02
     vertex -1.066095e-01 -2.857143e-01 -1.897366e-02
   endloop
 endfacet
 facet normal -9.350162e-01  0.000000e+00  3.546049e-01
   outer loop
     vertex -1.204182e-01 -1.587302e-02 -4.528407e-02
     vertex -1.151112e-01 -2.857143e-01 -3.129052e-02
     vertex -1.151112e-01 -1.587302e-02 -3.129052e-02
   endloop
 endfacet
 facet normal -9.350162e-01  0.000000e+00  3.546049e-01
   outer loop
     vertex -1.204182e-01 -1.587302e-02 -4.528407e-02
     vertex -1.204182e-01 -2.857143e-01 -4.528407e-02
     vertex -1.151112e-01 -2.857143e-01 -3.129052e-02
   endloop
 endfacet
 facet normal -9.927089e-01  0.000000e+00  1.205367e-01
   outer loop
     vertex -1.222222e-01 -1.587302e-02 -6.014106e-02
     vertex -1.204182e-01 -2.857143e-01 -4.528407e-02
     vertex -1.204182e-01 -1.587302e-02 -4.528407e-02
   endloop
 endfacet
 facet normal -9.927089e-01  0.000000e+00  1.205367e-01
   outer loop
     vertex -1.222222e-01 -1.587302e-02 -6.014106e-02
     vertex -1.222222e-01 -2.857143e-01 -6.014106e-02
     vertex -1.204182e-01 -2.857143e-01 -4.528407e-02
   endloop
 endfacet
 facet normal -9.927089e-01 -0.000000e+00 -1.205367e-01
   outer loop
     vertex -1.204182e-01 -1.587302e-02 -7.499805e-02
     vertex -1.204182e-01 -2.857143e-01 -7.499805e-02
     vertex -1.222222e-01 -2.857143e-01 -6.014106e-02
   endloop
 endfacet
 facet normal -9.927089e-01  0.000000e+00 -1.205367e-01
   outer loop
     vertex -1.204182e-01 -1.587302e-02 -7.499805e-02
     vertex -1.222222e-01 -2.857143e-01 -6.014106e-02
     vertex -1.222222e-01 -1.587302e-02 -6.014106e-02
   endloop
 endfacet
 facet normal -9.350162e-01  0.000000e+00 -3.546049e-01
   outer loop
     vertex -1.151112e-01 -1.587302e-02 -8.899160e-02
     vertex -1.204182e-01 -2.857143e-01 -7.499805e-02
     vertex -1.204182e-01 -1.587302e-02 -7.499805e-02
   endloop
 endfacet
 facet normal -9.350162e-01 -0.000000e+00 -3.546049e-01
   outer loop
     vertex -1.151112e-01 -1.587302e-02 -8.899160e-02
     vertex -1.151112e-01 -2.857143e-01 -8.899160e-02
     vertex -1.204182e-01 -2.857143e-01 -7.499805e-02
   endloop
 endfacet
 facet normal -8.229839e-01 -0.000000e+00 -5.680647e-01
   outer loop
     vertex -1.066095e-01 -1.587302e-02 -1.013085e-01
     vertex -1.066095e-01 -2.857143e-01 -1.013085e-01
     vertex -1.151112e-01 -2.857143e-01 -8.899160e-02
   endloop
 endfacet
 facet normal -6.631227e-01 -0.000000e+00 -7.485107e-01
   outer loop
     vertex -1.066095e-01 -1.587302e-02 -1.013085e-01
     vertex -9.540716e-02 -2.857143e-01 -1.112328e-01
     vertex -1.066095e-01 -2.857143e-01 -1.013085e-01
   endloop
 endfacet
 facet normal -8.229839e-01  0.000000e+00 -5.680647e-01
   outer loop
     vertex -1.066095e-01 -1.587302e-02 -1.013085e-01
     vertex -1.151112e-01 -2.857143e-01 -8.899160e-02
     vertex -1.151112e-01 -1.587302e-02 -8.899160e-02
   endloop
 endfacet
 facet normal -6.631227e-01 -0.000000e+00 -7.485107e-01
   outer loop
     vertex -9.540716e-02 -1.587302e-02 -1.112328e-01
     vertex -9.540716e-02 -2.857143e-01 -1.112328e-01
     vertex -1.066095e-01 -1.587302e-02 -1.013085e-01
   endloop
 endfacet
 facet normal -4.647232e-01 -0.000000e+00 -8.854560e-01
   outer loop
     vertex -8.215533e-02 -1.587302e-02 -1.181879e-01
     vertex -8.215533e-02 -2.857143e-01 -1.181879e-01
     vertex -9.540716e-02 -2.857143e-01 -1.112328e-01
   endloop
 endfacet
 facet normal -2.393157e-01 -0.000000e+00 -9.709418e-01
   outer loop
     vertex -8.215533e-02 -1.587302e-02 -1.181879e-01
     vertex -6.762411e-02 -2.857143e-01 -1.217695e-01
     vertex -8.215533e-02 -2.857143e-01 -1.181879e-01
   endloop
 endfacet
 facet normal -4.647232e-01  0.000000e+00 -8.854560e-01
   outer loop
     vertex -8.215533e-02 -1.587302e-02 -1.181879e-01
     vertex -9.540716e-02 -2.857143e-01 -1.112328e-01
     vertex -9.540716e-02 -1.587302e-02 -1.112328e-01
   endloop
 endfacet
 facet normal -2.393157e-01 -0.000000e+00 -9.709418e-01
   outer loop
     vertex -6.762411e-02 -1.587302e-02 -1.217695e-01
     vertex -6.762411e-02 -2.857143e-01 -1.217695e-01
     vertex -8.215533e-02 -1.587302e-02 -1.181879e-01
   endloop
 endfacet
 facet normal -1.854562e-15 -0.000000e+00 -1.000000e+00
   outer loop
     vertex -5.265801e-02 -1.587302e-02 -1.217695e-01
     vertex -5.265801e-02 -2.857143e-01 -1.217695e-01
     vertex -6.762411e-02 -2.857143e-01 -1.217695e-01
   endloop
 endfacet
 facet normal  2.393157e-01  0.000000e+00 -9.709418e-01
   outer loop
     vertex -5.265801e-02 -1.587302e-02 -1.217695e-01
     vertex -3.812679e-02 -2.857143e-01 -1.181879e-01
     vertex -5.265801e-02 -2.857143e-01 -1.217695e-01
   endloop
 endfacet
 facet normal -1.854562e-15  0.000000e+00 -1.000000e+00
   outer loop
     vertex -5.265801e-02 -1.587302e-02 -1.217695e-01
     vertex -6.762411e-02 -2.857143e-01 -1.217695e-01
     vertex -6.762411e-02 -1.587302e-02 -1.217695e-01
   endloop
 endfacet
 facet normal  2.393157e-01  0.000000e+00 -9.709418e-01
   outer loop
     vertex -3.812679e-02 -1.587302e-02 -1.181879e-01
     vertex -3.812679e-02 -2.857143e-01 -1.181879e-01
     vertex -5.265801e-02 -1.587302e-02 -1.217695e-01
   endloop
 endfacet
 facet normal  4.647232e-01  0.000000e+00 -8.854560e-01
   outer loop
     vertex -2.487496e-02 -1.587302e-02 -1.112328e-01
     vertex -2.487496e-02 -2.857143e-01 -1.112328e-01
     vertex -3.812679e-02 -2.857143e-01 -1.181879e-01
   endloop
 endfacet
 facet normal  4.647232e-01  0.000000e+00 -8.854560e-01
   outer loop
     vertex -2.487496e-02 -1.587302e-02 -1.112328e-01
     vertex -3.812679e-02 -2.857143e-01 -1.181879e-01
     vertex -3.812679e-02 -1.587302e-02 -1.181879e-01
   endloop
 endfacet
 facet normal  6.631227e-01  0.000000e+00 -7.485107e-01
   outer loop
     vertex -1.367267e-02 -1.587302e-02 -1.013085e-01
     vertex -1.367267e-02 -2.857143e-01 -1.013085e-01
     vertex -2.487496e-02 -2.857143e-01 -1.112328e-01
   endloop
 endfacet
 facet normal  8.229839e-01  0.000000e+00 -5.680647e-01
   outer loop
     vertex -1.367267e-02 -1.587302e-02 -1.013085e-01
     vertex -5.170949e-03 -2.857143e-01 -8.899160e-02
     vertex -1.367267e-02 -2.857143e-01 -1.013085e-01
   endloop
 endfacet
 facet normal  6.631227e-01  0.000000e+00 -7.485107e-01
   outer loop
     vertex -1.367267e-02 -1.587302e-02 -1.013085e-01
     vertex -2.487496e-02 -2.857143e-01 -1.112328e-01
     vertex -2.487496e-02 -1.587302e-02 -1.112328e-01
   endloop
 endfacet
 facet normal  8.229839e-01  0.000000e+00 -5.680647e-01
   outer loop
     vertex -5.170949e-03 -1.587302e-02 -8.899160e-02
     vertex -5.170949e-03 -2.857143e-01 -8.899160e-02
     vertex -1.367267e-02 -1.587302e-02 -1.013085e-01
   endloop
 endfacet
 facet normal  9.350162e-01  0.000000e+00 -3.546049e-01
   outer loop
     vertex  1.361054e-04 -1.587302e-02 -7.499805e-02
     vertex  1.361054e-04 -2.857143e-01 -7.499805e-02
     vertex -5.170949e-03 -2.857143e-01 -8.899160e-02
   endloop
 endfacet
 facet normal  9.350162e-01  0.000000e+00 -3.546049e-01
   outer loop
     vertex  1.361054e-04 -1.587302e-02 -7.499805e-02
     vertex -5.170949e-03 -2.857143e-01 -8.899160e-02
     vertex -5.170949e-03 -1.587302e-02 -8.899160e-02
   endloop
 endfacet
 facet normal  9.927089e-01  0.000000e+00 -1.205367e-01
   outer loop
     vertex  1.940070e-03 -1.587302e-02 -6.014106e-02
     vertex  1.940070e-03 -2.857143e-01 -6.014106e-02
     vertex  1.361054e-04 -2.857143e-01 -7.499805e-02
   endloop
 endfacet
 facet normal  9.927089e-01  0.000000e+00 -1.205367e-01
   outer loop
     vertex  1.940070e-03 -1.587302e-02 -6.014106e-02
     vertex  1.361054e-04 -2.857143e-01 -7.499805e-02
     vertex  1.361054e-04 -1.587302e-02 -7.499805e-02
   endloop
 endfacet
 facet normal  0.000000e+00 -1.000000e+00  0.000000e+00
   outer loop
     vertex -1.367267e-02 -2.857143e-01 -1.897366e-02
     vertex  1.940070e-03 -2.857143e-01 -6.014106e-02
     vertex  1.361054e-04 -2.857143e-01 -4.528407e-02
   endloop
 endfacet
 facet normal  0.000000e+00 -1.000000e+00  0.000000e+00
   outer loop
     vertex -1.367267e-02 -2.857143e-01 -1.897366e-02
     vertex  1.361054e-04 -2.857143e-01 -4.528407e-02
     vertex -5.170949e-03 -2.857143e-01 -3.129052e-02
   endloop
 endfacet
 facet normal  0.000000e+00 -1.000000e+00  0.000000e+00
   outer loop
     vertex -1.367267e-02 -2.857143e-01 -1.897366e-02
     vertex -2.487496e-02 -2.857143e-01 -9.049292e-03
     vertex -3.812679e-02 -2.857143e-01 -2.094195e-03
   endloop
 endfacet
 facet normal  0.000000e+00 -1.000000e+00  0.000000e+00
   outer loop
     vertex -1.367267e-02 -2.857143e-01 -1.897366e-02
     vertex -3.812679e-02 -2.857143e-01 -2.094195e-03
     vertex -5.265801e-02 -2.857143e-01  1.487429e-03
   endloop
 endfacet
 facet normal  0.000000e+00 -1.000000e+00  0.000000e+00
   outer loop
     vertex -1.367267e-02 -2.857143e-01 -1.897366e-02
     vertex -5.265801e-02 -2.857143e-01  1.487429e-03
     vertex -6.762411e-02 -2.857143e-01  1.487429e-03
   endloop
 endfacet
 facet normal  0.000000e+00 -1.000000e+00  0.000000e+00
   outer loop
     vertex -1.367267e-02 -2.857143e-01 -1.897366e-02
     vertex -6.762411e-02 -2.857143e-01  1.487429e-03
     vertex -8.215533e-02 -2.857143e-01 -2.094195e-03
   endloop
 endfacet
 facet normal  0.000000e+00 -1.000000e+00  0.000000e+00
   outer loop
     vertex -1.367267e-02 -2.857143e-01 -1.897366e-02
     vertex -8.215533e-02 -2.857143e-01 -2.094195e-03
     vertex -9.540716e-02 -2.857143e-01 -9.049292e-03
   endloop
 endfacet
 facet normal  0.000000e+00 -1.000000e+00  0.000000e+00
   outer loop
     vertex -1.367267e-02 -2.857143e-01 -1.897366e-02
     vertex -9.540716e-02 -2.857143e-01 -9.049292e-03
     vertex -1.066095e-01 -2.857143e-01 -1.897366e-02
   endloop
 endfacet
 facet normal -0.000000e+00 -1.000000e+00  0.000000e+00
   outer loop
     vertex -1.367267e-02 -2.857143e-01 -1.897366e-02
     vertex -1.066095e-01 -2.857143e-01 -1.897366e-02
     vertex -1.151112e-01 -2.857143e-01 -3.129052e-02
   endloop
 endfacet
 facet normal  0.000000e+00 -1.000000e+00  0.000000e+00
   outer loop
     vertex -1.367267e-02 -2.857143e-01 -1.897366e-02
     vertex -1.151112e-01 -2.857143e-01 -3.129052e-02
     vertex -1.204182e-01 -2.857143e-01 -4.528407e-02
   endloop
 endfacet
 facet normal  0.000000e+00 -1.000000e+00  0.000000e+00
   outer loop
     vertex -1.367267e-02 -2.857143e-01 -1.897366e-02
     vertex -1.204182e-01 -2.857143e-01 -4.528407e-02
     vertex -1.222222e-01 -2.857143e-01 -6.014106e-02
   endloop
 endfacet
 facet normal  0.000000e+00 -1.000000e+00  0.000000e+00
   outer loop
     vertex -1.367267e-02 -2.857143e-01 -1.897366e-02
     vertex -1.222222e-01 -2.857143e-01 -6.014106e-02
     vertex -1.204182e-01 -2.857143e-01 -7.499805e-02
   endloop
 endfacet
 facet normal  0.000000e+00 -1.000000e+00  0.000000e+00
   outer loop
     vertex -1.367267e-02 -2.857143e-01 -1.897366e-02
     vertex -1.204182e-01 -2.857143e-01 -7.499805e-02
     vertex -1.151112e-01 -2.857143e-01 -8.899160e-02
   endloop
 endfacet
 facet normal  0.000000e+00 -1.000000e+00  0.000000e+00
   outer loop
     vertex -1.367267e-02 -2.857143e-01 -1.897366e-02
     vertex -1.151112e-01 -2.857143e-01 -8.899160e-02
     vertex -1.066095e-01 -2.857143e-01 -1.013085e-01
   endloop
 endfacet
 facet normal  0.000000e+00 -1.000000e+00  0.000000e+00
   outer loop
     vertex -1.367267e-02 -2.857143e-01 -1.897366e-02
     vertex -1.066095e-01 -2.857143e-01 -1.013085e-01
     vertex -9.540716e-02 -2.857143e-01 -1.112328e-01
   endloop
 endfacet
 facet normal  0.000000e+00 -1.000000e+00  0.000000e+00
   outer loop
     vertex -1.367267e-02 -2.857143e-01 -1.897366e-02
     vertex -9.540716e-02 -2.857143e-01 -1.112328e-01
     vertex -8.215533e-02 -2.857143e-01 -1.181879e-01
   endloop
 endfacet
 facet normal  0.000000e+00 -1.000000e+00  0.000000e+00
   outer loop
     vertex -1.367267e-02 -2.857143e-01 -1.897366e-02
     vertex -8.215533e-02 -2.857143e-01 -1.181879e-01
     vertex -6.762411e-02 -2.857143e-01 -1.217695e-01
   endloop
 endfacet
 facet normal  0.000000e+00 -1.000000e+00  0.000000e+00
   outer loop
     vertex -1.367267e-02 -2.857143e-01 -1.897366e-02
     vertex -6.762411e-02 -2.857143e-01 -1.217695e-01
     vertex -5.265801e-02 -2.857143e-01 -1.217695e-01
   endloop
 endfacet
 facet normal  0.000000e+00 -1.000000e+00  0.000000e+00
   outer loop
     vertex -1.367267e-02 -2.857143e-01 -1.897366e-02
     vertex -5.265801e-02 -2.857143e-01 -1.217695e-01
     vertex -3.812679e-02 -2.857143e-01 -1.181879e-01
   endloop
 endfacet
 facet normal  0.000000e+00 -1.000000e+00  0.000000e+00
   outer loop
     vertex -1.367267e-02 -2.857143e-01 -1.897366e-02
     vertex -3.812679e-02 -2.857143e-01 -1.181879e-01
     vertex -2.487496e-02 -2.857143e-01 -1.112328e-01
   endloop
 endfacet
 facet normal  0.000000e+00 -1.000000e+00  0.000000e+00
   outer loop
     vertex -1.367267e-02 -2.857143e-01 -1.897366e-02
     vertex -2.487496e-02 -2.857143e-01 -1.112328e-01
     vertex -1.367267e-02 -2.857143e-01 -1.013085e-01
   endloop
 endfacet
 facet normal  0.000000e+00 -1.000000e+00 -0.000000e+00
   outer loop
     vertex -1.367267e-02 -2.857143e-01 -1.897366e-02
     vertex -1.367267e-02 -2.857143e-01 -1.013085e-01
     vertex -5.170949e-03 -2.857143e-01 -8.899160e-02
   endloop
 endfacet
 facet normal  0.000000e+00 -1.000000e+00  0.000000e+00
   outer loop
     vertex -1.367267e-02 -2.857143e-01 -1.897366e-02
     vertex -5.170949e-03 -2.857143e-01 -8.899160e-02
     vertex  1.361054e-04 -2.857143e-01 -7.499805e-02
   endloop
 endfacet
 facet normal  0.000000e+00 -1.000000e+00  0.000000e+00
   outer loop
     vertex -1.367267e-02 -2.857143e-01 -1.897366e-02
     vertex  1.361054e-04 -2.857143e-01 -7.499805e-02
     vertex  1.940070e-03 -2.857143e-01 -6.014106e-02
   endloop
 endfacet
endsolid
