solid 
 facet normal  0.000000e+00 -1.000000e+00  0.000000e+00
   outer loop
     vertex  8.947091e-01 -7.130511e-01 -1.587302e-02
     vertex -1.049559e+00 -7.130511e-01  6.349207e-01
     vertex -1.049559e+00 -7.130511e-01 -1.587302e-02
   endloop
 endfacet
 facet normal  0.000000e+00 -1.000000e+00  0.000000e+00
   outer loop
     vertex  8.947091e-01 -7.130511e-01 -1.587302e-02
     vertex  8.947091e-01 -7.130511e-01  6.349207e-01
     vertex -1.049559e+00 -7.130511e-01  6.349207e-01
   endloop
 endfacet
 facet normal -1.000000e+00  0.000000e+00  0.000000e+00
   outer loop
     vertex -1.049559e+00 -7.130511e-01 -1.587302e-02
     vertex -1.049559e+00  5.582011e-01  6.349207e-01
     vertex -1.049559e+00  5.582011e-01 -1.587302e-02
   endloop
 endfacet
 facet normal -1.000000e+00  0.000000e+00  0.000000e+00
   outer loop
     vertex -1.049559e+00 -7.130511e-01 -1.587302e-02
     vertex -1.049559e+00 -7.130511e-01  6.349207e-01
     vertex -1.049559e+00  5.582011e-01  6.349207e-01
   endloop
 endfacet
 facet normal  1.000000e+00  0.000000e+00  0.000000e+00
   outer loop
     vertex  8.947091e-01  5.582011e-01 -1.587302e-02
     vertex  8.947091e-01 -7.130511e-01  6.349207e-01
     vertex  8.947091e-01 -7.130511e-01 -1.587302e-02
   endloop
 endfacet
 facet normal  1.000000e+00  0.000000e+00 -0.000000e+00
   outer loop
     vertex  8.947091e-01  5.582011e-01 -1.587302e-02
     vertex  8.947091e-01  5.582011e-01  6.349207e-01
     vertex  8.947091e-01 -7.130511e-01  6.349207e-01
   endloop
 endfacet
 facet normal -0.000000e+00 -1.000000e+00  0.000000e+00
   outer loop
     vertex  8.947091e-01 -7.130511e-01 -1.587302e-02
     vertex -1.049559e+00 -7.130511e-01 -1.587302e-02
     vertex -1.049559e+00 -7.130511e-01 -3.174603e-02
   endloop
 endfacet
 facet normal  0.000000e+00 -1.000000e+00 -0.000000e+00
   outer loop
     vertex  8.947091e-01 -7.130511e-01 -1.587302e-02
     vertex -1.049559e+00 -7.130511e-01 -3.174603e-02
     vertex  8.947091e-01 -7.130511e-01 -3.174603e-02
   endloop
 endfacet
 facet normal  0.000000e+00  0.000000e+00  1.000000e+00
   outer loop
     vertex -3.119204e-01 -2.801900e-01  6.349207e-01
     vertex -1.049559e+00 -7.130511e-01  6.349207e-01
     vertex -2.868812e-01 -3.059290e-01  6.349207e-01
   endloop
 endfacet
 facet normal  0.000000e+00  0.000000e+00  1.000000e+00
   outer loop
     vertex -2.591624e-01 -3.287573e-01  6.349207e-01
     vertex -2.868812e-01 -3.059290e-01  6.349207e-01
     vertex -1.049559e+00 -7.130511e-01  6.349207e-01
   endloop
 endfacet
 facet normal  0.000000e+00  0.000000e+00  1.000000e+00
   outer loop
     vertex -3.339762e-01 -2.518528e-01  6.349207e-01
     vertex -1.049559e+00 -7.130511e-01  6.349207e-01
     vertex -3.119204e-01 -2.801900e-01  6.349207e-01
   endloop
 endfacet
 facet normal  0.000000e+00  0.000000e+00  1.000000e+00
   outer loop
     vertex -2.291005e-01 -3.483977e-01  6.349207e-01
     vertex -2.591624e-01 -3.287573e-01  6.349207e-01
     vertex -1.049559e+00 -7.130511e-01  6.349207e-01
   endloop
 endfacet
 facet normal  0.000000e+00  0.000000e+00  1.000000e+00
   outer loop
     vertex -3.527808e-01 -2.212611e-01  6.349207e-01
     vertex -1.049559e+00 -7.130511e-01  6.349207e-01
     vertex -3.339762e-01 -2.518528e-01  6.349207e-01
   endloop
 endfacet
 facet normal  0.000000e+00  0.000000e+00  1.000000e+00
   outer loop
     vertex -1.970605e-01 -3.646118e-01  6.349207e-01
     vertex -2.291005e-01 -3.483977e-01  6.349207e-01
     vertex -1.049559e+00 -7.130511e-01  6.349207e-01
   endloop
 endfacet
 facet normal  0.000000e+00  0.000000e+00  1.000000e+00
   outer loop
     vertex -3.681060e-01 -1.887865e-01  6.349207e-01
     vertex -1.049559e+00 -7.130511e-01  6.349207e-01
     vertex -3.527808e-01 -2.212611e-01  6.349207e-01
   endloop
 endfacet
 facet normal  0.000000e+00  0.000000e+00  1.000000e+00
   outer loop
     vertex -1.634313e-01 -3.772029e-01  6.349207e-01
     vertex -1.970605e-01 -3.646118e-01  6.349207e-01
     vertex -1.049559e+00 -7.130511e-01  6.349207e-01
   endloop
 endfacet
 facet normal  0.000000e+00  0.000000e+00  1.000000e+00
   outer loop
     vertex -3.797656e-01 -1.548231e-01  6.349207e-01
     vertex -1.049559e+00 -7.130511e-01  6.349207e-01
     vertex -3.681060e-01 -1.887865e-01  6.349207e-01
   endloop
 endfacet
 facet normal  0.000000e+00  0.000000e+00  1.000000e+00
   outer loop
     vertex -1.286210e-01 -3.860180e-01  6.349207e-01
     vertex -1.634313e-01 -3.772029e-01  6.349207e-01
     vertex -1.049559e+00 -7.130511e-01  6.349207e-01
   endloop
 endfacet
 facet normal  0.000000e+00  0.000000e+00  1.000000e+00
   outer loop
     vertex -3.876183e-01 -1.197832e-01  6.349207e-01
     vertex -1.049559e+00 -7.130511e-01  6.349207e-01
     vertex -3.797656e-01 -1.548231e-01  6.349207e-01
   endloop
 endfacet
 facet normal  0.000000e+00  0.000000e+00  1.000000e+00
   outer loop
     vertex -9.305228e-02 -3.909503e-01  6.349207e-01
     vertex -1.286210e-01 -3.860180e-01  6.349207e-01
     vertex -1.049559e+00 -7.130511e-01  6.349207e-01
   endloop
 endfacet
 facet normal  0.000000e+00  0.000000e+00  1.000000e+00
   outer loop
     vertex -3.915686e-01 -8.409206e-02  6.349207e-01
     vertex -1.049559e+00  5.582011e-01  6.349207e-01
     vertex -1.049559e+00 -7.130511e-01  6.349207e-01
   endloop
 endfacet
 facet normal  0.000000e+00  0.000000e+00  1.000000e+00
   outer loop
     vertex -3.915686e-01 -8.409206e-02  6.349207e-01
     vertex -1.049559e+00 -7.130511e-01  6.349207e-01
     vertex -3.876183e-01 -1.197832e-01  6.349207e-01
   endloop
 endfacet
 facet normal  0.000000e+00  0.000000e+00  1.000000e+00
   outer loop
     vertex -5.715686e-02 -3.919397e-01  6.349207e-01
     vertex -9.305228e-02 -3.909503e-01  6.349207e-01
     vertex -1.049559e+00 -7.130511e-01  6.349207e-01
   endloop
 endfacet
 facet normal  0.000000e+00  0.000000e+00  1.000000e+00
   outer loop
     vertex -3.915686e-01 -4.818300e-02  6.349207e-01
     vertex -1.049559e+00  5.582011e-01  6.349207e-01
     vertex -3.915686e-01 -8.409206e-02  6.349207e-01
   endloop
 endfacet
 facet normal  0.000000e+00  0.000000e+00  1.000000e+00
   outer loop
     vertex -3.876183e-01 -1.249189e-02  6.349207e-01
     vertex -1.049559e+00  5.582011e-01  6.349207e-01
     vertex -3.915686e-01 -4.818300e-02  6.349207e-01
   endloop
 endfacet
 facet normal  0.000000e+00  0.000000e+00  1.000000e+00
   outer loop
     vertex -3.797656e-01  2.254804e-02  6.349207e-01
     vertex -1.049559e+00  5.582011e-01  6.349207e-01
     vertex -3.876183e-01 -1.249189e-02  6.349207e-01
   endloop
 endfacet
 facet normal  0.000000e+00  0.000000e+00  1.000000e+00
   outer loop
     vertex -3.681060e-01  5.651145e-02  6.349207e-01
     vertex -1.049559e+00  5.582011e-01  6.349207e-01
     vertex -3.797656e-01  2.254804e-02  6.349207e-01
   endloop
 endfacet
 facet normal  0.000000e+00  0.000000e+00  1.000000e+00
   outer loop
     vertex -3.527808e-01  8.898607e-02  6.349207e-01
     vertex -1.049559e+00  5.582011e-01  6.349207e-01
     vertex -3.681060e-01  5.651145e-02  6.349207e-01
   endloop
 endfacet
 facet normal  0.000000e+00  0.000000e+00  1.000000e+00
   outer loop
     vertex -3.339762e-01  1.195777e-01  6.349207e-01
     vertex -1.049559e+00  5.582011e-01  6.349207e-01
     vertex -3.527808e-01  8.898607e-02  6.349207e-01
   endloop
 endfacet
 facet normal  0.000000e+00  0.000000e+00  1.000000e+00
   outer loop
     vertex -3.119204e-01  1.479150e-01  6.349207e-01
     vertex -1.049559e+00  5.582011e-01  6.349207e-01
     vertex -3.339762e-01  1.195777e-01  6.349207e-01
   endloop
 endfacet
 facet normal  0.000000e+00  0.000000e+00  1.000000e+00
   outer loop
     vertex -2.868812e-01  1.736540e-01  6.349207e-01
     vertex -1.049559e+00  5.582011e-01  6.349207e-01
     vertex -3.119204e-01  1.479150e-01  6.349207e-01
   endloop
 endfacet
 facet normal  0.000000e+00  0.000000e+00  1.000000e+00
   outer loop
     vertex -2.591624e-01  1.964822e-01  6.349207e-01
     vertex -1.049559e+00  5.582011e-01  6.349207e-01
     vertex -2.868812e-01  1.736540e-01  6.349207e-01
   endloop
 endfacet
 facet normal  0.000000e+00  0.000000e+00  1.000000e+00
   outer loop
     vertex -2.291005e-01  2.161226e-01  6.349207e-01
     vertex -1.049559e+00  5.582011e-01  6.349207e-01
     vertex -2.591624e-01  1.964822e-01  6.349207e-01
   endloop
 endfacet
 facet normal  0.000000e+00  0.000000e+00  1.000000e+00
   outer loop
     vertex -1.970605e-01  2.323367e-01  6.349207e-01
     vertex -1.049559e+00  5.582011e-01  6.349207e-01
     vertex -2.291005e-01  2.161226e-01  6.349207e-01
   endloop
 endfacet
 facet normal  0.000000e+00  0.000000e+00  1.000000e+00
   outer loop
     vertex -1.634313e-01  2.449278e-01  6.349207e-01
     vertex -1.049559e+00  5.582011e-01  6.349207e-01
     vertex -1.970605e-01  2.323367e-01  6.349207e-01
   endloop
 endfacet
 facet normal  0.000000e+00  0.000000e+00  1.000000e+00
   outer loop
     vertex -1.286210e-01  2.537430e-01  6.349207e-01
     vertex -1.049559e+00  5.582011e-01  6.349207e-01
     vertex -1.634313e-01  2.449278e-01  6.349207e-01
   endloop
 endfacet
 facet normal  0.000000e+00  0.000000e+00  1.000000e+00
   outer loop
     vertex -9.305228e-02  2.586752e-01  6.349207e-01
     vertex -1.049559e+00  5.582011e-01  6.349207e-01
     vertex -1.286210e-01  2.537430e-01  6.349207e-01
   endloop
 endfacet
 facet normal  0.000000e+00  0.000000e+00  1.000000e+00
   outer loop
     vertex  8.947091e-01 -7.130511e-01  6.349207e-01
     vertex -2.137045e-02 -3.889744e-01  6.349207e-01
     vertex -5.715686e-02 -3.919397e-01  6.349207e-01
   endloop
 endfacet
 facet normal  0.000000e+00  0.000000e+00  1.000000e+00
   outer loop
     vertex  8.947091e-01 -7.130511e-01  6.349207e-01
     vertex  1.387255e-02 -3.820902e-01  6.349207e-01
     vertex -2.137045e-02 -3.889744e-01  6.349207e-01
   endloop
 endfacet
 facet normal  0.000000e+00  0.000000e+00  1.000000e+00
   outer loop
     vertex  8.947091e-01 -7.130511e-01  6.349207e-01
     vertex  4.814434e-02 -3.713708e-01  6.349207e-01
     vertex  1.387255e-02 -3.820902e-01  6.349207e-01
   endloop
 endfacet
 facet normal  0.000000e+00  0.000000e+00  1.000000e+00
   outer loop
     vertex  8.947091e-01 -7.130511e-01  6.349207e-01
     vertex  8.102890e-02 -3.569463e-01  6.349207e-01
     vertex  4.814434e-02 -3.713708e-01  6.349207e-01
   endloop
 endfacet
 facet normal  0.000000e+00  0.000000e+00  1.000000e+00
   outer loop
     vertex  8.947091e-01 -7.130511e-01  6.349207e-01
     vertex  1.121271e-01 -3.389918e-01  6.349207e-01
     vertex  8.102890e-02 -3.569463e-01  6.349207e-01
   endloop
 endfacet
 facet normal  0.000000e+00  0.000000e+00  1.000000e+00
   outer loop
     vertex  8.947091e-01 -7.130511e-01  6.349207e-01
     vertex  1.410613e-01 -3.177252e-01  6.349207e-01
     vertex  1.121271e-01 -3.389918e-01  6.349207e-01
   endloop
 endfacet
 facet normal  0.000000e+00  0.000000e+00  1.000000e+00
   outer loop
     vertex  8.947091e-01 -7.130511e-01  6.349207e-01
     vertex  1.674805e-01 -2.934046e-01  6.349207e-01
     vertex  1.410613e-01 -3.177252e-01  6.349207e-01
   endloop
 endfacet
 facet normal  0.000000e+00  0.000000e+00  1.000000e+00
   outer loop
     vertex  8.947091e-01 -7.130511e-01  6.349207e-01
     vertex  1.910638e-01 -2.663254e-01  6.349207e-01
     vertex  1.674805e-01 -2.934046e-01  6.349207e-01
   endloop
 endfacet
 facet normal  0.000000e+00  0.000000e+00  1.000000e+00
   outer loop
     vertex  8.947091e-01 -7.130511e-01  6.349207e-01
     vertex  2.115251e-01 -2.368161e-01  6.349207e-01
     vertex  1.910638e-01 -2.663254e-01  6.349207e-01
   endloop
 endfacet
 facet normal  0.000000e+00  0.000000e+00  1.000000e+00
   outer loop
     vertex  8.947091e-01 -7.130511e-01  6.349207e-01
     vertex  2.286159e-01 -2.052350e-01  6.349207e-01
     vertex  2.115251e-01 -2.368161e-01  6.349207e-01
   endloop
 endfacet
 facet normal  0.000000e+00  0.000000e+00  1.000000e+00
   outer loop
     vertex  8.947091e-01 -7.130511e-01  6.349207e-01
     vertex  2.421288e-01 -1.719655e-01  6.349207e-01
     vertex  2.286159e-01 -2.052350e-01  6.349207e-01
   endloop
 endfacet
 facet normal  0.000000e+00  0.000000e+00  1.000000e+00
   outer loop
     vertex  8.947091e-01 -7.130511e-01  6.349207e-01
     vertex  2.518998e-01 -1.374114e-01  6.349207e-01
     vertex  2.421288e-01 -1.719655e-01  6.349207e-01
   endloop
 endfacet
 facet normal  0.000000e+00  0.000000e+00  1.000000e+00
   outer loop
     vertex  8.947091e-01 -7.130511e-01  6.349207e-01
     vertex  2.578103e-01 -1.019921e-01  6.349207e-01
     vertex  2.518998e-01 -1.374114e-01  6.349207e-01
   endloop
 endfacet
 facet normal  0.000000e+00  0.000000e+00  1.000000e+00
   outer loop
     vertex  8.947091e-01 -7.130511e-01  6.349207e-01
     vertex -5.715686e-02 -3.919397e-01  6.349207e-01
     vertex -1.049559e+00 -7.130511e-01  6.349207e-01
   endloop
 endfacet
 facet normal  0.000000e+00  0.000000e+00  1.000000e+00
   outer loop
     vertex  2.597884e-01 -6.613753e-02  6.349207e-01
     vertex  2.578103e-01 -1.019921e-01  6.349207e-01
     vertex  8.947091e-01 -7.130511e-01  6.349207e-01
   endloop
 endfacet
 facet normal  0.000000e+00  0.000000e+00  1.000000e+00
   outer loop
     vertex  8.947091e-01  5.582011e-01  6.349207e-01
     vertex  2.578103e-01 -3.028300e-02  6.349207e-01
     vertex  2.597884e-01 -6.613753e-02  6.349207e-01
   endloop
 endfacet
 facet normal  0.000000e+00  0.000000e+00  1.000000e+00
   outer loop
     vertex  8.947091e-01  5.582011e-01  6.349207e-01
     vertex  2.518998e-01  5.136307e-03  6.349207e-01
     vertex  2.578103e-01 -3.028300e-02  6.349207e-01
   endloop
 endfacet
 facet normal  0.000000e+00  0.000000e+00  1.000000e+00
   outer loop
     vertex  8.947091e-01  5.582011e-01  6.349207e-01
     vertex  2.421288e-01  3.969045e-02  6.349207e-01
     vertex  2.518998e-01  5.136307e-03  6.349207e-01
   endloop
 endfacet
 facet normal  0.000000e+00  0.000000e+00  1.000000e+00
   outer loop
     vertex  8.947091e-01  5.582011e-01  6.349207e-01
     vertex  2.286159e-01  7.295998e-02  6.349207e-01
     vertex  2.421288e-01  3.969045e-02  6.349207e-01
   endloop
 endfacet
 facet normal  0.000000e+00  0.000000e+00  1.000000e+00
   outer loop
     vertex  8.947091e-01  5.582011e-01  6.349207e-01
     vertex  2.115251e-01  1.045411e-01  6.349207e-01
     vertex  2.286159e-01  7.295998e-02  6.349207e-01
   endloop
 endfacet
 facet normal  0.000000e+00  0.000000e+00  1.000000e+00
   outer loop
     vertex  8.947091e-01  5.582011e-01  6.349207e-01
     vertex  1.910638e-01  1.340503e-01  6.349207e-01
     vertex  2.115251e-01  1.045411e-01  6.349207e-01
   endloop
 endfacet
 facet normal  0.000000e+00  0.000000e+00  1.000000e+00
   outer loop
     vertex  8.947091e-01  5.582011e-01  6.349207e-01
     vertex  1.674805e-01  1.611296e-01  6.349207e-01
     vertex  1.910638e-01  1.340503e-01  6.349207e-01
   endloop
 endfacet
 facet normal  0.000000e+00  0.000000e+00  1.000000e+00
   outer loop
     vertex  8.947091e-01  5.582011e-01  6.349207e-01
     vertex  1.410613e-01  1.854501e-01  6.349207e-01
     vertex  1.674805e-01  1.611296e-01  6.349207e-01
   endloop
 endfacet
 facet normal  0.000000e+00  0.000000e+00  1.000000e+00
   outer loop
     vertex  8.947091e-01  5.582011e-01  6.349207e-01
     vertex  1.121271e-01  2.067167e-01  6.349207e-01
     vertex  1.410613e-01  1.854501e-01  6.349207e-01
   endloop
 endfacet
 facet normal  0.000000e+00  0.000000e+00  1.000000e+00
   outer loop
     vertex  8.947091e-01  5.582011e-01  6.349207e-01
     vertex  8.102890e-02  2.246713e-01  6.349207e-01
     vertex  1.121271e-01  2.067167e-01  6.349207e-01
   endloop
 endfacet
 facet normal  0.000000e+00  0.000000e+00  1.000000e+00
   outer loop
     vertex  8.947091e-01  5.582011e-01  6.349207e-01
     vertex  4.814434e-02  2.390958e-01  6.349207e-01
     vertex  8.102890e-02  2.246713e-01  6.349207e-01
   endloop
 endfacet
 facet normal  0.000000e+00  0.000000e+00  1.000000e+00
   outer loop
     vertex  8.947091e-01  5.582011e-01  6.349207e-01
     vertex  1.387255e-02  2.498152e-01  6.349207e-01
     vertex  4.814434e-02  2.390958e-01  6.349207e-01
   endloop
 endfacet
 facet normal  0.000000e+00  0.000000e+00  1.000000e+00
   outer loop
     vertex  8.947091e-01  5.582011e-01  6.349207e-01
     vertex -2.137045e-02  2.566993e-01  6.349207e-01
     vertex  1.387255e-02  2.498152e-01  6.349207e-01
   endloop
 endfacet
 facet normal  0.000000e+00  0.000000e+00  1.000000e+00
   outer loop
     vertex  8.947091e-01  5.582011e-01  6.349207e-01
     vertex  2.597884e-01 -6.613753e-02  6.349207e-01
     vertex  8.947091e-01 -7.130511e-01  6.349207e-01
   endloop
 endfacet
 facet normal  0.000000e+00  0.000000e+00  1.000000e+00
   outer loop
     vertex  8.947091e-01  5.582011e-01  6.349207e-01
     vertex -1.049559e+00  5.582011e-01  6.349207e-01
     vertex -5.715686e-02  2.596647e-01  6.349207e-01
   endloop
 endfacet
 facet normal  0.000000e+00  0.000000e+00  1.000000e+00
   outer loop
     vertex -5.715686e-02  2.596647e-01  6.349207e-01
     vertex -1.049559e+00  5.582011e-01  6.349207e-01
     vertex -9.305228e-02  2.586752e-01  6.349207e-01
   endloop
 endfacet
 facet normal  0.000000e+00  0.000000e+00  1.000000e+00
   outer loop
     vertex  8.947091e-01  5.582011e-01  6.349207e-01
     vertex -5.715686e-02  2.596647e-01  6.349207e-01
     vertex -2.137045e-02  2.566993e-01  6.349207e-01
   endloop
 endfacet
 facet normal  0.000000e+00  1.000000e+00  0.000000e+00
   outer loop
     vertex -1.049559e+00  5.582011e-01 -1.587302e-02
     vertex  8.947091e-01  5.582011e-01  6.349207e-01
     vertex  8.947091e-01  5.582011e-01 -1.587302e-02
   endloop
 endfacet
 facet normal  0.000000e+00  1.000000e+00  0.000000e+00
   outer loop
     vertex -1.049559e+00  5.582011e-01 -1.587302e-02
     vertex -1.049559e+00  5.582011e-01  6.349207e-01
     vertex  8.947091e-01  5.582011e-01  6.349207e-01
   endloop
 endfacet
 facet normal -1.000000e+00  0.000000e+00  0.000000e+00
   outer loop
     vertex -1.049559e+00 -7.130511e-01 -1.587302e-02
     vertex -1.049559e+00  5.582011e-01 -1.587302e-02
     vertex -1.049559e+00  5.582011e-01 -3.174603e-02
   endloop
 endfacet
 facet normal -1.000000e+00  0.000000e+00  0.000000e+00
   outer loop
     vertex -1.049559e+00 -7.130511e-01 -1.587302e-02
     vertex -1.049559e+00  5.582011e-01 -3.174603e-02
     vertex -1.049559e+00 -7.130511e-01 -3.174603e-02
   endloop
 endfacet
 facet normal  1.000000e+00  0.000000e+00  0.000000e+00
   outer loop
     vertex  8.947091e-01  5.582011e-01 -1.587302e-02
     vertex  8.947091e-01 -7.130511e-01 -1.587302e-02
     vertex  8.947091e-01 -7.130511e-01 -3.174603e-02
   endloop
 endfacet
 facet normal  1.000000e+00  0.000000e+00  0.000000e+00
   outer loop
     vertex  8.947091e-01  5.582011e-01 -1.587302e-02
     vertex  8.947091e-01 -7.130511e-01 -3.174603e-02
     vertex  8.947091e-01  5.582011e-01 -3.174603e-02
   endloop
 endfacet
 facet normal  1.796505e-17  1.747667e-17 -1.000000e+00
   outer loop
     vertex -3.119204e-01 -2.801900e-01 -3.174603e-02
     vertex -2.868812e-01 -3.059290e-01 -3.174603e-02
     vertex -1.049559e+00 -7.130511e-01 -3.174603e-02
   endloop
 endfacet
 facet normal  1.656036e-17  2.010813e-17 -1.000000e+00
   outer loop
     vertex -2.591624e-01 -3.287573e-01 -3.174603e-02
     vertex -1.049559e+00 -7.130511e-01 -3.174603e-02
     vertex -2.868812e-01 -3.059290e-01 -3.174603e-02
   endloop
 endfacet
 facet normal  1.937250e-17  1.507822e-17 -1.000000e+00
   outer loop
     vertex -3.339762e-01 -2.518528e-01 -3.174603e-02
     vertex -3.119204e-01 -2.801900e-01 -3.174603e-02
     vertex -1.049559e+00 -7.130511e-01 -3.174603e-02
   endloop
 endfacet
 facet normal  1.509985e-17  2.311204e-17 -1.000000e+00
   outer loop
     vertex -2.291005e-01 -3.483977e-01 -3.174603e-02
     vertex -1.049559e+00 -7.130511e-01 -3.174603e-02
     vertex -2.591624e-01 -3.287573e-01 -3.174603e-02
   endloop
 endfacet
 facet normal  2.083584e-17  1.280774e-17 -1.000000e+00
   outer loop
     vertex -3.527808e-01 -2.212611e-01 -3.174603e-02
     vertex -3.339762e-01 -2.518528e-01 -3.174603e-02
     vertex -1.049559e+00 -7.130511e-01 -3.174603e-02
   endloop
 endfacet
 facet normal  1.350826e-17  2.669305e-17 -1.000000e+00
   outer loop
     vertex -1.970605e-01 -3.646118e-01 -3.174603e-02
     vertex -1.049559e+00 -7.130511e-01 -3.174603e-02
     vertex -2.291005e-01 -3.483977e-01 -3.174603e-02
   endloop
 endfacet
 facet normal  2.241101e-17  1.057601e-17 -1.000000e+00
   outer loop
     vertex -3.681060e-01 -1.887865e-01 -3.174603e-02
     vertex -3.527808e-01 -2.212611e-01 -3.174603e-02
     vertex -1.049559e+00 -7.130511e-01 -3.174603e-02
   endloop
 endfacet
 facet normal  1.167418e-17  3.118035e-17 -1.000000e+00
   outer loop
     vertex -1.634313e-01 -3.772029e-01 -3.174603e-02
     vertex -1.049559e+00 -7.130511e-01 -3.174603e-02
     vertex -1.970605e-01 -3.646118e-01 -3.174603e-02
   endloop
 endfacet
 facet normal  2.416517e-17  8.295913e-18 -1.000000e+00
   outer loop
     vertex -3.797656e-01 -1.548231e-01 -3.174603e-02
     vertex -3.681060e-01 -1.887865e-01 -3.174603e-02
     vertex -1.049559e+00 -7.130511e-01 -3.174603e-02
   endloop
 endfacet
 facet normal  9.409254e-18  3.715630e-17 -1.000000e+00
   outer loop
     vertex -1.286210e-01 -3.860180e-01 -3.174603e-02
     vertex -1.049559e+00 -7.130511e-01 -3.174603e-02
     vertex -1.634313e-01 -3.772029e-01 -3.174603e-02
   endloop
 endfacet
 facet normal  2.618796e-17  5.868858e-18 -1.000000e+00
   outer loop
     vertex -3.876183e-01 -1.197832e-01 -3.174603e-02
     vertex -3.797656e-01 -1.548231e-01 -3.174603e-02
     vertex -1.049559e+00 -7.130511e-01 -3.174603e-02
   endloop
 endfacet
 facet normal  6.347846e-18  4.577735e-17 -1.000000e+00
   outer loop
     vertex -9.305228e-02 -3.909503e-01 -3.174603e-02
     vertex -1.049559e+00 -7.130511e-01 -3.174603e-02
     vertex -1.286210e-01 -3.860180e-01 -3.174603e-02
   endloop
 endfacet
 facet normal  3.163675e-17  0.000000e+00 -1.000000e+00
   outer loop
     vertex -3.915686e-01 -8.409206e-02 -3.174603e-02
     vertex -1.049559e+00 -7.130511e-01 -3.174603e-02
     vertex -1.049559e+00  5.582011e-01 -3.174603e-02
   endloop
 endfacet
 facet normal  2.860992e-17  3.166545e-18 -1.000000e+00
   outer loop
     vertex -3.915686e-01 -8.409206e-02 -3.174603e-02
     vertex -3.876183e-01 -1.197832e-01 -3.174603e-02
     vertex -1.049559e+00 -7.130511e-01 -3.174603e-02
   endloop
 endfacet
 facet normal  1.646664e-18  5.973792e-17 -1.000000e+00
   outer loop
     vertex -5.715686e-02 -3.919397e-01 -3.174603e-02
     vertex -1.049559e+00 -7.130511e-01 -3.174603e-02
     vertex -9.305228e-02 -3.909503e-01 -3.174603e-02
   endloop
 endfacet
 facet normal  3.163675e-17 -4.890667e-32 -1.000000e+00
   outer loop
     vertex -3.915686e-01 -4.818300e-02 -3.174603e-02
     vertex -3.915686e-01 -8.409206e-02 -3.174603e-02
     vertex -1.049559e+00  5.582011e-01 -3.174603e-02
   endloop
 endfacet
 facet normal  2.870850e-17 -3.177456e-18 -1.000000e+00
   outer loop
     vertex -3.876183e-01 -1.249189e-02 -3.174603e-02
     vertex -3.915686e-01 -4.818300e-02 -3.174603e-02
     vertex -1.049559e+00  5.582011e-01 -3.174603e-02
   endloop
 endfacet
 facet normal  2.635570e-17 -5.906450e-18 -1.000000e+00
   outer loop
     vertex -3.797656e-01  2.254804e-02 -3.174603e-02
     vertex -3.876183e-01 -1.249189e-02 -3.174603e-02
     vertex -1.049559e+00  5.582011e-01 -3.174603e-02
   endloop
 endfacet
 facet normal  2.438455e-17 -8.371225e-18 -1.000000e+00
   outer loop
     vertex -3.681060e-01  5.651145e-02 -3.174603e-02
     vertex -3.797656e-01  2.254804e-02 -3.174603e-02
     vertex -1.049559e+00  5.582011e-01 -3.174603e-02
   endloop
 endfacet
 facet normal  2.267103e-17 -1.069872e-17 -1.000000e+00
   outer loop
     vertex -3.527808e-01  8.898607e-02 -3.174603e-02
     vertex -3.681060e-01  5.651145e-02 -3.174603e-02
     vertex -1.049559e+00  5.582011e-01 -3.174603e-02
   endloop
 endfacet
 facet normal  2.112932e-17 -1.298814e-17 -1.000000e+00
   outer loop
     vertex -3.339762e-01  1.195777e-01 -3.174603e-02
     vertex -3.527808e-01  8.898607e-02 -3.174603e-02
     vertex -1.049559e+00  5.582011e-01 -3.174603e-02
   endloop
 endfacet
 facet normal  1.969454e-17 -1.532888e-17 -1.000000e+00
   outer loop
     vertex -3.119204e-01  1.479150e-01 -3.174603e-02
     vertex -3.339762e-01  1.195777e-01 -3.174603e-02
     vertex -1.049559e+00  5.582011e-01 -3.174603e-02
   endloop
 endfacet
 facet normal  1.831211e-17 -1.781430e-17 -1.000000e+00
   outer loop
     vertex -2.868812e-01  1.736540e-01 -3.174603e-02
     vertex -3.119204e-01  1.479150e-01 -3.174603e-02
     vertex -1.049559e+00  5.582011e-01 -3.174603e-02
   endloop
 endfacet
 facet normal  1.692953e-17 -2.055639e-17 -1.000000e+00
   outer loop
     vertex -2.591624e-01  1.964822e-01 -3.174603e-02
     vertex -2.868812e-01  1.736540e-01 -3.174603e-02
     vertex -1.049559e+00  5.582011e-01 -3.174603e-02
   endloop
 endfacet
 facet normal  1.548804e-17 -2.370621e-17 -1.000000e+00
   outer loop
     vertex -2.291005e-01  2.161226e-01 -3.174603e-02
     vertex -2.591624e-01  1.964822e-01 -3.174603e-02
     vertex -1.049559e+00  5.582011e-01 -3.174603e-02
   endloop
 endfacet
 facet normal  1.391095e-17 -2.748879e-17 -1.000000e+00
   outer loop
     vertex -1.970605e-01  2.323367e-01 -3.174603e-02
     vertex -2.291005e-01  2.161226e-01 -3.174603e-02
     vertex -1.049559e+00  5.582011e-01 -3.174603e-02
   endloop
 endfacet
 facet normal  1.208275e-17 -3.227158e-17 -1.000000e+00
   outer loop
     vertex -1.634313e-01  2.449278e-01 -3.174603e-02
     vertex -1.970605e-01  2.323367e-01 -3.174603e-02
     vertex -1.049559e+00  5.582011e-01 -3.174603e-02
   endloop
 endfacet
 facet normal  9.804316e-18 -3.871637e-17 -1.000000e+00
   outer loop
     vertex -1.286210e-01  2.537430e-01 -3.174603e-02
     vertex -1.634313e-01  2.449278e-01 -3.174603e-02
     vertex -1.049559e+00  5.582011e-01 -3.174603e-02
   endloop
 endfacet
 facet normal  6.679439e-18 -4.816863e-17 -1.000000e+00
   outer loop
     vertex -9.305228e-02  2.586752e-01 -3.174603e-02
     vertex -1.286210e-01  2.537430e-01 -3.174603e-02
     vertex -1.049559e+00  5.582011e-01 -3.174603e-02
   endloop
 endfacet
 facet normal -4.312457e-18  5.204362e-17 -1.000000e+00
   outer loop
     vertex  8.947091e-01 -7.130511e-01 -3.174603e-02
     vertex -5.715686e-02 -3.919397e-01 -3.174603e-02
     vertex -2.137045e-02 -3.889744e-01 -3.174603e-02
   endloop
 endfacet
 facet normal -8.083609e-18  4.138357e-17 -1.000000e+00
   outer loop
     vertex  8.947091e-01 -7.130511e-01 -3.174603e-02
     vertex -2.137045e-02 -3.889744e-01 -3.174603e-02
     vertex  1.387255e-02 -3.820902e-01 -3.174603e-02
   endloop
 endfacet
 facet normal -1.073591e-17  3.432461e-17 -1.000000e+00
   outer loop
     vertex  8.947091e-01 -7.130511e-01 -3.174603e-02
     vertex  1.387255e-02 -3.820902e-01 -3.174603e-02
     vertex  4.814434e-02 -3.713708e-01 -3.174603e-02
   endloop
 endfacet
 facet normal -1.280619e-17  2.919517e-17 -1.000000e+00
   outer loop
     vertex  8.947091e-01 -7.130511e-01 -3.174603e-02
     vertex  4.814434e-02 -3.713708e-01 -3.174603e-02
     vertex  8.102890e-02 -3.569463e-01 -3.174603e-02
   endloop
 endfacet
 facet normal -1.455232e-17  2.520536e-17 -1.000000e+00
   outer loop
     vertex  8.947091e-01 -7.130511e-01 -3.174603e-02
     vertex  8.102890e-02 -3.569463e-01 -3.174603e-02
     vertex  1.121271e-01 -3.389918e-01 -3.174603e-02
   endloop
 endfacet
 facet normal -1.611812e-17  2.192949e-17 -1.000000e+00
   outer loop
     vertex  8.947091e-01 -7.130511e-01 -3.174603e-02
     vertex  1.121271e-01 -3.389918e-01 -3.174603e-02
     vertex  1.410613e-01 -3.177252e-01 -3.174603e-02
   endloop
 endfacet
 facet normal -1.759524e-17  1.911352e-17 -1.000000e+00
   outer loop
     vertex  8.947091e-01 -7.130511e-01 -3.174603e-02
     vertex  1.410613e-01 -3.177252e-01 -3.174603e-02
     vertex  1.674805e-01 -2.934046e-01 -3.174603e-02
   endloop
 endfacet
 facet normal -1.905070e-17  1.659127e-17 -1.000000e+00
   outer loop
     vertex  8.947091e-01 -7.130511e-01 -3.174603e-02
     vertex  1.674805e-01 -2.934046e-01 -3.174603e-02
     vertex  1.910638e-01 -2.663254e-01 -3.174603e-02
   endloop
 endfacet
 facet normal -2.054147e-17  1.424314e-17 -1.000000e+00
   outer loop
     vertex  8.947091e-01 -7.130511e-01 -3.174603e-02
     vertex  1.910638e-01 -2.663254e-01 -3.174603e-02
     vertex  2.115251e-01 -2.368161e-01 -3.174603e-02
   endloop
 endfacet
 facet normal -2.212400e-17  1.197291e-17 -1.000000e+00
   outer loop
     vertex  8.947091e-01 -7.130511e-01 -3.174603e-02
     vertex  2.115251e-01 -2.368161e-01 -3.174603e-02
     vertex  2.286159e-01 -2.052350e-01 -3.174603e-02
   endloop
 endfacet
 facet normal -2.386276e-17  9.692215e-18 -1.000000e+00
   outer loop
     vertex  8.947091e-01 -7.130511e-01 -3.174603e-02
     vertex  2.286159e-01 -2.052350e-01 -3.174603e-02
     vertex  2.421288e-01 -1.719655e-01 -3.174603e-02
   endloop
 endfacet
 facet normal -2.584046e-17  7.306987e-18 -1.000000e+00
   outer loop
     vertex  8.947091e-01 -7.130511e-01 -3.174603e-02
     vertex  2.421288e-01 -1.719655e-01 -3.174603e-02
     vertex  2.518998e-01 -1.374114e-01 -3.174603e-02
   endloop
 endfacet
 facet normal -2.817381e-17  4.701377e-18 -1.000000e+00
   outer loop
     vertex  8.947091e-01 -7.130511e-01 -3.174603e-02
     vertex  2.518998e-01 -1.374114e-01 -3.174603e-02
     vertex  2.578103e-01 -1.019921e-01 -3.174603e-02
   endloop
 endfacet
 facet normal  0.000000e+00  6.482697e-17 -1.000000e+00
   outer loop
     vertex  8.947091e-01 -7.130511e-01 -3.174603e-02
     vertex -1.049559e+00 -7.130511e-01 -3.174603e-02
     vertex -5.715686e-02 -3.919397e-01 -3.174603e-02
   endloop
 endfacet
 facet normal -3.104133e-17  1.712598e-18 -1.000000e+00
   outer loop
     vertex  2.597884e-01 -6.613753e-02 -3.174603e-02
     vertex  8.947091e-01 -7.130511e-01 -3.174603e-02
     vertex  2.578103e-01 -1.019921e-01 -3.174603e-02
   endloop
 endfacet
 facet normal -3.109908e-17 -1.715784e-18 -1.000000e+00
   outer loop
     vertex  8.947091e-01  5.582011e-01 -3.174603e-02
     vertex  2.597884e-01 -6.613753e-02 -3.174603e-02
     vertex  2.578103e-01 -3.028300e-02 -3.174603e-02
   endloop
 endfacet
 facet normal -2.831819e-17 -4.725469e-18 -1.000000e+00
   outer loop
     vertex  8.947091e-01  5.582011e-01 -3.174603e-02
     vertex  2.578103e-01 -3.028300e-02 -3.174603e-02
     vertex  2.518998e-01  5.136307e-03 -3.174603e-02
   endloop
 endfacet
 facet normal -2.604686e-17 -7.365351e-18 -1.000000e+00
   outer loop
     vertex  8.947091e-01  5.582011e-01 -3.174603e-02
     vertex  2.518998e-01  5.136307e-03 -3.174603e-02
     vertex  2.421288e-01  3.969045e-02 -3.174603e-02
   endloop
 endfacet
 facet normal -2.411624e-17 -9.795170e-18 -1.000000e+00
   outer loop
     vertex  8.947091e-01  5.582011e-01 -3.174603e-02
     vertex  2.421288e-01  3.969045e-02 -3.174603e-02
     vertex  2.286159e-01  7.295998e-02 -3.174603e-02
   endloop
 endfacet
 facet normal -2.241504e-17 -1.213041e-17 -1.000000e+00
   outer loop
     vertex  8.947091e-01  5.582011e-01 -3.174603e-02
     vertex  2.286159e-01  7.295998e-02 -3.174603e-02
     vertex  2.115251e-01  1.045411e-01 -3.174603e-02
   endloop
 endfacet
 facet normal -2.086373e-17 -1.446659e-17 -1.000000e+00
   outer loop
     vertex  8.947091e-01  5.582011e-01 -3.174603e-02
     vertex  2.115251e-01  1.045411e-01 -3.174603e-02
     vertex  1.910638e-01  1.340503e-01 -3.174603e-02
   endloop
 endfacet
 facet normal -1.939975e-17 -1.689526e-17 -1.000000e+00
   outer loop
     vertex  8.947091e-01  5.582011e-01 -3.174603e-02
     vertex  1.910638e-01  1.340503e-01 -3.174603e-02
     vertex  1.674805e-01  1.611296e-01 -3.174603e-02
   endloop
 endfacet
 facet normal -1.796767e-17 -1.951809e-17 -1.000000e+00
   outer loop
     vertex  8.947091e-01  5.582011e-01 -3.174603e-02
     vertex  1.674805e-01  1.611296e-01 -3.174603e-02
     vertex  1.410613e-01  1.854501e-01 -3.174603e-02
   endloop
 endfacet
 facet normal -1.651077e-17 -2.246372e-17 -1.000000e+00
   outer loop
     vertex  8.947091e-01  5.582011e-01 -3.174603e-02
     vertex  1.410613e-01  1.854501e-01 -3.174603e-02
     vertex  1.121271e-01  2.067167e-01 -3.174603e-02
   endloop
 endfacet
 facet normal -1.496128e-17 -2.591369e-17 -1.000000e+00
   outer loop
     vertex  8.947091e-01  5.582011e-01 -3.174603e-02
     vertex  1.121271e-01  2.067167e-01 -3.174603e-02
     vertex  8.102890e-02  2.246713e-01 -3.174603e-02
   endloop
 endfacet
 facet normal -1.322490e-17 -3.014974e-17 -1.000000e+00
   outer loop
     vertex  8.947091e-01  5.582011e-01 -3.174603e-02
     vertex  8.102890e-02  2.246713e-01 -3.174603e-02
     vertex  4.814434e-02  2.390958e-01 -3.174603e-02
   endloop
 endfacet
 facet normal -1.115099e-17 -3.565170e-17 -1.000000e+00
   outer loop
     vertex  8.947091e-01  5.582011e-01 -3.174603e-02
     vertex  4.814434e-02  2.390958e-01 -3.174603e-02
     vertex  1.387255e-02  2.498152e-01 -3.174603e-02
   endloop
 endfacet
 facet normal -8.463440e-18 -4.332809e-17 -1.000000e+00
   outer loop
     vertex  8.947091e-01  5.582011e-01 -3.174603e-02
     vertex  1.387255e-02  2.498152e-01 -3.174603e-02
     vertex -2.137045e-02  2.566993e-01 -3.174603e-02
   endloop
 endfacet
 facet normal -3.278627e-17 -0.000000e+00 -1.000000e+00
   outer loop
     vertex  8.947091e-01  5.582011e-01 -3.174603e-02
     vertex  8.947091e-01 -7.130511e-01 -3.174603e-02
     vertex  2.597884e-01 -6.613753e-02 -3.174603e-02
   endloop
 endfacet
 facet normal -0.000000e+00 -6.972910e-17 -1.000000e+00
   outer loop
     vertex  8.947091e-01  5.582011e-01 -3.174603e-02
     vertex -5.715686e-02  2.596647e-01 -3.174603e-02
     vertex -1.049559e+00  5.582011e-01 -3.174603e-02
   endloop
 endfacet
 facet normal  1.760731e-18 -6.387604e-17 -1.000000e+00
   outer loop
     vertex -5.715686e-02  2.596647e-01 -3.174603e-02
     vertex -9.305228e-02  2.586752e-01 -3.174603e-02
     vertex -1.049559e+00  5.582011e-01 -3.174603e-02
   endloop
 endfacet
 facet normal -4.570408e-18 -5.515663e-17 -1.000000e+00
   outer loop
     vertex  8.947091e-01  5.582011e-01 -3.174603e-02
     vertex -2.137045e-02  2.566993e-01 -3.174603e-02
     vertex -5.715686e-02  2.596647e-01 -3.174603e-02
   endloop
 endfacet
 facet normal -9.984815e-01 -5.508776e-02  0.000000e+00
   outer loop
     vertex  2.578103e-01 -3.028300e-02  6.349207e-01
     vertex  2.597884e-01 -6.613753e-02 -3.174603e-02
     vertex  2.597884e-01 -6.613753e-02  6.349207e-01
   endloop
 endfacet
 facet normal -9.984815e-01 -5.508776e-02 -0.000000e+00
   outer loop
     vertex  2.578103e-01 -3.028300e-02  6.349207e-01
     vertex  2.578103e-01 -3.028300e-02 -3.174603e-02
     vertex  2.597884e-01 -6.613753e-02 -3.174603e-02
   endloop
 endfacet
 facet normal -9.863613e-01 -1.645946e-01  0.000000e+00
   outer loop
     vertex  2.518998e-01  5.136307e-03  6.349207e-01
     vertex  2.578103e-01 -3.028300e-02 -3.174603e-02
     vertex  2.578103e-01 -3.028300e-02  6.349207e-01
   endloop
 endfacet
 facet normal -9.863613e-01 -1.645946e-01 -0.000000e+00
   outer loop
     vertex  2.518998e-01  5.136307e-03  6.349207e-01
     vertex  2.518998e-01  5.136307e-03 -3.174603e-02
     vertex  2.578103e-01 -3.028300e-02 -3.174603e-02
   endloop
 endfacet
 facet normal -9.622680e-01 -2.721035e-01  0.000000e+00
   outer loop
     vertex  2.421288e-01  3.969045e-02  6.349207e-01
     vertex  2.518998e-01  5.136307e-03 -3.174603e-02
     vertex  2.518998e-01  5.136307e-03  6.349207e-01
   endloop
 endfacet
 facet normal -9.622680e-01 -2.721035e-01 -0.000000e+00
   outer loop
     vertex  2.421288e-01  3.969045e-02  6.349207e-01
     vertex  2.421288e-01  3.969045e-02 -3.174603e-02
     vertex  2.518998e-01  5.136307e-03 -3.174603e-02
   endloop
 endfacet
 facet normal -9.264941e-01 -3.763094e-01  0.000000e+00
   outer loop
     vertex  2.286159e-01  7.295998e-02  6.349207e-01
     vertex  2.421288e-01  3.969045e-02 -3.174603e-02
     vertex  2.421288e-01  3.969045e-02  6.349207e-01
   endloop
 endfacet
 facet normal -9.264941e-01 -3.763094e-01 -0.000000e+00
   outer loop
     vertex  2.286159e-01  7.295998e-02  6.349207e-01
     vertex  2.286159e-01  7.295998e-02 -3.174603e-02
     vertex  2.421288e-01  3.969045e-02 -3.174603e-02
   endloop
 endfacet
 facet normal -8.794738e-01 -4.759474e-01  0.000000e+00
   outer loop
     vertex  2.115251e-01  1.045411e-01  6.349207e-01
     vertex  2.286159e-01  7.295998e-02 -3.174603e-02
     vertex  2.286159e-01  7.295998e-02  6.349207e-01
   endloop
 endfacet
 facet normal -8.794738e-01 -4.759474e-01 -0.000000e+00
   outer loop
     vertex  2.115251e-01  1.045411e-01  6.349207e-01
     vertex  2.115251e-01  1.045411e-01 -3.174603e-02
     vertex  2.286159e-01  7.295998e-02 -3.174603e-02
   endloop
 endfacet
 facet normal -8.217778e-01 -5.698081e-01  0.000000e+00
   outer loop
     vertex  1.910638e-01  1.340503e-01  6.349207e-01
     vertex  2.115251e-01  1.045411e-01 -3.174603e-02
     vertex  2.115251e-01  1.045411e-01  6.349207e-01
   endloop
 endfacet
 facet normal -8.217778e-01 -5.698081e-01 -0.000000e+00
   outer loop
     vertex  1.910638e-01  1.340503e-01  6.349207e-01
     vertex  1.910638e-01  1.340503e-01 -3.174603e-02
     vertex  2.115251e-01  1.045411e-01 -3.174603e-02
   endloop
 endfacet
 facet normal -7.541066e-01 -6.567520e-01 -0.000000e+00
   outer loop
     vertex  1.910638e-01  1.340503e-01  6.349207e-01
     vertex  1.674805e-01  1.611296e-01 -3.174603e-02
     vertex  1.910638e-01  1.340503e-01 -3.174603e-02
   endloop
 endfacet
 facet normal -7.541066e-01 -6.567520e-01 -0.000000e+00
   outer loop
     vertex  1.674805e-01  1.611296e-01  6.349207e-01
     vertex  1.674805e-01  1.611296e-01 -3.174603e-02
     vertex  1.910638e-01  1.340503e-01  6.349207e-01
   endloop
 endfacet
 facet normal -6.772816e-01 -7.357239e-01  0.000000e+00
   outer loop
     vertex  1.410613e-01  1.854501e-01  6.349207e-01
     vertex  1.674805e-01  1.611296e-01 -3.174603e-02
     vertex  1.674805e-01  1.611296e-01  6.349207e-01
   endloop
 endfacet
 facet normal -6.772816e-01 -7.357239e-01 -0.000000e+00
   outer loop
     vertex  1.410613e-01  1.854501e-01  6.349207e-01
     vertex  1.410613e-01  1.854501e-01 -3.174603e-02
     vertex  1.674805e-01  1.611296e-01 -3.174603e-02
   endloop
 endfacet
 facet normal -5.922353e-01 -8.057651e-01  0.000000e+00
   outer loop
     vertex  1.121271e-01  2.067167e-01  6.349207e-01
     vertex  1.410613e-01  1.854501e-01 -3.174603e-02
     vertex  1.410613e-01  1.854501e-01  6.349207e-01
   endloop
 endfacet
 facet normal -5.922353e-01 -8.057651e-01 -0.000000e+00
   outer loop
     vertex  1.121271e-01  2.067167e-01  6.349207e-01
     vertex  1.121271e-01  2.067167e-01 -3.174603e-02
     vertex  1.410613e-01  1.854501e-01 -3.174603e-02
   endloop
 endfacet
 facet normal -5.000000e-01 -8.660254e-01  0.000000e+00
   outer loop
     vertex  8.102890e-02  2.246713e-01  6.349207e-01
     vertex  1.121271e-01  2.067167e-01 -3.174603e-02
     vertex  1.121271e-01  2.067167e-01  6.349207e-01
   endloop
 endfacet
 facet normal -5.000000e-01 -8.660254e-01 -0.000000e+00
   outer loop
     vertex  8.102890e-02  2.246713e-01  6.349207e-01
     vertex  8.102890e-02  2.246713e-01 -3.174603e-02
     vertex  1.121271e-01  2.067167e-01 -3.174603e-02
   endloop
 endfacet
 facet normal -4.016954e-01 -9.157733e-01  0.000000e+00
   outer loop
     vertex  4.814434e-02  2.390958e-01  6.349207e-01
     vertex  8.102890e-02  2.246713e-01 -3.174603e-02
     vertex  8.102890e-02  2.246713e-01  6.349207e-01
   endloop
 endfacet
 facet normal -4.016954e-01 -9.157733e-01 -0.000000e+00
   outer loop
     vertex  4.814434e-02  2.390958e-01  6.349207e-01
     vertex  4.814434e-02  2.390958e-01 -3.174603e-02
     vertex  8.102890e-02  2.246713e-01 -3.174603e-02
   endloop
 endfacet
 facet normal -2.985148e-01 -9.544050e-01 -0.000000e+00
   outer loop
     vertex  4.814434e-02  2.390958e-01  6.349207e-01
     vertex  1.387255e-02  2.498152e-01 -3.174603e-02
     vertex  4.814434e-02  2.390958e-01 -3.174603e-02
   endloop
 endfacet
 facet normal -2.985148e-01 -9.544050e-01 -0.000000e+00
   outer loop
     vertex  1.387255e-02  2.498152e-01  6.349207e-01
     vertex  1.387255e-02  2.498152e-01 -3.174603e-02
     vertex  4.814434e-02  2.390958e-01  6.349207e-01
   endloop
 endfacet
 facet normal -1.917106e-01 -9.814515e-01 -0.000000e+00
   outer loop
     vertex -2.137045e-02  2.566993e-01  6.349207e-01
     vertex -2.137045e-02  2.566993e-01 -3.174603e-02
     vertex  1.387255e-02  2.498152e-01 -3.174603e-02
   endloop
 endfacet
 facet normal -1.917106e-01 -9.814515e-01  0.000000e+00
   outer loop
     vertex -2.137045e-02  2.566993e-01  6.349207e-01
     vertex  1.387255e-02  2.498152e-01 -3.174603e-02
     vertex  1.387255e-02  2.498152e-01  6.349207e-01
   endloop
 endfacet
 facet normal -8.257935e-02 -9.965845e-01 -0.000000e+00
   outer loop
     vertex -5.715686e-02  2.596647e-01  6.349207e-01
     vertex -5.715686e-02  2.596647e-01 -3.174603e-02
     vertex -2.137045e-02  2.566993e-01 -3.174603e-02
   endloop
 endfacet
 facet normal -8.257935e-02 -9.965845e-01  0.000000e+00
   outer loop
     vertex -5.715686e-02  2.596647e-01  6.349207e-01
     vertex -2.137045e-02  2.566993e-01 -3.174603e-02
     vertex -2.137045e-02  2.566993e-01  6.349207e-01
   endloop
 endfacet
 facet normal  2.755434e-02 -9.996203e-01  0.000000e+00
   outer loop
     vertex -9.305228e-02  2.586752e-01  6.349207e-01
     vertex -9.305228e-02  2.586752e-01 -3.174603e-02
     vertex -5.715686e-02  2.596647e-01 -3.174603e-02
   endloop
 endfacet
 facet normal  1.373536e-01 -9.905221e-01  0.000000e+00
   outer loop
     vertex -9.305228e-02  2.586752e-01  6.349207e-01
     vertex -1.286210e-01  2.537430e-01 -3.174603e-02
     vertex -9.305228e-02  2.586752e-01 -3.174603e-02
   endloop
 endfacet
 facet normal  2.755434e-02 -9.996203e-01  0.000000e+00
   outer loop
     vertex -9.305228e-02  2.586752e-01  6.349207e-01
     vertex -5.715686e-02  2.596647e-01 -3.174603e-02
     vertex -5.715686e-02  2.596647e-01  6.349207e-01
   endloop
 endfacet
 facet normal  2.454855e-01 -9.694003e-01  0.000000e+00
   outer loop
     vertex -1.286210e-01  2.537430e-01  6.349207e-01
     vertex -1.634313e-01  2.449278e-01 -3.174603e-02
     vertex -1.286210e-01  2.537430e-01 -3.174603e-02
   endloop
 endfacet
 facet normal  1.373536e-01 -9.905221e-01  0.000000e+00
   outer loop
     vertex -1.286210e-01  2.537430e-01  6.349207e-01
     vertex -1.286210e-01  2.537430e-01 -3.174603e-02
     vertex -9.305228e-02  2.586752e-01  6.349207e-01
   endloop
 endfacet
 facet normal  2.454855e-01 -9.694003e-01  0.000000e+00
   outer loop
     vertex -1.634313e-01  2.449278e-01  6.349207e-01
     vertex -1.634313e-01  2.449278e-01 -3.174603e-02
     vertex -1.286210e-01  2.537430e-01  6.349207e-01
   endloop
 endfacet
 facet normal  3.506376e-01 -9.365112e-01  0.000000e+00
   outer loop
     vertex -1.970605e-01  2.323367e-01  6.349207e-01
     vertex -1.970605e-01  2.323367e-01 -3.174603e-02
     vertex -1.634313e-01  2.449278e-01 -3.174603e-02
   endloop
 endfacet
 facet normal  3.506376e-01 -9.365112e-01  0.000000e+00
   outer loop
     vertex -1.970605e-01  2.323367e-01  6.349207e-01
     vertex -1.634313e-01  2.449278e-01 -3.174603e-02
     vertex -1.634313e-01  2.449278e-01  6.349207e-01
   endloop
 endfacet
 facet normal  4.515334e-01 -8.922542e-01  0.000000e+00
   outer loop
     vertex -2.291005e-01  2.161226e-01  6.349207e-01
     vertex -2.291005e-01  2.161226e-01 -3.174603e-02
     vertex -1.970605e-01  2.323367e-01 -3.174603e-02
   endloop
 endfacet
 facet normal  5.469482e-01 -8.371665e-01  0.000000e+00
   outer loop
     vertex -2.291005e-01  2.161226e-01  6.349207e-01
     vertex -2.591624e-01  1.964822e-01 -3.174603e-02
     vertex -2.291005e-01  2.161226e-01 -3.174603e-02
   endloop
 endfacet
 facet normal  4.515334e-01 -8.922542e-01  0.000000e+00
   outer loop
     vertex -2.291005e-01  2.161226e-01  6.349207e-01
     vertex -1.970605e-01  2.323367e-01 -3.174603e-02
     vertex -1.970605e-01  2.323367e-01  6.349207e-01
   endloop
 endfacet
 facet normal  5.469482e-01 -8.371665e-01  0.000000e+00
   outer loop
     vertex -2.591624e-01  1.964822e-01  6.349207e-01
     vertex -2.591624e-01  1.964822e-01 -3.174603e-02
     vertex -2.291005e-01  2.161226e-01  6.349207e-01
   endloop
 endfacet
 facet normal  6.357237e-01 -7.719167e-01  0.000000e+00
   outer loop
     vertex -2.868812e-01  1.736540e-01  6.349207e-01
     vertex -2.591624e-01  1.964822e-01 -3.174603e-02
     vertex -2.591624e-01  1.964822e-01  6.349207e-01
   endloop
 endfacet
 facet normal  6.357237e-01 -7.719167e-01  0.000000e+00
   outer loop
     vertex -2.868812e-01  1.736540e-01  6.349207e-01
     vertex -2.868812e-01  1.736540e-01 -3.174603e-02
     vertex -2.591624e-01  1.964822e-01 -3.174603e-02
   endloop
 endfacet
 facet normal  7.167825e-01 -6.972968e-01  0.000000e+00
   outer loop
     vertex -3.119204e-01  1.479150e-01  6.349207e-01
     vertex -2.868812e-01  1.736540e-01 -3.174603e-02
     vertex -2.868812e-01  1.736540e-01  6.349207e-01
   endloop
 endfacet
 facet normal  7.167825e-01 -6.972968e-01  0.000000e+00
   outer loop
     vertex -3.119204e-01  1.479150e-01  6.349207e-01
     vertex -3.119204e-01  1.479150e-01 -3.174603e-02
     vertex -2.868812e-01  1.736540e-01 -3.174603e-02
   endloop
 endfacet
 facet normal  7.891405e-01 -6.142127e-01  0.000000e+00
   outer loop
     vertex -3.339762e-01  1.195777e-01  6.349207e-01
     vertex -3.119204e-01  1.479150e-01 -3.174603e-02
     vertex -3.119204e-01  1.479150e-01  6.349207e-01
   endloop
 endfacet
 facet normal  7.891405e-01 -6.142127e-01  0.000000e+00
   outer loop
     vertex -3.339762e-01  1.195777e-01  6.349207e-01
     vertex -3.339762e-01  1.195777e-01 -3.174603e-02
     vertex -3.119204e-01  1.479150e-01 -3.174603e-02
   endloop
 endfacet
 facet normal  8.519194e-01 -5.236729e-01  0.000000e+00
   outer loop
     vertex -3.339762e-01  1.195777e-01  6.349207e-01
     vertex -3.527808e-01  8.898607e-02 -3.174603e-02
     vertex -3.339762e-01  1.195777e-01 -3.174603e-02
   endloop
 endfacet
 facet normal  8.519194e-01 -5.236729e-01  0.000000e+00
   outer loop
     vertex -3.527808e-01  8.898607e-02  6.349207e-01
     vertex -3.527808e-01  8.898607e-02 -3.174603e-02
     vertex -3.339762e-01  1.195777e-01  6.349207e-01
   endloop
 endfacet
 facet normal  9.043572e-01 -4.267764e-01  0.000000e+00
   outer loop
     vertex -3.681060e-01  5.651145e-02  6.349207e-01
     vertex -3.527808e-01  8.898607e-02 -3.174603e-02
     vertex -3.527808e-01  8.898607e-02  6.349207e-01
   endloop
 endfacet
 facet normal  9.043572e-01 -4.267764e-01  0.000000e+00
   outer loop
     vertex -3.681060e-01  5.651145e-02  6.349207e-01
     vertex -3.681060e-01  5.651145e-02 -3.174603e-02
     vertex -3.527808e-01  8.898607e-02 -3.174603e-02
   endloop
 endfacet
 facet normal  9.458172e-01 -3.246995e-01  0.000000e+00
   outer loop
     vertex -3.681060e-01  5.651145e-02  6.349207e-01
     vertex -3.797656e-01  2.254804e-02 -3.174603e-02
     vertex -3.681060e-01  5.651145e-02 -3.174603e-02
   endloop
 endfacet
 facet normal  9.458172e-01 -3.246995e-01  0.000000e+00
   outer loop
     vertex -3.797656e-01  2.254804e-02  6.349207e-01
     vertex -3.797656e-01  2.254804e-02 -3.174603e-02
     vertex -3.681060e-01  5.651145e-02  6.349207e-01
   endloop
 endfacet
 facet normal  9.757964e-01 -2.186811e-01  0.000000e+00
   outer loop
     vertex -3.876183e-01 -1.249189e-02  6.349207e-01
     vertex -3.797656e-01  2.254804e-02 -3.174603e-02
     vertex -3.797656e-01  2.254804e-02  6.349207e-01
   endloop
 endfacet
 facet normal  9.757964e-01 -2.186811e-01  0.000000e+00
   outer loop
     vertex -3.876183e-01 -1.249189e-02  6.349207e-01
     vertex -3.876183e-01 -1.249189e-02 -3.174603e-02
     vertex -3.797656e-01  2.254804e-02 -3.174603e-02
   endloop
 endfacet
 facet normal  9.939307e-01 -1.100082e-01  0.000000e+00
   outer loop
     vertex -3.876183e-01 -1.249189e-02  6.349207e-01
     vertex -3.915686e-01 -4.818300e-02 -3.174603e-02
     vertex -3.876183e-01 -1.249189e-02 -3.174603e-02
   endloop
 endfacet
 facet normal  9.939307e-01 -1.100082e-01  0.000000e+00
   outer loop
     vertex -3.915686e-01 -4.818300e-02  6.349207e-01
     vertex -3.915686e-01 -4.818300e-02 -3.174603e-02
     vertex -3.876183e-01 -1.249189e-02  6.349207e-01
   endloop
 endfacet
 facet normal  1.000000e+00 -1.545882e-15  0.000000e+00
   outer loop
     vertex -3.915686e-01 -8.409206e-02  6.349207e-01
     vertex -3.915686e-01 -4.818300e-02 -3.174603e-02
     vertex -3.915686e-01 -4.818300e-02  6.349207e-01
   endloop
 endfacet
 facet normal  1.000000e+00 -1.545882e-15  0.000000e+00
   outer loop
     vertex -3.915686e-01 -8.409206e-02  6.349207e-01
     vertex -3.915686e-01 -8.409206e-02 -3.174603e-02
     vertex -3.915686e-01 -4.818300e-02 -3.174603e-02
   endloop
 endfacet
 facet normal  9.939307e-01  1.100082e-01  0.000000e+00
   outer loop
     vertex -3.876183e-01 -1.197832e-01  6.349207e-01
     vertex -3.915686e-01 -8.409206e-02 -3.174603e-02
     vertex -3.915686e-01 -8.409206e-02  6.349207e-01
   endloop
 endfacet
 facet normal  9.939307e-01  1.100082e-01  0.000000e+00
   outer loop
     vertex -3.876183e-01 -1.197832e-01  6.349207e-01
     vertex -3.876183e-01 -1.197832e-01 -3.174603e-02
     vertex -3.915686e-01 -8.409206e-02 -3.174603e-02
   endloop
 endfacet
 facet normal  9.757964e-01  2.186811e-01  0.000000e+00
   outer loop
     vertex -3.876183e-01 -1.197832e-01  6.349207e-01
     vertex -3.797656e-01 -1.548231e-01 -3.174603e-02
     vertex -3.876183e-01 -1.197832e-01 -3.174603e-02
   endloop
 endfacet
 facet normal  9.757964e-01  2.186811e-01  0.000000e+00
   outer loop
     vertex -3.797656e-01 -1.548231e-01  6.349207e-01
     vertex -3.797656e-01 -1.548231e-01 -3.174603e-02
     vertex -3.876183e-01 -1.197832e-01  6.349207e-01
   endloop
 endfacet
 facet normal  9.458172e-01  3.246995e-01  0.000000e+00
   outer loop
     vertex -3.681060e-01 -1.887865e-01  6.349207e-01
     vertex -3.797656e-01 -1.548231e-01 -3.174603e-02
     vertex -3.797656e-01 -1.548231e-01  6.349207e-01
   endloop
 endfacet
 facet normal  9.458172e-01  3.246995e-01  0.000000e+00
   outer loop
     vertex -3.681060e-01 -1.887865e-01  6.349207e-01
     vertex -3.681060e-01 -1.887865e-01 -3.174603e-02
     vertex -3.797656e-01 -1.548231e-01 -3.174603e-02
   endloop
 endfacet
 facet normal  9.043572e-01  4.267764e-01  0.000000e+00
   outer loop
     vertex -3.681060e-01 -1.887865e-01  6.349207e-01
     vertex -3.527808e-01 -2.212611e-01 -3.174603e-02
     vertex -3.681060e-01 -1.887865e-01 -3.174603e-02
   endloop
 endfacet
 facet normal  9.043572e-01  4.267764e-01  0.000000e+00
   outer loop
     vertex -3.527808e-01 -2.212611e-01  6.349207e-01
     vertex -3.527808e-01 -2.212611e-01 -3.174603e-02
     vertex -3.681060e-01 -1.887865e-01  6.349207e-01
   endloop
 endfacet
 facet normal  8.519194e-01  5.236729e-01  0.000000e+00
   outer loop
     vertex -3.339762e-01 -2.518528e-01  6.349207e-01
     vertex -3.527808e-01 -2.212611e-01 -3.174603e-02
     vertex -3.527808e-01 -2.212611e-01  6.349207e-01
   endloop
 endfacet
 facet normal  8.519194e-01  5.236729e-01  0.000000e+00
   outer loop
     vertex -3.339762e-01 -2.518528e-01  6.349207e-01
     vertex -3.339762e-01 -2.518528e-01 -3.174603e-02
     vertex -3.527808e-01 -2.212611e-01 -3.174603e-02
   endloop
 endfacet
 facet normal  7.891405e-01  6.142127e-01  0.000000e+00
   outer loop
     vertex -3.119204e-01 -2.801900e-01  6.349207e-01
     vertex -3.339762e-01 -2.518528e-01 -3.174603e-02
     vertex -3.339762e-01 -2.518528e-01  6.349207e-01
   endloop
 endfacet
 facet normal  7.891405e-01  6.142127e-01  0.000000e+00
   outer loop
     vertex -3.119204e-01 -2.801900e-01  6.349207e-01
     vertex -3.119204e-01 -2.801900e-01 -3.174603e-02
     vertex -3.339762e-01 -2.518528e-01 -3.174603e-02
   endloop
 endfacet
 facet normal  7.167825e-01  6.972968e-01  0.000000e+00
   outer loop
     vertex -2.868812e-01 -3.059290e-01  6.349207e-01
     vertex -3.119204e-01 -2.801900e-01 -3.174603e-02
     vertex -3.119204e-01 -2.801900e-01  6.349207e-01
   endloop
 endfacet
 facet normal  7.167825e-01  6.972968e-01  0.000000e+00
   outer loop
     vertex -2.868812e-01 -3.059290e-01  6.349207e-01
     vertex -2.868812e-01 -3.059290e-01 -3.174603e-02
     vertex -3.119204e-01 -2.801900e-01 -3.174603e-02
   endloop
 endfacet
 facet normal  6.357237e-01  7.719167e-01  0.000000e+00
   outer loop
     vertex -2.868812e-01 -3.059290e-01  6.349207e-01
     vertex -2.591624e-01 -3.287573e-01 -3.174603e-02
     vertex -2.868812e-01 -3.059290e-01 -3.174603e-02
   endloop
 endfacet
 facet normal  6.357237e-01  7.719167e-01  0.000000e+00
   outer loop
     vertex -2.591624e-01 -3.287573e-01  6.349207e-01
     vertex -2.591624e-01 -3.287573e-01 -3.174603e-02
     vertex -2.868812e-01 -3.059290e-01  6.349207e-01
   endloop
 endfacet
 facet normal  5.469482e-01  8.371665e-01  0.000000e+00
   outer loop
     vertex -2.291005e-01 -3.483977e-01  6.349207e-01
     vertex -2.591624e-01 -3.287573e-01 -3.174603e-02
     vertex -2.591624e-01 -3.287573e-01  6.349207e-01
   endloop
 endfacet
 facet normal  5.469482e-01  8.371665e-01  0.000000e+00
   outer loop
     vertex -2.291005e-01 -3.483977e-01  6.349207e-01
     vertex -2.291005e-01 -3.483977e-01 -3.174603e-02
     vertex -2.591624e-01 -3.287573e-01 -3.174603e-02
   endloop
 endfacet
 facet normal  4.515334e-01  8.922542e-01  0.000000e+00
   outer loop
     vertex -2.291005e-01 -3.483977e-01  6.349207e-01
     vertex -1.970605e-01 -3.646118e-01 -3.174603e-02
     vertex -2.291005e-01 -3.483977e-01 -3.174603e-02
   endloop
 endfacet
 facet normal  4.515334e-01  8.922542e-01  0.000000e+00
   outer loop
     vertex -1.970605e-01 -3.646118e-01  6.349207e-01
     vertex -1.970605e-01 -3.646118e-01 -3.174603e-02
     vertex -2.291005e-01 -3.483977e-01  6.349207e-01
   endloop
 endfacet
 facet normal  3.506376e-01  9.365112e-01  0.000000e+00
   outer loop
     vertex -1.970605e-01 -3.646118e-01  6.349207e-01
     vertex -1.634313e-01 -3.772029e-01 -3.174603e-02
     vertex -1.970605e-01 -3.646118e-01 -3.174603e-02
   endloop
 endfacet
 facet normal  3.506376e-01  9.365112e-01  0.000000e+00
   outer loop
     vertex -1.634313e-01 -3.772029e-01  6.349207e-01
     vertex -1.634313e-01 -3.772029e-01 -3.174603e-02
     vertex -1.970605e-01 -3.646118e-01  6.349207e-01
   endloop
 endfacet
 facet normal  1.373536e-01  9.905221e-01  0.000000e+00
   outer loop
     vertex -1.286210e-01 -3.860180e-01  6.349207e-01
     vertex -9.305228e-02 -3.909503e-01 -3.174603e-02
     vertex -1.286210e-01 -3.860180e-01 -3.174603e-02
   endloop
 endfacet
 facet normal  2.454855e-01  9.694003e-01  0.000000e+00
   outer loop
     vertex -1.286210e-01 -3.860180e-01  6.349207e-01
     vertex -1.634313e-01 -3.772029e-01 -3.174603e-02
     vertex -1.634313e-01 -3.772029e-01  6.349207e-01
   endloop
 endfacet
 facet normal  2.454855e-01  9.694003e-01  0.000000e+00
   outer loop
     vertex -1.286210e-01 -3.860180e-01  6.349207e-01
     vertex -1.286210e-01 -3.860180e-01 -3.174603e-02
     vertex -1.634313e-01 -3.772029e-01 -3.174603e-02
   endloop
 endfacet
 facet normal  1.373536e-01  9.905221e-01  0.000000e+00
   outer loop
     vertex -9.305228e-02 -3.909503e-01  6.349207e-01
     vertex -9.305228e-02 -3.909503e-01 -3.174603e-02
     vertex -1.286210e-01 -3.860180e-01  6.349207e-01
   endloop
 endfacet
 facet normal  2.755434e-02  9.996203e-01  0.000000e+00
   outer loop
     vertex -5.715686e-02 -3.919397e-01  6.349207e-01
     vertex -5.715686e-02 -3.919397e-01 -3.174603e-02
     vertex -9.305228e-02 -3.909503e-01 -3.174603e-02
   endloop
 endfacet
 facet normal  2.755434e-02  9.996203e-01  0.000000e+00
   outer loop
     vertex -5.715686e-02 -3.919397e-01  6.349207e-01
     vertex -9.305228e-02 -3.909503e-01 -3.174603e-02
     vertex -9.305228e-02 -3.909503e-01  6.349207e-01
   endloop
 endfacet
 facet normal -8.257935e-02  9.965845e-01  0.000000e+00
   outer loop
     vertex -2.137045e-02 -3.889744e-01  6.349207e-01
     vertex -2.137045e-02 -3.889744e-01 -3.174603e-02
     vertex -5.715686e-02 -3.919397e-01 -3.174603e-02
   endloop
 endfacet
 facet normal -8.257935e-02  9.965845e-01  0.000000e+00
   outer loop
     vertex -2.137045e-02 -3.889744e-01  6.349207e-01
     vertex -5.715686e-02 -3.919397e-01 -3.174603e-02
     vertex -5.715686e-02 -3.919397e-01  6.349207e-01
   endloop
 endfacet
 facet normal -1.917106e-01  9.814515e-01  0.000000e+00
   outer loop
     vertex  1.387255e-02 -3.820902e-01  6.349207e-01
     vertex  1.387255e-02 -3.820902e-01 -3.174603e-02
     vertex -2.137045e-02 -3.889744e-01 -3.174603e-02
   endloop
 endfacet
 facet normal -1.917106e-01  9.814515e-01  0.000000e+00
   outer loop
     vertex  1.387255e-02 -3.820902e-01  6.349207e-01
     vertex -2.137045e-02 -3.889744e-01 -3.174603e-02
     vertex -2.137045e-02 -3.889744e-01  6.349207e-01
   endloop
 endfacet
 facet normal -2.985148e-01  9.544050e-01  0.000000e+00
   outer loop
     vertex  4.814434e-02 -3.713708e-01  6.349207e-01
     vertex  1.387255e-02 -3.820902e-01 -3.174603e-02
     vertex  1.387255e-02 -3.820902e-01  6.349207e-01
   endloop
 endfacet
 facet normal -2.985148e-01  9.544050e-01  0.000000e+00
   outer loop
     vertex  4.814434e-02 -3.713708e-01  6.349207e-01
     vertex  4.814434e-02 -3.713708e-01 -3.174603e-02
     vertex  1.387255e-02 -3.820902e-01 -3.174603e-02
   endloop
 endfacet
 facet normal -4.016954e-01  9.157733e-01  0.000000e+00
   outer loop
     vertex  4.814434e-02 -3.713708e-01  6.349207e-01
     vertex  8.102890e-02 -3.569463e-01 -3.174603e-02
     vertex  4.814434e-02 -3.713708e-01 -3.174603e-02
   endloop
 endfacet
 facet normal -4.016954e-01  9.157733e-01  0.000000e+00
   outer loop
     vertex  8.102890e-02 -3.569463e-01  6.349207e-01
     vertex  8.102890e-02 -3.569463e-01 -3.174603e-02
     vertex  4.814434e-02 -3.713708e-01  6.349207e-01
   endloop
 endfacet
 facet normal -5.000000e-01  8.660254e-01  0.000000e+00
   outer loop
     vertex  1.121271e-01 -3.389918e-01  6.349207e-01
     vertex  1.121271e-01 -3.389918e-01 -3.174603e-02
     vertex  8.102890e-02 -3.569463e-01 -3.174603e-02
   endloop
 endfacet
 facet normal -5.000000e-01  8.660254e-01  0.000000e+00
   outer loop
     vertex  1.121271e-01 -3.389918e-01  6.349207e-01
     vertex  8.102890e-02 -3.569463e-01 -3.174603e-02
     vertex  8.102890e-02 -3.569463e-01  6.349207e-01
   endloop
 endfacet
 facet normal -5.922353e-01  8.057651e-01  0.000000e+00
   outer loop
     vertex  1.410613e-01 -3.177252e-01  6.349207e-01
     vertex  1.410613e-01 -3.177252e-01 -3.174603e-02
     vertex  1.121271e-01 -3.389918e-01 -3.174603e-02
   endloop
 endfacet
 facet normal -5.922353e-01  8.057651e-01  0.000000e+00
   outer loop
     vertex  1.410613e-01 -3.177252e-01  6.349207e-01
     vertex  1.121271e-01 -3.389918e-01 -3.174603e-02
     vertex  1.121271e-01 -3.389918e-01  6.349207e-01
   endloop
 endfacet
 facet normal -6.772816e-01  7.357239e-01  0.000000e+00
   outer loop
     vertex  1.674805e-01 -2.934046e-01  6.349207e-01
     vertex  1.674805e-01 -2.934046e-01 -3.174603e-02
     vertex  1.410613e-01 -3.177252e-01 -3.174603e-02
   endloop
 endfacet
 facet normal -6.772816e-01  7.357239e-01  0.000000e+00
   outer loop
     vertex  1.674805e-01 -2.934046e-01  6.349207e-01
     vertex  1.410613e-01 -3.177252e-01 -3.174603e-02
     vertex  1.410613e-01 -3.177252e-01  6.349207e-01
   endloop
 endfacet
 facet normal -7.541066e-01  6.567520e-01  0.000000e+00
   outer loop
     vertex  1.910638e-01 -2.663254e-01  6.349207e-01
     vertex  1.910638e-01 -2.663254e-01 -3.174603e-02
     vertex  1.674805e-01 -2.934046e-01 -3.174603e-02
   endloop
 endfacet
 facet normal -8.217778e-01  5.698081e-01  0.000000e+00
   outer loop
     vertex  1.910638e-01 -2.663254e-01  6.349207e-01
     vertex  2.115251e-01 -2.368161e-01 -3.174603e-02
     vertex  1.910638e-01 -2.663254e-01 -3.174603e-02
   endloop
 endfacet
 facet normal -7.541066e-01  6.567520e-01  0.000000e+00
   outer loop
     vertex  1.910638e-01 -2.663254e-01  6.349207e-01
     vertex  1.674805e-01 -2.934046e-01 -3.174603e-02
     vertex  1.674805e-01 -2.934046e-01  6.349207e-01
   endloop
 endfacet
 facet normal -8.217778e-01  5.698081e-01  0.000000e+00
   outer loop
     vertex  2.115251e-01 -2.368161e-01  6.349207e-01
     vertex  2.115251e-01 -2.368161e-01 -3.174603e-02
     vertex  1.910638e-01 -2.663254e-01  6.349207e-01
   endloop
 endfacet
 facet normal -8.794738e-01  4.759474e-01  0.000000e+00
   outer loop
     vertex  2.286159e-01 -2.052350e-01  6.349207e-01
     vertex  2.286159e-01 -2.052350e-01 -3.174603e-02
     vertex  2.115251e-01 -2.368161e-01 -3.174603e-02
   endloop
 endfacet
 facet normal -8.794738e-01  4.759474e-01  0.000000e+00
   outer loop
     vertex  2.286159e-01 -2.052350e-01  6.349207e-01
     vertex  2.115251e-01 -2.368161e-01 -3.174603e-02
     vertex  2.115251e-01 -2.368161e-01  6.349207e-01
   endloop
 endfacet
 facet normal -9.264941e-01  3.763094e-01  0.000000e+00
   outer loop
     vertex  2.421288e-01 -1.719655e-01  6.349207e-01
     vertex  2.421288e-01 -1.719655e-01 -3.174603e-02
     vertex  2.286159e-01 -2.052350e-01 -3.174603e-02
   endloop
 endfacet
 facet normal -9.622680e-01  2.721035e-01  0.000000e+00
   outer loop
     vertex  2.421288e-01 -1.719655e-01  6.349207e-01
     vertex  2.518998e-01 -1.374114e-01 -3.174603e-02
     vertex  2.421288e-01 -1.719655e-01 -3.174603e-02
   endloop
 endfacet
 facet normal -9.264941e-01  3.763094e-01  0.000000e+00
   outer loop
     vertex  2.421288e-01 -1.719655e-01  6.349207e-01
     vertex  2.286159e-01 -2.052350e-01 -3.174603e-02
     vertex  2.286159e-01 -2.052350e-01  6.349207e-01
   endloop
 endfacet
 facet normal -9.863613e-01  1.645946e-01  0.000000e+00
   outer loop
     vertex  2.518998e-01 -1.374114e-01  6.349207e-01
     vertex  2.578103e-01 -1.019921e-01 -3.174603e-02
     vertex  2.518998e-01 -1.374114e-01 -3.174603e-02
   endloop
 endfacet
 facet normal -9.622680e-01  2.721035e-01  0.000000e+00
   outer loop
     vertex  2.518998e-01 -1.374114e-01  6.349207e-01
     vertex  2.518998e-01 -1.374114e-01 -3.174603e-02
     vertex  2.421288e-01 -1.719655e-01  6.349207e-01
   endloop
 endfacet
 facet normal -9.984815e-01  5.508776e-02  0.000000e+00
   outer loop
     vertex  2.578103e-01 -1.019921e-01  6.349207e-01
     vertex  2.597884e-01 -6.613753e-02 -3.174603e-02
     vertex  2.578103e-01 -1.019921e-01 -3.174603e-02
   endloop
 endfacet
 facet normal -9.863613e-01  1.645946e-01  0.000000e+00
   outer loop
     vertex  2.578103e-01 -1.019921e-01  6.349207e-01
     vertex  2.578103e-01 -1.019921e-01 -3.174603e-02
     vertex  2.518998e-01 -1.374114e-01  6.349207e-01
   endloop
 endfacet
 facet normal -9.984815e-01  5.508776e-02  0.000000e+00
   outer loop
     vertex  2.597884e-01 -6.613753e-02  6.349207e-01
     vertex  2.597884e-01 -6.613753e-02 -3.174603e-02
     vertex  2.578103e-01 -1.019921e-01  6.349207e-01
   endloop
 endfacet
 facet normal -0.000000e+00  1.000000e+00  0.000000e+00
   outer loop
     vertex -1.049559e+00  5.582011e-01 -1.587302e-02
     vertex  8.947091e-01  5.582011e-01 -1.587302e-02
     vertex  8.947091e-01  5.582011e-01 -3.174603e-02
   endloop
 endfacet
 facet normal  0.000000e+00  1.000000e+00  0.000000e+00
   outer loop
     vertex -1.049559e+00  5.582011e-01 -1.587302e-02
     vertex  8.947091e-01  5.582011e-01 -3.174603e-02
     vertex -1.049559e+00  5.582011e-01 -3.174603e-02
   endloop
 endfacet
endsolid
