solid 
 facet normal  0.000000e+00 -1.000000e+00  0.000000e+00
   outer loop
     vertex  5.730159e-01 -5.343908e-02 -1.587302e-02
     vertex  2.132275e-01 -5.343908e-02  3.174609e-02
     vertex  2.132275e-01 -5.343908e-02 -1.587302e-02
   endloop
 endfacet
 facet normal  0.000000e+00 -1.000000e+00  0.000000e+00
   outer loop
     vertex  5.730159e-01 -5.343908e-02 -1.587302e-02
     vertex  5.730159e-01 -5.343908e-02  3.174609e-02
     vertex  2.132275e-01 -5.343908e-02  3.174609e-02
   endloop
 endfacet
 facet normal -1.000000e+00  0.000000e+00  0.000000e+00
   outer loop
     vertex  2.132275e-01 -5.343908e-02 -1.587302e-02
     vertex  2.132275e-01  4.968255e-01  3.174609e-02
     vertex  2.132275e-01  4.968255e-01 -1.587302e-02
   endloop
 endfacet
 facet normal -1.000000e+00  0.000000e+00  0.000000e+00
   outer loop
     vertex  2.132275e-01 -5.343908e-02 -1.587302e-02
     vertex  2.132275e-01 -5.343908e-02  3.174609e-02
     vertex  2.132275e-01  4.968255e-01  3.174609e-02
   endloop
 endfacet
 facet normal  1.000000e+00  0.000000e+00  0.000000e+00
   outer loop
     vertex  5.730159e-01  4.968255e-01 -1.587302e-02
     vertex  5.730159e-01 -5.343908e-02  3.174609e-02
     vertex  5.730159e-01 -5.343908e-02 -1.587302e-02
   endloop
 endfacet
 facet normal  1.000000e+00  0.000000e+00 -0.000000e+00
   outer loop
     vertex  5.730159e-01  4.968255e-01 -1.587302e-02
     vertex  5.730159e-01  4.968255e-01  3.174609e-02
     vertex  5.730159e-01 -5.343908e-02  3.174609e-02
   endloop
 endfacet
 facet normal -0.000000e+00 -1.000000e+00  0.000000e+00
   outer loop
     vertex  5.730159e-01 -5.343908e-02 -1.587302e-02
     vertex  2.132275e-01 -5.343908e-02 -1.587302e-02
     vertex  2.132275e-01 -5.343908e-02 -3.174603e-02
   endloop
 endfacet
 facet normal  0.000000e+00 -1.000000e+00 -0.000000e+00
   outer loop
     vertex  5.730159e-01 -5.343908e-02 -1.587302e-02
     vertex  2.132275e-01 -5.343908e-02 -3.174603e-02
     vertex  5.730159e-01 -5.343908e-02 -3.174603e-02
   endloop
 endfacet
 facet normal  0.000000e+00  0.000000e+00  1.000000e+00
   outer loop
     vertex  5.730159e-01  4.968255e-01  3.174609e-02
     vertex  2.132275e-01 -5.343908e-02  3.174609e-02
     vertex  5.730159e-01 -5.343908e-02  3.174609e-02
   endloop
 endfacet
 facet normal  0.000000e+00  0.000000e+00  1.000000e+00
   outer loop
     vertex  5.730159e-01  4.968255e-01  3.174609e-02
     vertex  2.132275e-01  4.968255e-01  3.174609e-02
     vertex  2.132275e-01 -5.343908e-02  3.174609e-02
   endloop
 endfacet
 facet normal  0.000000e+00  1.000000e+00  0.000000e+00
   outer loop
     vertex  2.132275e-01  4.968255e-01 -1.587302e-02
     vertex  5.730159e-01  4.968255e-01  3.174609e-02
     vertex  5.730159e-01  4.968255e-01 -1.587302e-02
   endloop
 endfacet
 facet normal  0.000000e+00  1.000000e+00  0.000000e+00
   outer loop
     vertex  2.132275e-01  4.968255e-01 -1.587302e-02
     vertex  2.132275e-01  4.968255e-01  3.174609e-02
     vertex  5.730159e-01  4.968255e-01  3.174609e-02
   endloop
 endfacet
 facet normal -1.000000e+00  0.000000e+00  0.000000e+00
   outer loop
     vertex  2.132275e-01 -5.343908e-02 -1.587302e-02
     vertex  2.132275e-01  4.968255e-01 -1.587302e-02
     vertex  2.132275e-01  4.968255e-01 -3.174603e-02
   endloop
 endfacet
 facet normal -1.000000e+00  0.000000e+00  0.000000e+00
   outer loop
     vertex  2.132275e-01 -5.343908e-02 -1.587302e-02
     vertex  2.132275e-01  4.968255e-01 -3.174603e-02
     vertex  2.132275e-01 -5.343908e-02 -3.174603e-02
   endloop
 endfacet
 facet normal  1.000000e+00  0.000000e+00  0.000000e+00
   outer loop
     vertex  5.730159e-01  4.968255e-01 -1.587302e-02
     vertex  5.730159e-01 -5.343908e-02 -1.587302e-02
     vertex  5.730159e-01 -5.343908e-02 -3.174603e-02
   endloop
 endfacet
 facet normal  1.000000e+00  0.000000e+00  0.000000e+00
   outer loop
     vertex  5.730159e-01  4.968255e-01 -1.587302e-02
     vertex  5.730159e-01 -5.343908e-02 -3.174603e-02
     vertex  5.730159e-01  4.968255e-01 -3.174603e-02
   endloop
 endfacet
 facet normal  0.000000e+00 -0.000000e+00 -1.000000e+00
   outer loop
     vertex  5.730159e-01  4.968255e-01 -3.174603e-02
     vertex  5.730159e-01 -5.343908e-02 -3.174603e-02
     vertex  2.132275e-01 -5.343908e-02 -3.174603e-02
   endloop
 endfacet
 facet normal -0.000000e+00  0.000000e+00 -1.000000e+00
   outer loop
     vertex  5.730159e-01  4.968255e-01 -3.174603e-02
     vertex  2.132275e-01 -5.343908e-02 -3.174603e-02
     vertex  2.132275e-01  4.968255e-01 -3.174603e-02
   endloop
 endfacet
 facet normal -0.000000e+00  1.000000e+00  0.000000e+00
   outer loop
     vertex  2.132275e-01  4.968255e-01 -1.587302e-02
     vertex  5.730159e-01  4.968255e-01 -1.587302e-02
     vertex  5.730159e-01  4.968255e-01 -3.174603e-02
   endloop
 endfacet
 facet normal  0.000000e+00  1.000000e+00  0.000000e+00
   outer loop
     vertex  2.132275e-01  4.968255e-01 -1.587302e-02
     vertex  5.730159e-01  4.968255e-01 -3.174603e-02
     vertex  2.132275e-01  4.968255e-01 -3.174603e-02
   endloop
 endfacet
 facet normal -1.000000e+00  0.000000e+00  0.000000e+00
   outer loop
     vertex  6.084659e-02  7.074075e-01  4.761910e-02
     vertex  6.084659e-02  1.825398e-01  4.761910e-02
     vertex  6.084659e-02  1.825398e-01  9.841270e-01
   endloop
 endfacet
 facet normal -1.000000e+00  0.000000e+00  0.000000e+00
   outer loop
     vertex  6.084659e-02  7.074075e-01  4.761910e-02
     vertex  6.084659e-02  1.825398e-01  9.841270e-01
     vertex  6.084659e-02  7.074075e-01  9.841270e-01
   endloop
 endfacet
 facet normal  0.000000e+00 -1.000000e+00  0.000000e+00
   outer loop
     vertex  6.084659e-02  1.825398e-01  4.761910e-02
     vertex  1.116403e-01  1.825398e-01  4.761910e-02
     vertex  1.116403e-01  1.825398e-01  9.841270e-01
   endloop
 endfacet
 facet normal  0.000000e+00 -1.000000e+00  0.000000e+00
   outer loop
     vertex  6.084659e-02  1.825398e-01  4.761910e-02
     vertex  1.116403e-01  1.825398e-01  9.841270e-01
     vertex  6.084659e-02  1.825398e-01  9.841270e-01
   endloop
 endfacet
 facet normal  0.000000e+00  1.000000e+00  0.000000e+00
   outer loop
     vertex  1.116403e-01  7.074075e-01  4.761910e-02
     vertex  6.084659e-02  7.074075e-01  4.761910e-02
     vertex  6.084659e-02  7.074075e-01  9.841270e-01
   endloop
 endfacet
 facet normal  0.000000e+00  1.000000e+00 -0.000000e+00
   outer loop
     vertex  1.116403e-01  7.074075e-01  4.761910e-02
     vertex  6.084659e-02  7.074075e-01  9.841270e-01
     vertex  1.116403e-01  7.074075e-01  9.841270e-01
   endloop
 endfacet
 facet normal -1.000000e+00 -0.000000e+00  0.000000e+00
   outer loop
     vertex  6.084659e-02  7.074075e-01  4.761910e-02
     vertex  6.084659e-02  1.825398e-01  3.174609e-02
     vertex  6.084659e-02  1.825398e-01  4.761910e-02
   endloop
 endfacet
 facet normal -1.000000e+00  0.000000e+00 -0.000000e+00
   outer loop
     vertex  6.084659e-02  7.074075e-01  4.761910e-02
     vertex  6.084659e-02  7.074075e-01  3.174609e-02
     vertex  6.084659e-02  1.825398e-01  3.174609e-02
   endloop
 endfacet
 facet normal  0.000000e+00  0.000000e+00  1.000000e+00
   outer loop
     vertex  1.116403e-01  7.074075e-01  9.841270e-01
     vertex  6.084659e-02  1.825398e-01  9.841270e-01
     vertex  1.116403e-01  1.825398e-01  9.841270e-01
   endloop
 endfacet
 facet normal  0.000000e+00  0.000000e+00  1.000000e+00
   outer loop
     vertex  1.116403e-01  7.074075e-01  9.841270e-01
     vertex  6.084659e-02  7.074075e-01  9.841270e-01
     vertex  6.084659e-02  1.825398e-01  9.841270e-01
   endloop
 endfacet
 facet normal  1.000000e+00  0.000000e+00  0.000000e+00
   outer loop
     vertex  1.116403e-01  1.825398e-01  4.761910e-02
     vertex  1.116403e-01  7.074075e-01  4.761910e-02
     vertex  1.116403e-01  7.074075e-01  9.841270e-01
   endloop
 endfacet
 facet normal  1.000000e+00  0.000000e+00  0.000000e+00
   outer loop
     vertex  1.116403e-01  1.825398e-01  4.761910e-02
     vertex  1.116403e-01  7.074075e-01  9.841270e-01
     vertex  1.116403e-01  1.825398e-01  9.841270e-01
   endloop
 endfacet
 facet normal  0.000000e+00 -1.000000e+00  0.000000e+00
   outer loop
     vertex  6.084659e-02  1.825398e-01  4.761910e-02
     vertex  1.116403e-01  1.825398e-01  3.174609e-02
     vertex  1.116403e-01  1.825398e-01  4.761910e-02
   endloop
 endfacet
 facet normal  0.000000e+00 -1.000000e+00  0.000000e+00
   outer loop
     vertex  6.084659e-02  1.825398e-01  4.761910e-02
     vertex  6.084659e-02  1.825398e-01  3.174609e-02
     vertex  1.116403e-01  1.825398e-01  3.174609e-02
   endloop
 endfacet
 facet normal  0.000000e+00  1.000000e+00  0.000000e+00
   outer loop
     vertex  1.116403e-01  7.074075e-01  4.761910e-02
     vertex  6.084659e-02  7.074075e-01  3.174609e-02
     vertex  6.084659e-02  7.074075e-01  4.761910e-02
   endloop
 endfacet
 facet normal  0.000000e+00  1.000000e+00  0.000000e+00
   outer loop
     vertex  1.116403e-01  7.074075e-01  4.761910e-02
     vertex  1.116403e-01  7.074075e-01  3.174609e-02
     vertex  6.084659e-02  7.074075e-01  3.174609e-02
   endloop
 endfacet
 facet normal  0.000000e+00 -0.000000e+00 -1.000000e+00
   outer loop
     vertex  1.116403e-01  7.074075e-01  3.174609e-02
     vertex  1.116403e-01  1.825398e-01  3.174609e-02
     vertex  6.084659e-02  1.825398e-01  3.174609e-02
   endloop
 endfacet
 facet normal -0.000000e+00  0.000000e+00 -1.000000e+00
   outer loop
     vertex  1.116403e-01  7.074075e-01  3.174609e-02
     vertex  6.084659e-02  1.825398e-01  3.174609e-02
     vertex  6.084659e-02  7.074075e-01  3.174609e-02
   endloop
 endfacet
 facet normal  1.000000e+00 -0.000000e+00  0.000000e+00
   outer loop
     vertex  1.116403e-01  1.825398e-01  4.761910e-02
     vertex  1.116403e-01  7.074075e-01  3.174609e-02
     vertex  1.116403e-01  7.074075e-01  4.761910e-02
   endloop
 endfacet
 facet normal  1.000000e+00  0.000000e+00  0.000000e+00
   outer loop
     vertex  1.116403e-01  1.825398e-01  4.761910e-02
     vertex  1.116403e-01  1.825398e-01  3.174609e-02
     vertex  1.116403e-01  7.074075e-01  3.174609e-02
   endloop
 endfacet
endsolid
