solid 
 facet normal -1.000000e+00 -1.124101e-16  0.000000e+00
   outer loop
     vertex -5.525573e-01 -5.493827e-01 -1.587302e-02
     vertex -5.525573e-01  4.382716e-01  1.269842e-01
     vertex -5.525573e-01  4.382716e-01 -1.587302e-02
   endloop
 endfacet
 facet normal -1.000000e+00 -1.124101e-16  0.000000e+00
   outer loop
     vertex -5.525573e-01 -5.493827e-01 -1.587302e-02
     vertex -5.525573e-01 -5.493827e-01  1.269842e-01
     vertex -5.525573e-01  4.382716e-01  1.269842e-01
   endloop
 endfacet
 facet normal  9.989931e-01  4.486492e-02  0.000000e+00
   outer loop
     vertex  4.049472e-01  4.812732e-01 -1.587302e-02
     vertex  4.068784e-01  4.382716e-01  1.269842e-01
     vertex  4.068784e-01  4.382716e-01 -1.587302e-02
   endloop
 endfacet
 facet normal  9.989931e-01  4.486492e-02 -0.000000e+00
   outer loop
     vertex  4.049472e-01  4.812732e-01 -1.587302e-02
     vertex  4.049472e-01  4.812732e-01  1.269842e-01
     vertex  4.068784e-01  4.382716e-01  1.269842e-01
   endloop
 endfacet
 facet normal  9.909498e-01  1.342334e-01 -0.000000e+00
   outer loop
     vertex  3.991691e-01  5.239286e-01 -1.587302e-02
     vertex  3.991691e-01  5.239286e-01  1.269842e-01
     vertex  4.049472e-01  4.812732e-01  1.269842e-01
   endloop
 endfacet
 facet normal  9.909498e-01  1.342334e-01  0.000000e+00
   outer loop
     vertex  3.991691e-01  5.239286e-01 -1.587302e-02
     vertex  4.049472e-01  4.812732e-01  1.269842e-01
     vertex  4.049472e-01  4.812732e-01 -1.587302e-02
   endloop
 endfacet
 facet normal  9.749279e-01  2.225210e-01 -0.000000e+00
   outer loop
     vertex  3.895907e-01  5.658943e-01 -1.587302e-02
     vertex  3.895907e-01  5.658943e-01  1.269842e-01
     vertex  3.991691e-01  5.239286e-01  1.269842e-01
   endloop
 endfacet
 facet normal  9.749279e-01  2.225210e-01  0.000000e+00
   outer loop
     vertex  3.895907e-01  5.658943e-01 -1.587302e-02
     vertex  3.991691e-01  5.239286e-01  1.269842e-01
     vertex  3.991691e-01  5.239286e-01 -1.587302e-02
   endloop
 endfacet
 facet normal  9.510565e-01  3.090171e-01 -0.000000e+00
   outer loop
     vertex  3.762891e-01  6.068324e-01 -1.587302e-02
     vertex  3.762891e-01  6.068324e-01  1.269842e-01
     vertex  3.895907e-01  5.658943e-01  1.269842e-01
   endloop
 endfacet
 facet normal  9.510565e-01  3.090171e-01  0.000000e+00
   outer loop
     vertex  3.762891e-01  6.068324e-01 -1.587302e-02
     vertex  3.895907e-01  5.658943e-01  1.269842e-01
     vertex  3.895907e-01  5.658943e-01 -1.587302e-02
   endloop
 endfacet
 facet normal  9.195277e-01  3.930251e-01 -0.000000e+00
   outer loop
     vertex  3.593714e-01  6.464134e-01 -1.587302e-02
     vertex  3.593714e-01  6.464134e-01  1.269842e-01
     vertex  3.762891e-01  6.068324e-01  1.269842e-01
   endloop
 endfacet
 facet normal  9.195277e-01  3.930251e-01  0.000000e+00
   outer loop
     vertex  3.593714e-01  6.464134e-01 -1.587302e-02
     vertex  3.762891e-01  6.068324e-01  1.269842e-01
     vertex  3.762891e-01  6.068324e-01 -1.587302e-02
   endloop
 endfacet
 facet normal  8.805955e-01  4.738687e-01 -0.000000e+00
   outer loop
     vertex  3.389737e-01  6.843186e-01 -1.587302e-02
     vertex  3.389737e-01  6.843186e-01  1.269842e-01
     vertex  3.593714e-01  6.464134e-01  1.269842e-01
   endloop
 endfacet
 facet normal  8.805955e-01  4.738687e-01  0.000000e+00
   outer loop
     vertex  3.389737e-01  6.843186e-01 -1.587302e-02
     vertex  3.593714e-01  6.464134e-01  1.269842e-01
     vertex  3.593714e-01  6.464134e-01 -1.587302e-02
   endloop
 endfacet
 facet normal  8.345732e-01  5.508970e-01  0.000000e+00
   outer loop
     vertex  3.152604e-01  7.202427e-01 -1.587302e-02
     vertex  3.389737e-01  6.843186e-01  1.269842e-01
     vertex  3.389737e-01  6.843186e-01 -1.587302e-02
   endloop
 endfacet
 facet normal  8.345732e-01  5.508970e-01 -0.000000e+00
   outer loop
     vertex  3.152604e-01  7.202427e-01 -1.587302e-02
     vertex  3.152604e-01  7.202427e-01  1.269842e-01
     vertex  3.389737e-01  6.843186e-01  1.269842e-01
   endloop
 endfacet
 facet normal  7.818314e-01  6.234898e-01 -0.000000e+00
   outer loop
     vertex  2.884223e-01  7.538966e-01 -1.587302e-02
     vertex  2.884223e-01  7.538966e-01  1.269842e-01
     vertex  3.152604e-01  7.202427e-01  1.269842e-01
   endloop
 endfacet
 facet normal  7.818314e-01  6.234898e-01  0.000000e+00
   outer loop
     vertex  2.884223e-01  7.538966e-01 -1.587302e-02
     vertex  3.152604e-01  7.202427e-01  1.269842e-01
     vertex  3.152604e-01  7.202427e-01 -1.587302e-02
   endloop
 endfacet
 facet normal  7.227948e-01  6.910627e-01 -0.000000e+00
   outer loop
     vertex  2.586756e-01  7.850092e-01 -1.587302e-02
     vertex  2.586756e-01  7.850092e-01  1.269842e-01
     vertex  2.884223e-01  7.538966e-01  1.269842e-01
   endloop
 endfacet
 facet normal  7.227948e-01  6.910627e-01  0.000000e+00
   outer loop
     vertex  2.586756e-01  7.850092e-01 -1.587302e-02
     vertex  2.884223e-01  7.538966e-01  1.269842e-01
     vertex  2.884223e-01  7.538966e-01 -1.587302e-02
   endloop
 endfacet
 facet normal  6.579387e-01  7.530715e-01 -0.000000e+00
   outer loop
     vertex  2.262597e-01  8.133301e-01 -1.587302e-02
     vertex  2.262597e-01  8.133301e-01  1.269842e-01
     vertex  2.586756e-01  7.850092e-01  1.269842e-01
   endloop
 endfacet
 facet normal  6.579387e-01  7.530715e-01  0.000000e+00
   outer loop
     vertex  2.262597e-01  8.133301e-01 -1.587302e-02
     vertex  2.586756e-01  7.850092e-01  1.269842e-01
     vertex  2.586756e-01  7.850092e-01 -1.587302e-02
   endloop
 endfacet
 facet normal  5.877852e-01  8.090170e-01  0.000000e+00
   outer loop
     vertex  1.914356e-01  8.386313e-01 -1.587302e-02
     vertex  2.262597e-01  8.133301e-01  1.269842e-01
     vertex  2.262597e-01  8.133301e-01 -1.587302e-02
   endloop
 endfacet
 facet normal  5.877852e-01  8.090170e-01 -0.000000e+00
   outer loop
     vertex  1.914356e-01  8.386313e-01 -1.587302e-02
     vertex  1.914356e-01  8.386313e-01  1.269842e-01
     vertex  2.262597e-01  8.133301e-01  1.269842e-01
   endloop
 endfacet
 facet normal  5.128992e-01  8.584488e-01 -0.000000e+00
   outer loop
     vertex  1.544838e-01  8.607090e-01 -1.587302e-02
     vertex  1.544838e-01  8.607090e-01  1.269842e-01
     vertex  1.914356e-01  8.386313e-01  1.269842e-01
   endloop
 endfacet
 facet normal  5.128992e-01  8.584488e-01  0.000000e+00
   outer loop
     vertex  1.544838e-01  8.607090e-01 -1.587302e-02
     vertex  1.914356e-01  8.386313e-01  1.269842e-01
     vertex  1.914356e-01  8.386313e-01 -1.587302e-02
   endloop
 endfacet
 facet normal  4.338837e-01  9.009689e-01 -0.000000e+00
   outer loop
     vertex  1.157017e-01  8.793855e-01 -1.587302e-02
     vertex  1.157017e-01  8.793855e-01  1.269842e-01
     vertex  1.544838e-01  8.607090e-01  1.269842e-01
   endloop
 endfacet
 facet normal  4.338837e-01  9.009689e-01  0.000000e+00
   outer loop
     vertex  1.157017e-01  8.793855e-01 -1.587302e-02
     vertex  1.544838e-01  8.607090e-01  1.269842e-01
     vertex  1.544838e-01  8.607090e-01 -1.587302e-02
   endloop
 endfacet
 facet normal  3.513748e-01  9.362349e-01 -0.000000e+00
   outer loop
     vertex  7.540150e-02  8.945104e-01 -1.587302e-02
     vertex  7.540150e-02  8.945104e-01  1.269842e-01
     vertex  1.157017e-01  8.793855e-01  1.269842e-01
   endloop
 endfacet
 facet normal  3.513748e-01  9.362349e-01  0.000000e+00
   outer loop
     vertex  7.540150e-02  8.945104e-01 -1.587302e-02
     vertex  1.157017e-01  8.793855e-01  1.269842e-01
     vertex  1.157017e-01  8.793855e-01 -1.587302e-02
   endloop
 endfacet
 facet normal  2.660368e-01  9.639629e-01 -0.000000e+00
   outer loop
     vertex  3.390780e-02  9.059619e-01 -1.587302e-02
     vertex  3.390780e-02  9.059619e-01  1.269842e-01
     vertex  7.540150e-02  8.945104e-01  1.269842e-01
   endloop
 endfacet
 facet normal  2.660368e-01  9.639629e-01  0.000000e+00
   outer loop
     vertex  3.390780e-02  9.059619e-01 -1.587302e-02
     vertex  7.540150e-02  8.945104e-01  1.269842e-01
     vertex  7.540150e-02  8.945104e-01 -1.587302e-02
   endloop
 endfacet
 facet normal  1.785569e-01  9.839296e-01 -0.000000e+00
   outer loop
     vertex -8.445366e-03  9.136479e-01 -1.587302e-02
     vertex -8.445366e-03  9.136479e-01  1.269842e-01
     vertex  3.390780e-02  9.059619e-01  1.269842e-01
   endloop
 endfacet
 facet normal  1.785569e-01  9.839296e-01  0.000000e+00
   outer loop
     vertex -8.445366e-03  9.136479e-01 -1.587302e-02
     vertex  3.390780e-02  9.059619e-01  1.269842e-01
     vertex  3.390780e-02  9.059619e-01 -1.587302e-02
   endloop
 endfacet
 facet normal  8.963930e-02  9.959743e-01 -0.000000e+00
   outer loop
     vertex -5.131700e-02  9.175064e-01 -1.587302e-02
     vertex -5.131700e-02  9.175064e-01  1.269842e-01
     vertex -8.445366e-03  9.136479e-01  1.269842e-01
   endloop
 endfacet
 facet normal  0.000000e+00  1.000000e+00 -0.000000e+00
   outer loop
     vertex -5.131700e-02  9.175064e-01 -1.587302e-02
     vertex -9.436191e-02  9.175064e-01  1.269842e-01
     vertex -5.131700e-02  9.175064e-01  1.269842e-01
   endloop
 endfacet
 facet normal  8.963930e-02  9.959743e-01  0.000000e+00
   outer loop
     vertex -5.131700e-02  9.175064e-01 -1.587302e-02
     vertex -8.445366e-03  9.136479e-01  1.269842e-01
     vertex -8.445366e-03  9.136479e-01 -1.587302e-02
   endloop
 endfacet
 facet normal  0.000000e+00  1.000000e+00  0.000000e+00
   outer loop
     vertex -9.436191e-02  9.175064e-01 -1.587302e-02
     vertex -9.436191e-02  9.175064e-01  1.269842e-01
     vertex -5.131700e-02  9.175064e-01 -1.587302e-02
   endloop
 endfacet
 facet normal -8.963930e-02  9.959743e-01  0.000000e+00
   outer loop
     vertex -1.372335e-01  9.136479e-01 -1.587302e-02
     vertex -1.372335e-01  9.136479e-01  1.269842e-01
     vertex -9.436191e-02  9.175064e-01  1.269842e-01
   endloop
 endfacet
 facet normal -1.785569e-01  9.839296e-01  0.000000e+00
   outer loop
     vertex -1.372335e-01  9.136479e-01 -1.587302e-02
     vertex -1.795867e-01  9.059619e-01  1.269842e-01
     vertex -1.372335e-01  9.136479e-01  1.269842e-01
   endloop
 endfacet
 facet normal -8.963930e-02  9.959743e-01  0.000000e+00
   outer loop
     vertex -1.372335e-01  9.136479e-01 -1.587302e-02
     vertex -9.436191e-02  9.175064e-01  1.269842e-01
     vertex -9.436191e-02  9.175064e-01 -1.587302e-02
   endloop
 endfacet
 facet normal -1.785569e-01  9.839296e-01  0.000000e+00
   outer loop
     vertex -1.795867e-01  9.059619e-01 -1.587302e-02
     vertex -1.795867e-01  9.059619e-01  1.269842e-01
     vertex -1.372335e-01  9.136479e-01 -1.587302e-02
   endloop
 endfacet
 facet normal -2.660368e-01  9.639629e-01  0.000000e+00
   outer loop
     vertex -2.210804e-01  8.945104e-01 -1.587302e-02
     vertex -2.210804e-01  8.945104e-01  1.269842e-01
     vertex -1.795867e-01  9.059619e-01  1.269842e-01
   endloop
 endfacet
 facet normal -2.660368e-01  9.639629e-01  0.000000e+00
   outer loop
     vertex -2.210804e-01  8.945104e-01 -1.587302e-02
     vertex -1.795867e-01  9.059619e-01  1.269842e-01
     vertex -1.795867e-01  9.059619e-01 -1.587302e-02
   endloop
 endfacet
 facet normal -3.513748e-01  9.362349e-01  0.000000e+00
   outer loop
     vertex -2.613806e-01  8.793855e-01 -1.587302e-02
     vertex -2.613806e-01  8.793855e-01  1.269842e-01
     vertex -2.210804e-01  8.945104e-01  1.269842e-01
   endloop
 endfacet
 facet normal -3.513748e-01  9.362349e-01  0.000000e+00
   outer loop
     vertex -2.613806e-01  8.793855e-01 -1.587302e-02
     vertex -2.210804e-01  8.945104e-01  1.269842e-01
     vertex -2.210804e-01  8.945104e-01 -1.587302e-02
   endloop
 endfacet
 facet normal -4.338837e-01  9.009689e-01  0.000000e+00
   outer loop
     vertex -3.001627e-01  8.607090e-01 -1.587302e-02
     vertex -3.001627e-01  8.607090e-01  1.269842e-01
     vertex -2.613806e-01  8.793855e-01  1.269842e-01
   endloop
 endfacet
 facet normal -4.338837e-01  9.009689e-01  0.000000e+00
   outer loop
     vertex -3.001627e-01  8.607090e-01 -1.587302e-02
     vertex -2.613806e-01  8.793855e-01  1.269842e-01
     vertex -2.613806e-01  8.793855e-01 -1.587302e-02
   endloop
 endfacet
 facet normal -5.128992e-01  8.584488e-01  0.000000e+00
   outer loop
     vertex -3.371145e-01  8.386313e-01 -1.587302e-02
     vertex -3.371145e-01  8.386313e-01  1.269842e-01
     vertex -3.001627e-01  8.607090e-01  1.269842e-01
   endloop
 endfacet
 facet normal -5.128992e-01  8.584488e-01  0.000000e+00
   outer loop
     vertex -3.371145e-01  8.386313e-01 -1.587302e-02
     vertex -3.001627e-01  8.607090e-01  1.269842e-01
     vertex -3.001627e-01  8.607090e-01 -1.587302e-02
   endloop
 endfacet
 facet normal -5.877852e-01  8.090170e-01  0.000000e+00
   outer loop
     vertex -3.719386e-01  8.133301e-01 -1.587302e-02
     vertex -3.719386e-01  8.133301e-01  1.269842e-01
     vertex -3.371145e-01  8.386313e-01  1.269842e-01
   endloop
 endfacet
 facet normal -5.877852e-01  8.090170e-01  0.000000e+00
   outer loop
     vertex -3.719386e-01  8.133301e-01 -1.587302e-02
     vertex -3.371145e-01  8.386313e-01  1.269842e-01
     vertex -3.371145e-01  8.386313e-01 -1.587302e-02
   endloop
 endfacet
 facet normal -6.579387e-01  7.530715e-01  0.000000e+00
   outer loop
     vertex -4.043545e-01  7.850092e-01 -1.587302e-02
     vertex -4.043545e-01  7.850092e-01  1.269842e-01
     vertex -3.719386e-01  8.133301e-01  1.269842e-01
   endloop
 endfacet
 facet normal -7.227948e-01  6.910627e-01  0.000000e+00
   outer loop
     vertex -4.043545e-01  7.850092e-01 -1.587302e-02
     vertex -4.341013e-01  7.538966e-01  1.269842e-01
     vertex -4.043545e-01  7.850092e-01  1.269842e-01
   endloop
 endfacet
 facet normal -6.579387e-01  7.530715e-01  0.000000e+00
   outer loop
     vertex -4.043545e-01  7.850092e-01 -1.587302e-02
     vertex -3.719386e-01  8.133301e-01  1.269842e-01
     vertex -3.719386e-01  8.133301e-01 -1.587302e-02
   endloop
 endfacet
 facet normal -7.227948e-01  6.910627e-01  0.000000e+00
   outer loop
     vertex -4.341013e-01  7.538966e-01 -1.587302e-02
     vertex -4.341013e-01  7.538966e-01  1.269842e-01
     vertex -4.043545e-01  7.850092e-01 -1.587302e-02
   endloop
 endfacet
 facet normal -7.818314e-01  6.234898e-01  0.000000e+00
   outer loop
     vertex -4.609393e-01  7.202427e-01 -1.587302e-02
     vertex -4.609393e-01  7.202427e-01  1.269842e-01
     vertex -4.341013e-01  7.538966e-01  1.269842e-01
   endloop
 endfacet
 facet normal -8.345732e-01  5.508970e-01  0.000000e+00
   outer loop
     vertex -4.609393e-01  7.202427e-01 -1.587302e-02
     vertex -4.846526e-01  6.843186e-01  1.269842e-01
     vertex -4.609393e-01  7.202427e-01  1.269842e-01
   endloop
 endfacet
 facet normal -7.818314e-01  6.234898e-01  0.000000e+00
   outer loop
     vertex -4.609393e-01  7.202427e-01 -1.587302e-02
     vertex -4.341013e-01  7.538966e-01  1.269842e-01
     vertex -4.341013e-01  7.538966e-01 -1.587302e-02
   endloop
 endfacet
 facet normal -8.805955e-01  4.738687e-01  0.000000e+00
   outer loop
     vertex -4.846526e-01  6.843186e-01 -1.587302e-02
     vertex -5.050503e-01  6.464134e-01  1.269842e-01
     vertex -4.846526e-01  6.843186e-01  1.269842e-01
   endloop
 endfacet
 facet normal -8.345732e-01  5.508970e-01  0.000000e+00
   outer loop
     vertex -4.846526e-01  6.843186e-01 -1.587302e-02
     vertex -4.846526e-01  6.843186e-01  1.269842e-01
     vertex -4.609393e-01  7.202427e-01 -1.587302e-02
   endloop
 endfacet
 facet normal -8.805955e-01  4.738687e-01  0.000000e+00
   outer loop
     vertex -5.050503e-01  6.464134e-01 -1.587302e-02
     vertex -5.050503e-01  6.464134e-01  1.269842e-01
     vertex -4.846526e-01  6.843186e-01 -1.587302e-02
   endloop
 endfacet
 facet normal -9.195277e-01  3.930251e-01  0.000000e+00
   outer loop
     vertex -5.219680e-01  6.068324e-01 -1.587302e-02
     vertex -5.219680e-01  6.068324e-01  1.269842e-01
     vertex -5.050503e-01  6.464134e-01  1.269842e-01
   endloop
 endfacet
 facet normal -9.510565e-01  3.090171e-01  0.000000e+00
   outer loop
     vertex -5.219680e-01  6.068324e-01 -1.587302e-02
     vertex -5.352696e-01  5.658943e-01  1.269842e-01
     vertex -5.219680e-01  6.068324e-01  1.269842e-01
   endloop
 endfacet
 facet normal -9.195277e-01  3.930251e-01  0.000000e+00
   outer loop
     vertex -5.219680e-01  6.068324e-01 -1.587302e-02
     vertex -5.050503e-01  6.464134e-01  1.269842e-01
     vertex -5.050503e-01  6.464134e-01 -1.587302e-02
   endloop
 endfacet
 facet normal -9.749279e-01  2.225210e-01  0.000000e+00
   outer loop
     vertex -5.352696e-01  5.658943e-01 -1.587302e-02
     vertex -5.448480e-01  5.239286e-01  1.269842e-01
     vertex -5.352696e-01  5.658943e-01  1.269842e-01
   endloop
 endfacet
 facet normal -9.510565e-01  3.090171e-01  0.000000e+00
   outer loop
     vertex -5.352696e-01  5.658943e-01 -1.587302e-02
     vertex -5.352696e-01  5.658943e-01  1.269842e-01
     vertex -5.219680e-01  6.068324e-01 -1.587302e-02
   endloop
 endfacet
 facet normal -9.749279e-01  2.225210e-01  0.000000e+00
   outer loop
     vertex -5.448480e-01  5.239286e-01 -1.587302e-02
     vertex -5.448480e-01  5.239286e-01  1.269842e-01
     vertex -5.352696e-01  5.658943e-01 -1.587302e-02
   endloop
 endfacet
 facet normal -9.909498e-01  1.342334e-01  0.000000e+00
   outer loop
     vertex -5.506261e-01  4.812732e-01 -1.587302e-02
     vertex -5.448480e-01  5.239286e-01  1.269842e-01
     vertex -5.448480e-01  5.239286e-01 -1.587302e-02
   endloop
 endfacet
 facet normal -9.909498e-01  1.342334e-01  0.000000e+00
   outer loop
     vertex -5.506261e-01  4.812732e-01 -1.587302e-02
     vertex -5.506261e-01  4.812732e-01  1.269842e-01
     vertex -5.448480e-01  5.239286e-01  1.269842e-01
   endloop
 endfacet
 facet normal -9.989931e-01  4.486492e-02  0.000000e+00
   outer loop
     vertex -5.525573e-01  4.382716e-01 -1.587302e-02
     vertex -5.506261e-01  4.812732e-01  1.269842e-01
     vertex -5.506261e-01  4.812732e-01 -1.587302e-02
   endloop
 endfacet
 facet normal -9.989931e-01  4.486492e-02  0.000000e+00
   outer loop
     vertex -5.525573e-01  4.382716e-01 -1.587302e-02
     vertex -5.525573e-01  4.382716e-01  1.269842e-01
     vertex -5.506261e-01  4.812732e-01  1.269842e-01
   endloop
 endfacet
 facet normal  0.000000e+00 -1.000000e+00  0.000000e+00
   outer loop
     vertex  4.068784e-01 -5.493827e-01 -1.587302e-02
     vertex -5.525573e-01 -5.493827e-01  1.269842e-01
     vertex -5.525573e-01 -5.493827e-01 -1.587302e-02
   endloop
 endfacet
 facet normal  0.000000e+00 -1.000000e+00  0.000000e+00
   outer loop
     vertex  4.068784e-01 -5.493827e-01 -1.587302e-02
     vertex  4.068784e-01 -5.493827e-01  1.269842e-01
     vertex -5.525573e-01 -5.493827e-01  1.269842e-01
   endloop
 endfacet
 facet normal -1.000000e+00 -1.124101e-16  0.000000e+00
   outer loop
     vertex -5.525573e-01 -5.493827e-01 -1.587302e-02
     vertex -5.525573e-01  4.382716e-01 -1.587302e-02
     vertex -5.525573e-01  4.382716e-01 -3.174603e-02
   endloop
 endfacet
 facet normal -1.000000e+00 -1.124101e-16 -0.000000e+00
   outer loop
     vertex -5.525573e-01 -5.493827e-01 -1.587302e-02
     vertex -5.525573e-01  4.382716e-01 -3.174603e-02
     vertex -5.525573e-01 -5.493827e-01 -3.174603e-02
   endloop
 endfacet
 facet normal  0.000000e+00  0.000000e+00  1.000000e+00
   outer loop
     vertex -3.000000e-01  3.359788e-01  1.269842e-01
     vertex -5.525573e-01  4.382716e-01  1.269842e-01
     vertex -5.525573e-01 -5.493827e-01  1.269842e-01
   endloop
 endfacet
 facet normal  0.000000e+00  0.000000e+00  1.000000e+00
   outer loop
     vertex -3.000000e-01  3.359788e-01  1.269842e-01
     vertex -5.525573e-01 -5.493827e-01  1.269842e-01
     vertex  4.068784e-01 -5.493827e-01  1.269842e-01
   endloop
 endfacet
 facet normal  0.000000e+00  0.000000e+00  1.000000e+00
   outer loop
     vertex -3.000000e-01  3.359788e-01  1.269842e-01
     vertex -5.506261e-01  4.812732e-01  1.269842e-01
     vertex -5.525573e-01  4.382716e-01  1.269842e-01
   endloop
 endfacet
 facet normal  0.000000e+00  0.000000e+00  1.000000e+00
   outer loop
     vertex -3.000000e-01  5.730159e-01  1.269842e-01
     vertex -4.609393e-01  7.202427e-01  1.269842e-01
     vertex -4.846526e-01  6.843186e-01  1.269842e-01
   endloop
 endfacet
 facet normal  0.000000e+00  0.000000e+00  1.000000e+00
   outer loop
     vertex -3.000000e-01  5.730159e-01  1.269842e-01
     vertex -4.846526e-01  6.843186e-01  1.269842e-01
     vertex -5.050503e-01  6.464134e-01  1.269842e-01
   endloop
 endfacet
 facet normal  0.000000e+00  0.000000e+00  1.000000e+00
   outer loop
     vertex -3.000000e-01  5.730159e-01  1.269842e-01
     vertex -5.050503e-01  6.464134e-01  1.269842e-01
     vertex -5.219680e-01  6.068324e-01  1.269842e-01
   endloop
 endfacet
 facet normal  0.000000e+00  0.000000e+00  1.000000e+00
   outer loop
     vertex -3.000000e-01  5.730159e-01  1.269842e-01
     vertex -5.219680e-01  6.068324e-01  1.269842e-01
     vertex -5.352696e-01  5.658943e-01  1.269842e-01
   endloop
 endfacet
 facet normal  0.000000e+00  0.000000e+00  1.000000e+00
   outer loop
     vertex -3.000000e-01  5.730159e-01  1.269842e-01
     vertex -5.352696e-01  5.658943e-01  1.269842e-01
     vertex -5.448480e-01  5.239286e-01  1.269842e-01
   endloop
 endfacet
 facet normal  0.000000e+00  0.000000e+00  1.000000e+00
   outer loop
     vertex -3.000000e-01  5.730159e-01  1.269842e-01
     vertex -5.448480e-01  5.239286e-01  1.269842e-01
     vertex -5.506261e-01  4.812732e-01  1.269842e-01
   endloop
 endfacet
 facet normal  0.000000e+00  0.000000e+00  1.000000e+00
   outer loop
     vertex -3.000000e-01  5.730159e-01  1.269842e-01
     vertex -5.506261e-01  4.812732e-01  1.269842e-01
     vertex -3.000000e-01  3.359788e-01  1.269842e-01
   endloop
 endfacet
 facet normal  0.000000e+00  0.000000e+00  1.000000e+00
   outer loop
     vertex -4.341013e-01  7.538966e-01  1.269842e-01
     vertex -4.609393e-01  7.202427e-01  1.269842e-01
     vertex -3.000000e-01  5.730159e-01  1.269842e-01
   endloop
 endfacet
 facet normal  0.000000e+00  0.000000e+00  1.000000e+00
   outer loop
     vertex -4.043545e-01  7.850092e-01  1.269842e-01
     vertex -4.341013e-01  7.538966e-01  1.269842e-01
     vertex -3.000000e-01  5.730159e-01  1.269842e-01
   endloop
 endfacet
 facet normal  0.000000e+00  0.000000e+00  1.000000e+00
   outer loop
     vertex -3.719386e-01  8.133301e-01  1.269842e-01
     vertex -4.043545e-01  7.850092e-01  1.269842e-01
     vertex -3.000000e-01  5.730159e-01  1.269842e-01
   endloop
 endfacet
 facet normal  0.000000e+00  0.000000e+00  1.000000e+00
   outer loop
     vertex -3.371145e-01  8.386313e-01  1.269842e-01
     vertex -3.719386e-01  8.133301e-01  1.269842e-01
     vertex -3.000000e-01  5.730159e-01  1.269842e-01
   endloop
 endfacet
 facet normal  0.000000e+00  0.000000e+00  1.000000e+00
   outer loop
     vertex  1.740741e-01  3.359788e-01  1.269842e-01
     vertex -3.000000e-01  3.359788e-01  1.269842e-01
     vertex  4.068784e-01 -5.493827e-01  1.269842e-01
   endloop
 endfacet
 facet normal  0.000000e+00  0.000000e+00  1.000000e+00
   outer loop
     vertex -3.001627e-01  8.607090e-01  1.269842e-01
     vertex -3.371145e-01  8.386313e-01  1.269842e-01
     vertex -3.000000e-01  5.730159e-01  1.269842e-01
   endloop
 endfacet
 facet normal  0.000000e+00  0.000000e+00  1.000000e+00
   outer loop
     vertex -2.613806e-01  8.793855e-01  1.269842e-01
     vertex -3.001627e-01  8.607090e-01  1.269842e-01
     vertex -3.000000e-01  5.730159e-01  1.269842e-01
   endloop
 endfacet
 facet normal  0.000000e+00  0.000000e+00  1.000000e+00
   outer loop
     vertex -2.210804e-01  8.945104e-01  1.269842e-01
     vertex -2.613806e-01  8.793855e-01  1.269842e-01
     vertex -3.000000e-01  5.730159e-01  1.269842e-01
   endloop
 endfacet
 facet normal  0.000000e+00  0.000000e+00  1.000000e+00
   outer loop
     vertex -1.795867e-01  9.059619e-01  1.269842e-01
     vertex -2.210804e-01  8.945104e-01  1.269842e-01
     vertex -3.000000e-01  5.730159e-01  1.269842e-01
   endloop
 endfacet
 facet normal  0.000000e+00  0.000000e+00  1.000000e+00
   outer loop
     vertex -1.372335e-01  9.136479e-01  1.269842e-01
     vertex -1.795867e-01  9.059619e-01  1.269842e-01
     vertex -3.000000e-01  5.730159e-01  1.269842e-01
   endloop
 endfacet
 facet normal  0.000000e+00  0.000000e+00  1.000000e+00
   outer loop
     vertex -9.436191e-02  9.175064e-01  1.269842e-01
     vertex -1.372335e-01  9.136479e-01  1.269842e-01
     vertex -3.000000e-01  5.730159e-01  1.269842e-01
   endloop
 endfacet
 facet normal  0.000000e+00  0.000000e+00  1.000000e+00
   outer loop
     vertex  4.068784e-01  4.382716e-01  1.269842e-01
     vertex  1.740741e-01  3.359788e-01  1.269842e-01
     vertex  4.068784e-01 -5.493827e-01  1.269842e-01
   endloop
 endfacet
 facet normal  0.000000e+00  0.000000e+00  1.000000e+00
   outer loop
     vertex -5.131700e-02  9.175064e-01  1.269842e-01
     vertex -3.000000e-01  5.730159e-01  1.269842e-01
     vertex  1.740741e-01  5.730159e-01  1.269842e-01
   endloop
 endfacet
 facet normal  0.000000e+00  0.000000e+00  1.000000e+00
   outer loop
     vertex -5.131700e-02  9.175064e-01  1.269842e-01
     vertex -9.436191e-02  9.175064e-01  1.269842e-01
     vertex -3.000000e-01  5.730159e-01  1.269842e-01
   endloop
 endfacet
 facet normal  0.000000e+00  0.000000e+00  1.000000e+00
   outer loop
     vertex  4.049472e-01  4.812732e-01  1.269842e-01
     vertex  1.740741e-01  5.730159e-01  1.269842e-01
     vertex  1.740741e-01  3.359788e-01  1.269842e-01
   endloop
 endfacet
 facet normal  0.000000e+00  0.000000e+00  1.000000e+00
   outer loop
     vertex  4.049472e-01  4.812732e-01  1.269842e-01
     vertex  1.740741e-01  3.359788e-01  1.269842e-01
     vertex  4.068784e-01  4.382716e-01  1.269842e-01
   endloop
 endfacet
 facet normal  0.000000e+00  0.000000e+00  1.000000e+00
   outer loop
     vertex -8.445366e-03  9.136479e-01  1.269842e-01
     vertex -5.131700e-02  9.175064e-01  1.269842e-01
     vertex  1.740741e-01  5.730159e-01  1.269842e-01
   endloop
 endfacet
 facet normal  0.000000e+00  0.000000e+00  1.000000e+00
   outer loop
     vertex  3.991691e-01  5.239286e-01  1.269842e-01
     vertex  1.740741e-01  5.730159e-01  1.269842e-01
     vertex  4.049472e-01  4.812732e-01  1.269842e-01
   endloop
 endfacet
 facet normal  0.000000e+00  0.000000e+00  1.000000e+00
   outer loop
     vertex  3.390780e-02  9.059619e-01  1.269842e-01
     vertex -8.445366e-03  9.136479e-01  1.269842e-01
     vertex  1.740741e-01  5.730159e-01  1.269842e-01
   endloop
 endfacet
 facet normal  0.000000e+00  0.000000e+00  1.000000e+00
   outer loop
     vertex  3.895907e-01  5.658943e-01  1.269842e-01
     vertex  1.740741e-01  5.730159e-01  1.269842e-01
     vertex  3.991691e-01  5.239286e-01  1.269842e-01
   endloop
 endfacet
 facet normal  0.000000e+00  0.000000e+00  1.000000e+00
   outer loop
     vertex  7.540150e-02  8.945104e-01  1.269842e-01
     vertex  3.390780e-02  9.059619e-01  1.269842e-01
     vertex  1.740741e-01  5.730159e-01  1.269842e-01
   endloop
 endfacet
 facet normal  0.000000e+00  0.000000e+00  1.000000e+00
   outer loop
     vertex  3.762891e-01  6.068324e-01  1.269842e-01
     vertex  1.740741e-01  5.730159e-01  1.269842e-01
     vertex  3.895907e-01  5.658943e-01  1.269842e-01
   endloop
 endfacet
 facet normal  0.000000e+00  0.000000e+00  1.000000e+00
   outer loop
     vertex  1.157017e-01  8.793855e-01  1.269842e-01
     vertex  7.540150e-02  8.945104e-01  1.269842e-01
     vertex  1.740741e-01  5.730159e-01  1.269842e-01
   endloop
 endfacet
 facet normal  0.000000e+00  0.000000e+00  1.000000e+00
   outer loop
     vertex  3.593714e-01  6.464134e-01  1.269842e-01
     vertex  1.740741e-01  5.730159e-01  1.269842e-01
     vertex  3.762891e-01  6.068324e-01  1.269842e-01
   endloop
 endfacet
 facet normal  0.000000e+00  0.000000e+00  1.000000e+00
   outer loop
     vertex  1.544838e-01  8.607090e-01  1.269842e-01
     vertex  1.157017e-01  8.793855e-01  1.269842e-01
     vertex  1.740741e-01  5.730159e-01  1.269842e-01
   endloop
 endfacet
 facet normal  0.000000e+00  0.000000e+00  1.000000e+00
   outer loop
     vertex  3.389737e-01  6.843186e-01  1.269842e-01
     vertex  1.740741e-01  5.730159e-01  1.269842e-01
     vertex  3.593714e-01  6.464134e-01  1.269842e-01
   endloop
 endfacet
 facet normal  0.000000e+00  0.000000e+00  1.000000e+00
   outer loop
     vertex  1.914356e-01  8.386313e-01  1.269842e-01
     vertex  1.544838e-01  8.607090e-01  1.269842e-01
     vertex  1.740741e-01  5.730159e-01  1.269842e-01
   endloop
 endfacet
 facet normal  0.000000e+00  0.000000e+00  1.000000e+00
   outer loop
     vertex  3.152604e-01  7.202427e-01  1.269842e-01
     vertex  1.740741e-01  5.730159e-01  1.269842e-01
     vertex  3.389737e-01  6.843186e-01  1.269842e-01
   endloop
 endfacet
 facet normal  0.000000e+00  0.000000e+00  1.000000e+00
   outer loop
     vertex  2.262597e-01  8.133301e-01  1.269842e-01
     vertex  1.914356e-01  8.386313e-01  1.269842e-01
     vertex  1.740741e-01  5.730159e-01  1.269842e-01
   endloop
 endfacet
 facet normal  0.000000e+00  0.000000e+00  1.000000e+00
   outer loop
     vertex  2.884223e-01  7.538966e-01  1.269842e-01
     vertex  1.740741e-01  5.730159e-01  1.269842e-01
     vertex  3.152604e-01  7.202427e-01  1.269842e-01
   endloop
 endfacet
 facet normal  0.000000e+00  0.000000e+00  1.000000e+00
   outer loop
     vertex  2.586756e-01  7.850092e-01  1.269842e-01
     vertex  2.262597e-01  8.133301e-01  1.269842e-01
     vertex  1.740741e-01  5.730159e-01  1.269842e-01
   endloop
 endfacet
 facet normal  0.000000e+00  0.000000e+00  1.000000e+00
   outer loop
     vertex  2.586756e-01  7.850092e-01  1.269842e-01
     vertex  1.740741e-01  5.730159e-01  1.269842e-01
     vertex  2.884223e-01  7.538966e-01  1.269842e-01
   endloop
 endfacet
 facet normal  1.000000e+00 -5.620504e-17  0.000000e+00
   outer loop
     vertex  4.068784e-01  4.382716e-01 -1.587302e-02
     vertex  4.068784e-01 -5.493827e-01  1.269842e-01
     vertex  4.068784e-01 -5.493827e-01 -1.587302e-02
   endloop
 endfacet
 facet normal  1.000000e+00 -5.620504e-17  0.000000e+00
   outer loop
     vertex  4.068784e-01  4.382716e-01 -1.587302e-02
     vertex  4.068784e-01  4.382716e-01  1.269842e-01
     vertex  4.068784e-01 -5.493827e-01  1.269842e-01
   endloop
 endfacet
 facet normal  9.989931e-01  4.486492e-02  0.000000e+00
   outer loop
     vertex  4.049472e-01  4.812732e-01 -1.587302e-02
     vertex  4.068784e-01  4.382716e-01 -1.587302e-02
     vertex  4.068784e-01  4.382716e-01 -3.174603e-02
   endloop
 endfacet
 facet normal  9.989931e-01  4.486492e-02  0.000000e+00
   outer loop
     vertex  4.049472e-01  4.812732e-01 -1.587302e-02
     vertex  4.068784e-01  4.382716e-01 -3.174603e-02
     vertex  4.049472e-01  4.812732e-01 -3.174603e-02
   endloop
 endfacet
 facet normal  9.909498e-01  1.342334e-01  0.000000e+00
   outer loop
     vertex  3.991691e-01  5.239286e-01 -1.587302e-02
     vertex  4.049472e-01  4.812732e-01 -3.174603e-02
     vertex  3.991691e-01  5.239286e-01 -3.174603e-02
   endloop
 endfacet
 facet normal  9.909498e-01  1.342334e-01  0.000000e+00
   outer loop
     vertex  3.991691e-01  5.239286e-01 -1.587302e-02
     vertex  4.049472e-01  4.812732e-01 -1.587302e-02
     vertex  4.049472e-01  4.812732e-01 -3.174603e-02
   endloop
 endfacet
 facet normal  9.749279e-01  2.225210e-01  0.000000e+00
   outer loop
     vertex  3.895907e-01  5.658943e-01 -1.587302e-02
     vertex  3.991691e-01  5.239286e-01 -3.174603e-02
     vertex  3.895907e-01  5.658943e-01 -3.174603e-02
   endloop
 endfacet
 facet normal  9.749279e-01  2.225210e-01  0.000000e+00
   outer loop
     vertex  3.895907e-01  5.658943e-01 -1.587302e-02
     vertex  3.991691e-01  5.239286e-01 -1.587302e-02
     vertex  3.991691e-01  5.239286e-01 -3.174603e-02
   endloop
 endfacet
 facet normal  9.510565e-01  3.090171e-01  0.000000e+00
   outer loop
     vertex  3.762891e-01  6.068324e-01 -1.587302e-02
     vertex  3.895907e-01  5.658943e-01 -3.174603e-02
     vertex  3.762891e-01  6.068324e-01 -3.174603e-02
   endloop
 endfacet
 facet normal  9.510565e-01  3.090171e-01  0.000000e+00
   outer loop
     vertex  3.762891e-01  6.068324e-01 -1.587302e-02
     vertex  3.895907e-01  5.658943e-01 -1.587302e-02
     vertex  3.895907e-01  5.658943e-01 -3.174603e-02
   endloop
 endfacet
 facet normal  9.195277e-01  3.930251e-01  0.000000e+00
   outer loop
     vertex  3.593714e-01  6.464134e-01 -1.587302e-02
     vertex  3.762891e-01  6.068324e-01 -3.174603e-02
     vertex  3.593714e-01  6.464134e-01 -3.174603e-02
   endloop
 endfacet
 facet normal  9.195277e-01  3.930251e-01  0.000000e+00
   outer loop
     vertex  3.593714e-01  6.464134e-01 -1.587302e-02
     vertex  3.762891e-01  6.068324e-01 -1.587302e-02
     vertex  3.762891e-01  6.068324e-01 -3.174603e-02
   endloop
 endfacet
 facet normal  8.805955e-01  4.738687e-01  0.000000e+00
   outer loop
     vertex  3.389737e-01  6.843186e-01 -1.587302e-02
     vertex  3.593714e-01  6.464134e-01 -3.174603e-02
     vertex  3.389737e-01  6.843186e-01 -3.174603e-02
   endloop
 endfacet
 facet normal  8.805955e-01  4.738687e-01  0.000000e+00
   outer loop
     vertex  3.389737e-01  6.843186e-01 -1.587302e-02
     vertex  3.593714e-01  6.464134e-01 -1.587302e-02
     vertex  3.593714e-01  6.464134e-01 -3.174603e-02
   endloop
 endfacet
 facet normal  8.345732e-01  5.508970e-01  0.000000e+00
   outer loop
     vertex  3.152604e-01  7.202427e-01 -1.587302e-02
     vertex  3.389737e-01  6.843186e-01 -1.587302e-02
     vertex  3.389737e-01  6.843186e-01 -3.174603e-02
   endloop
 endfacet
 facet normal  8.345732e-01  5.508970e-01  0.000000e+00
   outer loop
     vertex  3.152604e-01  7.202427e-01 -1.587302e-02
     vertex  3.389737e-01  6.843186e-01 -3.174603e-02
     vertex  3.152604e-01  7.202427e-01 -3.174603e-02
   endloop
 endfacet
 facet normal  7.818314e-01  6.234898e-01  0.000000e+00
   outer loop
     vertex  2.884223e-01  7.538966e-01 -1.587302e-02
     vertex  3.152604e-01  7.202427e-01 -3.174603e-02
     vertex  2.884223e-01  7.538966e-01 -3.174603e-02
   endloop
 endfacet
 facet normal  7.818314e-01  6.234898e-01  0.000000e+00
   outer loop
     vertex  2.884223e-01  7.538966e-01 -1.587302e-02
     vertex  3.152604e-01  7.202427e-01 -1.587302e-02
     vertex  3.152604e-01  7.202427e-01 -3.174603e-02
   endloop
 endfacet
 facet normal  7.227948e-01  6.910627e-01  0.000000e+00
   outer loop
     vertex  2.586756e-01  7.850092e-01 -1.587302e-02
     vertex  2.884223e-01  7.538966e-01 -3.174603e-02
     vertex  2.586756e-01  7.850092e-01 -3.174603e-02
   endloop
 endfacet
 facet normal  7.227948e-01  6.910627e-01  0.000000e+00
   outer loop
     vertex  2.586756e-01  7.850092e-01 -1.587302e-02
     vertex  2.884223e-01  7.538966e-01 -1.587302e-02
     vertex  2.884223e-01  7.538966e-01 -3.174603e-02
   endloop
 endfacet
 facet normal  6.579387e-01  7.530715e-01  0.000000e+00
   outer loop
     vertex  2.262597e-01  8.133301e-01 -1.587302e-02
     vertex  2.586756e-01  7.850092e-01 -3.174603e-02
     vertex  2.262597e-01  8.133301e-01 -3.174603e-02
   endloop
 endfacet
 facet normal  6.579387e-01  7.530715e-01  0.000000e+00
   outer loop
     vertex  2.262597e-01  8.133301e-01 -1.587302e-02
     vertex  2.586756e-01  7.850092e-01 -1.587302e-02
     vertex  2.586756e-01  7.850092e-01 -3.174603e-02
   endloop
 endfacet
 facet normal  5.877852e-01  8.090170e-01  0.000000e+00
   outer loop
     vertex  1.914356e-01  8.386313e-01 -1.587302e-02
     vertex  2.262597e-01  8.133301e-01 -1.587302e-02
     vertex  2.262597e-01  8.133301e-01 -3.174603e-02
   endloop
 endfacet
 facet normal  5.877852e-01  8.090170e-01  0.000000e+00
   outer loop
     vertex  1.914356e-01  8.386313e-01 -1.587302e-02
     vertex  2.262597e-01  8.133301e-01 -3.174603e-02
     vertex  1.914356e-01  8.386313e-01 -3.174603e-02
   endloop
 endfacet
 facet normal  5.128992e-01  8.584488e-01  0.000000e+00
   outer loop
     vertex  1.544838e-01  8.607090e-01 -1.587302e-02
     vertex  1.914356e-01  8.386313e-01 -3.174603e-02
     vertex  1.544838e-01  8.607090e-01 -3.174603e-02
   endloop
 endfacet
 facet normal  5.128992e-01  8.584488e-01  0.000000e+00
   outer loop
     vertex  1.544838e-01  8.607090e-01 -1.587302e-02
     vertex  1.914356e-01  8.386313e-01 -1.587302e-02
     vertex  1.914356e-01  8.386313e-01 -3.174603e-02
   endloop
 endfacet
 facet normal  4.338837e-01  9.009689e-01  0.000000e+00
   outer loop
     vertex  1.157017e-01  8.793855e-01 -1.587302e-02
     vertex  1.544838e-01  8.607090e-01 -3.174603e-02
     vertex  1.157017e-01  8.793855e-01 -3.174603e-02
   endloop
 endfacet
 facet normal  4.338837e-01  9.009689e-01  0.000000e+00
   outer loop
     vertex  1.157017e-01  8.793855e-01 -1.587302e-02
     vertex  1.544838e-01  8.607090e-01 -1.587302e-02
     vertex  1.544838e-01  8.607090e-01 -3.174603e-02
   endloop
 endfacet
 facet normal  3.513748e-01  9.362349e-01  0.000000e+00
   outer loop
     vertex  7.540150e-02  8.945104e-01 -1.587302e-02
     vertex  1.157017e-01  8.793855e-01 -3.174603e-02
     vertex  7.540150e-02  8.945104e-01 -3.174603e-02
   endloop
 endfacet
 facet normal  3.513748e-01  9.362349e-01  0.000000e+00
   outer loop
     vertex  7.540150e-02  8.945104e-01 -1.587302e-02
     vertex  1.157017e-01  8.793855e-01 -1.587302e-02
     vertex  1.157017e-01  8.793855e-01 -3.174603e-02
   endloop
 endfacet
 facet normal  2.660368e-01  9.639629e-01  0.000000e+00
   outer loop
     vertex  3.390780e-02  9.059619e-01 -1.587302e-02
     vertex  7.540150e-02  8.945104e-01 -3.174603e-02
     vertex  3.390780e-02  9.059619e-01 -3.174603e-02
   endloop
 endfacet
 facet normal  2.660368e-01  9.639629e-01  0.000000e+00
   outer loop
     vertex  3.390780e-02  9.059619e-01 -1.587302e-02
     vertex  7.540150e-02  8.945104e-01 -1.587302e-02
     vertex  7.540150e-02  8.945104e-01 -3.174603e-02
   endloop
 endfacet
 facet normal  1.785569e-01  9.839296e-01  0.000000e+00
   outer loop
     vertex -8.445366e-03  9.136479e-01 -1.587302e-02
     vertex  3.390780e-02  9.059619e-01 -3.174603e-02
     vertex -8.445366e-03  9.136479e-01 -3.174603e-02
   endloop
 endfacet
 facet normal  1.785569e-01  9.839296e-01  0.000000e+00
   outer loop
     vertex -8.445366e-03  9.136479e-01 -1.587302e-02
     vertex  3.390780e-02  9.059619e-01 -1.587302e-02
     vertex  3.390780e-02  9.059619e-01 -3.174603e-02
   endloop
 endfacet
 facet normal  8.963930e-02  9.959743e-01  0.000000e+00
   outer loop
     vertex -5.131700e-02  9.175064e-01 -1.587302e-02
     vertex -8.445366e-03  9.136479e-01 -3.174603e-02
     vertex -5.131700e-02  9.175064e-01 -3.174603e-02
   endloop
 endfacet
 facet normal  8.963930e-02  9.959743e-01  0.000000e+00
   outer loop
     vertex -5.131700e-02  9.175064e-01 -1.587302e-02
     vertex -8.445366e-03  9.136479e-01 -1.587302e-02
     vertex -8.445366e-03  9.136479e-01 -3.174603e-02
   endloop
 endfacet
 facet normal  0.000000e+00  1.000000e+00  0.000000e+00
   outer loop
     vertex -9.436191e-02  9.175064e-01 -1.587302e-02
     vertex -5.131700e-02  9.175064e-01 -3.174603e-02
     vertex -9.436191e-02  9.175064e-01 -3.174603e-02
   endloop
 endfacet
 facet normal -0.000000e+00  1.000000e+00  0.000000e+00
   outer loop
     vertex -9.436191e-02  9.175064e-01 -1.587302e-02
     vertex -5.131700e-02  9.175064e-01 -1.587302e-02
     vertex -5.131700e-02  9.175064e-01 -3.174603e-02
   endloop
 endfacet
 facet normal -8.963930e-02  9.959743e-01  0.000000e+00
   outer loop
     vertex -1.372335e-01  9.136479e-01 -1.587302e-02
     vertex -9.436191e-02  9.175064e-01 -3.174603e-02
     vertex -1.372335e-01  9.136479e-01 -3.174603e-02
   endloop
 endfacet
 facet normal -8.963930e-02  9.959743e-01  0.000000e+00
   outer loop
     vertex -1.372335e-01  9.136479e-01 -1.587302e-02
     vertex -9.436191e-02  9.175064e-01 -1.587302e-02
     vertex -9.436191e-02  9.175064e-01 -3.174603e-02
   endloop
 endfacet
 facet normal -1.785569e-01  9.839296e-01  0.000000e+00
   outer loop
     vertex -1.795867e-01  9.059619e-01 -1.587302e-02
     vertex -1.372335e-01  9.136479e-01 -3.174603e-02
     vertex -1.795867e-01  9.059619e-01 -3.174603e-02
   endloop
 endfacet
 facet normal -1.785569e-01  9.839296e-01  0.000000e+00
   outer loop
     vertex -1.795867e-01  9.059619e-01 -1.587302e-02
     vertex -1.372335e-01  9.136479e-01 -1.587302e-02
     vertex -1.372335e-01  9.136479e-01 -3.174603e-02
   endloop
 endfacet
 facet normal -2.660368e-01  9.639629e-01  0.000000e+00
   outer loop
     vertex -2.210804e-01  8.945104e-01 -1.587302e-02
     vertex -1.795867e-01  9.059619e-01 -3.174603e-02
     vertex -2.210804e-01  8.945104e-01 -3.174603e-02
   endloop
 endfacet
 facet normal -2.660368e-01  9.639629e-01  0.000000e+00
   outer loop
     vertex -2.210804e-01  8.945104e-01 -1.587302e-02
     vertex -1.795867e-01  9.059619e-01 -1.587302e-02
     vertex -1.795867e-01  9.059619e-01 -3.174603e-02
   endloop
 endfacet
 facet normal -3.513748e-01  9.362349e-01  0.000000e+00
   outer loop
     vertex -2.613806e-01  8.793855e-01 -1.587302e-02
     vertex -2.210804e-01  8.945104e-01 -3.174603e-02
     vertex -2.613806e-01  8.793855e-01 -3.174603e-02
   endloop
 endfacet
 facet normal -3.513748e-01  9.362349e-01  0.000000e+00
   outer loop
     vertex -2.613806e-01  8.793855e-01 -1.587302e-02
     vertex -2.210804e-01  8.945104e-01 -1.587302e-02
     vertex -2.210804e-01  8.945104e-01 -3.174603e-02
   endloop
 endfacet
 facet normal -4.338837e-01  9.009689e-01  0.000000e+00
   outer loop
     vertex -3.001627e-01  8.607090e-01 -1.587302e-02
     vertex -2.613806e-01  8.793855e-01 -3.174603e-02
     vertex -3.001627e-01  8.607090e-01 -3.174603e-02
   endloop
 endfacet
 facet normal -4.338837e-01  9.009689e-01  0.000000e+00
   outer loop
     vertex -3.001627e-01  8.607090e-01 -1.587302e-02
     vertex -2.613806e-01  8.793855e-01 -1.587302e-02
     vertex -2.613806e-01  8.793855e-01 -3.174603e-02
   endloop
 endfacet
 facet normal -5.128992e-01  8.584488e-01  0.000000e+00
   outer loop
     vertex -3.371145e-01  8.386313e-01 -1.587302e-02
     vertex -3.001627e-01  8.607090e-01 -3.174603e-02
     vertex -3.371145e-01  8.386313e-01 -3.174603e-02
   endloop
 endfacet
 facet normal -5.128992e-01  8.584488e-01  0.000000e+00
   outer loop
     vertex -3.371145e-01  8.386313e-01 -1.587302e-02
     vertex -3.001627e-01  8.607090e-01 -1.587302e-02
     vertex -3.001627e-01  8.607090e-01 -3.174603e-02
   endloop
 endfacet
 facet normal -5.877852e-01  8.090170e-01  0.000000e+00
   outer loop
     vertex -3.719386e-01  8.133301e-01 -1.587302e-02
     vertex -3.371145e-01  8.386313e-01 -3.174603e-02
     vertex -3.719386e-01  8.133301e-01 -3.174603e-02
   endloop
 endfacet
 facet normal -5.877852e-01  8.090170e-01  0.000000e+00
   outer loop
     vertex -3.719386e-01  8.133301e-01 -1.587302e-02
     vertex -3.371145e-01  8.386313e-01 -1.587302e-02
     vertex -3.371145e-01  8.386313e-01 -3.174603e-02
   endloop
 endfacet
 facet normal -6.579387e-01  7.530715e-01  0.000000e+00
   outer loop
     vertex -4.043545e-01  7.850092e-01 -1.587302e-02
     vertex -3.719386e-01  8.133301e-01 -3.174603e-02
     vertex -4.043545e-01  7.850092e-01 -3.174603e-02
   endloop
 endfacet
 facet normal -6.579387e-01  7.530715e-01  0.000000e+00
   outer loop
     vertex -4.043545e-01  7.850092e-01 -1.587302e-02
     vertex -3.719386e-01  8.133301e-01 -1.587302e-02
     vertex -3.719386e-01  8.133301e-01 -3.174603e-02
   endloop
 endfacet
 facet normal -7.227948e-01  6.910627e-01  0.000000e+00
   outer loop
     vertex -4.341013e-01  7.538966e-01 -1.587302e-02
     vertex -4.043545e-01  7.850092e-01 -3.174603e-02
     vertex -4.341013e-01  7.538966e-01 -3.174603e-02
   endloop
 endfacet
 facet normal -7.227948e-01  6.910627e-01  0.000000e+00
   outer loop
     vertex -4.341013e-01  7.538966e-01 -1.587302e-02
     vertex -4.043545e-01  7.850092e-01 -1.587302e-02
     vertex -4.043545e-01  7.850092e-01 -3.174603e-02
   endloop
 endfacet
 facet normal -7.818314e-01  6.234898e-01  0.000000e+00
   outer loop
     vertex -4.609393e-01  7.202427e-01 -1.587302e-02
     vertex -4.341013e-01  7.538966e-01 -3.174603e-02
     vertex -4.609393e-01  7.202427e-01 -3.174603e-02
   endloop
 endfacet
 facet normal -7.818314e-01  6.234898e-01  0.000000e+00
   outer loop
     vertex -4.609393e-01  7.202427e-01 -1.587302e-02
     vertex -4.341013e-01  7.538966e-01 -1.587302e-02
     vertex -4.341013e-01  7.538966e-01 -3.174603e-02
   endloop
 endfacet
 facet normal -8.345732e-01  5.508970e-01  0.000000e+00
   outer loop
     vertex -4.846526e-01  6.843186e-01 -1.587302e-02
     vertex -4.609393e-01  7.202427e-01 -3.174603e-02
     vertex -4.846526e-01  6.843186e-01 -3.174603e-02
   endloop
 endfacet
 facet normal -8.345732e-01  5.508970e-01  0.000000e+00
   outer loop
     vertex -4.846526e-01  6.843186e-01 -1.587302e-02
     vertex -4.609393e-01  7.202427e-01 -1.587302e-02
     vertex -4.609393e-01  7.202427e-01 -3.174603e-02
   endloop
 endfacet
 facet normal -8.805955e-01  4.738687e-01  0.000000e+00
   outer loop
     vertex -5.050503e-01  6.464134e-01 -1.587302e-02
     vertex -4.846526e-01  6.843186e-01 -3.174603e-02
     vertex -5.050503e-01  6.464134e-01 -3.174603e-02
   endloop
 endfacet
 facet normal -8.805955e-01  4.738687e-01  0.000000e+00
   outer loop
     vertex -5.050503e-01  6.464134e-01 -1.587302e-02
     vertex -4.846526e-01  6.843186e-01 -1.587302e-02
     vertex -4.846526e-01  6.843186e-01 -3.174603e-02
   endloop
 endfacet
 facet normal -9.195277e-01  3.930251e-01  0.000000e+00
   outer loop
     vertex -5.219680e-01  6.068324e-01 -1.587302e-02
     vertex -5.050503e-01  6.464134e-01 -3.174603e-02
     vertex -5.219680e-01  6.068324e-01 -3.174603e-02
   endloop
 endfacet
 facet normal -9.195277e-01  3.930251e-01  0.000000e+00
   outer loop
     vertex -5.219680e-01  6.068324e-01 -1.587302e-02
     vertex -5.050503e-01  6.464134e-01 -1.587302e-02
     vertex -5.050503e-01  6.464134e-01 -3.174603e-02
   endloop
 endfacet
 facet normal -9.510565e-01  3.090171e-01  0.000000e+00
   outer loop
     vertex -5.352696e-01  5.658943e-01 -1.587302e-02
     vertex -5.219680e-01  6.068324e-01 -1.587302e-02
     vertex -5.219680e-01  6.068324e-01 -3.174603e-02
   endloop
 endfacet
 facet normal -9.510565e-01  3.090171e-01  0.000000e+00
   outer loop
     vertex -5.352696e-01  5.658943e-01 -1.587302e-02
     vertex -5.219680e-01  6.068324e-01 -3.174603e-02
     vertex -5.352696e-01  5.658943e-01 -3.174603e-02
   endloop
 endfacet
 facet normal -9.749279e-01  2.225210e-01  0.000000e+00
   outer loop
     vertex -5.448480e-01  5.239286e-01 -1.587302e-02
     vertex -5.352696e-01  5.658943e-01 -1.587302e-02
     vertex -5.352696e-01  5.658943e-01 -3.174603e-02
   endloop
 endfacet
 facet normal -9.749279e-01  2.225210e-01  0.000000e+00
   outer loop
     vertex -5.448480e-01  5.239286e-01 -1.587302e-02
     vertex -5.352696e-01  5.658943e-01 -3.174603e-02
     vertex -5.448480e-01  5.239286e-01 -3.174603e-02
   endloop
 endfacet
 facet normal -9.909498e-01  1.342334e-01  0.000000e+00
   outer loop
     vertex -5.506261e-01  4.812732e-01 -1.587302e-02
     vertex -5.448480e-01  5.239286e-01 -1.587302e-02
     vertex -5.448480e-01  5.239286e-01 -3.174603e-02
   endloop
 endfacet
 facet normal -9.909498e-01  1.342334e-01  0.000000e+00
   outer loop
     vertex -5.506261e-01  4.812732e-01 -1.587302e-02
     vertex -5.448480e-01  5.239286e-01 -3.174603e-02
     vertex -5.506261e-01  4.812732e-01 -3.174603e-02
   endloop
 endfacet
 facet normal -9.989931e-01  4.486492e-02  0.000000e+00
   outer loop
     vertex -5.525573e-01  4.382716e-01 -1.587302e-02
     vertex -5.506261e-01  4.812732e-01 -1.587302e-02
     vertex -5.506261e-01  4.812732e-01 -3.174603e-02
   endloop
 endfacet
 facet normal -9.989931e-01  4.486492e-02  0.000000e+00
   outer loop
     vertex -5.525573e-01  4.382716e-01 -1.587302e-02
     vertex -5.506261e-01  4.812732e-01 -3.174603e-02
     vertex -5.525573e-01  4.382716e-01 -3.174603e-02
   endloop
 endfacet
 facet normal -0.000000e+00 -1.000000e+00  0.000000e+00
   outer loop
     vertex  4.068784e-01 -5.493827e-01 -1.587302e-02
     vertex -5.525573e-01 -5.493827e-01 -1.587302e-02
     vertex -5.525573e-01 -5.493827e-01 -3.174603e-02
   endloop
 endfacet
 facet normal  0.000000e+00 -1.000000e+00 -0.000000e+00
   outer loop
     vertex  4.068784e-01 -5.493827e-01 -1.587302e-02
     vertex -5.525573e-01 -5.493827e-01 -3.174603e-02
     vertex  4.068784e-01 -5.493827e-01 -3.174603e-02
   endloop
 endfacet
 facet normal  0.000000e+00  0.000000e+00 -1.000000e+00
   outer loop
     vertex -5.352696e-01  5.658943e-01 -3.174603e-02
     vertex -5.506261e-01  4.812732e-01 -3.174603e-02
     vertex -5.448480e-01  5.239286e-01 -3.174603e-02
   endloop
 endfacet
 facet normal  0.000000e+00  0.000000e+00 -1.000000e+00
   outer loop
     vertex -5.352696e-01  5.658943e-01 -3.174603e-02
     vertex -5.525573e-01  4.382716e-01 -3.174603e-02
     vertex -5.506261e-01  4.812732e-01 -3.174603e-02
   endloop
 endfacet
 facet normal  0.000000e+00  0.000000e+00 -1.000000e+00
   outer loop
     vertex -5.050503e-01  6.464134e-01 -3.174603e-02
     vertex -5.352696e-01  5.658943e-01 -3.174603e-02
     vertex -5.219680e-01  6.068324e-01 -3.174603e-02
   endloop
 endfacet
 facet normal  0.000000e+00  0.000000e+00 -1.000000e+00
   outer loop
     vertex -4.609393e-01  7.202427e-01 -3.174603e-02
     vertex -5.050503e-01  6.464134e-01 -3.174603e-02
     vertex -4.846526e-01  6.843186e-01 -3.174603e-02
   endloop
 endfacet
 facet normal  0.000000e+00  0.000000e+00 -1.000000e+00
   outer loop
     vertex -3.001627e-01  8.607090e-01 -3.174603e-02
     vertex -3.719386e-01  8.133301e-01 -3.174603e-02
     vertex -3.371145e-01  8.386313e-01 -3.174603e-02
   endloop
 endfacet
 facet normal  0.000000e+00  0.000000e+00 -1.000000e+00
   outer loop
     vertex -3.001627e-01  8.607090e-01 -3.174603e-02
     vertex -4.043545e-01  7.850092e-01 -3.174603e-02
     vertex -3.719386e-01  8.133301e-01 -3.174603e-02
   endloop
 endfacet
 facet normal  0.000000e+00  0.000000e+00 -1.000000e+00
   outer loop
     vertex -3.001627e-01  8.607090e-01 -3.174603e-02
     vertex -4.341013e-01  7.538966e-01 -3.174603e-02
     vertex -4.043545e-01  7.850092e-01 -3.174603e-02
   endloop
 endfacet
 facet normal  0.000000e+00  0.000000e+00 -1.000000e+00
   outer loop
     vertex -2.210804e-01  8.945104e-01 -3.174603e-02
     vertex -3.001627e-01  8.607090e-01 -3.174603e-02
     vertex -2.613806e-01  8.793855e-01 -3.174603e-02
   endloop
 endfacet
 facet normal  0.000000e+00  0.000000e+00 -1.000000e+00
   outer loop
     vertex -1.372335e-01  9.136479e-01 -3.174603e-02
     vertex -2.210804e-01  8.945104e-01 -3.174603e-02
     vertex -1.795867e-01  9.059619e-01 -3.174603e-02
   endloop
 endfacet
 facet normal  0.000000e+00  0.000000e+00 -1.000000e+00
   outer loop
     vertex -1.372335e-01  9.136479e-01 -3.174603e-02
     vertex -3.001627e-01  8.607090e-01 -3.174603e-02
     vertex -2.210804e-01  8.945104e-01 -3.174603e-02
   endloop
 endfacet
 facet normal -0.000000e+00  0.000000e+00 -1.000000e+00
   outer loop
     vertex  4.068784e-01  4.382716e-01 -3.174603e-02
     vertex -5.525573e-01 -5.493827e-01 -3.174603e-02
     vertex -5.525573e-01  4.382716e-01 -3.174603e-02
   endloop
 endfacet
 facet normal  0.000000e+00  0.000000e+00 -1.000000e+00
   outer loop
     vertex  4.068784e-01  4.382716e-01 -3.174603e-02
     vertex  4.068784e-01 -5.493827e-01 -3.174603e-02
     vertex -5.525573e-01 -5.493827e-01 -3.174603e-02
   endloop
 endfacet
 facet normal  0.000000e+00  0.000000e+00 -1.000000e+00
   outer loop
     vertex -8.445366e-03  9.136479e-01 -3.174603e-02
     vertex -9.436191e-02  9.175064e-01 -3.174603e-02
     vertex -5.131700e-02  9.175064e-01 -3.174603e-02
   endloop
 endfacet
 facet normal  0.000000e+00  0.000000e+00 -1.000000e+00
   outer loop
     vertex -8.445366e-03  9.136479e-01 -3.174603e-02
     vertex -1.372335e-01  9.136479e-01 -3.174603e-02
     vertex -9.436191e-02  9.175064e-01 -3.174603e-02
   endloop
 endfacet
 facet normal  0.000000e+00  0.000000e+00 -1.000000e+00
   outer loop
     vertex  7.540150e-02  8.945104e-01 -3.174603e-02
     vertex -8.445366e-03  9.136479e-01 -3.174603e-02
     vertex  3.390780e-02  9.059619e-01 -3.174603e-02
   endloop
 endfacet
 facet normal  0.000000e+00  0.000000e+00 -1.000000e+00
   outer loop
     vertex  7.540150e-02  8.945104e-01 -3.174603e-02
     vertex -1.372335e-01  9.136479e-01 -3.174603e-02
     vertex -8.445366e-03  9.136479e-01 -3.174603e-02
   endloop
 endfacet
 facet normal  0.000000e+00  0.000000e+00 -1.000000e+00
   outer loop
     vertex  3.762891e-01  6.068324e-01 -3.174603e-02
     vertex  4.049472e-01  4.812732e-01 -3.174603e-02
     vertex  4.068784e-01  4.382716e-01 -3.174603e-02
   endloop
 endfacet
 facet normal  0.000000e+00  0.000000e+00 -1.000000e+00
   outer loop
     vertex  3.762891e-01  6.068324e-01 -3.174603e-02
     vertex  3.991691e-01  5.239286e-01 -3.174603e-02
     vertex  4.049472e-01  4.812732e-01 -3.174603e-02
   endloop
 endfacet
 facet normal  0.000000e+00  0.000000e+00 -1.000000e+00
   outer loop
     vertex  3.762891e-01  6.068324e-01 -3.174603e-02
     vertex  3.895907e-01  5.658943e-01 -3.174603e-02
     vertex  3.991691e-01  5.239286e-01 -3.174603e-02
   endloop
 endfacet
 facet normal  0.000000e+00  0.000000e+00 -1.000000e+00
   outer loop
     vertex  3.389737e-01  6.843186e-01 -3.174603e-02
     vertex  3.593714e-01  6.464134e-01 -3.174603e-02
     vertex  3.762891e-01  6.068324e-01 -3.174603e-02
   endloop
 endfacet
 facet normal  0.000000e+00  0.000000e+00 -1.000000e+00
   outer loop
     vertex  1.914356e-01  8.386313e-01 -3.174603e-02
     vertex  1.157017e-01  8.793855e-01 -3.174603e-02
     vertex  1.544838e-01  8.607090e-01 -3.174603e-02
   endloop
 endfacet
 facet normal  0.000000e+00  0.000000e+00 -1.000000e+00
   outer loop
     vertex  3.152604e-01  7.202427e-01 -3.174603e-02
     vertex  3.389737e-01  6.843186e-01 -3.174603e-02
     vertex  3.762891e-01  6.068324e-01 -3.174603e-02
   endloop
 endfacet
 facet normal  0.000000e+00  0.000000e+00 -1.000000e+00
   outer loop
     vertex  2.586756e-01  7.850092e-01 -3.174603e-02
     vertex  2.884223e-01  7.538966e-01 -3.174603e-02
     vertex  3.152604e-01  7.202427e-01 -3.174603e-02
   endloop
 endfacet
 facet normal  0.000000e+00  0.000000e+00 -1.000000e+00
   outer loop
     vertex  2.586756e-01  7.850092e-01 -3.174603e-02
     vertex  1.914356e-01  8.386313e-01 -3.174603e-02
     vertex  2.262597e-01  8.133301e-01 -3.174603e-02
   endloop
 endfacet
 facet normal  0.000000e+00  0.000000e+00 -1.000000e+00
   outer loop
     vertex  2.586756e-01  7.850092e-01 -3.174603e-02
     vertex  7.540150e-02  8.945104e-01 -3.174603e-02
     vertex  1.157017e-01  8.793855e-01 -3.174603e-02
   endloop
 endfacet
 facet normal  0.000000e+00  0.000000e+00 -1.000000e+00
   outer loop
     vertex  2.586756e-01  7.850092e-01 -3.174603e-02
     vertex -4.609393e-01  7.202427e-01 -3.174603e-02
     vertex -4.341013e-01  7.538966e-01 -3.174603e-02
   endloop
 endfacet
 facet normal  0.000000e+00  0.000000e+00 -1.000000e+00
   outer loop
     vertex  2.586756e-01  7.850092e-01 -3.174603e-02
     vertex -5.525573e-01  4.382716e-01 -3.174603e-02
     vertex -5.352696e-01  5.658943e-01 -3.174603e-02
   endloop
 endfacet
 facet normal  0.000000e+00  0.000000e+00 -1.000000e+00
   outer loop
     vertex  2.586756e-01  7.850092e-01 -3.174603e-02
     vertex -5.352696e-01  5.658943e-01 -3.174603e-02
     vertex -5.050503e-01  6.464134e-01 -3.174603e-02
   endloop
 endfacet
 facet normal  0.000000e+00  0.000000e+00 -1.000000e+00
   outer loop
     vertex  2.586756e-01  7.850092e-01 -3.174603e-02
     vertex -5.050503e-01  6.464134e-01 -3.174603e-02
     vertex -4.609393e-01  7.202427e-01 -3.174603e-02
   endloop
 endfacet
 facet normal -0.000000e+00  0.000000e+00 -1.000000e+00
   outer loop
     vertex  2.586756e-01  7.850092e-01 -3.174603e-02
     vertex -4.341013e-01  7.538966e-01 -3.174603e-02
     vertex -3.001627e-01  8.607090e-01 -3.174603e-02
   endloop
 endfacet
 facet normal  0.000000e+00 -0.000000e+00 -1.000000e+00
   outer loop
     vertex  2.586756e-01  7.850092e-01 -3.174603e-02
     vertex  4.068784e-01  4.382716e-01 -3.174603e-02
     vertex -5.525573e-01  4.382716e-01 -3.174603e-02
   endloop
 endfacet
 facet normal  0.000000e+00  0.000000e+00 -1.000000e+00
   outer loop
     vertex  2.586756e-01  7.850092e-01 -3.174603e-02
     vertex  1.157017e-01  8.793855e-01 -3.174603e-02
     vertex  1.914356e-01  8.386313e-01 -3.174603e-02
   endloop
 endfacet
 facet normal  0.000000e+00  0.000000e+00 -1.000000e+00
   outer loop
     vertex  2.586756e-01  7.850092e-01 -3.174603e-02
     vertex -3.001627e-01  8.607090e-01 -3.174603e-02
     vertex -1.372335e-01  9.136479e-01 -3.174603e-02
   endloop
 endfacet
 facet normal  0.000000e+00  0.000000e+00 -1.000000e+00
   outer loop
     vertex  2.586756e-01  7.850092e-01 -3.174603e-02
     vertex -1.372335e-01  9.136479e-01 -3.174603e-02
     vertex  7.540150e-02  8.945104e-01 -3.174603e-02
   endloop
 endfacet
 facet normal  0.000000e+00  0.000000e+00 -1.000000e+00
   outer loop
     vertex  2.586756e-01  7.850092e-01 -3.174603e-02
     vertex  3.762891e-01  6.068324e-01 -3.174603e-02
     vertex  4.068784e-01  4.382716e-01 -3.174603e-02
   endloop
 endfacet
 facet normal  0.000000e+00  0.000000e+00 -1.000000e+00
   outer loop
     vertex  2.586756e-01  7.850092e-01 -3.174603e-02
     vertex  3.152604e-01  7.202427e-01 -3.174603e-02
     vertex  3.762891e-01  6.068324e-01 -3.174603e-02
   endloop
 endfacet
 facet normal -0.000000e+00 -1.000000e+00  0.000000e+00
   outer loop
     vertex  1.740741e-01  3.359788e-01  1.428572e-01
     vertex -3.000000e-01  3.359788e-01  1.428572e-01
     vertex -3.000000e-01  3.359788e-01  1.269842e-01
   endloop
 endfacet
 facet normal  0.000000e+00 -1.000000e+00 -0.000000e+00
   outer loop
     vertex  1.740741e-01  3.359788e-01  1.428572e-01
     vertex -3.000000e-01  3.359788e-01  1.269842e-01
     vertex  1.740741e-01  3.359788e-01  1.269842e-01
   endloop
 endfacet
 facet normal  1.000000e+00  0.000000e+00  0.000000e+00
   outer loop
     vertex  1.740741e-01  5.730159e-01  1.428572e-01
     vertex  1.740741e-01  3.359788e-01  1.428572e-01
     vertex  1.740741e-01  3.359788e-01  1.269842e-01
   endloop
 endfacet
 facet normal  1.000000e+00  0.000000e+00  0.000000e+00
   outer loop
     vertex  1.740741e-01  5.730159e-01  1.428572e-01
     vertex  1.740741e-01  3.359788e-01  1.269842e-01
     vertex  1.740741e-01  5.730159e-01  1.269842e-01
   endloop
 endfacet
 facet normal -0.000000e+00  1.000000e+00  0.000000e+00
   outer loop
     vertex -3.000000e-01  5.730159e-01  1.428572e-01
     vertex  1.740741e-01  5.730159e-01  1.428572e-01
     vertex  1.740741e-01  5.730159e-01  1.269842e-01
   endloop
 endfacet
 facet normal  0.000000e+00  1.000000e+00  0.000000e+00
   outer loop
     vertex -3.000000e-01  5.730159e-01  1.428572e-01
     vertex  1.740741e-01  5.730159e-01  1.269842e-01
     vertex -3.000000e-01  5.730159e-01  1.269842e-01
   endloop
 endfacet
 facet normal -1.000000e+00  0.000000e+00  0.000000e+00
   outer loop
     vertex -3.000000e-01  3.359788e-01  1.428572e-01
     vertex -3.000000e-01  5.730159e-01  1.428572e-01
     vertex -3.000000e-01  5.730159e-01  1.269842e-01
   endloop
 endfacet
 facet normal -1.000000e+00  0.000000e+00  0.000000e+00
   outer loop
     vertex -3.000000e-01  3.359788e-01  1.428572e-01
     vertex -3.000000e-01  5.730159e-01  1.269842e-01
     vertex -3.000000e-01  3.359788e-01  1.269842e-01
   endloop
 endfacet
 facet normal  1.000000e+00 -5.620504e-17  0.000000e+00
   outer loop
     vertex  4.068784e-01  4.382716e-01 -1.587302e-02
     vertex  4.068784e-01 -5.493827e-01 -1.587302e-02
     vertex  4.068784e-01 -5.493827e-01 -3.174603e-02
   endloop
 endfacet
 facet normal  1.000000e+00 -5.620504e-17  0.000000e+00
   outer loop
     vertex  4.068784e-01  4.382716e-01 -1.587302e-02
     vertex  4.068784e-01 -5.493827e-01 -3.174603e-02
     vertex  4.068784e-01  4.382716e-01 -3.174603e-02
   endloop
 endfacet
 facet normal  0.000000e+00 -1.000000e+00  0.000000e+00
   outer loop
     vertex  1.740741e-01  3.359788e-01  1.428572e-01
     vertex -3.000000e-01  3.359788e-01  4.761906e-01
     vertex -3.000000e-01  3.359788e-01  1.428572e-01
   endloop
 endfacet
 facet normal  0.000000e+00 -1.000000e+00  0.000000e+00
   outer loop
     vertex  1.740741e-01  3.359788e-01  1.428572e-01
     vertex  1.740741e-01  3.359788e-01  4.761906e-01
     vertex -3.000000e-01  3.359788e-01  4.761906e-01
   endloop
 endfacet
 facet normal  1.000000e+00  0.000000e+00  0.000000e+00
   outer loop
     vertex  1.740741e-01  5.730159e-01  1.428572e-01
     vertex  1.740741e-01  3.359788e-01  4.761906e-01
     vertex  1.740741e-01  3.359788e-01  1.428572e-01
   endloop
 endfacet
 facet normal  1.000000e+00  0.000000e+00 -0.000000e+00
   outer loop
     vertex  1.740741e-01  5.730159e-01  1.428572e-01
     vertex  1.740741e-01  5.730159e-01  4.761906e-01
     vertex  1.740741e-01  3.359788e-01  4.761906e-01
   endloop
 endfacet
 facet normal  0.000000e+00  1.000000e+00  0.000000e+00
   outer loop
     vertex -3.000000e-01  5.730159e-01  1.428572e-01
     vertex  1.740741e-01  5.730159e-01  4.761906e-01
     vertex  1.740741e-01  5.730159e-01  1.428572e-01
   endloop
 endfacet
 facet normal  0.000000e+00  1.000000e+00  0.000000e+00
   outer loop
     vertex -3.000000e-01  5.730159e-01  1.428572e-01
     vertex -3.000000e-01  5.730159e-01  4.761906e-01
     vertex  1.740741e-01  5.730159e-01  4.761906e-01
   endloop
 endfacet
 facet normal -1.000000e+00  0.000000e+00  0.000000e+00
   outer loop
     vertex -3.000000e-01  3.359788e-01  1.428572e-01
     vertex -3.000000e-01  5.730159e-01  4.761906e-01
     vertex -3.000000e-01  5.730159e-01  1.428572e-01
   endloop
 endfacet
 facet normal -1.000000e+00  0.000000e+00  0.000000e+00
   outer loop
     vertex -3.000000e-01  3.359788e-01  1.428572e-01
     vertex -3.000000e-01  3.359788e-01  4.761906e-01
     vertex -3.000000e-01  5.730159e-01  4.761906e-01
   endloop
 endfacet
 facet normal  0.000000e+00  0.000000e+00  1.000000e+00
   outer loop
     vertex  1.740741e-01  5.730159e-01  4.761906e-01
     vertex -3.000000e-01  3.359788e-01  4.761906e-01
     vertex  1.740741e-01  3.359788e-01  4.761906e-01
   endloop
 endfacet
 facet normal  0.000000e+00  0.000000e+00  1.000000e+00
   outer loop
     vertex  1.740741e-01  5.730159e-01  4.761906e-01
     vertex -3.000000e-01  5.730159e-01  4.761906e-01
     vertex -3.000000e-01  3.359788e-01  4.761906e-01
   endloop
 endfacet
endsolid
