solid 
 facet normal -0.000000e+00  0.000000e+00 -1.000000e+00
   outer loop
     vertex  1.839507e-01 -1.587302e-02 -3.126984e-01
     vertex -3.126984e-01 -1.015873e+00 -3.126984e-01
     vertex -3.126984e-01 -1.587302e-02 -3.126984e-01
   endloop
 endfacet
 facet normal  0.000000e+00 -0.000000e+00 -1.000000e+00
   outer loop
     vertex  1.839507e-01 -1.587302e-02 -3.126984e-01
     vertex  1.839507e-01 -1.015873e+00 -3.126984e-01
     vertex -3.126984e-01 -1.015873e+00 -3.126984e-01
   endloop
 endfacet
 facet normal -1.000000e+00  0.000000e+00  0.000000e+00
   outer loop
     vertex -3.126984e-01 -1.587302e-02 -3.126984e-01
     vertex -3.126984e-01 -1.015873e+00  1.839507e-01
     vertex -3.126984e-01 -1.587302e-02  1.839507e-01
   endloop
 endfacet
 facet normal -1.000000e+00  0.000000e+00  0.000000e+00
   outer loop
     vertex -3.126984e-01 -1.587302e-02 -3.126984e-01
     vertex -3.126984e-01 -1.015873e+00 -3.126984e-01
     vertex -3.126984e-01 -1.015873e+00  1.839507e-01
   endloop
 endfacet
 facet normal  1.000000e+00  0.000000e+00  0.000000e+00
   outer loop
     vertex  1.839507e-01 -1.587302e-02  1.839507e-01
     vertex  1.839507e-01 -1.015873e+00 -3.126984e-01
     vertex  1.839507e-01 -1.587302e-02 -3.126984e-01
   endloop
 endfacet
 facet normal  1.000000e+00  0.000000e+00  0.000000e+00
   outer loop
     vertex  1.839507e-01 -1.587302e-02  1.839507e-01
     vertex  1.839507e-01 -1.015873e+00  1.839507e-01
     vertex  1.839507e-01 -1.015873e+00 -3.126984e-01
   endloop
 endfacet
 facet normal  0.000000e+00  0.000000e+00 -1.000000e+00
   outer loop
     vertex  1.839507e-01 -1.587302e-02 -3.126984e-01
     vertex -3.126984e-01 -1.587302e-02 -3.126984e-01
     vertex -3.126984e-01  0.000000e+00 -3.126984e-01
   endloop
 endfacet
 facet normal  0.000000e+00  0.000000e+00 -1.000000e+00
   outer loop
     vertex  1.839507e-01 -1.587302e-02 -3.126984e-01
     vertex -3.126984e-01  0.000000e+00 -3.126984e-01
     vertex  1.839507e-01  0.000000e+00 -3.126984e-01
   endloop
 endfacet
 facet normal  0.000000e+00 -1.000000e+00 -0.000000e+00
   outer loop
     vertex  1.839507e-01 -1.015873e+00  1.839507e-01
     vertex -3.126984e-01 -1.015873e+00 -3.126984e-01
     vertex  1.839507e-01 -1.015873e+00 -3.126984e-01
   endloop
 endfacet
 facet normal -0.000000e+00 -1.000000e+00  0.000000e+00
   outer loop
     vertex  1.839507e-01 -1.015873e+00  1.839507e-01
     vertex -3.126984e-01 -1.015873e+00  1.839507e-01
     vertex -3.126984e-01 -1.015873e+00 -3.126984e-01
   endloop
 endfacet
 facet normal -0.000000e+00  0.000000e+00  1.000000e+00
   outer loop
     vertex -3.126984e-01 -1.587302e-02  1.839507e-01
     vertex  1.839507e-01 -1.015873e+00  1.839507e-01
     vertex  1.839507e-01 -1.587302e-02  1.839507e-01
   endloop
 endfacet
 facet normal  0.000000e+00  0.000000e+00  1.000000e+00
   outer loop
     vertex -3.126984e-01 -1.587302e-02  1.839507e-01
     vertex -3.126984e-01 -1.015873e+00  1.839507e-01
     vertex  1.839507e-01 -1.015873e+00  1.839507e-01
   endloop
 endfacet
 facet normal -1.000000e+00  0.000000e+00  0.000000e+00
   outer loop
     vertex -3.126984e-01 -1.587302e-02 -3.126984e-01
     vertex -3.126984e-01 -1.587302e-02  1.839507e-01
     vertex -3.126984e-01  0.000000e+00  1.839507e-01
   endloop
 endfacet
 facet normal -1.000000e+00  0.000000e+00  0.000000e+00
   outer loop
     vertex -3.126984e-01 -1.587302e-02 -3.126984e-01
     vertex -3.126984e-01  0.000000e+00  1.839507e-01
     vertex -3.126984e-01  0.000000e+00 -3.126984e-01
   endloop
 endfacet
 facet normal  1.000000e+00  0.000000e+00  0.000000e+00
   outer loop
     vertex  1.839507e-01 -1.587302e-02  1.839507e-01
     vertex  1.839507e-01 -1.587302e-02 -3.126984e-01
     vertex  1.839507e-01  0.000000e+00 -3.126984e-01
   endloop
 endfacet
 facet normal  1.000000e+00 -0.000000e+00  0.000000e+00
   outer loop
     vertex  1.839507e-01 -1.587302e-02  1.839507e-01
     vertex  1.839507e-01  0.000000e+00 -3.126984e-01
     vertex  1.839507e-01  0.000000e+00  1.839507e-01
   endloop
 endfacet
 facet normal  0.000000e+00  1.000000e+00  0.000000e+00
   outer loop
     vertex -6.402113e-02  0.000000e+00 -2.968254e-01
     vertex -3.126984e-01  0.000000e+00 -3.126984e-01
     vertex -2.968254e-01  0.000000e+00 -2.968254e-01
   endloop
 endfacet
 facet normal  0.000000e+00  1.000000e+00  0.000000e+00
   outer loop
     vertex -3.126984e-01  0.000000e+00  1.839507e-01
     vertex -2.968254e-01  0.000000e+00 -2.968254e-01
     vertex -3.126984e-01  0.000000e+00 -3.126984e-01
   endloop
 endfacet
 facet normal  0.000000e+00  1.000000e+00  0.000000e+00
   outer loop
     vertex  1.687831e-01  0.000000e+00 -2.968254e-01
     vertex  1.839507e-01  0.000000e+00 -3.126984e-01
     vertex -6.402113e-02  0.000000e+00 -2.968254e-01
   endloop
 endfacet
 facet normal  0.000000e+00  1.000000e+00  0.000000e+00
   outer loop
     vertex -2.968254e-01  0.000000e+00  1.687831e-01
     vertex -2.968254e-01  0.000000e+00 -2.968254e-01
     vertex -3.126984e-01  0.000000e+00  1.839507e-01
   endloop
 endfacet
 facet normal  0.000000e+00  1.000000e+00  0.000000e+00
   outer loop
     vertex -6.402113e-02  0.000000e+00  1.687831e-01
     vertex -2.968254e-01  0.000000e+00  1.687831e-01
     vertex -3.126984e-01  0.000000e+00  1.839507e-01
   endloop
 endfacet
 facet normal  0.000000e+00  1.000000e+00  0.000000e+00
   outer loop
     vertex  1.839507e-01  0.000000e+00  1.839507e-01
     vertex  1.687831e-01  0.000000e+00  1.687831e-01
     vertex -6.402113e-02  0.000000e+00  1.687831e-01
   endloop
 endfacet
 facet normal  0.000000e+00  1.000000e+00  0.000000e+00
   outer loop
     vertex  1.839507e-01  0.000000e+00  1.839507e-01
     vertex  1.687831e-01  0.000000e+00 -2.968254e-01
     vertex  1.687831e-01  0.000000e+00  1.687831e-01
   endloop
 endfacet
 facet normal  0.000000e+00  1.000000e+00  0.000000e+00
   outer loop
     vertex  1.839507e-01  0.000000e+00  1.839507e-01
     vertex  1.839507e-01  0.000000e+00 -3.126984e-01
     vertex  1.687831e-01  0.000000e+00 -2.968254e-01
   endloop
 endfacet
 facet normal  0.000000e+00  1.000000e+00  0.000000e+00
   outer loop
     vertex -3.126984e-01  0.000000e+00 -3.126984e-01
     vertex -6.402113e-02  0.000000e+00 -2.968254e-01
     vertex  1.839507e-01  0.000000e+00 -3.126984e-01
   endloop
 endfacet
 facet normal  0.000000e+00  1.000000e+00  0.000000e+00
   outer loop
     vertex  1.839507e-01  0.000000e+00  1.839507e-01
     vertex -6.402113e-02  0.000000e+00  1.687831e-01
     vertex -3.126984e-01  0.000000e+00  1.839507e-01
   endloop
 endfacet
 facet normal  0.000000e+00  0.000000e+00  1.000000e+00
   outer loop
     vertex -3.126984e-01 -1.587302e-02  1.839507e-01
     vertex  1.839507e-01 -1.587302e-02  1.839507e-01
     vertex  1.839507e-01  0.000000e+00  1.839507e-01
   endloop
 endfacet
 facet normal  0.000000e+00  0.000000e+00  1.000000e+00
   outer loop
     vertex -3.126984e-01 -1.587302e-02  1.839507e-01
     vertex  1.839507e-01  0.000000e+00  1.839507e-01
     vertex -3.126984e-01  0.000000e+00  1.839507e-01
   endloop
 endfacet
 facet normal  0.000000e+00  0.000000e+00  1.000000e+00
   outer loop
     vertex -6.402113e-02 -1.587302e-02 -2.968254e-01
     vertex -2.968254e-01  0.000000e+00 -2.968254e-01
     vertex -2.968254e-01 -1.587302e-02 -2.968254e-01
   endloop
 endfacet
 facet normal  0.000000e+00 -0.000000e+00  1.000000e+00
   outer loop
     vertex -6.402113e-02 -1.587302e-02 -2.968254e-01
     vertex -6.402113e-02  0.000000e+00 -2.968254e-01
     vertex -2.968254e-01  0.000000e+00 -2.968254e-01
   endloop
 endfacet
 facet normal  0.000000e+00  0.000000e+00  1.000000e+00
   outer loop
     vertex  1.687831e-01 -1.587302e-02 -2.968254e-01
     vertex -6.402113e-02  0.000000e+00 -2.968254e-01
     vertex -6.402113e-02 -1.587302e-02 -2.968254e-01
   endloop
 endfacet
 facet normal  0.000000e+00 -0.000000e+00  1.000000e+00
   outer loop
     vertex  1.687831e-01 -1.587302e-02 -2.968254e-01
     vertex  1.687831e-01  0.000000e+00 -2.968254e-01
     vertex -6.402113e-02  0.000000e+00 -2.968254e-01
   endloop
 endfacet
 facet normal -1.000000e+00  0.000000e+00  0.000000e+00
   outer loop
     vertex  1.687831e-01 -1.587302e-02  1.687831e-01
     vertex  1.687831e-01  0.000000e+00 -2.968254e-01
     vertex  1.687831e-01 -1.587302e-02 -2.968254e-01
   endloop
 endfacet
 facet normal -1.000000e+00  0.000000e+00  0.000000e+00
   outer loop
     vertex  1.687831e-01 -1.587302e-02  1.687831e-01
     vertex  1.687831e-01  0.000000e+00  1.687831e-01
     vertex  1.687831e-01  0.000000e+00 -2.968254e-01
   endloop
 endfacet
 facet normal  1.192228e-16  0.000000e+00 -1.000000e+00
   outer loop
     vertex -6.402113e-02 -1.587302e-02  1.687831e-01
     vertex  1.687831e-01  0.000000e+00  1.687831e-01
     vertex  1.687831e-01 -1.587302e-02  1.687831e-01
   endloop
 endfacet
 facet normal  1.192228e-16  0.000000e+00 -1.000000e+00
   outer loop
     vertex -6.402113e-02 -1.587302e-02  1.687831e-01
     vertex -6.402113e-02  0.000000e+00  1.687831e-01
     vertex  1.687831e-01  0.000000e+00  1.687831e-01
   endloop
 endfacet
 facet normal -1.192228e-16  0.000000e+00 -1.000000e+00
   outer loop
     vertex -2.968254e-01 -1.587302e-02  1.687831e-01
     vertex -6.402113e-02  0.000000e+00  1.687831e-01
     vertex -6.402113e-02 -1.587302e-02  1.687831e-01
   endloop
 endfacet
 facet normal -1.192228e-16  0.000000e+00 -1.000000e+00
   outer loop
     vertex -2.968254e-01 -1.587302e-02  1.687831e-01
     vertex -2.968254e-01  0.000000e+00  1.687831e-01
     vertex -6.402113e-02  0.000000e+00  1.687831e-01
   endloop
 endfacet
 facet normal  1.000000e+00  0.000000e+00  0.000000e+00
   outer loop
     vertex -2.968254e-01 -1.587302e-02 -2.968254e-01
     vertex -2.968254e-01  0.000000e+00  1.687831e-01
     vertex -2.968254e-01 -1.587302e-02  1.687831e-01
   endloop
 endfacet
 facet normal  1.000000e+00  0.000000e+00  0.000000e+00
   outer loop
     vertex -2.968254e-01 -1.587302e-02 -2.968254e-01
     vertex -2.968254e-01  0.000000e+00 -2.968254e-01
     vertex -2.968254e-01  0.000000e+00  1.687831e-01
   endloop
 endfacet
 facet normal  0.000000e+00  0.000000e+00  1.000000e+00
   outer loop
     vertex -6.402113e-02 -1.587302e-02 -2.968254e-01
     vertex -2.968254e-01 -1.587302e-02 -2.968254e-01
     vertex -2.968254e-01 -5.714286e-01 -2.968254e-01
   endloop
 endfacet
 facet normal  0.000000e+00  0.000000e+00  1.000000e+00
   outer loop
     vertex -6.402113e-02 -1.587302e-02 -2.968254e-01
     vertex -2.968254e-01 -5.714286e-01 -2.968254e-01
     vertex -6.402113e-02 -5.714286e-01 -2.968254e-01
   endloop
 endfacet
 facet normal  0.000000e+00  0.000000e+00  1.000000e+00
   outer loop
     vertex  1.687831e-01 -1.587302e-02 -2.968254e-01
     vertex -6.402113e-02 -1.587302e-02 -2.968254e-01
     vertex -6.402113e-02 -5.714286e-01 -2.968254e-01
   endloop
 endfacet
 facet normal  0.000000e+00  0.000000e+00  1.000000e+00
   outer loop
     vertex  1.687831e-01 -1.587302e-02 -2.968254e-01
     vertex -6.402113e-02 -5.714286e-01 -2.968254e-01
     vertex  1.687831e-01 -5.714286e-01 -2.968254e-01
   endloop
 endfacet
 facet normal -1.000000e+00  0.000000e+00 -0.000000e+00
   outer loop
     vertex  1.687831e-01 -1.587302e-02  1.687831e-01
     vertex  1.687831e-01 -1.587302e-02 -2.968254e-01
     vertex  1.687831e-01 -5.714286e-01 -2.968254e-01
   endloop
 endfacet
 facet normal -1.000000e+00 -0.000000e+00  0.000000e+00
   outer loop
     vertex  1.687831e-01 -1.587302e-02  1.687831e-01
     vertex  1.687831e-01 -5.714286e-01 -2.968254e-01
     vertex  1.687831e-01 -5.714286e-01  1.687831e-01
   endloop
 endfacet
 facet normal  1.192228e-16  0.000000e+00 -1.000000e+00
   outer loop
     vertex -6.402113e-02 -1.587302e-02  1.687831e-01
     vertex  1.687831e-01 -1.587302e-02  1.687831e-01
     vertex  1.687831e-01 -5.714286e-01  1.687831e-01
   endloop
 endfacet
 facet normal  1.192228e-16  0.000000e+00 -1.000000e+00
   outer loop
     vertex -6.402113e-02 -1.587302e-02  1.687831e-01
     vertex  1.687831e-01 -5.714286e-01  1.687831e-01
     vertex -6.402113e-02 -5.714286e-01  1.687831e-01
   endloop
 endfacet
 facet normal -1.192228e-16  0.000000e+00 -1.000000e+00
   outer loop
     vertex -2.968254e-01 -1.587302e-02  1.687831e-01
     vertex -6.402113e-02 -1.587302e-02  1.687831e-01
     vertex -6.402113e-02 -5.714286e-01  1.687831e-01
   endloop
 endfacet
 facet normal -1.192228e-16 -0.000000e+00 -1.000000e+00
   outer loop
     vertex -2.968254e-01 -1.587302e-02  1.687831e-01
     vertex -6.402113e-02 -5.714286e-01  1.687831e-01
     vertex -2.968254e-01 -5.714286e-01  1.687831e-01
   endloop
 endfacet
 facet normal  1.000000e+00  0.000000e+00 -0.000000e+00
   outer loop
     vertex -2.968254e-01 -1.587302e-02 -2.968254e-01
     vertex -2.968254e-01 -1.587302e-02  1.687831e-01
     vertex -2.968254e-01 -5.714286e-01  1.687831e-01
   endloop
 endfacet
 facet normal  1.000000e+00  0.000000e+00  0.000000e+00
   outer loop
     vertex -2.968254e-01 -1.587302e-02 -2.968254e-01
     vertex -2.968254e-01 -5.714286e-01  1.687831e-01
     vertex -2.968254e-01 -5.714286e-01 -2.968254e-01
   endloop
 endfacet
 facet normal  0.000000e+00  1.000000e+00  0.000000e+00
   outer loop
     vertex -6.402113e-02 -5.714286e-01  1.687831e-01
     vertex -6.402113e-02 -5.714286e-01 -2.968254e-01
     vertex -2.968254e-01 -5.714286e-01 -2.968254e-01
   endloop
 endfacet
 facet normal  0.000000e+00  1.000000e+00  0.000000e+00
   outer loop
     vertex -6.402113e-02 -5.714286e-01  1.687831e-01
     vertex -2.968254e-01 -5.714286e-01 -2.968254e-01
     vertex -2.968254e-01 -5.714286e-01  1.687831e-01
   endloop
 endfacet
 facet normal  0.000000e+00  1.000000e+00  0.000000e+00
   outer loop
     vertex  1.687831e-01 -5.714286e-01  1.687831e-01
     vertex  1.687831e-01 -5.714286e-01 -2.968254e-01
     vertex -6.402113e-02 -5.714286e-01 -2.968254e-01
   endloop
 endfacet
 facet normal  0.000000e+00  1.000000e+00  0.000000e+00
   outer loop
     vertex  1.687831e-01 -5.714286e-01  1.687831e-01
     vertex -6.402113e-02 -5.714286e-01 -2.968254e-01
     vertex -6.402113e-02 -5.714286e-01  1.687831e-01
   endloop
 endfacet
endsolid
