solid 
 facet normal -1.000000e+00  0.000000e+00  0.000000e+00
   outer loop
     vertex -2.028227e-02 -7.283944e-02 -1.587302e-02
     vertex -2.028227e-02 -5.666667e-01 -1.587302e-02
     vertex -2.028227e-02 -5.666667e-01  9.841270e-01
   endloop
 endfacet
 facet normal -1.000000e+00  0.000000e+00  0.000000e+00
   outer loop
     vertex -2.028227e-02 -7.283944e-02 -1.587302e-02
     vertex -2.028227e-02 -5.666667e-01  9.841270e-01
     vertex -2.028227e-02 -7.283944e-02  9.841270e-01
   endloop
 endfacet
 facet normal  0.000000e+00 -1.000000e+00  0.000000e+00
   outer loop
     vertex -2.028227e-02 -5.666667e-01 -1.587302e-02
     vertex  2.089947e-01 -5.666667e-01 -1.587302e-02
     vertex  2.089947e-01 -5.666667e-01  9.841270e-01
   endloop
 endfacet
 facet normal  0.000000e+00 -1.000000e+00  0.000000e+00
   outer loop
     vertex -2.028227e-02 -5.666667e-01 -1.587302e-02
     vertex  2.089947e-01 -5.666667e-01  9.841270e-01
     vertex -2.028227e-02 -5.666667e-01  9.841270e-01
   endloop
 endfacet
 facet normal  0.000000e+00  1.000000e+00  0.000000e+00
   outer loop
     vertex  6.851851e-01 -7.283944e-02 -1.587302e-02
     vertex -2.028227e-02 -7.283944e-02 -1.587302e-02
     vertex -2.028227e-02 -7.283944e-02  9.841270e-01
   endloop
 endfacet
 facet normal  0.000000e+00  1.000000e+00 -0.000000e+00
   outer loop
     vertex  6.851851e-01 -7.283944e-02 -1.587302e-02
     vertex -2.028227e-02 -7.283944e-02  9.841270e-01
     vertex  6.851851e-01 -7.283944e-02  9.841270e-01
   endloop
 endfacet
 facet normal -1.000000e+00 -0.000000e+00  0.000000e+00
   outer loop
     vertex -2.028227e-02 -7.283944e-02 -1.587302e-02
     vertex -2.028227e-02 -5.666667e-01 -3.174603e-02
     vertex -2.028227e-02 -5.666667e-01 -1.587302e-02
   endloop
 endfacet
 facet normal -1.000000e+00  0.000000e+00 -0.000000e+00
   outer loop
     vertex -2.028227e-02 -7.283944e-02 -1.587302e-02
     vertex -2.028227e-02 -7.283944e-02 -3.174603e-02
     vertex -2.028227e-02 -5.666667e-01 -3.174603e-02
   endloop
 endfacet
 facet normal  0.000000e+00  0.000000e+00  1.000000e+00
   outer loop
     vertex  4.559083e-01 -5.666667e-01  9.841270e-01
     vertex  2.089947e-01 -5.666667e-01  9.841270e-01
     vertex  2.089947e-01 -9.194004e-01  9.841270e-01
   endloop
 endfacet
 facet normal  0.000000e+00  0.000000e+00  1.000000e+00
   outer loop
     vertex  4.559083e-01 -5.666667e-01  9.841270e-01
     vertex  2.089947e-01 -9.194004e-01  9.841270e-01
     vertex  4.559083e-01 -9.194004e-01  9.841270e-01
   endloop
 endfacet
 facet normal  0.000000e+00  0.000000e+00  1.000000e+00
   outer loop
     vertex -2.028227e-02 -7.283944e-02  9.841270e-01
     vertex -2.028227e-02 -5.666667e-01  9.841270e-01
     vertex  2.089947e-01 -5.666667e-01  9.841270e-01
   endloop
 endfacet
 facet normal  0.000000e+00  0.000000e+00  1.000000e+00
   outer loop
     vertex  6.851851e-01 -7.283944e-02  9.841270e-01
     vertex  4.559083e-01 -5.666667e-01  9.841270e-01
     vertex  6.851851e-01 -5.666667e-01  9.841270e-01
   endloop
 endfacet
 facet normal  0.000000e+00  0.000000e+00  1.000000e+00
   outer loop
     vertex  6.851851e-01 -7.283944e-02  9.841270e-01
     vertex -2.028227e-02 -7.283944e-02  9.841270e-01
     vertex  2.089947e-01 -5.666667e-01  9.841270e-01
   endloop
 endfacet
 facet normal  0.000000e+00  0.000000e+00  1.000000e+00
   outer loop
     vertex  6.851851e-01 -7.283944e-02  9.841270e-01
     vertex  2.089947e-01 -5.666667e-01  9.841270e-01
     vertex  4.559083e-01 -5.666667e-01  9.841270e-01
   endloop
 endfacet
 facet normal -1.000000e+00  0.000000e+00  0.000000e+00
   outer loop
     vertex  2.089947e-01 -5.666667e-01 -1.587302e-02
     vertex  2.089947e-01 -9.194004e-01 -1.587302e-02
     vertex  2.089947e-01 -9.194004e-01  9.841270e-01
   endloop
 endfacet
 facet normal -1.000000e+00  0.000000e+00  0.000000e+00
   outer loop
     vertex  2.089947e-01 -5.666667e-01 -1.587302e-02
     vertex  2.089947e-01 -9.194004e-01  9.841270e-01
     vertex  2.089947e-01 -5.666667e-01  9.841270e-01
   endloop
 endfacet
 facet normal  0.000000e+00 -1.000000e+00  0.000000e+00
   outer loop
     vertex -2.028227e-02 -5.666667e-01 -1.587302e-02
     vertex  2.089947e-01 -5.666667e-01 -3.174603e-02
     vertex  2.089947e-01 -5.666667e-01 -1.587302e-02
   endloop
 endfacet
 facet normal  0.000000e+00 -1.000000e+00  0.000000e+00
   outer loop
     vertex -2.028227e-02 -5.666667e-01 -1.587302e-02
     vertex -2.028227e-02 -5.666667e-01 -3.174603e-02
     vertex  2.089947e-01 -5.666667e-01 -3.174603e-02
   endloop
 endfacet
 facet normal  1.000000e+00  0.000000e+00  0.000000e+00
   outer loop
     vertex  6.851851e-01 -5.666667e-01 -1.587302e-02
     vertex  6.851851e-01 -7.283944e-02 -1.587302e-02
     vertex  6.851851e-01 -7.283944e-02  9.841270e-01
   endloop
 endfacet
 facet normal  1.000000e+00  0.000000e+00  0.000000e+00
   outer loop
     vertex  6.851851e-01 -5.666667e-01 -1.587302e-02
     vertex  6.851851e-01 -7.283944e-02  9.841270e-01
     vertex  6.851851e-01 -5.666667e-01  9.841270e-01
   endloop
 endfacet
 facet normal  0.000000e+00  1.000000e+00  0.000000e+00
   outer loop
     vertex  6.851851e-01 -7.283944e-02 -1.587302e-02
     vertex -2.028227e-02 -7.283944e-02 -3.174603e-02
     vertex -2.028227e-02 -7.283944e-02 -1.587302e-02
   endloop
 endfacet
 facet normal  0.000000e+00  1.000000e+00  0.000000e+00
   outer loop
     vertex  6.851851e-01 -7.283944e-02 -1.587302e-02
     vertex  6.851851e-01 -7.283944e-02 -3.174603e-02
     vertex -2.028227e-02 -7.283944e-02 -3.174603e-02
   endloop
 endfacet
 facet normal -0.000000e+00  0.000000e+00 -1.000000e+00
   outer loop
     vertex  4.559083e-01 -5.666667e-01 -3.174603e-02
     vertex  2.089947e-01 -9.194004e-01 -3.174603e-02
     vertex  2.089947e-01 -5.666667e-01 -3.174603e-02
   endloop
 endfacet
 facet normal  0.000000e+00 -0.000000e+00 -1.000000e+00
   outer loop
     vertex  4.559083e-01 -5.666667e-01 -3.174603e-02
     vertex  4.559083e-01 -9.194004e-01 -3.174603e-02
     vertex  2.089947e-01 -9.194004e-01 -3.174603e-02
   endloop
 endfacet
 facet normal  0.000000e+00  0.000000e+00 -1.000000e+00
   outer loop
     vertex -2.028227e-02 -7.283944e-02 -3.174603e-02
     vertex  2.089947e-01 -5.666667e-01 -3.174603e-02
     vertex -2.028227e-02 -5.666667e-01 -3.174603e-02
   endloop
 endfacet
 facet normal  0.000000e+00 -0.000000e+00 -1.000000e+00
   outer loop
     vertex  6.851851e-01 -7.283944e-02 -3.174603e-02
     vertex  6.851851e-01 -5.666667e-01 -3.174603e-02
     vertex  4.559083e-01 -5.666667e-01 -3.174603e-02
   endloop
 endfacet
 facet normal -0.000000e+00  0.000000e+00 -1.000000e+00
   outer loop
     vertex  6.851851e-01 -7.283944e-02 -3.174603e-02
     vertex  2.089947e-01 -5.666667e-01 -3.174603e-02
     vertex -2.028227e-02 -7.283944e-02 -3.174603e-02
   endloop
 endfacet
 facet normal  0.000000e+00  0.000000e+00 -1.000000e+00
   outer loop
     vertex  6.851851e-01 -7.283944e-02 -3.174603e-02
     vertex  4.559083e-01 -5.666667e-01 -3.174603e-02
     vertex  2.089947e-01 -5.666667e-01 -3.174603e-02
   endloop
 endfacet
 facet normal  0.000000e+00 -1.000000e+00  0.000000e+00
   outer loop
     vertex  4.559083e-01 -5.666667e-01 -1.587302e-02
     vertex  6.851851e-01 -5.666667e-01 -1.587302e-02
     vertex  6.851851e-01 -5.666667e-01  9.841270e-01
   endloop
 endfacet
 facet normal  0.000000e+00 -1.000000e+00  0.000000e+00
   outer loop
     vertex  4.559083e-01 -5.666667e-01 -1.587302e-02
     vertex  6.851851e-01 -5.666667e-01  9.841270e-01
     vertex  4.559083e-01 -5.666667e-01  9.841270e-01
   endloop
 endfacet
 facet normal  1.000000e+00  0.000000e+00  0.000000e+00
   outer loop
     vertex  4.559083e-01 -9.194004e-01 -1.587302e-02
     vertex  4.559083e-01 -5.666667e-01 -1.587302e-02
     vertex  4.559083e-01 -5.666667e-01  9.841270e-01
   endloop
 endfacet
 facet normal  1.000000e+00  0.000000e+00  0.000000e+00
   outer loop
     vertex  4.559083e-01 -9.194004e-01 -1.587302e-02
     vertex  4.559083e-01 -5.666667e-01  9.841270e-01
     vertex  4.559083e-01 -9.194004e-01  9.841270e-01
   endloop
 endfacet
 facet normal  0.000000e+00 -1.000000e+00  0.000000e+00
   outer loop
     vertex  2.089947e-01 -9.194004e-01 -1.587302e-02
     vertex  4.559083e-01 -9.194004e-01 -1.587302e-02
     vertex  4.559083e-01 -9.194004e-01  9.841270e-01
   endloop
 endfacet
 facet normal  0.000000e+00 -1.000000e+00  0.000000e+00
   outer loop
     vertex  2.089947e-01 -9.194004e-01 -1.587302e-02
     vertex  4.559083e-01 -9.194004e-01  9.841270e-01
     vertex  2.089947e-01 -9.194004e-01  9.841270e-01
   endloop
 endfacet
 facet normal -1.000000e+00 -0.000000e+00  0.000000e+00
   outer loop
     vertex  2.089947e-01 -5.666667e-01 -1.587302e-02
     vertex  2.089947e-01 -9.194004e-01 -3.174603e-02
     vertex  2.089947e-01 -9.194004e-01 -1.587302e-02
   endloop
 endfacet
 facet normal -1.000000e+00  0.000000e+00 -0.000000e+00
   outer loop
     vertex  2.089947e-01 -5.666667e-01 -1.587302e-02
     vertex  2.089947e-01 -5.666667e-01 -3.174603e-02
     vertex  2.089947e-01 -9.194004e-01 -3.174603e-02
   endloop
 endfacet
 facet normal  1.000000e+00 -0.000000e+00  0.000000e+00
   outer loop
     vertex  6.851851e-01 -5.666667e-01 -1.587302e-02
     vertex  6.851851e-01 -7.283944e-02 -3.174603e-02
     vertex  6.851851e-01 -7.283944e-02 -1.587302e-02
   endloop
 endfacet
 facet normal  1.000000e+00  0.000000e+00  0.000000e+00
   outer loop
     vertex  6.851851e-01 -5.666667e-01 -1.587302e-02
     vertex  6.851851e-01 -5.666667e-01 -3.174603e-02
     vertex  6.851851e-01 -7.283944e-02 -3.174603e-02
   endloop
 endfacet
 facet normal  0.000000e+00 -1.000000e+00  0.000000e+00
   outer loop
     vertex  4.559083e-01 -5.666667e-01 -1.587302e-02
     vertex  6.851851e-01 -5.666667e-01 -3.174603e-02
     vertex  6.851851e-01 -5.666667e-01 -1.587302e-02
   endloop
 endfacet
 facet normal  0.000000e+00 -1.000000e+00  0.000000e+00
   outer loop
     vertex  4.559083e-01 -5.666667e-01 -1.587302e-02
     vertex  4.559083e-01 -5.666667e-01 -3.174603e-02
     vertex  6.851851e-01 -5.666667e-01 -3.174603e-02
   endloop
 endfacet
 facet normal  1.000000e+00 -0.000000e+00  0.000000e+00
   outer loop
     vertex  4.559083e-01 -9.194004e-01 -1.587302e-02
     vertex  4.559083e-01 -5.666667e-01 -3.174603e-02
     vertex  4.559083e-01 -5.666667e-01 -1.587302e-02
   endloop
 endfacet
 facet normal  1.000000e+00  0.000000e+00  0.000000e+00
   outer loop
     vertex  4.559083e-01 -9.194004e-01 -1.587302e-02
     vertex  4.559083e-01 -9.194004e-01 -3.174603e-02
     vertex  4.559083e-01 -5.666667e-01 -3.174603e-02
   endloop
 endfacet
 facet normal  0.000000e+00 -1.000000e+00  0.000000e+00
   outer loop
     vertex  2.089947e-01 -9.194004e-01 -1.587302e-02
     vertex  4.559083e-01 -9.194004e-01 -3.174603e-02
     vertex  4.559083e-01 -9.194004e-01 -1.587302e-02
   endloop
 endfacet
 facet normal  0.000000e+00 -1.000000e+00  0.000000e+00
   outer loop
     vertex  2.089947e-01 -9.194004e-01 -1.587302e-02
     vertex  2.089947e-01 -9.194004e-01 -3.174603e-02
     vertex  4.559083e-01 -9.194004e-01 -3.174603e-02
   endloop
 endfacet
endsolid
