solid 
 facet normal  9.965845e-01  0.000000e+00  8.257935e-02
   outer loop
     vertex  7.587273e-02  0.000000e+00 -3.891374e-02
     vertex  7.777781e-02  0.000000e+00 -6.190473e-02
     vertex  7.777781e-02  9.841270e-01 -6.190473e-02
   endloop
 endfacet
 facet normal  9.965845e-01 -0.000000e+00  8.257935e-02
   outer loop
     vertex  7.587273e-02  0.000000e+00 -3.891374e-02
     vertex  7.777781e-02  9.841270e-01 -6.190473e-02
     vertex  7.587273e-02  9.841270e-01 -3.891374e-02
   endloop
 endfacet
 facet normal  9.694003e-01 -0.000000e+00  2.454855e-01
   outer loop
     vertex  7.020943e-02  0.000000e+00 -1.654988e-02
     vertex  7.587273e-02  9.841270e-01 -3.891374e-02
     vertex  7.020943e-02  9.841270e-01 -1.654988e-02
   endloop
 endfacet
 facet normal  9.694003e-01  0.000000e+00  2.454855e-01
   outer loop
     vertex  7.020943e-02  0.000000e+00 -1.654988e-02
     vertex  7.587273e-02  0.000000e+00 -3.891374e-02
     vertex  7.587273e-02  9.841270e-01 -3.891374e-02
   endloop
 endfacet
 facet normal  9.157733e-01 -0.000000e+00  4.016954e-01
   outer loop
     vertex  6.094240e-02  0.000000e+00  4.576814e-03
     vertex  7.020943e-02  9.841270e-01 -1.654988e-02
     vertex  6.094240e-02  9.841270e-01  4.576814e-03
   endloop
 endfacet
 facet normal  9.157733e-01  0.000000e+00  4.016954e-01
   outer loop
     vertex  6.094240e-02  0.000000e+00  4.576814e-03
     vertex  7.020943e-02  0.000000e+00 -1.654988e-02
     vertex  7.020943e-02  9.841270e-01 -1.654988e-02
   endloop
 endfacet
 facet normal  8.371665e-01 -0.000000e+00  5.469482e-01
   outer loop
     vertex  4.832442e-02  0.000000e+00  2.389007e-02
     vertex  6.094240e-02  9.841270e-01  4.576814e-03
     vertex  4.832442e-02  9.841270e-01  2.389007e-02
   endloop
 endfacet
 facet normal  8.371665e-01  0.000000e+00  5.469482e-01
   outer loop
     vertex  4.832442e-02  0.000000e+00  2.389007e-02
     vertex  6.094240e-02  0.000000e+00  4.576814e-03
     vertex  6.094240e-02  9.841270e-01  4.576814e-03
   endloop
 endfacet
 facet normal  7.357239e-01  0.000000e+00  6.772816e-01
   outer loop
     vertex  3.269968e-02  0.000000e+00  4.086306e-02
     vertex  4.832442e-02  0.000000e+00  2.389007e-02
     vertex  4.832442e-02  9.841270e-01  2.389007e-02
   endloop
 endfacet
 facet normal  7.357239e-01 -0.000000e+00  6.772816e-01
   outer loop
     vertex  3.269968e-02  0.000000e+00  4.086306e-02
     vertex  4.832442e-02  9.841270e-01  2.389007e-02
     vertex  3.269968e-02  9.841270e-01  4.086306e-02
   endloop
 endfacet
 facet normal  6.142127e-01 -0.000000e+00  7.891405e-01
   outer loop
     vertex  3.269968e-02  0.000000e+00  4.086306e-02
     vertex  3.269968e-02  9.841270e-01  4.086306e-02
     vertex  1.449438e-02  9.841270e-01  5.503281e-02
   endloop
 endfacet
 facet normal  6.142127e-01 -0.000000e+00  7.891405e-01
   outer loop
     vertex  1.449438e-02  0.000000e+00  5.503281e-02
     vertex  3.269968e-02  0.000000e+00  4.086306e-02
     vertex  1.449438e-02  9.841270e-01  5.503281e-02
   endloop
 endfacet
 facet normal  4.759474e-01  0.000000e+00  8.794738e-01
   outer loop
     vertex -5.794890e-03  0.000000e+00  6.601282e-02
     vertex  1.449438e-02  0.000000e+00  5.503281e-02
     vertex  1.449438e-02  9.841270e-01  5.503281e-02
   endloop
 endfacet
 facet normal  4.759474e-01 -0.000000e+00  8.794738e-01
   outer loop
     vertex -5.794890e-03  0.000000e+00  6.601282e-02
     vertex  1.449438e-02  9.841270e-01  5.503281e-02
     vertex -5.794890e-03  9.841270e-01  6.601282e-02
   endloop
 endfacet
 facet normal  3.246995e-01  0.000000e+00  9.458172e-01
   outer loop
     vertex -2.761469e-02  0.000000e+00  7.350357e-02
     vertex -5.794890e-03  0.000000e+00  6.601282e-02
     vertex -5.794890e-03  9.841270e-01  6.601282e-02
   endloop
 endfacet
 facet normal  3.246995e-01 -0.000000e+00  9.458172e-01
   outer loop
     vertex -2.761469e-02  0.000000e+00  7.350357e-02
     vertex -5.794890e-03  9.841270e-01  6.601282e-02
     vertex -2.761469e-02  9.841270e-01  7.350357e-02
   endloop
 endfacet
 facet normal  1.645946e-01  0.000000e+00  9.863613e-01
   outer loop
     vertex -5.036984e-02  0.000000e+00  7.730073e-02
     vertex -2.761469e-02  0.000000e+00  7.350357e-02
     vertex -2.761469e-02  9.841270e-01  7.350357e-02
   endloop
 endfacet
 facet normal  1.645946e-01 -0.000000e+00  9.863613e-01
   outer loop
     vertex -5.036984e-02  0.000000e+00  7.730073e-02
     vertex -2.761469e-02  9.841270e-01  7.350357e-02
     vertex -5.036984e-02  9.841270e-01  7.730073e-02
   endloop
 endfacet
 facet normal  0.000000e+00 -0.000000e+00  1.000000e+00
   outer loop
     vertex -5.036984e-02  0.000000e+00  7.730073e-02
     vertex -5.036984e-02  9.841270e-01  7.730073e-02
     vertex -7.343962e-02  9.841270e-01  7.730073e-02
   endloop
 endfacet
 facet normal  0.000000e+00  0.000000e+00  1.000000e+00
   outer loop
     vertex -7.343962e-02  0.000000e+00  7.730073e-02
     vertex -5.036984e-02  0.000000e+00  7.730073e-02
     vertex -7.343962e-02  9.841270e-01  7.730073e-02
   endloop
 endfacet
 facet normal -1.645946e-01  0.000000e+00  9.863613e-01
   outer loop
     vertex -9.619477e-02  0.000000e+00  7.350357e-02
     vertex -7.343962e-02  0.000000e+00  7.730073e-02
     vertex -7.343962e-02  9.841270e-01  7.730073e-02
   endloop
 endfacet
 facet normal -1.645946e-01  0.000000e+00  9.863613e-01
   outer loop
     vertex -9.619477e-02  0.000000e+00  7.350357e-02
     vertex -7.343962e-02  9.841270e-01  7.730073e-02
     vertex -9.619477e-02  9.841270e-01  7.350357e-02
   endloop
 endfacet
 facet normal -3.246995e-01  0.000000e+00  9.458172e-01
   outer loop
     vertex -9.619477e-02  0.000000e+00  7.350357e-02
     vertex -9.619477e-02  9.841270e-01  7.350357e-02
     vertex -1.180146e-01  9.841270e-01  6.601282e-02
   endloop
 endfacet
 facet normal -3.246995e-01  0.000000e+00  9.458172e-01
   outer loop
     vertex -1.180146e-01  0.000000e+00  6.601282e-02
     vertex -9.619477e-02  0.000000e+00  7.350357e-02
     vertex -1.180146e-01  9.841270e-01  6.601282e-02
   endloop
 endfacet
 facet normal -4.759474e-01  0.000000e+00  8.794738e-01
   outer loop
     vertex -1.383038e-01  0.000000e+00  5.503281e-02
     vertex -1.180146e-01  0.000000e+00  6.601282e-02
     vertex -1.180146e-01  9.841270e-01  6.601282e-02
   endloop
 endfacet
 facet normal -4.759474e-01  0.000000e+00  8.794738e-01
   outer loop
     vertex -1.383038e-01  0.000000e+00  5.503281e-02
     vertex -1.180146e-01  9.841270e-01  6.601282e-02
     vertex -1.383038e-01  9.841270e-01  5.503281e-02
   endloop
 endfacet
 facet normal -6.142127e-01  0.000000e+00  7.891405e-01
   outer loop
     vertex -1.383038e-01  0.000000e+00  5.503281e-02
     vertex -1.383038e-01  9.841270e-01  5.503281e-02
     vertex -1.565091e-01  9.841270e-01  4.086306e-02
   endloop
 endfacet
 facet normal -6.142127e-01  0.000000e+00  7.891405e-01
   outer loop
     vertex -1.565091e-01  0.000000e+00  4.086306e-02
     vertex -1.383038e-01  0.000000e+00  5.503281e-02
     vertex -1.565091e-01  9.841270e-01  4.086306e-02
   endloop
 endfacet
 facet normal -7.357239e-01  0.000000e+00  6.772816e-01
   outer loop
     vertex -1.565091e-01  0.000000e+00  4.086306e-02
     vertex -1.565091e-01  9.841270e-01  4.086306e-02
     vertex -1.721339e-01  9.841270e-01  2.389007e-02
   endloop
 endfacet
 facet normal -7.357239e-01  0.000000e+00  6.772816e-01
   outer loop
     vertex -1.721339e-01  0.000000e+00  2.389007e-02
     vertex -1.565091e-01  0.000000e+00  4.086306e-02
     vertex -1.721339e-01  9.841270e-01  2.389007e-02
   endloop
 endfacet
 facet normal -8.371665e-01  0.000000e+00  5.469482e-01
   outer loop
     vertex -1.847519e-01  0.000000e+00  4.576814e-03
     vertex -1.721339e-01  0.000000e+00  2.389007e-02
     vertex -1.721339e-01  9.841270e-01  2.389007e-02
   endloop
 endfacet
 facet normal -8.371665e-01  0.000000e+00  5.469482e-01
   outer loop
     vertex -1.847519e-01  0.000000e+00  4.576814e-03
     vertex -1.721339e-01  9.841270e-01  2.389007e-02
     vertex -1.847519e-01  9.841270e-01  4.576814e-03
   endloop
 endfacet
 facet normal -9.157733e-01  0.000000e+00  4.016954e-01
   outer loop
     vertex -1.940189e-01  0.000000e+00 -1.654988e-02
     vertex -1.847519e-01  0.000000e+00  4.576814e-03
     vertex -1.847519e-01  9.841270e-01  4.576814e-03
   endloop
 endfacet
 facet normal -9.157733e-01  0.000000e+00  4.016954e-01
   outer loop
     vertex -1.940189e-01  0.000000e+00 -1.654988e-02
     vertex -1.847519e-01  9.841270e-01  4.576814e-03
     vertex -1.940189e-01  9.841270e-01 -1.654988e-02
   endloop
 endfacet
 facet normal -9.694003e-01  0.000000e+00  2.454855e-01
   outer loop
     vertex -1.996822e-01  0.000000e+00 -3.891374e-02
     vertex -1.940189e-01  0.000000e+00 -1.654988e-02
     vertex -1.940189e-01  9.841270e-01 -1.654988e-02
   endloop
 endfacet
 facet normal -9.694003e-01  0.000000e+00  2.454855e-01
   outer loop
     vertex -1.996822e-01  0.000000e+00 -3.891374e-02
     vertex -1.940189e-01  9.841270e-01 -1.654988e-02
     vertex -1.996822e-01  9.841270e-01 -3.891374e-02
   endloop
 endfacet
 facet normal -9.965845e-01  0.000000e+00  8.257935e-02
   outer loop
     vertex -2.015873e-01  0.000000e+00 -6.190473e-02
     vertex -1.996822e-01  9.841270e-01 -3.891374e-02
     vertex -2.015873e-01  9.841270e-01 -6.190473e-02
   endloop
 endfacet
 facet normal -9.965845e-01  0.000000e+00  8.257935e-02
   outer loop
     vertex -2.015873e-01  0.000000e+00 -6.190473e-02
     vertex -1.996822e-01  0.000000e+00 -3.891374e-02
     vertex -1.996822e-01  9.841270e-01 -3.891374e-02
   endloop
 endfacet
 facet normal -9.965845e-01  0.000000e+00 -8.257935e-02
   outer loop
     vertex -1.996822e-01  0.000000e+00 -8.489572e-02
     vertex -2.015873e-01  9.841270e-01 -6.190473e-02
     vertex -1.996822e-01  9.841270e-01 -8.489572e-02
   endloop
 endfacet
 facet normal -9.965845e-01  0.000000e+00 -8.257935e-02
   outer loop
     vertex -1.996822e-01  0.000000e+00 -8.489572e-02
     vertex -2.015873e-01  0.000000e+00 -6.190473e-02
     vertex -2.015873e-01  9.841270e-01 -6.190473e-02
   endloop
 endfacet
 facet normal -9.694003e-01  0.000000e+00 -2.454855e-01
   outer loop
     vertex -1.940189e-01  0.000000e+00 -1.072596e-01
     vertex -1.996822e-01  0.000000e+00 -8.489572e-02
     vertex -1.996822e-01  9.841270e-01 -8.489572e-02
   endloop
 endfacet
 facet normal -9.694003e-01  0.000000e+00 -2.454855e-01
   outer loop
     vertex -1.940189e-01  0.000000e+00 -1.072596e-01
     vertex -1.996822e-01  9.841270e-01 -8.489572e-02
     vertex -1.940189e-01  9.841270e-01 -1.072596e-01
   endloop
 endfacet
 facet normal -9.157733e-01  0.000000e+00 -4.016954e-01
   outer loop
     vertex -1.847519e-01  0.000000e+00 -1.283863e-01
     vertex -1.940189e-01  9.841270e-01 -1.072596e-01
     vertex -1.847519e-01  9.841270e-01 -1.283863e-01
   endloop
 endfacet
 facet normal -9.157733e-01  0.000000e+00 -4.016954e-01
   outer loop
     vertex -1.847519e-01  0.000000e+00 -1.283863e-01
     vertex -1.940189e-01  0.000000e+00 -1.072596e-01
     vertex -1.940189e-01  9.841270e-01 -1.072596e-01
   endloop
 endfacet
 facet normal -8.371665e-01  0.000000e+00 -5.469482e-01
   outer loop
     vertex -1.721339e-01  0.000000e+00 -1.476995e-01
     vertex -1.847519e-01  9.841270e-01 -1.283863e-01
     vertex -1.721339e-01  9.841270e-01 -1.476995e-01
   endloop
 endfacet
 facet normal -8.371665e-01  0.000000e+00 -5.469482e-01
   outer loop
     vertex -1.721339e-01  0.000000e+00 -1.476995e-01
     vertex -1.847519e-01  0.000000e+00 -1.283863e-01
     vertex -1.847519e-01  9.841270e-01 -1.283863e-01
   endloop
 endfacet
 facet normal -7.357239e-01  0.000000e+00 -6.772816e-01
   outer loop
     vertex -1.565091e-01  0.000000e+00 -1.646725e-01
     vertex -1.721339e-01  9.841270e-01 -1.476995e-01
     vertex -1.565091e-01  9.841270e-01 -1.646725e-01
   endloop
 endfacet
 facet normal -7.357239e-01  0.000000e+00 -6.772816e-01
   outer loop
     vertex -1.565091e-01  0.000000e+00 -1.646725e-01
     vertex -1.721339e-01  0.000000e+00 -1.476995e-01
     vertex -1.721339e-01  9.841270e-01 -1.476995e-01
   endloop
 endfacet
 facet normal -6.142127e-01  0.000000e+00 -7.891405e-01
   outer loop
     vertex -1.383038e-01  0.000000e+00 -1.788423e-01
     vertex -1.565091e-01  9.841270e-01 -1.646725e-01
     vertex -1.383038e-01  9.841270e-01 -1.788423e-01
   endloop
 endfacet
 facet normal -6.142127e-01  0.000000e+00 -7.891405e-01
   outer loop
     vertex -1.383038e-01  0.000000e+00 -1.788423e-01
     vertex -1.565091e-01  0.000000e+00 -1.646725e-01
     vertex -1.565091e-01  9.841270e-01 -1.646725e-01
   endloop
 endfacet
 facet normal -4.759474e-01  0.000000e+00 -8.794738e-01
   outer loop
     vertex -1.180146e-01  0.000000e+00 -1.898223e-01
     vertex -1.383038e-01  9.841270e-01 -1.788423e-01
     vertex -1.180146e-01  9.841270e-01 -1.898223e-01
   endloop
 endfacet
 facet normal -3.246995e-01  0.000000e+00 -9.458172e-01
   outer loop
     vertex -1.180146e-01  0.000000e+00 -1.898223e-01
     vertex -1.180146e-01  9.841270e-01 -1.898223e-01
     vertex -9.619477e-02  9.841270e-01 -1.973130e-01
   endloop
 endfacet
 facet normal -4.759474e-01  0.000000e+00 -8.794738e-01
   outer loop
     vertex -1.180146e-01  0.000000e+00 -1.898223e-01
     vertex -1.383038e-01  0.000000e+00 -1.788423e-01
     vertex -1.383038e-01  9.841270e-01 -1.788423e-01
   endloop
 endfacet
 facet normal -3.246995e-01  0.000000e+00 -9.458172e-01
   outer loop
     vertex -9.619477e-02  0.000000e+00 -1.973130e-01
     vertex -1.180146e-01  0.000000e+00 -1.898223e-01
     vertex -9.619477e-02  9.841270e-01 -1.973130e-01
   endloop
 endfacet
 facet normal -1.645946e-01  0.000000e+00 -9.863613e-01
   outer loop
     vertex -7.343962e-02  0.000000e+00 -2.011102e-01
     vertex -9.619477e-02  9.841270e-01 -1.973130e-01
     vertex -7.343962e-02  9.841270e-01 -2.011102e-01
   endloop
 endfacet
 facet normal -1.645946e-01  0.000000e+00 -9.863613e-01
   outer loop
     vertex -7.343962e-02  0.000000e+00 -2.011102e-01
     vertex -9.619477e-02  0.000000e+00 -1.973130e-01
     vertex -9.619477e-02  9.841270e-01 -1.973130e-01
   endloop
 endfacet
 facet normal  0.000000e+00  0.000000e+00 -1.000000e+00
   outer loop
     vertex -5.036984e-02  0.000000e+00 -2.011102e-01
     vertex -7.343962e-02  9.841270e-01 -2.011102e-01
     vertex -5.036984e-02  9.841270e-01 -2.011102e-01
   endloop
 endfacet
 facet normal  0.000000e+00  0.000000e+00 -1.000000e+00
   outer loop
     vertex -5.036984e-02  0.000000e+00 -2.011102e-01
     vertex -7.343962e-02  0.000000e+00 -2.011102e-01
     vertex -7.343962e-02  9.841270e-01 -2.011102e-01
   endloop
 endfacet
 facet normal  1.645946e-01  0.000000e+00 -9.863613e-01
   outer loop
     vertex -2.761469e-02  0.000000e+00 -1.973130e-01
     vertex -5.036984e-02  9.841270e-01 -2.011102e-01
     vertex -2.761469e-02  9.841270e-01 -1.973130e-01
   endloop
 endfacet
 facet normal  1.645946e-01  0.000000e+00 -9.863613e-01
   outer loop
     vertex -2.761469e-02  0.000000e+00 -1.973130e-01
     vertex -5.036984e-02  0.000000e+00 -2.011102e-01
     vertex -5.036984e-02  9.841270e-01 -2.011102e-01
   endloop
 endfacet
 facet normal  3.246995e-01  0.000000e+00 -9.458172e-01
   outer loop
     vertex -5.794890e-03  0.000000e+00 -1.898223e-01
     vertex -2.761469e-02  0.000000e+00 -1.973130e-01
     vertex -2.761469e-02  9.841270e-01 -1.973130e-01
   endloop
 endfacet
 facet normal  3.246995e-01  0.000000e+00 -9.458172e-01
   outer loop
     vertex -5.794890e-03  0.000000e+00 -1.898223e-01
     vertex -2.761469e-02  9.841270e-01 -1.973130e-01
     vertex -5.794890e-03  9.841270e-01 -1.898223e-01
   endloop
 endfacet
 facet normal  4.759474e-01  0.000000e+00 -8.794738e-01
   outer loop
     vertex  1.449438e-02  0.000000e+00 -1.788423e-01
     vertex -5.794890e-03  0.000000e+00 -1.898223e-01
     vertex -5.794890e-03  9.841270e-01 -1.898223e-01
   endloop
 endfacet
 facet normal  4.759474e-01  0.000000e+00 -8.794738e-01
   outer loop
     vertex  1.449438e-02  0.000000e+00 -1.788423e-01
     vertex -5.794890e-03  9.841270e-01 -1.898223e-01
     vertex  1.449438e-02  9.841270e-01 -1.788423e-01
   endloop
 endfacet
 facet normal  6.142127e-01  0.000000e+00 -7.891405e-01
   outer loop
     vertex  3.269968e-02  0.000000e+00 -1.646725e-01
     vertex  1.449438e-02  0.000000e+00 -1.788423e-01
     vertex  1.449438e-02  9.841270e-01 -1.788423e-01
   endloop
 endfacet
 facet normal  6.142127e-01  0.000000e+00 -7.891405e-01
   outer loop
     vertex  3.269968e-02  0.000000e+00 -1.646725e-01
     vertex  1.449438e-02  9.841270e-01 -1.788423e-01
     vertex  3.269968e-02  9.841270e-01 -1.646725e-01
   endloop
 endfacet
 facet normal  7.357239e-01  0.000000e+00 -6.772816e-01
   outer loop
     vertex  4.832442e-02  0.000000e+00 -1.476995e-01
     vertex  3.269968e-02  0.000000e+00 -1.646725e-01
     vertex  3.269968e-02  9.841270e-01 -1.646725e-01
   endloop
 endfacet
 facet normal  7.357239e-01  0.000000e+00 -6.772816e-01
   outer loop
     vertex  4.832442e-02  0.000000e+00 -1.476995e-01
     vertex  3.269968e-02  9.841270e-01 -1.646725e-01
     vertex  4.832442e-02  9.841270e-01 -1.476995e-01
   endloop
 endfacet
 facet normal  8.371665e-01  0.000000e+00 -5.469482e-01
   outer loop
     vertex  6.094240e-02  0.000000e+00 -1.283863e-01
     vertex  4.832442e-02  0.000000e+00 -1.476995e-01
     vertex  4.832442e-02  9.841270e-01 -1.476995e-01
   endloop
 endfacet
 facet normal  8.371665e-01  0.000000e+00 -5.469482e-01
   outer loop
     vertex  6.094240e-02  0.000000e+00 -1.283863e-01
     vertex  4.832442e-02  9.841270e-01 -1.476995e-01
     vertex  6.094240e-02  9.841270e-01 -1.283863e-01
   endloop
 endfacet
 facet normal  9.157733e-01  0.000000e+00 -4.016954e-01
   outer loop
     vertex  7.020943e-02  0.000000e+00 -1.072596e-01
     vertex  6.094240e-02  0.000000e+00 -1.283863e-01
     vertex  6.094240e-02  9.841270e-01 -1.283863e-01
   endloop
 endfacet
 facet normal  9.157733e-01  0.000000e+00 -4.016954e-01
   outer loop
     vertex  7.020943e-02  0.000000e+00 -1.072596e-01
     vertex  6.094240e-02  9.841270e-01 -1.283863e-01
     vertex  7.020943e-02  9.841270e-01 -1.072596e-01
   endloop
 endfacet
 facet normal  9.694003e-01  0.000000e+00 -2.454855e-01
   outer loop
     vertex  7.587273e-02  0.000000e+00 -8.489572e-02
     vertex  7.020943e-02  0.000000e+00 -1.072596e-01
     vertex  7.020943e-02  9.841270e-01 -1.072596e-01
   endloop
 endfacet
 facet normal  9.694003e-01  0.000000e+00 -2.454855e-01
   outer loop
     vertex  7.587273e-02  0.000000e+00 -8.489572e-02
     vertex  7.020943e-02  9.841270e-01 -1.072596e-01
     vertex  7.587273e-02  9.841270e-01 -8.489572e-02
   endloop
 endfacet
 facet normal  9.965845e-01  0.000000e+00 -8.257935e-02
   outer loop
     vertex  7.587273e-02  0.000000e+00 -8.489572e-02
     vertex  7.587273e-02  9.841270e-01 -8.489572e-02
     vertex  7.777781e-02  9.841270e-01 -6.190473e-02
   endloop
 endfacet
 facet normal  9.965845e-01  0.000000e+00 -8.257935e-02
   outer loop
     vertex  7.777781e-02  0.000000e+00 -6.190473e-02
     vertex  7.587273e-02  0.000000e+00 -8.489572e-02
     vertex  7.777781e-02  9.841270e-01 -6.190473e-02
   endloop
 endfacet
 facet normal  0.000000e+00 -1.000000e+00  0.000000e+00
   outer loop
     vertex -1.088775e-01  0.000000e+00 -1.211650e-01
     vertex -1.565091e-01  0.000000e+00 -1.646725e-01
     vertex -1.383038e-01  0.000000e+00 -1.788423e-01
   endloop
 endfacet
 facet normal  0.000000e+00 -1.000000e+00  0.000000e+00
   outer loop
     vertex -1.211650e-01  0.000000e+00 -1.088775e-01
     vertex -1.847519e-01  0.000000e+00 -1.283863e-01
     vertex -1.721339e-01  0.000000e+00 -1.476995e-01
   endloop
 endfacet
 facet normal  0.000000e+00 -1.000000e+00  0.000000e+00
   outer loop
     vertex -1.211650e-01  0.000000e+00 -1.088775e-01
     vertex -1.721339e-01  0.000000e+00 -1.476995e-01
     vertex -1.565091e-01  0.000000e+00 -1.646725e-01
   endloop
 endfacet
 facet normal  0.000000e+00 -1.000000e+00 -0.000000e+00
   outer loop
     vertex -1.211650e-01  0.000000e+00 -1.088775e-01
     vertex -1.565091e-01  0.000000e+00 -1.646725e-01
     vertex -1.088775e-01  0.000000e+00 -1.211650e-01
   endloop
 endfacet
 facet normal  0.000000e+00 -1.000000e+00  0.000000e+00
   outer loop
     vertex -1.304103e-01  0.000000e+00 -9.416379e-02
     vertex -1.940189e-01  0.000000e+00 -1.072596e-01
     vertex -1.847519e-01  0.000000e+00 -1.283863e-01
   endloop
 endfacet
 facet normal  0.000000e+00 -1.000000e+00 -0.000000e+00
   outer loop
     vertex -1.304103e-01  0.000000e+00 -9.416379e-02
     vertex -1.847519e-01  0.000000e+00 -1.283863e-01
     vertex -1.211650e-01  0.000000e+00 -1.088775e-01
   endloop
 endfacet
 facet normal  0.000000e+00 -1.000000e+00  0.000000e+00
   outer loop
     vertex -9.416379e-02  0.000000e+00 -1.304103e-01
     vertex -1.383038e-01  0.000000e+00 -1.788423e-01
     vertex -1.180146e-01  0.000000e+00 -1.898223e-01
   endloop
 endfacet
 facet normal  0.000000e+00 -1.000000e+00  0.000000e+00
   outer loop
     vertex -9.416379e-02  0.000000e+00 -1.304103e-01
     vertex -1.180146e-01  0.000000e+00 -1.898223e-01
     vertex -9.619477e-02  0.000000e+00 -1.973130e-01
   endloop
 endfacet
 facet normal -0.000000e+00 -1.000000e+00  0.000000e+00
   outer loop
     vertex -9.416379e-02  0.000000e+00 -1.304103e-01
     vertex -1.088775e-01  0.000000e+00 -1.211650e-01
     vertex -1.383038e-01  0.000000e+00 -1.788423e-01
   endloop
 endfacet
 facet normal  0.000000e+00 -1.000000e+00  0.000000e+00
   outer loop
     vertex -1.361496e-01  0.000000e+00 -7.776173e-02
     vertex -1.996822e-01  0.000000e+00 -8.489572e-02
     vertex -1.940189e-01  0.000000e+00 -1.072596e-01
   endloop
 endfacet
 facet normal  0.000000e+00 -1.000000e+00 -0.000000e+00
   outer loop
     vertex -1.361496e-01  0.000000e+00 -7.776173e-02
     vertex -1.940189e-01  0.000000e+00 -1.072596e-01
     vertex -1.304103e-01  0.000000e+00 -9.416379e-02
   endloop
 endfacet
 facet normal  0.000000e+00 -1.000000e+00 -0.000000e+00
   outer loop
     vertex -7.776173e-02  0.000000e+00 -1.361496e-01
     vertex -9.619477e-02  0.000000e+00 -1.973130e-01
     vertex -7.343962e-02  0.000000e+00 -2.011102e-01
   endloop
 endfacet
 facet normal -0.000000e+00 -1.000000e+00  0.000000e+00
   outer loop
     vertex -7.776173e-02  0.000000e+00 -1.361496e-01
     vertex -9.416379e-02  0.000000e+00 -1.304103e-01
     vertex -9.619477e-02  0.000000e+00 -1.973130e-01
   endloop
 endfacet
 facet normal  0.000000e+00 -1.000000e+00 -0.000000e+00
   outer loop
     vertex -1.380952e-01  0.000000e+00 -6.049379e-02
     vertex -1.996822e-01  0.000000e+00 -8.489572e-02
     vertex -1.361496e-01  0.000000e+00 -7.776173e-02
   endloop
 endfacet
 facet normal -0.000000e+00 -1.000000e+00  0.000000e+00
   outer loop
     vertex -1.380952e-01  0.000000e+00 -6.049379e-02
     vertex -1.996822e-01  0.000000e+00 -3.891374e-02
     vertex -2.015873e-01  0.000000e+00 -6.190473e-02
   endloop
 endfacet
 facet normal  0.000000e+00 -1.000000e+00  0.000000e+00
   outer loop
     vertex -1.380952e-01  0.000000e+00 -6.049379e-02
     vertex -2.015873e-01  0.000000e+00 -6.190473e-02
     vertex -1.996822e-01  0.000000e+00 -8.489572e-02
   endloop
 endfacet
 facet normal  0.000000e+00 -1.000000e+00 -0.000000e+00
   outer loop
     vertex -6.049379e-02  0.000000e+00 -1.380952e-01
     vertex -7.343962e-02  0.000000e+00 -2.011102e-01
     vertex -5.036984e-02  0.000000e+00 -2.011102e-01
   endloop
 endfacet
 facet normal -0.000000e+00 -1.000000e+00  0.000000e+00
   outer loop
     vertex -6.049379e-02  0.000000e+00 -1.380952e-01
     vertex -7.776173e-02  0.000000e+00 -1.361496e-01
     vertex -7.343962e-02  0.000000e+00 -2.011102e-01
   endloop
 endfacet
 facet normal  0.000000e+00 -1.000000e+00  0.000000e+00
   outer loop
     vertex -1.361496e-01  0.000000e+00 -4.322585e-02
     vertex -1.940189e-01  0.000000e+00 -1.654988e-02
     vertex -1.996822e-01  0.000000e+00 -3.891374e-02
   endloop
 endfacet
 facet normal -0.000000e+00 -1.000000e+00  0.000000e+00
   outer loop
     vertex -1.361496e-01  0.000000e+00 -4.322585e-02
     vertex -1.996822e-01  0.000000e+00 -3.891374e-02
     vertex -1.380952e-01  0.000000e+00 -6.049379e-02
   endloop
 endfacet
 facet normal  0.000000e+00 -1.000000e+00  0.000000e+00
   outer loop
     vertex -4.322585e-02  0.000000e+00 -1.361496e-01
     vertex -6.049379e-02  0.000000e+00 -1.380952e-01
     vertex -5.036984e-02  0.000000e+00 -2.011102e-01
   endloop
 endfacet
 facet normal  0.000000e+00 -1.000000e+00 -0.000000e+00
   outer loop
     vertex -4.322585e-02  0.000000e+00 -1.361496e-01
     vertex -5.036984e-02  0.000000e+00 -2.011102e-01
     vertex -2.761469e-02  0.000000e+00 -1.973130e-01
   endloop
 endfacet
 facet normal  0.000000e+00 -1.000000e+00  0.000000e+00
   outer loop
     vertex -4.322585e-02  0.000000e+00 -1.361496e-01
     vertex -2.761469e-02  0.000000e+00 -1.973130e-01
     vertex -5.794890e-03  0.000000e+00 -1.898223e-01
   endloop
 endfacet
 facet normal -0.000000e+00 -1.000000e+00  0.000000e+00
   outer loop
     vertex -1.304103e-01  0.000000e+00 -2.682380e-02
     vertex -1.940189e-01  0.000000e+00 -1.654988e-02
     vertex -1.361496e-01  0.000000e+00 -4.322585e-02
   endloop
 endfacet
 facet normal  0.000000e+00 -1.000000e+00  0.000000e+00
   outer loop
     vertex -1.304103e-01  0.000000e+00 -2.682380e-02
     vertex -1.847519e-01  0.000000e+00  4.576814e-03
     vertex -1.940189e-01  0.000000e+00 -1.654988e-02
   endloop
 endfacet
 facet normal  0.000000e+00 -1.000000e+00 -0.000000e+00
   outer loop
     vertex -2.682380e-02  0.000000e+00 -1.304103e-01
     vertex -4.322585e-02  0.000000e+00 -1.361496e-01
     vertex -5.794890e-03  0.000000e+00 -1.898223e-01
   endloop
 endfacet
 facet normal  0.000000e+00 -1.000000e+00  0.000000e+00
   outer loop
     vertex -2.682380e-02  0.000000e+00 -1.304103e-01
     vertex -5.794890e-03  0.000000e+00 -1.898223e-01
     vertex  1.449438e-02  0.000000e+00 -1.788423e-01
   endloop
 endfacet
 facet normal  0.000000e+00 -1.000000e+00 -0.000000e+00
   outer loop
     vertex -1.721339e-01  0.000000e+00  2.389007e-02
     vertex -1.847519e-01  0.000000e+00  4.576814e-03
     vertex -1.304103e-01  0.000000e+00 -2.682380e-02
   endloop
 endfacet
 facet normal -0.000000e+00 -1.000000e+00  0.000000e+00
   outer loop
     vertex -1.211650e-01  0.000000e+00 -1.211010e-02
     vertex -1.721339e-01  0.000000e+00  2.389007e-02
     vertex -1.304103e-01  0.000000e+00 -2.682380e-02
   endloop
 endfacet
 facet normal  0.000000e+00 -1.000000e+00 -0.000000e+00
   outer loop
     vertex -1.211010e-02  0.000000e+00 -1.211650e-01
     vertex -2.682380e-02  0.000000e+00 -1.304103e-01
     vertex  1.449438e-02  0.000000e+00 -1.788423e-01
   endloop
 endfacet
 facet normal -0.000000e+00 -1.000000e+00  0.000000e+00
   outer loop
     vertex  3.269968e-02  0.000000e+00 -1.646725e-01
     vertex -1.211010e-02  0.000000e+00 -1.211650e-01
     vertex  1.449438e-02  0.000000e+00 -1.788423e-01
   endloop
 endfacet
 facet normal  0.000000e+00 -1.000000e+00 -0.000000e+00
   outer loop
     vertex -1.565091e-01  0.000000e+00  4.086306e-02
     vertex -1.721339e-01  0.000000e+00  2.389007e-02
     vertex -1.211650e-01  0.000000e+00 -1.211010e-02
   endloop
 endfacet
 facet normal  0.000000e+00 -1.000000e+00 -0.000000e+00
   outer loop
     vertex  1.774339e-04  0.000000e+00 -1.088775e-01
     vertex -1.211010e-02  0.000000e+00 -1.211650e-01
     vertex  3.269968e-02  0.000000e+00 -1.646725e-01
   endloop
 endfacet
 facet normal -0.000000e+00 -1.000000e+00  0.000000e+00
   outer loop
     vertex -1.088775e-01  0.000000e+00  1.774339e-04
     vertex -1.565091e-01  0.000000e+00  4.086306e-02
     vertex -1.211650e-01  0.000000e+00 -1.211010e-02
   endloop
 endfacet
 facet normal -0.000000e+00 -1.000000e+00  0.000000e+00
   outer loop
     vertex  4.832442e-02  0.000000e+00 -1.476995e-01
     vertex  1.774339e-04  0.000000e+00 -1.088775e-01
     vertex  3.269968e-02  0.000000e+00 -1.646725e-01
   endloop
 endfacet
 facet normal  0.000000e+00 -1.000000e+00 -0.000000e+00
   outer loop
     vertex -1.383038e-01  0.000000e+00  5.503281e-02
     vertex -1.565091e-01  0.000000e+00  4.086306e-02
     vertex -1.088775e-01  0.000000e+00  1.774339e-04
   endloop
 endfacet
 facet normal  0.000000e+00 -1.000000e+00  0.000000e+00
   outer loop
     vertex -1.383038e-01  0.000000e+00  5.503281e-02
     vertex -1.088775e-01  0.000000e+00  1.774339e-04
     vertex -9.416379e-02  0.000000e+00  9.422663e-03
   endloop
 endfacet
 facet normal -0.000000e+00 -1.000000e+00  0.000000e+00
   outer loop
     vertex  6.094240e-02  0.000000e+00 -1.283863e-01
     vertex  1.774339e-04  0.000000e+00 -1.088775e-01
     vertex  4.832442e-02  0.000000e+00 -1.476995e-01
   endloop
 endfacet
 facet normal  0.000000e+00 -1.000000e+00  0.000000e+00
   outer loop
     vertex  6.094240e-02  0.000000e+00 -1.283863e-01
     vertex  9.422663e-03  0.000000e+00 -9.416379e-02
     vertex  1.774339e-04  0.000000e+00 -1.088775e-01
   endloop
 endfacet
 facet normal  0.000000e+00 -1.000000e+00 -0.000000e+00
   outer loop
     vertex -1.180146e-01  0.000000e+00  6.601282e-02
     vertex -1.383038e-01  0.000000e+00  5.503281e-02
     vertex -9.416379e-02  0.000000e+00  9.422663e-03
   endloop
 endfacet
 facet normal -0.000000e+00 -1.000000e+00  0.000000e+00
   outer loop
     vertex  7.020943e-02  0.000000e+00 -1.072596e-01
     vertex  9.422663e-03  0.000000e+00 -9.416379e-02
     vertex  6.094240e-02  0.000000e+00 -1.283863e-01
   endloop
 endfacet
 facet normal  0.000000e+00 -1.000000e+00  0.000000e+00
   outer loop
     vertex  7.020943e-02  0.000000e+00 -1.072596e-01
     vertex  1.516199e-02  0.000000e+00 -7.776173e-02
     vertex  9.422663e-03  0.000000e+00 -9.416379e-02
   endloop
 endfacet
 facet normal  0.000000e+00 -1.000000e+00  0.000000e+00
   outer loop
     vertex -9.619477e-02  0.000000e+00  7.350357e-02
     vertex -9.416379e-02  0.000000e+00  9.422663e-03
     vertex -7.776173e-02  0.000000e+00  1.516199e-02
   endloop
 endfacet
 facet normal  0.000000e+00 -1.000000e+00 -0.000000e+00
   outer loop
     vertex -9.619477e-02  0.000000e+00  7.350357e-02
     vertex -1.180146e-01  0.000000e+00  6.601282e-02
     vertex -9.416379e-02  0.000000e+00  9.422663e-03
   endloop
 endfacet
 facet normal -0.000000e+00 -1.000000e+00  0.000000e+00
   outer loop
     vertex  7.587273e-02  0.000000e+00 -8.489572e-02
     vertex  1.516199e-02  0.000000e+00 -7.776173e-02
     vertex  7.020943e-02  0.000000e+00 -1.072596e-01
   endloop
 endfacet
 facet normal  0.000000e+00 -1.000000e+00  0.000000e+00
   outer loop
     vertex  7.587273e-02  0.000000e+00 -8.489572e-02
     vertex  1.710762e-02  0.000000e+00 -6.049379e-02
     vertex  1.516199e-02  0.000000e+00 -7.776173e-02
   endloop
 endfacet
 facet normal  0.000000e+00 -1.000000e+00 -0.000000e+00
   outer loop
     vertex -7.343962e-02  0.000000e+00  7.730073e-02
     vertex -7.776173e-02  0.000000e+00  1.516199e-02
     vertex -6.049379e-02  0.000000e+00  1.710762e-02
   endloop
 endfacet
 facet normal  0.000000e+00 -1.000000e+00  0.000000e+00
   outer loop
     vertex -7.343962e-02  0.000000e+00  7.730073e-02
     vertex -9.619477e-02  0.000000e+00  7.350357e-02
     vertex -7.776173e-02  0.000000e+00  1.516199e-02
   endloop
 endfacet
 facet normal -0.000000e+00 -1.000000e+00  0.000000e+00
   outer loop
     vertex  7.777781e-02  0.000000e+00 -6.190473e-02
     vertex  1.710762e-02  0.000000e+00 -6.049379e-02
     vertex  7.587273e-02  0.000000e+00 -8.489572e-02
   endloop
 endfacet
 facet normal  0.000000e+00 -1.000000e+00 -0.000000e+00
   outer loop
     vertex -5.036984e-02  0.000000e+00  7.730073e-02
     vertex -6.049379e-02  0.000000e+00  1.710762e-02
     vertex -4.322585e-02  0.000000e+00  1.516199e-02
   endloop
 endfacet
 facet normal -0.000000e+00 -1.000000e+00  0.000000e+00
   outer loop
     vertex -5.036984e-02  0.000000e+00  7.730073e-02
     vertex -7.343962e-02  0.000000e+00  7.730073e-02
     vertex -6.049379e-02  0.000000e+00  1.710762e-02
   endloop
 endfacet
 facet normal  0.000000e+00 -1.000000e+00  0.000000e+00
   outer loop
     vertex  7.587273e-02  0.000000e+00 -3.891374e-02
     vertex  1.516199e-02  0.000000e+00 -4.322585e-02
     vertex  1.710762e-02  0.000000e+00 -6.049379e-02
   endloop
 endfacet
 facet normal  0.000000e+00 -1.000000e+00 -0.000000e+00
   outer loop
     vertex  7.587273e-02  0.000000e+00 -3.891374e-02
     vertex  1.710762e-02  0.000000e+00 -6.049379e-02
     vertex  7.777781e-02  0.000000e+00 -6.190473e-02
   endloop
 endfacet
 facet normal -0.000000e+00 -1.000000e+00  0.000000e+00
   outer loop
     vertex -2.761469e-02  0.000000e+00  7.350357e-02
     vertex -5.036984e-02  0.000000e+00  7.730073e-02
     vertex -4.322585e-02  0.000000e+00  1.516199e-02
   endloop
 endfacet
 facet normal  0.000000e+00 -1.000000e+00  0.000000e+00
   outer loop
     vertex  7.020943e-02  0.000000e+00 -1.654988e-02
     vertex  9.422663e-03  0.000000e+00 -2.682380e-02
     vertex  1.516199e-02  0.000000e+00 -4.322585e-02
   endloop
 endfacet
 facet normal  0.000000e+00 -1.000000e+00 -0.000000e+00
   outer loop
     vertex  7.020943e-02  0.000000e+00 -1.654988e-02
     vertex  1.516199e-02  0.000000e+00 -4.322585e-02
     vertex  7.587273e-02  0.000000e+00 -3.891374e-02
   endloop
 endfacet
 facet normal -0.000000e+00 -1.000000e+00  0.000000e+00
   outer loop
     vertex -5.794890e-03  0.000000e+00  6.601282e-02
     vertex -2.761469e-02  0.000000e+00  7.350357e-02
     vertex -4.322585e-02  0.000000e+00  1.516199e-02
   endloop
 endfacet
 facet normal  0.000000e+00 -1.000000e+00  0.000000e+00
   outer loop
     vertex -5.794890e-03  0.000000e+00  6.601282e-02
     vertex -4.322585e-02  0.000000e+00  1.516199e-02
     vertex -2.682380e-02  0.000000e+00  9.422663e-03
   endloop
 endfacet
 facet normal  0.000000e+00 -1.000000e+00 -0.000000e+00
   outer loop
     vertex  6.094240e-02  0.000000e+00  4.576814e-03
     vertex  9.422663e-03  0.000000e+00 -2.682380e-02
     vertex  7.020943e-02  0.000000e+00 -1.654988e-02
   endloop
 endfacet
 facet normal  0.000000e+00 -1.000000e+00  0.000000e+00
   outer loop
     vertex  6.094240e-02  0.000000e+00  4.576814e-03
     vertex  1.774339e-04  0.000000e+00 -1.211010e-02
     vertex  9.422663e-03  0.000000e+00 -2.682380e-02
   endloop
 endfacet
 facet normal  0.000000e+00 -1.000000e+00  0.000000e+00
   outer loop
     vertex  1.449438e-02  0.000000e+00  5.503281e-02
     vertex -2.682380e-02  0.000000e+00  9.422663e-03
     vertex -1.211010e-02  0.000000e+00  1.774339e-04
   endloop
 endfacet
 facet normal -0.000000e+00 -1.000000e+00  0.000000e+00
   outer loop
     vertex  1.449438e-02  0.000000e+00  5.503281e-02
     vertex -5.794890e-03  0.000000e+00  6.601282e-02
     vertex -2.682380e-02  0.000000e+00  9.422663e-03
   endloop
 endfacet
 facet normal  0.000000e+00 -1.000000e+00 -0.000000e+00
   outer loop
     vertex  4.832442e-02  0.000000e+00  2.389007e-02
     vertex  1.774339e-04  0.000000e+00 -1.211010e-02
     vertex  6.094240e-02  0.000000e+00  4.576814e-03
   endloop
 endfacet
 facet normal  0.000000e+00 -1.000000e+00  0.000000e+00
   outer loop
     vertex  3.269968e-02  0.000000e+00  4.086306e-02
     vertex -1.211010e-02  0.000000e+00  1.774339e-04
     vertex  1.774339e-04  0.000000e+00 -1.211010e-02
   endloop
 endfacet
 facet normal -0.000000e+00 -1.000000e+00  0.000000e+00
   outer loop
     vertex  3.269968e-02  0.000000e+00  4.086306e-02
     vertex  1.449438e-02  0.000000e+00  5.503281e-02
     vertex -1.211010e-02  0.000000e+00  1.774339e-04
   endloop
 endfacet
 facet normal  0.000000e+00 -1.000000e+00 -0.000000e+00
   outer loop
     vertex  3.269968e-02  0.000000e+00  4.086306e-02
     vertex  1.774339e-04  0.000000e+00 -1.211010e-02
     vertex  4.832442e-02  0.000000e+00  2.389007e-02
   endloop
 endfacet
 facet normal  0.000000e+00  1.000000e+00  0.000000e+00
   outer loop
     vertex -1.088775e-01  9.841270e-01 -1.211650e-01
     vertex -1.383038e-01  9.841270e-01 -1.788423e-01
     vertex -1.565091e-01  9.841270e-01 -1.646725e-01
   endloop
 endfacet
 facet normal  0.000000e+00  1.000000e+00  0.000000e+00
   outer loop
     vertex -1.211650e-01  9.841270e-01 -1.088775e-01
     vertex -1.721339e-01  9.841270e-01 -1.476995e-01
     vertex -1.847519e-01  9.841270e-01 -1.283863e-01
   endloop
 endfacet
 facet normal  0.000000e+00  1.000000e+00  0.000000e+00
   outer loop
     vertex -1.211650e-01  9.841270e-01 -1.088775e-01
     vertex -1.565091e-01  9.841270e-01 -1.646725e-01
     vertex -1.721339e-01  9.841270e-01 -1.476995e-01
   endloop
 endfacet
 facet normal  0.000000e+00  1.000000e+00  0.000000e+00
   outer loop
     vertex -1.211650e-01  9.841270e-01 -1.088775e-01
     vertex -1.088775e-01  9.841270e-01 -1.211650e-01
     vertex -1.565091e-01  9.841270e-01 -1.646725e-01
   endloop
 endfacet
 facet normal  0.000000e+00  1.000000e+00  0.000000e+00
   outer loop
     vertex -1.304103e-01  9.841270e-01 -9.416379e-02
     vertex -1.847519e-01  9.841270e-01 -1.283863e-01
     vertex -1.940189e-01  9.841270e-01 -1.072596e-01
   endloop
 endfacet
 facet normal  0.000000e+00  1.000000e+00  0.000000e+00
   outer loop
     vertex -1.304103e-01  9.841270e-01 -9.416379e-02
     vertex -1.211650e-01  9.841270e-01 -1.088775e-01
     vertex -1.847519e-01  9.841270e-01 -1.283863e-01
   endloop
 endfacet
 facet normal  0.000000e+00  1.000000e+00  0.000000e+00
   outer loop
     vertex -9.416379e-02  9.841270e-01 -1.304103e-01
     vertex -1.180146e-01  9.841270e-01 -1.898223e-01
     vertex -1.383038e-01  9.841270e-01 -1.788423e-01
   endloop
 endfacet
 facet normal  0.000000e+00  1.000000e+00  0.000000e+00
   outer loop
     vertex -9.416379e-02  9.841270e-01 -1.304103e-01
     vertex -9.619477e-02  9.841270e-01 -1.973130e-01
     vertex -1.180146e-01  9.841270e-01 -1.898223e-01
   endloop
 endfacet
 facet normal  0.000000e+00  1.000000e+00  0.000000e+00
   outer loop
     vertex -9.416379e-02  9.841270e-01 -1.304103e-01
     vertex -1.383038e-01  9.841270e-01 -1.788423e-01
     vertex -1.088775e-01  9.841270e-01 -1.211650e-01
   endloop
 endfacet
 facet normal  0.000000e+00  1.000000e+00  0.000000e+00
   outer loop
     vertex -1.361496e-01  9.841270e-01 -7.776173e-02
     vertex -1.940189e-01  9.841270e-01 -1.072596e-01
     vertex -1.996822e-01  9.841270e-01 -8.489572e-02
   endloop
 endfacet
 facet normal  0.000000e+00  1.000000e+00  0.000000e+00
   outer loop
     vertex -1.361496e-01  9.841270e-01 -7.776173e-02
     vertex -1.304103e-01  9.841270e-01 -9.416379e-02
     vertex -1.940189e-01  9.841270e-01 -1.072596e-01
   endloop
 endfacet
 facet normal  0.000000e+00  1.000000e+00  0.000000e+00
   outer loop
     vertex -7.776173e-02  9.841270e-01 -1.361496e-01
     vertex -7.343962e-02  9.841270e-01 -2.011102e-01
     vertex -9.619477e-02  9.841270e-01 -1.973130e-01
   endloop
 endfacet
 facet normal  0.000000e+00  1.000000e+00  0.000000e+00
   outer loop
     vertex -7.776173e-02  9.841270e-01 -1.361496e-01
     vertex -9.619477e-02  9.841270e-01 -1.973130e-01
     vertex -9.416379e-02  9.841270e-01 -1.304103e-01
   endloop
 endfacet
 facet normal  0.000000e+00  1.000000e+00  0.000000e+00
   outer loop
     vertex -1.380952e-01  9.841270e-01 -6.049379e-02
     vertex -1.361496e-01  9.841270e-01 -7.776173e-02
     vertex -1.996822e-01  9.841270e-01 -8.489572e-02
   endloop
 endfacet
 facet normal  0.000000e+00  1.000000e+00  0.000000e+00
   outer loop
     vertex -1.380952e-01  9.841270e-01 -6.049379e-02
     vertex -2.015873e-01  9.841270e-01 -6.190473e-02
     vertex -1.996822e-01  9.841270e-01 -3.891374e-02
   endloop
 endfacet
 facet normal  0.000000e+00  1.000000e+00  0.000000e+00
   outer loop
     vertex -1.380952e-01  9.841270e-01 -6.049379e-02
     vertex -1.996822e-01  9.841270e-01 -8.489572e-02
     vertex -2.015873e-01  9.841270e-01 -6.190473e-02
   endloop
 endfacet
 facet normal  0.000000e+00  1.000000e+00  0.000000e+00
   outer loop
     vertex -6.049379e-02  9.841270e-01 -1.380952e-01
     vertex -5.036984e-02  9.841270e-01 -2.011102e-01
     vertex -7.343962e-02  9.841270e-01 -2.011102e-01
   endloop
 endfacet
 facet normal  0.000000e+00  1.000000e+00  0.000000e+00
   outer loop
     vertex -6.049379e-02  9.841270e-01 -1.380952e-01
     vertex -7.343962e-02  9.841270e-01 -2.011102e-01
     vertex -7.776173e-02  9.841270e-01 -1.361496e-01
   endloop
 endfacet
 facet normal  0.000000e+00  1.000000e+00  0.000000e+00
   outer loop
     vertex -1.361496e-01  9.841270e-01 -4.322585e-02
     vertex -1.996822e-01  9.841270e-01 -3.891374e-02
     vertex -1.940189e-01  9.841270e-01 -1.654988e-02
   endloop
 endfacet
 facet normal  0.000000e+00  1.000000e+00  0.000000e+00
   outer loop
     vertex -1.361496e-01  9.841270e-01 -4.322585e-02
     vertex -1.380952e-01  9.841270e-01 -6.049379e-02
     vertex -1.996822e-01  9.841270e-01 -3.891374e-02
   endloop
 endfacet
 facet normal  0.000000e+00  1.000000e+00  0.000000e+00
   outer loop
     vertex -4.322585e-02  9.841270e-01 -1.361496e-01
     vertex -5.036984e-02  9.841270e-01 -2.011102e-01
     vertex -6.049379e-02  9.841270e-01 -1.380952e-01
   endloop
 endfacet
 facet normal  0.000000e+00  1.000000e+00  0.000000e+00
   outer loop
     vertex -4.322585e-02  9.841270e-01 -1.361496e-01
     vertex -2.761469e-02  9.841270e-01 -1.973130e-01
     vertex -5.036984e-02  9.841270e-01 -2.011102e-01
   endloop
 endfacet
 facet normal  0.000000e+00  1.000000e+00  0.000000e+00
   outer loop
     vertex -4.322585e-02  9.841270e-01 -1.361496e-01
     vertex -5.794890e-03  9.841270e-01 -1.898223e-01
     vertex -2.761469e-02  9.841270e-01 -1.973130e-01
   endloop
 endfacet
 facet normal  0.000000e+00  1.000000e+00  0.000000e+00
   outer loop
     vertex -1.304103e-01  9.841270e-01 -2.682380e-02
     vertex -1.361496e-01  9.841270e-01 -4.322585e-02
     vertex -1.940189e-01  9.841270e-01 -1.654988e-02
   endloop
 endfacet
 facet normal  0.000000e+00  1.000000e+00  0.000000e+00
   outer loop
     vertex -1.304103e-01  9.841270e-01 -2.682380e-02
     vertex -1.940189e-01  9.841270e-01 -1.654988e-02
     vertex -1.847519e-01  9.841270e-01  4.576814e-03
   endloop
 endfacet
 facet normal  0.000000e+00  1.000000e+00  0.000000e+00
   outer loop
     vertex -2.682380e-02  9.841270e-01 -1.304103e-01
     vertex -5.794890e-03  9.841270e-01 -1.898223e-01
     vertex -4.322585e-02  9.841270e-01 -1.361496e-01
   endloop
 endfacet
 facet normal  0.000000e+00  1.000000e+00  0.000000e+00
   outer loop
     vertex -2.682380e-02  9.841270e-01 -1.304103e-01
     vertex  1.449438e-02  9.841270e-01 -1.788423e-01
     vertex -5.794890e-03  9.841270e-01 -1.898223e-01
   endloop
 endfacet
 facet normal  0.000000e+00  1.000000e+00  0.000000e+00
   outer loop
     vertex -1.721339e-01  9.841270e-01  2.389007e-02
     vertex -1.304103e-01  9.841270e-01 -2.682380e-02
     vertex -1.847519e-01  9.841270e-01  4.576814e-03
   endloop
 endfacet
 facet normal  0.000000e+00  1.000000e+00  0.000000e+00
   outer loop
     vertex -1.211650e-01  9.841270e-01 -1.211010e-02
     vertex -1.304103e-01  9.841270e-01 -2.682380e-02
     vertex -1.721339e-01  9.841270e-01  2.389007e-02
   endloop
 endfacet
 facet normal  0.000000e+00  1.000000e+00  0.000000e+00
   outer loop
     vertex -1.211010e-02  9.841270e-01 -1.211650e-01
     vertex  1.449438e-02  9.841270e-01 -1.788423e-01
     vertex -2.682380e-02  9.841270e-01 -1.304103e-01
   endloop
 endfacet
 facet normal  0.000000e+00  1.000000e+00  0.000000e+00
   outer loop
     vertex  3.269968e-02  9.841270e-01 -1.646725e-01
     vertex  1.449438e-02  9.841270e-01 -1.788423e-01
     vertex -1.211010e-02  9.841270e-01 -1.211650e-01
   endloop
 endfacet
 facet normal  0.000000e+00  1.000000e+00  0.000000e+00
   outer loop
     vertex -1.565091e-01  9.841270e-01  4.086306e-02
     vertex -1.211650e-01  9.841270e-01 -1.211010e-02
     vertex -1.721339e-01  9.841270e-01  2.389007e-02
   endloop
 endfacet
 facet normal  0.000000e+00  1.000000e+00  0.000000e+00
   outer loop
     vertex  1.774339e-04  9.841270e-01 -1.088775e-01
     vertex  3.269968e-02  9.841270e-01 -1.646725e-01
     vertex -1.211010e-02  9.841270e-01 -1.211650e-01
   endloop
 endfacet
 facet normal  0.000000e+00  1.000000e+00  0.000000e+00
   outer loop
     vertex -1.088775e-01  9.841270e-01  1.774339e-04
     vertex -1.211650e-01  9.841270e-01 -1.211010e-02
     vertex -1.565091e-01  9.841270e-01  4.086306e-02
   endloop
 endfacet
 facet normal  0.000000e+00  1.000000e+00  0.000000e+00
   outer loop
     vertex  4.832442e-02  9.841270e-01 -1.476995e-01
     vertex  3.269968e-02  9.841270e-01 -1.646725e-01
     vertex  1.774339e-04  9.841270e-01 -1.088775e-01
   endloop
 endfacet
 facet normal  0.000000e+00  1.000000e+00  0.000000e+00
   outer loop
     vertex -1.383038e-01  9.841270e-01  5.503281e-02
     vertex -1.088775e-01  9.841270e-01  1.774339e-04
     vertex -1.565091e-01  9.841270e-01  4.086306e-02
   endloop
 endfacet
 facet normal  0.000000e+00  1.000000e+00  0.000000e+00
   outer loop
     vertex -1.383038e-01  9.841270e-01  5.503281e-02
     vertex -9.416379e-02  9.841270e-01  9.422663e-03
     vertex -1.088775e-01  9.841270e-01  1.774339e-04
   endloop
 endfacet
 facet normal  0.000000e+00  1.000000e+00  0.000000e+00
   outer loop
     vertex  6.094240e-02  9.841270e-01 -1.283863e-01
     vertex  4.832442e-02  9.841270e-01 -1.476995e-01
     vertex  1.774339e-04  9.841270e-01 -1.088775e-01
   endloop
 endfacet
 facet normal  0.000000e+00  1.000000e+00  0.000000e+00
   outer loop
     vertex  6.094240e-02  9.841270e-01 -1.283863e-01
     vertex  1.774339e-04  9.841270e-01 -1.088775e-01
     vertex  9.422663e-03  9.841270e-01 -9.416379e-02
   endloop
 endfacet
 facet normal  0.000000e+00  1.000000e+00  0.000000e+00
   outer loop
     vertex -1.180146e-01  9.841270e-01  6.601282e-02
     vertex -9.416379e-02  9.841270e-01  9.422663e-03
     vertex -1.383038e-01  9.841270e-01  5.503281e-02
   endloop
 endfacet
 facet normal  0.000000e+00  1.000000e+00  0.000000e+00
   outer loop
     vertex  7.020943e-02  9.841270e-01 -1.072596e-01
     vertex  6.094240e-02  9.841270e-01 -1.283863e-01
     vertex  9.422663e-03  9.841270e-01 -9.416379e-02
   endloop
 endfacet
 facet normal  0.000000e+00  1.000000e+00  0.000000e+00
   outer loop
     vertex  7.020943e-02  9.841270e-01 -1.072596e-01
     vertex  9.422663e-03  9.841270e-01 -9.416379e-02
     vertex  1.516199e-02  9.841270e-01 -7.776173e-02
   endloop
 endfacet
 facet normal  0.000000e+00  1.000000e+00  0.000000e+00
   outer loop
     vertex -9.619477e-02  9.841270e-01  7.350357e-02
     vertex -7.776173e-02  9.841270e-01  1.516199e-02
     vertex -9.416379e-02  9.841270e-01  9.422663e-03
   endloop
 endfacet
 facet normal  0.000000e+00  1.000000e+00  0.000000e+00
   outer loop
     vertex -9.619477e-02  9.841270e-01  7.350357e-02
     vertex -9.416379e-02  9.841270e-01  9.422663e-03
     vertex -1.180146e-01  9.841270e-01  6.601282e-02
   endloop
 endfacet
 facet normal  0.000000e+00  1.000000e+00  0.000000e+00
   outer loop
     vertex  7.587273e-02  9.841270e-01 -8.489572e-02
     vertex  7.020943e-02  9.841270e-01 -1.072596e-01
     vertex  1.516199e-02  9.841270e-01 -7.776173e-02
   endloop
 endfacet
 facet normal  0.000000e+00  1.000000e+00  0.000000e+00
   outer loop
     vertex  7.587273e-02  9.841270e-01 -8.489572e-02
     vertex  1.516199e-02  9.841270e-01 -7.776173e-02
     vertex  1.710762e-02  9.841270e-01 -6.049379e-02
   endloop
 endfacet
 facet normal  0.000000e+00  1.000000e+00  0.000000e+00
   outer loop
     vertex -7.343962e-02  9.841270e-01  7.730073e-02
     vertex -6.049379e-02  9.841270e-01  1.710762e-02
     vertex -7.776173e-02  9.841270e-01  1.516199e-02
   endloop
 endfacet
 facet normal  0.000000e+00  1.000000e+00  0.000000e+00
   outer loop
     vertex -7.343962e-02  9.841270e-01  7.730073e-02
     vertex -7.776173e-02  9.841270e-01  1.516199e-02
     vertex -9.619477e-02  9.841270e-01  7.350357e-02
   endloop
 endfacet
 facet normal  0.000000e+00  1.000000e+00  0.000000e+00
   outer loop
     vertex  7.777781e-02  9.841270e-01 -6.190473e-02
     vertex  7.587273e-02  9.841270e-01 -8.489572e-02
     vertex  1.710762e-02  9.841270e-01 -6.049379e-02
   endloop
 endfacet
 facet normal  0.000000e+00  1.000000e+00  0.000000e+00
   outer loop
     vertex -5.036984e-02  9.841270e-01  7.730073e-02
     vertex -4.322585e-02  9.841270e-01  1.516199e-02
     vertex -6.049379e-02  9.841270e-01  1.710762e-02
   endloop
 endfacet
 facet normal  0.000000e+00  1.000000e+00  0.000000e+00
   outer loop
     vertex -5.036984e-02  9.841270e-01  7.730073e-02
     vertex -6.049379e-02  9.841270e-01  1.710762e-02
     vertex -7.343962e-02  9.841270e-01  7.730073e-02
   endloop
 endfacet
 facet normal  0.000000e+00  1.000000e+00  0.000000e+00
   outer loop
     vertex  7.587273e-02  9.841270e-01 -3.891374e-02
     vertex  1.710762e-02  9.841270e-01 -6.049379e-02
     vertex  1.516199e-02  9.841270e-01 -4.322585e-02
   endloop
 endfacet
 facet normal  0.000000e+00  1.000000e+00  0.000000e+00
   outer loop
     vertex  7.587273e-02  9.841270e-01 -3.891374e-02
     vertex  7.777781e-02  9.841270e-01 -6.190473e-02
     vertex  1.710762e-02  9.841270e-01 -6.049379e-02
   endloop
 endfacet
 facet normal  0.000000e+00  1.000000e+00  0.000000e+00
   outer loop
     vertex -2.761469e-02  9.841270e-01  7.350357e-02
     vertex -4.322585e-02  9.841270e-01  1.516199e-02
     vertex -5.036984e-02  9.841270e-01  7.730073e-02
   endloop
 endfacet
 facet normal  0.000000e+00  1.000000e+00  0.000000e+00
   outer loop
     vertex  7.020943e-02  9.841270e-01 -1.654988e-02
     vertex  1.516199e-02  9.841270e-01 -4.322585e-02
     vertex  9.422663e-03  9.841270e-01 -2.682380e-02
   endloop
 endfacet
 facet normal  0.000000e+00  1.000000e+00  0.000000e+00
   outer loop
     vertex  7.020943e-02  9.841270e-01 -1.654988e-02
     vertex  7.587273e-02  9.841270e-01 -3.891374e-02
     vertex  1.516199e-02  9.841270e-01 -4.322585e-02
   endloop
 endfacet
 facet normal  0.000000e+00  1.000000e+00  0.000000e+00
   outer loop
     vertex -5.794890e-03  9.841270e-01  6.601282e-02
     vertex -4.322585e-02  9.841270e-01  1.516199e-02
     vertex -2.761469e-02  9.841270e-01  7.350357e-02
   endloop
 endfacet
 facet normal  0.000000e+00  1.000000e+00  0.000000e+00
   outer loop
     vertex -5.794890e-03  9.841270e-01  6.601282e-02
     vertex -2.682380e-02  9.841270e-01  9.422663e-03
     vertex -4.322585e-02  9.841270e-01  1.516199e-02
   endloop
 endfacet
 facet normal  0.000000e+00  1.000000e+00  0.000000e+00
   outer loop
     vertex  6.094240e-02  9.841270e-01  4.576814e-03
     vertex  7.020943e-02  9.841270e-01 -1.654988e-02
     vertex  9.422663e-03  9.841270e-01 -2.682380e-02
   endloop
 endfacet
 facet normal  0.000000e+00  1.000000e+00  0.000000e+00
   outer loop
     vertex  6.094240e-02  9.841270e-01  4.576814e-03
     vertex  9.422663e-03  9.841270e-01 -2.682380e-02
     vertex  1.774339e-04  9.841270e-01 -1.211010e-02
   endloop
 endfacet
 facet normal  0.000000e+00  1.000000e+00  0.000000e+00
   outer loop
     vertex  1.449438e-02  9.841270e-01  5.503281e-02
     vertex -1.211010e-02  9.841270e-01  1.774339e-04
     vertex -2.682380e-02  9.841270e-01  9.422663e-03
   endloop
 endfacet
 facet normal  0.000000e+00  1.000000e+00  0.000000e+00
   outer loop
     vertex  1.449438e-02  9.841270e-01  5.503281e-02
     vertex -2.682380e-02  9.841270e-01  9.422663e-03
     vertex -5.794890e-03  9.841270e-01  6.601282e-02
   endloop
 endfacet
 facet normal  0.000000e+00  1.000000e+00  0.000000e+00
   outer loop
     vertex  4.832442e-02  9.841270e-01  2.389007e-02
     vertex  6.094240e-02  9.841270e-01  4.576814e-03
     vertex  1.774339e-04  9.841270e-01 -1.211010e-02
   endloop
 endfacet
 facet normal  0.000000e+00  1.000000e+00  0.000000e+00
   outer loop
     vertex  3.269968e-02  9.841270e-01  4.086306e-02
     vertex  1.774339e-04  9.841270e-01 -1.211010e-02
     vertex -1.211010e-02  9.841270e-01  1.774339e-04
   endloop
 endfacet
 facet normal  0.000000e+00  1.000000e+00  0.000000e+00
   outer loop
     vertex  3.269968e-02  9.841270e-01  4.086306e-02
     vertex -1.211010e-02  9.841270e-01  1.774339e-04
     vertex  1.449438e-02  9.841270e-01  5.503281e-02
   endloop
 endfacet
 facet normal  0.000000e+00  1.000000e+00  0.000000e+00
   outer loop
     vertex  3.269968e-02  9.841270e-01  4.086306e-02
     vertex  4.832442e-02  9.841270e-01  2.389007e-02
     vertex  1.774339e-04  9.841270e-01 -1.211010e-02
   endloop
 endfacet
 facet normal  0.000000e+00 -1.000000e+00  0.000000e+00
   outer loop
     vertex -1.211010e-02  0.000000e+00  1.774339e-04
     vertex  1.710762e-02  0.000000e+00 -6.049379e-02
     vertex  1.516199e-02  0.000000e+00 -4.322585e-02
   endloop
 endfacet
 facet normal  0.000000e+00 -1.000000e+00  0.000000e+00
   outer loop
     vertex -1.211010e-02  0.000000e+00  1.774339e-04
     vertex  1.516199e-02  0.000000e+00 -4.322585e-02
     vertex  9.422663e-03  0.000000e+00 -2.682380e-02
   endloop
 endfacet
 facet normal  0.000000e+00 -1.000000e+00  0.000000e+00
   outer loop
     vertex -1.211010e-02  0.000000e+00  1.774339e-04
     vertex  9.422663e-03  0.000000e+00 -2.682380e-02
     vertex  1.774339e-04  0.000000e+00 -1.211010e-02
   endloop
 endfacet
 facet normal  0.000000e+00 -1.000000e+00  0.000000e+00
   outer loop
     vertex -1.211010e-02  0.000000e+00  1.774339e-04
     vertex -2.682380e-02  0.000000e+00  9.422663e-03
     vertex -4.322585e-02  0.000000e+00  1.516199e-02
   endloop
 endfacet
 facet normal  0.000000e+00 -1.000000e+00  0.000000e+00
   outer loop
     vertex -1.211010e-02  0.000000e+00  1.774339e-04
     vertex -4.322585e-02  0.000000e+00  1.516199e-02
     vertex -6.049379e-02  0.000000e+00  1.710762e-02
   endloop
 endfacet
 facet normal  0.000000e+00 -1.000000e+00  0.000000e+00
   outer loop
     vertex -1.211010e-02  0.000000e+00  1.774339e-04
     vertex -6.049379e-02  0.000000e+00  1.710762e-02
     vertex -7.776173e-02  0.000000e+00  1.516199e-02
   endloop
 endfacet
 facet normal  0.000000e+00 -1.000000e+00  0.000000e+00
   outer loop
     vertex -1.211010e-02  0.000000e+00  1.774339e-04
     vertex -7.776173e-02  0.000000e+00  1.516199e-02
     vertex -9.416379e-02  0.000000e+00  9.422663e-03
   endloop
 endfacet
 facet normal  0.000000e+00 -1.000000e+00  0.000000e+00
   outer loop
     vertex -1.211010e-02  0.000000e+00  1.774339e-04
     vertex -9.416379e-02  0.000000e+00  9.422663e-03
     vertex -1.088775e-01  0.000000e+00  1.774339e-04
   endloop
 endfacet
 facet normal -0.000000e+00 -1.000000e+00  0.000000e+00
   outer loop
     vertex -1.211010e-02  0.000000e+00  1.774339e-04
     vertex -1.088775e-01  0.000000e+00  1.774339e-04
     vertex -1.211650e-01  0.000000e+00 -1.211010e-02
   endloop
 endfacet
 facet normal  0.000000e+00 -1.000000e+00  0.000000e+00
   outer loop
     vertex -1.211010e-02  0.000000e+00  1.774339e-04
     vertex -1.211650e-01  0.000000e+00 -1.211010e-02
     vertex -1.304103e-01  0.000000e+00 -2.682380e-02
   endloop
 endfacet
 facet normal  0.000000e+00 -1.000000e+00  0.000000e+00
   outer loop
     vertex -1.211010e-02  0.000000e+00  1.774339e-04
     vertex -1.304103e-01  0.000000e+00 -2.682380e-02
     vertex -1.361496e-01  0.000000e+00 -4.322585e-02
   endloop
 endfacet
 facet normal  0.000000e+00 -1.000000e+00  0.000000e+00
   outer loop
     vertex -1.211010e-02  0.000000e+00  1.774339e-04
     vertex -1.361496e-01  0.000000e+00 -4.322585e-02
     vertex -1.380952e-01  0.000000e+00 -6.049379e-02
   endloop
 endfacet
 facet normal  0.000000e+00 -1.000000e+00  0.000000e+00
   outer loop
     vertex -1.211010e-02  0.000000e+00  1.774339e-04
     vertex -1.380952e-01  0.000000e+00 -6.049379e-02
     vertex -1.361496e-01  0.000000e+00 -7.776173e-02
   endloop
 endfacet
 facet normal  0.000000e+00 -1.000000e+00  0.000000e+00
   outer loop
     vertex -1.211010e-02  0.000000e+00  1.774339e-04
     vertex -1.361496e-01  0.000000e+00 -7.776173e-02
     vertex -1.304103e-01  0.000000e+00 -9.416379e-02
   endloop
 endfacet
 facet normal  0.000000e+00 -1.000000e+00  0.000000e+00
   outer loop
     vertex -1.211010e-02  0.000000e+00  1.774339e-04
     vertex -1.304103e-01  0.000000e+00 -9.416379e-02
     vertex -1.211650e-01  0.000000e+00 -1.088775e-01
   endloop
 endfacet
 facet normal  0.000000e+00 -1.000000e+00  0.000000e+00
   outer loop
     vertex -1.211010e-02  0.000000e+00  1.774339e-04
     vertex -1.211650e-01  0.000000e+00 -1.088775e-01
     vertex -1.088775e-01  0.000000e+00 -1.211650e-01
   endloop
 endfacet
 facet normal  0.000000e+00 -1.000000e+00  0.000000e+00
   outer loop
     vertex -1.211010e-02  0.000000e+00  1.774339e-04
     vertex -1.088775e-01  0.000000e+00 -1.211650e-01
     vertex -9.416379e-02  0.000000e+00 -1.304103e-01
   endloop
 endfacet
 facet normal  0.000000e+00 -1.000000e+00  0.000000e+00
   outer loop
     vertex -1.211010e-02  0.000000e+00  1.774339e-04
     vertex -9.416379e-02  0.000000e+00 -1.304103e-01
     vertex -7.776173e-02  0.000000e+00 -1.361496e-01
   endloop
 endfacet
 facet normal  0.000000e+00 -1.000000e+00  0.000000e+00
   outer loop
     vertex -1.211010e-02  0.000000e+00  1.774339e-04
     vertex -7.776173e-02  0.000000e+00 -1.361496e-01
     vertex -6.049379e-02  0.000000e+00 -1.380952e-01
   endloop
 endfacet
 facet normal  0.000000e+00 -1.000000e+00  0.000000e+00
   outer loop
     vertex -1.211010e-02  0.000000e+00  1.774339e-04
     vertex -6.049379e-02  0.000000e+00 -1.380952e-01
     vertex -4.322585e-02  0.000000e+00 -1.361496e-01
   endloop
 endfacet
 facet normal  0.000000e+00 -1.000000e+00  0.000000e+00
   outer loop
     vertex -1.211010e-02  0.000000e+00  1.774339e-04
     vertex -4.322585e-02  0.000000e+00 -1.361496e-01
     vertex -2.682380e-02  0.000000e+00 -1.304103e-01
   endloop
 endfacet
 facet normal  0.000000e+00 -1.000000e+00  0.000000e+00
   outer loop
     vertex -1.211010e-02  0.000000e+00  1.774339e-04
     vertex -2.682380e-02  0.000000e+00 -1.304103e-01
     vertex -1.211010e-02  0.000000e+00 -1.211650e-01
   endloop
 endfacet
 facet normal  0.000000e+00 -1.000000e+00 -0.000000e+00
   outer loop
     vertex -1.211010e-02  0.000000e+00  1.774339e-04
     vertex -1.211010e-02  0.000000e+00 -1.211650e-01
     vertex  1.774339e-04  0.000000e+00 -1.088775e-01
   endloop
 endfacet
 facet normal  0.000000e+00 -1.000000e+00  0.000000e+00
   outer loop
     vertex -1.211010e-02  0.000000e+00  1.774339e-04
     vertex  1.774339e-04  0.000000e+00 -1.088775e-01
     vertex  9.422663e-03  0.000000e+00 -9.416379e-02
   endloop
 endfacet
 facet normal  0.000000e+00 -1.000000e+00  0.000000e+00
   outer loop
     vertex -1.211010e-02  0.000000e+00  1.774339e-04
     vertex  9.422663e-03  0.000000e+00 -9.416379e-02
     vertex  1.516199e-02  0.000000e+00 -7.776173e-02
   endloop
 endfacet
 facet normal  0.000000e+00 -1.000000e+00  0.000000e+00
   outer loop
     vertex -1.211010e-02  0.000000e+00  1.774339e-04
     vertex  1.516199e-02  0.000000e+00 -7.776173e-02
     vertex  1.710762e-02  0.000000e+00 -6.049379e-02
   endloop
 endfacet
 facet normal  0.000000e+00  1.000000e+00  0.000000e+00
   outer loop
     vertex -1.211010e-02  9.841270e-01  1.774339e-04
     vertex  1.516199e-02  9.841270e-01 -4.322585e-02
     vertex  1.710762e-02  9.841270e-01 -6.049379e-02
   endloop
 endfacet
 facet normal  0.000000e+00  1.000000e+00  0.000000e+00
   outer loop
     vertex -1.211010e-02  9.841270e-01  1.774339e-04
     vertex  9.422663e-03  9.841270e-01 -2.682380e-02
     vertex  1.516199e-02  9.841270e-01 -4.322585e-02
   endloop
 endfacet
 facet normal  0.000000e+00  1.000000e+00  0.000000e+00
   outer loop
     vertex -1.211010e-02  9.841270e-01  1.774339e-04
     vertex  1.774339e-04  9.841270e-01 -1.211010e-02
     vertex  9.422663e-03  9.841270e-01 -2.682380e-02
   endloop
 endfacet
 facet normal  0.000000e+00  1.000000e+00  0.000000e+00
   outer loop
     vertex -1.211010e-02  9.841270e-01  1.774339e-04
     vertex -4.322585e-02  9.841270e-01  1.516199e-02
     vertex -2.682380e-02  9.841270e-01  9.422663e-03
   endloop
 endfacet
 facet normal  0.000000e+00  1.000000e+00  0.000000e+00
   outer loop
     vertex -1.211010e-02  9.841270e-01  1.774339e-04
     vertex -6.049379e-02  9.841270e-01  1.710762e-02
     vertex -4.322585e-02  9.841270e-01  1.516199e-02
   endloop
 endfacet
 facet normal  0.000000e+00  1.000000e+00  0.000000e+00
   outer loop
     vertex -1.211010e-02  9.841270e-01  1.774339e-04
     vertex -7.776173e-02  9.841270e-01  1.516199e-02
     vertex -6.049379e-02  9.841270e-01  1.710762e-02
   endloop
 endfacet
 facet normal  0.000000e+00  1.000000e+00  0.000000e+00
   outer loop
     vertex -1.211010e-02  9.841270e-01  1.774339e-04
     vertex -9.416379e-02  9.841270e-01  9.422663e-03
     vertex -7.776173e-02  9.841270e-01  1.516199e-02
   endloop
 endfacet
 facet normal  0.000000e+00  1.000000e+00  0.000000e+00
   outer loop
     vertex -1.211010e-02  9.841270e-01  1.774339e-04
     vertex -1.088775e-01  9.841270e-01  1.774339e-04
     vertex -9.416379e-02  9.841270e-01  9.422663e-03
   endloop
 endfacet
 facet normal  0.000000e+00  1.000000e+00  0.000000e+00
   outer loop
     vertex -1.211010e-02  9.841270e-01  1.774339e-04
     vertex -1.211650e-01  9.841270e-01 -1.211010e-02
     vertex -1.088775e-01  9.841270e-01  1.774339e-04
   endloop
 endfacet
 facet normal  0.000000e+00  1.000000e+00  0.000000e+00
   outer loop
     vertex -1.211010e-02  9.841270e-01  1.774339e-04
     vertex -1.304103e-01  9.841270e-01 -2.682380e-02
     vertex -1.211650e-01  9.841270e-01 -1.211010e-02
   endloop
 endfacet
 facet normal  0.000000e+00  1.000000e+00  0.000000e+00
   outer loop
     vertex -1.211010e-02  9.841270e-01  1.774339e-04
     vertex -1.361496e-01  9.841270e-01 -4.322585e-02
     vertex -1.304103e-01  9.841270e-01 -2.682380e-02
   endloop
 endfacet
 facet normal  0.000000e+00  1.000000e+00  0.000000e+00
   outer loop
     vertex -1.211010e-02  9.841270e-01  1.774339e-04
     vertex -1.380952e-01  9.841270e-01 -6.049379e-02
     vertex -1.361496e-01  9.841270e-01 -4.322585e-02
   endloop
 endfacet
 facet normal  0.000000e+00  1.000000e+00  0.000000e+00
   outer loop
     vertex -1.211010e-02  9.841270e-01  1.774339e-04
     vertex -1.361496e-01  9.841270e-01 -7.776173e-02
     vertex -1.380952e-01  9.841270e-01 -6.049379e-02
   endloop
 endfacet
 facet normal  0.000000e+00  1.000000e+00  0.000000e+00
   outer loop
     vertex -1.211010e-02  9.841270e-01  1.774339e-04
     vertex -1.304103e-01  9.841270e-01 -9.416379e-02
     vertex -1.361496e-01  9.841270e-01 -7.776173e-02
   endloop
 endfacet
 facet normal  0.000000e+00  1.000000e+00  0.000000e+00
   outer loop
     vertex -1.211010e-02  9.841270e-01  1.774339e-04
     vertex -1.211650e-01  9.841270e-01 -1.088775e-01
     vertex -1.304103e-01  9.841270e-01 -9.416379e-02
   endloop
 endfacet
 facet normal  0.000000e+00  1.000000e+00  0.000000e+00
   outer loop
     vertex -1.211010e-02  9.841270e-01  1.774339e-04
     vertex -1.088775e-01  9.841270e-01 -1.211650e-01
     vertex -1.211650e-01  9.841270e-01 -1.088775e-01
   endloop
 endfacet
 facet normal  0.000000e+00  1.000000e+00  0.000000e+00
   outer loop
     vertex -1.211010e-02  9.841270e-01  1.774339e-04
     vertex -9.416379e-02  9.841270e-01 -1.304103e-01
     vertex -1.088775e-01  9.841270e-01 -1.211650e-01
   endloop
 endfacet
 facet normal  0.000000e+00  1.000000e+00  0.000000e+00
   outer loop
     vertex -1.211010e-02  9.841270e-01  1.774339e-04
     vertex -7.776173e-02  9.841270e-01 -1.361496e-01
     vertex -9.416379e-02  9.841270e-01 -1.304103e-01
   endloop
 endfacet
 facet normal  0.000000e+00  1.000000e+00  0.000000e+00
   outer loop
     vertex -1.211010e-02  9.841270e-01  1.774339e-04
     vertex -6.049379e-02  9.841270e-01 -1.380952e-01
     vertex -7.776173e-02  9.841270e-01 -1.361496e-01
   endloop
 endfacet
 facet normal  0.000000e+00  1.000000e+00  0.000000e+00
   outer loop
     vertex -1.211010e-02  9.841270e-01  1.774339e-04
     vertex -4.322585e-02  9.841270e-01 -1.361496e-01
     vertex -6.049379e-02  9.841270e-01 -1.380952e-01
   endloop
 endfacet
 facet normal  0.000000e+00  1.000000e+00  0.000000e+00
   outer loop
     vertex -1.211010e-02  9.841270e-01  1.774339e-04
     vertex -2.682380e-02  9.841270e-01 -1.304103e-01
     vertex -4.322585e-02  9.841270e-01 -1.361496e-01
   endloop
 endfacet
 facet normal  0.000000e+00  1.000000e+00  0.000000e+00
   outer loop
     vertex -1.211010e-02  9.841270e-01  1.774339e-04
     vertex -1.211010e-02  9.841270e-01 -1.211650e-01
     vertex -2.682380e-02  9.841270e-01 -1.304103e-01
   endloop
 endfacet
 facet normal  0.000000e+00  1.000000e+00  0.000000e+00
   outer loop
     vertex -1.211010e-02  9.841270e-01  1.774339e-04
     vertex  1.774339e-04  9.841270e-01 -1.088775e-01
     vertex -1.211010e-02  9.841270e-01 -1.211650e-01
   endloop
 endfacet
 facet normal  0.000000e+00  1.000000e+00  0.000000e+00
   outer loop
     vertex -1.211010e-02  9.841270e-01  1.774339e-04
     vertex  9.422663e-03  9.841270e-01 -9.416379e-02
     vertex  1.774339e-04  9.841270e-01 -1.088775e-01
   endloop
 endfacet
 facet normal  0.000000e+00  1.000000e+00  0.000000e+00
   outer loop
     vertex -1.211010e-02  9.841270e-01  1.774339e-04
     vertex  1.516199e-02  9.841270e-01 -7.776173e-02
     vertex  9.422663e-03  9.841270e-01 -9.416379e-02
   endloop
 endfacet
 facet normal  0.000000e+00  1.000000e+00  0.000000e+00
   outer loop
     vertex -1.211010e-02  9.841270e-01  1.774339e-04
     vertex  1.710762e-02  9.841270e-01 -6.049379e-02
     vertex  1.516199e-02  9.841270e-01 -7.776173e-02
   endloop
 endfacet
endsolid
