solid 
 facet normal -0.000000e+00  0.000000e+00 -1.000000e+00
   outer loop
     vertex  8.788360e-01 -1.587302e-02 -5.555558e-02
     vertex -3.968254e-02 -4.126984e-01 -5.555558e-02
     vertex -3.968254e-02 -1.587302e-02 -5.555558e-02
   endloop
 endfacet
 facet normal  0.000000e+00 -0.000000e+00 -1.000000e+00
   outer loop
     vertex  8.788360e-01 -1.587302e-02 -5.555558e-02
     vertex  8.788360e-01 -4.126984e-01 -5.555558e-02
     vertex -3.968254e-02 -4.126984e-01 -5.555558e-02
   endloop
 endfacet
 facet normal -1.000000e+00  0.000000e+00  0.000000e+00
   outer loop
     vertex -3.968254e-02 -1.587302e-02 -5.555558e-02
     vertex -3.968254e-02 -4.126984e-01  1.518518e-01
     vertex -3.968254e-02 -1.587302e-02  1.518518e-01
   endloop
 endfacet
 facet normal -1.000000e+00  0.000000e+00  0.000000e+00
   outer loop
     vertex -3.968254e-02 -1.587302e-02 -5.555558e-02
     vertex -3.968254e-02 -4.126984e-01 -5.555558e-02
     vertex -3.968254e-02 -4.126984e-01  1.518518e-01
   endloop
 endfacet
 facet normal  1.000000e+00  0.000000e+00  0.000000e+00
   outer loop
     vertex  8.788360e-01 -1.587302e-02  1.518518e-01
     vertex  8.788360e-01 -4.126984e-01 -5.555558e-02
     vertex  8.788360e-01 -1.587302e-02 -5.555558e-02
   endloop
 endfacet
 facet normal  1.000000e+00  0.000000e+00  0.000000e+00
   outer loop
     vertex  8.788360e-01 -1.587302e-02  1.518518e-01
     vertex  8.788360e-01 -4.126984e-01  1.518518e-01
     vertex  8.788360e-01 -4.126984e-01 -5.555558e-02
   endloop
 endfacet
 facet normal  0.000000e+00  0.000000e+00 -1.000000e+00
   outer loop
     vertex  8.788360e-01 -1.587302e-02 -5.555558e-02
     vertex -3.968254e-02 -1.587302e-02 -5.555558e-02
     vertex -3.968254e-02  0.000000e+00 -5.555558e-02
   endloop
 endfacet
 facet normal  0.000000e+00  0.000000e+00 -1.000000e+00
   outer loop
     vertex  8.788360e-01 -1.587302e-02 -5.555558e-02
     vertex -3.968254e-02  0.000000e+00 -5.555558e-02
     vertex  8.788360e-01  0.000000e+00 -5.555558e-02
   endloop
 endfacet
 facet normal  0.000000e+00 -1.000000e+00 -0.000000e+00
   outer loop
     vertex  8.788360e-01 -4.126984e-01  1.518518e-01
     vertex -3.968254e-02 -4.126984e-01 -5.555558e-02
     vertex  8.788360e-01 -4.126984e-01 -5.555558e-02
   endloop
 endfacet
 facet normal -0.000000e+00 -1.000000e+00  0.000000e+00
   outer loop
     vertex  8.788360e-01 -4.126984e-01  1.518518e-01
     vertex -3.968254e-02 -4.126984e-01  1.518518e-01
     vertex -3.968254e-02 -4.126984e-01 -5.555558e-02
   endloop
 endfacet
 facet normal -0.000000e+00  0.000000e+00  1.000000e+00
   outer loop
     vertex -3.968254e-02 -1.587302e-02  1.518518e-01
     vertex  8.788360e-01 -4.126984e-01  1.518518e-01
     vertex  8.788360e-01 -1.587302e-02  1.518518e-01
   endloop
 endfacet
 facet normal  0.000000e+00  0.000000e+00  1.000000e+00
   outer loop
     vertex -3.968254e-02 -1.587302e-02  1.518518e-01
     vertex -3.968254e-02 -4.126984e-01  1.518518e-01
     vertex  8.788360e-01 -4.126984e-01  1.518518e-01
   endloop
 endfacet
 facet normal -1.000000e+00  0.000000e+00  0.000000e+00
   outer loop
     vertex -3.968254e-02 -1.587302e-02 -5.555558e-02
     vertex -3.968254e-02 -1.587302e-02  1.518518e-01
     vertex -3.968254e-02  0.000000e+00  1.518518e-01
   endloop
 endfacet
 facet normal -1.000000e+00  0.000000e+00  0.000000e+00
   outer loop
     vertex -3.968254e-02 -1.587302e-02 -5.555558e-02
     vertex -3.968254e-02  0.000000e+00  1.518518e-01
     vertex -3.968254e-02  0.000000e+00 -5.555558e-02
   endloop
 endfacet
 facet normal  1.000000e+00  0.000000e+00  0.000000e+00
   outer loop
     vertex  8.788360e-01 -1.587302e-02  1.518518e-01
     vertex  8.788360e-01 -1.587302e-02 -5.555558e-02
     vertex  8.788360e-01  0.000000e+00 -5.555558e-02
   endloop
 endfacet
 facet normal  1.000000e+00 -0.000000e+00  0.000000e+00
   outer loop
     vertex  8.788360e-01 -1.587302e-02  1.518518e-01
     vertex  8.788360e-01  0.000000e+00 -5.555558e-02
     vertex  8.788360e-01  0.000000e+00  1.518518e-01
   endloop
 endfacet
 facet normal  0.000000e+00  1.000000e+00  0.000000e+00
   outer loop
     vertex  8.788360e-01  1.040834e-17  1.518518e-01
     vertex  8.788360e-01  1.040834e-17 -5.555558e-02
     vertex -3.968254e-02  1.040834e-17 -5.555558e-02
   endloop
 endfacet
 facet normal  0.000000e+00  1.000000e+00  0.000000e+00
   outer loop
     vertex  8.788360e-01  1.040834e-17  1.518518e-01
     vertex -3.968254e-02  1.040834e-17 -5.555558e-02
     vertex -3.968254e-02  1.040834e-17  1.518518e-01
   endloop
 endfacet
 facet normal  0.000000e+00  0.000000e+00  1.000000e+00
   outer loop
     vertex -3.968254e-02 -1.587302e-02  1.518518e-01
     vertex  8.788360e-01 -1.587302e-02  1.518518e-01
     vertex  8.788360e-01  0.000000e+00  1.518518e-01
   endloop
 endfacet
 facet normal  0.000000e+00  0.000000e+00  1.000000e+00
   outer loop
     vertex -3.968254e-02 -1.587302e-02  1.518518e-01
     vertex  8.788360e-01  0.000000e+00  1.518518e-01
     vertex -3.968254e-02  0.000000e+00  1.518518e-01
   endloop
 endfacet
endsolid
