solid 
 facet normal  0.000000e+00  9.985827e-01  5.322217e-02
   outer loop
     vertex -1.587302e-02 -3.269784e-01  5.983747e-01
     vertex  6.984127e-01 -3.250441e-01  5.620812e-01
     vertex -1.587302e-02 -3.250441e-01  5.620812e-01
   endloop
 endfacet
 facet normal -0.000000e+00  9.985827e-01  5.322217e-02
   outer loop
     vertex -1.587302e-02 -3.269784e-01  5.983747e-01
     vertex  6.984127e-01 -3.269784e-01  5.983747e-01
     vertex  6.984127e-01 -3.250441e-01  5.620812e-01
   endloop
 endfacet
 facet normal -0.000000e+00  9.872684e-01  1.590635e-01
   outer loop
     vertex -1.587302e-02 -3.327596e-01  6.342570e-01
     vertex  6.984127e-01 -3.327596e-01  6.342570e-01
     vertex  6.984127e-01 -3.269784e-01  5.983747e-01
   endloop
 endfacet
 facet normal  0.000000e+00  9.872684e-01  1.590635e-01
   outer loop
     vertex -1.587302e-02 -3.327596e-01  6.342570e-01
     vertex  6.984127e-01 -3.269784e-01  5.983747e-01
     vertex -1.587302e-02 -3.269784e-01  5.983747e-01
   endloop
 endfacet
 facet normal -0.000000e+00  9.647679e-01  2.631026e-01
   outer loop
     vertex -1.587302e-02 -3.423221e-01  6.693215e-01
     vertex  6.984127e-01 -3.423221e-01  6.693215e-01
     vertex  6.984127e-01 -3.327596e-01  6.342570e-01
   endloop
 endfacet
 facet normal  0.000000e+00  9.647679e-01  2.631026e-01
   outer loop
     vertex -1.587302e-02 -3.423221e-01  6.693215e-01
     vertex  6.984127e-01 -3.327596e-01  6.342570e-01
     vertex -1.587302e-02 -3.327596e-01  6.342570e-01
   endloop
 endfacet
 facet normal -0.000000e+00  9.313362e-01  3.641606e-01
   outer loop
     vertex -1.587302e-02 -3.555575e-01  7.031709e-01
     vertex  6.984127e-01 -3.555575e-01  7.031709e-01
     vertex  6.984127e-01 -3.423221e-01  6.693215e-01
   endloop
 endfacet
 facet normal  0.000000e+00  9.313362e-01  3.641606e-01
   outer loop
     vertex -1.587302e-02 -3.555575e-01  7.031709e-01
     vertex  6.984127e-01 -3.423221e-01  6.693215e-01
     vertex -1.587302e-02 -3.423221e-01  6.693215e-01
   endloop
 endfacet
 facet normal -0.000000e+00  8.873521e-01  4.610925e-01
   outer loop
     vertex -1.587302e-02 -3.723159e-01  7.354218e-01
     vertex  6.984127e-01 -3.723159e-01  7.354218e-01
     vertex  6.984127e-01 -3.555575e-01  7.031709e-01
   endloop
 endfacet
 facet normal  0.000000e+00  8.873521e-01  4.610925e-01
   outer loop
     vertex -1.587302e-02 -3.723159e-01  7.354218e-01
     vertex  6.984127e-01 -3.555575e-01  7.031709e-01
     vertex -1.587302e-02 -3.555575e-01  7.031709e-01
   endloop
 endfacet
 facet normal -0.000000e+00  8.333139e-01  5.528001e-01
   outer loop
     vertex -1.587302e-02 -3.924074e-01  7.657086e-01
     vertex  6.984127e-01 -3.924074e-01  7.657086e-01
     vertex  6.984127e-01 -3.723159e-01  7.354218e-01
   endloop
 endfacet
 facet normal -0.000000e+00  7.698340e-01  6.382442e-01
   outer loop
     vertex -1.587302e-02 -3.924074e-01  7.657086e-01
     vertex  6.984127e-01 -4.156044e-01  7.936882e-01
     vertex  6.984127e-01 -3.924074e-01  7.657086e-01
   endloop
 endfacet
 facet normal  0.000000e+00  8.333139e-01  5.528001e-01
   outer loop
     vertex -1.587302e-02 -3.924074e-01  7.657086e-01
     vertex  6.984127e-01 -3.723159e-01  7.354218e-01
     vertex -1.587302e-02 -3.723159e-01  7.354218e-01
   endloop
 endfacet
 facet normal -0.000000e+00  7.698340e-01  6.382442e-01
   outer loop
     vertex -1.587302e-02 -4.156044e-01  7.936882e-01
     vertex  6.984127e-01 -4.156044e-01  7.936882e-01
     vertex -1.587302e-02 -3.924074e-01  7.657086e-01
   endloop
 endfacet
 facet normal -0.000000e+00  6.976315e-01  7.164567e-01
   outer loop
     vertex -1.587302e-02 -4.416441e-01  8.190436e-01
     vertex  6.984127e-01 -4.416441e-01  8.190436e-01
     vertex  6.984127e-01 -4.156044e-01  7.936882e-01
   endloop
 endfacet
 facet normal -0.000000e+00  6.175246e-01  7.865516e-01
   outer loop
     vertex -1.587302e-02 -4.416441e-01  8.190436e-01
     vertex  6.984127e-01 -4.702313e-01  8.414876e-01
     vertex  6.984127e-01 -4.416441e-01  8.190436e-01
   endloop
 endfacet
 facet normal  0.000000e+00  6.976315e-01  7.164567e-01
   outer loop
     vertex -1.587302e-02 -4.416441e-01  8.190436e-01
     vertex  6.984127e-01 -4.156044e-01  7.936882e-01
     vertex -1.587302e-02 -4.156044e-01  7.936882e-01
   endloop
 endfacet
 facet normal -0.000000e+00  6.175246e-01  7.865516e-01
   outer loop
     vertex -1.587302e-02 -4.702313e-01  8.414876e-01
     vertex  6.984127e-01 -4.702313e-01  8.414876e-01
     vertex -1.587302e-02 -4.416441e-01  8.190436e-01
   endloop
 endfacet
 facet normal -0.000000e+00  5.304209e-01  8.477344e-01
   outer loop
     vertex -1.587302e-02 -5.010422e-01  8.607657e-01
     vertex  6.984127e-01 -5.010422e-01  8.607657e-01
     vertex  6.984127e-01 -4.702313e-01  8.414876e-01
   endloop
 endfacet
 facet normal  0.000000e+00  5.304209e-01  8.477344e-01
   outer loop
     vertex -1.587302e-02 -5.010422e-01  8.607657e-01
     vertex  6.984127e-01 -4.702313e-01  8.414876e-01
     vertex -1.587302e-02 -4.702313e-01  8.414876e-01
   endloop
 endfacet
 facet normal -0.000000e+00  4.373073e-01  8.993121e-01
   outer loop
     vertex -1.587302e-02 -5.337277e-01  8.766597e-01
     vertex  6.984127e-01 -5.337277e-01  8.766597e-01
     vertex  6.984127e-01 -5.010422e-01  8.607657e-01
   endloop
 endfacet
 facet normal  0.000000e+00  4.373073e-01  8.993121e-01
   outer loop
     vertex -1.587302e-02 -5.337277e-01  8.766597e-01
     vertex  6.984127e-01 -5.010422e-01  8.607657e-01
     vertex -1.587302e-02 -5.010422e-01  8.607657e-01
   endloop
 endfacet
 facet normal -0.000000e+00  3.392389e-01  9.407003e-01
   outer loop
     vertex -1.587302e-02 -5.679175e-01  8.889893e-01
     vertex  6.984127e-01 -5.679175e-01  8.889893e-01
     vertex  6.984127e-01 -5.337277e-01  8.766597e-01
   endloop
 endfacet
 facet normal  0.000000e+00  3.392389e-01  9.407003e-01
   outer loop
     vertex -1.587302e-02 -5.679175e-01  8.889893e-01
     vertex  6.984127e-01 -5.337277e-01  8.766597e-01
     vertex -1.587302e-02 -5.337277e-01  8.766597e-01
   endloop
 endfacet
 facet normal -0.000000e+00  2.373267e-01  9.714299e-01
   outer loop
     vertex -1.587302e-02 -6.032242e-01  8.976150e-01
     vertex  6.984127e-01 -6.032242e-01  8.976150e-01
     vertex  6.984127e-01 -5.679175e-01  8.889893e-01
   endloop
 endfacet
 facet normal  0.000000e+00  2.373267e-01  9.714299e-01
   outer loop
     vertex -1.587302e-02 -6.032242e-01  8.976150e-01
     vertex  6.984127e-01 -5.679175e-01  8.889893e-01
     vertex -1.587302e-02 -5.679175e-01  8.889893e-01
   endloop
 endfacet
 facet normal -0.000000e+00  1.327255e-01  9.911528e-01
   outer loop
     vertex -1.587302e-02 -6.392476e-01  9.024389e-01
     vertex  6.984127e-01 -6.392476e-01  9.024389e-01
     vertex  6.984127e-01 -6.032242e-01  8.976150e-01
   endloop
 endfacet
 facet normal  0.000000e+00  1.327255e-01  9.911528e-01
   outer loop
     vertex -1.587302e-02 -6.392476e-01  9.024389e-01
     vertex  6.984127e-01 -6.032242e-01  8.976150e-01
     vertex -1.587302e-02 -6.032242e-01  8.976150e-01
   endloop
 endfacet
 facet normal -0.000000e+00  2.662052e-02  9.996456e-01
   outer loop
     vertex -1.587302e-02 -6.755798e-01  9.034064e-01
     vertex  6.984127e-01 -6.755798e-01  9.034064e-01
     vertex  6.984127e-01 -6.392476e-01  9.024389e-01
   endloop
 endfacet
 facet normal  0.000000e+00 -7.978611e-02  9.968120e-01
   outer loop
     vertex -1.587302e-02 -6.755798e-01  9.034064e-01
     vertex  6.984127e-01 -7.118089e-01  9.005066e-01
     vertex  6.984127e-01 -6.755798e-01  9.034064e-01
   endloop
 endfacet
 facet normal  0.000000e+00  2.662052e-02  9.996456e-01
   outer loop
     vertex -1.587302e-02 -6.755798e-01  9.034064e-01
     vertex  6.984127e-01 -6.392476e-01  9.024389e-01
     vertex -1.587302e-02 -6.392476e-01  9.024389e-01
   endloop
 endfacet
 facet normal  0.000000e+00 -7.978611e-02  9.968120e-01
   outer loop
     vertex -1.587302e-02 -7.118089e-01  9.005066e-01
     vertex  6.984127e-01 -7.118089e-01  9.005066e-01
     vertex -1.587302e-02 -6.755798e-01  9.034064e-01
   endloop
 endfacet
 facet normal  0.000000e+00 -1.852887e-01  9.826841e-01
   outer loop
     vertex -1.587302e-02 -7.475246e-01  8.937722e-01
     vertex  6.984127e-01 -7.475246e-01  8.937722e-01
     vertex  6.984127e-01 -7.118089e-01  9.005066e-01
   endloop
 endfacet
 facet normal  0.000000e+00 -1.852887e-01  9.826841e-01
   outer loop
     vertex -1.587302e-02 -7.475246e-01  8.937722e-01
     vertex  6.984127e-01 -7.118089e-01  9.005066e-01
     vertex -1.587302e-02 -7.118089e-01  9.005066e-01
   endloop
 endfacet
 facet normal  0.000000e+00 -2.886919e-01  9.574220e-01
   outer loop
     vertex -1.587302e-02 -7.823221e-01  8.832797e-01
     vertex  6.984127e-01 -7.823221e-01  8.832797e-01
     vertex  6.984127e-01 -7.475246e-01  8.937722e-01
   endloop
 endfacet
 facet normal  0.000000e+00 -2.886919e-01  9.574220e-01
   outer loop
     vertex -1.587302e-02 -7.823221e-01  8.832797e-01
     vertex  6.984127e-01 -7.475246e-01  8.937722e-01
     vertex -1.587302e-02 -7.475246e-01  8.937722e-01
   endloop
 endfacet
 facet normal  0.000000e+00 -3.888242e-01  9.213120e-01
   outer loop
     vertex -1.587302e-02 -8.158072e-01  8.691479e-01
     vertex  6.984127e-01 -8.158072e-01  8.691479e-01
     vertex  6.984127e-01 -7.823221e-01  8.832797e-01
   endloop
 endfacet
 facet normal  0.000000e+00 -3.888242e-01  9.213120e-01
   outer loop
     vertex -1.587302e-02 -8.158072e-01  8.691479e-01
     vertex  6.984127e-01 -7.823221e-01  8.832797e-01
     vertex -1.587302e-02 -7.823221e-01  8.832797e-01
   endloop
 endfacet
 facet normal  0.000000e+00 -4.845509e-01  8.747631e-01
   outer loop
     vertex -1.587302e-02 -8.476005e-01  8.515369e-01
     vertex  6.984127e-01 -8.158072e-01  8.691479e-01
     vertex -1.587302e-02 -8.158072e-01  8.691479e-01
   endloop
 endfacet
 facet normal  0.000000e+00 -4.845509e-01  8.747631e-01
   outer loop
     vertex -1.587302e-02 -8.476005e-01  8.515369e-01
     vertex  6.984127e-01 -8.476005e-01  8.515369e-01
     vertex  6.984127e-01 -8.158072e-01  8.691479e-01
   endloop
 endfacet
 facet normal  0.000000e+00 -5.747874e-01  8.183028e-01
   outer loop
     vertex -1.587302e-02 -8.773417e-01  8.306462e-01
     vertex  6.984127e-01 -8.476005e-01  8.515369e-01
     vertex -1.587302e-02 -8.476005e-01  8.515369e-01
   endloop
 endfacet
 facet normal  0.000000e+00 -5.747874e-01  8.183028e-01
   outer loop
     vertex -1.587302e-02 -8.773417e-01  8.306462e-01
     vertex  6.984127e-01 -8.773417e-01  8.306462e-01
     vertex  6.984127e-01 -8.476005e-01  8.515369e-01
   endloop
 endfacet
 facet normal  0.000000e+00 -6.585114e-01  7.525708e-01
   outer loop
     vertex -1.587302e-02 -9.046939e-01  8.067126e-01
     vertex  6.984127e-01 -8.773417e-01  8.306462e-01
     vertex -1.587302e-02 -8.773417e-01  8.306462e-01
   endloop
 endfacet
 facet normal  0.000000e+00 -6.585114e-01  7.525708e-01
   outer loop
     vertex -1.587302e-02 -9.046939e-01  8.067126e-01
     vertex  6.984127e-01 -9.046939e-01  8.067126e-01
     vertex  6.984127e-01 -8.773417e-01  8.306462e-01
   endloop
 endfacet
 facet normal  0.000000e+00 -7.347742e-01  6.783118e-01
   outer loop
     vertex -1.587302e-02 -9.293472e-01  7.800072e-01
     vertex  6.984127e-01 -9.046939e-01  8.067126e-01
     vertex -1.587302e-02 -9.046939e-01  8.067126e-01
   endloop
 endfacet
 facet normal  0.000000e+00 -7.347742e-01  6.783118e-01
   outer loop
     vertex -1.587302e-02 -9.293472e-01  7.800072e-01
     vertex  6.984127e-01 -9.293472e-01  7.800072e-01
     vertex  6.984127e-01 -9.046939e-01  8.067126e-01
   endloop
 endfacet
 facet normal  0.000000e+00 -8.027116e-01  5.963674e-01
   outer loop
     vertex -1.587302e-02 -9.293472e-01  7.800072e-01
     vertex  6.984127e-01 -9.510222e-01  7.508327e-01
     vertex  6.984127e-01 -9.293472e-01  7.800072e-01
   endloop
 endfacet
 facet normal  0.000000e+00 -8.027116e-01  5.963674e-01
   outer loop
     vertex -1.587302e-02 -9.510222e-01  7.508327e-01
     vertex  6.984127e-01 -9.510222e-01  7.508327e-01
     vertex -1.587302e-02 -9.293472e-01  7.800072e-01
   endloop
 endfacet
 facet normal  0.000000e+00 -8.615541e-01  5.076658e-01
   outer loop
     vertex -1.587302e-02 -9.694733e-01  7.195195e-01
     vertex  6.984127e-01 -9.510222e-01  7.508327e-01
     vertex -1.587302e-02 -9.510222e-01  7.508327e-01
   endloop
 endfacet
 facet normal  0.000000e+00 -8.615541e-01  5.076658e-01
   outer loop
     vertex -1.587302e-02 -9.694733e-01  7.195195e-01
     vertex  6.984127e-01 -9.694733e-01  7.195195e-01
     vertex  6.984127e-01 -9.510222e-01  7.508327e-01
   endloop
 endfacet
 facet normal  0.000000e+00 -9.106348e-01  4.132122e-01
   outer loop
     vertex -1.587302e-02 -9.844915e-01  6.864224e-01
     vertex  6.984127e-01 -9.844915e-01  6.864224e-01
     vertex  6.984127e-01 -9.694733e-01  7.195195e-01
   endloop
 endfacet
 facet normal  0.000000e+00 -9.106348e-01  4.132122e-01
   outer loop
     vertex -1.587302e-02 -9.844915e-01  6.864224e-01
     vertex  6.984127e-01 -9.694733e-01  7.195195e-01
     vertex -1.587302e-02 -9.694733e-01  7.195195e-01
   endloop
 endfacet
 facet normal  0.000000e+00 -9.493976e-01  3.140767e-01
   outer loop
     vertex -1.587302e-02 -9.959066e-01  6.519166e-01
     vertex  6.984127e-01 -9.959066e-01  6.519166e-01
     vertex  6.984127e-01 -9.844915e-01  6.864224e-01
   endloop
 endfacet
 facet normal  0.000000e+00 -9.493976e-01  3.140767e-01
   outer loop
     vertex -1.587302e-02 -9.959066e-01  6.519166e-01
     vertex  6.984127e-01 -9.844915e-01  6.864224e-01
     vertex -1.587302e-02 -9.844915e-01  6.864224e-01
   endloop
 endfacet
 facet normal  0.000000e+00 -9.774034e-01  2.113826e-01
   outer loop
     vertex -1.587302e-02 -1.003589e+00  6.163928e-01
     vertex  6.984127e-01 -1.003589e+00  6.163928e-01
     vertex  6.984127e-01 -9.959066e-01  6.519166e-01
   endloop
 endfacet
 facet normal  0.000000e+00 -9.774034e-01  2.113826e-01
   outer loop
     vertex -1.587302e-02 -1.003589e+00  6.163928e-01
     vertex  6.984127e-01 -9.959066e-01  6.519166e-01
     vertex -1.587302e-02 -9.959066e-01  6.519166e-01
   endloop
 endfacet
 facet normal  0.000000e+00 -9.943348e-01  1.062935e-01
   outer loop
     vertex -1.587302e-02 -1.007453e+00  5.802537e-01
     vertex  6.984127e-01 -1.007453e+00  5.802537e-01
     vertex  6.984127e-01 -1.003589e+00  6.163928e-01
   endloop
 endfacet
 facet normal  0.000000e+00 -1.000000e+00  0.000000e+00
   outer loop
     vertex -1.587302e-02 -1.007453e+00  5.802537e-01
     vertex  6.984127e-01 -1.007453e+00  5.439087e-01
     vertex  6.984127e-01 -1.007453e+00  5.802537e-01
   endloop
 endfacet
 facet normal  0.000000e+00 -9.943348e-01  1.062935e-01
   outer loop
     vertex -1.587302e-02 -1.007453e+00  5.802537e-01
     vertex  6.984127e-01 -1.003589e+00  6.163928e-01
     vertex -1.587302e-02 -1.003589e+00  6.163928e-01
   endloop
 endfacet
 facet normal  0.000000e+00 -9.943348e-01 -1.062935e-01
   outer loop
     vertex -1.587302e-02 -1.007453e+00  5.439087e-01
     vertex  6.984127e-01 -1.003589e+00  5.077696e-01
     vertex  6.984127e-01 -1.007453e+00  5.439087e-01
   endloop
 endfacet
 facet normal  0.000000e+00 -1.000000e+00  0.000000e+00
   outer loop
     vertex -1.587302e-02 -1.007453e+00  5.439087e-01
     vertex  6.984127e-01 -1.007453e+00  5.439087e-01
     vertex -1.587302e-02 -1.007453e+00  5.802537e-01
   endloop
 endfacet
 facet normal  0.000000e+00 -9.943348e-01 -1.062935e-01
   outer loop
     vertex -1.587302e-02 -1.003589e+00  5.077696e-01
     vertex  6.984127e-01 -1.003589e+00  5.077696e-01
     vertex -1.587302e-02 -1.007453e+00  5.439087e-01
   endloop
 endfacet
 facet normal  0.000000e+00 -9.774034e-01 -2.113826e-01
   outer loop
     vertex -1.587302e-02 -9.959066e-01  4.722458e-01
     vertex  6.984127e-01 -9.959066e-01  4.722458e-01
     vertex  6.984127e-01 -1.003589e+00  5.077696e-01
   endloop
 endfacet
 facet normal  0.000000e+00 -9.774034e-01 -2.113826e-01
   outer loop
     vertex -1.587302e-02 -9.959066e-01  4.722458e-01
     vertex  6.984127e-01 -1.003589e+00  5.077696e-01
     vertex -1.587302e-02 -1.003589e+00  5.077696e-01
   endloop
 endfacet
 facet normal  0.000000e+00 -9.493976e-01 -3.140767e-01
   outer loop
     vertex -1.587302e-02 -9.844915e-01  4.377399e-01
     vertex  6.984127e-01 -9.844915e-01  4.377399e-01
     vertex  6.984127e-01 -9.959066e-01  4.722458e-01
   endloop
 endfacet
 facet normal  0.000000e+00 -9.493976e-01 -3.140767e-01
   outer loop
     vertex -1.587302e-02 -9.844915e-01  4.377399e-01
     vertex  6.984127e-01 -9.959066e-01  4.722458e-01
     vertex -1.587302e-02 -9.959066e-01  4.722458e-01
   endloop
 endfacet
 facet normal  0.000000e+00 -9.106348e-01 -4.132122e-01
   outer loop
     vertex -1.587302e-02 -9.694733e-01  4.046429e-01
     vertex  6.984127e-01 -9.694733e-01  4.046429e-01
     vertex  6.984127e-01 -9.844915e-01  4.377399e-01
   endloop
 endfacet
 facet normal  0.000000e+00 -9.106348e-01 -4.132122e-01
   outer loop
     vertex -1.587302e-02 -9.694733e-01  4.046429e-01
     vertex  6.984127e-01 -9.844915e-01  4.377399e-01
     vertex -1.587302e-02 -9.844915e-01  4.377399e-01
   endloop
 endfacet
 facet normal  0.000000e+00 -8.615541e-01 -5.076658e-01
   outer loop
     vertex -1.587302e-02 -9.510222e-01  3.733297e-01
     vertex  6.984127e-01 -9.510222e-01  3.733297e-01
     vertex  6.984127e-01 -9.694733e-01  4.046429e-01
   endloop
 endfacet
 facet normal  0.000000e+00 -8.615541e-01 -5.076658e-01
   outer loop
     vertex -1.587302e-02 -9.510222e-01  3.733297e-01
     vertex  6.984127e-01 -9.694733e-01  4.046429e-01
     vertex -1.587302e-02 -9.694733e-01  4.046429e-01
   endloop
 endfacet
 facet normal  0.000000e+00 -8.027116e-01 -5.963674e-01
   outer loop
     vertex -1.587302e-02 -9.293472e-01  3.441551e-01
     vertex  6.984127e-01 -9.293472e-01  3.441551e-01
     vertex  6.984127e-01 -9.510222e-01  3.733297e-01
   endloop
 endfacet
 facet normal  0.000000e+00 -8.027116e-01 -5.963674e-01
   outer loop
     vertex -1.587302e-02 -9.293472e-01  3.441551e-01
     vertex  6.984127e-01 -9.510222e-01  3.733297e-01
     vertex -1.587302e-02 -9.510222e-01  3.733297e-01
   endloop
 endfacet
 facet normal  0.000000e+00 -7.347742e-01 -6.783118e-01
   outer loop
     vertex -1.587302e-02 -9.046939e-01  3.174497e-01
     vertex  6.984127e-01 -9.046939e-01  3.174497e-01
     vertex  6.984127e-01 -9.293472e-01  3.441551e-01
   endloop
 endfacet
 facet normal  0.000000e+00 -7.347742e-01 -6.783118e-01
   outer loop
     vertex -1.587302e-02 -9.046939e-01  3.174497e-01
     vertex  6.984127e-01 -9.293472e-01  3.441551e-01
     vertex -1.587302e-02 -9.293472e-01  3.441551e-01
   endloop
 endfacet
 facet normal  0.000000e+00 -6.585114e-01 -7.525708e-01
   outer loop
     vertex -1.587302e-02 -8.773417e-01  2.935161e-01
     vertex  6.984127e-01 -8.773417e-01  2.935161e-01
     vertex  6.984127e-01 -9.046939e-01  3.174497e-01
   endloop
 endfacet
 facet normal  0.000000e+00 -5.747874e-01 -8.183028e-01
   outer loop
     vertex -1.587302e-02 -8.773417e-01  2.935161e-01
     vertex  6.984127e-01 -8.476005e-01  2.726255e-01
     vertex  6.984127e-01 -8.773417e-01  2.935161e-01
   endloop
 endfacet
 facet normal  0.000000e+00 -6.585114e-01 -7.525708e-01
   outer loop
     vertex -1.587302e-02 -8.773417e-01  2.935161e-01
     vertex  6.984127e-01 -9.046939e-01  3.174497e-01
     vertex -1.587302e-02 -9.046939e-01  3.174497e-01
   endloop
 endfacet
 facet normal  0.000000e+00 -5.747874e-01 -8.183028e-01
   outer loop
     vertex -1.587302e-02 -8.476005e-01  2.726255e-01
     vertex  6.984127e-01 -8.476005e-01  2.726255e-01
     vertex -1.587302e-02 -8.773417e-01  2.935161e-01
   endloop
 endfacet
 facet normal  0.000000e+00 -4.845509e-01 -8.747631e-01
   outer loop
     vertex -1.587302e-02 -8.158072e-01  2.550145e-01
     vertex  6.984127e-01 -8.158072e-01  2.550145e-01
     vertex  6.984127e-01 -8.476005e-01  2.726255e-01
   endloop
 endfacet
 facet normal  0.000000e+00 -4.845509e-01 -8.747631e-01
   outer loop
     vertex -1.587302e-02 -8.158072e-01  2.550145e-01
     vertex  6.984127e-01 -8.476005e-01  2.726255e-01
     vertex -1.587302e-02 -8.476005e-01  2.726255e-01
   endloop
 endfacet
 facet normal  0.000000e+00 -3.888242e-01 -9.213120e-01
   outer loop
     vertex -1.587302e-02 -7.823221e-01  2.408826e-01
     vertex  6.984127e-01 -7.823221e-01  2.408826e-01
     vertex  6.984127e-01 -8.158072e-01  2.550145e-01
   endloop
 endfacet
 facet normal  0.000000e+00 -2.886919e-01 -9.574220e-01
   outer loop
     vertex -1.587302e-02 -7.823221e-01  2.408826e-01
     vertex  6.984127e-01 -7.475246e-01  2.303901e-01
     vertex  6.984127e-01 -7.823221e-01  2.408826e-01
   endloop
 endfacet
 facet normal  0.000000e+00 -3.888242e-01 -9.213120e-01
   outer loop
     vertex -1.587302e-02 -7.823221e-01  2.408826e-01
     vertex  6.984127e-01 -8.158072e-01  2.550145e-01
     vertex -1.587302e-02 -8.158072e-01  2.550145e-01
   endloop
 endfacet
 facet normal  0.000000e+00 -2.886919e-01 -9.574220e-01
   outer loop
     vertex -1.587302e-02 -7.475246e-01  2.303901e-01
     vertex  6.984127e-01 -7.475246e-01  2.303901e-01
     vertex -1.587302e-02 -7.823221e-01  2.408826e-01
   endloop
 endfacet
 facet normal  0.000000e+00 -1.852887e-01 -9.826841e-01
   outer loop
     vertex -1.587302e-02 -7.118089e-01  2.236558e-01
     vertex  6.984127e-01 -7.118089e-01  2.236558e-01
     vertex  6.984127e-01 -7.475246e-01  2.303901e-01
   endloop
 endfacet
 facet normal  0.000000e+00 -1.852887e-01 -9.826841e-01
   outer loop
     vertex -1.587302e-02 -7.118089e-01  2.236558e-01
     vertex  6.984127e-01 -7.475246e-01  2.303901e-01
     vertex -1.587302e-02 -7.475246e-01  2.303901e-01
   endloop
 endfacet
 facet normal  0.000000e+00 -7.978611e-02 -9.968120e-01
   outer loop
     vertex -1.587302e-02 -6.755798e-01  2.207560e-01
     vertex  6.984127e-01 -6.755798e-01  2.207560e-01
     vertex  6.984127e-01 -7.118089e-01  2.236558e-01
   endloop
 endfacet
 facet normal  0.000000e+00 -7.978611e-02 -9.968120e-01
   outer loop
     vertex -1.587302e-02 -6.755798e-01  2.207560e-01
     vertex  6.984127e-01 -7.118089e-01  2.236558e-01
     vertex -1.587302e-02 -7.118089e-01  2.236558e-01
   endloop
 endfacet
 facet normal  0.000000e+00  2.662052e-02 -9.996456e-01
   outer loop
     vertex -1.587302e-02 -6.392476e-01  2.217235e-01
     vertex  6.984127e-01 -6.755798e-01  2.207560e-01
     vertex -1.587302e-02 -6.755798e-01  2.207560e-01
   endloop
 endfacet
 facet normal  0.000000e+00  2.662052e-02 -9.996456e-01
   outer loop
     vertex -1.587302e-02 -6.392476e-01  2.217235e-01
     vertex  6.984127e-01 -6.392476e-01  2.217235e-01
     vertex  6.984127e-01 -6.755798e-01  2.207560e-01
   endloop
 endfacet
 facet normal  0.000000e+00  1.327255e-01 -9.911528e-01
   outer loop
     vertex -1.587302e-02 -6.032242e-01  2.265474e-01
     vertex  6.984127e-01 -6.392476e-01  2.217235e-01
     vertex -1.587302e-02 -6.392476e-01  2.217235e-01
   endloop
 endfacet
 facet normal  0.000000e+00  1.327255e-01 -9.911528e-01
   outer loop
     vertex -1.587302e-02 -6.032242e-01  2.265474e-01
     vertex  6.984127e-01 -6.032242e-01  2.265474e-01
     vertex  6.984127e-01 -6.392476e-01  2.217235e-01
   endloop
 endfacet
 facet normal  0.000000e+00  2.373267e-01 -9.714299e-01
   outer loop
     vertex -1.587302e-02 -6.032242e-01  2.265474e-01
     vertex  6.984127e-01 -5.679175e-01  2.351731e-01
     vertex  6.984127e-01 -6.032242e-01  2.265474e-01
   endloop
 endfacet
 facet normal  0.000000e+00  2.373267e-01 -9.714299e-01
   outer loop
     vertex -1.587302e-02 -5.679175e-01  2.351731e-01
     vertex  6.984127e-01 -5.679175e-01  2.351731e-01
     vertex -1.587302e-02 -6.032242e-01  2.265474e-01
   endloop
 endfacet
 facet normal  0.000000e+00  3.392389e-01 -9.407003e-01
   outer loop
     vertex -1.587302e-02 -5.679175e-01  2.351731e-01
     vertex  6.984127e-01 -5.337277e-01  2.475027e-01
     vertex  6.984127e-01 -5.679175e-01  2.351731e-01
   endloop
 endfacet
 facet normal  0.000000e+00  3.392389e-01 -9.407003e-01
   outer loop
     vertex -1.587302e-02 -5.337277e-01  2.475027e-01
     vertex  6.984127e-01 -5.337277e-01  2.475027e-01
     vertex -1.587302e-02 -5.679175e-01  2.351731e-01
   endloop
 endfacet
 facet normal  0.000000e+00  4.373073e-01 -8.993121e-01
   outer loop
     vertex -1.587302e-02 -5.010422e-01  2.633966e-01
     vertex  6.984127e-01 -5.337277e-01  2.475027e-01
     vertex -1.587302e-02 -5.337277e-01  2.475027e-01
   endloop
 endfacet
 facet normal  0.000000e+00  4.373073e-01 -8.993121e-01
   outer loop
     vertex -1.587302e-02 -5.010422e-01  2.633966e-01
     vertex  6.984127e-01 -5.010422e-01  2.633966e-01
     vertex  6.984127e-01 -5.337277e-01  2.475027e-01
   endloop
 endfacet
 facet normal  0.000000e+00  5.304209e-01 -8.477344e-01
   outer loop
     vertex -1.587302e-02 -5.010422e-01  2.633966e-01
     vertex  6.984127e-01 -4.702313e-01  2.826748e-01
     vertex  6.984127e-01 -5.010422e-01  2.633966e-01
   endloop
 endfacet
 facet normal  0.000000e+00  5.304209e-01 -8.477344e-01
   outer loop
     vertex -1.587302e-02 -4.702313e-01  2.826748e-01
     vertex  6.984127e-01 -4.702313e-01  2.826748e-01
     vertex -1.587302e-02 -5.010422e-01  2.633966e-01
   endloop
 endfacet
 facet normal  0.000000e+00  6.175246e-01 -7.865516e-01
   outer loop
     vertex -1.587302e-02 -4.416441e-01  3.051187e-01
     vertex  6.984127e-01 -4.702313e-01  2.826748e-01
     vertex -1.587302e-02 -4.702313e-01  2.826748e-01
   endloop
 endfacet
 facet normal  0.000000e+00  6.175246e-01 -7.865516e-01
   outer loop
     vertex -1.587302e-02 -4.416441e-01  3.051187e-01
     vertex  6.984127e-01 -4.416441e-01  3.051187e-01
     vertex  6.984127e-01 -4.702313e-01  2.826748e-01
   endloop
 endfacet
 facet normal  0.000000e+00  6.976315e-01 -7.164567e-01
   outer loop
     vertex -1.587302e-02 -4.416441e-01  3.051187e-01
     vertex  6.984127e-01 -4.156044e-01  3.304742e-01
     vertex  6.984127e-01 -4.416441e-01  3.051187e-01
   endloop
 endfacet
 facet normal  0.000000e+00  6.976315e-01 -7.164567e-01
   outer loop
     vertex -1.587302e-02 -4.156044e-01  3.304742e-01
     vertex  6.984127e-01 -4.156044e-01  3.304742e-01
     vertex -1.587302e-02 -4.416441e-01  3.051187e-01
   endloop
 endfacet
 facet normal  0.000000e+00  7.698340e-01 -6.382442e-01
   outer loop
     vertex -1.587302e-02 -3.924074e-01  3.584538e-01
     vertex  6.984127e-01 -4.156044e-01  3.304742e-01
     vertex -1.587302e-02 -4.156044e-01  3.304742e-01
   endloop
 endfacet
 facet normal  0.000000e+00  7.698340e-01 -6.382442e-01
   outer loop
     vertex -1.587302e-02 -3.924074e-01  3.584538e-01
     vertex  6.984127e-01 -3.924074e-01  3.584538e-01
     vertex  6.984127e-01 -4.156044e-01  3.304742e-01
   endloop
 endfacet
 facet normal  0.000000e+00  8.333139e-01 -5.528001e-01
   outer loop
     vertex -1.587302e-02 -3.924074e-01  3.584538e-01
     vertex  6.984127e-01 -3.723159e-01  3.887406e-01
     vertex  6.984127e-01 -3.924074e-01  3.584538e-01
   endloop
 endfacet
 facet normal  0.000000e+00  8.333139e-01 -5.528001e-01
   outer loop
     vertex -1.587302e-02 -3.723159e-01  3.887406e-01
     vertex  6.984127e-01 -3.723159e-01  3.887406e-01
     vertex -1.587302e-02 -3.924074e-01  3.584538e-01
   endloop
 endfacet
 facet normal  0.000000e+00  8.873521e-01 -4.610925e-01
   outer loop
     vertex -1.587302e-02 -3.555575e-01  4.209914e-01
     vertex  6.984127e-01 -3.723159e-01  3.887406e-01
     vertex -1.587302e-02 -3.723159e-01  3.887406e-01
   endloop
 endfacet
 facet normal  0.000000e+00  8.873521e-01 -4.610925e-01
   outer loop
     vertex -1.587302e-02 -3.555575e-01  4.209914e-01
     vertex  6.984127e-01 -3.555575e-01  4.209914e-01
     vertex  6.984127e-01 -3.723159e-01  3.887406e-01
   endloop
 endfacet
 facet normal  0.000000e+00  9.313362e-01 -3.641606e-01
   outer loop
     vertex -1.587302e-02 -3.555575e-01  4.209914e-01
     vertex  6.984127e-01 -3.423221e-01  4.548409e-01
     vertex  6.984127e-01 -3.555575e-01  4.209914e-01
   endloop
 endfacet
 facet normal  0.000000e+00  9.313362e-01 -3.641606e-01
   outer loop
     vertex -1.587302e-02 -3.423221e-01  4.548409e-01
     vertex  6.984127e-01 -3.423221e-01  4.548409e-01
     vertex -1.587302e-02 -3.555575e-01  4.209914e-01
   endloop
 endfacet
 facet normal  0.000000e+00  9.647679e-01 -2.631026e-01
   outer loop
     vertex -1.587302e-02 -3.327596e-01  4.899054e-01
     vertex  6.984127e-01 -3.423221e-01  4.548409e-01
     vertex -1.587302e-02 -3.423221e-01  4.548409e-01
   endloop
 endfacet
 facet normal  0.000000e+00  9.647679e-01 -2.631026e-01
   outer loop
     vertex -1.587302e-02 -3.327596e-01  4.899054e-01
     vertex  6.984127e-01 -3.327596e-01  4.899054e-01
     vertex  6.984127e-01 -3.423221e-01  4.548409e-01
   endloop
 endfacet
 facet normal  0.000000e+00  9.872684e-01 -1.590635e-01
   outer loop
     vertex -1.587302e-02 -3.269784e-01  5.257877e-01
     vertex  6.984127e-01 -3.327596e-01  4.899054e-01
     vertex -1.587302e-02 -3.327596e-01  4.899054e-01
   endloop
 endfacet
 facet normal  0.000000e+00  9.872684e-01 -1.590635e-01
   outer loop
     vertex -1.587302e-02 -3.269784e-01  5.257877e-01
     vertex  6.984127e-01 -3.269784e-01  5.257877e-01
     vertex  6.984127e-01 -3.327596e-01  4.899054e-01
   endloop
 endfacet
 facet normal  0.000000e+00  9.985827e-01 -5.322217e-02
   outer loop
     vertex -1.587302e-02 -3.250441e-01  5.620812e-01
     vertex  6.984127e-01 -3.269784e-01  5.257877e-01
     vertex -1.587302e-02 -3.269784e-01  5.257877e-01
   endloop
 endfacet
 facet normal  0.000000e+00  9.985827e-01 -5.322217e-02
   outer loop
     vertex -1.587302e-02 -3.250441e-01  5.620812e-01
     vertex  6.984127e-01 -3.250441e-01  5.620812e-01
     vertex  6.984127e-01 -3.269784e-01  5.257877e-01
   endloop
 endfacet
 facet normal  0.000000e+00  9.985827e-01  5.322217e-02
   outer loop
     vertex -1.587302e-02 -3.269784e-01  5.983747e-01
     vertex -1.587302e-02 -3.250441e-01  5.620812e-01
     vertex -3.174603e-02 -3.250441e-01  5.620812e-01
   endloop
 endfacet
 facet normal  0.000000e+00  9.985827e-01  5.322217e-02
   outer loop
     vertex -1.587302e-02 -3.269784e-01  5.983747e-01
     vertex -3.174603e-02 -3.250441e-01  5.620812e-01
     vertex -3.174603e-02 -3.269784e-01  5.983747e-01
   endloop
 endfacet
 facet normal  0.000000e+00  9.872684e-01  1.590635e-01
   outer loop
     vertex -1.587302e-02 -3.327596e-01  6.342570e-01
     vertex -3.174603e-02 -3.269784e-01  5.983747e-01
     vertex -3.174603e-02 -3.327596e-01  6.342570e-01
   endloop
 endfacet
 facet normal  0.000000e+00  9.872684e-01  1.590635e-01
   outer loop
     vertex -1.587302e-02 -3.327596e-01  6.342570e-01
     vertex -1.587302e-02 -3.269784e-01  5.983747e-01
     vertex -3.174603e-02 -3.269784e-01  5.983747e-01
   endloop
 endfacet
 facet normal  0.000000e+00  9.647679e-01  2.631026e-01
   outer loop
     vertex -1.587302e-02 -3.423221e-01  6.693215e-01
     vertex -3.174603e-02 -3.327596e-01  6.342570e-01
     vertex -3.174603e-02 -3.423221e-01  6.693215e-01
   endloop
 endfacet
 facet normal  0.000000e+00  9.647679e-01  2.631026e-01
   outer loop
     vertex -1.587302e-02 -3.423221e-01  6.693215e-01
     vertex -1.587302e-02 -3.327596e-01  6.342570e-01
     vertex -3.174603e-02 -3.327596e-01  6.342570e-01
   endloop
 endfacet
 facet normal  0.000000e+00  9.313362e-01  3.641606e-01
   outer loop
     vertex -1.587302e-02 -3.555575e-01  7.031709e-01
     vertex -3.174603e-02 -3.423221e-01  6.693215e-01
     vertex -3.174603e-02 -3.555575e-01  7.031709e-01
   endloop
 endfacet
 facet normal  0.000000e+00  9.313362e-01  3.641606e-01
   outer loop
     vertex -1.587302e-02 -3.555575e-01  7.031709e-01
     vertex -1.587302e-02 -3.423221e-01  6.693215e-01
     vertex -3.174603e-02 -3.423221e-01  6.693215e-01
   endloop
 endfacet
 facet normal  0.000000e+00  8.873521e-01  4.610925e-01
   outer loop
     vertex -1.587302e-02 -3.723159e-01  7.354218e-01
     vertex -3.174603e-02 -3.555575e-01  7.031709e-01
     vertex -3.174603e-02 -3.723159e-01  7.354218e-01
   endloop
 endfacet
 facet normal  0.000000e+00  8.873521e-01  4.610925e-01
   outer loop
     vertex -1.587302e-02 -3.723159e-01  7.354218e-01
     vertex -1.587302e-02 -3.555575e-01  7.031709e-01
     vertex -3.174603e-02 -3.555575e-01  7.031709e-01
   endloop
 endfacet
 facet normal  0.000000e+00  8.333139e-01  5.528001e-01
   outer loop
     vertex -1.587302e-02 -3.924074e-01  7.657086e-01
     vertex -3.174603e-02 -3.723159e-01  7.354218e-01
     vertex -3.174603e-02 -3.924074e-01  7.657086e-01
   endloop
 endfacet
 facet normal  0.000000e+00  8.333139e-01  5.528001e-01
   outer loop
     vertex -1.587302e-02 -3.924074e-01  7.657086e-01
     vertex -1.587302e-02 -3.723159e-01  7.354218e-01
     vertex -3.174603e-02 -3.723159e-01  7.354218e-01
   endloop
 endfacet
 facet normal  0.000000e+00  7.698340e-01  6.382442e-01
   outer loop
     vertex -1.587302e-02 -4.156044e-01  7.936882e-01
     vertex -3.174603e-02 -3.924074e-01  7.657086e-01
     vertex -3.174603e-02 -4.156044e-01  7.936882e-01
   endloop
 endfacet
 facet normal  0.000000e+00  7.698340e-01  6.382442e-01
   outer loop
     vertex -1.587302e-02 -4.156044e-01  7.936882e-01
     vertex -1.587302e-02 -3.924074e-01  7.657086e-01
     vertex -3.174603e-02 -3.924074e-01  7.657086e-01
   endloop
 endfacet
 facet normal  0.000000e+00  6.976315e-01  7.164567e-01
   outer loop
     vertex -1.587302e-02 -4.416441e-01  8.190436e-01
     vertex -3.174603e-02 -4.156044e-01  7.936882e-01
     vertex -3.174603e-02 -4.416441e-01  8.190436e-01
   endloop
 endfacet
 facet normal  0.000000e+00  6.976315e-01  7.164567e-01
   outer loop
     vertex -1.587302e-02 -4.416441e-01  8.190436e-01
     vertex -1.587302e-02 -4.156044e-01  7.936882e-01
     vertex -3.174603e-02 -4.156044e-01  7.936882e-01
   endloop
 endfacet
 facet normal  0.000000e+00  6.175246e-01  7.865516e-01
   outer loop
     vertex -1.587302e-02 -4.702313e-01  8.414876e-01
     vertex -3.174603e-02 -4.416441e-01  8.190436e-01
     vertex -3.174603e-02 -4.702313e-01  8.414876e-01
   endloop
 endfacet
 facet normal  0.000000e+00  6.175246e-01  7.865516e-01
   outer loop
     vertex -1.587302e-02 -4.702313e-01  8.414876e-01
     vertex -1.587302e-02 -4.416441e-01  8.190436e-01
     vertex -3.174603e-02 -4.416441e-01  8.190436e-01
   endloop
 endfacet
 facet normal  0.000000e+00  5.304209e-01  8.477344e-01
   outer loop
     vertex -1.587302e-02 -5.010422e-01  8.607657e-01
     vertex -3.174603e-02 -4.702313e-01  8.414876e-01
     vertex -3.174603e-02 -5.010422e-01  8.607657e-01
   endloop
 endfacet
 facet normal  0.000000e+00  5.304209e-01  8.477344e-01
   outer loop
     vertex -1.587302e-02 -5.010422e-01  8.607657e-01
     vertex -1.587302e-02 -4.702313e-01  8.414876e-01
     vertex -3.174603e-02 -4.702313e-01  8.414876e-01
   endloop
 endfacet
 facet normal  0.000000e+00  4.373073e-01  8.993121e-01
   outer loop
     vertex -1.587302e-02 -5.337277e-01  8.766597e-01
     vertex -3.174603e-02 -5.010422e-01  8.607657e-01
     vertex -3.174603e-02 -5.337277e-01  8.766597e-01
   endloop
 endfacet
 facet normal  0.000000e+00  4.373073e-01  8.993121e-01
   outer loop
     vertex -1.587302e-02 -5.337277e-01  8.766597e-01
     vertex -1.587302e-02 -5.010422e-01  8.607657e-01
     vertex -3.174603e-02 -5.010422e-01  8.607657e-01
   endloop
 endfacet
 facet normal  0.000000e+00  3.392389e-01  9.407003e-01
   outer loop
     vertex -1.587302e-02 -5.679175e-01  8.889893e-01
     vertex -3.174603e-02 -5.337277e-01  8.766597e-01
     vertex -3.174603e-02 -5.679175e-01  8.889893e-01
   endloop
 endfacet
 facet normal  0.000000e+00  3.392389e-01  9.407003e-01
   outer loop
     vertex -1.587302e-02 -5.679175e-01  8.889893e-01
     vertex -1.587302e-02 -5.337277e-01  8.766597e-01
     vertex -3.174603e-02 -5.337277e-01  8.766597e-01
   endloop
 endfacet
 facet normal  0.000000e+00  2.373267e-01  9.714299e-01
   outer loop
     vertex -1.587302e-02 -6.032242e-01  8.976150e-01
     vertex -3.174603e-02 -5.679175e-01  8.889893e-01
     vertex -3.174603e-02 -6.032242e-01  8.976150e-01
   endloop
 endfacet
 facet normal  0.000000e+00  2.373267e-01  9.714299e-01
   outer loop
     vertex -1.587302e-02 -6.032242e-01  8.976150e-01
     vertex -1.587302e-02 -5.679175e-01  8.889893e-01
     vertex -3.174603e-02 -5.679175e-01  8.889893e-01
   endloop
 endfacet
 facet normal  0.000000e+00  1.327255e-01  9.911528e-01
   outer loop
     vertex -1.587302e-02 -6.392476e-01  9.024389e-01
     vertex -3.174603e-02 -6.032242e-01  8.976150e-01
     vertex -3.174603e-02 -6.392476e-01  9.024389e-01
   endloop
 endfacet
 facet normal  0.000000e+00  1.327255e-01  9.911528e-01
   outer loop
     vertex -1.587302e-02 -6.392476e-01  9.024389e-01
     vertex -1.587302e-02 -6.032242e-01  8.976150e-01
     vertex -3.174603e-02 -6.032242e-01  8.976150e-01
   endloop
 endfacet
 facet normal  0.000000e+00  2.662052e-02  9.996456e-01
   outer loop
     vertex -1.587302e-02 -6.755798e-01  9.034064e-01
     vertex -3.174603e-02 -6.392476e-01  9.024389e-01
     vertex -3.174603e-02 -6.755798e-01  9.034064e-01
   endloop
 endfacet
 facet normal  0.000000e+00  2.662052e-02  9.996456e-01
   outer loop
     vertex -1.587302e-02 -6.755798e-01  9.034064e-01
     vertex -1.587302e-02 -6.392476e-01  9.024389e-01
     vertex -3.174603e-02 -6.392476e-01  9.024389e-01
   endloop
 endfacet
 facet normal  0.000000e+00 -7.978611e-02  9.968120e-01
   outer loop
     vertex -1.587302e-02 -7.118089e-01  9.005066e-01
     vertex -3.174603e-02 -6.755798e-01  9.034064e-01
     vertex -3.174603e-02 -7.118089e-01  9.005066e-01
   endloop
 endfacet
 facet normal  0.000000e+00 -7.978611e-02  9.968120e-01
   outer loop
     vertex -1.587302e-02 -7.118089e-01  9.005066e-01
     vertex -1.587302e-02 -6.755798e-01  9.034064e-01
     vertex -3.174603e-02 -6.755798e-01  9.034064e-01
   endloop
 endfacet
 facet normal  0.000000e+00 -1.852887e-01  9.826841e-01
   outer loop
     vertex -1.587302e-02 -7.475246e-01  8.937722e-01
     vertex -3.174603e-02 -7.118089e-01  9.005066e-01
     vertex -3.174603e-02 -7.475246e-01  8.937722e-01
   endloop
 endfacet
 facet normal  0.000000e+00 -1.852887e-01  9.826841e-01
   outer loop
     vertex -1.587302e-02 -7.475246e-01  8.937722e-01
     vertex -1.587302e-02 -7.118089e-01  9.005066e-01
     vertex -3.174603e-02 -7.118089e-01  9.005066e-01
   endloop
 endfacet
 facet normal  0.000000e+00 -2.886919e-01  9.574220e-01
   outer loop
     vertex -1.587302e-02 -7.823221e-01  8.832797e-01
     vertex -3.174603e-02 -7.475246e-01  8.937722e-01
     vertex -3.174603e-02 -7.823221e-01  8.832797e-01
   endloop
 endfacet
 facet normal  0.000000e+00 -2.886919e-01  9.574220e-01
   outer loop
     vertex -1.587302e-02 -7.823221e-01  8.832797e-01
     vertex -1.587302e-02 -7.475246e-01  8.937722e-01
     vertex -3.174603e-02 -7.475246e-01  8.937722e-01
   endloop
 endfacet
 facet normal  0.000000e+00 -3.888242e-01  9.213120e-01
   outer loop
     vertex -1.587302e-02 -8.158072e-01  8.691479e-01
     vertex -3.174603e-02 -7.823221e-01  8.832797e-01
     vertex -3.174603e-02 -8.158072e-01  8.691479e-01
   endloop
 endfacet
 facet normal  0.000000e+00 -3.888242e-01  9.213120e-01
   outer loop
     vertex -1.587302e-02 -8.158072e-01  8.691479e-01
     vertex -1.587302e-02 -7.823221e-01  8.832797e-01
     vertex -3.174603e-02 -7.823221e-01  8.832797e-01
   endloop
 endfacet
 facet normal  0.000000e+00 -4.845509e-01  8.747631e-01
   outer loop
     vertex -1.587302e-02 -8.476005e-01  8.515369e-01
     vertex -1.587302e-02 -8.158072e-01  8.691479e-01
     vertex -3.174603e-02 -8.158072e-01  8.691479e-01
   endloop
 endfacet
 facet normal  0.000000e+00 -4.845509e-01  8.747631e-01
   outer loop
     vertex -1.587302e-02 -8.476005e-01  8.515369e-01
     vertex -3.174603e-02 -8.158072e-01  8.691479e-01
     vertex -3.174603e-02 -8.476005e-01  8.515369e-01
   endloop
 endfacet
 facet normal  0.000000e+00 -5.747874e-01  8.183028e-01
   outer loop
     vertex -1.587302e-02 -8.773417e-01  8.306462e-01
     vertex -1.587302e-02 -8.476005e-01  8.515369e-01
     vertex -3.174603e-02 -8.476005e-01  8.515369e-01
   endloop
 endfacet
 facet normal  0.000000e+00 -5.747874e-01  8.183028e-01
   outer loop
     vertex -1.587302e-02 -8.773417e-01  8.306462e-01
     vertex -3.174603e-02 -8.476005e-01  8.515369e-01
     vertex -3.174603e-02 -8.773417e-01  8.306462e-01
   endloop
 endfacet
 facet normal  0.000000e+00 -6.585114e-01  7.525708e-01
   outer loop
     vertex -1.587302e-02 -9.046939e-01  8.067126e-01
     vertex -1.587302e-02 -8.773417e-01  8.306462e-01
     vertex -3.174603e-02 -8.773417e-01  8.306462e-01
   endloop
 endfacet
 facet normal  0.000000e+00 -6.585114e-01  7.525708e-01
   outer loop
     vertex -1.587302e-02 -9.046939e-01  8.067126e-01
     vertex -3.174603e-02 -8.773417e-01  8.306462e-01
     vertex -3.174603e-02 -9.046939e-01  8.067126e-01
   endloop
 endfacet
 facet normal  0.000000e+00 -7.347742e-01  6.783118e-01
   outer loop
     vertex -1.587302e-02 -9.293472e-01  7.800072e-01
     vertex -1.587302e-02 -9.046939e-01  8.067126e-01
     vertex -3.174603e-02 -9.046939e-01  8.067126e-01
   endloop
 endfacet
 facet normal  0.000000e+00 -7.347742e-01  6.783118e-01
   outer loop
     vertex -1.587302e-02 -9.293472e-01  7.800072e-01
     vertex -3.174603e-02 -9.046939e-01  8.067126e-01
     vertex -3.174603e-02 -9.293472e-01  7.800072e-01
   endloop
 endfacet
 facet normal  0.000000e+00 -8.027116e-01  5.963674e-01
   outer loop
     vertex -1.587302e-02 -9.510222e-01  7.508327e-01
     vertex -1.587302e-02 -9.293472e-01  7.800072e-01
     vertex -3.174603e-02 -9.293472e-01  7.800072e-01
   endloop
 endfacet
 facet normal  0.000000e+00 -8.027116e-01  5.963674e-01
   outer loop
     vertex -1.587302e-02 -9.510222e-01  7.508327e-01
     vertex -3.174603e-02 -9.293472e-01  7.800072e-01
     vertex -3.174603e-02 -9.510222e-01  7.508327e-01
   endloop
 endfacet
 facet normal  0.000000e+00 -8.615541e-01  5.076658e-01
   outer loop
     vertex -1.587302e-02 -9.694733e-01  7.195195e-01
     vertex -1.587302e-02 -9.510222e-01  7.508327e-01
     vertex -3.174603e-02 -9.510222e-01  7.508327e-01
   endloop
 endfacet
 facet normal  0.000000e+00 -8.615541e-01  5.076658e-01
   outer loop
     vertex -1.587302e-02 -9.694733e-01  7.195195e-01
     vertex -3.174603e-02 -9.510222e-01  7.508327e-01
     vertex -3.174603e-02 -9.694733e-01  7.195195e-01
   endloop
 endfacet
 facet normal  0.000000e+00 -9.106348e-01  4.132122e-01
   outer loop
     vertex -1.587302e-02 -9.844915e-01  6.864224e-01
     vertex -3.174603e-02 -9.694733e-01  7.195195e-01
     vertex -3.174603e-02 -9.844915e-01  6.864224e-01
   endloop
 endfacet
 facet normal  0.000000e+00 -9.106348e-01  4.132122e-01
   outer loop
     vertex -1.587302e-02 -9.844915e-01  6.864224e-01
     vertex -1.587302e-02 -9.694733e-01  7.195195e-01
     vertex -3.174603e-02 -9.694733e-01  7.195195e-01
   endloop
 endfacet
 facet normal  0.000000e+00 -9.493976e-01  3.140767e-01
   outer loop
     vertex -1.587302e-02 -9.959066e-01  6.519166e-01
     vertex -3.174603e-02 -9.844915e-01  6.864224e-01
     vertex -3.174603e-02 -9.959066e-01  6.519166e-01
   endloop
 endfacet
 facet normal  0.000000e+00 -9.493976e-01  3.140767e-01
   outer loop
     vertex -1.587302e-02 -9.959066e-01  6.519166e-01
     vertex -1.587302e-02 -9.844915e-01  6.864224e-01
     vertex -3.174603e-02 -9.844915e-01  6.864224e-01
   endloop
 endfacet
 facet normal  0.000000e+00 -9.774034e-01  2.113826e-01
   outer loop
     vertex -1.587302e-02 -1.003589e+00  6.163928e-01
     vertex -3.174603e-02 -9.959066e-01  6.519166e-01
     vertex -3.174603e-02 -1.003589e+00  6.163928e-01
   endloop
 endfacet
 facet normal  0.000000e+00 -9.774034e-01  2.113826e-01
   outer loop
     vertex -1.587302e-02 -1.003589e+00  6.163928e-01
     vertex -1.587302e-02 -9.959066e-01  6.519166e-01
     vertex -3.174603e-02 -9.959066e-01  6.519166e-01
   endloop
 endfacet
 facet normal  0.000000e+00 -9.943348e-01  1.062935e-01
   outer loop
     vertex -1.587302e-02 -1.007453e+00  5.802537e-01
     vertex -3.174603e-02 -1.003589e+00  6.163928e-01
     vertex -3.174603e-02 -1.007453e+00  5.802537e-01
   endloop
 endfacet
 facet normal  0.000000e+00 -9.943348e-01  1.062935e-01
   outer loop
     vertex -1.587302e-02 -1.007453e+00  5.802537e-01
     vertex -1.587302e-02 -1.003589e+00  6.163928e-01
     vertex -3.174603e-02 -1.003589e+00  6.163928e-01
   endloop
 endfacet
 facet normal  0.000000e+00 -1.000000e+00  0.000000e+00
   outer loop
     vertex -1.587302e-02 -1.007453e+00  5.439087e-01
     vertex -3.174603e-02 -1.007453e+00  5.802537e-01
     vertex -3.174603e-02 -1.007453e+00  5.439087e-01
   endloop
 endfacet
 facet normal  0.000000e+00 -1.000000e+00  0.000000e+00
   outer loop
     vertex -1.587302e-02 -1.007453e+00  5.439087e-01
     vertex -1.587302e-02 -1.007453e+00  5.802537e-01
     vertex -3.174603e-02 -1.007453e+00  5.802537e-01
   endloop
 endfacet
 facet normal -0.000000e+00 -9.943348e-01 -1.062935e-01
   outer loop
     vertex -1.587302e-02 -1.003589e+00  5.077696e-01
     vertex -3.174603e-02 -1.007453e+00  5.439087e-01
     vertex -3.174603e-02 -1.003589e+00  5.077696e-01
   endloop
 endfacet
 facet normal  0.000000e+00 -9.943348e-01 -1.062935e-01
   outer loop
     vertex -1.587302e-02 -1.003589e+00  5.077696e-01
     vertex -1.587302e-02 -1.007453e+00  5.439087e-01
     vertex -3.174603e-02 -1.007453e+00  5.439087e-01
   endloop
 endfacet
 facet normal -0.000000e+00 -9.774034e-01 -2.113826e-01
   outer loop
     vertex -1.587302e-02 -9.959066e-01  4.722458e-01
     vertex -3.174603e-02 -1.003589e+00  5.077696e-01
     vertex -3.174603e-02 -9.959066e-01  4.722458e-01
   endloop
 endfacet
 facet normal  0.000000e+00 -9.774034e-01 -2.113826e-01
   outer loop
     vertex -1.587302e-02 -9.959066e-01  4.722458e-01
     vertex -1.587302e-02 -1.003589e+00  5.077696e-01
     vertex -3.174603e-02 -1.003589e+00  5.077696e-01
   endloop
 endfacet
 facet normal -0.000000e+00 -9.493976e-01 -3.140767e-01
   outer loop
     vertex -1.587302e-02 -9.844915e-01  4.377399e-01
     vertex -3.174603e-02 -9.959066e-01  4.722458e-01
     vertex -3.174603e-02 -9.844915e-01  4.377399e-01
   endloop
 endfacet
 facet normal  0.000000e+00 -9.493976e-01 -3.140767e-01
   outer loop
     vertex -1.587302e-02 -9.844915e-01  4.377399e-01
     vertex -1.587302e-02 -9.959066e-01  4.722458e-01
     vertex -3.174603e-02 -9.959066e-01  4.722458e-01
   endloop
 endfacet
 facet normal -0.000000e+00 -9.106348e-01 -4.132122e-01
   outer loop
     vertex -1.587302e-02 -9.694733e-01  4.046429e-01
     vertex -3.174603e-02 -9.844915e-01  4.377399e-01
     vertex -3.174603e-02 -9.694733e-01  4.046429e-01
   endloop
 endfacet
 facet normal  0.000000e+00 -9.106348e-01 -4.132122e-01
   outer loop
     vertex -1.587302e-02 -9.694733e-01  4.046429e-01
     vertex -1.587302e-02 -9.844915e-01  4.377399e-01
     vertex -3.174603e-02 -9.844915e-01  4.377399e-01
   endloop
 endfacet
 facet normal -0.000000e+00 -8.615541e-01 -5.076658e-01
   outer loop
     vertex -1.587302e-02 -9.510222e-01  3.733297e-01
     vertex -3.174603e-02 -9.694733e-01  4.046429e-01
     vertex -3.174603e-02 -9.510222e-01  3.733297e-01
   endloop
 endfacet
 facet normal  0.000000e+00 -8.615541e-01 -5.076658e-01
   outer loop
     vertex -1.587302e-02 -9.510222e-01  3.733297e-01
     vertex -1.587302e-02 -9.694733e-01  4.046429e-01
     vertex -3.174603e-02 -9.694733e-01  4.046429e-01
   endloop
 endfacet
 facet normal -0.000000e+00 -8.027116e-01 -5.963674e-01
   outer loop
     vertex -1.587302e-02 -9.293472e-01  3.441551e-01
     vertex -3.174603e-02 -9.510222e-01  3.733297e-01
     vertex -3.174603e-02 -9.293472e-01  3.441551e-01
   endloop
 endfacet
 facet normal  0.000000e+00 -8.027116e-01 -5.963674e-01
   outer loop
     vertex -1.587302e-02 -9.293472e-01  3.441551e-01
     vertex -1.587302e-02 -9.510222e-01  3.733297e-01
     vertex -3.174603e-02 -9.510222e-01  3.733297e-01
   endloop
 endfacet
 facet normal -0.000000e+00 -7.347742e-01 -6.783118e-01
   outer loop
     vertex -1.587302e-02 -9.046939e-01  3.174497e-01
     vertex -3.174603e-02 -9.293472e-01  3.441551e-01
     vertex -3.174603e-02 -9.046939e-01  3.174497e-01
   endloop
 endfacet
 facet normal  0.000000e+00 -7.347742e-01 -6.783118e-01
   outer loop
     vertex -1.587302e-02 -9.046939e-01  3.174497e-01
     vertex -1.587302e-02 -9.293472e-01  3.441551e-01
     vertex -3.174603e-02 -9.293472e-01  3.441551e-01
   endloop
 endfacet
 facet normal -0.000000e+00 -6.585114e-01 -7.525708e-01
   outer loop
     vertex -1.587302e-02 -8.773417e-01  2.935161e-01
     vertex -3.174603e-02 -9.046939e-01  3.174497e-01
     vertex -3.174603e-02 -8.773417e-01  2.935161e-01
   endloop
 endfacet
 facet normal  0.000000e+00 -6.585114e-01 -7.525708e-01
   outer loop
     vertex -1.587302e-02 -8.773417e-01  2.935161e-01
     vertex -1.587302e-02 -9.046939e-01  3.174497e-01
     vertex -3.174603e-02 -9.046939e-01  3.174497e-01
   endloop
 endfacet
 facet normal -0.000000e+00 -5.747874e-01 -8.183028e-01
   outer loop
     vertex -1.587302e-02 -8.476005e-01  2.726255e-01
     vertex -3.174603e-02 -8.773417e-01  2.935161e-01
     vertex -3.174603e-02 -8.476005e-01  2.726255e-01
   endloop
 endfacet
 facet normal -0.000000e+00 -4.845509e-01 -8.747631e-01
   outer loop
     vertex -1.587302e-02 -8.476005e-01  2.726255e-01
     vertex -3.174603e-02 -8.476005e-01  2.726255e-01
     vertex -3.174603e-02 -8.158072e-01  2.550145e-01
   endloop
 endfacet
 facet normal  0.000000e+00 -5.747874e-01 -8.183028e-01
   outer loop
     vertex -1.587302e-02 -8.476005e-01  2.726255e-01
     vertex -1.587302e-02 -8.773417e-01  2.935161e-01
     vertex -3.174603e-02 -8.773417e-01  2.935161e-01
   endloop
 endfacet
 facet normal -0.000000e+00 -4.845509e-01 -8.747631e-01
   outer loop
     vertex -1.587302e-02 -8.158072e-01  2.550145e-01
     vertex -1.587302e-02 -8.476005e-01  2.726255e-01
     vertex -3.174603e-02 -8.158072e-01  2.550145e-01
   endloop
 endfacet
 facet normal -0.000000e+00 -3.888242e-01 -9.213120e-01
   outer loop
     vertex -1.587302e-02 -7.823221e-01  2.408826e-01
     vertex -3.174603e-02 -8.158072e-01  2.550145e-01
     vertex -3.174603e-02 -7.823221e-01  2.408826e-01
   endloop
 endfacet
 facet normal -0.000000e+00 -2.886919e-01 -9.574220e-01
   outer loop
     vertex -1.587302e-02 -7.823221e-01  2.408826e-01
     vertex -3.174603e-02 -7.823221e-01  2.408826e-01
     vertex -3.174603e-02 -7.475246e-01  2.303901e-01
   endloop
 endfacet
 facet normal  0.000000e+00 -3.888242e-01 -9.213120e-01
   outer loop
     vertex -1.587302e-02 -7.823221e-01  2.408826e-01
     vertex -1.587302e-02 -8.158072e-01  2.550145e-01
     vertex -3.174603e-02 -8.158072e-01  2.550145e-01
   endloop
 endfacet
 facet normal -0.000000e+00 -2.886919e-01 -9.574220e-01
   outer loop
     vertex -1.587302e-02 -7.475246e-01  2.303901e-01
     vertex -1.587302e-02 -7.823221e-01  2.408826e-01
     vertex -3.174603e-02 -7.475246e-01  2.303901e-01
   endloop
 endfacet
 facet normal -0.000000e+00 -1.852887e-01 -9.826841e-01
   outer loop
     vertex -1.587302e-02 -7.118089e-01  2.236558e-01
     vertex -3.174603e-02 -7.475246e-01  2.303901e-01
     vertex -3.174603e-02 -7.118089e-01  2.236558e-01
   endloop
 endfacet
 facet normal  0.000000e+00 -1.852887e-01 -9.826841e-01
   outer loop
     vertex -1.587302e-02 -7.118089e-01  2.236558e-01
     vertex -1.587302e-02 -7.475246e-01  2.303901e-01
     vertex -3.174603e-02 -7.475246e-01  2.303901e-01
   endloop
 endfacet
 facet normal -0.000000e+00 -7.978611e-02 -9.968120e-01
   outer loop
     vertex -1.587302e-02 -6.755798e-01  2.207560e-01
     vertex -3.174603e-02 -7.118089e-01  2.236558e-01
     vertex -3.174603e-02 -6.755798e-01  2.207560e-01
   endloop
 endfacet
 facet normal  0.000000e+00 -7.978611e-02 -9.968120e-01
   outer loop
     vertex -1.587302e-02 -6.755798e-01  2.207560e-01
     vertex -1.587302e-02 -7.118089e-01  2.236558e-01
     vertex -3.174603e-02 -7.118089e-01  2.236558e-01
   endloop
 endfacet
 facet normal  0.000000e+00  2.662052e-02 -9.996456e-01
   outer loop
     vertex -1.587302e-02 -6.392476e-01  2.217235e-01
     vertex -1.587302e-02 -6.755798e-01  2.207560e-01
     vertex -3.174603e-02 -6.755798e-01  2.207560e-01
   endloop
 endfacet
 facet normal  0.000000e+00  2.662052e-02 -9.996456e-01
   outer loop
     vertex -1.587302e-02 -6.392476e-01  2.217235e-01
     vertex -3.174603e-02 -6.755798e-01  2.207560e-01
     vertex -3.174603e-02 -6.392476e-01  2.217235e-01
   endloop
 endfacet
 facet normal  0.000000e+00  1.327255e-01 -9.911528e-01
   outer loop
     vertex -1.587302e-02 -6.032242e-01  2.265474e-01
     vertex -1.587302e-02 -6.392476e-01  2.217235e-01
     vertex -3.174603e-02 -6.392476e-01  2.217235e-01
   endloop
 endfacet
 facet normal  0.000000e+00  1.327255e-01 -9.911528e-01
   outer loop
     vertex -1.587302e-02 -6.032242e-01  2.265474e-01
     vertex -3.174603e-02 -6.392476e-01  2.217235e-01
     vertex -3.174603e-02 -6.032242e-01  2.265474e-01
   endloop
 endfacet
 facet normal  0.000000e+00  2.373267e-01 -9.714299e-01
   outer loop
     vertex -1.587302e-02 -6.032242e-01  2.265474e-01
     vertex -3.174603e-02 -6.032242e-01  2.265474e-01
     vertex -3.174603e-02 -5.679175e-01  2.351731e-01
   endloop
 endfacet
 facet normal  0.000000e+00  2.373267e-01 -9.714299e-01
   outer loop
     vertex -1.587302e-02 -5.679175e-01  2.351731e-01
     vertex -1.587302e-02 -6.032242e-01  2.265474e-01
     vertex -3.174603e-02 -5.679175e-01  2.351731e-01
   endloop
 endfacet
 facet normal  0.000000e+00  3.392389e-01 -9.407003e-01
   outer loop
     vertex -1.587302e-02 -5.337277e-01  2.475027e-01
     vertex -1.587302e-02 -5.679175e-01  2.351731e-01
     vertex -3.174603e-02 -5.679175e-01  2.351731e-01
   endloop
 endfacet
 facet normal  0.000000e+00  3.392389e-01 -9.407003e-01
   outer loop
     vertex -1.587302e-02 -5.337277e-01  2.475027e-01
     vertex -3.174603e-02 -5.679175e-01  2.351731e-01
     vertex -3.174603e-02 -5.337277e-01  2.475027e-01
   endloop
 endfacet
 facet normal  0.000000e+00  4.373073e-01 -8.993121e-01
   outer loop
     vertex -1.587302e-02 -5.010422e-01  2.633966e-01
     vertex -1.587302e-02 -5.337277e-01  2.475027e-01
     vertex -3.174603e-02 -5.337277e-01  2.475027e-01
   endloop
 endfacet
 facet normal  0.000000e+00  4.373073e-01 -8.993121e-01
   outer loop
     vertex -1.587302e-02 -5.010422e-01  2.633966e-01
     vertex -3.174603e-02 -5.337277e-01  2.475027e-01
     vertex -3.174603e-02 -5.010422e-01  2.633966e-01
   endloop
 endfacet
 facet normal  0.000000e+00  5.304209e-01 -8.477344e-01
   outer loop
     vertex -1.587302e-02 -4.702313e-01  2.826748e-01
     vertex -1.587302e-02 -5.010422e-01  2.633966e-01
     vertex -3.174603e-02 -5.010422e-01  2.633966e-01
   endloop
 endfacet
 facet normal  0.000000e+00  5.304209e-01 -8.477344e-01
   outer loop
     vertex -1.587302e-02 -4.702313e-01  2.826748e-01
     vertex -3.174603e-02 -5.010422e-01  2.633966e-01
     vertex -3.174603e-02 -4.702313e-01  2.826748e-01
   endloop
 endfacet
 facet normal  0.000000e+00  6.175246e-01 -7.865516e-01
   outer loop
     vertex -1.587302e-02 -4.416441e-01  3.051187e-01
     vertex -1.587302e-02 -4.702313e-01  2.826748e-01
     vertex -3.174603e-02 -4.702313e-01  2.826748e-01
   endloop
 endfacet
 facet normal  0.000000e+00  6.175246e-01 -7.865516e-01
   outer loop
     vertex -1.587302e-02 -4.416441e-01  3.051187e-01
     vertex -3.174603e-02 -4.702313e-01  2.826748e-01
     vertex -3.174603e-02 -4.416441e-01  3.051187e-01
   endloop
 endfacet
 facet normal  0.000000e+00  6.976315e-01 -7.164567e-01
   outer loop
     vertex -1.587302e-02 -4.156044e-01  3.304742e-01
     vertex -1.587302e-02 -4.416441e-01  3.051187e-01
     vertex -3.174603e-02 -4.416441e-01  3.051187e-01
   endloop
 endfacet
 facet normal  0.000000e+00  6.976315e-01 -7.164567e-01
   outer loop
     vertex -1.587302e-02 -4.156044e-01  3.304742e-01
     vertex -3.174603e-02 -4.416441e-01  3.051187e-01
     vertex -3.174603e-02 -4.156044e-01  3.304742e-01
   endloop
 endfacet
 facet normal  0.000000e+00  7.698340e-01 -6.382442e-01
   outer loop
     vertex -1.587302e-02 -3.924074e-01  3.584538e-01
     vertex -1.587302e-02 -4.156044e-01  3.304742e-01
     vertex -3.174603e-02 -4.156044e-01  3.304742e-01
   endloop
 endfacet
 facet normal  0.000000e+00  7.698340e-01 -6.382442e-01
   outer loop
     vertex -1.587302e-02 -3.924074e-01  3.584538e-01
     vertex -3.174603e-02 -4.156044e-01  3.304742e-01
     vertex -3.174603e-02 -3.924074e-01  3.584538e-01
   endloop
 endfacet
 facet normal  0.000000e+00  8.333139e-01 -5.528001e-01
   outer loop
     vertex -1.587302e-02 -3.723159e-01  3.887406e-01
     vertex -1.587302e-02 -3.924074e-01  3.584538e-01
     vertex -3.174603e-02 -3.924074e-01  3.584538e-01
   endloop
 endfacet
 facet normal  0.000000e+00  8.333139e-01 -5.528001e-01
   outer loop
     vertex -1.587302e-02 -3.723159e-01  3.887406e-01
     vertex -3.174603e-02 -3.924074e-01  3.584538e-01
     vertex -3.174603e-02 -3.723159e-01  3.887406e-01
   endloop
 endfacet
 facet normal  0.000000e+00  8.873521e-01 -4.610925e-01
   outer loop
     vertex -1.587302e-02 -3.555575e-01  4.209914e-01
     vertex -1.587302e-02 -3.723159e-01  3.887406e-01
     vertex -3.174603e-02 -3.723159e-01  3.887406e-01
   endloop
 endfacet
 facet normal  0.000000e+00  8.873521e-01 -4.610925e-01
   outer loop
     vertex -1.587302e-02 -3.555575e-01  4.209914e-01
     vertex -3.174603e-02 -3.723159e-01  3.887406e-01
     vertex -3.174603e-02 -3.555575e-01  4.209914e-01
   endloop
 endfacet
 facet normal  0.000000e+00  9.313362e-01 -3.641606e-01
   outer loop
     vertex -1.587302e-02 -3.423221e-01  4.548409e-01
     vertex -1.587302e-02 -3.555575e-01  4.209914e-01
     vertex -3.174603e-02 -3.555575e-01  4.209914e-01
   endloop
 endfacet
 facet normal  0.000000e+00  9.313362e-01 -3.641606e-01
   outer loop
     vertex -1.587302e-02 -3.423221e-01  4.548409e-01
     vertex -3.174603e-02 -3.555575e-01  4.209914e-01
     vertex -3.174603e-02 -3.423221e-01  4.548409e-01
   endloop
 endfacet
 facet normal  0.000000e+00  9.647679e-01 -2.631026e-01
   outer loop
     vertex -1.587302e-02 -3.423221e-01  4.548409e-01
     vertex -3.174603e-02 -3.423221e-01  4.548409e-01
     vertex -3.174603e-02 -3.327596e-01  4.899054e-01
   endloop
 endfacet
 facet normal  0.000000e+00  9.647679e-01 -2.631026e-01
   outer loop
     vertex -1.587302e-02 -3.327596e-01  4.899054e-01
     vertex -1.587302e-02 -3.423221e-01  4.548409e-01
     vertex -3.174603e-02 -3.327596e-01  4.899054e-01
   endloop
 endfacet
 facet normal  0.000000e+00  9.872684e-01 -1.590635e-01
   outer loop
     vertex -1.587302e-02 -3.269784e-01  5.257877e-01
     vertex -1.587302e-02 -3.327596e-01  4.899054e-01
     vertex -3.174603e-02 -3.327596e-01  4.899054e-01
   endloop
 endfacet
 facet normal  0.000000e+00  9.872684e-01 -1.590635e-01
   outer loop
     vertex -1.587302e-02 -3.269784e-01  5.257877e-01
     vertex -3.174603e-02 -3.327596e-01  4.899054e-01
     vertex -3.174603e-02 -3.269784e-01  5.257877e-01
   endloop
 endfacet
 facet normal  0.000000e+00  9.985827e-01 -5.322217e-02
   outer loop
     vertex -1.587302e-02 -3.250441e-01  5.620812e-01
     vertex -1.587302e-02 -3.269784e-01  5.257877e-01
     vertex -3.174603e-02 -3.269784e-01  5.257877e-01
   endloop
 endfacet
 facet normal  0.000000e+00  9.985827e-01 -5.322217e-02
   outer loop
     vertex -1.587302e-02 -3.250441e-01  5.620812e-01
     vertex -3.174603e-02 -3.269784e-01  5.257877e-01
     vertex -3.174603e-02 -3.250441e-01  5.620812e-01
   endloop
 endfacet
 facet normal  1.000000e+00  0.000000e+00  0.000000e+00
   outer loop
     vertex  6.984127e-01 -8.372134e-01  3.913581e-01
     vertex  6.984127e-01 -1.007453e+00  5.439087e-01
     vertex  6.984127e-01 -1.003589e+00  5.077696e-01
   endloop
 endfacet
 facet normal  1.000000e+00  0.000000e+00  0.000000e+00
   outer loop
     vertex  6.984127e-01 -8.372134e-01  3.913581e-01
     vertex  6.984127e-01 -1.003589e+00  5.077696e-01
     vertex  6.984127e-01 -9.959066e-01  4.722458e-01
   endloop
 endfacet
 facet normal  1.000000e+00  0.000000e+00  0.000000e+00
   outer loop
     vertex  6.984127e-01 -8.372134e-01  3.913581e-01
     vertex  6.984127e-01 -9.959066e-01  4.722458e-01
     vertex  6.984127e-01 -9.844915e-01  4.377399e-01
   endloop
 endfacet
 facet normal  1.000000e+00  0.000000e+00  0.000000e+00
   outer loop
     vertex  6.984127e-01 -8.372134e-01  3.913581e-01
     vertex  6.984127e-01 -9.844915e-01  4.377399e-01
     vertex  6.984127e-01 -9.694733e-01  4.046429e-01
   endloop
 endfacet
 facet normal  1.000000e+00  0.000000e+00  0.000000e+00
   outer loop
     vertex  6.984127e-01 -8.372134e-01  3.913581e-01
     vertex  6.984127e-01 -9.694733e-01  4.046429e-01
     vertex  6.984127e-01 -9.510222e-01  3.733297e-01
   endloop
 endfacet
 facet normal  1.000000e+00  0.000000e+00  0.000000e+00
   outer loop
     vertex  6.984127e-01 -8.372134e-01  3.913581e-01
     vertex  6.984127e-01 -9.510222e-01  3.733297e-01
     vertex  6.984127e-01 -9.293472e-01  3.441551e-01
   endloop
 endfacet
 facet normal  1.000000e+00  0.000000e+00  0.000000e+00
   outer loop
     vertex  6.984127e-01 -8.372134e-01  3.913581e-01
     vertex  6.984127e-01 -9.293472e-01  3.441551e-01
     vertex  6.984127e-01 -9.046939e-01  3.174497e-01
   endloop
 endfacet
 facet normal  1.000000e+00  0.000000e+00  0.000000e+00
   outer loop
     vertex  6.984127e-01 -8.372134e-01  3.913581e-01
     vertex  6.984127e-01 -9.046939e-01  3.174497e-01
     vertex  6.984127e-01 -8.773417e-01  2.935161e-01
   endloop
 endfacet
 facet normal  1.000000e+00  0.000000e+00  0.000000e+00
   outer loop
     vertex  6.984127e-01 -8.372134e-01  3.913581e-01
     vertex  6.984127e-01 -8.773417e-01  2.935161e-01
     vertex  6.984127e-01 -8.476005e-01  2.726255e-01
   endloop
 endfacet
 facet normal  1.000000e+00  0.000000e+00  0.000000e+00
   outer loop
     vertex  6.984127e-01 -8.372134e-01  3.913581e-01
     vertex  6.984127e-01 -8.476005e-01  2.726255e-01
     vertex  6.984127e-01 -8.158072e-01  2.550145e-01
   endloop
 endfacet
 facet normal  1.000000e+00  0.000000e+00  0.000000e+00
   outer loop
     vertex  6.984127e-01 -8.372134e-01  3.913581e-01
     vertex  6.984127e-01 -8.158072e-01  2.550145e-01
     vertex  6.984127e-01 -7.823221e-01  2.408826e-01
   endloop
 endfacet
 facet normal  1.000000e+00  0.000000e+00  0.000000e+00
   outer loop
     vertex  6.984127e-01 -8.372134e-01  3.913581e-01
     vertex  6.984127e-01 -7.823221e-01  2.408826e-01
     vertex  6.984127e-01 -7.475246e-01  2.303901e-01
   endloop
 endfacet
 facet normal  1.000000e+00  0.000000e+00  0.000000e+00
   outer loop
     vertex  6.984127e-01 -8.372134e-01  3.913581e-01
     vertex  6.984127e-01 -7.475246e-01  2.303901e-01
     vertex  6.984127e-01 -7.118089e-01  2.236558e-01
   endloop
 endfacet
 facet normal  1.000000e+00  0.000000e+00  0.000000e+00
   outer loop
     vertex  6.984127e-01 -8.372134e-01  3.913581e-01
     vertex  6.984127e-01 -7.118089e-01  2.236558e-01
     vertex  6.984127e-01 -6.755798e-01  2.207560e-01
   endloop
 endfacet
 facet normal  1.000000e+00  0.000000e+00  0.000000e+00
   outer loop
     vertex  6.984127e-01 -1.007453e+00  5.802537e-01
     vertex  6.984127e-01 -1.007453e+00  5.439087e-01
     vertex  6.984127e-01 -8.372134e-01  3.913581e-01
   endloop
 endfacet
 facet normal  1.000000e+00  0.000000e+00  0.000000e+00
   outer loop
     vertex  6.984127e-01 -8.372134e-01  7.328043e-01
     vertex  6.984127e-01 -1.007453e+00  5.802537e-01
     vertex  6.984127e-01 -8.372134e-01  3.913581e-01
   endloop
 endfacet
 facet normal  1.000000e+00  0.000000e+00  0.000000e+00
   outer loop
     vertex  6.984127e-01 -8.372134e-01  7.328043e-01
     vertex  6.984127e-01 -9.293472e-01  7.800072e-01
     vertex  6.984127e-01 -9.510222e-01  7.508327e-01
   endloop
 endfacet
 facet normal  1.000000e+00  0.000000e+00  0.000000e+00
   outer loop
     vertex  6.984127e-01 -8.372134e-01  7.328043e-01
     vertex  6.984127e-01 -9.510222e-01  7.508327e-01
     vertex  6.984127e-01 -9.694733e-01  7.195195e-01
   endloop
 endfacet
 facet normal  1.000000e+00  0.000000e+00  0.000000e+00
   outer loop
     vertex  6.984127e-01 -8.372134e-01  7.328043e-01
     vertex  6.984127e-01 -9.694733e-01  7.195195e-01
     vertex  6.984127e-01 -9.844915e-01  6.864224e-01
   endloop
 endfacet
 facet normal  1.000000e+00  0.000000e+00  0.000000e+00
   outer loop
     vertex  6.984127e-01 -8.372134e-01  7.328043e-01
     vertex  6.984127e-01 -9.844915e-01  6.864224e-01
     vertex  6.984127e-01 -9.959066e-01  6.519166e-01
   endloop
 endfacet
 facet normal  1.000000e+00  0.000000e+00  0.000000e+00
   outer loop
     vertex  6.984127e-01 -8.372134e-01  7.328043e-01
     vertex  6.984127e-01 -9.959066e-01  6.519166e-01
     vertex  6.984127e-01 -1.003589e+00  6.163928e-01
   endloop
 endfacet
 facet normal  1.000000e+00  0.000000e+00  0.000000e+00
   outer loop
     vertex  6.984127e-01 -8.372134e-01  7.328043e-01
     vertex  6.984127e-01 -1.003589e+00  6.163928e-01
     vertex  6.984127e-01 -1.007453e+00  5.802537e-01
   endloop
 endfacet
 facet normal  1.000000e+00  0.000000e+00  0.000000e+00
   outer loop
     vertex  6.984127e-01 -4.957672e-01  3.913581e-01
     vertex  6.984127e-01 -6.755798e-01  2.207560e-01
     vertex  6.984127e-01 -6.392476e-01  2.217235e-01
   endloop
 endfacet
 facet normal  1.000000e+00  0.000000e+00  0.000000e+00
   outer loop
     vertex  6.984127e-01 -4.957672e-01  3.913581e-01
     vertex  6.984127e-01 -6.392476e-01  2.217235e-01
     vertex  6.984127e-01 -6.032242e-01  2.265474e-01
   endloop
 endfacet
 facet normal  1.000000e+00  0.000000e+00  0.000000e+00
   outer loop
     vertex  6.984127e-01 -4.957672e-01  3.913581e-01
     vertex  6.984127e-01 -6.032242e-01  2.265474e-01
     vertex  6.984127e-01 -5.679175e-01  2.351731e-01
   endloop
 endfacet
 facet normal  1.000000e+00  0.000000e+00  0.000000e+00
   outer loop
     vertex  6.984127e-01 -4.957672e-01  3.913581e-01
     vertex  6.984127e-01 -5.679175e-01  2.351731e-01
     vertex  6.984127e-01 -5.337277e-01  2.475027e-01
   endloop
 endfacet
 facet normal  1.000000e+00  0.000000e+00  0.000000e+00
   outer loop
     vertex  6.984127e-01 -4.957672e-01  3.913581e-01
     vertex  6.984127e-01 -5.337277e-01  2.475027e-01
     vertex  6.984127e-01 -5.010422e-01  2.633966e-01
   endloop
 endfacet
 facet normal  1.000000e+00  0.000000e+00  0.000000e+00
   outer loop
     vertex  6.984127e-01 -4.957672e-01  3.913581e-01
     vertex  6.984127e-01 -5.010422e-01  2.633966e-01
     vertex  6.984127e-01 -4.702313e-01  2.826748e-01
   endloop
 endfacet
 facet normal  1.000000e+00  0.000000e+00  0.000000e+00
   outer loop
     vertex  6.984127e-01 -4.957672e-01  3.913581e-01
     vertex  6.984127e-01 -4.702313e-01  2.826748e-01
     vertex  6.984127e-01 -4.416441e-01  3.051187e-01
   endloop
 endfacet
 facet normal  1.000000e+00  0.000000e+00  0.000000e+00
   outer loop
     vertex  6.984127e-01 -4.957672e-01  3.913581e-01
     vertex  6.984127e-01 -8.372134e-01  3.913581e-01
     vertex  6.984127e-01 -6.755798e-01  2.207560e-01
   endloop
 endfacet
 facet normal  1.000000e+00  0.000000e+00  0.000000e+00
   outer loop
     vertex  6.984127e-01 -9.046939e-01  8.067126e-01
     vertex  6.984127e-01 -9.293472e-01  7.800072e-01
     vertex  6.984127e-01 -8.372134e-01  7.328043e-01
   endloop
 endfacet
 facet normal  1.000000e+00  0.000000e+00  0.000000e+00
   outer loop
     vertex  6.984127e-01 -4.156044e-01  3.304742e-01
     vertex  6.984127e-01 -4.957672e-01  3.913581e-01
     vertex  6.984127e-01 -4.416441e-01  3.051187e-01
   endloop
 endfacet
 facet normal  1.000000e+00  0.000000e+00  0.000000e+00
   outer loop
     vertex  6.984127e-01 -8.773417e-01  8.306462e-01
     vertex  6.984127e-01 -9.046939e-01  8.067126e-01
     vertex  6.984127e-01 -8.372134e-01  7.328043e-01
   endloop
 endfacet
 facet normal  1.000000e+00  0.000000e+00  0.000000e+00
   outer loop
     vertex  6.984127e-01 -3.924074e-01  3.584538e-01
     vertex  6.984127e-01 -4.957672e-01  3.913581e-01
     vertex  6.984127e-01 -4.156044e-01  3.304742e-01
   endloop
 endfacet
 facet normal  1.000000e+00  0.000000e+00  0.000000e+00
   outer loop
     vertex  6.984127e-01 -8.476005e-01  8.515369e-01
     vertex  6.984127e-01 -8.773417e-01  8.306462e-01
     vertex  6.984127e-01 -8.372134e-01  7.328043e-01
   endloop
 endfacet
 facet normal  1.000000e+00  0.000000e+00  0.000000e+00
   outer loop
     vertex  6.984127e-01 -3.723159e-01  3.887406e-01
     vertex  6.984127e-01 -4.957672e-01  3.913581e-01
     vertex  6.984127e-01 -3.924074e-01  3.584538e-01
   endloop
 endfacet
 facet normal  1.000000e+00  0.000000e+00  0.000000e+00
   outer loop
     vertex  6.984127e-01 -8.158072e-01  8.691479e-01
     vertex  6.984127e-01 -8.476005e-01  8.515369e-01
     vertex  6.984127e-01 -8.372134e-01  7.328043e-01
   endloop
 endfacet
 facet normal  1.000000e+00  0.000000e+00  0.000000e+00
   outer loop
     vertex  6.984127e-01 -3.555575e-01  4.209914e-01
     vertex  6.984127e-01 -4.957672e-01  3.913581e-01
     vertex  6.984127e-01 -3.723159e-01  3.887406e-01
   endloop
 endfacet
 facet normal  1.000000e+00  0.000000e+00  0.000000e+00
   outer loop
     vertex  6.984127e-01 -7.823221e-01  8.832797e-01
     vertex  6.984127e-01 -8.158072e-01  8.691479e-01
     vertex  6.984127e-01 -8.372134e-01  7.328043e-01
   endloop
 endfacet
 facet normal  1.000000e+00  0.000000e+00  0.000000e+00
   outer loop
     vertex  6.984127e-01 -3.423221e-01  4.548409e-01
     vertex  6.984127e-01 -4.957672e-01  3.913581e-01
     vertex  6.984127e-01 -3.555575e-01  4.209914e-01
   endloop
 endfacet
 facet normal  1.000000e+00  0.000000e+00  0.000000e+00
   outer loop
     vertex  6.984127e-01 -7.475246e-01  8.937722e-01
     vertex  6.984127e-01 -7.823221e-01  8.832797e-01
     vertex  6.984127e-01 -8.372134e-01  7.328043e-01
   endloop
 endfacet
 facet normal  1.000000e+00  0.000000e+00  0.000000e+00
   outer loop
     vertex  6.984127e-01 -3.327596e-01  4.899054e-01
     vertex  6.984127e-01 -4.957672e-01  3.913581e-01
     vertex  6.984127e-01 -3.423221e-01  4.548409e-01
   endloop
 endfacet
 facet normal  1.000000e+00  0.000000e+00  0.000000e+00
   outer loop
     vertex  6.984127e-01 -7.118089e-01  9.005066e-01
     vertex  6.984127e-01 -7.475246e-01  8.937722e-01
     vertex  6.984127e-01 -8.372134e-01  7.328043e-01
   endloop
 endfacet
 facet normal  1.000000e+00  0.000000e+00  0.000000e+00
   outer loop
     vertex  6.984127e-01 -3.269784e-01  5.257877e-01
     vertex  6.984127e-01 -4.957672e-01  3.913581e-01
     vertex  6.984127e-01 -3.327596e-01  4.899054e-01
   endloop
 endfacet
 facet normal  1.000000e+00  0.000000e+00  0.000000e+00
   outer loop
     vertex  6.984127e-01 -6.755798e-01  9.034064e-01
     vertex  6.984127e-01 -7.118089e-01  9.005066e-01
     vertex  6.984127e-01 -8.372134e-01  7.328043e-01
   endloop
 endfacet
 facet normal  1.000000e+00  0.000000e+00  0.000000e+00
   outer loop
     vertex  6.984127e-01 -3.250441e-01  5.620812e-01
     vertex  6.984127e-01 -4.957672e-01  3.913581e-01
     vertex  6.984127e-01 -3.269784e-01  5.257877e-01
   endloop
 endfacet
 facet normal  1.000000e+00  0.000000e+00  0.000000e+00
   outer loop
     vertex  6.984127e-01 -4.957672e-01  7.328043e-01
     vertex  6.984127e-01 -6.755798e-01  9.034064e-01
     vertex  6.984127e-01 -8.372134e-01  7.328043e-01
   endloop
 endfacet
 facet normal  1.000000e+00  0.000000e+00  0.000000e+00
   outer loop
     vertex  6.984127e-01 -4.957672e-01  7.328043e-01
     vertex  6.984127e-01 -4.957672e-01  3.913581e-01
     vertex  6.984127e-01 -3.250441e-01  5.620812e-01
   endloop
 endfacet
 facet normal  1.000000e+00  0.000000e+00  0.000000e+00
   outer loop
     vertex  6.984127e-01 -6.392476e-01  9.024389e-01
     vertex  6.984127e-01 -6.755798e-01  9.034064e-01
     vertex  6.984127e-01 -4.957672e-01  7.328043e-01
   endloop
 endfacet
 facet normal  1.000000e+00  0.000000e+00  0.000000e+00
   outer loop
     vertex  6.984127e-01 -3.269784e-01  5.983747e-01
     vertex  6.984127e-01 -4.957672e-01  7.328043e-01
     vertex  6.984127e-01 -3.250441e-01  5.620812e-01
   endloop
 endfacet
 facet normal  1.000000e+00  0.000000e+00  0.000000e+00
   outer loop
     vertex  6.984127e-01 -6.032242e-01  8.976150e-01
     vertex  6.984127e-01 -6.392476e-01  9.024389e-01
     vertex  6.984127e-01 -4.957672e-01  7.328043e-01
   endloop
 endfacet
 facet normal  1.000000e+00  0.000000e+00  0.000000e+00
   outer loop
     vertex  6.984127e-01 -3.327596e-01  6.342570e-01
     vertex  6.984127e-01 -4.957672e-01  7.328043e-01
     vertex  6.984127e-01 -3.269784e-01  5.983747e-01
   endloop
 endfacet
 facet normal  1.000000e+00  0.000000e+00  0.000000e+00
   outer loop
     vertex  6.984127e-01 -5.679175e-01  8.889893e-01
     vertex  6.984127e-01 -6.032242e-01  8.976150e-01
     vertex  6.984127e-01 -4.957672e-01  7.328043e-01
   endloop
 endfacet
 facet normal  1.000000e+00  0.000000e+00  0.000000e+00
   outer loop
     vertex  6.984127e-01 -3.423221e-01  6.693215e-01
     vertex  6.984127e-01 -4.957672e-01  7.328043e-01
     vertex  6.984127e-01 -3.327596e-01  6.342570e-01
   endloop
 endfacet
 facet normal  1.000000e+00  0.000000e+00  0.000000e+00
   outer loop
     vertex  6.984127e-01 -5.337277e-01  8.766597e-01
     vertex  6.984127e-01 -5.679175e-01  8.889893e-01
     vertex  6.984127e-01 -4.957672e-01  7.328043e-01
   endloop
 endfacet
 facet normal  1.000000e+00  0.000000e+00  0.000000e+00
   outer loop
     vertex  6.984127e-01 -3.555575e-01  7.031709e-01
     vertex  6.984127e-01 -4.957672e-01  7.328043e-01
     vertex  6.984127e-01 -3.423221e-01  6.693215e-01
   endloop
 endfacet
 facet normal  1.000000e+00  0.000000e+00  0.000000e+00
   outer loop
     vertex  6.984127e-01 -5.010422e-01  8.607657e-01
     vertex  6.984127e-01 -5.337277e-01  8.766597e-01
     vertex  6.984127e-01 -4.957672e-01  7.328043e-01
   endloop
 endfacet
 facet normal  1.000000e+00  0.000000e+00  0.000000e+00
   outer loop
     vertex  6.984127e-01 -3.723159e-01  7.354218e-01
     vertex  6.984127e-01 -4.957672e-01  7.328043e-01
     vertex  6.984127e-01 -3.555575e-01  7.031709e-01
   endloop
 endfacet
 facet normal  1.000000e+00  0.000000e+00  0.000000e+00
   outer loop
     vertex  6.984127e-01 -4.702313e-01  8.414876e-01
     vertex  6.984127e-01 -5.010422e-01  8.607657e-01
     vertex  6.984127e-01 -4.957672e-01  7.328043e-01
   endloop
 endfacet
 facet normal  1.000000e+00  0.000000e+00  0.000000e+00
   outer loop
     vertex  6.984127e-01 -3.924074e-01  7.657086e-01
     vertex  6.984127e-01 -4.957672e-01  7.328043e-01
     vertex  6.984127e-01 -3.723159e-01  7.354218e-01
   endloop
 endfacet
 facet normal  1.000000e+00  0.000000e+00  0.000000e+00
   outer loop
     vertex  6.984127e-01 -4.416441e-01  8.190436e-01
     vertex  6.984127e-01 -4.702313e-01  8.414876e-01
     vertex  6.984127e-01 -4.957672e-01  7.328043e-01
   endloop
 endfacet
 facet normal  1.000000e+00  0.000000e+00  0.000000e+00
   outer loop
     vertex  6.984127e-01 -4.156044e-01  7.936882e-01
     vertex  6.984127e-01 -4.957672e-01  7.328043e-01
     vertex  6.984127e-01 -3.924074e-01  7.657086e-01
   endloop
 endfacet
 facet normal  1.000000e+00  0.000000e+00  0.000000e+00
   outer loop
     vertex  6.984127e-01 -4.156044e-01  7.936882e-01
     vertex  6.984127e-01 -4.416441e-01  8.190436e-01
     vertex  6.984127e-01 -4.957672e-01  7.328043e-01
   endloop
 endfacet
 facet normal -1.000000e+00  0.000000e+00  0.000000e+00
   outer loop
     vertex -3.174603e-02 -8.372134e-01  3.913581e-01
     vertex -3.174603e-02 -1.003589e+00  5.077696e-01
     vertex -3.174603e-02 -1.007453e+00  5.439087e-01
   endloop
 endfacet
 facet normal -1.000000e+00  0.000000e+00  0.000000e+00
   outer loop
     vertex -3.174603e-02 -8.372134e-01  3.913581e-01
     vertex -3.174603e-02 -9.959066e-01  4.722458e-01
     vertex -3.174603e-02 -1.003589e+00  5.077696e-01
   endloop
 endfacet
 facet normal -1.000000e+00  0.000000e+00  0.000000e+00
   outer loop
     vertex -3.174603e-02 -8.372134e-01  3.913581e-01
     vertex -3.174603e-02 -9.844915e-01  4.377399e-01
     vertex -3.174603e-02 -9.959066e-01  4.722458e-01
   endloop
 endfacet
 facet normal -1.000000e+00  0.000000e+00  0.000000e+00
   outer loop
     vertex -3.174603e-02 -8.372134e-01  3.913581e-01
     vertex -3.174603e-02 -9.694733e-01  4.046429e-01
     vertex -3.174603e-02 -9.844915e-01  4.377399e-01
   endloop
 endfacet
 facet normal -1.000000e+00 -0.000000e+00  0.000000e+00
   outer loop
     vertex -3.174603e-02 -8.372134e-01  3.913581e-01
     vertex -3.174603e-02 -9.510222e-01  3.733297e-01
     vertex -3.174603e-02 -9.694733e-01  4.046429e-01
   endloop
 endfacet
 facet normal -1.000000e+00  0.000000e+00  0.000000e+00
   outer loop
     vertex -3.174603e-02 -8.372134e-01  3.913581e-01
     vertex -3.174603e-02 -9.293472e-01  3.441551e-01
     vertex -3.174603e-02 -9.510222e-01  3.733297e-01
   endloop
 endfacet
 facet normal -1.000000e+00  0.000000e+00  0.000000e+00
   outer loop
     vertex -3.174603e-02 -8.372134e-01  3.913581e-01
     vertex -3.174603e-02 -9.046939e-01  3.174497e-01
     vertex -3.174603e-02 -9.293472e-01  3.441551e-01
   endloop
 endfacet
 facet normal -1.000000e+00  0.000000e+00  0.000000e+00
   outer loop
     vertex -3.174603e-02 -8.372134e-01  3.913581e-01
     vertex -3.174603e-02 -8.773417e-01  2.935161e-01
     vertex -3.174603e-02 -9.046939e-01  3.174497e-01
   endloop
 endfacet
 facet normal -1.000000e+00  0.000000e+00  0.000000e+00
   outer loop
     vertex -3.174603e-02 -8.372134e-01  3.913581e-01
     vertex -3.174603e-02 -8.476005e-01  2.726255e-01
     vertex -3.174603e-02 -8.773417e-01  2.935161e-01
   endloop
 endfacet
 facet normal -1.000000e+00  0.000000e+00 -0.000000e+00
   outer loop
     vertex -3.174603e-02 -8.372134e-01  3.913581e-01
     vertex -3.174603e-02 -8.158072e-01  2.550145e-01
     vertex -3.174603e-02 -8.476005e-01  2.726255e-01
   endloop
 endfacet
 facet normal -1.000000e+00  0.000000e+00  0.000000e+00
   outer loop
     vertex -3.174603e-02 -8.372134e-01  3.913581e-01
     vertex -3.174603e-02 -7.823221e-01  2.408826e-01
     vertex -3.174603e-02 -8.158072e-01  2.550145e-01
   endloop
 endfacet
 facet normal -1.000000e+00  0.000000e+00  0.000000e+00
   outer loop
     vertex -3.174603e-02 -8.372134e-01  3.913581e-01
     vertex -3.174603e-02 -7.475246e-01  2.303901e-01
     vertex -3.174603e-02 -7.823221e-01  2.408826e-01
   endloop
 endfacet
 facet normal -1.000000e+00  0.000000e+00  0.000000e+00
   outer loop
     vertex -3.174603e-02 -8.372134e-01  3.913581e-01
     vertex -3.174603e-02 -7.118089e-01  2.236558e-01
     vertex -3.174603e-02 -7.475246e-01  2.303901e-01
   endloop
 endfacet
 facet normal -1.000000e+00  0.000000e+00  0.000000e+00
   outer loop
     vertex -3.174603e-02 -8.372134e-01  3.913581e-01
     vertex -3.174603e-02 -6.755798e-01  2.207560e-01
     vertex -3.174603e-02 -7.118089e-01  2.236558e-01
   endloop
 endfacet
 facet normal -1.000000e+00  0.000000e+00  0.000000e+00
   outer loop
     vertex -3.174603e-02 -1.007453e+00  5.802537e-01
     vertex -3.174603e-02 -8.372134e-01  3.913581e-01
     vertex -3.174603e-02 -1.007453e+00  5.439087e-01
   endloop
 endfacet
 facet normal -1.000000e+00  0.000000e+00 -0.000000e+00
   outer loop
     vertex -3.174603e-02 -8.372134e-01  7.328043e-01
     vertex -3.174603e-02 -8.372134e-01  3.913581e-01
     vertex -3.174603e-02 -1.007453e+00  5.802537e-01
   endloop
 endfacet
 facet normal -1.000000e+00  0.000000e+00  0.000000e+00
   outer loop
     vertex -3.174603e-02 -8.372134e-01  7.328043e-01
     vertex -3.174603e-02 -9.510222e-01  7.508327e-01
     vertex -3.174603e-02 -9.293472e-01  7.800072e-01
   endloop
 endfacet
 facet normal -1.000000e+00 -0.000000e+00  0.000000e+00
   outer loop
     vertex -3.174603e-02 -8.372134e-01  7.328043e-01
     vertex -3.174603e-02 -9.694733e-01  7.195195e-01
     vertex -3.174603e-02 -9.510222e-01  7.508327e-01
   endloop
 endfacet
 facet normal -1.000000e+00  0.000000e+00  0.000000e+00
   outer loop
     vertex -3.174603e-02 -8.372134e-01  7.328043e-01
     vertex -3.174603e-02 -9.844915e-01  6.864224e-01
     vertex -3.174603e-02 -9.694733e-01  7.195195e-01
   endloop
 endfacet
 facet normal -1.000000e+00  0.000000e+00  0.000000e+00
   outer loop
     vertex -3.174603e-02 -8.372134e-01  7.328043e-01
     vertex -3.174603e-02 -9.959066e-01  6.519166e-01
     vertex -3.174603e-02 -9.844915e-01  6.864224e-01
   endloop
 endfacet
 facet normal -1.000000e+00  0.000000e+00  0.000000e+00
   outer loop
     vertex -3.174603e-02 -8.372134e-01  7.328043e-01
     vertex -3.174603e-02 -1.003589e+00  6.163928e-01
     vertex -3.174603e-02 -9.959066e-01  6.519166e-01
   endloop
 endfacet
 facet normal -1.000000e+00  0.000000e+00  0.000000e+00
   outer loop
     vertex -3.174603e-02 -8.372134e-01  7.328043e-01
     vertex -3.174603e-02 -1.007453e+00  5.802537e-01
     vertex -3.174603e-02 -1.003589e+00  6.163928e-01
   endloop
 endfacet
 facet normal -1.000000e+00  0.000000e+00  0.000000e+00
   outer loop
     vertex -3.174603e-02 -4.957672e-01  3.913581e-01
     vertex -3.174603e-02 -6.392476e-01  2.217235e-01
     vertex -3.174603e-02 -6.755798e-01  2.207560e-01
   endloop
 endfacet
 facet normal -1.000000e+00  0.000000e+00  0.000000e+00
   outer loop
     vertex -3.174603e-02 -4.957672e-01  3.913581e-01
     vertex -3.174603e-02 -6.032242e-01  2.265474e-01
     vertex -3.174603e-02 -6.392476e-01  2.217235e-01
   endloop
 endfacet
 facet normal -1.000000e+00  0.000000e+00  0.000000e+00
   outer loop
     vertex -3.174603e-02 -4.957672e-01  3.913581e-01
     vertex -3.174603e-02 -5.679175e-01  2.351731e-01
     vertex -3.174603e-02 -6.032242e-01  2.265474e-01
   endloop
 endfacet
 facet normal -1.000000e+00  0.000000e+00  0.000000e+00
   outer loop
     vertex -3.174603e-02 -4.957672e-01  3.913581e-01
     vertex -3.174603e-02 -5.337277e-01  2.475027e-01
     vertex -3.174603e-02 -5.679175e-01  2.351731e-01
   endloop
 endfacet
 facet normal -1.000000e+00  0.000000e+00  0.000000e+00
   outer loop
     vertex -3.174603e-02 -4.957672e-01  3.913581e-01
     vertex -3.174603e-02 -5.010422e-01  2.633966e-01
     vertex -3.174603e-02 -5.337277e-01  2.475027e-01
   endloop
 endfacet
 facet normal -1.000000e+00  0.000000e+00 -0.000000e+00
   outer loop
     vertex -3.174603e-02 -4.957672e-01  3.913581e-01
     vertex -3.174603e-02 -4.702313e-01  2.826748e-01
     vertex -3.174603e-02 -5.010422e-01  2.633966e-01
   endloop
 endfacet
 facet normal -1.000000e+00  0.000000e+00  0.000000e+00
   outer loop
     vertex -3.174603e-02 -4.957672e-01  3.913581e-01
     vertex -3.174603e-02 -4.416441e-01  3.051187e-01
     vertex -3.174603e-02 -4.702313e-01  2.826748e-01
   endloop
 endfacet
 facet normal -1.000000e+00 -0.000000e+00  0.000000e+00
   outer loop
     vertex -3.174603e-02 -4.957672e-01  3.913581e-01
     vertex -3.174603e-02 -6.755798e-01  2.207560e-01
     vertex -3.174603e-02 -8.372134e-01  3.913581e-01
   endloop
 endfacet
 facet normal -1.000000e+00  0.000000e+00 -0.000000e+00
   outer loop
     vertex -3.174603e-02 -9.046939e-01  8.067126e-01
     vertex -3.174603e-02 -8.372134e-01  7.328043e-01
     vertex -3.174603e-02 -9.293472e-01  7.800072e-01
   endloop
 endfacet
 facet normal -1.000000e+00 -0.000000e+00  0.000000e+00
   outer loop
     vertex -3.174603e-02 -4.156044e-01  3.304742e-01
     vertex -3.174603e-02 -4.416441e-01  3.051187e-01
     vertex -3.174603e-02 -4.957672e-01  3.913581e-01
   endloop
 endfacet
 facet normal -1.000000e+00  0.000000e+00 -0.000000e+00
   outer loop
     vertex -3.174603e-02 -8.773417e-01  8.306462e-01
     vertex -3.174603e-02 -8.372134e-01  7.328043e-01
     vertex -3.174603e-02 -9.046939e-01  8.067126e-01
   endloop
 endfacet
 facet normal -1.000000e+00 -0.000000e+00  0.000000e+00
   outer loop
     vertex -3.174603e-02 -3.924074e-01  3.584538e-01
     vertex -3.174603e-02 -4.156044e-01  3.304742e-01
     vertex -3.174603e-02 -4.957672e-01  3.913581e-01
   endloop
 endfacet
 facet normal -1.000000e+00  0.000000e+00 -0.000000e+00
   outer loop
     vertex -3.174603e-02 -8.476005e-01  8.515369e-01
     vertex -3.174603e-02 -8.372134e-01  7.328043e-01
     vertex -3.174603e-02 -8.773417e-01  8.306462e-01
   endloop
 endfacet
 facet normal -1.000000e+00 -0.000000e+00  0.000000e+00
   outer loop
     vertex -3.174603e-02 -3.723159e-01  3.887406e-01
     vertex -3.174603e-02 -3.924074e-01  3.584538e-01
     vertex -3.174603e-02 -4.957672e-01  3.913581e-01
   endloop
 endfacet
 facet normal -1.000000e+00  0.000000e+00  0.000000e+00
   outer loop
     vertex -3.174603e-02 -8.158072e-01  8.691479e-01
     vertex -3.174603e-02 -8.372134e-01  7.328043e-01
     vertex -3.174603e-02 -8.476005e-01  8.515369e-01
   endloop
 endfacet
 facet normal -1.000000e+00  0.000000e+00  0.000000e+00
   outer loop
     vertex -3.174603e-02 -3.555575e-01  4.209914e-01
     vertex -3.174603e-02 -3.723159e-01  3.887406e-01
     vertex -3.174603e-02 -4.957672e-01  3.913581e-01
   endloop
 endfacet
 facet normal -1.000000e+00  0.000000e+00  0.000000e+00
   outer loop
     vertex -3.174603e-02 -7.823221e-01  8.832797e-01
     vertex -3.174603e-02 -8.372134e-01  7.328043e-01
     vertex -3.174603e-02 -8.158072e-01  8.691479e-01
   endloop
 endfacet
 facet normal -1.000000e+00  0.000000e+00  0.000000e+00
   outer loop
     vertex -3.174603e-02 -3.423221e-01  4.548409e-01
     vertex -3.174603e-02 -3.555575e-01  4.209914e-01
     vertex -3.174603e-02 -4.957672e-01  3.913581e-01
   endloop
 endfacet
 facet normal -1.000000e+00  0.000000e+00  0.000000e+00
   outer loop
     vertex -3.174603e-02 -7.475246e-01  8.937722e-01
     vertex -3.174603e-02 -8.372134e-01  7.328043e-01
     vertex -3.174603e-02 -7.823221e-01  8.832797e-01
   endloop
 endfacet
 facet normal -1.000000e+00  0.000000e+00  0.000000e+00
   outer loop
     vertex -3.174603e-02 -3.327596e-01  4.899054e-01
     vertex -3.174603e-02 -3.423221e-01  4.548409e-01
     vertex -3.174603e-02 -4.957672e-01  3.913581e-01
   endloop
 endfacet
 facet normal -1.000000e+00  0.000000e+00  0.000000e+00
   outer loop
     vertex -3.174603e-02 -7.118089e-01  9.005066e-01
     vertex -3.174603e-02 -8.372134e-01  7.328043e-01
     vertex -3.174603e-02 -7.475246e-01  8.937722e-01
   endloop
 endfacet
 facet normal -1.000000e+00  0.000000e+00  0.000000e+00
   outer loop
     vertex -3.174603e-02 -3.269784e-01  5.257877e-01
     vertex -3.174603e-02 -3.327596e-01  4.899054e-01
     vertex -3.174603e-02 -4.957672e-01  3.913581e-01
   endloop
 endfacet
 facet normal -1.000000e+00  0.000000e+00  0.000000e+00
   outer loop
     vertex -3.174603e-02 -6.755798e-01  9.034064e-01
     vertex -3.174603e-02 -8.372134e-01  7.328043e-01
     vertex -3.174603e-02 -7.118089e-01  9.005066e-01
   endloop
 endfacet
 facet normal -1.000000e+00  0.000000e+00  0.000000e+00
   outer loop
     vertex -3.174603e-02 -3.250441e-01  5.620812e-01
     vertex -3.174603e-02 -3.269784e-01  5.257877e-01
     vertex -3.174603e-02 -4.957672e-01  3.913581e-01
   endloop
 endfacet
 facet normal -1.000000e+00  0.000000e+00  0.000000e+00
   outer loop
     vertex -3.174603e-02 -4.957672e-01  7.328043e-01
     vertex -3.174603e-02 -8.372134e-01  7.328043e-01
     vertex -3.174603e-02 -6.755798e-01  9.034064e-01
   endloop
 endfacet
 facet normal -1.000000e+00  0.000000e+00  0.000000e+00
   outer loop
     vertex -3.174603e-02 -4.957672e-01  7.328043e-01
     vertex -3.174603e-02 -3.250441e-01  5.620812e-01
     vertex -3.174603e-02 -4.957672e-01  3.913581e-01
   endloop
 endfacet
 facet normal -1.000000e+00 -0.000000e+00 -0.000000e+00
   outer loop
     vertex -3.174603e-02 -6.392476e-01  9.024389e-01
     vertex -3.174603e-02 -4.957672e-01  7.328043e-01
     vertex -3.174603e-02 -6.755798e-01  9.034064e-01
   endloop
 endfacet
 facet normal -1.000000e+00 -0.000000e+00 -0.000000e+00
   outer loop
     vertex -3.174603e-02 -3.269784e-01  5.983747e-01
     vertex -3.174603e-02 -3.250441e-01  5.620812e-01
     vertex -3.174603e-02 -4.957672e-01  7.328043e-01
   endloop
 endfacet
 facet normal -1.000000e+00 -0.000000e+00 -0.000000e+00
   outer loop
     vertex -3.174603e-02 -6.032242e-01  8.976150e-01
     vertex -3.174603e-02 -4.957672e-01  7.328043e-01
     vertex -3.174603e-02 -6.392476e-01  9.024389e-01
   endloop
 endfacet
 facet normal -1.000000e+00 -0.000000e+00 -0.000000e+00
   outer loop
     vertex -3.174603e-02 -3.327596e-01  6.342570e-01
     vertex -3.174603e-02 -3.269784e-01  5.983747e-01
     vertex -3.174603e-02 -4.957672e-01  7.328043e-01
   endloop
 endfacet
 facet normal -1.000000e+00 -0.000000e+00 -0.000000e+00
   outer loop
     vertex -3.174603e-02 -5.679175e-01  8.889893e-01
     vertex -3.174603e-02 -4.957672e-01  7.328043e-01
     vertex -3.174603e-02 -6.032242e-01  8.976150e-01
   endloop
 endfacet
 facet normal -1.000000e+00 -0.000000e+00 -0.000000e+00
   outer loop
     vertex -3.174603e-02 -3.423221e-01  6.693215e-01
     vertex -3.174603e-02 -3.327596e-01  6.342570e-01
     vertex -3.174603e-02 -4.957672e-01  7.328043e-01
   endloop
 endfacet
 facet normal -1.000000e+00 -0.000000e+00 -0.000000e+00
   outer loop
     vertex -3.174603e-02 -5.337277e-01  8.766597e-01
     vertex -3.174603e-02 -4.957672e-01  7.328043e-01
     vertex -3.174603e-02 -5.679175e-01  8.889893e-01
   endloop
 endfacet
 facet normal -1.000000e+00 -0.000000e+00 -0.000000e+00
   outer loop
     vertex -3.174603e-02 -3.555575e-01  7.031709e-01
     vertex -3.174603e-02 -3.423221e-01  6.693215e-01
     vertex -3.174603e-02 -4.957672e-01  7.328043e-01
   endloop
 endfacet
 facet normal -1.000000e+00 -0.000000e+00 -0.000000e+00
   outer loop
     vertex -3.174603e-02 -5.010422e-01  8.607657e-01
     vertex -3.174603e-02 -4.957672e-01  7.328043e-01
     vertex -3.174603e-02 -5.337277e-01  8.766597e-01
   endloop
 endfacet
 facet normal -1.000000e+00  0.000000e+00 -0.000000e+00
   outer loop
     vertex -3.174603e-02 -3.723159e-01  7.354218e-01
     vertex -3.174603e-02 -3.555575e-01  7.031709e-01
     vertex -3.174603e-02 -4.957672e-01  7.328043e-01
   endloop
 endfacet
 facet normal -1.000000e+00 -0.000000e+00  0.000000e+00
   outer loop
     vertex -3.174603e-02 -4.702313e-01  8.414876e-01
     vertex -3.174603e-02 -4.957672e-01  7.328043e-01
     vertex -3.174603e-02 -5.010422e-01  8.607657e-01
   endloop
 endfacet
 facet normal -1.000000e+00  0.000000e+00 -0.000000e+00
   outer loop
     vertex -3.174603e-02 -3.924074e-01  7.657086e-01
     vertex -3.174603e-02 -3.723159e-01  7.354218e-01
     vertex -3.174603e-02 -4.957672e-01  7.328043e-01
   endloop
 endfacet
 facet normal -1.000000e+00 -0.000000e+00  0.000000e+00
   outer loop
     vertex -3.174603e-02 -4.416441e-01  8.190436e-01
     vertex -3.174603e-02 -4.957672e-01  7.328043e-01
     vertex -3.174603e-02 -4.702313e-01  8.414876e-01
   endloop
 endfacet
 facet normal -1.000000e+00  0.000000e+00 -0.000000e+00
   outer loop
     vertex -3.174603e-02 -4.156044e-01  7.936882e-01
     vertex -3.174603e-02 -3.924074e-01  7.657086e-01
     vertex -3.174603e-02 -4.957672e-01  7.328043e-01
   endloop
 endfacet
 facet normal -1.000000e+00 -0.000000e+00  0.000000e+00
   outer loop
     vertex -3.174603e-02 -4.156044e-01  7.936882e-01
     vertex -3.174603e-02 -4.957672e-01  7.328043e-01
     vertex -3.174603e-02 -4.416441e-01  8.190436e-01
   endloop
 endfacet
 facet normal  0.000000e+00  0.000000e+00  1.000000e+00
   outer loop
     vertex -1.587302e-02 -4.957672e-01  3.913581e-01
     vertex -1.587302e-02 -8.372134e-01  3.913581e-01
     vertex  6.984127e-01 -8.372134e-01  3.913581e-01
   endloop
 endfacet
 facet normal -0.000000e+00  0.000000e+00  1.000000e+00
   outer loop
     vertex -1.587302e-02 -4.957672e-01  3.913581e-01
     vertex  6.984127e-01 -8.372134e-01  3.913581e-01
     vertex  6.984127e-01 -4.957672e-01  3.913581e-01
   endloop
 endfacet
 facet normal  0.000000e+00 -1.000000e+00  0.000000e+00
   outer loop
     vertex -1.587302e-02 -4.957672e-01  7.328043e-01
     vertex -1.587302e-02 -4.957672e-01  3.913581e-01
     vertex  6.984127e-01 -4.957672e-01  3.913581e-01
   endloop
 endfacet
 facet normal  0.000000e+00 -1.000000e+00  0.000000e+00
   outer loop
     vertex -1.587302e-02 -4.957672e-01  7.328043e-01
     vertex  6.984127e-01 -4.957672e-01  3.913581e-01
     vertex  6.984127e-01 -4.957672e-01  7.328043e-01
   endloop
 endfacet
 facet normal  0.000000e+00  0.000000e+00 -1.000000e+00
   outer loop
     vertex -1.587302e-02 -8.372134e-01  7.328043e-01
     vertex -1.587302e-02 -4.957672e-01  7.328043e-01
     vertex  6.984127e-01 -4.957672e-01  7.328043e-01
   endloop
 endfacet
 facet normal  0.000000e+00  0.000000e+00 -1.000000e+00
   outer loop
     vertex -1.587302e-02 -8.372134e-01  7.328043e-01
     vertex  6.984127e-01 -4.957672e-01  7.328043e-01
     vertex  6.984127e-01 -8.372134e-01  7.328043e-01
   endloop
 endfacet
 facet normal  0.000000e+00  1.000000e+00  0.000000e+00
   outer loop
     vertex -1.587302e-02 -8.372134e-01  3.913581e-01
     vertex -1.587302e-02 -8.372134e-01  7.328043e-01
     vertex  6.984127e-01 -8.372134e-01  7.328043e-01
   endloop
 endfacet
 facet normal  0.000000e+00  1.000000e+00  0.000000e+00
   outer loop
     vertex -1.587302e-02 -8.372134e-01  3.913581e-01
     vertex  6.984127e-01 -8.372134e-01  7.328043e-01
     vertex  6.984127e-01 -8.372134e-01  3.913581e-01
   endloop
 endfacet
 facet normal  0.000000e+00  0.000000e+00  1.000000e+00
   outer loop
     vertex -1.587302e-02 -4.957672e-01  3.913581e-01
     vertex -3.174603e-02 -8.372134e-01  3.913581e-01
     vertex -1.587302e-02 -8.372134e-01  3.913581e-01
   endloop
 endfacet
 facet normal  0.000000e+00  0.000000e+00  1.000000e+00
   outer loop
     vertex -1.587302e-02 -4.957672e-01  3.913581e-01
     vertex -3.174603e-02 -4.957672e-01  3.913581e-01
     vertex -3.174603e-02 -8.372134e-01  3.913581e-01
   endloop
 endfacet
 facet normal  0.000000e+00 -1.000000e+00 -0.000000e+00
   outer loop
     vertex -1.587302e-02 -4.957672e-01  7.328043e-01
     vertex -3.174603e-02 -4.957672e-01  3.913581e-01
     vertex -1.587302e-02 -4.957672e-01  3.913581e-01
   endloop
 endfacet
 facet normal -0.000000e+00 -1.000000e+00  0.000000e+00
   outer loop
     vertex -1.587302e-02 -4.957672e-01  7.328043e-01
     vertex -3.174603e-02 -4.957672e-01  7.328043e-01
     vertex -3.174603e-02 -4.957672e-01  3.913581e-01
   endloop
 endfacet
 facet normal  0.000000e+00  0.000000e+00 -1.000000e+00
   outer loop
     vertex -1.587302e-02 -8.372134e-01  7.328043e-01
     vertex -3.174603e-02 -4.957672e-01  7.328043e-01
     vertex -1.587302e-02 -4.957672e-01  7.328043e-01
   endloop
 endfacet
 facet normal  0.000000e+00  0.000000e+00 -1.000000e+00
   outer loop
     vertex -1.587302e-02 -8.372134e-01  7.328043e-01
     vertex -3.174603e-02 -8.372134e-01  7.328043e-01
     vertex -3.174603e-02 -4.957672e-01  7.328043e-01
   endloop
 endfacet
 facet normal  0.000000e+00  1.000000e+00 -0.000000e+00
   outer loop
     vertex -1.587302e-02 -8.372134e-01  3.913581e-01
     vertex -3.174603e-02 -8.372134e-01  7.328043e-01
     vertex -1.587302e-02 -8.372134e-01  7.328043e-01
   endloop
 endfacet
 facet normal  0.000000e+00  1.000000e+00  0.000000e+00
   outer loop
     vertex -1.587302e-02 -8.372134e-01  3.913581e-01
     vertex -3.174603e-02 -8.372134e-01  3.913581e-01
     vertex -3.174603e-02 -8.372134e-01  7.328043e-01
   endloop
 endfacet
endsolid
