solid 
 facet normal  7.806564e-16 -1.000000e+00  0.000000e+00
   outer loop
     vertex  2.396719e-01 -4.708993e-02  6.349212e-02
     vertex -2.698421e-02 -4.708993e-02  2.222223e-01
     vertex -2.698421e-02 -4.708993e-02 -1.587302e-02
   endloop
 endfacet
 facet normal  9.133680e-15 -1.000000e+00  1.403253e-14
   outer loop
     vertex  2.396719e-01 -4.708993e-02  6.349212e-02
     vertex  2.396719e-01 -4.708993e-02  2.222223e-01
     vertex -2.698421e-02 -4.708993e-02  2.222223e-01
   endloop
 endfacet
 facet normal -1.179348e-15 -1.000000e+00  2.491757e-15
   outer loop
     vertex  9.211640e-01 -4.708993e-02  2.222223e-01
     vertex  6.446316e-01 -4.708993e-02  2.222223e-01
     vertex  6.446316e-01 -4.708993e-02  6.349212e-02
   endloop
 endfacet
 facet normal  2.509252e-16 -1.000000e+00  0.000000e+00
   outer loop
     vertex  9.211640e-01 -4.708993e-02 -1.587302e-02
     vertex  9.211640e-01 -4.708993e-02  2.222223e-01
     vertex  6.446316e-01 -4.708993e-02  6.349212e-02
   endloop
 endfacet
 facet normal  0.000000e+00 -1.000000e+00  2.622900e-15
   outer loop
     vertex  9.211640e-01 -4.708993e-02 -1.587302e-02
     vertex  2.396719e-01 -4.708993e-02  6.349212e-02
     vertex -2.698421e-02 -4.708993e-02 -1.587302e-02
   endloop
 endfacet
 facet normal -6.853911e-16 -1.000000e+00 -3.262412e-15
   outer loop
     vertex  9.211640e-01 -4.708993e-02 -1.587302e-02
     vertex  6.446316e-01 -4.708993e-02  6.349212e-02
     vertex  2.396719e-01 -4.708993e-02  6.349212e-02
   endloop
 endfacet
 facet normal -0.000000e+00 -1.000000e+00  0.000000e+00
   outer loop
     vertex  9.211640e-01 -4.708993e-02 -1.587302e-02
     vertex -2.698421e-02 -4.708993e-02 -1.587302e-02
     vertex -2.698421e-02 -4.708993e-02 -3.174603e-02
   endloop
 endfacet
 facet normal  0.000000e+00 -1.000000e+00 -0.000000e+00
   outer loop
     vertex  9.211640e-01 -4.708993e-02 -1.587302e-02
     vertex -2.698421e-02 -4.708993e-02 -3.174603e-02
     vertex  9.211640e-01 -4.708993e-02 -3.174603e-02
   endloop
 endfacet
 facet normal  1.000000e+00  0.000000e+00  0.000000e+00
   outer loop
     vertex  9.211640e-01  4.269842e-01 -1.587302e-02
     vertex  9.211640e-01 -4.708993e-02  2.222223e-01
     vertex  9.211640e-01 -4.708993e-02 -1.587302e-02
   endloop
 endfacet
 facet normal  1.000000e+00  0.000000e+00 -0.000000e+00
   outer loop
     vertex  9.211640e-01  4.269842e-01 -1.587302e-02
     vertex  9.211640e-01  4.269842e-01  2.222223e-01
     vertex  9.211640e-01 -4.708993e-02  2.222223e-01
   endloop
 endfacet
 facet normal  0.000000e+00  0.000000e+00  1.000000e+00
   outer loop
     vertex  9.211640e-01 -4.708993e-02  2.222223e-01
     vertex  6.687105e-01 -2.400225e-02  2.222223e-01
     vertex  6.446316e-01 -4.708993e-02  2.222223e-01
   endloop
 endfacet
 facet normal  0.000000e+00  0.000000e+00  1.000000e+00
   outer loop
     vertex  9.211640e-01 -4.708993e-02  2.222223e-01
     vertex  6.901728e-01  1.536120e-03  2.222223e-01
     vertex  6.687105e-01 -2.400225e-02  2.222223e-01
   endloop
 endfacet
 facet normal  0.000000e+00  0.000000e+00  1.000000e+00
   outer loop
     vertex  9.211640e-01 -4.708993e-02  2.222223e-01
     vertex  7.087704e-01  2.923022e-02  2.222223e-01
     vertex  6.901728e-01  1.536120e-03  2.222223e-01
   endloop
 endfacet
 facet normal  0.000000e+00  0.000000e+00  1.000000e+00
   outer loop
     vertex  9.211640e-01 -4.708993e-02  2.222223e-01
     vertex  7.242887e-01  5.876019e-02  2.222223e-01
     vertex  7.087704e-01  2.923022e-02  2.222223e-01
   endloop
 endfacet
 facet normal  0.000000e+00  0.000000e+00  1.000000e+00
   outer loop
     vertex  9.211640e-01 -4.708993e-02  2.222223e-01
     vertex  7.365484e-01  8.978496e-02  2.222223e-01
     vertex  7.242887e-01  5.876019e-02  2.222223e-01
   endloop
 endfacet
 facet normal  0.000000e+00  0.000000e+00  1.000000e+00
   outer loop
     vertex  9.211640e-01 -4.708993e-02  2.222223e-01
     vertex  7.454079e-01  1.219462e-01  2.222223e-01
     vertex  7.365484e-01  8.978496e-02  2.222223e-01
   endloop
 endfacet
 facet normal  0.000000e+00  0.000000e+00  1.000000e+00
   outer loop
     vertex  7.507648e-01  1.548725e-01  2.222223e-01
     vertex  7.454079e-01  1.219462e-01  2.222223e-01
     vertex  9.211640e-01 -4.708993e-02  2.222223e-01
   endloop
 endfacet
 facet normal  0.000000e+00  0.000000e+00  1.000000e+00
   outer loop
     vertex  7.525574e-01  1.881835e-01  2.222223e-01
     vertex  7.507648e-01  1.548725e-01  2.222223e-01
     vertex  9.211640e-01 -4.708993e-02  2.222223e-01
   endloop
 endfacet
 facet normal  0.000000e+00  0.000000e+00  1.000000e+00
   outer loop
     vertex  9.211640e-01  4.269842e-01  2.222223e-01
     vertex  7.506908e-01  2.221734e-01  2.222223e-01
     vertex  7.525574e-01  1.881835e-01  2.222223e-01
   endloop
 endfacet
 facet normal  0.000000e+00  0.000000e+00  1.000000e+00
   outer loop
     vertex  9.211640e-01  4.269842e-01  2.222223e-01
     vertex  7.451135e-01  2.557546e-01  2.222223e-01
     vertex  7.506908e-01  2.221734e-01  2.222223e-01
   endloop
 endfacet
 facet normal  0.000000e+00  0.000000e+00  1.000000e+00
   outer loop
     vertex  9.211640e-01  4.269842e-01  2.222223e-01
     vertex  7.358925e-01  2.885230e-01  2.222223e-01
     vertex  7.451135e-01  2.557546e-01  2.222223e-01
   endloop
 endfacet
 facet normal  0.000000e+00  0.000000e+00  1.000000e+00
   outer loop
     vertex  9.211640e-01  4.269842e-01  2.222223e-01
     vertex  7.231388e-01  3.200847e-01  2.222223e-01
     vertex  7.358925e-01  2.885230e-01  2.222223e-01
   endloop
 endfacet
 facet normal  0.000000e+00  0.000000e+00  1.000000e+00
   outer loop
     vertex  9.211640e-01  4.269842e-01  2.222223e-01
     vertex  7.070057e-01  3.500601e-01  2.222223e-01
     vertex  7.231388e-01  3.200847e-01  2.222223e-01
   endloop
 endfacet
 facet normal  0.000000e+00  0.000000e+00  1.000000e+00
   outer loop
     vertex  9.211640e-01  4.269842e-01  2.222223e-01
     vertex  6.876873e-01  3.780886e-01  2.222223e-01
     vertex  7.070057e-01  3.500601e-01  2.222223e-01
   endloop
 endfacet
 facet normal  0.000000e+00  0.000000e+00  1.000000e+00
   outer loop
     vertex  9.211640e-01  4.269842e-01  2.222223e-01
     vertex  6.654159e-01  4.038332e-01  2.222223e-01
     vertex  6.876873e-01  3.780886e-01  2.222223e-01
   endloop
 endfacet
 facet normal  0.000000e+00  0.000000e+00  1.000000e+00
   outer loop
     vertex  9.211640e-01  4.269842e-01  2.222223e-01
     vertex  6.404593e-01  4.269842e-01  2.222223e-01
     vertex  6.654159e-01  4.038332e-01  2.222223e-01
   endloop
 endfacet
 facet normal  0.000000e+00  0.000000e+00  1.000000e+00
   outer loop
     vertex  9.211640e-01  4.269842e-01  2.222223e-01
     vertex  7.525574e-01  1.881835e-01  2.222223e-01
     vertex  9.211640e-01 -4.708993e-02  2.222223e-01
   endloop
 endfacet
 facet normal -6.920933e-01  7.218080e-01  1.589977e-15
   outer loop
     vertex  6.446316e-01 -4.708993e-02  2.222223e-01
     vertex  6.687105e-01 -2.400225e-02  6.349212e-02
     vertex  6.446316e-01 -4.708993e-02  6.349212e-02
   endloop
 endfacet
 facet normal -7.655570e-01  6.433681e-01  3.148200e-16
   outer loop
     vertex  6.687105e-01 -2.400225e-02  2.222223e-01
     vertex  6.901728e-01  1.536120e-03  6.349212e-02
     vertex  6.687105e-01 -2.400225e-02  6.349212e-02
   endloop
 endfacet
 facet normal -6.920933e-01  7.218080e-01 -2.301338e-16
   outer loop
     vertex  6.687105e-01 -2.400225e-02  2.222223e-01
     vertex  6.687105e-01 -2.400225e-02  6.349212e-02
     vertex  6.446316e-01 -4.708993e-02  2.222223e-01
   endloop
 endfacet
 facet normal -8.301787e-01  5.574974e-01  5.636855e-16
   outer loop
     vertex  6.901728e-01  1.536120e-03  2.222223e-01
     vertex  7.087704e-01  2.923022e-02  6.349212e-02
     vertex  6.901728e-01  1.536120e-03  6.349212e-02
   endloop
 endfacet
 facet normal -7.655570e-01  6.433681e-01 -2.267832e-17
   outer loop
     vertex  6.901728e-01  1.536120e-03  2.222223e-01
     vertex  6.901728e-01  1.536120e-03  6.349212e-02
     vertex  6.687105e-01 -2.400225e-02  2.222223e-01
   endloop
 endfacet
 facet normal -8.852120e-01  4.651878e-01 -2.574531e-16
   outer loop
     vertex  7.087704e-01  2.923022e-02  2.222223e-01
     vertex  7.242887e-01  5.876019e-02  6.349212e-02
     vertex  7.087704e-01  2.923022e-02  6.349212e-02
   endloop
 endfacet
 facet normal -8.301787e-01  5.574974e-01 -7.926040e-16
   outer loop
     vertex  7.087704e-01  2.923022e-02  2.222223e-01
     vertex  7.087704e-01  2.923022e-02  6.349212e-02
     vertex  6.901728e-01  1.536120e-03  2.222223e-01
   endloop
 endfacet
 facet normal -9.300214e-01  3.675053e-01  8.669039e-16
   outer loop
     vertex  7.242887e-01  5.876019e-02  2.222223e-01
     vertex  7.365484e-01  8.978496e-02  6.349212e-02
     vertex  7.242887e-01  5.876019e-02  6.349212e-02
   endloop
 endfacet
 facet normal -8.852120e-01  4.651878e-01  2.803573e-16
   outer loop
     vertex  7.242887e-01  5.876019e-02  2.222223e-01
     vertex  7.242887e-01  5.876019e-02  6.349212e-02
     vertex  7.087704e-01  2.923022e-02  2.222223e-01
   endloop
 endfacet
 facet normal -9.640893e-01  2.655783e-01  4.835259e-17
   outer loop
     vertex  7.365484e-01  8.978496e-02  2.222223e-01
     vertex  7.454079e-01  1.219462e-01  6.349212e-02
     vertex  7.365484e-01  8.978496e-02  6.349212e-02
   endloop
 endfacet
 facet normal -9.300214e-01  3.675053e-01 -4.983476e-16
   outer loop
     vertex  7.365484e-01  8.978496e-02  2.222223e-01
     vertex  7.365484e-01  8.978496e-02  6.349212e-02
     vertex  7.242887e-01  5.876019e-02  2.222223e-01
   endloop
 endfacet
 facet normal -9.870222e-01  1.605839e-01 -1.239488e-16
   outer loop
     vertex  7.454079e-01  1.219462e-01  2.222223e-01
     vertex  7.507648e-01  1.548725e-01  6.349212e-02
     vertex  7.454079e-01  1.219462e-01  6.349212e-02
   endloop
 endfacet
 facet normal -9.640893e-01  2.655783e-01 -6.724096e-16
   outer loop
     vertex  7.454079e-01  1.219462e-01  2.222223e-01
     vertex  7.454079e-01  1.219462e-01  6.349212e-02
     vertex  7.365484e-01  8.978496e-02  2.222223e-01
   endloop
 endfacet
 facet normal -9.985552e-01  5.373485e-02  1.114978e-15
   outer loop
     vertex  7.507648e-01  1.548725e-01  2.222223e-01
     vertex  7.525574e-01  1.881835e-01  6.349212e-02
     vertex  7.507648e-01  1.548725e-01  6.349212e-02
   endloop
 endfacet
 facet normal -9.870222e-01  1.605839e-01  5.383348e-16
   outer loop
     vertex  7.507648e-01  1.548725e-01  2.222223e-01
     vertex  7.507648e-01  1.548725e-01  6.349212e-02
     vertex  7.454079e-01  1.219462e-01  2.222223e-01
   endloop
 endfacet
 facet normal -9.985552e-01  5.373485e-02  0.000000e+00
   outer loop
     vertex  7.525574e-01  1.881835e-01  2.222223e-01
     vertex  7.525574e-01  1.881835e-01  6.349212e-02
     vertex  7.507648e-01  1.548725e-01  2.222223e-01
   endloop
 endfacet
 facet normal  0.000000e+00  0.000000e+00  1.000000e+00
   outer loop
     vertex  1.970346e-01  3.786284e-01  6.349212e-02
     vertex  1.778334e-01  3.509333e-01  6.349212e-02
     vertex  1.617478e-01  3.213199e-01  6.349212e-02
   endloop
 endfacet
 facet normal  0.000000e+00  0.000000e+00  1.000000e+00
   outer loop
     vertex  2.438442e-01  4.269842e-01  6.349212e-02
     vertex  2.191250e-01  4.040787e-01  6.349212e-02
     vertex  1.970346e-01  3.786284e-01  6.349212e-02
   endloop
 endfacet
 facet normal  0.000000e+00  0.000000e+00  1.000000e+00
   outer loop
     vertex  2.438442e-01  4.269842e-01  6.349212e-02
     vertex  1.617478e-01  3.213199e-01  6.349212e-02
     vertex  1.489673e-01  2.901372e-01  6.349212e-02
   endloop
 endfacet
 facet normal  0.000000e+00  0.000000e+00  1.000000e+00
   outer loop
     vertex  2.438442e-01  4.269842e-01  6.349212e-02
     vertex  1.489673e-01  2.901372e-01  6.349212e-02
     vertex  1.396426e-01  2.577528e-01  6.349212e-02
   endloop
 endfacet
 facet normal  0.000000e+00  0.000000e+00  1.000000e+00
   outer loop
     vertex  2.438442e-01  4.269842e-01  6.349212e-02
     vertex  1.396426e-01  2.577528e-01  6.349212e-02
     vertex  1.338836e-01  2.245483e-01  6.349212e-02
   endloop
 endfacet
 facet normal  0.000000e+00  0.000000e+00  1.000000e+00
   outer loop
     vertex  2.438442e-01  4.269842e-01  6.349212e-02
     vertex  1.338836e-01  2.245483e-01  6.349212e-02
     vertex  1.317581e-01  1.909152e-01  6.349212e-02
   endloop
 endfacet
 facet normal  0.000000e+00  0.000000e+00  1.000000e+00
   outer loop
     vertex  2.438442e-01  4.269842e-01  6.349212e-02
     vertex  1.317581e-01  1.909152e-01  6.349212e-02
     vertex  1.332913e-01  1.572499e-01  6.349212e-02
   endloop
 endfacet
 facet normal  0.000000e+00  0.000000e+00  1.000000e+00
   outer loop
     vertex  2.438442e-01  4.269842e-01  6.349212e-02
     vertex  1.332913e-01  1.572499e-01  6.349212e-02
     vertex  1.384650e-01  1.239493e-01  6.349212e-02
   endloop
 endfacet
 facet normal  0.000000e+00  0.000000e+00  1.000000e+00
   outer loop
     vertex  2.438442e-01  4.269842e-01  6.349212e-02
     vertex  1.970346e-01  3.786284e-01  6.349212e-02
     vertex  1.617478e-01  3.213199e-01  6.349212e-02
   endloop
 endfacet
 facet normal  0.000000e+00  0.000000e+00  1.000000e+00
   outer loop
     vertex  7.365484e-01  8.978496e-02  6.349212e-02
     vertex  7.087704e-01  2.923022e-02  6.349212e-02
     vertex  7.242887e-01  5.876019e-02  6.349212e-02
   endloop
 endfacet
 facet normal  0.000000e+00  0.000000e+00  1.000000e+00
   outer loop
     vertex  7.454079e-01  1.219462e-01  6.349212e-02
     vertex  6.687105e-01 -2.400225e-02  6.349212e-02
     vertex  6.901728e-01  1.536120e-03  6.349212e-02
   endloop
 endfacet
 facet normal  0.000000e+00  0.000000e+00  1.000000e+00
   outer loop
     vertex  7.454079e-01  1.219462e-01  6.349212e-02
     vertex  6.901728e-01  1.536120e-03  6.349212e-02
     vertex  7.087704e-01  2.923022e-02  6.349212e-02
   endloop
 endfacet
 facet normal  0.000000e+00  0.000000e+00  1.000000e+00
   outer loop
     vertex  7.454079e-01  1.219462e-01  6.349212e-02
     vertex  7.087704e-01  2.923022e-02  6.349212e-02
     vertex  7.365484e-01  8.978496e-02  6.349212e-02
   endloop
 endfacet
 facet normal  0.000000e+00  0.000000e+00  1.000000e+00
   outer loop
     vertex  7.506908e-01  2.221734e-01  6.349212e-02
     vertex  7.454079e-01  1.219462e-01  6.349212e-02
     vertex  7.507648e-01  1.548725e-01  6.349212e-02
   endloop
 endfacet
 facet normal  0.000000e+00  0.000000e+00  1.000000e+00
   outer loop
     vertex  7.506908e-01  2.221734e-01  6.349212e-02
     vertex  7.507648e-01  1.548725e-01  6.349212e-02
     vertex  7.525574e-01  1.881835e-01  6.349212e-02
   endloop
 endfacet
 facet normal  0.000000e+00  0.000000e+00  1.000000e+00
   outer loop
     vertex  7.070057e-01  3.500601e-01  6.349212e-02
     vertex  7.451135e-01  2.557546e-01  6.349212e-02
     vertex  7.358925e-01  2.885230e-01  6.349212e-02
   endloop
 endfacet
 facet normal  0.000000e+00  0.000000e+00  1.000000e+00
   outer loop
     vertex  7.070057e-01  3.500601e-01  6.349212e-02
     vertex  7.358925e-01  2.885230e-01  6.349212e-02
     vertex  7.231388e-01  3.200847e-01  6.349212e-02
   endloop
 endfacet
 facet normal  0.000000e+00  0.000000e+00  1.000000e+00
   outer loop
     vertex  6.654159e-01  4.038332e-01  6.349212e-02
     vertex  6.446316e-01 -4.708993e-02  6.349212e-02
     vertex  6.687105e-01 -2.400225e-02  6.349212e-02
   endloop
 endfacet
 facet normal  0.000000e+00  0.000000e+00  1.000000e+00
   outer loop
     vertex  6.654159e-01  4.038332e-01  6.349212e-02
     vertex  7.506908e-01  2.221734e-01  6.349212e-02
     vertex  7.451135e-01  2.557546e-01  6.349212e-02
   endloop
 endfacet
 facet normal  0.000000e+00  0.000000e+00  1.000000e+00
   outer loop
     vertex  6.654159e-01  4.038332e-01  6.349212e-02
     vertex  7.070057e-01  3.500601e-01  6.349212e-02
     vertex  6.876873e-01  3.780886e-01  6.349212e-02
   endloop
 endfacet
 facet normal  0.000000e+00  0.000000e+00  1.000000e+00
   outer loop
     vertex  6.654159e-01  4.038332e-01  6.349212e-02
     vertex  6.404593e-01  4.269842e-01  6.349212e-02
     vertex  2.438442e-01  4.269842e-01  6.349212e-02
   endloop
 endfacet
 facet normal  0.000000e+00  0.000000e+00  1.000000e+00
   outer loop
     vertex  6.654159e-01  4.038332e-01  6.349212e-02
     vertex  1.384650e-01  1.239493e-01  6.349212e-02
     vertex  1.472183e-01  9.140574e-02  6.349212e-02
   endloop
 endfacet
 facet normal  0.000000e+00  0.000000e+00  1.000000e+00
   outer loop
     vertex  6.654159e-01  4.038332e-01  6.349212e-02
     vertex  1.472183e-01  9.140574e-02  6.349212e-02
     vertex  1.594480e-01  6.000293e-02  6.349212e-02
   endloop
 endfacet
 facet normal  0.000000e+00  0.000000e+00  1.000000e+00
   outer loop
     vertex  6.654159e-01  4.038332e-01  6.349212e-02
     vertex  1.594480e-01  6.000293e-02  6.349212e-02
     vertex  1.750099e-01  3.011099e-02  6.349212e-02
   endloop
 endfacet
 facet normal  0.000000e+00  0.000000e+00  1.000000e+00
   outer loop
     vertex  6.654159e-01  4.038332e-01  6.349212e-02
     vertex  1.750099e-01  3.011099e-02  6.349212e-02
     vertex  1.937207e-01  2.082255e-03  6.349212e-02
   endloop
 endfacet
 facet normal  0.000000e+00  0.000000e+00  1.000000e+00
   outer loop
     vertex  6.654159e-01  4.038332e-01  6.349212e-02
     vertex  1.937207e-01  2.082255e-03  6.349212e-02
     vertex  2.153597e-01 -2.375289e-02  6.349212e-02
   endloop
 endfacet
 facet normal  0.000000e+00  0.000000e+00  1.000000e+00
   outer loop
     vertex  6.654159e-01  4.038332e-01  6.349212e-02
     vertex  2.153597e-01 -2.375289e-02  6.349212e-02
     vertex  2.396719e-01 -4.708993e-02  6.349212e-02
   endloop
 endfacet
 facet normal  0.000000e+00  0.000000e+00  1.000000e+00
   outer loop
     vertex  6.654159e-01  4.038332e-01  6.349212e-02
     vertex  2.396719e-01 -4.708993e-02  6.349212e-02
     vertex  6.446316e-01 -4.708993e-02  6.349212e-02
   endloop
 endfacet
 facet normal  0.000000e+00  0.000000e+00  1.000000e+00
   outer loop
     vertex  6.654159e-01  4.038332e-01  6.349212e-02
     vertex  7.454079e-01  1.219462e-01  6.349212e-02
     vertex  7.506908e-01  2.221734e-01  6.349212e-02
   endloop
 endfacet
 facet normal  0.000000e+00  0.000000e+00  1.000000e+00
   outer loop
     vertex  6.654159e-01  4.038332e-01  6.349212e-02
     vertex  2.438442e-01  4.269842e-01  6.349212e-02
     vertex  1.384650e-01  1.239493e-01  6.349212e-02
   endloop
 endfacet
 facet normal  0.000000e+00  0.000000e+00  1.000000e+00
   outer loop
     vertex  6.654159e-01  4.038332e-01  6.349212e-02
     vertex  6.687105e-01 -2.400225e-02  6.349212e-02
     vertex  7.454079e-01  1.219462e-01  6.349212e-02
   endloop
 endfacet
 facet normal  0.000000e+00  0.000000e+00  1.000000e+00
   outer loop
     vertex  6.654159e-01  4.038332e-01  6.349212e-02
     vertex  7.451135e-01  2.557546e-01  6.349212e-02
     vertex  7.070057e-01  3.500601e-01  6.349212e-02
   endloop
 endfacet
 facet normal  6.796856e-01 -7.335035e-01 -7.235806e-15
   outer loop
     vertex  2.191250e-01  4.040787e-01  2.222223e-01
     vertex  2.438442e-01  4.269842e-01  6.349212e-02
     vertex  2.438442e-01  4.269842e-01  2.222223e-01
   endloop
 endfacet
 facet normal  6.796856e-01 -7.335035e-01  1.109398e-15
   outer loop
     vertex  2.191250e-01  4.040787e-01  2.222223e-01
     vertex  2.191250e-01  4.040787e-01  6.349212e-02
     vertex  2.438442e-01  4.269842e-01  6.349212e-02
   endloop
 endfacet
 facet normal  7.551976e-01 -6.554972e-01  1.204107e-15
   outer loop
     vertex  1.970346e-01  3.786284e-01  2.222223e-01
     vertex  1.970346e-01  3.786284e-01  6.349212e-02
     vertex  2.191250e-01  4.040787e-01  6.349212e-02
   endloop
 endfacet
 facet normal  7.551976e-01 -6.554972e-01 -9.931498e-16
   outer loop
     vertex  1.970346e-01  3.786284e-01  2.222223e-01
     vertex  2.191250e-01  4.040787e-01  6.349212e-02
     vertex  2.191250e-01  4.040787e-01  2.222223e-01
   endloop
 endfacet
 facet normal  8.218080e-01 -5.697645e-01  1.451935e-15
   outer loop
     vertex  1.778334e-01  3.509333e-01  2.222223e-01
     vertex  1.778334e-01  3.509333e-01  6.349212e-02
     vertex  1.970346e-01  3.786284e-01  6.349212e-02
   endloop
 endfacet
 facet normal  8.218080e-01 -5.697645e-01 -9.526131e-16
   outer loop
     vertex  1.778334e-01  3.509333e-01  2.222223e-01
     vertex  1.970346e-01  3.786284e-01  6.349212e-02
     vertex  1.970346e-01  3.786284e-01  2.222223e-01
   endloop
 endfacet
 facet normal  8.787318e-01 -4.773159e-01  1.050536e-15
   outer loop
     vertex  1.617478e-01  3.213199e-01  2.222223e-01
     vertex  1.617478e-01  3.213199e-01  6.349212e-02
     vertex  1.778334e-01  3.509333e-01  6.349212e-02
   endloop
 endfacet
 facet normal  8.787318e-01 -4.773159e-01 -8.512713e-16
   outer loop
     vertex  1.617478e-01  3.213199e-01  2.222223e-01
     vertex  1.778334e-01  3.509333e-01  6.349212e-02
     vertex  1.778334e-01  3.509333e-01  2.222223e-01
   endloop
 endfacet
 facet normal  9.252979e-01 -3.792412e-01  1.427453e-15
   outer loop
     vertex  1.489673e-01  2.901372e-01  2.222223e-01
     vertex  1.489673e-01  2.901372e-01  6.349212e-02
     vertex  1.617478e-01  3.213199e-01  6.349212e-02
   endloop
 endfacet
 facet normal  9.252979e-01 -3.792412e-01 -1.307309e-15
   outer loop
     vertex  1.489673e-01  2.901372e-01  2.222223e-01
     vertex  1.617478e-01  3.213199e-01  6.349212e-02
     vertex  1.617478e-01  3.213199e-01  2.222223e-01
   endloop
 endfacet
 facet normal  9.609574e-01 -2.766964e-01  1.345583e-15
   outer loop
     vertex  1.396426e-01  2.577528e-01  2.222223e-01
     vertex  1.396426e-01  2.577528e-01  6.349212e-02
     vertex  1.489673e-01  2.901372e-01  6.349212e-02
   endloop
 endfacet
 facet normal  9.609574e-01 -2.766964e-01 -1.053955e-15
   outer loop
     vertex  1.396426e-01  2.577528e-01  2.222223e-01
     vertex  1.489673e-01  2.901372e-01  6.349212e-02
     vertex  1.489673e-01  2.901372e-01  2.222223e-01
   endloop
 endfacet
 facet normal  9.852901e-01 -1.708901e-01  1.367090e-15
   outer loop
     vertex  1.338836e-01  2.245483e-01  2.222223e-01
     vertex  1.338836e-01  2.245483e-01  6.349212e-02
     vertex  1.396426e-01  2.577528e-01  6.349212e-02
   endloop
 endfacet
 facet normal  9.852901e-01 -1.708901e-01 -1.226236e-15
   outer loop
     vertex  1.338836e-01  2.245483e-01  2.222223e-01
     vertex  1.396426e-01  2.577528e-01  6.349212e-02
     vertex  1.396426e-01  2.577528e-01  2.222223e-01
   endloop
 endfacet
 facet normal  9.980091e-01 -6.306950e-02  1.588081e-15
   outer loop
     vertex  1.317581e-01  1.909152e-01  2.222223e-01
     vertex  1.317581e-01  1.909152e-01  6.349212e-02
     vertex  1.338836e-01  2.245483e-01  6.349212e-02
   endloop
 endfacet
 facet normal  9.980091e-01 -6.306950e-02 -1.271840e-15
   outer loop
     vertex  1.317581e-01  1.909152e-01  2.222223e-01
     vertex  1.338836e-01  2.245483e-01  6.349212e-02
     vertex  1.338836e-01  2.245483e-01  2.222223e-01
   endloop
 endfacet
 facet normal  9.989646e-01  4.549447e-02  1.260187e-15
   outer loop
     vertex  1.332913e-01  1.572499e-01  2.222223e-01
     vertex  1.332913e-01  1.572499e-01  6.349212e-02
     vertex  1.317581e-01  1.909152e-01  6.349212e-02
   endloop
 endfacet
 facet normal  9.989646e-01  4.549447e-02 -1.145163e-15
   outer loop
     vertex  1.332913e-01  1.572499e-01  2.222223e-01
     vertex  1.317581e-01  1.909152e-01  6.349212e-02
     vertex  1.317581e-01  1.909152e-01  2.222223e-01
   endloop
 endfacet
 facet normal  9.881452e-01  1.535222e-01  1.489031e-15
   outer loop
     vertex  1.384650e-01  1.239493e-01  2.222223e-01
     vertex  1.384650e-01  1.239493e-01  6.349212e-02
     vertex  1.332913e-01  1.572499e-01  6.349212e-02
   endloop
 endfacet
 facet normal  9.881452e-01  1.535222e-01 -1.580932e-15
   outer loop
     vertex  1.384650e-01  1.239493e-01  2.222223e-01
     vertex  1.332913e-01  1.572499e-01  6.349212e-02
     vertex  1.332913e-01  1.572499e-01  2.222223e-01
   endloop
 endfacet
 facet normal  9.656785e-01  2.597403e-01  1.607490e-15
   outer loop
     vertex  1.472183e-01  9.140574e-02  2.222223e-01
     vertex  1.472183e-01  9.140574e-02  6.349212e-02
     vertex  1.384650e-01  1.239493e-01  6.349212e-02
   endloop
 endfacet
 facet normal  9.656785e-01  2.597403e-01 -1.428920e-15
   outer loop
     vertex  1.472183e-01  9.140574e-02  2.222223e-01
     vertex  1.384650e-01  1.239493e-01  6.349212e-02
     vertex  1.384650e-01  1.239493e-01  2.222223e-01
   endloop
 endfacet
 facet normal  9.318293e-01  3.628969e-01  1.624932e-15
   outer loop
     vertex  1.594480e-01  6.000293e-02  2.222223e-01
     vertex  1.594480e-01  6.000293e-02  6.349212e-02
     vertex  1.472183e-01  9.140574e-02  6.349212e-02
   endloop
 endfacet
 facet normal  9.318293e-01  3.628969e-01 -1.398517e-15
   outer loop
     vertex  1.594480e-01  6.000293e-02  2.222223e-01
     vertex  1.472183e-01  9.140574e-02  6.349212e-02
     vertex  1.472183e-01  9.140574e-02  2.222223e-01
   endloop
 endfacet
 facet normal  8.869966e-01  4.617760e-01  1.630428e-15
   outer loop
     vertex  1.750099e-01  3.011099e-02  2.222223e-01
     vertex  1.750099e-01  3.011099e-02  6.349212e-02
     vertex  1.594480e-01  6.000293e-02  6.349212e-02
   endloop
 endfacet
 facet normal  8.869966e-01  4.617760e-01 -1.489725e-15
   outer loop
     vertex  1.750099e-01  3.011099e-02  2.222223e-01
     vertex  1.594480e-01  6.000293e-02  6.349212e-02
     vertex  1.594480e-01  6.000293e-02  2.222223e-01
   endloop
 endfacet
 facet normal  8.317088e-01  5.552121e-01  1.630260e-15
   outer loop
     vertex  1.937207e-01  2.082255e-03  2.222223e-01
     vertex  1.937207e-01  2.082255e-03  6.349212e-02
     vertex  1.750099e-01  3.011099e-02  6.349212e-02
   endloop
 endfacet
 facet normal  8.317088e-01  5.552121e-01 -1.560664e-15
   outer loop
     vertex  1.937207e-01  2.082255e-03  2.222223e-01
     vertex  1.750099e-01  3.011099e-02  6.349212e-02
     vertex  1.750099e-01  3.011099e-02  2.222223e-01
   endloop
 endfacet
 facet normal  7.666176e-01  6.421039e-01  1.758014e-15
   outer loop
     vertex  2.153597e-01 -2.375289e-02  2.222223e-01
     vertex  2.153597e-01 -2.375289e-02  6.349212e-02
     vertex  1.937207e-01  2.082255e-03  6.349212e-02
   endloop
 endfacet
 facet normal  7.666176e-01  6.421039e-01 -1.662006e-15
   outer loop
     vertex  2.153597e-01 -2.375289e-02  2.222223e-01
     vertex  1.937207e-01  2.082255e-03  6.349212e-02
     vertex  1.937207e-01  2.082255e-03  2.222223e-01
   endloop
 endfacet
 facet normal  6.924902e-01  7.214272e-01 -1.641738e-15
   outer loop
     vertex  2.396719e-01 -4.708993e-02  2.222223e-01
     vertex  2.153597e-01 -2.375289e-02  6.349212e-02
     vertex  2.153597e-01 -2.375289e-02  2.222223e-01
   endloop
 endfacet
 facet normal  6.924902e-01  7.214272e-01  1.348890e-14
   outer loop
     vertex  2.396719e-01 -4.708993e-02  2.222223e-01
     vertex  2.396719e-01 -4.708993e-02  6.349212e-02
     vertex  2.153597e-01 -2.375289e-02  6.349212e-02
   endloop
 endfacet
 facet normal  0.000000e+00  0.000000e+00  1.000000e+00
   outer loop
     vertex  2.396719e-01 -4.708993e-02  2.222223e-01
     vertex  2.153597e-01 -2.375289e-02  2.222223e-01
     vertex -2.698421e-02 -4.708993e-02  2.222223e-01
   endloop
 endfacet
 facet normal  0.000000e+00  0.000000e+00  1.000000e+00
   outer loop
     vertex  1.937207e-01  2.082255e-03  2.222223e-01
     vertex -2.698421e-02 -4.708993e-02  2.222223e-01
     vertex  2.153597e-01 -2.375289e-02  2.222223e-01
   endloop
 endfacet
 facet normal  0.000000e+00  0.000000e+00  1.000000e+00
   outer loop
     vertex  1.750099e-01  3.011099e-02  2.222223e-01
     vertex -2.698421e-02 -4.708993e-02  2.222223e-01
     vertex  1.937207e-01  2.082255e-03  2.222223e-01
   endloop
 endfacet
 facet normal  0.000000e+00  0.000000e+00  1.000000e+00
   outer loop
     vertex  1.594480e-01  6.000293e-02  2.222223e-01
     vertex -2.698421e-02 -4.708993e-02  2.222223e-01
     vertex  1.750099e-01  3.011099e-02  2.222223e-01
   endloop
 endfacet
 facet normal  0.000000e+00  0.000000e+00  1.000000e+00
   outer loop
     vertex  1.472183e-01  9.140574e-02  2.222223e-01
     vertex -2.698421e-02 -4.708993e-02  2.222223e-01
     vertex  1.594480e-01  6.000293e-02  2.222223e-01
   endloop
 endfacet
 facet normal  0.000000e+00  0.000000e+00  1.000000e+00
   outer loop
     vertex  1.384650e-01  1.239493e-01  2.222223e-01
     vertex -2.698421e-02 -4.708993e-02  2.222223e-01
     vertex  1.472183e-01  9.140574e-02  2.222223e-01
   endloop
 endfacet
 facet normal  0.000000e+00  0.000000e+00  1.000000e+00
   outer loop
     vertex  1.332913e-01  1.572499e-01  2.222223e-01
     vertex -2.698421e-02 -4.708993e-02  2.222223e-01
     vertex  1.384650e-01  1.239493e-01  2.222223e-01
   endloop
 endfacet
 facet normal  0.000000e+00  0.000000e+00  1.000000e+00
   outer loop
     vertex  1.317581e-01  1.909152e-01  2.222223e-01
     vertex -2.698421e-02 -4.708993e-02  2.222223e-01
     vertex  1.332913e-01  1.572499e-01  2.222223e-01
   endloop
 endfacet
 facet normal  0.000000e+00  0.000000e+00  1.000000e+00
   outer loop
     vertex -2.698421e-02  4.269842e-01  2.222223e-01
     vertex  1.338836e-01  2.245483e-01  2.222223e-01
     vertex  1.396426e-01  2.577528e-01  2.222223e-01
   endloop
 endfacet
 facet normal  0.000000e+00  0.000000e+00  1.000000e+00
   outer loop
     vertex -2.698421e-02  4.269842e-01  2.222223e-01
     vertex  1.317581e-01  1.909152e-01  2.222223e-01
     vertex  1.338836e-01  2.245483e-01  2.222223e-01
   endloop
 endfacet
 facet normal  0.000000e+00  0.000000e+00  1.000000e+00
   outer loop
     vertex -2.698421e-02  4.269842e-01  2.222223e-01
     vertex -2.698421e-02 -4.708993e-02  2.222223e-01
     vertex  1.317581e-01  1.909152e-01  2.222223e-01
   endloop
 endfacet
 facet normal  0.000000e+00  0.000000e+00  1.000000e+00
   outer loop
     vertex  1.489673e-01  2.901372e-01  2.222223e-01
     vertex -2.698421e-02  4.269842e-01  2.222223e-01
     vertex  1.396426e-01  2.577528e-01  2.222223e-01
   endloop
 endfacet
 facet normal  0.000000e+00  0.000000e+00  1.000000e+00
   outer loop
     vertex  1.617478e-01  3.213199e-01  2.222223e-01
     vertex -2.698421e-02  4.269842e-01  2.222223e-01
     vertex  1.489673e-01  2.901372e-01  2.222223e-01
   endloop
 endfacet
 facet normal  0.000000e+00  0.000000e+00  1.000000e+00
   outer loop
     vertex  1.778334e-01  3.509333e-01  2.222223e-01
     vertex -2.698421e-02  4.269842e-01  2.222223e-01
     vertex  1.617478e-01  3.213199e-01  2.222223e-01
   endloop
 endfacet
 facet normal  0.000000e+00  0.000000e+00  1.000000e+00
   outer loop
     vertex  1.970346e-01  3.786284e-01  2.222223e-01
     vertex -2.698421e-02  4.269842e-01  2.222223e-01
     vertex  1.778334e-01  3.509333e-01  2.222223e-01
   endloop
 endfacet
 facet normal  0.000000e+00  0.000000e+00  1.000000e+00
   outer loop
     vertex  2.191250e-01  4.040787e-01  2.222223e-01
     vertex -2.698421e-02  4.269842e-01  2.222223e-01
     vertex  1.970346e-01  3.786284e-01  2.222223e-01
   endloop
 endfacet
 facet normal  0.000000e+00  0.000000e+00  1.000000e+00
   outer loop
     vertex  2.438442e-01  4.269842e-01  2.222223e-01
     vertex -2.698421e-02  4.269842e-01  2.222223e-01
     vertex  2.191250e-01  4.040787e-01  2.222223e-01
   endloop
 endfacet
 facet normal -1.000000e+00  0.000000e+00  0.000000e+00
   outer loop
     vertex -2.698421e-02 -4.708993e-02 -1.587302e-02
     vertex -2.698421e-02  4.269842e-01  2.222223e-01
     vertex -2.698421e-02  4.269842e-01 -1.587302e-02
   endloop
 endfacet
 facet normal -1.000000e+00  0.000000e+00  0.000000e+00
   outer loop
     vertex -2.698421e-02 -4.708993e-02 -1.587302e-02
     vertex -2.698421e-02 -4.708993e-02  2.222223e-01
     vertex -2.698421e-02  4.269842e-01  2.222223e-01
   endloop
 endfacet
 facet normal -1.000000e+00  0.000000e+00  0.000000e+00
   outer loop
     vertex -2.698421e-02 -4.708993e-02 -1.587302e-02
     vertex -2.698421e-02  4.269842e-01 -1.587302e-02
     vertex -2.698421e-02  4.269842e-01 -3.174603e-02
   endloop
 endfacet
 facet normal -1.000000e+00  0.000000e+00  0.000000e+00
   outer loop
     vertex -2.698421e-02 -4.708993e-02 -1.587302e-02
     vertex -2.698421e-02  4.269842e-01 -3.174603e-02
     vertex -2.698421e-02 -4.708993e-02 -3.174603e-02
   endloop
 endfacet
 facet normal  1.000000e+00  0.000000e+00  0.000000e+00
   outer loop
     vertex  9.211640e-01  4.269842e-01 -1.587302e-02
     vertex  9.211640e-01 -4.708993e-02 -1.587302e-02
     vertex  9.211640e-01 -4.708993e-02 -3.174603e-02
   endloop
 endfacet
 facet normal  1.000000e+00  0.000000e+00  0.000000e+00
   outer loop
     vertex  9.211640e-01  4.269842e-01 -1.587302e-02
     vertex  9.211640e-01 -4.708993e-02 -3.174603e-02
     vertex  9.211640e-01  4.269842e-01 -3.174603e-02
   endloop
 endfacet
 facet normal  0.000000e+00 -0.000000e+00 -1.000000e+00
   outer loop
     vertex  9.211640e-01  4.269842e-01 -3.174603e-02
     vertex  9.211640e-01 -4.708993e-02 -3.174603e-02
     vertex -2.698421e-02 -4.708993e-02 -3.174603e-02
   endloop
 endfacet
 facet normal -0.000000e+00  0.000000e+00 -1.000000e+00
   outer loop
     vertex  9.211640e-01  4.269842e-01 -3.174603e-02
     vertex -2.698421e-02 -4.708993e-02 -3.174603e-02
     vertex -2.698421e-02  4.269842e-01 -3.174603e-02
   endloop
 endfacet
 facet normal -0.000000e+00  1.000000e+00  0.000000e+00
   outer loop
     vertex  6.404593e-01  4.269842e-01  6.349212e-02
     vertex  9.211640e-01  4.269842e-01  2.222223e-01
     vertex  9.211640e-01  4.269842e-01 -1.587302e-02
   endloop
 endfacet
 facet normal -2.234648e-14  1.000000e+00  3.951839e-14
   outer loop
     vertex  6.404593e-01  4.269842e-01  6.349212e-02
     vertex  6.404593e-01  4.269842e-01  2.222223e-01
     vertex  9.211640e-01  4.269842e-01  2.222223e-01
   endloop
 endfacet
 facet normal -4.304328e-15  1.000000e+00 -6.994406e-15
   outer loop
     vertex -2.698421e-02  4.269842e-01  2.222223e-01
     vertex  2.438442e-01  4.269842e-01  2.222223e-01
     vertex  2.438442e-01  4.269842e-01  6.349212e-02
   endloop
 endfacet
 facet normal -2.049680e-16  1.000000e+00  0.000000e+00
   outer loop
     vertex -2.698421e-02  4.269842e-01 -1.587302e-02
     vertex -2.698421e-02  4.269842e-01  2.222223e-01
     vertex  2.438442e-01  4.269842e-01  6.349212e-02
   endloop
 endfacet
 facet normal  0.000000e+00  1.000000e+00  0.000000e+00
   outer loop
     vertex -2.698421e-02  4.269842e-01 -1.587302e-02
     vertex  6.404593e-01  4.269842e-01  6.349212e-02
     vertex  9.211640e-01  4.269842e-01 -1.587302e-02
   endloop
 endfacet
 facet normal  1.399623e-16  1.000000e+00 -1.177052e-15
   outer loop
     vertex -2.698421e-02  4.269842e-01 -1.587302e-02
     vertex  2.438442e-01  4.269842e-01  6.349212e-02
     vertex  6.404593e-01  4.269842e-01  6.349212e-02
   endloop
 endfacet
 facet normal -9.984955e-01 -5.483331e-02  0.000000e+00
   outer loop
     vertex  7.506908e-01  2.221734e-01  2.222223e-01
     vertex  7.525574e-01  1.881835e-01  6.349212e-02
     vertex  7.525574e-01  1.881835e-01  2.222223e-01
   endloop
 endfacet
 facet normal -9.984955e-01 -5.483331e-02  7.160172e-16
   outer loop
     vertex  7.506908e-01  2.221734e-01  2.222223e-01
     vertex  7.506908e-01  2.221734e-01  6.349212e-02
     vertex  7.525574e-01  1.881835e-01  6.349212e-02
   endloop
 endfacet
 facet normal -9.864869e-01 -1.638405e-01  8.763377e-16
   outer loop
     vertex  7.451135e-01  2.557546e-01  2.222223e-01
     vertex  7.451135e-01  2.557546e-01  6.349212e-02
     vertex  7.506908e-01  2.221734e-01  6.349212e-02
   endloop
 endfacet
 facet normal -9.864869e-01 -1.638405e-01 -6.571403e-16
   outer loop
     vertex  7.451135e-01  2.557546e-01  2.222223e-01
     vertex  7.506908e-01  2.221734e-01  6.349212e-02
     vertex  7.506908e-01  2.221734e-01  2.222223e-01
   endloop
 endfacet
 facet normal -9.626139e-01 -2.708771e-01  1.972828e-15
   outer loop
     vertex  7.358925e-01  2.885230e-01  2.222223e-01
     vertex  7.358925e-01  2.885230e-01  6.349212e-02
     vertex  7.451135e-01  2.557546e-01  6.349212e-02
   endloop
 endfacet
 facet normal -9.626139e-01 -2.708771e-01 -1.825947e-15
   outer loop
     vertex  7.358925e-01  2.885230e-01  2.222223e-01
     vertex  7.451135e-01  2.557546e-01  6.349212e-02
     vertex  7.451135e-01  2.557546e-01  2.222223e-01
   endloop
 endfacet
 facet normal -9.271639e-01 -3.746560e-01  2.683705e-15
   outer loop
     vertex  7.231388e-01  3.200847e-01  2.222223e-01
     vertex  7.231388e-01  3.200847e-01  6.349212e-02
     vertex  7.358925e-01  2.885230e-01  6.349212e-02
   endloop
 endfacet
 facet normal -9.271639e-01 -3.746560e-01 -2.076764e-15
   outer loop
     vertex  7.231388e-01  3.200847e-01  2.222223e-01
     vertex  7.358925e-01  2.885230e-01  6.349212e-02
     vertex  7.358925e-01  2.885230e-01  2.222223e-01
   endloop
 endfacet
 facet normal -8.805630e-01 -4.739290e-01  3.304338e-15
   outer loop
     vertex  7.070057e-01  3.500601e-01  2.222223e-01
     vertex  7.070057e-01  3.500601e-01  6.349212e-02
     vertex  7.231388e-01  3.200847e-01  6.349212e-02
   endloop
 endfacet
 facet normal -8.805630e-01 -4.739290e-01 -2.738921e-15
   outer loop
     vertex  7.070057e-01  3.500601e-01  2.222223e-01
     vertex  7.231388e-01  3.200847e-01  6.349212e-02
     vertex  7.231388e-01  3.200847e-01  2.222223e-01
   endloop
 endfacet
 facet normal -8.233719e-01 -5.675022e-01  4.289487e-15
   outer loop
     vertex  6.876873e-01  3.780886e-01  2.222223e-01
     vertex  6.876873e-01  3.780886e-01  6.349212e-02
     vertex  7.070057e-01  3.500601e-01  6.349212e-02
   endloop
 endfacet
 facet normal -8.233719e-01 -5.675022e-01 -3.471306e-15
   outer loop
     vertex  6.876873e-01  3.780886e-01  2.222223e-01
     vertex  7.070057e-01  3.500601e-01  6.349212e-02
     vertex  7.070057e-01  3.500601e-01  2.222223e-01
   endloop
 endfacet
 facet normal -7.562782e-01 -6.542501e-01  4.235383e-15
   outer loop
     vertex  6.654159e-01  4.038332e-01  2.222223e-01
     vertex  6.654159e-01  4.038332e-01  6.349212e-02
     vertex  6.876873e-01  3.780886e-01  6.349212e-02
   endloop
 endfacet
 facet normal -7.562782e-01 -6.542501e-01 -3.832482e-15
   outer loop
     vertex  6.654159e-01  4.038332e-01  2.222223e-01
     vertex  6.876873e-01  3.780886e-01  6.349212e-02
     vertex  6.876873e-01  3.780886e-01  2.222223e-01
   endloop
 endfacet
 facet normal -6.800890e-01 -7.331296e-01  3.572063e-14
   outer loop
     vertex  6.404593e-01  4.269842e-01  2.222223e-01
     vertex  6.404593e-01  4.269842e-01  6.349212e-02
     vertex  6.654159e-01  4.038332e-01  6.349212e-02
   endloop
 endfacet
 facet normal -6.800890e-01 -7.331296e-01 -5.196926e-15
   outer loop
     vertex  6.404593e-01  4.269842e-01  2.222223e-01
     vertex  6.654159e-01  4.038332e-01  6.349212e-02
     vertex  6.654159e-01  4.038332e-01  2.222223e-01
   endloop
 endfacet
 facet normal -0.000000e+00  1.000000e+00  0.000000e+00
   outer loop
     vertex -2.698421e-02  4.269842e-01 -1.587302e-02
     vertex  9.211640e-01  4.269842e-01 -1.587302e-02
     vertex  9.211640e-01  4.269842e-01 -3.174603e-02
   endloop
 endfacet
 facet normal  0.000000e+00  1.000000e+00  0.000000e+00
   outer loop
     vertex -2.698421e-02  4.269842e-01 -1.587302e-02
     vertex  9.211640e-01  4.269842e-01 -3.174603e-02
     vertex -2.698421e-02  4.269842e-01 -3.174603e-02
   endloop
 endfacet
endsolid
