solid 
 facet normal  0.000000e+00 -1.000000e+00  0.000000e+00
   outer loop
     vertex  4.146385e-01 -1.906525e-01 -1.587302e-02
     vertex -5.476190e-01 -1.906525e-01  6.000000e-08
     vertex -5.476190e-01 -1.906525e-01 -1.587302e-02
   endloop
 endfacet
 facet normal  0.000000e+00 -1.000000e+00  0.000000e+00
   outer loop
     vertex  4.146385e-01 -1.906525e-01 -1.587302e-02
     vertex  4.146385e-01 -1.906525e-01  6.000000e-08
     vertex -5.476190e-01 -1.906525e-01  6.000000e-08
   endloop
 endfacet
 facet normal -1.000000e+00  0.000000e+00  0.000000e+00
   outer loop
     vertex -5.476190e-01 -1.906525e-01 -1.587302e-02
     vertex -5.476190e-01  5.767202e-02  6.000000e-08
     vertex -5.476190e-01  5.767202e-02 -1.587302e-02
   endloop
 endfacet
 facet normal -1.000000e+00  0.000000e+00  0.000000e+00
   outer loop
     vertex -5.476190e-01 -1.906525e-01 -1.587302e-02
     vertex -5.476190e-01 -1.906525e-01  6.000000e-08
     vertex -5.476190e-01  5.767202e-02  6.000000e-08
   endloop
 endfacet
 facet normal  1.000000e+00  0.000000e+00  0.000000e+00
   outer loop
     vertex  4.146385e-01 -2.698410e-02 -3.703667e-03
     vertex  4.146385e-01 -1.906525e-01  6.000000e-08
     vertex  4.146385e-01 -1.906525e-01 -1.587302e-02
   endloop
 endfacet
 facet normal  1.000000e+00  0.000000e+00  0.000000e+00
   outer loop
     vertex  4.146385e-01 -2.698410e-02 -1.587302e-02
     vertex  4.146385e-01 -2.698410e-02 -3.703667e-03
     vertex  4.146385e-01 -1.906525e-01 -1.587302e-02
   endloop
 endfacet
 facet normal  1.000000e+00  0.000000e+00  0.000000e+00
   outer loop
     vertex  4.146385e-01  5.767202e-02  6.000000e-08
     vertex  4.146385e-01 -2.698410e-02 -3.703667e-03
     vertex  4.146385e-01  2.017212e-02 -1.587302e-02
   endloop
 endfacet
 facet normal  1.000000e+00  0.000000e+00  0.000000e+00
   outer loop
     vertex  4.146385e-01  5.767202e-02  6.000000e-08
     vertex  4.146385e-01 -1.906525e-01  6.000000e-08
     vertex  4.146385e-01 -2.698410e-02 -3.703667e-03
   endloop
 endfacet
 facet normal  1.000000e+00  0.000000e+00 -0.000000e+00
   outer loop
     vertex  4.146385e-01  5.767202e-02 -1.587302e-02
     vertex  4.146385e-01  5.767202e-02  6.000000e-08
     vertex  4.146385e-01  2.017212e-02 -1.587302e-02
   endloop
 endfacet
 facet normal -0.000000e+00 -1.000000e+00  0.000000e+00
   outer loop
     vertex  4.146385e-01 -1.906525e-01 -1.587302e-02
     vertex -5.476190e-01 -1.906525e-01 -1.587302e-02
     vertex -5.476190e-01 -1.906525e-01 -3.174603e-02
   endloop
 endfacet
 facet normal  0.000000e+00 -1.000000e+00 -0.000000e+00
   outer loop
     vertex  4.146385e-01 -1.906525e-01 -1.587302e-02
     vertex -5.476190e-01 -1.906525e-01 -3.174603e-02
     vertex  4.146385e-01 -1.906525e-01 -3.174603e-02
   endloop
 endfacet
 facet normal  0.000000e+00  0.000000e+00  1.000000e+00
   outer loop
     vertex  4.146385e-01  5.767202e-02  6.000000e-08
     vertex -5.476190e-01 -1.906525e-01  6.000000e-08
     vertex  4.146385e-01 -1.906525e-01  6.000000e-08
   endloop
 endfacet
 facet normal  0.000000e+00  0.000000e+00  1.000000e+00
   outer loop
     vertex  4.146385e-01  5.767202e-02  6.000000e-08
     vertex -5.476190e-01  5.767202e-02  6.000000e-08
     vertex -5.476190e-01 -1.906525e-01  6.000000e-08
   endloop
 endfacet
 facet normal  0.000000e+00  1.000000e+00  0.000000e+00
   outer loop
     vertex -5.476190e-01  5.767202e-02 -1.587302e-02
     vertex  4.146385e-01  5.767202e-02  6.000000e-08
     vertex  4.146385e-01  5.767202e-02 -1.587302e-02
   endloop
 endfacet
 facet normal  0.000000e+00  1.000000e+00  0.000000e+00
   outer loop
     vertex -5.476190e-01  5.767202e-02 -1.587302e-02
     vertex -5.476190e-01  5.767202e-02  6.000000e-08
     vertex  4.146385e-01  5.767202e-02  6.000000e-08
   endloop
 endfacet
 facet normal -1.000000e+00  0.000000e+00  0.000000e+00
   outer loop
     vertex -5.476190e-01 -1.906525e-01 -1.587302e-02
     vertex -5.476190e-01  5.767202e-02 -1.587302e-02
     vertex -5.476190e-01  5.767202e-02 -3.174603e-02
   endloop
 endfacet
 facet normal -1.000000e+00  0.000000e+00  0.000000e+00
   outer loop
     vertex -5.476190e-01 -1.906525e-01 -1.587302e-02
     vertex -5.476190e-01  5.767202e-02 -3.174603e-02
     vertex -5.476190e-01 -1.906525e-01 -3.174603e-02
   endloop
 endfacet
 facet normal  1.000000e+00  0.000000e+00  0.000000e+00
   outer loop
     vertex  4.146385e-01 -2.698410e-02 -1.587302e-02
     vertex  4.146385e-01 -1.906525e-01 -1.587302e-02
     vertex  4.146385e-01 -1.906525e-01 -3.174603e-02
   endloop
 endfacet
 facet normal  1.000000e+00  0.000000e+00  0.000000e+00
   outer loop
     vertex  4.146385e-01 -2.698410e-02 -1.587302e-02
     vertex  4.146385e-01 -1.906525e-01 -3.174603e-02
     vertex  4.146385e-01 -2.698410e-02 -3.174603e-02
   endloop
 endfacet
 facet normal  1.128184e-17 -1.000000e+00  0.000000e+00
   outer loop
     vertex  4.146385e-01 -2.698410e-02 -3.174603e-02
     vertex -5.079365e-01 -2.698410e-02 -3.174603e-02
     vertex -5.079365e-01 -2.698410e-02 -6.014106e-02
   endloop
 endfacet
 facet normal -1.690983e-16 -1.000000e+00  0.000000e+00
   outer loop
     vertex  4.761905e-01 -2.698410e-02 -3.703667e-03
     vertex  4.146385e-01 -2.698410e-02 -1.587302e-02
     vertex  4.146385e-01 -2.698410e-02 -3.174603e-02
   endloop
 endfacet
 facet normal -0.000000e+00 -1.000000e+00 -8.552916e-16
   outer loop
     vertex  4.761905e-01 -2.698410e-02 -3.703667e-03
     vertex  4.146385e-01 -2.698410e-02 -3.703667e-03
     vertex  4.146385e-01 -2.698410e-02 -1.587302e-02
   endloop
 endfacet
 facet normal -1.690983e-16 -1.000000e+00 -0.000000e+00
   outer loop
     vertex  4.761905e-01 -2.698410e-02 -3.703667e-03
     vertex  4.146385e-01 -2.698410e-02 -3.174603e-02
     vertex  4.761905e-01 -2.698410e-02 -6.014106e-02
   endloop
 endfacet
 facet normal  0.000000e+00 -1.000000e+00  3.665550e-16
   outer loop
     vertex  4.761905e-01 -2.698410e-02 -6.014106e-02
     vertex  4.146385e-01 -2.698410e-02 -3.174603e-02
     vertex -5.079365e-01 -2.698410e-02 -6.014106e-02
   endloop
 endfacet
 facet normal  0.000000e+00  2.498780e-01  9.682773e-01
   outer loop
     vertex  4.761905e-01 -2.698410e-02 -3.703667e-03
     vertex  4.146385e-01  2.017212e-02 -1.587302e-02
     vertex  4.146385e-01 -2.698410e-02 -3.703667e-03
   endloop
 endfacet
 facet normal  0.000000e+00  2.498780e-01  9.682773e-01
   outer loop
     vertex  4.146385e-01  5.767202e-02 -2.555041e-02
     vertex -5.079365e-01  1.917108e-01 -6.014106e-02
     vertex -5.079365e-01  5.767202e-02 -2.555041e-02
   endloop
 endfacet
 facet normal -9.096360e-17  2.498780e-01  9.682773e-01
   outer loop
     vertex  4.146385e-01  5.767202e-02 -2.555041e-02
     vertex  4.146385e-01  2.017212e-02 -1.587302e-02
     vertex  4.761905e-01 -2.698410e-02 -3.703667e-03
   endloop
 endfacet
 facet normal  0.000000e+00  2.498780e-01  9.682773e-01
   outer loop
     vertex  4.761905e-01  1.917108e-01 -6.014106e-02
     vertex -5.079365e-01  1.917108e-01 -6.014106e-02
     vertex  4.146385e-01  5.767202e-02 -2.555041e-02
   endloop
 endfacet
 facet normal  6.239059e-17  2.498780e-01  9.682773e-01
   outer loop
     vertex  4.761905e-01  1.917108e-01 -6.014106e-02
     vertex  4.146385e-01  5.767202e-02 -2.555041e-02
     vertex  4.761905e-01 -2.698410e-02 -3.703667e-03
   endloop
 endfacet
 facet normal  1.000000e+00  0.000000e+00  0.000000e+00
   outer loop
     vertex  4.146385e-01  5.767202e-02 -1.587302e-02
     vertex  4.146385e-01  2.017212e-02 -1.587302e-02
     vertex  4.146385e-01  5.767202e-02 -2.555041e-02
   endloop
 endfacet
 facet normal  0.000000e+00  0.000000e+00 -1.000000e+00
   outer loop
     vertex -5.476190e-01  5.767202e-02 -3.174603e-02
     vertex -5.079365e-01 -2.698410e-02 -3.174603e-02
     vertex -5.476190e-01 -1.906525e-01 -3.174603e-02
   endloop
 endfacet
 facet normal -0.000000e+00 -0.000000e+00 -1.000000e+00
   outer loop
     vertex -5.079365e-01  5.767202e-02 -3.174603e-02
     vertex -5.079365e-01 -2.698410e-02 -3.174603e-02
     vertex -5.476190e-01  5.767202e-02 -3.174603e-02
   endloop
 endfacet
 facet normal  0.000000e+00  0.000000e+00 -1.000000e+00
   outer loop
     vertex  4.146385e-01 -1.906525e-01 -3.174603e-02
     vertex -5.476190e-01 -1.906525e-01 -3.174603e-02
     vertex -5.079365e-01 -2.698410e-02 -3.174603e-02
   endloop
 endfacet
 facet normal  0.000000e+00 -0.000000e+00 -1.000000e+00
   outer loop
     vertex  4.146385e-01 -2.698410e-02 -3.174603e-02
     vertex  4.146385e-01 -1.906525e-01 -3.174603e-02
     vertex -5.079365e-01 -2.698410e-02 -3.174603e-02
   endloop
 endfacet
 facet normal  0.000000e+00  1.000000e+00  0.000000e+00
   outer loop
     vertex -5.079365e-01  5.767202e-02 -2.555041e-02
     vertex  4.146385e-01  5.767202e-02 -1.587302e-02
     vertex  4.146385e-01  5.767202e-02 -2.555041e-02
   endloop
 endfacet
 facet normal  0.000000e+00  1.000000e+00  0.000000e+00
   outer loop
     vertex -5.476190e-01  5.767202e-02 -3.174603e-02
     vertex -5.079365e-01  5.767202e-02 -2.555041e-02
     vertex -5.079365e-01  5.767202e-02 -3.174603e-02
   endloop
 endfacet
 facet normal  0.000000e+00  1.000000e+00  0.000000e+00
   outer loop
     vertex -5.476190e-01  5.767202e-02 -1.587302e-02
     vertex -5.079365e-01  5.767202e-02 -2.555041e-02
     vertex -5.476190e-01  5.767202e-02 -3.174603e-02
   endloop
 endfacet
 facet normal -0.000000e+00  1.000000e+00  0.000000e+00
   outer loop
     vertex -5.476190e-01  5.767202e-02 -1.587302e-02
     vertex  4.146385e-01  5.767202e-02 -1.587302e-02
     vertex -5.079365e-01  5.767202e-02 -2.555041e-02
   endloop
 endfacet
 facet normal  1.000000e+00  0.000000e+00  0.000000e+00
   outer loop
     vertex  4.761905e-01  1.917108e-01 -6.014106e-02
     vertex  4.761905e-01 -2.698410e-02 -3.703667e-03
     vertex  4.761905e-01 -2.698410e-02 -6.014106e-02
   endloop
 endfacet
 facet normal -1.000000e+00 -1.311450e-15  0.000000e+00
   outer loop
     vertex -5.079365e-01  5.767202e-02 -3.174603e-02
     vertex -5.079365e-01 -2.698410e-02 -6.014106e-02
     vertex -5.079365e-01 -2.698410e-02 -3.174603e-02
   endloop
 endfacet
 facet normal -1.000000e+00  4.624382e-15  1.791948e-14
   outer loop
     vertex -5.079365e-01  1.917108e-01 -6.014106e-02
     vertex -5.079365e-01  5.767202e-02 -3.174603e-02
     vertex -5.079365e-01  5.767202e-02 -2.555041e-02
   endloop
 endfacet
 facet normal -1.000000e+00 -0.000000e+00 -3.909920e-15
   outer loop
     vertex -5.079365e-01  1.917108e-01 -6.014106e-02
     vertex -5.079365e-01 -2.698410e-02 -6.014106e-02
     vertex -5.079365e-01  5.767202e-02 -3.174603e-02
   endloop
 endfacet
 facet normal  0.000000e+00  0.000000e+00 -1.000000e+00
   outer loop
     vertex  4.761905e-01 -2.698410e-02 -6.014106e-02
     vertex -5.079365e-01  1.917108e-01 -6.014106e-02
     vertex  4.761905e-01  1.917108e-01 -6.014106e-02
   endloop
 endfacet
 facet normal  0.000000e+00  0.000000e+00 -1.000000e+00
   outer loop
     vertex  4.761905e-01 -2.698410e-02 -6.014106e-02
     vertex -5.079365e-01 -2.698410e-02 -6.014106e-02
     vertex -5.079365e-01  1.917108e-01 -6.014106e-02
   endloop
 endfacet
endsolid
