solid 
 facet normal -6.782800e-01  0.000000e+00 -7.348035e-01
   outer loop
     vertex  1.821869e-01 -1.587302e-02 -2.463845e-01
     vertex -4.709005e-02 -4.444445e-01 -3.474430e-02
     vertex -4.709005e-02 -1.587302e-02 -3.474430e-02
   endloop
 endfacet
 facet normal -6.782800e-01 -0.000000e+00 -7.348035e-01
   outer loop
     vertex  1.821869e-01 -1.587302e-02 -2.463845e-01
     vertex  1.821869e-01 -4.444445e-01 -2.463845e-01
     vertex -4.709005e-02 -4.444445e-01 -3.474430e-02
   endloop
 endfacet
 facet normal -1.000000e+00  0.000000e+00  0.000000e+00
   outer loop
     vertex -4.709005e-02 -1.587302e-02 -3.474430e-02
     vertex -4.709005e-02 -4.444445e-01  2.827160e-01
     vertex -4.709005e-02 -1.587302e-02  2.827160e-01
   endloop
 endfacet
 facet normal -1.000000e+00  0.000000e+00  0.000000e+00
   outer loop
     vertex -4.709005e-02 -1.587302e-02 -3.474430e-02
     vertex -4.709005e-02 -4.444445e-01 -3.474430e-02
     vertex -4.709005e-02 -4.444445e-01  2.827160e-01
   endloop
 endfacet
 facet normal -0.000000e+00  0.000000e+00 -1.000000e+00
   outer loop
     vertex  6.054674e-01 -1.587302e-02 -2.463845e-01
     vertex  1.821869e-01 -4.444445e-01 -2.463845e-01
     vertex  1.821869e-01 -1.587302e-02 -2.463845e-01
   endloop
 endfacet
 facet normal  0.000000e+00 -0.000000e+00 -1.000000e+00
   outer loop
     vertex  6.054674e-01 -1.587302e-02 -2.463845e-01
     vertex  6.054674e-01 -4.444445e-01 -2.463845e-01
     vertex  1.821869e-01 -4.444445e-01 -2.463845e-01
   endloop
 endfacet
 facet normal -6.782800e-01  0.000000e+00 -7.348035e-01
   outer loop
     vertex  1.821869e-01 -1.587302e-02 -2.463845e-01
     vertex -4.709005e-02 -1.587302e-02 -3.474430e-02
     vertex -4.709005e-02  0.000000e+00 -3.474430e-02
   endloop
 endfacet
 facet normal -6.782800e-01  0.000000e+00 -7.348035e-01
   outer loop
     vertex  1.821869e-01 -1.587302e-02 -2.463845e-01
     vertex -4.709005e-02  0.000000e+00 -3.474430e-02
     vertex  1.821869e-01  0.000000e+00 -2.463845e-01
   endloop
 endfacet
 facet normal  0.000000e+00 -1.000000e+00  0.000000e+00
   outer loop
     vertex  2.880070e-01 -4.444445e-01  2.827160e-01
     vertex -4.709005e-02 -4.444445e-01 -3.474430e-02
     vertex  1.821869e-01 -4.444445e-01 -2.463845e-01
   endloop
 endfacet
 facet normal  0.000000e+00 -1.000000e+00 -0.000000e+00
   outer loop
     vertex  2.880070e-01 -4.444445e-01  2.827160e-01
     vertex  1.821869e-01 -4.444445e-01 -2.463845e-01
     vertex  6.054674e-01 -4.444445e-01 -2.463845e-01
   endloop
 endfacet
 facet normal -0.000000e+00 -1.000000e+00  0.000000e+00
   outer loop
     vertex  2.880070e-01 -4.444445e-01  2.827160e-01
     vertex -4.709005e-02 -4.444445e-01  2.827160e-01
     vertex -4.709005e-02 -4.444445e-01 -3.474430e-02
   endloop
 endfacet
 facet normal  0.000000e+00 -1.000000e+00 -0.000000e+00
   outer loop
     vertex  9.405643e-01 -4.444445e-01 -3.474430e-02
     vertex  6.054674e-01 -4.444445e-01 -2.463845e-01
     vertex  9.405643e-01 -4.444445e-01 -2.463845e-01
   endloop
 endfacet
 facet normal -0.000000e+00 -1.000000e+00  0.000000e+00
   outer loop
     vertex  9.405643e-01 -4.444445e-01 -3.474430e-02
     vertex  2.880070e-01 -4.444445e-01  2.827160e-01
     vertex  6.054674e-01 -4.444445e-01 -2.463845e-01
   endloop
 endfacet
 facet normal -0.000000e+00  0.000000e+00  1.000000e+00
   outer loop
     vertex -4.709005e-02 -1.587302e-02  2.827160e-01
     vertex  2.880070e-01 -4.444445e-01  2.827160e-01
     vertex  2.880070e-01 -1.587302e-02  2.827160e-01
   endloop
 endfacet
 facet normal  0.000000e+00  0.000000e+00  1.000000e+00
   outer loop
     vertex -4.709005e-02 -1.587302e-02  2.827160e-01
     vertex -4.709005e-02 -4.444445e-01  2.827160e-01
     vertex  2.880070e-01 -4.444445e-01  2.827160e-01
   endloop
 endfacet
 facet normal -1.000000e+00  0.000000e+00  0.000000e+00
   outer loop
     vertex -4.709005e-02 -1.587302e-02 -3.474430e-02
     vertex -4.709005e-02 -1.587302e-02  2.827160e-01
     vertex -4.709005e-02  0.000000e+00  2.827160e-01
   endloop
 endfacet
 facet normal -1.000000e+00  0.000000e+00  0.000000e+00
   outer loop
     vertex -4.709005e-02 -1.587302e-02 -3.474430e-02
     vertex -4.709005e-02  0.000000e+00  2.827160e-01
     vertex -4.709005e-02  0.000000e+00 -3.474430e-02
   endloop
 endfacet
 facet normal -0.000000e+00  0.000000e+00 -1.000000e+00
   outer loop
     vertex  9.405643e-01 -1.587302e-02 -2.463845e-01
     vertex  6.054674e-01 -4.444445e-01 -2.463845e-01
     vertex  6.054674e-01 -1.587302e-02 -2.463845e-01
   endloop
 endfacet
 facet normal  0.000000e+00 -0.000000e+00 -1.000000e+00
   outer loop
     vertex  9.405643e-01 -1.587302e-02 -2.463845e-01
     vertex  9.405643e-01 -4.444445e-01 -2.463845e-01
     vertex  6.054674e-01 -4.444445e-01 -2.463845e-01
   endloop
 endfacet
 facet normal  0.000000e+00  0.000000e+00 -1.000000e+00
   outer loop
     vertex  6.054674e-01 -1.587302e-02 -2.463845e-01
     vertex  1.821869e-01 -1.587302e-02 -2.463845e-01
     vertex  1.821869e-01  0.000000e+00 -2.463845e-01
   endloop
 endfacet
 facet normal  0.000000e+00  0.000000e+00 -1.000000e+00
   outer loop
     vertex  6.054674e-01 -1.587302e-02 -2.463845e-01
     vertex  1.821869e-01  0.000000e+00 -2.463845e-01
     vertex  6.054674e-01  0.000000e+00 -2.463845e-01
   endloop
 endfacet
 facet normal  0.000000e+00  1.000000e+00  0.000000e+00
   outer loop
     vertex  2.880070e-01  1.040834e-17  2.827160e-01
     vertex  1.821869e-01  1.040834e-17 -2.463845e-01
     vertex -4.709005e-02  1.040834e-17 -3.474430e-02
   endloop
 endfacet
 facet normal  0.000000e+00  1.000000e+00  0.000000e+00
   outer loop
     vertex  2.880070e-01  1.040834e-17  2.827160e-01
     vertex  6.054674e-01  1.040834e-17 -2.463845e-01
     vertex  1.821869e-01  1.040834e-17 -2.463845e-01
   endloop
 endfacet
 facet normal  0.000000e+00  1.000000e+00  0.000000e+00
   outer loop
     vertex  2.880070e-01  1.040834e-17  2.827160e-01
     vertex -4.709005e-02  1.040834e-17 -3.474430e-02
     vertex -4.709005e-02  1.040834e-17  2.827160e-01
   endloop
 endfacet
 facet normal  0.000000e+00  1.000000e+00  0.000000e+00
   outer loop
     vertex  9.405643e-01  1.040834e-17 -3.474430e-02
     vertex  9.405643e-01  1.040834e-17 -2.463845e-01
     vertex  6.054674e-01  1.040834e-17 -2.463845e-01
   endloop
 endfacet
 facet normal  0.000000e+00  1.000000e+00  0.000000e+00
   outer loop
     vertex  9.405643e-01  1.040834e-17 -3.474430e-02
     vertex  6.054674e-01  1.040834e-17 -2.463845e-01
     vertex  2.880070e-01  1.040834e-17  2.827160e-01
   endloop
 endfacet
 facet normal  1.000000e+00  0.000000e+00  0.000000e+00
   outer loop
     vertex  9.405643e-01 -1.587302e-02 -3.474430e-02
     vertex  9.405643e-01 -4.444445e-01 -2.463845e-01
     vertex  9.405643e-01 -1.587302e-02 -2.463845e-01
   endloop
 endfacet
 facet normal  1.000000e+00  0.000000e+00  0.000000e+00
   outer loop
     vertex  9.405643e-01 -1.587302e-02 -3.474430e-02
     vertex  9.405643e-01 -4.444445e-01 -3.474430e-02
     vertex  9.405643e-01 -4.444445e-01 -2.463845e-01
   endloop
 endfacet
 facet normal  4.374657e-01  0.000000e+00  8.992351e-01
   outer loop
     vertex  2.880070e-01 -1.587302e-02  2.827160e-01
     vertex  9.405643e-01 -4.444445e-01 -3.474430e-02
     vertex  9.405643e-01 -1.587302e-02 -3.474430e-02
   endloop
 endfacet
 facet normal  4.374657e-01  0.000000e+00  8.992351e-01
   outer loop
     vertex  2.880070e-01 -1.587302e-02  2.827160e-01
     vertex  2.880070e-01 -4.444445e-01  2.827160e-01
     vertex  9.405643e-01 -4.444445e-01 -3.474430e-02
   endloop
 endfacet
 facet normal  0.000000e+00  0.000000e+00  1.000000e+00
   outer loop
     vertex -4.709005e-02 -1.587302e-02  2.827160e-01
     vertex  2.880070e-01 -1.587302e-02  2.827160e-01
     vertex  2.880070e-01  0.000000e+00  2.827160e-01
   endloop
 endfacet
 facet normal  0.000000e+00  0.000000e+00  1.000000e+00
   outer loop
     vertex -4.709005e-02 -1.587302e-02  2.827160e-01
     vertex  2.880070e-01  0.000000e+00  2.827160e-01
     vertex -4.709005e-02  0.000000e+00  2.827160e-01
   endloop
 endfacet
 facet normal  0.000000e+00  0.000000e+00 -1.000000e+00
   outer loop
     vertex  9.405643e-01 -1.587302e-02 -2.463845e-01
     vertex  6.054674e-01 -1.587302e-02 -2.463845e-01
     vertex  6.054674e-01  0.000000e+00 -2.463845e-01
   endloop
 endfacet
 facet normal  0.000000e+00  0.000000e+00 -1.000000e+00
   outer loop
     vertex  9.405643e-01 -1.587302e-02 -2.463845e-01
     vertex  6.054674e-01  0.000000e+00 -2.463845e-01
     vertex  9.405643e-01  0.000000e+00 -2.463845e-01
   endloop
 endfacet
 facet normal  1.000000e+00  0.000000e+00  0.000000e+00
   outer loop
     vertex  9.405643e-01 -1.587302e-02 -3.474430e-02
     vertex  9.405643e-01 -1.587302e-02 -2.463845e-01
     vertex  9.405643e-01  0.000000e+00 -2.463845e-01
   endloop
 endfacet
 facet normal  1.000000e+00 -0.000000e+00  0.000000e+00
   outer loop
     vertex  9.405643e-01 -1.587302e-02 -3.474430e-02
     vertex  9.405643e-01  0.000000e+00 -2.463845e-01
     vertex  9.405643e-01  0.000000e+00 -3.474430e-02
   endloop
 endfacet
 facet normal  4.374657e-01  0.000000e+00  8.992351e-01
   outer loop
     vertex  2.880070e-01 -1.587302e-02  2.827160e-01
     vertex  9.405643e-01 -1.587302e-02 -3.474430e-02
     vertex  9.405643e-01  0.000000e+00 -3.474430e-02
   endloop
 endfacet
 facet normal  4.374657e-01 -0.000000e+00  8.992351e-01
   outer loop
     vertex  2.880070e-01 -1.587302e-02  2.827160e-01
     vertex  9.405643e-01  0.000000e+00 -3.474430e-02
     vertex  2.880070e-01  0.000000e+00  2.827160e-01
   endloop
 endfacet
endsolid
