solid 
 facet normal -0.000000e+00  0.000000e+00 -1.000000e+00
   outer loop
     vertex  3.352734e-01 -1.587302e-02 -4.231040e-01
     vertex -1.053086e+00 -5.079365e-01 -4.231040e-01
     vertex -1.053086e+00 -1.587302e-02 -4.231040e-01
   endloop
 endfacet
 facet normal  0.000000e+00 -0.000000e+00 -1.000000e+00
   outer loop
     vertex  3.352734e-01 -1.587302e-02 -4.231040e-01
     vertex  3.352734e-01 -5.079365e-01 -4.231040e-01
     vertex -1.053086e+00 -5.079365e-01 -4.231040e-01
   endloop
 endfacet
 facet normal -1.000000e+00  0.000000e+00  0.000000e+00
   outer loop
     vertex -1.053086e+00 -1.587302e-02 -4.231040e-01
     vertex -1.053086e+00 -5.079365e-01  7.338625e-01
     vertex -1.053086e+00 -1.587302e-02  7.338625e-01
   endloop
 endfacet
 facet normal -1.000000e+00  0.000000e+00  0.000000e+00
   outer loop
     vertex -1.053086e+00 -1.587302e-02 -4.231040e-01
     vertex -1.053086e+00 -5.079365e-01 -4.231040e-01
     vertex -1.053086e+00 -5.079365e-01  7.338625e-01
   endloop
 endfacet
 facet normal  1.000000e+00  0.000000e+00  0.000000e+00
   outer loop
     vertex  3.352734e-01 -1.587302e-02  7.338625e-01
     vertex  3.352734e-01 -5.079365e-01 -4.231040e-01
     vertex  3.352734e-01 -1.587302e-02 -4.231040e-01
   endloop
 endfacet
 facet normal  1.000000e+00  0.000000e+00  0.000000e+00
   outer loop
     vertex  3.352734e-01 -1.587302e-02  7.338625e-01
     vertex  3.352734e-01 -5.079365e-01  7.338625e-01
     vertex  3.352734e-01 -5.079365e-01 -4.231040e-01
   endloop
 endfacet
 facet normal  0.000000e+00  0.000000e+00 -1.000000e+00
   outer loop
     vertex  3.352734e-01 -1.587302e-02 -4.231040e-01
     vertex -1.053086e+00 -1.587302e-02 -4.231040e-01
     vertex -1.053086e+00  0.000000e+00 -4.231040e-01
   endloop
 endfacet
 facet normal  0.000000e+00  0.000000e+00 -1.000000e+00
   outer loop
     vertex  3.352734e-01 -1.587302e-02 -4.231040e-01
     vertex -1.053086e+00  0.000000e+00 -4.231040e-01
     vertex  3.352734e-01  0.000000e+00 -4.231040e-01
   endloop
 endfacet
 facet normal  0.000000e+00 -1.000000e+00 -0.000000e+00
   outer loop
     vertex  3.352734e-01 -5.079365e-01  7.338625e-01
     vertex -1.053086e+00 -5.079365e-01 -4.231040e-01
     vertex  3.352734e-01 -5.079365e-01 -4.231040e-01
   endloop
 endfacet
 facet normal -0.000000e+00 -1.000000e+00  0.000000e+00
   outer loop
     vertex  3.352734e-01 -5.079365e-01  7.338625e-01
     vertex -1.053086e+00 -5.079365e-01  7.338625e-01
     vertex -1.053086e+00 -5.079365e-01 -4.231040e-01
   endloop
 endfacet
 facet normal -0.000000e+00  0.000000e+00  1.000000e+00
   outer loop
     vertex -1.053086e+00 -1.587302e-02  7.338625e-01
     vertex  3.352734e-01 -5.079365e-01  7.338625e-01
     vertex  3.352734e-01 -1.587302e-02  7.338625e-01
   endloop
 endfacet
 facet normal  0.000000e+00  0.000000e+00  1.000000e+00
   outer loop
     vertex -1.053086e+00 -1.587302e-02  7.338625e-01
     vertex -1.053086e+00 -5.079365e-01  7.338625e-01
     vertex  3.352734e-01 -5.079365e-01  7.338625e-01
   endloop
 endfacet
 facet normal -1.000000e+00  0.000000e+00  0.000000e+00
   outer loop
     vertex -1.053086e+00 -1.587302e-02 -4.231040e-01
     vertex -1.053086e+00 -1.587302e-02  7.338625e-01
     vertex -1.053086e+00  0.000000e+00  7.338625e-01
   endloop
 endfacet
 facet normal -1.000000e+00  0.000000e+00  0.000000e+00
   outer loop
     vertex -1.053086e+00 -1.587302e-02 -4.231040e-01
     vertex -1.053086e+00  0.000000e+00  7.338625e-01
     vertex -1.053086e+00  0.000000e+00 -4.231040e-01
   endloop
 endfacet
 facet normal  1.000000e+00  0.000000e+00  0.000000e+00
   outer loop
     vertex  3.352734e-01 -1.587302e-02  7.338625e-01
     vertex  3.352734e-01 -1.587302e-02 -4.231040e-01
     vertex  3.352734e-01  0.000000e+00 -4.231040e-01
   endloop
 endfacet
 facet normal  1.000000e+00 -0.000000e+00  0.000000e+00
   outer loop
     vertex  3.352734e-01 -1.587302e-02  7.338625e-01
     vertex  3.352734e-01  0.000000e+00 -4.231040e-01
     vertex  3.352734e-01  0.000000e+00  7.338625e-01
   endloop
 endfacet
 facet normal  0.000000e+00  1.000000e+00  0.000000e+00
   outer loop
     vertex  3.352734e-01 -4.510281e-17  7.338625e-01
     vertex  3.352734e-01 -4.510281e-17 -4.231040e-01
     vertex -1.053086e+00 -4.510281e-17 -4.231040e-01
   endloop
 endfacet
 facet normal  0.000000e+00  1.000000e+00  0.000000e+00
   outer loop
     vertex  3.352734e-01 -4.510281e-17  7.338625e-01
     vertex -1.053086e+00 -4.510281e-17 -4.231040e-01
     vertex -1.053086e+00 -4.510281e-17  7.338625e-01
   endloop
 endfacet
 facet normal  0.000000e+00  0.000000e+00  1.000000e+00
   outer loop
     vertex -1.053086e+00 -1.587302e-02  7.338625e-01
     vertex  3.352734e-01 -1.587302e-02  7.338625e-01
     vertex  3.352734e-01  0.000000e+00  7.338625e-01
   endloop
 endfacet
 facet normal  0.000000e+00  0.000000e+00  1.000000e+00
   outer loop
     vertex -1.053086e+00 -1.587302e-02  7.338625e-01
     vertex  3.352734e-01  0.000000e+00  7.338625e-01
     vertex -1.053086e+00  0.000000e+00  7.338625e-01
   endloop
 endfacet
 facet normal -0.000000e+00  0.000000e+00 -1.000000e+00
   outer loop
     vertex -3.409171e-01 -5.555556e-01 -2.961199e-01
     vertex -8.149912e-01 -1.047619e+00 -2.961199e-01
     vertex -8.149912e-01 -5.555556e-01 -2.961199e-01
   endloop
 endfacet
 facet normal  0.000000e+00 -0.000000e+00 -1.000000e+00
   outer loop
     vertex -3.409171e-01 -5.555556e-01 -2.961199e-01
     vertex -3.409171e-01 -1.047619e+00 -2.961199e-01
     vertex -8.149912e-01 -1.047619e+00 -2.961199e-01
   endloop
 endfacet
 facet normal -1.000000e+00  0.000000e+00  0.000000e+00
   outer loop
     vertex -8.149912e-01 -5.555556e-01 -2.961199e-01
     vertex -8.149912e-01 -1.047619e+00  9.894184e-02
     vertex -8.149912e-01 -5.555556e-01  9.894184e-02
   endloop
 endfacet
 facet normal -1.000000e+00  0.000000e+00  0.000000e+00
   outer loop
     vertex -8.149912e-01 -5.555556e-01 -2.961199e-01
     vertex -8.149912e-01 -1.047619e+00 -2.961199e-01
     vertex -8.149912e-01 -1.047619e+00  9.894184e-02
   endloop
 endfacet
 facet normal  1.000000e+00  0.000000e+00  0.000000e+00
   outer loop
     vertex -3.409171e-01 -5.555556e-01  9.894184e-02
     vertex -3.409171e-01 -1.047619e+00 -2.961199e-01
     vertex -3.409171e-01 -5.555556e-01 -2.961199e-01
   endloop
 endfacet
 facet normal  1.000000e+00  0.000000e+00  0.000000e+00
   outer loop
     vertex -3.409171e-01 -5.555556e-01  9.894184e-02
     vertex -3.409171e-01 -1.047619e+00  9.894184e-02
     vertex -3.409171e-01 -1.047619e+00 -2.961199e-01
   endloop
 endfacet
 facet normal  0.000000e+00  0.000000e+00 -1.000000e+00
   outer loop
     vertex -3.409171e-01 -5.555556e-01 -2.961199e-01
     vertex -8.149912e-01 -5.555556e-01 -2.961199e-01
     vertex -8.149912e-01 -5.396826e-01 -2.961199e-01
   endloop
 endfacet
 facet normal  0.000000e+00  0.000000e+00 -1.000000e+00
   outer loop
     vertex -3.409171e-01 -5.555556e-01 -2.961199e-01
     vertex -8.149912e-01 -5.396826e-01 -2.961199e-01
     vertex -3.409171e-01 -5.396826e-01 -2.961199e-01
   endloop
 endfacet
 facet normal  0.000000e+00 -1.000000e+00 -0.000000e+00
   outer loop
     vertex -3.409171e-01 -1.047619e+00  9.894184e-02
     vertex -8.149912e-01 -1.047619e+00 -2.961199e-01
     vertex -3.409171e-01 -1.047619e+00 -2.961199e-01
   endloop
 endfacet
 facet normal -0.000000e+00 -1.000000e+00  0.000000e+00
   outer loop
     vertex -3.409171e-01 -1.047619e+00  9.894184e-02
     vertex -8.149912e-01 -1.047619e+00  9.894184e-02
     vertex -8.149912e-01 -1.047619e+00 -2.961199e-01
   endloop
 endfacet
 facet normal -0.000000e+00  0.000000e+00  1.000000e+00
   outer loop
     vertex -8.149912e-01 -5.555556e-01  9.894184e-02
     vertex -3.409171e-01 -1.047619e+00  9.894184e-02
     vertex -3.409171e-01 -5.555556e-01  9.894184e-02
   endloop
 endfacet
 facet normal  0.000000e+00  0.000000e+00  1.000000e+00
   outer loop
     vertex -8.149912e-01 -5.555556e-01  9.894184e-02
     vertex -8.149912e-01 -1.047619e+00  9.894184e-02
     vertex -3.409171e-01 -1.047619e+00  9.894184e-02
   endloop
 endfacet
 facet normal -1.000000e+00  0.000000e+00  0.000000e+00
   outer loop
     vertex -8.149912e-01 -5.555556e-01 -2.961199e-01
     vertex -8.149912e-01 -5.555556e-01  9.894184e-02
     vertex -8.149912e-01 -5.396826e-01  9.894184e-02
   endloop
 endfacet
 facet normal -1.000000e+00  0.000000e+00  0.000000e+00
   outer loop
     vertex -8.149912e-01 -5.555556e-01 -2.961199e-01
     vertex -8.149912e-01 -5.396826e-01  9.894184e-02
     vertex -8.149912e-01 -5.396826e-01 -2.961199e-01
   endloop
 endfacet
 facet normal  1.000000e+00  0.000000e+00  0.000000e+00
   outer loop
     vertex -3.409171e-01 -5.555556e-01  9.894184e-02
     vertex -3.409171e-01 -5.555556e-01 -2.961199e-01
     vertex -3.409171e-01 -5.396826e-01 -2.961199e-01
   endloop
 endfacet
 facet normal  1.000000e+00 -0.000000e+00  0.000000e+00
   outer loop
     vertex -3.409171e-01 -5.555556e-01  9.894184e-02
     vertex -3.409171e-01 -5.396826e-01 -2.961199e-01
     vertex -3.409171e-01 -5.396826e-01  9.894184e-02
   endloop
 endfacet
 facet normal  0.000000e+00  1.000000e+00  0.000000e+00
   outer loop
     vertex -3.409171e-01 -5.396826e-01  9.894184e-02
     vertex -3.409171e-01 -5.396826e-01 -2.961199e-01
     vertex -8.149912e-01 -5.396826e-01 -2.961199e-01
   endloop
 endfacet
 facet normal  0.000000e+00  1.000000e+00  0.000000e+00
   outer loop
     vertex -3.409171e-01 -5.396826e-01  9.894184e-02
     vertex -8.149912e-01 -5.396826e-01 -2.961199e-01
     vertex -8.149912e-01 -5.396826e-01  9.894184e-02
   endloop
 endfacet
 facet normal  0.000000e+00  0.000000e+00  1.000000e+00
   outer loop
     vertex -8.149912e-01 -5.555556e-01  9.894184e-02
     vertex -3.409171e-01 -5.555556e-01  9.894184e-02
     vertex -3.409171e-01 -5.396826e-01  9.894184e-02
   endloop
 endfacet
 facet normal  0.000000e+00  0.000000e+00  1.000000e+00
   outer loop
     vertex -8.149912e-01 -5.555556e-01  9.894184e-02
     vertex -3.409171e-01 -5.396826e-01  9.894184e-02
     vertex -8.149912e-01 -5.396826e-01  9.894184e-02
   endloop
 endfacet
endsolid
