solid 
 facet normal  0.000000e+00 -0.000000e+00 -1.000000e+00
   outer loop
     vertex  7.825397e-01  4.650794e-01 -3.174603e-02
     vertex  7.825397e-01 -6.142857e-01 -3.174603e-02
     vertex -9.317460e-01 -6.142857e-01 -3.174603e-02
   endloop
 endfacet
 facet normal -0.000000e+00  0.000000e+00 -1.000000e+00
   outer loop
     vertex  7.825397e-01  4.650794e-01 -3.174603e-02
     vertex -9.317460e-01 -6.142857e-01 -3.174603e-02
     vertex -9.317460e-01  4.650794e-01 -3.174603e-02
   endloop
 endfacet
 facet normal  0.000000e+00  0.000000e+00 -1.000000e+00
   outer loop
     vertex -1.086949e+00  5.582011e-01 -3.174603e-02
     vertex -9.317460e-01 -6.142857e-01 -3.174603e-02
     vertex -1.086949e+00 -7.130511e-01 -3.174603e-02
   endloop
 endfacet
 facet normal -0.000000e+00 -0.000000e+00 -1.000000e+00
   outer loop
     vertex -9.317460e-01  4.650794e-01 -3.174603e-02
     vertex -9.317460e-01 -6.142857e-01 -3.174603e-02
     vertex -1.086949e+00  5.582011e-01 -3.174603e-02
   endloop
 endfacet
 facet normal  0.000000e+00  0.000000e+00 -1.000000e+00
   outer loop
     vertex  9.320988e-01 -7.130511e-01 -3.174603e-02
     vertex -9.317460e-01 -6.142857e-01 -3.174603e-02
     vertex  7.825397e-01 -6.142857e-01 -3.174603e-02
   endloop
 endfacet
 facet normal  0.000000e+00  0.000000e+00 -1.000000e+00
   outer loop
     vertex  9.320988e-01 -7.130511e-01 -3.174603e-02
     vertex -1.086949e+00 -7.130511e-01 -3.174603e-02
     vertex -9.317460e-01 -6.142857e-01 -3.174603e-02
   endloop
 endfacet
 facet normal  0.000000e+00  0.000000e+00 -1.000000e+00
   outer loop
     vertex  9.320988e-01  5.582011e-01 -3.174603e-02
     vertex  7.825397e-01 -6.142857e-01 -3.174603e-02
     vertex  7.825397e-01  4.650794e-01 -3.174603e-02
   endloop
 endfacet
 facet normal  0.000000e+00 -0.000000e+00 -1.000000e+00
   outer loop
     vertex  9.320988e-01  5.582011e-01 -3.174603e-02
     vertex  9.320988e-01 -7.130511e-01 -3.174603e-02
     vertex  7.825397e-01 -6.142857e-01 -3.174603e-02
   endloop
 endfacet
 facet normal -0.000000e+00  0.000000e+00 -1.000000e+00
   outer loop
     vertex  9.320988e-01  5.582011e-01 -3.174603e-02
     vertex -9.317460e-01  4.650794e-01 -3.174603e-02
     vertex -1.086949e+00  5.582011e-01 -3.174603e-02
   endloop
 endfacet
 facet normal  0.000000e+00  0.000000e+00 -1.000000e+00
   outer loop
     vertex  9.320988e-01  5.582011e-01 -3.174603e-02
     vertex  7.825397e-01  4.650794e-01 -3.174603e-02
     vertex -9.317460e-01  4.650794e-01 -3.174603e-02
   endloop
 endfacet
 facet normal -0.000000e+00 -1.000000e+00  0.000000e+00
   outer loop
     vertex  9.320988e-01 -7.130511e-01 -1.587302e-02
     vertex -1.086949e+00 -7.130511e-01 -1.587302e-02
     vertex -1.086949e+00 -7.130511e-01 -3.174603e-02
   endloop
 endfacet
 facet normal  0.000000e+00 -1.000000e+00 -0.000000e+00
   outer loop
     vertex  9.320988e-01 -7.130511e-01 -1.587302e-02
     vertex -1.086949e+00 -7.130511e-01 -3.174603e-02
     vertex  9.320988e-01 -7.130511e-01 -3.174603e-02
   endloop
 endfacet
 facet normal -1.000000e+00  0.000000e+00  0.000000e+00
   outer loop
     vertex -1.086949e+00 -7.130511e-01 -1.587302e-02
     vertex -1.086949e+00  5.582011e-01 -1.587302e-02
     vertex -1.086949e+00  5.582011e-01 -3.174603e-02
   endloop
 endfacet
 facet normal -1.000000e+00  0.000000e+00  0.000000e+00
   outer loop
     vertex -1.086949e+00 -7.130511e-01 -1.587302e-02
     vertex -1.086949e+00  5.582011e-01 -3.174603e-02
     vertex -1.086949e+00 -7.130511e-01 -3.174603e-02
   endloop
 endfacet
 facet normal  1.000000e+00  0.000000e+00  0.000000e+00
   outer loop
     vertex  9.320988e-01  5.582011e-01 -1.587302e-02
     vertex  9.320988e-01 -7.130511e-01 -1.587302e-02
     vertex  9.320988e-01 -7.130511e-01 -3.174603e-02
   endloop
 endfacet
 facet normal  1.000000e+00  0.000000e+00  0.000000e+00
   outer loop
     vertex  9.320988e-01  5.582011e-01 -1.587302e-02
     vertex  9.320988e-01 -7.130511e-01 -3.174603e-02
     vertex  9.320988e-01  5.582011e-01 -3.174603e-02
   endloop
 endfacet
 facet normal -0.000000e+00  1.000000e+00  0.000000e+00
   outer loop
     vertex -1.086949e+00  5.582011e-01 -1.587302e-02
     vertex  9.320988e-01  5.582011e-01 -1.587302e-02
     vertex  9.320988e-01  5.582011e-01 -3.174603e-02
   endloop
 endfacet
 facet normal  0.000000e+00  1.000000e+00  0.000000e+00
   outer loop
     vertex -1.086949e+00  5.582011e-01 -1.587302e-02
     vertex  9.320988e-01  5.582011e-01 -3.174603e-02
     vertex -1.086949e+00  5.582011e-01 -3.174603e-02
   endloop
 endfacet
 facet normal  0.000000e+00 -1.000000e+00  0.000000e+00
   outer loop
     vertex  9.320988e-01 -7.130511e-01 -1.587302e-02
     vertex -1.086949e+00 -7.130511e-01  3.174609e-02
     vertex -1.086949e+00 -7.130511e-01 -1.587302e-02
   endloop
 endfacet
 facet normal  0.000000e+00 -1.000000e+00  0.000000e+00
   outer loop
     vertex  9.320988e-01 -7.130511e-01 -1.587302e-02
     vertex  9.320988e-01 -7.130511e-01  3.174609e-02
     vertex -1.086949e+00 -7.130511e-01  3.174609e-02
   endloop
 endfacet
 facet normal -1.000000e+00  0.000000e+00  0.000000e+00
   outer loop
     vertex -1.086949e+00 -7.130511e-01 -1.587302e-02
     vertex -1.086949e+00  5.582011e-01  3.174609e-02
     vertex -1.086949e+00  5.582011e-01 -1.587302e-02
   endloop
 endfacet
 facet normal -1.000000e+00  0.000000e+00  0.000000e+00
   outer loop
     vertex -1.086949e+00 -7.130511e-01 -1.587302e-02
     vertex -1.086949e+00 -7.130511e-01  3.174609e-02
     vertex -1.086949e+00  5.582011e-01  3.174609e-02
   endloop
 endfacet
 facet normal  1.000000e+00  0.000000e+00  0.000000e+00
   outer loop
     vertex  9.320988e-01  5.582011e-01 -1.587302e-02
     vertex  9.320988e-01 -7.130511e-01  3.174609e-02
     vertex  9.320988e-01 -7.130511e-01 -1.587302e-02
   endloop
 endfacet
 facet normal  1.000000e+00  0.000000e+00 -0.000000e+00
   outer loop
     vertex  9.320988e-01  5.582011e-01 -1.587302e-02
     vertex  9.320988e-01  5.582011e-01  3.174609e-02
     vertex  9.320988e-01 -7.130511e-01  3.174609e-02
   endloop
 endfacet
 facet normal  0.000000e+00  1.000000e+00  0.000000e+00
   outer loop
     vertex -1.086949e+00  5.582011e-01 -1.587302e-02
     vertex  9.320988e-01  5.582011e-01  3.174609e-02
     vertex  9.320988e-01  5.582011e-01 -1.587302e-02
   endloop
 endfacet
 facet normal  0.000000e+00  1.000000e+00  0.000000e+00
   outer loop
     vertex -1.086949e+00  5.582011e-01 -1.587302e-02
     vertex -1.086949e+00  5.582011e-01  3.174609e-02
     vertex  9.320988e-01  5.582011e-01  3.174609e-02
   endloop
 endfacet
 facet normal  0.000000e+00  0.000000e+00  1.000000e+00
   outer loop
     vertex -1.086949e+00  5.582011e-01  3.174609e-02
     vertex -1.086949e+00 -7.130511e-01  3.174609e-02
     vertex -9.317460e-01 -6.142857e-01  3.174609e-02
   endloop
 endfacet
 facet normal  0.000000e+00  0.000000e+00  1.000000e+00
   outer loop
     vertex -9.317460e-01  4.650794e-01  3.174609e-02
     vertex -1.086949e+00  5.582011e-01  3.174609e-02
     vertex -9.317460e-01 -6.142857e-01  3.174609e-02
   endloop
 endfacet
 facet normal  0.000000e+00  0.000000e+00  1.000000e+00
   outer loop
     vertex  9.320988e-01 -7.130511e-01  3.174609e-02
     vertex  7.825397e-01 -6.142857e-01  3.174609e-02
     vertex -9.317460e-01 -6.142857e-01  3.174609e-02
   endloop
 endfacet
 facet normal  0.000000e+00  0.000000e+00  1.000000e+00
   outer loop
     vertex  9.320988e-01 -7.130511e-01  3.174609e-02
     vertex -9.317460e-01 -6.142857e-01  3.174609e-02
     vertex -1.086949e+00 -7.130511e-01  3.174609e-02
   endloop
 endfacet
 facet normal  0.000000e+00  0.000000e+00  1.000000e+00
   outer loop
     vertex  9.320988e-01  5.582011e-01  3.174609e-02
     vertex  7.825397e-01  4.650794e-01  3.174609e-02
     vertex  7.825397e-01 -6.142857e-01  3.174609e-02
   endloop
 endfacet
 facet normal  0.000000e+00  0.000000e+00  1.000000e+00
   outer loop
     vertex  9.320988e-01  5.582011e-01  3.174609e-02
     vertex  7.825397e-01 -6.142857e-01  3.174609e-02
     vertex  9.320988e-01 -7.130511e-01  3.174609e-02
   endloop
 endfacet
 facet normal  0.000000e+00  0.000000e+00  1.000000e+00
   outer loop
     vertex  9.320988e-01  5.582011e-01  3.174609e-02
     vertex -1.086949e+00  5.582011e-01  3.174609e-02
     vertex -9.317460e-01  4.650794e-01  3.174609e-02
   endloop
 endfacet
 facet normal  0.000000e+00  0.000000e+00  1.000000e+00
   outer loop
     vertex  9.320988e-01  5.582011e-01  3.174609e-02
     vertex -9.317460e-01  4.650794e-01  3.174609e-02
     vertex  7.825397e-01  4.650794e-01  3.174609e-02
   endloop
 endfacet
 facet normal  0.000000e+00 -1.000000e+00  0.000000e+00
   outer loop
     vertex  7.825397e-01 -6.142857e-01  3.174609e-02
     vertex -9.317460e-01 -6.142857e-01  6.984127e-01
     vertex -9.317460e-01 -6.142857e-01  3.174609e-02
   endloop
 endfacet
 facet normal  0.000000e+00 -1.000000e+00  0.000000e+00
   outer loop
     vertex  7.825397e-01 -6.142857e-01  3.174609e-02
     vertex  7.825397e-01 -6.142857e-01  6.984127e-01
     vertex -9.317460e-01 -6.142857e-01  6.984127e-01
   endloop
 endfacet
 facet normal  1.000000e+00  0.000000e+00  0.000000e+00
   outer loop
     vertex  7.825397e-01  4.650794e-01  3.174609e-02
     vertex  7.825397e-01 -6.142857e-01  6.984127e-01
     vertex  7.825397e-01 -6.142857e-01  3.174609e-02
   endloop
 endfacet
 facet normal  1.000000e+00  0.000000e+00 -0.000000e+00
   outer loop
     vertex  7.825397e-01  4.650794e-01  3.174609e-02
     vertex  7.825397e-01  4.650794e-01  6.984127e-01
     vertex  7.825397e-01 -6.142857e-01  6.984127e-01
   endloop
 endfacet
 facet normal  0.000000e+00  1.000000e+00  0.000000e+00
   outer loop
     vertex -9.317460e-01  4.650794e-01  3.174609e-02
     vertex  7.825397e-01  4.650794e-01  6.984127e-01
     vertex  7.825397e-01  4.650794e-01  3.174609e-02
   endloop
 endfacet
 facet normal  0.000000e+00  1.000000e+00  0.000000e+00
   outer loop
     vertex -9.317460e-01  4.650794e-01  3.174609e-02
     vertex -9.317460e-01  4.650794e-01  6.984127e-01
     vertex  7.825397e-01  4.650794e-01  6.984127e-01
   endloop
 endfacet
 facet normal -1.000000e+00  0.000000e+00  0.000000e+00
   outer loop
     vertex -9.317460e-01 -6.142857e-01  3.174609e-02
     vertex -9.317460e-01  4.650794e-01  6.984127e-01
     vertex -9.317460e-01  4.650794e-01  3.174609e-02
   endloop
 endfacet
 facet normal -1.000000e+00  0.000000e+00  0.000000e+00
   outer loop
     vertex -9.317460e-01 -6.142857e-01  3.174609e-02
     vertex -9.317460e-01 -6.142857e-01  6.984127e-01
     vertex -9.317460e-01  4.650794e-01  6.984127e-01
   endloop
 endfacet
 facet normal  0.000000e+00  0.000000e+00  1.000000e+00
   outer loop
     vertex  7.825397e-01  4.650794e-01  6.984127e-01
     vertex -9.317460e-01 -6.142857e-01  6.984127e-01
     vertex  7.825397e-01 -6.142857e-01  6.984127e-01
   endloop
 endfacet
 facet normal  0.000000e+00  0.000000e+00  1.000000e+00
   outer loop
     vertex  7.825397e-01  4.650794e-01  6.984127e-01
     vertex -9.317460e-01  4.650794e-01  6.984127e-01
     vertex -9.317460e-01 -6.142857e-01  6.984127e-01
   endloop
 endfacet
endsolid
