solid 
 facet normal  0.000000e+00 -1.000000e+00  0.000000e+00
   outer loop
     vertex  4.410935e-01 -5.555555e-02 -1.587302e-02
     vertex -5.555555e-02 -5.555555e-02  1.587302e-01
     vertex -5.555555e-02 -5.555555e-02 -1.587302e-02
   endloop
 endfacet
 facet normal  0.000000e+00 -1.000000e+00  0.000000e+00
   outer loop
     vertex  4.410935e-01 -5.555555e-02 -1.587302e-02
     vertex  4.410935e-01 -5.555555e-02  1.587302e-01
     vertex -5.555555e-02 -5.555555e-02  1.587302e-01
   endloop
 endfacet
 facet normal -1.000000e+00  0.000000e+00  0.000000e+00
   outer loop
     vertex -5.555555e-02 -5.555555e-02 -1.587302e-02
     vertex -5.555555e-02  4.410935e-01  1.587302e-01
     vertex -5.555555e-02  4.410935e-01 -1.587302e-02
   endloop
 endfacet
 facet normal -1.000000e+00  0.000000e+00  0.000000e+00
   outer loop
     vertex -5.555555e-02 -5.555555e-02 -1.587302e-02
     vertex -5.555555e-02 -5.555555e-02  1.587302e-01
     vertex -5.555555e-02  4.410935e-01  1.587302e-01
   endloop
 endfacet
 facet normal  1.000000e+00  0.000000e+00  0.000000e+00
   outer loop
     vertex  4.410935e-01  4.410935e-01 -1.587302e-02
     vertex  4.410935e-01 -5.555555e-02  1.587302e-01
     vertex  4.410935e-01 -5.555555e-02 -1.587302e-02
   endloop
 endfacet
 facet normal  1.000000e+00  0.000000e+00 -0.000000e+00
   outer loop
     vertex  4.410935e-01  4.410935e-01 -1.587302e-02
     vertex  4.410935e-01  4.410935e-01  1.587302e-01
     vertex  4.410935e-01 -5.555555e-02  1.587302e-01
   endloop
 endfacet
 facet normal -0.000000e+00 -1.000000e+00  0.000000e+00
   outer loop
     vertex  4.410935e-01 -5.555555e-02 -1.587302e-02
     vertex -5.555555e-02 -5.555555e-02 -1.587302e-02
     vertex -5.555555e-02 -5.555555e-02 -3.174603e-02
   endloop
 endfacet
 facet normal  0.000000e+00 -1.000000e+00 -0.000000e+00
   outer loop
     vertex  4.410935e-01 -5.555555e-02 -1.587302e-02
     vertex -5.555555e-02 -5.555555e-02 -3.174603e-02
     vertex  4.410935e-01 -5.555555e-02 -3.174603e-02
   endloop
 endfacet
 facet normal  0.000000e+00  0.000000e+00  1.000000e+00
   outer loop
     vertex  1.084797e-01  1.264831e-01  1.587302e-01
     vertex -5.555555e-02 -5.555555e-02  1.587302e-01
     vertex  1.225476e-01  1.117292e-01  1.587302e-01
   endloop
 endfacet
 facet normal  0.000000e+00  0.000000e+00  1.000000e+00
   outer loop
     vertex  1.391535e-01  9.990417e-02  1.587302e-01
     vertex  1.225476e-01  1.117292e-01  1.587302e-01
     vertex -5.555555e-02 -5.555555e-02  1.587302e-01
   endloop
 endfacet
 facet normal  0.000000e+00  0.000000e+00  1.000000e+00
   outer loop
     vertex  9.745822e-02  1.436329e-01  1.587302e-01
     vertex -5.555555e-02 -5.555555e-02  1.587302e-01
     vertex  1.084797e-01  1.264831e-01  1.587302e-01
   endloop
 endfacet
 facet normal  0.000000e+00  0.000000e+00  1.000000e+00
   outer loop
     vertex  1.576971e-01  9.143555e-02  1.587302e-01
     vertex  1.391535e-01  9.990417e-02  1.587302e-01
     vertex -5.555555e-02 -5.555555e-02  1.587302e-01
   endloop
 endfacet
 facet normal  0.000000e+00  0.000000e+00  1.000000e+00
   outer loop
     vertex  8.988154e-02  1.625585e-01  1.587302e-01
     vertex -5.555555e-02 -5.555555e-02  1.587302e-01
     vertex  9.745822e-02  1.436329e-01  1.587302e-01
   endloop
 endfacet
 facet normal  0.000000e+00  0.000000e+00  1.000000e+00
   outer loop
     vertex  1.775084e-01  8.662939e-02  1.587302e-01
     vertex  1.576971e-01  9.143555e-02  1.587302e-01
     vertex -5.555555e-02 -5.555555e-02  1.587302e-01
   endloop
 endfacet
 facet normal  0.000000e+00  0.000000e+00  1.000000e+00
   outer loop
     vertex  8.602348e-02  1.825760e-01  1.587302e-01
     vertex -5.555555e-02 -5.555555e-02  1.587302e-01
     vertex  8.988154e-02  1.625585e-01  1.587302e-01
   endloop
 endfacet
 facet normal  0.000000e+00  0.000000e+00  1.000000e+00
   outer loop
     vertex  1.978712e-01  8.565939e-02  1.587302e-01
     vertex  1.775084e-01  8.662939e-02  1.587302e-01
     vertex -5.555555e-02 -5.555555e-02  1.587302e-01
   endloop
 endfacet
 facet normal  0.000000e+00  0.000000e+00  1.000000e+00
   outer loop
     vertex  4.410935e-01 -5.555555e-02  1.587302e-01
     vertex  2.180497e-01  8.856061e-02  1.587302e-01
     vertex  1.978712e-01  8.565939e-02  1.587302e-01
   endloop
 endfacet
 facet normal  0.000000e+00  0.000000e+00  1.000000e+00
   outer loop
     vertex  4.410935e-01 -5.555555e-02  1.587302e-01
     vertex  2.373144e-01  9.522819e-02  1.587302e-01
     vertex  2.180497e-01  8.856061e-02  1.587302e-01
   endloop
 endfacet
 facet normal  0.000000e+00  0.000000e+00  1.000000e+00
   outer loop
     vertex  4.410935e-01 -5.555555e-02  1.587302e-01
     vertex  2.549691e-01  1.054211e-01  1.587302e-01
     vertex  2.373144e-01  9.522819e-02  1.587302e-01
   endloop
 endfacet
 facet normal  0.000000e+00  0.000000e+00  1.000000e+00
   outer loop
     vertex  4.410935e-01 -5.555555e-02  1.587302e-01
     vertex  1.978712e-01  8.565939e-02  1.587302e-01
     vertex -5.555555e-02 -5.555555e-02  1.587302e-01
   endloop
 endfacet
 facet normal  0.000000e+00  0.000000e+00  1.000000e+00
   outer loop
     vertex -5.555555e-02  4.410935e-01  1.587302e-01
     vertex  9.745822e-02  2.419051e-01  1.587302e-01
     vertex  1.084797e-01  2.590548e-01  1.587302e-01
   endloop
 endfacet
 facet normal  0.000000e+00  0.000000e+00  1.000000e+00
   outer loop
     vertex -5.555555e-02  4.410935e-01  1.587302e-01
     vertex  8.988154e-02  2.229795e-01  1.587302e-01
     vertex  9.745822e-02  2.419051e-01  1.587302e-01
   endloop
 endfacet
 facet normal  0.000000e+00  0.000000e+00  1.000000e+00
   outer loop
     vertex -5.555555e-02  4.410935e-01  1.587302e-01
     vertex  8.602348e-02  2.029619e-01  1.587302e-01
     vertex  8.988154e-02  2.229795e-01  1.587302e-01
   endloop
 endfacet
 facet normal  0.000000e+00  0.000000e+00  1.000000e+00
   outer loop
     vertex -5.555555e-02  4.410935e-01  1.587302e-01
     vertex  8.602348e-02  1.825760e-01  1.587302e-01
     vertex  8.602348e-02  2.029619e-01  1.587302e-01
   endloop
 endfacet
 facet normal  0.000000e+00  0.000000e+00  1.000000e+00
   outer loop
     vertex -5.555555e-02  4.410935e-01  1.587302e-01
     vertex -5.555555e-02 -5.555555e-02  1.587302e-01
     vertex  8.602348e-02  1.825760e-01  1.587302e-01
   endloop
 endfacet
 facet normal  0.000000e+00  0.000000e+00  1.000000e+00
   outer loop
     vertex  2.703757e-01  1.187711e-01  1.587302e-01
     vertex  2.549691e-01  1.054211e-01  1.587302e-01
     vertex  4.410935e-01 -5.555555e-02  1.587302e-01
   endloop
 endfacet
 facet normal  0.000000e+00  0.000000e+00  1.000000e+00
   outer loop
     vertex  1.225476e-01  2.738088e-01  1.587302e-01
     vertex -5.555555e-02  4.410935e-01  1.587302e-01
     vertex  1.084797e-01  2.590548e-01  1.587302e-01
   endloop
 endfacet
 facet normal  0.000000e+00  0.000000e+00  1.000000e+00
   outer loop
     vertex  2.829775e-01  1.347955e-01  1.587302e-01
     vertex  2.703757e-01  1.187711e-01  1.587302e-01
     vertex  4.410935e-01 -5.555555e-02  1.587302e-01
   endloop
 endfacet
 facet normal  0.000000e+00  0.000000e+00  1.000000e+00
   outer loop
     vertex  1.391535e-01  2.856338e-01  1.587302e-01
     vertex -5.555555e-02  4.410935e-01  1.587302e-01
     vertex  1.225476e-01  2.738088e-01  1.587302e-01
   endloop
 endfacet
 facet normal  0.000000e+00  0.000000e+00  1.000000e+00
   outer loop
     vertex  2.923188e-01  1.529152e-01  1.587302e-01
     vertex  2.829775e-01  1.347955e-01  1.587302e-01
     vertex  4.410935e-01 -5.555555e-02  1.587302e-01
   endloop
 endfacet
 facet normal  0.000000e+00  0.000000e+00  1.000000e+00
   outer loop
     vertex  1.576971e-01  2.941024e-01  1.587302e-01
     vertex -5.555555e-02  4.410935e-01  1.587302e-01
     vertex  1.391535e-01  2.856338e-01  1.587302e-01
   endloop
 endfacet
 facet normal  0.000000e+00  0.000000e+00  1.000000e+00
   outer loop
     vertex  2.980622e-01  1.724754e-01  1.587302e-01
     vertex  2.923188e-01  1.529152e-01  1.587302e-01
     vertex  4.410935e-01 -5.555555e-02  1.587302e-01
   endloop
 endfacet
 facet normal  0.000000e+00  0.000000e+00  1.000000e+00
   outer loop
     vertex  1.775084e-01  2.989086e-01  1.587302e-01
     vertex -5.555555e-02  4.410935e-01  1.587302e-01
     vertex  1.576971e-01  2.941024e-01  1.587302e-01
   endloop
 endfacet
 facet normal  0.000000e+00  0.000000e+00  1.000000e+00
   outer loop
     vertex  3.000000e-01  1.927690e-01  1.587302e-01
     vertex  2.980622e-01  1.724754e-01  1.587302e-01
     vertex  4.410935e-01 -5.555555e-02  1.587302e-01
   endloop
 endfacet
 facet normal  0.000000e+00  0.000000e+00  1.000000e+00
   outer loop
     vertex  1.978712e-01  2.998786e-01  1.587302e-01
     vertex -5.555555e-02  4.410935e-01  1.587302e-01
     vertex  1.775084e-01  2.989086e-01  1.587302e-01
   endloop
 endfacet
 facet normal  0.000000e+00  0.000000e+00  1.000000e+00
   outer loop
     vertex  4.410935e-01  4.410935e-01  1.587302e-01
     vertex  2.980622e-01  2.130626e-01  1.587302e-01
     vertex  3.000000e-01  1.927690e-01  1.587302e-01
   endloop
 endfacet
 facet normal  0.000000e+00  0.000000e+00  1.000000e+00
   outer loop
     vertex  4.410935e-01  4.410935e-01  1.587302e-01
     vertex  2.923188e-01  2.326227e-01  1.587302e-01
     vertex  2.980622e-01  2.130626e-01  1.587302e-01
   endloop
 endfacet
 facet normal  0.000000e+00  0.000000e+00  1.000000e+00
   outer loop
     vertex  4.410935e-01  4.410935e-01  1.587302e-01
     vertex  2.829775e-01  2.507425e-01  1.587302e-01
     vertex  2.923188e-01  2.326227e-01  1.587302e-01
   endloop
 endfacet
 facet normal  0.000000e+00  0.000000e+00  1.000000e+00
   outer loop
     vertex  4.410935e-01  4.410935e-01  1.587302e-01
     vertex  2.703757e-01  2.667669e-01  1.587302e-01
     vertex  2.829775e-01  2.507425e-01  1.587302e-01
   endloop
 endfacet
 facet normal  0.000000e+00  0.000000e+00  1.000000e+00
   outer loop
     vertex  4.410935e-01  4.410935e-01  1.587302e-01
     vertex  2.549691e-01  2.801168e-01  1.587302e-01
     vertex  2.703757e-01  2.667669e-01  1.587302e-01
   endloop
 endfacet
 facet normal  0.000000e+00  0.000000e+00  1.000000e+00
   outer loop
     vertex  4.410935e-01  4.410935e-01  1.587302e-01
     vertex  2.373144e-01  2.903098e-01  1.587302e-01
     vertex  2.549691e-01  2.801168e-01  1.587302e-01
   endloop
 endfacet
 facet normal  0.000000e+00  0.000000e+00  1.000000e+00
   outer loop
     vertex  4.410935e-01  4.410935e-01  1.587302e-01
     vertex  2.180497e-01  2.969773e-01  1.587302e-01
     vertex  2.373144e-01  2.903098e-01  1.587302e-01
   endloop
 endfacet
 facet normal  0.000000e+00  0.000000e+00  1.000000e+00
   outer loop
     vertex  4.410935e-01  4.410935e-01  1.587302e-01
     vertex  1.978712e-01  2.998786e-01  1.587302e-01
     vertex  2.180497e-01  2.969773e-01  1.587302e-01
   endloop
 endfacet
 facet normal  0.000000e+00  0.000000e+00  1.000000e+00
   outer loop
     vertex  4.410935e-01  4.410935e-01  1.587302e-01
     vertex  3.000000e-01  1.927690e-01  1.587302e-01
     vertex  4.410935e-01 -5.555555e-02  1.587302e-01
   endloop
 endfacet
 facet normal  0.000000e+00  0.000000e+00  1.000000e+00
   outer loop
     vertex  4.410935e-01  4.410935e-01  1.587302e-01
     vertex -5.555555e-02  4.410935e-01  1.587302e-01
     vertex  1.978712e-01  2.998786e-01  1.587302e-01
   endloop
 endfacet
 facet normal  0.000000e+00  1.000000e+00  0.000000e+00
   outer loop
     vertex -5.555555e-02  4.410935e-01 -1.587302e-02
     vertex  4.410935e-01  4.410935e-01  1.587302e-01
     vertex  4.410935e-01  4.410935e-01 -1.587302e-02
   endloop
 endfacet
 facet normal  0.000000e+00  1.000000e+00  0.000000e+00
   outer loop
     vertex -5.555555e-02  4.410935e-01 -1.587302e-02
     vertex -5.555555e-02  4.410935e-01  1.587302e-01
     vertex  4.410935e-01  4.410935e-01  1.587302e-01
   endloop
 endfacet
 facet normal -1.000000e+00  0.000000e+00  0.000000e+00
   outer loop
     vertex -5.555555e-02 -5.555555e-02 -1.587302e-02
     vertex -5.555555e-02  4.410935e-01 -1.587302e-02
     vertex -5.555555e-02  4.410935e-01 -3.174603e-02
   endloop
 endfacet
 facet normal -1.000000e+00  0.000000e+00  0.000000e+00
   outer loop
     vertex -5.555555e-02 -5.555555e-02 -1.587302e-02
     vertex -5.555555e-02  4.410935e-01 -3.174603e-02
     vertex -5.555555e-02 -5.555555e-02 -3.174603e-02
   endloop
 endfacet
 facet normal  1.000000e+00  0.000000e+00  0.000000e+00
   outer loop
     vertex  4.410935e-01  4.410935e-01 -1.587302e-02
     vertex  4.410935e-01 -5.555555e-02 -1.587302e-02
     vertex  4.410935e-01 -5.555555e-02 -3.174603e-02
   endloop
 endfacet
 facet normal  1.000000e+00  0.000000e+00  0.000000e+00
   outer loop
     vertex  4.410935e-01  4.410935e-01 -1.587302e-02
     vertex  4.410935e-01 -5.555555e-02 -3.174603e-02
     vertex  4.410935e-01  4.410935e-01 -3.174603e-02
   endloop
 endfacet
 facet normal  0.000000e+00 -0.000000e+00 -1.000000e+00
   outer loop
     vertex  1.084797e-01  1.264831e-01 -3.174603e-02
     vertex  1.225476e-01  1.117292e-01 -3.174603e-02
     vertex -5.555555e-02 -5.555555e-02 -3.174603e-02
   endloop
 endfacet
 facet normal -0.000000e+00  0.000000e+00 -1.000000e+00
   outer loop
     vertex  1.391535e-01  9.990417e-02 -3.174603e-02
     vertex -5.555555e-02 -5.555555e-02 -3.174603e-02
     vertex  1.225476e-01  1.117292e-01 -3.174603e-02
   endloop
 endfacet
 facet normal  0.000000e+00 -0.000000e+00 -1.000000e+00
   outer loop
     vertex  9.745822e-02  1.436329e-01 -3.174603e-02
     vertex  1.084797e-01  1.264831e-01 -3.174603e-02
     vertex -5.555555e-02 -5.555555e-02 -3.174603e-02
   endloop
 endfacet
 facet normal -0.000000e+00  0.000000e+00 -1.000000e+00
   outer loop
     vertex  1.576971e-01  9.143555e-02 -3.174603e-02
     vertex -5.555555e-02 -5.555555e-02 -3.174603e-02
     vertex  1.391535e-01  9.990417e-02 -3.174603e-02
   endloop
 endfacet
 facet normal  0.000000e+00 -0.000000e+00 -1.000000e+00
   outer loop
     vertex  8.988154e-02  1.625585e-01 -3.174603e-02
     vertex  9.745822e-02  1.436329e-01 -3.174603e-02
     vertex -5.555555e-02 -5.555555e-02 -3.174603e-02
   endloop
 endfacet
 facet normal -0.000000e+00  0.000000e+00 -1.000000e+00
   outer loop
     vertex  1.775084e-01  8.662939e-02 -3.174603e-02
     vertex -5.555555e-02 -5.555555e-02 -3.174603e-02
     vertex  1.576971e-01  9.143555e-02 -3.174603e-02
   endloop
 endfacet
 facet normal  0.000000e+00 -0.000000e+00 -1.000000e+00
   outer loop
     vertex  8.602348e-02  1.825760e-01 -3.174603e-02
     vertex  8.988154e-02  1.625585e-01 -3.174603e-02
     vertex -5.555555e-02 -5.555555e-02 -3.174603e-02
   endloop
 endfacet
 facet normal -0.000000e+00  0.000000e+00 -1.000000e+00
   outer loop
     vertex  1.978712e-01  8.565939e-02 -3.174603e-02
     vertex -5.555555e-02 -5.555555e-02 -3.174603e-02
     vertex  1.775084e-01  8.662939e-02 -3.174603e-02
   endloop
 endfacet
 facet normal  0.000000e+00  0.000000e+00 -1.000000e+00
   outer loop
     vertex  4.410935e-01 -5.555555e-02 -3.174603e-02
     vertex  1.978712e-01  8.565939e-02 -3.174603e-02
     vertex  2.180497e-01  8.856061e-02 -3.174603e-02
   endloop
 endfacet
 facet normal  0.000000e+00  0.000000e+00 -1.000000e+00
   outer loop
     vertex  4.410935e-01 -5.555555e-02 -3.174603e-02
     vertex  2.180497e-01  8.856061e-02 -3.174603e-02
     vertex  2.373144e-01  9.522819e-02 -3.174603e-02
   endloop
 endfacet
 facet normal  0.000000e+00  0.000000e+00 -1.000000e+00
   outer loop
     vertex  4.410935e-01 -5.555555e-02 -3.174603e-02
     vertex  2.373144e-01  9.522819e-02 -3.174603e-02
     vertex  2.549691e-01  1.054211e-01 -3.174603e-02
   endloop
 endfacet
 facet normal  0.000000e+00  0.000000e+00 -1.000000e+00
   outer loop
     vertex  4.410935e-01 -5.555555e-02 -3.174603e-02
     vertex -5.555555e-02 -5.555555e-02 -3.174603e-02
     vertex  1.978712e-01  8.565939e-02 -3.174603e-02
   endloop
 endfacet
 facet normal  0.000000e+00  0.000000e+00 -1.000000e+00
   outer loop
     vertex -5.555555e-02  4.410935e-01 -3.174603e-02
     vertex  1.084797e-01  2.590548e-01 -3.174603e-02
     vertex  9.745822e-02  2.419051e-01 -3.174603e-02
   endloop
 endfacet
 facet normal  0.000000e+00  0.000000e+00 -1.000000e+00
   outer loop
     vertex -5.555555e-02  4.410935e-01 -3.174603e-02
     vertex  9.745822e-02  2.419051e-01 -3.174603e-02
     vertex  8.988154e-02  2.229795e-01 -3.174603e-02
   endloop
 endfacet
 facet normal  0.000000e+00  0.000000e+00 -1.000000e+00
   outer loop
     vertex -5.555555e-02  4.410935e-01 -3.174603e-02
     vertex  8.988154e-02  2.229795e-01 -3.174603e-02
     vertex  8.602348e-02  2.029619e-01 -3.174603e-02
   endloop
 endfacet
 facet normal  0.000000e+00  0.000000e+00 -1.000000e+00
   outer loop
     vertex -5.555555e-02  4.410935e-01 -3.174603e-02
     vertex  8.602348e-02  2.029619e-01 -3.174603e-02
     vertex  8.602348e-02  1.825760e-01 -3.174603e-02
   endloop
 endfacet
 facet normal  0.000000e+00  0.000000e+00 -1.000000e+00
   outer loop
     vertex -5.555555e-02  4.410935e-01 -3.174603e-02
     vertex  8.602348e-02  1.825760e-01 -3.174603e-02
     vertex -5.555555e-02 -5.555555e-02 -3.174603e-02
   endloop
 endfacet
 facet normal  0.000000e+00 -0.000000e+00 -1.000000e+00
   outer loop
     vertex  2.703757e-01  1.187711e-01 -3.174603e-02
     vertex  4.410935e-01 -5.555555e-02 -3.174603e-02
     vertex  2.549691e-01  1.054211e-01 -3.174603e-02
   endloop
 endfacet
 facet normal -0.000000e+00  0.000000e+00 -1.000000e+00
   outer loop
     vertex  1.225476e-01  2.738088e-01 -3.174603e-02
     vertex  1.084797e-01  2.590548e-01 -3.174603e-02
     vertex -5.555555e-02  4.410935e-01 -3.174603e-02
   endloop
 endfacet
 facet normal  0.000000e+00 -0.000000e+00 -1.000000e+00
   outer loop
     vertex  2.829775e-01  1.347955e-01 -3.174603e-02
     vertex  4.410935e-01 -5.555555e-02 -3.174603e-02
     vertex  2.703757e-01  1.187711e-01 -3.174603e-02
   endloop
 endfacet
 facet normal -0.000000e+00  0.000000e+00 -1.000000e+00
   outer loop
     vertex  1.391535e-01  2.856338e-01 -3.174603e-02
     vertex  1.225476e-01  2.738088e-01 -3.174603e-02
     vertex -5.555555e-02  4.410935e-01 -3.174603e-02
   endloop
 endfacet
 facet normal  0.000000e+00 -0.000000e+00 -1.000000e+00
   outer loop
     vertex  2.923188e-01  1.529152e-01 -3.174603e-02
     vertex  4.410935e-01 -5.555555e-02 -3.174603e-02
     vertex  2.829775e-01  1.347955e-01 -3.174603e-02
   endloop
 endfacet
 facet normal -0.000000e+00  0.000000e+00 -1.000000e+00
   outer loop
     vertex  1.576971e-01  2.941024e-01 -3.174603e-02
     vertex  1.391535e-01  2.856338e-01 -3.174603e-02
     vertex -5.555555e-02  4.410935e-01 -3.174603e-02
   endloop
 endfacet
 facet normal  0.000000e+00 -0.000000e+00 -1.000000e+00
   outer loop
     vertex  2.980622e-01  1.724754e-01 -3.174603e-02
     vertex  4.410935e-01 -5.555555e-02 -3.174603e-02
     vertex  2.923188e-01  1.529152e-01 -3.174603e-02
   endloop
 endfacet
 facet normal -0.000000e+00  0.000000e+00 -1.000000e+00
   outer loop
     vertex  1.775084e-01  2.989086e-01 -3.174603e-02
     vertex  1.576971e-01  2.941024e-01 -3.174603e-02
     vertex -5.555555e-02  4.410935e-01 -3.174603e-02
   endloop
 endfacet
 facet normal  0.000000e+00 -0.000000e+00 -1.000000e+00
   outer loop
     vertex  3.000000e-01  1.927690e-01 -3.174603e-02
     vertex  4.410935e-01 -5.555555e-02 -3.174603e-02
     vertex  2.980622e-01  1.724754e-01 -3.174603e-02
   endloop
 endfacet
 facet normal -0.000000e+00  0.000000e+00 -1.000000e+00
   outer loop
     vertex  1.978712e-01  2.998786e-01 -3.174603e-02
     vertex  1.775084e-01  2.989086e-01 -3.174603e-02
     vertex -5.555555e-02  4.410935e-01 -3.174603e-02
   endloop
 endfacet
 facet normal  0.000000e+00  0.000000e+00 -1.000000e+00
   outer loop
     vertex  4.410935e-01  4.410935e-01 -3.174603e-02
     vertex  3.000000e-01  1.927690e-01 -3.174603e-02
     vertex  2.980622e-01  2.130626e-01 -3.174603e-02
   endloop
 endfacet
 facet normal  0.000000e+00  0.000000e+00 -1.000000e+00
   outer loop
     vertex  4.410935e-01  4.410935e-01 -3.174603e-02
     vertex  2.980622e-01  2.130626e-01 -3.174603e-02
     vertex  2.923188e-01  2.326227e-01 -3.174603e-02
   endloop
 endfacet
 facet normal  0.000000e+00  0.000000e+00 -1.000000e+00
   outer loop
     vertex  4.410935e-01  4.410935e-01 -3.174603e-02
     vertex  2.923188e-01  2.326227e-01 -3.174603e-02
     vertex  2.829775e-01  2.507425e-01 -3.174603e-02
   endloop
 endfacet
 facet normal  0.000000e+00  0.000000e+00 -1.000000e+00
   outer loop
     vertex  4.410935e-01  4.410935e-01 -3.174603e-02
     vertex  2.829775e-01  2.507425e-01 -3.174603e-02
     vertex  2.703757e-01  2.667669e-01 -3.174603e-02
   endloop
 endfacet
 facet normal  0.000000e+00  0.000000e+00 -1.000000e+00
   outer loop
     vertex  4.410935e-01  4.410935e-01 -3.174603e-02
     vertex  2.703757e-01  2.667669e-01 -3.174603e-02
     vertex  2.549691e-01  2.801168e-01 -3.174603e-02
   endloop
 endfacet
 facet normal  0.000000e+00  0.000000e+00 -1.000000e+00
   outer loop
     vertex  4.410935e-01  4.410935e-01 -3.174603e-02
     vertex  2.549691e-01  2.801168e-01 -3.174603e-02
     vertex  2.373144e-01  2.903098e-01 -3.174603e-02
   endloop
 endfacet
 facet normal  0.000000e+00  0.000000e+00 -1.000000e+00
   outer loop
     vertex  4.410935e-01  4.410935e-01 -3.174603e-02
     vertex  2.373144e-01  2.903098e-01 -3.174603e-02
     vertex  2.180497e-01  2.969773e-01 -3.174603e-02
   endloop
 endfacet
 facet normal  0.000000e+00  0.000000e+00 -1.000000e+00
   outer loop
     vertex  4.410935e-01  4.410935e-01 -3.174603e-02
     vertex  2.180497e-01  2.969773e-01 -3.174603e-02
     vertex  1.978712e-01  2.998786e-01 -3.174603e-02
   endloop
 endfacet
 facet normal  0.000000e+00 -0.000000e+00 -1.000000e+00
   outer loop
     vertex  4.410935e-01  4.410935e-01 -3.174603e-02
     vertex  4.410935e-01 -5.555555e-02 -3.174603e-02
     vertex  3.000000e-01  1.927690e-01 -3.174603e-02
   endloop
 endfacet
 facet normal -0.000000e+00  0.000000e+00 -1.000000e+00
   outer loop
     vertex  4.410935e-01  4.410935e-01 -3.174603e-02
     vertex  1.978712e-01  2.998786e-01 -3.174603e-02
     vertex -5.555555e-02  4.410935e-01 -3.174603e-02
   endloop
 endfacet
 facet normal -9.954719e-01 -9.505604e-02  0.000000e+00
   outer loop
     vertex  2.980622e-01  2.130626e-01 -1.587302e-02
     vertex  3.000000e-01  1.927690e-01 -1.587302e-02
     vertex  3.000000e-01  1.927690e-01  1.587302e-01
   endloop
 endfacet
 facet normal -9.954719e-01 -9.505604e-02  0.000000e+00
   outer loop
     vertex  2.980622e-01  2.130626e-01 -1.587302e-02
     vertex  3.000000e-01  1.927690e-01  1.587302e-01
     vertex  2.980622e-01  2.130626e-01  1.587302e-01
   endloop
 endfacet
 facet normal -9.594930e-01 -2.817326e-01  0.000000e+00
   outer loop
     vertex  2.923188e-01  2.326227e-01 -1.587302e-02
     vertex  2.980622e-01  2.130626e-01  1.587302e-01
     vertex  2.923188e-01  2.326227e-01  1.587302e-01
   endloop
 endfacet
 facet normal -9.594930e-01 -2.817326e-01  0.000000e+00
   outer loop
     vertex  2.923188e-01  2.326227e-01 -1.587302e-02
     vertex  2.980622e-01  2.130626e-01 -1.587302e-02
     vertex  2.980622e-01  2.130626e-01  1.587302e-01
   endloop
 endfacet
 facet normal -8.888354e-01 -4.582265e-01  0.000000e+00
   outer loop
     vertex  2.829775e-01  2.507425e-01 -1.587302e-02
     vertex  2.923188e-01  2.326227e-01  1.587302e-01
     vertex  2.829775e-01  2.507425e-01  1.587302e-01
   endloop
 endfacet
 facet normal -8.888354e-01 -4.582265e-01  0.000000e+00
   outer loop
     vertex  2.829775e-01  2.507425e-01 -1.587302e-02
     vertex  2.923188e-01  2.326227e-01 -1.587302e-02
     vertex  2.923188e-01  2.326227e-01  1.587302e-01
   endloop
 endfacet
 facet normal -7.860531e-01 -6.181590e-01  0.000000e+00
   outer loop
     vertex  2.703757e-01  2.667669e-01 -1.587302e-02
     vertex  2.829775e-01  2.507425e-01  1.587302e-01
     vertex  2.703757e-01  2.667669e-01  1.587302e-01
   endloop
 endfacet
 facet normal -7.860531e-01 -6.181590e-01  0.000000e+00
   outer loop
     vertex  2.703757e-01  2.667669e-01 -1.587302e-02
     vertex  2.829775e-01  2.507425e-01 -1.587302e-02
     vertex  2.829775e-01  2.507425e-01  1.587302e-01
   endloop
 endfacet
 facet normal -6.548607e-01 -7.557496e-01  0.000000e+00
   outer loop
     vertex  2.549691e-01  2.801168e-01 -1.587302e-02
     vertex  2.703757e-01  2.667669e-01  1.587302e-01
     vertex  2.549691e-01  2.801168e-01  1.587302e-01
   endloop
 endfacet
 facet normal -6.548607e-01 -7.557496e-01  0.000000e+00
   outer loop
     vertex  2.549691e-01  2.801168e-01 -1.587302e-02
     vertex  2.703757e-01  2.667669e-01 -1.587302e-02
     vertex  2.703757e-01  2.667669e-01  1.587302e-01
   endloop
 endfacet
 facet normal -5.000000e-01 -8.660254e-01  0.000000e+00
   outer loop
     vertex  2.373144e-01  2.903098e-01 -1.587302e-02
     vertex  2.549691e-01  2.801168e-01  1.587302e-01
     vertex  2.373144e-01  2.903098e-01  1.587302e-01
   endloop
 endfacet
 facet normal -5.000000e-01 -8.660254e-01  0.000000e+00
   outer loop
     vertex  2.373144e-01  2.903098e-01 -1.587302e-02
     vertex  2.549691e-01  2.801168e-01 -1.587302e-02
     vertex  2.549691e-01  2.801168e-01  1.587302e-01
   endloop
 endfacet
 facet normal -3.270680e-01 -9.450008e-01  0.000000e+00
   outer loop
     vertex  2.180497e-01  2.969773e-01 -1.587302e-02
     vertex  2.373144e-01  2.903098e-01  1.587302e-01
     vertex  2.180497e-01  2.969773e-01  1.587302e-01
   endloop
 endfacet
 facet normal -3.270680e-01 -9.450008e-01  0.000000e+00
   outer loop
     vertex  2.180497e-01  2.969773e-01 -1.587302e-02
     vertex  2.373144e-01  2.903098e-01 -1.587302e-02
     vertex  2.373144e-01  2.903098e-01  1.587302e-01
   endloop
 endfacet
 facet normal -1.423148e-01 -9.898214e-01  0.000000e+00
   outer loop
     vertex  1.978712e-01  2.998786e-01 -1.587302e-02
     vertex  2.180497e-01  2.969773e-01 -1.587302e-02
     vertex  2.180497e-01  2.969773e-01  1.587302e-01
   endloop
 endfacet
 facet normal -1.423148e-01 -9.898214e-01  0.000000e+00
   outer loop
     vertex  1.978712e-01  2.998786e-01 -1.587302e-02
     vertex  2.180497e-01  2.969773e-01  1.587302e-01
     vertex  1.978712e-01  2.998786e-01  1.587302e-01
   endloop
 endfacet
 facet normal  4.758192e-02 -9.988673e-01  0.000000e+00
   outer loop
     vertex  1.775084e-01  2.989086e-01 -1.587302e-02
     vertex  1.978712e-01  2.998786e-01 -1.587302e-02
     vertex  1.978712e-01  2.998786e-01  1.587302e-01
   endloop
 endfacet
 facet normal  4.758192e-02 -9.988673e-01  0.000000e+00
   outer loop
     vertex  1.775084e-01  2.989086e-01 -1.587302e-02
     vertex  1.978712e-01  2.998786e-01  1.587302e-01
     vertex  1.775084e-01  2.989086e-01  1.587302e-01
   endloop
 endfacet
 facet normal  2.357589e-01 -9.718116e-01  0.000000e+00
   outer loop
     vertex  1.576971e-01  2.941024e-01 -1.587302e-02
     vertex  1.775084e-01  2.989086e-01  1.587302e-01
     vertex  1.576971e-01  2.941024e-01  1.587302e-01
   endloop
 endfacet
 facet normal  2.357589e-01 -9.718116e-01  0.000000e+00
   outer loop
     vertex  1.576971e-01  2.941024e-01 -1.587302e-02
     vertex  1.775084e-01  2.989086e-01 -1.587302e-02
     vertex  1.775084e-01  2.989086e-01  1.587302e-01
   endloop
 endfacet
 facet normal  4.154150e-01 -9.096320e-01  0.000000e+00
   outer loop
     vertex  1.391535e-01  2.856338e-01 -1.587302e-02
     vertex  1.576971e-01  2.941024e-01  1.587302e-01
     vertex  1.391535e-01  2.856338e-01  1.587302e-01
   endloop
 endfacet
 facet normal  4.154150e-01 -9.096320e-01  0.000000e+00
   outer loop
     vertex  1.391535e-01  2.856338e-01 -1.587302e-02
     vertex  1.576971e-01  2.941024e-01 -1.587302e-02
     vertex  1.576971e-01  2.941024e-01  1.587302e-01
   endloop
 endfacet
 facet normal  5.800569e-01 -8.145760e-01  0.000000e+00
   outer loop
     vertex  1.225476e-01  2.738088e-01 -1.587302e-02
     vertex  1.391535e-01  2.856338e-01  1.587302e-01
     vertex  1.225476e-01  2.738088e-01  1.587302e-01
   endloop
 endfacet
 facet normal  5.800569e-01 -8.145760e-01  0.000000e+00
   outer loop
     vertex  1.225476e-01  2.738088e-01 -1.587302e-02
     vertex  1.391535e-01  2.856338e-01 -1.587302e-02
     vertex  1.391535e-01  2.856338e-01  1.587302e-01
   endloop
 endfacet
 facet normal  7.237340e-01 -6.900790e-01  0.000000e+00
   outer loop
     vertex  1.084797e-01  2.590548e-01 -1.587302e-02
     vertex  1.225476e-01  2.738088e-01  1.587302e-01
     vertex  1.084797e-01  2.590548e-01  1.587302e-01
   endloop
 endfacet
 facet normal  7.237340e-01 -6.900790e-01  0.000000e+00
   outer loop
     vertex  1.084797e-01  2.590548e-01 -1.587302e-02
     vertex  1.225476e-01  2.738088e-01 -1.587302e-02
     vertex  1.225476e-01  2.738088e-01  1.587302e-01
   endloop
 endfacet
 facet normal  8.412535e-01 -5.406408e-01  0.000000e+00
   outer loop
     vertex  9.745822e-02  2.419051e-01 -1.587302e-02
     vertex  1.084797e-01  2.590548e-01  1.587302e-01
     vertex  9.745822e-02  2.419051e-01  1.587302e-01
   endloop
 endfacet
 facet normal  8.412535e-01 -5.406408e-01  0.000000e+00
   outer loop
     vertex  9.745822e-02  2.419051e-01 -1.587302e-02
     vertex  1.084797e-01  2.590548e-01 -1.587302e-02
     vertex  1.084797e-01  2.590548e-01  1.587302e-01
   endloop
 endfacet
 facet normal  9.283679e-01 -3.716625e-01  0.000000e+00
   outer loop
     vertex  8.988154e-02  2.229795e-01 -1.587302e-02
     vertex  9.745822e-02  2.419051e-01  1.587302e-01
     vertex  8.988154e-02  2.229795e-01  1.587302e-01
   endloop
 endfacet
 facet normal  9.283679e-01 -3.716625e-01  0.000000e+00
   outer loop
     vertex  8.988154e-02  2.229795e-01 -1.587302e-02
     vertex  9.745822e-02  2.419051e-01 -1.587302e-02
     vertex  9.745822e-02  2.419051e-01  1.587302e-01
   endloop
 endfacet
 facet normal  9.819287e-01 -1.892512e-01  0.000000e+00
   outer loop
     vertex  8.602348e-02  2.029619e-01 -1.587302e-02
     vertex  8.988154e-02  2.229795e-01  1.587302e-01
     vertex  8.602348e-02  2.029619e-01  1.587302e-01
   endloop
 endfacet
 facet normal  9.819287e-01 -1.892512e-01  0.000000e+00
   outer loop
     vertex  8.602348e-02  2.029619e-01 -1.587302e-02
     vertex  8.988154e-02  2.229795e-01 -1.587302e-02
     vertex  8.988154e-02  2.229795e-01  1.587302e-01
   endloop
 endfacet
 facet normal  1.000000e+00  6.807536e-16 -0.000000e+00
   outer loop
     vertex  8.602348e-02  1.825760e-01 -1.587302e-02
     vertex  8.602348e-02  2.029619e-01  1.587302e-01
     vertex  8.602348e-02  1.825760e-01  1.587302e-01
   endloop
 endfacet
 facet normal  1.000000e+00  6.807536e-16  0.000000e+00
   outer loop
     vertex  8.602348e-02  1.825760e-01 -1.587302e-02
     vertex  8.602348e-02  2.029619e-01 -1.587302e-02
     vertex  8.602348e-02  2.029619e-01  1.587302e-01
   endloop
 endfacet
 facet normal  9.819287e-01  1.892512e-01 -0.000000e+00
   outer loop
     vertex  8.988154e-02  1.625585e-01 -1.587302e-02
     vertex  8.602348e-02  1.825760e-01  1.587302e-01
     vertex  8.988154e-02  1.625585e-01  1.587302e-01
   endloop
 endfacet
 facet normal  9.819287e-01  1.892512e-01  0.000000e+00
   outer loop
     vertex  8.988154e-02  1.625585e-01 -1.587302e-02
     vertex  8.602348e-02  1.825760e-01 -1.587302e-02
     vertex  8.602348e-02  1.825760e-01  1.587302e-01
   endloop
 endfacet
 facet normal  9.283679e-01  3.716625e-01 -0.000000e+00
   outer loop
     vertex  9.745822e-02  1.436329e-01 -1.587302e-02
     vertex  8.988154e-02  1.625585e-01  1.587302e-01
     vertex  9.745822e-02  1.436329e-01  1.587302e-01
   endloop
 endfacet
 facet normal  9.283679e-01  3.716625e-01  0.000000e+00
   outer loop
     vertex  9.745822e-02  1.436329e-01 -1.587302e-02
     vertex  8.988154e-02  1.625585e-01 -1.587302e-02
     vertex  8.988154e-02  1.625585e-01  1.587302e-01
   endloop
 endfacet
 facet normal  8.412535e-01  5.406408e-01 -0.000000e+00
   outer loop
     vertex  1.084797e-01  1.264831e-01 -1.587302e-02
     vertex  9.745822e-02  1.436329e-01  1.587302e-01
     vertex  1.084797e-01  1.264831e-01  1.587302e-01
   endloop
 endfacet
 facet normal  8.412535e-01  5.406408e-01  0.000000e+00
   outer loop
     vertex  1.084797e-01  1.264831e-01 -1.587302e-02
     vertex  9.745822e-02  1.436329e-01 -1.587302e-02
     vertex  9.745822e-02  1.436329e-01  1.587302e-01
   endloop
 endfacet
 facet normal  7.237340e-01  6.900790e-01 -0.000000e+00
   outer loop
     vertex  1.225476e-01  1.117292e-01 -1.587302e-02
     vertex  1.084797e-01  1.264831e-01  1.587302e-01
     vertex  1.225476e-01  1.117292e-01  1.587302e-01
   endloop
 endfacet
 facet normal  5.800569e-01  8.145760e-01 -0.000000e+00
   outer loop
     vertex  1.225476e-01  1.117292e-01 -1.587302e-02
     vertex  1.225476e-01  1.117292e-01  1.587302e-01
     vertex  1.391535e-01  9.990417e-02  1.587302e-01
   endloop
 endfacet
 facet normal  7.237340e-01  6.900790e-01  0.000000e+00
   outer loop
     vertex  1.225476e-01  1.117292e-01 -1.587302e-02
     vertex  1.084797e-01  1.264831e-01 -1.587302e-02
     vertex  1.084797e-01  1.264831e-01  1.587302e-01
   endloop
 endfacet
 facet normal  5.800569e-01  8.145760e-01 -0.000000e+00
   outer loop
     vertex  1.391535e-01  9.990417e-02 -1.587302e-02
     vertex  1.225476e-01  1.117292e-01 -1.587302e-02
     vertex  1.391535e-01  9.990417e-02  1.587302e-01
   endloop
 endfacet
 facet normal  4.154150e-01  9.096320e-01 -0.000000e+00
   outer loop
     vertex  1.576971e-01  9.143555e-02 -1.587302e-02
     vertex  1.391535e-01  9.990417e-02  1.587302e-01
     vertex  1.576971e-01  9.143555e-02  1.587302e-01
   endloop
 endfacet
 facet normal  4.154150e-01  9.096320e-01  0.000000e+00
   outer loop
     vertex  1.576971e-01  9.143555e-02 -1.587302e-02
     vertex  1.391535e-01  9.990417e-02 -1.587302e-02
     vertex  1.391535e-01  9.990417e-02  1.587302e-01
   endloop
 endfacet
 facet normal  2.357589e-01  9.718116e-01 -0.000000e+00
   outer loop
     vertex  1.775084e-01  8.662939e-02 -1.587302e-02
     vertex  1.576971e-01  9.143555e-02  1.587302e-01
     vertex  1.775084e-01  8.662939e-02  1.587302e-01
   endloop
 endfacet
 facet normal  2.357589e-01  9.718116e-01  0.000000e+00
   outer loop
     vertex  1.775084e-01  8.662939e-02 -1.587302e-02
     vertex  1.576971e-01  9.143555e-02 -1.587302e-02
     vertex  1.576971e-01  9.143555e-02  1.587302e-01
   endloop
 endfacet
 facet normal  4.758192e-02  9.988673e-01 -0.000000e+00
   outer loop
     vertex  1.978712e-01  8.565939e-02 -1.587302e-02
     vertex  1.775084e-01  8.662939e-02  1.587302e-01
     vertex  1.978712e-01  8.565939e-02  1.587302e-01
   endloop
 endfacet
 facet normal  4.758192e-02  9.988673e-01  0.000000e+00
   outer loop
     vertex  1.978712e-01  8.565939e-02 -1.587302e-02
     vertex  1.775084e-01  8.662939e-02 -1.587302e-02
     vertex  1.775084e-01  8.662939e-02  1.587302e-01
   endloop
 endfacet
 facet normal -1.423148e-01  9.898214e-01  0.000000e+00
   outer loop
     vertex  2.180497e-01  8.856061e-02 -1.587302e-02
     vertex  1.978712e-01  8.565939e-02  1.587302e-01
     vertex  2.180497e-01  8.856061e-02  1.587302e-01
   endloop
 endfacet
 facet normal -1.423148e-01  9.898214e-01  0.000000e+00
   outer loop
     vertex  2.180497e-01  8.856061e-02 -1.587302e-02
     vertex  1.978712e-01  8.565939e-02 -1.587302e-02
     vertex  1.978712e-01  8.565939e-02  1.587302e-01
   endloop
 endfacet
 facet normal -3.270680e-01  9.450008e-01  0.000000e+00
   outer loop
     vertex  2.373144e-01  9.522819e-02 -1.587302e-02
     vertex  2.180497e-01  8.856061e-02  1.587302e-01
     vertex  2.373144e-01  9.522819e-02  1.587302e-01
   endloop
 endfacet
 facet normal -3.270680e-01  9.450008e-01  0.000000e+00
   outer loop
     vertex  2.373144e-01  9.522819e-02 -1.587302e-02
     vertex  2.180497e-01  8.856061e-02 -1.587302e-02
     vertex  2.180497e-01  8.856061e-02  1.587302e-01
   endloop
 endfacet
 facet normal -5.000000e-01  8.660254e-01  0.000000e+00
   outer loop
     vertex  2.549691e-01  1.054211e-01 -1.587302e-02
     vertex  2.373144e-01  9.522819e-02  1.587302e-01
     vertex  2.549691e-01  1.054211e-01  1.587302e-01
   endloop
 endfacet
 facet normal -6.548607e-01  7.557496e-01  0.000000e+00
   outer loop
     vertex  2.549691e-01  1.054211e-01 -1.587302e-02
     vertex  2.549691e-01  1.054211e-01  1.587302e-01
     vertex  2.703757e-01  1.187711e-01  1.587302e-01
   endloop
 endfacet
 facet normal -5.000000e-01  8.660254e-01  0.000000e+00
   outer loop
     vertex  2.549691e-01  1.054211e-01 -1.587302e-02
     vertex  2.373144e-01  9.522819e-02 -1.587302e-02
     vertex  2.373144e-01  9.522819e-02  1.587302e-01
   endloop
 endfacet
 facet normal -6.548607e-01  7.557496e-01  0.000000e+00
   outer loop
     vertex  2.703757e-01  1.187711e-01 -1.587302e-02
     vertex  2.549691e-01  1.054211e-01 -1.587302e-02
     vertex  2.703757e-01  1.187711e-01  1.587302e-01
   endloop
 endfacet
 facet normal -7.860531e-01  6.181590e-01  0.000000e+00
   outer loop
     vertex  2.829775e-01  1.347955e-01 -1.587302e-02
     vertex  2.703757e-01  1.187711e-01  1.587302e-01
     vertex  2.829775e-01  1.347955e-01  1.587302e-01
   endloop
 endfacet
 facet normal -7.860531e-01  6.181590e-01  0.000000e+00
   outer loop
     vertex  2.829775e-01  1.347955e-01 -1.587302e-02
     vertex  2.703757e-01  1.187711e-01 -1.587302e-02
     vertex  2.703757e-01  1.187711e-01  1.587302e-01
   endloop
 endfacet
 facet normal -8.888354e-01  4.582265e-01  0.000000e+00
   outer loop
     vertex  2.923188e-01  1.529152e-01 -1.587302e-02
     vertex  2.829775e-01  1.347955e-01  1.587302e-01
     vertex  2.923188e-01  1.529152e-01  1.587302e-01
   endloop
 endfacet
 facet normal -8.888354e-01  4.582265e-01  0.000000e+00
   outer loop
     vertex  2.923188e-01  1.529152e-01 -1.587302e-02
     vertex  2.829775e-01  1.347955e-01 -1.587302e-02
     vertex  2.829775e-01  1.347955e-01  1.587302e-01
   endloop
 endfacet
 facet normal -9.594930e-01  2.817326e-01  0.000000e+00
   outer loop
     vertex  2.980622e-01  1.724754e-01 -1.587302e-02
     vertex  2.923188e-01  1.529152e-01  1.587302e-01
     vertex  2.980622e-01  1.724754e-01  1.587302e-01
   endloop
 endfacet
 facet normal -9.594930e-01  2.817326e-01  0.000000e+00
   outer loop
     vertex  2.980622e-01  1.724754e-01 -1.587302e-02
     vertex  2.923188e-01  1.529152e-01 -1.587302e-02
     vertex  2.923188e-01  1.529152e-01  1.587302e-01
   endloop
 endfacet
 facet normal -9.954719e-01  9.505604e-02  0.000000e+00
   outer loop
     vertex  3.000000e-01  1.927690e-01 -1.587302e-02
     vertex  2.980622e-01  1.724754e-01 -1.587302e-02
     vertex  2.980622e-01  1.724754e-01  1.587302e-01
   endloop
 endfacet
 facet normal -9.954719e-01  9.505604e-02  0.000000e+00
   outer loop
     vertex  3.000000e-01  1.927690e-01 -1.587302e-02
     vertex  2.980622e-01  1.724754e-01  1.587302e-01
     vertex  3.000000e-01  1.927690e-01  1.587302e-01
   endloop
 endfacet
 facet normal -0.000000e+00  1.000000e+00  0.000000e+00
   outer loop
     vertex -5.555555e-02  4.410935e-01 -1.587302e-02
     vertex  4.410935e-01  4.410935e-01 -1.587302e-02
     vertex  4.410935e-01  4.410935e-01 -3.174603e-02
   endloop
 endfacet
 facet normal  0.000000e+00  1.000000e+00  0.000000e+00
   outer loop
     vertex -5.555555e-02  4.410935e-01 -1.587302e-02
     vertex  4.410935e-01  4.410935e-01 -3.174603e-02
     vertex -5.555555e-02  4.410935e-01 -3.174603e-02
   endloop
 endfacet
 facet normal -9.954719e-01 -9.505604e-02  0.000000e+00
   outer loop
     vertex  2.980622e-01  2.130626e-01 -1.587302e-02
     vertex  3.000000e-01  1.927690e-01 -3.174603e-02
     vertex  3.000000e-01  1.927690e-01 -1.587302e-02
   endloop
 endfacet
 facet normal -9.954719e-01 -9.505604e-02 -0.000000e+00
   outer loop
     vertex  2.980622e-01  2.130626e-01 -1.587302e-02
     vertex  2.980622e-01  2.130626e-01 -3.174603e-02
     vertex  3.000000e-01  1.927690e-01 -3.174603e-02
   endloop
 endfacet
 facet normal -9.594930e-01 -2.817326e-01 -0.000000e+00
   outer loop
     vertex  2.923188e-01  2.326227e-01 -1.587302e-02
     vertex  2.923188e-01  2.326227e-01 -3.174603e-02
     vertex  2.980622e-01  2.130626e-01 -3.174603e-02
   endloop
 endfacet
 facet normal -9.594930e-01 -2.817326e-01  0.000000e+00
   outer loop
     vertex  2.923188e-01  2.326227e-01 -1.587302e-02
     vertex  2.980622e-01  2.130626e-01 -3.174603e-02
     vertex  2.980622e-01  2.130626e-01 -1.587302e-02
   endloop
 endfacet
 facet normal -8.888354e-01 -4.582265e-01 -0.000000e+00
   outer loop
     vertex  2.829775e-01  2.507425e-01 -1.587302e-02
     vertex  2.829775e-01  2.507425e-01 -3.174603e-02
     vertex  2.923188e-01  2.326227e-01 -3.174603e-02
   endloop
 endfacet
 facet normal -8.888354e-01 -4.582265e-01  0.000000e+00
   outer loop
     vertex  2.829775e-01  2.507425e-01 -1.587302e-02
     vertex  2.923188e-01  2.326227e-01 -3.174603e-02
     vertex  2.923188e-01  2.326227e-01 -1.587302e-02
   endloop
 endfacet
 facet normal -7.860531e-01 -6.181590e-01 -0.000000e+00
   outer loop
     vertex  2.703757e-01  2.667669e-01 -1.587302e-02
     vertex  2.703757e-01  2.667669e-01 -3.174603e-02
     vertex  2.829775e-01  2.507425e-01 -3.174603e-02
   endloop
 endfacet
 facet normal -7.860531e-01 -6.181590e-01  0.000000e+00
   outer loop
     vertex  2.703757e-01  2.667669e-01 -1.587302e-02
     vertex  2.829775e-01  2.507425e-01 -3.174603e-02
     vertex  2.829775e-01  2.507425e-01 -1.587302e-02
   endloop
 endfacet
 facet normal -6.548607e-01 -7.557496e-01 -0.000000e+00
   outer loop
     vertex  2.549691e-01  2.801168e-01 -1.587302e-02
     vertex  2.549691e-01  2.801168e-01 -3.174603e-02
     vertex  2.703757e-01  2.667669e-01 -3.174603e-02
   endloop
 endfacet
 facet normal -6.548607e-01 -7.557496e-01  0.000000e+00
   outer loop
     vertex  2.549691e-01  2.801168e-01 -1.587302e-02
     vertex  2.703757e-01  2.667669e-01 -3.174603e-02
     vertex  2.703757e-01  2.667669e-01 -1.587302e-02
   endloop
 endfacet
 facet normal -5.000000e-01 -8.660254e-01 -0.000000e+00
   outer loop
     vertex  2.373144e-01  2.903098e-01 -1.587302e-02
     vertex  2.373144e-01  2.903098e-01 -3.174603e-02
     vertex  2.549691e-01  2.801168e-01 -3.174603e-02
   endloop
 endfacet
 facet normal -5.000000e-01 -8.660254e-01  0.000000e+00
   outer loop
     vertex  2.373144e-01  2.903098e-01 -1.587302e-02
     vertex  2.549691e-01  2.801168e-01 -3.174603e-02
     vertex  2.549691e-01  2.801168e-01 -1.587302e-02
   endloop
 endfacet
 facet normal -3.270680e-01 -9.450008e-01 -0.000000e+00
   outer loop
     vertex  2.180497e-01  2.969773e-01 -1.587302e-02
     vertex  2.180497e-01  2.969773e-01 -3.174603e-02
     vertex  2.373144e-01  2.903098e-01 -3.174603e-02
   endloop
 endfacet
 facet normal -3.270680e-01 -9.450008e-01  0.000000e+00
   outer loop
     vertex  2.180497e-01  2.969773e-01 -1.587302e-02
     vertex  2.373144e-01  2.903098e-01 -3.174603e-02
     vertex  2.373144e-01  2.903098e-01 -1.587302e-02
   endloop
 endfacet
 facet normal -1.423148e-01 -9.898214e-01  0.000000e+00
   outer loop
     vertex  1.978712e-01  2.998786e-01 -1.587302e-02
     vertex  2.180497e-01  2.969773e-01 -3.174603e-02
     vertex  2.180497e-01  2.969773e-01 -1.587302e-02
   endloop
 endfacet
 facet normal -1.423148e-01 -9.898214e-01 -0.000000e+00
   outer loop
     vertex  1.978712e-01  2.998786e-01 -1.587302e-02
     vertex  1.978712e-01  2.998786e-01 -3.174603e-02
     vertex  2.180497e-01  2.969773e-01 -3.174603e-02
   endloop
 endfacet
 facet normal  4.758192e-02 -9.988673e-01  0.000000e+00
   outer loop
     vertex  1.775084e-01  2.989086e-01 -1.587302e-02
     vertex  1.978712e-01  2.998786e-01 -3.174603e-02
     vertex  1.978712e-01  2.998786e-01 -1.587302e-02
   endloop
 endfacet
 facet normal  4.758192e-02 -9.988673e-01  0.000000e+00
   outer loop
     vertex  1.775084e-01  2.989086e-01 -1.587302e-02
     vertex  1.775084e-01  2.989086e-01 -3.174603e-02
     vertex  1.978712e-01  2.998786e-01 -3.174603e-02
   endloop
 endfacet
 facet normal  2.357589e-01 -9.718116e-01  0.000000e+00
   outer loop
     vertex  1.576971e-01  2.941024e-01 -1.587302e-02
     vertex  1.576971e-01  2.941024e-01 -3.174603e-02
     vertex  1.775084e-01  2.989086e-01 -3.174603e-02
   endloop
 endfacet
 facet normal  2.357589e-01 -9.718116e-01  0.000000e+00
   outer loop
     vertex  1.576971e-01  2.941024e-01 -1.587302e-02
     vertex  1.775084e-01  2.989086e-01 -3.174603e-02
     vertex  1.775084e-01  2.989086e-01 -1.587302e-02
   endloop
 endfacet
 facet normal  4.154150e-01 -9.096320e-01  0.000000e+00
   outer loop
     vertex  1.391535e-01  2.856338e-01 -1.587302e-02
     vertex  1.391535e-01  2.856338e-01 -3.174603e-02
     vertex  1.576971e-01  2.941024e-01 -3.174603e-02
   endloop
 endfacet
 facet normal  4.154150e-01 -9.096320e-01  0.000000e+00
   outer loop
     vertex  1.391535e-01  2.856338e-01 -1.587302e-02
     vertex  1.576971e-01  2.941024e-01 -3.174603e-02
     vertex  1.576971e-01  2.941024e-01 -1.587302e-02
   endloop
 endfacet
 facet normal  5.800569e-01 -8.145760e-01  0.000000e+00
   outer loop
     vertex  1.225476e-01  2.738088e-01 -1.587302e-02
     vertex  1.225476e-01  2.738088e-01 -3.174603e-02
     vertex  1.391535e-01  2.856338e-01 -3.174603e-02
   endloop
 endfacet
 facet normal  5.800569e-01 -8.145760e-01  0.000000e+00
   outer loop
     vertex  1.225476e-01  2.738088e-01 -1.587302e-02
     vertex  1.391535e-01  2.856338e-01 -3.174603e-02
     vertex  1.391535e-01  2.856338e-01 -1.587302e-02
   endloop
 endfacet
 facet normal  7.237340e-01 -6.900790e-01  0.000000e+00
   outer loop
     vertex  1.084797e-01  2.590548e-01 -1.587302e-02
     vertex  1.084797e-01  2.590548e-01 -3.174603e-02
     vertex  1.225476e-01  2.738088e-01 -3.174603e-02
   endloop
 endfacet
 facet normal  7.237340e-01 -6.900790e-01  0.000000e+00
   outer loop
     vertex  1.084797e-01  2.590548e-01 -1.587302e-02
     vertex  1.225476e-01  2.738088e-01 -3.174603e-02
     vertex  1.225476e-01  2.738088e-01 -1.587302e-02
   endloop
 endfacet
 facet normal  8.412535e-01 -5.406408e-01  0.000000e+00
   outer loop
     vertex  9.745822e-02  2.419051e-01 -1.587302e-02
     vertex  9.745822e-02  2.419051e-01 -3.174603e-02
     vertex  1.084797e-01  2.590548e-01 -3.174603e-02
   endloop
 endfacet
 facet normal  8.412535e-01 -5.406408e-01  0.000000e+00
   outer loop
     vertex  9.745822e-02  2.419051e-01 -1.587302e-02
     vertex  1.084797e-01  2.590548e-01 -3.174603e-02
     vertex  1.084797e-01  2.590548e-01 -1.587302e-02
   endloop
 endfacet
 facet normal  9.283679e-01 -3.716625e-01  0.000000e+00
   outer loop
     vertex  8.988154e-02  2.229795e-01 -1.587302e-02
     vertex  8.988154e-02  2.229795e-01 -3.174603e-02
     vertex  9.745822e-02  2.419051e-01 -3.174603e-02
   endloop
 endfacet
 facet normal  9.283679e-01 -3.716625e-01  0.000000e+00
   outer loop
     vertex  8.988154e-02  2.229795e-01 -1.587302e-02
     vertex  9.745822e-02  2.419051e-01 -3.174603e-02
     vertex  9.745822e-02  2.419051e-01 -1.587302e-02
   endloop
 endfacet
 facet normal  9.819287e-01 -1.892512e-01  0.000000e+00
   outer loop
     vertex  8.602348e-02  2.029619e-01 -1.587302e-02
     vertex  8.602348e-02  2.029619e-01 -3.174603e-02
     vertex  8.988154e-02  2.229795e-01 -3.174603e-02
   endloop
 endfacet
 facet normal  9.819287e-01 -1.892512e-01  0.000000e+00
   outer loop
     vertex  8.602348e-02  2.029619e-01 -1.587302e-02
     vertex  8.988154e-02  2.229795e-01 -3.174603e-02
     vertex  8.988154e-02  2.229795e-01 -1.587302e-02
   endloop
 endfacet
 facet normal  1.000000e+00  6.807536e-16  0.000000e+00
   outer loop
     vertex  8.602348e-02  1.825760e-01 -1.587302e-02
     vertex  8.602348e-02  1.825760e-01 -3.174603e-02
     vertex  8.602348e-02  2.029619e-01 -3.174603e-02
   endloop
 endfacet
 facet normal  1.000000e+00  6.807536e-16  0.000000e+00
   outer loop
     vertex  8.602348e-02  1.825760e-01 -1.587302e-02
     vertex  8.602348e-02  2.029619e-01 -3.174603e-02
     vertex  8.602348e-02  2.029619e-01 -1.587302e-02
   endloop
 endfacet
 facet normal  9.819287e-01  1.892512e-01  0.000000e+00
   outer loop
     vertex  8.988154e-02  1.625585e-01 -1.587302e-02
     vertex  8.988154e-02  1.625585e-01 -3.174603e-02
     vertex  8.602348e-02  1.825760e-01 -3.174603e-02
   endloop
 endfacet
 facet normal  9.819287e-01  1.892512e-01  0.000000e+00
   outer loop
     vertex  8.988154e-02  1.625585e-01 -1.587302e-02
     vertex  8.602348e-02  1.825760e-01 -3.174603e-02
     vertex  8.602348e-02  1.825760e-01 -1.587302e-02
   endloop
 endfacet
 facet normal  9.283679e-01  3.716625e-01  0.000000e+00
   outer loop
     vertex  9.745822e-02  1.436329e-01 -1.587302e-02
     vertex  9.745822e-02  1.436329e-01 -3.174603e-02
     vertex  8.988154e-02  1.625585e-01 -3.174603e-02
   endloop
 endfacet
 facet normal  9.283679e-01  3.716625e-01  0.000000e+00
   outer loop
     vertex  9.745822e-02  1.436329e-01 -1.587302e-02
     vertex  8.988154e-02  1.625585e-01 -3.174603e-02
     vertex  8.988154e-02  1.625585e-01 -1.587302e-02
   endloop
 endfacet
 facet normal  8.412535e-01  5.406408e-01  0.000000e+00
   outer loop
     vertex  1.084797e-01  1.264831e-01 -1.587302e-02
     vertex  1.084797e-01  1.264831e-01 -3.174603e-02
     vertex  9.745822e-02  1.436329e-01 -3.174603e-02
   endloop
 endfacet
 facet normal  8.412535e-01  5.406408e-01  0.000000e+00
   outer loop
     vertex  1.084797e-01  1.264831e-01 -1.587302e-02
     vertex  9.745822e-02  1.436329e-01 -3.174603e-02
     vertex  9.745822e-02  1.436329e-01 -1.587302e-02
   endloop
 endfacet
 facet normal  7.237340e-01  6.900790e-01  0.000000e+00
   outer loop
     vertex  1.225476e-01  1.117292e-01 -1.587302e-02
     vertex  1.225476e-01  1.117292e-01 -3.174603e-02
     vertex  1.084797e-01  1.264831e-01 -3.174603e-02
   endloop
 endfacet
 facet normal  7.237340e-01  6.900790e-01  0.000000e+00
   outer loop
     vertex  1.225476e-01  1.117292e-01 -1.587302e-02
     vertex  1.084797e-01  1.264831e-01 -3.174603e-02
     vertex  1.084797e-01  1.264831e-01 -1.587302e-02
   endloop
 endfacet
 facet normal  5.800569e-01  8.145760e-01  0.000000e+00
   outer loop
     vertex  1.391535e-01  9.990417e-02 -1.587302e-02
     vertex  1.391535e-01  9.990417e-02 -3.174603e-02
     vertex  1.225476e-01  1.117292e-01 -3.174603e-02
   endloop
 endfacet
 facet normal  5.800569e-01  8.145760e-01  0.000000e+00
   outer loop
     vertex  1.391535e-01  9.990417e-02 -1.587302e-02
     vertex  1.225476e-01  1.117292e-01 -3.174603e-02
     vertex  1.225476e-01  1.117292e-01 -1.587302e-02
   endloop
 endfacet
 facet normal  4.154150e-01  9.096320e-01  0.000000e+00
   outer loop
     vertex  1.576971e-01  9.143555e-02 -1.587302e-02
     vertex  1.576971e-01  9.143555e-02 -3.174603e-02
     vertex  1.391535e-01  9.990417e-02 -3.174603e-02
   endloop
 endfacet
 facet normal  4.154150e-01  9.096320e-01  0.000000e+00
   outer loop
     vertex  1.576971e-01  9.143555e-02 -1.587302e-02
     vertex  1.391535e-01  9.990417e-02 -3.174603e-02
     vertex  1.391535e-01  9.990417e-02 -1.587302e-02
   endloop
 endfacet
 facet normal  2.357589e-01  9.718116e-01  0.000000e+00
   outer loop
     vertex  1.775084e-01  8.662939e-02 -1.587302e-02
     vertex  1.775084e-01  8.662939e-02 -3.174603e-02
     vertex  1.576971e-01  9.143555e-02 -3.174603e-02
   endloop
 endfacet
 facet normal  2.357589e-01  9.718116e-01  0.000000e+00
   outer loop
     vertex  1.775084e-01  8.662939e-02 -1.587302e-02
     vertex  1.576971e-01  9.143555e-02 -3.174603e-02
     vertex  1.576971e-01  9.143555e-02 -1.587302e-02
   endloop
 endfacet
 facet normal  4.758192e-02  9.988673e-01  0.000000e+00
   outer loop
     vertex  1.978712e-01  8.565939e-02 -1.587302e-02
     vertex  1.978712e-01  8.565939e-02 -3.174603e-02
     vertex  1.775084e-01  8.662939e-02 -3.174603e-02
   endloop
 endfacet
 facet normal  4.758192e-02  9.988673e-01  0.000000e+00
   outer loop
     vertex  1.978712e-01  8.565939e-02 -1.587302e-02
     vertex  1.775084e-01  8.662939e-02 -3.174603e-02
     vertex  1.775084e-01  8.662939e-02 -1.587302e-02
   endloop
 endfacet
 facet normal -1.423148e-01  9.898214e-01  0.000000e+00
   outer loop
     vertex  2.180497e-01  8.856061e-02 -1.587302e-02
     vertex  2.180497e-01  8.856061e-02 -3.174603e-02
     vertex  1.978712e-01  8.565939e-02 -3.174603e-02
   endloop
 endfacet
 facet normal -1.423148e-01  9.898214e-01  0.000000e+00
   outer loop
     vertex  2.180497e-01  8.856061e-02 -1.587302e-02
     vertex  1.978712e-01  8.565939e-02 -3.174603e-02
     vertex  1.978712e-01  8.565939e-02 -1.587302e-02
   endloop
 endfacet
 facet normal -3.270680e-01  9.450008e-01  0.000000e+00
   outer loop
     vertex  2.373144e-01  9.522819e-02 -1.587302e-02
     vertex  2.373144e-01  9.522819e-02 -3.174603e-02
     vertex  2.180497e-01  8.856061e-02 -3.174603e-02
   endloop
 endfacet
 facet normal -3.270680e-01  9.450008e-01  0.000000e+00
   outer loop
     vertex  2.373144e-01  9.522819e-02 -1.587302e-02
     vertex  2.180497e-01  8.856061e-02 -3.174603e-02
     vertex  2.180497e-01  8.856061e-02 -1.587302e-02
   endloop
 endfacet
 facet normal -5.000000e-01  8.660254e-01  0.000000e+00
   outer loop
     vertex  2.549691e-01  1.054211e-01 -1.587302e-02
     vertex  2.549691e-01  1.054211e-01 -3.174603e-02
     vertex  2.373144e-01  9.522819e-02 -3.174603e-02
   endloop
 endfacet
 facet normal -5.000000e-01  8.660254e-01  0.000000e+00
   outer loop
     vertex  2.549691e-01  1.054211e-01 -1.587302e-02
     vertex  2.373144e-01  9.522819e-02 -3.174603e-02
     vertex  2.373144e-01  9.522819e-02 -1.587302e-02
   endloop
 endfacet
 facet normal -6.548607e-01  7.557496e-01  0.000000e+00
   outer loop
     vertex  2.703757e-01  1.187711e-01 -1.587302e-02
     vertex  2.703757e-01  1.187711e-01 -3.174603e-02
     vertex  2.549691e-01  1.054211e-01 -3.174603e-02
   endloop
 endfacet
 facet normal -6.548607e-01  7.557496e-01  0.000000e+00
   outer loop
     vertex  2.703757e-01  1.187711e-01 -1.587302e-02
     vertex  2.549691e-01  1.054211e-01 -3.174603e-02
     vertex  2.549691e-01  1.054211e-01 -1.587302e-02
   endloop
 endfacet
 facet normal -7.860531e-01  6.181590e-01  0.000000e+00
   outer loop
     vertex  2.829775e-01  1.347955e-01 -1.587302e-02
     vertex  2.829775e-01  1.347955e-01 -3.174603e-02
     vertex  2.703757e-01  1.187711e-01 -3.174603e-02
   endloop
 endfacet
 facet normal -7.860531e-01  6.181590e-01  0.000000e+00
   outer loop
     vertex  2.829775e-01  1.347955e-01 -1.587302e-02
     vertex  2.703757e-01  1.187711e-01 -3.174603e-02
     vertex  2.703757e-01  1.187711e-01 -1.587302e-02
   endloop
 endfacet
 facet normal -8.888354e-01  4.582265e-01  0.000000e+00
   outer loop
     vertex  2.923188e-01  1.529152e-01 -1.587302e-02
     vertex  2.923188e-01  1.529152e-01 -3.174603e-02
     vertex  2.829775e-01  1.347955e-01 -3.174603e-02
   endloop
 endfacet
 facet normal -8.888354e-01  4.582265e-01  0.000000e+00
   outer loop
     vertex  2.923188e-01  1.529152e-01 -1.587302e-02
     vertex  2.829775e-01  1.347955e-01 -3.174603e-02
     vertex  2.829775e-01  1.347955e-01 -1.587302e-02
   endloop
 endfacet
 facet normal -9.594930e-01  2.817326e-01  0.000000e+00
   outer loop
     vertex  2.980622e-01  1.724754e-01 -1.587302e-02
     vertex  2.980622e-01  1.724754e-01 -3.174603e-02
     vertex  2.923188e-01  1.529152e-01 -3.174603e-02
   endloop
 endfacet
 facet normal -9.594930e-01  2.817326e-01  0.000000e+00
   outer loop
     vertex  2.980622e-01  1.724754e-01 -1.587302e-02
     vertex  2.923188e-01  1.529152e-01 -3.174603e-02
     vertex  2.923188e-01  1.529152e-01 -1.587302e-02
   endloop
 endfacet
 facet normal -9.954719e-01  9.505604e-02  0.000000e+00
   outer loop
     vertex  3.000000e-01  1.927690e-01 -1.587302e-02
     vertex  2.980622e-01  1.724754e-01 -3.174603e-02
     vertex  2.980622e-01  1.724754e-01 -1.587302e-02
   endloop
 endfacet
 facet normal -9.954719e-01  9.505604e-02  0.000000e+00
   outer loop
     vertex  3.000000e-01  1.927690e-01 -1.587302e-02
     vertex  3.000000e-01  1.927690e-01 -3.174603e-02
     vertex  2.980622e-01  1.724754e-01 -3.174603e-02
   endloop
 endfacet
 facet normal  9.937122e-01  1.119645e-01  0.000000e+00
   outer loop
     vertex  2.723048e-01  2.139170e-01 -1.587302e-02
     vertex  2.742505e-01  1.966490e-01  9.841270e-01
     vertex  2.742505e-01  1.966490e-01 -1.587302e-02
   endloop
 endfacet
 facet normal  9.937122e-01  1.119645e-01 -0.000000e+00
   outer loop
     vertex  2.723048e-01  2.139170e-01 -1.587302e-02
     vertex  2.723048e-01  2.139170e-01  9.841270e-01
     vertex  2.742505e-01  1.966490e-01  9.841270e-01
   endloop
 endfacet
 facet normal  9.438833e-01  3.302791e-01 -0.000000e+00
   outer loop
     vertex  2.665655e-01  2.303190e-01 -1.587302e-02
     vertex  2.665655e-01  2.303190e-01  9.841270e-01
     vertex  2.723048e-01  2.139170e-01  9.841270e-01
   endloop
 endfacet
 facet normal  9.438833e-01  3.302791e-01  0.000000e+00
   outer loop
     vertex  2.665655e-01  2.303190e-01 -1.587302e-02
     vertex  2.723048e-01  2.139170e-01  9.841270e-01
     vertex  2.723048e-01  2.139170e-01 -1.587302e-02
   endloop
 endfacet
 facet normal  8.467242e-01  5.320321e-01 -0.000000e+00
   outer loop
     vertex  2.573203e-01  2.450327e-01 -1.587302e-02
     vertex  2.573203e-01  2.450327e-01  9.841270e-01
     vertex  2.665655e-01  2.303190e-01  9.841270e-01
   endloop
 endfacet
 facet normal  8.467242e-01  5.320321e-01  0.000000e+00
   outer loop
     vertex  2.573203e-01  2.450327e-01 -1.587302e-02
     vertex  2.665655e-01  2.303190e-01  9.841270e-01
     vertex  2.665655e-01  2.303190e-01 -1.587302e-02
   endloop
 endfacet
 facet normal  7.071068e-01  7.071068e-01 -0.000000e+00
   outer loop
     vertex  2.450327e-01  2.573203e-01 -1.587302e-02
     vertex  2.450327e-01  2.573203e-01  9.841270e-01
     vertex  2.573203e-01  2.450327e-01  9.841270e-01
   endloop
 endfacet
 facet normal  7.071068e-01  7.071068e-01  0.000000e+00
   outer loop
     vertex  2.450327e-01  2.573203e-01 -1.587302e-02
     vertex  2.573203e-01  2.450327e-01  9.841270e-01
     vertex  2.573203e-01  2.450327e-01 -1.587302e-02
   endloop
 endfacet
 facet normal  5.320321e-01  8.467242e-01 -0.000000e+00
   outer loop
     vertex  2.303190e-01  2.665655e-01 -1.587302e-02
     vertex  2.303190e-01  2.665655e-01  9.841270e-01
     vertex  2.450327e-01  2.573203e-01  9.841270e-01
   endloop
 endfacet
 facet normal  5.320321e-01  8.467242e-01  0.000000e+00
   outer loop
     vertex  2.303190e-01  2.665655e-01 -1.587302e-02
     vertex  2.450327e-01  2.573203e-01  9.841270e-01
     vertex  2.450327e-01  2.573203e-01 -1.587302e-02
   endloop
 endfacet
 facet normal  3.302791e-01  9.438833e-01 -0.000000e+00
   outer loop
     vertex  2.139170e-01  2.723048e-01 -1.587302e-02
     vertex  2.139170e-01  2.723048e-01  9.841270e-01
     vertex  2.303190e-01  2.665655e-01  9.841270e-01
   endloop
 endfacet
 facet normal  3.302791e-01  9.438833e-01  0.000000e+00
   outer loop
     vertex  2.139170e-01  2.723048e-01 -1.587302e-02
     vertex  2.303190e-01  2.665655e-01  9.841270e-01
     vertex  2.303190e-01  2.665655e-01 -1.587302e-02
   endloop
 endfacet
 facet normal  1.119645e-01  9.937122e-01 -0.000000e+00
   outer loop
     vertex  1.966490e-01  2.742505e-01 -1.587302e-02
     vertex  1.966490e-01  2.742505e-01  9.841270e-01
     vertex  2.139170e-01  2.723048e-01  9.841270e-01
   endloop
 endfacet
 facet normal  1.119645e-01  9.937122e-01  0.000000e+00
   outer loop
     vertex  1.966490e-01  2.742505e-01 -1.587302e-02
     vertex  2.139170e-01  2.723048e-01  9.841270e-01
     vertex  2.139170e-01  2.723048e-01 -1.587302e-02
   endloop
 endfacet
 facet normal -1.119645e-01  9.937122e-01  0.000000e+00
   outer loop
     vertex  1.793811e-01  2.723048e-01 -1.587302e-02
     vertex  1.793811e-01  2.723048e-01  9.841270e-01
     vertex  1.966490e-01  2.742505e-01  9.841270e-01
   endloop
 endfacet
 facet normal -1.119645e-01  9.937122e-01  0.000000e+00
   outer loop
     vertex  1.793811e-01  2.723048e-01 -1.587302e-02
     vertex  1.966490e-01  2.742505e-01  9.841270e-01
     vertex  1.966490e-01  2.742505e-01 -1.587302e-02
   endloop
 endfacet
 facet normal -3.302791e-01  9.438833e-01  0.000000e+00
   outer loop
     vertex  1.629791e-01  2.665655e-01 -1.587302e-02
     vertex  1.629791e-01  2.665655e-01  9.841270e-01
     vertex  1.793811e-01  2.723048e-01  9.841270e-01
   endloop
 endfacet
 facet normal -3.302791e-01  9.438833e-01  0.000000e+00
   outer loop
     vertex  1.629791e-01  2.665655e-01 -1.587302e-02
     vertex  1.793811e-01  2.723048e-01  9.841270e-01
     vertex  1.793811e-01  2.723048e-01 -1.587302e-02
   endloop
 endfacet
 facet normal -5.320321e-01  8.467242e-01  0.000000e+00
   outer loop
     vertex  1.482654e-01  2.573203e-01 -1.587302e-02
     vertex  1.629791e-01  2.665655e-01  9.841270e-01
     vertex  1.629791e-01  2.665655e-01 -1.587302e-02
   endloop
 endfacet
 facet normal -5.320321e-01  8.467242e-01  0.000000e+00
   outer loop
     vertex  1.482654e-01  2.573203e-01 -1.587302e-02
     vertex  1.482654e-01  2.573203e-01  9.841270e-01
     vertex  1.629791e-01  2.665655e-01  9.841270e-01
   endloop
 endfacet
 facet normal -7.071068e-01  7.071068e-01  0.000000e+00
   outer loop
     vertex  1.359778e-01  2.450327e-01 -1.587302e-02
     vertex  1.482654e-01  2.573203e-01  9.841270e-01
     vertex  1.482654e-01  2.573203e-01 -1.587302e-02
   endloop
 endfacet
 facet normal -7.071068e-01  7.071068e-01  0.000000e+00
   outer loop
     vertex  1.359778e-01  2.450327e-01 -1.587302e-02
     vertex  1.359778e-01  2.450327e-01  9.841270e-01
     vertex  1.482654e-01  2.573203e-01  9.841270e-01
   endloop
 endfacet
 facet normal -8.467242e-01  5.320321e-01  0.000000e+00
   outer loop
     vertex  1.267326e-01  2.303190e-01 -1.587302e-02
     vertex  1.359778e-01  2.450327e-01  9.841270e-01
     vertex  1.359778e-01  2.450327e-01 -1.587302e-02
   endloop
 endfacet
 facet normal -8.467242e-01  5.320321e-01  0.000000e+00
   outer loop
     vertex  1.267326e-01  2.303190e-01 -1.587302e-02
     vertex  1.267326e-01  2.303190e-01  9.841270e-01
     vertex  1.359778e-01  2.450327e-01  9.841270e-01
   endloop
 endfacet
 facet normal -9.438833e-01  3.302791e-01  0.000000e+00
   outer loop
     vertex  1.209933e-01  2.139170e-01 -1.587302e-02
     vertex  1.209933e-01  2.139170e-01  9.841270e-01
     vertex  1.267326e-01  2.303190e-01  9.841270e-01
   endloop
 endfacet
 facet normal -9.438833e-01  3.302791e-01  0.000000e+00
   outer loop
     vertex  1.209933e-01  2.139170e-01 -1.587302e-02
     vertex  1.267326e-01  2.303190e-01  9.841270e-01
     vertex  1.267326e-01  2.303190e-01 -1.587302e-02
   endloop
 endfacet
 facet normal -9.937122e-01  1.119645e-01  0.000000e+00
   outer loop
     vertex  1.190476e-01  1.966490e-01 -1.587302e-02
     vertex  1.190476e-01  1.966490e-01  9.841270e-01
     vertex  1.209933e-01  2.139170e-01  9.841270e-01
   endloop
 endfacet
 facet normal -9.937122e-01  1.119645e-01  0.000000e+00
   outer loop
     vertex  1.190476e-01  1.966490e-01 -1.587302e-02
     vertex  1.209933e-01  2.139170e-01  9.841270e-01
     vertex  1.209933e-01  2.139170e-01 -1.587302e-02
   endloop
 endfacet
 facet normal -9.937122e-01 -1.119645e-01  0.000000e+00
   outer loop
     vertex  1.209933e-01  1.793811e-01 -1.587302e-02
     vertex  1.209933e-01  1.793811e-01  9.841270e-01
     vertex  1.190476e-01  1.966490e-01  9.841270e-01
   endloop
 endfacet
 facet normal -9.937122e-01 -1.119645e-01  0.000000e+00
   outer loop
     vertex  1.209933e-01  1.793811e-01 -1.587302e-02
     vertex  1.190476e-01  1.966490e-01  9.841270e-01
     vertex  1.190476e-01  1.966490e-01 -1.587302e-02
   endloop
 endfacet
 facet normal -9.438833e-01 -3.302791e-01  0.000000e+00
   outer loop
     vertex  1.267326e-01  1.629791e-01 -1.587302e-02
     vertex  1.209933e-01  1.793811e-01  9.841270e-01
     vertex  1.209933e-01  1.793811e-01 -1.587302e-02
   endloop
 endfacet
 facet normal -9.438833e-01 -3.302791e-01  0.000000e+00
   outer loop
     vertex  1.267326e-01  1.629791e-01 -1.587302e-02
     vertex  1.267326e-01  1.629791e-01  9.841270e-01
     vertex  1.209933e-01  1.793811e-01  9.841270e-01
   endloop
 endfacet
 facet normal -8.467242e-01 -5.320321e-01  0.000000e+00
   outer loop
     vertex  1.359778e-01  1.482654e-01 -1.587302e-02
     vertex  1.359778e-01  1.482654e-01  9.841270e-01
     vertex  1.267326e-01  1.629791e-01  9.841270e-01
   endloop
 endfacet
 facet normal -8.467242e-01 -5.320321e-01  0.000000e+00
   outer loop
     vertex  1.359778e-01  1.482654e-01 -1.587302e-02
     vertex  1.267326e-01  1.629791e-01  9.841270e-01
     vertex  1.267326e-01  1.629791e-01 -1.587302e-02
   endloop
 endfacet
 facet normal -7.071068e-01 -7.071068e-01  0.000000e+00
   outer loop
     vertex  1.482654e-01  1.359778e-01 -1.587302e-02
     vertex  1.482654e-01  1.359778e-01  9.841270e-01
     vertex  1.359778e-01  1.482654e-01  9.841270e-01
   endloop
 endfacet
 facet normal -7.071068e-01 -7.071068e-01  0.000000e+00
   outer loop
     vertex  1.482654e-01  1.359778e-01 -1.587302e-02
     vertex  1.359778e-01  1.482654e-01  9.841270e-01
     vertex  1.359778e-01  1.482654e-01 -1.587302e-02
   endloop
 endfacet
 facet normal -5.320321e-01 -8.467242e-01  0.000000e+00
   outer loop
     vertex  1.629791e-01  1.267326e-01 -1.587302e-02
     vertex  1.629791e-01  1.267326e-01  9.841270e-01
     vertex  1.482654e-01  1.359778e-01  9.841270e-01
   endloop
 endfacet
 facet normal -5.320321e-01 -8.467242e-01  0.000000e+00
   outer loop
     vertex  1.629791e-01  1.267326e-01 -1.587302e-02
     vertex  1.482654e-01  1.359778e-01  9.841270e-01
     vertex  1.482654e-01  1.359778e-01 -1.587302e-02
   endloop
 endfacet
 facet normal -3.302791e-01 -9.438833e-01  0.000000e+00
   outer loop
     vertex  1.793811e-01  1.209933e-01 -1.587302e-02
     vertex  1.793811e-01  1.209933e-01  9.841270e-01
     vertex  1.629791e-01  1.267326e-01  9.841270e-01
   endloop
 endfacet
 facet normal -3.302791e-01 -9.438833e-01  0.000000e+00
   outer loop
     vertex  1.793811e-01  1.209933e-01 -1.587302e-02
     vertex  1.629791e-01  1.267326e-01  9.841270e-01
     vertex  1.629791e-01  1.267326e-01 -1.587302e-02
   endloop
 endfacet
 facet normal -1.119645e-01 -9.937122e-01  0.000000e+00
   outer loop
     vertex  1.966490e-01  1.190476e-01 -1.587302e-02
     vertex  1.966490e-01  1.190476e-01  9.841270e-01
     vertex  1.793811e-01  1.209933e-01  9.841270e-01
   endloop
 endfacet
 facet normal -1.119645e-01 -9.937122e-01  0.000000e+00
   outer loop
     vertex  1.966490e-01  1.190476e-01 -1.587302e-02
     vertex  1.793811e-01  1.209933e-01  9.841270e-01
     vertex  1.793811e-01  1.209933e-01 -1.587302e-02
   endloop
 endfacet
 facet normal  1.119645e-01 -9.937122e-01  0.000000e+00
   outer loop
     vertex  2.139170e-01  1.209933e-01 -1.587302e-02
     vertex  2.139170e-01  1.209933e-01  9.841270e-01
     vertex  1.966490e-01  1.190476e-01  9.841270e-01
   endloop
 endfacet
 facet normal  1.119645e-01 -9.937122e-01  0.000000e+00
   outer loop
     vertex  2.139170e-01  1.209933e-01 -1.587302e-02
     vertex  1.966490e-01  1.190476e-01  9.841270e-01
     vertex  1.966490e-01  1.190476e-01 -1.587302e-02
   endloop
 endfacet
 facet normal  3.302791e-01 -9.438833e-01  0.000000e+00
   outer loop
     vertex  2.303190e-01  1.267326e-01 -1.587302e-02
     vertex  2.303190e-01  1.267326e-01  9.841270e-01
     vertex  2.139170e-01  1.209933e-01  9.841270e-01
   endloop
 endfacet
 facet normal  3.302791e-01 -9.438833e-01  0.000000e+00
   outer loop
     vertex  2.303190e-01  1.267326e-01 -1.587302e-02
     vertex  2.139170e-01  1.209933e-01  9.841270e-01
     vertex  2.139170e-01  1.209933e-01 -1.587302e-02
   endloop
 endfacet
 facet normal  5.320321e-01 -8.467242e-01  0.000000e+00
   outer loop
     vertex  2.450327e-01  1.359778e-01 -1.587302e-02
     vertex  2.450327e-01  1.359778e-01  9.841270e-01
     vertex  2.303190e-01  1.267326e-01  9.841270e-01
   endloop
 endfacet
 facet normal  5.320321e-01 -8.467242e-01  0.000000e+00
   outer loop
     vertex  2.450327e-01  1.359778e-01 -1.587302e-02
     vertex  2.303190e-01  1.267326e-01  9.841270e-01
     vertex  2.303190e-01  1.267326e-01 -1.587302e-02
   endloop
 endfacet
 facet normal  7.071068e-01 -7.071068e-01  0.000000e+00
   outer loop
     vertex  2.573203e-01  1.482654e-01 -1.587302e-02
     vertex  2.573203e-01  1.482654e-01  9.841270e-01
     vertex  2.450327e-01  1.359778e-01  9.841270e-01
   endloop
 endfacet
 facet normal  7.071068e-01 -7.071068e-01  0.000000e+00
   outer loop
     vertex  2.573203e-01  1.482654e-01 -1.587302e-02
     vertex  2.450327e-01  1.359778e-01  9.841270e-01
     vertex  2.450327e-01  1.359778e-01 -1.587302e-02
   endloop
 endfacet
 facet normal  8.467242e-01 -5.320321e-01  0.000000e+00
   outer loop
     vertex  2.665655e-01  1.629791e-01 -1.587302e-02
     vertex  2.665655e-01  1.629791e-01  9.841270e-01
     vertex  2.573203e-01  1.482654e-01  9.841270e-01
   endloop
 endfacet
 facet normal  8.467242e-01 -5.320321e-01  0.000000e+00
   outer loop
     vertex  2.665655e-01  1.629791e-01 -1.587302e-02
     vertex  2.573203e-01  1.482654e-01  9.841270e-01
     vertex  2.573203e-01  1.482654e-01 -1.587302e-02
   endloop
 endfacet
 facet normal  9.438833e-01 -3.302791e-01  0.000000e+00
   outer loop
     vertex  2.723048e-01  1.793811e-01 -1.587302e-02
     vertex  2.723048e-01  1.793811e-01  9.841270e-01
     vertex  2.665655e-01  1.629791e-01  9.841270e-01
   endloop
 endfacet
 facet normal  9.438833e-01 -3.302791e-01  0.000000e+00
   outer loop
     vertex  2.723048e-01  1.793811e-01 -1.587302e-02
     vertex  2.665655e-01  1.629791e-01  9.841270e-01
     vertex  2.665655e-01  1.629791e-01 -1.587302e-02
   endloop
 endfacet
 facet normal  9.937122e-01 -1.119645e-01  0.000000e+00
   outer loop
     vertex  2.742505e-01  1.966490e-01 -1.587302e-02
     vertex  2.742505e-01  1.966490e-01  9.841270e-01
     vertex  2.723048e-01  1.793811e-01  9.841270e-01
   endloop
 endfacet
 facet normal  9.937122e-01 -1.119645e-01  0.000000e+00
   outer loop
     vertex  2.742505e-01  1.966490e-01 -1.587302e-02
     vertex  2.723048e-01  1.793811e-01  9.841270e-01
     vertex  2.723048e-01  1.793811e-01 -1.587302e-02
   endloop
 endfacet
 facet normal  9.937122e-01  1.119645e-01  0.000000e+00
   outer loop
     vertex  2.723048e-01  2.139170e-01 -1.587302e-02
     vertex  2.742505e-01  1.966490e-01 -1.587302e-02
     vertex  2.742505e-01  1.966490e-01 -3.174603e-02
   endloop
 endfacet
 facet normal  9.937122e-01  1.119645e-01  0.000000e+00
   outer loop
     vertex  2.723048e-01  2.139170e-01 -1.587302e-02
     vertex  2.742505e-01  1.966490e-01 -3.174603e-02
     vertex  2.723048e-01  2.139170e-01 -3.174603e-02
   endloop
 endfacet
 facet normal  9.438833e-01  3.302791e-01  0.000000e+00
   outer loop
     vertex  2.665655e-01  2.303190e-01 -1.587302e-02
     vertex  2.723048e-01  2.139170e-01 -3.174603e-02
     vertex  2.665655e-01  2.303190e-01 -3.174603e-02
   endloop
 endfacet
 facet normal  9.438833e-01  3.302791e-01  0.000000e+00
   outer loop
     vertex  2.665655e-01  2.303190e-01 -1.587302e-02
     vertex  2.723048e-01  2.139170e-01 -1.587302e-02
     vertex  2.723048e-01  2.139170e-01 -3.174603e-02
   endloop
 endfacet
 facet normal  8.467242e-01  5.320321e-01  0.000000e+00
   outer loop
     vertex  2.573203e-01  2.450327e-01 -1.587302e-02
     vertex  2.665655e-01  2.303190e-01 -3.174603e-02
     vertex  2.573203e-01  2.450327e-01 -3.174603e-02
   endloop
 endfacet
 facet normal  8.467242e-01  5.320321e-01  0.000000e+00
   outer loop
     vertex  2.573203e-01  2.450327e-01 -1.587302e-02
     vertex  2.665655e-01  2.303190e-01 -1.587302e-02
     vertex  2.665655e-01  2.303190e-01 -3.174603e-02
   endloop
 endfacet
 facet normal  7.071068e-01  7.071068e-01  0.000000e+00
   outer loop
     vertex  2.450327e-01  2.573203e-01 -1.587302e-02
     vertex  2.573203e-01  2.450327e-01 -3.174603e-02
     vertex  2.450327e-01  2.573203e-01 -3.174603e-02
   endloop
 endfacet
 facet normal  7.071068e-01  7.071068e-01  0.000000e+00
   outer loop
     vertex  2.450327e-01  2.573203e-01 -1.587302e-02
     vertex  2.573203e-01  2.450327e-01 -1.587302e-02
     vertex  2.573203e-01  2.450327e-01 -3.174603e-02
   endloop
 endfacet
 facet normal  5.320321e-01  8.467242e-01  0.000000e+00
   outer loop
     vertex  2.303190e-01  2.665655e-01 -1.587302e-02
     vertex  2.450327e-01  2.573203e-01 -3.174603e-02
     vertex  2.303190e-01  2.665655e-01 -3.174603e-02
   endloop
 endfacet
 facet normal  5.320321e-01  8.467242e-01  0.000000e+00
   outer loop
     vertex  2.303190e-01  2.665655e-01 -1.587302e-02
     vertex  2.450327e-01  2.573203e-01 -1.587302e-02
     vertex  2.450327e-01  2.573203e-01 -3.174603e-02
   endloop
 endfacet
 facet normal  3.302791e-01  9.438833e-01  0.000000e+00
   outer loop
     vertex  2.139170e-01  2.723048e-01 -1.587302e-02
     vertex  2.303190e-01  2.665655e-01 -3.174603e-02
     vertex  2.139170e-01  2.723048e-01 -3.174603e-02
   endloop
 endfacet
 facet normal  3.302791e-01  9.438833e-01  0.000000e+00
   outer loop
     vertex  2.139170e-01  2.723048e-01 -1.587302e-02
     vertex  2.303190e-01  2.665655e-01 -1.587302e-02
     vertex  2.303190e-01  2.665655e-01 -3.174603e-02
   endloop
 endfacet
 facet normal  1.119645e-01  9.937122e-01  0.000000e+00
   outer loop
     vertex  1.966490e-01  2.742505e-01 -1.587302e-02
     vertex  2.139170e-01  2.723048e-01 -3.174603e-02
     vertex  1.966490e-01  2.742505e-01 -3.174603e-02
   endloop
 endfacet
 facet normal  1.119645e-01  9.937122e-01  0.000000e+00
   outer loop
     vertex  1.966490e-01  2.742505e-01 -1.587302e-02
     vertex  2.139170e-01  2.723048e-01 -1.587302e-02
     vertex  2.139170e-01  2.723048e-01 -3.174603e-02
   endloop
 endfacet
 facet normal -1.119645e-01  9.937122e-01  0.000000e+00
   outer loop
     vertex  1.793811e-01  2.723048e-01 -1.587302e-02
     vertex  1.966490e-01  2.742505e-01 -3.174603e-02
     vertex  1.793811e-01  2.723048e-01 -3.174603e-02
   endloop
 endfacet
 facet normal -1.119645e-01  9.937122e-01  0.000000e+00
   outer loop
     vertex  1.793811e-01  2.723048e-01 -1.587302e-02
     vertex  1.966490e-01  2.742505e-01 -1.587302e-02
     vertex  1.966490e-01  2.742505e-01 -3.174603e-02
   endloop
 endfacet
 facet normal -3.302791e-01  9.438833e-01  0.000000e+00
   outer loop
     vertex  1.629791e-01  2.665655e-01 -1.587302e-02
     vertex  1.793811e-01  2.723048e-01 -3.174603e-02
     vertex  1.629791e-01  2.665655e-01 -3.174603e-02
   endloop
 endfacet
 facet normal -3.302791e-01  9.438833e-01  0.000000e+00
   outer loop
     vertex  1.629791e-01  2.665655e-01 -1.587302e-02
     vertex  1.793811e-01  2.723048e-01 -1.587302e-02
     vertex  1.793811e-01  2.723048e-01 -3.174603e-02
   endloop
 endfacet
 facet normal -5.320321e-01  8.467242e-01  0.000000e+00
   outer loop
     vertex  1.482654e-01  2.573203e-01 -1.587302e-02
     vertex  1.629791e-01  2.665655e-01 -1.587302e-02
     vertex  1.629791e-01  2.665655e-01 -3.174603e-02
   endloop
 endfacet
 facet normal -5.320321e-01  8.467242e-01  0.000000e+00
   outer loop
     vertex  1.482654e-01  2.573203e-01 -1.587302e-02
     vertex  1.629791e-01  2.665655e-01 -3.174603e-02
     vertex  1.482654e-01  2.573203e-01 -3.174603e-02
   endloop
 endfacet
 facet normal -7.071068e-01  7.071068e-01  0.000000e+00
   outer loop
     vertex  1.359778e-01  2.450327e-01 -1.587302e-02
     vertex  1.482654e-01  2.573203e-01 -1.587302e-02
     vertex  1.482654e-01  2.573203e-01 -3.174603e-02
   endloop
 endfacet
 facet normal -7.071068e-01  7.071068e-01  0.000000e+00
   outer loop
     vertex  1.359778e-01  2.450327e-01 -1.587302e-02
     vertex  1.482654e-01  2.573203e-01 -3.174603e-02
     vertex  1.359778e-01  2.450327e-01 -3.174603e-02
   endloop
 endfacet
 facet normal -8.467242e-01  5.320321e-01  0.000000e+00
   outer loop
     vertex  1.267326e-01  2.303190e-01 -1.587302e-02
     vertex  1.359778e-01  2.450327e-01 -1.587302e-02
     vertex  1.359778e-01  2.450327e-01 -3.174603e-02
   endloop
 endfacet
 facet normal -8.467242e-01  5.320321e-01  0.000000e+00
   outer loop
     vertex  1.267326e-01  2.303190e-01 -1.587302e-02
     vertex  1.359778e-01  2.450327e-01 -3.174603e-02
     vertex  1.267326e-01  2.303190e-01 -3.174603e-02
   endloop
 endfacet
 facet normal -9.438833e-01  3.302791e-01  0.000000e+00
   outer loop
     vertex  1.209933e-01  2.139170e-01 -1.587302e-02
     vertex  1.267326e-01  2.303190e-01 -3.174603e-02
     vertex  1.209933e-01  2.139170e-01 -3.174603e-02
   endloop
 endfacet
 facet normal -9.438833e-01  3.302791e-01  0.000000e+00
   outer loop
     vertex  1.209933e-01  2.139170e-01 -1.587302e-02
     vertex  1.267326e-01  2.303190e-01 -1.587302e-02
     vertex  1.267326e-01  2.303190e-01 -3.174603e-02
   endloop
 endfacet
 facet normal -9.937122e-01  1.119645e-01  0.000000e+00
   outer loop
     vertex  1.190476e-01  1.966490e-01 -1.587302e-02
     vertex  1.209933e-01  2.139170e-01 -3.174603e-02
     vertex  1.190476e-01  1.966490e-01 -3.174603e-02
   endloop
 endfacet
 facet normal -9.937122e-01  1.119645e-01  0.000000e+00
   outer loop
     vertex  1.190476e-01  1.966490e-01 -1.587302e-02
     vertex  1.209933e-01  2.139170e-01 -1.587302e-02
     vertex  1.209933e-01  2.139170e-01 -3.174603e-02
   endloop
 endfacet
 facet normal -9.937122e-01 -1.119645e-01 -0.000000e+00
   outer loop
     vertex  1.209933e-01  1.793811e-01 -1.587302e-02
     vertex  1.190476e-01  1.966490e-01 -3.174603e-02
     vertex  1.209933e-01  1.793811e-01 -3.174603e-02
   endloop
 endfacet
 facet normal -9.937122e-01 -1.119645e-01  0.000000e+00
   outer loop
     vertex  1.209933e-01  1.793811e-01 -1.587302e-02
     vertex  1.190476e-01  1.966490e-01 -1.587302e-02
     vertex  1.190476e-01  1.966490e-01 -3.174603e-02
   endloop
 endfacet
 facet normal -9.438833e-01 -3.302791e-01  0.000000e+00
   outer loop
     vertex  1.267326e-01  1.629791e-01 -1.587302e-02
     vertex  1.209933e-01  1.793811e-01 -1.587302e-02
     vertex  1.209933e-01  1.793811e-01 -3.174603e-02
   endloop
 endfacet
 facet normal -9.438833e-01 -3.302791e-01 -0.000000e+00
   outer loop
     vertex  1.267326e-01  1.629791e-01 -1.587302e-02
     vertex  1.209933e-01  1.793811e-01 -3.174603e-02
     vertex  1.267326e-01  1.629791e-01 -3.174603e-02
   endloop
 endfacet
 facet normal -8.467242e-01 -5.320321e-01 -0.000000e+00
   outer loop
     vertex  1.359778e-01  1.482654e-01 -1.587302e-02
     vertex  1.267326e-01  1.629791e-01 -3.174603e-02
     vertex  1.359778e-01  1.482654e-01 -3.174603e-02
   endloop
 endfacet
 facet normal -8.467242e-01 -5.320321e-01  0.000000e+00
   outer loop
     vertex  1.359778e-01  1.482654e-01 -1.587302e-02
     vertex  1.267326e-01  1.629791e-01 -1.587302e-02
     vertex  1.267326e-01  1.629791e-01 -3.174603e-02
   endloop
 endfacet
 facet normal -7.071068e-01 -7.071068e-01 -0.000000e+00
   outer loop
     vertex  1.482654e-01  1.359778e-01 -1.587302e-02
     vertex  1.359778e-01  1.482654e-01 -3.174603e-02
     vertex  1.482654e-01  1.359778e-01 -3.174603e-02
   endloop
 endfacet
 facet normal -7.071068e-01 -7.071068e-01  0.000000e+00
   outer loop
     vertex  1.482654e-01  1.359778e-01 -1.587302e-02
     vertex  1.359778e-01  1.482654e-01 -1.587302e-02
     vertex  1.359778e-01  1.482654e-01 -3.174603e-02
   endloop
 endfacet
 facet normal -5.320321e-01 -8.467242e-01 -0.000000e+00
   outer loop
     vertex  1.629791e-01  1.267326e-01 -1.587302e-02
     vertex  1.482654e-01  1.359778e-01 -3.174603e-02
     vertex  1.629791e-01  1.267326e-01 -3.174603e-02
   endloop
 endfacet
 facet normal -5.320321e-01 -8.467242e-01  0.000000e+00
   outer loop
     vertex  1.629791e-01  1.267326e-01 -1.587302e-02
     vertex  1.482654e-01  1.359778e-01 -1.587302e-02
     vertex  1.482654e-01  1.359778e-01 -3.174603e-02
   endloop
 endfacet
 facet normal -3.302791e-01 -9.438833e-01 -0.000000e+00
   outer loop
     vertex  1.793811e-01  1.209933e-01 -1.587302e-02
     vertex  1.629791e-01  1.267326e-01 -3.174603e-02
     vertex  1.793811e-01  1.209933e-01 -3.174603e-02
   endloop
 endfacet
 facet normal -3.302791e-01 -9.438833e-01  0.000000e+00
   outer loop
     vertex  1.793811e-01  1.209933e-01 -1.587302e-02
     vertex  1.629791e-01  1.267326e-01 -1.587302e-02
     vertex  1.629791e-01  1.267326e-01 -3.174603e-02
   endloop
 endfacet
 facet normal -1.119645e-01 -9.937122e-01 -0.000000e+00
   outer loop
     vertex  1.966490e-01  1.190476e-01 -1.587302e-02
     vertex  1.793811e-01  1.209933e-01 -3.174603e-02
     vertex  1.966490e-01  1.190476e-01 -3.174603e-02
   endloop
 endfacet
 facet normal -1.119645e-01 -9.937122e-01  0.000000e+00
   outer loop
     vertex  1.966490e-01  1.190476e-01 -1.587302e-02
     vertex  1.793811e-01  1.209933e-01 -1.587302e-02
     vertex  1.793811e-01  1.209933e-01 -3.174603e-02
   endloop
 endfacet
 facet normal  1.119645e-01 -9.937122e-01  0.000000e+00
   outer loop
     vertex  2.139170e-01  1.209933e-01 -1.587302e-02
     vertex  1.966490e-01  1.190476e-01 -3.174603e-02
     vertex  2.139170e-01  1.209933e-01 -3.174603e-02
   endloop
 endfacet
 facet normal  1.119645e-01 -9.937122e-01  0.000000e+00
   outer loop
     vertex  2.139170e-01  1.209933e-01 -1.587302e-02
     vertex  1.966490e-01  1.190476e-01 -1.587302e-02
     vertex  1.966490e-01  1.190476e-01 -3.174603e-02
   endloop
 endfacet
 facet normal  3.302791e-01 -9.438833e-01  0.000000e+00
   outer loop
     vertex  2.303190e-01  1.267326e-01 -1.587302e-02
     vertex  2.139170e-01  1.209933e-01 -3.174603e-02
     vertex  2.303190e-01  1.267326e-01 -3.174603e-02
   endloop
 endfacet
 facet normal  3.302791e-01 -9.438833e-01  0.000000e+00
   outer loop
     vertex  2.303190e-01  1.267326e-01 -1.587302e-02
     vertex  2.139170e-01  1.209933e-01 -1.587302e-02
     vertex  2.139170e-01  1.209933e-01 -3.174603e-02
   endloop
 endfacet
 facet normal  5.320321e-01 -8.467242e-01  0.000000e+00
   outer loop
     vertex  2.450327e-01  1.359778e-01 -1.587302e-02
     vertex  2.303190e-01  1.267326e-01 -3.174603e-02
     vertex  2.450327e-01  1.359778e-01 -3.174603e-02
   endloop
 endfacet
 facet normal  5.320321e-01 -8.467242e-01  0.000000e+00
   outer loop
     vertex  2.450327e-01  1.359778e-01 -1.587302e-02
     vertex  2.303190e-01  1.267326e-01 -1.587302e-02
     vertex  2.303190e-01  1.267326e-01 -3.174603e-02
   endloop
 endfacet
 facet normal  7.071068e-01 -7.071068e-01  0.000000e+00
   outer loop
     vertex  2.573203e-01  1.482654e-01 -1.587302e-02
     vertex  2.450327e-01  1.359778e-01 -3.174603e-02
     vertex  2.573203e-01  1.482654e-01 -3.174603e-02
   endloop
 endfacet
 facet normal  7.071068e-01 -7.071068e-01  0.000000e+00
   outer loop
     vertex  2.573203e-01  1.482654e-01 -1.587302e-02
     vertex  2.450327e-01  1.359778e-01 -1.587302e-02
     vertex  2.450327e-01  1.359778e-01 -3.174603e-02
   endloop
 endfacet
 facet normal  8.467242e-01 -5.320321e-01  0.000000e+00
   outer loop
     vertex  2.665655e-01  1.629791e-01 -1.587302e-02
     vertex  2.573203e-01  1.482654e-01 -3.174603e-02
     vertex  2.665655e-01  1.629791e-01 -3.174603e-02
   endloop
 endfacet
 facet normal  8.467242e-01 -5.320321e-01  0.000000e+00
   outer loop
     vertex  2.665655e-01  1.629791e-01 -1.587302e-02
     vertex  2.573203e-01  1.482654e-01 -1.587302e-02
     vertex  2.573203e-01  1.482654e-01 -3.174603e-02
   endloop
 endfacet
 facet normal  9.438833e-01 -3.302791e-01  0.000000e+00
   outer loop
     vertex  2.723048e-01  1.793811e-01 -1.587302e-02
     vertex  2.665655e-01  1.629791e-01 -3.174603e-02
     vertex  2.723048e-01  1.793811e-01 -3.174603e-02
   endloop
 endfacet
 facet normal  9.438833e-01 -3.302791e-01  0.000000e+00
   outer loop
     vertex  2.723048e-01  1.793811e-01 -1.587302e-02
     vertex  2.665655e-01  1.629791e-01 -1.587302e-02
     vertex  2.665655e-01  1.629791e-01 -3.174603e-02
   endloop
 endfacet
 facet normal  9.937122e-01 -1.119645e-01  0.000000e+00
   outer loop
     vertex  2.742505e-01  1.966490e-01 -1.587302e-02
     vertex  2.723048e-01  1.793811e-01 -3.174603e-02
     vertex  2.742505e-01  1.966490e-01 -3.174603e-02
   endloop
 endfacet
 facet normal  9.937122e-01 -1.119645e-01  0.000000e+00
   outer loop
     vertex  2.742505e-01  1.966490e-01 -1.587302e-02
     vertex  2.723048e-01  1.793811e-01 -1.587302e-02
     vertex  2.723048e-01  1.793811e-01 -3.174603e-02
   endloop
 endfacet
 facet normal  0.000000e+00  0.000000e+00  1.000000e+00
   outer loop
     vertex  2.450327e-01  2.573203e-01  9.841270e-01
     vertex  2.742505e-01  1.966490e-01  9.841270e-01
     vertex  2.723048e-01  2.139170e-01  9.841270e-01
   endloop
 endfacet
 facet normal  0.000000e+00  0.000000e+00  1.000000e+00
   outer loop
     vertex  2.450327e-01  2.573203e-01  9.841270e-01
     vertex  2.723048e-01  2.139170e-01  9.841270e-01
     vertex  2.665655e-01  2.303190e-01  9.841270e-01
   endloop
 endfacet
 facet normal  0.000000e+00  0.000000e+00  1.000000e+00
   outer loop
     vertex  2.450327e-01  2.573203e-01  9.841270e-01
     vertex  2.665655e-01  2.303190e-01  9.841270e-01
     vertex  2.573203e-01  2.450327e-01  9.841270e-01
   endloop
 endfacet
 facet normal  0.000000e+00  0.000000e+00  1.000000e+00
   outer loop
     vertex  2.450327e-01  2.573203e-01  9.841270e-01
     vertex  2.303190e-01  2.665655e-01  9.841270e-01
     vertex  2.139170e-01  2.723048e-01  9.841270e-01
   endloop
 endfacet
 facet normal  0.000000e+00  0.000000e+00  1.000000e+00
   outer loop
     vertex  2.450327e-01  2.573203e-01  9.841270e-01
     vertex  2.139170e-01  2.723048e-01  9.841270e-01
     vertex  1.966490e-01  2.742505e-01  9.841270e-01
   endloop
 endfacet
 facet normal  0.000000e+00  0.000000e+00  1.000000e+00
   outer loop
     vertex  2.450327e-01  2.573203e-01  9.841270e-01
     vertex  1.966490e-01  2.742505e-01  9.841270e-01
     vertex  1.793811e-01  2.723048e-01  9.841270e-01
   endloop
 endfacet
 facet normal  0.000000e+00  0.000000e+00  1.000000e+00
   outer loop
     vertex  2.450327e-01  2.573203e-01  9.841270e-01
     vertex  1.793811e-01  2.723048e-01  9.841270e-01
     vertex  1.629791e-01  2.665655e-01  9.841270e-01
   endloop
 endfacet
 facet normal  0.000000e+00  0.000000e+00  1.000000e+00
   outer loop
     vertex  2.450327e-01  2.573203e-01  9.841270e-01
     vertex  1.629791e-01  2.665655e-01  9.841270e-01
     vertex  1.482654e-01  2.573203e-01  9.841270e-01
   endloop
 endfacet
 facet normal  0.000000e+00  0.000000e+00  1.000000e+00
   outer loop
     vertex  2.450327e-01  2.573203e-01  9.841270e-01
     vertex  1.482654e-01  2.573203e-01  9.841270e-01
     vertex  1.359778e-01  2.450327e-01  9.841270e-01
   endloop
 endfacet
 facet normal  0.000000e+00  0.000000e+00  1.000000e+00
   outer loop
     vertex  2.450327e-01  2.573203e-01  9.841270e-01
     vertex  1.359778e-01  2.450327e-01  9.841270e-01
     vertex  1.267326e-01  2.303190e-01  9.841270e-01
   endloop
 endfacet
 facet normal  0.000000e+00  0.000000e+00  1.000000e+00
   outer loop
     vertex  2.450327e-01  2.573203e-01  9.841270e-01
     vertex  1.267326e-01  2.303190e-01  9.841270e-01
     vertex  1.209933e-01  2.139170e-01  9.841270e-01
   endloop
 endfacet
 facet normal  0.000000e+00  0.000000e+00  1.000000e+00
   outer loop
     vertex  2.450327e-01  2.573203e-01  9.841270e-01
     vertex  1.209933e-01  2.139170e-01  9.841270e-01
     vertex  1.190476e-01  1.966490e-01  9.841270e-01
   endloop
 endfacet
 facet normal  0.000000e+00  0.000000e+00  1.000000e+00
   outer loop
     vertex  2.450327e-01  2.573203e-01  9.841270e-01
     vertex  1.190476e-01  1.966490e-01  9.841270e-01
     vertex  1.209933e-01  1.793811e-01  9.841270e-01
   endloop
 endfacet
 facet normal  0.000000e+00  0.000000e+00  1.000000e+00
   outer loop
     vertex  2.450327e-01  2.573203e-01  9.841270e-01
     vertex  1.209933e-01  1.793811e-01  9.841270e-01
     vertex  1.267326e-01  1.629791e-01  9.841270e-01
   endloop
 endfacet
 facet normal  0.000000e+00  0.000000e+00  1.000000e+00
   outer loop
     vertex  2.450327e-01  2.573203e-01  9.841270e-01
     vertex  1.267326e-01  1.629791e-01  9.841270e-01
     vertex  1.359778e-01  1.482654e-01  9.841270e-01
   endloop
 endfacet
 facet normal  0.000000e+00  0.000000e+00  1.000000e+00
   outer loop
     vertex  2.450327e-01  2.573203e-01  9.841270e-01
     vertex  1.359778e-01  1.482654e-01  9.841270e-01
     vertex  1.482654e-01  1.359778e-01  9.841270e-01
   endloop
 endfacet
 facet normal  0.000000e+00  0.000000e+00  1.000000e+00
   outer loop
     vertex  2.450327e-01  2.573203e-01  9.841270e-01
     vertex  1.482654e-01  1.359778e-01  9.841270e-01
     vertex  1.629791e-01  1.267326e-01  9.841270e-01
   endloop
 endfacet
 facet normal  0.000000e+00  0.000000e+00  1.000000e+00
   outer loop
     vertex  2.450327e-01  2.573203e-01  9.841270e-01
     vertex  1.629791e-01  1.267326e-01  9.841270e-01
     vertex  1.793811e-01  1.209933e-01  9.841270e-01
   endloop
 endfacet
 facet normal  0.000000e+00  0.000000e+00  1.000000e+00
   outer loop
     vertex  2.450327e-01  2.573203e-01  9.841270e-01
     vertex  1.793811e-01  1.209933e-01  9.841270e-01
     vertex  1.966490e-01  1.190476e-01  9.841270e-01
   endloop
 endfacet
 facet normal  0.000000e+00  0.000000e+00  1.000000e+00
   outer loop
     vertex  2.450327e-01  2.573203e-01  9.841270e-01
     vertex  1.966490e-01  1.190476e-01  9.841270e-01
     vertex  2.139170e-01  1.209933e-01  9.841270e-01
   endloop
 endfacet
 facet normal  0.000000e+00  0.000000e+00  1.000000e+00
   outer loop
     vertex  2.450327e-01  2.573203e-01  9.841270e-01
     vertex  2.139170e-01  1.209933e-01  9.841270e-01
     vertex  2.303190e-01  1.267326e-01  9.841270e-01
   endloop
 endfacet
 facet normal  0.000000e+00  0.000000e+00  1.000000e+00
   outer loop
     vertex  2.450327e-01  2.573203e-01  9.841270e-01
     vertex  2.303190e-01  1.267326e-01  9.841270e-01
     vertex  2.450327e-01  1.359778e-01  9.841270e-01
   endloop
 endfacet
 facet normal  0.000000e+00  0.000000e+00  1.000000e+00
   outer loop
     vertex  2.450327e-01  2.573203e-01  9.841270e-01
     vertex  2.450327e-01  1.359778e-01  9.841270e-01
     vertex  2.573203e-01  1.482654e-01  9.841270e-01
   endloop
 endfacet
 facet normal  0.000000e+00  0.000000e+00  1.000000e+00
   outer loop
     vertex  2.450327e-01  2.573203e-01  9.841270e-01
     vertex  2.573203e-01  1.482654e-01  9.841270e-01
     vertex  2.665655e-01  1.629791e-01  9.841270e-01
   endloop
 endfacet
 facet normal  0.000000e+00  0.000000e+00  1.000000e+00
   outer loop
     vertex  2.450327e-01  2.573203e-01  9.841270e-01
     vertex  2.665655e-01  1.629791e-01  9.841270e-01
     vertex  2.723048e-01  1.793811e-01  9.841270e-01
   endloop
 endfacet
 facet normal  0.000000e+00  0.000000e+00  1.000000e+00
   outer loop
     vertex  2.450327e-01  2.573203e-01  9.841270e-01
     vertex  2.723048e-01  1.793811e-01  9.841270e-01
     vertex  2.742505e-01  1.966490e-01  9.841270e-01
   endloop
 endfacet
 facet normal  0.000000e+00  0.000000e+00 -1.000000e+00
   outer loop
     vertex  2.450327e-01  2.573203e-01 -3.174603e-02
     vertex  2.723048e-01  2.139170e-01 -3.174603e-02
     vertex  2.742505e-01  1.966490e-01 -3.174603e-02
   endloop
 endfacet
 facet normal  0.000000e+00  0.000000e+00 -1.000000e+00
   outer loop
     vertex  2.450327e-01  2.573203e-01 -3.174603e-02
     vertex  2.665655e-01  2.303190e-01 -3.174603e-02
     vertex  2.723048e-01  2.139170e-01 -3.174603e-02
   endloop
 endfacet
 facet normal  0.000000e+00  0.000000e+00 -1.000000e+00
   outer loop
     vertex  2.450327e-01  2.573203e-01 -3.174603e-02
     vertex  2.573203e-01  2.450327e-01 -3.174603e-02
     vertex  2.665655e-01  2.303190e-01 -3.174603e-02
   endloop
 endfacet
 facet normal  0.000000e+00  0.000000e+00 -1.000000e+00
   outer loop
     vertex  2.450327e-01  2.573203e-01 -3.174603e-02
     vertex  2.139170e-01  2.723048e-01 -3.174603e-02
     vertex  2.303190e-01  2.665655e-01 -3.174603e-02
   endloop
 endfacet
 facet normal  0.000000e+00  0.000000e+00 -1.000000e+00
   outer loop
     vertex  2.450327e-01  2.573203e-01 -3.174603e-02
     vertex  1.966490e-01  2.742505e-01 -3.174603e-02
     vertex  2.139170e-01  2.723048e-01 -3.174603e-02
   endloop
 endfacet
 facet normal  0.000000e+00  0.000000e+00 -1.000000e+00
   outer loop
     vertex  2.450327e-01  2.573203e-01 -3.174603e-02
     vertex  1.793811e-01  2.723048e-01 -3.174603e-02
     vertex  1.966490e-01  2.742505e-01 -3.174603e-02
   endloop
 endfacet
 facet normal  0.000000e+00  0.000000e+00 -1.000000e+00
   outer loop
     vertex  2.450327e-01  2.573203e-01 -3.174603e-02
     vertex  1.629791e-01  2.665655e-01 -3.174603e-02
     vertex  1.793811e-01  2.723048e-01 -3.174603e-02
   endloop
 endfacet
 facet normal  0.000000e+00  0.000000e+00 -1.000000e+00
   outer loop
     vertex  2.450327e-01  2.573203e-01 -3.174603e-02
     vertex  1.482654e-01  2.573203e-01 -3.174603e-02
     vertex  1.629791e-01  2.665655e-01 -3.174603e-02
   endloop
 endfacet
 facet normal -0.000000e+00  0.000000e+00 -1.000000e+00
   outer loop
     vertex  2.450327e-01  2.573203e-01 -3.174603e-02
     vertex  1.359778e-01  2.450327e-01 -3.174603e-02
     vertex  1.482654e-01  2.573203e-01 -3.174603e-02
   endloop
 endfacet
 facet normal  0.000000e+00  0.000000e+00 -1.000000e+00
   outer loop
     vertex  2.450327e-01  2.573203e-01 -3.174603e-02
     vertex  1.267326e-01  2.303190e-01 -3.174603e-02
     vertex  1.359778e-01  2.450327e-01 -3.174603e-02
   endloop
 endfacet
 facet normal  0.000000e+00  0.000000e+00 -1.000000e+00
   outer loop
     vertex  2.450327e-01  2.573203e-01 -3.174603e-02
     vertex  1.209933e-01  2.139170e-01 -3.174603e-02
     vertex  1.267326e-01  2.303190e-01 -3.174603e-02
   endloop
 endfacet
 facet normal  0.000000e+00  0.000000e+00 -1.000000e+00
   outer loop
     vertex  2.450327e-01  2.573203e-01 -3.174603e-02
     vertex  1.190476e-01  1.966490e-01 -3.174603e-02
     vertex  1.209933e-01  2.139170e-01 -3.174603e-02
   endloop
 endfacet
 facet normal  0.000000e+00  0.000000e+00 -1.000000e+00
   outer loop
     vertex  2.450327e-01  2.573203e-01 -3.174603e-02
     vertex  1.209933e-01  1.793811e-01 -3.174603e-02
     vertex  1.190476e-01  1.966490e-01 -3.174603e-02
   endloop
 endfacet
 facet normal  0.000000e+00  0.000000e+00 -1.000000e+00
   outer loop
     vertex  2.450327e-01  2.573203e-01 -3.174603e-02
     vertex  1.267326e-01  1.629791e-01 -3.174603e-02
     vertex  1.209933e-01  1.793811e-01 -3.174603e-02
   endloop
 endfacet
 facet normal  0.000000e+00  0.000000e+00 -1.000000e+00
   outer loop
     vertex  2.450327e-01  2.573203e-01 -3.174603e-02
     vertex  1.359778e-01  1.482654e-01 -3.174603e-02
     vertex  1.267326e-01  1.629791e-01 -3.174603e-02
   endloop
 endfacet
 facet normal  0.000000e+00  0.000000e+00 -1.000000e+00
   outer loop
     vertex  2.450327e-01  2.573203e-01 -3.174603e-02
     vertex  1.482654e-01  1.359778e-01 -3.174603e-02
     vertex  1.359778e-01  1.482654e-01 -3.174603e-02
   endloop
 endfacet
 facet normal  0.000000e+00  0.000000e+00 -1.000000e+00
   outer loop
     vertex  2.450327e-01  2.573203e-01 -3.174603e-02
     vertex  1.629791e-01  1.267326e-01 -3.174603e-02
     vertex  1.482654e-01  1.359778e-01 -3.174603e-02
   endloop
 endfacet
 facet normal  0.000000e+00  0.000000e+00 -1.000000e+00
   outer loop
     vertex  2.450327e-01  2.573203e-01 -3.174603e-02
     vertex  1.793811e-01  1.209933e-01 -3.174603e-02
     vertex  1.629791e-01  1.267326e-01 -3.174603e-02
   endloop
 endfacet
 facet normal  0.000000e+00  0.000000e+00 -1.000000e+00
   outer loop
     vertex  2.450327e-01  2.573203e-01 -3.174603e-02
     vertex  1.966490e-01  1.190476e-01 -3.174603e-02
     vertex  1.793811e-01  1.209933e-01 -3.174603e-02
   endloop
 endfacet
 facet normal  0.000000e+00  0.000000e+00 -1.000000e+00
   outer loop
     vertex  2.450327e-01  2.573203e-01 -3.174603e-02
     vertex  2.139170e-01  1.209933e-01 -3.174603e-02
     vertex  1.966490e-01  1.190476e-01 -3.174603e-02
   endloop
 endfacet
 facet normal  0.000000e+00  0.000000e+00 -1.000000e+00
   outer loop
     vertex  2.450327e-01  2.573203e-01 -3.174603e-02
     vertex  2.303190e-01  1.267326e-01 -3.174603e-02
     vertex  2.139170e-01  1.209933e-01 -3.174603e-02
   endloop
 endfacet
 facet normal  0.000000e+00 -0.000000e+00 -1.000000e+00
   outer loop
     vertex  2.450327e-01  2.573203e-01 -3.174603e-02
     vertex  2.450327e-01  1.359778e-01 -3.174603e-02
     vertex  2.303190e-01  1.267326e-01 -3.174603e-02
   endloop
 endfacet
 facet normal  0.000000e+00  0.000000e+00 -1.000000e+00
   outer loop
     vertex  2.450327e-01  2.573203e-01 -3.174603e-02
     vertex  2.573203e-01  1.482654e-01 -3.174603e-02
     vertex  2.450327e-01  1.359778e-01 -3.174603e-02
   endloop
 endfacet
 facet normal  0.000000e+00  0.000000e+00 -1.000000e+00
   outer loop
     vertex  2.450327e-01  2.573203e-01 -3.174603e-02
     vertex  2.665655e-01  1.629791e-01 -3.174603e-02
     vertex  2.573203e-01  1.482654e-01 -3.174603e-02
   endloop
 endfacet
 facet normal  0.000000e+00  0.000000e+00 -1.000000e+00
   outer loop
     vertex  2.450327e-01  2.573203e-01 -3.174603e-02
     vertex  2.723048e-01  1.793811e-01 -3.174603e-02
     vertex  2.665655e-01  1.629791e-01 -3.174603e-02
   endloop
 endfacet
 facet normal  0.000000e+00  0.000000e+00 -1.000000e+00
   outer loop
     vertex  2.450327e-01  2.573203e-01 -3.174603e-02
     vertex  2.742505e-01  1.966490e-01 -3.174603e-02
     vertex  2.723048e-01  1.793811e-01 -3.174603e-02
   endloop
 endfacet
endsolid
