solid 
 facet normal  0.000000e+00 -1.000000e+00  0.000000e+00
   outer loop
     vertex -1.587302e-02 -8.015873e-01  8.746033e-01
     vertex -1.587302e-02 -8.015873e-01 -1.030159e+00
     vertex  6.000000e-08 -8.015873e-01 -1.030159e+00
   endloop
 endfacet
 facet normal  0.000000e+00 -1.000000e+00  0.000000e+00
   outer loop
     vertex -1.587302e-02 -8.015873e-01  8.746033e-01
     vertex  6.000000e-08 -8.015873e-01 -1.030159e+00
     vertex  6.000000e-08 -8.015873e-01  8.746033e-01
   endloop
 endfacet
 facet normal  0.000000e+00  0.000000e+00 -1.000000e+00
   outer loop
     vertex -1.587302e-02 -8.015873e-01 -1.030159e+00
     vertex -1.587302e-02  6.460319e-01 -1.030159e+00
     vertex  6.000000e-08  6.460319e-01 -1.030159e+00
   endloop
 endfacet
 facet normal  0.000000e+00  0.000000e+00 -1.000000e+00
   outer loop
     vertex -1.587302e-02 -8.015873e-01 -1.030159e+00
     vertex  6.000000e-08  6.460319e-01 -1.030159e+00
     vertex  6.000000e-08 -8.015873e-01 -1.030159e+00
   endloop
 endfacet
 facet normal  0.000000e+00  0.000000e+00  1.000000e+00
   outer loop
     vertex -1.587302e-02  6.460319e-01  8.746033e-01
     vertex -1.587302e-02 -8.015873e-01  8.746033e-01
     vertex  6.000000e-08 -8.015873e-01  8.746033e-01
   endloop
 endfacet
 facet normal -0.000000e+00  0.000000e+00  1.000000e+00
   outer loop
     vertex -1.587302e-02  6.460319e-01  8.746033e-01
     vertex  6.000000e-08 -8.015873e-01  8.746033e-01
     vertex  6.000000e-08  6.460319e-01  8.746033e-01
   endloop
 endfacet
 facet normal  0.000000e+00 -1.000000e+00 -0.000000e+00
   outer loop
     vertex -1.587302e-02 -8.015873e-01  8.746033e-01
     vertex -3.174603e-02 -8.015873e-01 -1.030159e+00
     vertex -1.587302e-02 -8.015873e-01 -1.030159e+00
   endloop
 endfacet
 facet normal -0.000000e+00 -1.000000e+00  0.000000e+00
   outer loop
     vertex -1.587302e-02 -8.015873e-01  8.746033e-01
     vertex -3.174603e-02 -8.015873e-01  8.746033e-01
     vertex -3.174603e-02 -8.015873e-01 -1.030159e+00
   endloop
 endfacet
 facet normal  1.000000e+00  0.000000e+00  0.000000e+00
   outer loop
     vertex  6.000000e-08  6.460319e-01  8.746033e-01
     vertex  6.000000e-08 -8.015873e-01 -1.030159e+00
     vertex  6.000000e-08  6.460319e-01 -1.030159e+00
   endloop
 endfacet
 facet normal  1.000000e+00  0.000000e+00  0.000000e+00
   outer loop
     vertex  6.000000e-08  6.460319e-01  8.746033e-01
     vertex  6.000000e-08 -8.015873e-01  8.746033e-01
     vertex  6.000000e-08 -8.015873e-01 -1.030159e+00
   endloop
 endfacet
 facet normal  0.000000e+00  1.000000e+00  0.000000e+00
   outer loop
     vertex -1.587302e-02  6.460319e-01 -1.030159e+00
     vertex -1.587302e-02  6.460319e-01  8.746033e-01
     vertex  6.000000e-08  6.460319e-01  8.746033e-01
   endloop
 endfacet
 facet normal  0.000000e+00  1.000000e+00  0.000000e+00
   outer loop
     vertex -1.587302e-02  6.460319e-01 -1.030159e+00
     vertex  6.000000e-08  6.460319e-01  8.746033e-01
     vertex  6.000000e-08  6.460319e-01 -1.030159e+00
   endloop
 endfacet
 facet normal  0.000000e+00  0.000000e+00 -1.000000e+00
   outer loop
     vertex -1.587302e-02 -8.015873e-01 -1.030159e+00
     vertex -3.174603e-02  6.460319e-01 -1.030159e+00
     vertex -1.587302e-02  6.460319e-01 -1.030159e+00
   endloop
 endfacet
 facet normal  0.000000e+00  0.000000e+00 -1.000000e+00
   outer loop
     vertex -1.587302e-02 -8.015873e-01 -1.030159e+00
     vertex -3.174603e-02 -8.015873e-01 -1.030159e+00
     vertex -3.174603e-02  6.460319e-01 -1.030159e+00
   endloop
 endfacet
 facet normal  0.000000e+00  0.000000e+00  1.000000e+00
   outer loop
     vertex -1.587302e-02  6.460319e-01  8.746033e-01
     vertex -3.174603e-02 -8.015873e-01  8.746033e-01
     vertex -1.587302e-02 -8.015873e-01  8.746033e-01
   endloop
 endfacet
 facet normal  0.000000e+00  0.000000e+00  1.000000e+00
   outer loop
     vertex -1.587302e-02  6.460319e-01  8.746033e-01
     vertex -3.174603e-02  6.460319e-01  8.746033e-01
     vertex -3.174603e-02 -8.015873e-01  8.746033e-01
   endloop
 endfacet
 facet normal -1.000000e+00  0.000000e+00 -0.000000e+00
   outer loop
     vertex -3.174603e-02  6.460319e-01  8.746033e-01
     vertex -3.174603e-02  6.460319e-01 -1.030159e+00
     vertex -3.174603e-02 -8.015873e-01 -1.030159e+00
   endloop
 endfacet
 facet normal -1.000000e+00 -0.000000e+00  0.000000e+00
   outer loop
     vertex -3.174603e-02  6.460319e-01  8.746033e-01
     vertex -3.174603e-02 -8.015873e-01 -1.030159e+00
     vertex -3.174603e-02 -8.015873e-01  8.746033e-01
   endloop
 endfacet
 facet normal  0.000000e+00  1.000000e+00 -0.000000e+00
   outer loop
     vertex -1.587302e-02  6.460319e-01 -1.030159e+00
     vertex -3.174603e-02  6.460319e-01  8.746033e-01
     vertex -1.587302e-02  6.460319e-01  8.746033e-01
   endloop
 endfacet
 facet normal  0.000000e+00  1.000000e+00  0.000000e+00
   outer loop
     vertex -1.587302e-02  6.460319e-01 -1.030159e+00
     vertex -3.174603e-02  6.460319e-01 -1.030159e+00
     vertex -3.174603e-02  6.460319e-01  8.746033e-01
   endloop
 endfacet
endsolid
