solid 
 facet normal -0.000000e+00  0.000000e+00 -1.000000e+00
   outer loop
     vertex  9.095238e-01 -1.587302e-02 -3.444444e-01
     vertex -1.058730e+00 -9.523815e-02 -3.444444e-01
     vertex -1.058730e+00 -1.587302e-02 -3.444444e-01
   endloop
 endfacet
 facet normal  0.000000e+00 -0.000000e+00 -1.000000e+00
   outer loop
     vertex  9.095238e-01 -1.587302e-02 -3.444444e-01
     vertex  9.095238e-01 -9.523815e-02 -3.444444e-01
     vertex -1.058730e+00 -9.523815e-02 -3.444444e-01
   endloop
 endfacet
 facet normal -7.525767e-01  0.000000e+00  6.585046e-01
   outer loop
     vertex -9.412699e-01 -3.174603e-02 -2.102040e-01
     vertex -8.365079e-01 -9.523815e-02 -9.047610e-02
     vertex -8.365079e-01 -3.174603e-02 -9.047610e-02
   endloop
 endfacet
 facet normal -7.525767e-01  8.096209e-16  6.585046e-01
   outer loop
     vertex -1.058730e+00 -9.523815e-02 -3.444444e-01
     vertex -8.365079e-01 -9.523815e-02 -9.047610e-02
     vertex -9.412699e-01 -3.174603e-02 -2.102040e-01
   endloop
 endfacet
 facet normal -7.525767e-01 -1.225374e-15  6.585046e-01
   outer loop
     vertex -1.058730e+00 -1.587302e-02 -3.444444e-01
     vertex -9.412699e-01 -3.174603e-02 -2.102040e-01
     vertex -9.412699e-01 -1.587302e-02 -2.102040e-01
   endloop
 endfacet
 facet normal -7.525767e-01  0.000000e+00  6.585046e-01
   outer loop
     vertex -1.058730e+00 -1.587302e-02 -3.444444e-01
     vertex -1.058730e+00 -9.523815e-02 -3.444444e-01
     vertex -9.412699e-01 -3.174603e-02 -2.102040e-01
   endloop
 endfacet
 facet normal  7.071069e-01  0.000000e+00  7.071067e-01
   outer loop
     vertex  8.936508e-01 -3.174603e-02 -3.285714e-01
     vertex  9.095238e-01 -9.523815e-02 -3.444444e-01
     vertex  9.095238e-01 -1.587302e-02 -3.444444e-01
   endloop
 endfacet
 facet normal  7.071069e-01  4.945792e-15  7.071067e-01
   outer loop
     vertex  8.936508e-01 -1.587302e-02 -3.285714e-01
     vertex  8.936508e-01 -3.174603e-02 -3.285714e-01
     vertex  9.095238e-01 -1.587302e-02 -3.444444e-01
   endloop
 endfacet
 facet normal  7.071069e-01 -2.852635e-16  7.071067e-01
   outer loop
     vertex  8.682539e-01 -3.174603e-02 -3.031745e-01
     vertex  9.095238e-01 -9.523815e-02 -3.444444e-01
     vertex  8.936508e-01 -3.174603e-02 -3.285714e-01
   endloop
 endfacet
 facet normal  7.071069e-01  3.042818e-16  7.071067e-01
   outer loop
     vertex  6.555556e-01 -9.523815e-02 -9.047610e-02
     vertex  9.095238e-01 -9.523815e-02 -3.444444e-01
     vertex  8.682539e-01 -3.174603e-02 -3.031745e-01
   endloop
 endfacet
 facet normal  7.071069e-01  0.000000e+00  7.071067e-01
   outer loop
     vertex  6.555556e-01 -3.174603e-02 -9.047610e-02
     vertex  6.555556e-01 -9.523815e-02 -9.047610e-02
     vertex  8.682539e-01 -3.174603e-02 -3.031745e-01
   endloop
 endfacet
 facet normal  0.000000e+00  0.000000e+00 -1.000000e+00
   outer loop
     vertex  9.095238e-01 -1.587302e-02 -3.444444e-01
     vertex -1.058730e+00 -1.587302e-02 -3.444444e-01
     vertex -1.058730e+00  0.000000e+00 -3.444444e-01
   endloop
 endfacet
 facet normal  0.000000e+00  0.000000e+00 -1.000000e+00
   outer loop
     vertex  9.095238e-01 -1.587302e-02 -3.444444e-01
     vertex -1.058730e+00  0.000000e+00 -3.444444e-01
     vertex  9.095238e-01  0.000000e+00 -3.444444e-01
   endloop
 endfacet
 facet normal  0.000000e+00 -1.000000e+00 -0.000000e+00
   outer loop
     vertex  6.555556e-01 -9.523815e-02 -9.047610e-02
     vertex -1.058730e+00 -9.523815e-02 -3.444444e-01
     vertex  9.095238e-01 -9.523815e-02 -3.444444e-01
   endloop
 endfacet
 facet normal -0.000000e+00 -1.000000e+00  0.000000e+00
   outer loop
     vertex  6.555556e-01 -9.523815e-02 -9.047610e-02
     vertex -8.365079e-01 -9.523815e-02 -9.047610e-02
     vertex -1.058730e+00 -9.523815e-02 -3.444444e-01
   endloop
 endfacet
 facet normal  0.000000e+00 -1.000000e+00  0.000000e+00
   outer loop
     vertex -8.365079e-01 -3.174603e-02 -9.047610e-02
     vertex -7.507937e-01 -3.174603e-02 -9.047610e-02
     vertex -7.507937e-01 -3.174603e-02 -7.460308e-02
   endloop
 endfacet
 facet normal  0.000000e+00 -1.000000e+00  0.000000e+00
   outer loop
     vertex -9.412699e-01 -3.174603e-02 -7.460308e-02
     vertex -9.412699e-01 -3.174603e-02 -2.102040e-01
     vertex -8.365079e-01 -3.174603e-02 -9.047610e-02
   endloop
 endfacet
 facet normal  0.000000e+00 -1.000000e+00  0.000000e+00
   outer loop
     vertex -9.412699e-01 -3.174603e-02 -7.460308e-02
     vertex -8.365079e-01 -3.174603e-02 -9.047610e-02
     vertex -7.507937e-01 -3.174603e-02 -7.460308e-02
   endloop
 endfacet
 facet normal -1.000000e+00  0.000000e+00  0.000000e+00
   outer loop
     vertex -9.412699e-01 -1.587302e-02 -2.102040e-01
     vertex -9.412699e-01 -3.174603e-02 -7.460308e-02
     vertex -9.412699e-01 -1.587302e-02 -7.460308e-02
   endloop
 endfacet
 facet normal -1.000000e+00 -0.000000e+00  0.000000e+00
   outer loop
     vertex -9.412699e-01 -1.587302e-02 -2.102040e-01
     vertex -9.412699e-01 -3.174603e-02 -2.102040e-01
     vertex -9.412699e-01 -3.174603e-02 -7.460308e-02
   endloop
 endfacet
 facet normal -7.525767e-01  0.000000e+00  6.585046e-01
   outer loop
     vertex -1.058730e+00 -1.587302e-02 -3.444444e-01
     vertex -9.412699e-01 -1.587302e-02 -2.102040e-01
     vertex -9.412699e-01  0.000000e+00 -2.102040e-01
   endloop
 endfacet
 facet normal -7.525767e-01  0.000000e+00  6.585046e-01
   outer loop
     vertex -1.058730e+00 -1.587302e-02 -3.444444e-01
     vertex -9.412699e-01  0.000000e+00 -2.102040e-01
     vertex -1.058730e+00  0.000000e+00 -3.444444e-01
   endloop
 endfacet
 facet normal  9.867952e-18  0.000000e+00  1.000000e+00
   outer loop
     vertex -7.507937e-01 -3.174603e-02 -9.047610e-02
     vertex  6.555556e-01 -9.523815e-02 -9.047610e-02
     vertex  6.555556e-01 -3.174603e-02 -9.047610e-02
   endloop
 endfacet
 facet normal  0.000000e+00 -2.185750e-16  1.000000e+00
   outer loop
     vertex -8.365079e-01 -9.523815e-02 -9.047610e-02
     vertex  6.555556e-01 -9.523815e-02 -9.047610e-02
     vertex -7.507937e-01 -3.174603e-02 -9.047610e-02
   endloop
 endfacet
 facet normal -1.619076e-16  0.000000e+00  1.000000e+00
   outer loop
     vertex -8.365079e-01 -3.174603e-02 -9.047610e-02
     vertex -8.365079e-01 -9.523815e-02 -9.047610e-02
     vertex -7.507937e-01 -3.174603e-02 -9.047610e-02
   endloop
 endfacet
 facet normal  7.071069e-01  0.000000e+00  7.071067e-01
   outer loop
     vertex  8.936508e-01 -1.587302e-02 -3.285714e-01
     vertex  9.095238e-01 -1.587302e-02 -3.444444e-01
     vertex  9.095238e-01  0.000000e+00 -3.444444e-01
   endloop
 endfacet
 facet normal  7.071069e-01 -4.945792e-15  7.071067e-01
   outer loop
     vertex  8.936508e-01 -1.587302e-02 -3.285714e-01
     vertex  9.095238e-01  0.000000e+00 -3.444444e-01
     vertex  8.936508e-01  0.000000e+00 -3.285714e-01
   endloop
 endfacet
 facet normal  0.000000e+00  0.000000e+00 -1.000000e+00
   outer loop
     vertex  8.936508e-01 -1.587302e-02 -3.285714e-01
     vertex  1.026984e+00 -1.587302e-02 -3.285714e-01
     vertex  1.026984e+00 -3.174603e-02 -3.285714e-01
   endloop
 endfacet
 facet normal  0.000000e+00  0.000000e+00 -1.000000e+00
   outer loop
     vertex  8.936508e-01 -1.587302e-02 -3.285714e-01
     vertex  1.026984e+00 -3.174603e-02 -3.285714e-01
     vertex  8.936508e-01 -3.174603e-02 -3.285714e-01
   endloop
 endfacet
 facet normal  0.000000e+00 -1.000000e+00  0.000000e+00
   outer loop
     vertex  8.682539e-01 -3.174603e-02 -3.031745e-01
     vertex  8.936508e-01 -3.174603e-02 -3.285714e-01
     vertex  1.026984e+00 -3.174603e-02 -3.285714e-01
   endloop
 endfacet
 facet normal  0.000000e+00 -1.000000e+00 -0.000000e+00
   outer loop
     vertex  1.026984e+00 -3.174603e-02 -7.460308e-02
     vertex  8.682539e-01 -3.174603e-02 -3.031745e-01
     vertex  1.026984e+00 -3.174603e-02 -3.285714e-01
   endloop
 endfacet
 facet normal  0.000000e+00 -1.000000e+00  0.000000e+00
   outer loop
     vertex  8.682539e-01 -3.174603e-02 -7.460308e-02
     vertex  8.682539e-01 -3.174603e-02 -3.031745e-01
     vertex  1.026984e+00 -3.174603e-02 -7.460308e-02
   endloop
 endfacet
 facet normal  0.000000e+00 -1.000000e+00  0.000000e+00
   outer loop
     vertex  6.555556e-01 -3.174603e-02 -9.047610e-02
     vertex  8.682539e-01 -3.174603e-02 -3.031745e-01
     vertex  8.682539e-01 -3.174603e-02 -7.460308e-02
   endloop
 endfacet
 facet normal  0.000000e+00 -1.000000e+00  0.000000e+00
   outer loop
     vertex -7.507937e-01 -3.174603e-02 -7.460308e-02
     vertex -7.507937e-01 -3.174603e-02 -9.047610e-02
     vertex  6.555556e-01 -3.174603e-02 -9.047610e-02
   endloop
 endfacet
 facet normal  0.000000e+00 -1.000000e+00  0.000000e+00
   outer loop
     vertex -7.507937e-01 -3.174603e-02 -7.460308e-02
     vertex  6.555556e-01 -3.174603e-02 -9.047610e-02
     vertex  8.682539e-01 -3.174603e-02 -7.460308e-02
   endloop
 endfacet
 facet normal  0.000000e+00  1.000000e+00  0.000000e+00
   outer loop
     vertex -9.412699e-01  0.000000e+00 -2.102040e-01
     vertex -9.412699e-01  0.000000e+00 -3.285714e-01
     vertex -1.058730e+00  0.000000e+00 -3.444444e-01
   endloop
 endfacet
 facet normal  0.000000e+00  1.000000e+00  0.000000e+00
   outer loop
     vertex -7.507937e-01  0.000000e+00 -3.285714e-01
     vertex -1.058730e+00  0.000000e+00 -3.444444e-01
     vertex -9.412699e-01  0.000000e+00 -3.285714e-01
   endloop
 endfacet
 facet normal  0.000000e+00  1.000000e+00  0.000000e+00
   outer loop
     vertex  9.095238e-01  0.000000e+00 -3.444444e-01
     vertex -7.507937e-01  0.000000e+00 -3.285714e-01
     vertex  8.682539e-01  0.000000e+00 -3.285714e-01
   endloop
 endfacet
 facet normal  0.000000e+00  1.000000e+00  0.000000e+00
   outer loop
     vertex  9.095238e-01  0.000000e+00 -3.444444e-01
     vertex -1.058730e+00  0.000000e+00 -3.444444e-01
     vertex -7.507937e-01  0.000000e+00 -3.285714e-01
   endloop
 endfacet
 facet normal  0.000000e+00  1.000000e+00  0.000000e+00
   outer loop
     vertex  8.936508e-01  0.000000e+00 -3.285714e-01
     vertex  9.095238e-01  0.000000e+00 -3.444444e-01
     vertex  8.682539e-01  0.000000e+00 -3.285714e-01
   endloop
 endfacet
 facet normal -0.000000e+00  0.000000e+00  1.000000e+00
   outer loop
     vertex -9.412699e-01 -1.587302e-02 -7.460308e-02
     vertex -7.507937e-01 -3.174603e-02 -7.460308e-02
     vertex -7.507937e-01 -1.587302e-02 -7.460308e-02
   endloop
 endfacet
 facet normal  0.000000e+00  0.000000e+00  1.000000e+00
   outer loop
     vertex -9.412699e-01 -1.587302e-02 -7.460308e-02
     vertex -9.412699e-01 -3.174603e-02 -7.460308e-02
     vertex -7.507937e-01 -3.174603e-02 -7.460308e-02
   endloop
 endfacet
 facet normal -1.000000e+00  0.000000e+00  0.000000e+00
   outer loop
     vertex -9.412699e-01  0.000000e+00 -2.102040e-01
     vertex -9.412699e-01 -1.587302e-02 -7.460308e-02
     vertex -9.412699e-01  2.539683e-01 -7.460308e-02
   endloop
 endfacet
 facet normal -1.000000e+00  0.000000e+00  0.000000e+00
   outer loop
     vertex -9.412699e-01  0.000000e+00 -2.102040e-01
     vertex -9.412699e-01  2.539683e-01 -7.460308e-02
     vertex -9.412699e-01  2.539683e-01 -3.285714e-01
   endloop
 endfacet
 facet normal -1.000000e+00  0.000000e+00  0.000000e+00
   outer loop
     vertex -9.412699e-01 -1.587302e-02 -2.102040e-01
     vertex -9.412699e-01 -1.587302e-02 -7.460308e-02
     vertex -9.412699e-01  0.000000e+00 -2.102040e-01
   endloop
 endfacet
 facet normal -1.000000e+00  0.000000e+00  0.000000e+00
   outer loop
     vertex -9.412699e-01  0.000000e+00 -3.285714e-01
     vertex -9.412699e-01  0.000000e+00 -2.102040e-01
     vertex -9.412699e-01  2.539683e-01 -3.285714e-01
   endloop
 endfacet
 facet normal  0.000000e+00  0.000000e+00 -1.000000e+00
   outer loop
     vertex  8.936508e-01  0.000000e+00 -3.285714e-01
     vertex  1.026984e+00  2.539683e-01 -3.285714e-01
     vertex  1.026984e+00 -1.587302e-02 -3.285714e-01
   endloop
 endfacet
 facet normal  0.000000e+00  0.000000e+00 -1.000000e+00
   outer loop
     vertex  8.936508e-01  0.000000e+00 -3.285714e-01
     vertex  8.682539e-01  2.539683e-01 -3.285714e-01
     vertex  1.026984e+00  2.539683e-01 -3.285714e-01
   endloop
 endfacet
 facet normal  0.000000e+00  0.000000e+00 -1.000000e+00
   outer loop
     vertex  8.936508e-01 -1.587302e-02 -3.285714e-01
     vertex  8.936508e-01  0.000000e+00 -3.285714e-01
     vertex  1.026984e+00 -1.587302e-02 -3.285714e-01
   endloop
 endfacet
 facet normal  0.000000e+00  0.000000e+00 -1.000000e+00
   outer loop
     vertex  8.682539e-01  0.000000e+00 -3.285714e-01
     vertex  8.682539e-01  2.539683e-01 -3.285714e-01
     vertex  8.936508e-01  0.000000e+00 -3.285714e-01
   endloop
 endfacet
 facet normal  1.000000e+00  0.000000e+00 -0.000000e+00
   outer loop
     vertex  1.026984e+00 -1.587302e-02 -3.285714e-01
     vertex  1.026984e+00 -1.587302e-02 -7.460308e-02
     vertex  1.026984e+00 -3.174603e-02 -7.460308e-02
   endloop
 endfacet
 facet normal  1.000000e+00  0.000000e+00  0.000000e+00
   outer loop
     vertex  1.026984e+00 -1.587302e-02 -3.285714e-01
     vertex  1.026984e+00 -3.174603e-02 -7.460308e-02
     vertex  1.026984e+00 -3.174603e-02 -3.285714e-01
   endloop
 endfacet
 facet normal  0.000000e+00  0.000000e+00  1.000000e+00
   outer loop
     vertex  1.026984e+00 -1.587302e-02 -7.460308e-02
     vertex  8.682539e-01 -1.587302e-02 -7.460308e-02
     vertex  8.682539e-01 -3.174603e-02 -7.460308e-02
   endloop
 endfacet
 facet normal  0.000000e+00  0.000000e+00  1.000000e+00
   outer loop
     vertex  1.026984e+00 -1.587302e-02 -7.460308e-02
     vertex  8.682539e-01 -3.174603e-02 -7.460308e-02
     vertex  1.026984e+00 -3.174603e-02 -7.460308e-02
   endloop
 endfacet
 facet normal  0.000000e+00  0.000000e+00  1.000000e+00
   outer loop
     vertex  8.682539e-01 -1.587302e-02 -7.460308e-02
     vertex -7.507937e-01 -1.587302e-02 -7.460308e-02
     vertex -7.507937e-01 -3.174603e-02 -7.460308e-02
   endloop
 endfacet
 facet normal  0.000000e+00  0.000000e+00  1.000000e+00
   outer loop
     vertex  8.682539e-01 -1.587302e-02 -7.460308e-02
     vertex -7.507937e-01 -3.174603e-02 -7.460308e-02
     vertex  8.682539e-01 -3.174603e-02 -7.460308e-02
   endloop
 endfacet
 facet normal  0.000000e+00  0.000000e+00 -1.000000e+00
   outer loop
     vertex -7.507937e-01  0.000000e+00 -3.285714e-01
     vertex -9.412699e-01  0.000000e+00 -3.285714e-01
     vertex -9.412699e-01  2.539683e-01 -3.285714e-01
   endloop
 endfacet
 facet normal  0.000000e+00  0.000000e+00 -1.000000e+00
   outer loop
     vertex -7.507937e-01  0.000000e+00 -3.285714e-01
     vertex -9.412699e-01  2.539683e-01 -3.285714e-01
     vertex -7.507937e-01  2.539683e-01 -3.285714e-01
   endloop
 endfacet
 facet normal  0.000000e+00  0.000000e+00 -1.000000e+00
   outer loop
     vertex -7.507937e-01  0.000000e+00 -3.285714e-01
     vertex  8.682539e-01  2.539683e-01 -3.285714e-01
     vertex  8.682539e-01  0.000000e+00 -3.285714e-01
   endloop
 endfacet
 facet normal  0.000000e+00  0.000000e+00 -1.000000e+00
   outer loop
     vertex -7.507937e-01  0.000000e+00 -3.285714e-01
     vertex -7.507937e-01  2.539683e-01 -3.285714e-01
     vertex  8.682539e-01  2.539683e-01 -3.285714e-01
   endloop
 endfacet
 facet normal  0.000000e+00  0.000000e+00  1.000000e+00
   outer loop
     vertex -9.412699e-01 -1.587302e-02 -7.460308e-02
     vertex -7.507937e-01 -1.587302e-02 -7.460308e-02
     vertex -7.507937e-01  2.539683e-01 -7.460308e-02
   endloop
 endfacet
 facet normal  0.000000e+00  0.000000e+00  1.000000e+00
   outer loop
     vertex -9.412699e-01 -1.587302e-02 -7.460308e-02
     vertex -7.507937e-01  2.539683e-01 -7.460308e-02
     vertex -9.412699e-01  2.539683e-01 -7.460308e-02
   endloop
 endfacet
 facet normal  0.000000e+00  1.000000e+00  0.000000e+00
   outer loop
     vertex -9.412699e-01  2.539683e-01 -7.460308e-02
     vertex -7.507937e-01  2.539683e-01 -3.285714e-01
     vertex -9.412699e-01  2.539683e-01 -3.285714e-01
   endloop
 endfacet
 facet normal -0.000000e+00  1.000000e+00  0.000000e+00
   outer loop
     vertex -9.412699e-01  2.539683e-01 -7.460308e-02
     vertex -7.507937e-01  2.539683e-01 -7.460308e-02
     vertex -7.507937e-01  2.539683e-01 -3.285714e-01
   endloop
 endfacet
 facet normal  0.000000e+00  1.000000e+00  0.000000e+00
   outer loop
     vertex  8.682539e-01  2.539683e-01 -7.460308e-02
     vertex  1.026984e+00  2.539683e-01 -3.285714e-01
     vertex  8.682539e-01  2.539683e-01 -3.285714e-01
   endloop
 endfacet
 facet normal -0.000000e+00  1.000000e+00  0.000000e+00
   outer loop
     vertex  8.682539e-01  2.539683e-01 -7.460308e-02
     vertex  1.026984e+00  2.539683e-01 -7.460308e-02
     vertex  1.026984e+00  2.539683e-01 -3.285714e-01
   endloop
 endfacet
 facet normal  1.000000e+00  0.000000e+00  0.000000e+00
   outer loop
     vertex  1.026984e+00 -1.587302e-02 -3.285714e-01
     vertex  1.026984e+00  2.539683e-01 -7.460308e-02
     vertex  1.026984e+00 -1.587302e-02 -7.460308e-02
   endloop
 endfacet
 facet normal  1.000000e+00  0.000000e+00  0.000000e+00
   outer loop
     vertex  1.026984e+00 -1.587302e-02 -3.285714e-01
     vertex  1.026984e+00  2.539683e-01 -3.285714e-01
     vertex  1.026984e+00  2.539683e-01 -7.460308e-02
   endloop
 endfacet
 facet normal  0.000000e+00  0.000000e+00  1.000000e+00
   outer loop
     vertex  1.026984e+00 -1.587302e-02 -7.460308e-02
     vertex  8.682539e-01  2.539683e-01 -7.460308e-02
     vertex  8.682539e-01 -1.587302e-02 -7.460308e-02
   endloop
 endfacet
 facet normal  0.000000e+00 -0.000000e+00  1.000000e+00
   outer loop
     vertex  1.026984e+00 -1.587302e-02 -7.460308e-02
     vertex  1.026984e+00  2.539683e-01 -7.460308e-02
     vertex  8.682539e-01  2.539683e-01 -7.460308e-02
   endloop
 endfacet
 facet normal  0.000000e+00  0.000000e+00  1.000000e+00
   outer loop
     vertex  8.682539e-01 -1.587302e-02 -7.460308e-02
     vertex -7.507937e-01  2.539683e-01 -7.460308e-02
     vertex -7.507937e-01 -1.587302e-02 -7.460308e-02
   endloop
 endfacet
 facet normal  0.000000e+00 -0.000000e+00  1.000000e+00
   outer loop
     vertex  8.682539e-01 -1.587302e-02 -7.460308e-02
     vertex  8.682539e-01  2.539683e-01 -7.460308e-02
     vertex -7.507937e-01  2.539683e-01 -7.460308e-02
   endloop
 endfacet
 facet normal -0.000000e+00  1.000000e+00  0.000000e+00
   outer loop
     vertex -7.507937e-01  2.539683e-01 -7.460308e-02
     vertex  8.682539e-01  2.539683e-01 -7.460308e-02
     vertex  8.682539e-01  2.539683e-01 -3.285714e-01
   endloop
 endfacet
 facet normal  0.000000e+00  1.000000e+00  0.000000e+00
   outer loop
     vertex -7.507937e-01  2.539683e-01 -7.460308e-02
     vertex  8.682539e-01  2.539683e-01 -3.285714e-01
     vertex -7.507937e-01  2.539683e-01 -3.285714e-01
   endloop
 endfacet
endsolid
