solid 
 facet normal -0.000000e+00  0.000000e+00 -1.000000e+00
   outer loop
     vertex  9.194004e-01  1.222223e-01 -3.174603e-02
     vertex  3.740740e-01  2.663147e-02 -3.174603e-02
     vertex  3.740740e-01  1.222223e-01 -3.174603e-02
   endloop
 endfacet
 facet normal  0.000000e+00 -0.000000e+00 -1.000000e+00
   outer loop
     vertex  9.194004e-01  1.222223e-01 -3.174603e-02
     vertex  9.194004e-01  2.663147e-02 -3.174603e-02
     vertex  3.740740e-01  2.663147e-02 -3.174603e-02
   endloop
 endfacet
 facet normal  0.000000e+00 -0.000000e+00 -1.000000e+00
   outer loop
     vertex -6.058202e-01 -4.619048e-01 -3.174603e-02
     vertex -6.058202e-01 -7.864197e-01 -3.174603e-02
     vertex -8.978837e-01 -7.864197e-01 -3.174603e-02
   endloop
 endfacet
 facet normal  0.000000e+00  0.000000e+00 -1.000000e+00
   outer loop
     vertex -8.978837e-01  1.222223e-01 -3.174603e-02
     vertex -6.058202e-01 -2.022927e-01 -3.174603e-02
     vertex -6.058202e-01 -4.619048e-01 -3.174603e-02
   endloop
 endfacet
 facet normal  0.000000e+00  0.000000e+00 -1.000000e+00
   outer loop
     vertex -8.978837e-01  1.222223e-01 -3.174603e-02
     vertex -6.058202e-01 -4.619048e-01 -3.174603e-02
     vertex -8.978837e-01 -7.864197e-01 -3.174603e-02
   endloop
 endfacet
 facet normal  0.000000e+00  0.000000e+00 -1.000000e+00
   outer loop
     vertex  1.075835e-02 -2.022927e-01 -3.174603e-02
     vertex -6.058202e-01 -2.022927e-01 -3.174603e-02
     vertex -8.978837e-01  1.222223e-01 -3.174603e-02
   endloop
 endfacet
 facet normal  0.000000e+00  0.000000e+00 -1.000000e+00
   outer loop
     vertex  3.740740e-01  1.222223e-01 -3.174603e-02
     vertex  1.075835e-02 -2.022927e-01 -3.174603e-02
     vertex -8.978837e-01  1.222223e-01 -3.174603e-02
   endloop
 endfacet
 facet normal  0.000000e+00 -0.000000e+00 -1.000000e+00
   outer loop
     vertex  3.740740e-01  1.222223e-01 -3.174603e-02
     vertex  3.740740e-01  2.663147e-02 -3.174603e-02
     vertex  1.075835e-02 -2.022927e-01 -3.174603e-02
   endloop
 endfacet
 facet normal  0.000000e+00  0.000000e+00 -1.000000e+00
   outer loop
     vertex  9.194004e-01 -2.022927e-01 -3.174603e-02
     vertex  1.075835e-02 -2.022927e-01 -3.174603e-02
     vertex  3.740740e-01  2.663147e-02 -3.174603e-02
   endloop
 endfacet
 facet normal  0.000000e+00  0.000000e+00 -1.000000e+00
   outer loop
     vertex  9.194004e-01  2.663147e-02 -3.174603e-02
     vertex  9.194004e-01 -2.022927e-01 -3.174603e-02
     vertex  3.740740e-01  2.663147e-02 -3.174603e-02
   endloop
 endfacet
 facet normal  0.000000e+00  0.000000e+00 -1.000000e+00
   outer loop
     vertex  9.194004e-01  1.222223e-01 -3.174603e-02
     vertex  9.271605e-01  2.663147e-02 -3.174603e-02
     vertex  9.194004e-01  2.663147e-02 -3.174603e-02
   endloop
 endfacet
 facet normal  0.000000e+00  0.000000e+00 -1.000000e+00
   outer loop
     vertex  9.194004e-01  1.222223e-01 -3.174603e-02
     vertex  3.740740e-01  1.222223e-01 -3.174603e-02
     vertex  3.740740e-01  3.031747e-01 -3.174603e-02
   endloop
 endfacet
 facet normal -0.000000e+00  0.000000e+00 -1.000000e+00
   outer loop
     vertex  9.271605e-01  3.031747e-01 -3.174603e-02
     vertex  9.194004e-01  1.222223e-01 -3.174603e-02
     vertex  3.740740e-01  3.031747e-01 -3.174603e-02
   endloop
 endfacet
 facet normal  0.000000e+00  0.000000e+00 -1.000000e+00
   outer loop
     vertex  9.271605e-01  2.663147e-02 -3.174603e-02
     vertex  9.194004e-01  1.222223e-01 -3.174603e-02
     vertex  9.271605e-01  3.031747e-01 -3.174603e-02
   endloop
 endfacet
 facet normal -1.091057e-17  1.000000e+00  0.000000e+00
   outer loop
     vertex -8.978837e-01  1.222223e-01 -1.587302e-02
     vertex  3.740740e-01  1.222223e-01 -1.587302e-02
     vertex  3.740740e-01  1.222223e-01 -3.174603e-02
   endloop
 endfacet
 facet normal -1.091057e-17  1.000000e+00  0.000000e+00
   outer loop
     vertex -8.978837e-01  1.222223e-01 -1.587302e-02
     vertex  3.740740e-01  1.222223e-01 -3.174603e-02
     vertex -8.978837e-01  1.222223e-01 -3.174603e-02
   endloop
 endfacet
 facet normal  1.000000e+00 -4.849741e-16  0.000000e+00
   outer loop
     vertex  9.194004e-01  2.663147e-02 -1.587302e-02
     vertex  9.194004e-01 -2.022927e-01 -1.587302e-02
     vertex  9.194004e-01 -2.022927e-01 -3.174603e-02
   endloop
 endfacet
 facet normal  1.000000e+00 -4.849741e-16  0.000000e+00
   outer loop
     vertex  9.194004e-01  2.663147e-02 -1.587302e-02
     vertex  9.194004e-01 -2.022927e-01 -3.174603e-02
     vertex  9.194004e-01  2.663147e-02 -3.174603e-02
   endloop
 endfacet
 facet normal -0.000000e+00 -1.000000e+00  0.000000e+00
   outer loop
     vertex  9.194004e-01 -2.022927e-01 -1.587302e-02
     vertex  1.075835e-02 -2.022927e-01 -1.587302e-02
     vertex  1.075835e-02 -2.022927e-01 -3.174603e-02
   endloop
 endfacet
 facet normal  0.000000e+00 -1.000000e+00 -0.000000e+00
   outer loop
     vertex  9.194004e-01 -2.022927e-01 -1.587302e-02
     vertex  1.075835e-02 -2.022927e-01 -3.174603e-02
     vertex  9.194004e-01 -2.022927e-01 -3.174603e-02
   endloop
 endfacet
 facet normal -0.000000e+00 -1.000000e+00  0.000000e+00
   outer loop
     vertex  1.075835e-02 -2.022927e-01 -1.587302e-02
     vertex -6.058202e-01 -2.022927e-01 -1.587302e-02
     vertex -6.058202e-01 -2.022927e-01 -3.174603e-02
   endloop
 endfacet
 facet normal  0.000000e+00 -1.000000e+00 -0.000000e+00
   outer loop
     vertex  1.075835e-02 -2.022927e-01 -1.587302e-02
     vertex -6.058202e-01 -2.022927e-01 -3.174603e-02
     vertex  1.075835e-02 -2.022927e-01 -3.174603e-02
   endloop
 endfacet
 facet normal  1.000000e+00  0.000000e+00  0.000000e+00
   outer loop
     vertex -6.058202e-01 -2.022927e-01 -1.587302e-02
     vertex -6.058202e-01 -4.619048e-01 -1.587302e-02
     vertex -6.058202e-01 -4.619048e-01 -3.174603e-02
   endloop
 endfacet
 facet normal  1.000000e+00  0.000000e+00  0.000000e+00
   outer loop
     vertex -6.058202e-01 -2.022927e-01 -1.587302e-02
     vertex -6.058202e-01 -4.619048e-01 -3.174603e-02
     vertex -6.058202e-01 -2.022927e-01 -3.174603e-02
   endloop
 endfacet
 facet normal  1.000000e+00  0.000000e+00  0.000000e+00
   outer loop
     vertex -6.058202e-01 -4.619048e-01 -1.587302e-02
     vertex -6.058202e-01 -7.864197e-01 -1.587302e-02
     vertex -6.058202e-01 -7.864197e-01 -3.174603e-02
   endloop
 endfacet
 facet normal  1.000000e+00  0.000000e+00  0.000000e+00
   outer loop
     vertex -6.058202e-01 -4.619048e-01 -1.587302e-02
     vertex -6.058202e-01 -7.864197e-01 -3.174603e-02
     vertex -6.058202e-01 -4.619048e-01 -3.174603e-02
   endloop
 endfacet
 facet normal -0.000000e+00 -1.000000e+00  0.000000e+00
   outer loop
     vertex -6.058202e-01 -7.864197e-01 -1.587302e-02
     vertex -8.978837e-01 -7.864197e-01 -1.587302e-02
     vertex -8.978837e-01 -7.864197e-01 -3.174603e-02
   endloop
 endfacet
 facet normal  0.000000e+00 -1.000000e+00 -0.000000e+00
   outer loop
     vertex -6.058202e-01 -7.864197e-01 -1.587302e-02
     vertex -8.978837e-01 -7.864197e-01 -3.174603e-02
     vertex -6.058202e-01 -7.864197e-01 -3.174603e-02
   endloop
 endfacet
 facet normal -1.000000e+00  0.000000e+00  0.000000e+00
   outer loop
     vertex -8.978837e-01 -7.864197e-01 -1.587302e-02
     vertex -8.978837e-01  1.222223e-01 -1.587302e-02
     vertex -8.978837e-01  1.222223e-01 -3.174603e-02
   endloop
 endfacet
 facet normal -1.000000e+00  0.000000e+00  0.000000e+00
   outer loop
     vertex -8.978837e-01 -7.864197e-01 -1.587302e-02
     vertex -8.978837e-01  1.222223e-01 -3.174603e-02
     vertex -8.978837e-01 -7.864197e-01 -3.174603e-02
   endloop
 endfacet
 facet normal -1.000000e+00  3.067721e-16  0.000000e+00
   outer loop
     vertex  3.740740e-01  1.222223e-01 -1.587302e-02
     vertex  3.740740e-01  3.031747e-01 -1.587302e-02
     vertex  3.740740e-01  3.031747e-01 -3.174603e-02
   endloop
 endfacet
 facet normal -1.000000e+00  3.067721e-16  0.000000e+00
   outer loop
     vertex  3.740740e-01  1.222223e-01 -1.587302e-02
     vertex  3.740740e-01  3.031747e-01 -3.174603e-02
     vertex  3.740740e-01  1.222223e-01 -3.174603e-02
   endloop
 endfacet
 facet normal -0.000000e+00  1.000000e+00  0.000000e+00
   outer loop
     vertex  3.740740e-01  3.031747e-01 -1.587302e-02
     vertex  9.271605e-01  3.031747e-01 -1.587302e-02
     vertex  9.271605e-01  3.031747e-01 -3.174603e-02
   endloop
 endfacet
 facet normal  0.000000e+00  1.000000e+00  0.000000e+00
   outer loop
     vertex  3.740740e-01  3.031747e-01 -1.587302e-02
     vertex  9.271605e-01  3.031747e-01 -3.174603e-02
     vertex  3.740740e-01  3.031747e-01 -3.174603e-02
   endloop
 endfacet
 facet normal  1.000000e+00  0.000000e+00  0.000000e+00
   outer loop
     vertex  9.271605e-01  3.031747e-01 -1.587302e-02
     vertex  9.271605e-01  2.663147e-02 -1.587302e-02
     vertex  9.271605e-01  2.663147e-02 -3.174603e-02
   endloop
 endfacet
 facet normal  1.000000e+00  0.000000e+00  0.000000e+00
   outer loop
     vertex  9.271605e-01  3.031747e-01 -1.587302e-02
     vertex  9.271605e-01  2.663147e-02 -3.174603e-02
     vertex  9.271605e-01  3.031747e-01 -3.174603e-02
   endloop
 endfacet
 facet normal -4.470875e-16 -1.000000e+00  0.000000e+00
   outer loop
     vertex  9.271605e-01  2.663147e-02 -1.587302e-02
     vertex  9.194004e-01  2.663147e-02 -1.587302e-02
     vertex  9.194004e-01  2.663147e-02 -3.174603e-02
   endloop
 endfacet
 facet normal -4.470875e-16 -1.000000e+00 -0.000000e+00
   outer loop
     vertex  9.271605e-01  2.663147e-02 -1.587302e-02
     vertex  9.194004e-01  2.663147e-02 -3.174603e-02
     vertex  9.271605e-01  2.663147e-02 -3.174603e-02
   endloop
 endfacet
 facet normal  2.544859e-17  1.000000e+00  0.000000e+00
   outer loop
     vertex  3.740740e-01  1.222223e-01  2.539683e-01
     vertex  9.194004e-01  1.222223e-01  5.714286e-01
     vertex  9.194004e-01  1.222223e-01  2.539683e-01
   endloop
 endfacet
 facet normal -0.000000e+00  1.000000e+00  4.371503e-17
   outer loop
     vertex -8.978837e-01  1.222223e-01  5.714286e-01
     vertex  9.194004e-01  1.222223e-01  5.714286e-01
     vertex  3.740740e-01  1.222223e-01  2.539683e-01
   endloop
 endfacet
 facet normal -1.091057e-17  1.000000e+00  0.000000e+00
   outer loop
     vertex -8.978837e-01  1.222223e-01 -1.587302e-02
     vertex  3.740740e-01  1.222223e-01  2.539683e-01
     vertex  3.740740e-01  1.222223e-01 -1.587302e-02
   endloop
 endfacet
 facet normal -1.091057e-17  1.000000e+00  0.000000e+00
   outer loop
     vertex -8.978837e-01  1.222223e-01 -1.587302e-02
     vertex -8.978837e-01  1.222223e-01  5.714286e-01
     vertex  3.740740e-01  1.222223e-01  2.539683e-01
   endloop
 endfacet
 facet normal  1.000000e+00  0.000000e+00  3.497203e-16
   outer loop
     vertex  9.194004e-01  2.663147e-02  2.539683e-01
     vertex  9.194004e-01  1.222223e-01  5.714286e-01
     vertex  9.194004e-01 -2.022927e-01  5.714286e-01
   endloop
 endfacet
 facet normal  1.000000e+00 -4.849741e-16  0.000000e+00
   outer loop
     vertex  9.194004e-01 -2.022927e-01 -1.587302e-02
     vertex  9.194004e-01  2.663147e-02  2.539683e-01
     vertex  9.194004e-01 -2.022927e-01  5.714286e-01
   endloop
 endfacet
 facet normal  1.000000e+00  1.161433e-15 -0.000000e+00
   outer loop
     vertex  9.194004e-01  1.222223e-01  2.539683e-01
     vertex  9.194004e-01  1.222223e-01  5.714286e-01
     vertex  9.194004e-01  2.663147e-02  2.539683e-01
   endloop
 endfacet
 facet normal  1.000000e+00 -4.849741e-16 -6.235487e-33
   outer loop
     vertex  9.194004e-01  2.663147e-02 -1.587302e-02
     vertex  9.194004e-01  2.663147e-02  2.539683e-01
     vertex  9.194004e-01 -2.022927e-01 -1.587302e-02
   endloop
 endfacet
 facet normal  0.000000e+00 -1.000000e+00  0.000000e+00
   outer loop
     vertex  9.194004e-01 -2.022927e-01 -1.587302e-02
     vertex  1.075835e-02 -2.022927e-01  5.714286e-01
     vertex  1.075835e-02 -2.022927e-01 -1.587302e-02
   endloop
 endfacet
 facet normal  0.000000e+00 -1.000000e+00  0.000000e+00
   outer loop
     vertex  9.194004e-01 -2.022927e-01 -1.587302e-02
     vertex  9.194004e-01 -2.022927e-01  5.714286e-01
     vertex  1.075835e-02 -2.022927e-01  5.714286e-01
   endloop
 endfacet
 facet normal  0.000000e+00 -1.000000e+00  0.000000e+00
   outer loop
     vertex  1.075835e-02 -2.022927e-01 -1.587302e-02
     vertex -6.058202e-01 -2.022927e-01  5.714286e-01
     vertex -6.058202e-01 -2.022927e-01 -1.587302e-02
   endloop
 endfacet
 facet normal  0.000000e+00 -1.000000e+00  0.000000e+00
   outer loop
     vertex  1.075835e-02 -2.022927e-01 -1.587302e-02
     vertex  1.075835e-02 -2.022927e-01  5.714286e-01
     vertex -6.058202e-01 -2.022927e-01  5.714286e-01
   endloop
 endfacet
 facet normal  1.000000e+00  0.000000e+00  0.000000e+00
   outer loop
     vertex -6.058202e-01 -2.022927e-01 -1.587302e-02
     vertex -6.058202e-01 -4.619048e-01  5.714286e-01
     vertex -6.058202e-01 -4.619048e-01 -1.587302e-02
   endloop
 endfacet
 facet normal  1.000000e+00  0.000000e+00 -0.000000e+00
   outer loop
     vertex -6.058202e-01 -2.022927e-01 -1.587302e-02
     vertex -6.058202e-01 -2.022927e-01  5.714286e-01
     vertex -6.058202e-01 -4.619048e-01  5.714286e-01
   endloop
 endfacet
 facet normal  1.000000e+00  0.000000e+00  0.000000e+00
   outer loop
     vertex -6.058202e-01 -4.619048e-01 -1.587302e-02
     vertex -6.058202e-01 -7.864197e-01  5.714286e-01
     vertex -6.058202e-01 -7.864197e-01 -1.587302e-02
   endloop
 endfacet
 facet normal  1.000000e+00  0.000000e+00 -0.000000e+00
   outer loop
     vertex -6.058202e-01 -4.619048e-01 -1.587302e-02
     vertex -6.058202e-01 -4.619048e-01  5.714286e-01
     vertex -6.058202e-01 -7.864197e-01  5.714286e-01
   endloop
 endfacet
 facet normal  0.000000e+00 -1.000000e+00  0.000000e+00
   outer loop
     vertex -6.058202e-01 -7.864197e-01 -1.587302e-02
     vertex -8.978837e-01 -7.864197e-01  5.714286e-01
     vertex -8.978837e-01 -7.864197e-01 -1.587302e-02
   endloop
 endfacet
 facet normal  0.000000e+00 -1.000000e+00  0.000000e+00
   outer loop
     vertex -6.058202e-01 -7.864197e-01 -1.587302e-02
     vertex -6.058202e-01 -7.864197e-01  5.714286e-01
     vertex -8.978837e-01 -7.864197e-01  5.714286e-01
   endloop
 endfacet
 facet normal -1.000000e+00  0.000000e+00  0.000000e+00
   outer loop
     vertex -8.978837e-01 -7.864197e-01 -1.587302e-02
     vertex -8.978837e-01  1.222223e-01  5.714286e-01
     vertex -8.978837e-01  1.222223e-01 -1.587302e-02
   endloop
 endfacet
 facet normal -1.000000e+00  0.000000e+00  0.000000e+00
   outer loop
     vertex -8.978837e-01 -7.864197e-01 -1.587302e-02
     vertex -8.978837e-01 -7.864197e-01  5.714286e-01
     vertex -8.978837e-01  1.222223e-01  5.714286e-01
   endloop
 endfacet
 facet normal -1.000000e+00  3.067721e-16  0.000000e+00
   outer loop
     vertex  3.740740e-01  1.222223e-01 -1.587302e-02
     vertex  3.740740e-01  3.031747e-01  2.539683e-01
     vertex  3.740740e-01  3.031747e-01 -1.587302e-02
   endloop
 endfacet
 facet normal -1.000000e+00  0.000000e+00  2.057178e-16
   outer loop
     vertex  3.740740e-01  1.222223e-01 -1.587302e-02
     vertex  3.740740e-01  1.222223e-01  2.539683e-01
     vertex  3.740740e-01  3.031747e-01  2.539683e-01
   endloop
 endfacet
 facet normal  0.000000e+00  1.000000e+00  0.000000e+00
   outer loop
     vertex  3.740740e-01  3.031747e-01 -1.587302e-02
     vertex  9.271605e-01  3.031747e-01  2.539683e-01
     vertex  9.271605e-01  3.031747e-01 -1.587302e-02
   endloop
 endfacet
 facet normal  0.000000e+00  1.000000e+00  0.000000e+00
   outer loop
     vertex  3.740740e-01  3.031747e-01 -1.587302e-02
     vertex  3.740740e-01  3.031747e-01  2.539683e-01
     vertex  9.271605e-01  3.031747e-01  2.539683e-01
   endloop
 endfacet
 facet normal  1.000000e+00  0.000000e+00  0.000000e+00
   outer loop
     vertex  9.271605e-01  3.031747e-01 -1.587302e-02
     vertex  9.271605e-01  2.663147e-02  2.539683e-01
     vertex  9.271605e-01  2.663147e-02 -1.587302e-02
   endloop
 endfacet
 facet normal  1.000000e+00  0.000000e+00 -0.000000e+00
   outer loop
     vertex  9.271605e-01  3.031747e-01 -1.587302e-02
     vertex  9.271605e-01  3.031747e-01  2.539683e-01
     vertex  9.271605e-01  2.663147e-02  2.539683e-01
   endloop
 endfacet
 facet normal -4.470875e-16 -1.000000e+00 -1.285736e-17
   outer loop
     vertex  9.271605e-01  2.663147e-02 -1.587302e-02
     vertex  9.194004e-01  2.663147e-02  2.539683e-01
     vertex  9.194004e-01  2.663147e-02 -1.587302e-02
   endloop
 endfacet
 facet normal  0.000000e+00 -1.000000e+00  0.000000e+00
   outer loop
     vertex  9.271605e-01  2.663147e-02 -1.587302e-02
     vertex  9.271605e-01  2.663147e-02  2.539683e-01
     vertex  9.194004e-01  2.663147e-02  2.539683e-01
   endloop
 endfacet
 facet normal  0.000000e+00  0.000000e+00  1.000000e+00
   outer loop
     vertex  9.194004e-01  1.222223e-01  2.539683e-01
     vertex  9.194004e-01  2.663147e-02  2.539683e-01
     vertex  9.271605e-01  2.663147e-02  2.539683e-01
   endloop
 endfacet
 facet normal  0.000000e+00  0.000000e+00  1.000000e+00
   outer loop
     vertex  9.194004e-01  1.222223e-01  2.539683e-01
     vertex  3.740740e-01  3.031747e-01  2.539683e-01
     vertex  3.740740e-01  1.222223e-01  2.539683e-01
   endloop
 endfacet
 facet normal  0.000000e+00  0.000000e+00  1.000000e+00
   outer loop
     vertex  9.271605e-01  3.031747e-01  2.539683e-01
     vertex  3.740740e-01  3.031747e-01  2.539683e-01
     vertex  9.194004e-01  1.222223e-01  2.539683e-01
   endloop
 endfacet
 facet normal  0.000000e+00 -0.000000e+00  1.000000e+00
   outer loop
     vertex  9.271605e-01  2.663147e-02  2.539683e-01
     vertex  9.271605e-01  3.031747e-01  2.539683e-01
     vertex  9.194004e-01  1.222223e-01  2.539683e-01
   endloop
 endfacet
 facet normal  0.000000e+00  0.000000e+00  1.000000e+00
   outer loop
     vertex -6.058202e-01 -4.619048e-01  5.714286e-01
     vertex -8.978837e-01 -7.864197e-01  5.714286e-01
     vertex -6.058202e-01 -7.864197e-01  5.714286e-01
   endloop
 endfacet
 facet normal  0.000000e+00  0.000000e+00  1.000000e+00
   outer loop
     vertex -8.978837e-01  1.222223e-01  5.714286e-01
     vertex -6.058202e-01 -4.619048e-01  5.714286e-01
     vertex -6.058202e-01 -2.022927e-01  5.714286e-01
   endloop
 endfacet
 facet normal  0.000000e+00  0.000000e+00  1.000000e+00
   outer loop
     vertex -8.978837e-01  1.222223e-01  5.714286e-01
     vertex -8.978837e-01 -7.864197e-01  5.714286e-01
     vertex -6.058202e-01 -4.619048e-01  5.714286e-01
   endloop
 endfacet
 facet normal  0.000000e+00  0.000000e+00  1.000000e+00
   outer loop
     vertex  1.075835e-02 -2.022927e-01  5.714286e-01
     vertex -8.978837e-01  1.222223e-01  5.714286e-01
     vertex -6.058202e-01 -2.022927e-01  5.714286e-01
   endloop
 endfacet
 facet normal  0.000000e+00  0.000000e+00  1.000000e+00
   outer loop
     vertex  9.194004e-01  1.222223e-01  5.714286e-01
     vertex  1.075835e-02 -2.022927e-01  5.714286e-01
     vertex  9.194004e-01 -2.022927e-01  5.714286e-01
   endloop
 endfacet
 facet normal  0.000000e+00  0.000000e+00  1.000000e+00
   outer loop
     vertex  9.194004e-01  1.222223e-01  5.714286e-01
     vertex -8.978837e-01  1.222223e-01  5.714286e-01
     vertex  1.075835e-02 -2.022927e-01  5.714286e-01
   endloop
 endfacet
endsolid
