solid 
 facet normal -0.000000e+00  0.000000e+00 -1.000000e+00
   outer loop
     vertex  3.447972e-01 -1.587302e-02 -3.455026e-01
     vertex -5.370371e-01 -1.269842e-01 -3.455026e-01
     vertex -5.370371e-01 -1.587302e-02 -3.455026e-01
   endloop
 endfacet
 facet normal  0.000000e+00 -0.000000e+00 -1.000000e+00
   outer loop
     vertex  3.447972e-01 -1.587302e-02 -3.455026e-01
     vertex  3.447972e-01 -1.269842e-01 -3.455026e-01
     vertex -5.370371e-01 -1.269842e-01 -3.455026e-01
   endloop
 endfacet
 facet normal -1.000000e+00  0.000000e+00  0.000000e+00
   outer loop
     vertex -5.370371e-01 -1.587302e-02 -3.455026e-01
     vertex -5.370371e-01 -1.269842e-01  3.246914e-01
     vertex -5.370371e-01 -1.587302e-02  3.246914e-01
   endloop
 endfacet
 facet normal -1.000000e+00  0.000000e+00  0.000000e+00
   outer loop
     vertex -5.370371e-01 -1.587302e-02 -3.455026e-01
     vertex -5.370371e-01 -1.269842e-01 -3.455026e-01
     vertex -5.370371e-01 -1.269842e-01  3.246914e-01
   endloop
 endfacet
 facet normal  1.000000e+00  0.000000e+00  0.000000e+00
   outer loop
     vertex  3.447972e-01 -1.587302e-02  3.246914e-01
     vertex  3.447972e-01 -1.269842e-01 -3.455026e-01
     vertex  3.447972e-01 -1.587302e-02 -3.455026e-01
   endloop
 endfacet
 facet normal  1.000000e+00  0.000000e+00  0.000000e+00
   outer loop
     vertex  3.447972e-01 -1.587302e-02  3.246914e-01
     vertex  3.447972e-01 -1.269842e-01  3.246914e-01
     vertex  3.447972e-01 -1.269842e-01 -3.455026e-01
   endloop
 endfacet
 facet normal  0.000000e+00  0.000000e+00 -1.000000e+00
   outer loop
     vertex  3.447972e-01 -1.587302e-02 -3.455026e-01
     vertex -5.370371e-01 -1.587302e-02 -3.455026e-01
     vertex -5.370371e-01  0.000000e+00 -3.455026e-01
   endloop
 endfacet
 facet normal  0.000000e+00  0.000000e+00 -1.000000e+00
   outer loop
     vertex  3.447972e-01 -1.587302e-02 -3.455026e-01
     vertex -5.370371e-01  0.000000e+00 -3.455026e-01
     vertex  3.447972e-01  0.000000e+00 -3.455026e-01
   endloop
 endfacet
 facet normal  0.000000e+00 -1.000000e+00 -0.000000e+00
   outer loop
     vertex  3.447972e-01 -1.269842e-01  3.246914e-01
     vertex -5.370371e-01 -1.269842e-01 -3.455026e-01
     vertex  3.447972e-01 -1.269842e-01 -3.455026e-01
   endloop
 endfacet
 facet normal -0.000000e+00 -1.000000e+00  0.000000e+00
   outer loop
     vertex  3.447972e-01 -1.269842e-01  3.246914e-01
     vertex -5.370371e-01 -1.269842e-01  3.246914e-01
     vertex -5.370371e-01 -1.269842e-01 -3.455026e-01
   endloop
 endfacet
 facet normal -0.000000e+00  0.000000e+00  1.000000e+00
   outer loop
     vertex -5.370371e-01 -1.587302e-02  3.246914e-01
     vertex  3.447972e-01 -1.269842e-01  3.246914e-01
     vertex  3.447972e-01 -1.587302e-02  3.246914e-01
   endloop
 endfacet
 facet normal  0.000000e+00  0.000000e+00  1.000000e+00
   outer loop
     vertex -5.370371e-01 -1.587302e-02  3.246914e-01
     vertex -5.370371e-01 -1.269842e-01  3.246914e-01
     vertex  3.447972e-01 -1.269842e-01  3.246914e-01
   endloop
 endfacet
 facet normal -1.000000e+00  0.000000e+00  0.000000e+00
   outer loop
     vertex -5.370371e-01 -1.587302e-02 -3.455026e-01
     vertex -5.370371e-01 -1.587302e-02  3.246914e-01
     vertex -5.370371e-01  0.000000e+00  3.246914e-01
   endloop
 endfacet
 facet normal -1.000000e+00  0.000000e+00  0.000000e+00
   outer loop
     vertex -5.370371e-01 -1.587302e-02 -3.455026e-01
     vertex -5.370371e-01  0.000000e+00  3.246914e-01
     vertex -5.370371e-01  0.000000e+00 -3.455026e-01
   endloop
 endfacet
 facet normal  1.000000e+00  0.000000e+00  0.000000e+00
   outer loop
     vertex  3.447972e-01 -1.587302e-02  3.246914e-01
     vertex  3.447972e-01 -1.587302e-02 -3.455026e-01
     vertex  3.447972e-01  0.000000e+00 -3.455026e-01
   endloop
 endfacet
 facet normal  1.000000e+00 -0.000000e+00  0.000000e+00
   outer loop
     vertex  3.447972e-01 -1.587302e-02  3.246914e-01
     vertex  3.447972e-01  0.000000e+00 -3.455026e-01
     vertex  3.447972e-01  0.000000e+00  3.246914e-01
   endloop
 endfacet
 facet normal  0.000000e+00  1.000000e+00  0.000000e+00
   outer loop
     vertex  3.447972e-01 -3.469447e-18  3.246914e-01
     vertex  3.447972e-01 -3.469447e-18 -3.455026e-01
     vertex -5.370371e-01 -3.469447e-18 -3.455026e-01
   endloop
 endfacet
 facet normal  0.000000e+00  1.000000e+00  0.000000e+00
   outer loop
     vertex  3.447972e-01 -3.469447e-18  3.246914e-01
     vertex -5.370371e-01 -3.469447e-18 -3.455026e-01
     vertex -5.370371e-01 -3.469447e-18  3.246914e-01
   endloop
 endfacet
 facet normal  0.000000e+00  0.000000e+00  1.000000e+00
   outer loop
     vertex -5.370371e-01 -1.587302e-02  3.246914e-01
     vertex  3.447972e-01 -1.587302e-02  3.246914e-01
     vertex  3.447972e-01  0.000000e+00  3.246914e-01
   endloop
 endfacet
 facet normal  0.000000e+00  0.000000e+00  1.000000e+00
   outer loop
     vertex -5.370371e-01 -1.587302e-02  3.246914e-01
     vertex  3.447972e-01  0.000000e+00  3.246914e-01
     vertex -5.370371e-01  0.000000e+00  3.246914e-01
   endloop
 endfacet
endsolid
