solid 
 facet normal  8.720511e-01  0.000000e+00  4.894149e-01
   outer loop
     vertex  9.251375e-02 -1.587302e-02  3.957294e-02
     vertex  1.055556e-01 -2.857143e-01  1.633467e-02
     vertex  1.055556e-01 -1.587302e-02  1.633467e-02
   endloop
 endfacet
 facet normal  8.720511e-01  0.000000e+00  4.894149e-01
   outer loop
     vertex  9.251375e-02 -1.587302e-02  3.957294e-02
     vertex  9.251375e-02 -2.857143e-01  3.957294e-02
     vertex  1.055556e-01 -2.857143e-01  1.633467e-02
   endloop
 endfacet
 facet normal  7.932783e-01  0.000000e+00  6.088592e-01
   outer loop
     vertex  7.628897e-02 -1.587302e-02  6.071209e-02
     vertex  7.628897e-02 -2.857143e-01  6.071209e-02
     vertex  9.251375e-02 -2.857143e-01  3.957294e-02
   endloop
 endfacet
 facet normal  7.932783e-01  0.000000e+00  6.088592e-01
   outer loop
     vertex  7.628897e-02 -1.587302e-02  6.071209e-02
     vertex  9.251375e-02 -2.857143e-01  3.957294e-02
     vertex  9.251375e-02 -1.587302e-02  3.957294e-02
   endloop
 endfacet
 facet normal  6.982655e-01  0.000000e+00  7.158388e-01
   outer loop
     vertex  5.721342e-02 -1.587302e-02  7.931935e-02
     vertex  5.721342e-02 -2.857143e-01  7.931935e-02
     vertex  7.628897e-02 -2.857143e-01  6.071209e-02
   endloop
 endfacet
 facet normal  6.982655e-01  0.000000e+00  7.158388e-01
   outer loop
     vertex  5.721342e-02 -1.587302e-02  7.931935e-02
     vertex  7.628897e-02 -2.857143e-01  6.071209e-02
     vertex  7.628897e-02 -1.587302e-02  6.071209e-02
   endloop
 endfacet
 facet normal  5.889578e-01  0.000000e+00  8.081638e-01
   outer loop
     vertex  3.567761e-02 -1.587302e-02  9.501379e-02
     vertex  3.567761e-02 -2.857143e-01  9.501379e-02
     vertex  5.721342e-02 -2.857143e-01  7.931935e-02
   endloop
 endfacet
 facet normal  5.889578e-01  0.000000e+00  8.081638e-01
   outer loop
     vertex  3.567761e-02 -1.587302e-02  9.501379e-02
     vertex  5.721342e-02 -2.857143e-01  7.931935e-02
     vertex  5.721342e-02 -1.587302e-02  7.931935e-02
   endloop
 endfacet
 facet normal  4.675929e-01  0.000000e+00  8.839440e-01
   outer loop
     vertex  1.212242e-02 -1.587302e-02  1.074741e-01
     vertex  3.567761e-02 -2.857143e-01  9.501379e-02
     vertex  3.567761e-02 -1.587302e-02  9.501379e-02
   endloop
 endfacet
 facet normal  4.675929e-01  0.000000e+00  8.839440e-01
   outer loop
     vertex  1.212242e-02 -1.587302e-02  1.074741e-01
     vertex  1.212242e-02 -2.857143e-01  1.074741e-01
     vertex  3.567761e-02 -2.857143e-01  9.501379e-02
   endloop
 endfacet
 facet normal  3.366553e-01  0.000000e+00  9.416279e-01
   outer loop
     vertex -1.296993e-02 -1.587302e-02  1.164453e-01
     vertex  1.212242e-02 -2.857143e-01  1.074741e-01
     vertex  1.212242e-02 -1.587302e-02  1.074741e-01
   endloop
 endfacet
 facet normal  3.366553e-01  0.000000e+00  9.416279e-01
   outer loop
     vertex -1.296993e-02 -1.587302e-02  1.164453e-01
     vertex -1.296993e-02 -2.857143e-01  1.164453e-01
     vertex  1.212242e-02 -2.857143e-01  1.074741e-01
   endloop
 endfacet
 facet normal  1.988258e-01  0.000000e+00  9.800349e-01
   outer loop
     vertex -3.908573e-02 -1.587302e-02  1.217435e-01
     vertex -1.296993e-02 -2.857143e-01  1.164453e-01
     vertex -1.296993e-02 -1.587302e-02  1.164453e-01
   endloop
 endfacet
 facet normal  1.988258e-01  0.000000e+00  9.800349e-01
   outer loop
     vertex -3.908573e-02 -1.587302e-02  1.217435e-01
     vertex -3.908573e-02 -2.857143e-01  1.217435e-01
     vertex -1.296993e-02 -2.857143e-01  1.164453e-01
   endloop
 endfacet
 facet normal  5.692582e-02  0.000000e+00  9.983784e-01
   outer loop
     vertex -6.569035e-02 -1.587302e-02  1.232605e-01
     vertex -3.908573e-02 -2.857143e-01  1.217435e-01
     vertex -3.908573e-02 -1.587302e-02  1.217435e-01
   endloop
 endfacet
 facet normal  5.692582e-02  0.000000e+00  9.983784e-01
   outer loop
     vertex -6.569035e-02 -1.587302e-02  1.232605e-01
     vertex -6.569035e-02 -2.857143e-01  1.232605e-01
     vertex -3.908573e-02 -2.857143e-01  1.217435e-01
   endloop
 endfacet
 facet normal -8.613952e-02  0.000000e+00  9.962831e-01
   outer loop
     vertex -6.569035e-02 -1.587302e-02  1.232605e-01
     vertex -9.223913e-02 -2.857143e-01  1.209651e-01
     vertex -6.569035e-02 -2.857143e-01  1.232605e-01
   endloop
 endfacet
 facet normal -8.613952e-02  0.000000e+00  9.962831e-01
   outer loop
     vertex -9.223913e-02 -1.587302e-02  1.209651e-01
     vertex -9.223913e-02 -2.857143e-01  1.209651e-01
     vertex -6.569035e-02 -1.587302e-02  1.232605e-01
   endloop
 endfacet
 facet normal -2.274414e-01  0.000000e+00  9.737918e-01
   outer loop
     vertex -1.181886e-01 -1.587302e-02  1.149042e-01
     vertex -9.223913e-02 -2.857143e-01  1.209651e-01
     vertex -9.223913e-02 -1.587302e-02  1.209651e-01
   endloop
 endfacet
 facet normal -2.274414e-01  0.000000e+00  9.737918e-01
   outer loop
     vertex -1.181886e-01 -1.587302e-02  1.149042e-01
     vertex -1.181886e-01 -2.857143e-01  1.149042e-01
     vertex -9.223913e-02 -2.857143e-01  1.209651e-01
   endloop
 endfacet
 facet normal -3.640871e-01  0.000000e+00  9.313649e-01
   outer loop
     vertex -1.430074e-01 -1.587302e-02  1.052021e-01
     vertex -1.181886e-01 -2.857143e-01  1.149042e-01
     vertex -1.181886e-01 -1.587302e-02  1.149042e-01
   endloop
 endfacet
 facet normal -3.640871e-01  0.000000e+00  9.313649e-01
   outer loop
     vertex -1.430074e-01 -1.587302e-02  1.052021e-01
     vertex -1.430074e-01 -2.857143e-01  1.052021e-01
     vertex -1.181886e-01 -2.857143e-01  1.149042e-01
   endloop
 endfacet
 facet normal -4.932791e-01  0.000000e+00  8.698711e-01
   outer loop
     vertex -1.661876e-01 -1.587302e-02  9.205729e-02
     vertex -1.430074e-01 -2.857143e-01  1.052021e-01
     vertex -1.430074e-01 -1.587302e-02  1.052021e-01
   endloop
 endfacet
 facet normal -4.932791e-01  0.000000e+00  8.698711e-01
   outer loop
     vertex -1.661876e-01 -1.587302e-02  9.205729e-02
     vertex -1.661876e-01 -2.857143e-01  9.205729e-02
     vertex -1.430074e-01 -2.857143e-01  1.052021e-01
   endloop
 endfacet
 facet normal -6.123728e-01  0.000000e+00  7.905692e-01
   outer loop
     vertex -1.872546e-01 -1.587302e-02  7.573888e-02
     vertex -1.661876e-01 -2.857143e-01  9.205729e-02
     vertex -1.661876e-01 -1.587302e-02  9.205729e-02
   endloop
 endfacet
 facet normal -6.123728e-01  0.000000e+00  7.905692e-01
   outer loop
     vertex -1.872546e-01 -1.587302e-02  7.573888e-02
     vertex -1.872546e-01 -2.857143e-01  7.573888e-02
     vertex -1.661876e-01 -2.857143e-01  9.205729e-02
   endloop
 endfacet
 facet normal -7.189298e-01  0.000000e+00  6.950827e-01
   outer loop
     vertex -2.057770e-01 -1.587302e-02  5.658096e-02
     vertex -1.872546e-01 -2.857143e-01  7.573888e-02
     vertex -1.872546e-01 -1.587302e-02  7.573888e-02
   endloop
 endfacet
 facet normal -7.189298e-01  0.000000e+00  6.950827e-01
   outer loop
     vertex -2.057770e-01 -1.587302e-02  5.658096e-02
     vertex -2.057770e-01 -2.857143e-01  5.658096e-02
     vertex -1.872546e-01 -2.857143e-01  7.573888e-02
   endloop
 endfacet
 facet normal -8.107689e-01  0.000000e+00  5.853664e-01
   outer loop
     vertex -2.213757e-01 -1.587302e-02  3.497573e-02
     vertex -2.057770e-01 -2.857143e-01  5.658096e-02
     vertex -2.057770e-01 -1.587302e-02  5.658096e-02
   endloop
 endfacet
 facet normal -8.107689e-01  0.000000e+00  5.853664e-01
   outer loop
     vertex -2.213757e-01 -1.587302e-02  3.497573e-02
     vertex -2.213757e-01 -2.857143e-01  3.497573e-02
     vertex -2.057770e-01 -2.857143e-01  5.658096e-02
   endloop
 endfacet
 facet normal -8.860098e-01  0.000000e+00  4.636664e-01
   outer loop
     vertex -2.337314e-01 -1.587302e-02  1.136549e-02
     vertex -2.213757e-01 -2.857143e-01  3.497573e-02
     vertex -2.213757e-01 -1.587302e-02  3.497573e-02
   endloop
 endfacet
 facet normal -8.860098e-01  0.000000e+00  4.636664e-01
   outer loop
     vertex -2.337314e-01 -1.587302e-02  1.136549e-02
     vertex -2.337314e-01 -2.857143e-01  1.136549e-02
     vertex -2.213757e-01 -2.857143e-01  3.497573e-02
   endloop
 endfacet
 facet normal -9.431123e-01  0.000000e+00  3.324742e-01
   outer loop
     vertex -2.337314e-01 -1.587302e-02  1.136549e-02
     vertex -2.425912e-01 -2.857143e-01 -1.376641e-02
     vertex -2.337314e-01 -2.857143e-01  1.136549e-02
   endloop
 endfacet
 facet normal -9.431123e-01  0.000000e+00  3.324742e-01
   outer loop
     vertex -2.425912e-01 -1.587302e-02 -1.376641e-02
     vertex -2.425912e-01 -2.857143e-01 -1.376641e-02
     vertex -2.337314e-01 -1.587302e-02  1.136549e-02
   endloop
 endfacet
 facet normal -9.809073e-01  0.000000e+00  1.944756e-01
   outer loop
     vertex -2.425912e-01 -1.587302e-02 -1.376641e-02
     vertex -2.477735e-01 -2.857143e-01 -3.990546e-02
     vertex -2.425912e-01 -2.857143e-01 -1.376641e-02
   endloop
 endfacet
 facet normal -9.809073e-01  0.000000e+00  1.944756e-01
   outer loop
     vertex -2.477735e-01 -1.587302e-02 -3.990546e-02
     vertex -2.477735e-01 -2.857143e-01 -3.990546e-02
     vertex -2.425912e-01 -1.587302e-02 -1.376641e-02
   endloop
 endfacet
 facet normal -9.986212e-01  0.000000e+00  5.249570e-02
   outer loop
     vertex -2.491724e-01 -1.587302e-02 -6.651655e-02
     vertex -2.491724e-01 -2.857143e-01 -6.651655e-02
     vertex -2.477735e-01 -2.857143e-01 -3.990546e-02
   endloop
 endfacet
 facet normal -9.986212e-01  0.000000e+00  5.249570e-02
   outer loop
     vertex -2.491724e-01 -1.587302e-02 -6.651655e-02
     vertex -2.477735e-01 -2.857143e-01 -3.990546e-02
     vertex -2.477735e-01 -1.587302e-02 -3.990546e-02
   endloop
 endfacet
 facet normal -9.958911e-01  0.000000e+00 -9.055893e-02
   outer loop
     vertex -2.467592e-01 -1.587302e-02 -9.305489e-02
     vertex -2.491724e-01 -2.857143e-01 -6.651655e-02
     vertex -2.491724e-01 -1.587302e-02 -6.651655e-02
   endloop
 endfacet
 facet normal -9.958911e-01 -0.000000e+00 -9.055893e-02
   outer loop
     vertex -2.467592e-01 -1.587302e-02 -9.305489e-02
     vertex -2.467592e-01 -2.857143e-01 -9.305489e-02
     vertex -2.491724e-01 -2.857143e-01 -6.651655e-02
   endloop
 endfacet
 facet normal -9.727731e-01 -0.000000e+00 -2.317596e-01
   outer loop
     vertex -2.405833e-01 -1.587302e-02 -1.189772e-01
     vertex -2.405833e-01 -2.857143e-01 -1.189772e-01
     vertex -2.467592e-01 -2.857143e-01 -9.305489e-02
   endloop
 endfacet
 facet normal -9.727731e-01  0.000000e+00 -2.317596e-01
   outer loop
     vertex -2.405833e-01 -1.587302e-02 -1.189772e-01
     vertex -2.467592e-01 -2.857143e-01 -9.305489e-02
     vertex -2.467592e-01 -1.587302e-02 -9.305489e-02
   endloop
 endfacet
 facet normal -9.297404e-01 -0.000000e+00 -3.682157e-01
   outer loop
     vertex -2.307712e-01 -1.587302e-02 -1.437527e-01
     vertex -2.307712e-01 -2.857143e-01 -1.437527e-01
     vertex -2.405833e-01 -2.857143e-01 -1.189772e-01
   endloop
 endfacet
 facet normal -9.297404e-01  0.000000e+00 -3.682157e-01
   outer loop
     vertex -2.307712e-01 -1.587302e-02 -1.437527e-01
     vertex -2.405833e-01 -2.857143e-01 -1.189772e-01
     vertex -2.405833e-01 -1.587302e-02 -1.189772e-01
   endloop
 endfacet
 facet normal -8.676740e-01 -0.000000e+00 -4.971337e-01
   outer loop
     vertex -2.175236e-01 -1.587302e-02 -1.668744e-01
     vertex -2.175236e-01 -2.857143e-01 -1.668744e-01
     vertex -2.307712e-01 -2.857143e-01 -1.437527e-01
   endloop
 endfacet
 facet normal -8.676740e-01  0.000000e+00 -4.971337e-01
   outer loop
     vertex -2.175236e-01 -1.587302e-02 -1.668744e-01
     vertex -2.307712e-01 -2.857143e-01 -1.437527e-01
     vertex -2.307712e-01 -1.587302e-02 -1.437527e-01
   endloop
 endfacet
 facet normal -7.878444e-01 -0.000000e+00 -6.158743e-01
   outer loop
     vertex -2.011119e-01 -1.587302e-02 -1.878687e-01
     vertex -2.011119e-01 -2.857143e-01 -1.878687e-01
     vertex -2.175236e-01 -2.857143e-01 -1.668744e-01
   endloop
 endfacet
 facet normal -7.878444e-01  0.000000e+00 -6.158743e-01
   outer loop
     vertex -2.011119e-01 -1.587302e-02 -1.878687e-01
     vertex -2.175236e-01 -2.857143e-01 -1.668744e-01
     vertex -2.175236e-01 -1.587302e-02 -1.668744e-01
   endloop
 endfacet
 facet normal -6.918861e-01 -0.000000e+00 -7.220067e-01
   outer loop
     vertex -1.818720e-01 -1.587302e-02 -2.063060e-01
     vertex -1.818720e-01 -2.857143e-01 -2.063060e-01
     vertex -2.011119e-01 -2.857143e-01 -1.878687e-01
   endloop
 endfacet
 facet normal -5.817634e-01 -0.000000e+00 -8.133580e-01
   outer loop
     vertex -1.818720e-01 -1.587302e-02 -2.063060e-01
     vertex -1.601978e-01 -2.857143e-01 -2.218087e-01
     vertex -1.818720e-01 -2.857143e-01 -2.063060e-01
   endloop
 endfacet
 facet normal -6.918861e-01  0.000000e+00 -7.220067e-01
   outer loop
     vertex -1.818720e-01 -1.587302e-02 -2.063060e-01
     vertex -2.011119e-01 -2.857143e-01 -1.878687e-01
     vertex -2.011119e-01 -1.587302e-02 -1.878687e-01
   endloop
 endfacet
 facet normal -5.817634e-01 -0.000000e+00 -8.133580e-01
   outer loop
     vertex -1.601978e-01 -1.587302e-02 -2.218087e-01
     vertex -1.601978e-01 -2.857143e-01 -2.218087e-01
     vertex -1.818720e-01 -1.587302e-02 -2.063060e-01
   endloop
 endfacet
 facet normal -4.597308e-01 -0.000000e+00 -8.880583e-01
   outer loop
     vertex -1.365330e-01 -1.587302e-02 -2.340595e-01
     vertex -1.365330e-01 -2.857143e-01 -2.340595e-01
     vertex -1.601978e-01 -2.857143e-01 -2.218087e-01
   endloop
 endfacet
 facet normal -3.282866e-01 -0.000000e+00 -9.445782e-01
   outer loop
     vertex -1.365330e-01 -1.587302e-02 -2.340595e-01
     vertex -1.113620e-01 -2.857143e-01 -2.428077e-01
     vertex -1.365330e-01 -2.857143e-01 -2.340595e-01
   endloop
 endfacet
 facet normal -4.597308e-01  0.000000e+00 -8.880583e-01
   outer loop
     vertex -1.365330e-01 -1.587302e-02 -2.340595e-01
     vertex -1.601978e-01 -2.857143e-01 -2.218087e-01
     vertex -1.601978e-01 -1.587302e-02 -2.218087e-01
   endloop
 endfacet
 facet normal -1.901217e-01 -0.000000e+00 -9.817605e-01
   outer loop
     vertex -1.113620e-01 -1.587302e-02 -2.428077e-01
     vertex -8.520021e-02 -2.857143e-01 -2.478740e-01
     vertex -1.113620e-01 -2.857143e-01 -2.428077e-01
   endloop
 endfacet
 facet normal -3.282866e-01 -0.000000e+00 -9.445782e-01
   outer loop
     vertex -1.113620e-01 -1.587302e-02 -2.428077e-01
     vertex -1.113620e-01 -2.857143e-01 -2.428077e-01
     vertex -1.365330e-01 -1.587302e-02 -2.340595e-01
   endloop
 endfacet
 facet normal -4.806454e-02 -0.000000e+00 -9.988442e-01
   outer loop
     vertex -8.520021e-02 -1.587302e-02 -2.478740e-01
     vertex -5.858318e-02 -2.857143e-01 -2.491548e-01
     vertex -8.520021e-02 -2.857143e-01 -2.478740e-01
   endloop
 endfacet
 facet normal -1.901217e-01 -0.000000e+00 -9.817605e-01
   outer loop
     vertex -8.520021e-02 -1.587302e-02 -2.478740e-01
     vertex -8.520021e-02 -2.857143e-01 -2.478740e-01
     vertex -1.113620e-01 -1.587302e-02 -2.428077e-01
   endloop
 endfacet
 facet normal -4.806454e-02 -0.000000e+00 -9.988442e-01
   outer loop
     vertex -5.858318e-02 -1.587302e-02 -2.491548e-01
     vertex -5.858318e-02 -2.857143e-01 -2.491548e-01
     vertex -8.520021e-02 -1.587302e-02 -2.478740e-01
   endloop
 endfacet
 facet normal  9.497657e-02  0.000000e+00 -9.954795e-01
   outer loop
     vertex -3.205581e-02 -1.587302e-02 -2.466239e-01
     vertex -5.858318e-02 -2.857143e-01 -2.491548e-01
     vertex -5.858318e-02 -1.587302e-02 -2.491548e-01
   endloop
 endfacet
 facet normal  9.497657e-02  0.000000e+00 -9.954795e-01
   outer loop
     vertex -3.205581e-02 -1.587302e-02 -2.466239e-01
     vertex -3.205581e-02 -2.857143e-01 -2.466239e-01
     vertex -5.858318e-02 -2.857143e-01 -2.491548e-01
   endloop
 endfacet
 facet normal  2.360733e-01  0.000000e+00 -9.717352e-01
   outer loop
     vertex -3.205581e-02 -1.587302e-02 -2.466239e-01
     vertex -6.161174e-03 -2.857143e-01 -2.403331e-01
     vertex -3.205581e-02 -2.857143e-01 -2.466239e-01
   endloop
 endfacet
 facet normal  2.360733e-01  0.000000e+00 -9.717352e-01
   outer loop
     vertex -6.161174e-03 -1.587302e-02 -2.403331e-01
     vertex -6.161174e-03 -2.857143e-01 -2.403331e-01
     vertex -3.205581e-02 -1.587302e-02 -2.466239e-01
   endloop
 endfacet
 facet normal  3.723371e-01  0.000000e+00 -9.280975e-01
   outer loop
     vertex  1.857061e-02 -1.587302e-02 -2.304111e-01
     vertex -6.161174e-03 -2.857143e-01 -2.403331e-01
     vertex -6.161174e-03 -1.587302e-02 -2.403331e-01
   endloop
 endfacet
 facet normal  3.723371e-01  0.000000e+00 -9.280975e-01
   outer loop
     vertex  1.857061e-02 -1.587302e-02 -2.304111e-01
     vertex  1.857061e-02 -2.857143e-01 -2.304111e-01
     vertex -6.161174e-03 -2.857143e-01 -2.403331e-01
   endloop
 endfacet
 facet normal  5.009785e-01  0.000000e+00 -8.654598e-01
   outer loop
     vertex  4.163324e-02 -1.587302e-02 -2.170611e-01
     vertex  1.857061e-02 -2.857143e-01 -2.304111e-01
     vertex  1.857061e-02 -1.587302e-02 -2.304111e-01
   endloop
 endfacet
 facet normal  5.009785e-01  0.000000e+00 -8.654598e-01
   outer loop
     vertex  4.163324e-02 -1.587302e-02 -2.170611e-01
     vertex  4.163324e-02 -2.857143e-01 -2.170611e-01
     vertex  1.857061e-02 -2.857143e-01 -2.304111e-01
   endloop
 endfacet
 facet normal  6.193637e-01  0.000000e+00 -7.851042e-01
   outer loop
     vertex  6.255456e-02 -1.587302e-02 -2.005564e-01
     vertex  4.163324e-02 -2.857143e-01 -2.170611e-01
     vertex  4.163324e-02 -1.587302e-02 -2.170611e-01
   endloop
 endfacet
 facet normal  6.193637e-01  0.000000e+00 -7.851042e-01
   outer loop
     vertex  6.255456e-02 -1.587302e-02 -2.005564e-01
     vertex  6.255456e-02 -2.857143e-01 -2.005564e-01
     vertex  4.163324e-02 -2.857143e-01 -2.170611e-01
   endloop
 endfacet
 facet normal  7.250693e-01  0.000000e+00 -6.886759e-01
   outer loop
     vertex  6.255456e-02 -1.587302e-02 -2.005564e-01
     vertex  8.090628e-02 -2.857143e-01 -1.812349e-01
     vertex  6.255456e-02 -2.857143e-01 -2.005564e-01
   endloop
 endfacet
 facet normal  7.250693e-01  0.000000e+00 -6.886759e-01
   outer loop
     vertex  8.090628e-02 -1.587302e-02 -1.812349e-01
     vertex  8.090628e-02 -2.857143e-01 -1.812349e-01
     vertex  6.255456e-02 -1.587302e-02 -2.005564e-01
   endloop
 endfacet
 facet normal  8.159312e-01  0.000000e+00 -5.781490e-01
   outer loop
     vertex  9.631270e-02 -1.587302e-02 -1.594921e-01
     vertex  8.090628e-02 -2.857143e-01 -1.812349e-01
     vertex  8.090628e-02 -1.587302e-02 -1.812349e-01
   endloop
 endfacet
 facet normal  8.159312e-01  0.000000e+00 -5.781490e-01
   outer loop
     vertex  9.631270e-02 -1.587302e-02 -1.594921e-01
     vertex  9.631270e-02 -2.857143e-01 -1.594921e-01
     vertex  8.090628e-02 -2.857143e-01 -1.812349e-01
   endloop
 endfacet
 facet normal  8.900893e-01  0.000000e+00 -4.557862e-01
   outer loop
     vertex  1.084584e-01 -1.587302e-02 -1.357731e-01
     vertex  9.631270e-02 -2.857143e-01 -1.594921e-01
     vertex  9.631270e-02 -1.587302e-02 -1.594921e-01
   endloop
 endfacet
 facet normal  8.900893e-01  0.000000e+00 -4.557862e-01
   outer loop
     vertex  1.084584e-01 -1.587302e-02 -1.357731e-01
     vertex  1.084584e-01 -2.857143e-01 -1.357731e-01
     vertex  9.631270e-02 -2.857143e-01 -1.594921e-01
   endloop
 endfacet
 facet normal  9.984891e-01  0.000000e+00  5.494945e-02
   outer loop
     vertex  1.221558e-01  2.539683e-01 -4.252591e-02
     vertex  1.232805e-01  2.539683e-01 -6.296293e-02
     vertex  1.232805e-01  2.857143e-01 -6.296293e-02
   endloop
 endfacet
 facet normal  9.972645e-01  1.165753e-02  7.299035e-02
   outer loop
     vertex  1.212957e-01  2.857143e-01 -3.584567e-02
     vertex  1.221558e-01  2.539683e-01 -4.252591e-02
     vertex  1.232805e-01  2.857143e-01 -6.296293e-02
   endloop
 endfacet
 facet normal  9.863994e-01 -7.825577e-03  1.641797e-01
   outer loop
     vertex  1.187952e-01  2.539683e-01 -2.233572e-02
     vertex  1.221558e-01  2.539683e-01 -4.252591e-02
     vertex  1.212957e-01  2.857143e-01 -3.584567e-02
   endloop
 endfacet
 facet normal  9.759564e-01  1.564716e-02  2.174036e-01
   outer loop
     vertex  1.153839e-01  2.857143e-01 -9.306376e-03
     vertex  1.187952e-01  2.539683e-01 -2.233572e-02
     vertex  1.212957e-01  2.857143e-01 -3.584567e-02
   endloop
 endfacet
 facet normal  9.624256e-01 -7.979953e-03  2.714283e-01
   outer loop
     vertex  1.132395e-01  2.539683e-01 -2.636220e-03
     vertex  1.187952e-01  2.539683e-01 -2.233572e-02
     vertex  1.153839e-01  2.857143e-01 -9.306376e-03
   endloop
 endfacet
 facet normal  9.339492e-01  1.196619e-02  3.572053e-01
   outer loop
     vertex  1.056708e-01  2.857143e-01  1.608933e-02
     vertex  1.132395e-01  2.539683e-01 -2.636220e-03
     vertex  1.153839e-01  2.857143e-01 -9.306376e-03
   endloop
 endfacet
 facet normal  9.268584e-01 -4.629695e-04  3.754108e-01
   outer loop
     vertex  1.055556e-01  2.539683e-01  1.633467e-02
     vertex  1.132395e-01  2.539683e-01 -2.636220e-03
     vertex  1.056708e-01  2.857143e-01  1.608933e-02
   endloop
 endfacet
 facet normal  8.720492e-01  6.170571e-04  4.894178e-01
   outer loop
     vertex  9.236365e-02  2.857143e-01  3.980017e-02
     vertex  1.055556e-01  2.539683e-01  1.633467e-02
     vertex  1.056708e-01  2.857143e-01  1.608933e-02
   endloop
 endfacet
 facet normal  8.717304e-01  6.466740e-05  4.899858e-01
   outer loop
     vertex  9.251375e-02 -1.587302e-02  3.957294e-02
     vertex  1.055556e-01  2.539683e-01  1.633467e-02
     vertex  9.236365e-02  2.857143e-01  3.980017e-02
   endloop
 endfacet
 facet normal  8.720511e-01 -6.785041e-17  4.894149e-01
   outer loop
     vertex  9.251375e-02 -1.587302e-02  3.957294e-02
     vertex  1.055556e-01 -1.587302e-02  1.633467e-02
     vertex  1.055556e-01  2.539683e-01  1.633467e-02
   endloop
 endfacet
 facet normal  7.914965e-01  1.915228e-04  6.111737e-01
   outer loop
     vertex  7.628897e-02 -1.587302e-02  6.071209e-02
     vertex  9.236365e-02  2.857143e-01  3.980017e-02
     vertex  7.574597e-02  2.857143e-01  6.132079e-02
   endloop
 endfacet
 facet normal  7.932783e-01 -6.394023e-05  6.088592e-01
   outer loop
     vertex  7.628897e-02 -1.587302e-02  6.071209e-02
     vertex  9.251375e-02 -1.587302e-02  3.957294e-02
     vertex  9.236365e-02  2.857143e-01  3.980017e-02
   endloop
 endfacet
 facet normal  6.940742e-01  3.125472e-04  7.199034e-01
   outer loop
     vertex  5.721342e-02 -1.587302e-02  7.931935e-02
     vertex  7.574597e-02  2.857143e-01  6.132079e-02
     vertex  5.617194e-02  2.857143e-01  8.019252e-02
   endloop
 endfacet
 facet normal  6.982655e-01 -1.875869e-04  7.158388e-01
   outer loop
     vertex  5.721342e-02 -1.587302e-02  7.931935e-02
     vertex  7.628897e-02 -1.587302e-02  6.071209e-02
     vertex  7.574597e-02  2.857143e-01  6.132079e-02
   endloop
 endfacet
 facet normal  5.818589e-01  4.283263e-04  8.132897e-01
   outer loop
     vertex  3.567761e-02 -1.587302e-02  9.501379e-02
     vertex  5.617194e-02  2.857143e-01  8.019252e-02
     vertex  3.405877e-02  2.857143e-01  9.601314e-02
   endloop
 endfacet
 facet normal  5.889578e-01 -3.059888e-04  8.081638e-01
   outer loop
     vertex  3.567761e-02 -1.587302e-02  9.501379e-02
     vertex  5.721342e-02 -1.587302e-02  7.931935e-02
     vertex  5.617194e-02  2.857143e-01  8.019252e-02
   endloop
 endfacet
 facet normal  4.572423e-01  5.388590e-04  8.893420e-01
   outer loop
     vertex  1.212242e-02 -1.587302e-02  1.074741e-01
     vertex  3.405877e-02  2.857143e-01  9.601314e-02
     vertex  9.877740e-03  2.857143e-01  1.084455e-01
   endloop
 endfacet
 facet normal  4.675928e-01 -4.191448e-04  8.839439e-01
   outer loop
     vertex  1.212242e-02 -1.587302e-02  1.074741e-01
     vertex  3.567761e-02 -1.587302e-02  9.501379e-02
     vertex  3.405877e-02  2.857143e-01  9.601314e-02
   endloop
 endfacet
 facet normal  3.228803e-01  6.441444e-04  9.464396e-01
   outer loop
     vertex -1.296993e-02 -1.587302e-02  1.164453e-01
     vertex  9.877740e-03  2.857143e-01  1.084455e-01
     vertex -1.585576e-02  2.857143e-01  1.172245e-01
   endloop
 endfacet
 facet normal  3.366553e-01 -5.270540e-04  9.416278e-01
   outer loop
     vertex -1.296993e-02 -1.587302e-02  1.164453e-01
     vertex  1.212242e-02 -1.587302e-02  1.074741e-01
     vertex  9.877740e-03  2.857143e-01  1.084455e-01
   endloop
 endfacet
 facet normal  1.816368e-01  7.441817e-04  9.833654e-01
   outer loop
     vertex -3.908573e-02 -1.587302e-02  1.217435e-01
     vertex -1.585576e-02  2.857143e-01  1.172245e-01
     vertex -4.259326e-02  2.857143e-01  1.221632e-01
   endloop
 endfacet
 facet normal  1.988257e-01 -6.297155e-04  9.800347e-01
   outer loop
     vertex -3.908573e-02 -1.587302e-02  1.217435e-01
     vertex -1.296993e-02 -1.587302e-02  1.164453e-01
     vertex -1.585576e-02  2.857143e-01  1.172245e-01
   endloop
 endfacet
 facet normal  3.652201e-02  8.389699e-04  9.993325e-01
   outer loop
     vertex -6.569035e-02 -1.587302e-02  1.232605e-01
     vertex -4.259326e-02  2.857143e-01  1.221632e-01
     vertex -6.976491e-02  2.857143e-01  1.231562e-01
   endloop
 endfacet
 facet normal  5.692580e-02 -7.271284e-04  9.983781e-01
   outer loop
     vertex -6.569035e-02 -1.587302e-02  1.232605e-01
     vertex -3.908573e-02 -1.587302e-02  1.217435e-01
     vertex -4.259326e-02  2.857143e-01  1.221632e-01
   endloop
 endfacet
 facet normal -1.093712e-01  9.285083e-04  9.940005e-01
   outer loop
     vertex -9.223913e-02 -1.587302e-02  1.209651e-01
     vertex -6.976491e-02  2.857143e-01  1.231562e-01
     vertex -9.679159e-02  2.857143e-01  1.201824e-01
   endloop
 endfacet
 facet normal -8.613949e-02 -8.192918e-04  9.962827e-01
   outer loop
     vertex -9.223913e-02 -1.587302e-02  1.209651e-01
     vertex -6.569035e-02 -1.587302e-02  1.232605e-01
     vertex -6.976491e-02  2.857143e-01  1.231562e-01
   endloop
 endfacet
 facet normal -2.529333e-01  1.012796e-03  9.674832e-01
   outer loop
     vertex -1.181886e-01 -1.587302e-02  1.149042e-01
     vertex -9.679159e-02  2.857143e-01  1.201824e-01
     vertex -1.230973e-01  2.857143e-01  1.133052e-01
   endloop
 endfacet
 facet normal -2.274413e-01 -9.062050e-04  9.737914e-01
   outer loop
     vertex -1.181886e-01 -1.587302e-02  1.149042e-01
     vertex -9.223913e-02 -1.587302e-02  1.209651e-01
     vertex -9.679159e-02  2.857143e-01  1.201824e-01
   endloop
 endfacet
 facet normal -3.911045e-01  1.091833e-03  9.203456e-01
   outer loop
     vertex -1.430074e-01 -1.587302e-02  1.052021e-01
     vertex -1.230973e-01  2.857143e-01  1.133052e-01
     vertex -1.481213e-01  2.857143e-01  1.026712e-01
   endloop
 endfacet
 facet normal -3.640869e-01 -9.878673e-04  9.313645e-01
   outer loop
     vertex -1.430074e-01 -1.587302e-02  1.052021e-01
     vertex -1.181886e-01 -1.587302e-02  1.149042e-01
     vertex -1.230973e-01  2.857143e-01  1.133052e-01
   endloop
 endfacet
 facet normal -5.209400e-01  1.165617e-03  8.535925e-01
   outer loop
     vertex -1.661876e-01 -1.587302e-02  9.205729e-02
     vertex -1.481213e-01  2.857143e-01  1.026712e-01
     vertex -1.713303e-01  2.857143e-01  8.850691e-02
   endloop
 endfacet
 facet normal -4.932789e-01 -1.064278e-03  8.698706e-01
   outer loop
     vertex -1.661876e-01 -1.587302e-02  9.205729e-02
     vertex -1.430074e-01 -1.587302e-02  1.052021e-01
     vertex -1.481213e-01  2.857143e-01  1.026712e-01
   endloop
 endfacet
 facet normal -6.396725e-01  1.234149e-03  7.686466e-01
   outer loop
     vertex -1.872546e-01 -1.587302e-02  7.573888e-02
     vertex -1.713303e-01  2.857143e-01  8.850691e-02
     vertex -1.922297e-01  2.857143e-01  7.111433e-02
   endloop
 endfacet
 facet normal -6.123724e-01 -1.135436e-03  7.905687e-01
   outer loop
     vertex -1.872546e-01 -1.587302e-02  7.573888e-02
     vertex -1.661876e-01 -1.587302e-02  9.205729e-02
     vertex -1.713303e-01  2.857143e-01  8.850691e-02
   endloop
 endfacet
 facet normal -7.447716e-01  1.297428e-03  6.673182e-01
   outer loop
     vertex -2.057770e-01 -1.587302e-02  5.658096e-02
     vertex -1.922297e-01  2.857143e-01  7.111433e-02
     vertex -2.103739e-01  2.857143e-01  5.086414e-02
   endloop
 endfacet
 facet normal -7.189293e-01 -1.201342e-03  6.950822e-01
   outer loop
     vertex -2.057770e-01 -1.587302e-02  5.658096e-02
     vertex -1.872546e-01 -1.587302e-02  7.573888e-02
     vertex -1.922297e-01  2.857143e-01  7.111433e-02
   endloop
 endfacet
 facet normal -8.339971e-01  1.355453e-03  5.517672e-01
   outer loop
     vertex -2.213757e-01 -1.587302e-02  3.497573e-02
     vertex -2.103739e-01  2.857143e-01  5.086414e-02
     vertex -2.253764e-01  2.857143e-01  2.818791e-02
   endloop
 endfacet
 facet normal -8.107683e-01 -1.261994e-03  5.853659e-01
   outer loop
     vertex -2.213757e-01 -1.587302e-02  3.497573e-02
     vertex -2.057770e-01 -1.587302e-02  5.658096e-02
     vertex -2.103739e-01  2.857143e-01  5.086414e-02
   endloop
 endfacet
 facet normal -9.054473e-01  1.408224e-03  4.244563e-01
   outer loop
     vertex -2.337314e-01 -1.587302e-02  1.136549e-02
     vertex -2.253764e-01  2.857143e-01  2.818791e-02
     vertex -2.369173e-01  2.857143e-01  3.568963e-03
   endloop
 endfacet
 facet normal -8.860091e-01 -1.317392e-03  4.636660e-01
   outer loop
     vertex -2.337314e-01 -1.587302e-02  1.136549e-02
     vertex -2.213757e-01 -1.587302e-02  3.497573e-02
     vertex -2.253764e-01  2.857143e-01  2.818791e-02
   endloop
 endfacet
 facet normal -9.575996e-01  1.455740e-03  2.880988e-01
   outer loop
     vertex -2.425912e-01 -1.587302e-02 -1.376641e-02
     vertex -2.369173e-01  2.857143e-01  3.568963e-03
     vertex -2.447506e-01  2.857143e-01 -2.246800e-02
   endloop
 endfacet
 facet normal -9.431115e-01 -1.367535e-03  3.324739e-01
   outer loop
     vertex -2.425912e-01 -1.587302e-02 -1.376641e-02
     vertex -2.337314e-01 -1.587302e-02  1.136549e-02
     vertex -2.369173e-01  2.857143e-01  3.568963e-03
   endloop
 endfacet
 facet normal -9.893423e-01  1.498001e-03  1.456010e-01
   outer loop
     vertex -2.477735e-01 -1.587302e-02 -3.990546e-02
     vertex -2.447506e-01  2.857143e-01 -2.246800e-02
     vertex -2.487095e-01  2.857143e-01 -4.936803e-02
   endloop
 endfacet
 facet normal -9.809064e-01 -1.412424e-03  1.944754e-01
   outer loop
     vertex -2.477735e-01 -1.587302e-02 -3.990546e-02
     vertex -2.425912e-01 -1.587302e-02 -1.376641e-02
     vertex -2.447506e-01  2.857143e-01 -2.246800e-02
   endloop
 endfacet
 facet normal -9.999988e-01  1.535007e-03  2.039464e-15
   outer loop
     vertex -2.491724e-01 -1.587302e-02 -6.651655e-02
     vertex -2.487095e-01  2.857143e-01 -4.936803e-02
     vertex -2.487095e-01  2.857143e-01 -7.655782e-02
   endloop
 endfacet
 facet normal -9.986201e-01 -1.452057e-03  5.249564e-02
   outer loop
     vertex -2.491724e-01 -1.587302e-02 -6.651655e-02
     vertex -2.477735e-01 -1.587302e-02 -3.990546e-02
     vertex -2.487095e-01  2.857143e-01 -4.936803e-02
   endloop
 endfacet
 facet normal -9.893422e-01  1.566757e-03 -1.456010e-01
   outer loop
     vertex -2.467592e-01 -1.587302e-02 -9.305489e-02
     vertex -2.487095e-01  2.857143e-01 -7.655782e-02
     vertex -2.447506e-01  2.857143e-01 -1.034579e-01
   endloop
 endfacet
 facet normal -9.958900e-01 -1.486435e-03 -9.055883e-02
   outer loop
     vertex -2.467592e-01 -1.587302e-02 -9.305489e-02
     vertex -2.491724e-01 -1.587302e-02 -6.651655e-02
     vertex -2.487095e-01  2.857143e-01 -7.655782e-02
   endloop
 endfacet
 facet normal -9.575994e-01  1.593251e-03 -2.880987e-01
   outer loop
     vertex -2.405833e-01 -1.587302e-02 -1.189772e-01
     vertex -2.447506e-01  2.857143e-01 -1.034579e-01
     vertex -2.369173e-01  2.857143e-01 -1.294948e-01
   endloop
 endfacet
 facet normal -9.727720e-01 -1.515557e-03 -2.317594e-01
   outer loop
     vertex -2.405833e-01 -1.587302e-02 -1.189772e-01
     vertex -2.467592e-01 -1.587302e-02 -9.305489e-02
     vertex -2.447506e-01  2.857143e-01 -1.034579e-01
   endloop
 endfacet
 facet normal -9.054471e-01  1.614488e-03 -4.244561e-01
   outer loop
     vertex -2.307712e-01 -1.587302e-02 -1.437527e-01
     vertex -2.369173e-01  2.857143e-01 -1.294948e-01
     vertex -2.253764e-01  2.857143e-01 -1.541138e-01
   endloop
 endfacet
 facet normal -9.297393e-01 -1.539423e-03 -3.682153e-01
   outer loop
     vertex -2.307712e-01 -1.587302e-02 -1.437527e-01
     vertex -2.405833e-01 -1.587302e-02 -1.189772e-01
     vertex -2.369173e-01  2.857143e-01 -1.294948e-01
   endloop
 endfacet
 facet normal -8.676729e-01 -1.558033e-03 -4.971331e-01
   outer loop
     vertex -2.175236e-01 -1.587302e-02 -1.668744e-01
     vertex -2.307712e-01 -1.587302e-02 -1.437527e-01
     vertex -2.253764e-01  2.857143e-01 -1.541138e-01
   endloop
 endfacet
 facet normal -8.339967e-01  1.630470e-03 -5.517670e-01
   outer loop
     vertex -2.175236e-01 -1.587302e-02 -1.668744e-01
     vertex -2.253764e-01  2.857143e-01 -1.541138e-01
     vertex -2.103739e-01  2.857143e-01 -1.767900e-01
   endloop
 endfacet
 facet normal -7.878435e-01 -1.571386e-03 -6.158735e-01
   outer loop
     vertex -2.011119e-01 -1.587302e-02 -1.878687e-01
     vertex -2.175236e-01 -1.587302e-02 -1.668744e-01
     vertex -2.103739e-01  2.857143e-01 -1.767900e-01
   endloop
 endfacet
 facet normal -7.447712e-01  1.641194e-03 -6.673179e-01
   outer loop
     vertex -2.011119e-01 -1.587302e-02 -1.878687e-01
     vertex -2.103739e-01  2.857143e-01 -1.767900e-01
     vertex -1.922297e-01  2.857143e-01 -1.970402e-01
   endloop
 endfacet
 facet normal -6.918852e-01 -1.579482e-03 -7.220058e-01
   outer loop
     vertex -1.818720e-01 -1.587302e-02 -2.063060e-01
     vertex -2.011119e-01 -1.587302e-02 -1.878687e-01
     vertex -1.922297e-01  2.857143e-01 -1.970402e-01
   endloop
 endfacet
 facet normal -6.396722e-01  1.646663e-03 -7.686461e-01
   outer loop
     vertex -1.818720e-01 -1.587302e-02 -2.063060e-01
     vertex -1.922297e-01  2.857143e-01 -1.970402e-01
     vertex -1.713303e-01  2.857143e-01 -2.144328e-01
   endloop
 endfacet
 facet normal -5.817627e-01 -1.582322e-03 -8.133570e-01
   outer loop
     vertex -1.601978e-01 -1.587302e-02 -2.218087e-01
     vertex -1.818720e-01 -1.587302e-02 -2.063060e-01
     vertex -1.713303e-01  2.857143e-01 -2.144328e-01
   endloop
 endfacet
 facet normal -5.209396e-01  1.646874e-03 -8.535919e-01
   outer loop
     vertex -1.601978e-01 -1.587302e-02 -2.218087e-01
     vertex -1.713303e-01  2.857143e-01 -2.144328e-01
     vertex -1.481213e-01  2.857143e-01 -2.285970e-01
   endloop
 endfacet
 facet normal -4.597303e-01 -1.579905e-03 -8.880572e-01
   outer loop
     vertex -1.365330e-01 -1.587302e-02 -2.340595e-01
     vertex -1.601978e-01 -1.587302e-02 -2.218087e-01
     vertex -1.481213e-01  2.857143e-01 -2.285970e-01
   endloop
 endfacet
 facet normal -3.911042e-01  1.641829e-03 -9.203449e-01
   outer loop
     vertex -1.365330e-01 -1.587302e-02 -2.340595e-01
     vertex -1.481213e-01  2.857143e-01 -2.285970e-01
     vertex -1.230973e-01  2.857143e-01 -2.392311e-01
   endloop
 endfacet
 facet normal -3.282862e-01 -1.572232e-03 -9.445770e-01
   outer loop
     vertex -1.113620e-01 -1.587302e-02 -2.428077e-01
     vertex -1.365330e-01 -1.587302e-02 -2.340595e-01
     vertex -1.230973e-01  2.857143e-01 -2.392311e-01
   endloop
 endfacet
 facet normal -2.529330e-01  1.631527e-03 -9.674824e-01
   outer loop
     vertex -1.113620e-01 -1.587302e-02 -2.428077e-01
     vertex -1.230973e-01  2.857143e-01 -2.392311e-01
     vertex -9.679159e-02  2.857143e-01 -2.461083e-01
   endloop
 endfacet
 facet normal -1.901214e-01 -1.559302e-03 -9.817593e-01
   outer loop
     vertex -8.520021e-02 -1.587302e-02 -2.478740e-01
     vertex -1.113620e-01 -1.587302e-02 -2.428077e-01
     vertex -9.679159e-02  2.857143e-01 -2.461083e-01
   endloop
 endfacet
 facet normal -1.093711e-01  1.615969e-03 -9.939997e-01
   outer loop
     vertex -8.520021e-02 -1.587302e-02 -2.478740e-01
     vertex -9.679159e-02  2.857143e-01 -2.461083e-01
     vertex -6.976491e-02  2.857143e-01 -2.490821e-01
   endloop
 endfacet
 facet normal -4.806449e-02 -1.541115e-03 -9.988430e-01
   outer loop
     vertex -5.858318e-02 -1.587302e-02 -2.491548e-01
     vertex -8.520021e-02 -1.587302e-02 -2.478740e-01
     vertex -6.976491e-02  2.857143e-01 -2.490821e-01
   endloop
 endfacet
 facet normal  3.652198e-02  1.595154e-03 -9.993316e-01
   outer loop
     vertex -5.858318e-02 -1.587302e-02 -2.491548e-01
     vertex -6.976491e-02  2.857143e-01 -2.490821e-01
     vertex -4.259326e-02  2.857143e-01 -2.480890e-01
   endloop
 endfacet
 facet normal  9.497646e-02 -1.517672e-03 -9.954784e-01
   outer loop
     vertex -3.205581e-02 -1.587302e-02 -2.466239e-01
     vertex -5.858318e-02 -1.587302e-02 -2.491548e-01
     vertex -4.259326e-02  2.857143e-01 -2.480890e-01
   endloop
 endfacet
 facet normal  1.816366e-01  1.569083e-03 -9.833645e-01
   outer loop
     vertex -3.205581e-02 -1.587302e-02 -2.466239e-01
     vertex -4.259326e-02  2.857143e-01 -2.480890e-01
     vertex -1.585576e-02  2.857143e-01 -2.431504e-01
   endloop
 endfacet
 facet normal  2.360730e-01 -1.488973e-03 -9.717342e-01
   outer loop
     vertex -6.161174e-03 -1.587302e-02 -2.403331e-01
     vertex -3.205581e-02 -1.587302e-02 -2.466239e-01
     vertex -1.585576e-02  2.857143e-01 -2.431504e-01
   endloop
 endfacet
 facet normal  3.228800e-01  1.537756e-03 -9.464387e-01
   outer loop
     vertex -6.161174e-03 -1.587302e-02 -2.403331e-01
     vertex -1.585576e-02  2.857143e-01 -2.431504e-01
     vertex  9.877740e-03  2.857143e-01 -2.343713e-01
   endloop
 endfacet
 facet normal  4.572418e-01  1.501173e-03 -8.893411e-01
   outer loop
     vertex  1.857061e-02 -1.587302e-02 -2.304111e-01
     vertex  9.877740e-03  2.857143e-01 -2.343713e-01
     vertex  3.405877e-02  2.857143e-01 -2.219390e-01
   endloop
 endfacet
 facet normal  3.723367e-01 -1.455018e-03 -9.280966e-01
   outer loop
     vertex  1.857061e-02 -1.587302e-02 -2.304111e-01
     vertex -6.161174e-03 -1.587302e-02 -2.403331e-01
     vertex  9.877740e-03  2.857143e-01 -2.343713e-01
   endloop
 endfacet
 facet normal  5.818583e-01  1.459335e-03 -8.132889e-01
   outer loop
     vertex  4.163324e-02 -1.587302e-02 -2.170611e-01
     vertex  3.405877e-02  2.857143e-01 -2.219390e-01
     vertex  5.617194e-02  2.857143e-01 -2.061184e-01
   endloop
 endfacet
 facet normal  5.009780e-01 -1.415808e-03 -8.654589e-01
   outer loop
     vertex  4.163324e-02 -1.587302e-02 -2.170611e-01
     vertex  1.857061e-02 -1.587302e-02 -2.304111e-01
     vertex  3.405877e-02  2.857143e-01 -2.219390e-01
   endloop
 endfacet
 facet normal  6.940735e-01  1.412242e-03 -7.199028e-01
   outer loop
     vertex  6.255456e-02 -1.587302e-02 -2.005564e-01
     vertex  5.617194e-02  2.857143e-01 -2.061184e-01
     vertex  7.574597e-02  2.857143e-01 -1.872466e-01
   endloop
 endfacet
 facet normal  6.193631e-01 -1.371342e-03 -7.851035e-01
   outer loop
     vertex  6.255456e-02 -1.587302e-02 -2.005564e-01
     vertex  4.163324e-02 -1.587302e-02 -2.170611e-01
     vertex  5.617194e-02  2.857143e-01 -2.061184e-01
   endloop
 endfacet
 facet normal  7.914958e-01  1.359894e-03 -6.111731e-01
   outer loop
     vertex  8.090628e-02 -1.587302e-02 -1.812349e-01
     vertex  7.574597e-02  2.857143e-01 -1.872466e-01
     vertex  9.236365e-02  2.857143e-01 -1.657260e-01
   endloop
 endfacet
 facet normal  7.250686e-01 -1.321621e-03 -6.886753e-01
   outer loop
     vertex  8.090628e-02 -1.587302e-02 -1.812349e-01
     vertex  6.255456e-02 -1.587302e-02 -2.005564e-01
     vertex  7.574597e-02  2.857143e-01 -1.872466e-01
   endloop
 endfacet
 facet normal  8.720487e-01  1.302292e-03 -4.894174e-01
   outer loop
     vertex  9.631270e-02 -1.587302e-02 -1.594921e-01
     vertex  9.236365e-02  2.857143e-01 -1.657260e-01
     vertex  1.056708e-01  2.857143e-01 -1.420152e-01
   endloop
 endfacet
 facet normal  8.159305e-01 -1.266646e-03 -5.781486e-01
   outer loop
     vertex  9.631270e-02 -1.587302e-02 -1.594921e-01
     vertex  8.090628e-02 -1.587302e-02 -1.812349e-01
     vertex  9.236365e-02  2.857143e-01 -1.657260e-01
   endloop
 endfacet
 facet normal  9.061265e-01 -3.604492e-03 -4.229915e-01
   outer loop
     vertex  9.631270e-02 -1.587302e-02 -1.594921e-01
     vertex  1.056708e-01  2.857143e-01 -1.420152e-01
     vertex  1.084584e-01  2.539683e-01 -1.357731e-01
   endloop
 endfacet
 facet normal  9.339514e-01  1.177385e-02 -3.572061e-01
   outer loop
     vertex  1.153839e-01  2.857143e-01 -1.166195e-01
     vertex  1.084584e-01  2.539683e-01 -1.357731e-01
     vertex  1.056708e-01  2.857143e-01 -1.420152e-01
   endloop
 endfacet
 facet normal  9.444760e-01 -7.849782e-03 -3.284866e-01
   outer loop
     vertex  1.166434e-01  2.539683e-01 -1.122394e-01
     vertex  1.084584e-01  2.539683e-01 -1.357731e-01
     vertex  1.153839e-01  2.857143e-01 -1.166195e-01
   endloop
 endfacet
 facet normal  8.900893e-01  4.419471e-18 -4.557862e-01
   outer loop
     vertex  1.084584e-01 -1.587302e-02 -1.357731e-01
     vertex  9.631270e-02 -1.587302e-02 -1.594921e-01
     vertex  1.084584e-01  2.539683e-01 -1.357731e-01
   endloop
 endfacet
 facet normal  9.760387e-01  8.726558e-03 -2.174219e-01
   outer loop
     vertex  1.212957e-01  2.857143e-01 -9.008018e-02
     vertex  1.166434e-01  2.539683e-01 -1.122394e-01
     vertex  1.153839e-01  2.857143e-01 -1.166195e-01
   endloop
 endfacet
 facet normal  9.798926e-01 -4.363485e-03 -1.994778e-01
   outer loop
     vertex  1.216137e-01  2.539683e-01 -8.782363e-02
     vertex  1.166434e-01  2.539683e-01 -1.122394e-01
     vertex  1.212957e-01  2.857143e-01 -9.008018e-02
   endloop
 endfacet
 facet normal  9.973208e-01  4.801749e-03 -7.299447e-02
   outer loop
     vertex  1.232805e-01  2.857143e-01 -6.296293e-02
     vertex  1.216137e-01  2.539683e-01 -8.782363e-02
     vertex  1.212957e-01  2.857143e-01 -9.008018e-02
   endloop
 endfacet
 facet normal  9.977602e-01  0.000000e+00 -6.689232e-02
   outer loop
     vertex  1.232805e-01  2.539683e-01 -6.296293e-02
     vertex  1.216137e-01  2.539683e-01 -8.782363e-02
     vertex  1.232805e-01  2.857143e-01 -6.296293e-02
   endloop
 endfacet
 facet normal -6.612708e-01  0.000000e+00  7.501473e-01
   outer loop
     vertex  9.352747e-02 -2.857143e-01 -1.489351e-01
     vertex  1.084584e-01 -2.857143e-01 -1.357731e-01
     vertex  1.084584e-01 -1.587302e-02 -1.357731e-01
   endloop
 endfacet
 facet normal -6.612708e-01 -1.715853e-16  7.501473e-01
   outer loop
     vertex  9.352747e-02  2.539683e-01 -1.489351e-01
     vertex  1.084584e-01 -1.587302e-02 -1.357731e-01
     vertex  1.084584e-01  2.539683e-01 -1.357731e-01
   endloop
 endfacet
 facet normal -6.612708e-01  2.486705e-17  7.501473e-01
   outer loop
     vertex  9.352747e-02  2.539683e-01 -1.489351e-01
     vertex  9.352747e-02 -2.857143e-01 -1.489351e-01
     vertex  1.084584e-01 -1.587302e-02 -1.357731e-01
   endloop
 endfacet
 facet normal -5.133183e-01  7.919902e-17  8.581983e-01
   outer loop
     vertex  7.644587e-02  2.539683e-01 -1.591522e-01
     vertex  7.644587e-02 -2.857143e-01 -1.591522e-01
     vertex  9.352747e-02 -2.857143e-01 -1.489351e-01
   endloop
 endfacet
 facet normal -5.133183e-01 -1.009325e-17  8.581983e-01
   outer loop
     vertex  7.644587e-02  2.539683e-01 -1.591522e-01
     vertex  9.352747e-02 -2.857143e-01 -1.489351e-01
     vertex  9.352747e-02  2.539683e-01 -1.489351e-01
   endloop
 endfacet
 facet normal -3.481363e-01  9.977258e-18  9.374439e-01
   outer loop
     vertex  5.778697e-02  2.539683e-01 -1.660815e-01
     vertex  5.778697e-02 -2.857143e-01 -1.660815e-01
     vertex  7.644587e-02 -2.857143e-01 -1.591522e-01
   endloop
 endfacet
 facet normal -3.481363e-01  5.298957e-17  9.374439e-01
   outer loop
     vertex  5.778697e-02  2.539683e-01 -1.660815e-01
     vertex  7.644587e-02 -2.857143e-01 -1.591522e-01
     vertex  7.644587e-02  2.539683e-01 -1.591522e-01
   endloop
 endfacet
 facet normal -1.712691e-01  3.082896e-17  9.852243e-01
   outer loop
     vertex  3.817705e-02  2.539683e-01 -1.694904e-01
     vertex  3.817705e-02 -2.857143e-01 -1.694904e-01
     vertex  5.778697e-02 -2.857143e-01 -1.660815e-01
   endloop
 endfacet
 facet normal -1.712691e-01 -2.270982e-17  9.852243e-01
   outer loop
     vertex  3.817705e-02  2.539683e-01 -1.694904e-01
     vertex  5.778697e-02 -2.857143e-01 -1.660815e-01
     vertex  5.778697e-02  2.539683e-01 -1.660815e-01
   endloop
 endfacet
 facet normal  1.134674e-02 -1.969503e-18  9.999356e-01
   outer loop
     vertex  1.827431e-02  2.539683e-01 -1.692646e-01
     vertex  1.827431e-02 -2.857143e-01 -1.692646e-01
     vertex  3.817705e-02 -2.857143e-01 -1.694904e-01
   endloop
 endfacet
 facet normal  1.134674e-02 -2.050192e-18  9.999356e-01
   outer loop
     vertex  1.827431e-02  2.539683e-01 -1.692646e-01
     vertex  3.817705e-02 -2.857143e-01 -1.694904e-01
     vertex  3.817705e-02  2.539683e-01 -1.694904e-01
   endloop
 endfacet
 facet normal  1.935817e-01  6.606792e-17  9.810842e-01
   outer loop
     vertex -1.253203e-03  2.539683e-01 -1.654115e-01
     vertex -1.253203e-03 -2.857143e-01 -1.654115e-01
     vertex  1.827431e-02 -2.857143e-01 -1.692646e-01
   endloop
 endfacet
 facet normal  1.935817e-01 -3.280307e-17  9.810842e-01
   outer loop
     vertex -1.253203e-03  2.539683e-01 -1.654115e-01
     vertex  1.827431e-02 -2.857143e-01 -1.692646e-01
     vertex  1.827431e-02  2.539683e-01 -1.692646e-01
   endloop
 endfacet
 facet normal  3.693191e-01  3.385693e-17  9.293026e-01
   outer loop
     vertex -1.975006e-02  2.539683e-01 -1.580606e-01
     vertex -1.975006e-02 -2.857143e-01 -1.580606e-01
     vertex -1.253203e-03 -2.857143e-01 -1.654115e-01
   endloop
 endfacet
 facet normal  3.693191e-01  3.027976e-17  9.293026e-01
   outer loop
     vertex -1.975006e-02  2.539683e-01 -1.580606e-01
     vertex -1.253203e-03 -2.857143e-01 -1.654115e-01
     vertex -1.253203e-03  2.539683e-01 -1.654115e-01
   endloop
 endfacet
 facet normal  5.326604e-01  4.869193e-18  8.463291e-01
   outer loop
     vertex -3.659541e-02  2.539683e-01 -1.474585e-01
     vertex -3.659541e-02 -2.857143e-01 -1.474585e-01
     vertex -1.975006e-02 -2.857143e-01 -1.580606e-01
   endloop
 endfacet
 facet normal  5.326604e-01  0.000000e+00  8.463291e-01
   outer loop
     vertex -3.659541e-02  2.539683e-01 -1.474585e-01
     vertex -1.975006e-02 -2.857143e-01 -1.580606e-01
     vertex -1.975006e-02  2.539683e-01 -1.580606e-01
   endloop
 endfacet
 facet normal  6.781229e-01 -2.903045e-17  7.349486e-01
   outer loop
     vertex -5.122384e-02  2.539683e-01 -1.339611e-01
     vertex -5.122384e-02 -2.857143e-01 -1.339611e-01
     vertex -3.659541e-02 -2.857143e-01 -1.474585e-01
   endloop
 endfacet
 facet normal  6.781229e-01 -3.027976e-17  7.349486e-01
   outer loop
     vertex -5.122384e-02  2.539683e-01 -1.339611e-01
     vertex -3.659541e-02 -2.857143e-01 -1.474585e-01
     vertex -3.659541e-02  2.539683e-01 -1.474585e-01
   endloop
 endfacet
 facet normal  8.008242e-01  1.003132e-17  5.988995e-01
   outer loop
     vertex -6.314435e-02  2.539683e-01 -1.180215e-01
     vertex -6.314435e-02 -2.857143e-01 -1.180215e-01
     vertex -5.122384e-02 -2.857143e-01 -1.339611e-01
   endloop
 endfacet
 facet normal  8.008242e-01 -6.308282e-17  5.988995e-01
   outer loop
     vertex -6.314435e-02  2.539683e-01 -1.180215e-01
     vertex -5.122384e-02 -2.857143e-01 -1.339611e-01
     vertex -5.122384e-02  2.539683e-01 -1.339611e-01
   endloop
 endfacet
 facet normal  8.966459e-01  1.052507e-17  4.427484e-01
   outer loop
     vertex -7.195682e-02  2.539683e-01 -1.001747e-01
     vertex -7.195682e-02 -2.857143e-01 -1.001747e-01
     vertex -6.314435e-02 -2.857143e-01 -1.180215e-01
   endloop
 endfacet
 facet normal  8.966459e-01 -2.270982e-17  4.427484e-01
   outer loop
     vertex -7.195682e-02  2.539683e-01 -1.001747e-01
     vertex -6.314435e-02 -2.857143e-01 -1.180215e-01
     vertex -6.314435e-02  2.539683e-01 -1.180215e-01
   endloop
 endfacet
 facet normal  9.623717e-01 -5.808461e-19  2.717365e-01
   outer loop
     vertex -7.736546e-02  2.539683e-01 -8.101959e-02
     vertex -7.736546e-02 -2.857143e-01 -8.101959e-02
     vertex -7.195682e-02 -2.857143e-01 -1.001747e-01
   endloop
 endfacet
 facet normal  9.957955e-01 -3.472426e-17  9.160372e-02
   outer loop
     vertex -7.736546e-02  2.539683e-01 -8.101959e-02
     vertex -7.918875e-02 -2.857143e-01 -6.119926e-02
     vertex -7.736546e-02 -2.857143e-01 -8.101959e-02
   endloop
 endfacet
 facet normal  9.623717e-01 -2.523313e-17  2.717365e-01
   outer loop
     vertex -7.736546e-02  2.539683e-01 -8.101959e-02
     vertex -7.195682e-02 -2.857143e-01 -1.001747e-01
     vertex -7.195682e-02  2.539683e-01 -1.001747e-01
   endloop
 endfacet
 facet normal  9.957955e-01  0.000000e+00  9.160372e-02
   outer loop
     vertex -7.918875e-02  2.539683e-01 -6.119926e-02
     vertex -7.918875e-02 -2.857143e-01 -6.119926e-02
     vertex -7.736546e-02  2.539683e-01 -8.101959e-02
   endloop
 endfacet
 facet normal -1.486951e-16 -1.000000e+00 -4.278400e-16
   outer loop
     vertex -5.122384e-02 -2.857143e-01 -1.339611e-01
     vertex -1.365330e-01 -2.857143e-01 -2.340595e-01
     vertex -1.113620e-01 -2.857143e-01 -2.428077e-01
   endloop
 endfacet
 facet normal -8.921671e-17 -1.000000e+00 -4.607020e-16
   outer loop
     vertex -5.122384e-02 -2.857143e-01 -1.339611e-01
     vertex -1.113620e-01 -2.857143e-01 -2.428077e-01
     vertex -8.520021e-02 -2.857143e-01 -2.478740e-01
   endloop
 endfacet
 facet normal -2.599603e-17 -1.000000e+00 -5.402315e-16
   outer loop
     vertex -3.659541e-02 -2.857143e-01 -1.474585e-01
     vertex -8.520021e-02 -2.857143e-01 -2.478740e-01
     vertex -5.858318e-02 -2.857143e-01 -2.491548e-01
   endloop
 endfacet
 facet normal -3.525973e-16 -1.000000e+00 -3.821445e-16
   outer loop
     vertex -3.659541e-02 -2.857143e-01 -1.474585e-01
     vertex -5.122384e-02 -2.857143e-01 -1.339611e-01
     vertex -8.520021e-02 -2.857143e-01 -2.478740e-01
   endloop
 endfacet
 facet normal -2.292359e-16 -1.000000e+00 -3.204925e-16
   outer loop
     vertex -6.314435e-02 -2.857143e-01 -1.180215e-01
     vertex -1.818720e-01 -2.857143e-01 -2.063060e-01
     vertex -1.601978e-01 -2.857143e-01 -2.218087e-01
   endloop
 endfacet
 facet normal -1.865681e-16 -1.000000e+00 -3.603920e-16
   outer loop
     vertex -6.314435e-02 -2.857143e-01 -1.180215e-01
     vertex -1.601978e-01 -2.857143e-01 -2.218087e-01
     vertex -1.365330e-01 -2.857143e-01 -2.340595e-01
   endloop
 endfacet
 facet normal -3.465805e-16 -1.000000e+00 -2.591916e-16
   outer loop
     vertex -6.314435e-02 -2.857143e-01 -1.180215e-01
     vertex -1.365330e-01 -2.857143e-01 -2.340595e-01
     vertex -5.122384e-02 -2.857143e-01 -1.339611e-01
   endloop
 endfacet
 facet normal -3.023974e-16 -1.000000e+00 -4.804708e-16
   outer loop
     vertex -1.975006e-02 -2.857143e-01 -1.580606e-01
     vertex -3.659541e-02 -2.857143e-01 -1.474585e-01
     vertex -5.858318e-02 -2.857143e-01 -2.491548e-01
   endloop
 endfacet
 facet normal  6.060471e-17 -1.000000e+00 -6.352172e-16
   outer loop
     vertex -1.975006e-02 -2.857143e-01 -1.580606e-01
     vertex -5.858318e-02 -2.857143e-01 -2.491548e-01
     vertex -3.205581e-02 -2.857143e-01 -2.466239e-01
   endloop
 endfacet
 facet normal  1.575936e-16 -1.000000e+00 -6.486936e-16
   outer loop
     vertex -1.975006e-02 -2.857143e-01 -1.580606e-01
     vertex -3.205581e-02 -2.857143e-01 -2.466239e-01
     vertex -6.161174e-03 -2.857143e-01 -2.403331e-01
   endloop
 endfacet
 facet normal -3.020482e-16 -1.000000e+00 -1.730585e-16
   outer loop
     vertex -7.195682e-02 -2.857143e-01 -1.001747e-01
     vertex -2.307712e-01 -2.857143e-01 -1.437527e-01
     vertex -2.175236e-01 -2.857143e-01 -1.668744e-01
   endloop
 endfacet
 facet normal -2.807743e-16 -1.000000e+00 -2.194871e-16
   outer loop
     vertex -7.195682e-02 -2.857143e-01 -1.001747e-01
     vertex -2.175236e-01 -2.857143e-01 -1.668744e-01
     vertex -2.011119e-01 -2.857143e-01 -1.878687e-01
   endloop
 endfacet
 facet normal -2.515609e-16 -1.000000e+00 -2.625124e-16
   outer loop
     vertex -7.195682e-02 -2.857143e-01 -1.001747e-01
     vertex -2.011119e-01 -2.857143e-01 -1.878687e-01
     vertex -1.818720e-01 -2.857143e-01 -2.063060e-01
   endloop
 endfacet
 facet normal -3.419837e-16 -1.000000e+00 -1.688657e-16
   outer loop
     vertex -7.195682e-02 -2.857143e-01 -1.001747e-01
     vertex -1.818720e-01 -2.857143e-01 -2.063060e-01
     vertex -6.314435e-02 -2.857143e-01 -1.180215e-01
   endloop
 endfacet
 facet normal -2.869832e-16 -1.000000e+00 -7.221241e-16
   outer loop
     vertex -1.253203e-03 -2.857143e-01 -1.654115e-01
     vertex -1.975006e-02 -2.857143e-01 -1.580606e-01
     vertex -6.161174e-03 -2.857143e-01 -2.403331e-01
   endloop
 endfacet
 facet normal  3.052689e-16 -1.000000e+00 -7.609214e-16
   outer loop
     vertex -1.253203e-03 -2.857143e-01 -1.654115e-01
     vertex -6.161174e-03 -2.857143e-01 -2.403331e-01
     vertex  1.857061e-02 -2.857143e-01 -2.304111e-01
   endloop
 endfacet
 facet normal -3.222500e-16 -1.000000e+00 -7.677489e-17
   outer loop
     vertex -7.736546e-02 -2.857143e-01 -8.101959e-02
     vertex -2.467592e-01 -2.857143e-01 -9.305489e-02
     vertex -2.405833e-01 -2.857143e-01 -1.189772e-01
   endloop
 endfacet
 facet normal -3.114219e-16 -1.000000e+00 -1.233360e-16
   outer loop
     vertex -7.736546e-02 -2.857143e-01 -8.101959e-02
     vertex -2.405833e-01 -2.857143e-01 -1.189772e-01
     vertex -2.307712e-01 -2.857143e-01 -1.437527e-01
   endloop
 endfacet
 facet normal -3.244006e-16 -1.000000e+00 -9.159817e-17
   outer loop
     vertex -7.736546e-02 -2.857143e-01 -8.101959e-02
     vertex -2.307712e-01 -2.857143e-01 -1.437527e-01
     vertex -7.195682e-02 -2.857143e-01 -1.001747e-01
   endloop
 endfacet
 facet normal -1.793007e-16 -1.000000e+00 -9.087073e-16
   outer loop
     vertex  1.827431e-02 -2.857143e-01 -1.692646e-01
     vertex -1.253203e-03 -2.857143e-01 -1.654115e-01
     vertex  1.857061e-02 -2.857143e-01 -2.304111e-01
   endloop
 endfacet
 facet normal  5.240398e-16 -1.000000e+00 -9.052991e-16
   outer loop
     vertex  1.827431e-02 -2.857143e-01 -1.692646e-01
     vertex  1.857061e-02 -2.857143e-01 -2.304111e-01
     vertex  4.163324e-02 -2.857143e-01 -2.170611e-01
   endloop
 endfacet
 facet normal -3.271054e-16 -1.000000e+00  1.719534e-17
   outer loop
     vertex -7.918875e-02 -2.857143e-01 -6.119926e-02
     vertex -2.477735e-01 -2.857143e-01 -3.990546e-02
     vertex -2.491724e-01 -2.857143e-01 -6.651655e-02
   endloop
 endfacet
 facet normal -3.256413e-16 -1.000000e+00 -2.961140e-17
   outer loop
     vertex -7.918875e-02 -2.857143e-01 -6.119926e-02
     vertex -2.491724e-01 -2.857143e-01 -6.651655e-02
     vertex -2.467592e-01 -2.857143e-01 -9.305489e-02
   endloop
 endfacet
 facet normal -3.255769e-16 -1.000000e+00 -2.994998e-17
   outer loop
     vertex -7.918875e-02 -2.857143e-01 -6.119926e-02
     vertex -2.467592e-01 -2.857143e-01 -9.305489e-02
     vertex -7.736546e-02 -2.857143e-01 -8.101959e-02
   endloop
 endfacet
 facet normal -1.325251e-17 -1.000000e+00 -1.167882e-15
   outer loop
     vertex  3.817705e-02 -2.857143e-01 -1.694904e-01
     vertex  1.827431e-02 -2.857143e-01 -1.692646e-01
     vertex  4.163324e-02 -2.857143e-01 -2.170611e-01
   endloop
 endfacet
 facet normal  8.706720e-16 -1.000000e+00 -1.103662e-15
   outer loop
     vertex  3.817705e-02 -2.857143e-01 -1.694904e-01
     vertex  4.163324e-02 -2.857143e-01 -2.170611e-01
     vertex  6.255456e-02 -2.857143e-01 -2.005564e-01
   endloop
 endfacet
 facet normal -3.255555e-16 -1.000000e+00  2.946618e-17
   outer loop
     vertex -7.742319e-02 -2.857143e-01 -4.169260e-02
     vertex -2.477735e-01 -2.857143e-01 -3.990546e-02
     vertex -7.918875e-02 -2.857143e-01 -6.119926e-02
   endloop
 endfacet
 facet normal -3.015688e-16 -1.000000e+00  1.578169e-16
   outer loop
     vertex -7.742319e-02 -2.857143e-01 -4.169260e-02
     vertex -2.213757e-01 -2.857143e-01  3.497573e-02
     vertex -2.337314e-01 -2.857143e-01  1.136549e-02
   endloop
 endfacet
 facet normal -3.171835e-16 -1.000000e+00  1.118163e-16
   outer loop
     vertex -7.742319e-02 -2.857143e-01 -4.169260e-02
     vertex -2.337314e-01 -2.857143e-01  1.136549e-02
     vertex -2.425912e-01 -2.857143e-01 -1.376641e-02
   endloop
 endfacet
 facet normal -3.251883e-16 -1.000000e+00  6.447214e-17
   outer loop
     vertex -7.742319e-02 -2.857143e-01 -4.169260e-02
     vertex -2.425912e-01 -2.857143e-01 -1.376641e-02
     vertex -2.477735e-01 -2.857143e-01 -3.990546e-02
   endloop
 endfacet
 facet normal  2.733404e-16 -1.000000e+00 -1.572389e-15
   outer loop
     vertex  5.778697e-02 -2.857143e-01 -1.660815e-01
     vertex  3.817705e-02 -2.857143e-01 -1.694904e-01
     vertex  6.255456e-02 -2.857143e-01 -2.005564e-01
   endloop
 endfacet
 facet normal  1.479820e-15 -1.000000e+00 -1.405543e-15
   outer loop
     vertex  8.090628e-02 -2.857143e-01 -1.812349e-01
     vertex  5.778697e-02 -2.857143e-01 -1.660815e-01
     vertex  6.255456e-02 -2.857143e-01 -2.005564e-01
   endloop
 endfacet
 facet normal -3.359494e-16 -1.000000e+00  9.326378e-17
   outer loop
     vertex -7.218390e-02 -2.857143e-01 -2.281994e-02
     vertex -2.213757e-01 -2.857143e-01  3.497573e-02
     vertex -7.742319e-02 -2.857143e-01 -4.169260e-02
   endloop
 endfacet
 facet normal -2.638861e-16 -1.000000e+00  2.551329e-16
   outer loop
     vertex -7.218390e-02 -2.857143e-01 -2.281994e-02
     vertex -1.872546e-01 -2.857143e-01  7.573888e-02
     vertex -2.057770e-01 -2.857143e-01  5.658096e-02
   endloop
 endfacet
 facet normal -2.907566e-16 -1.000000e+00  2.099231e-16
   outer loop
     vertex -7.218390e-02 -2.857143e-01 -2.281994e-02
     vertex -2.057770e-01 -2.857143e-01  5.658096e-02
     vertex -2.213757e-01 -2.857143e-01  3.497573e-02
   endloop
 endfacet
 facet normal  8.683983e-16 -1.000000e+00 -2.338380e-15
   outer loop
     vertex  7.644587e-02 -2.857143e-01 -1.591522e-01
     vertex  5.778697e-02 -2.857143e-01 -1.660815e-01
     vertex  8.090628e-02 -2.857143e-01 -1.812349e-01
   endloop
 endfacet
 facet normal -2.433653e-16 -1.000000e+00  3.141829e-16
   outer loop
     vertex -6.364118e-02 -2.857143e-01 -5.194702e-03
     vertex -1.661876e-01 -2.857143e-01  9.205729e-02
     vertex -1.872546e-01 -2.857143e-01  7.573888e-02
   endloop
 endfacet
 facet normal -3.408921e-16 -1.000000e+00  1.652260e-16
   outer loop
     vertex -6.364118e-02 -2.857143e-01 -5.194702e-03
     vertex -1.872546e-01 -2.857143e-01  7.573888e-02
     vertex -7.218390e-02 -2.857143e-01 -2.281994e-02
   endloop
 endfacet
 facet normal  2.760695e-15 -1.000000e+00 -1.956161e-15
   outer loop
     vertex  9.631270e-02 -2.857143e-01 -1.594921e-01
     vertex  7.644587e-02 -2.857143e-01 -1.591522e-01
     vertex  8.090628e-02 -2.857143e-01 -1.812349e-01
   endloop
 endfacet
 facet normal  2.716460e-15 -1.000000e+00 -4.541552e-15
   outer loop
     vertex  9.352747e-02 -2.857143e-01 -1.489351e-01
     vertex  7.644587e-02 -2.857143e-01 -1.591522e-01
     vertex  9.631270e-02 -2.857143e-01 -1.594921e-01
   endloop
 endfacet
 facet normal -3.465729e-16 -1.000000e+00  2.536755e-16
   outer loop
     vertex -1.430074e-01 -2.857143e-01  1.052021e-01
     vertex -6.364118e-02 -2.857143e-01 -5.194702e-03
     vertex -5.207267e-02 -2.857143e-01  1.061026e-02
   endloop
 endfacet
 facet normal -2.025621e-16 -1.000000e+00  3.572074e-16
   outer loop
     vertex -1.430074e-01 -2.857143e-01  1.052021e-01
     vertex -1.661876e-01 -2.857143e-01  9.205729e-02
     vertex -6.364118e-02 -2.857143e-01 -5.194702e-03
   endloop
 endfacet
 facet normal  6.776980e-15 -1.000000e+00 -3.470274e-15
   outer loop
     vertex  1.084584e-01 -2.857143e-01 -1.357731e-01
     vertex  9.352747e-02 -2.857143e-01 -1.489351e-01
     vertex  9.631270e-02 -2.857143e-01 -1.594921e-01
   endloop
 endfacet
 facet normal -1.667460e-16 -1.000000e+00  4.265500e-16
   outer loop
     vertex -1.181886e-01 -2.857143e-01  1.149042e-01
     vertex -1.430074e-01 -2.857143e-01  1.052021e-01
     vertex -5.207267e-02 -2.857143e-01  1.061026e-02
   endloop
 endfacet
 facet normal -3.543796e-16 -1.000000e+00  3.740388e-16
   outer loop
     vertex -9.223913e-02 -2.857143e-01  1.209651e-01
     vertex -5.207267e-02 -2.857143e-01  1.061026e-02
     vertex -3.785438e-02 -2.857143e-01  2.408125e-02
   endloop
 endfacet
 facet normal -1.082825e-16 -1.000000e+00  4.636122e-16
   outer loop
     vertex -9.223913e-02 -2.857143e-01  1.209651e-01
     vertex -1.181886e-01 -2.857143e-01  1.149042e-01
     vertex -5.207267e-02 -2.857143e-01  1.061026e-02
   endloop
 endfacet
 facet normal -3.085396e-16 -1.000000e+00  4.731096e-16
   outer loop
     vertex -6.569035e-02 -2.857143e-01  1.232605e-01
     vertex -3.785438e-02 -2.857143e-01  2.408125e-02
     vertex -2.144844e-02 -2.857143e-01  3.478042e-02
   endloop
 endfacet
 facet normal -4.724612e-17 -1.000000e+00  5.464451e-16
   outer loop
     vertex -6.569035e-02 -2.857143e-01  1.232605e-01
     vertex -9.223913e-02 -2.857143e-01  1.209651e-01
     vertex -3.785438e-02 -2.857143e-01  2.408125e-02
   endloop
 endfacet
 facet normal  3.682228e-17 -1.000000e+00  6.457979e-16
   outer loop
     vertex -3.908573e-02 -2.857143e-01  1.217435e-01
     vertex -6.569035e-02 -2.857143e-01  1.232605e-01
     vertex -2.144844e-02 -2.857143e-01  3.478042e-02
   endloop
 endfacet
 facet normal -2.982726e-16 -1.000000e+00  7.107105e-16
   outer loop
     vertex -1.296993e-02 -2.857143e-01  1.164453e-01
     vertex -2.144844e-02 -2.857143e-01  3.478042e-02
     vertex -3.388078e-03 -2.857143e-01  4.236004e-02
   endloop
 endfacet
 facet normal  1.350591e-16 -1.000000e+00  6.657216e-16
   outer loop
     vertex -1.296993e-02 -2.857143e-01  1.164453e-01
     vertex -3.908573e-02 -2.857143e-01  1.217435e-01
     vertex -2.144844e-02 -2.857143e-01  3.478042e-02
   endloop
 endfacet
 facet normal -1.982044e-16 -1.000000e+00  8.997345e-16
   outer loop
     vertex  1.212242e-02 -2.857143e-01  1.074741e-01
     vertex -3.388078e-03 -2.857143e-01  4.236004e-02
     vertex  1.573970e-02 -2.857143e-01  4.657373e-02
   endloop
 endfacet
 facet normal  2.808769e-16 -1.000000e+00  7.856150e-16
   outer loop
     vertex  1.212242e-02 -2.857143e-01  1.074741e-01
     vertex -1.296993e-02 -2.857143e-01  1.164453e-01
     vertex -3.388078e-03 -2.857143e-01  4.236004e-02
   endloop
 endfacet
 facet normal -4.224865e-17 -1.000000e+00  1.163366e-15
   outer loop
     vertex  3.567761e-02 -2.857143e-01  9.501379e-02
     vertex  1.573970e-02 -2.857143e-01  4.657373e-02
     vertex  3.531320e-02 -2.857143e-01  4.728456e-02
   endloop
 endfacet
 facet normal  4.978147e-16 -1.000000e+00  9.410758e-16
   outer loop
     vertex  3.567761e-02 -2.857143e-01  9.501379e-02
     vertex  1.212242e-02 -2.857143e-01  1.074741e-01
     vertex  1.573970e-02 -2.857143e-01  4.657373e-02
   endloop
 endfacet
 facet normal  2.558000e-15 -1.000000e+00  4.624111e-15
   outer loop
     vertex  9.251375e-02 -2.857143e-01  3.957294e-02
     vertex  7.325882e-02 -2.857143e-01  3.821980e-02
     vertex  9.039762e-02 -2.857143e-01  2.873883e-02
   endloop
 endfacet
 facet normal  6.772569e-15 -1.000000e+00  3.800919e-15
   outer loop
     vertex  9.251375e-02 -2.857143e-01  3.957294e-02
     vertex  9.039762e-02 -2.857143e-01  2.873883e-02
     vertex  1.055556e-01 -2.857143e-01  1.633467e-02
   endloop
 endfacet
 facet normal  2.289418e-16 -1.000000e+00  1.576326e-15
   outer loop
     vertex  5.721342e-02 -2.857143e-01  7.931935e-02
     vertex  3.531320e-02 -2.857143e-01  4.728456e-02
     vertex  5.469624e-02 -2.857143e-01  4.446942e-02
   endloop
 endfacet
 facet normal  8.428900e-16 -1.000000e+00  1.156608e-15
   outer loop
     vertex  5.721342e-02 -2.857143e-01  7.931935e-02
     vertex  3.567761e-02 -2.857143e-01  9.501379e-02
     vertex  3.531320e-02 -2.857143e-01  4.728456e-02
   endloop
 endfacet
 facet normal  7.948719e-16 -1.000000e+00  2.360924e-15
   outer loop
     vertex  7.628897e-02 -2.857143e-01  6.071209e-02
     vertex  5.469624e-02 -2.857143e-01  4.446942e-02
     vertex  7.325882e-02 -2.857143e-01  3.821980e-02
   endloop
 endfacet
 facet normal  1.451493e-15 -1.000000e+00  1.488023e-15
   outer loop
     vertex  7.628897e-02 -2.857143e-01  6.071209e-02
     vertex  5.721342e-02 -2.857143e-01  7.931935e-02
     vertex  5.469624e-02 -2.857143e-01  4.446942e-02
   endloop
 endfacet
 facet normal  2.735417e-15 -1.000000e+00  2.099495e-15
   outer loop
     vertex  7.628897e-02 -2.857143e-01  6.071209e-02
     vertex  7.325882e-02 -2.857143e-01  3.821980e-02
     vertex  9.251375e-02 -2.857143e-01  3.957294e-02
   endloop
 endfacet
 facet normal  9.959289e-01  0.000000e+00 -9.014197e-02
   outer loop
     vertex -7.742319e-02  2.539683e-01 -4.169260e-02
     vertex -7.918875e-02 -2.857143e-01 -6.119926e-02
     vertex -7.918875e-02  2.539683e-01 -6.119926e-02
   endloop
 endfacet
 facet normal  9.959289e-01  0.000000e+00 -9.014197e-02
   outer loop
     vertex -7.742319e-02  2.539683e-01 -4.169260e-02
     vertex -7.742319e-02 -2.857143e-01 -4.169260e-02
     vertex -7.918875e-02 -2.857143e-01 -6.119926e-02
   endloop
 endfacet
 facet normal  9.635589e-01  0.000000e+00 -2.674961e-01
   outer loop
     vertex -7.218390e-02  2.539683e-01 -2.281994e-02
     vertex -7.218390e-02 -2.857143e-01 -2.281994e-02
     vertex -7.742319e-02 -2.857143e-01 -4.169260e-02
   endloop
 endfacet
 facet normal  9.635589e-01  0.000000e+00 -2.674961e-01
   outer loop
     vertex -7.218390e-02  2.539683e-01 -2.281994e-02
     vertex -7.742319e-02 -2.857143e-01 -4.169260e-02
     vertex -7.742319e-02  2.539683e-01 -4.169260e-02
   endloop
 endfacet
 facet normal  8.998711e-01  0.000000e+00 -4.361560e-01
   outer loop
     vertex -6.364118e-02  2.539683e-01 -5.194702e-03
     vertex -6.364118e-02 -2.857143e-01 -5.194702e-03
     vertex -7.218390e-02 -2.857143e-01 -2.281994e-02
   endloop
 endfacet
 facet normal  8.998711e-01  0.000000e+00 -4.361560e-01
   outer loop
     vertex -6.364118e-02  2.539683e-01 -5.194702e-03
     vertex -7.218390e-02 -2.857143e-01 -2.281994e-02
     vertex -7.218390e-02  2.539683e-01 -2.281994e-02
   endloop
 endfacet
 facet normal  8.069353e-01  0.000000e+00 -5.906398e-01
   outer loop
     vertex -5.207267e-02  2.539683e-01  1.061026e-02
     vertex -5.207267e-02 -2.857143e-01  1.061026e-02
     vertex -6.364118e-02 -2.857143e-01 -5.194702e-03
   endloop
 endfacet
 facet normal  8.069353e-01  0.000000e+00 -5.906398e-01
   outer loop
     vertex -5.207267e-02  2.539683e-01  1.061026e-02
     vertex -6.364118e-02 -2.857143e-01 -5.194702e-03
     vertex -6.364118e-02  2.539683e-01 -5.194702e-03
   endloop
 endfacet
 facet normal  6.877724e-01  0.000000e+00 -7.259264e-01
   outer loop
     vertex -3.785438e-02  2.539683e-01  2.408125e-02
     vertex -3.785438e-02 -2.857143e-01  2.408125e-02
     vertex -5.207267e-02 -2.857143e-01  1.061026e-02
   endloop
 endfacet
 facet normal  5.462552e-01  0.000000e+00 -8.376188e-01
   outer loop
     vertex -3.785438e-02  2.539683e-01  2.408125e-02
     vertex -2.144844e-02 -2.857143e-01  3.478042e-02
     vertex -3.785438e-02 -2.857143e-01  2.408125e-02
   endloop
 endfacet
 facet normal  6.877724e-01  0.000000e+00 -7.259264e-01
   outer loop
     vertex -3.785438e-02  2.539683e-01  2.408125e-02
     vertex -5.207267e-02 -2.857143e-01  1.061026e-02
     vertex -5.207267e-02  2.539683e-01  1.061026e-02
   endloop
 endfacet
 facet normal  5.462552e-01  0.000000e+00 -8.376188e-01
   outer loop
     vertex -2.144844e-02  2.539683e-01  3.478042e-02
     vertex -2.144844e-02 -2.857143e-01  3.478042e-02
     vertex -3.785438e-02  2.539683e-01  2.408125e-02
   endloop
 endfacet
 facet normal  3.869835e-01  0.000000e+00 -9.220867e-01
   outer loop
     vertex -3.388078e-03  2.539683e-01  4.236004e-02
     vertex -3.388078e-03 -2.857143e-01  4.236004e-02
     vertex -2.144844e-02 -2.857143e-01  3.478042e-02
   endloop
 endfacet
 facet normal  3.869835e-01  0.000000e+00 -9.220867e-01
   outer loop
     vertex -3.388078e-03  2.539683e-01  4.236004e-02
     vertex -2.144844e-02 -2.857143e-01  3.478042e-02
     vertex -2.144844e-02  2.539683e-01  3.478042e-02
   endloop
 endfacet
 facet normal  2.151339e-01  0.000000e+00 -9.765846e-01
   outer loop
     vertex  1.573970e-02  2.539683e-01  4.657373e-02
     vertex  1.573970e-02 -2.857143e-01  4.657373e-02
     vertex -3.388078e-03 -2.857143e-01  4.236004e-02
   endloop
 endfacet
 facet normal  3.629196e-02  0.000000e+00 -9.993412e-01
   outer loop
     vertex  1.573970e-02  2.539683e-01  4.657373e-02
     vertex  3.531320e-02 -2.857143e-01  4.728456e-02
     vertex  1.573970e-02 -2.857143e-01  4.657373e-02
   endloop
 endfacet
 facet normal  2.151339e-01  0.000000e+00 -9.765846e-01
   outer loop
     vertex  1.573970e-02  2.539683e-01  4.657373e-02
     vertex -3.388078e-03 -2.857143e-01  4.236004e-02
     vertex -3.388078e-03  2.539683e-01  4.236004e-02
   endloop
 endfacet
 facet normal -1.437295e-01 -0.000000e+00 -9.896170e-01
   outer loop
     vertex  3.531320e-02  2.539683e-01  4.728456e-02
     vertex  5.469624e-02 -2.857143e-01  4.446942e-02
     vertex  3.531320e-02 -2.857143e-01  4.728456e-02
   endloop
 endfacet
 facet normal  3.629196e-02  0.000000e+00 -9.993412e-01
   outer loop
     vertex  3.531320e-02  2.539683e-01  4.728456e-02
     vertex  3.531320e-02 -2.857143e-01  4.728456e-02
     vertex  1.573970e-02  2.539683e-01  4.657373e-02
   endloop
 endfacet
 facet normal -1.437295e-01 -0.000000e+00 -9.896170e-01
   outer loop
     vertex  5.469624e-02  2.539683e-01  4.446942e-02
     vertex  5.469624e-02 -2.857143e-01  4.446942e-02
     vertex  3.531320e-02  2.539683e-01  4.728456e-02
   endloop
 endfacet
 facet normal -3.190795e-01 -0.000000e+00 -9.477280e-01
   outer loop
     vertex  7.325882e-02  2.539683e-01  3.821980e-02
     vertex  7.325882e-02 -2.857143e-01  3.821980e-02
     vertex  5.469624e-02 -2.857143e-01  4.446942e-02
   endloop
 endfacet
 facet normal -4.840586e-01 -0.000000e+00 -8.750356e-01
   outer loop
     vertex  7.325882e-02  2.539683e-01  3.821980e-02
     vertex  9.039762e-02 -2.857143e-01  2.873883e-02
     vertex  7.325882e-02 -2.857143e-01  3.821980e-02
   endloop
 endfacet
 facet normal -3.190795e-01  0.000000e+00 -9.477280e-01
   outer loop
     vertex  7.325882e-02  2.539683e-01  3.821980e-02
     vertex  5.469624e-02 -2.857143e-01  4.446942e-02
     vertex  5.469624e-02  2.539683e-01  4.446942e-02
   endloop
 endfacet
 facet normal -4.840586e-01 -0.000000e+00 -8.750356e-01
   outer loop
     vertex  9.039762e-02  2.539683e-01  2.873883e-02
     vertex  9.039762e-02 -2.857143e-01  2.873883e-02
     vertex  7.325882e-02  2.539683e-01  3.821980e-02
   endloop
 endfacet
 facet normal -6.333047e-01 -0.000000e+00 -7.739025e-01
   outer loop
     vertex  1.055556e-01 -1.587302e-02  1.633467e-02
     vertex  1.055556e-01 -2.857143e-01  1.633467e-02
     vertex  9.039762e-02 -2.857143e-01  2.873883e-02
   endloop
 endfacet
 facet normal -6.333047e-01  0.000000e+00 -7.739025e-01
   outer loop
     vertex  1.055556e-01 -1.587302e-02  1.633467e-02
     vertex  9.039762e-02 -2.857143e-01  2.873883e-02
     vertex  9.039762e-02  2.539683e-01  2.873883e-02
   endloop
 endfacet
 facet normal -6.333047e-01  7.237189e-17 -7.739025e-01
   outer loop
     vertex  1.055556e-01  2.539683e-01  1.633467e-02
     vertex  1.055556e-01 -1.587302e-02  1.633467e-02
     vertex  9.039762e-02  2.539683e-01  2.873883e-02
   endloop
 endfacet
 facet normal  0.000000e+00 -1.000000e+00  0.000000e+00
   outer loop
     vertex  1.166434e-01  2.539683e-01 -1.122394e-01
     vertex  9.352747e-02  2.539683e-01 -1.489351e-01
     vertex  1.084584e-01  2.539683e-01 -1.357731e-01
   endloop
 endfacet
 facet normal  0.000000e+00 -1.000000e+00  0.000000e+00
   outer loop
     vertex  1.166434e-01  2.539683e-01 -1.122394e-01
     vertex  7.644587e-02  2.539683e-01 -1.591522e-01
     vertex  9.352747e-02  2.539683e-01 -1.489351e-01
   endloop
 endfacet
 facet normal  0.000000e+00 -1.000000e+00  0.000000e+00
   outer loop
     vertex  5.778697e-02  2.539683e-01 -1.660815e-01
     vertex  7.644587e-02  2.539683e-01 -1.591522e-01
     vertex  1.166434e-01  2.539683e-01 -1.122394e-01
   endloop
 endfacet
 facet normal  0.000000e+00 -1.000000e+00  0.000000e+00
   outer loop
     vertex  1.216137e-01  2.539683e-01 -8.782363e-02
     vertex  5.778697e-02  2.539683e-01 -1.660815e-01
     vertex  1.166434e-01  2.539683e-01 -1.122394e-01
   endloop
 endfacet
 facet normal  0.000000e+00 -1.000000e+00  0.000000e+00
   outer loop
     vertex  3.817705e-02  2.539683e-01 -1.694904e-01
     vertex  5.778697e-02  2.539683e-01 -1.660815e-01
     vertex  1.216137e-01  2.539683e-01 -8.782363e-02
   endloop
 endfacet
 facet normal  0.000000e+00 -1.000000e+00  0.000000e+00
   outer loop
     vertex  1.827431e-02  2.539683e-01 -1.692646e-01
     vertex  3.817705e-02  2.539683e-01 -1.694904e-01
     vertex  1.216137e-01  2.539683e-01 -8.782363e-02
   endloop
 endfacet
 facet normal  0.000000e+00 -1.000000e+00  0.000000e+00
   outer loop
     vertex -1.253203e-03  2.539683e-01 -1.654115e-01
     vertex  1.827431e-02  2.539683e-01 -1.692646e-01
     vertex  1.216137e-01  2.539683e-01 -8.782363e-02
   endloop
 endfacet
 facet normal  0.000000e+00 -1.000000e+00  0.000000e+00
   outer loop
     vertex -1.975006e-02  2.539683e-01 -1.580606e-01
     vertex -1.253203e-03  2.539683e-01 -1.654115e-01
     vertex  1.216137e-01  2.539683e-01 -8.782363e-02
   endloop
 endfacet
 facet normal  0.000000e+00 -1.000000e+00  0.000000e+00
   outer loop
     vertex -3.659541e-02  2.539683e-01 -1.474585e-01
     vertex  1.216137e-01  2.539683e-01 -8.782363e-02
     vertex  1.232805e-01  2.539683e-01 -6.296293e-02
   endloop
 endfacet
 facet normal  0.000000e+00 -1.000000e+00  0.000000e+00
   outer loop
     vertex -3.659541e-02  2.539683e-01 -1.474585e-01
     vertex -1.975006e-02  2.539683e-01 -1.580606e-01
     vertex  1.216137e-01  2.539683e-01 -8.782363e-02
   endloop
 endfacet
 facet normal  0.000000e+00 -1.000000e+00  0.000000e+00
   outer loop
     vertex -5.122384e-02  2.539683e-01 -1.339611e-01
     vertex -3.659541e-02  2.539683e-01 -1.474585e-01
     vertex  1.232805e-01  2.539683e-01 -6.296293e-02
   endloop
 endfacet
 facet normal  0.000000e+00 -1.000000e+00  0.000000e+00
   outer loop
     vertex  9.039762e-02  2.539683e-01  2.873883e-02
     vertex  1.132395e-01  2.539683e-01 -2.636220e-03
     vertex  1.055556e-01  2.539683e-01  1.633467e-02
   endloop
 endfacet
 facet normal  0.000000e+00 -1.000000e+00  0.000000e+00
   outer loop
     vertex -6.314435e-02  2.539683e-01 -1.180215e-01
     vertex -5.122384e-02  2.539683e-01 -1.339611e-01
     vertex  1.232805e-01  2.539683e-01 -6.296293e-02
   endloop
 endfacet
 facet normal  0.000000e+00 -1.000000e+00  0.000000e+00
   outer loop
     vertex  7.325882e-02  2.539683e-01  3.821980e-02
     vertex  1.187952e-01  2.539683e-01 -2.233572e-02
     vertex  1.132395e-01  2.539683e-01 -2.636220e-03
   endloop
 endfacet
 facet normal  0.000000e+00 -1.000000e+00  0.000000e+00
   outer loop
     vertex  7.325882e-02  2.539683e-01  3.821980e-02
     vertex  1.132395e-01  2.539683e-01 -2.636220e-03
     vertex  9.039762e-02  2.539683e-01  2.873883e-02
   endloop
 endfacet
 facet normal  0.000000e+00 -1.000000e+00  0.000000e+00
   outer loop
     vertex -7.195682e-02  2.539683e-01 -1.001747e-01
     vertex -6.314435e-02  2.539683e-01 -1.180215e-01
     vertex  1.232805e-01  2.539683e-01 -6.296293e-02
   endloop
 endfacet
 facet normal  0.000000e+00 -1.000000e+00  0.000000e+00
   outer loop
     vertex  5.469624e-02  2.539683e-01  4.446942e-02
     vertex  1.187952e-01  2.539683e-01 -2.233572e-02
     vertex  7.325882e-02  2.539683e-01  3.821980e-02
   endloop
 endfacet
 facet normal  0.000000e+00 -1.000000e+00  0.000000e+00
   outer loop
     vertex -7.736546e-02  2.539683e-01 -8.101959e-02
     vertex -7.195682e-02  2.539683e-01 -1.001747e-01
     vertex  1.232805e-01  2.539683e-01 -6.296293e-02
   endloop
 endfacet
 facet normal  0.000000e+00 -1.000000e+00  0.000000e+00
   outer loop
     vertex  3.531320e-02  2.539683e-01  4.728456e-02
     vertex  1.187952e-01  2.539683e-01 -2.233572e-02
     vertex  5.469624e-02  2.539683e-01  4.446942e-02
   endloop
 endfacet
 facet normal  0.000000e+00 -1.000000e+00  0.000000e+00
   outer loop
     vertex -7.918875e-02  2.539683e-01 -6.119926e-02
     vertex -7.736546e-02  2.539683e-01 -8.101959e-02
     vertex  1.232805e-01  2.539683e-01 -6.296293e-02
   endloop
 endfacet
 facet normal  0.000000e+00 -1.000000e+00  0.000000e+00
   outer loop
     vertex  1.573970e-02  2.539683e-01  4.657373e-02
     vertex  1.221558e-01  2.539683e-01 -4.252591e-02
     vertex  1.187952e-01  2.539683e-01 -2.233572e-02
   endloop
 endfacet
 facet normal  0.000000e+00 -1.000000e+00  0.000000e+00
   outer loop
     vertex  1.573970e-02  2.539683e-01  4.657373e-02
     vertex  1.187952e-01  2.539683e-01 -2.233572e-02
     vertex  3.531320e-02  2.539683e-01  4.728456e-02
   endloop
 endfacet
 facet normal  0.000000e+00 -1.000000e+00 -0.000000e+00
   outer loop
     vertex -7.742319e-02  2.539683e-01 -4.169260e-02
     vertex -7.918875e-02  2.539683e-01 -6.119926e-02
     vertex  1.232805e-01  2.539683e-01 -6.296293e-02
   endloop
 endfacet
 facet normal  0.000000e+00 -1.000000e+00  0.000000e+00
   outer loop
     vertex -3.388078e-03  2.539683e-01  4.236004e-02
     vertex  1.221558e-01  2.539683e-01 -4.252591e-02
     vertex  1.573970e-02  2.539683e-01  4.657373e-02
   endloop
 endfacet
 facet normal  0.000000e+00 -1.000000e+00  0.000000e+00
   outer loop
     vertex -7.218390e-02  2.539683e-01 -2.281994e-02
     vertex  1.232805e-01  2.539683e-01 -6.296293e-02
     vertex  1.221558e-01  2.539683e-01 -4.252591e-02
   endloop
 endfacet
 facet normal  0.000000e+00 -1.000000e+00 -0.000000e+00
   outer loop
     vertex -7.218390e-02  2.539683e-01 -2.281994e-02
     vertex -7.742319e-02  2.539683e-01 -4.169260e-02
     vertex  1.232805e-01  2.539683e-01 -6.296293e-02
   endloop
 endfacet
 facet normal  0.000000e+00 -1.000000e+00  0.000000e+00
   outer loop
     vertex -2.144844e-02  2.539683e-01  3.478042e-02
     vertex  1.221558e-01  2.539683e-01 -4.252591e-02
     vertex -3.388078e-03  2.539683e-01  4.236004e-02
   endloop
 endfacet
 facet normal  0.000000e+00 -1.000000e+00 -0.000000e+00
   outer loop
     vertex -6.364118e-02  2.539683e-01 -5.194702e-03
     vertex -7.218390e-02  2.539683e-01 -2.281994e-02
     vertex  1.221558e-01  2.539683e-01 -4.252591e-02
   endloop
 endfacet
 facet normal  0.000000e+00 -1.000000e+00  0.000000e+00
   outer loop
     vertex -3.785438e-02  2.539683e-01  2.408125e-02
     vertex  1.221558e-01  2.539683e-01 -4.252591e-02
     vertex -2.144844e-02  2.539683e-01  3.478042e-02
   endloop
 endfacet
 facet normal  0.000000e+00 -1.000000e+00  0.000000e+00
   outer loop
     vertex -5.207267e-02  2.539683e-01  1.061026e-02
     vertex  1.221558e-01  2.539683e-01 -4.252591e-02
     vertex -3.785438e-02  2.539683e-01  2.408125e-02
   endloop
 endfacet
 facet normal  0.000000e+00 -1.000000e+00 -0.000000e+00
   outer loop
     vertex -5.207267e-02  2.539683e-01  1.061026e-02
     vertex -6.364118e-02  2.539683e-01 -5.194702e-03
     vertex  1.221558e-01  2.539683e-01 -4.252591e-02
   endloop
 endfacet
 facet normal  0.000000e+00  1.000000e+00  0.000000e+00
   outer loop
     vertex  7.574597e-02  2.857143e-01  6.132079e-02
     vertex  1.212957e-01  2.857143e-01 -3.584567e-02
     vertex  1.232805e-01  2.857143e-01 -6.296293e-02
   endloop
 endfacet
 facet normal  0.000000e+00  1.000000e+00  0.000000e+00
   outer loop
     vertex  7.574597e-02  2.857143e-01  6.132079e-02
     vertex  1.153839e-01  2.857143e-01 -9.306376e-03
     vertex  1.212957e-01  2.857143e-01 -3.584567e-02
   endloop
 endfacet
 facet normal  0.000000e+00  1.000000e+00  0.000000e+00
   outer loop
     vertex  7.574597e-02  2.857143e-01  6.132079e-02
     vertex  1.056708e-01  2.857143e-01  1.608933e-02
     vertex  1.153839e-01  2.857143e-01 -9.306376e-03
   endloop
 endfacet
 facet normal  0.000000e+00  1.000000e+00  0.000000e+00
   outer loop
     vertex  7.574597e-02  2.857143e-01  6.132079e-02
     vertex  9.236365e-02  2.857143e-01  3.980017e-02
     vertex  1.056708e-01  2.857143e-01  1.608933e-02
   endloop
 endfacet
 facet normal  0.000000e+00  1.000000e+00  0.000000e+00
   outer loop
     vertex  7.574597e-02  2.857143e-01  6.132079e-02
     vertex  3.405877e-02  2.857143e-01  9.601314e-02
     vertex  5.617194e-02  2.857143e-01  8.019252e-02
   endloop
 endfacet
 facet normal  0.000000e+00  1.000000e+00  0.000000e+00
   outer loop
     vertex  7.574597e-02  2.857143e-01  6.132079e-02
     vertex  9.877740e-03  2.857143e-01  1.084455e-01
     vertex  3.405877e-02  2.857143e-01  9.601314e-02
   endloop
 endfacet
 facet normal  0.000000e+00  1.000000e+00  0.000000e+00
   outer loop
     vertex  7.574597e-02  2.857143e-01  6.132079e-02
     vertex -1.585576e-02  2.857143e-01  1.172245e-01
     vertex  9.877740e-03  2.857143e-01  1.084455e-01
   endloop
 endfacet
 facet normal  0.000000e+00  1.000000e+00  0.000000e+00
   outer loop
     vertex  7.574597e-02  2.857143e-01  6.132079e-02
     vertex -4.259326e-02  2.857143e-01  1.221632e-01
     vertex -1.585576e-02  2.857143e-01  1.172245e-01
   endloop
 endfacet
 facet normal  0.000000e+00  1.000000e+00  0.000000e+00
   outer loop
     vertex  7.574597e-02  2.857143e-01  6.132079e-02
     vertex -6.976491e-02  2.857143e-01  1.231562e-01
     vertex -4.259326e-02  2.857143e-01  1.221632e-01
   endloop
 endfacet
 facet normal  0.000000e+00  1.000000e+00  0.000000e+00
   outer loop
     vertex  7.574597e-02  2.857143e-01  6.132079e-02
     vertex -9.679159e-02  2.857143e-01  1.201824e-01
     vertex -6.976491e-02  2.857143e-01  1.231562e-01
   endloop
 endfacet
 facet normal  0.000000e+00  1.000000e+00  0.000000e+00
   outer loop
     vertex  7.574597e-02  2.857143e-01  6.132079e-02
     vertex -1.230973e-01  2.857143e-01  1.133052e-01
     vertex -9.679159e-02  2.857143e-01  1.201824e-01
   endloop
 endfacet
 facet normal  0.000000e+00  1.000000e+00  0.000000e+00
   outer loop
     vertex  7.574597e-02  2.857143e-01  6.132079e-02
     vertex -1.481213e-01  2.857143e-01  1.026712e-01
     vertex -1.230973e-01  2.857143e-01  1.133052e-01
   endloop
 endfacet
 facet normal  0.000000e+00  1.000000e+00  0.000000e+00
   outer loop
     vertex  7.574597e-02  2.857143e-01  6.132079e-02
     vertex -1.713303e-01  2.857143e-01  8.850691e-02
     vertex -1.481213e-01  2.857143e-01  1.026712e-01
   endloop
 endfacet
 facet normal  0.000000e+00  1.000000e+00  0.000000e+00
   outer loop
     vertex  7.574597e-02  2.857143e-01  6.132079e-02
     vertex -1.922297e-01  2.857143e-01  7.111433e-02
     vertex -1.713303e-01  2.857143e-01  8.850691e-02
   endloop
 endfacet
 facet normal  0.000000e+00  1.000000e+00  0.000000e+00
   outer loop
     vertex  7.574597e-02  2.857143e-01  6.132079e-02
     vertex -2.103739e-01  2.857143e-01  5.086414e-02
     vertex -1.922297e-01  2.857143e-01  7.111433e-02
   endloop
 endfacet
 facet normal  0.000000e+00  1.000000e+00  0.000000e+00
   outer loop
     vertex  7.574597e-02  2.857143e-01  6.132079e-02
     vertex -2.253764e-01  2.857143e-01  2.818791e-02
     vertex -2.103739e-01  2.857143e-01  5.086414e-02
   endloop
 endfacet
 facet normal  0.000000e+00  1.000000e+00  0.000000e+00
   outer loop
     vertex  7.574597e-02  2.857143e-01  6.132079e-02
     vertex -2.369173e-01  2.857143e-01  3.568963e-03
     vertex -2.253764e-01  2.857143e-01  2.818791e-02
   endloop
 endfacet
 facet normal  0.000000e+00  1.000000e+00  0.000000e+00
   outer loop
     vertex  7.574597e-02  2.857143e-01  6.132079e-02
     vertex -2.447506e-01  2.857143e-01 -2.246800e-02
     vertex -2.369173e-01  2.857143e-01  3.568963e-03
   endloop
 endfacet
 facet normal  0.000000e+00  1.000000e+00  0.000000e+00
   outer loop
     vertex  7.574597e-02  2.857143e-01  6.132079e-02
     vertex -2.487095e-01  2.857143e-01 -4.936803e-02
     vertex -2.447506e-01  2.857143e-01 -2.246800e-02
   endloop
 endfacet
 facet normal  0.000000e+00  1.000000e+00  0.000000e+00
   outer loop
     vertex  7.574597e-02  2.857143e-01  6.132079e-02
     vertex -2.487095e-01  2.857143e-01 -7.655782e-02
     vertex -2.487095e-01  2.857143e-01 -4.936803e-02
   endloop
 endfacet
 facet normal  0.000000e+00  1.000000e+00  0.000000e+00
   outer loop
     vertex  7.574597e-02  2.857143e-01  6.132079e-02
     vertex -2.447506e-01  2.857143e-01 -1.034579e-01
     vertex -2.487095e-01  2.857143e-01 -7.655782e-02
   endloop
 endfacet
 facet normal  0.000000e+00  1.000000e+00  0.000000e+00
   outer loop
     vertex  7.574597e-02  2.857143e-01  6.132079e-02
     vertex -2.369173e-01  2.857143e-01 -1.294948e-01
     vertex -2.447506e-01  2.857143e-01 -1.034579e-01
   endloop
 endfacet
 facet normal  0.000000e+00  1.000000e+00  0.000000e+00
   outer loop
     vertex  7.574597e-02  2.857143e-01  6.132079e-02
     vertex -2.253764e-01  2.857143e-01 -1.541138e-01
     vertex -2.369173e-01  2.857143e-01 -1.294948e-01
   endloop
 endfacet
 facet normal  0.000000e+00  1.000000e+00  0.000000e+00
   outer loop
     vertex  7.574597e-02  2.857143e-01  6.132079e-02
     vertex -2.103739e-01  2.857143e-01 -1.767900e-01
     vertex -2.253764e-01  2.857143e-01 -1.541138e-01
   endloop
 endfacet
 facet normal  0.000000e+00  1.000000e+00  0.000000e+00
   outer loop
     vertex  7.574597e-02  2.857143e-01  6.132079e-02
     vertex -1.922297e-01  2.857143e-01 -1.970402e-01
     vertex -2.103739e-01  2.857143e-01 -1.767900e-01
   endloop
 endfacet
 facet normal  0.000000e+00  1.000000e+00  0.000000e+00
   outer loop
     vertex  7.574597e-02  2.857143e-01  6.132079e-02
     vertex -1.713303e-01  2.857143e-01 -2.144328e-01
     vertex -1.922297e-01  2.857143e-01 -1.970402e-01
   endloop
 endfacet
 facet normal  0.000000e+00  1.000000e+00  0.000000e+00
   outer loop
     vertex  7.574597e-02  2.857143e-01  6.132079e-02
     vertex -1.481213e-01  2.857143e-01 -2.285970e-01
     vertex -1.713303e-01  2.857143e-01 -2.144328e-01
   endloop
 endfacet
 facet normal  0.000000e+00  1.000000e+00  0.000000e+00
   outer loop
     vertex  7.574597e-02  2.857143e-01  6.132079e-02
     vertex -1.230973e-01  2.857143e-01 -2.392311e-01
     vertex -1.481213e-01  2.857143e-01 -2.285970e-01
   endloop
 endfacet
 facet normal  0.000000e+00  1.000000e+00  0.000000e+00
   outer loop
     vertex  7.574597e-02  2.857143e-01  6.132079e-02
     vertex -9.679159e-02  2.857143e-01 -2.461083e-01
     vertex -1.230973e-01  2.857143e-01 -2.392311e-01
   endloop
 endfacet
 facet normal  0.000000e+00  1.000000e+00  0.000000e+00
   outer loop
     vertex  7.574597e-02  2.857143e-01  6.132079e-02
     vertex -6.976491e-02  2.857143e-01 -2.490821e-01
     vertex -9.679159e-02  2.857143e-01 -2.461083e-01
   endloop
 endfacet
 facet normal  0.000000e+00  1.000000e+00  0.000000e+00
   outer loop
     vertex  7.574597e-02  2.857143e-01  6.132079e-02
     vertex -4.259326e-02  2.857143e-01 -2.480890e-01
     vertex -6.976491e-02  2.857143e-01 -2.490821e-01
   endloop
 endfacet
 facet normal  0.000000e+00  1.000000e+00  0.000000e+00
   outer loop
     vertex  7.574597e-02  2.857143e-01  6.132079e-02
     vertex -1.585576e-02  2.857143e-01 -2.431504e-01
     vertex -4.259326e-02  2.857143e-01 -2.480890e-01
   endloop
 endfacet
 facet normal  0.000000e+00  1.000000e+00  0.000000e+00
   outer loop
     vertex  7.574597e-02  2.857143e-01  6.132079e-02
     vertex  9.877740e-03  2.857143e-01 -2.343713e-01
     vertex -1.585576e-02  2.857143e-01 -2.431504e-01
   endloop
 endfacet
 facet normal  0.000000e+00  1.000000e+00  0.000000e+00
   outer loop
     vertex  7.574597e-02  2.857143e-01  6.132079e-02
     vertex  3.405877e-02  2.857143e-01 -2.219390e-01
     vertex  9.877740e-03  2.857143e-01 -2.343713e-01
   endloop
 endfacet
 facet normal  0.000000e+00  1.000000e+00  0.000000e+00
   outer loop
     vertex  7.574597e-02  2.857143e-01  6.132079e-02
     vertex  5.617194e-02  2.857143e-01 -2.061184e-01
     vertex  3.405877e-02  2.857143e-01 -2.219390e-01
   endloop
 endfacet
 facet normal  0.000000e+00  1.000000e+00  0.000000e+00
   outer loop
     vertex  7.574597e-02  2.857143e-01  6.132079e-02
     vertex  7.574597e-02  2.857143e-01 -1.872466e-01
     vertex  5.617194e-02  2.857143e-01 -2.061184e-01
   endloop
 endfacet
 facet normal  0.000000e+00  1.000000e+00  0.000000e+00
   outer loop
     vertex  7.574597e-02  2.857143e-01  6.132079e-02
     vertex  9.236365e-02  2.857143e-01 -1.657260e-01
     vertex  7.574597e-02  2.857143e-01 -1.872466e-01
   endloop
 endfacet
 facet normal  0.000000e+00  1.000000e+00  0.000000e+00
   outer loop
     vertex  7.574597e-02  2.857143e-01  6.132079e-02
     vertex  1.056708e-01  2.857143e-01 -1.420152e-01
     vertex  9.236365e-02  2.857143e-01 -1.657260e-01
   endloop
 endfacet
 facet normal  0.000000e+00  1.000000e+00  0.000000e+00
   outer loop
     vertex  7.574597e-02  2.857143e-01  6.132079e-02
     vertex  1.153839e-01  2.857143e-01 -1.166195e-01
     vertex  1.056708e-01  2.857143e-01 -1.420152e-01
   endloop
 endfacet
 facet normal  0.000000e+00  1.000000e+00  0.000000e+00
   outer loop
     vertex  7.574597e-02  2.857143e-01  6.132079e-02
     vertex  1.212957e-01  2.857143e-01 -9.008018e-02
     vertex  1.153839e-01  2.857143e-01 -1.166195e-01
   endloop
 endfacet
 facet normal  0.000000e+00  1.000000e+00  0.000000e+00
   outer loop
     vertex  7.574597e-02  2.857143e-01  6.132079e-02
     vertex  1.232805e-01  2.857143e-01 -6.296293e-02
     vertex  1.212957e-01  2.857143e-01 -9.008018e-02
   endloop
 endfacet
endsolid
