solid 
 facet normal -1.000000e+00  0.000000e+00  0.000000e+00
   outer loop
     vertex -9.747795e-01  7.077602e-01 -1.587302e-02
     vertex -9.747795e-01 -8.626102e-01 -1.587302e-02
     vertex -9.747795e-01 -8.626102e-01  1.587302e-01
   endloop
 endfacet
 facet normal -1.000000e+00  0.000000e+00  0.000000e+00
   outer loop
     vertex -9.747795e-01  7.077602e-01 -1.587302e-02
     vertex -9.747795e-01 -8.626102e-01  1.587302e-01
     vertex -9.747795e-01  7.077602e-01  1.587302e-01
   endloop
 endfacet
 facet normal  0.000000e+00 -1.000000e+00  0.000000e+00
   outer loop
     vertex -9.747795e-01 -8.626102e-01 -1.587302e-02
     vertex  8.199295e-01 -8.626102e-01 -1.587302e-02
     vertex  8.199295e-01 -8.626102e-01  1.587302e-01
   endloop
 endfacet
 facet normal  0.000000e+00 -1.000000e+00  0.000000e+00
   outer loop
     vertex -9.747795e-01 -8.626102e-01 -1.587302e-02
     vertex  8.199295e-01 -8.626102e-01  1.587302e-01
     vertex -9.747795e-01 -8.626102e-01  1.587302e-01
   endloop
 endfacet
 facet normal  0.000000e+00  1.000000e+00  0.000000e+00
   outer loop
     vertex -9.747795e-01  7.077602e-01 -1.587302e-02
     vertex -9.747795e-01  7.077602e-01  1.587302e-01
     vertex -8.809524e-01  7.077602e-01  1.587302e-01
   endloop
 endfacet
 facet normal  0.000000e+00  1.000000e+00  0.000000e+00
   outer loop
     vertex  8.199295e-01  7.077602e-01 -1.587302e-02
     vertex -8.809524e-01  7.077602e-01  1.587302e-01
     vertex  7.373898e-01  7.077602e-01  1.587302e-01
   endloop
 endfacet
 facet normal  0.000000e+00  1.000000e+00 -0.000000e+00
   outer loop
     vertex  8.199295e-01  7.077602e-01 -1.587302e-02
     vertex  7.373898e-01  7.077602e-01  1.587302e-01
     vertex  8.199295e-01  7.077602e-01  1.587302e-01
   endloop
 endfacet
 facet normal  0.000000e+00  1.000000e+00  0.000000e+00
   outer loop
     vertex  8.199295e-01  7.077602e-01 -1.587302e-02
     vertex -9.747795e-01  7.077602e-01 -1.587302e-02
     vertex -8.809524e-01  7.077602e-01  1.587302e-01
   endloop
 endfacet
 facet normal -1.000000e+00 -0.000000e+00  0.000000e+00
   outer loop
     vertex -9.747795e-01  7.077602e-01 -1.587302e-02
     vertex -9.747795e-01 -8.626102e-01 -3.174603e-02
     vertex -9.747795e-01 -8.626102e-01 -1.587302e-02
   endloop
 endfacet
 facet normal -1.000000e+00  0.000000e+00 -0.000000e+00
   outer loop
     vertex -9.747795e-01  7.077602e-01 -1.587302e-02
     vertex -9.747795e-01  7.077602e-01 -3.174603e-02
     vertex -9.747795e-01 -8.626102e-01 -3.174603e-02
   endloop
 endfacet
 facet normal  0.000000e+00  0.000000e+00  1.000000e+00
   outer loop
     vertex -9.373897e-01  6.703704e-01  1.587302e-01
     vertex -9.747795e-01 -8.626102e-01  1.587302e-01
     vertex -9.373897e-01 -8.252205e-01  1.587302e-01
   endloop
 endfacet
 facet normal  0.000000e+00  0.000000e+00  1.000000e+00
   outer loop
     vertex -9.747795e-01  7.077602e-01  1.587302e-01
     vertex -9.747795e-01 -8.626102e-01  1.587302e-01
     vertex -9.373897e-01  6.703704e-01  1.587302e-01
   endloop
 endfacet
 facet normal  0.000000e+00  0.000000e+00  1.000000e+00
   outer loop
     vertex -8.809524e-01  7.077602e-01  1.587302e-01
     vertex -9.373897e-01  6.703704e-01  1.587302e-01
     vertex -8.809524e-01  6.950617e-01  1.587302e-01
   endloop
 endfacet
 facet normal  0.000000e+00  0.000000e+00  1.000000e+00
   outer loop
     vertex -8.809524e-01  7.077602e-01  1.587302e-01
     vertex -9.747795e-01  7.077602e-01  1.587302e-01
     vertex -9.373897e-01  6.703704e-01  1.587302e-01
   endloop
 endfacet
 facet normal  0.000000e+00  0.000000e+00  1.000000e+00
   outer loop
     vertex  7.451500e-01 -8.252205e-01  1.587302e-01
     vertex -9.373897e-01 -8.252205e-01  1.587302e-01
     vertex -9.747795e-01 -8.626102e-01  1.587302e-01
   endloop
 endfacet
 facet normal  0.000000e+00  0.000000e+00  1.000000e+00
   outer loop
     vertex  8.199295e-01 -8.626102e-01  1.587302e-01
     vertex  7.451500e-01 -8.252205e-01  1.587302e-01
     vertex -9.747795e-01 -8.626102e-01  1.587302e-01
   endloop
 endfacet
 facet normal  0.000000e+00  0.000000e+00  1.000000e+00
   outer loop
     vertex  7.451500e-01  6.703704e-01  1.587302e-01
     vertex  7.451500e-01 -8.252205e-01  1.587302e-01
     vertex  8.199295e-01 -8.626102e-01  1.587302e-01
   endloop
 endfacet
 facet normal  0.000000e+00  0.000000e+00  1.000000e+00
   outer loop
     vertex  7.373898e-01  6.950617e-01  1.587302e-01
     vertex -8.809524e-01  6.950617e-01  1.587302e-01
     vertex  7.451500e-01  6.703704e-01  1.587302e-01
   endloop
 endfacet
 facet normal  0.000000e+00  0.000000e+00  1.000000e+00
   outer loop
     vertex  8.199295e-01  7.077602e-01  1.587302e-01
     vertex  7.373898e-01  7.077602e-01  1.587302e-01
     vertex  7.373898e-01  6.950617e-01  1.587302e-01
   endloop
 endfacet
 facet normal  0.000000e+00  0.000000e+00  1.000000e+00
   outer loop
     vertex  8.199295e-01  7.077602e-01  1.587302e-01
     vertex  7.451500e-01  6.703704e-01  1.587302e-01
     vertex  8.199295e-01 -8.626102e-01  1.587302e-01
   endloop
 endfacet
 facet normal  0.000000e+00  0.000000e+00  1.000000e+00
   outer loop
     vertex  8.199295e-01  7.077602e-01  1.587302e-01
     vertex  7.373898e-01  6.950617e-01  1.587302e-01
     vertex  7.451500e-01  6.703704e-01  1.587302e-01
   endloop
 endfacet
 facet normal  0.000000e+00  0.000000e+00  1.000000e+00
   outer loop
     vertex -9.373897e-01  6.703704e-01  1.587302e-01
     vertex  7.451500e-01  6.703704e-01  1.587302e-01
     vertex -8.809524e-01  6.950617e-01  1.587302e-01
   endloop
 endfacet
 facet normal  1.000000e+00  0.000000e+00  0.000000e+00
   outer loop
     vertex  8.199295e-01 -8.626102e-01 -1.587302e-02
     vertex  8.199295e-01  7.077602e-01 -1.587302e-02
     vertex  8.199295e-01  7.077602e-01  1.587302e-01
   endloop
 endfacet
 facet normal  1.000000e+00  0.000000e+00  0.000000e+00
   outer loop
     vertex  8.199295e-01 -8.626102e-01 -1.587302e-02
     vertex  8.199295e-01  7.077602e-01  1.587302e-01
     vertex  8.199295e-01 -8.626102e-01  1.587302e-01
   endloop
 endfacet
 facet normal  0.000000e+00 -1.000000e+00  0.000000e+00
   outer loop
     vertex -9.747795e-01 -8.626102e-01 -1.587302e-02
     vertex  8.199295e-01 -8.626102e-01 -3.174603e-02
     vertex  8.199295e-01 -8.626102e-01 -1.587302e-02
   endloop
 endfacet
 facet normal  0.000000e+00 -1.000000e+00  0.000000e+00
   outer loop
     vertex -9.747795e-01 -8.626102e-01 -1.587302e-02
     vertex -9.747795e-01 -8.626102e-01 -3.174603e-02
     vertex  8.199295e-01 -8.626102e-01 -3.174603e-02
   endloop
 endfacet
 facet normal  0.000000e+00  1.000000e+00  0.000000e+00
   outer loop
     vertex  8.199295e-01  7.077602e-01 -1.587302e-02
     vertex -9.747795e-01  7.077602e-01 -3.174603e-02
     vertex -9.747795e-01  7.077602e-01 -1.587302e-02
   endloop
 endfacet
 facet normal  0.000000e+00  1.000000e+00  0.000000e+00
   outer loop
     vertex  8.199295e-01  7.077602e-01 -1.587302e-02
     vertex  8.199295e-01  7.077602e-01 -3.174603e-02
     vertex -9.747795e-01  7.077602e-01 -3.174603e-02
   endloop
 endfacet
 facet normal -0.000000e+00  0.000000e+00 -1.000000e+00
   outer loop
     vertex  7.373898e-01  7.994710e-01  1.587302e-01
     vertex -8.809524e-01  7.077602e-01  1.587302e-01
     vertex -8.809524e-01  7.994710e-01  1.587302e-01
   endloop
 endfacet
 facet normal  0.000000e+00 -0.000000e+00 -1.000000e+00
   outer loop
     vertex  7.373898e-01  7.994710e-01  1.587302e-01
     vertex  7.373898e-01  7.077602e-01  1.587302e-01
     vertex -8.809524e-01  7.077602e-01  1.587302e-01
   endloop
 endfacet
 facet normal  0.000000e+00 -0.000000e+00 -1.000000e+00
   outer loop
     vertex -9.373897e-01  6.703704e-01 -3.174603e-02
     vertex -9.373897e-01 -8.252205e-01 -3.174603e-02
     vertex -9.747795e-01 -8.626102e-01 -3.174603e-02
   endloop
 endfacet
 facet normal  0.000000e+00  0.000000e+00 -1.000000e+00
   outer loop
     vertex -9.747795e-01  7.077602e-01 -3.174603e-02
     vertex -9.373897e-01  6.703704e-01 -3.174603e-02
     vertex -9.747795e-01 -8.626102e-01 -3.174603e-02
   endloop
 endfacet
 facet normal -0.000000e+00  0.000000e+00 -1.000000e+00
   outer loop
     vertex  7.451500e-01 -8.252205e-01 -3.174603e-02
     vertex -9.747795e-01 -8.626102e-01 -3.174603e-02
     vertex -9.373897e-01 -8.252205e-01 -3.174603e-02
   endloop
 endfacet
 facet normal  0.000000e+00  0.000000e+00 -1.000000e+00
   outer loop
     vertex  8.199295e-01 -8.626102e-01 -3.174603e-02
     vertex -9.747795e-01 -8.626102e-01 -3.174603e-02
     vertex  7.451500e-01 -8.252205e-01 -3.174603e-02
   endloop
 endfacet
 facet normal  0.000000e+00  0.000000e+00 -1.000000e+00
   outer loop
     vertex  7.451500e-01  6.703704e-01 -3.174603e-02
     vertex  8.199295e-01 -8.626102e-01 -3.174603e-02
     vertex  7.451500e-01 -8.252205e-01 -3.174603e-02
   endloop
 endfacet
 facet normal  0.000000e+00 -0.000000e+00 -1.000000e+00
   outer loop
     vertex  8.199295e-01  7.077602e-01 -3.174603e-02
     vertex  8.199295e-01 -8.626102e-01 -3.174603e-02
     vertex  7.451500e-01  6.703704e-01 -3.174603e-02
   endloop
 endfacet
 facet normal -0.000000e+00  0.000000e+00 -1.000000e+00
   outer loop
     vertex  8.199295e-01  7.077602e-01 -3.174603e-02
     vertex -9.373897e-01  6.703704e-01 -3.174603e-02
     vertex -9.747795e-01  7.077602e-01 -3.174603e-02
   endloop
 endfacet
 facet normal  0.000000e+00  0.000000e+00 -1.000000e+00
   outer loop
     vertex  8.199295e-01  7.077602e-01 -3.174603e-02
     vertex  7.451500e-01  6.703704e-01 -3.174603e-02
     vertex -9.373897e-01  6.703704e-01 -3.174603e-02
   endloop
 endfacet
 facet normal -1.000000e+00  0.000000e+00  0.000000e+00
   outer loop
     vertex -8.809524e-01  7.077602e-01  1.587302e-01
     vertex -8.809524e-01  7.994710e-01  1.746032e-01
     vertex -8.809524e-01  7.994710e-01  1.587302e-01
   endloop
 endfacet
 facet normal -1.000000e+00  0.000000e+00  0.000000e+00
   outer loop
     vertex -8.809524e-01  6.950617e-01  1.746032e-01
     vertex -8.809524e-01  7.077602e-01  1.587302e-01
     vertex -8.809524e-01  6.950617e-01  1.587302e-01
   endloop
 endfacet
 facet normal -1.000000e+00  0.000000e+00  0.000000e+00
   outer loop
     vertex -8.809524e-01  6.950617e-01  1.746032e-01
     vertex -8.809524e-01  7.994710e-01  1.746032e-01
     vertex -8.809524e-01  7.077602e-01  1.587302e-01
   endloop
 endfacet
 facet normal -0.000000e+00 -1.000000e+00  0.000000e+00
   outer loop
     vertex  7.373898e-01  6.950617e-01  1.746032e-01
     vertex -8.809524e-01  6.950617e-01  1.746032e-01
     vertex -8.809524e-01  6.950617e-01  1.587302e-01
   endloop
 endfacet
 facet normal  0.000000e+00 -1.000000e+00 -0.000000e+00
   outer loop
     vertex  7.373898e-01  6.950617e-01  1.746032e-01
     vertex -8.809524e-01  6.950617e-01  1.587302e-01
     vertex  7.373898e-01  6.950617e-01  1.587302e-01
   endloop
 endfacet
 facet normal  1.000000e+00  0.000000e+00  0.000000e+00
   outer loop
     vertex  7.373898e-01  6.950617e-01  1.746032e-01
     vertex  7.373898e-01  6.950617e-01  1.587302e-01
     vertex  7.373898e-01  7.077602e-01  1.587302e-01
   endloop
 endfacet
 facet normal  1.000000e+00  0.000000e+00  0.000000e+00
   outer loop
     vertex  7.373898e-01  7.994710e-01  1.746032e-01
     vertex  7.373898e-01  7.077602e-01  1.587302e-01
     vertex  7.373898e-01  7.994710e-01  1.587302e-01
   endloop
 endfacet
 facet normal  1.000000e+00  0.000000e+00  0.000000e+00
   outer loop
     vertex  7.373898e-01  7.994710e-01  1.746032e-01
     vertex  7.373898e-01  6.950617e-01  1.746032e-01
     vertex  7.373898e-01  7.077602e-01  1.587302e-01
   endloop
 endfacet
 facet normal  0.000000e+00  1.000000e+00  0.000000e+00
   outer loop
     vertex -9.373897e-01 -8.252205e-01 -1.587302e-02
     vertex  7.451500e-01 -8.252205e-01  1.587302e-01
     vertex  7.451500e-01 -8.252205e-01 -1.587302e-02
   endloop
 endfacet
 facet normal  0.000000e+00  1.000000e+00  0.000000e+00
   outer loop
     vertex -9.373897e-01 -8.252205e-01 -1.587302e-02
     vertex -9.373897e-01 -8.252205e-01  1.587302e-01
     vertex  7.451500e-01 -8.252205e-01  1.587302e-01
   endloop
 endfacet
 facet normal -1.000000e+00  0.000000e+00  0.000000e+00
   outer loop
     vertex  7.451500e-01 -8.252205e-01 -1.587302e-02
     vertex  7.451500e-01  6.703704e-01  1.587302e-01
     vertex  7.451500e-01  6.703704e-01 -1.587302e-02
   endloop
 endfacet
 facet normal -1.000000e+00  0.000000e+00  0.000000e+00
   outer loop
     vertex  7.451500e-01 -8.252205e-01 -1.587302e-02
     vertex  7.451500e-01 -8.252205e-01  1.587302e-01
     vertex  7.451500e-01  6.703704e-01  1.587302e-01
   endloop
 endfacet
 facet normal  1.000000e+00  0.000000e+00  0.000000e+00
   outer loop
     vertex -9.373897e-01  6.703704e-01 -1.587302e-02
     vertex -9.373897e-01 -8.252205e-01  1.587302e-01
     vertex -9.373897e-01 -8.252205e-01 -1.587302e-02
   endloop
 endfacet
 facet normal  1.000000e+00  0.000000e+00 -0.000000e+00
   outer loop
     vertex -9.373897e-01  6.703704e-01 -1.587302e-02
     vertex -9.373897e-01  6.703704e-01  1.587302e-01
     vertex -9.373897e-01 -8.252205e-01  1.587302e-01
   endloop
 endfacet
 facet normal  0.000000e+00 -1.000000e+00  0.000000e+00
   outer loop
     vertex  7.451500e-01  6.703704e-01 -1.587302e-02
     vertex -9.373897e-01  6.703704e-01  1.587302e-01
     vertex -9.373897e-01  6.703704e-01 -1.587302e-02
   endloop
 endfacet
 facet normal  0.000000e+00 -1.000000e+00  0.000000e+00
   outer loop
     vertex  7.451500e-01  6.703704e-01 -1.587302e-02
     vertex  7.451500e-01  6.703704e-01  1.587302e-01
     vertex -9.373897e-01  6.703704e-01  1.587302e-01
   endloop
 endfacet
 facet normal  1.000000e+00 -0.000000e+00  0.000000e+00
   outer loop
     vertex  8.199295e-01 -8.626102e-01 -1.587302e-02
     vertex  8.199295e-01  7.077602e-01 -3.174603e-02
     vertex  8.199295e-01  7.077602e-01 -1.587302e-02
   endloop
 endfacet
 facet normal  1.000000e+00  0.000000e+00  0.000000e+00
   outer loop
     vertex  8.199295e-01 -8.626102e-01 -1.587302e-02
     vertex  8.199295e-01 -8.626102e-01 -3.174603e-02
     vertex  8.199295e-01  7.077602e-01 -3.174603e-02
   endloop
 endfacet
 facet normal -0.000000e+00  1.000000e+00  0.000000e+00
   outer loop
     vertex -8.809524e-01  7.994710e-01  1.746032e-01
     vertex  7.373898e-01  7.994710e-01  1.746032e-01
     vertex  7.373898e-01  7.994710e-01  1.587302e-01
   endloop
 endfacet
 facet normal  0.000000e+00  1.000000e+00  0.000000e+00
   outer loop
     vertex -8.809524e-01  7.994710e-01  1.746032e-01
     vertex  7.373898e-01  7.994710e-01  1.587302e-01
     vertex -8.809524e-01  7.994710e-01  1.587302e-01
   endloop
 endfacet
 facet normal -0.000000e+00  1.000000e+00  0.000000e+00
   outer loop
     vertex -9.373897e-01 -8.252205e-01 -1.587302e-02
     vertex  7.451500e-01 -8.252205e-01 -1.587302e-02
     vertex  7.451500e-01 -8.252205e-01 -3.174603e-02
   endloop
 endfacet
 facet normal  0.000000e+00  1.000000e+00  0.000000e+00
   outer loop
     vertex -9.373897e-01 -8.252205e-01 -1.587302e-02
     vertex  7.451500e-01 -8.252205e-01 -3.174603e-02
     vertex -9.373897e-01 -8.252205e-01 -3.174603e-02
   endloop
 endfacet
 facet normal -1.000000e+00  0.000000e+00  0.000000e+00
   outer loop
     vertex  7.451500e-01 -8.252205e-01 -1.587302e-02
     vertex  7.451500e-01  6.703704e-01 -1.587302e-02
     vertex  7.451500e-01  6.703704e-01 -3.174603e-02
   endloop
 endfacet
 facet normal -1.000000e+00  0.000000e+00  0.000000e+00
   outer loop
     vertex  7.451500e-01 -8.252205e-01 -1.587302e-02
     vertex  7.451500e-01  6.703704e-01 -3.174603e-02
     vertex  7.451500e-01 -8.252205e-01 -3.174603e-02
   endloop
 endfacet
 facet normal -0.000000e+00 -1.000000e+00  0.000000e+00
   outer loop
     vertex  7.451500e-01  6.703704e-01 -1.587302e-02
     vertex -9.373897e-01  6.703704e-01 -1.587302e-02
     vertex -9.373897e-01  6.703704e-01 -3.174603e-02
   endloop
 endfacet
 facet normal  0.000000e+00 -1.000000e+00 -0.000000e+00
   outer loop
     vertex  7.451500e-01  6.703704e-01 -1.587302e-02
     vertex -9.373897e-01  6.703704e-01 -3.174603e-02
     vertex  7.451500e-01  6.703704e-01 -3.174603e-02
   endloop
 endfacet
 facet normal  1.000000e+00  0.000000e+00  0.000000e+00
   outer loop
     vertex -9.373897e-01  6.703704e-01 -1.587302e-02
     vertex -9.373897e-01 -8.252205e-01 -1.587302e-02
     vertex -9.373897e-01 -8.252205e-01 -3.174603e-02
   endloop
 endfacet
 facet normal  1.000000e+00  0.000000e+00  0.000000e+00
   outer loop
     vertex -9.373897e-01  6.703704e-01 -1.587302e-02
     vertex -9.373897e-01 -8.252205e-01 -3.174603e-02
     vertex -9.373897e-01  6.703704e-01 -3.174603e-02
   endloop
 endfacet
 facet normal -1.000000e+00  0.000000e+00  0.000000e+00
   outer loop
     vertex -8.809524e-01  6.950617e-01  1.746032e-01
     vertex -8.809524e-01  7.994710e-01  3.492064e-01
     vertex -8.809524e-01  7.994710e-01  1.746032e-01
   endloop
 endfacet
 facet normal -1.000000e+00  0.000000e+00  0.000000e+00
   outer loop
     vertex -8.809524e-01  6.950617e-01  1.746032e-01
     vertex -8.809524e-01  6.950617e-01  3.492064e-01
     vertex -8.809524e-01  7.994710e-01  3.492064e-01
   endloop
 endfacet
 facet normal  0.000000e+00 -1.000000e+00  0.000000e+00
   outer loop
     vertex  7.373898e-01  6.950617e-01  1.746032e-01
     vertex -8.809524e-01  6.950617e-01  3.492064e-01
     vertex -8.809524e-01  6.950617e-01  1.746032e-01
   endloop
 endfacet
 facet normal  0.000000e+00 -1.000000e+00  0.000000e+00
   outer loop
     vertex  7.373898e-01  6.950617e-01  1.746032e-01
     vertex  7.373898e-01  6.950617e-01  3.492064e-01
     vertex -8.809524e-01  6.950617e-01  3.492064e-01
   endloop
 endfacet
 facet normal  1.000000e+00  0.000000e+00  0.000000e+00
   outer loop
     vertex  7.373898e-01  7.994710e-01  1.746032e-01
     vertex  7.373898e-01  6.950617e-01  3.492064e-01
     vertex  7.373898e-01  6.950617e-01  1.746032e-01
   endloop
 endfacet
 facet normal  1.000000e+00  0.000000e+00 -0.000000e+00
   outer loop
     vertex  7.373898e-01  7.994710e-01  1.746032e-01
     vertex  7.373898e-01  7.994710e-01  3.492064e-01
     vertex  7.373898e-01  6.950617e-01  3.492064e-01
   endloop
 endfacet
 facet normal  0.000000e+00  1.000000e+00  0.000000e+00
   outer loop
     vertex -8.809524e-01  7.994710e-01  1.746032e-01
     vertex  7.373898e-01  7.994710e-01  3.492064e-01
     vertex  7.373898e-01  7.994710e-01  1.746032e-01
   endloop
 endfacet
 facet normal  0.000000e+00  1.000000e+00  0.000000e+00
   outer loop
     vertex -8.809524e-01  7.994710e-01  1.746032e-01
     vertex -8.809524e-01  7.994710e-01  3.492064e-01
     vertex  7.373898e-01  7.994710e-01  3.492064e-01
   endloop
 endfacet
 facet normal  0.000000e+00  0.000000e+00  1.000000e+00
   outer loop
     vertex  7.373898e-01  7.994710e-01  3.492064e-01
     vertex -8.809524e-01  6.950617e-01  3.492064e-01
     vertex  7.373898e-01  6.950617e-01  3.492064e-01
   endloop
 endfacet
 facet normal  0.000000e+00  0.000000e+00  1.000000e+00
   outer loop
     vertex  7.373898e-01  7.994710e-01  3.492064e-01
     vertex -8.809524e-01  7.994710e-01  3.492064e-01
     vertex -8.809524e-01  6.950617e-01  3.492064e-01
   endloop
 endfacet
endsolid
