solid 
 facet normal  0.000000e+00 -1.000000e+00  0.000000e+00
   outer loop
     vertex -8.871249e-02 -1.754850e-01 -1.587302e-02
     vertex -2.904762e-01 -1.754850e-01  9.841270e-01
     vertex -2.904762e-01 -1.754850e-01 -1.587302e-02
   endloop
 endfacet
 facet normal  0.000000e+00 -1.000000e+00  0.000000e+00
   outer loop
     vertex -8.871249e-02 -1.754850e-01 -1.587302e-02
     vertex -8.871249e-02 -1.754850e-01  9.841270e-01
     vertex -2.904762e-01 -1.754850e-01  9.841270e-01
   endloop
 endfacet
 facet normal -1.000000e+00  0.000000e+00  0.000000e+00
   outer loop
     vertex -2.904762e-01 -1.754850e-01 -1.587302e-02
     vertex -2.904762e-01 -6.543211e-02  9.841270e-01
     vertex -2.904762e-01 -6.543211e-02 -1.587302e-02
   endloop
 endfacet
 facet normal -1.000000e+00  0.000000e+00  0.000000e+00
   outer loop
     vertex -2.904762e-01 -1.754850e-01 -1.587302e-02
     vertex -2.904762e-01 -1.754850e-01  9.841270e-01
     vertex -2.904762e-01 -6.543211e-02  9.841270e-01
   endloop
 endfacet
 facet normal  0.000000e+00 -1.000000e+00  0.000000e+00
   outer loop
     vertex  6.719581e-02 -1.754850e-01 -1.587302e-02
     vertex -8.871249e-02 -1.754850e-01  9.841270e-01
     vertex -8.871249e-02 -1.754850e-01 -1.587302e-02
   endloop
 endfacet
 facet normal  0.000000e+00 -1.000000e+00  0.000000e+00
   outer loop
     vertex  6.719581e-02 -1.754850e-01 -1.587302e-02
     vertex  6.719581e-02 -1.754850e-01  9.841270e-01
     vertex -8.871249e-02 -1.754850e-01  9.841270e-01
   endloop
 endfacet
 facet normal -0.000000e+00 -1.000000e+00  0.000000e+00
   outer loop
     vertex -8.871249e-02 -1.754850e-01 -1.587302e-02
     vertex -2.904762e-01 -1.754850e-01 -1.587302e-02
     vertex -2.904762e-01 -1.754850e-01 -3.174603e-02
   endloop
 endfacet
 facet normal  0.000000e+00 -1.000000e+00 -0.000000e+00
   outer loop
     vertex -8.871249e-02 -1.754850e-01 -1.587302e-02
     vertex -2.904762e-01 -1.754850e-01 -3.174603e-02
     vertex -8.871249e-02 -1.754850e-01 -3.174603e-02
   endloop
 endfacet
 facet normal  0.000000e+00  0.000000e+00  1.000000e+00
   outer loop
     vertex -8.871249e-02 -1.754850e-01  9.841270e-01
     vertex -2.904762e-01 -6.543211e-02  9.841270e-01
     vertex -2.904762e-01 -1.754850e-01  9.841270e-01
   endloop
 endfacet
 facet normal  0.000000e+00  0.000000e+00  1.000000e+00
   outer loop
     vertex  2.781306e-01 -6.543211e-02  9.841270e-01
     vertex  6.719581e-02 -1.754850e-01  9.841270e-01
     vertex  2.781306e-01 -1.754850e-01  9.841270e-01
   endloop
 endfacet
 facet normal  0.000000e+00  0.000000e+00  1.000000e+00
   outer loop
     vertex  2.781306e-01 -6.543211e-02  9.841270e-01
     vertex -2.904762e-01 -6.543211e-02  9.841270e-01
     vertex -8.871249e-02 -1.754850e-01  9.841270e-01
   endloop
 endfacet
 facet normal  0.000000e+00  0.000000e+00  1.000000e+00
   outer loop
     vertex  2.781306e-01 -6.543211e-02  9.841270e-01
     vertex -8.871249e-02 -1.754850e-01  9.841270e-01
     vertex  6.719581e-02 -1.754850e-01  9.841270e-01
   endloop
 endfacet
 facet normal  0.000000e+00  1.000000e+00  0.000000e+00
   outer loop
     vertex -2.904762e-01 -6.543211e-02 -1.587302e-02
     vertex  2.781306e-01 -6.543211e-02  9.841270e-01
     vertex  2.781306e-01 -6.543211e-02 -1.587302e-02
   endloop
 endfacet
 facet normal  0.000000e+00  1.000000e+00  0.000000e+00
   outer loop
     vertex -2.904762e-01 -6.543211e-02 -1.587302e-02
     vertex -2.904762e-01 -6.543211e-02  9.841270e-01
     vertex  2.781306e-01 -6.543211e-02  9.841270e-01
   endloop
 endfacet
 facet normal -1.000000e+00  0.000000e+00  0.000000e+00
   outer loop
     vertex -2.904762e-01 -1.754850e-01 -1.587302e-02
     vertex -2.904762e-01 -6.543211e-02 -1.587302e-02
     vertex -2.904762e-01 -6.543211e-02 -3.174603e-02
   endloop
 endfacet
 facet normal -1.000000e+00  0.000000e+00  0.000000e+00
   outer loop
     vertex -2.904762e-01 -1.754850e-01 -1.587302e-02
     vertex -2.904762e-01 -6.543211e-02 -3.174603e-02
     vertex -2.904762e-01 -1.754850e-01 -3.174603e-02
   endloop
 endfacet
 facet normal  0.000000e+00 -1.000000e+00  0.000000e+00
   outer loop
     vertex  2.781306e-01 -1.754850e-01 -1.587302e-02
     vertex  6.719581e-02 -1.754850e-01  9.841270e-01
     vertex  6.719581e-02 -1.754850e-01 -1.587302e-02
   endloop
 endfacet
 facet normal  0.000000e+00 -1.000000e+00  0.000000e+00
   outer loop
     vertex  2.781306e-01 -1.754850e-01 -1.587302e-02
     vertex  2.781306e-01 -1.754850e-01  9.841270e-01
     vertex  6.719581e-02 -1.754850e-01  9.841270e-01
   endloop
 endfacet
 facet normal -0.000000e+00 -1.000000e+00  0.000000e+00
   outer loop
     vertex  6.719581e-02 -1.754850e-01 -1.587302e-02
     vertex -8.871249e-02 -1.754850e-01 -1.587302e-02
     vertex -8.871249e-02 -1.754850e-01 -3.174603e-02
   endloop
 endfacet
 facet normal  0.000000e+00 -1.000000e+00 -0.000000e+00
   outer loop
     vertex  6.719581e-02 -1.754850e-01 -1.587302e-02
     vertex -8.871249e-02 -1.754850e-01 -3.174603e-02
     vertex  6.719581e-02 -1.754850e-01 -3.174603e-02
   endloop
 endfacet
 facet normal  0.000000e+00  0.000000e+00 -1.000000e+00
   outer loop
     vertex -8.871249e-02 -1.754850e-01 -3.174603e-02
     vertex -2.904762e-01 -1.754850e-01 -3.174603e-02
     vertex -2.904762e-01 -6.543211e-02 -3.174603e-02
   endloop
 endfacet
 facet normal  0.000000e+00 -0.000000e+00 -1.000000e+00
   outer loop
     vertex  2.781306e-01 -6.543211e-02 -3.174603e-02
     vertex  2.781306e-01 -1.754850e-01 -3.174603e-02
     vertex  6.719581e-02 -1.754850e-01 -3.174603e-02
   endloop
 endfacet
 facet normal -0.000000e+00  0.000000e+00 -1.000000e+00
   outer loop
     vertex  2.781306e-01 -6.543211e-02 -3.174603e-02
     vertex -8.871249e-02 -1.754850e-01 -3.174603e-02
     vertex -2.904762e-01 -6.543211e-02 -3.174603e-02
   endloop
 endfacet
 facet normal  0.000000e+00  0.000000e+00 -1.000000e+00
   outer loop
     vertex  2.781306e-01 -6.543211e-02 -3.174603e-02
     vertex  6.719581e-02 -1.754850e-01 -3.174603e-02
     vertex -8.871249e-02 -1.754850e-01 -3.174603e-02
   endloop
 endfacet
 facet normal  1.000000e+00  0.000000e+00  0.000000e+00
   outer loop
     vertex  2.781306e-01 -6.543211e-02 -1.587302e-02
     vertex  2.781306e-01 -1.754850e-01  9.841270e-01
     vertex  2.781306e-01 -1.754850e-01 -1.587302e-02
   endloop
 endfacet
 facet normal  1.000000e+00  0.000000e+00 -0.000000e+00
   outer loop
     vertex  2.781306e-01 -6.543211e-02 -1.587302e-02
     vertex  2.781306e-01 -6.543211e-02  9.841270e-01
     vertex  2.781306e-01 -1.754850e-01  9.841270e-01
   endloop
 endfacet
 facet normal -0.000000e+00  1.000000e+00  0.000000e+00
   outer loop
     vertex -2.904762e-01 -6.543211e-02 -1.587302e-02
     vertex  2.781306e-01 -6.543211e-02 -1.587302e-02
     vertex  2.781306e-01 -6.543211e-02 -3.174603e-02
   endloop
 endfacet
 facet normal  0.000000e+00  1.000000e+00  0.000000e+00
   outer loop
     vertex -2.904762e-01 -6.543211e-02 -1.587302e-02
     vertex  2.781306e-01 -6.543211e-02 -3.174603e-02
     vertex -2.904762e-01 -6.543211e-02 -3.174603e-02
   endloop
 endfacet
 facet normal -0.000000e+00 -1.000000e+00  0.000000e+00
   outer loop
     vertex  2.781306e-01 -1.754850e-01 -1.587302e-02
     vertex  6.719581e-02 -1.754850e-01 -1.587302e-02
     vertex  6.719581e-02 -1.754850e-01 -3.174603e-02
   endloop
 endfacet
 facet normal  0.000000e+00 -1.000000e+00 -0.000000e+00
   outer loop
     vertex  2.781306e-01 -1.754850e-01 -1.587302e-02
     vertex  6.719581e-02 -1.754850e-01 -3.174603e-02
     vertex  2.781306e-01 -1.754850e-01 -3.174603e-02
   endloop
 endfacet
 facet normal  1.000000e+00  0.000000e+00  0.000000e+00
   outer loop
     vertex  2.781306e-01 -6.543211e-02 -1.587302e-02
     vertex  2.781306e-01 -1.754850e-01 -1.587302e-02
     vertex  2.781306e-01 -1.754850e-01 -3.174603e-02
   endloop
 endfacet
 facet normal  1.000000e+00  0.000000e+00  0.000000e+00
   outer loop
     vertex  2.781306e-01 -6.543211e-02 -1.587302e-02
     vertex  2.781306e-01 -1.754850e-01 -3.174603e-02
     vertex  2.781306e-01 -6.543211e-02 -3.174603e-02
   endloop
 endfacet
 facet normal -9.965845e-01 -8.257935e-02  0.000000e+00
   outer loop
     vertex -1.404422e-01  7.089201e-02 -1.587302e-02
     vertex -1.423280e-01  9.365077e-02  6.349212e-02
     vertex -1.423280e-01  9.365077e-02 -1.587302e-02
   endloop
 endfacet
 facet normal -9.965845e-01 -8.257935e-02  0.000000e+00
   outer loop
     vertex -1.404422e-01  7.089201e-02 -1.587302e-02
     vertex -1.404422e-01  7.089201e-02  6.349212e-02
     vertex -1.423280e-01  9.365077e-02  6.349212e-02
   endloop
 endfacet
 facet normal -9.694003e-01 -2.454855e-01  0.000000e+00
   outer loop
     vertex -1.348361e-01  4.875405e-02 -1.587302e-02
     vertex -1.348361e-01  4.875405e-02  6.349212e-02
     vertex -1.404422e-01  7.089201e-02  6.349212e-02
   endloop
 endfacet
 facet normal -9.694003e-01 -2.454855e-01  0.000000e+00
   outer loop
     vertex -1.348361e-01  4.875405e-02 -1.587302e-02
     vertex -1.404422e-01  7.089201e-02  6.349212e-02
     vertex -1.404422e-01  7.089201e-02 -1.587302e-02
   endloop
 endfacet
 facet normal -9.157733e-01 -4.016954e-01  0.000000e+00
   outer loop
     vertex -1.256627e-01  2.784076e-02 -1.587302e-02
     vertex -1.256627e-01  2.784076e-02  6.349212e-02
     vertex -1.348361e-01  4.875405e-02  6.349212e-02
   endloop
 endfacet
 facet normal -9.157733e-01 -4.016954e-01  0.000000e+00
   outer loop
     vertex -1.256627e-01  2.784076e-02 -1.587302e-02
     vertex -1.348361e-01  4.875405e-02  6.349212e-02
     vertex -1.348361e-01  4.875405e-02 -1.587302e-02
   endloop
 endfacet
 facet normal -8.371665e-01 -5.469482e-01  0.000000e+00
   outer loop
     vertex -1.131721e-01  8.722589e-03 -1.587302e-02
     vertex -1.131721e-01  8.722589e-03  6.349212e-02
     vertex -1.256627e-01  2.784076e-02  6.349212e-02
   endloop
 endfacet
 facet normal -8.371665e-01 -5.469482e-01  0.000000e+00
   outer loop
     vertex -1.131721e-01  8.722589e-03 -1.587302e-02
     vertex -1.256627e-01  2.784076e-02  6.349212e-02
     vertex -1.256627e-01  2.784076e-02 -1.587302e-02
   endloop
 endfacet
 facet normal -7.357239e-01 -6.772816e-01  0.000000e+00
   outer loop
     vertex -9.770523e-02 -8.078960e-03 -1.587302e-02
     vertex -9.770523e-02 -8.078960e-03  6.349212e-02
     vertex -1.131721e-01  8.722589e-03  6.349212e-02
   endloop
 endfacet
 facet normal -7.357239e-01 -6.772816e-01  0.000000e+00
   outer loop
     vertex -9.770523e-02 -8.078960e-03 -1.587302e-02
     vertex -1.131721e-01  8.722589e-03  6.349212e-02
     vertex -1.131721e-01  8.722589e-03 -1.587302e-02
   endloop
 endfacet
 facet normal -6.142127e-01 -7.891405e-01  0.000000e+00
   outer loop
     vertex -7.968381e-02 -2.210559e-02 -1.587302e-02
     vertex -7.968381e-02 -2.210559e-02  6.349212e-02
     vertex -9.770523e-02 -8.078960e-03  6.349212e-02
   endloop
 endfacet
 facet normal -6.142127e-01 -7.891405e-01  0.000000e+00
   outer loop
     vertex -7.968381e-02 -2.210559e-02 -1.587302e-02
     vertex -9.770523e-02 -8.078960e-03  6.349212e-02
     vertex -9.770523e-02 -8.078960e-03 -1.587302e-02
   endloop
 endfacet
 facet normal -4.759474e-01 -8.794738e-01  0.000000e+00
   outer loop
     vertex -5.959948e-02 -3.297468e-02 -1.587302e-02
     vertex -5.959948e-02 -3.297468e-02  6.349212e-02
     vertex -7.968381e-02 -2.210559e-02  6.349212e-02
   endloop
 endfacet
 facet normal -4.759474e-01 -8.794738e-01  0.000000e+00
   outer loop
     vertex -5.959948e-02 -3.297468e-02 -1.587302e-02
     vertex -7.968381e-02 -2.210559e-02  6.349212e-02
     vertex -7.968381e-02 -2.210559e-02 -1.587302e-02
   endloop
 endfacet
 facet normal -3.246995e-01 -9.458172e-01  0.000000e+00
   outer loop
     vertex -3.800008e-02 -4.038977e-02 -1.587302e-02
     vertex -3.800008e-02 -4.038977e-02  6.349212e-02
     vertex -5.959948e-02 -3.297468e-02  6.349212e-02
   endloop
 endfacet
 facet normal -3.246995e-01 -9.458172e-01  0.000000e+00
   outer loop
     vertex -3.800008e-02 -4.038977e-02 -1.587302e-02
     vertex -5.959948e-02 -3.297468e-02  6.349212e-02
     vertex -5.959948e-02 -3.297468e-02 -1.587302e-02
   endloop
 endfacet
 facet normal -1.645946e-01 -9.863613e-01  0.000000e+00
   outer loop
     vertex -1.547479e-02 -4.414857e-02 -1.587302e-02
     vertex -1.547479e-02 -4.414857e-02  6.349212e-02
     vertex -3.800008e-02 -4.038977e-02  6.349212e-02
   endloop
 endfacet
 facet normal -1.645946e-01 -9.863613e-01  0.000000e+00
   outer loop
     vertex -1.547479e-02 -4.414857e-02 -1.587302e-02
     vertex -3.800008e-02 -4.038977e-02  6.349212e-02
     vertex -3.800008e-02 -4.038977e-02 -1.587302e-02
   endloop
 endfacet
 facet normal  0.000000e+00 -1.000000e+00  0.000000e+00
   outer loop
     vertex  7.361970e-03 -4.414857e-02 -1.587302e-02
     vertex  7.361970e-03 -4.414857e-02  6.349212e-02
     vertex -1.547479e-02 -4.414857e-02  6.349212e-02
   endloop
 endfacet
 facet normal  0.000000e+00 -1.000000e+00  0.000000e+00
   outer loop
     vertex  7.361970e-03 -4.414857e-02 -1.587302e-02
     vertex -1.547479e-02 -4.414857e-02  6.349212e-02
     vertex -1.547479e-02 -4.414857e-02 -1.587302e-02
   endloop
 endfacet
 facet normal  1.645946e-01 -9.863613e-01  0.000000e+00
   outer loop
     vertex  2.988727e-02 -4.038977e-02 -1.587302e-02
     vertex  2.988727e-02 -4.038977e-02  6.349212e-02
     vertex  7.361970e-03 -4.414857e-02  6.349212e-02
   endloop
 endfacet
 facet normal  1.645946e-01 -9.863613e-01  0.000000e+00
   outer loop
     vertex  2.988727e-02 -4.038977e-02 -1.587302e-02
     vertex  7.361970e-03 -4.414857e-02  6.349212e-02
     vertex  7.361970e-03 -4.414857e-02 -1.587302e-02
   endloop
 endfacet
 facet normal  3.246995e-01 -9.458172e-01  0.000000e+00
   outer loop
     vertex  5.148667e-02 -3.297468e-02 -1.587302e-02
     vertex  5.148667e-02 -3.297468e-02  6.349212e-02
     vertex  2.988727e-02 -4.038977e-02  6.349212e-02
   endloop
 endfacet
 facet normal  3.246995e-01 -9.458172e-01  0.000000e+00
   outer loop
     vertex  5.148667e-02 -3.297468e-02 -1.587302e-02
     vertex  2.988727e-02 -4.038977e-02  6.349212e-02
     vertex  2.988727e-02 -4.038977e-02 -1.587302e-02
   endloop
 endfacet
 facet normal  4.759474e-01 -8.794738e-01  0.000000e+00
   outer loop
     vertex  7.157100e-02 -2.210559e-02 -1.587302e-02
     vertex  7.157100e-02 -2.210559e-02  6.349212e-02
     vertex  5.148667e-02 -3.297468e-02  6.349212e-02
   endloop
 endfacet
 facet normal  4.759474e-01 -8.794738e-01  0.000000e+00
   outer loop
     vertex  7.157100e-02 -2.210559e-02 -1.587302e-02
     vertex  5.148667e-02 -3.297468e-02  6.349212e-02
     vertex  5.148667e-02 -3.297468e-02 -1.587302e-02
   endloop
 endfacet
 facet normal  6.142127e-01 -7.891405e-01  0.000000e+00
   outer loop
     vertex  8.959241e-02 -8.078960e-03 -1.587302e-02
     vertex  8.959241e-02 -8.078960e-03  6.349212e-02
     vertex  7.157100e-02 -2.210559e-02  6.349212e-02
   endloop
 endfacet
 facet normal  6.142127e-01 -7.891405e-01  0.000000e+00
   outer loop
     vertex  8.959241e-02 -8.078960e-03 -1.587302e-02
     vertex  7.157100e-02 -2.210559e-02  6.349212e-02
     vertex  7.157100e-02 -2.210559e-02 -1.587302e-02
   endloop
 endfacet
 facet normal  7.357239e-01 -6.772816e-01  0.000000e+00
   outer loop
     vertex  1.050593e-01  8.722589e-03 -1.587302e-02
     vertex  8.959241e-02 -8.078960e-03  6.349212e-02
     vertex  8.959241e-02 -8.078960e-03 -1.587302e-02
   endloop
 endfacet
 facet normal  7.357239e-01 -6.772816e-01  0.000000e+00
   outer loop
     vertex  1.050593e-01  8.722589e-03 -1.587302e-02
     vertex  1.050593e-01  8.722589e-03  6.349212e-02
     vertex  8.959241e-02 -8.078960e-03  6.349212e-02
   endloop
 endfacet
 facet normal  8.371665e-01 -5.469482e-01  0.000000e+00
   outer loop
     vertex  1.175498e-01  2.784076e-02 -1.587302e-02
     vertex  1.050593e-01  8.722589e-03  6.349212e-02
     vertex  1.050593e-01  8.722589e-03 -1.587302e-02
   endloop
 endfacet
 facet normal  8.371665e-01 -5.469482e-01  0.000000e+00
   outer loop
     vertex  1.175498e-01  2.784076e-02 -1.587302e-02
     vertex  1.175498e-01  2.784076e-02  6.349212e-02
     vertex  1.050593e-01  8.722589e-03  6.349212e-02
   endloop
 endfacet
 facet normal  9.157733e-01 -4.016954e-01  0.000000e+00
   outer loop
     vertex  1.267233e-01  4.875405e-02 -1.587302e-02
     vertex  1.175498e-01  2.784076e-02  6.349212e-02
     vertex  1.175498e-01  2.784076e-02 -1.587302e-02
   endloop
 endfacet
 facet normal  9.157733e-01 -4.016954e-01  0.000000e+00
   outer loop
     vertex  1.267233e-01  4.875405e-02 -1.587302e-02
     vertex  1.267233e-01  4.875405e-02  6.349212e-02
     vertex  1.175498e-01  2.784076e-02  6.349212e-02
   endloop
 endfacet
 facet normal  9.694003e-01 -2.454855e-01  0.000000e+00
   outer loop
     vertex  1.267233e-01  4.875405e-02 -1.587302e-02
     vertex  1.323294e-01  7.089201e-02  6.349212e-02
     vertex  1.267233e-01  4.875405e-02  6.349212e-02
   endloop
 endfacet
 facet normal  9.694003e-01 -2.454855e-01  0.000000e+00
   outer loop
     vertex  1.323294e-01  7.089201e-02 -1.587302e-02
     vertex  1.323294e-01  7.089201e-02  6.349212e-02
     vertex  1.267233e-01  4.875405e-02 -1.587302e-02
   endloop
 endfacet
 facet normal  9.965845e-01 -8.257935e-02  0.000000e+00
   outer loop
     vertex  1.342152e-01  9.365077e-02 -1.587302e-02
     vertex  1.323294e-01  7.089201e-02  6.349212e-02
     vertex  1.323294e-01  7.089201e-02 -1.587302e-02
   endloop
 endfacet
 facet normal  9.965845e-01 -8.257935e-02  0.000000e+00
   outer loop
     vertex  1.342152e-01  9.365077e-02 -1.587302e-02
     vertex  1.342152e-01  9.365077e-02  6.349212e-02
     vertex  1.323294e-01  7.089201e-02  6.349212e-02
   endloop
 endfacet
 facet normal -5.018307e-17  1.000000e+00  0.000000e+00
   outer loop
     vertex -1.423280e-01  9.365077e-02 -1.587302e-02
     vertex  1.342152e-01  9.365077e-02  6.349212e-02
     vertex  1.342152e-01  9.365077e-02 -1.587302e-02
   endloop
 endfacet
 facet normal -5.018307e-17  1.000000e+00  0.000000e+00
   outer loop
     vertex -1.423280e-01  9.365077e-02 -1.587302e-02
     vertex -1.423280e-01  9.365077e-02  6.349212e-02
     vertex  1.342152e-01  9.365077e-02  6.349212e-02
   endloop
 endfacet
 facet normal -9.965845e-01 -8.257935e-02  0.000000e+00
   outer loop
     vertex -1.404422e-01  7.089201e-02 -1.587302e-02
     vertex -1.423280e-01  9.365077e-02 -1.587302e-02
     vertex -1.423280e-01  9.365077e-02 -3.174603e-02
   endloop
 endfacet
 facet normal -9.965845e-01 -8.257935e-02 -0.000000e+00
   outer loop
     vertex -1.404422e-01  7.089201e-02 -1.587302e-02
     vertex -1.423280e-01  9.365077e-02 -3.174603e-02
     vertex -1.404422e-01  7.089201e-02 -3.174603e-02
   endloop
 endfacet
 facet normal -9.694003e-01 -2.454855e-01 -0.000000e+00
   outer loop
     vertex -1.348361e-01  4.875405e-02 -1.587302e-02
     vertex -1.404422e-01  7.089201e-02 -3.174603e-02
     vertex -1.348361e-01  4.875405e-02 -3.174603e-02
   endloop
 endfacet
 facet normal -9.694003e-01 -2.454855e-01  0.000000e+00
   outer loop
     vertex -1.348361e-01  4.875405e-02 -1.587302e-02
     vertex -1.404422e-01  7.089201e-02 -1.587302e-02
     vertex -1.404422e-01  7.089201e-02 -3.174603e-02
   endloop
 endfacet
 facet normal -9.157733e-01 -4.016954e-01 -0.000000e+00
   outer loop
     vertex -1.256627e-01  2.784076e-02 -1.587302e-02
     vertex -1.348361e-01  4.875405e-02 -3.174603e-02
     vertex -1.256627e-01  2.784076e-02 -3.174603e-02
   endloop
 endfacet
 facet normal -9.157733e-01 -4.016954e-01  0.000000e+00
   outer loop
     vertex -1.256627e-01  2.784076e-02 -1.587302e-02
     vertex -1.348361e-01  4.875405e-02 -1.587302e-02
     vertex -1.348361e-01  4.875405e-02 -3.174603e-02
   endloop
 endfacet
 facet normal -8.371665e-01 -5.469482e-01 -0.000000e+00
   outer loop
     vertex -1.131721e-01  8.722589e-03 -1.587302e-02
     vertex -1.256627e-01  2.784076e-02 -3.174603e-02
     vertex -1.131721e-01  8.722589e-03 -3.174603e-02
   endloop
 endfacet
 facet normal -8.371665e-01 -5.469482e-01  0.000000e+00
   outer loop
     vertex -1.131721e-01  8.722589e-03 -1.587302e-02
     vertex -1.256627e-01  2.784076e-02 -1.587302e-02
     vertex -1.256627e-01  2.784076e-02 -3.174603e-02
   endloop
 endfacet
 facet normal -7.357239e-01 -6.772816e-01 -0.000000e+00
   outer loop
     vertex -9.770523e-02 -8.078960e-03 -1.587302e-02
     vertex -1.131721e-01  8.722589e-03 -3.174603e-02
     vertex -9.770523e-02 -8.078960e-03 -3.174603e-02
   endloop
 endfacet
 facet normal -7.357239e-01 -6.772816e-01  0.000000e+00
   outer loop
     vertex -9.770523e-02 -8.078960e-03 -1.587302e-02
     vertex -1.131721e-01  8.722589e-03 -1.587302e-02
     vertex -1.131721e-01  8.722589e-03 -3.174603e-02
   endloop
 endfacet
 facet normal -6.142127e-01 -7.891405e-01 -0.000000e+00
   outer loop
     vertex -7.968381e-02 -2.210559e-02 -1.587302e-02
     vertex -9.770523e-02 -8.078960e-03 -3.174603e-02
     vertex -7.968381e-02 -2.210559e-02 -3.174603e-02
   endloop
 endfacet
 facet normal -6.142127e-01 -7.891405e-01  0.000000e+00
   outer loop
     vertex -7.968381e-02 -2.210559e-02 -1.587302e-02
     vertex -9.770523e-02 -8.078960e-03 -1.587302e-02
     vertex -9.770523e-02 -8.078960e-03 -3.174603e-02
   endloop
 endfacet
 facet normal -4.759474e-01 -8.794738e-01 -0.000000e+00
   outer loop
     vertex -5.959948e-02 -3.297468e-02 -1.587302e-02
     vertex -7.968381e-02 -2.210559e-02 -3.174603e-02
     vertex -5.959948e-02 -3.297468e-02 -3.174603e-02
   endloop
 endfacet
 facet normal -4.759474e-01 -8.794738e-01  0.000000e+00
   outer loop
     vertex -5.959948e-02 -3.297468e-02 -1.587302e-02
     vertex -7.968381e-02 -2.210559e-02 -1.587302e-02
     vertex -7.968381e-02 -2.210559e-02 -3.174603e-02
   endloop
 endfacet
 facet normal -3.246995e-01 -9.458172e-01 -0.000000e+00
   outer loop
     vertex -3.800008e-02 -4.038977e-02 -1.587302e-02
     vertex -5.959948e-02 -3.297468e-02 -3.174603e-02
     vertex -3.800008e-02 -4.038977e-02 -3.174603e-02
   endloop
 endfacet
 facet normal -3.246995e-01 -9.458172e-01  0.000000e+00
   outer loop
     vertex -3.800008e-02 -4.038977e-02 -1.587302e-02
     vertex -5.959948e-02 -3.297468e-02 -1.587302e-02
     vertex -5.959948e-02 -3.297468e-02 -3.174603e-02
   endloop
 endfacet
 facet normal -1.645946e-01 -9.863613e-01 -0.000000e+00
   outer loop
     vertex -1.547479e-02 -4.414857e-02 -1.587302e-02
     vertex -3.800008e-02 -4.038977e-02 -3.174603e-02
     vertex -1.547479e-02 -4.414857e-02 -3.174603e-02
   endloop
 endfacet
 facet normal -1.645946e-01 -9.863613e-01  0.000000e+00
   outer loop
     vertex -1.547479e-02 -4.414857e-02 -1.587302e-02
     vertex -3.800008e-02 -4.038977e-02 -1.587302e-02
     vertex -3.800008e-02 -4.038977e-02 -3.174603e-02
   endloop
 endfacet
 facet normal  0.000000e+00 -1.000000e+00 -0.000000e+00
   outer loop
     vertex  7.361970e-03 -4.414857e-02 -1.587302e-02
     vertex -1.547479e-02 -4.414857e-02 -3.174603e-02
     vertex  7.361970e-03 -4.414857e-02 -3.174603e-02
   endloop
 endfacet
 facet normal -0.000000e+00 -1.000000e+00  0.000000e+00
   outer loop
     vertex  7.361970e-03 -4.414857e-02 -1.587302e-02
     vertex -1.547479e-02 -4.414857e-02 -1.587302e-02
     vertex -1.547479e-02 -4.414857e-02 -3.174603e-02
   endloop
 endfacet
 facet normal  1.645946e-01 -9.863613e-01  0.000000e+00
   outer loop
     vertex  2.988727e-02 -4.038977e-02 -1.587302e-02
     vertex  7.361970e-03 -4.414857e-02 -3.174603e-02
     vertex  2.988727e-02 -4.038977e-02 -3.174603e-02
   endloop
 endfacet
 facet normal  1.645946e-01 -9.863613e-01  0.000000e+00
   outer loop
     vertex  2.988727e-02 -4.038977e-02 -1.587302e-02
     vertex  7.361970e-03 -4.414857e-02 -1.587302e-02
     vertex  7.361970e-03 -4.414857e-02 -3.174603e-02
   endloop
 endfacet
 facet normal  3.246995e-01 -9.458172e-01  0.000000e+00
   outer loop
     vertex  5.148667e-02 -3.297468e-02 -1.587302e-02
     vertex  2.988727e-02 -4.038977e-02 -3.174603e-02
     vertex  5.148667e-02 -3.297468e-02 -3.174603e-02
   endloop
 endfacet
 facet normal  3.246995e-01 -9.458172e-01  0.000000e+00
   outer loop
     vertex  5.148667e-02 -3.297468e-02 -1.587302e-02
     vertex  2.988727e-02 -4.038977e-02 -1.587302e-02
     vertex  2.988727e-02 -4.038977e-02 -3.174603e-02
   endloop
 endfacet
 facet normal  4.759474e-01 -8.794738e-01  0.000000e+00
   outer loop
     vertex  7.157100e-02 -2.210559e-02 -1.587302e-02
     vertex  5.148667e-02 -3.297468e-02 -3.174603e-02
     vertex  7.157100e-02 -2.210559e-02 -3.174603e-02
   endloop
 endfacet
 facet normal  4.759474e-01 -8.794738e-01  0.000000e+00
   outer loop
     vertex  7.157100e-02 -2.210559e-02 -1.587302e-02
     vertex  5.148667e-02 -3.297468e-02 -1.587302e-02
     vertex  5.148667e-02 -3.297468e-02 -3.174603e-02
   endloop
 endfacet
 facet normal  6.142127e-01 -7.891405e-01  0.000000e+00
   outer loop
     vertex  8.959241e-02 -8.078960e-03 -1.587302e-02
     vertex  7.157100e-02 -2.210559e-02 -3.174603e-02
     vertex  8.959241e-02 -8.078960e-03 -3.174603e-02
   endloop
 endfacet
 facet normal  6.142127e-01 -7.891405e-01  0.000000e+00
   outer loop
     vertex  8.959241e-02 -8.078960e-03 -1.587302e-02
     vertex  7.157100e-02 -2.210559e-02 -1.587302e-02
     vertex  7.157100e-02 -2.210559e-02 -3.174603e-02
   endloop
 endfacet
 facet normal  7.357239e-01 -6.772816e-01  0.000000e+00
   outer loop
     vertex  1.050593e-01  8.722589e-03 -1.587302e-02
     vertex  8.959241e-02 -8.078960e-03 -1.587302e-02
     vertex  8.959241e-02 -8.078960e-03 -3.174603e-02
   endloop
 endfacet
 facet normal  7.357239e-01 -6.772816e-01  0.000000e+00
   outer loop
     vertex  1.050593e-01  8.722589e-03 -1.587302e-02
     vertex  8.959241e-02 -8.078960e-03 -3.174603e-02
     vertex  1.050593e-01  8.722589e-03 -3.174603e-02
   endloop
 endfacet
 facet normal  8.371665e-01 -5.469482e-01  0.000000e+00
   outer loop
     vertex  1.175498e-01  2.784076e-02 -1.587302e-02
     vertex  1.050593e-01  8.722589e-03 -1.587302e-02
     vertex  1.050593e-01  8.722589e-03 -3.174603e-02
   endloop
 endfacet
 facet normal  8.371665e-01 -5.469482e-01  0.000000e+00
   outer loop
     vertex  1.175498e-01  2.784076e-02 -1.587302e-02
     vertex  1.050593e-01  8.722589e-03 -3.174603e-02
     vertex  1.175498e-01  2.784076e-02 -3.174603e-02
   endloop
 endfacet
 facet normal  9.157733e-01 -4.016954e-01  0.000000e+00
   outer loop
     vertex  1.267233e-01  4.875405e-02 -1.587302e-02
     vertex  1.175498e-01  2.784076e-02 -1.587302e-02
     vertex  1.175498e-01  2.784076e-02 -3.174603e-02
   endloop
 endfacet
 facet normal  9.157733e-01 -4.016954e-01  0.000000e+00
   outer loop
     vertex  1.267233e-01  4.875405e-02 -1.587302e-02
     vertex  1.175498e-01  2.784076e-02 -3.174603e-02
     vertex  1.267233e-01  4.875405e-02 -3.174603e-02
   endloop
 endfacet
 facet normal  9.694003e-01 -2.454855e-01  0.000000e+00
   outer loop
     vertex  1.323294e-01  7.089201e-02 -1.587302e-02
     vertex  1.267233e-01  4.875405e-02 -1.587302e-02
     vertex  1.267233e-01  4.875405e-02 -3.174603e-02
   endloop
 endfacet
 facet normal  9.694003e-01 -2.454855e-01  0.000000e+00
   outer loop
     vertex  1.323294e-01  7.089201e-02 -1.587302e-02
     vertex  1.267233e-01  4.875405e-02 -3.174603e-02
     vertex  1.323294e-01  7.089201e-02 -3.174603e-02
   endloop
 endfacet
 facet normal  9.965845e-01 -8.257935e-02  0.000000e+00
   outer loop
     vertex  1.342152e-01  9.365077e-02 -1.587302e-02
     vertex  1.323294e-01  7.089201e-02 -1.587302e-02
     vertex  1.323294e-01  7.089201e-02 -3.174603e-02
   endloop
 endfacet
 facet normal  9.965845e-01 -8.257935e-02  0.000000e+00
   outer loop
     vertex  1.342152e-01  9.365077e-02 -1.587302e-02
     vertex  1.323294e-01  7.089201e-02 -3.174603e-02
     vertex  1.342152e-01  9.365077e-02 -3.174603e-02
   endloop
 endfacet
 facet normal  0.000000e+00  0.000000e+00  1.000000e+00
   outer loop
     vertex  1.342152e-01  9.365077e-02  6.349212e-02
     vertex -1.423280e-01  9.365077e-02  6.349212e-02
     vertex -1.404422e-01  7.089201e-02  6.349212e-02
   endloop
 endfacet
 facet normal  0.000000e+00  0.000000e+00  1.000000e+00
   outer loop
     vertex  1.342152e-01  9.365077e-02  6.349212e-02
     vertex -1.404422e-01  7.089201e-02  6.349212e-02
     vertex -1.348361e-01  4.875405e-02  6.349212e-02
   endloop
 endfacet
 facet normal  0.000000e+00  0.000000e+00  1.000000e+00
   outer loop
     vertex  1.342152e-01  9.365077e-02  6.349212e-02
     vertex -1.348361e-01  4.875405e-02  6.349212e-02
     vertex -1.256627e-01  2.784076e-02  6.349212e-02
   endloop
 endfacet
 facet normal  0.000000e+00  0.000000e+00  1.000000e+00
   outer loop
     vertex  1.342152e-01  9.365077e-02  6.349212e-02
     vertex -1.256627e-01  2.784076e-02  6.349212e-02
     vertex -1.131721e-01  8.722589e-03  6.349212e-02
   endloop
 endfacet
 facet normal  0.000000e+00  0.000000e+00  1.000000e+00
   outer loop
     vertex  1.342152e-01  9.365077e-02  6.349212e-02
     vertex -1.131721e-01  8.722589e-03  6.349212e-02
     vertex -9.770523e-02 -8.078960e-03  6.349212e-02
   endloop
 endfacet
 facet normal  0.000000e+00  0.000000e+00  1.000000e+00
   outer loop
     vertex  1.342152e-01  9.365077e-02  6.349212e-02
     vertex -9.770523e-02 -8.078960e-03  6.349212e-02
     vertex -7.968381e-02 -2.210559e-02  6.349212e-02
   endloop
 endfacet
 facet normal  0.000000e+00  0.000000e+00  1.000000e+00
   outer loop
     vertex  1.342152e-01  9.365077e-02  6.349212e-02
     vertex -7.968381e-02 -2.210559e-02  6.349212e-02
     vertex -5.959948e-02 -3.297468e-02  6.349212e-02
   endloop
 endfacet
 facet normal  0.000000e+00  0.000000e+00  1.000000e+00
   outer loop
     vertex  1.342152e-01  9.365077e-02  6.349212e-02
     vertex -5.959948e-02 -3.297468e-02  6.349212e-02
     vertex -3.800008e-02 -4.038977e-02  6.349212e-02
   endloop
 endfacet
 facet normal  0.000000e+00  0.000000e+00  1.000000e+00
   outer loop
     vertex  1.342152e-01  9.365077e-02  6.349212e-02
     vertex -3.800008e-02 -4.038977e-02  6.349212e-02
     vertex -1.547479e-02 -4.414857e-02  6.349212e-02
   endloop
 endfacet
 facet normal  0.000000e+00  0.000000e+00  1.000000e+00
   outer loop
     vertex  1.342152e-01  9.365077e-02  6.349212e-02
     vertex -1.547479e-02 -4.414857e-02  6.349212e-02
     vertex  7.361970e-03 -4.414857e-02  6.349212e-02
   endloop
 endfacet
 facet normal  0.000000e+00  0.000000e+00  1.000000e+00
   outer loop
     vertex  1.342152e-01  9.365077e-02  6.349212e-02
     vertex  7.361970e-03 -4.414857e-02  6.349212e-02
     vertex  2.988727e-02 -4.038977e-02  6.349212e-02
   endloop
 endfacet
 facet normal  0.000000e+00  0.000000e+00  1.000000e+00
   outer loop
     vertex  1.342152e-01  9.365077e-02  6.349212e-02
     vertex  2.988727e-02 -4.038977e-02  6.349212e-02
     vertex  5.148667e-02 -3.297468e-02  6.349212e-02
   endloop
 endfacet
 facet normal  0.000000e+00  0.000000e+00  1.000000e+00
   outer loop
     vertex  1.342152e-01  9.365077e-02  6.349212e-02
     vertex  5.148667e-02 -3.297468e-02  6.349212e-02
     vertex  7.157100e-02 -2.210559e-02  6.349212e-02
   endloop
 endfacet
 facet normal  0.000000e+00  0.000000e+00  1.000000e+00
   outer loop
     vertex  1.342152e-01  9.365077e-02  6.349212e-02
     vertex  7.157100e-02 -2.210559e-02  6.349212e-02
     vertex  8.959241e-02 -8.078960e-03  6.349212e-02
   endloop
 endfacet
 facet normal  0.000000e+00  0.000000e+00  1.000000e+00
   outer loop
     vertex  1.342152e-01  9.365077e-02  6.349212e-02
     vertex  8.959241e-02 -8.078960e-03  6.349212e-02
     vertex  1.050593e-01  8.722589e-03  6.349212e-02
   endloop
 endfacet
 facet normal  0.000000e+00  0.000000e+00  1.000000e+00
   outer loop
     vertex  1.342152e-01  9.365077e-02  6.349212e-02
     vertex  1.050593e-01  8.722589e-03  6.349212e-02
     vertex  1.175498e-01  2.784076e-02  6.349212e-02
   endloop
 endfacet
 facet normal  0.000000e+00  0.000000e+00  1.000000e+00
   outer loop
     vertex  1.342152e-01  9.365077e-02  6.349212e-02
     vertex  1.175498e-01  2.784076e-02  6.349212e-02
     vertex  1.267233e-01  4.875405e-02  6.349212e-02
   endloop
 endfacet
 facet normal  0.000000e+00  0.000000e+00  1.000000e+00
   outer loop
     vertex  1.342152e-01  9.365077e-02  6.349212e-02
     vertex  1.267233e-01  4.875405e-02  6.349212e-02
     vertex  1.323294e-01  7.089201e-02  6.349212e-02
   endloop
 endfacet
 facet normal -5.018307e-17  1.000000e+00  0.000000e+00
   outer loop
     vertex -1.423280e-01  9.365077e-02 -1.587302e-02
     vertex  1.342152e-01  9.365077e-02 -1.587302e-02
     vertex  1.342152e-01  9.365077e-02 -3.174603e-02
   endloop
 endfacet
 facet normal -5.018307e-17  1.000000e+00  0.000000e+00
   outer loop
     vertex -1.423280e-01  9.365077e-02 -1.587302e-02
     vertex  1.342152e-01  9.365077e-02 -3.174603e-02
     vertex -1.423280e-01  9.365077e-02 -3.174603e-02
   endloop
 endfacet
 facet normal  0.000000e+00  0.000000e+00 -1.000000e+00
   outer loop
     vertex  1.342152e-01  9.365077e-02 -3.174603e-02
     vertex -1.404422e-01  7.089201e-02 -3.174603e-02
     vertex -1.423280e-01  9.365077e-02 -3.174603e-02
   endloop
 endfacet
 facet normal  0.000000e+00  0.000000e+00 -1.000000e+00
   outer loop
     vertex  1.342152e-01  9.365077e-02 -3.174603e-02
     vertex -1.348361e-01  4.875405e-02 -3.174603e-02
     vertex -1.404422e-01  7.089201e-02 -3.174603e-02
   endloop
 endfacet
 facet normal  0.000000e+00  0.000000e+00 -1.000000e+00
   outer loop
     vertex  1.342152e-01  9.365077e-02 -3.174603e-02
     vertex -1.256627e-01  2.784076e-02 -3.174603e-02
     vertex -1.348361e-01  4.875405e-02 -3.174603e-02
   endloop
 endfacet
 facet normal  0.000000e+00  0.000000e+00 -1.000000e+00
   outer loop
     vertex  1.342152e-01  9.365077e-02 -3.174603e-02
     vertex -1.131721e-01  8.722589e-03 -3.174603e-02
     vertex -1.256627e-01  2.784076e-02 -3.174603e-02
   endloop
 endfacet
 facet normal  0.000000e+00  0.000000e+00 -1.000000e+00
   outer loop
     vertex  1.342152e-01  9.365077e-02 -3.174603e-02
     vertex -9.770523e-02 -8.078960e-03 -3.174603e-02
     vertex -1.131721e-01  8.722589e-03 -3.174603e-02
   endloop
 endfacet
 facet normal  0.000000e+00  0.000000e+00 -1.000000e+00
   outer loop
     vertex  1.342152e-01  9.365077e-02 -3.174603e-02
     vertex -7.968381e-02 -2.210559e-02 -3.174603e-02
     vertex -9.770523e-02 -8.078960e-03 -3.174603e-02
   endloop
 endfacet
 facet normal  0.000000e+00  0.000000e+00 -1.000000e+00
   outer loop
     vertex  1.342152e-01  9.365077e-02 -3.174603e-02
     vertex -5.959948e-02 -3.297468e-02 -3.174603e-02
     vertex -7.968381e-02 -2.210559e-02 -3.174603e-02
   endloop
 endfacet
 facet normal  0.000000e+00  0.000000e+00 -1.000000e+00
   outer loop
     vertex  1.342152e-01  9.365077e-02 -3.174603e-02
     vertex -3.800008e-02 -4.038977e-02 -3.174603e-02
     vertex -5.959948e-02 -3.297468e-02 -3.174603e-02
   endloop
 endfacet
 facet normal  0.000000e+00  0.000000e+00 -1.000000e+00
   outer loop
     vertex  1.342152e-01  9.365077e-02 -3.174603e-02
     vertex -1.547479e-02 -4.414857e-02 -3.174603e-02
     vertex -3.800008e-02 -4.038977e-02 -3.174603e-02
   endloop
 endfacet
 facet normal  0.000000e+00  0.000000e+00 -1.000000e+00
   outer loop
     vertex  1.342152e-01  9.365077e-02 -3.174603e-02
     vertex  7.361970e-03 -4.414857e-02 -3.174603e-02
     vertex -1.547479e-02 -4.414857e-02 -3.174603e-02
   endloop
 endfacet
 facet normal  0.000000e+00  0.000000e+00 -1.000000e+00
   outer loop
     vertex  1.342152e-01  9.365077e-02 -3.174603e-02
     vertex  2.988727e-02 -4.038977e-02 -3.174603e-02
     vertex  7.361970e-03 -4.414857e-02 -3.174603e-02
   endloop
 endfacet
 facet normal  0.000000e+00  0.000000e+00 -1.000000e+00
   outer loop
     vertex  1.342152e-01  9.365077e-02 -3.174603e-02
     vertex  5.148667e-02 -3.297468e-02 -3.174603e-02
     vertex  2.988727e-02 -4.038977e-02 -3.174603e-02
   endloop
 endfacet
 facet normal  0.000000e+00  0.000000e+00 -1.000000e+00
   outer loop
     vertex  1.342152e-01  9.365077e-02 -3.174603e-02
     vertex  7.157100e-02 -2.210559e-02 -3.174603e-02
     vertex  5.148667e-02 -3.297468e-02 -3.174603e-02
   endloop
 endfacet
 facet normal  0.000000e+00  0.000000e+00 -1.000000e+00
   outer loop
     vertex  1.342152e-01  9.365077e-02 -3.174603e-02
     vertex  8.959241e-02 -8.078960e-03 -3.174603e-02
     vertex  7.157100e-02 -2.210559e-02 -3.174603e-02
   endloop
 endfacet
 facet normal  0.000000e+00  0.000000e+00 -1.000000e+00
   outer loop
     vertex  1.342152e-01  9.365077e-02 -3.174603e-02
     vertex  1.050593e-01  8.722589e-03 -3.174603e-02
     vertex  8.959241e-02 -8.078960e-03 -3.174603e-02
   endloop
 endfacet
 facet normal  0.000000e+00  0.000000e+00 -1.000000e+00
   outer loop
     vertex  1.342152e-01  9.365077e-02 -3.174603e-02
     vertex  1.175498e-01  2.784076e-02 -3.174603e-02
     vertex  1.050593e-01  8.722589e-03 -3.174603e-02
   endloop
 endfacet
 facet normal  0.000000e+00  0.000000e+00 -1.000000e+00
   outer loop
     vertex  1.342152e-01  9.365077e-02 -3.174603e-02
     vertex  1.267233e-01  4.875405e-02 -3.174603e-02
     vertex  1.175498e-01  2.784076e-02 -3.174603e-02
   endloop
 endfacet
 facet normal  0.000000e+00  0.000000e+00 -1.000000e+00
   outer loop
     vertex  1.342152e-01  9.365077e-02 -3.174603e-02
     vertex  1.323294e-01  7.089201e-02 -3.174603e-02
     vertex  1.267233e-01  4.875405e-02 -3.174603e-02
   endloop
 endfacet
endsolid
