solid 
 facet normal  0.000000e+00  1.000000e+00  0.000000e+00
   outer loop
     vertex -1.137566e-01  0.000000e+00  4.481482e-01
     vertex -1.137566e-01  0.000000e+00 -1.746035e-02
     vertex -5.793651e-01  0.000000e+00 -1.746035e-02
   endloop
 endfacet
 facet normal  0.000000e+00  1.000000e+00  0.000000e+00
   outer loop
     vertex -1.137566e-01  0.000000e+00  4.481482e-01
     vertex -5.793651e-01  0.000000e+00 -1.746035e-02
     vertex -5.793651e-01  0.000000e+00  4.481482e-01
   endloop
 endfacet
 facet normal  0.000000e+00  1.000000e+00  0.000000e+00
   outer loop
     vertex -5.793651e-01  0.000000e+00  4.481482e-01
     vertex -5.793651e-01  0.000000e+00 -1.746035e-02
     vertex -1.036508e+00  0.000000e+00 -3.650802e-02
   endloop
 endfacet
 facet normal  0.000000e+00  1.000000e+00  0.000000e+00
   outer loop
     vertex -7.425034e-02  0.000000e+00 -3.650802e-02
     vertex -5.793651e-01  0.000000e+00 -1.746035e-02
     vertex -1.137566e-01  0.000000e+00 -1.746035e-02
   endloop
 endfacet
 facet normal  0.000000e+00  1.000000e+00  0.000000e+00
   outer loop
     vertex -1.036508e+00  0.000000e+00  9.257495e-01
     vertex -5.793651e-01  0.000000e+00  4.481482e-01
     vertex -1.036508e+00  0.000000e+00 -3.650802e-02
   endloop
 endfacet
 facet normal  0.000000e+00  1.000000e+00  0.000000e+00
   outer loop
     vertex -1.137566e-01  0.000000e+00  4.481482e-01
     vertex -7.425034e-02  0.000000e+00 -3.650802e-02
     vertex -1.137566e-01  0.000000e+00 -1.746035e-02
   endloop
 endfacet
 facet normal  0.000000e+00  1.000000e+00  0.000000e+00
   outer loop
     vertex -7.425034e-02  0.000000e+00  9.257495e-01
     vertex -1.137566e-01  0.000000e+00  4.481482e-01
     vertex -5.793651e-01  0.000000e+00  4.481482e-01
   endloop
 endfacet
 facet normal  0.000000e+00  1.000000e+00  0.000000e+00
   outer loop
     vertex -7.425034e-02  0.000000e+00  9.257495e-01
     vertex -5.793651e-01  0.000000e+00  4.481482e-01
     vertex -1.036508e+00  0.000000e+00  9.257495e-01
   endloop
 endfacet
 facet normal  0.000000e+00  1.000000e+00  0.000000e+00
   outer loop
     vertex -1.036508e+00  0.000000e+00 -3.650802e-02
     vertex -5.793651e-01  0.000000e+00 -1.746035e-02
     vertex -7.425034e-02  0.000000e+00 -3.650802e-02
   endloop
 endfacet
 facet normal  0.000000e+00  1.000000e+00 -0.000000e+00
   outer loop
     vertex -7.425034e-02  0.000000e+00 -3.650802e-02
     vertex -1.137566e-01  0.000000e+00  4.481482e-01
     vertex -7.425034e-02  0.000000e+00  9.257495e-01
   endloop
 endfacet
 facet normal  0.000000e+00  0.000000e+00 -1.000000e+00
   outer loop
     vertex -7.425034e-02 -1.587302e-02 -3.650802e-02
     vertex -1.036508e+00 -1.587302e-02 -3.650802e-02
     vertex -1.036508e+00  0.000000e+00 -3.650802e-02
   endloop
 endfacet
 facet normal  0.000000e+00  0.000000e+00 -1.000000e+00
   outer loop
     vertex -7.425034e-02 -1.587302e-02 -3.650802e-02
     vertex -1.036508e+00  0.000000e+00 -3.650802e-02
     vertex -7.425034e-02  0.000000e+00 -3.650802e-02
   endloop
 endfacet
 facet normal -1.000000e+00  0.000000e+00  0.000000e+00
   outer loop
     vertex -1.036508e+00 -1.587302e-02 -3.650802e-02
     vertex -1.036508e+00 -1.587302e-02  9.257495e-01
     vertex -1.036508e+00  0.000000e+00  9.257495e-01
   endloop
 endfacet
 facet normal -1.000000e+00  0.000000e+00  0.000000e+00
   outer loop
     vertex -1.036508e+00 -1.587302e-02 -3.650802e-02
     vertex -1.036508e+00  0.000000e+00  9.257495e-01
     vertex -1.036508e+00  0.000000e+00 -3.650802e-02
   endloop
 endfacet
 facet normal  1.000000e+00  0.000000e+00  0.000000e+00
   outer loop
     vertex -7.425034e-02 -1.587302e-02  9.257495e-01
     vertex -7.425034e-02 -1.587302e-02 -3.650802e-02
     vertex -7.425034e-02  0.000000e+00 -3.650802e-02
   endloop
 endfacet
 facet normal  1.000000e+00 -0.000000e+00  0.000000e+00
   outer loop
     vertex -7.425034e-02 -1.587302e-02  9.257495e-01
     vertex -7.425034e-02  0.000000e+00 -3.650802e-02
     vertex -7.425034e-02  0.000000e+00  9.257495e-01
   endloop
 endfacet
 facet normal  0.000000e+00  0.000000e+00  1.000000e+00
   outer loop
     vertex -1.036508e+00 -1.587302e-02  9.257495e-01
     vertex -7.425034e-02 -1.587302e-02  9.257495e-01
     vertex -7.425034e-02  0.000000e+00  9.257495e-01
   endloop
 endfacet
 facet normal  0.000000e+00  0.000000e+00  1.000000e+00
   outer loop
     vertex -1.036508e+00 -1.587302e-02  9.257495e-01
     vertex -7.425034e-02  0.000000e+00  9.257495e-01
     vertex -1.036508e+00  0.000000e+00  9.257495e-01
   endloop
 endfacet
 facet normal -0.000000e+00  0.000000e+00 -1.000000e+00
   outer loop
     vertex -7.425034e-02 -1.587302e-02 -3.650802e-02
     vertex -1.036508e+00 -5.079365e-01 -3.650802e-02
     vertex -1.036508e+00 -1.587302e-02 -3.650802e-02
   endloop
 endfacet
 facet normal  0.000000e+00 -0.000000e+00 -1.000000e+00
   outer loop
     vertex -7.425034e-02 -1.587302e-02 -3.650802e-02
     vertex -7.425034e-02 -5.079365e-01 -3.650802e-02
     vertex -1.036508e+00 -5.079365e-01 -3.650802e-02
   endloop
 endfacet
 facet normal -1.000000e+00  0.000000e+00  0.000000e+00
   outer loop
     vertex -1.036508e+00 -1.587302e-02 -3.650802e-02
     vertex -1.036508e+00 -5.079365e-01  9.257495e-01
     vertex -1.036508e+00 -1.587302e-02  9.257495e-01
   endloop
 endfacet
 facet normal -1.000000e+00  0.000000e+00  0.000000e+00
   outer loop
     vertex -1.036508e+00 -1.587302e-02 -3.650802e-02
     vertex -1.036508e+00 -5.079365e-01 -3.650802e-02
     vertex -1.036508e+00 -5.079365e-01  9.257495e-01
   endloop
 endfacet
 facet normal  1.000000e+00  0.000000e+00  0.000000e+00
   outer loop
     vertex -7.425034e-02 -1.587302e-02  9.257495e-01
     vertex -7.425034e-02 -5.079365e-01 -3.650802e-02
     vertex -7.425034e-02 -1.587302e-02 -3.650802e-02
   endloop
 endfacet
 facet normal  1.000000e+00  0.000000e+00  0.000000e+00
   outer loop
     vertex -7.425034e-02 -1.587302e-02  9.257495e-01
     vertex -7.425034e-02 -5.079365e-01  9.257495e-01
     vertex -7.425034e-02 -5.079365e-01 -3.650802e-02
   endloop
 endfacet
 facet normal -0.000000e+00  0.000000e+00  1.000000e+00
   outer loop
     vertex -1.036508e+00 -1.587302e-02  9.257495e-01
     vertex -7.425034e-02 -5.079365e-01  9.257495e-01
     vertex -7.425034e-02 -1.587302e-02  9.257495e-01
   endloop
 endfacet
 facet normal  0.000000e+00  0.000000e+00  1.000000e+00
   outer loop
     vertex -1.036508e+00 -1.587302e-02  9.257495e-01
     vertex -1.036508e+00 -5.079365e-01  9.257495e-01
     vertex -7.425034e-02 -5.079365e-01  9.257495e-01
   endloop
 endfacet
 facet normal  0.000000e+00 -1.000000e+00 -0.000000e+00
   outer loop
     vertex -5.793651e-01 -5.079365e-01  4.481482e-01
     vertex -1.036508e+00 -5.079365e-01 -3.650802e-02
     vertex -5.793651e-01 -5.079365e-01 -1.746035e-02
   endloop
 endfacet
 facet normal  0.000000e+00 -1.000000e+00  0.000000e+00
   outer loop
     vertex -7.425034e-02 -5.079365e-01 -3.650802e-02
     vertex -1.137566e-01 -5.079365e-01 -1.746035e-02
     vertex -5.793651e-01 -5.079365e-01 -1.746035e-02
   endloop
 endfacet
 facet normal  0.000000e+00 -1.000000e+00  0.000000e+00
   outer loop
     vertex -1.036508e+00 -5.079365e-01  9.257495e-01
     vertex -1.036508e+00 -5.079365e-01 -3.650802e-02
     vertex -5.793651e-01 -5.079365e-01  4.481482e-01
   endloop
 endfacet
 facet normal  0.000000e+00 -1.000000e+00  0.000000e+00
   outer loop
     vertex -1.137566e-01 -5.079365e-01  4.481482e-01
     vertex -1.137566e-01 -5.079365e-01 -1.746035e-02
     vertex -7.425034e-02 -5.079365e-01 -3.650802e-02
   endloop
 endfacet
 facet normal  0.000000e+00 -1.000000e+00  0.000000e+00
   outer loop
     vertex -7.425034e-02 -5.079365e-01  9.257495e-01
     vertex -5.793651e-01 -5.079365e-01  4.481482e-01
     vertex -1.137566e-01 -5.079365e-01  4.481482e-01
   endloop
 endfacet
 facet normal -0.000000e+00 -1.000000e+00  0.000000e+00
   outer loop
     vertex -7.425034e-02 -5.079365e-01  9.257495e-01
     vertex -1.036508e+00 -5.079365e-01  9.257495e-01
     vertex -5.793651e-01 -5.079365e-01  4.481482e-01
   endloop
 endfacet
 facet normal  0.000000e+00 -1.000000e+00  0.000000e+00
   outer loop
     vertex -1.036508e+00 -5.079365e-01 -3.650802e-02
     vertex -7.425034e-02 -5.079365e-01 -3.650802e-02
     vertex -5.793651e-01 -5.079365e-01 -1.746035e-02
   endloop
 endfacet
 facet normal  0.000000e+00 -1.000000e+00  0.000000e+00
   outer loop
     vertex -7.425034e-02 -5.079365e-01 -3.650802e-02
     vertex -7.425034e-02 -5.079365e-01  9.257495e-01
     vertex -1.137566e-01 -5.079365e-01  4.481482e-01
   endloop
 endfacet
 facet normal -0.000000e+00  0.000000e+00 -1.000000e+00
   outer loop
     vertex -1.137566e-01 -5.079365e-01 -1.746035e-02
     vertex -5.793651e-01 -1.015873e+00 -1.746035e-02
     vertex -5.793651e-01 -5.079365e-01 -1.746035e-02
   endloop
 endfacet
 facet normal  0.000000e+00 -0.000000e+00 -1.000000e+00
   outer loop
     vertex -1.137566e-01 -5.079365e-01 -1.746035e-02
     vertex -1.137566e-01 -1.015873e+00 -1.746035e-02
     vertex -5.793651e-01 -1.015873e+00 -1.746035e-02
   endloop
 endfacet
 facet normal  1.000000e+00  0.000000e+00  0.000000e+00
   outer loop
     vertex -1.137566e-01 -5.079365e-01  4.481482e-01
     vertex -1.137566e-01 -1.015873e+00 -1.746035e-02
     vertex -1.137566e-01 -5.079365e-01 -1.746035e-02
   endloop
 endfacet
 facet normal  1.000000e+00  0.000000e+00  0.000000e+00
   outer loop
     vertex -1.137566e-01 -5.079365e-01  4.481482e-01
     vertex -1.137566e-01 -1.015873e+00  4.481482e-01
     vertex -1.137566e-01 -1.015873e+00 -1.746035e-02
   endloop
 endfacet
 facet normal -0.000000e+00  0.000000e+00  1.000000e+00
   outer loop
     vertex -5.793651e-01 -5.079365e-01  4.481482e-01
     vertex -1.137566e-01 -1.015873e+00  4.481482e-01
     vertex -1.137566e-01 -5.079365e-01  4.481482e-01
   endloop
 endfacet
 facet normal  0.000000e+00  0.000000e+00  1.000000e+00
   outer loop
     vertex -5.793651e-01 -5.079365e-01  4.481482e-01
     vertex -5.793651e-01 -1.015873e+00  4.481482e-01
     vertex -1.137566e-01 -1.015873e+00  4.481482e-01
   endloop
 endfacet
 facet normal -1.000000e+00  0.000000e+00  0.000000e+00
   outer loop
     vertex -5.793651e-01 -5.079365e-01 -1.746035e-02
     vertex -5.793651e-01 -1.015873e+00  4.481482e-01
     vertex -5.793651e-01 -5.079365e-01  4.481482e-01
   endloop
 endfacet
 facet normal -1.000000e+00  0.000000e+00  0.000000e+00
   outer loop
     vertex -5.793651e-01 -5.079365e-01 -1.746035e-02
     vertex -5.793651e-01 -1.015873e+00 -1.746035e-02
     vertex -5.793651e-01 -1.015873e+00  4.481482e-01
   endloop
 endfacet
 facet normal  0.000000e+00 -1.000000e+00 -0.000000e+00
   outer loop
     vertex -1.137566e-01 -1.015873e+00  4.481482e-01
     vertex -5.793651e-01 -1.015873e+00 -1.746035e-02
     vertex -1.137566e-01 -1.015873e+00 -1.746035e-02
   endloop
 endfacet
 facet normal -0.000000e+00 -1.000000e+00  0.000000e+00
   outer loop
     vertex -1.137566e-01 -1.015873e+00  4.481482e-01
     vertex -5.793651e-01 -1.015873e+00  4.481482e-01
     vertex -5.793651e-01 -1.015873e+00 -1.746035e-02
   endloop
 endfacet
endsolid
