solid 
 facet normal  9.480307e-16  0.000000e+00 -1.000000e+00
   outer loop
     vertex -1.587302e-02 -2.174603e-01 -3.686073e-02
     vertex -3.051156e-02 -3.492064e-01 -3.686073e-02
     vertex -3.051156e-02 -2.174603e-01 -3.686073e-02
   endloop
 endfacet
 facet normal  0.000000e+00  1.053374e-16 -1.000000e+00
   outer loop
     vertex  9.232804e-01 -3.492064e-01 -3.686073e-02
     vertex -3.051156e-02 -3.492064e-01 -3.686073e-02
     vertex -1.587302e-02 -2.174603e-01 -3.686073e-02
   endloop
 endfacet
 facet normal -1.477691e-17 -0.000000e+00 -1.000000e+00
   outer loop
     vertex  9.232804e-01 -2.174603e-01 -3.686073e-02
     vertex  9.232804e-01 -3.492064e-01 -3.686073e-02
     vertex -1.587302e-02 -2.174603e-01 -3.686073e-02
   endloop
 endfacet
 facet normal  0.000000e+00  1.000000e+00 -0.000000e+00
   outer loop
     vertex -1.587302e-02 -2.174603e-01 -3.686073e-02
     vertex -3.051156e-02 -2.174603e-01  2.643739e-01
     vertex -1.587302e-02 -2.174603e-01  2.643739e-01
   endloop
 endfacet
 facet normal  0.000000e+00  1.000000e+00  0.000000e+00
   outer loop
     vertex -1.587302e-02 -2.174603e-01 -3.686073e-02
     vertex -3.051156e-02 -2.174603e-01 -3.686073e-02
     vertex -3.051156e-02 -2.174603e-01  2.643739e-01
   endloop
 endfacet
 facet normal  0.000000e+00  1.000000e+00  0.000000e+00
   outer loop
     vertex -1.587302e-02 -2.174603e-01 -3.686073e-02
     vertex -1.587302e-02 -2.174603e-01  2.643739e-01
     vertex  9.232804e-01 -2.174603e-01  2.643739e-01
   endloop
 endfacet
 facet normal -0.000000e+00  1.000000e+00  0.000000e+00
   outer loop
     vertex -1.587302e-02 -2.174603e-01 -3.686073e-02
     vertex  9.232804e-01 -2.174603e-01  2.643739e-01
     vertex  9.232804e-01 -2.174603e-01 -3.686073e-02
   endloop
 endfacet
 facet normal  1.000000e+00  0.000000e+00  0.000000e+00
   outer loop
     vertex  9.232804e-01 -2.174603e-01  2.643739e-01
     vertex  9.232804e-01 -3.492064e-01 -3.686073e-02
     vertex  9.232804e-01 -2.174603e-01 -3.686073e-02
   endloop
 endfacet
 facet normal  1.000000e+00  0.000000e+00  0.000000e+00
   outer loop
     vertex  9.232804e-01 -2.174603e-01  2.643739e-01
     vertex  9.232804e-01 -3.492064e-01  2.749559e-01
     vertex  9.232804e-01 -3.492064e-01 -3.686073e-02
   endloop
 endfacet
 facet normal  1.000000e+00  0.000000e+00  0.000000e+00
   outer loop
     vertex  9.232804e-01 -1.587302e-02  2.749559e-01
     vertex  9.232804e-01 -2.174603e-01  2.643739e-01
     vertex  9.232804e-01 -1.587302e-02  2.643739e-01
   endloop
 endfacet
 facet normal  1.000000e+00 -0.000000e+00  0.000000e+00
   outer loop
     vertex  9.232804e-01 -3.492064e-01  2.749559e-01
     vertex  9.232804e-01 -2.174603e-01  2.643739e-01
     vertex  9.232804e-01 -1.587302e-02  2.749559e-01
   endloop
 endfacet
 facet normal  0.000000e+00 -1.000000e+00  0.000000e+00
   outer loop
     vertex -3.051156e-02 -3.492064e-01  5.867725e-01
     vertex -3.051156e-02 -3.492064e-01 -3.686073e-02
     vertex  1.162257e-01 -3.492064e-01  2.749559e-01
   endloop
 endfacet
 facet normal -0.000000e+00 -1.000000e+00 -0.000000e+00
   outer loop
     vertex  1.162257e-01 -3.492064e-01  5.867725e-01
     vertex -3.051156e-02 -3.492064e-01  5.867725e-01
     vertex  1.162257e-01 -3.492064e-01  2.749559e-01
   endloop
 endfacet
 facet normal  0.000000e+00 -1.000000e+00  0.000000e+00
   outer loop
     vertex  9.232804e-01 -3.492064e-01 -3.686073e-02
     vertex  1.162257e-01 -3.492064e-01  2.749559e-01
     vertex -3.051156e-02 -3.492064e-01 -3.686073e-02
   endloop
 endfacet
 facet normal -0.000000e+00 -1.000000e+00 -0.000000e+00
   outer loop
     vertex  9.232804e-01 -3.492064e-01  2.749559e-01
     vertex  1.162257e-01 -3.492064e-01  2.749559e-01
     vertex  9.232804e-01 -3.492064e-01 -3.686073e-02
   endloop
 endfacet
 facet normal -1.000000e+00  0.000000e+00  0.000000e+00
   outer loop
     vertex -3.051156e-02 -2.174603e-01  2.643739e-01
     vertex -3.051156e-02 -3.492064e-01  5.867725e-01
     vertex -3.051156e-02 -1.587302e-02  5.867725e-01
   endloop
 endfacet
 facet normal -1.000000e+00  0.000000e+00  0.000000e+00
   outer loop
     vertex -3.051156e-02 -3.492064e-01 -3.686073e-02
     vertex -3.051156e-02 -3.492064e-01  5.867725e-01
     vertex -3.051156e-02 -2.174603e-01  2.643739e-01
   endloop
 endfacet
 facet normal -1.000000e+00  0.000000e+00  0.000000e+00
   outer loop
     vertex -3.051156e-02 -1.587302e-02  2.643739e-01
     vertex -3.051156e-02 -2.174603e-01  2.643739e-01
     vertex -3.051156e-02 -1.587302e-02  5.867725e-01
   endloop
 endfacet
 facet normal -1.000000e+00  0.000000e+00  0.000000e+00
   outer loop
     vertex -3.051156e-02 -2.174603e-01 -3.686073e-02
     vertex -3.051156e-02 -3.492064e-01 -3.686073e-02
     vertex -3.051156e-02 -2.174603e-01  2.643739e-01
   endloop
 endfacet
 facet normal  0.000000e+00  0.000000e+00 -1.000000e+00
   outer loop
     vertex -3.051156e-02 -1.587302e-02  2.643739e-01
     vertex -3.051156e-02  0.000000e+00  2.643739e-01
     vertex -1.587302e-02  0.000000e+00  2.643739e-01
   endloop
 endfacet
 facet normal  0.000000e+00  0.000000e+00 -1.000000e+00
   outer loop
     vertex -1.587302e-02 -2.174603e-01  2.643739e-01
     vertex -3.051156e-02 -2.174603e-01  2.643739e-01
     vertex -3.051156e-02 -1.587302e-02  2.643739e-01
   endloop
 endfacet
 facet normal  0.000000e+00  0.000000e+00 -1.000000e+00
   outer loop
     vertex -1.587302e-02 -2.174603e-01  2.643739e-01
     vertex -3.051156e-02 -1.587302e-02  2.643739e-01
     vertex -1.587302e-02  0.000000e+00  2.643739e-01
   endloop
 endfacet
 facet normal  0.000000e+00  0.000000e+00 -1.000000e+00
   outer loop
     vertex -1.587302e-02  0.000000e+00  2.643739e-01
     vertex  9.232804e-01  0.000000e+00  2.643739e-01
     vertex  9.232804e-01 -1.587302e-02  2.643739e-01
   endloop
 endfacet
 facet normal  0.000000e+00  0.000000e+00 -1.000000e+00
   outer loop
     vertex -1.587302e-02 -2.174603e-01  2.643739e-01
     vertex  9.232804e-01 -1.587302e-02  2.643739e-01
     vertex  9.232804e-01 -2.174603e-01  2.643739e-01
   endloop
 endfacet
 facet normal  0.000000e+00  0.000000e+00 -1.000000e+00
   outer loop
     vertex -1.587302e-02 -2.174603e-01  2.643739e-01
     vertex -1.587302e-02  0.000000e+00  2.643739e-01
     vertex  9.232804e-01 -1.587302e-02  2.643739e-01
   endloop
 endfacet
 facet normal  1.000000e+00  0.000000e+00  0.000000e+00
   outer loop
     vertex  9.232804e-01 -1.587302e-02  2.749559e-01
     vertex  9.232804e-01 -1.587302e-02  2.643739e-01
     vertex  9.232804e-01  0.000000e+00  2.643739e-01
   endloop
 endfacet
 facet normal  1.000000e+00 -0.000000e+00  0.000000e+00
   outer loop
     vertex  9.232804e-01 -1.587302e-02  2.749559e-01
     vertex  9.232804e-01  0.000000e+00  2.643739e-01
     vertex  9.232804e-01  0.000000e+00  2.749559e-01
   endloop
 endfacet
 facet normal -0.000000e+00  0.000000e+00  1.000000e+00
   outer loop
     vertex  1.162257e-01 -1.587302e-02  2.749559e-01
     vertex  9.232804e-01 -3.492064e-01  2.749559e-01
     vertex  9.232804e-01 -1.587302e-02  2.749559e-01
   endloop
 endfacet
 facet normal  0.000000e+00  0.000000e+00  1.000000e+00
   outer loop
     vertex  1.162257e-01 -1.587302e-02  2.749559e-01
     vertex  1.162257e-01 -3.492064e-01  2.749559e-01
     vertex  9.232804e-01 -3.492064e-01  2.749559e-01
   endloop
 endfacet
 facet normal  1.000000e+00  0.000000e+00  0.000000e+00
   outer loop
     vertex  1.162257e-01 -1.587302e-02  5.867725e-01
     vertex  1.162257e-01 -3.492064e-01  2.749559e-01
     vertex  1.162257e-01 -1.587302e-02  2.749559e-01
   endloop
 endfacet
 facet normal  1.000000e+00  0.000000e+00  0.000000e+00
   outer loop
     vertex  1.162257e-01 -1.587302e-02  5.867725e-01
     vertex  1.162257e-01 -3.492064e-01  5.867725e-01
     vertex  1.162257e-01 -3.492064e-01  2.749559e-01
   endloop
 endfacet
 facet normal -0.000000e+00  0.000000e+00  1.000000e+00
   outer loop
     vertex -3.051156e-02 -1.587302e-02  5.867725e-01
     vertex  1.162257e-01 -3.492064e-01  5.867725e-01
     vertex  1.162257e-01 -1.587302e-02  5.867725e-01
   endloop
 endfacet
 facet normal  0.000000e+00  0.000000e+00  1.000000e+00
   outer loop
     vertex -3.051156e-02 -1.587302e-02  5.867725e-01
     vertex -3.051156e-02 -3.492064e-01  5.867725e-01
     vertex  1.162257e-01 -3.492064e-01  5.867725e-01
   endloop
 endfacet
 facet normal -1.000000e+00  0.000000e+00  0.000000e+00
   outer loop
     vertex -3.051156e-02 -1.587302e-02  2.643739e-01
     vertex -3.051156e-02 -1.587302e-02  5.867725e-01
     vertex -3.051156e-02  0.000000e+00  5.867725e-01
   endloop
 endfacet
 facet normal -1.000000e+00  0.000000e+00  0.000000e+00
   outer loop
     vertex -3.051156e-02 -1.587302e-02  2.643739e-01
     vertex -3.051156e-02  0.000000e+00  5.867725e-01
     vertex -3.051156e-02  0.000000e+00  2.643739e-01
   endloop
 endfacet
 facet normal  0.000000e+00  1.000000e+00  0.000000e+00
   outer loop
     vertex -3.051156e-02  0.000000e+00  5.867725e-01
     vertex -1.587302e-02  0.000000e+00  2.643739e-01
     vertex -3.051156e-02  0.000000e+00  2.643739e-01
   endloop
 endfacet
 facet normal  0.000000e+00  1.000000e+00  0.000000e+00
   outer loop
     vertex -3.051156e-02  0.000000e+00  5.867725e-01
     vertex  1.162257e-01  0.000000e+00  2.749559e-01
     vertex -1.587302e-02  0.000000e+00  2.643739e-01
   endloop
 endfacet
 facet normal  0.000000e+00  1.000000e+00  0.000000e+00
   outer loop
     vertex  1.162257e-01  0.000000e+00  5.867725e-01
     vertex  1.162257e-01  0.000000e+00  2.749559e-01
     vertex -3.051156e-02  0.000000e+00  5.867725e-01
   endloop
 endfacet
 facet normal  0.000000e+00  1.000000e+00  0.000000e+00
   outer loop
     vertex  9.232804e-01  0.000000e+00  2.749559e-01
     vertex  9.232804e-01  0.000000e+00  2.643739e-01
     vertex  1.162257e-01  0.000000e+00  2.749559e-01
   endloop
 endfacet
 facet normal  0.000000e+00  1.000000e+00  0.000000e+00
   outer loop
     vertex -1.587302e-02  0.000000e+00  2.643739e-01
     vertex  1.162257e-01  0.000000e+00  2.749559e-01
     vertex  9.232804e-01  0.000000e+00  2.643739e-01
   endloop
 endfacet
 facet normal  0.000000e+00  0.000000e+00  1.000000e+00
   outer loop
     vertex  1.162257e-01 -1.587302e-02  2.749559e-01
     vertex  9.232804e-01 -1.587302e-02  2.749559e-01
     vertex  9.232804e-01  0.000000e+00  2.749559e-01
   endloop
 endfacet
 facet normal  0.000000e+00  0.000000e+00  1.000000e+00
   outer loop
     vertex  1.162257e-01 -1.587302e-02  2.749559e-01
     vertex  9.232804e-01  0.000000e+00  2.749559e-01
     vertex  1.162257e-01  0.000000e+00  2.749559e-01
   endloop
 endfacet
 facet normal  1.000000e+00  0.000000e+00  0.000000e+00
   outer loop
     vertex  1.162257e-01 -1.587302e-02  5.867725e-01
     vertex  1.162257e-01 -1.587302e-02  2.749559e-01
     vertex  1.162257e-01  0.000000e+00  2.749559e-01
   endloop
 endfacet
 facet normal  1.000000e+00 -0.000000e+00  0.000000e+00
   outer loop
     vertex  1.162257e-01 -1.587302e-02  5.867725e-01
     vertex  1.162257e-01  0.000000e+00  2.749559e-01
     vertex  1.162257e-01  0.000000e+00  5.867725e-01
   endloop
 endfacet
 facet normal  0.000000e+00  0.000000e+00  1.000000e+00
   outer loop
     vertex -3.051156e-02 -1.587302e-02  5.867725e-01
     vertex  1.162257e-01 -1.587302e-02  5.867725e-01
     vertex  1.162257e-01  0.000000e+00  5.867725e-01
   endloop
 endfacet
 facet normal  0.000000e+00  0.000000e+00  1.000000e+00
   outer loop
     vertex -3.051156e-02 -1.587302e-02  5.867725e-01
     vertex  1.162257e-01  0.000000e+00  5.867725e-01
     vertex -3.051156e-02  0.000000e+00  5.867725e-01
   endloop
 endfacet
endsolid
