solid 
 facet normal  0.000000e+00 -1.000000e+00  0.000000e+00
   outer loop
     vertex  4.114639e-01 -5.507936e-01 -1.587302e-02
     vertex -5.507936e-01 -5.507936e-01  9.841270e-01
     vertex -5.507936e-01 -5.507936e-01 -1.587302e-02
   endloop
 endfacet
 facet normal  0.000000e+00 -1.000000e+00  0.000000e+00
   outer loop
     vertex  4.114639e-01 -5.507936e-01 -1.587302e-02
     vertex  4.114639e-01 -5.507936e-01  9.841270e-01
     vertex -5.507936e-01 -5.507936e-01  9.841270e-01
   endloop
 endfacet
 facet normal -1.000000e+00  0.000000e+00  0.000000e+00
   outer loop
     vertex -5.507936e-01 -5.507936e-01 -1.587302e-02
     vertex -5.507936e-01  4.114639e-01  9.841270e-01
     vertex -5.507936e-01  4.114639e-01 -1.587302e-02
   endloop
 endfacet
 facet normal -1.000000e+00  0.000000e+00  0.000000e+00
   outer loop
     vertex -5.507936e-01 -5.507936e-01 -1.587302e-02
     vertex -5.507936e-01 -5.507936e-01  9.841270e-01
     vertex -5.507936e-01  4.114639e-01  9.841270e-01
   endloop
 endfacet
 facet normal  1.000000e+00  0.000000e+00  0.000000e+00
   outer loop
     vertex  4.114639e-01  4.114639e-01 -1.587302e-02
     vertex  4.114639e-01 -5.507936e-01  9.841270e-01
     vertex  4.114639e-01 -5.507936e-01 -1.587302e-02
   endloop
 endfacet
 facet normal  1.000000e+00  0.000000e+00 -0.000000e+00
   outer loop
     vertex  4.114639e-01  4.114639e-01 -1.587302e-02
     vertex  4.114639e-01  4.114639e-01  9.841270e-01
     vertex  4.114639e-01 -5.507936e-01  9.841270e-01
   endloop
 endfacet
 facet normal -0.000000e+00 -1.000000e+00  0.000000e+00
   outer loop
     vertex  4.114639e-01 -5.507936e-01 -1.587302e-02
     vertex -5.507936e-01 -5.507936e-01 -1.587302e-02
     vertex -5.507936e-01 -5.507936e-01 -3.174603e-02
   endloop
 endfacet
 facet normal  0.000000e+00 -1.000000e+00 -0.000000e+00
   outer loop
     vertex  4.114639e-01 -5.507936e-01 -1.587302e-02
     vertex -5.507936e-01 -5.507936e-01 -3.174603e-02
     vertex  4.114639e-01 -5.507936e-01 -3.174603e-02
   endloop
 endfacet
 facet normal  0.000000e+00  0.000000e+00  1.000000e+00
   outer loop
     vertex  4.114639e-01 -5.507936e-01  9.841270e-01
     vertex -1.698412e-01 -1.698412e-01  9.841270e-01
     vertex -5.507936e-01 -5.507936e-01  9.841270e-01
   endloop
 endfacet
 facet normal  0.000000e+00  0.000000e+00  1.000000e+00
   outer loop
     vertex -5.507936e-01  4.114639e-01  9.841270e-01
     vertex -5.507936e-01 -5.507936e-01  9.841270e-01
     vertex -1.698412e-01 -1.698412e-01  9.841270e-01
   endloop
 endfacet
 facet normal  0.000000e+00  0.000000e+00  1.000000e+00
   outer loop
     vertex  4.744272e-02 -1.698412e-01  9.841270e-01
     vertex -1.698412e-01 -1.698412e-01  9.841270e-01
     vertex  4.114639e-01 -5.507936e-01  9.841270e-01
   endloop
 endfacet
 facet normal  0.000000e+00  0.000000e+00  1.000000e+00
   outer loop
     vertex -1.698412e-01  4.744272e-02  9.841270e-01
     vertex -5.507936e-01  4.114639e-01  9.841270e-01
     vertex -1.698412e-01 -1.698412e-01  9.841270e-01
   endloop
 endfacet
 facet normal  0.000000e+00  0.000000e+00  1.000000e+00
   outer loop
     vertex  4.114639e-01  4.114639e-01  9.841270e-01
     vertex -1.698412e-01  4.744272e-02  9.841270e-01
     vertex  4.744272e-02  4.744272e-02  9.841270e-01
   endloop
 endfacet
 facet normal  0.000000e+00  0.000000e+00  1.000000e+00
   outer loop
     vertex  4.114639e-01  4.114639e-01  9.841270e-01
     vertex  4.744272e-02  4.744272e-02  9.841270e-01
     vertex  4.744272e-02 -1.698412e-01  9.841270e-01
   endloop
 endfacet
 facet normal  0.000000e+00  0.000000e+00  1.000000e+00
   outer loop
     vertex  4.114639e-01  4.114639e-01  9.841270e-01
     vertex  4.744272e-02 -1.698412e-01  9.841270e-01
     vertex  4.114639e-01 -5.507936e-01  9.841270e-01
   endloop
 endfacet
 facet normal  0.000000e+00  0.000000e+00  1.000000e+00
   outer loop
     vertex  4.114639e-01  4.114639e-01  9.841270e-01
     vertex -5.507936e-01  4.114639e-01  9.841270e-01
     vertex -1.698412e-01  4.744272e-02  9.841270e-01
   endloop
 endfacet
 facet normal  0.000000e+00  1.000000e+00  0.000000e+00
   outer loop
     vertex -5.507936e-01  4.114639e-01 -1.587302e-02
     vertex  4.114639e-01  4.114639e-01  9.841270e-01
     vertex  4.114639e-01  4.114639e-01 -1.587302e-02
   endloop
 endfacet
 facet normal  0.000000e+00  1.000000e+00  0.000000e+00
   outer loop
     vertex -5.507936e-01  4.114639e-01 -1.587302e-02
     vertex -5.507936e-01  4.114639e-01  9.841270e-01
     vertex  4.114639e-01  4.114639e-01  9.841270e-01
   endloop
 endfacet
 facet normal -1.000000e+00  0.000000e+00  0.000000e+00
   outer loop
     vertex -5.507936e-01 -5.507936e-01 -1.587302e-02
     vertex -5.507936e-01  4.114639e-01 -1.587302e-02
     vertex -5.507936e-01  4.114639e-01 -3.174603e-02
   endloop
 endfacet
 facet normal -1.000000e+00  0.000000e+00  0.000000e+00
   outer loop
     vertex -5.507936e-01 -5.507936e-01 -1.587302e-02
     vertex -5.507936e-01  4.114639e-01 -3.174603e-02
     vertex -5.507936e-01 -5.507936e-01 -3.174603e-02
   endloop
 endfacet
 facet normal  1.000000e+00  0.000000e+00  0.000000e+00
   outer loop
     vertex  4.114639e-01  4.114639e-01 -1.587302e-02
     vertex  4.114639e-01 -5.507936e-01 -1.587302e-02
     vertex  4.114639e-01 -5.507936e-01 -3.174603e-02
   endloop
 endfacet
 facet normal  1.000000e+00  0.000000e+00  0.000000e+00
   outer loop
     vertex  4.114639e-01  4.114639e-01 -1.587302e-02
     vertex  4.114639e-01 -5.507936e-01 -3.174603e-02
     vertex  4.114639e-01  4.114639e-01 -3.174603e-02
   endloop
 endfacet
 facet normal  0.000000e+00 -0.000000e+00 -1.000000e+00
   outer loop
     vertex  4.114639e-01  4.114639e-01 -3.174603e-02
     vertex  4.114639e-01 -5.507936e-01 -3.174603e-02
     vertex -5.507936e-01 -5.507936e-01 -3.174603e-02
   endloop
 endfacet
 facet normal -0.000000e+00  0.000000e+00 -1.000000e+00
   outer loop
     vertex  4.114639e-01  4.114639e-01 -3.174603e-02
     vertex -5.507936e-01 -5.507936e-01 -3.174603e-02
     vertex -5.507936e-01  4.114639e-01 -3.174603e-02
   endloop
 endfacet
 facet normal  0.000000e+00  1.000000e+00  0.000000e+00
   outer loop
     vertex  4.744272e-02 -1.698412e-01  9.841270e-01
     vertex -1.698412e-01 -1.698412e-01  0.000000e+00
     vertex -1.698412e-01 -1.698412e-01  9.841270e-01
   endloop
 endfacet
 facet normal  0.000000e+00  1.000000e+00  0.000000e+00
   outer loop
     vertex  4.744272e-02 -1.698412e-01  9.841270e-01
     vertex  4.744272e-02 -1.698412e-01  0.000000e+00
     vertex -1.698412e-01 -1.698412e-01  0.000000e+00
   endloop
 endfacet
 facet normal -1.000000e+00 -0.000000e+00  0.000000e+00
   outer loop
     vertex  4.744272e-02  4.744272e-02  9.841270e-01
     vertex  4.744272e-02 -1.698412e-01  0.000000e+00
     vertex  4.744272e-02 -1.698412e-01  9.841270e-01
   endloop
 endfacet
 facet normal -1.000000e+00  0.000000e+00 -0.000000e+00
   outer loop
     vertex  4.744272e-02  4.744272e-02  9.841270e-01
     vertex  4.744272e-02  4.744272e-02  0.000000e+00
     vertex  4.744272e-02 -1.698412e-01  0.000000e+00
   endloop
 endfacet
 facet normal  0.000000e+00 -1.000000e+00  0.000000e+00
   outer loop
     vertex -1.698412e-01  4.744272e-02  9.841270e-01
     vertex  4.744272e-02  4.744272e-02  0.000000e+00
     vertex  4.744272e-02  4.744272e-02  9.841270e-01
   endloop
 endfacet
 facet normal  0.000000e+00 -1.000000e+00  0.000000e+00
   outer loop
     vertex -1.698412e-01  4.744272e-02  9.841270e-01
     vertex -1.698412e-01  4.744272e-02  0.000000e+00
     vertex  4.744272e-02  4.744272e-02  0.000000e+00
   endloop
 endfacet
 facet normal  1.000000e+00 -0.000000e+00  0.000000e+00
   outer loop
     vertex -1.698412e-01 -1.698412e-01  9.841270e-01
     vertex -1.698412e-01  4.744272e-02  0.000000e+00
     vertex -1.698412e-01  4.744272e-02  9.841270e-01
   endloop
 endfacet
 facet normal  1.000000e+00  0.000000e+00  0.000000e+00
   outer loop
     vertex -1.698412e-01 -1.698412e-01  9.841270e-01
     vertex -1.698412e-01 -1.698412e-01  0.000000e+00
     vertex -1.698412e-01  4.744272e-02  0.000000e+00
   endloop
 endfacet
 facet normal -0.000000e+00  1.000000e+00  0.000000e+00
   outer loop
     vertex -5.507936e-01  4.114639e-01 -1.587302e-02
     vertex  4.114639e-01  4.114639e-01 -1.587302e-02
     vertex  4.114639e-01  4.114639e-01 -3.174603e-02
   endloop
 endfacet
 facet normal  0.000000e+00  1.000000e+00  0.000000e+00
   outer loop
     vertex -5.507936e-01  4.114639e-01 -1.587302e-02
     vertex  4.114639e-01  4.114639e-01 -3.174603e-02
     vertex -5.507936e-01  4.114639e-01 -3.174603e-02
   endloop
 endfacet
 facet normal  0.000000e+00  0.000000e+00  1.000000e+00
   outer loop
     vertex  4.744272e-02  4.744272e-02  0.000000e+00
     vertex -1.698412e-01 -1.698412e-01  0.000000e+00
     vertex  4.744272e-02 -1.698412e-01  0.000000e+00
   endloop
 endfacet
 facet normal  0.000000e+00  0.000000e+00  1.000000e+00
   outer loop
     vertex  4.744272e-02  4.744272e-02  0.000000e+00
     vertex -1.698412e-01  4.744272e-02  0.000000e+00
     vertex -1.698412e-01 -1.698412e-01  0.000000e+00
   endloop
 endfacet
endsolid
