solid 
 facet normal  0.000000e+00  0.000000e+00 -1.000000e+00
   outer loop
     vertex  8.985891e-01  0.000000e+00 -3.994709e-01
     vertex -1.048501e+00  0.000000e+00 -3.994709e-01
     vertex -1.048501e+00  1.587301e-01 -3.994709e-01
   endloop
 endfacet
 facet normal  0.000000e+00  0.000000e+00 -1.000000e+00
   outer loop
     vertex  8.985891e-01  0.000000e+00 -3.994709e-01
     vertex -1.048501e+00  1.587301e-01 -3.994709e-01
     vertex  8.985891e-01  1.587301e-01 -3.994709e-01
   endloop
 endfacet
 facet normal -0.000000e+00 -1.000000e+00  0.000000e+00
   outer loop
     vertex -1.088775e-01  0.000000e+00 -1.211650e-01
     vertex -1.211650e-01  0.000000e+00 -1.088775e-01
     vertex -1.048501e+00  0.000000e+00 -3.994709e-01
   endloop
 endfacet
 facet normal -0.000000e+00 -1.000000e+00  0.000000e+00
   outer loop
     vertex -9.416379e-02  0.000000e+00 -1.304103e-01
     vertex -1.088775e-01  0.000000e+00 -1.211650e-01
     vertex -1.048501e+00  0.000000e+00 -3.994709e-01
   endloop
 endfacet
 facet normal  0.000000e+00 -1.000000e+00 -0.000000e+00
   outer loop
     vertex -1.304103e-01  0.000000e+00 -9.416379e-02
     vertex -1.048501e+00  0.000000e+00 -3.994709e-01
     vertex -1.211650e-01  0.000000e+00 -1.088775e-01
   endloop
 endfacet
 facet normal -0.000000e+00 -1.000000e+00  0.000000e+00
   outer loop
     vertex -7.776173e-02  0.000000e+00 -1.361496e-01
     vertex -9.416379e-02  0.000000e+00 -1.304103e-01
     vertex -1.048501e+00  0.000000e+00 -3.994709e-01
   endloop
 endfacet
 facet normal  0.000000e+00 -1.000000e+00 -0.000000e+00
   outer loop
     vertex -1.361496e-01  0.000000e+00 -7.776173e-02
     vertex -1.048501e+00  0.000000e+00 -3.994709e-01
     vertex -1.304103e-01  0.000000e+00 -9.416379e-02
   endloop
 endfacet
 facet normal -0.000000e+00 -1.000000e+00  0.000000e+00
   outer loop
     vertex -6.049379e-02  0.000000e+00 -1.380952e-01
     vertex -7.776173e-02  0.000000e+00 -1.361496e-01
     vertex -1.048501e+00  0.000000e+00 -3.994709e-01
   endloop
 endfacet
 facet normal -0.000000e+00 -1.000000e+00  0.000000e+00
   outer loop
     vertex -1.380952e-01  0.000000e+00 -6.049379e-02
     vertex -1.048501e+00  0.000000e+00  2.495592e-01
     vertex -1.048501e+00  0.000000e+00 -3.994709e-01
   endloop
 endfacet
 facet normal  0.000000e+00 -1.000000e+00 -0.000000e+00
   outer loop
     vertex -1.380952e-01  0.000000e+00 -6.049379e-02
     vertex -1.048501e+00  0.000000e+00 -3.994709e-01
     vertex -1.361496e-01  0.000000e+00 -7.776173e-02
   endloop
 endfacet
 facet normal -0.000000e+00 -1.000000e+00  0.000000e+00
   outer loop
     vertex -1.361496e-01  0.000000e+00 -4.322585e-02
     vertex -1.048501e+00  0.000000e+00  2.495592e-01
     vertex -1.380952e-01  0.000000e+00 -6.049379e-02
   endloop
 endfacet
 facet normal -0.000000e+00 -1.000000e+00  0.000000e+00
   outer loop
     vertex -1.304103e-01  0.000000e+00 -2.682380e-02
     vertex -1.048501e+00  0.000000e+00  2.495592e-01
     vertex -1.361496e-01  0.000000e+00 -4.322585e-02
   endloop
 endfacet
 facet normal -0.000000e+00 -1.000000e+00  0.000000e+00
   outer loop
     vertex -1.211650e-01  0.000000e+00 -1.211010e-02
     vertex -1.048501e+00  0.000000e+00  2.495592e-01
     vertex -1.304103e-01  0.000000e+00 -2.682380e-02
   endloop
 endfacet
 facet normal -0.000000e+00 -1.000000e+00  0.000000e+00
   outer loop
     vertex -1.088775e-01  0.000000e+00  1.774339e-04
     vertex -1.048501e+00  0.000000e+00  2.495592e-01
     vertex -1.211650e-01  0.000000e+00 -1.211010e-02
   endloop
 endfacet
 facet normal -0.000000e+00 -1.000000e+00  0.000000e+00
   outer loop
     vertex -9.416379e-02  0.000000e+00  9.422663e-03
     vertex -1.048501e+00  0.000000e+00  2.495592e-01
     vertex -1.088775e-01  0.000000e+00  1.774339e-04
   endloop
 endfacet
 facet normal -0.000000e+00 -1.000000e+00  0.000000e+00
   outer loop
     vertex -7.776173e-02  0.000000e+00  1.516199e-02
     vertex -1.048501e+00  0.000000e+00  2.495592e-01
     vertex -9.416379e-02  0.000000e+00  9.422663e-03
   endloop
 endfacet
 facet normal  0.000000e+00 -1.000000e+00  0.000000e+00
   outer loop
     vertex  8.985891e-01  0.000000e+00 -3.994709e-01
     vertex -4.322585e-02  0.000000e+00 -1.361496e-01
     vertex -6.049379e-02  0.000000e+00 -1.380952e-01
   endloop
 endfacet
 facet normal  0.000000e+00 -1.000000e+00  0.000000e+00
   outer loop
     vertex  8.985891e-01  0.000000e+00 -3.994709e-01
     vertex -2.682380e-02  0.000000e+00 -1.304103e-01
     vertex -4.322585e-02  0.000000e+00 -1.361496e-01
   endloop
 endfacet
 facet normal  0.000000e+00 -1.000000e+00  0.000000e+00
   outer loop
     vertex  8.985891e-01  0.000000e+00 -3.994709e-01
     vertex -1.211010e-02  0.000000e+00 -1.211650e-01
     vertex -2.682380e-02  0.000000e+00 -1.304103e-01
   endloop
 endfacet
 facet normal  0.000000e+00 -1.000000e+00  0.000000e+00
   outer loop
     vertex  8.985891e-01  0.000000e+00 -3.994709e-01
     vertex  1.774339e-04  0.000000e+00 -1.088775e-01
     vertex -1.211010e-02  0.000000e+00 -1.211650e-01
   endloop
 endfacet
 facet normal  0.000000e+00 -1.000000e+00  0.000000e+00
   outer loop
     vertex  8.985891e-01  0.000000e+00 -3.994709e-01
     vertex  9.422663e-03  0.000000e+00 -9.416379e-02
     vertex  1.774339e-04  0.000000e+00 -1.088775e-01
   endloop
 endfacet
 facet normal  0.000000e+00 -1.000000e+00  0.000000e+00
   outer loop
     vertex  8.985891e-01  0.000000e+00 -3.994709e-01
     vertex  1.516199e-02  0.000000e+00 -7.776173e-02
     vertex  9.422663e-03  0.000000e+00 -9.416379e-02
   endloop
 endfacet
 facet normal  0.000000e+00 -1.000000e+00  0.000000e+00
   outer loop
     vertex  8.985891e-01  0.000000e+00 -3.994709e-01
     vertex  1.710762e-02  0.000000e+00 -6.049379e-02
     vertex  1.516199e-02  0.000000e+00 -7.776173e-02
   endloop
 endfacet
 facet normal  0.000000e+00 -1.000000e+00  0.000000e+00
   outer loop
     vertex  8.985891e-01  0.000000e+00 -3.994709e-01
     vertex -6.049379e-02  0.000000e+00 -1.380952e-01
     vertex -1.048501e+00  0.000000e+00 -3.994709e-01
   endloop
 endfacet
 facet normal  0.000000e+00 -1.000000e+00  0.000000e+00
   outer loop
     vertex  8.985891e-01  0.000000e+00  2.495592e-01
     vertex  1.516199e-02  0.000000e+00 -4.322585e-02
     vertex  1.710762e-02  0.000000e+00 -6.049379e-02
   endloop
 endfacet
 facet normal  0.000000e+00 -1.000000e+00  0.000000e+00
   outer loop
     vertex  8.985891e-01  0.000000e+00  2.495592e-01
     vertex  9.422663e-03  0.000000e+00 -2.682380e-02
     vertex  1.516199e-02  0.000000e+00 -4.322585e-02
   endloop
 endfacet
 facet normal  0.000000e+00 -1.000000e+00  0.000000e+00
   outer loop
     vertex  8.985891e-01  0.000000e+00  2.495592e-01
     vertex  1.774339e-04  0.000000e+00 -1.211010e-02
     vertex  9.422663e-03  0.000000e+00 -2.682380e-02
   endloop
 endfacet
 facet normal  0.000000e+00 -1.000000e+00  0.000000e+00
   outer loop
     vertex  8.985891e-01  0.000000e+00  2.495592e-01
     vertex -1.211010e-02  0.000000e+00  1.774339e-04
     vertex  1.774339e-04  0.000000e+00 -1.211010e-02
   endloop
 endfacet
 facet normal  0.000000e+00 -1.000000e+00  0.000000e+00
   outer loop
     vertex  8.985891e-01  0.000000e+00  2.495592e-01
     vertex -2.682380e-02  0.000000e+00  9.422663e-03
     vertex -1.211010e-02  0.000000e+00  1.774339e-04
   endloop
 endfacet
 facet normal  0.000000e+00 -1.000000e+00  0.000000e+00
   outer loop
     vertex  8.985891e-01  0.000000e+00  2.495592e-01
     vertex -4.322585e-02  0.000000e+00  1.516199e-02
     vertex -2.682380e-02  0.000000e+00  9.422663e-03
   endloop
 endfacet
 facet normal  0.000000e+00 -1.000000e+00 -0.000000e+00
   outer loop
     vertex  8.985891e-01  0.000000e+00  2.495592e-01
     vertex  1.710762e-02  0.000000e+00 -6.049379e-02
     vertex  8.985891e-01  0.000000e+00 -3.994709e-01
   endloop
 endfacet
 facet normal -0.000000e+00 -1.000000e+00  0.000000e+00
   outer loop
     vertex  8.985891e-01  0.000000e+00  2.495592e-01
     vertex -1.048501e+00  0.000000e+00  2.495592e-01
     vertex -6.049379e-02  0.000000e+00  1.710762e-02
   endloop
 endfacet
 facet normal -0.000000e+00 -1.000000e+00  0.000000e+00
   outer loop
     vertex -6.049379e-02  0.000000e+00  1.710762e-02
     vertex -1.048501e+00  0.000000e+00  2.495592e-01
     vertex -7.776173e-02  0.000000e+00  1.516199e-02
   endloop
 endfacet
 facet normal  0.000000e+00 -1.000000e+00  0.000000e+00
   outer loop
     vertex  8.985891e-01  0.000000e+00  2.495592e-01
     vertex -6.049379e-02  0.000000e+00  1.710762e-02
     vertex -4.322585e-02  0.000000e+00  1.516199e-02
   endloop
 endfacet
 facet normal  1.000000e+00  0.000000e+00  0.000000e+00
   outer loop
     vertex  8.985891e-01  0.000000e+00  2.495592e-01
     vertex  8.985891e-01  0.000000e+00 -3.994709e-01
     vertex  8.985891e-01  1.587301e-01 -3.994709e-01
   endloop
 endfacet
 facet normal  1.000000e+00 -0.000000e+00  0.000000e+00
   outer loop
     vertex  8.985891e-01  0.000000e+00  2.495592e-01
     vertex  8.985891e-01  1.587301e-01 -3.994709e-01
     vertex  8.985891e-01  1.587301e-01  2.495592e-01
   endloop
 endfacet
 facet normal  0.000000e+00  1.000000e+00  0.000000e+00
   outer loop
     vertex -1.088775e-01  1.587301e-01 -1.211650e-01
     vertex -1.048501e+00  1.587301e-01 -3.994709e-01
     vertex -1.211650e-01  1.587301e-01 -1.088775e-01
   endloop
 endfacet
 facet normal  0.000000e+00  1.000000e+00  0.000000e+00
   outer loop
     vertex -9.416379e-02  1.587301e-01 -1.304103e-01
     vertex -1.048501e+00  1.587301e-01 -3.994709e-01
     vertex -1.088775e-01  1.587301e-01 -1.211650e-01
   endloop
 endfacet
 facet normal  0.000000e+00  1.000000e+00  0.000000e+00
   outer loop
     vertex -1.304103e-01  1.587301e-01 -9.416379e-02
     vertex -1.211650e-01  1.587301e-01 -1.088775e-01
     vertex -1.048501e+00  1.587301e-01 -3.994709e-01
   endloop
 endfacet
 facet normal  0.000000e+00  1.000000e+00  0.000000e+00
   outer loop
     vertex -7.776173e-02  1.587301e-01 -1.361496e-01
     vertex -1.048501e+00  1.587301e-01 -3.994709e-01
     vertex -9.416379e-02  1.587301e-01 -1.304103e-01
   endloop
 endfacet
 facet normal  0.000000e+00  1.000000e+00  0.000000e+00
   outer loop
     vertex -1.361496e-01  1.587301e-01 -7.776173e-02
     vertex -1.304103e-01  1.587301e-01 -9.416379e-02
     vertex -1.048501e+00  1.587301e-01 -3.994709e-01
   endloop
 endfacet
 facet normal  0.000000e+00  1.000000e+00  0.000000e+00
   outer loop
     vertex -6.049379e-02  1.587301e-01 -1.380952e-01
     vertex -1.048501e+00  1.587301e-01 -3.994709e-01
     vertex -7.776173e-02  1.587301e-01 -1.361496e-01
   endloop
 endfacet
 facet normal  0.000000e+00  1.000000e+00  0.000000e+00
   outer loop
     vertex -1.380952e-01  1.587301e-01 -6.049379e-02
     vertex -1.048501e+00  1.587301e-01 -3.994709e-01
     vertex -1.048501e+00  1.587301e-01  2.495592e-01
   endloop
 endfacet
 facet normal  0.000000e+00  1.000000e+00  0.000000e+00
   outer loop
     vertex -1.380952e-01  1.587301e-01 -6.049379e-02
     vertex -1.361496e-01  1.587301e-01 -7.776173e-02
     vertex -1.048501e+00  1.587301e-01 -3.994709e-01
   endloop
 endfacet
 facet normal  0.000000e+00  1.000000e+00  0.000000e+00
   outer loop
     vertex -1.361496e-01  1.587301e-01 -4.322585e-02
     vertex -1.380952e-01  1.587301e-01 -6.049379e-02
     vertex -1.048501e+00  1.587301e-01  2.495592e-01
   endloop
 endfacet
 facet normal  0.000000e+00  1.000000e+00  0.000000e+00
   outer loop
     vertex -1.304103e-01  1.587301e-01 -2.682380e-02
     vertex -1.361496e-01  1.587301e-01 -4.322585e-02
     vertex -1.048501e+00  1.587301e-01  2.495592e-01
   endloop
 endfacet
 facet normal  0.000000e+00  1.000000e+00  0.000000e+00
   outer loop
     vertex -1.211650e-01  1.587301e-01 -1.211010e-02
     vertex -1.304103e-01  1.587301e-01 -2.682380e-02
     vertex -1.048501e+00  1.587301e-01  2.495592e-01
   endloop
 endfacet
 facet normal  0.000000e+00  1.000000e+00  0.000000e+00
   outer loop
     vertex -1.088775e-01  1.587301e-01  1.774339e-04
     vertex -1.211650e-01  1.587301e-01 -1.211010e-02
     vertex -1.048501e+00  1.587301e-01  2.495592e-01
   endloop
 endfacet
 facet normal  0.000000e+00  1.000000e+00  0.000000e+00
   outer loop
     vertex -9.416379e-02  1.587301e-01  9.422663e-03
     vertex -1.088775e-01  1.587301e-01  1.774339e-04
     vertex -1.048501e+00  1.587301e-01  2.495592e-01
   endloop
 endfacet
 facet normal  0.000000e+00  1.000000e+00  0.000000e+00
   outer loop
     vertex -7.776173e-02  1.587301e-01  1.516199e-02
     vertex -9.416379e-02  1.587301e-01  9.422663e-03
     vertex -1.048501e+00  1.587301e-01  2.495592e-01
   endloop
 endfacet
 facet normal  0.000000e+00  1.000000e+00  0.000000e+00
   outer loop
     vertex  8.985891e-01  1.587301e-01 -3.994709e-01
     vertex -6.049379e-02  1.587301e-01 -1.380952e-01
     vertex -4.322585e-02  1.587301e-01 -1.361496e-01
   endloop
 endfacet
 facet normal  0.000000e+00  1.000000e+00  0.000000e+00
   outer loop
     vertex  8.985891e-01  1.587301e-01 -3.994709e-01
     vertex -4.322585e-02  1.587301e-01 -1.361496e-01
     vertex -2.682380e-02  1.587301e-01 -1.304103e-01
   endloop
 endfacet
 facet normal  0.000000e+00  1.000000e+00  0.000000e+00
   outer loop
     vertex  8.985891e-01  1.587301e-01 -3.994709e-01
     vertex -2.682380e-02  1.587301e-01 -1.304103e-01
     vertex -1.211010e-02  1.587301e-01 -1.211650e-01
   endloop
 endfacet
 facet normal  0.000000e+00  1.000000e+00  0.000000e+00
   outer loop
     vertex  8.985891e-01  1.587301e-01 -3.994709e-01
     vertex -1.211010e-02  1.587301e-01 -1.211650e-01
     vertex  1.774339e-04  1.587301e-01 -1.088775e-01
   endloop
 endfacet
 facet normal  0.000000e+00  1.000000e+00  0.000000e+00
   outer loop
     vertex  8.985891e-01  1.587301e-01 -3.994709e-01
     vertex  1.774339e-04  1.587301e-01 -1.088775e-01
     vertex  9.422663e-03  1.587301e-01 -9.416379e-02
   endloop
 endfacet
 facet normal  0.000000e+00  1.000000e+00  0.000000e+00
   outer loop
     vertex  8.985891e-01  1.587301e-01 -3.994709e-01
     vertex  9.422663e-03  1.587301e-01 -9.416379e-02
     vertex  1.516199e-02  1.587301e-01 -7.776173e-02
   endloop
 endfacet
 facet normal  0.000000e+00  1.000000e+00  0.000000e+00
   outer loop
     vertex  8.985891e-01  1.587301e-01 -3.994709e-01
     vertex  1.516199e-02  1.587301e-01 -7.776173e-02
     vertex  1.710762e-02  1.587301e-01 -6.049379e-02
   endloop
 endfacet
 facet normal  0.000000e+00  1.000000e+00  0.000000e+00
   outer loop
     vertex  8.985891e-01  1.587301e-01 -3.994709e-01
     vertex -1.048501e+00  1.587301e-01 -3.994709e-01
     vertex -6.049379e-02  1.587301e-01 -1.380952e-01
   endloop
 endfacet
 facet normal  0.000000e+00  1.000000e+00  0.000000e+00
   outer loop
     vertex  8.985891e-01  1.587301e-01  2.495592e-01
     vertex  1.710762e-02  1.587301e-01 -6.049379e-02
     vertex  1.516199e-02  1.587301e-01 -4.322585e-02
   endloop
 endfacet
 facet normal  0.000000e+00  1.000000e+00  0.000000e+00
   outer loop
     vertex  8.985891e-01  1.587301e-01  2.495592e-01
     vertex  1.516199e-02  1.587301e-01 -4.322585e-02
     vertex  9.422663e-03  1.587301e-01 -2.682380e-02
   endloop
 endfacet
 facet normal  0.000000e+00  1.000000e+00  0.000000e+00
   outer loop
     vertex  8.985891e-01  1.587301e-01  2.495592e-01
     vertex  9.422663e-03  1.587301e-01 -2.682380e-02
     vertex  1.774339e-04  1.587301e-01 -1.211010e-02
   endloop
 endfacet
 facet normal  0.000000e+00  1.000000e+00  0.000000e+00
   outer loop
     vertex  8.985891e-01  1.587301e-01  2.495592e-01
     vertex  1.774339e-04  1.587301e-01 -1.211010e-02
     vertex -1.211010e-02  1.587301e-01  1.774339e-04
   endloop
 endfacet
 facet normal  0.000000e+00  1.000000e+00  0.000000e+00
   outer loop
     vertex  8.985891e-01  1.587301e-01  2.495592e-01
     vertex -1.211010e-02  1.587301e-01  1.774339e-04
     vertex -2.682380e-02  1.587301e-01  9.422663e-03
   endloop
 endfacet
 facet normal  0.000000e+00  1.000000e+00  0.000000e+00
   outer loop
     vertex  8.985891e-01  1.587301e-01  2.495592e-01
     vertex -2.682380e-02  1.587301e-01  9.422663e-03
     vertex -4.322585e-02  1.587301e-01  1.516199e-02
   endloop
 endfacet
 facet normal  0.000000e+00  1.000000e+00  0.000000e+00
   outer loop
     vertex  8.985891e-01  1.587301e-01  2.495592e-01
     vertex  8.985891e-01  1.587301e-01 -3.994709e-01
     vertex  1.710762e-02  1.587301e-01 -6.049379e-02
   endloop
 endfacet
 facet normal  0.000000e+00  1.000000e+00  0.000000e+00
   outer loop
     vertex  8.985891e-01  1.587301e-01  2.495592e-01
     vertex -6.049379e-02  1.587301e-01  1.710762e-02
     vertex -1.048501e+00  1.587301e-01  2.495592e-01
   endloop
 endfacet
 facet normal  0.000000e+00  1.000000e+00  0.000000e+00
   outer loop
     vertex -6.049379e-02  1.587301e-01  1.710762e-02
     vertex -7.776173e-02  1.587301e-01  1.516199e-02
     vertex -1.048501e+00  1.587301e-01  2.495592e-01
   endloop
 endfacet
 facet normal  0.000000e+00  1.000000e+00  0.000000e+00
   outer loop
     vertex  8.985891e-01  1.587301e-01  2.495592e-01
     vertex -4.322585e-02  1.587301e-01  1.516199e-02
     vertex -6.049379e-02  1.587301e-01  1.710762e-02
   endloop
 endfacet
 facet normal -1.000000e+00  0.000000e+00  0.000000e+00
   outer loop
     vertex -1.048501e+00  0.000000e+00 -3.994709e-01
     vertex -1.048501e+00  0.000000e+00  2.495592e-01
     vertex -1.048501e+00  1.587301e-01  2.495592e-01
   endloop
 endfacet
 facet normal -1.000000e+00  0.000000e+00  0.000000e+00
   outer loop
     vertex -1.048501e+00  0.000000e+00 -3.994709e-01
     vertex -1.048501e+00  1.587301e-01  2.495592e-01
     vertex -1.048501e+00  1.587301e-01 -3.994709e-01
   endloop
 endfacet
 facet normal  0.000000e+00  0.000000e+00  1.000000e+00
   outer loop
     vertex -1.048501e+00  0.000000e+00  2.495592e-01
     vertex  8.985891e-01  0.000000e+00  2.495592e-01
     vertex  8.985891e-01  1.587301e-01  2.495592e-01
   endloop
 endfacet
 facet normal  0.000000e+00  0.000000e+00  1.000000e+00
   outer loop
     vertex -1.048501e+00  0.000000e+00  2.495592e-01
     vertex  8.985891e-01  1.587301e-01  2.495592e-01
     vertex -1.048501e+00  1.587301e-01  2.495592e-01
   endloop
 endfacet
 facet normal -9.937122e-01  0.000000e+00 -1.119645e-01
   outer loop
     vertex  1.516199e-02  0.000000e+00 -4.322585e-02
     vertex  1.710762e-02  1.587301e-01 -6.049379e-02
     vertex  1.710762e-02  0.000000e+00 -6.049379e-02
   endloop
 endfacet
 facet normal -9.937122e-01  0.000000e+00 -1.119645e-01
   outer loop
     vertex  1.516199e-02  0.000000e+00 -4.322585e-02
     vertex  1.516199e-02  1.587301e-01 -4.322585e-02
     vertex  1.710762e-02  1.587301e-01 -6.049379e-02
   endloop
 endfacet
 facet normal -9.438833e-01  0.000000e+00 -3.302791e-01
   outer loop
     vertex  9.422663e-03  0.000000e+00 -2.682380e-02
     vertex  9.422663e-03  1.587301e-01 -2.682380e-02
     vertex  1.516199e-02  1.587301e-01 -4.322585e-02
   endloop
 endfacet
 facet normal -9.438833e-01  0.000000e+00 -3.302791e-01
   outer loop
     vertex  9.422663e-03  0.000000e+00 -2.682380e-02
     vertex  1.516199e-02  1.587301e-01 -4.322585e-02
     vertex  1.516199e-02  0.000000e+00 -4.322585e-02
   endloop
 endfacet
 facet normal -8.467242e-01  0.000000e+00 -5.320321e-01
   outer loop
     vertex  1.774339e-04  0.000000e+00 -1.211010e-02
     vertex  1.774339e-04  1.587301e-01 -1.211010e-02
     vertex  9.422663e-03  1.587301e-01 -2.682380e-02
   endloop
 endfacet
 facet normal -8.467242e-01  0.000000e+00 -5.320321e-01
   outer loop
     vertex  1.774339e-04  0.000000e+00 -1.211010e-02
     vertex  9.422663e-03  1.587301e-01 -2.682380e-02
     vertex  9.422663e-03  0.000000e+00 -2.682380e-02
   endloop
 endfacet
 facet normal -7.071068e-01  0.000000e+00 -7.071068e-01
   outer loop
     vertex -1.211010e-02  0.000000e+00  1.774339e-04
     vertex -1.211010e-02  1.587301e-01  1.774339e-04
     vertex  1.774339e-04  1.587301e-01 -1.211010e-02
   endloop
 endfacet
 facet normal -7.071068e-01  0.000000e+00 -7.071068e-01
   outer loop
     vertex -1.211010e-02  0.000000e+00  1.774339e-04
     vertex  1.774339e-04  1.587301e-01 -1.211010e-02
     vertex  1.774339e-04  0.000000e+00 -1.211010e-02
   endloop
 endfacet
 facet normal -5.320321e-01  0.000000e+00 -8.467242e-01
   outer loop
     vertex -2.682380e-02  0.000000e+00  9.422663e-03
     vertex -2.682380e-02  1.587301e-01  9.422663e-03
     vertex -1.211010e-02  1.587301e-01  1.774339e-04
   endloop
 endfacet
 facet normal -5.320321e-01  0.000000e+00 -8.467242e-01
   outer loop
     vertex -2.682380e-02  0.000000e+00  9.422663e-03
     vertex -1.211010e-02  1.587301e-01  1.774339e-04
     vertex -1.211010e-02  0.000000e+00  1.774339e-04
   endloop
 endfacet
 facet normal -3.302791e-01  0.000000e+00 -9.438833e-01
   outer loop
     vertex -4.322585e-02  0.000000e+00  1.516199e-02
     vertex -4.322585e-02  1.587301e-01  1.516199e-02
     vertex -2.682380e-02  1.587301e-01  9.422663e-03
   endloop
 endfacet
 facet normal -3.302791e-01  0.000000e+00 -9.438833e-01
   outer loop
     vertex -4.322585e-02  0.000000e+00  1.516199e-02
     vertex -2.682380e-02  1.587301e-01  9.422663e-03
     vertex -2.682380e-02  0.000000e+00  9.422663e-03
   endloop
 endfacet
 facet normal -1.119645e-01  0.000000e+00 -9.937122e-01
   outer loop
     vertex -6.049379e-02  0.000000e+00  1.710762e-02
     vertex -6.049379e-02  1.587301e-01  1.710762e-02
     vertex -4.322585e-02  1.587301e-01  1.516199e-02
   endloop
 endfacet
 facet normal -1.119645e-01  0.000000e+00 -9.937122e-01
   outer loop
     vertex -6.049379e-02  0.000000e+00  1.710762e-02
     vertex -4.322585e-02  1.587301e-01  1.516199e-02
     vertex -4.322585e-02  0.000000e+00  1.516199e-02
   endloop
 endfacet
 facet normal  1.119645e-01  0.000000e+00 -9.937122e-01
   outer loop
     vertex -7.776173e-02  0.000000e+00  1.516199e-02
     vertex -7.776173e-02  1.587301e-01  1.516199e-02
     vertex -6.049379e-02  1.587301e-01  1.710762e-02
   endloop
 endfacet
 facet normal  1.119645e-01  0.000000e+00 -9.937122e-01
   outer loop
     vertex -7.776173e-02  0.000000e+00  1.516199e-02
     vertex -6.049379e-02  1.587301e-01  1.710762e-02
     vertex -6.049379e-02  0.000000e+00  1.710762e-02
   endloop
 endfacet
 facet normal  3.302791e-01  0.000000e+00 -9.438833e-01
   outer loop
     vertex -9.416379e-02  0.000000e+00  9.422663e-03
     vertex -9.416379e-02  1.587301e-01  9.422663e-03
     vertex -7.776173e-02  1.587301e-01  1.516199e-02
   endloop
 endfacet
 facet normal  3.302791e-01  0.000000e+00 -9.438833e-01
   outer loop
     vertex -9.416379e-02  0.000000e+00  9.422663e-03
     vertex -7.776173e-02  1.587301e-01  1.516199e-02
     vertex -7.776173e-02  0.000000e+00  1.516199e-02
   endloop
 endfacet
 facet normal  5.320321e-01  0.000000e+00 -8.467242e-01
   outer loop
     vertex -1.088775e-01  0.000000e+00  1.774339e-04
     vertex -9.416379e-02  1.587301e-01  9.422663e-03
     vertex -9.416379e-02  0.000000e+00  9.422663e-03
   endloop
 endfacet
 facet normal  5.320321e-01  0.000000e+00 -8.467242e-01
   outer loop
     vertex -1.088775e-01  0.000000e+00  1.774339e-04
     vertex -1.088775e-01  1.587301e-01  1.774339e-04
     vertex -9.416379e-02  1.587301e-01  9.422663e-03
   endloop
 endfacet
 facet normal  7.071068e-01  0.000000e+00 -7.071068e-01
   outer loop
     vertex -1.211650e-01  0.000000e+00 -1.211010e-02
     vertex -1.088775e-01  1.587301e-01  1.774339e-04
     vertex -1.088775e-01  0.000000e+00  1.774339e-04
   endloop
 endfacet
 facet normal  7.071068e-01  0.000000e+00 -7.071068e-01
   outer loop
     vertex -1.211650e-01  0.000000e+00 -1.211010e-02
     vertex -1.211650e-01  1.587301e-01 -1.211010e-02
     vertex -1.088775e-01  1.587301e-01  1.774339e-04
   endloop
 endfacet
 facet normal  8.467242e-01  0.000000e+00 -5.320321e-01
   outer loop
     vertex -1.304103e-01  0.000000e+00 -2.682380e-02
     vertex -1.211650e-01  1.587301e-01 -1.211010e-02
     vertex -1.211650e-01  0.000000e+00 -1.211010e-02
   endloop
 endfacet
 facet normal  8.467242e-01  0.000000e+00 -5.320321e-01
   outer loop
     vertex -1.304103e-01  0.000000e+00 -2.682380e-02
     vertex -1.304103e-01  1.587301e-01 -2.682380e-02
     vertex -1.211650e-01  1.587301e-01 -1.211010e-02
   endloop
 endfacet
 facet normal  9.438833e-01  0.000000e+00 -3.302791e-01
   outer loop
     vertex -1.361496e-01  0.000000e+00 -4.322585e-02
     vertex -1.304103e-01  1.587301e-01 -2.682380e-02
     vertex -1.304103e-01  0.000000e+00 -2.682380e-02
   endloop
 endfacet
 facet normal  9.438833e-01  0.000000e+00 -3.302791e-01
   outer loop
     vertex -1.361496e-01  0.000000e+00 -4.322585e-02
     vertex -1.361496e-01  1.587301e-01 -4.322585e-02
     vertex -1.304103e-01  1.587301e-01 -2.682380e-02
   endloop
 endfacet
 facet normal  9.937122e-01  0.000000e+00 -1.119645e-01
   outer loop
     vertex -1.380952e-01  0.000000e+00 -6.049379e-02
     vertex -1.361496e-01  1.587301e-01 -4.322585e-02
     vertex -1.361496e-01  0.000000e+00 -4.322585e-02
   endloop
 endfacet
 facet normal  9.937122e-01  0.000000e+00 -1.119645e-01
   outer loop
     vertex -1.380952e-01  0.000000e+00 -6.049379e-02
     vertex -1.380952e-01  1.587301e-01 -6.049379e-02
     vertex -1.361496e-01  1.587301e-01 -4.322585e-02
   endloop
 endfacet
 facet normal  9.937122e-01  0.000000e+00  1.119645e-01
   outer loop
     vertex -1.361496e-01  0.000000e+00 -7.776173e-02
     vertex -1.380952e-01  1.587301e-01 -6.049379e-02
     vertex -1.380952e-01  0.000000e+00 -6.049379e-02
   endloop
 endfacet
 facet normal  9.937122e-01 -0.000000e+00  1.119645e-01
   outer loop
     vertex -1.361496e-01  0.000000e+00 -7.776173e-02
     vertex -1.361496e-01  1.587301e-01 -7.776173e-02
     vertex -1.380952e-01  1.587301e-01 -6.049379e-02
   endloop
 endfacet
 facet normal  9.438833e-01  0.000000e+00  3.302791e-01
   outer loop
     vertex -1.304103e-01  0.000000e+00 -9.416379e-02
     vertex -1.361496e-01  1.587301e-01 -7.776173e-02
     vertex -1.361496e-01  0.000000e+00 -7.776173e-02
   endloop
 endfacet
 facet normal  9.438833e-01 -0.000000e+00  3.302791e-01
   outer loop
     vertex -1.304103e-01  0.000000e+00 -9.416379e-02
     vertex -1.304103e-01  1.587301e-01 -9.416379e-02
     vertex -1.361496e-01  1.587301e-01 -7.776173e-02
   endloop
 endfacet
 facet normal  8.467242e-01  0.000000e+00  5.320321e-01
   outer loop
     vertex -1.211650e-01  0.000000e+00 -1.088775e-01
     vertex -1.304103e-01  1.587301e-01 -9.416379e-02
     vertex -1.304103e-01  0.000000e+00 -9.416379e-02
   endloop
 endfacet
 facet normal  8.467242e-01 -0.000000e+00  5.320321e-01
   outer loop
     vertex -1.211650e-01  0.000000e+00 -1.088775e-01
     vertex -1.211650e-01  1.587301e-01 -1.088775e-01
     vertex -1.304103e-01  1.587301e-01 -9.416379e-02
   endloop
 endfacet
 facet normal  7.071068e-01  0.000000e+00  7.071068e-01
   outer loop
     vertex -1.088775e-01  0.000000e+00 -1.211650e-01
     vertex -1.211650e-01  1.587301e-01 -1.088775e-01
     vertex -1.211650e-01  0.000000e+00 -1.088775e-01
   endloop
 endfacet
 facet normal  7.071068e-01 -0.000000e+00  7.071068e-01
   outer loop
     vertex -1.088775e-01  0.000000e+00 -1.211650e-01
     vertex -1.088775e-01  1.587301e-01 -1.211650e-01
     vertex -1.211650e-01  1.587301e-01 -1.088775e-01
   endloop
 endfacet
 facet normal  5.320321e-01  0.000000e+00  8.467242e-01
   outer loop
     vertex -9.416379e-02  0.000000e+00 -1.304103e-01
     vertex -1.088775e-01  1.587301e-01 -1.211650e-01
     vertex -1.088775e-01  0.000000e+00 -1.211650e-01
   endloop
 endfacet
 facet normal  5.320321e-01 -0.000000e+00  8.467242e-01
   outer loop
     vertex -9.416379e-02  0.000000e+00 -1.304103e-01
     vertex -9.416379e-02  1.587301e-01 -1.304103e-01
     vertex -1.088775e-01  1.587301e-01 -1.211650e-01
   endloop
 endfacet
 facet normal  3.302791e-01  0.000000e+00  9.438833e-01
   outer loop
     vertex -7.776173e-02  0.000000e+00 -1.361496e-01
     vertex -9.416379e-02  1.587301e-01 -1.304103e-01
     vertex -9.416379e-02  0.000000e+00 -1.304103e-01
   endloop
 endfacet
 facet normal  3.302791e-01 -0.000000e+00  9.438833e-01
   outer loop
     vertex -7.776173e-02  0.000000e+00 -1.361496e-01
     vertex -7.776173e-02  1.587301e-01 -1.361496e-01
     vertex -9.416379e-02  1.587301e-01 -1.304103e-01
   endloop
 endfacet
 facet normal  1.119645e-01  0.000000e+00  9.937122e-01
   outer loop
     vertex -6.049379e-02  0.000000e+00 -1.380952e-01
     vertex -7.776173e-02  1.587301e-01 -1.361496e-01
     vertex -7.776173e-02  0.000000e+00 -1.361496e-01
   endloop
 endfacet
 facet normal  1.119645e-01 -0.000000e+00  9.937122e-01
   outer loop
     vertex -6.049379e-02  0.000000e+00 -1.380952e-01
     vertex -6.049379e-02  1.587301e-01 -1.380952e-01
     vertex -7.776173e-02  1.587301e-01 -1.361496e-01
   endloop
 endfacet
 facet normal -1.119645e-01  0.000000e+00  9.937122e-01
   outer loop
     vertex -4.322585e-02  0.000000e+00 -1.361496e-01
     vertex -4.322585e-02  1.587301e-01 -1.361496e-01
     vertex -6.049379e-02  1.587301e-01 -1.380952e-01
   endloop
 endfacet
 facet normal -1.119645e-01  0.000000e+00  9.937122e-01
   outer loop
     vertex -4.322585e-02  0.000000e+00 -1.361496e-01
     vertex -6.049379e-02  1.587301e-01 -1.380952e-01
     vertex -6.049379e-02  0.000000e+00 -1.380952e-01
   endloop
 endfacet
 facet normal -3.302791e-01  0.000000e+00  9.438833e-01
   outer loop
     vertex -2.682380e-02  0.000000e+00 -1.304103e-01
     vertex -4.322585e-02  1.587301e-01 -1.361496e-01
     vertex -4.322585e-02  0.000000e+00 -1.361496e-01
   endloop
 endfacet
 facet normal -3.302791e-01  0.000000e+00  9.438833e-01
   outer loop
     vertex -2.682380e-02  0.000000e+00 -1.304103e-01
     vertex -2.682380e-02  1.587301e-01 -1.304103e-01
     vertex -4.322585e-02  1.587301e-01 -1.361496e-01
   endloop
 endfacet
 facet normal -5.320321e-01  0.000000e+00  8.467242e-01
   outer loop
     vertex -1.211010e-02  0.000000e+00 -1.211650e-01
     vertex -1.211010e-02  1.587301e-01 -1.211650e-01
     vertex -2.682380e-02  1.587301e-01 -1.304103e-01
   endloop
 endfacet
 facet normal -5.320321e-01  0.000000e+00  8.467242e-01
   outer loop
     vertex -1.211010e-02  0.000000e+00 -1.211650e-01
     vertex -2.682380e-02  1.587301e-01 -1.304103e-01
     vertex -2.682380e-02  0.000000e+00 -1.304103e-01
   endloop
 endfacet
 facet normal -7.071068e-01  0.000000e+00  7.071068e-01
   outer loop
     vertex  1.774339e-04  0.000000e+00 -1.088775e-01
     vertex  1.774339e-04  1.587301e-01 -1.088775e-01
     vertex -1.211010e-02  1.587301e-01 -1.211650e-01
   endloop
 endfacet
 facet normal -8.467242e-01  0.000000e+00  5.320321e-01
   outer loop
     vertex  1.774339e-04  0.000000e+00 -1.088775e-01
     vertex  9.422663e-03  1.587301e-01 -9.416379e-02
     vertex  1.774339e-04  1.587301e-01 -1.088775e-01
   endloop
 endfacet
 facet normal -7.071068e-01  0.000000e+00  7.071068e-01
   outer loop
     vertex  1.774339e-04  0.000000e+00 -1.088775e-01
     vertex -1.211010e-02  1.587301e-01 -1.211650e-01
     vertex -1.211010e-02  0.000000e+00 -1.211650e-01
   endloop
 endfacet
 facet normal -8.467242e-01  0.000000e+00  5.320321e-01
   outer loop
     vertex  9.422663e-03  0.000000e+00 -9.416379e-02
     vertex  9.422663e-03  1.587301e-01 -9.416379e-02
     vertex  1.774339e-04  0.000000e+00 -1.088775e-01
   endloop
 endfacet
 facet normal -9.438833e-01  0.000000e+00  3.302791e-01
   outer loop
     vertex  1.516199e-02  0.000000e+00 -7.776173e-02
     vertex  1.516199e-02  1.587301e-01 -7.776173e-02
     vertex  9.422663e-03  1.587301e-01 -9.416379e-02
   endloop
 endfacet
 facet normal -9.937122e-01  0.000000e+00  1.119645e-01
   outer loop
     vertex  1.516199e-02  0.000000e+00 -7.776173e-02
     vertex  1.710762e-02  1.587301e-01 -6.049379e-02
     vertex  1.516199e-02  1.587301e-01 -7.776173e-02
   endloop
 endfacet
 facet normal -9.438833e-01  0.000000e+00  3.302791e-01
   outer loop
     vertex  1.516199e-02  0.000000e+00 -7.776173e-02
     vertex  9.422663e-03  1.587301e-01 -9.416379e-02
     vertex  9.422663e-03  0.000000e+00 -9.416379e-02
   endloop
 endfacet
 facet normal -9.937122e-01  0.000000e+00  1.119645e-01
   outer loop
     vertex  1.710762e-02  0.000000e+00 -6.049379e-02
     vertex  1.710762e-02  1.587301e-01 -6.049379e-02
     vertex  1.516199e-02  0.000000e+00 -7.776173e-02
   endloop
 endfacet
endsolid
