solid 
 facet normal -1.000000e+00  0.000000e+00 -0.000000e+00
   outer loop
     vertex -1.028395e+00 -1.587302e-02  7.550265e-01
     vertex -1.028395e+00 -1.587302e-02 -3.509703e-02
     vertex -1.028395e+00 -3.492064e-01 -3.509703e-02
   endloop
 endfacet
 facet normal -1.000000e+00 -0.000000e+00  0.000000e+00
   outer loop
     vertex -1.028395e+00 -1.587302e-02  7.550265e-01
     vertex -1.028395e+00 -3.492064e-01 -3.509703e-02
     vertex -1.028395e+00 -3.492064e-01  7.550265e-01
   endloop
 endfacet
 facet normal  0.000000e+00  0.000000e+00 -1.000000e+00
   outer loop
     vertex -1.028395e+00 -1.587302e-02 -3.509703e-02
     vertex -8.024684e-02 -1.587302e-02 -3.509703e-02
     vertex -8.024684e-02 -3.492064e-01 -3.509703e-02
   endloop
 endfacet
 facet normal  0.000000e+00  0.000000e+00 -1.000000e+00
   outer loop
     vertex -1.028395e+00 -1.587302e-02 -3.509703e-02
     vertex -8.024684e-02 -3.492064e-01 -3.509703e-02
     vertex -1.028395e+00 -3.492064e-01 -3.509703e-02
   endloop
 endfacet
 facet normal  0.000000e+00  0.000000e+00  1.000000e+00
   outer loop
     vertex -8.024684e-02 -1.587302e-02  7.550265e-01
     vertex -1.028395e+00 -1.587302e-02  7.550265e-01
     vertex -1.028395e+00 -3.492064e-01  7.550265e-01
   endloop
 endfacet
 facet normal  0.000000e+00  0.000000e+00  1.000000e+00
   outer loop
     vertex -8.024684e-02 -1.587302e-02  7.550265e-01
     vertex -1.028395e+00 -3.492064e-01  7.550265e-01
     vertex -8.024684e-02 -3.492064e-01  7.550265e-01
   endloop
 endfacet
 facet normal -1.000000e+00  0.000000e+00  0.000000e+00
   outer loop
     vertex -1.028395e+00 -1.587302e-02  7.550265e-01
     vertex -1.028395e+00  0.000000e+00 -3.509703e-02
     vertex -1.028395e+00 -1.587302e-02 -3.509703e-02
   endloop
 endfacet
 facet normal -1.000000e+00  0.000000e+00  0.000000e+00
   outer loop
     vertex -1.028395e+00 -1.587302e-02  7.550265e-01
     vertex -1.028395e+00  0.000000e+00  7.550265e-01
     vertex -1.028395e+00  0.000000e+00 -3.509703e-02
   endloop
 endfacet
 facet normal -0.000000e+00 -1.000000e+00  0.000000e+00
   outer loop
     vertex -3.557320e-01 -3.492064e-01  9.823632e-02
     vertex -1.028395e+00 -3.492064e-01  7.550265e-01
     vertex -1.028395e+00 -3.492064e-01 -3.509703e-02
   endloop
 endfacet
 facet normal  0.000000e+00 -1.000000e+00  0.000000e+00
   outer loop
     vertex -8.024684e-02 -3.492064e-01 -3.509703e-02
     vertex -3.557320e-01 -3.492064e-01  9.823632e-02
     vertex -1.028395e+00 -3.492064e-01 -3.509703e-02
   endloop
 endfacet
 facet normal -0.000000e+00 -1.000000e+00  0.000000e+00
   outer loop
     vertex -8.024684e-02 -3.492064e-01  9.823632e-02
     vertex -3.557320e-01 -3.492064e-01  9.823632e-02
     vertex -8.024684e-02 -3.492064e-01 -3.509703e-02
   endloop
 endfacet
 facet normal -0.000000e+00 -1.000000e+00 -0.000000e+00
   outer loop
     vertex -3.557320e-01 -3.492064e-01  6.259260e-01
     vertex -1.028395e+00 -3.492064e-01  7.550265e-01
     vertex -3.557320e-01 -3.492064e-01  9.823632e-02
   endloop
 endfacet
 facet normal  0.000000e+00 -1.000000e+00 -0.000000e+00
   outer loop
     vertex -8.024684e-02 -3.492064e-01  7.550265e-01
     vertex -3.557320e-01 -3.492064e-01  6.259260e-01
     vertex -8.024684e-02 -3.492064e-01  6.259260e-01
   endloop
 endfacet
 facet normal -0.000000e+00 -1.000000e+00  0.000000e+00
   outer loop
     vertex -8.024684e-02 -3.492064e-01  7.550265e-01
     vertex -1.028395e+00 -3.492064e-01  7.550265e-01
     vertex -3.557320e-01 -3.492064e-01  6.259260e-01
   endloop
 endfacet
 facet normal  1.000000e+00  0.000000e+00 -1.040834e-16
   outer loop
     vertex -8.024684e-02 -1.587302e-02 -3.509703e-02
     vertex -8.024684e-02 -1.587302e-02  9.823632e-02
     vertex -8.024684e-02 -3.492064e-01  9.823632e-02
   endloop
 endfacet
 facet normal  1.000000e+00  0.000000e+00 -1.040834e-16
   outer loop
     vertex -8.024684e-02 -1.587302e-02 -3.509703e-02
     vertex -8.024684e-02 -3.492064e-01  9.823632e-02
     vertex -8.024684e-02 -3.492064e-01 -3.509703e-02
   endloop
 endfacet
 facet normal  0.000000e+00  0.000000e+00 -1.000000e+00
   outer loop
     vertex -1.028395e+00 -1.587302e-02 -3.509703e-02
     vertex -8.024684e-02  0.000000e+00 -3.509703e-02
     vertex -8.024684e-02 -1.587302e-02 -3.509703e-02
   endloop
 endfacet
 facet normal  0.000000e+00  0.000000e+00 -1.000000e+00
   outer loop
     vertex -1.028395e+00 -1.587302e-02 -3.509703e-02
     vertex -1.028395e+00  0.000000e+00 -3.509703e-02
     vertex -8.024684e-02  0.000000e+00 -3.509703e-02
   endloop
 endfacet
 facet normal  1.000000e+00  0.000000e+00  1.074960e-16
   outer loop
     vertex -8.024684e-02 -1.587302e-02  6.259260e-01
     vertex -8.024684e-02 -1.587302e-02  7.550265e-01
     vertex -8.024684e-02 -3.492064e-01  7.550265e-01
   endloop
 endfacet
 facet normal  1.000000e+00  0.000000e+00  1.074960e-16
   outer loop
     vertex -8.024684e-02 -1.587302e-02  6.259260e-01
     vertex -8.024684e-02 -3.492064e-01  7.550265e-01
     vertex -8.024684e-02 -3.492064e-01  6.259260e-01
   endloop
 endfacet
 facet normal  0.000000e+00  0.000000e+00  1.000000e+00
   outer loop
     vertex -8.024684e-02 -1.587302e-02  7.550265e-01
     vertex -1.028395e+00  0.000000e+00  7.550265e-01
     vertex -1.028395e+00 -1.587302e-02  7.550265e-01
   endloop
 endfacet
 facet normal  0.000000e+00 -0.000000e+00  1.000000e+00
   outer loop
     vertex -8.024684e-02 -1.587302e-02  7.550265e-01
     vertex -8.024684e-02  0.000000e+00  7.550265e-01
     vertex -1.028395e+00  0.000000e+00  7.550265e-01
   endloop
 endfacet
 facet normal  0.000000e+00  1.000000e+00  0.000000e+00
   outer loop
     vertex -3.557320e-01  0.000000e+00  9.823632e-02
     vertex -1.028395e+00  0.000000e+00 -3.509703e-02
     vertex -1.028395e+00  0.000000e+00  7.550265e-01
   endloop
 endfacet
 facet normal  0.000000e+00  1.000000e+00  0.000000e+00
   outer loop
     vertex -8.024684e-02  0.000000e+00 -3.509703e-02
     vertex -1.028395e+00  0.000000e+00 -3.509703e-02
     vertex -3.557320e-01  0.000000e+00  9.823632e-02
   endloop
 endfacet
 facet normal  0.000000e+00  1.000000e+00  0.000000e+00
   outer loop
     vertex -8.024684e-02  0.000000e+00  9.823632e-02
     vertex -8.024684e-02  0.000000e+00 -3.509703e-02
     vertex -3.557320e-01  0.000000e+00  9.823632e-02
   endloop
 endfacet
 facet normal  0.000000e+00  1.000000e+00  0.000000e+00
   outer loop
     vertex -3.557320e-01  0.000000e+00  6.259260e-01
     vertex -3.557320e-01  0.000000e+00  9.823632e-02
     vertex -1.028395e+00  0.000000e+00  7.550265e-01
   endloop
 endfacet
 facet normal  0.000000e+00  1.000000e+00  0.000000e+00
   outer loop
     vertex -8.024684e-02  0.000000e+00  7.550265e-01
     vertex -8.024684e-02  0.000000e+00  6.259260e-01
     vertex -3.557320e-01  0.000000e+00  6.259260e-01
   endloop
 endfacet
 facet normal  0.000000e+00  1.000000e+00  0.000000e+00
   outer loop
     vertex -8.024684e-02  0.000000e+00  7.550265e-01
     vertex -3.557320e-01  0.000000e+00  6.259260e-01
     vertex -1.028395e+00  0.000000e+00  7.550265e-01
   endloop
 endfacet
 facet normal  0.000000e+00 -1.000000e+00 -0.000000e+00
   outer loop
     vertex -8.024684e-02 -3.492064e-01  6.259260e-01
     vertex -3.557320e-01 -3.492064e-01  9.823632e-02
     vertex -8.024684e-02 -3.492064e-01  9.823632e-02
   endloop
 endfacet
 facet normal -0.000000e+00 -1.000000e+00  0.000000e+00
   outer loop
     vertex -8.024684e-02 -3.492064e-01  6.259260e-01
     vertex -3.557320e-01 -3.492064e-01  6.259260e-01
     vertex -3.557320e-01 -3.492064e-01  9.823632e-02
   endloop
 endfacet
 facet normal  1.000000e+00  0.000000e+00 -1.040834e-16
   outer loop
     vertex -8.024684e-02 -1.587302e-02 -3.509703e-02
     vertex -8.024684e-02  0.000000e+00  9.823632e-02
     vertex -8.024684e-02 -1.587302e-02  9.823632e-02
   endloop
 endfacet
 facet normal  1.000000e+00  0.000000e+00 -1.040834e-16
   outer loop
     vertex -8.024684e-02 -1.587302e-02 -3.509703e-02
     vertex -8.024684e-02  0.000000e+00 -3.509703e-02
     vertex -8.024684e-02  0.000000e+00  9.823632e-02
   endloop
 endfacet
 facet normal  1.083845e-16  0.000000e+00 -1.000000e+00
   outer loop
     vertex  4.779539e-02 -1.587302e-02  9.823632e-02
     vertex -8.024684e-02 -3.492064e-01  9.823632e-02
     vertex -8.024684e-02 -1.587302e-02  9.823632e-02
   endloop
 endfacet
 facet normal  1.083845e-16  0.000000e+00 -1.000000e+00
   outer loop
     vertex  4.779539e-02 -1.587302e-02  9.823632e-02
     vertex  4.779539e-02 -3.492064e-01  9.823632e-02
     vertex -8.024684e-02 -3.492064e-01  9.823632e-02
   endloop
 endfacet
 facet normal  1.000000e+00  0.000000e+00  1.074960e-16
   outer loop
     vertex -8.024684e-02 -1.587302e-02  6.259260e-01
     vertex -8.024684e-02  0.000000e+00  7.550265e-01
     vertex -8.024684e-02 -1.587302e-02  7.550265e-01
   endloop
 endfacet
 facet normal  1.000000e+00 -0.000000e+00  1.074960e-16
   outer loop
     vertex -8.024684e-02 -1.587302e-02  6.259260e-01
     vertex -8.024684e-02  0.000000e+00  6.259260e-01
     vertex -8.024684e-02  0.000000e+00  7.550265e-01
   endloop
 endfacet
 facet normal -0.000000e+00  0.000000e+00  1.000000e+00
   outer loop
     vertex -8.024684e-02 -1.587302e-02  6.259260e-01
     vertex  4.513227e-01 -3.492064e-01  6.259260e-01
     vertex  4.513227e-01 -1.587302e-02  6.259260e-01
   endloop
 endfacet
 facet normal  0.000000e+00  0.000000e+00  1.000000e+00
   outer loop
     vertex -8.024684e-02 -1.587302e-02  6.259260e-01
     vertex -8.024684e-02 -3.492064e-01  6.259260e-01
     vertex  4.513227e-01 -3.492064e-01  6.259260e-01
   endloop
 endfacet
 facet normal  0.000000e+00  1.000000e+00  0.000000e+00
   outer loop
     vertex -8.024684e-02  0.000000e+00  6.259260e-01
     vertex -8.024684e-02  0.000000e+00  9.823632e-02
     vertex -3.557320e-01  0.000000e+00  9.823632e-02
   endloop
 endfacet
 facet normal  0.000000e+00  1.000000e+00  0.000000e+00
   outer loop
     vertex -8.024684e-02  0.000000e+00  6.259260e-01
     vertex -3.557320e-01  0.000000e+00  9.823632e-02
     vertex -3.557320e-01  0.000000e+00  6.259260e-01
   endloop
 endfacet
 facet normal  0.000000e+00 -1.000000e+00  0.000000e+00
   outer loop
     vertex -8.024684e-02 -3.492064e-01  6.259260e-01
     vertex -8.024684e-02 -3.492064e-01  9.823632e-02
     vertex  4.779539e-02 -3.492064e-01  9.823632e-02
   endloop
 endfacet
 facet normal -0.000000e+00 -1.000000e+00  0.000000e+00
   outer loop
     vertex  4.513227e-01 -3.492064e-01  6.259260e-01
     vertex -8.024684e-02 -3.492064e-01  6.259260e-01
     vertex  4.779539e-02 -3.492064e-01  9.823632e-02
   endloop
 endfacet
 facet normal  1.083845e-16  0.000000e+00 -1.000000e+00
   outer loop
     vertex  4.779539e-02 -1.587302e-02  9.823632e-02
     vertex -8.024684e-02 -1.587302e-02  9.823632e-02
     vertex -8.024684e-02  0.000000e+00  9.823632e-02
   endloop
 endfacet
 facet normal  1.083845e-16  0.000000e+00 -1.000000e+00
   outer loop
     vertex  4.779539e-02 -1.587302e-02  9.823632e-02
     vertex -8.024684e-02  0.000000e+00  9.823632e-02
     vertex  4.779539e-02  0.000000e+00  9.823632e-02
   endloop
 endfacet
 facet normal  7.943578e-01  0.000000e+00 -6.074501e-01
   outer loop
     vertex  4.513227e-01 -1.587302e-02  6.259260e-01
     vertex  4.779539e-02 -3.492064e-01  9.823632e-02
     vertex  4.779539e-02 -1.587302e-02  9.823632e-02
   endloop
 endfacet
 facet normal  7.943578e-01  0.000000e+00 -6.074501e-01
   outer loop
     vertex  4.513227e-01 -1.587302e-02  6.259260e-01
     vertex  4.513227e-01 -3.492064e-01  6.259260e-01
     vertex  4.779539e-02 -3.492064e-01  9.823632e-02
   endloop
 endfacet
 facet normal  0.000000e+00  0.000000e+00  1.000000e+00
   outer loop
     vertex -8.024684e-02 -1.587302e-02  6.259260e-01
     vertex  4.513227e-01 -1.587302e-02  6.259260e-01
     vertex  4.513227e-01  0.000000e+00  6.259260e-01
   endloop
 endfacet
 facet normal  0.000000e+00  0.000000e+00  1.000000e+00
   outer loop
     vertex -8.024684e-02 -1.587302e-02  6.259260e-01
     vertex  4.513227e-01  0.000000e+00  6.259260e-01
     vertex -8.024684e-02  0.000000e+00  6.259260e-01
   endloop
 endfacet
 facet normal  0.000000e+00  1.000000e+00  0.000000e+00
   outer loop
     vertex -8.024684e-02  0.000000e+00  6.259260e-01
     vertex  4.779539e-02  0.000000e+00  9.823632e-02
     vertex -8.024684e-02  0.000000e+00  9.823632e-02
   endloop
 endfacet
 facet normal  0.000000e+00  1.000000e+00  0.000000e+00
   outer loop
     vertex  4.513227e-01  0.000000e+00  6.259260e-01
     vertex  4.779539e-02  0.000000e+00  9.823632e-02
     vertex -8.024684e-02  0.000000e+00  6.259260e-01
   endloop
 endfacet
 facet normal  7.943578e-01  0.000000e+00 -6.074501e-01
   outer loop
     vertex  4.513227e-01 -1.587302e-02  6.259260e-01
     vertex  4.779539e-02 -1.587302e-02  9.823632e-02
     vertex  4.779539e-02  0.000000e+00  9.823632e-02
   endloop
 endfacet
 facet normal  7.943578e-01  0.000000e+00 -6.074501e-01
   outer loop
     vertex  4.513227e-01 -1.587302e-02  6.259260e-01
     vertex  4.779539e-02  0.000000e+00  9.823632e-02
     vertex  4.513227e-01  0.000000e+00  6.259260e-01
   endloop
 endfacet
endsolid
