solid 
 facet normal  9.980056e-01  0.000000e+00  6.312483e-02
   outer loop
     vertex  1.368401e-01 -3.174603e-02 -3.789387e-02
     vertex  1.384480e-01 -3.174603e-02 -6.331566e-02
     vertex  1.384480e-01 -1.587302e-02 -6.331566e-02
   endloop
 endfacet
 facet normal  9.975073e-01  1.066519e-02  6.975251e-02
   outer loop
     vertex  1.364845e-01 -1.587302e-02 -3.523559e-02
     vertex  1.368401e-01 -3.174603e-02 -3.789387e-02
     vertex  1.384480e-01 -1.587302e-02 -6.331566e-02
   endloop
 endfacet
 facet normal  9.820537e-01 -9.544384e-03  1.883598e-01
   outer loop
     vertex  1.320418e-01 -3.174603e-02 -1.287727e-02
     vertex  1.368401e-01 -3.174603e-02 -3.789387e-02
     vertex  1.364845e-01 -1.587302e-02 -3.523559e-02
   endloop
 endfacet
 facet normal  9.779694e-01  1.908574e-02  2.078738e-01
   outer loop
     vertex  1.306320e-01 -1.587302e-02 -7.702058e-03
     vertex  1.320418e-01 -3.174603e-02 -1.287727e-02
     vertex  1.364845e-01 -1.587302e-02 -3.523559e-02
   endloop
 endfacet
 facet normal  9.504028e-01 -1.684408e-02  3.105654e-01
   outer loop
     vertex  1.241298e-01 -3.174603e-02  1.133539e-02
     vertex  1.320418e-01 -3.174603e-02 -1.287727e-02
     vertex  1.306320e-01 -1.587302e-02 -7.702058e-03
   endloop
 endfacet
 facet normal  9.393928e-01  2.526071e-02  3.419110e-01
   outer loop
     vertex  1.210046e-01 -1.587302e-02  1.874902e-02
     vertex  1.241298e-01 -3.174603e-02  1.133539e-02
     vertex  1.306320e-01 -1.587302e-02 -7.702058e-03
   endloop
 endfacet
 facet normal  9.036095e-01 -2.189840e-02  4.277972e-01
   outer loop
     vertex  1.132301e-01 -3.174603e-02  3.435818e-02
     vertex  1.241298e-01 -3.174603e-02  1.133539e-02
     vertex  1.210046e-01 -1.587302e-02  1.874902e-02
   endloop
 endfacet
 facet normal  8.825713e-01  2.919092e-02  4.692715e-01
   outer loop
     vertex  1.077896e-01 -1.587302e-02  4.360279e-02
     vertex  1.132301e-01 -3.174603e-02  3.435818e-02
     vertex  1.210046e-01 -1.587302e-02  1.874902e-02
   endloop
 endfacet
 facet normal  8.424514e-01 -2.470795e-02  5.382055e-01
   outer loop
     vertex  9.951640e-02 -3.174603e-02  5.582416e-02
     vertex  1.132301e-01 -3.174603e-02  3.435818e-02
     vertex  1.077896e-01 -1.587302e-02  4.360279e-02
   endloop
 endfacet
 facet normal  8.086312e-01  3.087759e-02  5.875050e-01
   outer loop
     vertex  9.124428e-02 -1.587302e-02  6.637553e-02
     vertex  9.951640e-02 -3.174603e-02  5.582416e-02
     vertex  1.077896e-01 -1.587302e-02  4.360279e-02
   endloop
 endfacet
 facet normal  7.190090e-01  3.032136e-02  6.943390e-01
   outer loop
     vertex  7.169059e-02 -1.587302e-02  8.662397e-02
     vertex  8.320735e-02 -3.174603e-02  7.539117e-02
     vertex  9.124428e-02 -1.587302e-02  6.637553e-02
   endloop
 endfacet
 facet normal  6.154283e-01  2.752203e-02  7.877123e-01
   outer loop
     vertex  4.950915e-02 -1.587302e-02  1.039540e-01
     vertex  6.456287e-02 -3.174603e-02  9.274734e-02
     vertex  7.169059e-02 -1.587302e-02  8.662397e-02
   endloop
 endfacet
 facet normal  4.998737e-01  2.247856e-02  8.658066e-01
   outer loop
     vertex  2.513171e-02 -1.587302e-02  1.180283e-01
     vertex  4.388014e-02 -3.174603e-02  1.076160e-01
     vertex  4.950915e-02 -1.587302e-02  1.039540e-01
   endloop
 endfacet
 facet normal  4.855187e-01 -3.243984e-17  8.742263e-01
   outer loop
     vertex  2.513171e-02 -1.587302e-02  1.180283e-01
     vertex  4.388014e-02 -8.888889e-01  1.076160e-01
     vertex  4.388014e-02 -3.174603e-02  1.076160e-01
   endloop
 endfacet
 facet normal  4.716367e-01 -3.883670e-04  8.817929e-01
   outer loop
     vertex  2.513171e-02 -1.587302e-02  1.180283e-01
     vertex  1.935423e-02 -8.888889e-01  1.207340e-01
     vertex  4.388014e-02 -8.888889e-01  1.076160e-01
   endloop
 endfacet
 facet normal  3.746066e-01  3.944388e-04  9.271838e-01
   outer loop
     vertex -9.672591e-04 -1.587302e-02  1.285730e-01
     vertex  1.935423e-02 -8.888889e-01  1.207340e-01
     vertex  2.513171e-02 -1.587302e-02  1.180283e-01
   endloop
 endfacet
 facet normal  3.458868e-01 -3.736816e-04  9.382762e-01
   outer loop
     vertex -9.672591e-04 -1.587302e-02  1.285730e-01
     vertex -6.742696e-03 -8.888889e-01  1.303544e-01
     vertex  1.935423e-02 -8.888889e-01  1.207340e-01
   endloop
 endfacet
 facet normal  2.419219e-01  3.794336e-04  9.702957e-01
   outer loop
     vertex -2.827977e-02 -1.587302e-02  1.353828e-01
     vertex -6.742696e-03 -8.888889e-01  1.303544e-01
     vertex -9.672591e-04 -1.587302e-02  1.285730e-01
   endloop
 endfacet
 facet normal  2.135639e-01 -3.583567e-04  9.769290e-01
   outer loop
     vertex -2.827977e-02 -1.587302e-02  1.353828e-01
     vertex -3.391470e-02 -8.888889e-01  1.362944e-01
     vertex -6.742696e-03 -8.888889e-01  1.303544e-01
   endloop
 endfacet
 facet normal  1.045285e-01  3.637889e-04  9.945218e-01
   outer loop
     vertex -5.627421e-02 -1.587302e-02  1.383251e-01
     vertex -3.391470e-02 -8.888889e-01  1.362944e-01
     vertex -2.827977e-02 -1.587302e-02  1.353828e-01
   endloop
 endfacet
 facet normal  7.718259e-02 -3.423922e-04  9.970169e-01
   outer loop
     vertex -5.627421e-02 -1.587302e-02  1.383251e-01
     vertex -6.164542e-02 -8.888889e-01  1.384411e-01
     vertex -3.391470e-02 -8.888889e-01  1.362944e-01
   endloop
 endfacet
 facet normal -3.489949e-02  3.475047e-04  9.993908e-01
   outer loop
     vertex -8.440571e-02 -1.587302e-02  1.373427e-01
     vertex -6.164542e-02 -8.888889e-01  1.384411e-01
     vertex -5.627421e-02 -1.587302e-02  1.383251e-01
   endloop
 endfacet
 facet normal -6.066548e-02 -3.257883e-04  9.981581e-01
   outer loop
     vertex -8.440571e-02 -1.587302e-02  1.373427e-01
     vertex -8.940787e-02 -8.888889e-01  1.367538e-01
     vertex -6.164542e-02 -8.888889e-01  1.384411e-01
   endloop
 endfacet
 facet normal -1.736482e-01  3.305810e-04  9.848077e-01
   outer loop
     vertex -1.121267e-01 -1.587302e-02  1.324548e-01
     vertex -8.940787e-02 -8.888889e-01  1.367538e-01
     vertex -8.440571e-02 -1.587302e-02  1.373427e-01
   endloop
 endfacet
 facet normal -1.973607e-01 -3.085449e-04  9.803309e-01
   outer loop
     vertex -1.121267e-01 -1.587302e-02  1.324548e-01
     vertex -1.166745e-01 -8.888889e-01  1.312644e-01
     vertex -8.940787e-02 -8.888889e-01  1.367538e-01
   endloop
 endfacet
 facet normal -3.303054e-01 -2.906622e-04  9.438741e-01
   outer loop
     vertex -1.388977e-01 -1.587302e-02  1.237564e-01
     vertex -1.429271e-01 -8.888889e-01  1.220774e-01
     vertex -1.166745e-01 -8.888889e-01  1.312644e-01
   endloop
 endfacet
 facet normal -3.090170e-01  3.130180e-04  9.510565e-01
   outer loop
     vertex -1.388977e-01 -1.587302e-02  1.237564e-01
     vertex -1.166745e-01 -8.888889e-01  1.312644e-01
     vertex -1.121267e-01 -1.587302e-02  1.324548e-01
   endloop
 endfacet
 facet normal -4.569732e-01 -2.721402e-04  8.894804e-01
   outer loop
     vertex -1.641975e-01 -1.587302e-02  1.114168e-01
     vertex -1.676668e-01 -8.888889e-01  1.093673e-01
     vertex -1.429271e-01 -8.888889e-01  1.220774e-01
   endloop
 endfacet
 facet normal -4.383711e-01  2.948156e-04  8.987940e-01
   outer loop
     vertex -1.641975e-01 -1.587302e-02  1.114168e-01
     vertex -1.429271e-01 -8.888889e-01  1.220774e-01
     vertex -1.388977e-01 -1.587302e-02  1.237564e-01
   endloop
 endfacet
 facet normal -5.749569e-01 -2.529789e-04  8.181836e-01
   outer loop
     vertex -1.875338e-01 -1.587302e-02  9.567628e-02
     vertex -1.904235e-01 -8.888889e-01  9.337564e-02
     vertex -1.676668e-01 -8.888889e-01  1.093673e-01
   endloop
 endfacet
 facet normal -5.591929e-01  2.759739e-04  8.290375e-01
   outer loop
     vertex -1.875338e-01 -1.587302e-02  9.567628e-02
     vertex -1.676668e-01 -8.888889e-01  1.093673e-01
     vertex -1.641975e-01 -1.587302e-02  1.114168e-01
   endloop
 endfacet
 facet normal -6.820145e-01 -2.331783e-04  7.313386e-01
   outer loop
     vertex -2.084523e-01 -1.587302e-02  7.684116e-02
     vertex -2.107648e-01 -8.888889e-01  7.440630e-02
     vertex -1.904235e-01 -8.888889e-01  9.337564e-02
   endloop
 endfacet
 facet normal -6.691306e-01  2.564930e-04  7.431448e-01
   outer loop
     vertex -2.084523e-01 -1.587302e-02  7.684116e-02
     vertex -1.904235e-01 -8.888889e-01  9.337564e-02
     vertex -1.875338e-01 -1.587302e-02  9.567628e-02
   endloop
 endfacet
 facet normal -7.761115e-01 -2.127386e-04  6.305956e-01
   outer loop
     vertex -2.265459e-01 -1.587302e-02  5.527805e-02
     vertex -2.283040e-01 -8.888889e-01  5.281978e-02
     vertex -2.107648e-01 -8.888889e-01  7.440630e-02
   endloop
 endfacet
 facet normal -7.660444e-01  2.363729e-04  6.427876e-01
   outer loop
     vertex -2.265459e-01 -1.587302e-02  5.527805e-02
     vertex -2.107648e-01 -8.888889e-01  7.440630e-02
     vertex -2.084523e-01 -1.587302e-02  7.684116e-02
   endloop
 endfacet
 facet normal -8.554598e-01 -1.916598e-04  5.178692e-01
   outer loop
     vertex -2.414624e-01 -1.587302e-02  3.140664e-02
     vertex -2.427078e-01 -8.888889e-01  2.902629e-02
     vertex -2.283040e-01 -8.888889e-01  5.281978e-02
   endloop
 endfacet
 facet normal -8.480481e-01  2.156136e-04  5.299193e-01
   outer loop
     vertex -2.414624e-01 -1.587302e-02  3.140664e-02
     vertex -2.283040e-01 -8.888889e-01  5.281978e-02
     vertex -2.265459e-01 -1.587302e-02  5.527805e-02
   endloop
 endfacet
 facet normal -9.185514e-01 -1.699420e-04  3.953015e-01
   outer loop
     vertex -2.529115e-01 -1.587302e-02  5.691577e-03
     vertex -2.537026e-01 -8.888889e-01  3.477985e-03
     vertex -2.427078e-01 -8.888889e-01  2.902629e-02
   endloop
 endfacet
 facet normal -9.135454e-01  1.942153e-04  4.067366e-01
   outer loop
     vertex -2.529115e-01 -1.587302e-02  5.691577e-03
     vertex -2.427078e-01 -8.888889e-01  2.902629e-02
     vertex -2.414624e-01 -1.587302e-02  3.140664e-02
   endloop
 endfacet
 facet normal -9.641874e-01 -1.475851e-04  2.652217e-01
   outer loop
     vertex -2.606703e-01 -1.587302e-02 -2.136664e-02
     vertex -2.610794e-01 -8.888889e-01 -2.333962e-02
     vertex -2.537026e-01 -8.888889e-01  3.477985e-03
   endloop
 endfacet
 facet normal -9.612617e-01  1.721779e-04  2.756374e-01
   outer loop
     vertex -2.606703e-01 -1.587302e-02 -2.136664e-02
     vertex -2.537026e-01 -8.888889e-01  3.477985e-03
     vertex -2.529115e-01 -1.587302e-02  5.691577e-03
   endloop
 endfacet
 facet normal -9.915006e-01 -1.245894e-04  1.301018e-01
   outer loop
     vertex -2.645879e-01 -1.587302e-02 -4.924134e-02
     vertex -2.646980e-01 -8.888889e-01 -5.091691e-02
     vertex -2.610794e-01 -8.888889e-01 -2.333962e-02
   endloop
 endfacet
 facet normal -9.902681e-01  1.495016e-04  1.391731e-01
   outer loop
     vertex -2.645879e-01 -1.587302e-02 -4.924134e-02
     vertex -2.610794e-01 -8.888889e-01 -2.333962e-02
     vertex -2.606703e-01 -1.587302e-02 -2.136664e-02
   endloop
 endfacet
 facet normal -9.999719e-01 -1.009547e-04 -7.490431e-03
   outer loop
     vertex -2.645879e-01 -1.587302e-02 -7.738999e-02
     vertex -2.644897e-01 -8.888889e-01 -7.872982e-02
     vertex -2.646980e-01 -8.888889e-01 -5.091691e-02
   endloop
 endfacet
 facet normal -1.000000e+00  1.261864e-04  0.000000e+00
   outer loop
     vertex -2.645879e-01 -1.587302e-02 -7.738999e-02
     vertex -2.646980e-01 -8.888889e-01 -5.091691e-02
     vertex -2.645879e-01 -1.587302e-02 -4.924134e-02
   endloop
 endfacet
 facet normal -9.902681e-01  1.022324e-04 -1.391731e-01
   outer loop
     vertex -2.606703e-01 -1.587302e-02 -1.052647e-01
     vertex -2.644897e-01 -8.888889e-01 -7.872982e-02
     vertex -2.645879e-01 -1.587302e-02 -7.738999e-02
   endloop
 endfacet
 facet normal -9.894404e-01 -7.668131e-05 -1.449404e-01
   outer loop
     vertex -2.606703e-01 -1.587302e-02 -1.052647e-01
     vertex -2.604584e-01 -8.888889e-01 -1.062498e-01
     vertex -2.644897e-01 -8.888889e-01 -7.872982e-02
   endloop
 endfacet
 facet normal -9.612617e-01  7.763957e-05 -2.756374e-01
   outer loop
     vertex -2.529115e-01 -1.587302e-02 -1.323229e-01
     vertex -2.604584e-01 -8.888889e-01 -1.062498e-01
     vertex -2.606703e-01 -1.587302e-02 -1.052647e-01
   endloop
 endfacet
 facet normal -9.601061e-01 -5.176916e-05 -2.796359e-01
   outer loop
     vertex -2.529115e-01 -1.587302e-02 -1.323229e-01
     vertex -2.526806e-01 -8.888889e-01 -1.329539e-01
     vertex -2.604584e-01 -8.888889e-01 -1.062498e-01
   endloop
 endfacet
 facet normal -9.135455e-01  5.240808e-05 -4.067366e-01
   outer loop
     vertex -2.414624e-01 -1.587302e-02 -1.580380e-01
     vertex -2.526806e-01 -8.888889e-01 -1.329539e-01
     vertex -2.529115e-01 -1.587302e-02 -1.323229e-01
   endloop
 endfacet
 facet normal -9.125266e-01 -2.621834e-05 -4.090174e-01
   outer loop
     vertex -2.414624e-01 -1.587302e-02 -1.580380e-01
     vertex -2.413044e-01 -8.888889e-01 -1.583346e-01
     vertex -2.526806e-01 -8.888889e-01 -1.329539e-01
   endloop
 endfacet
 facet normal -8.480481e-01  2.653796e-05 -5.299193e-01
   outer loop
     vertex -2.265459e-01 -1.587302e-02 -1.819094e-01
     vertex -2.413044e-01 -8.888889e-01 -1.583346e-01
     vertex -2.414624e-01 -1.587302e-02 -1.580380e-01
   endloop
 endfacet
 facet normal -8.476059e-01 -2.893382e-08 -5.306263e-01
   outer loop
     vertex -2.265459e-01 -1.587302e-02 -1.819094e-01
     vertex -2.265457e-01 -8.888889e-01 -1.819097e-01
     vertex -2.413044e-01 -8.888889e-01 -1.583346e-01
   endloop
 endfacet
 facet normal -7.665779e-01  2.893458e-08 -6.421514e-01
   outer loop
     vertex -2.265459e-01 -1.587302e-02 -1.819094e-01
     vertex -2.086851e-01 -8.888889e-01 -2.032310e-01
     vertex -2.265457e-01 -8.888889e-01 -1.819097e-01
   endloop
 endfacet
 facet normal -7.660444e-01  2.648078e-05 -6.427876e-01
   outer loop
     vertex -2.084523e-01 -1.587302e-02 -2.034725e-01
     vertex -2.086851e-01 -8.888889e-01 -2.032310e-01
     vertex -2.265459e-01 -1.587302e-02 -1.819094e-01
   endloop
 endfacet
 facet normal -6.709822e-01 -2.616187e-05 -7.414734e-01
   outer loop
     vertex -2.084523e-01 -1.587302e-02 -2.034725e-01
     vertex -1.880620e-01 -8.888889e-01 -2.218935e-01
     vertex -2.086851e-01 -8.888889e-01 -2.032310e-01
   endloop
 endfacet
 facet normal -6.691306e-01  5.235230e-05 -7.431448e-01
   outer loop
     vertex -1.875338e-01 -1.587302e-02 -2.223076e-01
     vertex -1.880620e-01 -8.888889e-01 -2.218935e-01
     vertex -2.084523e-01 -1.587302e-02 -2.034725e-01
   endloop
 endfacet
 facet normal -5.626357e-01 -5.171408e-05 -8.267050e-01
   outer loop
     vertex -1.875338e-01 -1.587302e-02 -2.223076e-01
     vertex -1.650683e-01 -8.888889e-01 -2.375425e-01
     vertex -1.880620e-01 -8.888889e-01 -2.218935e-01
   endloop
 endfacet
 facet normal -5.591929e-01  7.758519e-05 -8.290376e-01
   outer loop
     vertex -1.641975e-01 -1.587302e-02 -2.380481e-01
     vertex -1.650683e-01 -8.888889e-01 -2.375425e-01
     vertex -1.875338e-01 -1.587302e-02 -2.223076e-01
   endloop
 endfacet
 facet normal -4.435971e-01 -7.662762e-05 -8.962263e-01
   outer loop
     vertex -1.641975e-01 -1.587302e-02 -2.380481e-01
     vertex -1.401409e-01 -8.888889e-01 -2.498806e-01
     vertex -1.650683e-01 -8.888889e-01 -2.375425e-01
   endloop
 endfacet
 facet normal -4.383711e-01  1.021794e-04 -8.987940e-01
   outer loop
     vertex -1.388977e-01 -1.587302e-02 -2.503877e-01
     vertex -1.401409e-01 -8.888889e-01 -2.498806e-01
     vertex -1.641975e-01 -1.587302e-02 -2.380481e-01
   endloop
 endfacet
 facet normal -3.161287e-01 -1.009024e-04 -9.487163e-01
   outer loop
     vertex -1.388977e-01 -1.587302e-02 -2.503877e-01
     vertex -1.137536e-01 -8.888889e-01 -2.586733e-01
     vertex -1.401409e-01 -8.888889e-01 -2.498806e-01
   endloop
 endfacet
 facet normal -3.090170e-01  1.261348e-04 -9.510565e-01
   outer loop
     vertex -1.121267e-01 -1.587302e-02 -2.590861e-01
     vertex -1.137536e-01 -8.888889e-01 -2.586733e-01
     vertex -1.388977e-01 -1.587302e-02 -2.503877e-01
   endloop
 endfacet
 facet normal -1.826528e-01 -1.245385e-04 -9.831775e-01
   outer loop
     vertex -1.121267e-01 -1.587302e-02 -2.590861e-01
     vertex -8.640782e-02 -8.888889e-01 -2.637535e-01
     vertex -1.137536e-01 -8.888889e-01 -2.586733e-01
   endloop
 endfacet
 facet normal -1.736482e-01  1.494514e-04 -9.848077e-01
   outer loop
     vertex -8.440571e-02 -1.587302e-02 -2.639741e-01
     vertex -8.640782e-02 -8.888889e-01 -2.637535e-01
     vertex -1.121267e-01 -1.587302e-02 -2.590861e-01
   endloop
 endfacet
 facet normal -4.570583e-02 -1.475356e-04 -9.989549e-01
   outer loop
     vertex -8.440571e-02 -1.587302e-02 -2.639741e-01
     vertex -5.862320e-02 -8.888889e-01 -2.650248e-01
     vertex -8.640782e-02 -8.888889e-01 -2.637535e-01
   endloop
 endfacet
 facet normal -3.489950e-02  1.721291e-04 -9.993908e-01
   outer loop
     vertex -5.627421e-02 -1.587302e-02 -2.649564e-01
     vertex -5.862320e-02 -8.888889e-01 -2.650248e-01
     vertex -8.440571e-02 -1.587302e-02 -2.639741e-01
   endloop
 endfacet
 facet normal  9.210968e-02 -1.698939e-04 -9.957489e-01
   outer loop
     vertex -5.627421e-02 -1.587302e-02 -2.649564e-01
     vertex -3.092775e-02 -8.888889e-01 -2.624629e-01
     vertex -5.862320e-02 -8.888889e-01 -2.650248e-01
   endloop
 endfacet
 facet normal  1.045285e-01  1.941679e-04 -9.945219e-01
   outer loop
     vertex -2.827977e-02 -1.587302e-02 -2.620141e-01
     vertex -3.092775e-02 -8.888889e-01 -2.624629e-01
     vertex -5.627421e-02 -1.587302e-02 -2.649564e-01
   endloop
 endfacet
 facet normal  2.281748e-01 -1.916131e-04 -9.736202e-01
   outer loop
     vertex -2.827977e-02 -1.587302e-02 -2.620141e-01
     vertex -3.847782e-03 -8.888889e-01 -2.561165e-01
     vertex -3.092775e-02 -8.888889e-01 -2.624629e-01
   endloop
 endfacet
 facet normal  2.419219e-01  2.155676e-04 -9.702957e-01
   outer loop
     vertex -9.672591e-04 -1.587302e-02 -2.552043e-01
     vertex -3.847782e-03 -8.888889e-01 -2.561165e-01
     vertex -2.827977e-02 -1.587302e-02 -2.620141e-01
   endloop
 endfacet
 facet normal  3.599038e-01 -2.126933e-04 -9.329894e-01
   outer loop
     vertex -9.672591e-04 -1.587302e-02 -2.552043e-01
     vertex  2.210209e-02 -8.888889e-01 -2.461062e-01
     vertex -3.847782e-03 -8.888889e-01 -2.561165e-01
   endloop
 endfacet
 facet normal  3.746066e-01  2.363282e-04 -9.271838e-01
   outer loop
     vertex  2.513171e-02 -1.587302e-02 -2.446597e-01
     vertex  2.210209e-02 -8.888889e-01 -2.461062e-01
     vertex -9.672591e-04 -1.587302e-02 -2.552043e-01
   endloop
 endfacet
 facet normal  4.847934e-01 -2.331344e-04 -8.746286e-01
   outer loop
     vertex  2.513171e-02 -1.587302e-02 -2.446597e-01
     vertex  4.642874e-02 -8.888889e-01 -2.326223e-01
     vertex  2.210209e-02 -8.888889e-01 -2.461062e-01
   endloop
 endfacet
 facet normal  4.920534e-01  2.512697e-17 -8.705650e-01
   outer loop
     vertex  4.642874e-02 -3.174603e-02 -2.326223e-01
     vertex  4.642874e-02 -8.888889e-01 -2.326223e-01
     vertex  2.513171e-02 -1.587302e-02 -2.446597e-01
   endloop
 endfacet
 facet normal  4.999503e-01  1.410334e-02 -8.659393e-01
   outer loop
     vertex  4.950915e-02 -1.587302e-02 -2.305853e-01
     vertex  4.642874e-02 -3.174603e-02 -2.326223e-01
     vertex  2.513171e-02 -1.587302e-02 -2.446597e-01
   endloop
 endfacet
 facet normal  6.155047e-01  2.256384e-02 -7.878101e-01
   outer loop
     vertex  7.169059e-02 -1.587302e-02 -2.132553e-01
     vertex  6.659756e-02 -3.174603e-02 -2.176890e-01
     vertex  4.950915e-02 -1.587302e-02 -2.305853e-01
   endloop
 endfacet
 facet normal  7.190557e-01  2.810193e-02 -6.943840e-01
   outer loop
     vertex  9.124428e-02 -1.587302e-02 -1.930069e-01
     vertex  8.475655e-02 -3.174603e-02 -2.003675e-01
     vertex  7.169059e-02 -1.587302e-02 -2.132553e-01
   endloop
 endfacet
 facet normal  8.086352e-01  3.071930e-02 -5.875078e-01
   outer loop
     vertex  1.077896e-01 -1.587302e-02 -1.702341e-01
     vertex  1.006248e-01 -3.174603e-02 -1.809257e-01
     vertex  9.124428e-02 -1.587302e-02 -1.930069e-01
   endloop
 endfacet
 facet normal  8.469595e-01 -2.458174e-02 -5.310889e-01
   outer loop
     vertex  1.139567e-01 -3.174603e-02 -1.596644e-01
     vertex  1.006248e-01 -3.174603e-02 -1.809257e-01
     vertex  1.077896e-01 -1.587302e-02 -1.702341e-01
   endloop
 endfacet
 facet normal  8.825390e-01  3.041723e-02 -4.692543e-01
   outer loop
     vertex  1.210046e-01 -1.587302e-02 -1.453803e-01
     vertex  1.139567e-01 -3.174603e-02 -1.596644e-01
     vertex  1.077896e-01 -1.587302e-02 -1.702341e-01
   endloop
 endfacet
 facet normal  9.063752e-01 -2.281907e-02 -4.218569e-01
   outer loop
     vertex  1.245462e-01 -3.174603e-02 -1.369125e-01
     vertex  1.139567e-01 -3.174603e-02 -1.596644e-01
     vertex  1.210046e-01 -1.587302e-02 -1.453803e-01
   endloop
 endfacet
 facet normal  9.393451e-01  2.719553e-02 -3.418936e-01
   outer loop
     vertex  1.306320e-01 -1.587302e-02 -1.189293e-01
     vertex  1.245462e-01 -3.174603e-02 -1.369125e-01
     vertex  1.210046e-01 -1.587302e-02 -1.453803e-01
   endloop
 endfacet
 facet normal  9.518248e-01 -1.813495e-02 -3.061057e-01
   outer loop
     vertex  1.322294e-01 -3.174603e-02 -1.130220e-01
     vertex  1.245462e-01 -3.174603e-02 -1.369125e-01
     vertex  1.306320e-01 -1.587302e-02 -1.189293e-01
   endloop
 endfacet
 facet normal  9.779308e-01  2.105275e-02 -2.078656e-01
   outer loop
     vertex  1.364845e-01 -1.587302e-02 -9.139574e-02
     vertex  1.322294e-01 -3.174603e-02 -1.130220e-01
     vertex  1.306320e-01 -1.587302e-02 -1.189293e-01
   endloop
 endfacet
 facet normal  9.825692e-01 -1.052843e-02 -1.855987e-01
   outer loop
     vertex  1.368873e-01 -3.174603e-02 -8.836260e-02
     vertex  1.322294e-01 -3.174603e-02 -1.130220e-01
     vertex  1.364845e-01 -1.587302e-02 -9.139574e-02
   endloop
 endfacet
 facet normal  9.980643e-01  0.000000e+00 -6.219036e-02
   outer loop
     vertex  1.384480e-01 -1.587302e-02 -6.331566e-02
     vertex  1.384480e-01 -3.174603e-02 -6.331566e-02
     vertex  1.368873e-01 -3.174603e-02 -8.836260e-02
   endloop
 endfacet
 facet normal  9.974924e-01  1.198733e-02 -6.975146e-02
   outer loop
     vertex  1.384480e-01 -1.587302e-02 -6.331566e-02
     vertex  1.368873e-01 -3.174603e-02 -8.836260e-02
     vertex  1.364845e-01 -1.587302e-02 -9.139574e-02
   endloop
 endfacet
 facet normal  5.835999e-01 -1.967208e-02  8.118030e-01
   outer loop
     vertex  6.456287e-02 -3.174603e-02  9.274734e-02
     vertex  4.950915e-02 -1.587302e-02  1.039540e-01
     vertex  4.388014e-02 -3.174603e-02  1.076160e-01
   endloop
 endfacet
 facet normal  6.811765e-01 -2.359494e-02  7.317389e-01
   outer loop
     vertex  8.320735e-02 -3.174603e-02  7.539117e-02
     vertex  7.169059e-02 -1.587302e-02  8.662397e-02
     vertex  6.456287e-02 -3.174603e-02  9.274734e-02
   endloop
 endfacet
 facet normal  7.679139e-01 -2.527340e-02  6.400543e-01
   outer loop
     vertex  9.951640e-02 -3.174603e-02  5.582416e-02
     vertex  9.124428e-02 -1.587302e-02  6.637553e-02
     vertex  8.320735e-02 -3.174603e-02  7.539117e-02
   endloop
 endfacet
 facet normal  7.745002e-01 -2.342357e-02 -6.321399e-01
   outer loop
     vertex  8.475655e-02 -3.174603e-02 -2.003675e-01
     vertex  9.124428e-02 -1.587302e-02 -1.930069e-01
     vertex  1.006248e-01 -3.174603e-02 -1.809257e-01
   endloop
 endfacet
 facet normal  6.900956e-01 -1.934415e-02 -7.234596e-01
   outer loop
     vertex  6.659756e-02 -3.174603e-02 -2.176890e-01
     vertex  7.169059e-02 -1.587302e-02 -2.132553e-01
     vertex  8.475655e-02 -3.174603e-02 -2.003675e-01
   endloop
 endfacet
 facet normal  5.950133e-01 -1.234248e-02 -8.036211e-01
   outer loop
     vertex  4.642874e-02 -3.174603e-02 -2.326223e-01
     vertex  4.950915e-02 -1.587302e-02 -2.305853e-01
     vertex  6.659756e-02 -3.174603e-02 -2.176890e-01
   endloop
 endfacet
 facet normal  9.975641e-01  0.000000e+00  6.975647e-02
   outer loop
     vertex  1.364845e-01 -1.587302e-02 -3.523559e-02
     vertex  1.384480e-01 -1.587302e-02 -6.331566e-02
     vertex  1.384480e-01  0.000000e+00 -6.331566e-02
   endloop
 endfacet
 facet normal  9.975641e-01 -0.000000e+00  6.975647e-02
   outer loop
     vertex  1.364845e-01 -1.587302e-02 -3.523559e-02
     vertex  1.384480e-01  0.000000e+00 -6.331566e-02
     vertex  1.364845e-01  0.000000e+00 -3.523559e-02
   endloop
 endfacet
 facet normal  9.781476e-01 -0.000000e+00  2.079117e-01
   outer loop
     vertex  1.306320e-01 -1.587302e-02 -7.702058e-03
     vertex  1.364845e-01  0.000000e+00 -3.523559e-02
     vertex  1.306320e-01  0.000000e+00 -7.702058e-03
   endloop
 endfacet
 facet normal  9.781476e-01  0.000000e+00  2.079117e-01
   outer loop
     vertex  1.306320e-01 -1.587302e-02 -7.702058e-03
     vertex  1.364845e-01 -1.587302e-02 -3.523559e-02
     vertex  1.364845e-01  0.000000e+00 -3.523559e-02
   endloop
 endfacet
 facet normal  9.396926e-01 -0.000000e+00  3.420201e-01
   outer loop
     vertex  1.210046e-01 -1.587302e-02  1.874902e-02
     vertex  1.306320e-01  0.000000e+00 -7.702058e-03
     vertex  1.210046e-01  0.000000e+00  1.874902e-02
   endloop
 endfacet
 facet normal  9.396926e-01  0.000000e+00  3.420201e-01
   outer loop
     vertex  1.210046e-01 -1.587302e-02  1.874902e-02
     vertex  1.306320e-01 -1.587302e-02 -7.702058e-03
     vertex  1.306320e-01  0.000000e+00 -7.702058e-03
   endloop
 endfacet
 facet normal  8.829476e-01 -0.000000e+00  4.694716e-01
   outer loop
     vertex  1.077896e-01 -1.587302e-02  4.360279e-02
     vertex  1.210046e-01  0.000000e+00  1.874902e-02
     vertex  1.077896e-01  0.000000e+00  4.360279e-02
   endloop
 endfacet
 facet normal  8.829476e-01  0.000000e+00  4.694716e-01
   outer loop
     vertex  1.077896e-01 -1.587302e-02  4.360279e-02
     vertex  1.210046e-01 -1.587302e-02  1.874902e-02
     vertex  1.210046e-01  0.000000e+00  1.874902e-02
   endloop
 endfacet
 facet normal  8.090170e-01 -0.000000e+00  5.877853e-01
   outer loop
     vertex  9.124428e-02 -1.587302e-02  6.637553e-02
     vertex  1.077896e-01  0.000000e+00  4.360279e-02
     vertex  9.124428e-02  0.000000e+00  6.637553e-02
   endloop
 endfacet
 facet normal  8.090170e-01  0.000000e+00  5.877853e-01
   outer loop
     vertex  9.124428e-02 -1.587302e-02  6.637553e-02
     vertex  1.077896e-01 -1.587302e-02  4.360279e-02
     vertex  1.077896e-01  0.000000e+00  4.360279e-02
   endloop
 endfacet
 facet normal  7.193398e-01 -0.000000e+00  6.946584e-01
   outer loop
     vertex  7.169059e-02 -1.587302e-02  8.662397e-02
     vertex  9.124428e-02  0.000000e+00  6.637553e-02
     vertex  7.169059e-02  0.000000e+00  8.662397e-02
   endloop
 endfacet
 facet normal  7.193398e-01  0.000000e+00  6.946584e-01
   outer loop
     vertex  7.169059e-02 -1.587302e-02  8.662397e-02
     vertex  9.124428e-02 -1.587302e-02  6.637553e-02
     vertex  9.124428e-02  0.000000e+00  6.637553e-02
   endloop
 endfacet
 facet normal  6.156615e-01 -0.000000e+00  7.880108e-01
   outer loop
     vertex  4.950915e-02 -1.587302e-02  1.039540e-01
     vertex  7.169059e-02  0.000000e+00  8.662397e-02
     vertex  4.950915e-02  0.000000e+00  1.039540e-01
   endloop
 endfacet
 facet normal  6.156615e-01  0.000000e+00  7.880108e-01
   outer loop
     vertex  4.950915e-02 -1.587302e-02  1.039540e-01
     vertex  7.169059e-02 -1.587302e-02  8.662397e-02
     vertex  7.169059e-02  0.000000e+00  8.662397e-02
   endloop
 endfacet
 facet normal  5.000000e-01 -0.000000e+00  8.660254e-01
   outer loop
     vertex  2.513171e-02 -1.587302e-02  1.180283e-01
     vertex  4.950915e-02  0.000000e+00  1.039540e-01
     vertex  2.513171e-02  0.000000e+00  1.180283e-01
   endloop
 endfacet
 facet normal  5.000000e-01  0.000000e+00  8.660254e-01
   outer loop
     vertex  2.513171e-02 -1.587302e-02  1.180283e-01
     vertex  4.950915e-02 -1.587302e-02  1.039540e-01
     vertex  4.950915e-02  0.000000e+00  1.039540e-01
   endloop
 endfacet
 facet normal  3.746066e-01 -0.000000e+00  9.271839e-01
   outer loop
     vertex -9.672591e-04 -1.587302e-02  1.285730e-01
     vertex  2.513171e-02  0.000000e+00  1.180283e-01
     vertex -9.672591e-04  0.000000e+00  1.285730e-01
   endloop
 endfacet
 facet normal  3.746066e-01  0.000000e+00  9.271839e-01
   outer loop
     vertex -9.672591e-04 -1.587302e-02  1.285730e-01
     vertex  2.513171e-02 -1.587302e-02  1.180283e-01
     vertex  2.513171e-02  0.000000e+00  1.180283e-01
   endloop
 endfacet
 facet normal  2.419219e-01 -0.000000e+00  9.702957e-01
   outer loop
     vertex -2.827977e-02 -1.587302e-02  1.353828e-01
     vertex -9.672591e-04  0.000000e+00  1.285730e-01
     vertex -2.827977e-02  0.000000e+00  1.353828e-01
   endloop
 endfacet
 facet normal  2.419219e-01  0.000000e+00  9.702957e-01
   outer loop
     vertex -2.827977e-02 -1.587302e-02  1.353828e-01
     vertex -9.672591e-04 -1.587302e-02  1.285730e-01
     vertex -9.672591e-04  0.000000e+00  1.285730e-01
   endloop
 endfacet
 facet normal  1.045285e-01 -0.000000e+00  9.945219e-01
   outer loop
     vertex -5.627421e-02 -1.587302e-02  1.383251e-01
     vertex -2.827977e-02  0.000000e+00  1.353828e-01
     vertex -5.627421e-02  0.000000e+00  1.383251e-01
   endloop
 endfacet
 facet normal  1.045285e-01  0.000000e+00  9.945219e-01
   outer loop
     vertex -5.627421e-02 -1.587302e-02  1.383251e-01
     vertex -2.827977e-02 -1.587302e-02  1.353828e-01
     vertex -2.827977e-02  0.000000e+00  1.353828e-01
   endloop
 endfacet
 facet normal -3.489950e-02  0.000000e+00  9.993908e-01
   outer loop
     vertex -8.440571e-02 -1.587302e-02  1.373427e-01
     vertex -5.627421e-02  0.000000e+00  1.383251e-01
     vertex -8.440571e-02  0.000000e+00  1.373427e-01
   endloop
 endfacet
 facet normal -3.489950e-02  0.000000e+00  9.993908e-01
   outer loop
     vertex -8.440571e-02 -1.587302e-02  1.373427e-01
     vertex -5.627421e-02 -1.587302e-02  1.383251e-01
     vertex -5.627421e-02  0.000000e+00  1.383251e-01
   endloop
 endfacet
 facet normal -1.736482e-01  0.000000e+00  9.848078e-01
   outer loop
     vertex -1.121267e-01 -1.587302e-02  1.324548e-01
     vertex -8.440571e-02  0.000000e+00  1.373427e-01
     vertex -1.121267e-01  0.000000e+00  1.324548e-01
   endloop
 endfacet
 facet normal -1.736482e-01  0.000000e+00  9.848078e-01
   outer loop
     vertex -1.121267e-01 -1.587302e-02  1.324548e-01
     vertex -8.440571e-02 -1.587302e-02  1.373427e-01
     vertex -8.440571e-02  0.000000e+00  1.373427e-01
   endloop
 endfacet
 facet normal -3.090170e-01  0.000000e+00  9.510565e-01
   outer loop
     vertex -1.388977e-01 -1.587302e-02  1.237564e-01
     vertex -1.121267e-01  0.000000e+00  1.324548e-01
     vertex -1.388977e-01  0.000000e+00  1.237564e-01
   endloop
 endfacet
 facet normal -3.090170e-01  0.000000e+00  9.510565e-01
   outer loop
     vertex -1.388977e-01 -1.587302e-02  1.237564e-01
     vertex -1.121267e-01 -1.587302e-02  1.324548e-01
     vertex -1.121267e-01  0.000000e+00  1.324548e-01
   endloop
 endfacet
 facet normal -4.383711e-01  0.000000e+00  8.987940e-01
   outer loop
     vertex -1.641975e-01 -1.587302e-02  1.114168e-01
     vertex -1.388977e-01  0.000000e+00  1.237564e-01
     vertex -1.641975e-01  0.000000e+00  1.114168e-01
   endloop
 endfacet
 facet normal -4.383711e-01  0.000000e+00  8.987940e-01
   outer loop
     vertex -1.641975e-01 -1.587302e-02  1.114168e-01
     vertex -1.388977e-01 -1.587302e-02  1.237564e-01
     vertex -1.388977e-01  0.000000e+00  1.237564e-01
   endloop
 endfacet
 facet normal -5.591929e-01  0.000000e+00  8.290376e-01
   outer loop
     vertex -1.875338e-01 -1.587302e-02  9.567628e-02
     vertex -1.641975e-01  0.000000e+00  1.114168e-01
     vertex -1.875338e-01  0.000000e+00  9.567628e-02
   endloop
 endfacet
 facet normal -5.591929e-01  0.000000e+00  8.290376e-01
   outer loop
     vertex -1.875338e-01 -1.587302e-02  9.567628e-02
     vertex -1.641975e-01 -1.587302e-02  1.114168e-01
     vertex -1.641975e-01  0.000000e+00  1.114168e-01
   endloop
 endfacet
 facet normal -6.691306e-01  0.000000e+00  7.431448e-01
   outer loop
     vertex -2.084523e-01 -1.587302e-02  7.684116e-02
     vertex -1.875338e-01  0.000000e+00  9.567628e-02
     vertex -2.084523e-01  0.000000e+00  7.684116e-02
   endloop
 endfacet
 facet normal -6.691306e-01  0.000000e+00  7.431448e-01
   outer loop
     vertex -2.084523e-01 -1.587302e-02  7.684116e-02
     vertex -1.875338e-01 -1.587302e-02  9.567628e-02
     vertex -1.875338e-01  0.000000e+00  9.567628e-02
   endloop
 endfacet
 facet normal -7.660444e-01  0.000000e+00  6.427876e-01
   outer loop
     vertex -2.265459e-01 -1.587302e-02  5.527805e-02
     vertex -2.084523e-01  0.000000e+00  7.684116e-02
     vertex -2.265459e-01  0.000000e+00  5.527805e-02
   endloop
 endfacet
 facet normal -7.660444e-01  0.000000e+00  6.427876e-01
   outer loop
     vertex -2.265459e-01 -1.587302e-02  5.527805e-02
     vertex -2.084523e-01 -1.587302e-02  7.684116e-02
     vertex -2.084523e-01  0.000000e+00  7.684116e-02
   endloop
 endfacet
 facet normal -8.480481e-01  0.000000e+00  5.299193e-01
   outer loop
     vertex -2.414624e-01 -1.587302e-02  3.140664e-02
     vertex -2.265459e-01  0.000000e+00  5.527805e-02
     vertex -2.414624e-01  0.000000e+00  3.140664e-02
   endloop
 endfacet
 facet normal -8.480481e-01  0.000000e+00  5.299193e-01
   outer loop
     vertex -2.414624e-01 -1.587302e-02  3.140664e-02
     vertex -2.265459e-01 -1.587302e-02  5.527805e-02
     vertex -2.265459e-01  0.000000e+00  5.527805e-02
   endloop
 endfacet
 facet normal -9.135455e-01  0.000000e+00  4.067366e-01
   outer loop
     vertex -2.529115e-01 -1.587302e-02  5.691577e-03
     vertex -2.414624e-01  0.000000e+00  3.140664e-02
     vertex -2.529115e-01  0.000000e+00  5.691577e-03
   endloop
 endfacet
 facet normal -9.135455e-01  0.000000e+00  4.067366e-01
   outer loop
     vertex -2.529115e-01 -1.587302e-02  5.691577e-03
     vertex -2.414624e-01 -1.587302e-02  3.140664e-02
     vertex -2.414624e-01  0.000000e+00  3.140664e-02
   endloop
 endfacet
 facet normal -9.612617e-01  0.000000e+00  2.756374e-01
   outer loop
     vertex -2.606703e-01 -1.587302e-02 -2.136664e-02
     vertex -2.529115e-01  0.000000e+00  5.691577e-03
     vertex -2.606703e-01  0.000000e+00 -2.136664e-02
   endloop
 endfacet
 facet normal -9.612617e-01  0.000000e+00  2.756374e-01
   outer loop
     vertex -2.606703e-01 -1.587302e-02 -2.136664e-02
     vertex -2.529115e-01 -1.587302e-02  5.691577e-03
     vertex -2.529115e-01  0.000000e+00  5.691577e-03
   endloop
 endfacet
 facet normal -9.902681e-01  0.000000e+00  1.391731e-01
   outer loop
     vertex -2.645879e-01 -1.587302e-02 -4.924134e-02
     vertex -2.606703e-01  0.000000e+00 -2.136664e-02
     vertex -2.645879e-01  0.000000e+00 -4.924134e-02
   endloop
 endfacet
 facet normal -9.902681e-01  0.000000e+00  1.391731e-01
   outer loop
     vertex -2.645879e-01 -1.587302e-02 -4.924134e-02
     vertex -2.606703e-01 -1.587302e-02 -2.136664e-02
     vertex -2.606703e-01  0.000000e+00 -2.136664e-02
   endloop
 endfacet
 facet normal -1.000000e+00  0.000000e+00  0.000000e+00
   outer loop
     vertex -2.645879e-01 -1.587302e-02 -7.738999e-02
     vertex -2.645879e-01  0.000000e+00 -4.924134e-02
     vertex -2.645879e-01  0.000000e+00 -7.738999e-02
   endloop
 endfacet
 facet normal -1.000000e+00  0.000000e+00  0.000000e+00
   outer loop
     vertex -2.645879e-01 -1.587302e-02 -7.738999e-02
     vertex -2.645879e-01 -1.587302e-02 -4.924134e-02
     vertex -2.645879e-01  0.000000e+00 -4.924134e-02
   endloop
 endfacet
 facet normal -9.902681e-01  0.000000e+00 -1.391731e-01
   outer loop
     vertex -2.606703e-01 -1.587302e-02 -1.052647e-01
     vertex -2.645879e-01  0.000000e+00 -7.738999e-02
     vertex -2.606703e-01  0.000000e+00 -1.052647e-01
   endloop
 endfacet
 facet normal -9.902681e-01  0.000000e+00 -1.391731e-01
   outer loop
     vertex -2.606703e-01 -1.587302e-02 -1.052647e-01
     vertex -2.645879e-01 -1.587302e-02 -7.738999e-02
     vertex -2.645879e-01  0.000000e+00 -7.738999e-02
   endloop
 endfacet
 facet normal -9.612617e-01  0.000000e+00 -2.756374e-01
   outer loop
     vertex -2.529115e-01 -1.587302e-02 -1.323229e-01
     vertex -2.606703e-01  0.000000e+00 -1.052647e-01
     vertex -2.529115e-01  0.000000e+00 -1.323229e-01
   endloop
 endfacet
 facet normal -9.612617e-01  0.000000e+00 -2.756374e-01
   outer loop
     vertex -2.529115e-01 -1.587302e-02 -1.323229e-01
     vertex -2.606703e-01 -1.587302e-02 -1.052647e-01
     vertex -2.606703e-01  0.000000e+00 -1.052647e-01
   endloop
 endfacet
 facet normal -9.135455e-01  0.000000e+00 -4.067366e-01
   outer loop
     vertex -2.414624e-01 -1.587302e-02 -1.580380e-01
     vertex -2.529115e-01  0.000000e+00 -1.323229e-01
     vertex -2.414624e-01  0.000000e+00 -1.580380e-01
   endloop
 endfacet
 facet normal -9.135455e-01  0.000000e+00 -4.067366e-01
   outer loop
     vertex -2.414624e-01 -1.587302e-02 -1.580380e-01
     vertex -2.529115e-01 -1.587302e-02 -1.323229e-01
     vertex -2.529115e-01  0.000000e+00 -1.323229e-01
   endloop
 endfacet
 facet normal -8.480481e-01  0.000000e+00 -5.299193e-01
   outer loop
     vertex -2.265459e-01 -1.587302e-02 -1.819094e-01
     vertex -2.414624e-01 -1.587302e-02 -1.580380e-01
     vertex -2.414624e-01  0.000000e+00 -1.580380e-01
   endloop
 endfacet
 facet normal -8.480481e-01  0.000000e+00 -5.299193e-01
   outer loop
     vertex -2.265459e-01 -1.587302e-02 -1.819094e-01
     vertex -2.414624e-01  0.000000e+00 -1.580380e-01
     vertex -2.265459e-01  0.000000e+00 -1.819094e-01
   endloop
 endfacet
 facet normal -7.660444e-01  0.000000e+00 -6.427876e-01
   outer loop
     vertex -2.084523e-01 -1.587302e-02 -2.034725e-01
     vertex -2.265459e-01 -1.587302e-02 -1.819094e-01
     vertex -2.265459e-01  0.000000e+00 -1.819094e-01
   endloop
 endfacet
 facet normal -7.660444e-01  0.000000e+00 -6.427876e-01
   outer loop
     vertex -2.084523e-01 -1.587302e-02 -2.034725e-01
     vertex -2.265459e-01  0.000000e+00 -1.819094e-01
     vertex -2.084523e-01  0.000000e+00 -2.034725e-01
   endloop
 endfacet
 facet normal -6.691306e-01  0.000000e+00 -7.431448e-01
   outer loop
     vertex -1.875338e-01 -1.587302e-02 -2.223076e-01
     vertex -2.084523e-01 -1.587302e-02 -2.034725e-01
     vertex -2.084523e-01  0.000000e+00 -2.034725e-01
   endloop
 endfacet
 facet normal -6.691306e-01  0.000000e+00 -7.431448e-01
   outer loop
     vertex -1.875338e-01 -1.587302e-02 -2.223076e-01
     vertex -2.084523e-01  0.000000e+00 -2.034725e-01
     vertex -1.875338e-01  0.000000e+00 -2.223076e-01
   endloop
 endfacet
 facet normal -5.591929e-01  0.000000e+00 -8.290376e-01
   outer loop
     vertex -1.641975e-01 -1.587302e-02 -2.380481e-01
     vertex -1.875338e-01 -1.587302e-02 -2.223076e-01
     vertex -1.875338e-01  0.000000e+00 -2.223076e-01
   endloop
 endfacet
 facet normal -5.591929e-01  0.000000e+00 -8.290376e-01
   outer loop
     vertex -1.641975e-01 -1.587302e-02 -2.380481e-01
     vertex -1.875338e-01  0.000000e+00 -2.223076e-01
     vertex -1.641975e-01  0.000000e+00 -2.380481e-01
   endloop
 endfacet
 facet normal -4.383711e-01  0.000000e+00 -8.987940e-01
   outer loop
     vertex -1.388977e-01 -1.587302e-02 -2.503877e-01
     vertex -1.641975e-01 -1.587302e-02 -2.380481e-01
     vertex -1.641975e-01  0.000000e+00 -2.380481e-01
   endloop
 endfacet
 facet normal -4.383711e-01  0.000000e+00 -8.987940e-01
   outer loop
     vertex -1.388977e-01 -1.587302e-02 -2.503877e-01
     vertex -1.641975e-01  0.000000e+00 -2.380481e-01
     vertex -1.388977e-01  0.000000e+00 -2.503877e-01
   endloop
 endfacet
 facet normal -3.090170e-01  0.000000e+00 -9.510565e-01
   outer loop
     vertex -1.121267e-01 -1.587302e-02 -2.590861e-01
     vertex -1.388977e-01 -1.587302e-02 -2.503877e-01
     vertex -1.388977e-01  0.000000e+00 -2.503877e-01
   endloop
 endfacet
 facet normal -3.090170e-01  0.000000e+00 -9.510565e-01
   outer loop
     vertex -1.121267e-01 -1.587302e-02 -2.590861e-01
     vertex -1.388977e-01  0.000000e+00 -2.503877e-01
     vertex -1.121267e-01  0.000000e+00 -2.590861e-01
   endloop
 endfacet
 facet normal -1.736482e-01  0.000000e+00 -9.848078e-01
   outer loop
     vertex -8.440571e-02 -1.587302e-02 -2.639741e-01
     vertex -1.121267e-01 -1.587302e-02 -2.590861e-01
     vertex -1.121267e-01  0.000000e+00 -2.590861e-01
   endloop
 endfacet
 facet normal -1.736482e-01  0.000000e+00 -9.848078e-01
   outer loop
     vertex -8.440571e-02 -1.587302e-02 -2.639741e-01
     vertex -1.121267e-01  0.000000e+00 -2.590861e-01
     vertex -8.440571e-02  0.000000e+00 -2.639741e-01
   endloop
 endfacet
 facet normal -3.489950e-02  0.000000e+00 -9.993908e-01
   outer loop
     vertex -5.627421e-02 -1.587302e-02 -2.649564e-01
     vertex -8.440571e-02 -1.587302e-02 -2.639741e-01
     vertex -8.440571e-02  0.000000e+00 -2.639741e-01
   endloop
 endfacet
 facet normal -3.489950e-02  0.000000e+00 -9.993908e-01
   outer loop
     vertex -5.627421e-02 -1.587302e-02 -2.649564e-01
     vertex -8.440571e-02  0.000000e+00 -2.639741e-01
     vertex -5.627421e-02  0.000000e+00 -2.649564e-01
   endloop
 endfacet
 facet normal  1.045285e-01  0.000000e+00 -9.945219e-01
   outer loop
     vertex -2.827977e-02 -1.587302e-02 -2.620141e-01
     vertex -5.627421e-02  0.000000e+00 -2.649564e-01
     vertex -2.827977e-02  0.000000e+00 -2.620141e-01
   endloop
 endfacet
 facet normal  1.045285e-01  0.000000e+00 -9.945219e-01
   outer loop
     vertex -2.827977e-02 -1.587302e-02 -2.620141e-01
     vertex -5.627421e-02 -1.587302e-02 -2.649564e-01
     vertex -5.627421e-02  0.000000e+00 -2.649564e-01
   endloop
 endfacet
 facet normal  2.419219e-01  0.000000e+00 -9.702957e-01
   outer loop
     vertex -9.672591e-04 -1.587302e-02 -2.552043e-01
     vertex -2.827977e-02 -1.587302e-02 -2.620141e-01
     vertex -2.827977e-02  0.000000e+00 -2.620141e-01
   endloop
 endfacet
 facet normal  2.419219e-01  0.000000e+00 -9.702957e-01
   outer loop
     vertex -9.672591e-04 -1.587302e-02 -2.552043e-01
     vertex -2.827977e-02  0.000000e+00 -2.620141e-01
     vertex -9.672591e-04  0.000000e+00 -2.552043e-01
   endloop
 endfacet
 facet normal  3.746066e-01  0.000000e+00 -9.271839e-01
   outer loop
     vertex  2.513171e-02 -1.587302e-02 -2.446597e-01
     vertex -9.672591e-04  0.000000e+00 -2.552043e-01
     vertex  2.513171e-02  0.000000e+00 -2.446597e-01
   endloop
 endfacet
 facet normal  3.746066e-01  0.000000e+00 -9.271839e-01
   outer loop
     vertex  2.513171e-02 -1.587302e-02 -2.446597e-01
     vertex -9.672591e-04 -1.587302e-02 -2.552043e-01
     vertex -9.672591e-04  0.000000e+00 -2.552043e-01
   endloop
 endfacet
 facet normal  5.000000e-01  0.000000e+00 -8.660254e-01
   outer loop
     vertex  4.950915e-02 -1.587302e-02 -2.305853e-01
     vertex  2.513171e-02  0.000000e+00 -2.446597e-01
     vertex  4.950915e-02  0.000000e+00 -2.305853e-01
   endloop
 endfacet
 facet normal  5.000000e-01  0.000000e+00 -8.660254e-01
   outer loop
     vertex  4.950915e-02 -1.587302e-02 -2.305853e-01
     vertex  2.513171e-02 -1.587302e-02 -2.446597e-01
     vertex  2.513171e-02  0.000000e+00 -2.446597e-01
   endloop
 endfacet
 facet normal  6.156615e-01  0.000000e+00 -7.880108e-01
   outer loop
     vertex  7.169059e-02 -1.587302e-02 -2.132553e-01
     vertex  4.950915e-02  0.000000e+00 -2.305853e-01
     vertex  7.169059e-02  0.000000e+00 -2.132553e-01
   endloop
 endfacet
 facet normal  6.156615e-01  0.000000e+00 -7.880108e-01
   outer loop
     vertex  7.169059e-02 -1.587302e-02 -2.132553e-01
     vertex  4.950915e-02 -1.587302e-02 -2.305853e-01
     vertex  4.950915e-02  0.000000e+00 -2.305853e-01
   endloop
 endfacet
 facet normal  7.193398e-01  0.000000e+00 -6.946584e-01
   outer loop
     vertex  9.124428e-02 -1.587302e-02 -1.930069e-01
     vertex  7.169059e-02  0.000000e+00 -2.132553e-01
     vertex  9.124428e-02  0.000000e+00 -1.930069e-01
   endloop
 endfacet
 facet normal  7.193398e-01  0.000000e+00 -6.946584e-01
   outer loop
     vertex  9.124428e-02 -1.587302e-02 -1.930069e-01
     vertex  7.169059e-02 -1.587302e-02 -2.132553e-01
     vertex  7.169059e-02  0.000000e+00 -2.132553e-01
   endloop
 endfacet
 facet normal  8.090170e-01  0.000000e+00 -5.877853e-01
   outer loop
     vertex  1.077896e-01 -1.587302e-02 -1.702341e-01
     vertex  9.124428e-02  0.000000e+00 -1.930069e-01
     vertex  1.077896e-01  0.000000e+00 -1.702341e-01
   endloop
 endfacet
 facet normal  8.090170e-01  0.000000e+00 -5.877853e-01
   outer loop
     vertex  1.077896e-01 -1.587302e-02 -1.702341e-01
     vertex  9.124428e-02 -1.587302e-02 -1.930069e-01
     vertex  9.124428e-02  0.000000e+00 -1.930069e-01
   endloop
 endfacet
 facet normal  8.829476e-01  0.000000e+00 -4.694716e-01
   outer loop
     vertex  1.210046e-01 -1.587302e-02 -1.453803e-01
     vertex  1.077896e-01  0.000000e+00 -1.702341e-01
     vertex  1.210046e-01  0.000000e+00 -1.453803e-01
   endloop
 endfacet
 facet normal  8.829476e-01  0.000000e+00 -4.694716e-01
   outer loop
     vertex  1.210046e-01 -1.587302e-02 -1.453803e-01
     vertex  1.077896e-01 -1.587302e-02 -1.702341e-01
     vertex  1.077896e-01  0.000000e+00 -1.702341e-01
   endloop
 endfacet
 facet normal  9.396926e-01  0.000000e+00 -3.420201e-01
   outer loop
     vertex  1.306320e-01 -1.587302e-02 -1.189293e-01
     vertex  1.210046e-01  0.000000e+00 -1.453803e-01
     vertex  1.306320e-01  0.000000e+00 -1.189293e-01
   endloop
 endfacet
 facet normal  9.396926e-01  0.000000e+00 -3.420201e-01
   outer loop
     vertex  1.306320e-01 -1.587302e-02 -1.189293e-01
     vertex  1.210046e-01 -1.587302e-02 -1.453803e-01
     vertex  1.210046e-01  0.000000e+00 -1.453803e-01
   endloop
 endfacet
 facet normal  9.781476e-01  0.000000e+00 -2.079117e-01
   outer loop
     vertex  1.364845e-01 -1.587302e-02 -9.139574e-02
     vertex  1.306320e-01  0.000000e+00 -1.189293e-01
     vertex  1.364845e-01  0.000000e+00 -9.139574e-02
   endloop
 endfacet
 facet normal  9.781476e-01  0.000000e+00 -2.079117e-01
   outer loop
     vertex  1.364845e-01 -1.587302e-02 -9.139574e-02
     vertex  1.306320e-01 -1.587302e-02 -1.189293e-01
     vertex  1.306320e-01  0.000000e+00 -1.189293e-01
   endloop
 endfacet
 facet normal  9.975641e-01  0.000000e+00 -6.975647e-02
   outer loop
     vertex  1.384480e-01 -1.587302e-02 -6.331566e-02
     vertex  1.364845e-01  0.000000e+00 -9.139574e-02
     vertex  1.384480e-01  0.000000e+00 -6.331566e-02
   endloop
 endfacet
 facet normal  9.975641e-01  0.000000e+00 -6.975647e-02
   outer loop
     vertex  1.384480e-01 -1.587302e-02 -6.331566e-02
     vertex  1.364845e-01 -1.587302e-02 -9.139574e-02
     vertex  1.364845e-01  0.000000e+00 -9.139574e-02
   endloop
 endfacet
 facet normal  0.000000e+00 -1.000000e+00  0.000000e+00
   outer loop
     vertex  2.066034e-02 -3.174603e-02 -2.330281e-01
     vertex  4.642874e-02 -3.174603e-02 -2.326223e-01
     vertex  6.659756e-02 -3.174603e-02 -2.176890e-01
   endloop
 endfacet
 facet normal  0.000000e+00 -1.000000e+00  0.000000e+00
   outer loop
     vertex -4.875546e-03 -3.174603e-02 -2.295505e-01
     vertex  6.659756e-02 -3.174603e-02 -2.176890e-01
     vertex  8.475655e-02 -3.174603e-02 -2.003675e-01
   endloop
 endfacet
 facet normal  0.000000e+00 -1.000000e+00  0.000000e+00
   outer loop
     vertex -4.875546e-03 -3.174603e-02 -2.295505e-01
     vertex  2.066034e-02 -3.174603e-02 -2.330281e-01
     vertex  6.659756e-02 -3.174603e-02 -2.176890e-01
   endloop
 endfacet
 facet normal  0.000000e+00 -1.000000e+00  0.000000e+00
   outer loop
     vertex -2.959701e-02 -3.174603e-02 -2.222687e-01
     vertex  8.475655e-02 -3.174603e-02 -2.003675e-01
     vertex  1.006248e-01 -3.174603e-02 -1.809257e-01
   endloop
 endfacet
 facet normal  0.000000e+00 -1.000000e+00  0.000000e+00
   outer loop
     vertex -2.959701e-02 -3.174603e-02 -2.222687e-01
     vertex -4.875546e-03 -3.174603e-02 -2.295505e-01
     vertex  8.475655e-02 -3.174603e-02 -2.003675e-01
   endloop
 endfacet
 facet normal  0.000000e+00 -1.000000e+00  0.000000e+00
   outer loop
     vertex -5.294071e-02 -3.174603e-02 -2.113486e-01
     vertex  1.006248e-01 -3.174603e-02 -1.809257e-01
     vertex  1.139567e-01 -3.174603e-02 -1.596644e-01
   endloop
 endfacet
 facet normal  0.000000e+00 -1.000000e+00  0.000000e+00
   outer loop
     vertex -5.294071e-02 -3.174603e-02 -2.113486e-01
     vertex -2.959701e-02 -3.174603e-02 -2.222687e-01
     vertex  1.006248e-01 -3.174603e-02 -1.809257e-01
   endloop
 endfacet
 facet normal  0.000000e+00 -1.000000e+00  0.000000e+00
   outer loop
     vertex -7.437470e-02 -3.174603e-02 -1.970392e-01
     vertex  1.139567e-01 -3.174603e-02 -1.596644e-01
     vertex  1.245462e-01 -3.174603e-02 -1.369125e-01
   endloop
 endfacet
 facet normal  0.000000e+00 -1.000000e+00  0.000000e+00
   outer loop
     vertex -7.437470e-02 -3.174603e-02 -1.970392e-01
     vertex -5.294071e-02 -3.174603e-02 -2.113486e-01
     vertex  1.139567e-01 -3.174603e-02 -1.596644e-01
   endloop
 endfacet
 facet normal  0.000000e+00 -1.000000e+00  0.000000e+00
   outer loop
     vertex -9.341055e-02 -3.174603e-02 -1.796665e-01
     vertex -7.437470e-02 -3.174603e-02 -1.970392e-01
     vertex  1.245462e-01 -3.174603e-02 -1.369125e-01
   endloop
 endfacet
 facet normal  0.000000e+00 -1.000000e+00  0.000000e+00
   outer loop
     vertex -1.096145e-01 -3.174603e-02 -1.596263e-01
     vertex  1.245462e-01 -3.174603e-02 -1.369125e-01
     vertex  1.322294e-01 -3.174603e-02 -1.130220e-01
   endloop
 endfacet
 facet normal  0.000000e+00 -1.000000e+00  0.000000e+00
   outer loop
     vertex -1.096145e-01 -3.174603e-02 -1.596263e-01
     vertex -9.341055e-02 -3.174603e-02 -1.796665e-01
     vertex  1.245462e-01 -3.174603e-02 -1.369125e-01
   endloop
 endfacet
 facet normal  0.000000e+00 -1.000000e+00  0.000000e+00
   outer loop
     vertex -1.226172e-01 -3.174603e-02 -1.373754e-01
     vertex  1.322294e-01 -3.174603e-02 -1.130220e-01
     vertex  1.368873e-01 -3.174603e-02 -8.836260e-02
   endloop
 endfacet
 facet normal  0.000000e+00 -1.000000e+00  0.000000e+00
   outer loop
     vertex -1.226172e-01 -3.174603e-02 -1.373754e-01
     vertex -1.096145e-01 -3.174603e-02 -1.596263e-01
     vertex  1.322294e-01 -3.174603e-02 -1.130220e-01
   endloop
 endfacet
 facet normal  0.000000e+00 -1.000000e+00  0.000000e+00
   outer loop
     vertex -1.321225e-01 -3.174603e-02 -1.134208e-01
     vertex -1.226172e-01 -3.174603e-02 -1.373754e-01
     vertex  1.368873e-01 -3.174603e-02 -8.836260e-02
   endloop
 endfacet
 facet normal  0.000000e+00 -1.000000e+00  0.000000e+00
   outer loop
     vertex -1.379138e-01 -3.174603e-02 -8.830828e-02
     vertex  1.368873e-01 -3.174603e-02 -8.836260e-02
     vertex  1.384480e-01 -3.174603e-02 -6.331566e-02
   endloop
 endfacet
 facet normal  0.000000e+00 -1.000000e+00  0.000000e+00
   outer loop
     vertex -1.379138e-01 -3.174603e-02 -8.830828e-02
     vertex -1.321225e-01 -3.174603e-02 -1.134208e-01
     vertex  1.368873e-01 -3.174603e-02 -8.836260e-02
   endloop
 endfacet
 facet normal  0.000000e+00 -1.000000e+00  0.000000e+00
   outer loop
     vertex -1.398589e-01 -3.174603e-02 -6.261020e-02
     vertex -1.379138e-01 -3.174603e-02 -8.830828e-02
     vertex  1.384480e-01 -3.174603e-02 -6.331566e-02
   endloop
 endfacet
 facet normal  0.000000e+00 -1.000000e+00  0.000000e+00
   outer loop
     vertex  1.834042e-02 -3.174603e-02  1.076529e-01
     vertex  6.456287e-02 -3.174603e-02  9.274734e-02
     vertex  4.388014e-02 -3.174603e-02  1.076160e-01
   endloop
 endfacet
 facet normal  0.000000e+00 -1.000000e+00  0.000000e+00
   outer loop
     vertex -1.379486e-01 -3.174603e-02 -3.714199e-02
     vertex  1.384480e-01 -3.174603e-02 -6.331566e-02
     vertex  1.368401e-01 -3.174603e-02 -3.789387e-02
   endloop
 endfacet
 facet normal  0.000000e+00 -1.000000e+00 -0.000000e+00
   outer loop
     vertex -1.379486e-01 -3.174603e-02 -3.714199e-02
     vertex -1.398589e-01 -3.174603e-02 -6.261020e-02
     vertex  1.384480e-01 -3.174603e-02 -6.331566e-02
   endloop
 endfacet
 facet normal  0.000000e+00 -1.000000e+00  0.000000e+00
   outer loop
     vertex -6.919028e-03 -3.174603e-02  1.038795e-01
     vertex  8.320735e-02 -3.174603e-02  7.539117e-02
     vertex  6.456287e-02 -3.174603e-02  9.274734e-02
   endloop
 endfacet
 facet normal  0.000000e+00 -1.000000e+00  0.000000e+00
   outer loop
     vertex -6.919028e-03 -3.174603e-02  1.038795e-01
     vertex  6.456287e-02 -3.174603e-02  9.274734e-02
     vertex  1.834042e-02 -3.174603e-02  1.076529e-01
   endloop
 endfacet
 facet normal  0.000000e+00 -1.000000e+00  0.000000e+00
   outer loop
     vertex -1.322603e-01 -3.174603e-02 -1.224376e-02
     vertex  1.368401e-01 -3.174603e-02 -3.789387e-02
     vertex  1.320418e-01 -3.174603e-02 -1.287727e-02
   endloop
 endfacet
 facet normal  0.000000e+00 -1.000000e+00 -0.000000e+00
   outer loop
     vertex -1.322603e-01 -3.174603e-02 -1.224376e-02
     vertex -1.379486e-01 -3.174603e-02 -3.714199e-02
     vertex  1.368401e-01 -3.174603e-02 -3.789387e-02
   endloop
 endfacet
 facet normal  0.000000e+00 -1.000000e+00  0.000000e+00
   outer loop
     vertex -3.133291e-02 -3.174603e-02  9.638007e-02
     vertex  9.951640e-02 -3.174603e-02  5.582416e-02
     vertex  8.320735e-02 -3.174603e-02  7.539117e-02
   endloop
 endfacet
 facet normal  0.000000e+00 -1.000000e+00  0.000000e+00
   outer loop
     vertex -3.133291e-02 -3.174603e-02  9.638007e-02
     vertex  8.320735e-02 -3.174603e-02  7.539117e-02
     vertex -6.919028e-03 -3.174603e-02  1.038795e-01
   endloop
 endfacet
 facet normal  0.000000e+00 -1.000000e+00 -0.000000e+00
   outer loop
     vertex -1.229214e-01 -3.174603e-02  1.152731e-02
     vertex -1.322603e-01 -3.174603e-02 -1.224376e-02
     vertex  1.320418e-01 -3.174603e-02 -1.287727e-02
   endloop
 endfacet
 facet normal  0.000000e+00 -1.000000e+00  0.000000e+00
   outer loop
     vertex -5.435486e-02 -3.174603e-02  8.532255e-02
     vertex  9.951640e-02 -3.174603e-02  5.582416e-02
     vertex -3.133291e-02 -3.174603e-02  9.638007e-02
   endloop
 endfacet
 facet normal  0.000000e+00 -1.000000e+00  0.000000e+00
   outer loop
     vertex -5.435486e-02 -3.174603e-02  8.532255e-02
     vertex  1.132301e-01 -3.174603e-02  3.435818e-02
     vertex  9.951640e-02 -3.174603e-02  5.582416e-02
   endloop
 endfacet
 facet normal  0.000000e+00 -1.000000e+00 -0.000000e+00
   outer loop
     vertex -1.101409e-01 -3.174603e-02  3.363922e-02
     vertex -1.229214e-01 -3.174603e-02  1.152731e-02
     vertex  1.320418e-01 -3.174603e-02 -1.287727e-02
   endloop
 endfacet
 facet normal  0.000000e+00 -1.000000e+00  0.000000e+00
   outer loop
     vertex -1.101409e-01 -3.174603e-02  3.363922e-02
     vertex  1.320418e-01 -3.174603e-02 -1.287727e-02
     vertex  1.241298e-01 -3.174603e-02  1.133539e-02
   endloop
 endfacet
 facet normal  0.000000e+00 -1.000000e+00  0.000000e+00
   outer loop
     vertex -7.546965e-02 -3.174603e-02  7.095439e-02
     vertex  1.132301e-01 -3.174603e-02  3.435818e-02
     vertex -5.435486e-02 -3.174603e-02  8.532255e-02
   endloop
 endfacet
 facet normal  0.000000e+00 -1.000000e+00 -0.000000e+00
   outer loop
     vertex -9.420476e-02 -3.174603e-02  5.359713e-02
     vertex -1.101409e-01 -3.174603e-02  3.363922e-02
     vertex  1.241298e-01 -3.174603e-02  1.133539e-02
   endloop
 endfacet
 facet normal  0.000000e+00 -1.000000e+00  0.000000e+00
   outer loop
     vertex -9.420476e-02 -3.174603e-02  5.359713e-02
     vertex  1.132301e-01 -3.174603e-02  3.435818e-02
     vertex -7.546965e-02 -3.174603e-02  7.095439e-02
   endloop
 endfacet
 facet normal  0.000000e+00 -1.000000e+00  0.000000e+00
   outer loop
     vertex -9.420476e-02 -3.174603e-02  5.359713e-02
     vertex  1.241298e-01 -3.174603e-02  1.133539e-02
     vertex  1.132301e-01 -3.174603e-02  3.435818e-02
   endloop
 endfacet
 facet normal -1.574504e-02 -1.266910e-16  9.998760e-01
   outer loop
     vertex  2.066034e-02 -3.174603e-02 -2.330281e-01
     vertex  4.642874e-02 -8.888889e-01 -2.326223e-01
     vertex  4.642874e-02 -3.174603e-02 -2.326223e-01
   endloop
 endfacet
 facet normal -1.574504e-02  2.804164e-18  9.998760e-01
   outer loop
     vertex  2.066034e-02 -3.174603e-02 -2.330281e-01
     vertex  2.066034e-02 -8.888889e-01 -2.330281e-01
     vertex  4.642874e-02 -8.888889e-01 -2.326223e-01
   endloop
 endfacet
 facet normal  1.349406e-01  4.123037e-17  9.908537e-01
   outer loop
     vertex -4.875546e-03 -3.174603e-02 -2.295505e-01
     vertex -4.875546e-03 -8.888889e-01 -2.295505e-01
     vertex  2.066034e-02 -8.888889e-01 -2.330281e-01
   endloop
 endfacet
 facet normal  1.349406e-01 -2.454063e-17  9.908537e-01
   outer loop
     vertex -4.875546e-03 -3.174603e-02 -2.295505e-01
     vertex  2.066034e-02 -8.888889e-01 -2.330281e-01
     vertex  2.066034e-02 -3.174603e-02 -2.330281e-01
   endloop
 endfacet
 facet normal  2.825513e-01  1.637687e-17  9.592522e-01
   outer loop
     vertex -2.959701e-02 -3.174603e-02 -2.222687e-01
     vertex -2.959701e-02 -8.888889e-01 -2.222687e-01
     vertex -4.875546e-03 -8.888889e-01 -2.295505e-01
   endloop
 endfacet
 facet normal  2.825513e-01  1.349735e-17  9.592522e-01
   outer loop
     vertex -2.959701e-02 -3.174603e-02 -2.222687e-01
     vertex -4.875546e-03 -8.888889e-01 -2.295505e-01
     vertex -4.875546e-03 -3.174603e-02 -2.295505e-01
   endloop
 endfacet
 facet normal  4.237234e-01  1.938868e-17  9.057916e-01
   outer loop
     vertex -5.294071e-02 -3.174603e-02 -2.113486e-01
     vertex -5.294071e-02 -8.888889e-01 -2.113486e-01
     vertex -2.959701e-02 -8.888889e-01 -2.222687e-01
   endloop
 endfacet
 facet normal  4.237234e-01 -9.816251e-18  9.057916e-01
   outer loop
     vertex -5.294071e-02 -3.174603e-02 -2.113486e-01
     vertex -2.959701e-02 -8.888889e-01 -2.222687e-01
     vertex -2.959701e-02 -3.174603e-02 -2.222687e-01
   endloop
 endfacet
 facet normal  5.552398e-01 -1.805523e-17  8.316903e-01
   outer loop
     vertex -7.437470e-02 -3.174603e-02 -1.970392e-01
     vertex -7.437470e-02 -8.888889e-01 -1.970392e-01
     vertex -5.294071e-02 -8.888889e-01 -2.113486e-01
   endloop
 endfacet
 facet normal  5.552398e-01 -9.816251e-18  8.316903e-01
   outer loop
     vertex -7.437470e-02 -3.174603e-02 -1.970392e-01
     vertex -5.294071e-02 -8.888889e-01 -2.113486e-01
     vertex -5.294071e-02 -3.174603e-02 -2.113486e-01
   endloop
 endfacet
 facet normal  6.741036e-01  8.358717e-18  7.386368e-01
   outer loop
     vertex -9.341055e-02 -3.174603e-02 -1.796665e-01
     vertex -9.341055e-02 -8.888889e-01 -1.796665e-01
     vertex -7.437470e-02 -8.888889e-01 -1.970392e-01
   endloop
 endfacet
 facet normal  6.741036e-01 -3.926501e-17  7.386368e-01
   outer loop
     vertex -9.341055e-02 -3.174603e-02 -1.796665e-01
     vertex -7.437470e-02 -8.888889e-01 -1.970392e-01
     vertex -7.437470e-02 -3.174603e-02 -1.970392e-01
   endloop
 endfacet
 facet normal  7.776063e-01  2.625941e-17  6.287515e-01
   outer loop
     vertex -1.096145e-01 -3.174603e-02 -1.596263e-01
     vertex -1.096145e-01 -8.888889e-01 -1.596263e-01
     vertex -9.341055e-02 -8.888889e-01 -1.796665e-01
   endloop
 endfacet
 facet normal  7.776063e-01 -1.963250e-17  6.287515e-01
   outer loop
     vertex -1.096145e-01 -3.174603e-02 -1.596263e-01
     vertex -9.341055e-02 -8.888889e-01 -1.796665e-01
     vertex -9.341055e-02 -3.174603e-02 -1.796665e-01
   endloop
 endfacet
 facet normal  8.633892e-01 -2.184949e-18  5.045385e-01
   outer loop
     vertex -1.226172e-01 -3.174603e-02 -1.373754e-01
     vertex -1.226172e-01 -8.888889e-01 -1.373754e-01
     vertex -1.096145e-01 -8.888889e-01 -1.596263e-01
   endloop
 endfacet
 facet normal  9.294976e-01 -3.057952e-17  3.688283e-01
   outer loop
     vertex -1.226172e-01 -3.174603e-02 -1.373754e-01
     vertex -1.321225e-01 -8.888889e-01 -1.134208e-01
     vertex -1.226172e-01 -8.888889e-01 -1.373754e-01
   endloop
 endfacet
 facet normal  8.633892e-01 -2.454063e-18  5.045385e-01
   outer loop
     vertex -1.226172e-01 -3.174603e-02 -1.373754e-01
     vertex -1.096145e-01 -8.888889e-01 -1.596263e-01
     vertex -1.096145e-01 -3.174603e-02 -1.596263e-01
   endloop
 endfacet
 facet normal  9.294976e-01  2.961754e-17  3.688283e-01
   outer loop
     vertex -1.321225e-01 -3.174603e-02 -1.134208e-01
     vertex -1.321225e-01 -8.888889e-01 -1.134208e-01
     vertex -1.226172e-01 -3.174603e-02 -1.373754e-01
   endloop
 endfacet
 facet normal  9.744249e-01  8.467716e-18  2.247134e-01
   outer loop
     vertex -1.379138e-01 -3.174603e-02 -8.830828e-02
     vertex -1.379138e-01 -8.888889e-01 -8.830828e-02
     vertex -1.321225e-01 -8.888889e-01 -1.134208e-01
   endloop
 endfacet
 facet normal  9.744249e-01  4.908126e-18  2.247134e-01
   outer loop
     vertex -1.379138e-01 -3.174603e-02 -8.830828e-02
     vertex -1.321225e-01 -8.888889e-01 -1.134208e-01
     vertex -1.321225e-01 -3.174603e-02 -1.134208e-01
   endloop
 endfacet
 facet normal  9.971475e-01  0.000000e+00  7.547777e-02
   outer loop
     vertex -1.398589e-01 -3.174603e-02 -6.261020e-02
     vertex -1.398589e-01 -8.888889e-01 -6.261020e-02
     vertex -1.379138e-01 -8.888889e-01 -8.830828e-02
   endloop
 endfacet
 facet normal  9.971475e-01 -1.901899e-17  7.547777e-02
   outer loop
     vertex -1.398589e-01 -3.174603e-02 -6.261020e-02
     vertex -1.379138e-01 -8.888889e-01 -8.830828e-02
     vertex -1.379138e-01 -3.174603e-02 -8.830828e-02
   endloop
 endfacet
 facet normal  0.000000e+00 -1.000000e+00  0.000000e+00
   outer loop
     vertex -9.341055e-02 -8.888889e-01 -1.796665e-01
     vertex -1.650683e-01 -8.888889e-01 -2.375425e-01
     vertex -1.401409e-01 -8.888889e-01 -2.498806e-01
   endloop
 endfacet
 facet normal  0.000000e+00 -1.000000e+00  0.000000e+00
   outer loop
     vertex -9.341055e-02 -8.888889e-01 -1.796665e-01
     vertex -1.401409e-01 -8.888889e-01 -2.498806e-01
     vertex -1.137536e-01 -8.888889e-01 -2.586733e-01
   endloop
 endfacet
 facet normal  0.000000e+00 -1.000000e+00  0.000000e+00
   outer loop
     vertex -7.437470e-02 -8.888889e-01 -1.970392e-01
     vertex -1.137536e-01 -8.888889e-01 -2.586733e-01
     vertex -8.640782e-02 -8.888889e-01 -2.637535e-01
   endloop
 endfacet
 facet normal -0.000000e+00 -1.000000e+00  0.000000e+00
   outer loop
     vertex -7.437470e-02 -8.888889e-01 -1.970392e-01
     vertex -9.341055e-02 -8.888889e-01 -1.796665e-01
     vertex -1.137536e-01 -8.888889e-01 -2.586733e-01
   endloop
 endfacet
 facet normal  0.000000e+00 -1.000000e+00  0.000000e+00
   outer loop
     vertex -1.096145e-01 -8.888889e-01 -1.596263e-01
     vertex -1.880620e-01 -8.888889e-01 -2.218935e-01
     vertex -1.650683e-01 -8.888889e-01 -2.375425e-01
   endloop
 endfacet
 facet normal  0.000000e+00 -1.000000e+00 -0.000000e+00
   outer loop
     vertex -1.096145e-01 -8.888889e-01 -1.596263e-01
     vertex -1.650683e-01 -8.888889e-01 -2.375425e-01
     vertex -9.341055e-02 -8.888889e-01 -1.796665e-01
   endloop
 endfacet
 facet normal  0.000000e+00 -1.000000e+00  0.000000e+00
   outer loop
     vertex -5.294071e-02 -8.888889e-01 -2.113486e-01
     vertex -8.640782e-02 -8.888889e-01 -2.637535e-01
     vertex -5.862320e-02 -8.888889e-01 -2.650248e-01
   endloop
 endfacet
 facet normal -0.000000e+00 -1.000000e+00  0.000000e+00
   outer loop
     vertex -5.294071e-02 -8.888889e-01 -2.113486e-01
     vertex -7.437470e-02 -8.888889e-01 -1.970392e-01
     vertex -8.640782e-02 -8.888889e-01 -2.637535e-01
   endloop
 endfacet
 facet normal  0.000000e+00 -1.000000e+00  0.000000e+00
   outer loop
     vertex -1.226172e-01 -8.888889e-01 -1.373754e-01
     vertex -2.265457e-01 -8.888889e-01 -1.819097e-01
     vertex -2.086851e-01 -8.888889e-01 -2.032310e-01
   endloop
 endfacet
 facet normal  0.000000e+00 -1.000000e+00  0.000000e+00
   outer loop
     vertex -1.226172e-01 -8.888889e-01 -1.373754e-01
     vertex -2.086851e-01 -8.888889e-01 -2.032310e-01
     vertex -1.880620e-01 -8.888889e-01 -2.218935e-01
   endloop
 endfacet
 facet normal  0.000000e+00 -1.000000e+00 -0.000000e+00
   outer loop
     vertex -1.226172e-01 -8.888889e-01 -1.373754e-01
     vertex -1.880620e-01 -8.888889e-01 -2.218935e-01
     vertex -1.096145e-01 -8.888889e-01 -1.596263e-01
   endloop
 endfacet
 facet normal  0.000000e+00 -1.000000e+00  0.000000e+00
   outer loop
     vertex -2.959701e-02 -8.888889e-01 -2.222687e-01
     vertex -5.862320e-02 -8.888889e-01 -2.650248e-01
     vertex -3.092775e-02 -8.888889e-01 -2.624629e-01
   endloop
 endfacet
 facet normal -0.000000e+00 -1.000000e+00  0.000000e+00
   outer loop
     vertex -2.959701e-02 -8.888889e-01 -2.222687e-01
     vertex -5.294071e-02 -8.888889e-01 -2.113486e-01
     vertex -5.862320e-02 -8.888889e-01 -2.650248e-01
   endloop
 endfacet
 facet normal  0.000000e+00 -1.000000e+00  0.000000e+00
   outer loop
     vertex -1.321225e-01 -8.888889e-01 -1.134208e-01
     vertex -2.526806e-01 -8.888889e-01 -1.329539e-01
     vertex -2.413044e-01 -8.888889e-01 -1.583346e-01
   endloop
 endfacet
 facet normal  0.000000e+00 -1.000000e+00  0.000000e+00
   outer loop
     vertex -1.321225e-01 -8.888889e-01 -1.134208e-01
     vertex -2.413044e-01 -8.888889e-01 -1.583346e-01
     vertex -2.265457e-01 -8.888889e-01 -1.819097e-01
   endloop
 endfacet
 facet normal  0.000000e+00 -1.000000e+00 -0.000000e+00
   outer loop
     vertex -1.321225e-01 -8.888889e-01 -1.134208e-01
     vertex -2.265457e-01 -8.888889e-01 -1.819097e-01
     vertex -1.226172e-01 -8.888889e-01 -1.373754e-01
   endloop
 endfacet
 facet normal  0.000000e+00 -1.000000e+00 -0.000000e+00
   outer loop
     vertex -4.875546e-03 -8.888889e-01 -2.295505e-01
     vertex -3.092775e-02 -8.888889e-01 -2.624629e-01
     vertex -3.847782e-03 -8.888889e-01 -2.561165e-01
   endloop
 endfacet
 facet normal -0.000000e+00 -1.000000e+00  0.000000e+00
   outer loop
     vertex -4.875546e-03 -8.888889e-01 -2.295505e-01
     vertex -2.959701e-02 -8.888889e-01 -2.222687e-01
     vertex -3.092775e-02 -8.888889e-01 -2.624629e-01
   endloop
 endfacet
 facet normal -0.000000e+00 -1.000000e+00  0.000000e+00
   outer loop
     vertex -1.379138e-01 -8.888889e-01 -8.830828e-02
     vertex -2.644897e-01 -8.888889e-01 -7.872982e-02
     vertex -2.604584e-01 -8.888889e-01 -1.062498e-01
   endloop
 endfacet
 facet normal  0.000000e+00 -1.000000e+00  0.000000e+00
   outer loop
     vertex -1.379138e-01 -8.888889e-01 -8.830828e-02
     vertex -2.604584e-01 -8.888889e-01 -1.062498e-01
     vertex -2.526806e-01 -8.888889e-01 -1.329539e-01
   endloop
 endfacet
 facet normal  0.000000e+00 -1.000000e+00 -0.000000e+00
   outer loop
     vertex -1.379138e-01 -8.888889e-01 -8.830828e-02
     vertex -2.526806e-01 -8.888889e-01 -1.329539e-01
     vertex -1.321225e-01 -8.888889e-01 -1.134208e-01
   endloop
 endfacet
 facet normal -0.000000e+00 -1.000000e+00  0.000000e+00
   outer loop
     vertex  2.210209e-02 -8.888889e-01 -2.461062e-01
     vertex -4.875546e-03 -8.888889e-01 -2.295505e-01
     vertex -3.847782e-03 -8.888889e-01 -2.561165e-01
   endloop
 endfacet
 facet normal -0.000000e+00 -1.000000e+00 -0.000000e+00
   outer loop
     vertex  2.066034e-02 -8.888889e-01 -2.330281e-01
     vertex -4.875546e-03 -8.888889e-01 -2.295505e-01
     vertex  2.210209e-02 -8.888889e-01 -2.461062e-01
   endloop
 endfacet
 facet normal  0.000000e+00 -1.000000e+00 -0.000000e+00
   outer loop
     vertex -1.398589e-01 -8.888889e-01 -6.261020e-02
     vertex -2.644897e-01 -8.888889e-01 -7.872982e-02
     vertex -1.379138e-01 -8.888889e-01 -8.830828e-02
   endloop
 endfacet
 facet normal  0.000000e+00 -1.000000e+00  0.000000e+00
   outer loop
     vertex -1.398589e-01 -8.888889e-01 -6.261020e-02
     vertex -2.610794e-01 -8.888889e-01 -2.333962e-02
     vertex -2.646980e-01 -8.888889e-01 -5.091691e-02
   endloop
 endfacet
 facet normal -0.000000e+00 -1.000000e+00  0.000000e+00
   outer loop
     vertex -1.398589e-01 -8.888889e-01 -6.261020e-02
     vertex -2.646980e-01 -8.888889e-01 -5.091691e-02
     vertex -2.644897e-01 -8.888889e-01 -7.872982e-02
   endloop
 endfacet
 facet normal  0.000000e+00 -1.000000e+00  0.000000e+00
   outer loop
     vertex  4.642874e-02 -8.888889e-01 -2.326223e-01
     vertex  2.066034e-02 -8.888889e-01 -2.330281e-01
     vertex  2.210209e-02 -8.888889e-01 -2.461062e-01
   endloop
 endfacet
 facet normal  0.000000e+00 -1.000000e+00  0.000000e+00
   outer loop
     vertex -1.379486e-01 -8.888889e-01 -3.714199e-02
     vertex -2.537026e-01 -8.888889e-01  3.477985e-03
     vertex -2.610794e-01 -8.888889e-01 -2.333962e-02
   endloop
 endfacet
 facet normal -0.000000e+00 -1.000000e+00  0.000000e+00
   outer loop
     vertex -1.379486e-01 -8.888889e-01 -3.714199e-02
     vertex -2.610794e-01 -8.888889e-01 -2.333962e-02
     vertex -1.398589e-01 -8.888889e-01 -6.261020e-02
   endloop
 endfacet
 facet normal -0.000000e+00 -1.000000e+00  0.000000e+00
   outer loop
     vertex -1.322603e-01 -8.888889e-01 -1.224376e-02
     vertex -2.537026e-01 -8.888889e-01  3.477985e-03
     vertex -1.379486e-01 -8.888889e-01 -3.714199e-02
   endloop
 endfacet
 facet normal  0.000000e+00 -1.000000e+00  0.000000e+00
   outer loop
     vertex -1.322603e-01 -8.888889e-01 -1.224376e-02
     vertex -2.283040e-01 -8.888889e-01  5.281978e-02
     vertex -2.427078e-01 -8.888889e-01  2.902629e-02
   endloop
 endfacet
 facet normal  0.000000e+00 -1.000000e+00  0.000000e+00
   outer loop
     vertex -1.322603e-01 -8.888889e-01 -1.224376e-02
     vertex -2.427078e-01 -8.888889e-01  2.902629e-02
     vertex -2.537026e-01 -8.888889e-01  3.477985e-03
   endloop
 endfacet
 facet normal  0.000000e+00 -1.000000e+00  0.000000e+00
   outer loop
     vertex -1.229214e-01 -8.888889e-01  1.152731e-02
     vertex -2.107648e-01 -8.888889e-01  7.440630e-02
     vertex -2.283040e-01 -8.888889e-01  5.281978e-02
   endloop
 endfacet
 facet normal -0.000000e+00 -1.000000e+00  0.000000e+00
   outer loop
     vertex -1.229214e-01 -8.888889e-01  1.152731e-02
     vertex -2.283040e-01 -8.888889e-01  5.281978e-02
     vertex -1.322603e-01 -8.888889e-01 -1.224376e-02
   endloop
 endfacet
 facet normal  0.000000e+00 -1.000000e+00 -0.000000e+00
   outer loop
     vertex -1.904235e-01 -8.888889e-01  9.337564e-02
     vertex -2.107648e-01 -8.888889e-01  7.440630e-02
     vertex -1.229214e-01 -8.888889e-01  1.152731e-02
   endloop
 endfacet
 facet normal -0.000000e+00 -1.000000e+00  0.000000e+00
   outer loop
     vertex -1.101409e-01 -8.888889e-01  3.363922e-02
     vertex -1.904235e-01 -8.888889e-01  9.337564e-02
     vertex -1.229214e-01 -8.888889e-01  1.152731e-02
   endloop
 endfacet
 facet normal  0.000000e+00 -1.000000e+00 -0.000000e+00
   outer loop
     vertex -1.676668e-01 -8.888889e-01  1.093673e-01
     vertex -1.904235e-01 -8.888889e-01  9.337564e-02
     vertex -1.101409e-01 -8.888889e-01  3.363922e-02
   endloop
 endfacet
 facet normal -0.000000e+00 -1.000000e+00  0.000000e+00
   outer loop
     vertex -9.420476e-02 -8.888889e-01  5.359713e-02
     vertex -1.676668e-01 -8.888889e-01  1.093673e-01
     vertex -1.101409e-01 -8.888889e-01  3.363922e-02
   endloop
 endfacet
 facet normal  0.000000e+00 -1.000000e+00 -0.000000e+00
   outer loop
     vertex -1.429271e-01 -8.888889e-01  1.220774e-01
     vertex -1.676668e-01 -8.888889e-01  1.093673e-01
     vertex -9.420476e-02 -8.888889e-01  5.359713e-02
   endloop
 endfacet
 facet normal  0.000000e+00 -1.000000e+00  0.000000e+00
   outer loop
     vertex -1.166745e-01 -8.888889e-01  1.312644e-01
     vertex -9.420476e-02 -8.888889e-01  5.359713e-02
     vertex -7.546965e-02 -8.888889e-01  7.095439e-02
   endloop
 endfacet
 facet normal  0.000000e+00 -1.000000e+00 -0.000000e+00
   outer loop
     vertex -1.166745e-01 -8.888889e-01  1.312644e-01
     vertex -1.429271e-01 -8.888889e-01  1.220774e-01
     vertex -9.420476e-02 -8.888889e-01  5.359713e-02
   endloop
 endfacet
 facet normal  0.000000e+00 -1.000000e+00  0.000000e+00
   outer loop
     vertex -8.940787e-02 -8.888889e-01  1.367538e-01
     vertex -7.546965e-02 -8.888889e-01  7.095439e-02
     vertex -5.435486e-02 -8.888889e-01  8.532255e-02
   endloop
 endfacet
 facet normal  0.000000e+00 -1.000000e+00 -0.000000e+00
   outer loop
     vertex -8.940787e-02 -8.888889e-01  1.367538e-01
     vertex -1.166745e-01 -8.888889e-01  1.312644e-01
     vertex -7.546965e-02 -8.888889e-01  7.095439e-02
   endloop
 endfacet
 facet normal  0.000000e+00 -1.000000e+00  0.000000e+00
   outer loop
     vertex -6.164542e-02 -8.888889e-01  1.384411e-01
     vertex -5.435486e-02 -8.888889e-01  8.532255e-02
     vertex -3.133291e-02 -8.888889e-01  9.638007e-02
   endloop
 endfacet
 facet normal  0.000000e+00 -1.000000e+00 -0.000000e+00
   outer loop
     vertex -6.164542e-02 -8.888889e-01  1.384411e-01
     vertex -8.940787e-02 -8.888889e-01  1.367538e-01
     vertex -5.435486e-02 -8.888889e-01  8.532255e-02
   endloop
 endfacet
 facet normal  0.000000e+00 -1.000000e+00  0.000000e+00
   outer loop
     vertex -3.391470e-02 -8.888889e-01  1.362944e-01
     vertex -3.133291e-02 -8.888889e-01  9.638007e-02
     vertex -6.919028e-03 -8.888889e-01  1.038795e-01
   endloop
 endfacet
 facet normal -0.000000e+00 -1.000000e+00 -0.000000e+00
   outer loop
     vertex -3.391470e-02 -8.888889e-01  1.362944e-01
     vertex -6.164542e-02 -8.888889e-01  1.384411e-01
     vertex -3.133291e-02 -8.888889e-01  9.638007e-02
   endloop
 endfacet
 facet normal -0.000000e+00 -1.000000e+00  0.000000e+00
   outer loop
     vertex -6.742696e-03 -8.888889e-01  1.303544e-01
     vertex -3.391470e-02 -8.888889e-01  1.362944e-01
     vertex -6.919028e-03 -8.888889e-01  1.038795e-01
   endloop
 endfacet
 facet normal  0.000000e+00 -1.000000e+00  0.000000e+00
   outer loop
     vertex  1.935423e-02 -8.888889e-01  1.207340e-01
     vertex -6.919028e-03 -8.888889e-01  1.038795e-01
     vertex  1.834042e-02 -8.888889e-01  1.076529e-01
   endloop
 endfacet
 facet normal -0.000000e+00 -1.000000e+00  0.000000e+00
   outer loop
     vertex  1.935423e-02 -8.888889e-01  1.207340e-01
     vertex -6.742696e-03 -8.888889e-01  1.303544e-01
     vertex -6.919028e-03 -8.888889e-01  1.038795e-01
   endloop
 endfacet
 facet normal  0.000000e+00 -1.000000e+00  0.000000e+00
   outer loop
     vertex  4.388014e-02 -8.888889e-01  1.076160e-01
     vertex  1.935423e-02 -8.888889e-01  1.207340e-01
     vertex  1.834042e-02 -8.888889e-01  1.076529e-01
   endloop
 endfacet
 facet normal  9.971987e-01  0.000000e+00 -7.479874e-02
   outer loop
     vertex -1.379486e-01 -3.174603e-02 -3.714199e-02
     vertex -1.398589e-01 -8.888889e-01 -6.261020e-02
     vertex -1.398589e-01 -3.174603e-02 -6.261020e-02
   endloop
 endfacet
 facet normal  9.971987e-01 -3.229079e-17 -7.479874e-02
   outer loop
     vertex -1.379486e-01 -3.174603e-02 -3.714199e-02
     vertex -1.379486e-01 -8.888889e-01 -3.714199e-02
     vertex -1.398589e-01 -8.888889e-01 -6.261020e-02
   endloop
 endfacet
 facet normal  9.748819e-01  5.409062e-18 -2.227223e-01
   outer loop
     vertex -1.322603e-01 -3.174603e-02 -1.224376e-02
     vertex -1.322603e-01 -8.888889e-01 -1.224376e-02
     vertex -1.379486e-01 -8.888889e-01 -3.714199e-02
   endloop
 endfacet
 facet normal  9.748819e-01 -3.219243e-17 -2.227223e-01
   outer loop
     vertex -1.322603e-01 -3.174603e-02 -1.224376e-02
     vertex -1.379486e-01 -8.888889e-01 -3.714199e-02
     vertex -1.379486e-01 -3.174603e-02 -3.714199e-02
   endloop
 endfacet
 facet normal  9.307479e-01  1.184067e-17 -3.656614e-01
   outer loop
     vertex -1.229214e-01 -3.174603e-02  1.152731e-02
     vertex -1.229214e-01 -8.888889e-01  1.152731e-02
     vertex -1.322603e-01 -8.888889e-01 -1.224376e-02
   endloop
 endfacet
 facet normal  8.657844e-01  1.620426e-17 -5.004173e-01
   outer loop
     vertex -1.229214e-01 -3.174603e-02  1.152731e-02
     vertex -1.101409e-01 -8.888889e-01  3.363922e-02
     vertex -1.229214e-01 -8.888889e-01  1.152731e-02
   endloop
 endfacet
 facet normal  9.307479e-01  8.667194e-18 -3.656614e-01
   outer loop
     vertex -1.229214e-01 -3.174603e-02  1.152731e-02
     vertex -1.322603e-01 -8.888889e-01 -1.224376e-02
     vertex -1.322603e-01 -3.174603e-02 -1.224376e-02
   endloop
 endfacet
 facet normal  8.657844e-01 -1.183114e-17 -5.004173e-01
   outer loop
     vertex -1.101409e-01 -3.174603e-02  3.363922e-02
     vertex -1.101409e-01 -8.888889e-01  3.363922e-02
     vertex -1.229214e-01 -3.174603e-02  1.152731e-02
   endloop
 endfacet
 facet normal  7.814450e-01  5.003463e-18 -6.239741e-01
   outer loop
     vertex -9.420476e-02 -3.174603e-02  5.359713e-02
     vertex -9.420476e-02 -8.888889e-01  5.359713e-02
     vertex -1.101409e-01 -8.888889e-01  3.363922e-02
   endloop
 endfacet
 facet normal  7.814450e-01 -4.952682e-18 -6.239741e-01
   outer loop
     vertex -9.420476e-02 -3.174603e-02  5.359713e-02
     vertex -1.101409e-01 -8.888889e-01  3.363922e-02
     vertex -1.101409e-01 -3.174603e-02  3.363922e-02
   endloop
 endfacet
 facet normal  6.796174e-01 -3.301055e-17 -7.335667e-01
   outer loop
     vertex -7.546965e-02 -3.174603e-02  7.095439e-02
     vertex -7.546965e-02 -8.888889e-01  7.095439e-02
     vertex -9.420476e-02 -8.888889e-01  5.359713e-02
   endloop
 endfacet
 facet normal  6.796174e-01  1.238171e-17 -7.335667e-01
   outer loop
     vertex -7.546965e-02 -3.174603e-02  7.095439e-02
     vertex -9.420476e-02 -8.888889e-01  5.359713e-02
     vertex -9.420476e-02 -3.174603e-02  5.359713e-02
   endloop
 endfacet
 facet normal  5.625804e-01  7.999336e-18 -8.267426e-01
   outer loop
     vertex -5.435486e-02 -3.174603e-02  8.532255e-02
     vertex -5.435486e-02 -8.888889e-01  8.532255e-02
     vertex -7.546965e-02 -8.888889e-01  7.095439e-02
   endloop
 endfacet
 facet normal  4.329532e-01  2.332925e-17 -9.014164e-01
   outer loop
     vertex -5.435486e-02 -3.174603e-02  8.532255e-02
     vertex -3.133291e-02 -8.888889e-01  9.638007e-02
     vertex -5.435486e-02 -8.888889e-01  8.532255e-02
   endloop
 endfacet
 facet normal  5.625804e-01 -2.723975e-17 -8.267426e-01
   outer loop
     vertex -5.435486e-02 -3.174603e-02  8.532255e-02
     vertex -7.546965e-02 -8.888889e-01  7.095439e-02
     vertex -7.546965e-02 -3.174603e-02  7.095439e-02
   endloop
 endfacet
 facet normal  4.329532e-01 -1.286980e-17 -9.014164e-01
   outer loop
     vertex -3.133291e-02 -3.174603e-02  9.638007e-02
     vertex -3.133291e-02 -8.888889e-01  9.638007e-02
     vertex -5.435486e-02 -3.174603e-02  8.532255e-02
   endloop
 endfacet
 facet normal  2.936367e-01  4.805940e-18 -9.559171e-01
   outer loop
     vertex -6.919028e-03 -3.174603e-02  1.038795e-01
     vertex -6.919028e-03 -8.888889e-01  1.038795e-01
     vertex -3.133291e-02 -8.888889e-01  9.638007e-02
   endloop
 endfacet
 facet normal  1.477488e-01  1.886921e-17 -9.890249e-01
   outer loop
     vertex -6.919028e-03 -3.174603e-02  1.038795e-01
     vertex  1.834042e-02 -8.888889e-01  1.076529e-01
     vertex -6.919028e-03 -8.888889e-01  1.038795e-01
   endloop
 endfacet
 facet normal  2.936367e-01  1.238171e-18 -9.559171e-01
   outer loop
     vertex -6.919028e-03 -3.174603e-02  1.038795e-01
     vertex -3.133291e-02 -8.888889e-01  9.638007e-02
     vertex -3.133291e-02 -3.174603e-02  9.638007e-02
   endloop
 endfacet
 facet normal  1.477488e-01  1.886921e-17 -9.890249e-01
   outer loop
     vertex  1.834042e-02 -3.174603e-02  1.076529e-01
     vertex  1.834042e-02 -8.888889e-01  1.076529e-01
     vertex -6.919028e-03 -3.174603e-02  1.038795e-01
   endloop
 endfacet
 facet normal -1.445642e-03 -1.605030e-17 -9.999990e-01
   outer loop
     vertex  4.388014e-02 -3.174603e-02  1.076160e-01
     vertex  4.388014e-02 -8.888889e-01  1.076160e-01
     vertex  1.834042e-02 -8.888889e-01  1.076529e-01
   endloop
 endfacet
 facet normal -1.445642e-03  3.250681e-17 -9.999990e-01
   outer loop
     vertex  4.388014e-02 -3.174603e-02  1.076160e-01
     vertex  1.834042e-02 -8.888889e-01  1.076529e-01
     vertex  1.834042e-02 -3.174603e-02  1.076529e-01
   endloop
 endfacet
 facet normal  0.000000e+00  1.000000e+00  0.000000e+00
   outer loop
     vertex  1.210046e-01  0.000000e+00  1.874902e-02
     vertex  1.306320e-01  0.000000e+00 -7.702058e-03
     vertex  1.364845e-01  0.000000e+00 -3.523559e-02
   endloop
 endfacet
 facet normal  0.000000e+00  1.000000e+00  0.000000e+00
   outer loop
     vertex  9.124428e-02  0.000000e+00  6.637553e-02
     vertex  1.077896e-01  0.000000e+00  4.360279e-02
     vertex  1.210046e-01  0.000000e+00  1.874902e-02
   endloop
 endfacet
 facet normal  0.000000e+00  1.000000e+00  0.000000e+00
   outer loop
     vertex  7.169059e-02  0.000000e+00  8.662397e-02
     vertex  1.364845e-01  0.000000e+00 -3.523559e-02
     vertex  1.384480e-01  0.000000e+00 -6.331566e-02
   endloop
 endfacet
 facet normal  0.000000e+00  1.000000e+00  0.000000e+00
   outer loop
     vertex  7.169059e-02  0.000000e+00  8.662397e-02
     vertex  2.513171e-02  0.000000e+00  1.180283e-01
     vertex  4.950915e-02  0.000000e+00  1.039540e-01
   endloop
 endfacet
 facet normal  0.000000e+00  1.000000e+00  0.000000e+00
   outer loop
     vertex  7.169059e-02  0.000000e+00  8.662397e-02
     vertex -9.672591e-04  0.000000e+00  1.285730e-01
     vertex  2.513171e-02  0.000000e+00  1.180283e-01
   endloop
 endfacet
 facet normal  0.000000e+00  1.000000e+00  0.000000e+00
   outer loop
     vertex  7.169059e-02  0.000000e+00  8.662397e-02
     vertex -2.827977e-02  0.000000e+00  1.353828e-01
     vertex -9.672591e-04  0.000000e+00  1.285730e-01
   endloop
 endfacet
 facet normal  0.000000e+00  1.000000e+00  0.000000e+00
   outer loop
     vertex  7.169059e-02  0.000000e+00  8.662397e-02
     vertex -5.627421e-02  0.000000e+00  1.383251e-01
     vertex -2.827977e-02  0.000000e+00  1.353828e-01
   endloop
 endfacet
 facet normal  0.000000e+00  1.000000e+00  0.000000e+00
   outer loop
     vertex  7.169059e-02  0.000000e+00  8.662397e-02
     vertex -8.440571e-02  0.000000e+00  1.373427e-01
     vertex -5.627421e-02  0.000000e+00  1.383251e-01
   endloop
 endfacet
 facet normal  0.000000e+00  1.000000e+00  0.000000e+00
   outer loop
     vertex  7.169059e-02  0.000000e+00  8.662397e-02
     vertex -1.121267e-01  0.000000e+00  1.324548e-01
     vertex -8.440571e-02  0.000000e+00  1.373427e-01
   endloop
 endfacet
 facet normal  0.000000e+00  1.000000e+00  0.000000e+00
   outer loop
     vertex  7.169059e-02  0.000000e+00  8.662397e-02
     vertex -1.388977e-01  0.000000e+00  1.237564e-01
     vertex -1.121267e-01  0.000000e+00  1.324548e-01
   endloop
 endfacet
 facet normal  0.000000e+00  1.000000e+00  0.000000e+00
   outer loop
     vertex  7.169059e-02  0.000000e+00  8.662397e-02
     vertex -1.641975e-01  0.000000e+00  1.114168e-01
     vertex -1.388977e-01  0.000000e+00  1.237564e-01
   endloop
 endfacet
 facet normal  0.000000e+00  1.000000e+00  0.000000e+00
   outer loop
     vertex  7.169059e-02  0.000000e+00  8.662397e-02
     vertex -1.875338e-01  0.000000e+00  9.567628e-02
     vertex -1.641975e-01  0.000000e+00  1.114168e-01
   endloop
 endfacet
 facet normal  0.000000e+00  1.000000e+00  0.000000e+00
   outer loop
     vertex  7.169059e-02  0.000000e+00  8.662397e-02
     vertex -2.084523e-01  0.000000e+00  7.684116e-02
     vertex -1.875338e-01  0.000000e+00  9.567628e-02
   endloop
 endfacet
 facet normal  0.000000e+00  1.000000e+00  0.000000e+00
   outer loop
     vertex  7.169059e-02  0.000000e+00  8.662397e-02
     vertex -2.265459e-01  0.000000e+00  5.527805e-02
     vertex -2.084523e-01  0.000000e+00  7.684116e-02
   endloop
 endfacet
 facet normal  0.000000e+00  1.000000e+00  0.000000e+00
   outer loop
     vertex  7.169059e-02  0.000000e+00  8.662397e-02
     vertex -2.414624e-01  0.000000e+00  3.140664e-02
     vertex -2.265459e-01  0.000000e+00  5.527805e-02
   endloop
 endfacet
 facet normal  0.000000e+00  1.000000e+00  0.000000e+00
   outer loop
     vertex  7.169059e-02  0.000000e+00  8.662397e-02
     vertex -2.529115e-01  0.000000e+00  5.691577e-03
     vertex -2.414624e-01  0.000000e+00  3.140664e-02
   endloop
 endfacet
 facet normal  0.000000e+00  1.000000e+00  0.000000e+00
   outer loop
     vertex  7.169059e-02  0.000000e+00  8.662397e-02
     vertex -2.606703e-01  0.000000e+00 -2.136664e-02
     vertex -2.529115e-01  0.000000e+00  5.691577e-03
   endloop
 endfacet
 facet normal  0.000000e+00  1.000000e+00  0.000000e+00
   outer loop
     vertex  7.169059e-02  0.000000e+00  8.662397e-02
     vertex -2.645879e-01  0.000000e+00 -4.924134e-02
     vertex -2.606703e-01  0.000000e+00 -2.136664e-02
   endloop
 endfacet
 facet normal  0.000000e+00  1.000000e+00  0.000000e+00
   outer loop
     vertex  7.169059e-02  0.000000e+00  8.662397e-02
     vertex -2.645879e-01  0.000000e+00 -7.738999e-02
     vertex -2.645879e-01  0.000000e+00 -4.924134e-02
   endloop
 endfacet
 facet normal  0.000000e+00  1.000000e+00  0.000000e+00
   outer loop
     vertex  7.169059e-02  0.000000e+00  8.662397e-02
     vertex  1.210046e-01  0.000000e+00  1.874902e-02
     vertex  1.364845e-01  0.000000e+00 -3.523559e-02
   endloop
 endfacet
 facet normal  0.000000e+00  1.000000e+00  0.000000e+00
   outer loop
     vertex  7.169059e-02  0.000000e+00  8.662397e-02
     vertex -2.606703e-01  0.000000e+00 -1.052647e-01
     vertex -2.645879e-01  0.000000e+00 -7.738999e-02
   endloop
 endfacet
 facet normal  0.000000e+00  1.000000e+00  0.000000e+00
   outer loop
     vertex  7.169059e-02  0.000000e+00  8.662397e-02
     vertex -2.529115e-01  0.000000e+00 -1.323229e-01
     vertex -2.606703e-01  0.000000e+00 -1.052647e-01
   endloop
 endfacet
 facet normal  0.000000e+00  1.000000e+00  0.000000e+00
   outer loop
     vertex  7.169059e-02  0.000000e+00  8.662397e-02
     vertex -2.414624e-01  0.000000e+00 -1.580380e-01
     vertex -2.529115e-01  0.000000e+00 -1.323229e-01
   endloop
 endfacet
 facet normal  0.000000e+00  1.000000e+00  0.000000e+00
   outer loop
     vertex  7.169059e-02  0.000000e+00  8.662397e-02
     vertex -2.265459e-01  0.000000e+00 -1.819094e-01
     vertex -2.414624e-01  0.000000e+00 -1.580380e-01
   endloop
 endfacet
 facet normal  0.000000e+00  1.000000e+00  0.000000e+00
   outer loop
     vertex  7.169059e-02  0.000000e+00  8.662397e-02
     vertex -2.084523e-01  0.000000e+00 -2.034725e-01
     vertex -2.265459e-01  0.000000e+00 -1.819094e-01
   endloop
 endfacet
 facet normal  0.000000e+00  1.000000e+00  0.000000e+00
   outer loop
     vertex  7.169059e-02  0.000000e+00  8.662397e-02
     vertex -1.875338e-01  0.000000e+00 -2.223076e-01
     vertex -2.084523e-01  0.000000e+00 -2.034725e-01
   endloop
 endfacet
 facet normal  0.000000e+00  1.000000e+00  0.000000e+00
   outer loop
     vertex  7.169059e-02  0.000000e+00  8.662397e-02
     vertex -1.641975e-01  0.000000e+00 -2.380481e-01
     vertex -1.875338e-01  0.000000e+00 -2.223076e-01
   endloop
 endfacet
 facet normal  0.000000e+00  1.000000e+00  0.000000e+00
   outer loop
     vertex  7.169059e-02  0.000000e+00  8.662397e-02
     vertex -1.388977e-01  0.000000e+00 -2.503877e-01
     vertex -1.641975e-01  0.000000e+00 -2.380481e-01
   endloop
 endfacet
 facet normal  0.000000e+00  1.000000e+00  0.000000e+00
   outer loop
     vertex  7.169059e-02  0.000000e+00  8.662397e-02
     vertex -1.121267e-01  0.000000e+00 -2.590861e-01
     vertex -1.388977e-01  0.000000e+00 -2.503877e-01
   endloop
 endfacet
 facet normal  0.000000e+00  1.000000e+00  0.000000e+00
   outer loop
     vertex  7.169059e-02  0.000000e+00  8.662397e-02
     vertex -8.440571e-02  0.000000e+00 -2.639741e-01
     vertex -1.121267e-01  0.000000e+00 -2.590861e-01
   endloop
 endfacet
 facet normal  0.000000e+00  1.000000e+00  0.000000e+00
   outer loop
     vertex  7.169059e-02  0.000000e+00  8.662397e-02
     vertex -5.627421e-02  0.000000e+00 -2.649564e-01
     vertex -8.440571e-02  0.000000e+00 -2.639741e-01
   endloop
 endfacet
 facet normal  0.000000e+00  1.000000e+00  0.000000e+00
   outer loop
     vertex  7.169059e-02  0.000000e+00  8.662397e-02
     vertex -2.827977e-02  0.000000e+00 -2.620141e-01
     vertex -5.627421e-02  0.000000e+00 -2.649564e-01
   endloop
 endfacet
 facet normal  0.000000e+00  1.000000e+00  0.000000e+00
   outer loop
     vertex  7.169059e-02  0.000000e+00  8.662397e-02
     vertex -9.672591e-04  0.000000e+00 -2.552043e-01
     vertex -2.827977e-02  0.000000e+00 -2.620141e-01
   endloop
 endfacet
 facet normal  0.000000e+00  1.000000e+00  0.000000e+00
   outer loop
     vertex  7.169059e-02  0.000000e+00  8.662397e-02
     vertex  2.513171e-02  0.000000e+00 -2.446597e-01
     vertex -9.672591e-04  0.000000e+00 -2.552043e-01
   endloop
 endfacet
 facet normal  0.000000e+00  1.000000e+00  0.000000e+00
   outer loop
     vertex  7.169059e-02  0.000000e+00  8.662397e-02
     vertex  4.950915e-02  0.000000e+00 -2.305853e-01
     vertex  2.513171e-02  0.000000e+00 -2.446597e-01
   endloop
 endfacet
 facet normal  0.000000e+00  1.000000e+00  0.000000e+00
   outer loop
     vertex  7.169059e-02  0.000000e+00  8.662397e-02
     vertex  7.169059e-02  0.000000e+00 -2.132553e-01
     vertex  4.950915e-02  0.000000e+00 -2.305853e-01
   endloop
 endfacet
 facet normal  0.000000e+00  1.000000e+00  0.000000e+00
   outer loop
     vertex  7.169059e-02  0.000000e+00  8.662397e-02
     vertex  9.124428e-02  0.000000e+00 -1.930069e-01
     vertex  7.169059e-02  0.000000e+00 -2.132553e-01
   endloop
 endfacet
 facet normal  0.000000e+00  1.000000e+00  0.000000e+00
   outer loop
     vertex  7.169059e-02  0.000000e+00  8.662397e-02
     vertex  1.077896e-01  0.000000e+00 -1.702341e-01
     vertex  9.124428e-02  0.000000e+00 -1.930069e-01
   endloop
 endfacet
 facet normal  0.000000e+00  1.000000e+00  0.000000e+00
   outer loop
     vertex  7.169059e-02  0.000000e+00  8.662397e-02
     vertex  1.210046e-01  0.000000e+00 -1.453803e-01
     vertex  1.077896e-01  0.000000e+00 -1.702341e-01
   endloop
 endfacet
 facet normal  0.000000e+00  1.000000e+00  0.000000e+00
   outer loop
     vertex  7.169059e-02  0.000000e+00  8.662397e-02
     vertex  1.306320e-01  0.000000e+00 -1.189293e-01
     vertex  1.210046e-01  0.000000e+00 -1.453803e-01
   endloop
 endfacet
 facet normal  0.000000e+00  1.000000e+00  0.000000e+00
   outer loop
     vertex  7.169059e-02  0.000000e+00  8.662397e-02
     vertex  1.364845e-01  0.000000e+00 -9.139574e-02
     vertex  1.306320e-01  0.000000e+00 -1.189293e-01
   endloop
 endfacet
 facet normal  0.000000e+00  1.000000e+00  0.000000e+00
   outer loop
     vertex  7.169059e-02  0.000000e+00  8.662397e-02
     vertex  1.384480e-01  0.000000e+00 -6.331566e-02
     vertex  1.364845e-01  0.000000e+00 -9.139574e-02
   endloop
 endfacet
 facet normal  0.000000e+00  1.000000e+00  0.000000e+00
   outer loop
     vertex  7.169059e-02  0.000000e+00  8.662397e-02
     vertex  9.124428e-02  0.000000e+00  6.637553e-02
     vertex  1.210046e-01  0.000000e+00  1.874902e-02
   endloop
 endfacet
endsolid
