solid 
 facet normal -1.000000e+00  0.000000e+00  0.000000e+00
   outer loop
     vertex -1.507936e-01  1.158731e-01 -1.587302e-02
     vertex -1.507936e-01 -2.396825e-01 -1.587302e-02
     vertex -1.507936e-01 -2.396825e-01  9.841270e-01
   endloop
 endfacet
 facet normal -1.000000e+00  0.000000e+00  0.000000e+00
   outer loop
     vertex -1.507936e-01  1.158731e-01 -1.587302e-02
     vertex -1.507936e-01 -2.396825e-01  9.841270e-01
     vertex -1.507936e-01  1.158731e-01  9.841270e-01
   endloop
 endfacet
 facet normal  0.000000e+00 -1.000000e+00  0.000000e+00
   outer loop
     vertex -1.507936e-01 -2.396825e-01 -1.587302e-02
     vertex  2.698417e-02 -2.396825e-01 -1.587302e-02
     vertex  2.698417e-02 -2.396825e-01  9.841270e-01
   endloop
 endfacet
 facet normal  0.000000e+00 -1.000000e+00  0.000000e+00
   outer loop
     vertex -1.507936e-01 -2.396825e-01 -1.587302e-02
     vertex  2.698417e-02 -2.396825e-01  9.841270e-01
     vertex -1.507936e-01 -2.396825e-01  9.841270e-01
   endloop
 endfacet
 facet normal  0.000000e+00  1.000000e+00 -0.000000e+00
   outer loop
     vertex  1.892992e-02  1.158731e-01  9.252334e-01
     vertex  1.566807e-02  1.158731e-01  9.224131e-01
     vertex  2.698417e-02  1.158731e-01  9.841270e-01
   endloop
 endfacet
 facet normal  0.000000e+00  1.000000e+00 -0.000000e+00
   outer loop
     vertex  1.318809e-02  1.158731e-01  9.188856e-01
     vertex -1.507936e-01  1.158731e-01  9.841270e-01
     vertex  2.698417e-02  1.158731e-01  9.841270e-01
   endloop
 endfacet
 facet normal  0.000000e+00  1.000000e+00  0.000000e+00
   outer loop
     vertex  1.318809e-02  1.158731e-01  9.188856e-01
     vertex  2.698417e-02  1.158731e-01  9.841270e-01
     vertex  1.566807e-02  1.158731e-01  9.224131e-01
   endloop
 endfacet
 facet normal  0.000000e+00  1.000000e+00 -0.000000e+00
   outer loop
     vertex  2.277864e-02  1.158731e-01  9.271779e-01
     vertex  1.892992e-02  1.158731e-01  9.252334e-01
     vertex  2.698417e-02  1.158731e-01  9.841270e-01
   endloop
 endfacet
 facet normal  0.000000e+00  1.000000e+00 -0.000000e+00
   outer loop
     vertex  1.163821e-02  1.158731e-01  9.148617e-01
     vertex -1.507936e-01  1.158731e-01  9.841270e-01
     vertex  1.318809e-02  1.158731e-01  9.188856e-01
   endloop
 endfacet
 facet normal  0.000000e+00  1.000000e+00 -0.000000e+00
   outer loop
     vertex  2.698417e-02  1.158731e-01  9.281303e-01
     vertex  2.277864e-02  1.158731e-01  9.271779e-01
     vertex  2.698417e-02  1.158731e-01  9.841270e-01
   endloop
 endfacet
 facet normal  0.000000e+00  1.000000e+00 -0.000000e+00
   outer loop
     vertex  1.111108e-02  1.158731e-01  9.105820e-01
     vertex -1.507936e-01  1.158731e-01  9.841270e-01
     vertex  1.163821e-02  1.158731e-01  9.148617e-01
   endloop
 endfacet
 facet normal  0.000000e+00  1.000000e+00  0.000000e+00
   outer loop
     vertex  1.163821e-02  1.158731e-01  9.063024e-01
     vertex -1.507936e-01  1.158731e-01  9.841270e-01
     vertex  1.111108e-02  1.158731e-01  9.105820e-01
   endloop
 endfacet
 facet normal  0.000000e+00  1.000000e+00  0.000000e+00
   outer loop
     vertex  1.318809e-02  1.158731e-01  9.022785e-01
     vertex -1.507936e-01  1.158731e-01  9.841270e-01
     vertex  1.163821e-02  1.158731e-01  9.063024e-01
   endloop
 endfacet
 facet normal  0.000000e+00  1.000000e+00 -0.000000e+00
   outer loop
     vertex  1.892992e-02  1.158731e-01  7.418119e-01
     vertex  1.566807e-02  1.158731e-01  8.987510e-01
     vertex  1.892992e-02  1.158731e-01  8.959307e-01
   endloop
 endfacet
 facet normal  0.000000e+00  1.000000e+00  0.000000e+00
   outer loop
     vertex  1.892992e-02  1.158731e-01  7.418119e-01
     vertex  1.566807e-02  1.158731e-01  7.389916e-01
     vertex  1.566807e-02  1.158731e-01  8.987510e-01
   endloop
 endfacet
 facet normal  0.000000e+00  1.000000e+00  0.000000e+00
   outer loop
     vertex  1.318809e-02  1.158731e-01  7.354641e-01
     vertex  1.318809e-02  1.158731e-01  9.022785e-01
     vertex  1.566807e-02  1.158731e-01  8.987510e-01
   endloop
 endfacet
 facet normal  0.000000e+00  1.000000e+00 -0.000000e+00
   outer loop
     vertex  1.318809e-02  1.158731e-01  7.354641e-01
     vertex -1.507936e-01  1.158731e-01  9.841270e-01
     vertex  1.318809e-02  1.158731e-01  9.022785e-01
   endloop
 endfacet
 facet normal  0.000000e+00  1.000000e+00  0.000000e+00
   outer loop
     vertex  1.318809e-02  1.158731e-01  7.354641e-01
     vertex  1.566807e-02  1.158731e-01  8.987510e-01
     vertex  1.566807e-02  1.158731e-01  7.389916e-01
   endloop
 endfacet
 facet normal  0.000000e+00  1.000000e+00  0.000000e+00
   outer loop
     vertex  2.277864e-02  1.158731e-01  7.437564e-01
     vertex  2.277864e-02  1.158731e-01  8.939862e-01
     vertex  2.698417e-02  1.158731e-01  8.930338e-01
   endloop
 endfacet
 facet normal  0.000000e+00  1.000000e+00 -0.000000e+00
   outer loop
     vertex  2.277864e-02  1.158731e-01  7.437564e-01
     vertex  1.892992e-02  1.158731e-01  8.959307e-01
     vertex  2.277864e-02  1.158731e-01  8.939862e-01
   endloop
 endfacet
 facet normal  0.000000e+00  1.000000e+00  0.000000e+00
   outer loop
     vertex  2.277864e-02  1.158731e-01  7.437564e-01
     vertex  1.892992e-02  1.158731e-01  7.418119e-01
     vertex  1.892992e-02  1.158731e-01  8.959307e-01
   endloop
 endfacet
 facet normal  0.000000e+00  1.000000e+00 -0.000000e+00
   outer loop
     vertex  1.163821e-02  1.158731e-01  7.314402e-01
     vertex -1.507936e-01  1.158731e-01  9.841270e-01
     vertex  1.318809e-02  1.158731e-01  7.354641e-01
   endloop
 endfacet
 facet normal  0.000000e+00  1.000000e+00 -0.000000e+00
   outer loop
     vertex  2.698417e-02  1.158731e-01  7.447088e-01
     vertex  2.277864e-02  1.158731e-01  7.437564e-01
     vertex  2.698417e-02  1.158731e-01  8.930338e-01
   endloop
 endfacet
 facet normal  0.000000e+00  1.000000e+00 -0.000000e+00
   outer loop
     vertex  1.111108e-02  1.158731e-01  7.271605e-01
     vertex -1.507936e-01  1.158731e-01  9.841270e-01
     vertex  1.163821e-02  1.158731e-01  7.314402e-01
   endloop
 endfacet
 facet normal  0.000000e+00  1.000000e+00  0.000000e+00
   outer loop
     vertex  1.163821e-02  1.158731e-01  7.228808e-01
     vertex -1.507936e-01  1.158731e-01  9.841270e-01
     vertex  1.111108e-02  1.158731e-01  7.271605e-01
   endloop
 endfacet
 facet normal  0.000000e+00  1.000000e+00  0.000000e+00
   outer loop
     vertex -1.507936e-01  1.158731e-01 -1.587302e-02
     vertex  1.892992e-02  1.158731e-01  7.125092e-01
     vertex  2.277864e-02  1.158731e-01  7.105647e-01
   endloop
 endfacet
 facet normal  0.000000e+00  1.000000e+00  0.000000e+00
   outer loop
     vertex -1.507936e-01  1.158731e-01 -1.587302e-02
     vertex  1.566807e-02  1.158731e-01  7.153295e-01
     vertex  1.892992e-02  1.158731e-01  7.125092e-01
   endloop
 endfacet
 facet normal  0.000000e+00  1.000000e+00  0.000000e+00
   outer loop
     vertex -1.507936e-01  1.158731e-01 -1.587302e-02
     vertex  1.318809e-02  1.158731e-01  7.188570e-01
     vertex  1.566807e-02  1.158731e-01  7.153295e-01
   endloop
 endfacet
 facet normal  0.000000e+00  1.000000e+00  0.000000e+00
   outer loop
     vertex -1.507936e-01  1.158731e-01 -1.587302e-02
     vertex  1.163821e-02  1.158731e-01  7.228808e-01
     vertex  1.318809e-02  1.158731e-01  7.188570e-01
   endloop
 endfacet
 facet normal  0.000000e+00  1.000000e+00  0.000000e+00
   outer loop
     vertex -1.507936e-01  1.158731e-01 -1.587302e-02
     vertex -1.507936e-01  1.158731e-01  9.841270e-01
     vertex  1.163821e-02  1.158731e-01  7.228808e-01
   endloop
 endfacet
 facet normal  0.000000e+00  1.000000e+00 -0.000000e+00
   outer loop
     vertex  2.698417e-02  1.158731e-01 -1.587302e-02
     vertex  2.277864e-02  1.158731e-01  7.105647e-01
     vertex  2.698417e-02  1.158731e-01  7.096122e-01
   endloop
 endfacet
 facet normal  0.000000e+00  1.000000e+00  0.000000e+00
   outer loop
     vertex  2.698417e-02  1.158731e-01 -1.587302e-02
     vertex -1.507936e-01  1.158731e-01 -1.587302e-02
     vertex  2.277864e-02  1.158731e-01  7.105647e-01
   endloop
 endfacet
 facet normal -1.000000e+00 -0.000000e+00  0.000000e+00
   outer loop
     vertex -1.507936e-01  1.158731e-01 -1.587302e-02
     vertex -1.507936e-01 -2.396825e-01 -3.174603e-02
     vertex -1.507936e-01 -2.396825e-01 -1.587302e-02
   endloop
 endfacet
 facet normal -1.000000e+00  0.000000e+00 -0.000000e+00
   outer loop
     vertex -1.507936e-01  1.158731e-01 -1.587302e-02
     vertex -1.507936e-01  1.158731e-01 -3.174603e-02
     vertex -1.507936e-01 -2.396825e-01 -3.174603e-02
   endloop
 endfacet
 facet normal  0.000000e+00  0.000000e+00  1.000000e+00
   outer loop
     vertex  2.698417e-02  1.158731e-01  9.841270e-01
     vertex -1.507936e-01 -2.396825e-01  9.841270e-01
     vertex  2.698417e-02 -2.396825e-01  9.841270e-01
   endloop
 endfacet
 facet normal  0.000000e+00  0.000000e+00  1.000000e+00
   outer loop
     vertex  2.698417e-02  1.158731e-01  9.841270e-01
     vertex -1.507936e-01  1.158731e-01  9.841270e-01
     vertex -1.507936e-01 -2.396825e-01  9.841270e-01
   endloop
 endfacet
 facet normal  1.000000e+00 -1.681348e-16  0.000000e+00
   outer loop
     vertex  2.698417e-02  9.523815e-02  9.281303e-01
     vertex  2.698417e-02  1.158731e-01  9.281303e-01
     vertex  2.698417e-02  1.158731e-01  9.841270e-01
   endloop
 endfacet
 facet normal  1.000000e+00 -1.681348e-16  0.000000e+00
   outer loop
     vertex  2.698417e-02  9.523815e-02  7.447088e-01
     vertex  2.698417e-02  1.158731e-01  7.447088e-01
     vertex  2.698417e-02  1.158731e-01  8.930338e-01
   endloop
 endfacet
 facet normal  1.000000e+00  1.681348e-16 -4.678171e-17
   outer loop
     vertex  2.698417e-02  9.523815e-02  7.447088e-01
     vertex  2.698417e-02  1.158731e-01  8.930338e-01
     vertex  2.698417e-02  9.523815e-02  8.930338e-01
   endloop
 endfacet
 facet normal  1.000000e+00  1.516911e-16  1.977086e-16
   outer loop
     vertex  2.698417e-02 -2.396825e-01  9.841270e-01
     vertex  2.698417e-02  9.523815e-02  7.096122e-01
     vertex  2.698417e-02  9.523815e-02  7.447088e-01
   endloop
 endfacet
 facet normal  1.000000e+00  4.341465e-17  1.977086e-16
   outer loop
     vertex  2.698417e-02 -2.396825e-01  9.841270e-01
     vertex  2.698417e-02  9.523815e-02  8.930338e-01
     vertex  2.698417e-02  9.523815e-02  9.281303e-01
   endloop
 endfacet
 facet normal  1.000000e+00  0.000000e+00 -6.195812e-17
   outer loop
     vertex  2.698417e-02 -2.396825e-01  9.841270e-01
     vertex  2.698417e-02  9.523815e-02  9.281303e-01
     vertex  2.698417e-02  1.158731e-01  9.841270e-01
   endloop
 endfacet
 facet normal  1.000000e+00 -2.308291e-17 -4.678171e-17
   outer loop
     vertex  2.698417e-02 -2.396825e-01  9.841270e-01
     vertex  2.698417e-02  9.523815e-02  7.447088e-01
     vertex  2.698417e-02  9.523815e-02  8.930338e-01
   endloop
 endfacet
 facet normal  1.000000e+00  1.681348e-16 -0.000000e+00
   outer loop
     vertex  2.698417e-02  1.158731e-01 -1.587302e-02
     vertex  2.698417e-02  1.158731e-01  7.096122e-01
     vertex  2.698417e-02  9.523815e-02  7.096122e-01
   endloop
 endfacet
 facet normal  1.000000e+00 -1.035901e-17  0.000000e+00
   outer loop
     vertex  2.698417e-02 -2.396825e-01 -1.587302e-02
     vertex  2.698417e-02  9.523815e-02  7.096122e-01
     vertex  2.698417e-02 -2.396825e-01  9.841270e-01
   endloop
 endfacet
 facet normal  1.000000e+00  0.000000e+00 -4.782243e-18
   outer loop
     vertex  2.698417e-02 -2.396825e-01 -1.587302e-02
     vertex  2.698417e-02  1.158731e-01 -1.587302e-02
     vertex  2.698417e-02  9.523815e-02  7.096122e-01
   endloop
 endfacet
 facet normal  0.000000e+00 -1.000000e+00  0.000000e+00
   outer loop
     vertex -1.507936e-01 -2.396825e-01 -1.587302e-02
     vertex  2.698417e-02 -2.396825e-01 -3.174603e-02
     vertex  2.698417e-02 -2.396825e-01 -1.587302e-02
   endloop
 endfacet
 facet normal  0.000000e+00 -1.000000e+00  0.000000e+00
   outer loop
     vertex -1.507936e-01 -2.396825e-01 -1.587302e-02
     vertex -1.507936e-01 -2.396825e-01 -3.174603e-02
     vertex  2.698417e-02 -2.396825e-01 -3.174603e-02
   endloop
 endfacet
 facet normal  0.000000e+00  1.000000e+00  0.000000e+00
   outer loop
     vertex  2.698417e-02  1.158731e-01 -1.587302e-02
     vertex -1.507936e-01  1.158731e-01 -3.174603e-02
     vertex -1.507936e-01  1.158731e-01 -1.587302e-02
   endloop
 endfacet
 facet normal  0.000000e+00  1.000000e+00  0.000000e+00
   outer loop
     vertex  2.698417e-02  1.158731e-01 -1.587302e-02
     vertex  2.698417e-02  1.158731e-01 -3.174603e-02
     vertex -1.507936e-01  1.158731e-01 -3.174603e-02
   endloop
 endfacet
 facet normal  2.208793e-01  1.052860e-14  9.753012e-01
   outer loop
     vertex  2.277864e-02  1.158731e-01  7.105647e-01
     vertex  2.698417e-02  9.523815e-02  7.096122e-01
     vertex  2.698417e-02  1.158731e-01  7.096122e-01
   endloop
 endfacet
 facet normal  2.208793e-01 -2.971000e-16  9.753012e-01
   outer loop
     vertex  2.277864e-02  1.158731e-01  7.105647e-01
     vertex  2.277864e-02  9.523815e-02  7.105647e-01
     vertex  2.698417e-02  9.523815e-02  7.096122e-01
   endloop
 endfacet
 facet normal  4.509429e-01  4.195661e-15  8.925528e-01
   outer loop
     vertex  1.892992e-02  1.158731e-01  7.125092e-01
     vertex  1.892992e-02  9.523815e-02  7.125092e-01
     vertex  2.277864e-02  9.523815e-02  7.105647e-01
   endloop
 endfacet
 facet normal  4.509429e-01 -5.997302e-16  8.925528e-01
   outer loop
     vertex  1.892992e-02  1.158731e-01  7.125092e-01
     vertex  2.277864e-02  9.523815e-02  7.105647e-01
     vertex  2.277864e-02  1.158731e-01  7.105647e-01
   endloop
 endfacet
 facet normal  6.540507e-01  3.520099e-15  7.564507e-01
   outer loop
     vertex  1.566807e-02  1.158731e-01  7.153295e-01
     vertex  1.566807e-02  9.523815e-02  7.153295e-01
     vertex  1.892992e-02  9.523815e-02  7.125092e-01
   endloop
 endfacet
 facet normal  6.540507e-01  3.179522e-15  7.564507e-01
   outer loop
     vertex  1.566807e-02  1.158731e-01  7.153295e-01
     vertex  1.892992e-02  9.523815e-02  7.125092e-01
     vertex  1.892992e-02  1.158731e-01  7.125092e-01
   endloop
 endfacet
 facet normal  8.180616e-01 -6.189509e-16  5.751306e-01
   outer loop
     vertex  1.318809e-02  1.158731e-01  7.188570e-01
     vertex  1.318809e-02  9.523815e-02  7.188570e-01
     vertex  1.566807e-02  9.523815e-02  7.153295e-01
   endloop
 endfacet
 facet normal  8.180616e-01  2.398921e-15  5.751306e-01
   outer loop
     vertex  1.318809e-02  1.158731e-01  7.188570e-01
     vertex  1.566807e-02  9.523815e-02  7.153295e-01
     vertex  1.566807e-02  1.158731e-01  7.153295e-01
   endloop
 endfacet
 facet normal  9.331716e-01  1.620056e-15  3.594312e-01
   outer loop
     vertex  1.163821e-02  1.158731e-01  7.228808e-01
     vertex  1.163821e-02  9.523815e-02  7.228808e-01
     vertex  1.318809e-02  9.523815e-02  7.188570e-01
   endloop
 endfacet
 facet normal  9.331716e-01 -7.044450e-16  3.594312e-01
   outer loop
     vertex  1.163821e-02  1.158731e-01  7.228808e-01
     vertex  1.318809e-02  9.523815e-02  7.188570e-01
     vertex  1.318809e-02  1.158731e-01  7.188570e-01
   endloop
 endfacet
 facet normal  9.924998e-01  0.000000e+00  1.222462e-01
   outer loop
     vertex  1.111108e-02  1.158731e-01  7.271605e-01
     vertex  1.111108e-02  9.523815e-02  7.271605e-01
     vertex  1.163821e-02  9.523815e-02  7.228808e-01
   endloop
 endfacet
 facet normal  9.924998e-01  3.236639e-16  1.222462e-01
   outer loop
     vertex  1.111108e-02  1.158731e-01  7.271605e-01
     vertex  1.163821e-02  9.523815e-02  7.228808e-01
     vertex  1.163821e-02  1.158731e-01  7.228808e-01
   endloop
 endfacet
 facet normal  9.924998e-01  0.000000e+00 -1.222462e-01
   outer loop
     vertex  1.163821e-02  1.158731e-01  7.314402e-01
     vertex  1.111108e-02  9.523815e-02  7.271605e-01
     vertex  1.111108e-02  1.158731e-01  7.271605e-01
   endloop
 endfacet
 facet normal  9.924998e-01  0.000000e+00 -1.222462e-01
   outer loop
     vertex  1.163821e-02  1.158731e-01  7.314402e-01
     vertex  1.163821e-02  9.523815e-02  7.314402e-01
     vertex  1.111108e-02  9.523815e-02  7.271605e-01
   endloop
 endfacet
 facet normal  9.331716e-01 -2.353480e-16 -3.594312e-01
   outer loop
     vertex  1.318809e-02  1.158731e-01  7.354641e-01
     vertex  1.318809e-02  9.523815e-02  7.354641e-01
     vertex  1.163821e-02  9.523815e-02  7.314402e-01
   endloop
 endfacet
 facet normal  9.331716e-01  0.000000e+00 -3.594312e-01
   outer loop
     vertex  1.318809e-02  1.158731e-01  7.354641e-01
     vertex  1.163821e-02  9.523815e-02  7.314402e-01
     vertex  1.163821e-02  1.158731e-01  7.314402e-01
   endloop
 endfacet
 facet normal  8.180616e-01 -2.750893e-16 -5.751306e-01
   outer loop
     vertex  1.566807e-02  1.158731e-01  7.389916e-01
     vertex  1.566807e-02  9.523815e-02  7.389916e-01
     vertex  1.318809e-02  9.523815e-02  7.354641e-01
   endloop
 endfacet
 facet normal  8.180616e-01 -2.094296e-16 -5.751306e-01
   outer loop
     vertex  1.566807e-02  1.158731e-01  7.389916e-01
     vertex  1.318809e-02  9.523815e-02  7.354641e-01
     vertex  1.318809e-02  1.158731e-01  7.354641e-01
   endloop
 endfacet
 facet normal  6.540507e-01 -4.398748e-16 -7.564507e-01
   outer loop
     vertex  1.892992e-02  1.158731e-01  7.418119e-01
     vertex  1.892992e-02  9.523815e-02  7.418119e-01
     vertex  1.566807e-02  9.523815e-02  7.389916e-01
   endloop
 endfacet
 facet normal  6.540507e-01 -2.094296e-16 -7.564507e-01
   outer loop
     vertex  1.892992e-02  1.158731e-01  7.418119e-01
     vertex  1.566807e-02  9.523815e-02  7.389916e-01
     vertex  1.566807e-02  1.158731e-01  7.389916e-01
   endloop
 endfacet
 facet normal  4.509429e-01  4.347300e-15 -8.925528e-01
   outer loop
     vertex  2.277864e-02  1.158731e-01  7.437564e-01
     vertex  2.277864e-02  9.523815e-02  7.437564e-01
     vertex  1.892992e-02  9.523815e-02  7.418119e-01
   endloop
 endfacet
 facet normal  4.509429e-01 -3.046249e-16 -8.925528e-01
   outer loop
     vertex  2.277864e-02  1.158731e-01  7.437564e-01
     vertex  1.892992e-02  9.523815e-02  7.418119e-01
     vertex  1.892992e-02  1.158731e-01  7.418119e-01
   endloop
 endfacet
 facet normal  2.208793e-01  1.045772e-14 -9.753012e-01
   outer loop
     vertex  2.698417e-02  1.158731e-01  7.447088e-01
     vertex  2.698417e-02  9.523815e-02  7.447088e-01
     vertex  2.277864e-02  9.523815e-02  7.437564e-01
   endloop
 endfacet
 facet normal  2.208793e-01  5.026310e-15 -9.753012e-01
   outer loop
     vertex  2.698417e-02  1.158731e-01  7.447088e-01
     vertex  2.277864e-02  9.523815e-02  7.437564e-01
     vertex  2.277864e-02  1.158731e-01  7.437564e-01
   endloop
 endfacet
 facet normal  2.208793e-01  1.522077e-13  9.753012e-01
   outer loop
     vertex  2.277864e-02  1.158731e-01  8.939862e-01
     vertex  2.698417e-02  9.523815e-02  8.930338e-01
     vertex  2.698417e-02  1.158731e-01  8.930338e-01
   endloop
 endfacet
 facet normal  2.208793e-01 -2.673900e-15  9.753012e-01
   outer loop
     vertex  2.277864e-02  1.158731e-01  8.939862e-01
     vertex  2.277864e-02  9.523815e-02  8.939862e-01
     vertex  2.698417e-02  9.523815e-02  8.930338e-01
   endloop
 endfacet
 facet normal  4.509429e-01  8.596161e-16  8.925528e-01
   outer loop
     vertex  1.892992e-02  1.158731e-01  8.959307e-01
     vertex  1.892992e-02  9.523815e-02  8.959307e-01
     vertex  2.277864e-02  9.523815e-02  8.939862e-01
   endloop
 endfacet
 facet normal  4.509429e-01 -5.464208e-15  8.925528e-01
   outer loop
     vertex  1.892992e-02  1.158731e-01  8.959307e-01
     vertex  2.277864e-02  9.523815e-02  8.939862e-01
     vertex  2.277864e-02  1.158731e-01  8.939862e-01
   endloop
 endfacet
 facet normal  6.540507e-01  4.409757e-16  7.564507e-01
   outer loop
     vertex  1.566807e-02  1.158731e-01  8.987510e-01
     vertex  1.566807e-02  9.523815e-02  8.987510e-01
     vertex  1.892992e-02  9.523815e-02  8.959307e-01
   endloop
 endfacet
 facet normal  6.540507e-01 -1.637359e-15  7.564507e-01
   outer loop
     vertex  1.566807e-02  1.158731e-01  8.987510e-01
     vertex  1.892992e-02  9.523815e-02  8.959307e-01
     vertex  1.892992e-02  1.158731e-01  8.959307e-01
   endloop
 endfacet
 facet normal  8.180616e-01  6.873524e-16  5.751306e-01
   outer loop
     vertex  1.318809e-02  1.158731e-01  9.022785e-01
     vertex  1.318809e-02  9.523815e-02  9.022785e-01
     vertex  1.566807e-02  9.523815e-02  8.987510e-01
   endloop
 endfacet
 facet normal  8.180616e-01 -1.446968e-15  5.751306e-01
   outer loop
     vertex  1.318809e-02  1.158731e-01  9.022785e-01
     vertex  1.566807e-02  9.523815e-02  8.987510e-01
     vertex  1.566807e-02  1.158731e-01  8.987510e-01
   endloop
 endfacet
 facet normal  9.331716e-01  1.149360e-15  3.594312e-01
   outer loop
     vertex  1.163821e-02  1.158731e-01  9.063024e-01
     vertex  1.163821e-02  9.523815e-02  9.063024e-01
     vertex  1.318809e-02  9.523815e-02  9.022785e-01
   endloop
 endfacet
 facet normal  9.331716e-01 -8.091598e-16  3.594312e-01
   outer loop
     vertex  1.163821e-02  1.158731e-01  9.063024e-01
     vertex  1.318809e-02  9.523815e-02  9.022785e-01
     vertex  1.318809e-02  1.158731e-01  9.022785e-01
   endloop
 endfacet
 facet normal  9.924998e-01  0.000000e+00  1.222462e-01
   outer loop
     vertex  1.111108e-02  1.158731e-01  9.105820e-01
     vertex  1.111108e-02  9.523815e-02  9.105820e-01
     vertex  1.163821e-02  9.523815e-02  9.063024e-01
   endloop
 endfacet
 facet normal  9.924998e-01 -1.761112e-16  1.222462e-01
   outer loop
     vertex  1.111108e-02  1.158731e-01  9.105820e-01
     vertex  1.163821e-02  9.523815e-02  9.063024e-01
     vertex  1.163821e-02  1.158731e-01  9.063024e-01
   endloop
 endfacet
 facet normal  9.924998e-01  0.000000e+00 -1.222462e-01
   outer loop
     vertex  1.163821e-02  1.158731e-01  9.148617e-01
     vertex  1.111108e-02  9.523815e-02  9.105820e-01
     vertex  1.111108e-02  1.158731e-01  9.105820e-01
   endloop
 endfacet
 facet normal  9.924998e-01 -9.772026e-18 -1.222462e-01
   outer loop
     vertex  1.163821e-02  1.158731e-01  9.148617e-01
     vertex  1.163821e-02  9.523815e-02  9.148617e-01
     vertex  1.111108e-02  9.523815e-02  9.105820e-01
   endloop
 endfacet
 facet normal  9.331716e-01 -4.980761e-16 -3.594312e-01
   outer loop
     vertex  1.318809e-02  1.158731e-01  9.188856e-01
     vertex  1.318809e-02  9.523815e-02  9.188856e-01
     vertex  1.163821e-02  9.523815e-02  9.148617e-01
   endloop
 endfacet
 facet normal  9.331716e-01  1.304175e-15 -3.594312e-01
   outer loop
     vertex  1.318809e-02  1.158731e-01  9.188856e-01
     vertex  1.163821e-02  9.523815e-02  9.148617e-01
     vertex  1.163821e-02  1.158731e-01  9.148617e-01
   endloop
 endfacet
 facet normal  8.180616e-01 -1.307045e-15 -5.751306e-01
   outer loop
     vertex  1.566807e-02  1.158731e-01  9.224131e-01
     vertex  1.566807e-02  9.523815e-02  9.224131e-01
     vertex  1.318809e-02  9.523815e-02  9.188856e-01
   endloop
 endfacet
 facet normal  8.180616e-01  9.519527e-16 -5.751306e-01
   outer loop
     vertex  1.566807e-02  1.158731e-01  9.224131e-01
     vertex  1.318809e-02  9.523815e-02  9.188856e-01
     vertex  1.318809e-02  1.158731e-01  9.188856e-01
   endloop
 endfacet
 facet normal  6.540507e-01 -1.758398e-15 -7.564507e-01
   outer loop
     vertex  1.892992e-02  1.158731e-01  9.252334e-01
     vertex  1.892992e-02  9.523815e-02  9.252334e-01
     vertex  1.566807e-02  9.523815e-02  9.224131e-01
   endloop
 endfacet
 facet normal  4.509429e-01  7.837969e-16 -8.925528e-01
   outer loop
     vertex  1.892992e-02  1.158731e-01  9.252334e-01
     vertex  2.277864e-02  9.523815e-02  9.271779e-01
     vertex  1.892992e-02  9.523815e-02  9.252334e-01
   endloop
 endfacet
 facet normal  6.540507e-01  5.521326e-16 -7.564507e-01
   outer loop
     vertex  1.892992e-02  1.158731e-01  9.252334e-01
     vertex  1.566807e-02  9.523815e-02  9.224131e-01
     vertex  1.566807e-02  1.158731e-01  9.224131e-01
   endloop
 endfacet
 facet normal  4.509429e-01 -9.600449e-16 -8.925528e-01
   outer loop
     vertex  2.277864e-02  1.158731e-01  9.271779e-01
     vertex  2.277864e-02  9.523815e-02  9.271779e-01
     vertex  1.892992e-02  1.158731e-01  9.252334e-01
   endloop
 endfacet
 facet normal  2.208793e-01  1.573857e-13 -9.753012e-01
   outer loop
     vertex  2.698417e-02  1.158731e-01  9.281303e-01
     vertex  2.698417e-02  9.523815e-02  9.281303e-01
     vertex  2.277864e-02  9.523815e-02  9.271779e-01
   endloop
 endfacet
 facet normal  2.208793e-01  2.427479e-15 -9.753012e-01
   outer loop
     vertex  2.698417e-02  1.158731e-01  9.281303e-01
     vertex  2.277864e-02  9.523815e-02  9.271779e-01
     vertex  2.277864e-02  1.158731e-01  9.271779e-01
   endloop
 endfacet
 facet normal  0.000000e+00 -0.000000e+00 -1.000000e+00
   outer loop
     vertex  2.698417e-02  1.158731e-01 -3.174603e-02
     vertex  2.698417e-02 -2.396825e-01 -3.174603e-02
     vertex -1.507936e-01 -2.396825e-01 -3.174603e-02
   endloop
 endfacet
 facet normal -0.000000e+00  0.000000e+00 -1.000000e+00
   outer loop
     vertex  2.698417e-02  1.158731e-01 -3.174603e-02
     vertex -1.507936e-01 -2.396825e-01 -3.174603e-02
     vertex -1.507936e-01  1.158731e-01 -3.174603e-02
   endloop
 endfacet
 facet normal  1.000000e+00 -0.000000e+00  0.000000e+00
   outer loop
     vertex  2.698417e-02 -2.396825e-01 -1.587302e-02
     vertex  2.698417e-02  1.158731e-01 -3.174603e-02
     vertex  2.698417e-02  1.158731e-01 -1.587302e-02
   endloop
 endfacet
 facet normal  1.000000e+00  0.000000e+00  0.000000e+00
   outer loop
     vertex  2.698417e-02 -2.396825e-01 -1.587302e-02
     vertex  2.698417e-02 -2.396825e-01 -3.174603e-02
     vertex  2.698417e-02  1.158731e-01 -3.174603e-02
   endloop
 endfacet
 facet normal  0.000000e+00  1.000000e+00  0.000000e+00
   outer loop
     vertex  1.566807e-02  9.523815e-02  9.224131e-01
     vertex  2.698417e-02  9.523815e-02  8.930338e-01
     vertex  2.277864e-02  9.523815e-02  8.939862e-01
   endloop
 endfacet
 facet normal  0.000000e+00  1.000000e+00  0.000000e+00
   outer loop
     vertex  1.566807e-02  9.523815e-02  9.224131e-01
     vertex  2.277864e-02  9.523815e-02  8.939862e-01
     vertex  1.892992e-02  9.523815e-02  8.959307e-01
   endloop
 endfacet
 facet normal  0.000000e+00  1.000000e+00  0.000000e+00
   outer loop
     vertex  1.566807e-02  9.523815e-02  9.224131e-01
     vertex  1.892992e-02  9.523815e-02  8.959307e-01
     vertex  1.566807e-02  9.523815e-02  8.987510e-01
   endloop
 endfacet
 facet normal  0.000000e+00  1.000000e+00  0.000000e+00
   outer loop
     vertex  1.566807e-02  9.523815e-02  9.224131e-01
     vertex  1.566807e-02  9.523815e-02  8.987510e-01
     vertex  1.318809e-02  9.523815e-02  9.022785e-01
   endloop
 endfacet
 facet normal  0.000000e+00  1.000000e+00  0.000000e+00
   outer loop
     vertex  1.566807e-02  9.523815e-02  9.224131e-01
     vertex  1.318809e-02  9.523815e-02  9.022785e-01
     vertex  1.163821e-02  9.523815e-02  9.063024e-01
   endloop
 endfacet
 facet normal  0.000000e+00  1.000000e+00  0.000000e+00
   outer loop
     vertex  1.566807e-02  9.523815e-02  9.224131e-01
     vertex  1.163821e-02  9.523815e-02  9.063024e-01
     vertex  1.111108e-02  9.523815e-02  9.105820e-01
   endloop
 endfacet
 facet normal  0.000000e+00  1.000000e+00  0.000000e+00
   outer loop
     vertex  1.566807e-02  9.523815e-02  9.224131e-01
     vertex  1.111108e-02  9.523815e-02  9.105820e-01
     vertex  1.163821e-02  9.523815e-02  9.148617e-01
   endloop
 endfacet
 facet normal  0.000000e+00  1.000000e+00  0.000000e+00
   outer loop
     vertex  1.566807e-02  9.523815e-02  9.224131e-01
     vertex  1.163821e-02  9.523815e-02  9.148617e-01
     vertex  1.318809e-02  9.523815e-02  9.188856e-01
   endloop
 endfacet
 facet normal  0.000000e+00  1.000000e+00  0.000000e+00
   outer loop
     vertex  1.566807e-02  9.523815e-02  9.224131e-01
     vertex  1.892992e-02  9.523815e-02  9.252334e-01
     vertex  2.277864e-02  9.523815e-02  9.271779e-01
   endloop
 endfacet
 facet normal  0.000000e+00  1.000000e+00  0.000000e+00
   outer loop
     vertex  1.566807e-02  9.523815e-02  9.224131e-01
     vertex  2.277864e-02  9.523815e-02  9.271779e-01
     vertex  2.698417e-02  9.523815e-02  9.281303e-01
   endloop
 endfacet
 facet normal -0.000000e+00  1.000000e+00  0.000000e+00
   outer loop
     vertex  1.566807e-02  9.523815e-02  9.224131e-01
     vertex  2.698417e-02  9.523815e-02  9.281303e-01
     vertex  2.698417e-02  9.523815e-02  8.930338e-01
   endloop
 endfacet
 facet normal  0.000000e+00  1.000000e+00  0.000000e+00
   outer loop
     vertex  1.566807e-02  9.523815e-02  7.389916e-01
     vertex  2.698417e-02  9.523815e-02  7.096122e-01
     vertex  2.277864e-02  9.523815e-02  7.105647e-01
   endloop
 endfacet
 facet normal  0.000000e+00  1.000000e+00  0.000000e+00
   outer loop
     vertex  1.566807e-02  9.523815e-02  7.389916e-01
     vertex  2.277864e-02  9.523815e-02  7.105647e-01
     vertex  1.892992e-02  9.523815e-02  7.125092e-01
   endloop
 endfacet
 facet normal  0.000000e+00  1.000000e+00  0.000000e+00
   outer loop
     vertex  1.566807e-02  9.523815e-02  7.389916e-01
     vertex  1.892992e-02  9.523815e-02  7.125092e-01
     vertex  1.566807e-02  9.523815e-02  7.153295e-01
   endloop
 endfacet
 facet normal  0.000000e+00  1.000000e+00  0.000000e+00
   outer loop
     vertex  1.566807e-02  9.523815e-02  7.389916e-01
     vertex  1.566807e-02  9.523815e-02  7.153295e-01
     vertex  1.318809e-02  9.523815e-02  7.188570e-01
   endloop
 endfacet
 facet normal  0.000000e+00  1.000000e+00  0.000000e+00
   outer loop
     vertex  1.566807e-02  9.523815e-02  7.389916e-01
     vertex  1.318809e-02  9.523815e-02  7.188570e-01
     vertex  1.163821e-02  9.523815e-02  7.228808e-01
   endloop
 endfacet
 facet normal  0.000000e+00  1.000000e+00  0.000000e+00
   outer loop
     vertex  1.566807e-02  9.523815e-02  7.389916e-01
     vertex  1.163821e-02  9.523815e-02  7.228808e-01
     vertex  1.111108e-02  9.523815e-02  7.271605e-01
   endloop
 endfacet
 facet normal  0.000000e+00  1.000000e+00  0.000000e+00
   outer loop
     vertex  1.566807e-02  9.523815e-02  7.389916e-01
     vertex  1.111108e-02  9.523815e-02  7.271605e-01
     vertex  1.163821e-02  9.523815e-02  7.314402e-01
   endloop
 endfacet
 facet normal  0.000000e+00  1.000000e+00  0.000000e+00
   outer loop
     vertex  1.566807e-02  9.523815e-02  7.389916e-01
     vertex  1.163821e-02  9.523815e-02  7.314402e-01
     vertex  1.318809e-02  9.523815e-02  7.354641e-01
   endloop
 endfacet
 facet normal  0.000000e+00  1.000000e+00  0.000000e+00
   outer loop
     vertex  1.566807e-02  9.523815e-02  7.389916e-01
     vertex  1.892992e-02  9.523815e-02  7.418119e-01
     vertex  2.277864e-02  9.523815e-02  7.437564e-01
   endloop
 endfacet
 facet normal  0.000000e+00  1.000000e+00  0.000000e+00
   outer loop
     vertex  1.566807e-02  9.523815e-02  7.389916e-01
     vertex  2.277864e-02  9.523815e-02  7.437564e-01
     vertex  2.698417e-02  9.523815e-02  7.447088e-01
   endloop
 endfacet
 facet normal -0.000000e+00  1.000000e+00  0.000000e+00
   outer loop
     vertex  1.566807e-02  9.523815e-02  7.389916e-01
     vertex  2.698417e-02  9.523815e-02  7.447088e-01
     vertex  2.698417e-02  9.523815e-02  7.096122e-01
   endloop
 endfacet
endsolid
