solid 
 facet normal  0.000000e+00 -1.000000e+00  0.000000e+00
   outer loop
     vertex -8.982364e-01 -6.296304e-02 -1.587302e-02
     vertex -8.841270e-01 -6.296304e-02  2.222223e-01
     vertex -8.982364e-01 -6.296304e-02  3.492064e-01
   endloop
 endfacet
 facet normal  0.000000e+00 -1.000000e+00  0.000000e+00
   outer loop
     vertex -8.841270e-01 -6.296304e-02 -1.587302e-02
     vertex -8.841270e-01 -6.296304e-02  2.222223e-01
     vertex -8.982364e-01 -6.296304e-02 -1.587302e-02
   endloop
 endfacet
 facet normal -0.000000e+00 -1.000000e+00  0.000000e+00
   outer loop
     vertex  9.218695e-01 -6.296304e-02  3.492064e-01
     vertex -8.982364e-01 -6.296304e-02  3.492064e-01
     vertex -8.841270e-01 -6.296304e-02  2.222223e-01
   endloop
 endfacet
 facet normal  7.738696e-18 -1.000000e+00 -1.100615e-16
   outer loop
     vertex  9.091710e-01 -6.296304e-02  2.222223e-01
     vertex  9.218695e-01 -6.296304e-02  3.492064e-01
     vertex -8.841270e-01 -6.296304e-02  2.222223e-01
   endloop
 endfacet
 facet normal -1.092876e-15 -1.000000e+00  0.000000e+00
   outer loop
     vertex  9.218695e-01 -6.296304e-02 -1.587302e-02
     vertex  9.091710e-01 -6.296304e-02  2.222223e-01
     vertex  9.091710e-01 -6.296304e-02 -1.587302e-02
   endloop
 endfacet
 facet normal -1.092876e-15 -1.000000e+00 -0.000000e+00
   outer loop
     vertex  9.218695e-01 -6.296304e-02  3.492064e-01
     vertex  9.091710e-01 -6.296304e-02  2.222223e-01
     vertex  9.218695e-01 -6.296304e-02 -1.587302e-02
   endloop
 endfacet
 facet normal -0.000000e+00 -1.000000e+00 -0.000000e+00
   outer loop
     vertex -8.841270e-01 -6.296304e-02 -1.587302e-02
     vertex -8.982364e-01 -6.296304e-02 -1.587302e-02
     vertex -8.841270e-01 -6.296304e-02 -2.857143e-01
   endloop
 endfacet
 facet normal  0.000000e+00 -1.000000e+00  0.000000e+00
   outer loop
     vertex  9.218695e-01 -6.296304e-02 -4.126984e-01
     vertex -8.841270e-01 -6.296304e-02 -2.857143e-01
     vertex -8.982364e-01 -6.296304e-02 -4.126984e-01
   endloop
 endfacet
 facet normal  7.738696e-18 -1.000000e+00  1.100615e-16
   outer loop
     vertex  9.091710e-01 -6.296304e-02 -2.857143e-01
     vertex -8.841270e-01 -6.296304e-02 -2.857143e-01
     vertex  9.218695e-01 -6.296304e-02 -4.126984e-01
   endloop
 endfacet
 facet normal -1.092876e-15 -1.000000e+00  0.000000e+00
   outer loop
     vertex  9.218695e-01 -6.296304e-02 -1.587302e-02
     vertex  9.091710e-01 -6.296304e-02 -1.587302e-02
     vertex  9.091710e-01 -6.296304e-02 -2.857143e-01
   endloop
 endfacet
 facet normal  0.000000e+00 -1.000000e+00  0.000000e+00
   outer loop
     vertex -8.982364e-01 -6.296304e-02 -1.587302e-02
     vertex -8.982364e-01 -6.296304e-02 -4.126984e-01
     vertex -8.841270e-01 -6.296304e-02 -2.857143e-01
   endloop
 endfacet
 facet normal -1.092876e-15 -1.000000e+00  0.000000e+00
   outer loop
     vertex  9.218695e-01 -6.296304e-02 -4.126984e-01
     vertex  9.218695e-01 -6.296304e-02 -1.587302e-02
     vertex  9.091710e-01 -6.296304e-02 -2.857143e-01
   endloop
 endfacet
 facet normal -1.000000e+00  0.000000e+00  0.000000e+00
   outer loop
     vertex -8.841270e-01 -1.892416e-01 -1.587302e-02
     vertex -8.841270e-01 -6.296304e-02  2.222223e-01
     vertex -8.841270e-01 -6.296304e-02 -1.587302e-02
   endloop
 endfacet
 facet normal -1.000000e+00  0.000000e+00  0.000000e+00
   outer loop
     vertex -8.841270e-01 -1.892416e-01 -1.587302e-02
     vertex -8.841270e-01 -1.892416e-01  2.222223e-01
     vertex -8.841270e-01 -6.296304e-02  2.222223e-01
   endloop
 endfacet
 facet normal  0.000000e+00  0.000000e+00  1.000000e+00
   outer loop
     vertex  9.091710e-01 -6.296304e-02  2.222223e-01
     vertex -8.841270e-01 -6.296304e-02  2.222223e-01
     vertex -8.841270e-01 -1.892416e-01  2.222223e-01
   endloop
 endfacet
 facet normal  0.000000e+00  0.000000e+00  1.000000e+00
   outer loop
     vertex  9.091710e-01 -6.296304e-02  2.222223e-01
     vertex -8.841270e-01 -1.892416e-01  2.222223e-01
     vertex  9.091710e-01 -1.892416e-01  2.222223e-01
   endloop
 endfacet
 facet normal  1.000000e+00  0.000000e+00  0.000000e+00
   outer loop
     vertex  9.091710e-01 -6.296304e-02 -1.587302e-02
     vertex  9.091710e-01 -1.892416e-01  2.222223e-01
     vertex  9.091710e-01 -1.892416e-01 -1.587302e-02
   endloop
 endfacet
 facet normal  1.000000e+00  0.000000e+00 -0.000000e+00
   outer loop
     vertex  9.091710e-01 -6.296304e-02 -1.587302e-02
     vertex  9.091710e-01 -6.296304e-02  2.222223e-01
     vertex  9.091710e-01 -1.892416e-01  2.222223e-01
   endloop
 endfacet
 facet normal  1.000000e+00  0.000000e+00  0.000000e+00
   outer loop
     vertex  9.218695e-01  5.437389e-01 -1.587302e-02
     vertex  9.218695e-01 -6.296304e-02  3.492064e-01
     vertex  9.218695e-01 -6.296304e-02 -1.587302e-02
   endloop
 endfacet
 facet normal  1.000000e+00  0.000000e+00 -0.000000e+00
   outer loop
     vertex  9.218695e-01  5.437389e-01 -1.587302e-02
     vertex  9.218695e-01  5.437389e-01  3.492064e-01
     vertex  9.218695e-01 -6.296304e-02  3.492064e-01
   endloop
 endfacet
 facet normal  0.000000e+00  0.000000e+00  1.000000e+00
   outer loop
     vertex  9.218695e-01  5.437389e-01  3.492064e-01
     vertex -8.982364e-01 -6.296304e-02  3.492064e-01
     vertex  9.218695e-01 -6.296304e-02  3.492064e-01
   endloop
 endfacet
 facet normal  0.000000e+00  0.000000e+00  1.000000e+00
   outer loop
     vertex  9.218695e-01  5.437389e-01  3.492064e-01
     vertex -8.982364e-01  5.437389e-01  3.492064e-01
     vertex -8.982364e-01 -6.296304e-02  3.492064e-01
   endloop
 endfacet
 facet normal -1.000000e+00  0.000000e+00  0.000000e+00
   outer loop
     vertex -8.982364e-01 -6.296304e-02 -1.587302e-02
     vertex -8.982364e-01  5.437389e-01  3.492064e-01
     vertex -8.982364e-01  5.437389e-01 -1.587302e-02
   endloop
 endfacet
 facet normal -1.000000e+00  0.000000e+00  0.000000e+00
   outer loop
     vertex -8.982364e-01 -6.296304e-02 -1.587302e-02
     vertex -8.982364e-01 -6.296304e-02  3.492064e-01
     vertex -8.982364e-01  5.437389e-01  3.492064e-01
   endloop
 endfacet
 facet normal -1.000000e+00  0.000000e+00  0.000000e+00
   outer loop
     vertex -8.841270e-01 -1.892416e-01 -1.587302e-02
     vertex -8.841270e-01 -6.296304e-02 -1.587302e-02
     vertex -8.841270e-01 -6.296304e-02 -2.857143e-01
   endloop
 endfacet
 facet normal -1.000000e+00  0.000000e+00  0.000000e+00
   outer loop
     vertex -8.841270e-01 -1.892416e-01 -1.587302e-02
     vertex -8.841270e-01 -6.296304e-02 -2.857143e-01
     vertex -8.841270e-01 -1.892416e-01 -2.857143e-01
   endloop
 endfacet
 facet normal  0.000000e+00  0.000000e+00 -1.000000e+00
   outer loop
     vertex  9.091710e-01 -6.296304e-02 -2.857143e-01
     vertex -8.841270e-01 -1.892416e-01 -2.857143e-01
     vertex -8.841270e-01 -6.296304e-02 -2.857143e-01
   endloop
 endfacet
 facet normal  0.000000e+00 -0.000000e+00 -1.000000e+00
   outer loop
     vertex  9.091710e-01 -6.296304e-02 -2.857143e-01
     vertex  9.091710e-01 -1.892416e-01 -2.857143e-01
     vertex -8.841270e-01 -1.892416e-01 -2.857143e-01
   endloop
 endfacet
 facet normal  1.000000e+00  0.000000e+00  0.000000e+00
   outer loop
     vertex  9.091710e-01 -6.296304e-02 -1.587302e-02
     vertex  9.091710e-01 -1.892416e-01 -1.587302e-02
     vertex  9.091710e-01 -1.892416e-01 -2.857143e-01
   endloop
 endfacet
 facet normal  1.000000e+00  0.000000e+00  0.000000e+00
   outer loop
     vertex  9.091710e-01 -6.296304e-02 -1.587302e-02
     vertex  9.091710e-01 -1.892416e-01 -2.857143e-01
     vertex  9.091710e-01 -6.296304e-02 -2.857143e-01
   endloop
 endfacet
 facet normal  1.000000e+00  0.000000e+00  0.000000e+00
   outer loop
     vertex  9.218695e-01  5.437389e-01 -1.587302e-02
     vertex  9.218695e-01 -6.296304e-02 -1.587302e-02
     vertex  9.218695e-01 -6.296304e-02 -4.126984e-01
   endloop
 endfacet
 facet normal  1.000000e+00  0.000000e+00  0.000000e+00
   outer loop
     vertex  9.218695e-01  5.437389e-01 -1.587302e-02
     vertex  9.218695e-01 -6.296304e-02 -4.126984e-01
     vertex  9.218695e-01  5.437389e-01 -4.126984e-01
   endloop
 endfacet
 facet normal  0.000000e+00 -0.000000e+00 -1.000000e+00
   outer loop
     vertex  9.218695e-01  5.437389e-01 -4.126984e-01
     vertex  9.218695e-01 -6.296304e-02 -4.126984e-01
     vertex -8.982364e-01 -6.296304e-02 -4.126984e-01
   endloop
 endfacet
 facet normal -0.000000e+00  0.000000e+00 -1.000000e+00
   outer loop
     vertex  9.218695e-01  5.437389e-01 -4.126984e-01
     vertex -8.982364e-01 -6.296304e-02 -4.126984e-01
     vertex -8.982364e-01  5.437389e-01 -4.126984e-01
   endloop
 endfacet
 facet normal -1.000000e+00  0.000000e+00  0.000000e+00
   outer loop
     vertex -8.982364e-01 -6.296304e-02 -1.587302e-02
     vertex -8.982364e-01  5.437389e-01 -1.587302e-02
     vertex -8.982364e-01  5.437389e-01 -4.126984e-01
   endloop
 endfacet
 facet normal -1.000000e+00  0.000000e+00  0.000000e+00
   outer loop
     vertex -8.982364e-01 -6.296304e-02 -1.587302e-02
     vertex -8.982364e-01  5.437389e-01 -4.126984e-01
     vertex -8.982364e-01 -6.296304e-02 -4.126984e-01
   endloop
 endfacet
 facet normal  0.000000e+00 -1.000000e+00  0.000000e+00
   outer loop
     vertex  9.091710e-01 -1.892416e-01 -1.587302e-02
     vertex -8.841270e-01 -1.892416e-01  2.222223e-01
     vertex -8.841270e-01 -1.892416e-01 -1.587302e-02
   endloop
 endfacet
 facet normal  0.000000e+00 -1.000000e+00  0.000000e+00
   outer loop
     vertex  9.091710e-01 -1.892416e-01 -1.587302e-02
     vertex  9.091710e-01 -1.892416e-01  2.222223e-01
     vertex -8.841270e-01 -1.892416e-01  2.222223e-01
   endloop
 endfacet
 facet normal  0.000000e+00  1.000000e+00  0.000000e+00
   outer loop
     vertex -8.982364e-01  5.437389e-01 -1.587302e-02
     vertex  9.218695e-01  5.437389e-01  3.492064e-01
     vertex  9.218695e-01  5.437389e-01 -1.587302e-02
   endloop
 endfacet
 facet normal  0.000000e+00  1.000000e+00  0.000000e+00
   outer loop
     vertex -8.982364e-01  5.437389e-01 -1.587302e-02
     vertex -8.982364e-01  5.437389e-01  3.492064e-01
     vertex  9.218695e-01  5.437389e-01  3.492064e-01
   endloop
 endfacet
 facet normal -0.000000e+00 -1.000000e+00  0.000000e+00
   outer loop
     vertex  9.091710e-01 -1.892416e-01 -1.587302e-02
     vertex -8.841270e-01 -1.892416e-01 -1.587302e-02
     vertex -8.841270e-01 -1.892416e-01 -2.857143e-01
   endloop
 endfacet
 facet normal  0.000000e+00 -1.000000e+00 -0.000000e+00
   outer loop
     vertex  9.091710e-01 -1.892416e-01 -1.587302e-02
     vertex -8.841270e-01 -1.892416e-01 -2.857143e-01
     vertex  9.091710e-01 -1.892416e-01 -2.857143e-01
   endloop
 endfacet
 facet normal -0.000000e+00  1.000000e+00  0.000000e+00
   outer loop
     vertex -8.982364e-01  5.437389e-01 -1.587302e-02
     vertex  9.218695e-01  5.437389e-01 -1.587302e-02
     vertex  9.218695e-01  5.437389e-01 -4.126984e-01
   endloop
 endfacet
 facet normal  0.000000e+00  1.000000e+00  0.000000e+00
   outer loop
     vertex -8.982364e-01  5.437389e-01 -1.587302e-02
     vertex  9.218695e-01  5.437389e-01 -4.126984e-01
     vertex -8.982364e-01  5.437389e-01 -4.126984e-01
   endloop
 endfacet
endsolid
