solid 
 facet normal -9.054589e-01  0.000000e+00 -4.244339e-01
   outer loop
     vertex -6.223986e-01 -1.587302e-02 -2.439153e-01
     vertex -1.024515e+00 -3.174609e-02  6.139330e-01
     vertex -1.024515e+00 -1.587302e-02  6.139330e-01
   endloop
 endfacet
 facet normal -9.054589e-01 -0.000000e+00 -4.244339e-01
   outer loop
     vertex -6.223986e-01 -1.587302e-02 -2.439153e-01
     vertex -6.223986e-01 -3.174609e-02 -2.439153e-01
     vertex -1.024515e+00 -3.174609e-02  6.139330e-01
   endloop
 endfacet
 facet normal -0.000000e+00  0.000000e+00  1.000000e+00
   outer loop
     vertex -1.024515e+00 -1.587302e-02  6.139330e-01
     vertex -3.007055e-01 -3.174609e-02  6.139330e-01
     vertex -3.007055e-01 -1.587302e-02  6.139330e-01
   endloop
 endfacet
 facet normal  0.000000e+00  0.000000e+00  1.000000e+00
   outer loop
     vertex -1.024515e+00 -1.587302e-02  6.139330e-01
     vertex -1.024515e+00 -3.174609e-02  6.139330e-01
     vertex -3.007055e-01 -3.174609e-02  6.139330e-01
   endloop
 endfacet
 facet normal -0.000000e+00  0.000000e+00 -1.000000e+00
   outer loop
     vertex -3.007055e-01 -1.587302e-02 -2.439153e-01
     vertex -6.223986e-01 -3.174609e-02 -2.439153e-01
     vertex -6.223986e-01 -1.587302e-02 -2.439153e-01
   endloop
 endfacet
 facet normal  0.000000e+00 -0.000000e+00 -1.000000e+00
   outer loop
     vertex -3.007055e-01 -1.587302e-02 -2.439153e-01
     vertex -3.007055e-01 -3.174609e-02 -2.439153e-01
     vertex -6.223986e-01 -3.174609e-02 -2.439153e-01
   endloop
 endfacet
 facet normal -9.054589e-01  0.000000e+00 -4.244339e-01
   outer loop
     vertex -6.223986e-01 -1.587302e-02 -2.439153e-01
     vertex -1.024515e+00 -1.587302e-02  6.139330e-01
     vertex -1.024515e+00  0.000000e+00  6.139330e-01
   endloop
 endfacet
 facet normal -9.054589e-01  0.000000e+00 -4.244339e-01
   outer loop
     vertex -6.223986e-01 -1.587302e-02 -2.439153e-01
     vertex -1.024515e+00  0.000000e+00  6.139330e-01
     vertex -6.223986e-01  0.000000e+00 -2.439153e-01
   endloop
 endfacet
 facet normal -0.000000e+00 -1.000000e+00  0.000000e+00
   outer loop
     vertex -3.007055e-01 -3.174609e-02  6.139330e-01
     vertex -1.024515e+00 -3.174609e-02  6.139330e-01
     vertex -6.223986e-01 -3.174609e-02 -2.439153e-01
   endloop
 endfacet
 facet normal  0.000000e+00 -1.000000e+00 -0.000000e+00
   outer loop
     vertex -3.007055e-01 -3.174609e-02  6.139330e-01
     vertex -6.223986e-01 -3.174609e-02 -2.439153e-01
     vertex -3.007055e-01 -3.174609e-02 -2.439153e-01
   endloop
 endfacet
 facet normal  0.000000e+00 -1.000000e+00  0.000000e+00
   outer loop
     vertex -3.007055e-01 -3.174609e-02  6.139330e-01
     vertex -3.007055e-01 -3.174609e-02 -2.439153e-01
     vertex  2.098769e-02 -3.174609e-02 -2.439153e-01
   endloop
 endfacet
 facet normal -0.000000e+00 -1.000000e+00  0.000000e+00
   outer loop
     vertex  4.231040e-01 -3.174609e-02  6.139330e-01
     vertex -3.007055e-01 -3.174609e-02  6.139330e-01
     vertex  2.098769e-02 -3.174609e-02 -2.439153e-01
   endloop
 endfacet
 facet normal -0.000000e+00  0.000000e+00  1.000000e+00
   outer loop
     vertex -3.007055e-01 -1.587302e-02  6.139330e-01
     vertex  4.231040e-01 -3.174609e-02  6.139330e-01
     vertex  4.231040e-01 -1.587302e-02  6.139330e-01
   endloop
 endfacet
 facet normal  0.000000e+00  0.000000e+00  1.000000e+00
   outer loop
     vertex -3.007055e-01 -1.587302e-02  6.139330e-01
     vertex -3.007055e-01 -3.174609e-02  6.139330e-01
     vertex  4.231040e-01 -3.174609e-02  6.139330e-01
   endloop
 endfacet
 facet normal  0.000000e+00  0.000000e+00  1.000000e+00
   outer loop
     vertex -1.024515e+00 -1.587302e-02  6.139330e-01
     vertex -3.007055e-01 -1.587302e-02  6.139330e-01
     vertex -3.007055e-01  0.000000e+00  6.139330e-01
   endloop
 endfacet
 facet normal  0.000000e+00  0.000000e+00  1.000000e+00
   outer loop
     vertex -1.024515e+00 -1.587302e-02  6.139330e-01
     vertex -3.007055e-01  0.000000e+00  6.139330e-01
     vertex -1.024515e+00  0.000000e+00  6.139330e-01
   endloop
 endfacet
 facet normal -0.000000e+00  0.000000e+00 -1.000000e+00
   outer loop
     vertex  2.098769e-02 -1.587302e-02 -2.439153e-01
     vertex -3.007055e-01 -3.174609e-02 -2.439153e-01
     vertex -3.007055e-01 -1.587302e-02 -2.439153e-01
   endloop
 endfacet
 facet normal  0.000000e+00 -0.000000e+00 -1.000000e+00
   outer loop
     vertex  2.098769e-02 -1.587302e-02 -2.439153e-01
     vertex  2.098769e-02 -3.174609e-02 -2.439153e-01
     vertex -3.007055e-01 -3.174609e-02 -2.439153e-01
   endloop
 endfacet
 facet normal  0.000000e+00  0.000000e+00 -1.000000e+00
   outer loop
     vertex -3.007055e-01 -1.587302e-02 -2.439153e-01
     vertex -6.223986e-01 -1.587302e-02 -2.439153e-01
     vertex -6.223986e-01  0.000000e+00 -2.439153e-01
   endloop
 endfacet
 facet normal  0.000000e+00  0.000000e+00 -1.000000e+00
   outer loop
     vertex -3.007055e-01 -1.587302e-02 -2.439153e-01
     vertex -6.223986e-01  0.000000e+00 -2.439153e-01
     vertex -3.007055e-01  0.000000e+00 -2.439153e-01
   endloop
 endfacet
 facet normal  0.000000e+00  1.000000e+00  0.000000e+00
   outer loop
     vertex -3.007055e-01 -3.469447e-18  6.139330e-01
     vertex -6.223986e-01 -3.469447e-18 -2.439153e-01
     vertex -1.024515e+00 -3.469447e-18  6.139330e-01
   endloop
 endfacet
 facet normal  0.000000e+00  1.000000e+00  0.000000e+00
   outer loop
     vertex -3.007055e-01 -3.469447e-18  6.139330e-01
     vertex -3.007055e-01 -3.469447e-18 -2.439153e-01
     vertex -6.223986e-01 -3.469447e-18 -2.439153e-01
   endloop
 endfacet
 facet normal  0.000000e+00  1.000000e+00  0.000000e+00
   outer loop
     vertex -3.007055e-01 -3.469447e-18  6.139330e-01
     vertex  2.098769e-02 -3.469447e-18 -2.439153e-01
     vertex -3.007055e-01 -3.469447e-18 -2.439153e-01
   endloop
 endfacet
 facet normal  0.000000e+00  1.000000e+00  0.000000e+00
   outer loop
     vertex  4.231040e-01 -3.469447e-18  6.139330e-01
     vertex  2.098769e-02 -3.469447e-18 -2.439153e-01
     vertex -3.007055e-01 -3.469447e-18  6.139330e-01
   endloop
 endfacet
 facet normal  9.054590e-01  0.000000e+00 -4.244338e-01
   outer loop
     vertex  4.231040e-01 -1.587302e-02  6.139330e-01
     vertex  2.098769e-02 -3.174609e-02 -2.439153e-01
     vertex  2.098769e-02 -1.587302e-02 -2.439153e-01
   endloop
 endfacet
 facet normal  9.054590e-01  0.000000e+00 -4.244338e-01
   outer loop
     vertex  4.231040e-01 -1.587302e-02  6.139330e-01
     vertex  4.231040e-01 -3.174609e-02  6.139330e-01
     vertex  2.098769e-02 -3.174609e-02 -2.439153e-01
   endloop
 endfacet
 facet normal  0.000000e+00  0.000000e+00  1.000000e+00
   outer loop
     vertex -3.007055e-01 -1.587302e-02  6.139330e-01
     vertex  4.231040e-01 -1.587302e-02  6.139330e-01
     vertex  4.231040e-01  0.000000e+00  6.139330e-01
   endloop
 endfacet
 facet normal  0.000000e+00  0.000000e+00  1.000000e+00
   outer loop
     vertex -3.007055e-01 -1.587302e-02  6.139330e-01
     vertex  4.231040e-01  0.000000e+00  6.139330e-01
     vertex -3.007055e-01  0.000000e+00  6.139330e-01
   endloop
 endfacet
 facet normal  0.000000e+00  0.000000e+00 -1.000000e+00
   outer loop
     vertex  2.098769e-02 -1.587302e-02 -2.439153e-01
     vertex -3.007055e-01 -1.587302e-02 -2.439153e-01
     vertex -3.007055e-01  0.000000e+00 -2.439153e-01
   endloop
 endfacet
 facet normal  0.000000e+00  0.000000e+00 -1.000000e+00
   outer loop
     vertex  2.098769e-02 -1.587302e-02 -2.439153e-01
     vertex -3.007055e-01  0.000000e+00 -2.439153e-01
     vertex  2.098769e-02  0.000000e+00 -2.439153e-01
   endloop
 endfacet
 facet normal  9.054590e-01  0.000000e+00 -4.244338e-01
   outer loop
     vertex  4.231040e-01 -1.587302e-02  6.139330e-01
     vertex  2.098769e-02 -1.587302e-02 -2.439153e-01
     vertex  2.098769e-02  0.000000e+00 -2.439153e-01
   endloop
 endfacet
 facet normal  9.054590e-01  0.000000e+00 -4.244338e-01
   outer loop
     vertex  4.231040e-01 -1.587302e-02  6.139330e-01
     vertex  2.098769e-02  0.000000e+00 -2.439153e-01
     vertex  4.231040e-01  0.000000e+00  6.139330e-01
   endloop
 endfacet
endsolid
