solid 
 facet normal -1.000000e+00  0.000000e+00  0.000000e+00
   outer loop
     vertex -2.619048e-01  9.462081e-01 -1.587302e-02
     vertex -2.619048e-01 -2.333333e-01 -1.587302e-02
     vertex -2.619048e-01 -2.333333e-01  6.349212e-02
   endloop
 endfacet
 facet normal -1.000000e+00  0.000000e+00  0.000000e+00
   outer loop
     vertex -2.619048e-01  9.462081e-01 -1.587302e-02
     vertex -2.619048e-01 -2.333333e-01  6.349212e-02
     vertex -2.619048e-01  9.462081e-01  6.349212e-02
   endloop
 endfacet
 facet normal  0.000000e+00 -1.000000e+00  0.000000e+00
   outer loop
     vertex -2.619048e-01 -2.333333e-01 -1.587302e-02
     vertex  9.176366e-01 -2.333333e-01 -1.587302e-02
     vertex  9.176366e-01 -2.333333e-01  6.349212e-02
   endloop
 endfacet
 facet normal  0.000000e+00 -1.000000e+00  0.000000e+00
   outer loop
     vertex -2.619048e-01 -2.333333e-01 -1.587302e-02
     vertex  9.176366e-01 -2.333333e-01  6.349212e-02
     vertex -2.619048e-01 -2.333333e-01  6.349212e-02
   endloop
 endfacet
 facet normal  0.000000e+00  1.000000e+00  0.000000e+00
   outer loop
     vertex  9.176366e-01  9.462081e-01 -1.587302e-02
     vertex -2.619048e-01  9.462081e-01 -1.587302e-02
     vertex -2.619048e-01  9.462081e-01  6.349212e-02
   endloop
 endfacet
 facet normal  0.000000e+00  1.000000e+00 -0.000000e+00
   outer loop
     vertex  9.176366e-01  9.462081e-01 -1.587302e-02
     vertex -2.619048e-01  9.462081e-01  6.349212e-02
     vertex  9.176366e-01  9.462081e-01  6.349212e-02
   endloop
 endfacet
 facet normal -1.000000e+00 -0.000000e+00  0.000000e+00
   outer loop
     vertex -2.619048e-01  9.462081e-01 -1.587302e-02
     vertex -2.619048e-01 -2.333333e-01 -3.174603e-02
     vertex -2.619048e-01 -2.333333e-01 -1.587302e-02
   endloop
 endfacet
 facet normal -1.000000e+00  0.000000e+00 -0.000000e+00
   outer loop
     vertex -2.619048e-01  9.462081e-01 -1.587302e-02
     vertex -2.619048e-01  9.462081e-01 -3.174603e-02
     vertex -2.619048e-01 -2.333333e-01 -3.174603e-02
   endloop
 endfacet
 facet normal  0.000000e+00  0.000000e+00  1.000000e+00
   outer loop
     vertex  2.597874e-01  7.323924e-01  6.349212e-02
     vertex -2.619048e-01  9.462081e-01  6.349212e-02
     vertex -2.619048e-01 -2.333333e-01  6.349212e-02
   endloop
 endfacet
 facet normal  0.000000e+00  0.000000e+00  1.000000e+00
   outer loop
     vertex  2.597874e-01  7.323924e-01  6.349212e-02
     vertex -2.619048e-01 -2.333333e-01  6.349212e-02
     vertex  2.720749e-01  7.201048e-01  6.349212e-02
   endloop
 endfacet
 facet normal  0.000000e+00  0.000000e+00  1.000000e+00
   outer loop
     vertex  2.505422e-01  7.471061e-01  6.349212e-02
     vertex -2.619048e-01  9.462081e-01  6.349212e-02
     vertex  2.597874e-01  7.323924e-01  6.349212e-02
   endloop
 endfacet
 facet normal  0.000000e+00  0.000000e+00  1.000000e+00
   outer loop
     vertex  2.867886e-01  7.108596e-01  6.349212e-02
     vertex  2.720749e-01  7.201048e-01  6.349212e-02
     vertex -2.619048e-01 -2.333333e-01  6.349212e-02
   endloop
 endfacet
 facet normal  0.000000e+00  0.000000e+00  1.000000e+00
   outer loop
     vertex  3.031907e-01  7.051203e-01  6.349212e-02
     vertex  2.867886e-01  7.108596e-01  6.349212e-02
     vertex -2.619048e-01 -2.333333e-01  6.349212e-02
   endloop
 endfacet
 facet normal  0.000000e+00  0.000000e+00  1.000000e+00
   outer loop
     vertex  2.448028e-01  7.635081e-01  6.349212e-02
     vertex -2.619048e-01  9.462081e-01  6.349212e-02
     vertex  2.505422e-01  7.471061e-01  6.349212e-02
   endloop
 endfacet
 facet normal  0.000000e+00  0.000000e+00  1.000000e+00
   outer loop
     vertex  2.428572e-01  7.807761e-01  6.349212e-02
     vertex -2.619048e-01  9.462081e-01  6.349212e-02
     vertex  2.448028e-01  7.635081e-01  6.349212e-02
   endloop
 endfacet
 facet normal  0.000000e+00  0.000000e+00  1.000000e+00
   outer loop
     vertex  3.204586e-01  7.031746e-01  6.349212e-02
     vertex -2.619048e-01 -2.333333e-01  6.349212e-02
     vertex  9.176366e-01 -2.333333e-01  6.349212e-02
   endloop
 endfacet
 facet normal  0.000000e+00  0.000000e+00  1.000000e+00
   outer loop
     vertex  3.204586e-01  7.031746e-01  6.349212e-02
     vertex  3.031907e-01  7.051203e-01  6.349212e-02
     vertex -2.619048e-01 -2.333333e-01  6.349212e-02
   endloop
 endfacet
 facet normal  0.000000e+00  0.000000e+00  1.000000e+00
   outer loop
     vertex  2.448028e-01  7.980440e-01  6.349212e-02
     vertex -2.619048e-01  9.462081e-01  6.349212e-02
     vertex  2.428572e-01  7.807761e-01  6.349212e-02
   endloop
 endfacet
 facet normal  0.000000e+00  0.000000e+00  1.000000e+00
   outer loop
     vertex  3.377266e-01  7.051203e-01  6.349212e-02
     vertex  3.204586e-01  7.031746e-01  6.349212e-02
     vertex  9.176366e-01 -2.333333e-01  6.349212e-02
   endloop
 endfacet
 facet normal  0.000000e+00  0.000000e+00  1.000000e+00
   outer loop
     vertex  2.505422e-01  8.144460e-01  6.349212e-02
     vertex -2.619048e-01  9.462081e-01  6.349212e-02
     vertex  2.448028e-01  7.980440e-01  6.349212e-02
   endloop
 endfacet
 facet normal  0.000000e+00  0.000000e+00  1.000000e+00
   outer loop
     vertex  3.541286e-01  7.108596e-01  6.349212e-02
     vertex  3.377266e-01  7.051203e-01  6.349212e-02
     vertex  9.176366e-01 -2.333333e-01  6.349212e-02
   endloop
 endfacet
 facet normal  0.000000e+00  0.000000e+00  1.000000e+00
   outer loop
     vertex  2.597874e-01  8.291597e-01  6.349212e-02
     vertex -2.619048e-01  9.462081e-01  6.349212e-02
     vertex  2.505422e-01  8.144460e-01  6.349212e-02
   endloop
 endfacet
 facet normal  0.000000e+00  0.000000e+00  1.000000e+00
   outer loop
     vertex  3.688423e-01  7.201048e-01  6.349212e-02
     vertex  3.541286e-01  7.108596e-01  6.349212e-02
     vertex  9.176366e-01 -2.333333e-01  6.349212e-02
   endloop
 endfacet
 facet normal  0.000000e+00  0.000000e+00  1.000000e+00
   outer loop
     vertex  2.720749e-01  8.414473e-01  6.349212e-02
     vertex -2.619048e-01  9.462081e-01  6.349212e-02
     vertex  2.597874e-01  8.291597e-01  6.349212e-02
   endloop
 endfacet
 facet normal  0.000000e+00  0.000000e+00  1.000000e+00
   outer loop
     vertex  3.811298e-01  7.323924e-01  6.349212e-02
     vertex  3.688423e-01  7.201048e-01  6.349212e-02
     vertex  9.176366e-01 -2.333333e-01  6.349212e-02
   endloop
 endfacet
 facet normal  0.000000e+00  0.000000e+00  1.000000e+00
   outer loop
     vertex  2.867886e-01  8.506925e-01  6.349212e-02
     vertex -2.619048e-01  9.462081e-01  6.349212e-02
     vertex  2.720749e-01  8.414473e-01  6.349212e-02
   endloop
 endfacet
 facet normal  0.000000e+00  0.000000e+00  1.000000e+00
   outer loop
     vertex  3.031907e-01  8.564318e-01  6.349212e-02
     vertex -2.619048e-01  9.462081e-01  6.349212e-02
     vertex  2.867886e-01  8.506925e-01  6.349212e-02
   endloop
 endfacet
 facet normal  0.000000e+00  0.000000e+00  1.000000e+00
   outer loop
     vertex  9.176366e-01  9.462081e-01  6.349212e-02
     vertex  3.961144e-01  7.980440e-01  6.349212e-02
     vertex  3.980600e-01  7.807761e-01  6.349212e-02
   endloop
 endfacet
 facet normal  0.000000e+00  0.000000e+00  1.000000e+00
   outer loop
     vertex  9.176366e-01  9.462081e-01  6.349212e-02
     vertex  3.903751e-01  8.144460e-01  6.349212e-02
     vertex  3.961144e-01  7.980440e-01  6.349212e-02
   endloop
 endfacet
 facet normal  0.000000e+00  0.000000e+00  1.000000e+00
   outer loop
     vertex  9.176366e-01  9.462081e-01  6.349212e-02
     vertex  3.811298e-01  8.291597e-01  6.349212e-02
     vertex  3.903751e-01  8.144460e-01  6.349212e-02
   endloop
 endfacet
 facet normal  0.000000e+00  0.000000e+00  1.000000e+00
   outer loop
     vertex  9.176366e-01  9.462081e-01  6.349212e-02
     vertex  3.688423e-01  8.414473e-01  6.349212e-02
     vertex  3.811298e-01  8.291597e-01  6.349212e-02
   endloop
 endfacet
 facet normal  0.000000e+00  0.000000e+00  1.000000e+00
   outer loop
     vertex  9.176366e-01  9.462081e-01  6.349212e-02
     vertex  3.541286e-01  8.506925e-01  6.349212e-02
     vertex  3.688423e-01  8.414473e-01  6.349212e-02
   endloop
 endfacet
 facet normal  0.000000e+00  0.000000e+00  1.000000e+00
   outer loop
     vertex  9.176366e-01  9.462081e-01  6.349212e-02
     vertex  3.377266e-01  8.564318e-01  6.349212e-02
     vertex  3.541286e-01  8.506925e-01  6.349212e-02
   endloop
 endfacet
 facet normal  0.000000e+00  0.000000e+00  1.000000e+00
   outer loop
     vertex  9.176366e-01  9.462081e-01  6.349212e-02
     vertex  3.903751e-01  7.471061e-01  6.349212e-02
     vertex  3.811298e-01  7.323924e-01  6.349212e-02
   endloop
 endfacet
 facet normal  0.000000e+00  0.000000e+00  1.000000e+00
   outer loop
     vertex  9.176366e-01  9.462081e-01  6.349212e-02
     vertex  3.961144e-01  7.635081e-01  6.349212e-02
     vertex  3.903751e-01  7.471061e-01  6.349212e-02
   endloop
 endfacet
 facet normal  0.000000e+00  0.000000e+00  1.000000e+00
   outer loop
     vertex  9.176366e-01  9.462081e-01  6.349212e-02
     vertex  3.980600e-01  7.807761e-01  6.349212e-02
     vertex  3.961144e-01  7.635081e-01  6.349212e-02
   endloop
 endfacet
 facet normal  0.000000e+00  0.000000e+00  1.000000e+00
   outer loop
     vertex  9.176366e-01  9.462081e-01  6.349212e-02
     vertex  3.811298e-01  7.323924e-01  6.349212e-02
     vertex  9.176366e-01 -2.333333e-01  6.349212e-02
   endloop
 endfacet
 facet normal  0.000000e+00  0.000000e+00  1.000000e+00
   outer loop
     vertex  9.176366e-01  9.462081e-01  6.349212e-02
     vertex -2.619048e-01  9.462081e-01  6.349212e-02
     vertex  3.204586e-01  8.583775e-01  6.349212e-02
   endloop
 endfacet
 facet normal  0.000000e+00  0.000000e+00  1.000000e+00
   outer loop
     vertex  3.204586e-01  8.583775e-01  6.349212e-02
     vertex -2.619048e-01  9.462081e-01  6.349212e-02
     vertex  3.031907e-01  8.564318e-01  6.349212e-02
   endloop
 endfacet
 facet normal  0.000000e+00  0.000000e+00  1.000000e+00
   outer loop
     vertex  9.176366e-01  9.462081e-01  6.349212e-02
     vertex  3.204586e-01  8.583775e-01  6.349212e-02
     vertex  3.377266e-01  8.564318e-01  6.349212e-02
   endloop
 endfacet
 facet normal  1.000000e+00  0.000000e+00  0.000000e+00
   outer loop
     vertex  9.176366e-01 -2.333333e-01 -1.587302e-02
     vertex  9.176366e-01  9.462081e-01 -1.587302e-02
     vertex  9.176366e-01  9.462081e-01  6.349212e-02
   endloop
 endfacet
 facet normal  1.000000e+00  0.000000e+00  0.000000e+00
   outer loop
     vertex  9.176366e-01 -2.333333e-01 -1.587302e-02
     vertex  9.176366e-01  9.462081e-01  6.349212e-02
     vertex  9.176366e-01 -2.333333e-01  6.349212e-02
   endloop
 endfacet
 facet normal  0.000000e+00 -1.000000e+00  0.000000e+00
   outer loop
     vertex -2.619048e-01 -2.333333e-01 -1.587302e-02
     vertex  9.176366e-01 -2.333333e-01 -3.174603e-02
     vertex  9.176366e-01 -2.333333e-01 -1.587302e-02
   endloop
 endfacet
 facet normal  0.000000e+00 -1.000000e+00  0.000000e+00
   outer loop
     vertex -2.619048e-01 -2.333333e-01 -1.587302e-02
     vertex -2.619048e-01 -2.333333e-01 -3.174603e-02
     vertex  9.176366e-01 -2.333333e-01 -3.174603e-02
   endloop
 endfacet
 facet normal  0.000000e+00  1.000000e+00  0.000000e+00
   outer loop
     vertex  9.176366e-01  9.462081e-01 -1.587302e-02
     vertex -2.619048e-01  9.462081e-01 -3.174603e-02
     vertex -2.619048e-01  9.462081e-01 -1.587302e-02
   endloop
 endfacet
 facet normal  0.000000e+00  1.000000e+00  0.000000e+00
   outer loop
     vertex  9.176366e-01  9.462081e-01 -1.587302e-02
     vertex  9.176366e-01  9.462081e-01 -3.174603e-02
     vertex -2.619048e-01  9.462081e-01 -3.174603e-02
   endloop
 endfacet
 facet normal  0.000000e+00 -0.000000e+00 -1.000000e+00
   outer loop
     vertex  9.176366e-01  9.462081e-01 -3.174603e-02
     vertex  9.176366e-01 -2.333333e-01 -3.174603e-02
     vertex -2.619048e-01 -2.333333e-01 -3.174603e-02
   endloop
 endfacet
 facet normal -0.000000e+00  0.000000e+00 -1.000000e+00
   outer loop
     vertex  9.176366e-01  9.462081e-01 -3.174603e-02
     vertex -2.619048e-01 -2.333333e-01 -3.174603e-02
     vertex -2.619048e-01  9.462081e-01 -3.174603e-02
   endloop
 endfacet
 facet normal  9.937122e-01  1.119645e-01  0.000000e+00
   outer loop
     vertex  3.961144e-01  7.980440e-01  7.936513e-02
     vertex  3.980600e-01  7.807761e-01  7.936513e-02
     vertex  3.980600e-01  7.807761e-01  6.349212e-02
   endloop
 endfacet
 facet normal  9.937122e-01  1.119645e-01  0.000000e+00
   outer loop
     vertex  3.961144e-01  7.980440e-01  7.936513e-02
     vertex  3.980600e-01  7.807761e-01  6.349212e-02
     vertex  3.961144e-01  7.980440e-01  6.349212e-02
   endloop
 endfacet
 facet normal  9.438833e-01  3.302791e-01  0.000000e+00
   outer loop
     vertex  3.903751e-01  8.144460e-01  7.936513e-02
     vertex  3.961144e-01  7.980440e-01  6.349212e-02
     vertex  3.903751e-01  8.144460e-01  6.349212e-02
   endloop
 endfacet
 facet normal  9.438833e-01  3.302791e-01  0.000000e+00
   outer loop
     vertex  3.903751e-01  8.144460e-01  7.936513e-02
     vertex  3.961144e-01  7.980440e-01  7.936513e-02
     vertex  3.961144e-01  7.980440e-01  6.349212e-02
   endloop
 endfacet
 facet normal  8.467242e-01  5.320321e-01  0.000000e+00
   outer loop
     vertex  3.811298e-01  8.291597e-01  7.936513e-02
     vertex  3.903751e-01  8.144460e-01  6.349212e-02
     vertex  3.811298e-01  8.291597e-01  6.349212e-02
   endloop
 endfacet
 facet normal  8.467242e-01  5.320321e-01  0.000000e+00
   outer loop
     vertex  3.811298e-01  8.291597e-01  7.936513e-02
     vertex  3.903751e-01  8.144460e-01  7.936513e-02
     vertex  3.903751e-01  8.144460e-01  6.349212e-02
   endloop
 endfacet
 facet normal  7.071068e-01  7.071068e-01  0.000000e+00
   outer loop
     vertex  3.688423e-01  8.414473e-01  7.936513e-02
     vertex  3.811298e-01  8.291597e-01  6.349212e-02
     vertex  3.688423e-01  8.414473e-01  6.349212e-02
   endloop
 endfacet
 facet normal  7.071068e-01  7.071068e-01  0.000000e+00
   outer loop
     vertex  3.688423e-01  8.414473e-01  7.936513e-02
     vertex  3.811298e-01  8.291597e-01  7.936513e-02
     vertex  3.811298e-01  8.291597e-01  6.349212e-02
   endloop
 endfacet
 facet normal  5.320321e-01  8.467242e-01  0.000000e+00
   outer loop
     vertex  3.541286e-01  8.506925e-01  7.936513e-02
     vertex  3.688423e-01  8.414473e-01  6.349212e-02
     vertex  3.541286e-01  8.506925e-01  6.349212e-02
   endloop
 endfacet
 facet normal  5.320321e-01  8.467242e-01  0.000000e+00
   outer loop
     vertex  3.541286e-01  8.506925e-01  7.936513e-02
     vertex  3.688423e-01  8.414473e-01  7.936513e-02
     vertex  3.688423e-01  8.414473e-01  6.349212e-02
   endloop
 endfacet
 facet normal  3.302791e-01  9.438833e-01  0.000000e+00
   outer loop
     vertex  3.377266e-01  8.564318e-01  7.936513e-02
     vertex  3.541286e-01  8.506925e-01  6.349212e-02
     vertex  3.377266e-01  8.564318e-01  6.349212e-02
   endloop
 endfacet
 facet normal  3.302791e-01  9.438833e-01  0.000000e+00
   outer loop
     vertex  3.377266e-01  8.564318e-01  7.936513e-02
     vertex  3.541286e-01  8.506925e-01  7.936513e-02
     vertex  3.541286e-01  8.506925e-01  6.349212e-02
   endloop
 endfacet
 facet normal  1.119645e-01  9.937122e-01  0.000000e+00
   outer loop
     vertex  3.204586e-01  8.583775e-01  7.936513e-02
     vertex  3.377266e-01  8.564318e-01  6.349212e-02
     vertex  3.204586e-01  8.583775e-01  6.349212e-02
   endloop
 endfacet
 facet normal  1.119645e-01  9.937122e-01  0.000000e+00
   outer loop
     vertex  3.204586e-01  8.583775e-01  7.936513e-02
     vertex  3.377266e-01  8.564318e-01  7.936513e-02
     vertex  3.377266e-01  8.564318e-01  6.349212e-02
   endloop
 endfacet
 facet normal -1.119645e-01  9.937122e-01  0.000000e+00
   outer loop
     vertex  3.031907e-01  8.564318e-01  7.936513e-02
     vertex  3.204586e-01  8.583775e-01  6.349212e-02
     vertex  3.031907e-01  8.564318e-01  6.349212e-02
   endloop
 endfacet
 facet normal -1.119645e-01  9.937122e-01  0.000000e+00
   outer loop
     vertex  3.031907e-01  8.564318e-01  7.936513e-02
     vertex  3.204586e-01  8.583775e-01  7.936513e-02
     vertex  3.204586e-01  8.583775e-01  6.349212e-02
   endloop
 endfacet
 facet normal -3.302791e-01  9.438833e-01  0.000000e+00
   outer loop
     vertex  2.867886e-01  8.506925e-01  7.936513e-02
     vertex  3.031907e-01  8.564318e-01  6.349212e-02
     vertex  2.867886e-01  8.506925e-01  6.349212e-02
   endloop
 endfacet
 facet normal -3.302791e-01  9.438833e-01  0.000000e+00
   outer loop
     vertex  2.867886e-01  8.506925e-01  7.936513e-02
     vertex  3.031907e-01  8.564318e-01  7.936513e-02
     vertex  3.031907e-01  8.564318e-01  6.349212e-02
   endloop
 endfacet
 facet normal -5.320321e-01  8.467242e-01  0.000000e+00
   outer loop
     vertex  2.720749e-01  8.414473e-01  7.936513e-02
     vertex  2.867886e-01  8.506925e-01  7.936513e-02
     vertex  2.867886e-01  8.506925e-01  6.349212e-02
   endloop
 endfacet
 facet normal -5.320321e-01  8.467242e-01  0.000000e+00
   outer loop
     vertex  2.720749e-01  8.414473e-01  7.936513e-02
     vertex  2.867886e-01  8.506925e-01  6.349212e-02
     vertex  2.720749e-01  8.414473e-01  6.349212e-02
   endloop
 endfacet
 facet normal -7.071068e-01  7.071068e-01  0.000000e+00
   outer loop
     vertex  2.597874e-01  8.291597e-01  7.936513e-02
     vertex  2.720749e-01  8.414473e-01  7.936513e-02
     vertex  2.720749e-01  8.414473e-01  6.349212e-02
   endloop
 endfacet
 facet normal -7.071068e-01  7.071068e-01  0.000000e+00
   outer loop
     vertex  2.597874e-01  8.291597e-01  7.936513e-02
     vertex  2.720749e-01  8.414473e-01  6.349212e-02
     vertex  2.597874e-01  8.291597e-01  6.349212e-02
   endloop
 endfacet
 facet normal -8.467242e-01  5.320321e-01  0.000000e+00
   outer loop
     vertex  2.505422e-01  8.144460e-01  7.936513e-02
     vertex  2.597874e-01  8.291597e-01  7.936513e-02
     vertex  2.597874e-01  8.291597e-01  6.349212e-02
   endloop
 endfacet
 facet normal -8.467242e-01  5.320321e-01  0.000000e+00
   outer loop
     vertex  2.505422e-01  8.144460e-01  7.936513e-02
     vertex  2.597874e-01  8.291597e-01  6.349212e-02
     vertex  2.505422e-01  8.144460e-01  6.349212e-02
   endloop
 endfacet
 facet normal -9.438833e-01  3.302791e-01  0.000000e+00
   outer loop
     vertex  2.448028e-01  7.980440e-01  7.936513e-02
     vertex  2.505422e-01  8.144460e-01  6.349212e-02
     vertex  2.448028e-01  7.980440e-01  6.349212e-02
   endloop
 endfacet
 facet normal -9.438833e-01  3.302791e-01  0.000000e+00
   outer loop
     vertex  2.448028e-01  7.980440e-01  7.936513e-02
     vertex  2.505422e-01  8.144460e-01  7.936513e-02
     vertex  2.505422e-01  8.144460e-01  6.349212e-02
   endloop
 endfacet
 facet normal -9.937122e-01  1.119645e-01  0.000000e+00
   outer loop
     vertex  2.428572e-01  7.807761e-01  7.936513e-02
     vertex  2.448028e-01  7.980440e-01  6.349212e-02
     vertex  2.428572e-01  7.807761e-01  6.349212e-02
   endloop
 endfacet
 facet normal -9.937122e-01  1.119645e-01  0.000000e+00
   outer loop
     vertex  2.428572e-01  7.807761e-01  7.936513e-02
     vertex  2.448028e-01  7.980440e-01  7.936513e-02
     vertex  2.448028e-01  7.980440e-01  6.349212e-02
   endloop
 endfacet
 facet normal -9.937122e-01 -1.119645e-01 -0.000000e+00
   outer loop
     vertex  2.448028e-01  7.635081e-01  7.936513e-02
     vertex  2.428572e-01  7.807761e-01  6.349212e-02
     vertex  2.448028e-01  7.635081e-01  6.349212e-02
   endloop
 endfacet
 facet normal -9.937122e-01 -1.119645e-01  0.000000e+00
   outer loop
     vertex  2.448028e-01  7.635081e-01  7.936513e-02
     vertex  2.428572e-01  7.807761e-01  7.936513e-02
     vertex  2.428572e-01  7.807761e-01  6.349212e-02
   endloop
 endfacet
 facet normal -9.438833e-01 -3.302791e-01  0.000000e+00
   outer loop
     vertex  2.505422e-01  7.471061e-01  7.936513e-02
     vertex  2.448028e-01  7.635081e-01  7.936513e-02
     vertex  2.448028e-01  7.635081e-01  6.349212e-02
   endloop
 endfacet
 facet normal -9.438833e-01 -3.302791e-01 -0.000000e+00
   outer loop
     vertex  2.505422e-01  7.471061e-01  7.936513e-02
     vertex  2.448028e-01  7.635081e-01  6.349212e-02
     vertex  2.505422e-01  7.471061e-01  6.349212e-02
   endloop
 endfacet
 facet normal -8.467242e-01 -5.320321e-01 -0.000000e+00
   outer loop
     vertex  2.597874e-01  7.323924e-01  7.936513e-02
     vertex  2.505422e-01  7.471061e-01  6.349212e-02
     vertex  2.597874e-01  7.323924e-01  6.349212e-02
   endloop
 endfacet
 facet normal -8.467242e-01 -5.320321e-01  0.000000e+00
   outer loop
     vertex  2.597874e-01  7.323924e-01  7.936513e-02
     vertex  2.505422e-01  7.471061e-01  7.936513e-02
     vertex  2.505422e-01  7.471061e-01  6.349212e-02
   endloop
 endfacet
 facet normal -7.071068e-01 -7.071068e-01 -0.000000e+00
   outer loop
     vertex  2.720749e-01  7.201048e-01  7.936513e-02
     vertex  2.597874e-01  7.323924e-01  6.349212e-02
     vertex  2.720749e-01  7.201048e-01  6.349212e-02
   endloop
 endfacet
 facet normal -7.071068e-01 -7.071068e-01  0.000000e+00
   outer loop
     vertex  2.720749e-01  7.201048e-01  7.936513e-02
     vertex  2.597874e-01  7.323924e-01  7.936513e-02
     vertex  2.597874e-01  7.323924e-01  6.349212e-02
   endloop
 endfacet
 facet normal -5.320321e-01 -8.467242e-01 -0.000000e+00
   outer loop
     vertex  2.867886e-01  7.108596e-01  7.936513e-02
     vertex  2.720749e-01  7.201048e-01  6.349212e-02
     vertex  2.867886e-01  7.108596e-01  6.349212e-02
   endloop
 endfacet
 facet normal -5.320321e-01 -8.467242e-01  0.000000e+00
   outer loop
     vertex  2.867886e-01  7.108596e-01  7.936513e-02
     vertex  2.720749e-01  7.201048e-01  7.936513e-02
     vertex  2.720749e-01  7.201048e-01  6.349212e-02
   endloop
 endfacet
 facet normal -3.302791e-01 -9.438833e-01 -0.000000e+00
   outer loop
     vertex  3.031907e-01  7.051203e-01  7.936513e-02
     vertex  2.867886e-01  7.108596e-01  6.349212e-02
     vertex  3.031907e-01  7.051203e-01  6.349212e-02
   endloop
 endfacet
 facet normal -3.302791e-01 -9.438833e-01  0.000000e+00
   outer loop
     vertex  3.031907e-01  7.051203e-01  7.936513e-02
     vertex  2.867886e-01  7.108596e-01  7.936513e-02
     vertex  2.867886e-01  7.108596e-01  6.349212e-02
   endloop
 endfacet
 facet normal -1.119645e-01 -9.937122e-01 -0.000000e+00
   outer loop
     vertex  3.204586e-01  7.031746e-01  7.936513e-02
     vertex  3.031907e-01  7.051203e-01  6.349212e-02
     vertex  3.204586e-01  7.031746e-01  6.349212e-02
   endloop
 endfacet
 facet normal -1.119645e-01 -9.937122e-01  0.000000e+00
   outer loop
     vertex  3.204586e-01  7.031746e-01  7.936513e-02
     vertex  3.031907e-01  7.051203e-01  7.936513e-02
     vertex  3.031907e-01  7.051203e-01  6.349212e-02
   endloop
 endfacet
 facet normal  1.119645e-01 -9.937122e-01  0.000000e+00
   outer loop
     vertex  3.377266e-01  7.051203e-01  7.936513e-02
     vertex  3.204586e-01  7.031746e-01  6.349212e-02
     vertex  3.377266e-01  7.051203e-01  6.349212e-02
   endloop
 endfacet
 facet normal  1.119645e-01 -9.937122e-01  0.000000e+00
   outer loop
     vertex  3.377266e-01  7.051203e-01  7.936513e-02
     vertex  3.204586e-01  7.031746e-01  7.936513e-02
     vertex  3.204586e-01  7.031746e-01  6.349212e-02
   endloop
 endfacet
 facet normal  3.302791e-01 -9.438833e-01  0.000000e+00
   outer loop
     vertex  3.541286e-01  7.108596e-01  7.936513e-02
     vertex  3.377266e-01  7.051203e-01  6.349212e-02
     vertex  3.541286e-01  7.108596e-01  6.349212e-02
   endloop
 endfacet
 facet normal  3.302791e-01 -9.438833e-01  0.000000e+00
   outer loop
     vertex  3.541286e-01  7.108596e-01  7.936513e-02
     vertex  3.377266e-01  7.051203e-01  7.936513e-02
     vertex  3.377266e-01  7.051203e-01  6.349212e-02
   endloop
 endfacet
 facet normal  5.320321e-01 -8.467242e-01  0.000000e+00
   outer loop
     vertex  3.688423e-01  7.201048e-01  7.936513e-02
     vertex  3.541286e-01  7.108596e-01  6.349212e-02
     vertex  3.688423e-01  7.201048e-01  6.349212e-02
   endloop
 endfacet
 facet normal  5.320321e-01 -8.467242e-01  0.000000e+00
   outer loop
     vertex  3.688423e-01  7.201048e-01  7.936513e-02
     vertex  3.541286e-01  7.108596e-01  7.936513e-02
     vertex  3.541286e-01  7.108596e-01  6.349212e-02
   endloop
 endfacet
 facet normal  7.071068e-01 -7.071068e-01  0.000000e+00
   outer loop
     vertex  3.811298e-01  7.323924e-01  7.936513e-02
     vertex  3.688423e-01  7.201048e-01  6.349212e-02
     vertex  3.811298e-01  7.323924e-01  6.349212e-02
   endloop
 endfacet
 facet normal  7.071068e-01 -7.071068e-01  0.000000e+00
   outer loop
     vertex  3.811298e-01  7.323924e-01  7.936513e-02
     vertex  3.688423e-01  7.201048e-01  7.936513e-02
     vertex  3.688423e-01  7.201048e-01  6.349212e-02
   endloop
 endfacet
 facet normal  8.467242e-01 -5.320321e-01  0.000000e+00
   outer loop
     vertex  3.903751e-01  7.471061e-01  7.936513e-02
     vertex  3.811298e-01  7.323924e-01  6.349212e-02
     vertex  3.903751e-01  7.471061e-01  6.349212e-02
   endloop
 endfacet
 facet normal  8.467242e-01 -5.320321e-01  0.000000e+00
   outer loop
     vertex  3.903751e-01  7.471061e-01  7.936513e-02
     vertex  3.811298e-01  7.323924e-01  7.936513e-02
     vertex  3.811298e-01  7.323924e-01  6.349212e-02
   endloop
 endfacet
 facet normal  9.438833e-01 -3.302791e-01  0.000000e+00
   outer loop
     vertex  3.961144e-01  7.635081e-01  7.936513e-02
     vertex  3.903751e-01  7.471061e-01  6.349212e-02
     vertex  3.961144e-01  7.635081e-01  6.349212e-02
   endloop
 endfacet
 facet normal  9.438833e-01 -3.302791e-01  0.000000e+00
   outer loop
     vertex  3.961144e-01  7.635081e-01  7.936513e-02
     vertex  3.903751e-01  7.471061e-01  7.936513e-02
     vertex  3.903751e-01  7.471061e-01  6.349212e-02
   endloop
 endfacet
 facet normal  9.937122e-01 -1.119645e-01  0.000000e+00
   outer loop
     vertex  3.980600e-01  7.807761e-01  7.936513e-02
     vertex  3.961144e-01  7.635081e-01  6.349212e-02
     vertex  3.980600e-01  7.807761e-01  6.349212e-02
   endloop
 endfacet
 facet normal  9.937122e-01 -1.119645e-01  0.000000e+00
   outer loop
     vertex  3.980600e-01  7.807761e-01  7.936513e-02
     vertex  3.961144e-01  7.635081e-01  7.936513e-02
     vertex  3.961144e-01  7.635081e-01  6.349212e-02
   endloop
 endfacet
 facet normal  1.000000e+00 -0.000000e+00  0.000000e+00
   outer loop
     vertex  9.176366e-01 -2.333333e-01 -1.587302e-02
     vertex  9.176366e-01  9.462081e-01 -3.174603e-02
     vertex  9.176366e-01  9.462081e-01 -1.587302e-02
   endloop
 endfacet
 facet normal  1.000000e+00  0.000000e+00  0.000000e+00
   outer loop
     vertex  9.176366e-01 -2.333333e-01 -1.587302e-02
     vertex  9.176366e-01 -2.333333e-01 -3.174603e-02
     vertex  9.176366e-01  9.462081e-01 -3.174603e-02
   endloop
 endfacet
 facet normal  9.937122e-01  1.119645e-01  0.000000e+00
   outer loop
     vertex  3.961144e-01  7.980440e-01  7.936513e-02
     vertex  3.980600e-01  7.807761e-01  3.492064e-01
     vertex  3.980600e-01  7.807761e-01  7.936513e-02
   endloop
 endfacet
 facet normal  9.937122e-01  1.119645e-01 -0.000000e+00
   outer loop
     vertex  3.961144e-01  7.980440e-01  7.936513e-02
     vertex  3.961144e-01  7.980440e-01  3.492064e-01
     vertex  3.980600e-01  7.807761e-01  3.492064e-01
   endloop
 endfacet
 facet normal  9.438833e-01  3.302791e-01 -0.000000e+00
   outer loop
     vertex  3.903751e-01  8.144460e-01  7.936513e-02
     vertex  3.903751e-01  8.144460e-01  3.492064e-01
     vertex  3.961144e-01  7.980440e-01  3.492064e-01
   endloop
 endfacet
 facet normal  9.438833e-01  3.302791e-01  0.000000e+00
   outer loop
     vertex  3.903751e-01  8.144460e-01  7.936513e-02
     vertex  3.961144e-01  7.980440e-01  3.492064e-01
     vertex  3.961144e-01  7.980440e-01  7.936513e-02
   endloop
 endfacet
 facet normal  8.467242e-01  5.320321e-01 -0.000000e+00
   outer loop
     vertex  3.811298e-01  8.291597e-01  7.936513e-02
     vertex  3.811298e-01  8.291597e-01  3.492064e-01
     vertex  3.903751e-01  8.144460e-01  3.492064e-01
   endloop
 endfacet
 facet normal  8.467242e-01  5.320321e-01  0.000000e+00
   outer loop
     vertex  3.811298e-01  8.291597e-01  7.936513e-02
     vertex  3.903751e-01  8.144460e-01  3.492064e-01
     vertex  3.903751e-01  8.144460e-01  7.936513e-02
   endloop
 endfacet
 facet normal  7.071068e-01  7.071068e-01 -0.000000e+00
   outer loop
     vertex  3.688423e-01  8.414473e-01  7.936513e-02
     vertex  3.688423e-01  8.414473e-01  3.492064e-01
     vertex  3.811298e-01  8.291597e-01  3.492064e-01
   endloop
 endfacet
 facet normal  7.071068e-01  7.071068e-01  0.000000e+00
   outer loop
     vertex  3.688423e-01  8.414473e-01  7.936513e-02
     vertex  3.811298e-01  8.291597e-01  3.492064e-01
     vertex  3.811298e-01  8.291597e-01  7.936513e-02
   endloop
 endfacet
 facet normal  5.320321e-01  8.467242e-01 -0.000000e+00
   outer loop
     vertex  3.541286e-01  8.506925e-01  7.936513e-02
     vertex  3.541286e-01  8.506925e-01  3.492064e-01
     vertex  3.688423e-01  8.414473e-01  3.492064e-01
   endloop
 endfacet
 facet normal  5.320321e-01  8.467242e-01  0.000000e+00
   outer loop
     vertex  3.541286e-01  8.506925e-01  7.936513e-02
     vertex  3.688423e-01  8.414473e-01  3.492064e-01
     vertex  3.688423e-01  8.414473e-01  7.936513e-02
   endloop
 endfacet
 facet normal  3.302791e-01  9.438833e-01 -0.000000e+00
   outer loop
     vertex  3.377266e-01  8.564318e-01  7.936513e-02
     vertex  3.377266e-01  8.564318e-01  3.492064e-01
     vertex  3.541286e-01  8.506925e-01  3.492064e-01
   endloop
 endfacet
 facet normal  3.302791e-01  9.438833e-01  0.000000e+00
   outer loop
     vertex  3.377266e-01  8.564318e-01  7.936513e-02
     vertex  3.541286e-01  8.506925e-01  3.492064e-01
     vertex  3.541286e-01  8.506925e-01  7.936513e-02
   endloop
 endfacet
 facet normal  1.119645e-01  9.937122e-01 -0.000000e+00
   outer loop
     vertex  3.204586e-01  8.583775e-01  7.936513e-02
     vertex  3.204586e-01  8.583775e-01  3.492064e-01
     vertex  3.377266e-01  8.564318e-01  3.492064e-01
   endloop
 endfacet
 facet normal  1.119645e-01  9.937122e-01  0.000000e+00
   outer loop
     vertex  3.204586e-01  8.583775e-01  7.936513e-02
     vertex  3.377266e-01  8.564318e-01  3.492064e-01
     vertex  3.377266e-01  8.564318e-01  7.936513e-02
   endloop
 endfacet
 facet normal -1.119645e-01  9.937122e-01  0.000000e+00
   outer loop
     vertex  3.031907e-01  8.564318e-01  7.936513e-02
     vertex  3.031907e-01  8.564318e-01  3.492064e-01
     vertex  3.204586e-01  8.583775e-01  3.492064e-01
   endloop
 endfacet
 facet normal -1.119645e-01  9.937122e-01  0.000000e+00
   outer loop
     vertex  3.031907e-01  8.564318e-01  7.936513e-02
     vertex  3.204586e-01  8.583775e-01  3.492064e-01
     vertex  3.204586e-01  8.583775e-01  7.936513e-02
   endloop
 endfacet
 facet normal -3.302791e-01  9.438833e-01  0.000000e+00
   outer loop
     vertex  2.867886e-01  8.506925e-01  7.936513e-02
     vertex  2.867886e-01  8.506925e-01  3.492064e-01
     vertex  3.031907e-01  8.564318e-01  3.492064e-01
   endloop
 endfacet
 facet normal -3.302791e-01  9.438833e-01  0.000000e+00
   outer loop
     vertex  2.867886e-01  8.506925e-01  7.936513e-02
     vertex  3.031907e-01  8.564318e-01  3.492064e-01
     vertex  3.031907e-01  8.564318e-01  7.936513e-02
   endloop
 endfacet
 facet normal -5.320321e-01  8.467242e-01  0.000000e+00
   outer loop
     vertex  2.720749e-01  8.414473e-01  7.936513e-02
     vertex  2.867886e-01  8.506925e-01  3.492064e-01
     vertex  2.867886e-01  8.506925e-01  7.936513e-02
   endloop
 endfacet
 facet normal -5.320321e-01  8.467242e-01  0.000000e+00
   outer loop
     vertex  2.720749e-01  8.414473e-01  7.936513e-02
     vertex  2.720749e-01  8.414473e-01  3.492064e-01
     vertex  2.867886e-01  8.506925e-01  3.492064e-01
   endloop
 endfacet
 facet normal -7.071068e-01  7.071068e-01  0.000000e+00
   outer loop
     vertex  2.597874e-01  8.291597e-01  7.936513e-02
     vertex  2.720749e-01  8.414473e-01  3.492064e-01
     vertex  2.720749e-01  8.414473e-01  7.936513e-02
   endloop
 endfacet
 facet normal -7.071068e-01  7.071068e-01  0.000000e+00
   outer loop
     vertex  2.597874e-01  8.291597e-01  7.936513e-02
     vertex  2.597874e-01  8.291597e-01  3.492064e-01
     vertex  2.720749e-01  8.414473e-01  3.492064e-01
   endloop
 endfacet
 facet normal -8.467242e-01  5.320321e-01  0.000000e+00
   outer loop
     vertex  2.505422e-01  8.144460e-01  7.936513e-02
     vertex  2.597874e-01  8.291597e-01  3.492064e-01
     vertex  2.597874e-01  8.291597e-01  7.936513e-02
   endloop
 endfacet
 facet normal -8.467242e-01  5.320321e-01  0.000000e+00
   outer loop
     vertex  2.505422e-01  8.144460e-01  7.936513e-02
     vertex  2.505422e-01  8.144460e-01  3.492064e-01
     vertex  2.597874e-01  8.291597e-01  3.492064e-01
   endloop
 endfacet
 facet normal -9.438833e-01  3.302791e-01  0.000000e+00
   outer loop
     vertex  2.448028e-01  7.980440e-01  7.936513e-02
     vertex  2.448028e-01  7.980440e-01  3.492064e-01
     vertex  2.505422e-01  8.144460e-01  3.492064e-01
   endloop
 endfacet
 facet normal -9.438833e-01  3.302791e-01  0.000000e+00
   outer loop
     vertex  2.448028e-01  7.980440e-01  7.936513e-02
     vertex  2.505422e-01  8.144460e-01  3.492064e-01
     vertex  2.505422e-01  8.144460e-01  7.936513e-02
   endloop
 endfacet
 facet normal -9.937122e-01  1.119645e-01  0.000000e+00
   outer loop
     vertex  2.428572e-01  7.807761e-01  7.936513e-02
     vertex  2.428572e-01  7.807761e-01  3.492064e-01
     vertex  2.448028e-01  7.980440e-01  3.492064e-01
   endloop
 endfacet
 facet normal -9.937122e-01  1.119645e-01  0.000000e+00
   outer loop
     vertex  2.428572e-01  7.807761e-01  7.936513e-02
     vertex  2.448028e-01  7.980440e-01  3.492064e-01
     vertex  2.448028e-01  7.980440e-01  7.936513e-02
   endloop
 endfacet
 facet normal -9.937122e-01 -1.119645e-01  0.000000e+00
   outer loop
     vertex  2.448028e-01  7.635081e-01  7.936513e-02
     vertex  2.448028e-01  7.635081e-01  3.492064e-01
     vertex  2.428572e-01  7.807761e-01  3.492064e-01
   endloop
 endfacet
 facet normal -9.937122e-01 -1.119645e-01  0.000000e+00
   outer loop
     vertex  2.448028e-01  7.635081e-01  7.936513e-02
     vertex  2.428572e-01  7.807761e-01  3.492064e-01
     vertex  2.428572e-01  7.807761e-01  7.936513e-02
   endloop
 endfacet
 facet normal -9.438833e-01 -3.302791e-01  0.000000e+00
   outer loop
     vertex  2.505422e-01  7.471061e-01  7.936513e-02
     vertex  2.448028e-01  7.635081e-01  3.492064e-01
     vertex  2.448028e-01  7.635081e-01  7.936513e-02
   endloop
 endfacet
 facet normal -9.438833e-01 -3.302791e-01  0.000000e+00
   outer loop
     vertex  2.505422e-01  7.471061e-01  7.936513e-02
     vertex  2.505422e-01  7.471061e-01  3.492064e-01
     vertex  2.448028e-01  7.635081e-01  3.492064e-01
   endloop
 endfacet
 facet normal -8.467242e-01 -5.320321e-01  0.000000e+00
   outer loop
     vertex  2.597874e-01  7.323924e-01  7.936513e-02
     vertex  2.597874e-01  7.323924e-01  3.492064e-01
     vertex  2.505422e-01  7.471061e-01  3.492064e-01
   endloop
 endfacet
 facet normal -7.071068e-01 -7.071068e-01  0.000000e+00
   outer loop
     vertex  2.597874e-01  7.323924e-01  7.936513e-02
     vertex  2.720749e-01  7.201048e-01  3.492064e-01
     vertex  2.597874e-01  7.323924e-01  3.492064e-01
   endloop
 endfacet
 facet normal -8.467242e-01 -5.320321e-01  0.000000e+00
   outer loop
     vertex  2.597874e-01  7.323924e-01  7.936513e-02
     vertex  2.505422e-01  7.471061e-01  3.492064e-01
     vertex  2.505422e-01  7.471061e-01  7.936513e-02
   endloop
 endfacet
 facet normal -7.071068e-01 -7.071068e-01  0.000000e+00
   outer loop
     vertex  2.720749e-01  7.201048e-01  7.936513e-02
     vertex  2.720749e-01  7.201048e-01  3.492064e-01
     vertex  2.597874e-01  7.323924e-01  7.936513e-02
   endloop
 endfacet
 facet normal -5.320321e-01 -8.467242e-01  0.000000e+00
   outer loop
     vertex  2.867886e-01  7.108596e-01  7.936513e-02
     vertex  2.867886e-01  7.108596e-01  3.492064e-01
     vertex  2.720749e-01  7.201048e-01  3.492064e-01
   endloop
 endfacet
 facet normal -5.320321e-01 -8.467242e-01  0.000000e+00
   outer loop
     vertex  2.867886e-01  7.108596e-01  7.936513e-02
     vertex  2.720749e-01  7.201048e-01  3.492064e-01
     vertex  2.720749e-01  7.201048e-01  7.936513e-02
   endloop
 endfacet
 facet normal -3.302791e-01 -9.438833e-01  0.000000e+00
   outer loop
     vertex  3.031907e-01  7.051203e-01  7.936513e-02
     vertex  3.031907e-01  7.051203e-01  3.492064e-01
     vertex  2.867886e-01  7.108596e-01  3.492064e-01
   endloop
 endfacet
 facet normal -3.302791e-01 -9.438833e-01  0.000000e+00
   outer loop
     vertex  3.031907e-01  7.051203e-01  7.936513e-02
     vertex  2.867886e-01  7.108596e-01  3.492064e-01
     vertex  2.867886e-01  7.108596e-01  7.936513e-02
   endloop
 endfacet
 facet normal -1.119645e-01 -9.937122e-01  0.000000e+00
   outer loop
     vertex  3.204586e-01  7.031746e-01  7.936513e-02
     vertex  3.204586e-01  7.031746e-01  3.492064e-01
     vertex  3.031907e-01  7.051203e-01  3.492064e-01
   endloop
 endfacet
 facet normal -1.119645e-01 -9.937122e-01  0.000000e+00
   outer loop
     vertex  3.204586e-01  7.031746e-01  7.936513e-02
     vertex  3.031907e-01  7.051203e-01  3.492064e-01
     vertex  3.031907e-01  7.051203e-01  7.936513e-02
   endloop
 endfacet
 facet normal  1.119645e-01 -9.937122e-01  0.000000e+00
   outer loop
     vertex  3.377266e-01  7.051203e-01  7.936513e-02
     vertex  3.377266e-01  7.051203e-01  3.492064e-01
     vertex  3.204586e-01  7.031746e-01  3.492064e-01
   endloop
 endfacet
 facet normal  1.119645e-01 -9.937122e-01  0.000000e+00
   outer loop
     vertex  3.377266e-01  7.051203e-01  7.936513e-02
     vertex  3.204586e-01  7.031746e-01  3.492064e-01
     vertex  3.204586e-01  7.031746e-01  7.936513e-02
   endloop
 endfacet
 facet normal  3.302791e-01 -9.438833e-01  0.000000e+00
   outer loop
     vertex  3.541286e-01  7.108596e-01  7.936513e-02
     vertex  3.541286e-01  7.108596e-01  3.492064e-01
     vertex  3.377266e-01  7.051203e-01  3.492064e-01
   endloop
 endfacet
 facet normal  5.320321e-01 -8.467242e-01  0.000000e+00
   outer loop
     vertex  3.541286e-01  7.108596e-01  7.936513e-02
     vertex  3.688423e-01  7.201048e-01  3.492064e-01
     vertex  3.541286e-01  7.108596e-01  3.492064e-01
   endloop
 endfacet
 facet normal  3.302791e-01 -9.438833e-01  0.000000e+00
   outer loop
     vertex  3.541286e-01  7.108596e-01  7.936513e-02
     vertex  3.377266e-01  7.051203e-01  3.492064e-01
     vertex  3.377266e-01  7.051203e-01  7.936513e-02
   endloop
 endfacet
 facet normal  5.320321e-01 -8.467242e-01  0.000000e+00
   outer loop
     vertex  3.688423e-01  7.201048e-01  7.936513e-02
     vertex  3.688423e-01  7.201048e-01  3.492064e-01
     vertex  3.541286e-01  7.108596e-01  7.936513e-02
   endloop
 endfacet
 facet normal  7.071068e-01 -7.071068e-01  0.000000e+00
   outer loop
     vertex  3.811298e-01  7.323924e-01  7.936513e-02
     vertex  3.811298e-01  7.323924e-01  3.492064e-01
     vertex  3.688423e-01  7.201048e-01  3.492064e-01
   endloop
 endfacet
 facet normal  8.467242e-01 -5.320321e-01  0.000000e+00
   outer loop
     vertex  3.811298e-01  7.323924e-01  7.936513e-02
     vertex  3.903751e-01  7.471061e-01  3.492064e-01
     vertex  3.811298e-01  7.323924e-01  3.492064e-01
   endloop
 endfacet
 facet normal  7.071068e-01 -7.071068e-01  0.000000e+00
   outer loop
     vertex  3.811298e-01  7.323924e-01  7.936513e-02
     vertex  3.688423e-01  7.201048e-01  3.492064e-01
     vertex  3.688423e-01  7.201048e-01  7.936513e-02
   endloop
 endfacet
 facet normal  8.467242e-01 -5.320321e-01  0.000000e+00
   outer loop
     vertex  3.903751e-01  7.471061e-01  7.936513e-02
     vertex  3.903751e-01  7.471061e-01  3.492064e-01
     vertex  3.811298e-01  7.323924e-01  7.936513e-02
   endloop
 endfacet
 facet normal  9.438833e-01 -3.302791e-01  0.000000e+00
   outer loop
     vertex  3.961144e-01  7.635081e-01  7.936513e-02
     vertex  3.961144e-01  7.635081e-01  3.492064e-01
     vertex  3.903751e-01  7.471061e-01  3.492064e-01
   endloop
 endfacet
 facet normal  9.438833e-01 -3.302791e-01  0.000000e+00
   outer loop
     vertex  3.961144e-01  7.635081e-01  7.936513e-02
     vertex  3.903751e-01  7.471061e-01  3.492064e-01
     vertex  3.903751e-01  7.471061e-01  7.936513e-02
   endloop
 endfacet
 facet normal  9.937122e-01 -1.119645e-01  0.000000e+00
   outer loop
     vertex  3.980600e-01  7.807761e-01  7.936513e-02
     vertex  3.980600e-01  7.807761e-01  3.492064e-01
     vertex  3.961144e-01  7.635081e-01  3.492064e-01
   endloop
 endfacet
 facet normal  9.937122e-01 -1.119645e-01  0.000000e+00
   outer loop
     vertex  3.980600e-01  7.807761e-01  7.936513e-02
     vertex  3.961144e-01  7.635081e-01  3.492064e-01
     vertex  3.961144e-01  7.635081e-01  7.936513e-02
   endloop
 endfacet
 facet normal  0.000000e+00  0.000000e+00  1.000000e+00
   outer loop
     vertex  3.688423e-01  8.414473e-01  3.492064e-01
     vertex  3.980600e-01  7.807761e-01  3.492064e-01
     vertex  3.961144e-01  7.980440e-01  3.492064e-01
   endloop
 endfacet
 facet normal  0.000000e+00  0.000000e+00  1.000000e+00
   outer loop
     vertex  3.688423e-01  8.414473e-01  3.492064e-01
     vertex  3.961144e-01  7.980440e-01  3.492064e-01
     vertex  3.903751e-01  8.144460e-01  3.492064e-01
   endloop
 endfacet
 facet normal  0.000000e+00  0.000000e+00  1.000000e+00
   outer loop
     vertex  3.688423e-01  8.414473e-01  3.492064e-01
     vertex  3.903751e-01  8.144460e-01  3.492064e-01
     vertex  3.811298e-01  8.291597e-01  3.492064e-01
   endloop
 endfacet
 facet normal  0.000000e+00  0.000000e+00  1.000000e+00
   outer loop
     vertex  3.688423e-01  8.414473e-01  3.492064e-01
     vertex  3.541286e-01  8.506925e-01  3.492064e-01
     vertex  3.377266e-01  8.564318e-01  3.492064e-01
   endloop
 endfacet
 facet normal  0.000000e+00  0.000000e+00  1.000000e+00
   outer loop
     vertex  3.688423e-01  8.414473e-01  3.492064e-01
     vertex  3.377266e-01  8.564318e-01  3.492064e-01
     vertex  3.204586e-01  8.583775e-01  3.492064e-01
   endloop
 endfacet
 facet normal  0.000000e+00  0.000000e+00  1.000000e+00
   outer loop
     vertex  3.688423e-01  8.414473e-01  3.492064e-01
     vertex  3.204586e-01  8.583775e-01  3.492064e-01
     vertex  3.031907e-01  8.564318e-01  3.492064e-01
   endloop
 endfacet
 facet normal  0.000000e+00  0.000000e+00  1.000000e+00
   outer loop
     vertex  3.688423e-01  8.414473e-01  3.492064e-01
     vertex  3.031907e-01  8.564318e-01  3.492064e-01
     vertex  2.867886e-01  8.506925e-01  3.492064e-01
   endloop
 endfacet
 facet normal  0.000000e+00  0.000000e+00  1.000000e+00
   outer loop
     vertex  3.688423e-01  8.414473e-01  3.492064e-01
     vertex  2.867886e-01  8.506925e-01  3.492064e-01
     vertex  2.720749e-01  8.414473e-01  3.492064e-01
   endloop
 endfacet
 facet normal  0.000000e+00  0.000000e+00  1.000000e+00
   outer loop
     vertex  3.688423e-01  8.414473e-01  3.492064e-01
     vertex  2.720749e-01  8.414473e-01  3.492064e-01
     vertex  2.597874e-01  8.291597e-01  3.492064e-01
   endloop
 endfacet
 facet normal  0.000000e+00  0.000000e+00  1.000000e+00
   outer loop
     vertex  3.688423e-01  8.414473e-01  3.492064e-01
     vertex  2.597874e-01  8.291597e-01  3.492064e-01
     vertex  2.505422e-01  8.144460e-01  3.492064e-01
   endloop
 endfacet
 facet normal  0.000000e+00  0.000000e+00  1.000000e+00
   outer loop
     vertex  3.688423e-01  8.414473e-01  3.492064e-01
     vertex  2.505422e-01  8.144460e-01  3.492064e-01
     vertex  2.448028e-01  7.980440e-01  3.492064e-01
   endloop
 endfacet
 facet normal  0.000000e+00  0.000000e+00  1.000000e+00
   outer loop
     vertex  3.688423e-01  8.414473e-01  3.492064e-01
     vertex  2.448028e-01  7.980440e-01  3.492064e-01
     vertex  2.428572e-01  7.807761e-01  3.492064e-01
   endloop
 endfacet
 facet normal  0.000000e+00  0.000000e+00  1.000000e+00
   outer loop
     vertex  3.688423e-01  8.414473e-01  3.492064e-01
     vertex  2.428572e-01  7.807761e-01  3.492064e-01
     vertex  2.448028e-01  7.635081e-01  3.492064e-01
   endloop
 endfacet
 facet normal  0.000000e+00  0.000000e+00  1.000000e+00
   outer loop
     vertex  3.688423e-01  8.414473e-01  3.492064e-01
     vertex  2.448028e-01  7.635081e-01  3.492064e-01
     vertex  2.505422e-01  7.471061e-01  3.492064e-01
   endloop
 endfacet
 facet normal  0.000000e+00  0.000000e+00  1.000000e+00
   outer loop
     vertex  3.688423e-01  8.414473e-01  3.492064e-01
     vertex  2.505422e-01  7.471061e-01  3.492064e-01
     vertex  2.597874e-01  7.323924e-01  3.492064e-01
   endloop
 endfacet
 facet normal  0.000000e+00  0.000000e+00  1.000000e+00
   outer loop
     vertex  3.688423e-01  8.414473e-01  3.492064e-01
     vertex  2.597874e-01  7.323924e-01  3.492064e-01
     vertex  2.720749e-01  7.201048e-01  3.492064e-01
   endloop
 endfacet
 facet normal  0.000000e+00  0.000000e+00  1.000000e+00
   outer loop
     vertex  3.688423e-01  8.414473e-01  3.492064e-01
     vertex  2.720749e-01  7.201048e-01  3.492064e-01
     vertex  2.867886e-01  7.108596e-01  3.492064e-01
   endloop
 endfacet
 facet normal  0.000000e+00  0.000000e+00  1.000000e+00
   outer loop
     vertex  3.688423e-01  8.414473e-01  3.492064e-01
     vertex  2.867886e-01  7.108596e-01  3.492064e-01
     vertex  3.031907e-01  7.051203e-01  3.492064e-01
   endloop
 endfacet
 facet normal  0.000000e+00  0.000000e+00  1.000000e+00
   outer loop
     vertex  3.688423e-01  8.414473e-01  3.492064e-01
     vertex  3.031907e-01  7.051203e-01  3.492064e-01
     vertex  3.204586e-01  7.031746e-01  3.492064e-01
   endloop
 endfacet
 facet normal  0.000000e+00  0.000000e+00  1.000000e+00
   outer loop
     vertex  3.688423e-01  8.414473e-01  3.492064e-01
     vertex  3.204586e-01  7.031746e-01  3.492064e-01
     vertex  3.377266e-01  7.051203e-01  3.492064e-01
   endloop
 endfacet
 facet normal  0.000000e+00  0.000000e+00  1.000000e+00
   outer loop
     vertex  3.688423e-01  8.414473e-01  3.492064e-01
     vertex  3.377266e-01  7.051203e-01  3.492064e-01
     vertex  3.541286e-01  7.108596e-01  3.492064e-01
   endloop
 endfacet
 facet normal  0.000000e+00  0.000000e+00  1.000000e+00
   outer loop
     vertex  3.688423e-01  8.414473e-01  3.492064e-01
     vertex  3.541286e-01  7.108596e-01  3.492064e-01
     vertex  3.688423e-01  7.201048e-01  3.492064e-01
   endloop
 endfacet
 facet normal  0.000000e+00  0.000000e+00  1.000000e+00
   outer loop
     vertex  3.688423e-01  8.414473e-01  3.492064e-01
     vertex  3.688423e-01  7.201048e-01  3.492064e-01
     vertex  3.811298e-01  7.323924e-01  3.492064e-01
   endloop
 endfacet
 facet normal  0.000000e+00  0.000000e+00  1.000000e+00
   outer loop
     vertex  3.688423e-01  8.414473e-01  3.492064e-01
     vertex  3.811298e-01  7.323924e-01  3.492064e-01
     vertex  3.903751e-01  7.471061e-01  3.492064e-01
   endloop
 endfacet
 facet normal  0.000000e+00  0.000000e+00  1.000000e+00
   outer loop
     vertex  3.688423e-01  8.414473e-01  3.492064e-01
     vertex  3.903751e-01  7.471061e-01  3.492064e-01
     vertex  3.961144e-01  7.635081e-01  3.492064e-01
   endloop
 endfacet
 facet normal  0.000000e+00  0.000000e+00  1.000000e+00
   outer loop
     vertex  3.688423e-01  8.414473e-01  3.492064e-01
     vertex  3.961144e-01  7.635081e-01  3.492064e-01
     vertex  3.980600e-01  7.807761e-01  3.492064e-01
   endloop
 endfacet
endsolid
