solid 
 facet normal  8.552878e-16  0.000000e+00 -1.000000e+00
   outer loop
     vertex -3.509703e-02 -1.587302e-02 -5.308645e-02
     vertex -2.698410e-02 -1.904762e-01 -5.308645e-02
     vertex -3.509703e-02 -1.904762e-01 -5.308645e-02
   endloop
 endfacet
 facet normal -1.793233e-17 -0.000000e+00 -1.000000e+00
   outer loop
     vertex  3.599647e-01 -1.587302e-02 -5.308645e-02
     vertex  3.599647e-01 -1.904762e-01 -5.308645e-02
     vertex -2.698410e-02 -1.904762e-01 -5.308645e-02
   endloop
 endfacet
 facet normal -0.000000e+00 -3.974093e-17 -1.000000e+00
   outer loop
     vertex  3.599647e-01 -1.587302e-02 -5.308645e-02
     vertex -2.698410e-02 -1.904762e-01 -5.308645e-02
     vertex -3.509703e-02 -1.587302e-02 -5.308645e-02
   endloop
 endfacet
 facet normal -1.000000e+00  0.000000e+00  1.311460e-15
   outer loop
     vertex -3.509703e-02 -1.587302e-02  5.395061e-01
     vertex -3.509703e-02 -1.904762e-01  5.236332e-01
     vertex -3.509703e-02 -1.904762e-01  5.395061e-01
   endloop
 endfacet
 facet normal -1.000000e+00 -0.000000e+00 -3.609497e-17
   outer loop
     vertex -3.509703e-02 -1.587302e-02 -5.308645e-02
     vertex -3.509703e-02 -1.904762e-01 -5.308645e-02
     vertex -3.509703e-02 -1.904762e-01  5.236332e-01
   endloop
 endfacet
 facet normal -1.000000e+00  1.192228e-16  0.000000e+00
   outer loop
     vertex -3.509703e-02 -1.587302e-02 -5.308645e-02
     vertex -3.509703e-02 -1.904762e-01  5.236332e-01
     vertex -3.509703e-02 -1.587302e-02  5.395061e-01
   endloop
 endfacet
 facet normal -1.000000e+00  0.000000e+00  0.000000e+00
   outer loop
     vertex  3.599647e-01 -1.904762e-01 -2.523810e-01
     vertex  3.599647e-01 -1.904762e-01 -5.308645e-02
     vertex  3.599647e-01 -1.587302e-02 -5.308645e-02
   endloop
 endfacet
 facet normal -1.000000e+00  0.000000e+00  0.000000e+00
   outer loop
     vertex  3.599647e-01 -1.587302e-02 -4.481482e-01
     vertex  3.599647e-01 -1.904762e-01 -2.534391e-01
     vertex  3.599647e-01 -1.904762e-01 -2.523810e-01
   endloop
 endfacet
 facet normal -1.000000e+00  0.000000e+00  0.000000e+00
   outer loop
     vertex  3.599647e-01 -1.587302e-02 -4.481482e-01
     vertex  3.599647e-01 -1.904762e-01 -4.481482e-01
     vertex  3.599647e-01 -1.904762e-01 -2.534391e-01
   endloop
 endfacet
 facet normal -1.000000e+00  0.000000e+00  0.000000e+00
   outer loop
     vertex  3.599647e-01 -1.587302e-02 -4.481482e-01
     vertex  3.599647e-01 -1.904762e-01 -2.523810e-01
     vertex  3.599647e-01 -1.587302e-02 -5.308645e-02
   endloop
 endfacet
 facet normal  0.000000e+00  0.000000e+00 -1.000000e+00
   outer loop
     vertex  3.599647e-01 -1.587302e-02 -5.308645e-02
     vertex -3.509703e-02 -1.587302e-02 -5.308645e-02
     vertex -3.509703e-02  0.000000e+00 -5.308645e-02
   endloop
 endfacet
 facet normal  0.000000e+00  0.000000e+00 -1.000000e+00
   outer loop
     vertex  3.599647e-01 -1.587302e-02 -5.308645e-02
     vertex -3.509703e-02  0.000000e+00 -5.308645e-02
     vertex  3.599647e-01  0.000000e+00 -5.308645e-02
   endloop
 endfacet
 facet normal  0.000000e+00  1.000000e+00  2.508850e-07
   outer loop
     vertex -3.509703e-02 -1.904762e-01 -5.308645e-02
     vertex -2.698410e-02 -1.904762e-01 -2.523810e-01
     vertex -4.285711e-02 -1.904762e-01 -2.523810e-01
   endloop
 endfacet
 facet normal -3.081499e-06  1.000000e+00  1.254425e-07
   outer loop
     vertex -2.698410e-02 -1.904762e-01 -5.308645e-02
     vertex -2.698410e-02 -1.904762e-01 -2.523810e-01
     vertex -3.509703e-02 -1.904762e-01 -5.308645e-02
   endloop
 endfacet
 facet normal  3.221616e-06  1.000000e+00 -4.334862e-08
   outer loop
     vertex -3.509703e-02 -1.904762e-01  5.236332e-01
     vertex -3.509703e-02 -1.904762e-01 -5.308645e-02
     vertex -4.285711e-02 -1.904762e-01  5.236332e-01
   endloop
 endfacet
 facet normal  6.443232e-06  1.000000e+00  0.000000e+00
   outer loop
     vertex -4.285711e-02 -1.904762e-01  5.236332e-01
     vertex -3.509703e-02 -1.904762e-01 -5.308645e-02
     vertex -4.285711e-02 -1.904762e-01 -2.523810e-01
   endloop
 endfacet
 facet normal  6.460803e-08  1.000000e+00  1.254425e-07
   outer loop
     vertex  3.599647e-01 -1.904762e-01 -5.308645e-02
     vertex -2.698410e-02 -1.904762e-01 -2.523810e-01
     vertex -2.698410e-02 -1.904762e-01 -5.308645e-02
   endloop
 endfacet
 facet normal  6.460803e-08  1.000000e+00  1.254425e-07
   outer loop
     vertex  3.599647e-01 -1.904762e-01 -5.308645e-02
     vertex  3.599647e-01 -1.904762e-01 -2.523810e-01
     vertex -2.698410e-02 -1.904762e-01 -2.523810e-01
   endloop
 endfacet
 facet normal -0.000000e+00  0.000000e+00  1.000000e+00
   outer loop
     vertex -3.509703e-02 -1.587302e-02  5.395061e-01
     vertex  7.550265e-01 -1.904762e-01  5.395061e-01
     vertex  7.550265e-01 -1.587302e-02  5.395061e-01
   endloop
 endfacet
 facet normal  0.000000e+00  0.000000e+00  1.000000e+00
   outer loop
     vertex -3.509703e-02 -1.587302e-02  5.395061e-01
     vertex -3.509703e-02 -1.904762e-01  5.395061e-01
     vertex  7.550265e-01 -1.904762e-01  5.395061e-01
   endloop
 endfacet
 facet normal -1.000000e+00  0.000000e+00  0.000000e+00
   outer loop
     vertex -3.509703e-02 -1.587302e-02 -5.308645e-02
     vertex -3.509703e-02 -1.587302e-02  5.395061e-01
     vertex -3.509703e-02  0.000000e+00  5.395061e-01
   endloop
 endfacet
 facet normal -1.000000e+00  0.000000e+00  0.000000e+00
   outer loop
     vertex -3.509703e-02 -1.587302e-02 -5.308645e-02
     vertex -3.509703e-02  0.000000e+00  5.395061e-01
     vertex -3.509703e-02  0.000000e+00 -5.308645e-02
   endloop
 endfacet
 facet normal  6.982757e-08 -1.000000e+00  1.283967e-07
   outer loop
     vertex  7.179895e-01 -1.904762e-01 -2.534391e-01
     vertex  3.599647e-01 -1.904762e-01 -2.534391e-01
     vertex  3.599647e-01 -1.904762e-01 -4.481482e-01
   endloop
 endfacet
 facet normal  0.000000e+00 -1.000000e+00  2.567934e-07
   outer loop
     vertex  7.179895e-01 -1.904762e-01 -2.534391e-01
     vertex  3.599647e-01 -1.904762e-01 -4.481482e-01
     vertex  7.550265e-01 -1.904762e-01 -4.481482e-01
   endloop
 endfacet
 facet normal -0.000000e+00 -1.000000e+00  0.000000e+00
   outer loop
     vertex  7.331571e-01 -1.904762e-01 -2.523810e-01
     vertex  7.179895e-01 -1.904762e-01 -2.523810e-01
     vertex  7.179895e-01 -1.904762e-01 -2.534391e-01
   endloop
 endfacet
 facet normal -1.768050e-08 -1.000000e+00  2.534303e-07
   outer loop
     vertex  7.331571e-01 -1.904762e-01 -2.523810e-01
     vertex  7.179895e-01 -1.904762e-01 -2.534391e-01
     vertex  7.550265e-01 -1.904762e-01 -4.481482e-01
   endloop
 endfacet
 facet normal  3.081499e-06 -1.000000e+00  4.849473e-20
   outer loop
     vertex -2.698410e-02 -1.904762e-01  5.253969e-01
     vertex -3.509703e-02 -1.904762e-01  5.236332e-01
     vertex -2.698410e-02 -1.904762e-01  5.236332e-01
   endloop
 endfacet
 facet normal  3.423891e-06 -1.000000e+00 -1.575011e-06
   outer loop
     vertex -3.509703e-02 -1.904762e-01  5.395061e-01
     vertex -3.509703e-02 -1.904762e-01  5.236332e-01
     vertex -2.698410e-02 -1.904762e-01  5.253969e-01
   endloop
 endfacet
 facet normal -0.000000e+00 -1.000000e+00 -3.543778e-06
   outer loop
     vertex  7.179895e-01 -1.904762e-01  5.253969e-01
     vertex -3.509703e-02 -1.904762e-01  5.395061e-01
     vertex -2.698410e-02 -1.904762e-01  5.253969e-01
   endloop
 endfacet
 facet normal  0.000000e+00 -1.000000e+00  0.000000e+00
   outer loop
     vertex  7.331571e-01 -1.904762e-01  5.236332e-01
     vertex  7.179895e-01 -1.904762e-01  5.253969e-01
     vertex  7.179895e-01 -1.904762e-01  5.236332e-01
   endloop
 endfacet
 facet normal -2.286294e-06 -1.000000e+00  0.000000e+00
   outer loop
     vertex  7.550265e-01 -1.904762e-01  5.395061e-01
     vertex  7.331571e-01 -1.904762e-01  5.236332e-01
     vertex  7.331571e-01 -1.904762e-01 -2.523810e-01
   endloop
 endfacet
 facet normal -3.157037e-07 -1.000000e+00 -2.715050e-06
   outer loop
     vertex  7.550265e-01 -1.904762e-01  5.395061e-01
     vertex  7.179895e-01 -1.904762e-01  5.253969e-01
     vertex  7.331571e-01 -1.904762e-01  5.236332e-01
   endloop
 endfacet
 facet normal -0.000000e+00 -1.000000e+00 -3.543778e-06
   outer loop
     vertex  7.550265e-01 -1.904762e-01  5.395061e-01
     vertex -3.509703e-02 -1.904762e-01  5.395061e-01
     vertex  7.179895e-01 -1.904762e-01  5.253969e-01
   endloop
 endfacet
 facet normal -2.286294e-06 -1.000000e+00  0.000000e+00
   outer loop
     vertex  7.550265e-01 -1.904762e-01 -4.481482e-01
     vertex  7.550265e-01 -1.904762e-01  5.395061e-01
     vertex  7.331571e-01 -1.904762e-01 -2.523810e-01
   endloop
 endfacet
 facet normal -0.000000e+00  0.000000e+00 -1.000000e+00
   outer loop
     vertex  7.550265e-01 -1.587302e-02 -4.481482e-01
     vertex  3.599647e-01 -1.904762e-01 -4.481482e-01
     vertex  3.599647e-01 -1.587302e-02 -4.481482e-01
   endloop
 endfacet
 facet normal  0.000000e+00 -0.000000e+00 -1.000000e+00
   outer loop
     vertex  7.550265e-01 -1.587302e-02 -4.481482e-01
     vertex  7.550265e-01 -1.904762e-01 -4.481482e-01
     vertex  3.599647e-01 -1.904762e-01 -4.481482e-01
   endloop
 endfacet
 facet normal -1.000000e+00  0.000000e+00  0.000000e+00
   outer loop
     vertex  3.599647e-01 -1.587302e-02 -4.481482e-01
     vertex  3.599647e-01 -1.587302e-02 -5.308645e-02
     vertex  3.599647e-01  0.000000e+00 -5.308645e-02
   endloop
 endfacet
 facet normal -1.000000e+00  0.000000e+00  0.000000e+00
   outer loop
     vertex  3.599647e-01 -1.587302e-02 -4.481482e-01
     vertex  3.599647e-01  0.000000e+00 -5.308645e-02
     vertex  3.599647e-01  0.000000e+00 -4.481482e-01
   endloop
 endfacet
 facet normal  6.460803e-08  1.000000e+00  0.000000e+00
   outer loop
     vertex  3.599647e-01 -1.904762e-01 -2.523810e-01
     vertex -2.698410e-02 -1.904762e-01 -2.534391e-01
     vertex -2.698410e-02 -1.904762e-01 -2.523810e-01
   endloop
 endfacet
 facet normal  6.460803e-08  1.000000e+00  0.000000e+00
   outer loop
     vertex  3.599647e-01 -1.904762e-01 -2.523810e-01
     vertex  3.599647e-01 -1.904762e-01 -2.534391e-01
     vertex -2.698410e-02 -1.904762e-01 -2.534391e-01
   endloop
 endfacet
 facet normal  0.000000e+00  1.000000e+00  0.000000e+00
   outer loop
     vertex  7.550265e-01  0.000000e+00 -4.481482e-01
     vertex  3.599647e-01  0.000000e+00 -4.481482e-01
     vertex  3.599647e-01  0.000000e+00 -5.308645e-02
   endloop
 endfacet
 facet normal  0.000000e+00  1.000000e+00  0.000000e+00
   outer loop
     vertex -3.509703e-02  0.000000e+00  5.395061e-01
     vertex  3.599647e-01  0.000000e+00 -5.308645e-02
     vertex -3.509703e-02  0.000000e+00 -5.308645e-02
   endloop
 endfacet
 facet normal  0.000000e+00  1.000000e+00  0.000000e+00
   outer loop
     vertex  7.550265e-01  0.000000e+00  5.395061e-01
     vertex  3.599647e-01  0.000000e+00 -5.308645e-02
     vertex -3.509703e-02  0.000000e+00  5.395061e-01
   endloop
 endfacet
 facet normal  0.000000e+00  1.000000e+00  0.000000e+00
   outer loop
     vertex  7.550265e-01  0.000000e+00  5.395061e-01
     vertex  7.550265e-01  0.000000e+00 -4.481482e-01
     vertex  3.599647e-01  0.000000e+00 -5.308645e-02
   endloop
 endfacet
 facet normal  0.000000e+00 -0.000000e+00  1.000000e+00
   outer loop
     vertex -2.698410e-02 -2.063492e-01  5.236332e-01
     vertex -2.698410e-02 -1.904762e-01  5.236332e-01
     vertex -3.509703e-02 -1.904762e-01  5.236332e-01
   endloop
 endfacet
 facet normal  0.000000e+00  0.000000e+00  1.000000e+00
   outer loop
     vertex -4.285711e-02 -2.063492e-01  5.236332e-01
     vertex -3.509703e-02 -1.904762e-01  5.236332e-01
     vertex -4.285711e-02 -1.904762e-01  5.236332e-01
   endloop
 endfacet
 facet normal  0.000000e+00  0.000000e+00  1.000000e+00
   outer loop
     vertex -4.285711e-02 -2.063492e-01  5.236332e-01
     vertex -2.698410e-02 -2.063492e-01  5.236332e-01
     vertex -3.509703e-02 -1.904762e-01  5.236332e-01
   endloop
 endfacet
 facet normal  0.000000e+00  0.000000e+00 -1.000000e+00
   outer loop
     vertex -2.698410e-02 -2.063492e-01 -2.523810e-01
     vertex -4.285711e-02 -2.063492e-01 -2.523810e-01
     vertex -4.285711e-02 -1.904762e-01 -2.523810e-01
   endloop
 endfacet
 facet normal  0.000000e+00  0.000000e+00 -1.000000e+00
   outer loop
     vertex -2.698410e-02 -2.063492e-01 -2.523810e-01
     vertex -4.285711e-02 -1.904762e-01 -2.523810e-01
     vertex -2.698410e-02 -1.904762e-01 -2.523810e-01
   endloop
 endfacet
 facet normal -1.000000e+00  0.000000e+00  0.000000e+00
   outer loop
     vertex -4.285711e-02 -2.063492e-01 -2.523810e-01
     vertex -4.285711e-02 -2.063492e-01  5.236332e-01
     vertex -4.285711e-02 -1.904762e-01  5.236332e-01
   endloop
 endfacet
 facet normal -1.000000e+00  0.000000e+00  0.000000e+00
   outer loop
     vertex -4.285711e-02 -2.063492e-01 -2.523810e-01
     vertex -4.285711e-02 -1.904762e-01  5.236332e-01
     vertex -4.285711e-02 -1.904762e-01 -2.523810e-01
   endloop
 endfacet
 facet normal  1.000000e+00  0.000000e+00  0.000000e+00
   outer loop
     vertex  7.550265e-01 -1.587302e-02  5.395061e-01
     vertex  7.550265e-01 -1.904762e-01 -4.481482e-01
     vertex  7.550265e-01 -1.587302e-02 -4.481482e-01
   endloop
 endfacet
 facet normal  1.000000e+00  0.000000e+00  0.000000e+00
   outer loop
     vertex  7.550265e-01 -1.587302e-02  5.395061e-01
     vertex  7.550265e-01 -1.904762e-01  5.395061e-01
     vertex  7.550265e-01 -1.904762e-01 -4.481482e-01
   endloop
 endfacet
 facet normal  0.000000e+00  0.000000e+00  1.000000e+00
   outer loop
     vertex -3.509703e-02 -1.587302e-02  5.395061e-01
     vertex  7.550265e-01 -1.587302e-02  5.395061e-01
     vertex  7.550265e-01  0.000000e+00  5.395061e-01
   endloop
 endfacet
 facet normal  0.000000e+00  0.000000e+00  1.000000e+00
   outer loop
     vertex -3.509703e-02 -1.587302e-02  5.395061e-01
     vertex  7.550265e-01  0.000000e+00  5.395061e-01
     vertex -3.509703e-02  0.000000e+00  5.395061e-01
   endloop
 endfacet
 facet normal  0.000000e+00  0.000000e+00 -1.000000e+00
   outer loop
     vertex  3.599647e-01 -1.904762e-01 -2.534391e-01
     vertex  7.179895e-01 -1.904762e-01 -2.534391e-01
     vertex  7.179895e-01 -2.063492e-01 -2.534391e-01
   endloop
 endfacet
 facet normal  0.000000e+00  0.000000e+00 -1.000000e+00
   outer loop
     vertex -2.698410e-02 -2.063492e-01 -2.534391e-01
     vertex -2.698410e-02 -1.904762e-01 -2.534391e-01
     vertex  3.599647e-01 -1.904762e-01 -2.534391e-01
   endloop
 endfacet
 facet normal  0.000000e+00  0.000000e+00 -1.000000e+00
   outer loop
     vertex -2.698410e-02 -2.063492e-01 -2.534391e-01
     vertex  3.599647e-01 -1.904762e-01 -2.534391e-01
     vertex  7.179895e-01 -2.063492e-01 -2.534391e-01
   endloop
 endfacet
 facet normal  1.000000e+00  0.000000e+00  0.000000e+00
   outer loop
     vertex  7.179895e-01 -2.063492e-01 -2.534391e-01
     vertex  7.179895e-01 -1.904762e-01 -2.523810e-01
     vertex  7.179895e-01 -2.063492e-01 -2.523810e-01
   endloop
 endfacet
 facet normal  1.000000e+00  0.000000e+00  0.000000e+00
   outer loop
     vertex  7.179895e-01 -2.063492e-01 -2.534391e-01
     vertex  7.179895e-01 -1.904762e-01 -2.534391e-01
     vertex  7.179895e-01 -1.904762e-01 -2.523810e-01
   endloop
 endfacet
 facet normal  0.000000e+00  0.000000e+00 -1.000000e+00
   outer loop
     vertex  7.331571e-01 -2.063492e-01 -2.523810e-01
     vertex  7.179895e-01 -2.063492e-01 -2.523810e-01
     vertex  7.179895e-01 -1.904762e-01 -2.523810e-01
   endloop
 endfacet
 facet normal  0.000000e+00  0.000000e+00 -1.000000e+00
   outer loop
     vertex  7.331571e-01 -2.063492e-01 -2.523810e-01
     vertex  7.179895e-01 -1.904762e-01 -2.523810e-01
     vertex  7.331571e-01 -1.904762e-01 -2.523810e-01
   endloop
 endfacet
 facet normal  1.000000e+00  0.000000e+00  0.000000e+00
   outer loop
     vertex  7.331571e-01 -2.063492e-01  5.236332e-01
     vertex  7.331571e-01 -2.063492e-01 -2.523810e-01
     vertex  7.331571e-01 -1.904762e-01 -2.523810e-01
   endloop
 endfacet
 facet normal  1.000000e+00 -0.000000e+00  0.000000e+00
   outer loop
     vertex  7.331571e-01 -2.063492e-01  5.236332e-01
     vertex  7.331571e-01 -1.904762e-01 -2.523810e-01
     vertex  7.331571e-01 -1.904762e-01  5.236332e-01
   endloop
 endfacet
 facet normal  0.000000e+00  0.000000e+00  1.000000e+00
   outer loop
     vertex  7.179895e-01 -2.063492e-01  5.236332e-01
     vertex  7.331571e-01 -2.063492e-01  5.236332e-01
     vertex  7.331571e-01 -1.904762e-01  5.236332e-01
   endloop
 endfacet
 facet normal  0.000000e+00  0.000000e+00  1.000000e+00
   outer loop
     vertex  7.179895e-01 -2.063492e-01  5.236332e-01
     vertex  7.331571e-01 -1.904762e-01  5.236332e-01
     vertex  7.179895e-01 -1.904762e-01  5.236332e-01
   endloop
 endfacet
 facet normal  1.000000e+00  0.000000e+00  0.000000e+00
   outer loop
     vertex  7.179895e-01 -2.063492e-01  5.253969e-01
     vertex  7.179895e-01 -2.063492e-01  5.236332e-01
     vertex  7.179895e-01 -1.904762e-01  5.236332e-01
   endloop
 endfacet
 facet normal  1.000000e+00 -0.000000e+00  0.000000e+00
   outer loop
     vertex  7.179895e-01 -2.063492e-01  5.253969e-01
     vertex  7.179895e-01 -1.904762e-01  5.236332e-01
     vertex  7.179895e-01 -1.904762e-01  5.253969e-01
   endloop
 endfacet
 facet normal  0.000000e+00  0.000000e+00  1.000000e+00
   outer loop
     vertex -2.698410e-02 -2.063492e-01  5.253969e-01
     vertex  7.179895e-01 -2.063492e-01  5.253969e-01
     vertex  7.179895e-01 -1.904762e-01  5.253969e-01
   endloop
 endfacet
 facet normal  0.000000e+00  0.000000e+00  1.000000e+00
   outer loop
     vertex -2.698410e-02 -2.063492e-01  5.253969e-01
     vertex  7.179895e-01 -1.904762e-01  5.253969e-01
     vertex -2.698410e-02 -1.904762e-01  5.253969e-01
   endloop
 endfacet
 facet normal -1.000000e+00  0.000000e+00 -1.573738e-14
   outer loop
     vertex -2.698410e-02 -2.063492e-01  5.236332e-01
     vertex -2.698410e-02 -2.063492e-01  5.253969e-01
     vertex -2.698410e-02 -1.904762e-01  5.253969e-01
   endloop
 endfacet
 facet normal -1.000000e+00  0.000000e+00 -1.573738e-14
   outer loop
     vertex -2.698410e-02 -2.063492e-01  5.236332e-01
     vertex -2.698410e-02 -1.904762e-01  5.253969e-01
     vertex -2.698410e-02 -1.904762e-01  5.236332e-01
   endloop
 endfacet
 facet normal  0.000000e+00  0.000000e+00 -1.000000e+00
   outer loop
     vertex  7.550265e-01 -1.587302e-02 -4.481482e-01
     vertex  3.599647e-01 -1.587302e-02 -4.481482e-01
     vertex  3.599647e-01  0.000000e+00 -4.481482e-01
   endloop
 endfacet
 facet normal  0.000000e+00  0.000000e+00 -1.000000e+00
   outer loop
     vertex  7.550265e-01 -1.587302e-02 -4.481482e-01
     vertex  3.599647e-01  0.000000e+00 -4.481482e-01
     vertex  7.550265e-01  0.000000e+00 -4.481482e-01
   endloop
 endfacet
 facet normal -1.000000e+00  0.000000e+00  0.000000e+00
   outer loop
     vertex -2.698410e-02 -2.063492e-01 -2.523810e-01
     vertex -2.698410e-02 -1.904762e-01 -2.534391e-01
     vertex -2.698410e-02 -2.063492e-01 -2.534391e-01
   endloop
 endfacet
 facet normal -1.000000e+00  0.000000e+00  0.000000e+00
   outer loop
     vertex -2.698410e-02 -2.063492e-01 -2.523810e-01
     vertex -2.698410e-02 -1.904762e-01 -2.523810e-01
     vertex -2.698410e-02 -1.904762e-01 -2.534391e-01
   endloop
 endfacet
 facet normal  1.000000e+00  0.000000e+00  0.000000e+00
   outer loop
     vertex  7.550265e-01 -1.587302e-02  5.395061e-01
     vertex  7.550265e-01 -1.587302e-02 -4.481482e-01
     vertex  7.550265e-01  0.000000e+00 -4.481482e-01
   endloop
 endfacet
 facet normal  1.000000e+00 -0.000000e+00  0.000000e+00
   outer loop
     vertex  7.550265e-01 -1.587302e-02  5.395061e-01
     vertex  7.550265e-01  0.000000e+00 -4.481482e-01
     vertex  7.550265e-01  0.000000e+00  5.395061e-01
   endloop
 endfacet
 facet normal -0.000000e+00  0.000000e+00  1.000000e+00
   outer loop
     vertex -4.285711e-02 -2.063492e-01  5.236332e-01
     vertex -2.698410e-02 -9.841270e-01  5.236332e-01
     vertex -2.698410e-02 -2.063492e-01  5.236332e-01
   endloop
 endfacet
 facet normal  0.000000e+00  0.000000e+00  1.000000e+00
   outer loop
     vertex -4.285711e-02 -2.063492e-01  5.236332e-01
     vertex -4.285711e-02 -9.841270e-01  5.236332e-01
     vertex -2.698410e-02 -9.841270e-01  5.236332e-01
   endloop
 endfacet
 facet normal -0.000000e+00  0.000000e+00 -1.000000e+00
   outer loop
     vertex -2.698410e-02 -2.063492e-01 -2.523810e-01
     vertex -4.285711e-02 -9.841270e-01 -2.523810e-01
     vertex -4.285711e-02 -2.063492e-01 -2.523810e-01
   endloop
 endfacet
 facet normal  0.000000e+00 -0.000000e+00 -1.000000e+00
   outer loop
     vertex -2.698410e-02 -2.063492e-01 -2.523810e-01
     vertex -2.698410e-02 -9.841270e-01 -2.523810e-01
     vertex -4.285711e-02 -9.841270e-01 -2.523810e-01
   endloop
 endfacet
 facet normal -1.000000e+00  0.000000e+00  0.000000e+00
   outer loop
     vertex -4.285711e-02 -2.063492e-01 -2.523810e-01
     vertex -4.285711e-02 -9.841270e-01  5.236332e-01
     vertex -4.285711e-02 -2.063492e-01  5.236332e-01
   endloop
 endfacet
 facet normal -1.000000e+00  0.000000e+00  0.000000e+00
   outer loop
     vertex -4.285711e-02 -2.063492e-01 -2.523810e-01
     vertex -4.285711e-02 -9.841270e-01 -2.523810e-01
     vertex -4.285711e-02 -9.841270e-01  5.236332e-01
   endloop
 endfacet
 facet normal  0.000000e+00  0.000000e+00 -1.000000e+00
   outer loop
     vertex -2.698410e-02 -2.063492e-01 -2.534391e-01
     vertex  7.179895e-01 -2.063492e-01 -2.534391e-01
     vertex  7.179895e-01 -9.841270e-01 -2.534391e-01
   endloop
 endfacet
 facet normal  0.000000e+00  0.000000e+00 -1.000000e+00
   outer loop
     vertex -2.698410e-02 -2.063492e-01 -2.534391e-01
     vertex  7.179895e-01 -9.841270e-01 -2.534391e-01
     vertex -2.698410e-02 -9.841270e-01 -2.534391e-01
   endloop
 endfacet
 facet normal  1.000000e+00  0.000000e+00 -0.000000e+00
   outer loop
     vertex  7.179895e-01 -2.063492e-01 -2.534391e-01
     vertex  7.179895e-01 -2.063492e-01 -2.523810e-01
     vertex  7.179895e-01 -9.841270e-01 -2.523810e-01
   endloop
 endfacet
 facet normal  1.000000e+00  0.000000e+00  0.000000e+00
   outer loop
     vertex  7.179895e-01 -2.063492e-01 -2.534391e-01
     vertex  7.179895e-01 -9.841270e-01 -2.523810e-01
     vertex  7.179895e-01 -9.841270e-01 -2.534391e-01
   endloop
 endfacet
 facet normal -0.000000e+00  0.000000e+00 -1.000000e+00
   outer loop
     vertex  7.331571e-01 -2.063492e-01 -2.523810e-01
     vertex  7.179895e-01 -9.841270e-01 -2.523810e-01
     vertex  7.179895e-01 -2.063492e-01 -2.523810e-01
   endloop
 endfacet
 facet normal  0.000000e+00 -0.000000e+00 -1.000000e+00
   outer loop
     vertex  7.331571e-01 -2.063492e-01 -2.523810e-01
     vertex  7.331571e-01 -9.841270e-01 -2.523810e-01
     vertex  7.179895e-01 -9.841270e-01 -2.523810e-01
   endloop
 endfacet
 facet normal  1.000000e+00  0.000000e+00  0.000000e+00
   outer loop
     vertex  7.331571e-01 -2.063492e-01  5.236332e-01
     vertex  7.331571e-01 -9.841270e-01 -2.523810e-01
     vertex  7.331571e-01 -2.063492e-01 -2.523810e-01
   endloop
 endfacet
 facet normal  1.000000e+00  0.000000e+00  0.000000e+00
   outer loop
     vertex  7.331571e-01 -2.063492e-01  5.236332e-01
     vertex  7.331571e-01 -9.841270e-01  5.236332e-01
     vertex  7.331571e-01 -9.841270e-01 -2.523810e-01
   endloop
 endfacet
 facet normal -0.000000e+00  0.000000e+00  1.000000e+00
   outer loop
     vertex  7.179895e-01 -2.063492e-01  5.236332e-01
     vertex  7.331571e-01 -9.841270e-01  5.236332e-01
     vertex  7.331571e-01 -2.063492e-01  5.236332e-01
   endloop
 endfacet
 facet normal  0.000000e+00  0.000000e+00  1.000000e+00
   outer loop
     vertex  7.179895e-01 -2.063492e-01  5.236332e-01
     vertex  7.179895e-01 -9.841270e-01  5.236332e-01
     vertex  7.331571e-01 -9.841270e-01  5.236332e-01
   endloop
 endfacet
 facet normal  1.000000e+00  0.000000e+00  0.000000e+00
   outer loop
     vertex  7.179895e-01 -2.063492e-01  5.253969e-01
     vertex  7.179895e-01 -9.841270e-01  5.236332e-01
     vertex  7.179895e-01 -2.063492e-01  5.236332e-01
   endloop
 endfacet
 facet normal  1.000000e+00  0.000000e+00  0.000000e+00
   outer loop
     vertex  7.179895e-01 -2.063492e-01  5.253969e-01
     vertex  7.179895e-01 -9.841270e-01  5.253969e-01
     vertex  7.179895e-01 -9.841270e-01  5.236332e-01
   endloop
 endfacet
 facet normal -0.000000e+00  0.000000e+00  1.000000e+00
   outer loop
     vertex -2.698410e-02 -2.063492e-01  5.253969e-01
     vertex  7.179895e-01 -9.841270e-01  5.253969e-01
     vertex  7.179895e-01 -2.063492e-01  5.253969e-01
   endloop
 endfacet
 facet normal  0.000000e+00  0.000000e+00  1.000000e+00
   outer loop
     vertex -2.698410e-02 -2.063492e-01  5.253969e-01
     vertex -2.698410e-02 -9.841270e-01  5.253969e-01
     vertex  7.179895e-01 -9.841270e-01  5.253969e-01
   endloop
 endfacet
 facet normal -1.000000e+00  0.000000e+00 -1.573738e-14
   outer loop
     vertex -2.698410e-02 -2.063492e-01  5.236332e-01
     vertex -2.698410e-02 -9.841270e-01  5.253969e-01
     vertex -2.698410e-02 -2.063492e-01  5.253969e-01
   endloop
 endfacet
 facet normal -1.000000e+00 -0.000000e+00 -1.573738e-14
   outer loop
     vertex -2.698410e-02 -2.063492e-01  5.236332e-01
     vertex -2.698410e-02 -9.841270e-01  5.236332e-01
     vertex -2.698410e-02 -9.841270e-01  5.253969e-01
   endloop
 endfacet
 facet normal -1.000000e+00  0.000000e+00 -0.000000e+00
   outer loop
     vertex -2.698410e-02 -2.063492e-01 -2.523810e-01
     vertex -2.698410e-02 -2.063492e-01 -2.534391e-01
     vertex -2.698410e-02 -9.841270e-01 -2.534391e-01
   endloop
 endfacet
 facet normal -1.000000e+00 -0.000000e+00  0.000000e+00
   outer loop
     vertex -2.698410e-02 -2.063492e-01 -2.523810e-01
     vertex -2.698410e-02 -9.841270e-01 -2.534391e-01
     vertex -2.698410e-02 -9.841270e-01 -2.523810e-01
   endloop
 endfacet
 facet normal  0.000000e+00 -1.000000e+00 -0.000000e+00
   outer loop
     vertex -2.698410e-02 -9.841270e-01  8.518522e-02
     vertex -4.285711e-02 -9.841270e-01 -2.523810e-01
     vertex -2.698410e-02 -9.841270e-01 -2.523810e-01
   endloop
 endfacet
 facet normal -0.000000e+00 -1.000000e+00  0.000000e+00
   outer loop
     vertex -2.698410e-02 -9.841270e-01  5.236332e-01
     vertex -4.285711e-02 -9.841270e-01  5.236332e-01
     vertex -2.698410e-02 -9.841270e-01  8.518522e-02
   endloop
 endfacet
 facet normal  0.000000e+00 -1.000000e+00  0.000000e+00
   outer loop
     vertex -4.285711e-02 -9.841270e-01  5.236332e-01
     vertex -4.285711e-02 -9.841270e-01 -2.523810e-01
     vertex -2.698410e-02 -9.841270e-01  8.518522e-02
   endloop
 endfacet
 facet normal -0.000000e+00 -1.000000e+00  0.000000e+00
   outer loop
     vertex  7.179895e-01 -9.841270e-01 -2.523810e-01
     vertex -2.698410e-02 -9.841270e-01 -2.523810e-01
     vertex -2.698410e-02 -9.841270e-01 -2.534391e-01
   endloop
 endfacet
 facet normal  0.000000e+00 -1.000000e+00 -0.000000e+00
   outer loop
     vertex  7.179895e-01 -9.841270e-01 -2.523810e-01
     vertex -2.698410e-02 -9.841270e-01 -2.534391e-01
     vertex  7.179895e-01 -9.841270e-01 -2.534391e-01
   endloop
 endfacet
 facet normal  0.000000e+00 -1.000000e+00  0.000000e+00
   outer loop
     vertex  7.179895e-01 -9.841270e-01  8.518522e-02
     vertex  7.179895e-01 -9.841270e-01 -2.523810e-01
     vertex  7.331571e-01 -9.841270e-01 -2.523810e-01
   endloop
 endfacet
 facet normal -0.000000e+00 -1.000000e+00  0.000000e+00
   outer loop
     vertex  7.331571e-01 -9.841270e-01  5.236332e-01
     vertex  7.179895e-01 -9.841270e-01  5.236332e-01
     vertex  7.179895e-01 -9.841270e-01  8.518522e-02
   endloop
 endfacet
 facet normal  0.000000e+00 -1.000000e+00  0.000000e+00
   outer loop
     vertex  7.331571e-01 -9.841270e-01 -2.523810e-01
     vertex  7.331571e-01 -9.841270e-01  5.236332e-01
     vertex  7.179895e-01 -9.841270e-01  8.518522e-02
   endloop
 endfacet
 facet normal -0.000000e+00 -1.000000e+00  0.000000e+00
   outer loop
     vertex  7.179895e-01 -9.841270e-01  5.253969e-01
     vertex -2.698410e-02 -9.841270e-01  5.253969e-01
     vertex -2.698410e-02 -9.841270e-01  5.236332e-01
   endloop
 endfacet
 facet normal  0.000000e+00 -1.000000e+00 -0.000000e+00
   outer loop
     vertex  7.179895e-01 -9.841270e-01  5.253969e-01
     vertex -2.698410e-02 -9.841270e-01  5.236332e-01
     vertex  7.179895e-01 -9.841270e-01  5.236332e-01
   endloop
 endfacet
 facet normal -0.000000e+00 -1.000000e+00  0.000000e+00
   outer loop
     vertex  7.179895e-01 -9.841270e-01  5.236332e-01
     vertex -2.698410e-02 -9.841270e-01  5.236332e-01
     vertex -2.698410e-02 -9.841270e-01  8.518522e-02
   endloop
 endfacet
 facet normal  0.000000e+00 -1.000000e+00 -0.000000e+00
   outer loop
     vertex  7.179895e-01 -9.841270e-01  5.236332e-01
     vertex -2.698410e-02 -9.841270e-01  8.518522e-02
     vertex  7.179895e-01 -9.841270e-01  8.518522e-02
   endloop
 endfacet
 facet normal -0.000000e+00 -1.000000e+00  0.000000e+00
   outer loop
     vertex  7.179895e-01 -9.841270e-01  8.518522e-02
     vertex -2.698410e-02 -9.841270e-01  8.518522e-02
     vertex -2.698410e-02 -9.841270e-01 -2.523810e-01
   endloop
 endfacet
 facet normal  0.000000e+00 -1.000000e+00 -0.000000e+00
   outer loop
     vertex  7.179895e-01 -9.841270e-01  8.518522e-02
     vertex -2.698410e-02 -9.841270e-01 -2.523810e-01
     vertex  7.179895e-01 -9.841270e-01 -2.523810e-01
   endloop
 endfacet
endsolid
