solid 
 facet normal -0.000000e+00  0.000000e+00 -1.000000e+00
   outer loop
     vertex  4.971781e-01 -1.587302e-02 -7.507937e-01
     vertex -4.650794e-01 -1.015873e+00 -7.507937e-01
     vertex -4.650794e-01 -1.587302e-02 -7.507937e-01
   endloop
 endfacet
 facet normal  0.000000e+00 -0.000000e+00 -1.000000e+00
   outer loop
     vertex  4.971781e-01 -1.587302e-02 -7.507937e-01
     vertex  4.971781e-01 -1.015873e+00 -7.507937e-01
     vertex -4.650794e-01 -1.015873e+00 -7.507937e-01
   endloop
 endfacet
 facet normal -1.000000e+00  0.000000e+00  0.000000e+00
   outer loop
     vertex -4.650794e-01 -1.587302e-02 -7.507937e-01
     vertex -4.650794e-01 -1.015873e+00  2.114639e-01
     vertex -4.650794e-01 -1.587302e-02  2.114639e-01
   endloop
 endfacet
 facet normal -1.000000e+00  0.000000e+00  0.000000e+00
   outer loop
     vertex -4.650794e-01 -1.587302e-02 -7.507937e-01
     vertex -4.650794e-01 -1.015873e+00 -7.507937e-01
     vertex -4.650794e-01 -1.015873e+00  2.114639e-01
   endloop
 endfacet
 facet normal  1.000000e+00  0.000000e+00  0.000000e+00
   outer loop
     vertex  4.971781e-01 -1.587302e-02  2.114639e-01
     vertex  4.971781e-01 -1.015873e+00 -7.507937e-01
     vertex  4.971781e-01 -1.587302e-02 -7.507937e-01
   endloop
 endfacet
 facet normal  1.000000e+00  0.000000e+00  0.000000e+00
   outer loop
     vertex  4.971781e-01 -1.587302e-02  2.114639e-01
     vertex  4.971781e-01 -1.015873e+00  2.114639e-01
     vertex  4.971781e-01 -1.015873e+00 -7.507937e-01
   endloop
 endfacet
 facet normal  0.000000e+00  0.000000e+00 -1.000000e+00
   outer loop
     vertex  4.971781e-01 -1.587302e-02 -7.507937e-01
     vertex -4.650794e-01 -1.587302e-02 -7.507937e-01
     vertex -4.650794e-01  0.000000e+00 -7.507937e-01
   endloop
 endfacet
 facet normal  0.000000e+00  0.000000e+00 -1.000000e+00
   outer loop
     vertex  4.971781e-01 -1.587302e-02 -7.507937e-01
     vertex -4.650794e-01  0.000000e+00 -7.507937e-01
     vertex  4.971781e-01  0.000000e+00 -7.507937e-01
   endloop
 endfacet
 facet normal -0.000000e+00 -1.000000e+00  0.000000e+00
   outer loop
     vertex -2.873084e-01 -1.015873e+00  6.586103e-02
     vertex -4.650794e-01 -1.015873e+00  2.114639e-01
     vertex -4.650794e-01 -1.015873e+00 -7.507937e-01
   endloop
 endfacet
 facet normal -0.000000e+00 -1.000000e+00  0.000000e+00
   outer loop
     vertex -2.774427e-01 -1.015873e+00  5.712082e-02
     vertex -2.873084e-01 -1.015873e+00  6.586103e-02
     vertex -4.650794e-01 -1.015873e+00 -7.507937e-01
   endloop
 endfacet
 facet normal -0.000000e+00 -1.000000e+00 -0.000000e+00
   outer loop
     vertex -2.947957e-01 -1.015873e+00  7.670826e-02
     vertex -4.650794e-01 -1.015873e+00  2.114639e-01
     vertex -2.873084e-01 -1.015873e+00  6.586103e-02
   endloop
 endfacet
 facet normal -0.000000e+00 -1.000000e+00  0.000000e+00
   outer loop
     vertex -2.657721e-01 -1.015873e+00  5.099559e-02
     vertex -2.774427e-01 -1.015873e+00  5.712082e-02
     vertex -4.650794e-01 -1.015873e+00 -7.507937e-01
   endloop
 endfacet
 facet normal -0.000000e+00 -1.000000e+00 -0.000000e+00
   outer loop
     vertex -2.994695e-01 -1.015873e+00  8.903213e-02
     vertex -4.650794e-01 -1.015873e+00  2.114639e-01
     vertex -2.947957e-01 -1.015873e+00  7.670826e-02
   endloop
 endfacet
 facet normal -0.000000e+00 -1.000000e+00  0.000000e+00
   outer loop
     vertex -2.529747e-01 -1.015873e+00  4.784132e-02
     vertex -2.657721e-01 -1.015873e+00  5.099559e-02
     vertex -4.650794e-01 -1.015873e+00 -7.507937e-01
   endloop
 endfacet
 facet normal -0.000000e+00 -1.000000e+00 -0.000000e+00
   outer loop
     vertex -3.010582e-01 -1.015873e+00  1.021164e-01
     vertex -4.650794e-01 -1.015873e+00  2.114639e-01
     vertex -2.994695e-01 -1.015873e+00  8.903213e-02
   endloop
 endfacet
 facet normal -0.000000e+00 -1.000000e+00  0.000000e+00
   outer loop
     vertex -2.397943e-01 -1.015873e+00  4.784132e-02
     vertex -2.529747e-01 -1.015873e+00  4.784132e-02
     vertex -4.650794e-01 -1.015873e+00 -7.507937e-01
   endloop
 endfacet
 facet normal -0.000000e+00 -1.000000e+00  0.000000e+00
   outer loop
     vertex -2.994695e-01 -1.015873e+00  1.152007e-01
     vertex -4.650794e-01 -1.015873e+00  2.114639e-01
     vertex -3.010582e-01 -1.015873e+00  1.021164e-01
   endloop
 endfacet
 facet normal  0.000000e+00 -1.000000e+00  0.000000e+00
   outer loop
     vertex -2.269969e-01 -1.015873e+00  5.099559e-02
     vertex -2.397943e-01 -1.015873e+00  4.784132e-02
     vertex -4.650794e-01 -1.015873e+00 -7.507937e-01
   endloop
 endfacet
 facet normal -0.000000e+00 -1.000000e+00  0.000000e+00
   outer loop
     vertex -2.947957e-01 -1.015873e+00  1.275246e-01
     vertex -4.650794e-01 -1.015873e+00  2.114639e-01
     vertex -2.994695e-01 -1.015873e+00  1.152007e-01
   endloop
 endfacet
 facet normal -0.000000e+00 -1.000000e+00  0.000000e+00
   outer loop
     vertex -2.873084e-01 -1.015873e+00  1.383718e-01
     vertex -4.650794e-01 -1.015873e+00  2.114639e-01
     vertex -2.947957e-01 -1.015873e+00  1.275246e-01
   endloop
 endfacet
 facet normal -0.000000e+00 -1.000000e+00  0.000000e+00
   outer loop
     vertex -2.774427e-01 -1.015873e+00  1.471120e-01
     vertex -4.650794e-01 -1.015873e+00  2.114639e-01
     vertex -2.873084e-01 -1.015873e+00  1.383718e-01
   endloop
 endfacet
 facet normal -0.000000e+00 -1.000000e+00  0.000000e+00
   outer loop
     vertex -2.657721e-01 -1.015873e+00  1.532372e-01
     vertex -4.650794e-01 -1.015873e+00  2.114639e-01
     vertex -2.774427e-01 -1.015873e+00  1.471120e-01
   endloop
 endfacet
 facet normal -0.000000e+00 -1.000000e+00  0.000000e+00
   outer loop
     vertex -2.529747e-01 -1.015873e+00  1.563915e-01
     vertex -4.650794e-01 -1.015873e+00  2.114639e-01
     vertex -2.657721e-01 -1.015873e+00  1.532372e-01
   endloop
 endfacet
 facet normal  0.000000e+00 -1.000000e+00  0.000000e+00
   outer loop
     vertex -2.397943e-01 -1.015873e+00  1.563915e-01
     vertex -4.650794e-01 -1.015873e+00  2.114639e-01
     vertex -2.529747e-01 -1.015873e+00  1.563915e-01
   endloop
 endfacet
 facet normal -0.000000e+00 -1.000000e+00  0.000000e+00
   outer loop
     vertex  2.115975e-01 -1.015873e+00  6.223549e-02
     vertex -2.054606e-01 -1.015873e+00  6.586103e-02
     vertex -2.153263e-01 -1.015873e+00  5.712082e-02
   endloop
 endfacet
 facet normal -0.000000e+00 -1.000000e+00  0.000000e+00
   outer loop
     vertex  2.224497e-01 -1.015873e+00  5.262126e-02
     vertex -2.153263e-01 -1.015873e+00  5.712082e-02
     vertex -2.269969e-01 -1.015873e+00  5.099559e-02
   endloop
 endfacet
 facet normal  0.000000e+00 -1.000000e+00  0.000000e+00
   outer loop
     vertex  2.224497e-01 -1.015873e+00  5.262126e-02
     vertex  2.115975e-01 -1.015873e+00  6.223549e-02
     vertex -2.153263e-01 -1.015873e+00  5.712082e-02
   endloop
 endfacet
 facet normal -0.000000e+00 -1.000000e+00  0.000000e+00
   outer loop
     vertex  2.033615e-01 -1.015873e+00  7.416745e-02
     vertex -1.979733e-01 -1.015873e+00  7.670826e-02
     vertex -2.054606e-01 -1.015873e+00  6.586103e-02
   endloop
 endfacet
 facet normal  0.000000e+00 -1.000000e+00 -0.000000e+00
   outer loop
     vertex  2.033615e-01 -1.015873e+00  7.416745e-02
     vertex -2.054606e-01 -1.015873e+00  6.586103e-02
     vertex  2.115975e-01 -1.015873e+00  6.223549e-02
   endloop
 endfacet
 facet normal  0.000000e+00 -1.000000e+00 -0.000000e+00
   outer loop
     vertex  2.352874e-01 -1.015873e+00  4.588351e-02
     vertex -4.650794e-01 -1.015873e+00 -7.507937e-01
     vertex  4.971781e-01 -1.015873e+00 -7.507937e-01
   endloop
 endfacet
 facet normal -0.000000e+00 -1.000000e+00  0.000000e+00
   outer loop
     vertex  2.352874e-01 -1.015873e+00  4.588351e-02
     vertex -2.269969e-01 -1.015873e+00  5.099559e-02
     vertex -4.650794e-01 -1.015873e+00 -7.507937e-01
   endloop
 endfacet
 facet normal  0.000000e+00 -1.000000e+00  0.000000e+00
   outer loop
     vertex  2.352874e-01 -1.015873e+00  4.588351e-02
     vertex  2.224497e-01 -1.015873e+00  5.262126e-02
     vertex -2.269969e-01 -1.015873e+00  5.099559e-02
   endloop
 endfacet
 facet normal  0.000000e+00 -1.000000e+00 -0.000000e+00
   outer loop
     vertex  1.982203e-01 -1.015873e+00  8.772370e-02
     vertex -1.979733e-01 -1.015873e+00  7.670826e-02
     vertex  2.033615e-01 -1.015873e+00  7.416745e-02
   endloop
 endfacet
 facet normal -0.000000e+00 -1.000000e+00  0.000000e+00
   outer loop
     vertex  1.982203e-01 -1.015873e+00  8.772370e-02
     vertex -1.932995e-01 -1.015873e+00  8.903213e-02
     vertex -1.979733e-01 -1.015873e+00  7.670826e-02
   endloop
 endfacet
 facet normal -0.000000e+00 -1.000000e+00 -0.000000e+00
   outer loop
     vertex  2.493645e-01 -1.015873e+00  4.241381e-02
     vertex  2.352874e-01 -1.015873e+00  4.588351e-02
     vertex  4.971781e-01 -1.015873e+00 -7.507937e-01
   endloop
 endfacet
 facet normal -0.000000e+00 -1.000000e+00  0.000000e+00
   outer loop
     vertex  1.964727e-01 -1.015873e+00  1.021164e-01
     vertex -1.932995e-01 -1.015873e+00  1.152007e-01
     vertex -1.917108e-01 -1.015873e+00  1.021164e-01
   endloop
 endfacet
 facet normal  0.000000e+00 -1.000000e+00 -0.000000e+00
   outer loop
     vertex  1.964727e-01 -1.015873e+00  1.021164e-01
     vertex -1.932995e-01 -1.015873e+00  8.903213e-02
     vertex  1.982203e-01 -1.015873e+00  8.772370e-02
   endloop
 endfacet
 facet normal  0.000000e+00 -1.000000e+00  0.000000e+00
   outer loop
     vertex  1.964727e-01 -1.015873e+00  1.021164e-01
     vertex -1.917108e-01 -1.015873e+00  1.021164e-01
     vertex -1.932995e-01 -1.015873e+00  8.903213e-02
   endloop
 endfacet
 facet normal -0.000000e+00 -1.000000e+00 -0.000000e+00
   outer loop
     vertex  2.638630e-01 -1.015873e+00  4.241381e-02
     vertex  2.493645e-01 -1.015873e+00  4.241381e-02
     vertex  4.971781e-01 -1.015873e+00 -7.507937e-01
   endloop
 endfacet
 facet normal -0.000000e+00 -1.000000e+00  0.000000e+00
   outer loop
     vertex  1.982203e-01 -1.015873e+00  1.165091e-01
     vertex -1.979733e-01 -1.015873e+00  1.275246e-01
     vertex -1.932995e-01 -1.015873e+00  1.152007e-01
   endloop
 endfacet
 facet normal  0.000000e+00 -1.000000e+00  0.000000e+00
   outer loop
     vertex  1.982203e-01 -1.015873e+00  1.165091e-01
     vertex -1.932995e-01 -1.015873e+00  1.152007e-01
     vertex  1.964727e-01 -1.015873e+00  1.021164e-01
   endloop
 endfacet
 facet normal  0.000000e+00 -1.000000e+00 -0.000000e+00
   outer loop
     vertex  2.779401e-01 -1.015873e+00  4.588351e-02
     vertex  2.638630e-01 -1.015873e+00  4.241381e-02
     vertex  4.971781e-01 -1.015873e+00 -7.507937e-01
   endloop
 endfacet
 facet normal -0.000000e+00 -1.000000e+00  0.000000e+00
   outer loop
     vertex  2.033615e-01 -1.015873e+00  1.300654e-01
     vertex -2.054606e-01 -1.015873e+00  1.383718e-01
     vertex -1.979733e-01 -1.015873e+00  1.275246e-01
   endloop
 endfacet
 facet normal  0.000000e+00 -1.000000e+00  0.000000e+00
   outer loop
     vertex  2.033615e-01 -1.015873e+00  1.300654e-01
     vertex -1.979733e-01 -1.015873e+00  1.275246e-01
     vertex  1.982203e-01 -1.015873e+00  1.165091e-01
   endloop
 endfacet
 facet normal  0.000000e+00 -1.000000e+00 -0.000000e+00
   outer loop
     vertex  2.907778e-01 -1.015873e+00  5.262126e-02
     vertex  2.779401e-01 -1.015873e+00  4.588351e-02
     vertex  4.971781e-01 -1.015873e+00 -7.507937e-01
   endloop
 endfacet
 facet normal -0.000000e+00 -1.000000e+00  0.000000e+00
   outer loop
     vertex  2.115975e-01 -1.015873e+00  1.419973e-01
     vertex -2.153263e-01 -1.015873e+00  1.471120e-01
     vertex -2.054606e-01 -1.015873e+00  1.383718e-01
   endloop
 endfacet
 facet normal  0.000000e+00 -1.000000e+00  0.000000e+00
   outer loop
     vertex  2.115975e-01 -1.015873e+00  1.419973e-01
     vertex -2.054606e-01 -1.015873e+00  1.383718e-01
     vertex  2.033615e-01 -1.015873e+00  1.300654e-01
   endloop
 endfacet
 facet normal  0.000000e+00 -1.000000e+00 -0.000000e+00
   outer loop
     vertex  3.016300e-01 -1.015873e+00  6.223549e-02
     vertex  2.907778e-01 -1.015873e+00  5.262126e-02
     vertex  4.971781e-01 -1.015873e+00 -7.507937e-01
   endloop
 endfacet
 facet normal -0.000000e+00 -1.000000e+00  0.000000e+00
   outer loop
     vertex  2.224497e-01 -1.015873e+00  1.516116e-01
     vertex -2.269969e-01 -1.015873e+00  1.532372e-01
     vertex -2.153263e-01 -1.015873e+00  1.471120e-01
   endloop
 endfacet
 facet normal  0.000000e+00 -1.000000e+00  0.000000e+00
   outer loop
     vertex  2.224497e-01 -1.015873e+00  1.516116e-01
     vertex -2.153263e-01 -1.015873e+00  1.471120e-01
     vertex  2.115975e-01 -1.015873e+00  1.419973e-01
   endloop
 endfacet
 facet normal  0.000000e+00 -1.000000e+00  0.000000e+00
   outer loop
     vertex  2.352874e-01 -1.015873e+00  1.583493e-01
     vertex -2.269969e-01 -1.015873e+00  1.532372e-01
     vertex  2.224497e-01 -1.015873e+00  1.516116e-01
   endloop
 endfacet
 facet normal  0.000000e+00 -1.000000e+00  0.000000e+00
   outer loop
     vertex  4.971781e-01 -1.015873e+00  2.114639e-01
     vertex  3.150073e-01 -1.015873e+00  1.165091e-01
     vertex  3.167548e-01 -1.015873e+00  1.021164e-01
   endloop
 endfacet
 facet normal  0.000000e+00 -1.000000e+00  0.000000e+00
   outer loop
     vertex  4.971781e-01 -1.015873e+00  2.114639e-01
     vertex  3.098660e-01 -1.015873e+00  1.300654e-01
     vertex  3.150073e-01 -1.015873e+00  1.165091e-01
   endloop
 endfacet
 facet normal  0.000000e+00 -1.000000e+00 -0.000000e+00
   outer loop
     vertex  4.971781e-01 -1.015873e+00  2.114639e-01
     vertex  3.016300e-01 -1.015873e+00  6.223549e-02
     vertex  4.971781e-01 -1.015873e+00 -7.507937e-01
   endloop
 endfacet
 facet normal  0.000000e+00 -1.000000e+00  0.000000e+00
   outer loop
     vertex  4.971781e-01 -1.015873e+00  2.114639e-01
     vertex  3.016300e-01 -1.015873e+00  1.419973e-01
     vertex  3.098660e-01 -1.015873e+00  1.300654e-01
   endloop
 endfacet
 facet normal  0.000000e+00 -1.000000e+00  0.000000e+00
   outer loop
     vertex  4.971781e-01 -1.015873e+00  2.114639e-01
     vertex  2.907778e-01 -1.015873e+00  1.516116e-01
     vertex  3.016300e-01 -1.015873e+00  1.419973e-01
   endloop
 endfacet
 facet normal  0.000000e+00 -1.000000e+00  0.000000e+00
   outer loop
     vertex  4.971781e-01 -1.015873e+00  2.114639e-01
     vertex  2.779401e-01 -1.015873e+00  1.583493e-01
     vertex  2.907778e-01 -1.015873e+00  1.516116e-01
   endloop
 endfacet
 facet normal  0.000000e+00 -1.000000e+00  0.000000e+00
   outer loop
     vertex  4.971781e-01 -1.015873e+00  2.114639e-01
     vertex  2.638630e-01 -1.015873e+00  1.618190e-01
     vertex  2.779401e-01 -1.015873e+00  1.583493e-01
   endloop
 endfacet
 facet normal  0.000000e+00 -1.000000e+00  0.000000e+00
   outer loop
     vertex  4.971781e-01 -1.015873e+00  2.114639e-01
     vertex  3.098660e-01 -1.015873e+00  7.416745e-02
     vertex  3.016300e-01 -1.015873e+00  6.223549e-02
   endloop
 endfacet
 facet normal  0.000000e+00 -1.000000e+00  0.000000e+00
   outer loop
     vertex  4.971781e-01 -1.015873e+00  2.114639e-01
     vertex  3.150073e-01 -1.015873e+00  8.772370e-02
     vertex  3.098660e-01 -1.015873e+00  7.416745e-02
   endloop
 endfacet
 facet normal  0.000000e+00 -1.000000e+00  0.000000e+00
   outer loop
     vertex  4.971781e-01 -1.015873e+00  2.114639e-01
     vertex  3.167548e-01 -1.015873e+00  1.021164e-01
     vertex  3.150073e-01 -1.015873e+00  8.772370e-02
   endloop
 endfacet
 facet normal -0.000000e+00 -1.000000e+00  0.000000e+00
   outer loop
     vertex  4.971781e-01 -1.015873e+00  2.114639e-01
     vertex -4.650794e-01 -1.015873e+00  2.114639e-01
     vertex  2.493645e-01 -1.015873e+00  1.618190e-01
   endloop
 endfacet
 facet normal -0.000000e+00 -1.000000e+00  0.000000e+00
   outer loop
     vertex  2.493645e-01 -1.015873e+00  1.618190e-01
     vertex -4.650794e-01 -1.015873e+00  2.114639e-01
     vertex  2.352874e-01 -1.015873e+00  1.583493e-01
   endloop
 endfacet
 facet normal -0.000000e+00 -1.000000e+00  0.000000e+00
   outer loop
     vertex  2.352874e-01 -1.015873e+00  1.583493e-01
     vertex -4.650794e-01 -1.015873e+00  2.114639e-01
     vertex -2.397943e-01 -1.015873e+00  1.563915e-01
   endloop
 endfacet
 facet normal  0.000000e+00 -1.000000e+00  0.000000e+00
   outer loop
     vertex  2.352874e-01 -1.015873e+00  1.583493e-01
     vertex -2.397943e-01 -1.015873e+00  1.563915e-01
     vertex -2.269969e-01 -1.015873e+00  1.532372e-01
   endloop
 endfacet
 facet normal  0.000000e+00 -1.000000e+00  0.000000e+00
   outer loop
     vertex  4.971781e-01 -1.015873e+00  2.114639e-01
     vertex  2.493645e-01 -1.015873e+00  1.618190e-01
     vertex  2.638630e-01 -1.015873e+00  1.618190e-01
   endloop
 endfacet
 facet normal -0.000000e+00  0.000000e+00  1.000000e+00
   outer loop
     vertex -4.650794e-01 -1.587302e-02  2.114639e-01
     vertex  4.971781e-01 -1.015873e+00  2.114639e-01
     vertex  4.971781e-01 -1.587302e-02  2.114639e-01
   endloop
 endfacet
 facet normal  0.000000e+00  0.000000e+00  1.000000e+00
   outer loop
     vertex -4.650794e-01 -1.587302e-02  2.114639e-01
     vertex -4.650794e-01 -1.015873e+00  2.114639e-01
     vertex  4.971781e-01 -1.015873e+00  2.114639e-01
   endloop
 endfacet
 facet normal -1.000000e+00  0.000000e+00  0.000000e+00
   outer loop
     vertex -4.650794e-01 -1.587302e-02 -7.507937e-01
     vertex -4.650794e-01 -1.587302e-02  2.114639e-01
     vertex -4.650794e-01  0.000000e+00  2.114639e-01
   endloop
 endfacet
 facet normal -1.000000e+00  0.000000e+00  0.000000e+00
   outer loop
     vertex -4.650794e-01 -1.587302e-02 -7.507937e-01
     vertex -4.650794e-01  0.000000e+00  2.114639e-01
     vertex -4.650794e-01  0.000000e+00 -7.507937e-01
   endloop
 endfacet
 facet normal  1.000000e+00  0.000000e+00  0.000000e+00
   outer loop
     vertex  4.971781e-01 -1.587302e-02  2.114639e-01
     vertex  4.971781e-01 -1.587302e-02 -7.507937e-01
     vertex  4.971781e-01  0.000000e+00 -7.507937e-01
   endloop
 endfacet
 facet normal  1.000000e+00 -0.000000e+00  0.000000e+00
   outer loop
     vertex  4.971781e-01 -1.587302e-02  2.114639e-01
     vertex  4.971781e-01  0.000000e+00 -7.507937e-01
     vertex  4.971781e-01  0.000000e+00  2.114639e-01
   endloop
 endfacet
 facet normal  0.000000e+00  1.000000e+00  0.000000e+00
   outer loop
     vertex -2.873084e-01  6.591949e-17  6.586103e-02
     vertex -4.650794e-01  6.591949e-17 -7.507937e-01
     vertex -4.650794e-01  6.591949e-17  2.114639e-01
   endloop
 endfacet
 facet normal  0.000000e+00  1.000000e+00  0.000000e+00
   outer loop
     vertex -2.774427e-01  6.591949e-17  5.712082e-02
     vertex -4.650794e-01  6.591949e-17 -7.507937e-01
     vertex -2.873084e-01  6.591949e-17  6.586103e-02
   endloop
 endfacet
 facet normal  0.000000e+00  1.000000e+00  0.000000e+00
   outer loop
     vertex -2.947957e-01  6.591949e-17  7.670826e-02
     vertex -2.873084e-01  6.591949e-17  6.586103e-02
     vertex -4.650794e-01  6.591949e-17  2.114639e-01
   endloop
 endfacet
 facet normal  0.000000e+00  1.000000e+00  0.000000e+00
   outer loop
     vertex -2.657721e-01  6.591949e-17  5.099559e-02
     vertex -4.650794e-01  6.591949e-17 -7.507937e-01
     vertex -2.774427e-01  6.591949e-17  5.712082e-02
   endloop
 endfacet
 facet normal  0.000000e+00  1.000000e+00  0.000000e+00
   outer loop
     vertex -2.994695e-01  6.591949e-17  8.903213e-02
     vertex -2.947957e-01  6.591949e-17  7.670826e-02
     vertex -4.650794e-01  6.591949e-17  2.114639e-01
   endloop
 endfacet
 facet normal  0.000000e+00  1.000000e+00  0.000000e+00
   outer loop
     vertex -2.529747e-01  6.591949e-17  4.784132e-02
     vertex -4.650794e-01  6.591949e-17 -7.507937e-01
     vertex -2.657721e-01  6.591949e-17  5.099559e-02
   endloop
 endfacet
 facet normal  0.000000e+00  1.000000e+00  0.000000e+00
   outer loop
     vertex -3.010582e-01  6.591949e-17  1.021164e-01
     vertex -2.994695e-01  6.591949e-17  8.903213e-02
     vertex -4.650794e-01  6.591949e-17  2.114639e-01
   endloop
 endfacet
 facet normal  0.000000e+00  1.000000e+00  0.000000e+00
   outer loop
     vertex -2.397943e-01  6.591949e-17  4.784132e-02
     vertex -4.650794e-01  6.591949e-17 -7.507937e-01
     vertex -2.529747e-01  6.591949e-17  4.784132e-02
   endloop
 endfacet
 facet normal  0.000000e+00  1.000000e+00  0.000000e+00
   outer loop
     vertex -2.994695e-01  6.591949e-17  1.152007e-01
     vertex -3.010582e-01  6.591949e-17  1.021164e-01
     vertex -4.650794e-01  6.591949e-17  2.114639e-01
   endloop
 endfacet
 facet normal  0.000000e+00  1.000000e+00  0.000000e+00
   outer loop
     vertex -2.269969e-01  6.591949e-17  5.099559e-02
     vertex -4.650794e-01  6.591949e-17 -7.507937e-01
     vertex -2.397943e-01  6.591949e-17  4.784132e-02
   endloop
 endfacet
 facet normal  0.000000e+00  1.000000e+00  0.000000e+00
   outer loop
     vertex -2.947957e-01  6.591949e-17  1.275246e-01
     vertex -2.994695e-01  6.591949e-17  1.152007e-01
     vertex -4.650794e-01  6.591949e-17  2.114639e-01
   endloop
 endfacet
 facet normal  0.000000e+00  1.000000e+00  0.000000e+00
   outer loop
     vertex -2.873084e-01  6.591949e-17  1.383718e-01
     vertex -2.947957e-01  6.591949e-17  1.275246e-01
     vertex -4.650794e-01  6.591949e-17  2.114639e-01
   endloop
 endfacet
 facet normal  0.000000e+00  1.000000e+00  0.000000e+00
   outer loop
     vertex -2.774427e-01  6.591949e-17  1.471120e-01
     vertex -2.873084e-01  6.591949e-17  1.383718e-01
     vertex -4.650794e-01  6.591949e-17  2.114639e-01
   endloop
 endfacet
 facet normal  0.000000e+00  1.000000e+00  0.000000e+00
   outer loop
     vertex -2.657721e-01  6.591949e-17  1.532372e-01
     vertex -2.774427e-01  6.591949e-17  1.471120e-01
     vertex -4.650794e-01  6.591949e-17  2.114639e-01
   endloop
 endfacet
 facet normal  0.000000e+00  1.000000e+00  0.000000e+00
   outer loop
     vertex -2.529747e-01  6.591949e-17  1.563915e-01
     vertex -2.657721e-01  6.591949e-17  1.532372e-01
     vertex -4.650794e-01  6.591949e-17  2.114639e-01
   endloop
 endfacet
 facet normal  0.000000e+00  1.000000e+00  0.000000e+00
   outer loop
     vertex -2.397943e-01  6.591949e-17  1.563915e-01
     vertex -2.529747e-01  6.591949e-17  1.563915e-01
     vertex -4.650794e-01  6.591949e-17  2.114639e-01
   endloop
 endfacet
 facet normal  0.000000e+00  1.000000e+00  0.000000e+00
   outer loop
     vertex  2.115975e-01  6.591949e-17  6.223549e-02
     vertex -2.153263e-01  6.591949e-17  5.712082e-02
     vertex -2.054606e-01  6.591949e-17  6.586103e-02
   endloop
 endfacet
 facet normal  0.000000e+00  1.000000e+00  0.000000e+00
   outer loop
     vertex  2.224497e-01  6.591949e-17  5.262126e-02
     vertex -2.269969e-01  6.591949e-17  5.099559e-02
     vertex -2.153263e-01  6.591949e-17  5.712082e-02
   endloop
 endfacet
 facet normal  0.000000e+00  1.000000e+00  0.000000e+00
   outer loop
     vertex  2.224497e-01  6.591949e-17  5.262126e-02
     vertex -2.153263e-01  6.591949e-17  5.712082e-02
     vertex  2.115975e-01  6.591949e-17  6.223549e-02
   endloop
 endfacet
 facet normal  0.000000e+00  1.000000e+00  0.000000e+00
   outer loop
     vertex  2.033615e-01  6.591949e-17  7.416745e-02
     vertex -2.054606e-01  6.591949e-17  6.586103e-02
     vertex -1.979733e-01  6.591949e-17  7.670826e-02
   endloop
 endfacet
 facet normal  0.000000e+00  1.000000e+00  0.000000e+00
   outer loop
     vertex  2.033615e-01  6.591949e-17  7.416745e-02
     vertex  2.115975e-01  6.591949e-17  6.223549e-02
     vertex -2.054606e-01  6.591949e-17  6.586103e-02
   endloop
 endfacet
 facet normal  0.000000e+00  1.000000e+00  0.000000e+00
   outer loop
     vertex  2.352874e-01  6.591949e-17  4.588351e-02
     vertex  4.971781e-01  6.591949e-17 -7.507937e-01
     vertex -4.650794e-01  6.591949e-17 -7.507937e-01
   endloop
 endfacet
 facet normal  0.000000e+00  1.000000e+00  0.000000e+00
   outer loop
     vertex  2.352874e-01  6.591949e-17  4.588351e-02
     vertex -4.650794e-01  6.591949e-17 -7.507937e-01
     vertex -2.269969e-01  6.591949e-17  5.099559e-02
   endloop
 endfacet
 facet normal  0.000000e+00  1.000000e+00  0.000000e+00
   outer loop
     vertex  2.352874e-01  6.591949e-17  4.588351e-02
     vertex -2.269969e-01  6.591949e-17  5.099559e-02
     vertex  2.224497e-01  6.591949e-17  5.262126e-02
   endloop
 endfacet
 facet normal  0.000000e+00  1.000000e+00  0.000000e+00
   outer loop
     vertex  1.982203e-01  6.591949e-17  8.772370e-02
     vertex  2.033615e-01  6.591949e-17  7.416745e-02
     vertex -1.979733e-01  6.591949e-17  7.670826e-02
   endloop
 endfacet
 facet normal  0.000000e+00  1.000000e+00  0.000000e+00
   outer loop
     vertex  1.982203e-01  6.591949e-17  8.772370e-02
     vertex -1.979733e-01  6.591949e-17  7.670826e-02
     vertex -1.932995e-01  6.591949e-17  8.903213e-02
   endloop
 endfacet
 facet normal  0.000000e+00  1.000000e+00  0.000000e+00
   outer loop
     vertex  2.493645e-01  6.591949e-17  4.241381e-02
     vertex  4.971781e-01  6.591949e-17 -7.507937e-01
     vertex  2.352874e-01  6.591949e-17  4.588351e-02
   endloop
 endfacet
 facet normal  0.000000e+00  1.000000e+00  0.000000e+00
   outer loop
     vertex  1.964727e-01  6.591949e-17  1.021164e-01
     vertex -1.917108e-01  6.591949e-17  1.021164e-01
     vertex -1.932995e-01  6.591949e-17  1.152007e-01
   endloop
 endfacet
 facet normal  0.000000e+00  1.000000e+00  0.000000e+00
   outer loop
     vertex  1.964727e-01  6.591949e-17  1.021164e-01
     vertex  1.982203e-01  6.591949e-17  8.772370e-02
     vertex -1.932995e-01  6.591949e-17  8.903213e-02
   endloop
 endfacet
 facet normal  0.000000e+00  1.000000e+00  0.000000e+00
   outer loop
     vertex  1.964727e-01  6.591949e-17  1.021164e-01
     vertex -1.932995e-01  6.591949e-17  8.903213e-02
     vertex -1.917108e-01  6.591949e-17  1.021164e-01
   endloop
 endfacet
 facet normal  0.000000e+00  1.000000e+00  0.000000e+00
   outer loop
     vertex  2.638630e-01  6.591949e-17  4.241381e-02
     vertex  4.971781e-01  6.591949e-17 -7.507937e-01
     vertex  2.493645e-01  6.591949e-17  4.241381e-02
   endloop
 endfacet
 facet normal  0.000000e+00  1.000000e+00  0.000000e+00
   outer loop
     vertex  1.982203e-01  6.591949e-17  1.165091e-01
     vertex -1.932995e-01  6.591949e-17  1.152007e-01
     vertex -1.979733e-01  6.591949e-17  1.275246e-01
   endloop
 endfacet
 facet normal  0.000000e+00  1.000000e+00  0.000000e+00
   outer loop
     vertex  1.982203e-01  6.591949e-17  1.165091e-01
     vertex  1.964727e-01  6.591949e-17  1.021164e-01
     vertex -1.932995e-01  6.591949e-17  1.152007e-01
   endloop
 endfacet
 facet normal  0.000000e+00  1.000000e+00  0.000000e+00
   outer loop
     vertex  2.779401e-01  6.591949e-17  4.588351e-02
     vertex  4.971781e-01  6.591949e-17 -7.507937e-01
     vertex  2.638630e-01  6.591949e-17  4.241381e-02
   endloop
 endfacet
 facet normal  0.000000e+00  1.000000e+00  0.000000e+00
   outer loop
     vertex  2.033615e-01  6.591949e-17  1.300654e-01
     vertex -1.979733e-01  6.591949e-17  1.275246e-01
     vertex -2.054606e-01  6.591949e-17  1.383718e-01
   endloop
 endfacet
 facet normal  0.000000e+00  1.000000e+00  0.000000e+00
   outer loop
     vertex  2.033615e-01  6.591949e-17  1.300654e-01
     vertex  1.982203e-01  6.591949e-17  1.165091e-01
     vertex -1.979733e-01  6.591949e-17  1.275246e-01
   endloop
 endfacet
 facet normal  0.000000e+00  1.000000e+00  0.000000e+00
   outer loop
     vertex  2.907778e-01  6.591949e-17  5.262126e-02
     vertex  4.971781e-01  6.591949e-17 -7.507937e-01
     vertex  2.779401e-01  6.591949e-17  4.588351e-02
   endloop
 endfacet
 facet normal  0.000000e+00  1.000000e+00  0.000000e+00
   outer loop
     vertex  2.115975e-01  6.591949e-17  1.419973e-01
     vertex -2.054606e-01  6.591949e-17  1.383718e-01
     vertex -2.153263e-01  6.591949e-17  1.471120e-01
   endloop
 endfacet
 facet normal  0.000000e+00  1.000000e+00  0.000000e+00
   outer loop
     vertex  2.115975e-01  6.591949e-17  1.419973e-01
     vertex  2.033615e-01  6.591949e-17  1.300654e-01
     vertex -2.054606e-01  6.591949e-17  1.383718e-01
   endloop
 endfacet
 facet normal  0.000000e+00  1.000000e+00  0.000000e+00
   outer loop
     vertex  3.016300e-01  6.591949e-17  6.223549e-02
     vertex  4.971781e-01  6.591949e-17 -7.507937e-01
     vertex  2.907778e-01  6.591949e-17  5.262126e-02
   endloop
 endfacet
 facet normal  0.000000e+00  1.000000e+00  0.000000e+00
   outer loop
     vertex  2.224497e-01  6.591949e-17  1.516116e-01
     vertex -2.153263e-01  6.591949e-17  1.471120e-01
     vertex -2.269969e-01  6.591949e-17  1.532372e-01
   endloop
 endfacet
 facet normal  0.000000e+00  1.000000e+00  0.000000e+00
   outer loop
     vertex  2.224497e-01  6.591949e-17  1.516116e-01
     vertex  2.115975e-01  6.591949e-17  1.419973e-01
     vertex -2.153263e-01  6.591949e-17  1.471120e-01
   endloop
 endfacet
 facet normal  0.000000e+00  1.000000e+00  0.000000e+00
   outer loop
     vertex  2.352874e-01  6.591949e-17  1.583493e-01
     vertex  2.224497e-01  6.591949e-17  1.516116e-01
     vertex -2.269969e-01  6.591949e-17  1.532372e-01
   endloop
 endfacet
 facet normal  0.000000e+00  1.000000e+00  0.000000e+00
   outer loop
     vertex  4.971781e-01  6.591949e-17  2.114639e-01
     vertex  3.167548e-01  6.591949e-17  1.021164e-01
     vertex  3.150073e-01  6.591949e-17  1.165091e-01
   endloop
 endfacet
 facet normal  0.000000e+00  1.000000e+00  0.000000e+00
   outer loop
     vertex  4.971781e-01  6.591949e-17  2.114639e-01
     vertex  3.150073e-01  6.591949e-17  1.165091e-01
     vertex  3.098660e-01  6.591949e-17  1.300654e-01
   endloop
 endfacet
 facet normal  0.000000e+00  1.000000e+00  0.000000e+00
   outer loop
     vertex  4.971781e-01  6.591949e-17  2.114639e-01
     vertex  4.971781e-01  6.591949e-17 -7.507937e-01
     vertex  3.016300e-01  6.591949e-17  6.223549e-02
   endloop
 endfacet
 facet normal  0.000000e+00  1.000000e+00  0.000000e+00
   outer loop
     vertex  4.971781e-01  6.591949e-17  2.114639e-01
     vertex  3.098660e-01  6.591949e-17  1.300654e-01
     vertex  3.016300e-01  6.591949e-17  1.419973e-01
   endloop
 endfacet
 facet normal  0.000000e+00  1.000000e+00  0.000000e+00
   outer loop
     vertex  4.971781e-01  6.591949e-17  2.114639e-01
     vertex  3.016300e-01  6.591949e-17  1.419973e-01
     vertex  2.907778e-01  6.591949e-17  1.516116e-01
   endloop
 endfacet
 facet normal  0.000000e+00  1.000000e+00  0.000000e+00
   outer loop
     vertex  4.971781e-01  6.591949e-17  2.114639e-01
     vertex  2.907778e-01  6.591949e-17  1.516116e-01
     vertex  2.779401e-01  6.591949e-17  1.583493e-01
   endloop
 endfacet
 facet normal  0.000000e+00  1.000000e+00  0.000000e+00
   outer loop
     vertex  4.971781e-01  6.591949e-17  2.114639e-01
     vertex  2.779401e-01  6.591949e-17  1.583493e-01
     vertex  2.638630e-01  6.591949e-17  1.618190e-01
   endloop
 endfacet
 facet normal  0.000000e+00  1.000000e+00  0.000000e+00
   outer loop
     vertex  4.971781e-01  6.591949e-17  2.114639e-01
     vertex  3.016300e-01  6.591949e-17  6.223549e-02
     vertex  3.098660e-01  6.591949e-17  7.416745e-02
   endloop
 endfacet
 facet normal  0.000000e+00  1.000000e+00  0.000000e+00
   outer loop
     vertex  4.971781e-01  6.591949e-17  2.114639e-01
     vertex  3.098660e-01  6.591949e-17  7.416745e-02
     vertex  3.150073e-01  6.591949e-17  8.772370e-02
   endloop
 endfacet
 facet normal  0.000000e+00  1.000000e+00  0.000000e+00
   outer loop
     vertex  4.971781e-01  6.591949e-17  2.114639e-01
     vertex  3.150073e-01  6.591949e-17  8.772370e-02
     vertex  3.167548e-01  6.591949e-17  1.021164e-01
   endloop
 endfacet
 facet normal  0.000000e+00  1.000000e+00  0.000000e+00
   outer loop
     vertex  4.971781e-01  6.591949e-17  2.114639e-01
     vertex  2.493645e-01  6.591949e-17  1.618190e-01
     vertex -4.650794e-01  6.591949e-17  2.114639e-01
   endloop
 endfacet
 facet normal  0.000000e+00  1.000000e+00  0.000000e+00
   outer loop
     vertex  2.493645e-01  6.591949e-17  1.618190e-01
     vertex  2.352874e-01  6.591949e-17  1.583493e-01
     vertex -4.650794e-01  6.591949e-17  2.114639e-01
   endloop
 endfacet
 facet normal  0.000000e+00  1.000000e+00  0.000000e+00
   outer loop
     vertex  2.352874e-01  6.591949e-17  1.583493e-01
     vertex -2.397943e-01  6.591949e-17  1.563915e-01
     vertex -4.650794e-01  6.591949e-17  2.114639e-01
   endloop
 endfacet
 facet normal  0.000000e+00  1.000000e+00  0.000000e+00
   outer loop
     vertex  2.352874e-01  6.591949e-17  1.583493e-01
     vertex -2.269969e-01  6.591949e-17  1.532372e-01
     vertex -2.397943e-01  6.591949e-17  1.563915e-01
   endloop
 endfacet
 facet normal  0.000000e+00  1.000000e+00  0.000000e+00
   outer loop
     vertex  4.971781e-01  6.591949e-17  2.114639e-01
     vertex  2.638630e-01  6.591949e-17  1.618190e-01
     vertex  2.493645e-01  6.591949e-17  1.618190e-01
   endloop
 endfacet
 facet normal -9.927089e-01  0.000000e+00 -1.205367e-01
   outer loop
     vertex -1.932995e-01 -1.587302e-02  1.152007e-01
     vertex -1.917108e-01 -1.587302e-02  1.021164e-01
     vertex -1.917108e-01 -1.015873e+00  1.021164e-01
   endloop
 endfacet
 facet normal -9.927089e-01 -0.000000e+00 -1.205367e-01
   outer loop
     vertex -1.932995e-01 -1.587302e-02  1.152007e-01
     vertex -1.917108e-01 -1.015873e+00  1.021164e-01
     vertex -1.932995e-01 -1.015873e+00  1.152007e-01
   endloop
 endfacet
 facet normal -9.350162e-01 -0.000000e+00 -3.546049e-01
   outer loop
     vertex -1.979733e-01 -1.587302e-02  1.275246e-01
     vertex -1.932995e-01 -1.015873e+00  1.152007e-01
     vertex -1.979733e-01 -1.015873e+00  1.275246e-01
   endloop
 endfacet
 facet normal -9.350162e-01  0.000000e+00 -3.546049e-01
   outer loop
     vertex -1.979733e-01 -1.587302e-02  1.275246e-01
     vertex -1.932995e-01 -1.587302e-02  1.152007e-01
     vertex -1.932995e-01 -1.015873e+00  1.152007e-01
   endloop
 endfacet
 facet normal -8.229839e-01 -0.000000e+00 -5.680647e-01
   outer loop
     vertex -2.054606e-01 -1.587302e-02  1.383718e-01
     vertex -1.979733e-01 -1.015873e+00  1.275246e-01
     vertex -2.054606e-01 -1.015873e+00  1.383718e-01
   endloop
 endfacet
 facet normal -8.229839e-01  0.000000e+00 -5.680647e-01
   outer loop
     vertex -2.054606e-01 -1.587302e-02  1.383718e-01
     vertex -1.979733e-01 -1.587302e-02  1.275246e-01
     vertex -1.979733e-01 -1.015873e+00  1.275246e-01
   endloop
 endfacet
 facet normal -6.631227e-01 -0.000000e+00 -7.485107e-01
   outer loop
     vertex -2.153263e-01 -1.587302e-02  1.471120e-01
     vertex -2.054606e-01 -1.015873e+00  1.383718e-01
     vertex -2.153263e-01 -1.015873e+00  1.471120e-01
   endloop
 endfacet
 facet normal -6.631227e-01  0.000000e+00 -7.485107e-01
   outer loop
     vertex -2.153263e-01 -1.587302e-02  1.471120e-01
     vertex -2.054606e-01 -1.587302e-02  1.383718e-01
     vertex -2.054606e-01 -1.015873e+00  1.383718e-01
   endloop
 endfacet
 facet normal -4.647232e-01 -0.000000e+00 -8.854560e-01
   outer loop
     vertex -2.269969e-01 -1.587302e-02  1.532372e-01
     vertex -2.153263e-01 -1.015873e+00  1.471120e-01
     vertex -2.269969e-01 -1.015873e+00  1.532372e-01
   endloop
 endfacet
 facet normal -4.647232e-01  0.000000e+00 -8.854560e-01
   outer loop
     vertex -2.269969e-01 -1.587302e-02  1.532372e-01
     vertex -2.153263e-01 -1.587302e-02  1.471120e-01
     vertex -2.153263e-01 -1.015873e+00  1.471120e-01
   endloop
 endfacet
 facet normal -2.393157e-01 -0.000000e+00 -9.709418e-01
   outer loop
     vertex -2.397943e-01 -1.587302e-02  1.563915e-01
     vertex -2.269969e-01 -1.015873e+00  1.532372e-01
     vertex -2.397943e-01 -1.015873e+00  1.563915e-01
   endloop
 endfacet
 facet normal -2.393157e-01  0.000000e+00 -9.709418e-01
   outer loop
     vertex -2.397943e-01 -1.587302e-02  1.563915e-01
     vertex -2.269969e-01 -1.587302e-02  1.532372e-01
     vertex -2.269969e-01 -1.015873e+00  1.532372e-01
   endloop
 endfacet
 facet normal  0.000000e+00  0.000000e+00 -1.000000e+00
   outer loop
     vertex -2.529747e-01 -1.587302e-02  1.563915e-01
     vertex -2.397943e-01 -1.015873e+00  1.563915e-01
     vertex -2.529747e-01 -1.015873e+00  1.563915e-01
   endloop
 endfacet
 facet normal  0.000000e+00  0.000000e+00 -1.000000e+00
   outer loop
     vertex -2.529747e-01 -1.587302e-02  1.563915e-01
     vertex -2.397943e-01 -1.587302e-02  1.563915e-01
     vertex -2.397943e-01 -1.015873e+00  1.563915e-01
   endloop
 endfacet
 facet normal  2.393157e-01  0.000000e+00 -9.709418e-01
   outer loop
     vertex -2.657721e-01 -1.587302e-02  1.532372e-01
     vertex -2.529747e-01 -1.015873e+00  1.563915e-01
     vertex -2.657721e-01 -1.015873e+00  1.532372e-01
   endloop
 endfacet
 facet normal  2.393157e-01  0.000000e+00 -9.709418e-01
   outer loop
     vertex -2.657721e-01 -1.587302e-02  1.532372e-01
     vertex -2.529747e-01 -1.587302e-02  1.563915e-01
     vertex -2.529747e-01 -1.015873e+00  1.563915e-01
   endloop
 endfacet
 facet normal  4.647232e-01  0.000000e+00 -8.854560e-01
   outer loop
     vertex -2.774427e-01 -1.587302e-02  1.471120e-01
     vertex -2.657721e-01 -1.015873e+00  1.532372e-01
     vertex -2.774427e-01 -1.015873e+00  1.471120e-01
   endloop
 endfacet
 facet normal  4.647232e-01  0.000000e+00 -8.854560e-01
   outer loop
     vertex -2.774427e-01 -1.587302e-02  1.471120e-01
     vertex -2.657721e-01 -1.587302e-02  1.532372e-01
     vertex -2.657721e-01 -1.015873e+00  1.532372e-01
   endloop
 endfacet
 facet normal  6.631227e-01  0.000000e+00 -7.485107e-01
   outer loop
     vertex -2.873084e-01 -1.587302e-02  1.383718e-01
     vertex -2.774427e-01 -1.015873e+00  1.471120e-01
     vertex -2.873084e-01 -1.015873e+00  1.383718e-01
   endloop
 endfacet
 facet normal  6.631227e-01  0.000000e+00 -7.485107e-01
   outer loop
     vertex -2.873084e-01 -1.587302e-02  1.383718e-01
     vertex -2.774427e-01 -1.587302e-02  1.471120e-01
     vertex -2.774427e-01 -1.015873e+00  1.471120e-01
   endloop
 endfacet
 facet normal  8.229839e-01  0.000000e+00 -5.680647e-01
   outer loop
     vertex -2.947957e-01 -1.587302e-02  1.275246e-01
     vertex -2.873084e-01 -1.587302e-02  1.383718e-01
     vertex -2.873084e-01 -1.015873e+00  1.383718e-01
   endloop
 endfacet
 facet normal  8.229839e-01  0.000000e+00 -5.680647e-01
   outer loop
     vertex -2.947957e-01 -1.587302e-02  1.275246e-01
     vertex -2.873084e-01 -1.015873e+00  1.383718e-01
     vertex -2.947957e-01 -1.015873e+00  1.275246e-01
   endloop
 endfacet
 facet normal  9.350162e-01  0.000000e+00 -3.546049e-01
   outer loop
     vertex -2.994695e-01 -1.587302e-02  1.152007e-01
     vertex -2.947957e-01 -1.587302e-02  1.275246e-01
     vertex -2.947957e-01 -1.015873e+00  1.275246e-01
   endloop
 endfacet
 facet normal  9.350162e-01  0.000000e+00 -3.546049e-01
   outer loop
     vertex -2.994695e-01 -1.587302e-02  1.152007e-01
     vertex -2.947957e-01 -1.015873e+00  1.275246e-01
     vertex -2.994695e-01 -1.015873e+00  1.152007e-01
   endloop
 endfacet
 facet normal  9.927089e-01  0.000000e+00 -1.205367e-01
   outer loop
     vertex -3.010582e-01 -1.587302e-02  1.021164e-01
     vertex -2.994695e-01 -1.587302e-02  1.152007e-01
     vertex -2.994695e-01 -1.015873e+00  1.152007e-01
   endloop
 endfacet
 facet normal  9.927089e-01  0.000000e+00 -1.205367e-01
   outer loop
     vertex -3.010582e-01 -1.587302e-02  1.021164e-01
     vertex -2.994695e-01 -1.015873e+00  1.152007e-01
     vertex -3.010582e-01 -1.015873e+00  1.021164e-01
   endloop
 endfacet
 facet normal  9.927089e-01  0.000000e+00  1.205367e-01
   outer loop
     vertex -2.994695e-01 -1.587302e-02  8.903213e-02
     vertex -3.010582e-01 -1.015873e+00  1.021164e-01
     vertex -2.994695e-01 -1.015873e+00  8.903213e-02
   endloop
 endfacet
 facet normal  9.927089e-01  0.000000e+00  1.205367e-01
   outer loop
     vertex -2.994695e-01 -1.587302e-02  8.903213e-02
     vertex -3.010582e-01 -1.587302e-02  1.021164e-01
     vertex -3.010582e-01 -1.015873e+00  1.021164e-01
   endloop
 endfacet
 facet normal  9.350162e-01  0.000000e+00  3.546049e-01
   outer loop
     vertex -2.947957e-01 -1.587302e-02  7.670826e-02
     vertex -2.994695e-01 -1.587302e-02  8.903213e-02
     vertex -2.994695e-01 -1.015873e+00  8.903213e-02
   endloop
 endfacet
 facet normal  9.350162e-01  0.000000e+00  3.546049e-01
   outer loop
     vertex -2.947957e-01 -1.587302e-02  7.670826e-02
     vertex -2.994695e-01 -1.015873e+00  8.903213e-02
     vertex -2.947957e-01 -1.015873e+00  7.670826e-02
   endloop
 endfacet
 facet normal  8.229839e-01  0.000000e+00  5.680647e-01
   outer loop
     vertex -2.947957e-01 -1.587302e-02  7.670826e-02
     vertex -2.947957e-01 -1.015873e+00  7.670826e-02
     vertex -2.873084e-01 -1.015873e+00  6.586103e-02
   endloop
 endfacet
 facet normal  6.631227e-01  0.000000e+00  7.485107e-01
   outer loop
     vertex -2.873084e-01 -1.587302e-02  6.586103e-02
     vertex -2.873084e-01 -1.015873e+00  6.586103e-02
     vertex -2.774427e-01 -1.015873e+00  5.712082e-02
   endloop
 endfacet
 facet normal  8.229839e-01  0.000000e+00  5.680647e-01
   outer loop
     vertex -2.873084e-01 -1.587302e-02  6.586103e-02
     vertex -2.947957e-01 -1.587302e-02  7.670826e-02
     vertex -2.873084e-01 -1.015873e+00  6.586103e-02
   endloop
 endfacet
 facet normal  4.647232e-01  0.000000e+00  8.854560e-01
   outer loop
     vertex -2.774427e-01 -1.587302e-02  5.712082e-02
     vertex -2.774427e-01 -1.015873e+00  5.712082e-02
     vertex -2.657721e-01 -1.015873e+00  5.099559e-02
   endloop
 endfacet
 facet normal  6.631227e-01  0.000000e+00  7.485107e-01
   outer loop
     vertex -2.774427e-01 -1.587302e-02  5.712082e-02
     vertex -2.873084e-01 -1.587302e-02  6.586103e-02
     vertex -2.774427e-01 -1.015873e+00  5.712082e-02
   endloop
 endfacet
 facet normal  4.647232e-01  0.000000e+00  8.854560e-01
   outer loop
     vertex -2.657721e-01 -1.587302e-02  5.099559e-02
     vertex -2.774427e-01 -1.587302e-02  5.712082e-02
     vertex -2.657721e-01 -1.015873e+00  5.099559e-02
   endloop
 endfacet
 facet normal  2.393157e-01  0.000000e+00  9.709418e-01
   outer loop
     vertex -2.529747e-01 -1.587302e-02  4.784132e-02
     vertex -2.657721e-01 -1.015873e+00  5.099559e-02
     vertex -2.529747e-01 -1.015873e+00  4.784132e-02
   endloop
 endfacet
 facet normal  2.105826e-15  0.000000e+00  1.000000e+00
   outer loop
     vertex -2.529747e-01 -1.587302e-02  4.784132e-02
     vertex -2.529747e-01 -1.015873e+00  4.784132e-02
     vertex -2.397943e-01 -1.015873e+00  4.784132e-02
   endloop
 endfacet
 facet normal  2.393157e-01  0.000000e+00  9.709418e-01
   outer loop
     vertex -2.529747e-01 -1.587302e-02  4.784132e-02
     vertex -2.657721e-01 -1.587302e-02  5.099559e-02
     vertex -2.657721e-01 -1.015873e+00  5.099559e-02
   endloop
 endfacet
 facet normal  2.105826e-15  0.000000e+00  1.000000e+00
   outer loop
     vertex -2.397943e-01 -1.587302e-02  4.784132e-02
     vertex -2.529747e-01 -1.587302e-02  4.784132e-02
     vertex -2.397943e-01 -1.015873e+00  4.784132e-02
   endloop
 endfacet
 facet normal -2.393157e-01  0.000000e+00  9.709418e-01
   outer loop
     vertex -2.269969e-01 -1.587302e-02  5.099559e-02
     vertex -2.397943e-01 -1.015873e+00  4.784132e-02
     vertex -2.269969e-01 -1.015873e+00  5.099559e-02
   endloop
 endfacet
 facet normal -2.393157e-01  0.000000e+00  9.709418e-01
   outer loop
     vertex -2.269969e-01 -1.587302e-02  5.099559e-02
     vertex -2.397943e-01 -1.587302e-02  4.784132e-02
     vertex -2.397943e-01 -1.015873e+00  4.784132e-02
   endloop
 endfacet
 facet normal -4.647232e-01  0.000000e+00  8.854560e-01
   outer loop
     vertex -2.153263e-01 -1.587302e-02  5.712082e-02
     vertex -2.269969e-01 -1.015873e+00  5.099559e-02
     vertex -2.153263e-01 -1.015873e+00  5.712082e-02
   endloop
 endfacet
 facet normal -6.631227e-01  0.000000e+00  7.485107e-01
   outer loop
     vertex -2.153263e-01 -1.587302e-02  5.712082e-02
     vertex -2.153263e-01 -1.015873e+00  5.712082e-02
     vertex -2.054606e-01 -1.015873e+00  6.586103e-02
   endloop
 endfacet
 facet normal -4.647232e-01  0.000000e+00  8.854560e-01
   outer loop
     vertex -2.153263e-01 -1.587302e-02  5.712082e-02
     vertex -2.269969e-01 -1.587302e-02  5.099559e-02
     vertex -2.269969e-01 -1.015873e+00  5.099559e-02
   endloop
 endfacet
 facet normal -6.631227e-01  0.000000e+00  7.485107e-01
   outer loop
     vertex -2.054606e-01 -1.587302e-02  6.586103e-02
     vertex -2.153263e-01 -1.587302e-02  5.712082e-02
     vertex -2.054606e-01 -1.015873e+00  6.586103e-02
   endloop
 endfacet
 facet normal -8.229839e-01  0.000000e+00  5.680647e-01
   outer loop
     vertex -1.979733e-01 -1.587302e-02  7.670826e-02
     vertex -2.054606e-01 -1.015873e+00  6.586103e-02
     vertex -1.979733e-01 -1.015873e+00  7.670826e-02
   endloop
 endfacet
 facet normal -8.229839e-01  0.000000e+00  5.680647e-01
   outer loop
     vertex -1.979733e-01 -1.587302e-02  7.670826e-02
     vertex -2.054606e-01 -1.587302e-02  6.586103e-02
     vertex -2.054606e-01 -1.015873e+00  6.586103e-02
   endloop
 endfacet
 facet normal -9.350162e-01  0.000000e+00  3.546049e-01
   outer loop
     vertex -1.932995e-01 -1.587302e-02  8.903213e-02
     vertex -1.979733e-01 -1.015873e+00  7.670826e-02
     vertex -1.932995e-01 -1.015873e+00  8.903213e-02
   endloop
 endfacet
 facet normal -9.350162e-01  0.000000e+00  3.546049e-01
   outer loop
     vertex -1.932995e-01 -1.587302e-02  8.903213e-02
     vertex -1.979733e-01 -1.587302e-02  7.670826e-02
     vertex -1.979733e-01 -1.015873e+00  7.670826e-02
   endloop
 endfacet
 facet normal -9.927089e-01  0.000000e+00  1.205367e-01
   outer loop
     vertex -1.917108e-01 -1.587302e-02  1.021164e-01
     vertex -1.932995e-01 -1.015873e+00  8.903213e-02
     vertex -1.917108e-01 -1.015873e+00  1.021164e-01
   endloop
 endfacet
 facet normal -9.927089e-01  0.000000e+00  1.205367e-01
   outer loop
     vertex -1.917108e-01 -1.587302e-02  1.021164e-01
     vertex -1.932995e-01 -1.587302e-02  8.903213e-02
     vertex -1.932995e-01 -1.015873e+00  8.903213e-02
   endloop
 endfacet
 facet normal -9.927089e-01  0.000000e+00 -1.205367e-01
   outer loop
     vertex  3.150073e-01 -1.587302e-02  1.165091e-01
     vertex  3.167548e-01 -1.587302e-02  1.021164e-01
     vertex  3.167548e-01 -1.015873e+00  1.021164e-01
   endloop
 endfacet
 facet normal -9.927089e-01 -0.000000e+00 -1.205367e-01
   outer loop
     vertex  3.150073e-01 -1.587302e-02  1.165091e-01
     vertex  3.167548e-01 -1.015873e+00  1.021164e-01
     vertex  3.150073e-01 -1.015873e+00  1.165091e-01
   endloop
 endfacet
 facet normal -9.350162e-01 -0.000000e+00 -3.546049e-01
   outer loop
     vertex  3.098660e-01 -1.587302e-02  1.300654e-01
     vertex  3.150073e-01 -1.015873e+00  1.165091e-01
     vertex  3.098660e-01 -1.015873e+00  1.300654e-01
   endloop
 endfacet
 facet normal -9.350162e-01  0.000000e+00 -3.546049e-01
   outer loop
     vertex  3.098660e-01 -1.587302e-02  1.300654e-01
     vertex  3.150073e-01 -1.587302e-02  1.165091e-01
     vertex  3.150073e-01 -1.015873e+00  1.165091e-01
   endloop
 endfacet
 facet normal -8.229839e-01 -0.000000e+00 -5.680647e-01
   outer loop
     vertex  3.016300e-01 -1.587302e-02  1.419973e-01
     vertex  3.098660e-01 -1.015873e+00  1.300654e-01
     vertex  3.016300e-01 -1.015873e+00  1.419973e-01
   endloop
 endfacet
 facet normal -8.229839e-01  0.000000e+00 -5.680647e-01
   outer loop
     vertex  3.016300e-01 -1.587302e-02  1.419973e-01
     vertex  3.098660e-01 -1.587302e-02  1.300654e-01
     vertex  3.098660e-01 -1.015873e+00  1.300654e-01
   endloop
 endfacet
 facet normal -6.631227e-01 -0.000000e+00 -7.485107e-01
   outer loop
     vertex  2.907778e-01 -1.587302e-02  1.516116e-01
     vertex  3.016300e-01 -1.015873e+00  1.419973e-01
     vertex  2.907778e-01 -1.015873e+00  1.516116e-01
   endloop
 endfacet
 facet normal -6.631227e-01  0.000000e+00 -7.485107e-01
   outer loop
     vertex  2.907778e-01 -1.587302e-02  1.516116e-01
     vertex  3.016300e-01 -1.587302e-02  1.419973e-01
     vertex  3.016300e-01 -1.015873e+00  1.419973e-01
   endloop
 endfacet
 facet normal -4.647232e-01 -0.000000e+00 -8.854560e-01
   outer loop
     vertex  2.779401e-01 -1.587302e-02  1.583493e-01
     vertex  2.907778e-01 -1.015873e+00  1.516116e-01
     vertex  2.779401e-01 -1.015873e+00  1.583493e-01
   endloop
 endfacet
 facet normal -4.647232e-01  0.000000e+00 -8.854560e-01
   outer loop
     vertex  2.779401e-01 -1.587302e-02  1.583493e-01
     vertex  2.907778e-01 -1.587302e-02  1.516116e-01
     vertex  2.907778e-01 -1.015873e+00  1.516116e-01
   endloop
 endfacet
 facet normal -2.393157e-01 -0.000000e+00 -9.709418e-01
   outer loop
     vertex  2.638630e-01 -1.587302e-02  1.618190e-01
     vertex  2.779401e-01 -1.015873e+00  1.583493e-01
     vertex  2.638630e-01 -1.015873e+00  1.618190e-01
   endloop
 endfacet
 facet normal -2.393157e-01  0.000000e+00 -9.709418e-01
   outer loop
     vertex  2.638630e-01 -1.587302e-02  1.618190e-01
     vertex  2.779401e-01 -1.587302e-02  1.583493e-01
     vertex  2.779401e-01 -1.015873e+00  1.583493e-01
   endloop
 endfacet
 facet normal  0.000000e+00  0.000000e+00 -1.000000e+00
   outer loop
     vertex  2.493645e-01 -1.587302e-02  1.618190e-01
     vertex  2.638630e-01 -1.015873e+00  1.618190e-01
     vertex  2.493645e-01 -1.015873e+00  1.618190e-01
   endloop
 endfacet
 facet normal  0.000000e+00  0.000000e+00 -1.000000e+00
   outer loop
     vertex  2.493645e-01 -1.587302e-02  1.618190e-01
     vertex  2.638630e-01 -1.587302e-02  1.618190e-01
     vertex  2.638630e-01 -1.015873e+00  1.618190e-01
   endloop
 endfacet
 facet normal  2.393157e-01  0.000000e+00 -9.709418e-01
   outer loop
     vertex  2.352874e-01 -1.587302e-02  1.583493e-01
     vertex  2.493645e-01 -1.015873e+00  1.618190e-01
     vertex  2.352874e-01 -1.015873e+00  1.583493e-01
   endloop
 endfacet
 facet normal  2.393157e-01  0.000000e+00 -9.709418e-01
   outer loop
     vertex  2.352874e-01 -1.587302e-02  1.583493e-01
     vertex  2.493645e-01 -1.587302e-02  1.618190e-01
     vertex  2.493645e-01 -1.015873e+00  1.618190e-01
   endloop
 endfacet
 facet normal  4.647232e-01  0.000000e+00 -8.854560e-01
   outer loop
     vertex  2.224497e-01 -1.587302e-02  1.516116e-01
     vertex  2.352874e-01 -1.015873e+00  1.583493e-01
     vertex  2.224497e-01 -1.015873e+00  1.516116e-01
   endloop
 endfacet
 facet normal  4.647232e-01  0.000000e+00 -8.854560e-01
   outer loop
     vertex  2.224497e-01 -1.587302e-02  1.516116e-01
     vertex  2.352874e-01 -1.587302e-02  1.583493e-01
     vertex  2.352874e-01 -1.015873e+00  1.583493e-01
   endloop
 endfacet
 facet normal  6.631227e-01  0.000000e+00 -7.485107e-01
   outer loop
     vertex  2.115975e-01 -1.587302e-02  1.419973e-01
     vertex  2.224497e-01 -1.015873e+00  1.516116e-01
     vertex  2.115975e-01 -1.015873e+00  1.419973e-01
   endloop
 endfacet
 facet normal  6.631227e-01  0.000000e+00 -7.485107e-01
   outer loop
     vertex  2.115975e-01 -1.587302e-02  1.419973e-01
     vertex  2.224497e-01 -1.587302e-02  1.516116e-01
     vertex  2.224497e-01 -1.015873e+00  1.516116e-01
   endloop
 endfacet
 facet normal  8.229839e-01  0.000000e+00 -5.680647e-01
   outer loop
     vertex  2.033615e-01 -1.587302e-02  1.300654e-01
     vertex  2.115975e-01 -1.587302e-02  1.419973e-01
     vertex  2.115975e-01 -1.015873e+00  1.419973e-01
   endloop
 endfacet
 facet normal  8.229839e-01  0.000000e+00 -5.680647e-01
   outer loop
     vertex  2.033615e-01 -1.587302e-02  1.300654e-01
     vertex  2.115975e-01 -1.015873e+00  1.419973e-01
     vertex  2.033615e-01 -1.015873e+00  1.300654e-01
   endloop
 endfacet
 facet normal  9.350162e-01  0.000000e+00 -3.546049e-01
   outer loop
     vertex  1.982203e-01 -1.587302e-02  1.165091e-01
     vertex  2.033615e-01 -1.587302e-02  1.300654e-01
     vertex  2.033615e-01 -1.015873e+00  1.300654e-01
   endloop
 endfacet
 facet normal  9.350162e-01  0.000000e+00 -3.546049e-01
   outer loop
     vertex  1.982203e-01 -1.587302e-02  1.165091e-01
     vertex  2.033615e-01 -1.015873e+00  1.300654e-01
     vertex  1.982203e-01 -1.015873e+00  1.165091e-01
   endloop
 endfacet
 facet normal  9.927089e-01  0.000000e+00 -1.205367e-01
   outer loop
     vertex  1.982203e-01 -1.587302e-02  1.165091e-01
     vertex  1.982203e-01 -1.015873e+00  1.165091e-01
     vertex  1.964727e-01 -1.015873e+00  1.021164e-01
   endloop
 endfacet
 facet normal  9.927089e-01  0.000000e+00 -1.205367e-01
   outer loop
     vertex  1.964727e-01 -1.587302e-02  1.021164e-01
     vertex  1.982203e-01 -1.587302e-02  1.165091e-01
     vertex  1.964727e-01 -1.015873e+00  1.021164e-01
   endloop
 endfacet
 facet normal  9.927089e-01  0.000000e+00  1.205367e-01
   outer loop
     vertex  1.982203e-01 -1.587302e-02  8.772370e-02
     vertex  1.964727e-01 -1.015873e+00  1.021164e-01
     vertex  1.982203e-01 -1.015873e+00  8.772370e-02
   endloop
 endfacet
 facet normal  9.927089e-01  0.000000e+00  1.205367e-01
   outer loop
     vertex  1.982203e-01 -1.587302e-02  8.772370e-02
     vertex  1.964727e-01 -1.587302e-02  1.021164e-01
     vertex  1.964727e-01 -1.015873e+00  1.021164e-01
   endloop
 endfacet
 facet normal  9.350162e-01  0.000000e+00  3.546049e-01
   outer loop
     vertex  2.033615e-01 -1.587302e-02  7.416745e-02
     vertex  1.982203e-01 -1.587302e-02  8.772370e-02
     vertex  1.982203e-01 -1.015873e+00  8.772370e-02
   endloop
 endfacet
 facet normal  9.350162e-01  0.000000e+00  3.546049e-01
   outer loop
     vertex  2.033615e-01 -1.587302e-02  7.416745e-02
     vertex  1.982203e-01 -1.015873e+00  8.772370e-02
     vertex  2.033615e-01 -1.015873e+00  7.416745e-02
   endloop
 endfacet
 facet normal  8.229839e-01  0.000000e+00  5.680647e-01
   outer loop
     vertex  2.115975e-01 -1.587302e-02  6.223549e-02
     vertex  2.033615e-01 -1.015873e+00  7.416745e-02
     vertex  2.115975e-01 -1.015873e+00  6.223549e-02
   endloop
 endfacet
 facet normal  8.229839e-01  0.000000e+00  5.680647e-01
   outer loop
     vertex  2.115975e-01 -1.587302e-02  6.223549e-02
     vertex  2.033615e-01 -1.587302e-02  7.416745e-02
     vertex  2.033615e-01 -1.015873e+00  7.416745e-02
   endloop
 endfacet
 facet normal  6.631227e-01  0.000000e+00  7.485107e-01
   outer loop
     vertex  2.115975e-01 -1.587302e-02  6.223549e-02
     vertex  2.115975e-01 -1.015873e+00  6.223549e-02
     vertex  2.224497e-01 -1.015873e+00  5.262126e-02
   endloop
 endfacet
 facet normal  6.631227e-01  0.000000e+00  7.485107e-01
   outer loop
     vertex  2.224497e-01 -1.587302e-02  5.262126e-02
     vertex  2.115975e-01 -1.587302e-02  6.223549e-02
     vertex  2.224497e-01 -1.015873e+00  5.262126e-02
   endloop
 endfacet
 facet normal  4.647232e-01  0.000000e+00  8.854560e-01
   outer loop
     vertex  2.352874e-01 -1.587302e-02  4.588351e-02
     vertex  2.224497e-01 -1.015873e+00  5.262126e-02
     vertex  2.352874e-01 -1.015873e+00  4.588351e-02
   endloop
 endfacet
 facet normal  4.647232e-01  0.000000e+00  8.854560e-01
   outer loop
     vertex  2.352874e-01 -1.587302e-02  4.588351e-02
     vertex  2.224497e-01 -1.587302e-02  5.262126e-02
     vertex  2.224497e-01 -1.015873e+00  5.262126e-02
   endloop
 endfacet
 facet normal  2.393157e-01  0.000000e+00  9.709418e-01
   outer loop
     vertex  2.493645e-01 -1.587302e-02  4.241381e-02
     vertex  2.352874e-01 -1.015873e+00  4.588351e-02
     vertex  2.493645e-01 -1.015873e+00  4.241381e-02
   endloop
 endfacet
 facet normal  2.392984e-15  0.000000e+00  1.000000e+00
   outer loop
     vertex  2.493645e-01 -1.587302e-02  4.241381e-02
     vertex  2.493645e-01 -1.015873e+00  4.241381e-02
     vertex  2.638630e-01 -1.015873e+00  4.241381e-02
   endloop
 endfacet
 facet normal  2.393157e-01  0.000000e+00  9.709418e-01
   outer loop
     vertex  2.493645e-01 -1.587302e-02  4.241381e-02
     vertex  2.352874e-01 -1.587302e-02  4.588351e-02
     vertex  2.352874e-01 -1.015873e+00  4.588351e-02
   endloop
 endfacet
 facet normal  2.392984e-15  0.000000e+00  1.000000e+00
   outer loop
     vertex  2.638630e-01 -1.587302e-02  4.241381e-02
     vertex  2.493645e-01 -1.587302e-02  4.241381e-02
     vertex  2.638630e-01 -1.015873e+00  4.241381e-02
   endloop
 endfacet
 facet normal -2.393157e-01  0.000000e+00  9.709418e-01
   outer loop
     vertex  2.779401e-01 -1.587302e-02  4.588351e-02
     vertex  2.638630e-01 -1.015873e+00  4.241381e-02
     vertex  2.779401e-01 -1.015873e+00  4.588351e-02
   endloop
 endfacet
 facet normal -2.393157e-01  0.000000e+00  9.709418e-01
   outer loop
     vertex  2.779401e-01 -1.587302e-02  4.588351e-02
     vertex  2.638630e-01 -1.587302e-02  4.241381e-02
     vertex  2.638630e-01 -1.015873e+00  4.241381e-02
   endloop
 endfacet
 facet normal -4.647232e-01  0.000000e+00  8.854560e-01
   outer loop
     vertex  2.907778e-01 -1.587302e-02  5.262126e-02
     vertex  2.779401e-01 -1.015873e+00  4.588351e-02
     vertex  2.907778e-01 -1.015873e+00  5.262126e-02
   endloop
 endfacet
 facet normal -6.631227e-01  0.000000e+00  7.485107e-01
   outer loop
     vertex  2.907778e-01 -1.587302e-02  5.262126e-02
     vertex  2.907778e-01 -1.015873e+00  5.262126e-02
     vertex  3.016300e-01 -1.015873e+00  6.223549e-02
   endloop
 endfacet
 facet normal -4.647232e-01  0.000000e+00  8.854560e-01
   outer loop
     vertex  2.907778e-01 -1.587302e-02  5.262126e-02
     vertex  2.779401e-01 -1.587302e-02  4.588351e-02
     vertex  2.779401e-01 -1.015873e+00  4.588351e-02
   endloop
 endfacet
 facet normal -6.631227e-01  0.000000e+00  7.485107e-01
   outer loop
     vertex  3.016300e-01 -1.587302e-02  6.223549e-02
     vertex  2.907778e-01 -1.587302e-02  5.262126e-02
     vertex  3.016300e-01 -1.015873e+00  6.223549e-02
   endloop
 endfacet
 facet normal -8.229839e-01  0.000000e+00  5.680647e-01
   outer loop
     vertex  3.098660e-01 -1.587302e-02  7.416745e-02
     vertex  3.016300e-01 -1.015873e+00  6.223549e-02
     vertex  3.098660e-01 -1.015873e+00  7.416745e-02
   endloop
 endfacet
 facet normal -9.350162e-01  0.000000e+00  3.546049e-01
   outer loop
     vertex  3.098660e-01 -1.587302e-02  7.416745e-02
     vertex  3.098660e-01 -1.015873e+00  7.416745e-02
     vertex  3.150073e-01 -1.015873e+00  8.772370e-02
   endloop
 endfacet
 facet normal -8.229839e-01  0.000000e+00  5.680647e-01
   outer loop
     vertex  3.098660e-01 -1.587302e-02  7.416745e-02
     vertex  3.016300e-01 -1.587302e-02  6.223549e-02
     vertex  3.016300e-01 -1.015873e+00  6.223549e-02
   endloop
 endfacet
 facet normal -9.350162e-01  0.000000e+00  3.546049e-01
   outer loop
     vertex  3.150073e-01 -1.587302e-02  8.772370e-02
     vertex  3.098660e-01 -1.587302e-02  7.416745e-02
     vertex  3.150073e-01 -1.015873e+00  8.772370e-02
   endloop
 endfacet
 facet normal -9.927089e-01  0.000000e+00  1.205367e-01
   outer loop
     vertex  3.167548e-01 -1.587302e-02  1.021164e-01
     vertex  3.150073e-01 -1.015873e+00  8.772370e-02
     vertex  3.167548e-01 -1.015873e+00  1.021164e-01
   endloop
 endfacet
 facet normal -9.927089e-01  0.000000e+00  1.205367e-01
   outer loop
     vertex  3.167548e-01 -1.587302e-02  1.021164e-01
     vertex  3.150073e-01 -1.587302e-02  8.772370e-02
     vertex  3.150073e-01 -1.015873e+00  8.772370e-02
   endloop
 endfacet
 facet normal  0.000000e+00  0.000000e+00  1.000000e+00
   outer loop
     vertex -4.650794e-01 -1.587302e-02  2.114639e-01
     vertex  4.971781e-01 -1.587302e-02  2.114639e-01
     vertex  4.971781e-01  0.000000e+00  2.114639e-01
   endloop
 endfacet
 facet normal  0.000000e+00  0.000000e+00  1.000000e+00
   outer loop
     vertex -4.650794e-01 -1.587302e-02  2.114639e-01
     vertex  4.971781e-01  0.000000e+00  2.114639e-01
     vertex -4.650794e-01  0.000000e+00  2.114639e-01
   endloop
 endfacet
 facet normal -9.927089e-01  0.000000e+00 -1.205367e-01
   outer loop
     vertex -1.932995e-01 -1.587302e-02  1.152007e-01
     vertex -1.917108e-01  0.000000e+00  1.021164e-01
     vertex -1.917108e-01 -1.587302e-02  1.021164e-01
   endloop
 endfacet
 facet normal -9.927089e-01  0.000000e+00 -1.205367e-01
   outer loop
     vertex -1.932995e-01 -1.587302e-02  1.152007e-01
     vertex -1.932995e-01  0.000000e+00  1.152007e-01
     vertex -1.917108e-01  0.000000e+00  1.021164e-01
   endloop
 endfacet
 facet normal -9.350162e-01  0.000000e+00 -3.546049e-01
   outer loop
     vertex -1.979733e-01 -1.587302e-02  1.275246e-01
     vertex -1.979733e-01  0.000000e+00  1.275246e-01
     vertex -1.932995e-01  0.000000e+00  1.152007e-01
   endloop
 endfacet
 facet normal -9.350162e-01  0.000000e+00 -3.546049e-01
   outer loop
     vertex -1.979733e-01 -1.587302e-02  1.275246e-01
     vertex -1.932995e-01  0.000000e+00  1.152007e-01
     vertex -1.932995e-01 -1.587302e-02  1.152007e-01
   endloop
 endfacet
 facet normal -8.229839e-01  0.000000e+00 -5.680647e-01
   outer loop
     vertex -2.054606e-01 -1.587302e-02  1.383718e-01
     vertex -2.054606e-01  0.000000e+00  1.383718e-01
     vertex -1.979733e-01  0.000000e+00  1.275246e-01
   endloop
 endfacet
 facet normal -8.229839e-01  0.000000e+00 -5.680647e-01
   outer loop
     vertex -2.054606e-01 -1.587302e-02  1.383718e-01
     vertex -1.979733e-01  0.000000e+00  1.275246e-01
     vertex -1.979733e-01 -1.587302e-02  1.275246e-01
   endloop
 endfacet
 facet normal -6.631227e-01  0.000000e+00 -7.485107e-01
   outer loop
     vertex -2.153263e-01 -1.587302e-02  1.471120e-01
     vertex -2.153263e-01  0.000000e+00  1.471120e-01
     vertex -2.054606e-01  0.000000e+00  1.383718e-01
   endloop
 endfacet
 facet normal -6.631227e-01  0.000000e+00 -7.485107e-01
   outer loop
     vertex -2.153263e-01 -1.587302e-02  1.471120e-01
     vertex -2.054606e-01  0.000000e+00  1.383718e-01
     vertex -2.054606e-01 -1.587302e-02  1.383718e-01
   endloop
 endfacet
 facet normal -4.647232e-01  0.000000e+00 -8.854560e-01
   outer loop
     vertex -2.269969e-01 -1.587302e-02  1.532372e-01
     vertex -2.269969e-01  0.000000e+00  1.532372e-01
     vertex -2.153263e-01  0.000000e+00  1.471120e-01
   endloop
 endfacet
 facet normal -4.647232e-01  0.000000e+00 -8.854560e-01
   outer loop
     vertex -2.269969e-01 -1.587302e-02  1.532372e-01
     vertex -2.153263e-01  0.000000e+00  1.471120e-01
     vertex -2.153263e-01 -1.587302e-02  1.471120e-01
   endloop
 endfacet
 facet normal -2.393157e-01  0.000000e+00 -9.709418e-01
   outer loop
     vertex -2.397943e-01 -1.587302e-02  1.563915e-01
     vertex -2.397943e-01  0.000000e+00  1.563915e-01
     vertex -2.269969e-01  0.000000e+00  1.532372e-01
   endloop
 endfacet
 facet normal -2.393157e-01  0.000000e+00 -9.709418e-01
   outer loop
     vertex -2.397943e-01 -1.587302e-02  1.563915e-01
     vertex -2.269969e-01  0.000000e+00  1.532372e-01
     vertex -2.269969e-01 -1.587302e-02  1.532372e-01
   endloop
 endfacet
 facet normal  0.000000e+00  0.000000e+00 -1.000000e+00
   outer loop
     vertex -2.529747e-01 -1.587302e-02  1.563915e-01
     vertex -2.529747e-01  0.000000e+00  1.563915e-01
     vertex -2.397943e-01  0.000000e+00  1.563915e-01
   endloop
 endfacet
 facet normal  0.000000e+00  0.000000e+00 -1.000000e+00
   outer loop
     vertex -2.529747e-01 -1.587302e-02  1.563915e-01
     vertex -2.397943e-01  0.000000e+00  1.563915e-01
     vertex -2.397943e-01 -1.587302e-02  1.563915e-01
   endloop
 endfacet
 facet normal  2.393157e-01  0.000000e+00 -9.709418e-01
   outer loop
     vertex -2.657721e-01 -1.587302e-02  1.532372e-01
     vertex -2.657721e-01  0.000000e+00  1.532372e-01
     vertex -2.529747e-01  0.000000e+00  1.563915e-01
   endloop
 endfacet
 facet normal  2.393157e-01  0.000000e+00 -9.709418e-01
   outer loop
     vertex -2.657721e-01 -1.587302e-02  1.532372e-01
     vertex -2.529747e-01  0.000000e+00  1.563915e-01
     vertex -2.529747e-01 -1.587302e-02  1.563915e-01
   endloop
 endfacet
 facet normal  4.647232e-01  0.000000e+00 -8.854560e-01
   outer loop
     vertex -2.774427e-01 -1.587302e-02  1.471120e-01
     vertex -2.774427e-01  0.000000e+00  1.471120e-01
     vertex -2.657721e-01  0.000000e+00  1.532372e-01
   endloop
 endfacet
 facet normal  4.647232e-01  0.000000e+00 -8.854560e-01
   outer loop
     vertex -2.774427e-01 -1.587302e-02  1.471120e-01
     vertex -2.657721e-01  0.000000e+00  1.532372e-01
     vertex -2.657721e-01 -1.587302e-02  1.532372e-01
   endloop
 endfacet
 facet normal  6.631227e-01  0.000000e+00 -7.485107e-01
   outer loop
     vertex -2.873084e-01 -1.587302e-02  1.383718e-01
     vertex -2.873084e-01  0.000000e+00  1.383718e-01
     vertex -2.774427e-01  0.000000e+00  1.471120e-01
   endloop
 endfacet
 facet normal  6.631227e-01  0.000000e+00 -7.485107e-01
   outer loop
     vertex -2.873084e-01 -1.587302e-02  1.383718e-01
     vertex -2.774427e-01  0.000000e+00  1.471120e-01
     vertex -2.774427e-01 -1.587302e-02  1.471120e-01
   endloop
 endfacet
 facet normal  8.229839e-01  0.000000e+00 -5.680647e-01
   outer loop
     vertex -2.947957e-01 -1.587302e-02  1.275246e-01
     vertex -2.873084e-01  0.000000e+00  1.383718e-01
     vertex -2.873084e-01 -1.587302e-02  1.383718e-01
   endloop
 endfacet
 facet normal  8.229839e-01  0.000000e+00 -5.680647e-01
   outer loop
     vertex -2.947957e-01 -1.587302e-02  1.275246e-01
     vertex -2.947957e-01  0.000000e+00  1.275246e-01
     vertex -2.873084e-01  0.000000e+00  1.383718e-01
   endloop
 endfacet
 facet normal  9.350162e-01  0.000000e+00 -3.546049e-01
   outer loop
     vertex -2.994695e-01 -1.587302e-02  1.152007e-01
     vertex -2.947957e-01  0.000000e+00  1.275246e-01
     vertex -2.947957e-01 -1.587302e-02  1.275246e-01
   endloop
 endfacet
 facet normal  9.350162e-01  0.000000e+00 -3.546049e-01
   outer loop
     vertex -2.994695e-01 -1.587302e-02  1.152007e-01
     vertex -2.994695e-01  0.000000e+00  1.152007e-01
     vertex -2.947957e-01  0.000000e+00  1.275246e-01
   endloop
 endfacet
 facet normal  9.927089e-01  0.000000e+00 -1.205367e-01
   outer loop
     vertex -3.010582e-01 -1.587302e-02  1.021164e-01
     vertex -2.994695e-01  0.000000e+00  1.152007e-01
     vertex -2.994695e-01 -1.587302e-02  1.152007e-01
   endloop
 endfacet
 facet normal  9.927089e-01  0.000000e+00 -1.205367e-01
   outer loop
     vertex -3.010582e-01 -1.587302e-02  1.021164e-01
     vertex -3.010582e-01  0.000000e+00  1.021164e-01
     vertex -2.994695e-01  0.000000e+00  1.152007e-01
   endloop
 endfacet
 facet normal  9.927089e-01 -0.000000e+00  1.205367e-01
   outer loop
     vertex -2.994695e-01 -1.587302e-02  8.903213e-02
     vertex -2.994695e-01  0.000000e+00  8.903213e-02
     vertex -3.010582e-01  0.000000e+00  1.021164e-01
   endloop
 endfacet
 facet normal  9.927089e-01  0.000000e+00  1.205367e-01
   outer loop
     vertex -2.994695e-01 -1.587302e-02  8.903213e-02
     vertex -3.010582e-01  0.000000e+00  1.021164e-01
     vertex -3.010582e-01 -1.587302e-02  1.021164e-01
   endloop
 endfacet
 facet normal  9.350162e-01  0.000000e+00  3.546049e-01
   outer loop
     vertex -2.947957e-01 -1.587302e-02  7.670826e-02
     vertex -2.994695e-01  0.000000e+00  8.903213e-02
     vertex -2.994695e-01 -1.587302e-02  8.903213e-02
   endloop
 endfacet
 facet normal  9.350162e-01 -0.000000e+00  3.546049e-01
   outer loop
     vertex -2.947957e-01 -1.587302e-02  7.670826e-02
     vertex -2.947957e-01  0.000000e+00  7.670826e-02
     vertex -2.994695e-01  0.000000e+00  8.903213e-02
   endloop
 endfacet
 facet normal  8.229839e-01 -0.000000e+00  5.680647e-01
   outer loop
     vertex -2.873084e-01 -1.587302e-02  6.586103e-02
     vertex -2.873084e-01  0.000000e+00  6.586103e-02
     vertex -2.947957e-01  0.000000e+00  7.670826e-02
   endloop
 endfacet
 facet normal  8.229839e-01  0.000000e+00  5.680647e-01
   outer loop
     vertex -2.873084e-01 -1.587302e-02  6.586103e-02
     vertex -2.947957e-01  0.000000e+00  7.670826e-02
     vertex -2.947957e-01 -1.587302e-02  7.670826e-02
   endloop
 endfacet
 facet normal  6.631227e-01 -0.000000e+00  7.485107e-01
   outer loop
     vertex -2.774427e-01 -1.587302e-02  5.712082e-02
     vertex -2.774427e-01  0.000000e+00  5.712082e-02
     vertex -2.873084e-01  0.000000e+00  6.586103e-02
   endloop
 endfacet
 facet normal  6.631227e-01  0.000000e+00  7.485107e-01
   outer loop
     vertex -2.774427e-01 -1.587302e-02  5.712082e-02
     vertex -2.873084e-01  0.000000e+00  6.586103e-02
     vertex -2.873084e-01 -1.587302e-02  6.586103e-02
   endloop
 endfacet
 facet normal  4.647232e-01 -0.000000e+00  8.854560e-01
   outer loop
     vertex -2.657721e-01 -1.587302e-02  5.099559e-02
     vertex -2.657721e-01  0.000000e+00  5.099559e-02
     vertex -2.774427e-01  0.000000e+00  5.712082e-02
   endloop
 endfacet
 facet normal  4.647232e-01  0.000000e+00  8.854560e-01
   outer loop
     vertex -2.657721e-01 -1.587302e-02  5.099559e-02
     vertex -2.774427e-01  0.000000e+00  5.712082e-02
     vertex -2.774427e-01 -1.587302e-02  5.712082e-02
   endloop
 endfacet
 facet normal  2.393157e-01 -0.000000e+00  9.709418e-01
   outer loop
     vertex -2.529747e-01 -1.587302e-02  4.784132e-02
     vertex -2.529747e-01  0.000000e+00  4.784132e-02
     vertex -2.657721e-01  0.000000e+00  5.099559e-02
   endloop
 endfacet
 facet normal  2.393157e-01  0.000000e+00  9.709418e-01
   outer loop
     vertex -2.529747e-01 -1.587302e-02  4.784132e-02
     vertex -2.657721e-01  0.000000e+00  5.099559e-02
     vertex -2.657721e-01 -1.587302e-02  5.099559e-02
   endloop
 endfacet
 facet normal  2.105826e-15 -0.000000e+00  1.000000e+00
   outer loop
     vertex -2.397943e-01 -1.587302e-02  4.784132e-02
     vertex -2.397943e-01  0.000000e+00  4.784132e-02
     vertex -2.529747e-01  0.000000e+00  4.784132e-02
   endloop
 endfacet
 facet normal  2.105826e-15  0.000000e+00  1.000000e+00
   outer loop
     vertex -2.397943e-01 -1.587302e-02  4.784132e-02
     vertex -2.529747e-01  0.000000e+00  4.784132e-02
     vertex -2.529747e-01 -1.587302e-02  4.784132e-02
   endloop
 endfacet
 facet normal -2.393157e-01  0.000000e+00  9.709418e-01
   outer loop
     vertex -2.269969e-01 -1.587302e-02  5.099559e-02
     vertex -2.269969e-01  0.000000e+00  5.099559e-02
     vertex -2.397943e-01  0.000000e+00  4.784132e-02
   endloop
 endfacet
 facet normal -2.393157e-01  0.000000e+00  9.709418e-01
   outer loop
     vertex -2.269969e-01 -1.587302e-02  5.099559e-02
     vertex -2.397943e-01  0.000000e+00  4.784132e-02
     vertex -2.397943e-01 -1.587302e-02  4.784132e-02
   endloop
 endfacet
 facet normal -4.647232e-01  0.000000e+00  8.854560e-01
   outer loop
     vertex -2.153263e-01 -1.587302e-02  5.712082e-02
     vertex -2.153263e-01  0.000000e+00  5.712082e-02
     vertex -2.269969e-01  0.000000e+00  5.099559e-02
   endloop
 endfacet
 facet normal -4.647232e-01  0.000000e+00  8.854560e-01
   outer loop
     vertex -2.153263e-01 -1.587302e-02  5.712082e-02
     vertex -2.269969e-01  0.000000e+00  5.099559e-02
     vertex -2.269969e-01 -1.587302e-02  5.099559e-02
   endloop
 endfacet
 facet normal -6.631227e-01  0.000000e+00  7.485107e-01
   outer loop
     vertex -2.054606e-01 -1.587302e-02  6.586103e-02
     vertex -2.054606e-01  0.000000e+00  6.586103e-02
     vertex -2.153263e-01  0.000000e+00  5.712082e-02
   endloop
 endfacet
 facet normal -6.631227e-01  0.000000e+00  7.485107e-01
   outer loop
     vertex -2.054606e-01 -1.587302e-02  6.586103e-02
     vertex -2.153263e-01  0.000000e+00  5.712082e-02
     vertex -2.153263e-01 -1.587302e-02  5.712082e-02
   endloop
 endfacet
 facet normal -8.229839e-01  0.000000e+00  5.680647e-01
   outer loop
     vertex -1.979733e-01 -1.587302e-02  7.670826e-02
     vertex -1.979733e-01  0.000000e+00  7.670826e-02
     vertex -2.054606e-01  0.000000e+00  6.586103e-02
   endloop
 endfacet
 facet normal -8.229839e-01  0.000000e+00  5.680647e-01
   outer loop
     vertex -1.979733e-01 -1.587302e-02  7.670826e-02
     vertex -2.054606e-01  0.000000e+00  6.586103e-02
     vertex -2.054606e-01 -1.587302e-02  6.586103e-02
   endloop
 endfacet
 facet normal -9.350162e-01  0.000000e+00  3.546049e-01
   outer loop
     vertex -1.932995e-01 -1.587302e-02  8.903213e-02
     vertex -1.932995e-01  0.000000e+00  8.903213e-02
     vertex -1.979733e-01  0.000000e+00  7.670826e-02
   endloop
 endfacet
 facet normal -9.350162e-01  0.000000e+00  3.546049e-01
   outer loop
     vertex -1.932995e-01 -1.587302e-02  8.903213e-02
     vertex -1.979733e-01  0.000000e+00  7.670826e-02
     vertex -1.979733e-01 -1.587302e-02  7.670826e-02
   endloop
 endfacet
 facet normal -9.927089e-01  0.000000e+00  1.205367e-01
   outer loop
     vertex -1.917108e-01 -1.587302e-02  1.021164e-01
     vertex -1.917108e-01  0.000000e+00  1.021164e-01
     vertex -1.932995e-01  0.000000e+00  8.903213e-02
   endloop
 endfacet
 facet normal -9.927089e-01  0.000000e+00  1.205367e-01
   outer loop
     vertex -1.917108e-01 -1.587302e-02  1.021164e-01
     vertex -1.932995e-01  0.000000e+00  8.903213e-02
     vertex -1.932995e-01 -1.587302e-02  8.903213e-02
   endloop
 endfacet
 facet normal -9.927089e-01  0.000000e+00 -1.205367e-01
   outer loop
     vertex  3.150073e-01 -1.587302e-02  1.165091e-01
     vertex  3.167548e-01  0.000000e+00  1.021164e-01
     vertex  3.167548e-01 -1.587302e-02  1.021164e-01
   endloop
 endfacet
 facet normal -9.927089e-01  0.000000e+00 -1.205367e-01
   outer loop
     vertex  3.150073e-01 -1.587302e-02  1.165091e-01
     vertex  3.150073e-01  0.000000e+00  1.165091e-01
     vertex  3.167548e-01  0.000000e+00  1.021164e-01
   endloop
 endfacet
 facet normal -9.350162e-01  0.000000e+00 -3.546049e-01
   outer loop
     vertex  3.098660e-01 -1.587302e-02  1.300654e-01
     vertex  3.098660e-01  0.000000e+00  1.300654e-01
     vertex  3.150073e-01  0.000000e+00  1.165091e-01
   endloop
 endfacet
 facet normal -9.350162e-01  0.000000e+00 -3.546049e-01
   outer loop
     vertex  3.098660e-01 -1.587302e-02  1.300654e-01
     vertex  3.150073e-01  0.000000e+00  1.165091e-01
     vertex  3.150073e-01 -1.587302e-02  1.165091e-01
   endloop
 endfacet
 facet normal -8.229839e-01  0.000000e+00 -5.680647e-01
   outer loop
     vertex  3.016300e-01 -1.587302e-02  1.419973e-01
     vertex  3.016300e-01  0.000000e+00  1.419973e-01
     vertex  3.098660e-01  0.000000e+00  1.300654e-01
   endloop
 endfacet
 facet normal -8.229839e-01  0.000000e+00 -5.680647e-01
   outer loop
     vertex  3.016300e-01 -1.587302e-02  1.419973e-01
     vertex  3.098660e-01  0.000000e+00  1.300654e-01
     vertex  3.098660e-01 -1.587302e-02  1.300654e-01
   endloop
 endfacet
 facet normal -6.631227e-01  0.000000e+00 -7.485107e-01
   outer loop
     vertex  2.907778e-01 -1.587302e-02  1.516116e-01
     vertex  2.907778e-01  0.000000e+00  1.516116e-01
     vertex  3.016300e-01  0.000000e+00  1.419973e-01
   endloop
 endfacet
 facet normal -6.631227e-01  0.000000e+00 -7.485107e-01
   outer loop
     vertex  2.907778e-01 -1.587302e-02  1.516116e-01
     vertex  3.016300e-01  0.000000e+00  1.419973e-01
     vertex  3.016300e-01 -1.587302e-02  1.419973e-01
   endloop
 endfacet
 facet normal -4.647232e-01  0.000000e+00 -8.854560e-01
   outer loop
     vertex  2.779401e-01 -1.587302e-02  1.583493e-01
     vertex  2.779401e-01  0.000000e+00  1.583493e-01
     vertex  2.907778e-01  0.000000e+00  1.516116e-01
   endloop
 endfacet
 facet normal -4.647232e-01  0.000000e+00 -8.854560e-01
   outer loop
     vertex  2.779401e-01 -1.587302e-02  1.583493e-01
     vertex  2.907778e-01  0.000000e+00  1.516116e-01
     vertex  2.907778e-01 -1.587302e-02  1.516116e-01
   endloop
 endfacet
 facet normal -2.393157e-01  0.000000e+00 -9.709418e-01
   outer loop
     vertex  2.638630e-01 -1.587302e-02  1.618190e-01
     vertex  2.638630e-01  0.000000e+00  1.618190e-01
     vertex  2.779401e-01  0.000000e+00  1.583493e-01
   endloop
 endfacet
 facet normal -2.393157e-01  0.000000e+00 -9.709418e-01
   outer loop
     vertex  2.638630e-01 -1.587302e-02  1.618190e-01
     vertex  2.779401e-01  0.000000e+00  1.583493e-01
     vertex  2.779401e-01 -1.587302e-02  1.583493e-01
   endloop
 endfacet
 facet normal  0.000000e+00  0.000000e+00 -1.000000e+00
   outer loop
     vertex  2.493645e-01 -1.587302e-02  1.618190e-01
     vertex  2.493645e-01  0.000000e+00  1.618190e-01
     vertex  2.638630e-01  0.000000e+00  1.618190e-01
   endloop
 endfacet
 facet normal  0.000000e+00  0.000000e+00 -1.000000e+00
   outer loop
     vertex  2.493645e-01 -1.587302e-02  1.618190e-01
     vertex  2.638630e-01  0.000000e+00  1.618190e-01
     vertex  2.638630e-01 -1.587302e-02  1.618190e-01
   endloop
 endfacet
 facet normal  2.393157e-01  0.000000e+00 -9.709418e-01
   outer loop
     vertex  2.352874e-01 -1.587302e-02  1.583493e-01
     vertex  2.352874e-01  0.000000e+00  1.583493e-01
     vertex  2.493645e-01  0.000000e+00  1.618190e-01
   endloop
 endfacet
 facet normal  2.393157e-01  0.000000e+00 -9.709418e-01
   outer loop
     vertex  2.352874e-01 -1.587302e-02  1.583493e-01
     vertex  2.493645e-01  0.000000e+00  1.618190e-01
     vertex  2.493645e-01 -1.587302e-02  1.618190e-01
   endloop
 endfacet
 facet normal  4.647232e-01  0.000000e+00 -8.854560e-01
   outer loop
     vertex  2.224497e-01 -1.587302e-02  1.516116e-01
     vertex  2.224497e-01  0.000000e+00  1.516116e-01
     vertex  2.352874e-01  0.000000e+00  1.583493e-01
   endloop
 endfacet
 facet normal  4.647232e-01  0.000000e+00 -8.854560e-01
   outer loop
     vertex  2.224497e-01 -1.587302e-02  1.516116e-01
     vertex  2.352874e-01  0.000000e+00  1.583493e-01
     vertex  2.352874e-01 -1.587302e-02  1.583493e-01
   endloop
 endfacet
 facet normal  6.631227e-01  0.000000e+00 -7.485107e-01
   outer loop
     vertex  2.115975e-01 -1.587302e-02  1.419973e-01
     vertex  2.115975e-01  0.000000e+00  1.419973e-01
     vertex  2.224497e-01  0.000000e+00  1.516116e-01
   endloop
 endfacet
 facet normal  6.631227e-01  0.000000e+00 -7.485107e-01
   outer loop
     vertex  2.115975e-01 -1.587302e-02  1.419973e-01
     vertex  2.224497e-01  0.000000e+00  1.516116e-01
     vertex  2.224497e-01 -1.587302e-02  1.516116e-01
   endloop
 endfacet
 facet normal  8.229839e-01  0.000000e+00 -5.680647e-01
   outer loop
     vertex  2.033615e-01 -1.587302e-02  1.300654e-01
     vertex  2.115975e-01  0.000000e+00  1.419973e-01
     vertex  2.115975e-01 -1.587302e-02  1.419973e-01
   endloop
 endfacet
 facet normal  8.229839e-01  0.000000e+00 -5.680647e-01
   outer loop
     vertex  2.033615e-01 -1.587302e-02  1.300654e-01
     vertex  2.033615e-01  0.000000e+00  1.300654e-01
     vertex  2.115975e-01  0.000000e+00  1.419973e-01
   endloop
 endfacet
 facet normal  9.350162e-01  0.000000e+00 -3.546049e-01
   outer loop
     vertex  1.982203e-01 -1.587302e-02  1.165091e-01
     vertex  2.033615e-01  0.000000e+00  1.300654e-01
     vertex  2.033615e-01 -1.587302e-02  1.300654e-01
   endloop
 endfacet
 facet normal  9.350162e-01  0.000000e+00 -3.546049e-01
   outer loop
     vertex  1.982203e-01 -1.587302e-02  1.165091e-01
     vertex  1.982203e-01  0.000000e+00  1.165091e-01
     vertex  2.033615e-01  0.000000e+00  1.300654e-01
   endloop
 endfacet
 facet normal  9.927089e-01  0.000000e+00 -1.205367e-01
   outer loop
     vertex  1.964727e-01 -1.587302e-02  1.021164e-01
     vertex  1.982203e-01  0.000000e+00  1.165091e-01
     vertex  1.982203e-01 -1.587302e-02  1.165091e-01
   endloop
 endfacet
 facet normal  9.927089e-01  0.000000e+00 -1.205367e-01
   outer loop
     vertex  1.964727e-01 -1.587302e-02  1.021164e-01
     vertex  1.964727e-01  0.000000e+00  1.021164e-01
     vertex  1.982203e-01  0.000000e+00  1.165091e-01
   endloop
 endfacet
 facet normal  9.927089e-01 -0.000000e+00  1.205367e-01
   outer loop
     vertex  1.982203e-01 -1.587302e-02  8.772370e-02
     vertex  1.982203e-01  0.000000e+00  8.772370e-02
     vertex  1.964727e-01  0.000000e+00  1.021164e-01
   endloop
 endfacet
 facet normal  9.927089e-01  0.000000e+00  1.205367e-01
   outer loop
     vertex  1.982203e-01 -1.587302e-02  8.772370e-02
     vertex  1.964727e-01  0.000000e+00  1.021164e-01
     vertex  1.964727e-01 -1.587302e-02  1.021164e-01
   endloop
 endfacet
 facet normal  9.350162e-01  0.000000e+00  3.546049e-01
   outer loop
     vertex  2.033615e-01 -1.587302e-02  7.416745e-02
     vertex  1.982203e-01  0.000000e+00  8.772370e-02
     vertex  1.982203e-01 -1.587302e-02  8.772370e-02
   endloop
 endfacet
 facet normal  9.350162e-01 -0.000000e+00  3.546049e-01
   outer loop
     vertex  2.033615e-01 -1.587302e-02  7.416745e-02
     vertex  2.033615e-01  0.000000e+00  7.416745e-02
     vertex  1.982203e-01  0.000000e+00  8.772370e-02
   endloop
 endfacet
 facet normal  8.229839e-01 -0.000000e+00  5.680647e-01
   outer loop
     vertex  2.115975e-01 -1.587302e-02  6.223549e-02
     vertex  2.115975e-01  0.000000e+00  6.223549e-02
     vertex  2.033615e-01  0.000000e+00  7.416745e-02
   endloop
 endfacet
 facet normal  8.229839e-01  0.000000e+00  5.680647e-01
   outer loop
     vertex  2.115975e-01 -1.587302e-02  6.223549e-02
     vertex  2.033615e-01  0.000000e+00  7.416745e-02
     vertex  2.033615e-01 -1.587302e-02  7.416745e-02
   endloop
 endfacet
 facet normal  6.631227e-01 -0.000000e+00  7.485107e-01
   outer loop
     vertex  2.224497e-01 -1.587302e-02  5.262126e-02
     vertex  2.224497e-01  0.000000e+00  5.262126e-02
     vertex  2.115975e-01  0.000000e+00  6.223549e-02
   endloop
 endfacet
 facet normal  6.631227e-01  0.000000e+00  7.485107e-01
   outer loop
     vertex  2.224497e-01 -1.587302e-02  5.262126e-02
     vertex  2.115975e-01  0.000000e+00  6.223549e-02
     vertex  2.115975e-01 -1.587302e-02  6.223549e-02
   endloop
 endfacet
 facet normal  4.647232e-01 -0.000000e+00  8.854560e-01
   outer loop
     vertex  2.352874e-01 -1.587302e-02  4.588351e-02
     vertex  2.352874e-01  0.000000e+00  4.588351e-02
     vertex  2.224497e-01  0.000000e+00  5.262126e-02
   endloop
 endfacet
 facet normal  4.647232e-01  0.000000e+00  8.854560e-01
   outer loop
     vertex  2.352874e-01 -1.587302e-02  4.588351e-02
     vertex  2.224497e-01  0.000000e+00  5.262126e-02
     vertex  2.224497e-01 -1.587302e-02  5.262126e-02
   endloop
 endfacet
 facet normal  2.393157e-01 -0.000000e+00  9.709418e-01
   outer loop
     vertex  2.493645e-01 -1.587302e-02  4.241381e-02
     vertex  2.493645e-01  0.000000e+00  4.241381e-02
     vertex  2.352874e-01  0.000000e+00  4.588351e-02
   endloop
 endfacet
 facet normal  2.393157e-01  0.000000e+00  9.709418e-01
   outer loop
     vertex  2.493645e-01 -1.587302e-02  4.241381e-02
     vertex  2.352874e-01  0.000000e+00  4.588351e-02
     vertex  2.352874e-01 -1.587302e-02  4.588351e-02
   endloop
 endfacet
 facet normal  2.392984e-15 -0.000000e+00  1.000000e+00
   outer loop
     vertex  2.638630e-01 -1.587302e-02  4.241381e-02
     vertex  2.638630e-01  0.000000e+00  4.241381e-02
     vertex  2.493645e-01  0.000000e+00  4.241381e-02
   endloop
 endfacet
 facet normal  2.392984e-15  0.000000e+00  1.000000e+00
   outer loop
     vertex  2.638630e-01 -1.587302e-02  4.241381e-02
     vertex  2.493645e-01  0.000000e+00  4.241381e-02
     vertex  2.493645e-01 -1.587302e-02  4.241381e-02
   endloop
 endfacet
 facet normal -2.393157e-01  0.000000e+00  9.709418e-01
   outer loop
     vertex  2.779401e-01 -1.587302e-02  4.588351e-02
     vertex  2.779401e-01  0.000000e+00  4.588351e-02
     vertex  2.638630e-01  0.000000e+00  4.241381e-02
   endloop
 endfacet
 facet normal -2.393157e-01  0.000000e+00  9.709418e-01
   outer loop
     vertex  2.779401e-01 -1.587302e-02  4.588351e-02
     vertex  2.638630e-01  0.000000e+00  4.241381e-02
     vertex  2.638630e-01 -1.587302e-02  4.241381e-02
   endloop
 endfacet
 facet normal -4.647232e-01  0.000000e+00  8.854560e-01
   outer loop
     vertex  2.907778e-01 -1.587302e-02  5.262126e-02
     vertex  2.907778e-01  0.000000e+00  5.262126e-02
     vertex  2.779401e-01  0.000000e+00  4.588351e-02
   endloop
 endfacet
 facet normal -4.647232e-01  0.000000e+00  8.854560e-01
   outer loop
     vertex  2.907778e-01 -1.587302e-02  5.262126e-02
     vertex  2.779401e-01  0.000000e+00  4.588351e-02
     vertex  2.779401e-01 -1.587302e-02  4.588351e-02
   endloop
 endfacet
 facet normal -6.631227e-01  0.000000e+00  7.485107e-01
   outer loop
     vertex  3.016300e-01 -1.587302e-02  6.223549e-02
     vertex  3.016300e-01  0.000000e+00  6.223549e-02
     vertex  2.907778e-01  0.000000e+00  5.262126e-02
   endloop
 endfacet
 facet normal -6.631227e-01  0.000000e+00  7.485107e-01
   outer loop
     vertex  3.016300e-01 -1.587302e-02  6.223549e-02
     vertex  2.907778e-01  0.000000e+00  5.262126e-02
     vertex  2.907778e-01 -1.587302e-02  5.262126e-02
   endloop
 endfacet
 facet normal -8.229839e-01  0.000000e+00  5.680647e-01
   outer loop
     vertex  3.098660e-01 -1.587302e-02  7.416745e-02
     vertex  3.098660e-01  0.000000e+00  7.416745e-02
     vertex  3.016300e-01  0.000000e+00  6.223549e-02
   endloop
 endfacet
 facet normal -8.229839e-01  0.000000e+00  5.680647e-01
   outer loop
     vertex  3.098660e-01 -1.587302e-02  7.416745e-02
     vertex  3.016300e-01  0.000000e+00  6.223549e-02
     vertex  3.016300e-01 -1.587302e-02  6.223549e-02
   endloop
 endfacet
 facet normal -9.350162e-01  0.000000e+00  3.546049e-01
   outer loop
     vertex  3.150073e-01 -1.587302e-02  8.772370e-02
     vertex  3.150073e-01  0.000000e+00  8.772370e-02
     vertex  3.098660e-01  0.000000e+00  7.416745e-02
   endloop
 endfacet
 facet normal -9.350162e-01  0.000000e+00  3.546049e-01
   outer loop
     vertex  3.150073e-01 -1.587302e-02  8.772370e-02
     vertex  3.098660e-01  0.000000e+00  7.416745e-02
     vertex  3.098660e-01 -1.587302e-02  7.416745e-02
   endloop
 endfacet
 facet normal -9.927089e-01  0.000000e+00  1.205367e-01
   outer loop
     vertex  3.167548e-01 -1.587302e-02  1.021164e-01
     vertex  3.167548e-01  0.000000e+00  1.021164e-01
     vertex  3.150073e-01  0.000000e+00  8.772370e-02
   endloop
 endfacet
 facet normal -9.927089e-01  0.000000e+00  1.205367e-01
   outer loop
     vertex  3.167548e-01 -1.587302e-02  1.021164e-01
     vertex  3.150073e-01  0.000000e+00  8.772370e-02
     vertex  3.150073e-01 -1.587302e-02  8.772370e-02
   endloop
 endfacet
endsolid
