solid 
 facet normal  0.000000e+00 -1.000000e+00  0.000000e+00
   outer loop
     vertex  6.936508e-01 -3.015882e-02 -1.587302e-02
     vertex -3.015882e-02 -3.015882e-02  6.349212e-02
     vertex -3.015882e-02 -3.015882e-02 -1.587302e-02
   endloop
 endfacet
 facet normal  0.000000e+00 -1.000000e+00  0.000000e+00
   outer loop
     vertex  6.936508e-01 -3.015882e-02 -1.587302e-02
     vertex  6.936508e-01 -3.015882e-02  6.349212e-02
     vertex -3.015882e-02 -3.015882e-02  6.349212e-02
   endloop
 endfacet
 facet normal -1.000000e+00 -7.323618e-16  0.000000e+00
   outer loop
     vertex -3.015882e-02  6.806178e-01  3.174609e-02
     vertex -3.015882e-02  9.222222e-01  6.349212e-02
     vertex -3.015882e-02  9.222222e-01 -1.587302e-02
   endloop
 endfacet
 facet normal -1.000000e+00 -4.035170e-15  2.513614e-14
   outer loop
     vertex -3.015882e-02  6.806178e-01  3.174609e-02
     vertex -3.015882e-02  6.806178e-01  6.349212e-02
     vertex -3.015882e-02  9.222222e-01  6.349212e-02
   endloop
 endfacet
 facet normal -1.000000e+00  4.380267e-15  2.950765e-14
   outer loop
     vertex -3.015882e-02 -3.015882e-02  6.349212e-02
     vertex -3.015882e-02  1.987474e-01  6.349212e-02
     vertex -3.015882e-02  1.987474e-01  3.174609e-02
   endloop
 endfacet
 facet normal -1.000000e+00  2.879760e-16  0.000000e+00
   outer loop
     vertex -3.015882e-02 -3.015882e-02 -1.587302e-02
     vertex -3.015882e-02 -3.015882e-02  6.349212e-02
     vertex -3.015882e-02  1.987474e-01  3.174609e-02
   endloop
 endfacet
 facet normal -1.000000e+00  0.000000e+00  3.715773e-15
   outer loop
     vertex -3.015882e-02 -3.015882e-02 -1.587302e-02
     vertex -3.015882e-02  6.806178e-01  3.174609e-02
     vertex -3.015882e-02  9.222222e-01 -1.587302e-02
   endloop
 endfacet
 facet normal -1.000000e+00  2.303986e-16  2.767759e-16
   outer loop
     vertex -3.015882e-02 -3.015882e-02 -1.587302e-02
     vertex -3.015882e-02  1.987474e-01  3.174609e-02
     vertex -3.015882e-02  6.806178e-01  3.174609e-02
   endloop
 endfacet
 facet normal  1.000000e+00  0.000000e+00  0.000000e+00
   outer loop
     vertex  6.936508e-01  2.651081e-01  3.174609e-02
     vertex  6.936508e-01 -3.015882e-02  6.349212e-02
     vertex  6.936508e-01 -3.015882e-02 -1.587302e-02
   endloop
 endfacet
 facet normal  1.000000e+00 -1.090419e-14 -1.014189e-13
   outer loop
     vertex  6.936508e-01  2.651081e-01  3.174609e-02
     vertex  6.936508e-01  2.651081e-01  6.349212e-02
     vertex  6.936508e-01 -3.015882e-02  6.349212e-02
   endloop
 endfacet
 facet normal  1.000000e+00  1.117559e-14 -1.084133e-13
   outer loop
     vertex  6.936508e-01  9.222222e-01  6.349212e-02
     vertex  6.936508e-01  6.142571e-01  6.349212e-02
     vertex  6.936508e-01  6.142571e-01  3.174609e-02
   endloop
 endfacet
 facet normal  1.000000e+00  0.000000e+00 -0.000000e+00
   outer loop
     vertex  6.936508e-01  9.222222e-01 -1.587302e-02
     vertex  6.936508e-01  9.222222e-01  6.349212e-02
     vertex  6.936508e-01  6.142571e-01  3.174609e-02
   endloop
 endfacet
 facet normal  1.000000e+00  0.000000e+00  0.000000e+00
   outer loop
     vertex  6.936508e-01  9.222222e-01 -1.587302e-02
     vertex  6.936508e-01  2.651081e-01  3.174609e-02
     vertex  6.936508e-01 -3.015882e-02 -1.587302e-02
   endloop
 endfacet
 facet normal  1.000000e+00  0.000000e+00  0.000000e+00
   outer loop
     vertex  6.936508e-01  9.222222e-01 -1.587302e-02
     vertex  6.936508e-01  6.142571e-01  3.174609e-02
     vertex  6.936508e-01  2.651081e-01  3.174609e-02
   endloop
 endfacet
 facet normal -0.000000e+00 -1.000000e+00  0.000000e+00
   outer loop
     vertex  6.936508e-01 -3.015882e-02 -1.587302e-02
     vertex -3.015882e-02 -3.015882e-02 -1.587302e-02
     vertex -3.015882e-02 -3.015882e-02 -3.174603e-02
   endloop
 endfacet
 facet normal  0.000000e+00 -1.000000e+00 -0.000000e+00
   outer loop
     vertex  6.936508e-01 -3.015882e-02 -1.587302e-02
     vertex -3.015882e-02 -3.015882e-02 -3.174603e-02
     vertex  6.936508e-01 -3.015882e-02 -3.174603e-02
   endloop
 endfacet
 facet normal  0.000000e+00  0.000000e+00  1.000000e+00
   outer loop
     vertex -5.642761e-03  1.671761e-01  6.349212e-02
     vertex -3.015882e-02 -3.015882e-02  6.349212e-02
     vertex  2.176986e-02  1.380844e-01  6.349212e-02
   endloop
 endfacet
 facet normal  0.000000e+00  0.000000e+00  1.000000e+00
   outer loop
     vertex  5.182961e-02  1.117369e-01  6.349212e-02
     vertex  2.176986e-02  1.380844e-01  6.349212e-02
     vertex -3.015882e-02 -3.015882e-02  6.349212e-02
   endloop
 endfacet
 facet normal  0.000000e+00  0.000000e+00  1.000000e+00
   outer loop
     vertex -3.015882e-02  1.987474e-01  6.349212e-02
     vertex -3.015882e-02 -3.015882e-02  6.349212e-02
     vertex -5.642761e-03  1.671761e-01  6.349212e-02
   endloop
 endfacet
 facet normal  0.000000e+00  0.000000e+00  1.000000e+00
   outer loop
     vertex  8.426300e-02  8.837341e-02  6.349212e-02
     vertex  5.182961e-02  1.117369e-01  6.349212e-02
     vertex -3.015882e-02 -3.015882e-02  6.349212e-02
   endloop
 endfacet
 facet normal  0.000000e+00  0.000000e+00  1.000000e+00
   outer loop
     vertex  1.187749e-01  6.820641e-02  6.349212e-02
     vertex  8.426300e-02  8.837341e-02  6.349212e-02
     vertex -3.015882e-02 -3.015882e-02  6.349212e-02
   endloop
 endfacet
 facet normal  0.000000e+00  0.000000e+00  1.000000e+00
   outer loop
     vertex  1.550513e-01  5.141944e-02  6.349212e-02
     vertex  1.187749e-01  6.820641e-02  6.349212e-02
     vertex -3.015882e-02 -3.015882e-02  6.349212e-02
   endloop
 endfacet
 facet normal  0.000000e+00  0.000000e+00  1.000000e+00
   outer loop
     vertex  1.927621e-01  3.816525e-02  6.349212e-02
     vertex  1.550513e-01  5.141944e-02  6.349212e-02
     vertex -3.015882e-02 -3.015882e-02  6.349212e-02
   endloop
 endfacet
 facet normal  0.000000e+00  0.000000e+00  1.000000e+00
   outer loop
     vertex  2.315642e-01  2.856444e-02  6.349212e-02
     vertex  1.927621e-01  3.816525e-02  6.349212e-02
     vertex -3.015882e-02 -3.015882e-02  6.349212e-02
   endloop
 endfacet
 facet normal  0.000000e+00  0.000000e+00  1.000000e+00
   outer loop
     vertex  2.711045e-01  2.270435e-02  6.349212e-02
     vertex  2.315642e-01  2.856444e-02  6.349212e-02
     vertex -3.015882e-02 -3.015882e-02  6.349212e-02
   endloop
 endfacet
 facet normal  0.000000e+00  0.000000e+00  1.000000e+00
   outer loop
     vertex  3.110233e-01  2.063832e-02  6.349212e-02
     vertex  2.711045e-01  2.270435e-02  6.349212e-02
     vertex -3.015882e-02 -3.015882e-02  6.349212e-02
   endloop
 endfacet
 facet normal  0.000000e+00  0.000000e+00  1.000000e+00
   outer loop
     vertex  6.936508e-01 -3.015882e-02  6.349212e-02
     vertex  3.509574e-01  2.238514e-02  6.349212e-02
     vertex  3.110233e-01  2.063832e-02  6.349212e-02
   endloop
 endfacet
 facet normal  0.000000e+00  0.000000e+00  1.000000e+00
   outer loop
     vertex  6.936508e-01 -3.015882e-02  6.349212e-02
     vertex  3.905433e-01  2.792891e-02  6.349212e-02
     vertex  3.509574e-01  2.238514e-02  6.349212e-02
   endloop
 endfacet
 facet normal  0.000000e+00  0.000000e+00  1.000000e+00
   outer loop
     vertex  6.936508e-01 -3.015882e-02  6.349212e-02
     vertex  4.294209e-01  3.721920e-02  6.349212e-02
     vertex  3.905433e-01  2.792891e-02  6.349212e-02
   endloop
 endfacet
 facet normal  0.000000e+00  0.000000e+00  1.000000e+00
   outer loop
     vertex  6.936508e-01 -3.015882e-02  6.349212e-02
     vertex  4.672365e-01  5.017148e-02  6.349212e-02
     vertex  4.294209e-01  3.721920e-02  6.349212e-02
   endloop
 endfacet
 facet normal  0.000000e+00  0.000000e+00  1.000000e+00
   outer loop
     vertex  6.936508e-01 -3.015882e-02  6.349212e-02
     vertex  5.036460e-01  6.666788e-02  6.349212e-02
     vertex  4.672365e-01  5.017148e-02  6.349212e-02
   endloop
 endfacet
 facet normal  0.000000e+00  0.000000e+00  1.000000e+00
   outer loop
     vertex  6.936508e-01 -3.015882e-02  6.349212e-02
     vertex  5.383180e-01  8.655832e-02  6.349212e-02
     vertex  5.036460e-01  6.666788e-02  6.349212e-02
   endloop
 endfacet
 facet normal  0.000000e+00  0.000000e+00  1.000000e+00
   outer loop
     vertex  6.936508e-01 -3.015882e-02  6.349212e-02
     vertex  3.110233e-01  2.063832e-02  6.349212e-02
     vertex -3.015882e-02 -3.015882e-02  6.349212e-02
   endloop
 endfacet
 facet normal  0.000000e+00  0.000000e+00  1.000000e+00
   outer loop
     vertex  5.709371e-01  1.096618e-01  6.349212e-02
     vertex  5.383180e-01  8.655832e-02  6.349212e-02
     vertex  6.936508e-01 -3.015882e-02  6.349212e-02
   endloop
 endfacet
 facet normal  0.000000e+00  0.000000e+00  1.000000e+00
   outer loop
     vertex  6.012066e-01  1.357681e-01  6.349212e-02
     vertex  5.709371e-01  1.096618e-01  6.349212e-02
     vertex  6.936508e-01 -3.015882e-02  6.349212e-02
   endloop
 endfacet
 facet normal  0.000000e+00  0.000000e+00  1.000000e+00
   outer loop
     vertex  6.288509e-01  1.646397e-01  6.349212e-02
     vertex  6.012066e-01  1.357681e-01  6.349212e-02
     vertex  6.936508e-01 -3.015882e-02  6.349212e-02
   endloop
 endfacet
 facet normal  0.000000e+00  0.000000e+00  1.000000e+00
   outer loop
     vertex  6.536186e-01  1.960140e-01  6.349212e-02
     vertex  6.288509e-01  1.646397e-01  6.349212e-02
     vertex  6.936508e-01 -3.015882e-02  6.349212e-02
   endloop
 endfacet
 facet normal  0.000000e+00  0.000000e+00  1.000000e+00
   outer loop
     vertex  6.752842e-01  2.296053e-01  6.349212e-02
     vertex  6.536186e-01  1.960140e-01  6.349212e-02
     vertex  6.936508e-01 -3.015882e-02  6.349212e-02
   endloop
 endfacet
 facet normal  0.000000e+00  0.000000e+00  1.000000e+00
   outer loop
     vertex  6.936508e-01  2.651081e-01  6.349212e-02
     vertex  6.752842e-01  2.296053e-01  6.349212e-02
     vertex  6.936508e-01 -3.015882e-02  6.349212e-02
   endloop
 endfacet
 facet normal -1.000000e+00  0.000000e+00  0.000000e+00
   outer loop
     vertex -3.015882e-02 -3.015882e-02 -1.587302e-02
     vertex -3.015882e-02  9.222222e-01 -1.587302e-02
     vertex -3.015882e-02  9.222222e-01 -3.174603e-02
   endloop
 endfacet
 facet normal -1.000000e+00  0.000000e+00  0.000000e+00
   outer loop
     vertex -3.015882e-02 -3.015882e-02 -1.587302e-02
     vertex -3.015882e-02  9.222222e-01 -3.174603e-02
     vertex -3.015882e-02 -3.015882e-02 -3.174603e-02
   endloop
 endfacet
 facet normal  7.898289e-01  6.133273e-01  2.978102e-14
   outer loop
     vertex -3.015882e-02  1.987474e-01  6.349212e-02
     vertex -5.642761e-03  1.671761e-01  3.174609e-02
     vertex -3.015882e-02  1.987474e-01  3.174609e-02
   endloop
 endfacet
 facet normal  7.277979e-01  6.857916e-01  4.330416e-15
   outer loop
     vertex -5.642761e-03  1.671761e-01  6.349212e-02
     vertex  2.176986e-02  1.380844e-01  3.174609e-02
     vertex -5.642761e-03  1.671761e-01  3.174609e-02
   endloop
 endfacet
 facet normal  7.898289e-01  6.133273e-01 -5.601820e-15
   outer loop
     vertex -5.642761e-03  1.671761e-01  6.349212e-02
     vertex -5.642761e-03  1.671761e-01  3.174609e-02
     vertex -3.015882e-02  1.987474e-01  6.349212e-02
   endloop
 endfacet
 facet normal  6.591448e-01  7.520160e-01  6.479969e-15
   outer loop
     vertex  2.176986e-02  1.380844e-01  6.349212e-02
     vertex  5.182961e-02  1.117369e-01  3.174609e-02
     vertex  2.176986e-02  1.380844e-01  3.174609e-02
   endloop
 endfacet
 facet normal  7.277979e-01  6.857916e-01 -4.724888e-15
   outer loop
     vertex  2.176986e-02  1.380844e-01  6.349212e-02
     vertex  2.176986e-02  1.380844e-01  3.174609e-02
     vertex -5.642761e-03  1.671761e-01  6.349212e-02
   endloop
 endfacet
 facet normal  5.844942e-01  8.113979e-01  7.008627e-15
   outer loop
     vertex  5.182961e-02  1.117369e-01  6.349212e-02
     vertex  8.426300e-02  8.837341e-02  3.174609e-02
     vertex  5.182961e-02  1.117369e-01  3.174609e-02
   endloop
 endfacet
 facet normal  6.591448e-01  7.520160e-01 -5.208241e-15
   outer loop
     vertex  5.182961e-02  1.117369e-01  6.349212e-02
     vertex  5.182961e-02  1.117369e-01  3.174609e-02
     vertex  2.176986e-02  1.380844e-01  6.349212e-02
   endloop
 endfacet
 facet normal  5.045253e-01  8.633969e-01  7.320114e-15
   outer loop
     vertex  8.426300e-02  8.837341e-02  6.349212e-02
     vertex  1.187749e-01  6.820641e-02  3.174609e-02
     vertex  8.426300e-02  8.837341e-02  3.174609e-02
   endloop
 endfacet
 facet normal  5.844942e-01  8.113979e-01 -6.049469e-15
   outer loop
     vertex  8.426300e-02  8.837341e-02  6.349212e-02
     vertex  8.426300e-02  8.837341e-02  3.174609e-02
     vertex  5.182961e-02  1.117369e-01  6.349212e-02
   endloop
 endfacet
 facet normal  4.199658e-01  9.075399e-01  6.564686e-15
   outer loop
     vertex  1.187749e-01  6.820641e-02  6.349212e-02
     vertex  1.550513e-01  5.141944e-02  3.174609e-02
     vertex  1.187749e-01  6.820641e-02  3.174609e-02
   endloop
 endfacet
 facet normal  5.045253e-01  8.633969e-01 -7.982077e-15
   outer loop
     vertex  1.187749e-01  6.820641e-02  6.349212e-02
     vertex  1.187749e-01  6.820641e-02  3.174609e-02
     vertex  8.426300e-02  8.837341e-02  6.349212e-02
   endloop
 endfacet
 facet normal  3.315850e-01  9.434253e-01  7.295149e-15
   outer loop
     vertex  1.550513e-01  5.141944e-02  6.349212e-02
     vertex  1.927621e-01  3.816525e-02  3.174609e-02
     vertex  1.550513e-01  5.141944e-02  3.174609e-02
   endloop
 endfacet
 facet normal  4.199658e-01  9.075399e-01 -8.346292e-15
   outer loop
     vertex  1.550513e-01  5.141944e-02  6.349212e-02
     vertex  1.550513e-01  5.141944e-02  3.174609e-02
     vertex  1.187749e-01  6.820641e-02  6.349212e-02
   endloop
 endfacet
 facet normal  2.401872e-01  9.707266e-01  6.788400e-15
   outer loop
     vertex  1.927621e-01  3.816525e-02  6.349212e-02
     vertex  2.315642e-01  2.856444e-02  3.174609e-02
     vertex  1.927621e-01  3.816525e-02  3.174609e-02
   endloop
 endfacet
 facet normal  3.315850e-01  9.434253e-01 -1.005067e-14
   outer loop
     vertex  1.927621e-01  3.816525e-02  6.349212e-02
     vertex  1.927621e-01  3.816525e-02  3.174609e-02
     vertex  1.550513e-01  5.141944e-02  6.349212e-02
   endloop
 endfacet
 facet normal  1.466039e-01  9.891953e-01  7.549051e-15
   outer loop
     vertex  2.315642e-01  2.856444e-02  6.349212e-02
     vertex  2.711045e-01  2.270435e-02  3.174609e-02
     vertex  2.315642e-01  2.856444e-02  3.174609e-02
   endloop
 endfacet
 facet normal  2.401872e-01  9.707266e-01 -1.036084e-14
   outer loop
     vertex  2.315642e-01  2.856444e-02  6.349212e-02
     vertex  2.315642e-01  2.856444e-02  3.174609e-02
     vertex  1.927621e-01  3.816525e-02  6.349212e-02
   endloop
 endfacet
 facet normal  5.168669e-02  9.986633e-01  8.905652e-15
   outer loop
     vertex  2.711045e-01  2.270435e-02  6.349212e-02
     vertex  3.110233e-01  2.063832e-02  3.174609e-02
     vertex  2.711045e-01  2.270435e-02  3.174609e-02
   endloop
 endfacet
 facet normal  1.466039e-01  9.891953e-01 -1.019731e-14
   outer loop
     vertex  2.711045e-01  2.270435e-02  6.349212e-02
     vertex  2.711045e-01  2.270435e-02  3.174609e-02
     vertex  2.315642e-01  2.856444e-02  6.349212e-02
   endloop
 endfacet
 facet normal -4.370082e-02  9.990447e-01  9.246253e-15
   outer loop
     vertex  3.110233e-01  2.063832e-02  6.349212e-02
     vertex  3.509574e-01  2.238514e-02  3.174609e-02
     vertex  3.110233e-01  2.063832e-02  3.174609e-02
   endloop
 endfacet
 facet normal  5.168669e-02  9.986633e-01 -1.093591e-14
   outer loop
     vertex  3.110233e-01  2.063832e-02  6.349212e-02
     vertex  3.110233e-01  2.063832e-02  3.174609e-02
     vertex  2.711045e-01  2.270435e-02  6.349212e-02
   endloop
 endfacet
 facet normal -1.386907e-01  9.903357e-01  1.175065e-14
   outer loop
     vertex  3.509574e-01  2.238514e-02  6.349212e-02
     vertex  3.905433e-01  2.792891e-02  3.174609e-02
     vertex  3.509574e-01  2.238514e-02  3.174609e-02
   endloop
 endfacet
 facet normal -4.370082e-02  9.990447e-01 -9.511495e-15
   outer loop
     vertex  3.509574e-01  2.238514e-02  6.349212e-02
     vertex  3.509574e-01  2.238514e-02  3.174609e-02
     vertex  3.110233e-01  2.063832e-02  6.349212e-02
   endloop
 endfacet
 facet normal -2.324186e-01  9.726158e-01  1.112786e-14
   outer loop
     vertex  3.905433e-01  2.792891e-02  6.349212e-02
     vertex  4.294209e-01  3.721920e-02  3.174609e-02
     vertex  3.905433e-01  2.792891e-02  3.174609e-02
   endloop
 endfacet
 facet normal -1.386907e-01  9.903357e-01 -1.128062e-14
   outer loop
     vertex  3.905433e-01  2.792891e-02  6.349212e-02
     vertex  3.905433e-01  2.792891e-02  3.174609e-02
     vertex  3.509574e-01  2.238514e-02  6.349212e-02
   endloop
 endfacet
 facet normal -2.324186e-01  9.726158e-01 -1.316368e-14
   outer loop
     vertex  4.294209e-01  3.721920e-02  6.349212e-02
     vertex  4.294209e-01  3.721920e-02  3.174609e-02
     vertex  3.905433e-01  2.792891e-02  6.349212e-02
   endloop
 endfacet
 facet normal -3.240318e-01  9.460462e-01  1.032103e-14
   outer loop
     vertex  4.294209e-01  3.721920e-02  6.349212e-02
     vertex  4.672365e-01  5.017148e-02  3.174609e-02
     vertex  4.294209e-01  3.721920e-02  3.174609e-02
   endloop
 endfacet
 facet normal -3.240318e-01  9.460462e-01 -1.335963e-14
   outer loop
     vertex  4.672365e-01  5.017148e-02  6.349212e-02
     vertex  4.672365e-01  5.017148e-02  3.174609e-02
     vertex  4.294209e-01  3.721920e-02  6.349212e-02
   endloop
 endfacet
 facet normal -4.126967e-01  9.108685e-01  1.126392e-14
   outer loop
     vertex  4.672365e-01  5.017148e-02  6.349212e-02
     vertex  5.036460e-01  6.666788e-02  3.174609e-02
     vertex  4.672365e-01  5.017148e-02  3.174609e-02
   endloop
 endfacet
 facet normal -4.126967e-01  9.108685e-01 -1.190563e-14
   outer loop
     vertex  5.036460e-01  6.666788e-02  6.349212e-02
     vertex  5.036460e-01  6.666788e-02  3.174609e-02
     vertex  4.672365e-01  5.017148e-02  6.349212e-02
   endloop
 endfacet
 facet normal -4.976064e-01  8.674029e-01  1.390397e-14
   outer loop
     vertex  5.036460e-01  6.666788e-02  6.349212e-02
     vertex  5.383180e-01  8.655832e-02  3.174609e-02
     vertex  5.036460e-01  6.666788e-02  3.174609e-02
   endloop
 endfacet
 facet normal -4.976064e-01  8.674029e-01 -1.210414e-14
   outer loop
     vertex  5.383180e-01  8.655832e-02  6.349212e-02
     vertex  5.383180e-01  8.655832e-02  3.174609e-02
     vertex  5.036460e-01  6.666788e-02  6.349212e-02
   endloop
 endfacet
 facet normal -5.779885e-01  8.160449e-01  1.473471e-14
   outer loop
     vertex  5.383180e-01  8.655832e-02  6.349212e-02
     vertex  5.709371e-01  1.096618e-01  3.174609e-02
     vertex  5.383180e-01  8.655832e-02  3.174609e-02
   endloop
 endfacet
 facet normal -5.779885e-01  8.160449e-01 -1.499285e-14
   outer loop
     vertex  5.709371e-01  1.096618e-01  6.349212e-02
     vertex  5.709371e-01  1.096618e-01  3.174609e-02
     vertex  5.383180e-01  8.655832e-02  6.349212e-02
   endloop
 endfacet
 facet normal -6.531115e-01  7.572618e-01  1.303668e-14
   outer loop
     vertex  5.709371e-01  1.096618e-01  6.349212e-02
     vertex  6.012066e-01  1.357681e-01  3.174609e-02
     vertex  5.709371e-01  1.096618e-01  3.174609e-02
   endloop
 endfacet
 facet normal -6.531115e-01  7.572618e-01 -1.632605e-14
   outer loop
     vertex  6.012066e-01  1.357681e-01  6.349212e-02
     vertex  6.012066e-01  1.357681e-01  3.174609e-02
     vertex  5.709371e-01  1.096618e-01  6.349212e-02
   endloop
 endfacet
 facet normal -7.222919e-01  6.915884e-01  1.281127e-14
   outer loop
     vertex  6.012066e-01  1.357681e-01  6.349212e-02
     vertex  6.288509e-01  1.646397e-01  3.174609e-02
     vertex  6.012066e-01  1.357681e-01  3.174609e-02
   endloop
 endfacet
 facet normal -7.222919e-01  6.915884e-01 -1.664174e-14
   outer loop
     vertex  6.288509e-01  1.646397e-01  6.349212e-02
     vertex  6.288509e-01  1.646397e-01  3.174609e-02
     vertex  6.012066e-01  1.357681e-01  6.349212e-02
   endloop
 endfacet
 facet normal -7.849002e-01  6.196223e-01  1.351663e-14
   outer loop
     vertex  6.288509e-01  1.646397e-01  6.349212e-02
     vertex  6.536186e-01  1.960140e-01  3.174609e-02
     vertex  6.288509e-01  1.646397e-01  3.174609e-02
   endloop
 endfacet
 facet normal -7.849002e-01  6.196223e-01 -1.700196e-14
   outer loop
     vertex  6.536186e-01  1.960140e-01  6.349212e-02
     vertex  6.536186e-01  1.960140e-01  3.174609e-02
     vertex  6.288509e-01  1.646397e-01  6.349212e-02
   endloop
 endfacet
 facet normal -8.403667e-01  5.420182e-01  1.416686e-14
   outer loop
     vertex  6.536186e-01  1.960140e-01  6.349212e-02
     vertex  6.752842e-01  2.296053e-01  3.174609e-02
     vertex  6.536186e-01  1.960140e-01  3.174609e-02
   endloop
 endfacet
 facet normal -8.403667e-01  5.420182e-01 -1.768335e-14
   outer loop
     vertex  6.752842e-01  2.296053e-01  6.349212e-02
     vertex  6.752842e-01  2.296053e-01  3.174609e-02
     vertex  6.536186e-01  1.960140e-01  6.349212e-02
   endloop
 endfacet
 facet normal -8.881868e-01  4.594825e-01  1.451798e-14
   outer loop
     vertex  6.752842e-01  2.296053e-01  6.349212e-02
     vertex  6.936508e-01  2.651081e-01  3.174609e-02
     vertex  6.752842e-01  2.296053e-01  3.174609e-02
   endloop
 endfacet
 facet normal -8.881868e-01  4.594825e-01 -1.164082e-13
   outer loop
     vertex  6.936508e-01  2.651081e-01  6.349212e-02
     vertex  6.936508e-01  2.651081e-01  3.174609e-02
     vertex  6.752842e-01  2.296053e-01  6.349212e-02
   endloop
 endfacet
 facet normal  0.000000e+00  0.000000e+00  1.000000e+00
   outer loop
     vertex  6.012066e-01  1.357681e-01  3.174609e-02
     vertex  5.383180e-01  8.655832e-02  3.174609e-02
     vertex  5.709371e-01  1.096618e-01  3.174609e-02
   endloop
 endfacet
 facet normal  0.000000e+00  0.000000e+00  1.000000e+00
   outer loop
     vertex  6.288509e-01  1.646397e-01  3.174609e-02
     vertex  5.383180e-01  8.655832e-02  3.174609e-02
     vertex  6.012066e-01  1.357681e-01  3.174609e-02
   endloop
 endfacet
 facet normal  0.000000e+00  0.000000e+00  1.000000e+00
   outer loop
     vertex  1.187749e-01  8.111588e-01  3.174609e-02
     vertex  8.426300e-02  7.909918e-01  3.174609e-02
     vertex  5.182961e-02  7.676283e-01  3.174609e-02
   endloop
 endfacet
 facet normal  0.000000e+00  0.000000e+00  1.000000e+00
   outer loop
     vertex  6.936508e-01  2.651081e-01  3.174609e-02
     vertex -5.642761e-03  1.671761e-01  3.174609e-02
     vertex  2.176986e-02  1.380844e-01  3.174609e-02
   endloop
 endfacet
 facet normal  0.000000e+00  0.000000e+00  1.000000e+00
   outer loop
     vertex  6.936508e-01  2.651081e-01  3.174609e-02
     vertex  2.176986e-02  1.380844e-01  3.174609e-02
     vertex  5.182961e-02  1.117369e-01  3.174609e-02
   endloop
 endfacet
 facet normal  0.000000e+00  0.000000e+00  1.000000e+00
   outer loop
     vertex  6.936508e-01  2.651081e-01  3.174609e-02
     vertex  5.182961e-02  1.117369e-01  3.174609e-02
     vertex  8.426300e-02  8.837341e-02  3.174609e-02
   endloop
 endfacet
 facet normal  0.000000e+00  0.000000e+00  1.000000e+00
   outer loop
     vertex  6.936508e-01  2.651081e-01  3.174609e-02
     vertex  8.426300e-02  8.837341e-02  3.174609e-02
     vertex  1.187749e-01  6.820641e-02  3.174609e-02
   endloop
 endfacet
 facet normal  0.000000e+00  0.000000e+00  1.000000e+00
   outer loop
     vertex  6.936508e-01  2.651081e-01  3.174609e-02
     vertex  1.187749e-01  6.820641e-02  3.174609e-02
     vertex  1.550513e-01  5.141944e-02  3.174609e-02
   endloop
 endfacet
 facet normal  0.000000e+00  0.000000e+00  1.000000e+00
   outer loop
     vertex  6.936508e-01  2.651081e-01  3.174609e-02
     vertex  1.550513e-01  5.141944e-02  3.174609e-02
     vertex  1.927621e-01  3.816525e-02  3.174609e-02
   endloop
 endfacet
 facet normal  0.000000e+00  0.000000e+00  1.000000e+00
   outer loop
     vertex  6.936508e-01  2.651081e-01  3.174609e-02
     vertex  1.927621e-01  3.816525e-02  3.174609e-02
     vertex  2.315642e-01  2.856444e-02  3.174609e-02
   endloop
 endfacet
 facet normal  0.000000e+00  0.000000e+00  1.000000e+00
   outer loop
     vertex  6.936508e-01  2.651081e-01  3.174609e-02
     vertex  2.315642e-01  2.856444e-02  3.174609e-02
     vertex  2.711045e-01  2.270435e-02  3.174609e-02
   endloop
 endfacet
 facet normal  0.000000e+00  0.000000e+00  1.000000e+00
   outer loop
     vertex  6.936508e-01  2.651081e-01  3.174609e-02
     vertex  2.711045e-01  2.270435e-02  3.174609e-02
     vertex  3.110233e-01  2.063832e-02  3.174609e-02
   endloop
 endfacet
 facet normal  0.000000e+00  0.000000e+00  1.000000e+00
   outer loop
     vertex  6.936508e-01  2.651081e-01  3.174609e-02
     vertex  3.110233e-01  2.063832e-02  3.174609e-02
     vertex  3.509574e-01  2.238514e-02  3.174609e-02
   endloop
 endfacet
 facet normal  0.000000e+00  0.000000e+00  1.000000e+00
   outer loop
     vertex  6.936508e-01  2.651081e-01  3.174609e-02
     vertex  3.509574e-01  2.238514e-02  3.174609e-02
     vertex  3.905433e-01  2.792891e-02  3.174609e-02
   endloop
 endfacet
 facet normal  0.000000e+00  0.000000e+00  1.000000e+00
   outer loop
     vertex  6.936508e-01  2.651081e-01  3.174609e-02
     vertex  3.905433e-01  2.792891e-02  3.174609e-02
     vertex  4.294209e-01  3.721920e-02  3.174609e-02
   endloop
 endfacet
 facet normal  0.000000e+00  0.000000e+00  1.000000e+00
   outer loop
     vertex  6.936508e-01  2.651081e-01  3.174609e-02
     vertex  4.294209e-01  3.721920e-02  3.174609e-02
     vertex  4.672365e-01  5.017148e-02  3.174609e-02
   endloop
 endfacet
 facet normal  0.000000e+00  0.000000e+00  1.000000e+00
   outer loop
     vertex  6.936508e-01  2.651081e-01  3.174609e-02
     vertex  4.672365e-01  5.017148e-02  3.174609e-02
     vertex  5.036460e-01  6.666788e-02  3.174609e-02
   endloop
 endfacet
 facet normal  0.000000e+00  0.000000e+00  1.000000e+00
   outer loop
     vertex  6.936508e-01  2.651081e-01  3.174609e-02
     vertex  5.036460e-01  6.666788e-02  3.174609e-02
     vertex  5.383180e-01  8.655832e-02  3.174609e-02
   endloop
 endfacet
 facet normal  0.000000e+00  0.000000e+00  1.000000e+00
   outer loop
     vertex  6.936508e-01  2.651081e-01  3.174609e-02
     vertex  6.288509e-01  1.646397e-01  3.174609e-02
     vertex  6.536186e-01  1.960140e-01  3.174609e-02
   endloop
 endfacet
 facet normal  0.000000e+00  0.000000e+00  1.000000e+00
   outer loop
     vertex  6.936508e-01  2.651081e-01  3.174609e-02
     vertex  6.536186e-01  1.960140e-01  3.174609e-02
     vertex  6.752842e-01  2.296053e-01  3.174609e-02
   endloop
 endfacet
 facet normal  0.000000e+00  0.000000e+00  1.000000e+00
   outer loop
     vertex  6.936508e-01  2.651081e-01  3.174609e-02
     vertex  5.383180e-01  8.655832e-02  3.174609e-02
     vertex  6.288509e-01  1.646397e-01  3.174609e-02
   endloop
 endfacet
 facet normal  0.000000e+00  0.000000e+00  1.000000e+00
   outer loop
     vertex  2.315642e-01  8.508008e-01  3.174609e-02
     vertex  1.927621e-01  8.411999e-01  3.174609e-02
     vertex  1.550513e-01  8.279458e-01  3.174609e-02
   endloop
 endfacet
 facet normal  0.000000e+00  0.000000e+00  1.000000e+00
   outer loop
     vertex  3.110233e-01  8.587269e-01  3.174609e-02
     vertex  2.711045e-01  8.566609e-01  3.174609e-02
     vertex  2.315642e-01  8.508008e-01  3.174609e-02
   endloop
 endfacet
 facet normal  0.000000e+00  0.000000e+00  1.000000e+00
   outer loop
     vertex  4.672365e-01  8.291937e-01  3.174609e-02
     vertex  4.294209e-01  8.421460e-01  3.174609e-02
     vertex  3.905433e-01  8.514363e-01  3.174609e-02
   endloop
 endfacet
 facet normal  0.000000e+00  0.000000e+00  1.000000e+00
   outer loop
     vertex  5.036460e-01  8.126973e-01  3.174609e-02
     vertex  4.672365e-01  8.291937e-01  3.174609e-02
     vertex  3.905433e-01  8.514363e-01  3.174609e-02
   endloop
 endfacet
 facet normal  0.000000e+00  0.000000e+00  1.000000e+00
   outer loop
     vertex  5.709371e-01  7.697034e-01  3.174609e-02
     vertex  5.383180e-01  7.928069e-01  3.174609e-02
     vertex  5.036460e-01  8.126973e-01  3.174609e-02
   endloop
 endfacet
 facet normal  0.000000e+00  0.000000e+00  1.000000e+00
   outer loop
     vertex  6.012066e-01  7.435971e-01  3.174609e-02
     vertex  6.936508e-01  2.651081e-01  3.174609e-02
     vertex  6.936508e-01  6.142571e-01  3.174609e-02
   endloop
 endfacet
 facet normal  0.000000e+00  0.000000e+00  1.000000e+00
   outer loop
     vertex  6.012066e-01  7.435971e-01  3.174609e-02
     vertex  6.936508e-01  6.142571e-01  3.174609e-02
     vertex  6.752842e-01  6.497599e-01  3.174609e-02
   endloop
 endfacet
 facet normal  0.000000e+00  0.000000e+00  1.000000e+00
   outer loop
     vertex  6.012066e-01  7.435971e-01  3.174609e-02
     vertex  6.752842e-01  6.497599e-01  3.174609e-02
     vertex  6.536186e-01  6.833512e-01  3.174609e-02
   endloop
 endfacet
 facet normal  0.000000e+00  0.000000e+00  1.000000e+00
   outer loop
     vertex  6.012066e-01  7.435971e-01  3.174609e-02
     vertex  6.536186e-01  6.833512e-01  3.174609e-02
     vertex  6.288509e-01  7.147255e-01  3.174609e-02
   endloop
 endfacet
 facet normal  0.000000e+00  0.000000e+00  1.000000e+00
   outer loop
     vertex  6.012066e-01  7.435971e-01  3.174609e-02
     vertex  5.036460e-01  8.126973e-01  3.174609e-02
     vertex  3.905433e-01  8.514363e-01  3.174609e-02
   endloop
 endfacet
 facet normal  0.000000e+00  0.000000e+00  1.000000e+00
   outer loop
     vertex  6.012066e-01  7.435971e-01  3.174609e-02
     vertex  2.315642e-01  8.508008e-01  3.174609e-02
     vertex  1.550513e-01  8.279458e-01  3.174609e-02
   endloop
 endfacet
 facet normal  0.000000e+00  0.000000e+00  1.000000e+00
   outer loop
     vertex  6.012066e-01  7.435971e-01  3.174609e-02
     vertex  3.905433e-01  8.514363e-01  3.174609e-02
     vertex  3.509574e-01  8.569801e-01  3.174609e-02
   endloop
 endfacet
 facet normal  0.000000e+00  0.000000e+00  1.000000e+00
   outer loop
     vertex  6.012066e-01  7.435971e-01  3.174609e-02
     vertex  3.509574e-01  8.569801e-01  3.174609e-02
     vertex  3.110233e-01  8.587269e-01  3.174609e-02
   endloop
 endfacet
 facet normal  0.000000e+00  0.000000e+00  1.000000e+00
   outer loop
     vertex  6.012066e-01  7.435971e-01  3.174609e-02
     vertex  3.110233e-01  8.587269e-01  3.174609e-02
     vertex  2.315642e-01  8.508008e-01  3.174609e-02
   endloop
 endfacet
 facet normal  0.000000e+00  0.000000e+00  1.000000e+00
   outer loop
     vertex  6.012066e-01  7.435971e-01  3.174609e-02
     vertex  1.550513e-01  8.279458e-01  3.174609e-02
     vertex  1.187749e-01  8.111588e-01  3.174609e-02
   endloop
 endfacet
 facet normal  0.000000e+00  0.000000e+00  1.000000e+00
   outer loop
     vertex  6.012066e-01  7.435971e-01  3.174609e-02
     vertex  5.182961e-02  7.676283e-01  3.174609e-02
     vertex  2.176986e-02  7.412808e-01  3.174609e-02
   endloop
 endfacet
 facet normal  0.000000e+00  0.000000e+00  1.000000e+00
   outer loop
     vertex  6.012066e-01  7.435971e-01  3.174609e-02
     vertex  2.176986e-02  7.412808e-01  3.174609e-02
     vertex -5.642761e-03  7.121891e-01  3.174609e-02
   endloop
 endfacet
 facet normal  0.000000e+00  0.000000e+00  1.000000e+00
   outer loop
     vertex  6.012066e-01  7.435971e-01  3.174609e-02
     vertex -5.642761e-03  7.121891e-01  3.174609e-02
     vertex -3.015882e-02  6.806178e-01  3.174609e-02
   endloop
 endfacet
 facet normal  0.000000e+00  0.000000e+00  1.000000e+00
   outer loop
     vertex  6.012066e-01  7.435971e-01  3.174609e-02
     vertex -3.015882e-02  6.806178e-01  3.174609e-02
     vertex -3.015882e-02  1.987474e-01  3.174609e-02
   endloop
 endfacet
 facet normal  0.000000e+00  0.000000e+00  1.000000e+00
   outer loop
     vertex  6.012066e-01  7.435971e-01  3.174609e-02
     vertex -3.015882e-02  1.987474e-01  3.174609e-02
     vertex -5.642761e-03  1.671761e-01  3.174609e-02
   endloop
 endfacet
 facet normal  0.000000e+00  0.000000e+00  1.000000e+00
   outer loop
     vertex  6.012066e-01  7.435971e-01  3.174609e-02
     vertex  5.709371e-01  7.697034e-01  3.174609e-02
     vertex  5.036460e-01  8.126973e-01  3.174609e-02
   endloop
 endfacet
 facet normal  0.000000e+00  0.000000e+00  1.000000e+00
   outer loop
     vertex  6.012066e-01  7.435971e-01  3.174609e-02
     vertex -5.642761e-03  1.671761e-01  3.174609e-02
     vertex  6.936508e-01  2.651081e-01  3.174609e-02
   endloop
 endfacet
 facet normal  0.000000e+00  0.000000e+00  1.000000e+00
   outer loop
     vertex  6.012066e-01  7.435971e-01  3.174609e-02
     vertex  1.187749e-01  8.111588e-01  3.174609e-02
     vertex  5.182961e-02  7.676283e-01  3.174609e-02
   endloop
 endfacet
 facet normal -8.881868e-01 -4.594825e-01 -1.190183e-13
   outer loop
     vertex  6.752842e-01  6.497599e-01  6.349212e-02
     vertex  6.936508e-01  6.142571e-01  3.174609e-02
     vertex  6.936508e-01  6.142571e-01  6.349212e-02
   endloop
 endfacet
 facet normal -8.881868e-01 -4.594825e-01  2.342711e-14
   outer loop
     vertex  6.752842e-01  6.497599e-01  6.349212e-02
     vertex  6.752842e-01  6.497599e-01  3.174609e-02
     vertex  6.936508e-01  6.142571e-01  3.174609e-02
   endloop
 endfacet
 facet normal -8.403667e-01 -5.420182e-01  2.119623e-14
   outer loop
     vertex  6.536186e-01  6.833512e-01  6.349212e-02
     vertex  6.536186e-01  6.833512e-01  3.174609e-02
     vertex  6.752842e-01  6.497599e-01  3.174609e-02
   endloop
 endfacet
 facet normal -8.403667e-01 -5.420182e-01 -2.024934e-14
   outer loop
     vertex  6.536186e-01  6.833512e-01  6.349212e-02
     vertex  6.752842e-01  6.497599e-01  3.174609e-02
     vertex  6.752842e-01  6.497599e-01  6.349212e-02
   endloop
 endfacet
 facet normal -7.849002e-01 -6.196223e-01  1.908147e-14
   outer loop
     vertex  6.288509e-01  7.147255e-01  6.349212e-02
     vertex  6.288509e-01  7.147255e-01  3.174609e-02
     vertex  6.536186e-01  6.833512e-01  3.174609e-02
   endloop
 endfacet
 facet normal -7.849002e-01 -6.196223e-01 -2.067654e-14
   outer loop
     vertex  6.288509e-01  7.147255e-01  6.349212e-02
     vertex  6.536186e-01  6.833512e-01  3.174609e-02
     vertex  6.536186e-01  6.833512e-01  6.349212e-02
   endloop
 endfacet
 facet normal -7.222919e-01 -6.915884e-01  1.616810e-14
   outer loop
     vertex  6.012066e-01  7.435971e-01  6.349212e-02
     vertex  6.012066e-01  7.435971e-01  3.174609e-02
     vertex  6.288509e-01  7.147255e-01  3.174609e-02
   endloop
 endfacet
 facet normal -7.222919e-01 -6.915884e-01 -2.059110e-14
   outer loop
     vertex  6.012066e-01  7.435971e-01  6.349212e-02
     vertex  6.288509e-01  7.147255e-01  3.174609e-02
     vertex  6.288509e-01  7.147255e-01  6.349212e-02
   endloop
 endfacet
 facet normal -6.531115e-01 -7.572618e-01  1.634517e-14
   outer loop
     vertex  5.709371e-01  7.697034e-01  6.349212e-02
     vertex  5.709371e-01  7.697034e-01  3.174609e-02
     vertex  6.012066e-01  7.435971e-01  3.174609e-02
   endloop
 endfacet
 facet normal -6.531115e-01 -7.572618e-01 -2.229990e-14
   outer loop
     vertex  5.709371e-01  7.697034e-01  6.349212e-02
     vertex  6.012066e-01  7.435971e-01  3.174609e-02
     vertex  6.012066e-01  7.435971e-01  6.349212e-02
   endloop
 endfacet
 facet normal -5.779885e-01 -8.160449e-01  1.806120e-14
   outer loop
     vertex  5.383180e-01  7.928069e-01  6.349212e-02
     vertex  5.383180e-01  7.928069e-01  3.174609e-02
     vertex  5.709371e-01  7.697034e-01  3.174609e-02
   endloop
 endfacet
 facet normal -5.779885e-01 -8.160449e-01 -2.024934e-14
   outer loop
     vertex  5.383180e-01  7.928069e-01  6.349212e-02
     vertex  5.709371e-01  7.697034e-01  3.174609e-02
     vertex  5.709371e-01  7.697034e-01  6.349212e-02
   endloop
 endfacet
 facet normal -4.976064e-01 -8.674029e-01  1.534025e-14
   outer loop
     vertex  5.036460e-01  8.126973e-01  6.349212e-02
     vertex  5.036460e-01  8.126973e-01  3.174609e-02
     vertex  5.383180e-01  7.928069e-01  3.174609e-02
   endloop
 endfacet
 facet normal -4.976064e-01 -8.674029e-01 -1.674629e-14
   outer loop
     vertex  5.036460e-01  8.126973e-01  6.349212e-02
     vertex  5.383180e-01  7.928069e-01  3.174609e-02
     vertex  5.383180e-01  7.928069e-01  6.349212e-02
   endloop
 endfacet
 facet normal -4.126967e-01 -9.108685e-01  1.551677e-14
   outer loop
     vertex  4.672365e-01  8.291937e-01  6.349212e-02
     vertex  4.672365e-01  8.291937e-01  3.174609e-02
     vertex  5.036460e-01  8.126973e-01  3.174609e-02
   endloop
 endfacet
 facet normal -4.126967e-01 -9.108685e-01 -1.802789e-14
   outer loop
     vertex  4.672365e-01  8.291937e-01  6.349212e-02
     vertex  5.036460e-01  8.126973e-01  3.174609e-02
     vertex  5.036460e-01  8.126973e-01  6.349212e-02
   endloop
 endfacet
 facet normal -3.240318e-01 -9.460462e-01  1.474274e-14
   outer loop
     vertex  4.294209e-01  8.421460e-01  6.349212e-02
     vertex  4.294209e-01  8.421460e-01  3.174609e-02
     vertex  4.672365e-01  8.291937e-01  3.174609e-02
   endloop
 endfacet
 facet normal -3.240318e-01 -9.460462e-01 -1.606277e-14
   outer loop
     vertex  4.294209e-01  8.421460e-01  6.349212e-02
     vertex  4.672365e-01  8.291937e-01  3.174609e-02
     vertex  4.672365e-01  8.291937e-01  6.349212e-02
   endloop
 endfacet
 facet normal -2.324186e-01 -9.726158e-01  1.304070e-14
   outer loop
     vertex  3.905433e-01  8.514363e-01  6.349212e-02
     vertex  3.905433e-01  8.514363e-01  3.174609e-02
     vertex  4.294209e-01  8.421460e-01  3.174609e-02
   endloop
 endfacet
 facet normal -2.324186e-01 -9.726158e-01 -1.512292e-14
   outer loop
     vertex  3.905433e-01  8.514363e-01  6.349212e-02
     vertex  4.294209e-01  8.421460e-01  3.174609e-02
     vertex  4.294209e-01  8.421460e-01  6.349212e-02
   endloop
 endfacet
 facet normal -1.386907e-01 -9.903357e-01  1.085260e-14
   outer loop
     vertex  3.509574e-01  8.569801e-01  6.349212e-02
     vertex  3.509574e-01  8.569801e-01  3.174609e-02
     vertex  3.905433e-01  8.514363e-01  3.174609e-02
   endloop
 endfacet
 facet normal -1.386907e-01 -9.903357e-01 -1.516564e-14
   outer loop
     vertex  3.509574e-01  8.569801e-01  6.349212e-02
     vertex  3.905433e-01  8.514363e-01  3.174609e-02
     vertex  3.905433e-01  8.514363e-01  6.349212e-02
   endloop
 endfacet
 facet normal -4.370082e-02 -9.990447e-01  1.146230e-14
   outer loop
     vertex  3.110233e-01  8.587269e-01  6.349212e-02
     vertex  3.110233e-01  8.587269e-01  3.174609e-02
     vertex  3.509574e-01  8.569801e-01  3.174609e-02
   endloop
 endfacet
 facet normal -4.370082e-02 -9.990447e-01 -1.579577e-14
   outer loop
     vertex  3.110233e-01  8.587269e-01  6.349212e-02
     vertex  3.509574e-01  8.569801e-01  3.174609e-02
     vertex  3.509574e-01  8.569801e-01  6.349212e-02
   endloop
 endfacet
 facet normal  5.168669e-02 -9.986633e-01 -1.355296e-14
   outer loop
     vertex  2.711045e-01  8.566609e-01  6.349212e-02
     vertex  3.110233e-01  8.587269e-01  3.174609e-02
     vertex  3.110233e-01  8.587269e-01  6.349212e-02
   endloop
 endfacet
 facet normal  5.168669e-02 -9.986633e-01  8.392431e-15
   outer loop
     vertex  2.711045e-01  8.566609e-01  6.349212e-02
     vertex  2.711045e-01  8.566609e-01  3.174609e-02
     vertex  3.110233e-01  8.587269e-01  3.174609e-02
   endloop
 endfacet
 facet normal  1.466039e-01 -9.891953e-01 -1.486660e-14
   outer loop
     vertex  2.315642e-01  8.508008e-01  6.349212e-02
     vertex  2.711045e-01  8.566609e-01  3.174609e-02
     vertex  2.711045e-01  8.566609e-01  6.349212e-02
   endloop
 endfacet
 facet normal  1.466039e-01 -9.891953e-01  9.084496e-15
   outer loop
     vertex  2.315642e-01  8.508008e-01  6.349212e-02
     vertex  2.315642e-01  8.508008e-01  3.174609e-02
     vertex  2.711045e-01  8.566609e-01  3.174609e-02
   endloop
 endfacet
 facet normal  2.401872e-01 -9.707266e-01 -1.238884e-14
   outer loop
     vertex  1.927621e-01  8.411999e-01  6.349212e-02
     vertex  2.315642e-01  8.508008e-01  3.174609e-02
     vertex  2.315642e-01  8.508008e-01  6.349212e-02
   endloop
 endfacet
 facet normal  2.401872e-01 -9.707266e-01  6.438197e-15
   outer loop
     vertex  1.927621e-01  8.411999e-01  6.349212e-02
     vertex  1.927621e-01  8.411999e-01  3.174609e-02
     vertex  2.315642e-01  8.508008e-01  3.174609e-02
   endloop
 endfacet
 facet normal  3.315850e-01 -9.434253e-01 -1.332868e-14
   outer loop
     vertex  1.550513e-01  8.279458e-01  6.349212e-02
     vertex  1.927621e-01  8.411999e-01  3.174609e-02
     vertex  1.927621e-01  8.411999e-01  6.349212e-02
   endloop
 endfacet
 facet normal  3.315850e-01 -9.434253e-01  1.101544e-14
   outer loop
     vertex  1.550513e-01  8.279458e-01  6.349212e-02
     vertex  1.550513e-01  8.279458e-01  3.174609e-02
     vertex  1.927621e-01  8.411999e-01  3.174609e-02
   endloop
 endfacet
 facet normal  4.199658e-01 -9.075399e-01 -7.176981e-15
   outer loop
     vertex  1.187749e-01  8.111588e-01  6.349212e-02
     vertex  1.550513e-01  8.279458e-01  3.174609e-02
     vertex  1.550513e-01  8.279458e-01  6.349212e-02
   endloop
 endfacet
 facet normal  4.199658e-01 -9.075399e-01  7.641184e-15
   outer loop
     vertex  1.187749e-01  8.111588e-01  6.349212e-02
     vertex  1.187749e-01  8.111588e-01  3.174609e-02
     vertex  1.550513e-01  8.279458e-01  3.174609e-02
   endloop
 endfacet
 facet normal  5.045253e-01 -8.633969e-01 -9.056666e-15
   outer loop
     vertex  8.426300e-02  7.909918e-01  6.349212e-02
     vertex  1.187749e-01  8.111588e-01  3.174609e-02
     vertex  1.187749e-01  8.111588e-01  6.349212e-02
   endloop
 endfacet
 facet normal  5.045253e-01 -8.633969e-01  8.879720e-15
   outer loop
     vertex  8.426300e-02  7.909918e-01  6.349212e-02
     vertex  8.426300e-02  7.909918e-01  3.174609e-02
     vertex  1.187749e-01  8.111588e-01  3.174609e-02
   endloop
 endfacet
 facet normal  5.844942e-01 -8.113979e-01 -6.237138e-15
   outer loop
     vertex  5.182961e-02  7.676283e-01  6.349212e-02
     vertex  8.426300e-02  7.909918e-01  3.174609e-02
     vertex  8.426300e-02  7.909918e-01  6.349212e-02
   endloop
 endfacet
 facet normal  5.844942e-01 -8.113979e-01  3.713966e-15
   outer loop
     vertex  5.182961e-02  7.676283e-01  6.349212e-02
     vertex  5.182961e-02  7.676283e-01  3.174609e-02
     vertex  8.426300e-02  7.909918e-01  3.174609e-02
   endloop
 endfacet
 facet normal  6.591448e-01 -7.520160e-01 -9.483867e-15
   outer loop
     vertex  2.176986e-02  7.412808e-01  6.349212e-02
     vertex  5.182961e-02  7.676283e-01  3.174609e-02
     vertex  5.182961e-02  7.676283e-01  6.349212e-02
   endloop
 endfacet
 facet normal  6.591448e-01 -7.520160e-01  5.489782e-15
   outer loop
     vertex  2.176986e-02  7.412808e-01  6.349212e-02
     vertex  2.176986e-02  7.412808e-01  3.174609e-02
     vertex  5.182961e-02  7.676283e-01  3.174609e-02
   endloop
 endfacet
 facet normal  7.277979e-01 -6.857916e-01 -6.066257e-15
   outer loop
     vertex -5.642761e-03  7.121891e-01  6.349212e-02
     vertex  2.176986e-02  7.412808e-01  3.174609e-02
     vertex  2.176986e-02  7.412808e-01  6.349212e-02
   endloop
 endfacet
 facet normal  7.277979e-01 -6.857916e-01  4.256964e-15
   outer loop
     vertex -5.642761e-03  7.121891e-01  6.349212e-02
     vertex -5.642761e-03  7.121891e-01  3.174609e-02
     vertex  2.176986e-02  7.412808e-01  3.174609e-02
   endloop
 endfacet
 facet normal  7.898289e-01 -6.133273e-01 -5.895377e-15
   outer loop
     vertex -3.015882e-02  6.806178e-01  6.349212e-02
     vertex -5.642761e-03  7.121891e-01  3.174609e-02
     vertex -5.642761e-03  7.121891e-01  6.349212e-02
   endloop
 endfacet
 facet normal  7.898289e-01 -6.133273e-01  2.948013e-14
   outer loop
     vertex -3.015882e-02  6.806178e-01  6.349212e-02
     vertex -3.015882e-02  6.806178e-01  3.174609e-02
     vertex -5.642761e-03  7.121891e-01  3.174609e-02
   endloop
 endfacet
 facet normal  0.000000e+00  0.000000e+00  1.000000e+00
   outer loop
     vertex -3.015882e-02  9.222222e-01  6.349212e-02
     vertex  5.182961e-02  7.676283e-01  6.349212e-02
     vertex  8.426300e-02  7.909918e-01  6.349212e-02
   endloop
 endfacet
 facet normal  0.000000e+00  0.000000e+00  1.000000e+00
   outer loop
     vertex -3.015882e-02  9.222222e-01  6.349212e-02
     vertex  2.176986e-02  7.412808e-01  6.349212e-02
     vertex  5.182961e-02  7.676283e-01  6.349212e-02
   endloop
 endfacet
 facet normal  0.000000e+00  0.000000e+00  1.000000e+00
   outer loop
     vertex -3.015882e-02  9.222222e-01  6.349212e-02
     vertex -5.642761e-03  7.121891e-01  6.349212e-02
     vertex  2.176986e-02  7.412808e-01  6.349212e-02
   endloop
 endfacet
 facet normal  0.000000e+00  0.000000e+00  1.000000e+00
   outer loop
     vertex -3.015882e-02  9.222222e-01  6.349212e-02
     vertex -3.015882e-02  6.806178e-01  6.349212e-02
     vertex -5.642761e-03  7.121891e-01  6.349212e-02
   endloop
 endfacet
 facet normal  0.000000e+00  0.000000e+00  1.000000e+00
   outer loop
     vertex  1.187749e-01  8.111588e-01  6.349212e-02
     vertex -3.015882e-02  9.222222e-01  6.349212e-02
     vertex  8.426300e-02  7.909918e-01  6.349212e-02
   endloop
 endfacet
 facet normal  0.000000e+00  0.000000e+00  1.000000e+00
   outer loop
     vertex  1.550513e-01  8.279458e-01  6.349212e-02
     vertex -3.015882e-02  9.222222e-01  6.349212e-02
     vertex  1.187749e-01  8.111588e-01  6.349212e-02
   endloop
 endfacet
 facet normal  0.000000e+00  0.000000e+00  1.000000e+00
   outer loop
     vertex  1.927621e-01  8.411999e-01  6.349212e-02
     vertex -3.015882e-02  9.222222e-01  6.349212e-02
     vertex  1.550513e-01  8.279458e-01  6.349212e-02
   endloop
 endfacet
 facet normal  0.000000e+00  0.000000e+00  1.000000e+00
   outer loop
     vertex  2.315642e-01  8.508008e-01  6.349212e-02
     vertex -3.015882e-02  9.222222e-01  6.349212e-02
     vertex  1.927621e-01  8.411999e-01  6.349212e-02
   endloop
 endfacet
 facet normal  0.000000e+00  0.000000e+00  1.000000e+00
   outer loop
     vertex  2.711045e-01  8.566609e-01  6.349212e-02
     vertex -3.015882e-02  9.222222e-01  6.349212e-02
     vertex  2.315642e-01  8.508008e-01  6.349212e-02
   endloop
 endfacet
 facet normal  0.000000e+00  0.000000e+00  1.000000e+00
   outer loop
     vertex  6.936508e-01  9.222222e-01  6.349212e-02
     vertex  6.752842e-01  6.497599e-01  6.349212e-02
     vertex  6.936508e-01  6.142571e-01  6.349212e-02
   endloop
 endfacet
 facet normal  0.000000e+00  0.000000e+00  1.000000e+00
   outer loop
     vertex  6.936508e-01  9.222222e-01  6.349212e-02
     vertex  6.536186e-01  6.833512e-01  6.349212e-02
     vertex  6.752842e-01  6.497599e-01  6.349212e-02
   endloop
 endfacet
 facet normal  0.000000e+00  0.000000e+00  1.000000e+00
   outer loop
     vertex  6.936508e-01  9.222222e-01  6.349212e-02
     vertex  6.288509e-01  7.147255e-01  6.349212e-02
     vertex  6.536186e-01  6.833512e-01  6.349212e-02
   endloop
 endfacet
 facet normal  0.000000e+00  0.000000e+00  1.000000e+00
   outer loop
     vertex  6.936508e-01  9.222222e-01  6.349212e-02
     vertex  6.012066e-01  7.435971e-01  6.349212e-02
     vertex  6.288509e-01  7.147255e-01  6.349212e-02
   endloop
 endfacet
 facet normal  0.000000e+00  0.000000e+00  1.000000e+00
   outer loop
     vertex  6.936508e-01  9.222222e-01  6.349212e-02
     vertex  5.709371e-01  7.697034e-01  6.349212e-02
     vertex  6.012066e-01  7.435971e-01  6.349212e-02
   endloop
 endfacet
 facet normal  0.000000e+00  0.000000e+00  1.000000e+00
   outer loop
     vertex  6.936508e-01  9.222222e-01  6.349212e-02
     vertex  5.383180e-01  7.928069e-01  6.349212e-02
     vertex  5.709371e-01  7.697034e-01  6.349212e-02
   endloop
 endfacet
 facet normal  0.000000e+00  0.000000e+00  1.000000e+00
   outer loop
     vertex  6.936508e-01  9.222222e-01  6.349212e-02
     vertex  5.036460e-01  8.126973e-01  6.349212e-02
     vertex  5.383180e-01  7.928069e-01  6.349212e-02
   endloop
 endfacet
 facet normal  0.000000e+00  0.000000e+00  1.000000e+00
   outer loop
     vertex  6.936508e-01  9.222222e-01  6.349212e-02
     vertex  4.672365e-01  8.291937e-01  6.349212e-02
     vertex  5.036460e-01  8.126973e-01  6.349212e-02
   endloop
 endfacet
 facet normal  0.000000e+00  0.000000e+00  1.000000e+00
   outer loop
     vertex  6.936508e-01  9.222222e-01  6.349212e-02
     vertex  4.294209e-01  8.421460e-01  6.349212e-02
     vertex  4.672365e-01  8.291937e-01  6.349212e-02
   endloop
 endfacet
 facet normal  0.000000e+00  0.000000e+00  1.000000e+00
   outer loop
     vertex  6.936508e-01  9.222222e-01  6.349212e-02
     vertex  3.905433e-01  8.514363e-01  6.349212e-02
     vertex  4.294209e-01  8.421460e-01  6.349212e-02
   endloop
 endfacet
 facet normal  0.000000e+00  0.000000e+00  1.000000e+00
   outer loop
     vertex  6.936508e-01  9.222222e-01  6.349212e-02
     vertex -3.015882e-02  9.222222e-01  6.349212e-02
     vertex  3.110233e-01  8.587269e-01  6.349212e-02
   endloop
 endfacet
 facet normal  0.000000e+00  0.000000e+00  1.000000e+00
   outer loop
     vertex  3.110233e-01  8.587269e-01  6.349212e-02
     vertex -3.015882e-02  9.222222e-01  6.349212e-02
     vertex  2.711045e-01  8.566609e-01  6.349212e-02
   endloop
 endfacet
 facet normal  0.000000e+00  0.000000e+00  1.000000e+00
   outer loop
     vertex  6.936508e-01  9.222222e-01  6.349212e-02
     vertex  3.110233e-01  8.587269e-01  6.349212e-02
     vertex  3.509574e-01  8.569801e-01  6.349212e-02
   endloop
 endfacet
 facet normal  0.000000e+00  0.000000e+00  1.000000e+00
   outer loop
     vertex  6.936508e-01  9.222222e-01  6.349212e-02
     vertex  3.509574e-01  8.569801e-01  6.349212e-02
     vertex  3.905433e-01  8.514363e-01  6.349212e-02
   endloop
 endfacet
 facet normal  0.000000e+00  1.000000e+00  0.000000e+00
   outer loop
     vertex -3.015882e-02  9.222222e-01 -1.587302e-02
     vertex  6.936508e-01  9.222222e-01  6.349212e-02
     vertex  6.936508e-01  9.222222e-01 -1.587302e-02
   endloop
 endfacet
 facet normal  0.000000e+00  1.000000e+00  0.000000e+00
   outer loop
     vertex -3.015882e-02  9.222222e-01 -1.587302e-02
     vertex -3.015882e-02  9.222222e-01  6.349212e-02
     vertex  6.936508e-01  9.222222e-01  6.349212e-02
   endloop
 endfacet
 facet normal  1.000000e+00  0.000000e+00  0.000000e+00
   outer loop
     vertex  6.936508e-01  9.222222e-01 -1.587302e-02
     vertex  6.936508e-01 -3.015882e-02 -1.587302e-02
     vertex  6.936508e-01 -3.015882e-02 -3.174603e-02
   endloop
 endfacet
 facet normal  1.000000e+00  0.000000e+00  0.000000e+00
   outer loop
     vertex  6.936508e-01  9.222222e-01 -1.587302e-02
     vertex  6.936508e-01 -3.015882e-02 -3.174603e-02
     vertex  6.936508e-01  9.222222e-01 -3.174603e-02
   endloop
 endfacet
 facet normal  0.000000e+00 -0.000000e+00 -1.000000e+00
   outer loop
     vertex  6.936508e-01  9.222222e-01 -3.174603e-02
     vertex  6.936508e-01 -3.015882e-02 -3.174603e-02
     vertex -3.015882e-02 -3.015882e-02 -3.174603e-02
   endloop
 endfacet
 facet normal -0.000000e+00  0.000000e+00 -1.000000e+00
   outer loop
     vertex  6.936508e-01  9.222222e-01 -3.174603e-02
     vertex -3.015882e-02 -3.015882e-02 -3.174603e-02
     vertex -3.015882e-02  9.222222e-01 -3.174603e-02
   endloop
 endfacet
 facet normal -0.000000e+00  1.000000e+00  0.000000e+00
   outer loop
     vertex -3.015882e-02  9.222222e-01 -1.587302e-02
     vertex  6.936508e-01  9.222222e-01 -1.587302e-02
     vertex  6.936508e-01  9.222222e-01 -3.174603e-02
   endloop
 endfacet
 facet normal  0.000000e+00  1.000000e+00  0.000000e+00
   outer loop
     vertex -3.015882e-02  9.222222e-01 -1.587302e-02
     vertex  6.936508e-01  9.222222e-01 -3.174603e-02
     vertex -3.015882e-02  9.222222e-01 -3.174603e-02
   endloop
 endfacet
endsolid
