solid 
 facet normal  9.954719e-01  0.000000e+00  9.505604e-02
   outer loop
     vertex  4.547941e-02 -1.587302e-02 -4.063863e-02
     vertex  4.744272e-02 -1.015873e+00 -6.119926e-02
     vertex  4.744272e-02 -1.587302e-02 -6.119926e-02
   endloop
 endfacet
 facet normal  9.954719e-01  0.000000e+00  9.505604e-02
   outer loop
     vertex  4.547941e-02 -1.587302e-02 -4.063863e-02
     vertex  4.547941e-02 -1.015873e+00 -4.063863e-02
     vertex  4.744272e-02 -1.015873e+00 -6.119926e-02
   endloop
 endfacet
 facet normal  9.594930e-01  0.000000e+00  2.817326e-01
   outer loop
     vertex  3.966047e-02 -1.587302e-02 -2.082112e-02
     vertex  4.547941e-02 -1.015873e+00 -4.063863e-02
     vertex  4.547941e-02 -1.587302e-02 -4.063863e-02
   endloop
 endfacet
 facet normal  9.594930e-01  0.000000e+00  2.817326e-01
   outer loop
     vertex  3.966047e-02 -1.587302e-02 -2.082112e-02
     vertex  3.966047e-02 -1.015873e+00 -2.082112e-02
     vertex  4.547941e-02 -1.015873e+00 -4.063863e-02
   endloop
 endfacet
 facet normal  8.888354e-01  0.000000e+00  4.582265e-01
   outer loop
     vertex  3.019619e-02 -1.587302e-02 -2.462973e-03
     vertex  3.966047e-02 -1.015873e+00 -2.082112e-02
     vertex  3.966047e-02 -1.587302e-02 -2.082112e-02
   endloop
 endfacet
 facet normal  8.888354e-01  0.000000e+00  4.582265e-01
   outer loop
     vertex  3.019619e-02 -1.587302e-02 -2.462973e-03
     vertex  3.019619e-02 -1.015873e+00 -2.462973e-03
     vertex  3.966047e-02 -1.015873e+00 -2.082112e-02
   endloop
 endfacet
 facet normal  7.860531e-01  0.000000e+00  6.181590e-01
   outer loop
     vertex  1.742864e-02 -1.587302e-02  1.377229e-02
     vertex  3.019619e-02 -1.015873e+00 -2.462973e-03
     vertex  3.019619e-02 -1.587302e-02 -2.462973e-03
   endloop
 endfacet
 facet normal  7.860531e-01  0.000000e+00  6.181590e-01
   outer loop
     vertex  1.742864e-02 -1.587302e-02  1.377229e-02
     vertex  1.742864e-02 -1.015873e+00  1.377229e-02
     vertex  3.019619e-02 -1.015873e+00 -2.462973e-03
   endloop
 endfacet
 facet normal  6.548607e-01  0.000000e+00  7.557496e-01
   outer loop
     vertex  1.819269e-03 -1.587302e-02  2.729788e-02
     vertex  1.742864e-02 -1.015873e+00  1.377229e-02
     vertex  1.742864e-02 -1.587302e-02  1.377229e-02
   endloop
 endfacet
 facet normal  6.548607e-01  0.000000e+00  7.557496e-01
   outer loop
     vertex  1.819269e-03 -1.587302e-02  2.729788e-02
     vertex  1.819269e-03 -1.015873e+00  2.729788e-02
     vertex  1.742864e-02 -1.015873e+00  1.377229e-02
   endloop
 endfacet
 facet normal  5.000000e-01  0.000000e+00  8.660254e-01
   outer loop
     vertex -1.606775e-02 -1.587302e-02  3.762496e-02
     vertex  1.819269e-03 -1.015873e+00  2.729788e-02
     vertex  1.819269e-03 -1.587302e-02  2.729788e-02
   endloop
 endfacet
 facet normal  5.000000e-01  0.000000e+00  8.660254e-01
   outer loop
     vertex -1.606775e-02 -1.587302e-02  3.762496e-02
     vertex -1.606775e-02 -1.015873e+00  3.762496e-02
     vertex  1.819269e-03 -1.015873e+00  2.729788e-02
   endloop
 endfacet
 facet normal  1.831941e-01 -1.330972e-03  9.830759e-01
   outer loop
     vertex -4.367594e-02 -9.180982e-01  4.602020e-02
     vertex -3.558594e-02 -1.015873e+00  4.438027e-02
     vertex -4.356258e-02 -9.162257e-01  4.600161e-02
   endloop
 endfacet
 facet normal  1.719469e-01 -2.295591e-03  9.851035e-01
   outer loop
     vertex -4.401224e-02 -9.199346e-01  4.607462e-02
     vertex -3.558594e-02 -1.015873e+00  4.438027e-02
     vertex -4.367594e-02 -9.180982e-01  4.602020e-02
   endloop
 endfacet
 facet normal  1.613003e-01 -3.262408e-03  9.869000e-01
   outer loop
     vertex -4.521409e-02 -9.231925e-01  4.626028e-02
     vertex -3.558594e-02 -1.015873e+00  4.438027e-02
     vertex -4.401224e-02 -9.199346e-01  4.607462e-02
   endloop
 endfacet
 facet normal  1.458403e-01 -4.917081e-03  9.892959e-01
   outer loop
     vertex -4.710454e-02 -9.260948e-01  4.652455e-02
     vertex -3.558594e-02 -1.015873e+00  4.438027e-02
     vertex -4.521409e-02 -9.231925e-01  4.626028e-02
   endloop
 endfacet
 facet normal  1.423128e-01 -5.381876e-03  9.898071e-01
   outer loop
     vertex -5.602987e-02 -1.015873e+00  4.731966e-02
     vertex -3.558594e-02 -1.015873e+00  4.438027e-02
     vertex -4.710454e-02 -9.260948e-01  4.652455e-02
   endloop
 endfacet
 facet normal  9.395231e-02 -1.239332e-03  9.955759e-01
   outer loop
     vertex -5.602987e-02 -1.015873e+00  4.731966e-02
     vertex -4.959206e-02 -9.285059e-01  4.682089e-02
     vertex -5.255631e-02 -9.303070e-01  4.709838e-02
   endloop
 endfacet
 facet normal  1.214291e-01 -3.281034e-03  9.925947e-01
   outer loop
     vertex -5.602987e-02 -1.015873e+00  4.731966e-02
     vertex -4.710454e-02 -9.260948e-01  4.652455e-02
     vertex -4.959206e-02 -9.285059e-01  4.682089e-02
   endloop
 endfacet
 facet normal  6.444004e-02 -3.521122e-05  9.979216e-01
   outer loop
     vertex -5.584451e-02 -9.314044e-01  4.731067e-02
     vertex -5.602987e-02 -1.015873e+00  4.731966e-02
     vertex -5.255631e-02 -9.303070e-01  4.709838e-02
   endloop
 endfacet
 facet normal  3.354652e-02  3.274197e-05  9.994372e-01
   outer loop
     vertex -5.926512e-02 -9.317449e-01  4.742550e-02
     vertex -5.602987e-02 -1.015873e+00  4.731966e-02
     vertex -5.584451e-02 -9.314044e-01  4.731067e-02
   endloop
 endfacet
 facet normal  3.270680e-01  0.000000e+00  9.450008e-01
   outer loop
     vertex -3.558594e-02 -1.587302e-02  4.438027e-02
     vertex -1.606775e-02 -1.015873e+00  3.762496e-02
     vertex -1.606775e-02 -1.587302e-02  3.762496e-02
   endloop
 endfacet
 facet normal  1.991881e-01  0.000000e+00  9.799613e-01
   outer loop
     vertex -3.558594e-02 -1.587302e-02  4.438027e-02
     vertex -4.356258e-02 -9.162257e-01  4.600161e-02
     vertex -3.558594e-02 -1.015873e+00  4.438027e-02
   endloop
 endfacet
 facet normal  3.270680e-01  0.000000e+00  9.450008e-01
   outer loop
     vertex -3.558594e-02 -1.587302e-02  4.438027e-02
     vertex -3.558594e-02 -1.015873e+00  4.438027e-02
     vertex -1.606775e-02 -1.015873e+00  3.762496e-02
   endloop
 endfacet
 facet normal  1.633545e-01  3.293628e-04  9.865674e-01
   outer loop
     vertex -3.558594e-02 -1.587302e-02  4.438027e-02
     vertex -4.395660e-02 -9.127507e-01  4.606569e-02
     vertex -4.356258e-02 -9.162257e-01  4.600161e-02
   endloop
 endfacet
 facet normal  1.545624e-01  4.140805e-04  9.879829e-01
   outer loop
     vertex -3.558594e-02 -1.587302e-02  4.438027e-02
     vertex -4.510831e-02 -9.094736e-01  4.624449e-02
     vertex -4.395660e-02 -9.127507e-01  4.606569e-02
   endloop
 endfacet
 facet normal  1.405063e-01  5.682383e-04  9.900796e-01
   outer loop
     vertex -3.558594e-02 -1.587302e-02  4.438027e-02
     vertex -4.695394e-02 -9.065423e-01  4.650473e-02
     vertex -4.510831e-02 -9.094736e-01  4.624449e-02
   endloop
 endfacet
 facet normal  1.937892e-03 -1.183512e-03  9.999974e-01
   outer loop
     vertex -6.268063e-02 -9.313232e-01  4.743262e-02
     vertex -5.602987e-02 -1.015873e+00  4.731966e-02
     vertex -5.926512e-02 -9.317449e-01  4.742550e-02
   endloop
 endfacet
 facet normal -2.997194e-02 -3.692961e-03  9.995439e-01
   outer loop
     vertex -6.594085e-02 -9.301486e-01  4.733920e-02
     vertex -5.602987e-02 -1.015873e+00  4.731966e-02
     vertex -6.268063e-02 -9.313232e-01  4.743262e-02
   endloop
 endfacet
 facet normal -4.758114e-02 -5.728680e-03  9.988509e-01
   outer loop
     vertex -7.666063e-02 -1.015873e+00  4.633690e-02
     vertex -5.602987e-02 -1.015873e+00  4.731966e-02
     vertex -6.594085e-02 -9.301486e-01  4.733920e-02
   endloop
 endfacet
 facet normal -1.027019e-01 -9.020328e-04  9.947118e-01
   outer loop
     vertex -7.666063e-02 -1.015873e+00  4.633690e-02
     vertex -7.128892e-02 -9.258117e-01  4.697319e-02
     vertex -7.311059e-02 -9.228666e-01  4.678777e-02
   endloop
 endfacet
 facet normal -8.375895e-02 -2.044408e-03  9.964839e-01
   outer loop
     vertex -7.666063e-02 -1.015873e+00  4.633690e-02
     vertex -6.885989e-02 -9.282793e-01  4.717229e-02
     vertex -7.128892e-02 -9.258117e-01  4.697319e-02
   endloop
 endfacet
 facet normal -5.976269e-02 -4.197818e-03  9.982038e-01
   outer loop
     vertex -7.666063e-02 -1.015873e+00  4.633690e-02
     vertex -6.594085e-02 -9.301486e-01  4.733920e-02
     vertex -6.885989e-02 -9.282793e-01  4.717229e-02
   endloop
 endfacet
 facet normal -1.159412e-01 -3.896338e-04  9.932560e-01
   outer loop
     vertex -7.423606e-02 -9.195813e-01  4.665769e-02
     vertex -7.666063e-02 -1.015873e+00  4.633690e-02
     vertex -7.311059e-02 -9.228666e-01  4.678777e-02
   endloop
 endfacet
 facet normal -1.235160e-01 -1.958641e-04  9.923426e-01
   outer loop
     vertex -7.460267e-02 -9.161045e-01  4.661274e-02
     vertex -7.666063e-02 -1.015873e+00  4.633690e-02
     vertex -7.423606e-02 -9.195813e-01  4.665769e-02
   endloop
 endfacet
 facet normal  1.423148e-01  5.445394e-04  9.898213e-01
   outer loop
     vertex -5.602987e-02 -1.587302e-02  4.731966e-02
     vertex -4.695394e-02 -9.065423e-01  4.650473e-02
     vertex -3.558594e-02 -1.587302e-02  4.438027e-02
   endloop
 endfacet
 facet normal  1.201653e-01  3.161528e-04  9.927538e-01
   outer loop
     vertex -5.602987e-02 -1.587302e-02  4.731966e-02
     vertex -4.940383e-02 -9.040933e-01  4.680049e-02
     vertex -4.695394e-02 -9.065423e-01  4.650473e-02
   endloop
 endfacet
 facet normal  9.514861e-02  1.279470e-04  9.954631e-01
   outer loop
     vertex -5.602987e-02 -1.587302e-02  4.731966e-02
     vertex -5.233974e-02 -9.022468e-01  4.708088e-02
     vertex -4.940383e-02 -9.040933e-01  4.680049e-02
   endloop
 endfacet
 facet normal  6.650151e-02  8.058144e-06  9.977863e-01
   outer loop
     vertex -5.602987e-02 -1.587302e-02  4.731966e-02
     vertex -5.561128e-02 -9.010987e-01  4.729891e-02
     vertex -5.233974e-02 -9.022468e-01  4.708088e-02
   endloop
 endfacet
 facet normal  3.570633e-02 -6.540735e-06  9.993623e-01
   outer loop
     vertex -5.602987e-02 -1.587302e-02  4.731966e-02
     vertex -5.902965e-02 -9.007055e-01  4.742105e-02
     vertex -5.561128e-02 -9.010987e-01  4.729891e-02
   endloop
 endfacet
 facet normal  4.228102e-03  1.002498e-04  9.999911e-01
   outer loop
     vertex -5.602987e-02 -1.587302e-02  4.731966e-02
     vertex -6.244791e-02 -9.010746e-01  4.743554e-02
     vertex -5.902965e-02 -9.007055e-01  4.742105e-02
   endloop
 endfacet
 facet normal -2.669040e-02  3.243748e-04  9.996437e-01
   outer loop
     vertex -5.602987e-02 -1.587302e-02  4.731966e-02
     vertex -6.572526e-02 -9.021987e-01  4.734840e-02
     vertex -6.244791e-02 -9.010746e-01  4.743554e-02
   endloop
 endfacet
 facet normal -2.357584e-01  2.176169e-03  9.718093e-01
   outer loop
     vertex -9.673257e-02 -1.015873e+00  4.146750e-02
     vertex -7.666063e-02 -1.015873e+00  4.633690e-02
     vertex -7.460267e-02 -9.161045e-01  4.661274e-02
   endloop
 endfacet
 facet normal -4.758191e-02  5.528789e-04  9.988672e-01
   outer loop
     vertex -7.666063e-02 -1.587302e-02  4.633690e-02
     vertex -6.572526e-02 -9.021987e-01  4.734840e-02
     vertex -5.602987e-02 -1.587302e-02  4.731966e-02
   endloop
 endfacet
 facet normal -5.551188e-02  4.545729e-04  9.984579e-01
   outer loop
     vertex -7.666063e-02 -1.587302e-02  4.633690e-02
     vertex -6.867297e-02 -9.040229e-01  4.718535e-02
     vertex -6.572526e-02 -9.021987e-01  4.734840e-02
   endloop
 endfacet
 facet normal -8.037461e-02  2.293503e-04  9.967647e-01
   outer loop
     vertex -7.666063e-02 -1.587302e-02  4.633690e-02
     vertex -7.113987e-02 -9.064529e-01  4.698699e-02
     vertex -6.867297e-02 -9.040229e-01  4.718535e-02
   endloop
 endfacet
 facet normal -1.002560e-01  1.047881e-04  9.949617e-01
   outer loop
     vertex -7.666063e-02 -1.587302e-02  4.633690e-02
     vertex -7.300654e-02 -9.093693e-01  4.679920e-02
     vertex -7.113987e-02 -9.064529e-01  4.698699e-02
   endloop
 endfacet
 facet normal -1.142215e-01  4.689462e-05  9.934553e-01
   outer loop
     vertex -7.666063e-02 -1.587302e-02  4.633690e-02
     vertex -7.418228e-02 -9.126359e-01  4.666417e-02
     vertex -7.300654e-02 -9.093693e-01  4.679920e-02
   endloop
 endfacet
 facet normal -1.216499e-01  2.604314e-05  9.925731e-01
   outer loop
     vertex -7.666063e-02 -1.587302e-02  4.633690e-02
     vertex -7.460267e-02 -9.161045e-01  4.661274e-02
     vertex -7.418228e-02 -9.126359e-01  4.666417e-02
   endloop
 endfacet
 facet normal -2.264616e-01  0.000000e+00  9.740201e-01
   outer loop
     vertex -9.673257e-02 -1.587302e-02  4.146750e-02
     vertex -9.673257e-02 -1.015873e+00  4.146750e-02
     vertex -7.460267e-02 -9.161045e-01  4.661274e-02
   endloop
 endfacet
 facet normal -2.357589e-01 -2.411753e-04  9.718115e-01
   outer loop
     vertex -9.673257e-02 -1.587302e-02  4.146750e-02
     vertex -7.460267e-02 -9.161045e-01  4.661274e-02
     vertex -7.666063e-02 -1.587302e-02  4.633690e-02
   endloop
 endfacet
 facet normal -4.154150e-01  0.000000e+00  9.096320e-01
   outer loop
     vertex -1.155203e-01 -1.587302e-02  3.288745e-02
     vertex -1.155203e-01 -1.015873e+00  3.288745e-02
     vertex -9.673257e-02 -1.015873e+00  4.146750e-02
   endloop
 endfacet
 facet normal -4.154150e-01  0.000000e+00  9.096320e-01
   outer loop
     vertex -1.155203e-01 -1.587302e-02  3.288745e-02
     vertex -9.673257e-02 -1.015873e+00  4.146750e-02
     vertex -9.673257e-02 -1.587302e-02  4.146750e-02
   endloop
 endfacet
 facet normal -5.800569e-01  0.000000e+00  8.145760e-01
   outer loop
     vertex -1.323446e-01 -1.587302e-02  2.090687e-02
     vertex -1.155203e-01 -1.015873e+00  3.288745e-02
     vertex -1.155203e-01 -1.587302e-02  3.288745e-02
   endloop
 endfacet
 facet normal -5.800569e-01  0.000000e+00  8.145760e-01
   outer loop
     vertex -1.323446e-01 -1.587302e-02  2.090687e-02
     vertex -1.323446e-01 -1.015873e+00  2.090687e-02
     vertex -1.155203e-01 -1.015873e+00  3.288745e-02
   endloop
 endfacet
 facet normal -7.237340e-01  0.000000e+00  6.900790e-01
   outer loop
     vertex -1.465976e-01 -1.587302e-02  5.958754e-03
     vertex -1.323446e-01 -1.015873e+00  2.090687e-02
     vertex -1.323446e-01 -1.587302e-02  2.090687e-02
   endloop
 endfacet
 facet normal -7.237340e-01  0.000000e+00  6.900790e-01
   outer loop
     vertex -1.465976e-01 -1.587302e-02  5.958754e-03
     vertex -1.465976e-01 -1.015873e+00  5.958754e-03
     vertex -1.323446e-01 -1.015873e+00  2.090687e-02
   endloop
 endfacet
 facet normal -8.412535e-01  0.000000e+00  5.406408e-01
   outer loop
     vertex -1.577641e-01 -1.587302e-02 -1.141663e-02
     vertex -1.465976e-01 -1.015873e+00  5.958754e-03
     vertex -1.465976e-01 -1.587302e-02  5.958754e-03
   endloop
 endfacet
 facet normal -8.412535e-01  0.000000e+00  5.406408e-01
   outer loop
     vertex -1.577641e-01 -1.587302e-02 -1.141663e-02
     vertex -1.577641e-01 -1.015873e+00 -1.141663e-02
     vertex -1.465976e-01 -1.015873e+00  5.958754e-03
   endloop
 endfacet
 facet normal -9.283679e-01  0.000000e+00  3.716625e-01
   outer loop
     vertex -1.654405e-01 -1.587302e-02 -3.059128e-02
     vertex -1.577641e-01 -1.015873e+00 -1.141663e-02
     vertex -1.577641e-01 -1.587302e-02 -1.141663e-02
   endloop
 endfacet
 facet normal -9.283679e-01  0.000000e+00  3.716625e-01
   outer loop
     vertex -1.654405e-01 -1.587302e-02 -3.059128e-02
     vertex -1.654405e-01 -1.015873e+00 -3.059128e-02
     vertex -1.577641e-01 -1.015873e+00 -1.141663e-02
   endloop
 endfacet
 facet normal -9.819287e-01  0.000000e+00  1.892512e-01
   outer loop
     vertex -1.693493e-01 -1.587302e-02 -5.087218e-02
     vertex -1.654405e-01 -1.015873e+00 -3.059128e-02
     vertex -1.654405e-01 -1.587302e-02 -3.059128e-02
   endloop
 endfacet
 facet normal -9.819287e-01  0.000000e+00  1.892512e-01
   outer loop
     vertex -1.693493e-01 -1.587302e-02 -5.087218e-02
     vertex -1.693493e-01 -1.015873e+00 -5.087218e-02
     vertex -1.654405e-01 -1.015873e+00 -3.059128e-02
   endloop
 endfacet
 facet normal -1.000000e+00  0.000000e+00 -2.687651e-15
   outer loop
     vertex -1.693493e-01 -1.587302e-02 -7.152634e-02
     vertex -1.693493e-01 -1.015873e+00 -5.087218e-02
     vertex -1.693493e-01 -1.587302e-02 -5.087218e-02
   endloop
 endfacet
 facet normal -1.000000e+00 -0.000000e+00 -2.687651e-15
   outer loop
     vertex -1.693493e-01 -1.587302e-02 -7.152634e-02
     vertex -1.693493e-01 -1.015873e+00 -7.152634e-02
     vertex -1.693493e-01 -1.015873e+00 -5.087218e-02
   endloop
 endfacet
 facet normal -9.819287e-01 -0.000000e+00 -1.892512e-01
   outer loop
     vertex -1.693493e-01 -1.587302e-02 -7.152634e-02
     vertex -1.654405e-01 -1.015873e+00 -9.180724e-02
     vertex -1.693493e-01 -1.015873e+00 -7.152634e-02
   endloop
 endfacet
 facet normal -9.819287e-01 -0.000000e+00 -1.892512e-01
   outer loop
     vertex -1.654405e-01 -1.587302e-02 -9.180724e-02
     vertex -1.654405e-01 -1.015873e+00 -9.180724e-02
     vertex -1.693493e-01 -1.587302e-02 -7.152634e-02
   endloop
 endfacet
 facet normal -9.283679e-01  0.000000e+00 -3.716625e-01
   outer loop
     vertex -1.577641e-01 -1.587302e-02 -1.109819e-01
     vertex -1.654405e-01 -1.015873e+00 -9.180724e-02
     vertex -1.654405e-01 -1.587302e-02 -9.180724e-02
   endloop
 endfacet
 facet normal -9.283679e-01 -0.000000e+00 -3.716625e-01
   outer loop
     vertex -1.577641e-01 -1.587302e-02 -1.109819e-01
     vertex -1.577641e-01 -1.015873e+00 -1.109819e-01
     vertex -1.654405e-01 -1.015873e+00 -9.180724e-02
   endloop
 endfacet
 facet normal -8.412535e-01  0.000000e+00 -5.406408e-01
   outer loop
     vertex -1.465976e-01 -1.587302e-02 -1.283573e-01
     vertex -1.577641e-01 -1.015873e+00 -1.109819e-01
     vertex -1.577641e-01 -1.587302e-02 -1.109819e-01
   endloop
 endfacet
 facet normal -8.412535e-01 -0.000000e+00 -5.406408e-01
   outer loop
     vertex -1.465976e-01 -1.587302e-02 -1.283573e-01
     vertex -1.465976e-01 -1.015873e+00 -1.283573e-01
     vertex -1.577641e-01 -1.015873e+00 -1.109819e-01
   endloop
 endfacet
 facet normal -7.237340e-01  0.000000e+00 -6.900790e-01
   outer loop
     vertex -1.323446e-01 -1.587302e-02 -1.433054e-01
     vertex -1.465976e-01 -1.015873e+00 -1.283573e-01
     vertex -1.465976e-01 -1.587302e-02 -1.283573e-01
   endloop
 endfacet
 facet normal -7.237340e-01 -0.000000e+00 -6.900790e-01
   outer loop
     vertex -1.323446e-01 -1.587302e-02 -1.433054e-01
     vertex -1.323446e-01 -1.015873e+00 -1.433054e-01
     vertex -1.465976e-01 -1.015873e+00 -1.283573e-01
   endloop
 endfacet
 facet normal -5.800569e-01  0.000000e+00 -8.145760e-01
   outer loop
     vertex -1.155203e-01 -1.587302e-02 -1.552860e-01
     vertex -1.323446e-01 -1.015873e+00 -1.433054e-01
     vertex -1.323446e-01 -1.587302e-02 -1.433054e-01
   endloop
 endfacet
 facet normal -5.800569e-01 -0.000000e+00 -8.145760e-01
   outer loop
     vertex -1.155203e-01 -1.587302e-02 -1.552860e-01
     vertex -1.155203e-01 -1.015873e+00 -1.552860e-01
     vertex -1.323446e-01 -1.015873e+00 -1.433054e-01
   endloop
 endfacet
 facet normal -4.154150e-01 -0.000000e+00 -9.096320e-01
   outer loop
     vertex -1.155203e-01 -1.587302e-02 -1.552860e-01
     vertex -9.673257e-02 -1.015873e+00 -1.638660e-01
     vertex -1.155203e-01 -1.015873e+00 -1.552860e-01
   endloop
 endfacet
 facet normal -4.154150e-01 -0.000000e+00 -9.096320e-01
   outer loop
     vertex -9.673257e-02 -1.587302e-02 -1.638660e-01
     vertex -9.673257e-02 -1.015873e+00 -1.638660e-01
     vertex -1.155203e-01 -1.587302e-02 -1.552860e-01
   endloop
 endfacet
 facet normal -2.357589e-01  0.000000e+00 -9.718116e-01
   outer loop
     vertex -7.666063e-02 -1.587302e-02 -1.687354e-01
     vertex -9.673257e-02 -1.015873e+00 -1.638660e-01
     vertex -9.673257e-02 -1.587302e-02 -1.638660e-01
   endloop
 endfacet
 facet normal -2.357589e-01 -0.000000e+00 -9.718116e-01
   outer loop
     vertex -7.666063e-02 -1.587302e-02 -1.687354e-01
     vertex -7.666063e-02 -1.015873e+00 -1.687354e-01
     vertex -9.673257e-02 -1.015873e+00 -1.638660e-01
   endloop
 endfacet
 facet normal -4.758192e-02 -0.000000e+00 -9.988673e-01
   outer loop
     vertex -5.602987e-02 -1.587302e-02 -1.697182e-01
     vertex -5.602987e-02 -1.015873e+00 -1.697182e-01
     vertex -7.666063e-02 -1.015873e+00 -1.687354e-01
   endloop
 endfacet
 facet normal -4.758192e-02  0.000000e+00 -9.988673e-01
   outer loop
     vertex -5.602987e-02 -1.587302e-02 -1.697182e-01
     vertex -7.666063e-02 -1.015873e+00 -1.687354e-01
     vertex -7.666063e-02 -1.587302e-02 -1.687354e-01
   endloop
 endfacet
 facet normal  1.423148e-01  0.000000e+00 -9.898214e-01
   outer loop
     vertex -3.558594e-02 -1.587302e-02 -1.667788e-01
     vertex -5.602987e-02 -1.015873e+00 -1.697182e-01
     vertex -5.602987e-02 -1.587302e-02 -1.697182e-01
   endloop
 endfacet
 facet normal  1.423148e-01  0.000000e+00 -9.898214e-01
   outer loop
     vertex -3.558594e-02 -1.587302e-02 -1.667788e-01
     vertex -3.558594e-02 -1.015873e+00 -1.667788e-01
     vertex -5.602987e-02 -1.015873e+00 -1.697182e-01
   endloop
 endfacet
 facet normal  3.270680e-01  0.000000e+00 -9.450008e-01
   outer loop
     vertex -3.558594e-02 -1.587302e-02 -1.667788e-01
     vertex -1.606775e-02 -1.015873e+00 -1.600235e-01
     vertex -3.558594e-02 -1.015873e+00 -1.667788e-01
   endloop
 endfacet
 facet normal  3.270680e-01  0.000000e+00 -9.450008e-01
   outer loop
     vertex -1.606775e-02 -1.587302e-02 -1.600235e-01
     vertex -1.606775e-02 -1.015873e+00 -1.600235e-01
     vertex -3.558594e-02 -1.587302e-02 -1.667788e-01
   endloop
 endfacet
 facet normal  5.000000e-01  0.000000e+00 -8.660254e-01
   outer loop
     vertex  1.819269e-03 -1.587302e-02 -1.496964e-01
     vertex  1.819269e-03 -1.015873e+00 -1.496964e-01
     vertex -1.606775e-02 -1.015873e+00 -1.600235e-01
   endloop
 endfacet
 facet normal  6.548607e-01  0.000000e+00 -7.557496e-01
   outer loop
     vertex  1.819269e-03 -1.587302e-02 -1.496964e-01
     vertex  1.742864e-02 -1.015873e+00 -1.361708e-01
     vertex  1.819269e-03 -1.015873e+00 -1.496964e-01
   endloop
 endfacet
 facet normal  5.000000e-01  0.000000e+00 -8.660254e-01
   outer loop
     vertex  1.819269e-03 -1.587302e-02 -1.496964e-01
     vertex -1.606775e-02 -1.015873e+00 -1.600235e-01
     vertex -1.606775e-02 -1.587302e-02 -1.600235e-01
   endloop
 endfacet
 facet normal  7.860531e-01  0.000000e+00 -6.181590e-01
   outer loop
     vertex  1.742864e-02 -1.587302e-02 -1.361708e-01
     vertex  3.019619e-02 -1.015873e+00 -1.199355e-01
     vertex  1.742864e-02 -1.015873e+00 -1.361708e-01
   endloop
 endfacet
 facet normal  6.548607e-01  0.000000e+00 -7.557496e-01
   outer loop
     vertex  1.742864e-02 -1.587302e-02 -1.361708e-01
     vertex  1.742864e-02 -1.015873e+00 -1.361708e-01
     vertex  1.819269e-03 -1.587302e-02 -1.496964e-01
   endloop
 endfacet
 facet normal  7.860531e-01  0.000000e+00 -6.181590e-01
   outer loop
     vertex  3.019619e-02 -1.587302e-02 -1.199355e-01
     vertex  3.019619e-02 -1.015873e+00 -1.199355e-01
     vertex  1.742864e-02 -1.587302e-02 -1.361708e-01
   endloop
 endfacet
 facet normal  8.888354e-01  0.000000e+00 -4.582265e-01
   outer loop
     vertex  3.966047e-02 -1.587302e-02 -1.015774e-01
     vertex  3.966047e-02 -1.015873e+00 -1.015774e-01
     vertex  3.019619e-02 -1.015873e+00 -1.199355e-01
   endloop
 endfacet
 facet normal  8.888354e-01  0.000000e+00 -4.582265e-01
   outer loop
     vertex  3.966047e-02 -1.587302e-02 -1.015774e-01
     vertex  3.019619e-02 -1.015873e+00 -1.199355e-01
     vertex  3.019619e-02 -1.587302e-02 -1.199355e-01
   endloop
 endfacet
 facet normal  9.594930e-01  0.000000e+00 -2.817326e-01
   outer loop
     vertex  4.547941e-02 -1.587302e-02 -8.175989e-02
     vertex  4.547941e-02 -1.015873e+00 -8.175989e-02
     vertex  3.966047e-02 -1.015873e+00 -1.015774e-01
   endloop
 endfacet
 facet normal  9.954719e-01  0.000000e+00 -9.505604e-02
   outer loop
     vertex  4.547941e-02 -1.587302e-02 -8.175989e-02
     vertex  4.744272e-02 -1.015873e+00 -6.119926e-02
     vertex  4.547941e-02 -1.015873e+00 -8.175989e-02
   endloop
 endfacet
 facet normal  9.594930e-01  0.000000e+00 -2.817326e-01
   outer loop
     vertex  4.547941e-02 -1.587302e-02 -8.175989e-02
     vertex  3.966047e-02 -1.015873e+00 -1.015774e-01
     vertex  3.966047e-02 -1.587302e-02 -1.015774e-01
   endloop
 endfacet
 facet normal  9.954719e-01  0.000000e+00 -9.505604e-02
   outer loop
     vertex  4.744272e-02 -1.587302e-02 -6.119926e-02
     vertex  4.744272e-02 -1.015873e+00 -6.119926e-02
     vertex  4.547941e-02 -1.587302e-02 -8.175989e-02
   endloop
 endfacet
 facet normal  9.954719e-01  0.000000e+00  9.505604e-02
   outer loop
     vertex  4.547941e-02 -1.587302e-02 -4.063863e-02
     vertex  4.744272e-02 -1.587302e-02 -6.119926e-02
     vertex  4.744272e-02  0.000000e+00 -6.119926e-02
   endloop
 endfacet
 facet normal  9.954719e-01 -0.000000e+00  9.505604e-02
   outer loop
     vertex  4.547941e-02 -1.587302e-02 -4.063863e-02
     vertex  4.744272e-02  0.000000e+00 -6.119926e-02
     vertex  4.547941e-02  0.000000e+00 -4.063863e-02
   endloop
 endfacet
 facet normal  9.594930e-01 -0.000000e+00  2.817326e-01
   outer loop
     vertex  3.966047e-02 -1.587302e-02 -2.082112e-02
     vertex  4.547941e-02  0.000000e+00 -4.063863e-02
     vertex  3.966047e-02  0.000000e+00 -2.082112e-02
   endloop
 endfacet
 facet normal  9.594930e-01  0.000000e+00  2.817326e-01
   outer loop
     vertex  3.966047e-02 -1.587302e-02 -2.082112e-02
     vertex  4.547941e-02 -1.587302e-02 -4.063863e-02
     vertex  4.547941e-02  0.000000e+00 -4.063863e-02
   endloop
 endfacet
 facet normal  8.888354e-01 -0.000000e+00  4.582265e-01
   outer loop
     vertex  3.019619e-02 -1.587302e-02 -2.462973e-03
     vertex  3.966047e-02  0.000000e+00 -2.082112e-02
     vertex  3.019619e-02  0.000000e+00 -2.462973e-03
   endloop
 endfacet
 facet normal  8.888354e-01  0.000000e+00  4.582265e-01
   outer loop
     vertex  3.019619e-02 -1.587302e-02 -2.462973e-03
     vertex  3.966047e-02 -1.587302e-02 -2.082112e-02
     vertex  3.966047e-02  0.000000e+00 -2.082112e-02
   endloop
 endfacet
 facet normal  7.860531e-01 -0.000000e+00  6.181590e-01
   outer loop
     vertex  1.742864e-02 -1.587302e-02  1.377229e-02
     vertex  3.019619e-02  0.000000e+00 -2.462973e-03
     vertex  1.742864e-02  0.000000e+00  1.377229e-02
   endloop
 endfacet
 facet normal  7.860531e-01  0.000000e+00  6.181590e-01
   outer loop
     vertex  1.742864e-02 -1.587302e-02  1.377229e-02
     vertex  3.019619e-02 -1.587302e-02 -2.462973e-03
     vertex  3.019619e-02  0.000000e+00 -2.462973e-03
   endloop
 endfacet
 facet normal  6.548607e-01 -0.000000e+00  7.557496e-01
   outer loop
     vertex  1.819269e-03 -1.587302e-02  2.729788e-02
     vertex  1.742864e-02  0.000000e+00  1.377229e-02
     vertex  1.819269e-03  0.000000e+00  2.729788e-02
   endloop
 endfacet
 facet normal  6.548607e-01  0.000000e+00  7.557496e-01
   outer loop
     vertex  1.819269e-03 -1.587302e-02  2.729788e-02
     vertex  1.742864e-02 -1.587302e-02  1.377229e-02
     vertex  1.742864e-02  0.000000e+00  1.377229e-02
   endloop
 endfacet
 facet normal  5.000000e-01 -0.000000e+00  8.660254e-01
   outer loop
     vertex -1.606775e-02 -1.587302e-02  3.762496e-02
     vertex  1.819269e-03  0.000000e+00  2.729788e-02
     vertex -1.606775e-02  0.000000e+00  3.762496e-02
   endloop
 endfacet
 facet normal  5.000000e-01  0.000000e+00  8.660254e-01
   outer loop
     vertex -1.606775e-02 -1.587302e-02  3.762496e-02
     vertex  1.819269e-03 -1.587302e-02  2.729788e-02
     vertex  1.819269e-03  0.000000e+00  2.729788e-02
   endloop
 endfacet
 facet normal  3.270680e-01 -0.000000e+00  9.450008e-01
   outer loop
     vertex -3.558594e-02 -1.587302e-02  4.438027e-02
     vertex -1.606775e-02  0.000000e+00  3.762496e-02
     vertex -3.558594e-02  0.000000e+00  4.438027e-02
   endloop
 endfacet
 facet normal  3.270680e-01  0.000000e+00  9.450008e-01
   outer loop
     vertex -3.558594e-02 -1.587302e-02  4.438027e-02
     vertex -1.606775e-02 -1.587302e-02  3.762496e-02
     vertex -1.606775e-02  0.000000e+00  3.762496e-02
   endloop
 endfacet
 facet normal  1.423148e-01  0.000000e+00  9.898214e-01
   outer loop
     vertex -5.602987e-02 -1.587302e-02  4.731966e-02
     vertex -3.558594e-02 -1.587302e-02  4.438027e-02
     vertex -3.558594e-02  0.000000e+00  4.438027e-02
   endloop
 endfacet
 facet normal  1.423148e-01 -0.000000e+00  9.898214e-01
   outer loop
     vertex -5.602987e-02 -1.587302e-02  4.731966e-02
     vertex -3.558594e-02  0.000000e+00  4.438027e-02
     vertex -5.602987e-02  0.000000e+00  4.731966e-02
   endloop
 endfacet
 facet normal -4.758192e-02  0.000000e+00  9.988673e-01
   outer loop
     vertex -7.666063e-02 -1.587302e-02  4.633690e-02
     vertex -5.602987e-02 -1.587302e-02  4.731966e-02
     vertex -5.602987e-02  0.000000e+00  4.731966e-02
   endloop
 endfacet
 facet normal -4.758192e-02  0.000000e+00  9.988673e-01
   outer loop
     vertex -7.666063e-02 -1.587302e-02  4.633690e-02
     vertex -5.602987e-02  0.000000e+00  4.731966e-02
     vertex -7.666063e-02  0.000000e+00  4.633690e-02
   endloop
 endfacet
 facet normal -2.357589e-01  0.000000e+00  9.718116e-01
   outer loop
     vertex -9.673257e-02 -1.587302e-02  4.146750e-02
     vertex -7.666063e-02  0.000000e+00  4.633690e-02
     vertex -9.673257e-02  0.000000e+00  4.146750e-02
   endloop
 endfacet
 facet normal -2.357589e-01  0.000000e+00  9.718116e-01
   outer loop
     vertex -9.673257e-02 -1.587302e-02  4.146750e-02
     vertex -7.666063e-02 -1.587302e-02  4.633690e-02
     vertex -7.666063e-02  0.000000e+00  4.633690e-02
   endloop
 endfacet
 facet normal -4.154150e-01  0.000000e+00  9.096320e-01
   outer loop
     vertex -1.155203e-01 -1.587302e-02  3.288745e-02
     vertex -9.673257e-02  0.000000e+00  4.146750e-02
     vertex -1.155203e-01  0.000000e+00  3.288745e-02
   endloop
 endfacet
 facet normal -4.154150e-01  0.000000e+00  9.096320e-01
   outer loop
     vertex -1.155203e-01 -1.587302e-02  3.288745e-02
     vertex -9.673257e-02 -1.587302e-02  4.146750e-02
     vertex -9.673257e-02  0.000000e+00  4.146750e-02
   endloop
 endfacet
 facet normal -5.800569e-01  0.000000e+00  8.145760e-01
   outer loop
     vertex -1.323446e-01 -1.587302e-02  2.090687e-02
     vertex -1.155203e-01  0.000000e+00  3.288745e-02
     vertex -1.323446e-01  0.000000e+00  2.090687e-02
   endloop
 endfacet
 facet normal -5.800569e-01  0.000000e+00  8.145760e-01
   outer loop
     vertex -1.323446e-01 -1.587302e-02  2.090687e-02
     vertex -1.155203e-01 -1.587302e-02  3.288745e-02
     vertex -1.155203e-01  0.000000e+00  3.288745e-02
   endloop
 endfacet
 facet normal -7.237340e-01  0.000000e+00  6.900790e-01
   outer loop
     vertex -1.465976e-01 -1.587302e-02  5.958754e-03
     vertex -1.323446e-01  0.000000e+00  2.090687e-02
     vertex -1.465976e-01  0.000000e+00  5.958754e-03
   endloop
 endfacet
 facet normal -7.237340e-01  0.000000e+00  6.900790e-01
   outer loop
     vertex -1.465976e-01 -1.587302e-02  5.958754e-03
     vertex -1.323446e-01 -1.587302e-02  2.090687e-02
     vertex -1.323446e-01  0.000000e+00  2.090687e-02
   endloop
 endfacet
 facet normal -8.412535e-01  0.000000e+00  5.406408e-01
   outer loop
     vertex -1.577641e-01 -1.587302e-02 -1.141663e-02
     vertex -1.465976e-01  0.000000e+00  5.958754e-03
     vertex -1.577641e-01  0.000000e+00 -1.141663e-02
   endloop
 endfacet
 facet normal -8.412535e-01  0.000000e+00  5.406408e-01
   outer loop
     vertex -1.577641e-01 -1.587302e-02 -1.141663e-02
     vertex -1.465976e-01 -1.587302e-02  5.958754e-03
     vertex -1.465976e-01  0.000000e+00  5.958754e-03
   endloop
 endfacet
 facet normal -9.283679e-01  0.000000e+00  3.716625e-01
   outer loop
     vertex -1.654405e-01 -1.587302e-02 -3.059128e-02
     vertex -1.577641e-01  0.000000e+00 -1.141663e-02
     vertex -1.654405e-01  0.000000e+00 -3.059128e-02
   endloop
 endfacet
 facet normal -9.283679e-01  0.000000e+00  3.716625e-01
   outer loop
     vertex -1.654405e-01 -1.587302e-02 -3.059128e-02
     vertex -1.577641e-01 -1.587302e-02 -1.141663e-02
     vertex -1.577641e-01  0.000000e+00 -1.141663e-02
   endloop
 endfacet
 facet normal -9.819287e-01  0.000000e+00  1.892512e-01
   outer loop
     vertex -1.693493e-01 -1.587302e-02 -5.087218e-02
     vertex -1.654405e-01  0.000000e+00 -3.059128e-02
     vertex -1.693493e-01  0.000000e+00 -5.087218e-02
   endloop
 endfacet
 facet normal -9.819287e-01  0.000000e+00  1.892512e-01
   outer loop
     vertex -1.693493e-01 -1.587302e-02 -5.087218e-02
     vertex -1.654405e-01 -1.587302e-02 -3.059128e-02
     vertex -1.654405e-01  0.000000e+00 -3.059128e-02
   endloop
 endfacet
 facet normal -1.000000e+00  0.000000e+00 -2.687651e-15
   outer loop
     vertex -1.693493e-01 -1.587302e-02 -7.152634e-02
     vertex -1.693493e-01  0.000000e+00 -5.087218e-02
     vertex -1.693493e-01  0.000000e+00 -7.152634e-02
   endloop
 endfacet
 facet normal -1.000000e+00  0.000000e+00 -2.687651e-15
   outer loop
     vertex -1.693493e-01 -1.587302e-02 -7.152634e-02
     vertex -1.693493e-01 -1.587302e-02 -5.087218e-02
     vertex -1.693493e-01  0.000000e+00 -5.087218e-02
   endloop
 endfacet
 facet normal -9.819287e-01  0.000000e+00 -1.892512e-01
   outer loop
     vertex -1.654405e-01 -1.587302e-02 -9.180724e-02
     vertex -1.693493e-01  0.000000e+00 -7.152634e-02
     vertex -1.654405e-01  0.000000e+00 -9.180724e-02
   endloop
 endfacet
 facet normal -9.819287e-01  0.000000e+00 -1.892512e-01
   outer loop
     vertex -1.654405e-01 -1.587302e-02 -9.180724e-02
     vertex -1.693493e-01 -1.587302e-02 -7.152634e-02
     vertex -1.693493e-01  0.000000e+00 -7.152634e-02
   endloop
 endfacet
 facet normal -9.283679e-01  0.000000e+00 -3.716625e-01
   outer loop
     vertex -1.577641e-01 -1.587302e-02 -1.109819e-01
     vertex -1.654405e-01  0.000000e+00 -9.180724e-02
     vertex -1.577641e-01  0.000000e+00 -1.109819e-01
   endloop
 endfacet
 facet normal -9.283679e-01  0.000000e+00 -3.716625e-01
   outer loop
     vertex -1.577641e-01 -1.587302e-02 -1.109819e-01
     vertex -1.654405e-01 -1.587302e-02 -9.180724e-02
     vertex -1.654405e-01  0.000000e+00 -9.180724e-02
   endloop
 endfacet
 facet normal -8.412535e-01  0.000000e+00 -5.406408e-01
   outer loop
     vertex -1.465976e-01 -1.587302e-02 -1.283573e-01
     vertex -1.577641e-01  0.000000e+00 -1.109819e-01
     vertex -1.465976e-01  0.000000e+00 -1.283573e-01
   endloop
 endfacet
 facet normal -8.412535e-01  0.000000e+00 -5.406408e-01
   outer loop
     vertex -1.465976e-01 -1.587302e-02 -1.283573e-01
     vertex -1.577641e-01 -1.587302e-02 -1.109819e-01
     vertex -1.577641e-01  0.000000e+00 -1.109819e-01
   endloop
 endfacet
 facet normal -7.237340e-01  0.000000e+00 -6.900790e-01
   outer loop
     vertex -1.323446e-01 -1.587302e-02 -1.433054e-01
     vertex -1.465976e-01  0.000000e+00 -1.283573e-01
     vertex -1.323446e-01  0.000000e+00 -1.433054e-01
   endloop
 endfacet
 facet normal -7.237340e-01  0.000000e+00 -6.900790e-01
   outer loop
     vertex -1.323446e-01 -1.587302e-02 -1.433054e-01
     vertex -1.465976e-01 -1.587302e-02 -1.283573e-01
     vertex -1.465976e-01  0.000000e+00 -1.283573e-01
   endloop
 endfacet
 facet normal -5.800569e-01  0.000000e+00 -8.145760e-01
   outer loop
     vertex -1.155203e-01 -1.587302e-02 -1.552860e-01
     vertex -1.323446e-01  0.000000e+00 -1.433054e-01
     vertex -1.155203e-01  0.000000e+00 -1.552860e-01
   endloop
 endfacet
 facet normal -5.800569e-01  0.000000e+00 -8.145760e-01
   outer loop
     vertex -1.155203e-01 -1.587302e-02 -1.552860e-01
     vertex -1.323446e-01 -1.587302e-02 -1.433054e-01
     vertex -1.323446e-01  0.000000e+00 -1.433054e-01
   endloop
 endfacet
 facet normal -4.154150e-01  0.000000e+00 -9.096320e-01
   outer loop
     vertex -9.673257e-02 -1.587302e-02 -1.638660e-01
     vertex -1.155203e-01  0.000000e+00 -1.552860e-01
     vertex -9.673257e-02  0.000000e+00 -1.638660e-01
   endloop
 endfacet
 facet normal -4.154150e-01  0.000000e+00 -9.096320e-01
   outer loop
     vertex -9.673257e-02 -1.587302e-02 -1.638660e-01
     vertex -1.155203e-01 -1.587302e-02 -1.552860e-01
     vertex -1.155203e-01  0.000000e+00 -1.552860e-01
   endloop
 endfacet
 facet normal -2.357589e-01  0.000000e+00 -9.718116e-01
   outer loop
     vertex -7.666063e-02 -1.587302e-02 -1.687354e-01
     vertex -9.673257e-02  0.000000e+00 -1.638660e-01
     vertex -7.666063e-02  0.000000e+00 -1.687354e-01
   endloop
 endfacet
 facet normal -2.357589e-01  0.000000e+00 -9.718116e-01
   outer loop
     vertex -7.666063e-02 -1.587302e-02 -1.687354e-01
     vertex -9.673257e-02 -1.587302e-02 -1.638660e-01
     vertex -9.673257e-02  0.000000e+00 -1.638660e-01
   endloop
 endfacet
 facet normal -4.758192e-02  0.000000e+00 -9.988673e-01
   outer loop
     vertex -5.602987e-02 -1.587302e-02 -1.697182e-01
     vertex -7.666063e-02  0.000000e+00 -1.687354e-01
     vertex -5.602987e-02  0.000000e+00 -1.697182e-01
   endloop
 endfacet
 facet normal -4.758192e-02  0.000000e+00 -9.988673e-01
   outer loop
     vertex -5.602987e-02 -1.587302e-02 -1.697182e-01
     vertex -7.666063e-02 -1.587302e-02 -1.687354e-01
     vertex -7.666063e-02  0.000000e+00 -1.687354e-01
   endloop
 endfacet
 facet normal  1.423148e-01  0.000000e+00 -9.898214e-01
   outer loop
     vertex -3.558594e-02 -1.587302e-02 -1.667788e-01
     vertex -5.602987e-02  0.000000e+00 -1.697182e-01
     vertex -3.558594e-02  0.000000e+00 -1.667788e-01
   endloop
 endfacet
 facet normal  1.423148e-01  0.000000e+00 -9.898214e-01
   outer loop
     vertex -3.558594e-02 -1.587302e-02 -1.667788e-01
     vertex -5.602987e-02 -1.587302e-02 -1.697182e-01
     vertex -5.602987e-02  0.000000e+00 -1.697182e-01
   endloop
 endfacet
 facet normal  3.270680e-01  0.000000e+00 -9.450008e-01
   outer loop
     vertex -1.606775e-02 -1.587302e-02 -1.600235e-01
     vertex -3.558594e-02  0.000000e+00 -1.667788e-01
     vertex -1.606775e-02  0.000000e+00 -1.600235e-01
   endloop
 endfacet
 facet normal  3.270680e-01  0.000000e+00 -9.450008e-01
   outer loop
     vertex -1.606775e-02 -1.587302e-02 -1.600235e-01
     vertex -3.558594e-02 -1.587302e-02 -1.667788e-01
     vertex -3.558594e-02  0.000000e+00 -1.667788e-01
   endloop
 endfacet
 facet normal  5.000000e-01  0.000000e+00 -8.660254e-01
   outer loop
     vertex  1.819269e-03 -1.587302e-02 -1.496964e-01
     vertex -1.606775e-02  0.000000e+00 -1.600235e-01
     vertex  1.819269e-03  0.000000e+00 -1.496964e-01
   endloop
 endfacet
 facet normal  5.000000e-01  0.000000e+00 -8.660254e-01
   outer loop
     vertex  1.819269e-03 -1.587302e-02 -1.496964e-01
     vertex -1.606775e-02 -1.587302e-02 -1.600235e-01
     vertex -1.606775e-02  0.000000e+00 -1.600235e-01
   endloop
 endfacet
 facet normal  6.548607e-01  0.000000e+00 -7.557496e-01
   outer loop
     vertex  1.742864e-02 -1.587302e-02 -1.361708e-01
     vertex  1.819269e-03  0.000000e+00 -1.496964e-01
     vertex  1.742864e-02  0.000000e+00 -1.361708e-01
   endloop
 endfacet
 facet normal  6.548607e-01  0.000000e+00 -7.557496e-01
   outer loop
     vertex  1.742864e-02 -1.587302e-02 -1.361708e-01
     vertex  1.819269e-03 -1.587302e-02 -1.496964e-01
     vertex  1.819269e-03  0.000000e+00 -1.496964e-01
   endloop
 endfacet
 facet normal  7.860531e-01  0.000000e+00 -6.181590e-01
   outer loop
     vertex  3.019619e-02 -1.587302e-02 -1.199355e-01
     vertex  1.742864e-02  0.000000e+00 -1.361708e-01
     vertex  3.019619e-02  0.000000e+00 -1.199355e-01
   endloop
 endfacet
 facet normal  7.860531e-01  0.000000e+00 -6.181590e-01
   outer loop
     vertex  3.019619e-02 -1.587302e-02 -1.199355e-01
     vertex  1.742864e-02 -1.587302e-02 -1.361708e-01
     vertex  1.742864e-02  0.000000e+00 -1.361708e-01
   endloop
 endfacet
 facet normal  8.888354e-01  0.000000e+00 -4.582265e-01
   outer loop
     vertex  3.966047e-02 -1.587302e-02 -1.015774e-01
     vertex  3.019619e-02  0.000000e+00 -1.199355e-01
     vertex  3.966047e-02  0.000000e+00 -1.015774e-01
   endloop
 endfacet
 facet normal  8.888354e-01  0.000000e+00 -4.582265e-01
   outer loop
     vertex  3.966047e-02 -1.587302e-02 -1.015774e-01
     vertex  3.019619e-02 -1.587302e-02 -1.199355e-01
     vertex  3.019619e-02  0.000000e+00 -1.199355e-01
   endloop
 endfacet
 facet normal  9.594930e-01  0.000000e+00 -2.817326e-01
   outer loop
     vertex  4.547941e-02 -1.587302e-02 -8.175989e-02
     vertex  3.966047e-02  0.000000e+00 -1.015774e-01
     vertex  4.547941e-02  0.000000e+00 -8.175989e-02
   endloop
 endfacet
 facet normal  9.594930e-01  0.000000e+00 -2.817326e-01
   outer loop
     vertex  4.547941e-02 -1.587302e-02 -8.175989e-02
     vertex  3.966047e-02 -1.587302e-02 -1.015774e-01
     vertex  3.966047e-02  0.000000e+00 -1.015774e-01
   endloop
 endfacet
 facet normal  9.954719e-01  0.000000e+00 -9.505604e-02
   outer loop
     vertex  4.744272e-02 -1.587302e-02 -6.119926e-02
     vertex  4.547941e-02 -1.587302e-02 -8.175989e-02
     vertex  4.547941e-02  0.000000e+00 -8.175989e-02
   endloop
 endfacet
 facet normal  9.954719e-01  0.000000e+00 -9.505604e-02
   outer loop
     vertex  4.744272e-02 -1.587302e-02 -6.119926e-02
     vertex  4.547941e-02  0.000000e+00 -8.175989e-02
     vertex  4.744272e-02  0.000000e+00 -6.119926e-02
   endloop
 endfacet
 facet normal  0.000000e+00 -1.000000e+00  0.000000e+00
   outer loop
     vertex  1.742864e-02 -1.015873e+00  1.377229e-02
     vertex  4.744272e-02 -1.015873e+00 -6.119926e-02
     vertex  4.547941e-02 -1.015873e+00 -4.063863e-02
   endloop
 endfacet
 facet normal  0.000000e+00 -1.000000e+00  0.000000e+00
   outer loop
     vertex  1.742864e-02 -1.015873e+00  1.377229e-02
     vertex  4.547941e-02 -1.015873e+00 -4.063863e-02
     vertex  3.966047e-02 -1.015873e+00 -2.082112e-02
   endloop
 endfacet
 facet normal  0.000000e+00 -1.000000e+00  0.000000e+00
   outer loop
     vertex  1.742864e-02 -1.015873e+00  1.377229e-02
     vertex  3.966047e-02 -1.015873e+00 -2.082112e-02
     vertex  3.019619e-02 -1.015873e+00 -2.462973e-03
   endloop
 endfacet
 facet normal  0.000000e+00 -1.000000e+00  0.000000e+00
   outer loop
     vertex  1.742864e-02 -1.015873e+00  1.377229e-02
     vertex  1.819269e-03 -1.015873e+00  2.729788e-02
     vertex -1.606775e-02 -1.015873e+00  3.762496e-02
   endloop
 endfacet
 facet normal  0.000000e+00 -1.000000e+00  0.000000e+00
   outer loop
     vertex  1.742864e-02 -1.015873e+00  1.377229e-02
     vertex -1.606775e-02 -1.015873e+00  3.762496e-02
     vertex -3.558594e-02 -1.015873e+00  4.438027e-02
   endloop
 endfacet
 facet normal  0.000000e+00 -1.000000e+00  0.000000e+00
   outer loop
     vertex  1.742864e-02 -1.015873e+00  1.377229e-02
     vertex -3.558594e-02 -1.015873e+00  4.438027e-02
     vertex -5.602987e-02 -1.015873e+00  4.731966e-02
   endloop
 endfacet
 facet normal  0.000000e+00 -1.000000e+00  0.000000e+00
   outer loop
     vertex  1.742864e-02 -1.015873e+00  1.377229e-02
     vertex -5.602987e-02 -1.015873e+00  4.731966e-02
     vertex -7.666063e-02 -1.015873e+00  4.633690e-02
   endloop
 endfacet
 facet normal  0.000000e+00 -1.000000e+00  0.000000e+00
   outer loop
     vertex  1.742864e-02 -1.015873e+00  1.377229e-02
     vertex -7.666063e-02 -1.015873e+00  4.633690e-02
     vertex -9.673257e-02 -1.015873e+00  4.146750e-02
   endloop
 endfacet
 facet normal  0.000000e+00 -1.000000e+00  0.000000e+00
   outer loop
     vertex  1.742864e-02 -1.015873e+00  1.377229e-02
     vertex -9.673257e-02 -1.015873e+00  4.146750e-02
     vertex -1.155203e-01 -1.015873e+00  3.288745e-02
   endloop
 endfacet
 facet normal  0.000000e+00 -1.000000e+00  0.000000e+00
   outer loop
     vertex  1.742864e-02 -1.015873e+00  1.377229e-02
     vertex -1.155203e-01 -1.015873e+00  3.288745e-02
     vertex -1.323446e-01 -1.015873e+00  2.090687e-02
   endloop
 endfacet
 facet normal -0.000000e+00 -1.000000e+00  0.000000e+00
   outer loop
     vertex  1.742864e-02 -1.015873e+00  1.377229e-02
     vertex -1.323446e-01 -1.015873e+00  2.090687e-02
     vertex -1.465976e-01 -1.015873e+00  5.958754e-03
   endloop
 endfacet
 facet normal  0.000000e+00 -1.000000e+00  0.000000e+00
   outer loop
     vertex  1.742864e-02 -1.015873e+00  1.377229e-02
     vertex -1.465976e-01 -1.015873e+00  5.958754e-03
     vertex -1.577641e-01 -1.015873e+00 -1.141663e-02
   endloop
 endfacet
 facet normal  0.000000e+00 -1.000000e+00  0.000000e+00
   outer loop
     vertex  1.742864e-02 -1.015873e+00  1.377229e-02
     vertex -1.577641e-01 -1.015873e+00 -1.141663e-02
     vertex -1.654405e-01 -1.015873e+00 -3.059128e-02
   endloop
 endfacet
 facet normal  0.000000e+00 -1.000000e+00  0.000000e+00
   outer loop
     vertex  1.742864e-02 -1.015873e+00  1.377229e-02
     vertex -1.654405e-01 -1.015873e+00 -3.059128e-02
     vertex -1.693493e-01 -1.015873e+00 -5.087218e-02
   endloop
 endfacet
 facet normal  0.000000e+00 -1.000000e+00  0.000000e+00
   outer loop
     vertex  1.742864e-02 -1.015873e+00  1.377229e-02
     vertex -1.693493e-01 -1.015873e+00 -5.087218e-02
     vertex -1.693493e-01 -1.015873e+00 -7.152634e-02
   endloop
 endfacet
 facet normal  0.000000e+00 -1.000000e+00  0.000000e+00
   outer loop
     vertex  1.742864e-02 -1.015873e+00  1.377229e-02
     vertex -1.693493e-01 -1.015873e+00 -7.152634e-02
     vertex -1.654405e-01 -1.015873e+00 -9.180724e-02
   endloop
 endfacet
 facet normal  0.000000e+00 -1.000000e+00  0.000000e+00
   outer loop
     vertex  1.742864e-02 -1.015873e+00  1.377229e-02
     vertex -1.654405e-01 -1.015873e+00 -9.180724e-02
     vertex -1.577641e-01 -1.015873e+00 -1.109819e-01
   endloop
 endfacet
 facet normal  0.000000e+00 -1.000000e+00  0.000000e+00
   outer loop
     vertex  1.742864e-02 -1.015873e+00  1.377229e-02
     vertex -1.577641e-01 -1.015873e+00 -1.109819e-01
     vertex -1.465976e-01 -1.015873e+00 -1.283573e-01
   endloop
 endfacet
 facet normal  0.000000e+00 -1.000000e+00  0.000000e+00
   outer loop
     vertex  1.742864e-02 -1.015873e+00  1.377229e-02
     vertex -1.465976e-01 -1.015873e+00 -1.283573e-01
     vertex -1.323446e-01 -1.015873e+00 -1.433054e-01
   endloop
 endfacet
 facet normal  0.000000e+00 -1.000000e+00  0.000000e+00
   outer loop
     vertex  1.742864e-02 -1.015873e+00  1.377229e-02
     vertex -1.323446e-01 -1.015873e+00 -1.433054e-01
     vertex -1.155203e-01 -1.015873e+00 -1.552860e-01
   endloop
 endfacet
 facet normal  0.000000e+00 -1.000000e+00  0.000000e+00
   outer loop
     vertex  1.742864e-02 -1.015873e+00  1.377229e-02
     vertex -1.155203e-01 -1.015873e+00 -1.552860e-01
     vertex -9.673257e-02 -1.015873e+00 -1.638660e-01
   endloop
 endfacet
 facet normal  0.000000e+00 -1.000000e+00  0.000000e+00
   outer loop
     vertex  1.742864e-02 -1.015873e+00  1.377229e-02
     vertex -9.673257e-02 -1.015873e+00 -1.638660e-01
     vertex -7.666063e-02 -1.015873e+00 -1.687354e-01
   endloop
 endfacet
 facet normal  0.000000e+00 -1.000000e+00  0.000000e+00
   outer loop
     vertex  1.742864e-02 -1.015873e+00  1.377229e-02
     vertex -7.666063e-02 -1.015873e+00 -1.687354e-01
     vertex -5.602987e-02 -1.015873e+00 -1.697182e-01
   endloop
 endfacet
 facet normal  0.000000e+00 -1.000000e+00  0.000000e+00
   outer loop
     vertex  1.742864e-02 -1.015873e+00  1.377229e-02
     vertex -5.602987e-02 -1.015873e+00 -1.697182e-01
     vertex -3.558594e-02 -1.015873e+00 -1.667788e-01
   endloop
 endfacet
 facet normal  0.000000e+00 -1.000000e+00  0.000000e+00
   outer loop
     vertex  1.742864e-02 -1.015873e+00  1.377229e-02
     vertex -3.558594e-02 -1.015873e+00 -1.667788e-01
     vertex -1.606775e-02 -1.015873e+00 -1.600235e-01
   endloop
 endfacet
 facet normal  0.000000e+00 -1.000000e+00  0.000000e+00
   outer loop
     vertex  1.742864e-02 -1.015873e+00  1.377229e-02
     vertex -1.606775e-02 -1.015873e+00 -1.600235e-01
     vertex  1.819269e-03 -1.015873e+00 -1.496964e-01
   endloop
 endfacet
 facet normal  0.000000e+00 -1.000000e+00 -0.000000e+00
   outer loop
     vertex  1.742864e-02 -1.015873e+00  1.377229e-02
     vertex  1.819269e-03 -1.015873e+00 -1.496964e-01
     vertex  1.742864e-02 -1.015873e+00 -1.361708e-01
   endloop
 endfacet
 facet normal  0.000000e+00 -1.000000e+00  0.000000e+00
   outer loop
     vertex  1.742864e-02 -1.015873e+00  1.377229e-02
     vertex  1.742864e-02 -1.015873e+00 -1.361708e-01
     vertex  3.019619e-02 -1.015873e+00 -1.199355e-01
   endloop
 endfacet
 facet normal  0.000000e+00 -1.000000e+00  0.000000e+00
   outer loop
     vertex  1.742864e-02 -1.015873e+00  1.377229e-02
     vertex  3.019619e-02 -1.015873e+00 -1.199355e-01
     vertex  3.966047e-02 -1.015873e+00 -1.015774e-01
   endloop
 endfacet
 facet normal  0.000000e+00 -1.000000e+00  0.000000e+00
   outer loop
     vertex  1.742864e-02 -1.015873e+00  1.377229e-02
     vertex  3.966047e-02 -1.015873e+00 -1.015774e-01
     vertex  4.547941e-02 -1.015873e+00 -8.175989e-02
   endloop
 endfacet
 facet normal  0.000000e+00 -1.000000e+00  0.000000e+00
   outer loop
     vertex  1.742864e-02 -1.015873e+00  1.377229e-02
     vertex  4.547941e-02 -1.015873e+00 -8.175989e-02
     vertex  4.744272e-02 -1.015873e+00 -6.119926e-02
   endloop
 endfacet
 facet normal  9.936328e-01  1.126671e-01  0.000000e+00
   outer loop
     vertex -4.395660e-02 -9.127507e-01  4.606569e-02
     vertex -4.356258e-02 -9.162257e-01  2.222223e-01
     vertex -4.356258e-02 -9.162257e-01  4.600161e-02
   endloop
 endfacet
 facet normal  9.927089e-01  1.205367e-01  1.573083e-04
   outer loop
     vertex -4.395660e-02 -9.127507e-01  4.606569e-02
     vertex -4.401357e-02 -9.125115e-01  2.222223e-01
     vertex -4.356258e-02 -9.162257e-01  2.222223e-01
   endloop
 endfacet
 facet normal  9.350162e-01  3.546049e-01  3.048191e-04
   outer loop
     vertex -4.510831e-02 -9.094736e-01  4.624449e-02
     vertex -4.534033e-02 -9.090131e-01  2.222223e-01
     vertex -4.401357e-02 -9.125115e-01  2.222223e-01
   endloop
 endfacet
 facet normal  9.434321e-01  3.315658e-01 -1.452538e-04
   outer loop
     vertex -4.510831e-02 -9.094736e-01  4.624449e-02
     vertex -4.401357e-02 -9.125115e-01  2.222223e-01
     vertex -4.395660e-02 -9.127507e-01  4.606569e-02
   endloop
 endfacet
 facet normal  8.229838e-01  5.680647e-01  4.302014e-04
   outer loop
     vertex -4.695394e-02 -9.065423e-01  4.650473e-02
     vertex -4.746576e-02 -9.059339e-01  2.222223e-01
     vertex -4.534033e-02 -9.090131e-01  2.222223e-01
   endloop
 endfacet
 facet normal  8.462226e-01  5.328294e-01 -2.786477e-04
   outer loop
     vertex -4.695394e-02 -9.065423e-01  4.650473e-02
     vertex -4.534033e-02 -9.090131e-01  2.222223e-01
     vertex -4.510831e-02 -9.094736e-01  4.624449e-02
   endloop
 endfacet
 facet normal  6.631226e-01  7.485106e-01  5.272913e-04
   outer loop
     vertex -4.940383e-02 -9.040933e-01  4.680049e-02
     vertex -5.026633e-02 -9.034528e-01  2.222223e-01
     vertex -4.746576e-02 -9.059339e-01  2.222223e-01
   endloop
 endfacet
 facet normal  7.069524e-01  7.072611e-01 -3.897410e-04
   outer loop
     vertex -4.940383e-02 -9.040933e-01  4.680049e-02
     vertex -4.746576e-02 -9.059339e-01  2.222223e-01
     vertex -4.695394e-02 -9.065423e-01  4.650473e-02
   endloop
 endfacet
 facet normal  4.647231e-01  8.854559e-01  5.953210e-04
   outer loop
     vertex -5.233974e-02 -9.022468e-01  4.708088e-02
     vertex -5.357929e-02 -9.017140e-01  2.222223e-01
     vertex -5.026633e-02 -9.034528e-01  2.222223e-01
   endloop
 endfacet
 facet normal  5.323595e-01  8.465182e-01 -4.734999e-04
   outer loop
     vertex -5.233974e-02 -9.022468e-01  4.708088e-02
     vertex -5.026633e-02 -9.034528e-01  2.222223e-01
     vertex -4.940383e-02 -9.040933e-01  4.680049e-02
   endloop
 endfacet
 facet normal  2.393156e-01  9.709416e-01  6.354257e-04
   outer loop
     vertex -5.561128e-02 -9.010987e-01  4.729891e-02
     vertex -5.721210e-02 -9.008186e-01  2.222223e-01
     vertex -5.357929e-02 -9.017140e-01  2.222223e-01
   endloop
 endfacet
 facet normal  3.311137e-01  9.435907e-01 -5.271507e-04
   outer loop
     vertex -5.561128e-02 -9.010987e-01  4.729891e-02
     vertex -5.357929e-02 -9.017140e-01  2.222223e-01
     vertex -5.233974e-02 -9.022468e-01  4.708088e-02
   endloop
 endfacet
 facet normal  0.000000e+00  9.999998e-01  6.468437e-04
   outer loop
     vertex -5.902965e-02 -9.007055e-01  4.742105e-02
     vertex -6.095362e-02 -9.008186e-01  2.222223e-01
     vertex -5.721210e-02 -9.008186e-01  2.222223e-01
   endloop
 endfacet
 facet normal  1.142406e-01  9.934530e-01 -5.452494e-04
   outer loop
     vertex -5.902965e-02 -9.007055e-01  4.742105e-02
     vertex -5.721210e-02 -9.008186e-01  2.222223e-01
     vertex -5.561128e-02 -9.010987e-01  4.729891e-02
   endloop
 endfacet
 facet normal -2.393156e-01  9.709416e-01  6.236760e-04
   outer loop
     vertex -6.244791e-02 -9.010746e-01  4.743554e-02
     vertex -6.458643e-02 -9.017140e-01  2.222223e-01
     vertex -6.095362e-02 -9.008186e-01  2.222223e-01
   endloop
 endfacet
 facet normal -1.073585e-01  9.942202e-01 -5.385478e-04
   outer loop
     vertex -6.244791e-02 -9.010746e-01  4.743554e-02
     vertex -6.095362e-02 -9.008186e-01  2.222223e-01
     vertex -5.902965e-02 -9.007055e-01  4.742105e-02
   endloop
 endfacet
 facet normal -4.647231e-01  8.854559e-01  5.723214e-04
   outer loop
     vertex -6.572526e-02 -9.021987e-01  4.734840e-02
     vertex -6.789938e-02 -9.034528e-01  2.222223e-01
     vertex -6.458643e-02 -9.017140e-01  2.222223e-01
   endloop
 endfacet
 facet normal -3.244106e-01  9.459162e-01 -5.090069e-04
   outer loop
     vertex -6.572526e-02 -9.021987e-01  4.734840e-02
     vertex -6.458643e-02 -9.017140e-01  2.222223e-01
     vertex -6.244791e-02 -9.010746e-01  4.743554e-02
   endloop
 endfacet
 facet normal -6.631226e-01  7.485107e-01  4.926726e-04
   outer loop
     vertex -6.867297e-02 -9.040229e-01  4.718535e-02
     vertex -7.069996e-02 -9.059339e-01  2.222223e-01
     vertex -6.789938e-02 -9.034528e-01  2.222223e-01
   endloop
 endfacet
 facet normal -5.262231e-01  8.503464e-01 -4.440650e-04
   outer loop
     vertex -6.867297e-02 -9.040229e-01  4.718535e-02
     vertex -6.789938e-02 -9.034528e-01  2.222223e-01
     vertex -6.572526e-02 -9.021987e-01  4.734840e-02
   endloop
 endfacet
 facet normal -7.017448e-01  7.124283e-01 -3.485129e-04
   outer loop
     vertex -7.113987e-02 -9.064529e-01  4.698699e-02
     vertex -7.069996e-02 -9.059339e-01  2.222223e-01
     vertex -6.867297e-02 -9.040229e-01  4.718535e-02
   endloop
 endfacet
 facet normal -8.229838e-01  5.680647e-01  3.834406e-04
   outer loop
     vertex -7.113987e-02 -9.064529e-01  4.698699e-02
     vertex -7.282539e-02 -9.090131e-01  2.222223e-01
     vertex -7.069996e-02 -9.059339e-01  2.222223e-01
   endloop
 endfacet
 facet normal -8.422430e-01  5.390980e-01 -2.250076e-04
   outer loop
     vertex -7.300654e-02 -9.093693e-01  4.679920e-02
     vertex -7.282539e-02 -9.090131e-01  2.222223e-01
     vertex -7.113987e-02 -9.064529e-01  4.698699e-02
   endloop
 endfacet
 facet normal -9.350162e-01  3.546049e-01  2.454613e-04
   outer loop
     vertex -7.300654e-02 -9.093693e-01  4.679920e-02
     vertex -7.415215e-02 -9.125115e-01  2.222223e-01
     vertex -7.282539e-02 -9.090131e-01  2.222223e-01
   endloop
 endfacet
 facet normal -9.409082e-01  3.386616e-01 -7.858902e-05
   outer loop
     vertex -7.418228e-02 -9.126359e-01  4.666417e-02
     vertex -7.415215e-02 -9.125115e-01  2.222223e-01
     vertex -7.300654e-02 -9.093693e-01  4.679920e-02
   endloop
 endfacet
 facet normal -9.927089e-01  1.205367e-01  8.492784e-05
   outer loop
     vertex -7.418228e-02 -9.126359e-01  4.666417e-02
     vertex -7.460314e-02 -9.162257e-01  2.222223e-01
     vertex -7.415215e-02 -9.125115e-01  2.222223e-01
   endloop
 endfacet
 facet normal -9.927355e-01  1.203170e-01  8.037184e-05
   outer loop
     vertex -7.460267e-02 -9.161045e-01  4.661274e-02
     vertex -7.460314e-02 -9.162257e-01  2.222223e-01
     vertex -7.418228e-02 -9.126359e-01  4.666417e-02
   endloop
 endfacet
 facet normal -9.944865e-01 -1.048648e-01 -7.506181e-05
   outer loop
     vertex -7.423606e-02 -9.195813e-01  4.665769e-02
     vertex -7.460314e-02 -9.162257e-01  2.222223e-01
     vertex -7.460267e-02 -9.161045e-01  4.661274e-02
   endloop
 endfacet
 facet normal -9.927088e-01 -1.205367e-01  2.281887e-04
   outer loop
     vertex -7.423606e-02 -9.195813e-01  4.665769e-02
     vertex -7.415215e-02 -9.199400e-01  2.222223e-01
     vertex -7.460314e-02 -9.162257e-01  2.222223e-01
   endloop
 endfacet
 facet normal -9.460268e-01 -3.240883e-01 -2.100082e-04
   outer loop
     vertex -7.311059e-02 -9.228666e-01  4.678777e-02
     vertex -7.415215e-02 -9.199400e-01  2.222223e-01
     vertex -7.423606e-02 -9.195813e-01  4.665769e-02
   endloop
 endfacet
 facet normal -9.350162e-01 -3.546049e-01  3.644529e-04
   outer loop
     vertex -7.311059e-02 -9.228666e-01  4.678777e-02
     vertex -7.282539e-02 -9.234384e-01  2.222223e-01
     vertex -7.415215e-02 -9.199400e-01  2.222223e-01
   endloop
 endfacet
 facet normal -8.504463e-01 -5.260618e-01 -3.317822e-04
   outer loop
     vertex -7.128892e-02 -9.258117e-01  4.697319e-02
     vertex -7.282539e-02 -9.234384e-01  2.222223e-01
     vertex -7.311059e-02 -9.228666e-01  4.678777e-02
   endloop
 endfacet
 facet normal -8.229838e-01 -5.680647e-01  4.778287e-04
   outer loop
     vertex -7.128892e-02 -9.258117e-01  4.697319e-02
     vertex -7.069996e-02 -9.265176e-01  2.222223e-01
     vertex -7.282539e-02 -9.234384e-01  2.222223e-01
   endloop
 endfacet
 facet normal -7.126328e-01 -7.015371e-01 -4.306156e-04
   outer loop
     vertex -6.885989e-02 -9.282793e-01  4.717229e-02
     vertex -7.069996e-02 -9.265176e-01  2.222223e-01
     vertex -7.128892e-02 -9.258117e-01  4.697319e-02
   endloop
 endfacet
 facet normal -6.631226e-01 -7.485106e-01  5.625639e-04
   outer loop
     vertex -6.885989e-02 -9.282793e-01  4.717229e-02
     vertex -6.789938e-02 -9.289987e-01  2.222223e-01
     vertex -7.069996e-02 -9.265176e-01  2.222223e-01
   endloop
 endfacet
 facet normal -5.392683e-01 -8.421339e-01 -5.017797e-04
   outer loop
     vertex -6.594085e-02 -9.301486e-01  4.733920e-02
     vertex -6.789938e-02 -9.289987e-01  2.222223e-01
     vertex -6.885989e-02 -9.282793e-01  4.717229e-02
   endloop
 endfacet
 facet normal -4.647231e-01 -8.854559e-01  6.179317e-04
   outer loop
     vertex -6.594085e-02 -9.301486e-01  4.733920e-02
     vertex -6.458643e-02 -9.307374e-01  2.222223e-01
     vertex -6.789938e-02 -9.289987e-01  2.222223e-01
   endloop
 endfacet
 facet normal -3.389442e-01 -9.408063e-01 -5.425466e-04
   outer loop
     vertex -6.268063e-02 -9.313232e-01  4.743262e-02
     vertex -6.458643e-02 -9.307374e-01  2.222223e-01
     vertex -6.594085e-02 -9.301486e-01  4.733920e-02
   endloop
 endfacet
 facet normal -2.393156e-01 -9.709416e-01  6.447415e-04
   outer loop
     vertex -6.268063e-02 -9.313232e-01  4.743262e-02
     vertex -6.095362e-02 -9.316328e-01  2.222223e-01
     vertex -6.458643e-02 -9.307374e-01  2.222223e-01
   endloop
 endfacet
 facet normal -1.225342e-01 -9.924641e-01 -5.472350e-04
   outer loop
     vertex -5.926512e-02 -9.317449e-01  4.742550e-02
     vertex -6.095362e-02 -9.316328e-01  2.222223e-01
     vertex -6.268063e-02 -9.313232e-01  4.743262e-02
   endloop
 endfacet
 facet normal -2.967433e-14 -9.999998e-01  6.412564e-04
   outer loop
     vertex -5.926512e-02 -9.317449e-01  4.742550e-02
     vertex -5.721210e-02 -9.316328e-01  2.222223e-01
     vertex -6.095362e-02 -9.316328e-01  2.222223e-01
   endloop
 endfacet
 facet normal  9.904868e-02 -9.950825e-01 -5.252422e-04
   outer loop
     vertex -5.584451e-02 -9.314044e-01  4.731067e-02
     vertex -5.721210e-02 -9.316328e-01  2.222223e-01
     vertex -5.926512e-02 -9.317449e-01  4.742550e-02
   endloop
 endfacet
 facet normal  2.393156e-01 -9.709416e-01  6.029953e-04
   outer loop
     vertex -5.584451e-02 -9.314044e-01  4.731067e-02
     vertex -5.357929e-02 -9.307374e-01  2.222223e-01
     vertex -5.721210e-02 -9.316328e-01  2.222223e-01
   endloop
 endfacet
 facet normal  4.647231e-01 -8.854559e-01  5.385130e-04
   outer loop
     vertex -5.255631e-02 -9.303070e-01  4.709838e-02
     vertex -5.026633e-02 -9.289987e-01  2.222223e-01
     vertex -5.357929e-02 -9.307374e-01  2.222223e-01
   endloop
 endfacet
 facet normal  3.165329e-01 -9.485814e-01 -4.822816e-04
   outer loop
     vertex -5.255631e-02 -9.303070e-01  4.709838e-02
     vertex -5.357929e-02 -9.307374e-01  2.222223e-01
     vertex -5.584451e-02 -9.314044e-01  4.731067e-02
   endloop
 endfacet
 facet normal  5.192421e-01 -8.546271e-01 -4.047208e-04
   outer loop
     vertex -4.959206e-02 -9.285059e-01  4.682089e-02
     vertex -5.026633e-02 -9.289987e-01  2.222223e-01
     vertex -5.255631e-02 -9.303070e-01  4.709838e-02
   endloop
 endfacet
 facet normal  6.631226e-01 -7.485107e-01  4.464807e-04
   outer loop
     vertex -4.959206e-02 -9.285059e-01  4.682089e-02
     vertex -4.746576e-02 -9.265176e-01  2.222223e-01
     vertex -5.026633e-02 -9.289987e-01  2.222223e-01
   endloop
 endfacet
 facet normal  8.229838e-01 -5.680647e-01  3.251664e-04
   outer loop
     vertex -4.710454e-02 -9.260948e-01  4.652455e-02
     vertex -4.534033e-02 -9.234384e-01  2.222223e-01
     vertex -4.746576e-02 -9.265176e-01  2.222223e-01
   endloop
 endfacet
 facet normal  6.959740e-01 -7.180669e-01 -2.968719e-04
   outer loop
     vertex -4.710454e-02 -9.260948e-01  4.652455e-02
     vertex -4.746576e-02 -9.265176e-01  2.222223e-01
     vertex -4.959206e-02 -9.285059e-01  4.682089e-02
   endloop
 endfacet
 facet normal  9.350162e-01 -3.546049e-01  1.754037e-04
   outer loop
     vertex -4.521409e-02 -9.231925e-01  4.626028e-02
     vertex -4.401357e-02 -9.199400e-01  2.222223e-01
     vertex -4.534033e-02 -9.234384e-01  2.222223e-01
   endloop
 endfacet
 facet normal  8.379145e-01 -5.458016e-01 -1.613641e-04
   outer loop
     vertex -4.521409e-02 -9.231925e-01  4.626028e-02
     vertex -4.534033e-02 -9.234384e-01  2.222223e-01
     vertex -4.710454e-02 -9.260948e-01  4.652455e-02
   endloop
 endfacet
 facet normal  9.381977e-01 -3.460999e-01 -3.512785e-06
   outer loop
     vertex -4.401224e-02 -9.199346e-01  4.607462e-02
     vertex -4.401357e-02 -9.199400e-01  2.222223e-01
     vertex -4.521409e-02 -9.231925e-01  4.626028e-02
   endloop
 endfacet
 facet normal  9.927087e-01 -1.205367e-01  6.422429e-04
   outer loop
     vertex -4.367594e-02 -9.180982e-01  4.602020e-02
     vertex -4.356258e-02 -9.162257e-01  2.222223e-01
     vertex -4.401357e-02 -9.199400e-01  2.222223e-01
   endloop
 endfacet
 facet normal  9.836415e-01 -1.801369e-01  1.891981e-06
   outer loop
     vertex -4.367594e-02 -9.180982e-01  4.602020e-02
     vertex -4.401357e-02 -9.199400e-01  2.222223e-01
     vertex -4.401224e-02 -9.199346e-01  4.607462e-02
   endloop
 endfacet
 facet normal  9.981723e-01 -6.043177e-02  0.000000e+00
   outer loop
     vertex -4.356258e-02 -9.162257e-01  4.600161e-02
     vertex -4.356258e-02 -9.162257e-01  2.222223e-01
     vertex -4.367594e-02 -9.180982e-01  4.602020e-02
   endloop
 endfacet
 facet normal  0.000000e+00  1.000000e+00  0.000000e+00
   outer loop
     vertex  1.742864e-02  6.591949e-17  1.377229e-02
     vertex  4.547941e-02  6.591949e-17 -4.063863e-02
     vertex  4.744272e-02  6.591949e-17 -6.119926e-02
   endloop
 endfacet
 facet normal  0.000000e+00  1.000000e+00  0.000000e+00
   outer loop
     vertex  1.742864e-02  6.591949e-17  1.377229e-02
     vertex  3.966047e-02  6.591949e-17 -2.082112e-02
     vertex  4.547941e-02  6.591949e-17 -4.063863e-02
   endloop
 endfacet
 facet normal  0.000000e+00  1.000000e+00  0.000000e+00
   outer loop
     vertex  1.742864e-02  6.591949e-17  1.377229e-02
     vertex  3.019619e-02  6.591949e-17 -2.462973e-03
     vertex  3.966047e-02  6.591949e-17 -2.082112e-02
   endloop
 endfacet
 facet normal  0.000000e+00  1.000000e+00  0.000000e+00
   outer loop
     vertex  1.742864e-02  6.591949e-17  1.377229e-02
     vertex -1.606775e-02  6.591949e-17  3.762496e-02
     vertex  1.819269e-03  6.591949e-17  2.729788e-02
   endloop
 endfacet
 facet normal  0.000000e+00  1.000000e+00  0.000000e+00
   outer loop
     vertex  1.742864e-02  6.591949e-17  1.377229e-02
     vertex -3.558594e-02  6.591949e-17  4.438027e-02
     vertex -1.606775e-02  6.591949e-17  3.762496e-02
   endloop
 endfacet
 facet normal  0.000000e+00  1.000000e+00  0.000000e+00
   outer loop
     vertex  1.742864e-02  6.591949e-17  1.377229e-02
     vertex -5.602987e-02  6.591949e-17  4.731966e-02
     vertex -3.558594e-02  6.591949e-17  4.438027e-02
   endloop
 endfacet
 facet normal  0.000000e+00  1.000000e+00  0.000000e+00
   outer loop
     vertex  1.742864e-02  6.591949e-17  1.377229e-02
     vertex -7.666063e-02  6.591949e-17  4.633690e-02
     vertex -5.602987e-02  6.591949e-17  4.731966e-02
   endloop
 endfacet
 facet normal  0.000000e+00  1.000000e+00  0.000000e+00
   outer loop
     vertex  1.742864e-02  6.591949e-17  1.377229e-02
     vertex -9.673257e-02  6.591949e-17  4.146750e-02
     vertex -7.666063e-02  6.591949e-17  4.633690e-02
   endloop
 endfacet
 facet normal  0.000000e+00  1.000000e+00  0.000000e+00
   outer loop
     vertex  1.742864e-02  6.591949e-17  1.377229e-02
     vertex -1.155203e-01  6.591949e-17  3.288745e-02
     vertex -9.673257e-02  6.591949e-17  4.146750e-02
   endloop
 endfacet
 facet normal  0.000000e+00  1.000000e+00  0.000000e+00
   outer loop
     vertex  1.742864e-02  6.591949e-17  1.377229e-02
     vertex -1.323446e-01  6.591949e-17  2.090687e-02
     vertex -1.155203e-01  6.591949e-17  3.288745e-02
   endloop
 endfacet
 facet normal  0.000000e+00  1.000000e+00  0.000000e+00
   outer loop
     vertex  1.742864e-02  6.591949e-17  1.377229e-02
     vertex -1.465976e-01  6.591949e-17  5.958754e-03
     vertex -1.323446e-01  6.591949e-17  2.090687e-02
   endloop
 endfacet
 facet normal  0.000000e+00  1.000000e+00  0.000000e+00
   outer loop
     vertex  1.742864e-02  6.591949e-17  1.377229e-02
     vertex -1.577641e-01  6.591949e-17 -1.141663e-02
     vertex -1.465976e-01  6.591949e-17  5.958754e-03
   endloop
 endfacet
 facet normal  0.000000e+00  1.000000e+00  0.000000e+00
   outer loop
     vertex  1.742864e-02  6.591949e-17  1.377229e-02
     vertex -1.654405e-01  6.591949e-17 -3.059128e-02
     vertex -1.577641e-01  6.591949e-17 -1.141663e-02
   endloop
 endfacet
 facet normal  0.000000e+00  1.000000e+00  0.000000e+00
   outer loop
     vertex  1.742864e-02  6.591949e-17  1.377229e-02
     vertex -1.693493e-01  6.591949e-17 -5.087218e-02
     vertex -1.654405e-01  6.591949e-17 -3.059128e-02
   endloop
 endfacet
 facet normal  0.000000e+00  1.000000e+00  0.000000e+00
   outer loop
     vertex  1.742864e-02  6.591949e-17  1.377229e-02
     vertex -1.693493e-01  6.591949e-17 -7.152634e-02
     vertex -1.693493e-01  6.591949e-17 -5.087218e-02
   endloop
 endfacet
 facet normal  0.000000e+00  1.000000e+00  0.000000e+00
   outer loop
     vertex  1.742864e-02  6.591949e-17  1.377229e-02
     vertex -1.654405e-01  6.591949e-17 -9.180724e-02
     vertex -1.693493e-01  6.591949e-17 -7.152634e-02
   endloop
 endfacet
 facet normal  0.000000e+00  1.000000e+00  0.000000e+00
   outer loop
     vertex  1.742864e-02  6.591949e-17  1.377229e-02
     vertex -1.577641e-01  6.591949e-17 -1.109819e-01
     vertex -1.654405e-01  6.591949e-17 -9.180724e-02
   endloop
 endfacet
 facet normal  0.000000e+00  1.000000e+00  0.000000e+00
   outer loop
     vertex  1.742864e-02  6.591949e-17  1.377229e-02
     vertex -1.465976e-01  6.591949e-17 -1.283573e-01
     vertex -1.577641e-01  6.591949e-17 -1.109819e-01
   endloop
 endfacet
 facet normal  0.000000e+00  1.000000e+00  0.000000e+00
   outer loop
     vertex  1.742864e-02  6.591949e-17  1.377229e-02
     vertex -1.323446e-01  6.591949e-17 -1.433054e-01
     vertex -1.465976e-01  6.591949e-17 -1.283573e-01
   endloop
 endfacet
 facet normal  0.000000e+00  1.000000e+00  0.000000e+00
   outer loop
     vertex  1.742864e-02  6.591949e-17  1.377229e-02
     vertex -1.155203e-01  6.591949e-17 -1.552860e-01
     vertex -1.323446e-01  6.591949e-17 -1.433054e-01
   endloop
 endfacet
 facet normal  0.000000e+00  1.000000e+00  0.000000e+00
   outer loop
     vertex  1.742864e-02  6.591949e-17  1.377229e-02
     vertex -9.673257e-02  6.591949e-17 -1.638660e-01
     vertex -1.155203e-01  6.591949e-17 -1.552860e-01
   endloop
 endfacet
 facet normal  0.000000e+00  1.000000e+00  0.000000e+00
   outer loop
     vertex  1.742864e-02  6.591949e-17  1.377229e-02
     vertex -7.666063e-02  6.591949e-17 -1.687354e-01
     vertex -9.673257e-02  6.591949e-17 -1.638660e-01
   endloop
 endfacet
 facet normal  0.000000e+00  1.000000e+00  0.000000e+00
   outer loop
     vertex  1.742864e-02  6.591949e-17  1.377229e-02
     vertex -5.602987e-02  6.591949e-17 -1.697182e-01
     vertex -7.666063e-02  6.591949e-17 -1.687354e-01
   endloop
 endfacet
 facet normal  0.000000e+00  1.000000e+00  0.000000e+00
   outer loop
     vertex  1.742864e-02  6.591949e-17  1.377229e-02
     vertex -3.558594e-02  6.591949e-17 -1.667788e-01
     vertex -5.602987e-02  6.591949e-17 -1.697182e-01
   endloop
 endfacet
 facet normal  0.000000e+00  1.000000e+00  0.000000e+00
   outer loop
     vertex  1.742864e-02  6.591949e-17  1.377229e-02
     vertex -1.606775e-02  6.591949e-17 -1.600235e-01
     vertex -3.558594e-02  6.591949e-17 -1.667788e-01
   endloop
 endfacet
 facet normal  0.000000e+00  1.000000e+00  0.000000e+00
   outer loop
     vertex  1.742864e-02  6.591949e-17  1.377229e-02
     vertex  1.819269e-03  6.591949e-17 -1.496964e-01
     vertex -1.606775e-02  6.591949e-17 -1.600235e-01
   endloop
 endfacet
 facet normal  0.000000e+00  1.000000e+00  0.000000e+00
   outer loop
     vertex  1.742864e-02  6.591949e-17  1.377229e-02
     vertex  1.742864e-02  6.591949e-17 -1.361708e-01
     vertex  1.819269e-03  6.591949e-17 -1.496964e-01
   endloop
 endfacet
 facet normal  0.000000e+00  1.000000e+00  0.000000e+00
   outer loop
     vertex  1.742864e-02  6.591949e-17  1.377229e-02
     vertex  3.019619e-02  6.591949e-17 -1.199355e-01
     vertex  1.742864e-02  6.591949e-17 -1.361708e-01
   endloop
 endfacet
 facet normal  0.000000e+00  1.000000e+00  0.000000e+00
   outer loop
     vertex  1.742864e-02  6.591949e-17  1.377229e-02
     vertex  3.966047e-02  6.591949e-17 -1.015774e-01
     vertex  3.019619e-02  6.591949e-17 -1.199355e-01
   endloop
 endfacet
 facet normal  0.000000e+00  1.000000e+00  0.000000e+00
   outer loop
     vertex  1.742864e-02  6.591949e-17  1.377229e-02
     vertex  4.547941e-02  6.591949e-17 -8.175989e-02
     vertex  3.966047e-02  6.591949e-17 -1.015774e-01
   endloop
 endfacet
 facet normal  0.000000e+00  1.000000e+00  0.000000e+00
   outer loop
     vertex  1.742864e-02  6.591949e-17  1.377229e-02
     vertex  4.744272e-02  6.591949e-17 -6.119926e-02
     vertex  4.547941e-02  6.591949e-17 -8.175989e-02
   endloop
 endfacet
 facet normal  0.000000e+00  0.000000e+00  1.000000e+00
   outer loop
     vertex -4.746576e-02 -9.059339e-01  2.222223e-01
     vertex -4.356258e-02 -9.162257e-01  2.222223e-01
     vertex -4.401357e-02 -9.125115e-01  2.222223e-01
   endloop
 endfacet
 facet normal  0.000000e+00  0.000000e+00  1.000000e+00
   outer loop
     vertex -4.746576e-02 -9.059339e-01  2.222223e-01
     vertex -4.401357e-02 -9.125115e-01  2.222223e-01
     vertex -4.534033e-02 -9.090131e-01  2.222223e-01
   endloop
 endfacet
 facet normal  0.000000e+00  0.000000e+00  1.000000e+00
   outer loop
     vertex -4.746576e-02 -9.059339e-01  2.222223e-01
     vertex -5.026633e-02 -9.034528e-01  2.222223e-01
     vertex -5.357929e-02 -9.017140e-01  2.222223e-01
   endloop
 endfacet
 facet normal  0.000000e+00  0.000000e+00  1.000000e+00
   outer loop
     vertex -4.746576e-02 -9.059339e-01  2.222223e-01
     vertex -5.357929e-02 -9.017140e-01  2.222223e-01
     vertex -5.721210e-02 -9.008186e-01  2.222223e-01
   endloop
 endfacet
 facet normal  0.000000e+00  0.000000e+00  1.000000e+00
   outer loop
     vertex -4.746576e-02 -9.059339e-01  2.222223e-01
     vertex -5.721210e-02 -9.008186e-01  2.222223e-01
     vertex -6.095362e-02 -9.008186e-01  2.222223e-01
   endloop
 endfacet
 facet normal  0.000000e+00  0.000000e+00  1.000000e+00
   outer loop
     vertex -4.746576e-02 -9.059339e-01  2.222223e-01
     vertex -6.095362e-02 -9.008186e-01  2.222223e-01
     vertex -6.458643e-02 -9.017140e-01  2.222223e-01
   endloop
 endfacet
 facet normal  0.000000e+00  0.000000e+00  1.000000e+00
   outer loop
     vertex -4.746576e-02 -9.059339e-01  2.222223e-01
     vertex -6.458643e-02 -9.017140e-01  2.222223e-01
     vertex -6.789938e-02 -9.034528e-01  2.222223e-01
   endloop
 endfacet
 facet normal  0.000000e+00  0.000000e+00  1.000000e+00
   outer loop
     vertex -4.746576e-02 -9.059339e-01  2.222223e-01
     vertex -6.789938e-02 -9.034528e-01  2.222223e-01
     vertex -7.069996e-02 -9.059339e-01  2.222223e-01
   endloop
 endfacet
 facet normal  0.000000e+00  0.000000e+00  1.000000e+00
   outer loop
     vertex -4.746576e-02 -9.059339e-01  2.222223e-01
     vertex -7.069996e-02 -9.059339e-01  2.222223e-01
     vertex -7.282539e-02 -9.090131e-01  2.222223e-01
   endloop
 endfacet
 facet normal  0.000000e+00  0.000000e+00  1.000000e+00
   outer loop
     vertex -4.746576e-02 -9.059339e-01  2.222223e-01
     vertex -7.282539e-02 -9.090131e-01  2.222223e-01
     vertex -7.415215e-02 -9.125115e-01  2.222223e-01
   endloop
 endfacet
 facet normal  0.000000e+00  0.000000e+00  1.000000e+00
   outer loop
     vertex -4.746576e-02 -9.059339e-01  2.222223e-01
     vertex -7.415215e-02 -9.125115e-01  2.222223e-01
     vertex -7.460314e-02 -9.162257e-01  2.222223e-01
   endloop
 endfacet
 facet normal  0.000000e+00  0.000000e+00  1.000000e+00
   outer loop
     vertex -4.746576e-02 -9.059339e-01  2.222223e-01
     vertex -7.460314e-02 -9.162257e-01  2.222223e-01
     vertex -7.415215e-02 -9.199400e-01  2.222223e-01
   endloop
 endfacet
 facet normal  0.000000e+00  0.000000e+00  1.000000e+00
   outer loop
     vertex -4.746576e-02 -9.059339e-01  2.222223e-01
     vertex -7.415215e-02 -9.199400e-01  2.222223e-01
     vertex -7.282539e-02 -9.234384e-01  2.222223e-01
   endloop
 endfacet
 facet normal  0.000000e+00  0.000000e+00  1.000000e+00
   outer loop
     vertex -4.746576e-02 -9.059339e-01  2.222223e-01
     vertex -7.282539e-02 -9.234384e-01  2.222223e-01
     vertex -7.069996e-02 -9.265176e-01  2.222223e-01
   endloop
 endfacet
 facet normal  0.000000e+00  0.000000e+00  1.000000e+00
   outer loop
     vertex -4.746576e-02 -9.059339e-01  2.222223e-01
     vertex -7.069996e-02 -9.265176e-01  2.222223e-01
     vertex -6.789938e-02 -9.289987e-01  2.222223e-01
   endloop
 endfacet
 facet normal  0.000000e+00  0.000000e+00  1.000000e+00
   outer loop
     vertex -4.746576e-02 -9.059339e-01  2.222223e-01
     vertex -6.789938e-02 -9.289987e-01  2.222223e-01
     vertex -6.458643e-02 -9.307374e-01  2.222223e-01
   endloop
 endfacet
 facet normal  0.000000e+00  0.000000e+00  1.000000e+00
   outer loop
     vertex -4.746576e-02 -9.059339e-01  2.222223e-01
     vertex -6.458643e-02 -9.307374e-01  2.222223e-01
     vertex -6.095362e-02 -9.316328e-01  2.222223e-01
   endloop
 endfacet
 facet normal  0.000000e+00  0.000000e+00  1.000000e+00
   outer loop
     vertex -4.746576e-02 -9.059339e-01  2.222223e-01
     vertex -6.095362e-02 -9.316328e-01  2.222223e-01
     vertex -5.721210e-02 -9.316328e-01  2.222223e-01
   endloop
 endfacet
 facet normal  0.000000e+00  0.000000e+00  1.000000e+00
   outer loop
     vertex -4.746576e-02 -9.059339e-01  2.222223e-01
     vertex -5.721210e-02 -9.316328e-01  2.222223e-01
     vertex -5.357929e-02 -9.307374e-01  2.222223e-01
   endloop
 endfacet
 facet normal  0.000000e+00  0.000000e+00  1.000000e+00
   outer loop
     vertex -4.746576e-02 -9.059339e-01  2.222223e-01
     vertex -5.357929e-02 -9.307374e-01  2.222223e-01
     vertex -5.026633e-02 -9.289987e-01  2.222223e-01
   endloop
 endfacet
 facet normal  0.000000e+00  0.000000e+00  1.000000e+00
   outer loop
     vertex -4.746576e-02 -9.059339e-01  2.222223e-01
     vertex -5.026633e-02 -9.289987e-01  2.222223e-01
     vertex -4.746576e-02 -9.265176e-01  2.222223e-01
   endloop
 endfacet
 facet normal  0.000000e+00  0.000000e+00  1.000000e+00
   outer loop
     vertex -4.746576e-02 -9.059339e-01  2.222223e-01
     vertex -4.746576e-02 -9.265176e-01  2.222223e-01
     vertex -4.534033e-02 -9.234384e-01  2.222223e-01
   endloop
 endfacet
 facet normal  0.000000e+00  0.000000e+00  1.000000e+00
   outer loop
     vertex -4.746576e-02 -9.059339e-01  2.222223e-01
     vertex -4.534033e-02 -9.234384e-01  2.222223e-01
     vertex -4.401357e-02 -9.199400e-01  2.222223e-01
   endloop
 endfacet
 facet normal  0.000000e+00  0.000000e+00  1.000000e+00
   outer loop
     vertex -4.746576e-02 -9.059339e-01  2.222223e-01
     vertex -4.401357e-02 -9.199400e-01  2.222223e-01
     vertex -4.356258e-02 -9.162257e-01  2.222223e-01
   endloop
 endfacet
endsolid
