solid 
 facet normal -9.972038e-01 -7.473026e-02  0.000000e+00
   outer loop
     vertex -3.774739e-01 -5.962622e-02 -1.587302e-02
     vertex -3.793650e-01 -3.439155e-02  1.269842e-01
     vertex -3.793650e-01 -3.439155e-02 -1.587302e-02
   endloop
 endfacet
 facet normal -9.972038e-01 -7.473026e-02  0.000000e+00
   outer loop
     vertex -3.774739e-01 -5.962622e-02 -1.587302e-02
     vertex -3.774739e-01 -5.962622e-02  1.269842e-01
     vertex -3.793650e-01 -3.439155e-02  1.269842e-01
   endloop
 endfacet
 facet normal -9.749279e-01 -2.225211e-01  0.000000e+00
   outer loop
     vertex -3.718430e-01 -8.429719e-02 -1.587302e-02
     vertex -3.718430e-01 -8.429719e-02  1.269842e-01
     vertex -3.774739e-01 -5.962622e-02  1.269842e-01
   endloop
 endfacet
 facet normal -9.749279e-01 -2.225211e-01  0.000000e+00
   outer loop
     vertex -3.718430e-01 -8.429719e-02 -1.587302e-02
     vertex -3.774739e-01 -5.962622e-02  1.269842e-01
     vertex -3.774739e-01 -5.962622e-02 -1.587302e-02
   endloop
 endfacet
 facet normal -9.308737e-01 -3.653411e-01  0.000000e+00
   outer loop
     vertex -3.625978e-01 -1.078533e-01 -1.587302e-02
     vertex -3.625978e-01 -1.078533e-01  1.269842e-01
     vertex -3.718430e-01 -8.429719e-02  1.269842e-01
   endloop
 endfacet
 facet normal -9.308737e-01 -3.653411e-01  0.000000e+00
   outer loop
     vertex -3.625978e-01 -1.078533e-01 -1.587302e-02
     vertex -3.718430e-01 -8.429719e-02  1.269842e-01
     vertex -3.718430e-01 -8.429719e-02 -1.587302e-02
   endloop
 endfacet
 facet normal -8.660253e-01 -5.000001e-01  0.000000e+00
   outer loop
     vertex -3.499451e-01 -1.297685e-01 -1.587302e-02
     vertex -3.499451e-01 -1.297685e-01  1.269842e-01
     vertex -3.625978e-01 -1.078533e-01  1.269842e-01
   endloop
 endfacet
 facet normal -8.660253e-01 -5.000001e-01  0.000000e+00
   outer loop
     vertex -3.499451e-01 -1.297685e-01 -1.587302e-02
     vertex -3.625978e-01 -1.078533e-01  1.269842e-01
     vertex -3.625978e-01 -1.078533e-01 -1.587302e-02
   endloop
 endfacet
 facet normal -7.818314e-01 -6.234899e-01  0.000000e+00
   outer loop
     vertex -3.341674e-01 -1.495531e-01 -1.587302e-02
     vertex -3.341674e-01 -1.495531e-01  1.269842e-01
     vertex -3.499451e-01 -1.297685e-01  1.269842e-01
   endloop
 endfacet
 facet normal -7.818314e-01 -6.234899e-01  0.000000e+00
   outer loop
     vertex -3.341674e-01 -1.495531e-01 -1.587302e-02
     vertex -3.499451e-01 -1.297685e-01  1.269842e-01
     vertex -3.499451e-01 -1.297685e-01 -1.587302e-02
   endloop
 endfacet
 facet normal -6.801727e-01 -7.330519e-01  0.000000e+00
   outer loop
     vertex -3.156173e-01 -1.667651e-01 -1.587302e-02
     vertex -3.156173e-01 -1.667651e-01  1.269842e-01
     vertex -3.341674e-01 -1.495531e-01  1.269842e-01
   endloop
 endfacet
 facet normal -6.801727e-01 -7.330519e-01  0.000000e+00
   outer loop
     vertex -3.156173e-01 -1.667651e-01 -1.587302e-02
     vertex -3.341674e-01 -1.495531e-01  1.269842e-01
     vertex -3.341674e-01 -1.495531e-01 -1.587302e-02
   endloop
 endfacet
 facet normal -5.633200e-01 -8.262388e-01  0.000000e+00
   outer loop
     vertex -2.947089e-01 -1.810202e-01 -1.587302e-02
     vertex -2.947089e-01 -1.810202e-01  1.269842e-01
     vertex -3.156173e-01 -1.667651e-01  1.269842e-01
   endloop
 endfacet
 facet normal -5.633200e-01 -8.262388e-01  0.000000e+00
   outer loop
     vertex -2.947089e-01 -1.810202e-01 -1.587302e-02
     vertex -3.156173e-01 -1.667651e-01  1.269842e-01
     vertex -3.156173e-01 -1.667651e-01 -1.587302e-02
   endloop
 endfacet
 facet normal -4.338837e-01 -9.009689e-01  0.000000e+00
   outer loop
     vertex -2.719095e-01 -1.919998e-01 -1.587302e-02
     vertex -2.719095e-01 -1.919998e-01  1.269842e-01
     vertex -2.947089e-01 -1.810202e-01  1.269842e-01
   endloop
 endfacet
 facet normal -4.338837e-01 -9.009689e-01  0.000000e+00
   outer loop
     vertex -2.719095e-01 -1.919998e-01 -1.587302e-02
     vertex -2.947089e-01 -1.810202e-01  1.269842e-01
     vertex -2.947089e-01 -1.810202e-01 -1.587302e-02
   endloop
 endfacet
 facet normal -2.947551e-01 -9.555728e-01  0.000000e+00
   outer loop
     vertex -2.477283e-01 -1.994587e-01 -1.587302e-02
     vertex -2.477283e-01 -1.994587e-01  1.269842e-01
     vertex -2.719095e-01 -1.919998e-01  1.269842e-01
   endloop
 endfacet
 facet normal -2.947551e-01 -9.555728e-01  0.000000e+00
   outer loop
     vertex -2.477283e-01 -1.994587e-01 -1.587302e-02
     vertex -2.719095e-01 -1.919998e-01  1.269842e-01
     vertex -2.719095e-01 -1.919998e-01 -1.587302e-02
   endloop
 endfacet
 facet normal -1.490422e-01 -9.888308e-01  0.000000e+00
   outer loop
     vertex -2.227056e-01 -2.032303e-01 -1.587302e-02
     vertex -2.227056e-01 -2.032303e-01  1.269842e-01
     vertex -2.477283e-01 -1.994587e-01  1.269842e-01
   endloop
 endfacet
 facet normal -1.490422e-01 -9.888308e-01  0.000000e+00
   outer loop
     vertex -2.227056e-01 -2.032303e-01 -1.587302e-02
     vertex -2.477283e-01 -1.994587e-01  1.269842e-01
     vertex -2.477283e-01 -1.994587e-01 -1.587302e-02
   endloop
 endfacet
 facet normal  1.096823e-15 -1.000000e+00  0.000000e+00
   outer loop
     vertex -1.974001e-01 -2.032303e-01 -1.587302e-02
     vertex -1.974001e-01 -2.032303e-01  1.269842e-01
     vertex -2.227056e-01 -2.032303e-01  1.269842e-01
   endloop
 endfacet
 facet normal  1.096823e-15 -1.000000e+00  0.000000e+00
   outer loop
     vertex -1.974001e-01 -2.032303e-01 -1.587302e-02
     vertex -2.227056e-01 -2.032303e-01  1.269842e-01
     vertex -2.227056e-01 -2.032303e-01 -1.587302e-02
   endloop
 endfacet
 facet normal  1.490422e-01 -9.888308e-01  0.000000e+00
   outer loop
     vertex -1.723773e-01 -1.994587e-01 -1.587302e-02
     vertex -1.723773e-01 -1.994587e-01  1.269842e-01
     vertex -1.974001e-01 -2.032303e-01  1.269842e-01
   endloop
 endfacet
 facet normal  1.490422e-01 -9.888308e-01  0.000000e+00
   outer loop
     vertex -1.723773e-01 -1.994587e-01 -1.587302e-02
     vertex -1.974001e-01 -2.032303e-01  1.269842e-01
     vertex -1.974001e-01 -2.032303e-01 -1.587302e-02
   endloop
 endfacet
 facet normal  2.947551e-01 -9.555728e-01  0.000000e+00
   outer loop
     vertex -1.481962e-01 -1.919998e-01 -1.587302e-02
     vertex -1.481962e-01 -1.919998e-01  1.269842e-01
     vertex -1.723773e-01 -1.994587e-01  1.269842e-01
   endloop
 endfacet
 facet normal  2.947551e-01 -9.555728e-01  0.000000e+00
   outer loop
     vertex -1.481962e-01 -1.919998e-01 -1.587302e-02
     vertex -1.723773e-01 -1.994587e-01  1.269842e-01
     vertex -1.723773e-01 -1.994587e-01 -1.587302e-02
   endloop
 endfacet
 facet normal  4.338837e-01 -9.009689e-01  0.000000e+00
   outer loop
     vertex -1.253968e-01 -1.810202e-01 -1.587302e-02
     vertex -1.481962e-01 -1.919998e-01  1.269842e-01
     vertex -1.481962e-01 -1.919998e-01 -1.587302e-02
   endloop
 endfacet
 facet normal  4.338837e-01 -9.009689e-01  0.000000e+00
   outer loop
     vertex -1.253968e-01 -1.810202e-01 -1.587302e-02
     vertex -1.253968e-01 -1.810202e-01  1.269842e-01
     vertex -1.481962e-01 -1.919998e-01  1.269842e-01
   endloop
 endfacet
 facet normal  5.633200e-01 -8.262388e-01  0.000000e+00
   outer loop
     vertex -1.044884e-01 -1.667651e-01 -1.587302e-02
     vertex -1.253968e-01 -1.810202e-01  1.269842e-01
     vertex -1.253968e-01 -1.810202e-01 -1.587302e-02
   endloop
 endfacet
 facet normal  5.633200e-01 -8.262388e-01  0.000000e+00
   outer loop
     vertex -1.044884e-01 -1.667651e-01 -1.587302e-02
     vertex -1.044884e-01 -1.667651e-01  1.269842e-01
     vertex -1.253968e-01 -1.810202e-01  1.269842e-01
   endloop
 endfacet
 facet normal  6.801727e-01 -7.330519e-01  0.000000e+00
   outer loop
     vertex -1.044884e-01 -1.667651e-01 -1.587302e-02
     vertex -8.593825e-02 -1.495531e-01  1.269842e-01
     vertex -1.044884e-01 -1.667651e-01  1.269842e-01
   endloop
 endfacet
 facet normal  6.801727e-01 -7.330519e-01  0.000000e+00
   outer loop
     vertex -8.593825e-02 -1.495531e-01 -1.587302e-02
     vertex -8.593825e-02 -1.495531e-01  1.269842e-01
     vertex -1.044884e-01 -1.667651e-01 -1.587302e-02
   endloop
 endfacet
 facet normal  7.818314e-01 -6.234899e-01  0.000000e+00
   outer loop
     vertex -7.016057e-02 -1.297685e-01 -1.587302e-02
     vertex -8.593825e-02 -1.495531e-01  1.269842e-01
     vertex -8.593825e-02 -1.495531e-01 -1.587302e-02
   endloop
 endfacet
 facet normal  7.818314e-01 -6.234899e-01  0.000000e+00
   outer loop
     vertex -7.016057e-02 -1.297685e-01 -1.587302e-02
     vertex -7.016057e-02 -1.297685e-01  1.269842e-01
     vertex -8.593825e-02 -1.495531e-01  1.269842e-01
   endloop
 endfacet
 facet normal  8.660253e-01 -5.000001e-01  0.000000e+00
   outer loop
     vertex -5.750785e-02 -1.078533e-01 -1.587302e-02
     vertex -7.016057e-02 -1.297685e-01  1.269842e-01
     vertex -7.016057e-02 -1.297685e-01 -1.587302e-02
   endloop
 endfacet
 facet normal  8.660253e-01 -5.000001e-01  0.000000e+00
   outer loop
     vertex -5.750785e-02 -1.078533e-01 -1.587302e-02
     vertex -5.750785e-02 -1.078533e-01  1.269842e-01
     vertex -7.016057e-02 -1.297685e-01  1.269842e-01
   endloop
 endfacet
 facet normal  9.308737e-01 -3.653411e-01  0.000000e+00
   outer loop
     vertex -5.750785e-02 -1.078533e-01 -1.587302e-02
     vertex -4.826274e-02 -8.429719e-02  1.269842e-01
     vertex -5.750785e-02 -1.078533e-01  1.269842e-01
   endloop
 endfacet
 facet normal  9.308737e-01 -3.653411e-01  0.000000e+00
   outer loop
     vertex -4.826274e-02 -8.429719e-02 -1.587302e-02
     vertex -4.826274e-02 -8.429719e-02  1.269842e-01
     vertex -5.750785e-02 -1.078533e-01 -1.587302e-02
   endloop
 endfacet
 facet normal  9.749279e-01 -2.225211e-01  0.000000e+00
   outer loop
     vertex -4.263175e-02 -5.962622e-02 -1.587302e-02
     vertex -4.263175e-02 -5.962622e-02  1.269842e-01
     vertex -4.826274e-02 -8.429719e-02  1.269842e-01
   endloop
 endfacet
 facet normal  9.749279e-01 -2.225211e-01  0.000000e+00
   outer loop
     vertex -4.263175e-02 -5.962622e-02 -1.587302e-02
     vertex -4.826274e-02 -8.429719e-02  1.269842e-01
     vertex -4.826274e-02 -8.429719e-02 -1.587302e-02
   endloop
 endfacet
 facet normal  9.972038e-01 -7.473026e-02  0.000000e+00
   outer loop
     vertex -4.074067e-02 -3.439155e-02 -1.587302e-02
     vertex -4.074067e-02 -3.439155e-02  1.269842e-01
     vertex -4.263175e-02 -5.962622e-02  1.269842e-01
   endloop
 endfacet
 facet normal  9.972038e-01 -7.473026e-02  0.000000e+00
   outer loop
     vertex -4.074067e-02 -3.439155e-02 -1.587302e-02
     vertex -4.263175e-02 -5.962622e-02  1.269842e-01
     vertex -4.263175e-02 -5.962622e-02 -1.587302e-02
   endloop
 endfacet
 facet normal -1.000000e+00 -1.137742e-15  1.282307e-14
   outer loop
     vertex -3.793650e-01 -3.439155e-02 -1.587302e-02
     vertex -3.793650e-01  1.439906e-02  1.269842e-01
     vertex -3.793650e-01  1.439906e-02 -1.587302e-02
   endloop
 endfacet
 facet normal -1.000000e+00  3.640776e-14  0.000000e+00
   outer loop
     vertex -3.793650e-01 -3.439155e-02 -1.587302e-02
     vertex -3.793650e-01 -3.439155e-02  1.269842e-01
     vertex -3.793650e-01  1.439906e-02  1.269842e-01
   endloop
 endfacet
 facet normal  1.000000e+00 -1.025617e-16  0.000000e+00
   outer loop
     vertex -4.074067e-02  3.326427e-02 -1.587302e-02
     vertex -4.074067e-02 -3.439155e-02  1.269842e-01
     vertex -4.074067e-02 -3.439155e-02 -1.587302e-02
   endloop
 endfacet
 facet normal  1.000000e+00  6.276774e-14  2.977478e-14
   outer loop
     vertex -4.074067e-02  3.326427e-02 -1.587302e-02
     vertex -4.074067e-02  3.326427e-02  1.269842e-01
     vertex -4.074067e-02 -3.439155e-02  1.269842e-01
   endloop
 endfacet
 facet normal -9.972038e-01 -7.473026e-02  0.000000e+00
   outer loop
     vertex -3.774739e-01 -5.962622e-02 -1.587302e-02
     vertex -3.793650e-01 -3.439155e-02 -1.587302e-02
     vertex -3.793650e-01 -3.439155e-02 -3.174603e-02
   endloop
 endfacet
 facet normal -9.972038e-01 -7.473026e-02 -0.000000e+00
   outer loop
     vertex -3.774739e-01 -5.962622e-02 -1.587302e-02
     vertex -3.793650e-01 -3.439155e-02 -3.174603e-02
     vertex -3.774739e-01 -5.962622e-02 -3.174603e-02
   endloop
 endfacet
 facet normal -9.749279e-01 -2.225211e-01 -0.000000e+00
   outer loop
     vertex -3.718430e-01 -8.429719e-02 -1.587302e-02
     vertex -3.774739e-01 -5.962622e-02 -3.174603e-02
     vertex -3.718430e-01 -8.429719e-02 -3.174603e-02
   endloop
 endfacet
 facet normal -9.749279e-01 -2.225211e-01  0.000000e+00
   outer loop
     vertex -3.718430e-01 -8.429719e-02 -1.587302e-02
     vertex -3.774739e-01 -5.962622e-02 -1.587302e-02
     vertex -3.774739e-01 -5.962622e-02 -3.174603e-02
   endloop
 endfacet
 facet normal -9.308737e-01 -3.653411e-01 -0.000000e+00
   outer loop
     vertex -3.625978e-01 -1.078533e-01 -1.587302e-02
     vertex -3.718430e-01 -8.429719e-02 -3.174603e-02
     vertex -3.625978e-01 -1.078533e-01 -3.174603e-02
   endloop
 endfacet
 facet normal -9.308737e-01 -3.653411e-01  0.000000e+00
   outer loop
     vertex -3.625978e-01 -1.078533e-01 -1.587302e-02
     vertex -3.718430e-01 -8.429719e-02 -1.587302e-02
     vertex -3.718430e-01 -8.429719e-02 -3.174603e-02
   endloop
 endfacet
 facet normal -8.660253e-01 -5.000001e-01 -0.000000e+00
   outer loop
     vertex -3.499451e-01 -1.297685e-01 -1.587302e-02
     vertex -3.625978e-01 -1.078533e-01 -3.174603e-02
     vertex -3.499451e-01 -1.297685e-01 -3.174603e-02
   endloop
 endfacet
 facet normal -8.660253e-01 -5.000001e-01  0.000000e+00
   outer loop
     vertex -3.499451e-01 -1.297685e-01 -1.587302e-02
     vertex -3.625978e-01 -1.078533e-01 -1.587302e-02
     vertex -3.625978e-01 -1.078533e-01 -3.174603e-02
   endloop
 endfacet
 facet normal -7.818314e-01 -6.234899e-01 -0.000000e+00
   outer loop
     vertex -3.341674e-01 -1.495531e-01 -1.587302e-02
     vertex -3.499451e-01 -1.297685e-01 -3.174603e-02
     vertex -3.341674e-01 -1.495531e-01 -3.174603e-02
   endloop
 endfacet
 facet normal -7.818314e-01 -6.234899e-01  0.000000e+00
   outer loop
     vertex -3.341674e-01 -1.495531e-01 -1.587302e-02
     vertex -3.499451e-01 -1.297685e-01 -1.587302e-02
     vertex -3.499451e-01 -1.297685e-01 -3.174603e-02
   endloop
 endfacet
 facet normal -6.801727e-01 -7.330519e-01 -0.000000e+00
   outer loop
     vertex -3.156173e-01 -1.667651e-01 -1.587302e-02
     vertex -3.341674e-01 -1.495531e-01 -3.174603e-02
     vertex -3.156173e-01 -1.667651e-01 -3.174603e-02
   endloop
 endfacet
 facet normal -6.801727e-01 -7.330519e-01  0.000000e+00
   outer loop
     vertex -3.156173e-01 -1.667651e-01 -1.587302e-02
     vertex -3.341674e-01 -1.495531e-01 -1.587302e-02
     vertex -3.341674e-01 -1.495531e-01 -3.174603e-02
   endloop
 endfacet
 facet normal -5.633200e-01 -8.262388e-01 -0.000000e+00
   outer loop
     vertex -2.947089e-01 -1.810202e-01 -1.587302e-02
     vertex -3.156173e-01 -1.667651e-01 -3.174603e-02
     vertex -2.947089e-01 -1.810202e-01 -3.174603e-02
   endloop
 endfacet
 facet normal -5.633200e-01 -8.262388e-01  0.000000e+00
   outer loop
     vertex -2.947089e-01 -1.810202e-01 -1.587302e-02
     vertex -3.156173e-01 -1.667651e-01 -1.587302e-02
     vertex -3.156173e-01 -1.667651e-01 -3.174603e-02
   endloop
 endfacet
 facet normal -4.338837e-01 -9.009689e-01 -0.000000e+00
   outer loop
     vertex -2.719095e-01 -1.919998e-01 -1.587302e-02
     vertex -2.947089e-01 -1.810202e-01 -3.174603e-02
     vertex -2.719095e-01 -1.919998e-01 -3.174603e-02
   endloop
 endfacet
 facet normal -4.338837e-01 -9.009689e-01  0.000000e+00
   outer loop
     vertex -2.719095e-01 -1.919998e-01 -1.587302e-02
     vertex -2.947089e-01 -1.810202e-01 -1.587302e-02
     vertex -2.947089e-01 -1.810202e-01 -3.174603e-02
   endloop
 endfacet
 facet normal -2.947551e-01 -9.555728e-01 -0.000000e+00
   outer loop
     vertex -2.477283e-01 -1.994587e-01 -1.587302e-02
     vertex -2.719095e-01 -1.919998e-01 -3.174603e-02
     vertex -2.477283e-01 -1.994587e-01 -3.174603e-02
   endloop
 endfacet
 facet normal -2.947551e-01 -9.555728e-01  0.000000e+00
   outer loop
     vertex -2.477283e-01 -1.994587e-01 -1.587302e-02
     vertex -2.719095e-01 -1.919998e-01 -1.587302e-02
     vertex -2.719095e-01 -1.919998e-01 -3.174603e-02
   endloop
 endfacet
 facet normal -1.490422e-01 -9.888308e-01 -0.000000e+00
   outer loop
     vertex -2.227056e-01 -2.032303e-01 -1.587302e-02
     vertex -2.477283e-01 -1.994587e-01 -3.174603e-02
     vertex -2.227056e-01 -2.032303e-01 -3.174603e-02
   endloop
 endfacet
 facet normal -1.490422e-01 -9.888308e-01  0.000000e+00
   outer loop
     vertex -2.227056e-01 -2.032303e-01 -1.587302e-02
     vertex -2.477283e-01 -1.994587e-01 -1.587302e-02
     vertex -2.477283e-01 -1.994587e-01 -3.174603e-02
   endloop
 endfacet
 facet normal  1.096823e-15 -1.000000e+00  0.000000e+00
   outer loop
     vertex -1.974001e-01 -2.032303e-01 -1.587302e-02
     vertex -2.227056e-01 -2.032303e-01 -3.174603e-02
     vertex -1.974001e-01 -2.032303e-01 -3.174603e-02
   endloop
 endfacet
 facet normal  1.096823e-15 -1.000000e+00  0.000000e+00
   outer loop
     vertex -1.974001e-01 -2.032303e-01 -1.587302e-02
     vertex -2.227056e-01 -2.032303e-01 -1.587302e-02
     vertex -2.227056e-01 -2.032303e-01 -3.174603e-02
   endloop
 endfacet
 facet normal  1.490422e-01 -9.888308e-01  0.000000e+00
   outer loop
     vertex -1.723773e-01 -1.994587e-01 -1.587302e-02
     vertex -1.974001e-01 -2.032303e-01 -3.174603e-02
     vertex -1.723773e-01 -1.994587e-01 -3.174603e-02
   endloop
 endfacet
 facet normal  1.490422e-01 -9.888308e-01  0.000000e+00
   outer loop
     vertex -1.723773e-01 -1.994587e-01 -1.587302e-02
     vertex -1.974001e-01 -2.032303e-01 -1.587302e-02
     vertex -1.974001e-01 -2.032303e-01 -3.174603e-02
   endloop
 endfacet
 facet normal  2.947551e-01 -9.555728e-01  0.000000e+00
   outer loop
     vertex -1.481962e-01 -1.919998e-01 -1.587302e-02
     vertex -1.723773e-01 -1.994587e-01 -3.174603e-02
     vertex -1.481962e-01 -1.919998e-01 -3.174603e-02
   endloop
 endfacet
 facet normal  2.947551e-01 -9.555728e-01  0.000000e+00
   outer loop
     vertex -1.481962e-01 -1.919998e-01 -1.587302e-02
     vertex -1.723773e-01 -1.994587e-01 -1.587302e-02
     vertex -1.723773e-01 -1.994587e-01 -3.174603e-02
   endloop
 endfacet
 facet normal  4.338837e-01 -9.009689e-01  0.000000e+00
   outer loop
     vertex -1.253968e-01 -1.810202e-01 -1.587302e-02
     vertex -1.481962e-01 -1.919998e-01 -1.587302e-02
     vertex -1.481962e-01 -1.919998e-01 -3.174603e-02
   endloop
 endfacet
 facet normal  4.338837e-01 -9.009689e-01  0.000000e+00
   outer loop
     vertex -1.253968e-01 -1.810202e-01 -1.587302e-02
     vertex -1.481962e-01 -1.919998e-01 -3.174603e-02
     vertex -1.253968e-01 -1.810202e-01 -3.174603e-02
   endloop
 endfacet
 facet normal  5.633200e-01 -8.262388e-01  0.000000e+00
   outer loop
     vertex -1.044884e-01 -1.667651e-01 -1.587302e-02
     vertex -1.253968e-01 -1.810202e-01 -1.587302e-02
     vertex -1.253968e-01 -1.810202e-01 -3.174603e-02
   endloop
 endfacet
 facet normal  5.633200e-01 -8.262388e-01  0.000000e+00
   outer loop
     vertex -1.044884e-01 -1.667651e-01 -1.587302e-02
     vertex -1.253968e-01 -1.810202e-01 -3.174603e-02
     vertex -1.044884e-01 -1.667651e-01 -3.174603e-02
   endloop
 endfacet
 facet normal  6.801727e-01 -7.330519e-01  0.000000e+00
   outer loop
     vertex -8.593825e-02 -1.495531e-01 -1.587302e-02
     vertex -1.044884e-01 -1.667651e-01 -1.587302e-02
     vertex -1.044884e-01 -1.667651e-01 -3.174603e-02
   endloop
 endfacet
 facet normal  6.801727e-01 -7.330519e-01  0.000000e+00
   outer loop
     vertex -8.593825e-02 -1.495531e-01 -1.587302e-02
     vertex -1.044884e-01 -1.667651e-01 -3.174603e-02
     vertex -8.593825e-02 -1.495531e-01 -3.174603e-02
   endloop
 endfacet
 facet normal  7.818314e-01 -6.234899e-01  0.000000e+00
   outer loop
     vertex -7.016057e-02 -1.297685e-01 -1.587302e-02
     vertex -8.593825e-02 -1.495531e-01 -1.587302e-02
     vertex -8.593825e-02 -1.495531e-01 -3.174603e-02
   endloop
 endfacet
 facet normal  7.818314e-01 -6.234899e-01  0.000000e+00
   outer loop
     vertex -7.016057e-02 -1.297685e-01 -1.587302e-02
     vertex -8.593825e-02 -1.495531e-01 -3.174603e-02
     vertex -7.016057e-02 -1.297685e-01 -3.174603e-02
   endloop
 endfacet
 facet normal  8.660253e-01 -5.000001e-01  0.000000e+00
   outer loop
     vertex -5.750785e-02 -1.078533e-01 -1.587302e-02
     vertex -7.016057e-02 -1.297685e-01 -1.587302e-02
     vertex -7.016057e-02 -1.297685e-01 -3.174603e-02
   endloop
 endfacet
 facet normal  8.660253e-01 -5.000001e-01  0.000000e+00
   outer loop
     vertex -5.750785e-02 -1.078533e-01 -1.587302e-02
     vertex -7.016057e-02 -1.297685e-01 -3.174603e-02
     vertex -5.750785e-02 -1.078533e-01 -3.174603e-02
   endloop
 endfacet
 facet normal  9.308737e-01 -3.653411e-01  0.000000e+00
   outer loop
     vertex -4.826274e-02 -8.429719e-02 -1.587302e-02
     vertex -5.750785e-02 -1.078533e-01 -3.174603e-02
     vertex -4.826274e-02 -8.429719e-02 -3.174603e-02
   endloop
 endfacet
 facet normal  9.308737e-01 -3.653411e-01  0.000000e+00
   outer loop
     vertex -4.826274e-02 -8.429719e-02 -1.587302e-02
     vertex -5.750785e-02 -1.078533e-01 -1.587302e-02
     vertex -5.750785e-02 -1.078533e-01 -3.174603e-02
   endloop
 endfacet
 facet normal  9.749279e-01 -2.225211e-01  0.000000e+00
   outer loop
     vertex -4.263175e-02 -5.962622e-02 -1.587302e-02
     vertex -4.826274e-02 -8.429719e-02 -3.174603e-02
     vertex -4.263175e-02 -5.962622e-02 -3.174603e-02
   endloop
 endfacet
 facet normal  9.749279e-01 -2.225211e-01  0.000000e+00
   outer loop
     vertex -4.263175e-02 -5.962622e-02 -1.587302e-02
     vertex -4.826274e-02 -8.429719e-02 -1.587302e-02
     vertex -4.826274e-02 -8.429719e-02 -3.174603e-02
   endloop
 endfacet
 facet normal  9.972038e-01 -7.473026e-02  0.000000e+00
   outer loop
     vertex -4.074067e-02 -3.439155e-02 -1.587302e-02
     vertex -4.263175e-02 -5.962622e-02 -3.174603e-02
     vertex -4.074067e-02 -3.439155e-02 -3.174603e-02
   endloop
 endfacet
 facet normal  9.972038e-01 -7.473026e-02  0.000000e+00
   outer loop
     vertex -4.074067e-02 -3.439155e-02 -1.587302e-02
     vertex -4.263175e-02 -5.962622e-02 -1.587302e-02
     vertex -4.263175e-02 -5.962622e-02 -3.174603e-02
   endloop
 endfacet
 facet normal  0.000000e+00  0.000000e+00  1.000000e+00
   outer loop
     vertex -3.502940e-01 -3.587985e-04  1.269842e-01
     vertex -3.793650e-01  1.439906e-02  1.269842e-01
     vertex -3.793650e-01 -3.439155e-02  1.269842e-01
   endloop
 endfacet
 facet normal  0.000000e+00  0.000000e+00  1.000000e+00
   outer loop
     vertex -3.198353e-01 -1.198608e-02  1.269842e-01
     vertex -3.793650e-01 -3.439155e-02  1.269842e-01
     vertex -3.774739e-01 -5.962622e-02  1.269842e-01
   endloop
 endfacet
 facet normal  0.000000e+00  0.000000e+00  1.000000e+00
   outer loop
     vertex -3.198353e-01 -1.198608e-02  1.269842e-01
     vertex -3.774739e-01 -5.962622e-02  1.269842e-01
     vertex -3.718430e-01 -8.429719e-02  1.269842e-01
   endloop
 endfacet
 facet normal  0.000000e+00  0.000000e+00  1.000000e+00
   outer loop
     vertex -3.198353e-01 -1.198608e-02  1.269842e-01
     vertex -3.502940e-01 -3.587985e-04  1.269842e-01
     vertex -3.793650e-01 -3.439155e-02  1.269842e-01
   endloop
 endfacet
 facet normal  0.000000e+00  0.000000e+00  1.000000e+00
   outer loop
     vertex -2.883252e-01 -2.035452e-02  1.269842e-01
     vertex -3.718430e-01 -8.429719e-02  1.269842e-01
     vertex -3.625978e-01 -1.078533e-01  1.269842e-01
   endloop
 endfacet
 facet normal  0.000000e+00  0.000000e+00  1.000000e+00
   outer loop
     vertex -2.883252e-01 -2.035452e-02  1.269842e-01
     vertex -3.625978e-01 -1.078533e-01  1.269842e-01
     vertex -3.499451e-01 -1.297685e-01  1.269842e-01
   endloop
 endfacet
 facet normal  0.000000e+00  0.000000e+00  1.000000e+00
   outer loop
     vertex -2.883252e-01 -2.035452e-02  1.269842e-01
     vertex -3.499451e-01 -1.297685e-01  1.269842e-01
     vertex -3.341674e-01 -1.495531e-01  1.269842e-01
   endloop
 endfacet
 facet normal  0.000000e+00  0.000000e+00  1.000000e+00
   outer loop
     vertex -2.883252e-01 -2.035452e-02  1.269842e-01
     vertex -3.198353e-01 -1.198608e-02  1.269842e-01
     vertex -3.718430e-01 -8.429719e-02  1.269842e-01
   endloop
 endfacet
 facet normal  0.000000e+00  0.000000e+00  1.000000e+00
   outer loop
     vertex -2.561111e-01 -2.537179e-02  1.269842e-01
     vertex -3.341674e-01 -1.495531e-01  1.269842e-01
     vertex -3.156173e-01 -1.667651e-01  1.269842e-01
   endloop
 endfacet
 facet normal  0.000000e+00  0.000000e+00  1.000000e+00
   outer loop
     vertex -2.561111e-01 -2.537179e-02  1.269842e-01
     vertex -3.156173e-01 -1.667651e-01  1.269842e-01
     vertex -2.947089e-01 -1.810202e-01  1.269842e-01
   endloop
 endfacet
 facet normal  0.000000e+00  0.000000e+00  1.000000e+00
   outer loop
     vertex -2.561111e-01 -2.537179e-02  1.269842e-01
     vertex -2.947089e-01 -1.810202e-01  1.269842e-01
     vertex -2.719095e-01 -1.919998e-01  1.269842e-01
   endloop
 endfacet
 facet normal  0.000000e+00  0.000000e+00  1.000000e+00
   outer loop
     vertex -2.561111e-01 -2.537179e-02  1.269842e-01
     vertex -2.883252e-01 -2.035452e-02  1.269842e-01
     vertex -3.341674e-01 -1.495531e-01  1.269842e-01
   endloop
 endfacet
 facet normal  0.000000e+00  0.000000e+00  1.000000e+00
   outer loop
     vertex -2.235484e-01 -2.698256e-02  1.269842e-01
     vertex -2.719095e-01 -1.919998e-01  1.269842e-01
     vertex -2.477283e-01 -1.994587e-01  1.269842e-01
   endloop
 endfacet
 facet normal  0.000000e+00  0.000000e+00  1.000000e+00
   outer loop
     vertex -2.235484e-01 -2.698256e-02  1.269842e-01
     vertex -2.477283e-01 -1.994587e-01  1.269842e-01
     vertex -2.227056e-01 -2.032303e-01  1.269842e-01
   endloop
 endfacet
 facet normal  0.000000e+00  0.000000e+00  1.000000e+00
   outer loop
     vertex -2.235484e-01 -2.698256e-02  1.269842e-01
     vertex -2.227056e-01 -2.032303e-01  1.269842e-01
     vertex -1.974001e-01 -2.032303e-01  1.269842e-01
   endloop
 endfacet
 facet normal  0.000000e+00  0.000000e+00  1.000000e+00
   outer loop
     vertex -2.235484e-01 -2.698256e-02  1.269842e-01
     vertex -2.561111e-01 -2.537179e-02  1.269842e-01
     vertex -2.719095e-01 -1.919998e-01  1.269842e-01
   endloop
 endfacet
 facet normal  0.000000e+00  0.000000e+00  1.000000e+00
   outer loop
     vertex -1.909964e-01 -2.516905e-02  1.269842e-01
     vertex -1.974001e-01 -2.032303e-01  1.269842e-01
     vertex -1.723773e-01 -1.994587e-01  1.269842e-01
   endloop
 endfacet
 facet normal  0.000000e+00  0.000000e+00  1.000000e+00
   outer loop
     vertex -1.909964e-01 -2.516905e-02  1.269842e-01
     vertex -1.723773e-01 -1.994587e-01  1.269842e-01
     vertex -1.481962e-01 -1.919998e-01  1.269842e-01
   endloop
 endfacet
 facet normal  0.000000e+00  0.000000e+00  1.000000e+00
   outer loop
     vertex -1.909964e-01 -2.516905e-02  1.269842e-01
     vertex -1.481962e-01 -1.919998e-01  1.269842e-01
     vertex -1.253968e-01 -1.810202e-01  1.269842e-01
   endloop
 endfacet
 facet normal  0.000000e+00  0.000000e+00  1.000000e+00
   outer loop
     vertex -1.909964e-01 -2.516905e-02  1.269842e-01
     vertex -1.253968e-01 -1.810202e-01  1.269842e-01
     vertex -1.044884e-01 -1.667651e-01  1.269842e-01
   endloop
 endfacet
 facet normal  0.000000e+00  0.000000e+00  1.000000e+00
   outer loop
     vertex -1.909964e-01 -2.516905e-02  1.269842e-01
     vertex -2.235484e-01 -2.698256e-02  1.269842e-01
     vertex -1.974001e-01 -2.032303e-01  1.269842e-01
   endloop
 endfacet
 facet normal  0.000000e+00  0.000000e+00  1.000000e+00
   outer loop
     vertex -1.588142e-01 -1.995126e-02  1.269842e-01
     vertex -1.044884e-01 -1.667651e-01  1.269842e-01
     vertex -8.593825e-02 -1.495531e-01  1.269842e-01
   endloop
 endfacet
 facet normal  0.000000e+00  0.000000e+00  1.000000e+00
   outer loop
     vertex -1.588142e-01 -1.995126e-02  1.269842e-01
     vertex -8.593825e-02 -1.495531e-01  1.269842e-01
     vertex -7.016057e-02 -1.297685e-01  1.269842e-01
   endloop
 endfacet
 facet normal  0.000000e+00  0.000000e+00  1.000000e+00
   outer loop
     vertex -1.588142e-01 -1.995126e-02  1.269842e-01
     vertex -1.909964e-01 -2.516905e-02  1.269842e-01
     vertex -1.044884e-01 -1.667651e-01  1.269842e-01
   endloop
 endfacet
 facet normal  0.000000e+00  0.000000e+00  1.000000e+00
   outer loop
     vertex -5.750785e-02 -1.078533e-01  1.269842e-01
     vertex -1.588142e-01 -1.995126e-02  1.269842e-01
     vertex -7.016057e-02 -1.297685e-01  1.269842e-01
   endloop
 endfacet
 facet normal  0.000000e+00  0.000000e+00  1.000000e+00
   outer loop
     vertex -1.273568e-01 -1.138676e-02  1.269842e-01
     vertex -1.588142e-01 -1.995126e-02  1.269842e-01
     vertex -5.750785e-02 -1.078533e-01  1.269842e-01
   endloop
 endfacet
 facet normal  0.000000e+00  0.000000e+00  1.000000e+00
   outer loop
     vertex -4.826274e-02 -8.429719e-02  1.269842e-01
     vertex -1.273568e-01 -1.138676e-02  1.269842e-01
     vertex -5.750785e-02 -1.078533e-01  1.269842e-01
   endloop
 endfacet
 facet normal  0.000000e+00  0.000000e+00  1.000000e+00
   outer loop
     vertex -4.263175e-02 -5.962622e-02  1.269842e-01
     vertex -1.273568e-01 -1.138676e-02  1.269842e-01
     vertex -4.826274e-02 -8.429719e-02  1.269842e-01
   endloop
 endfacet
 facet normal  0.000000e+00  0.000000e+00  1.000000e+00
   outer loop
     vertex -9.697116e-02  4.299766e-04  1.269842e-01
     vertex -1.273568e-01 -1.138676e-02  1.269842e-01
     vertex -4.263175e-02 -5.962622e-02  1.269842e-01
   endloop
 endfacet
 facet normal  0.000000e+00  0.000000e+00  1.000000e+00
   outer loop
     vertex -4.074067e-02 -3.439155e-02  1.269842e-01
     vertex -9.697116e-02  4.299766e-04  1.269842e-01
     vertex -4.263175e-02 -5.962622e-02  1.269842e-01
   endloop
 endfacet
 facet normal  0.000000e+00  0.000000e+00  1.000000e+00
   outer loop
     vertex -6.799256e-02  1.536858e-02  1.269842e-01
     vertex -9.697116e-02  4.299766e-04  1.269842e-01
     vertex -4.074067e-02 -3.439155e-02  1.269842e-01
   endloop
 endfacet
 facet normal  0.000000e+00  0.000000e+00  1.000000e+00
   outer loop
     vertex -4.074067e-02  3.326427e-02  1.269842e-01
     vertex -6.799256e-02  1.536858e-02  1.269842e-01
     vertex -4.074067e-02 -3.439155e-02  1.269842e-01
   endloop
 endfacet
 facet normal -1.000000e+00 -1.137742e-15 -1.154079e-13
   outer loop
     vertex -3.793650e-01 -3.439155e-02 -1.587302e-02
     vertex -3.793650e-01  1.439906e-02 -1.587302e-02
     vertex -3.793650e-01  1.439906e-02 -3.174600e-02
   endloop
 endfacet
 facet normal -1.000000e+00  3.640776e-14  0.000000e+00
   outer loop
     vertex -3.793650e-01 -3.439155e-02 -1.587302e-02
     vertex -3.793650e-01  1.439906e-02 -3.174600e-02
     vertex -3.793650e-01 -3.439155e-02 -3.174603e-02
   endloop
 endfacet
 facet normal  4.526607e-01  8.916828e-01 -7.102332e-14
   outer loop
     vertex -3.502940e-01 -3.587985e-04 -3.174596e-02
     vertex -3.793650e-01  1.439906e-02 -3.174600e-02
     vertex -3.793650e-01  1.439906e-02 -1.587302e-02
   endloop
 endfacet
 facet normal  4.526607e-01  8.916828e-01  7.891460e-15
   outer loop
     vertex -3.502940e-01 -3.587985e-04  1.269842e-01
     vertex -3.793650e-01  1.439906e-02 -1.587302e-02
     vertex -3.793650e-01  1.439906e-02  1.269842e-01
   endloop
 endfacet
 facet normal  4.526607e-01  8.916828e-01  0.000000e+00
   outer loop
     vertex -3.502940e-01 -3.587985e-04  1.269842e-01
     vertex -3.502940e-01 -3.587985e-04 -3.174596e-02
     vertex -3.793650e-01  1.439906e-02 -1.587302e-02
   endloop
 endfacet
 facet normal  3.566381e-01  9.342426e-01  0.000000e+00
   outer loop
     vertex -3.198353e-01 -1.198608e-02  1.269842e-01
     vertex -3.198353e-01 -1.198608e-02 -3.174596e-02
     vertex -3.502940e-01 -3.587985e-04 -3.174596e-02
   endloop
 endfacet
 facet normal  3.566381e-01  9.342426e-01  0.000000e+00
   outer loop
     vertex -3.198353e-01 -1.198608e-02  1.269842e-01
     vertex -3.502940e-01 -3.587985e-04 -3.174596e-02
     vertex -3.502940e-01 -3.587985e-04  1.269842e-01
   endloop
 endfacet
 facet normal  2.566811e-01  9.664962e-01  0.000000e+00
   outer loop
     vertex -2.883252e-01 -2.035452e-02  1.269842e-01
     vertex -2.883252e-01 -2.035452e-02 -3.174596e-02
     vertex -3.198353e-01 -1.198608e-02 -3.174596e-02
   endloop
 endfacet
 facet normal  2.566811e-01  9.664962e-01  0.000000e+00
   outer loop
     vertex -2.883252e-01 -2.035452e-02  1.269842e-01
     vertex -3.198353e-01 -1.198608e-02 -3.174596e-02
     vertex -3.198353e-01 -1.198608e-02  1.269842e-01
   endloop
 endfacet
 facet normal  1.538925e-01  9.880876e-01  0.000000e+00
   outer loop
     vertex -2.561111e-01 -2.537179e-02  1.269842e-01
     vertex -2.561111e-01 -2.537179e-02 -3.174596e-02
     vertex -2.883252e-01 -2.035452e-02 -3.174596e-02
   endloop
 endfacet
 facet normal  1.538925e-01  9.880876e-01  0.000000e+00
   outer loop
     vertex -2.561111e-01 -2.537179e-02  1.269842e-01
     vertex -2.883252e-01 -2.035452e-02 -3.174596e-02
     vertex -2.883252e-01 -2.035452e-02  1.269842e-01
   endloop
 endfacet
 facet normal  4.940625e-02  9.987788e-01  0.000000e+00
   outer loop
     vertex -2.235484e-01 -2.698256e-02  1.269842e-01
     vertex -2.235484e-01 -2.698256e-02 -3.174596e-02
     vertex -2.561111e-01 -2.537179e-02 -3.174596e-02
   endloop
 endfacet
 facet normal  4.940625e-02  9.987788e-01  0.000000e+00
   outer loop
     vertex -2.235484e-01 -2.698256e-02  1.269842e-01
     vertex -2.561111e-01 -2.537179e-02 -3.174596e-02
     vertex -2.561111e-01 -2.537179e-02  1.269842e-01
   endloop
 endfacet
 facet normal -5.562506e-02  9.984517e-01  0.000000e+00
   outer loop
     vertex -1.909964e-01 -2.516905e-02  1.269842e-01
     vertex -1.909964e-01 -2.516905e-02 -3.174596e-02
     vertex -2.235484e-01 -2.698256e-02 -3.174596e-02
   endloop
 endfacet
 facet normal -5.562506e-02  9.984517e-01  0.000000e+00
   outer loop
     vertex -1.909964e-01 -2.516905e-02  1.269842e-01
     vertex -2.235484e-01 -2.698256e-02 -3.174596e-02
     vertex -2.235484e-01 -2.698256e-02  1.269842e-01
   endloop
 endfacet
 facet normal -1.600427e-01  9.871101e-01  0.000000e+00
   outer loop
     vertex -1.588142e-01 -1.995126e-02  1.269842e-01
     vertex -1.588142e-01 -1.995126e-02 -3.174596e-02
     vertex -1.909964e-01 -2.516905e-02 -3.174596e-02
   endloop
 endfacet
 facet normal -1.600427e-01  9.871101e-01  0.000000e+00
   outer loop
     vertex -1.588142e-01 -1.995126e-02  1.269842e-01
     vertex -1.909964e-01 -2.516905e-02 -3.174596e-02
     vertex -1.909964e-01 -2.516905e-02  1.269842e-01
   endloop
 endfacet
 facet normal -2.626949e-01  9.648790e-01  0.000000e+00
   outer loop
     vertex -1.273568e-01 -1.138676e-02  1.269842e-01
     vertex -1.273568e-01 -1.138676e-02 -3.174596e-02
     vertex -1.588142e-01 -1.995126e-02 -3.174596e-02
   endloop
 endfacet
 facet normal -2.626949e-01  9.648790e-01  0.000000e+00
   outer loop
     vertex -1.273568e-01 -1.138676e-02  1.269842e-01
     vertex -1.588142e-01 -1.995126e-02 -3.174596e-02
     vertex -1.588142e-01 -1.995126e-02  1.269842e-01
   endloop
 endfacet
 facet normal -3.624490e-01  9.320036e-01  0.000000e+00
   outer loop
     vertex -9.697116e-02  4.299766e-04  1.269842e-01
     vertex -9.697116e-02  4.299766e-04 -3.174596e-02
     vertex -1.273568e-01 -1.138676e-02 -3.174596e-02
   endloop
 endfacet
 facet normal -3.624490e-01  9.320036e-01  0.000000e+00
   outer loop
     vertex -9.697116e-02  4.299766e-04  1.269842e-01
     vertex -1.273568e-01 -1.138676e-02 -3.174596e-02
     vertex -1.273568e-01 -1.138676e-02  1.269842e-01
   endloop
 endfacet
 facet normal -5.489057e-01  8.358843e-01 -1.846980e-13
   outer loop
     vertex -4.074067e-02  3.326427e-02 -1.587302e-02
     vertex -4.074067e-02  3.326427e-02 -3.174600e-02
     vertex -6.799256e-02  1.536858e-02 -3.174596e-02
   endloop
 endfacet
 facet normal -4.582048e-01  8.888467e-01  0.000000e+00
   outer loop
     vertex -6.799256e-02  1.536858e-02  1.269842e-01
     vertex -6.799256e-02  1.536858e-02 -3.174596e-02
     vertex -9.697116e-02  4.299766e-04 -3.174596e-02
   endloop
 endfacet
 facet normal -4.582048e-01  8.888467e-01  0.000000e+00
   outer loop
     vertex -6.799256e-02  1.536858e-02  1.269842e-01
     vertex -9.697116e-02  4.299766e-04 -3.174596e-02
     vertex -9.697116e-02  4.299766e-04  1.269842e-01
   endloop
 endfacet
 facet normal -5.489057e-01  8.358843e-01  0.000000e+00
   outer loop
     vertex -6.799256e-02  1.536858e-02  1.269842e-01
     vertex -4.074067e-02  3.326427e-02 -1.587302e-02
     vertex -6.799256e-02  1.536858e-02 -3.174596e-02
   endloop
 endfacet
 facet normal -5.489057e-01  8.358843e-01  2.052195e-14
   outer loop
     vertex -4.074067e-02  3.326427e-02  1.269842e-01
     vertex -4.074067e-02  3.326427e-02 -1.587302e-02
     vertex -6.799256e-02  1.536858e-02  1.269842e-01
   endloop
 endfacet
 facet normal  1.000000e+00  6.276774e-14  0.000000e+00
   outer loop
     vertex -4.074067e-02  3.326427e-02 -3.174600e-02
     vertex -4.074067e-02 -3.439155e-02 -1.587302e-02
     vertex -4.074067e-02 -3.439155e-02 -3.174603e-02
   endloop
 endfacet
 facet normal  1.000000e+00 -1.025617e-16 -2.679737e-13
   outer loop
     vertex -4.074067e-02  3.326427e-02 -1.587302e-02
     vertex -4.074067e-02 -3.439155e-02 -1.587302e-02
     vertex -4.074067e-02  3.326427e-02 -3.174600e-02
   endloop
 endfacet
 facet normal  1.568108e-06  7.173511e-07 -1.000000e+00
   outer loop
     vertex -3.502940e-01 -3.587985e-04 -3.174596e-02
     vertex -3.793650e-01 -3.439155e-02 -3.174603e-02
     vertex -3.793650e-01  1.439906e-02 -3.174600e-02
   endloop
 endfacet
 facet normal  1.143627e-06  8.570322e-08 -1.000000e+00
   outer loop
     vertex -3.198353e-01 -1.198608e-02 -3.174596e-02
     vertex -3.774739e-01 -5.962622e-02 -3.174603e-02
     vertex -3.793650e-01 -3.439155e-02 -3.174603e-02
   endloop
 endfacet
 facet normal  1.021716e-06  2.332003e-07 -1.000000e+00
   outer loop
     vertex -3.198353e-01 -1.198608e-02 -3.174596e-02
     vertex -3.718430e-01 -8.429719e-02 -3.174603e-02
     vertex -3.774739e-01 -5.962622e-02 -3.174603e-02
   endloop
 endfacet
 facet normal  5.921031e-07  1.551063e-06 -1.000000e+00
   outer loop
     vertex -3.198353e-01 -1.198608e-02 -3.174596e-02
     vertex -3.793650e-01 -3.439155e-02 -3.174603e-02
     vertex -3.502940e-01 -3.587985e-04 -3.174596e-02
   endloop
 endfacet
 facet normal  6.444875e-07  2.529428e-07 -1.000000e+00
   outer loop
     vertex -2.883252e-01 -2.035452e-02 -3.174596e-02
     vertex -3.625978e-01 -1.078533e-01 -3.174603e-02
     vertex -3.718430e-01 -8.429719e-02 -3.174603e-02
   endloop
 endfacet
 facet normal  5.609418e-07  3.238600e-07 -1.000000e+00
   outer loop
     vertex -2.883252e-01 -2.035452e-02 -3.174596e-02
     vertex -3.499451e-01 -1.297685e-01 -3.174603e-02
     vertex -3.625978e-01 -1.078533e-01 -3.174603e-02
   endloop
 endfacet
 facet normal  4.701941e-07  3.749674e-07 -1.000000e+00
   outer loop
     vertex -2.883252e-01 -2.035452e-02 -3.174596e-02
     vertex -3.341674e-01 -1.495531e-01 -3.174603e-02
     vertex -3.499451e-01 -1.297685e-01 -3.174603e-02
   endloop
 endfacet
 facet normal  2.158597e-07  8.127888e-07 -1.000000e+00
   outer loop
     vertex -2.883252e-01 -2.035452e-02 -3.174596e-02
     vertex -3.718430e-01 -8.429719e-02 -3.174603e-02
     vertex -3.198353e-01 -1.198608e-02 -3.174596e-02
   endloop
 endfacet
 facet normal  3.303570e-07  3.560403e-07 -1.000000e+00
   outer loop
     vertex -2.561111e-01 -2.537179e-02 -3.174596e-02
     vertex -3.156173e-01 -1.667651e-01 -3.174603e-02
     vertex -3.341674e-01 -1.495531e-01 -3.174603e-02
   endloop
 endfacet
 facet normal  2.622783e-07  3.846916e-07 -1.000000e+00
   outer loop
     vertex -2.561111e-01 -2.537179e-02 -3.174596e-02
     vertex -2.947089e-01 -1.810202e-01 -3.174603e-02
     vertex -3.156173e-01 -1.667651e-01 -3.174603e-02
   endloop
 endfacet
 facet normal  1.934743e-07  4.017537e-07 -1.000000e+00
   outer loop
     vertex -2.561111e-01 -2.537179e-02 -3.174596e-02
     vertex -2.719095e-01 -1.919998e-01 -3.174603e-02
     vertex -2.947089e-01 -1.810202e-01 -3.174603e-02
   endloop
 endfacet
 facet normal  7.996538e-08  5.134284e-07 -1.000000e+00
   outer loop
     vertex -2.561111e-01 -2.537179e-02 -3.174596e-02
     vertex -3.341674e-01 -1.495531e-01 -3.174603e-02
     vertex -2.883252e-01 -2.035452e-02 -3.174596e-02
   endloop
 endfacet
 facet normal  1.199999e-07  3.890301e-07 -1.000000e+00
   outer loop
     vertex -2.235484e-01 -2.698256e-02 -3.174596e-02
     vertex -2.477283e-01 -1.994587e-01 -3.174603e-02
     vertex -2.719095e-01 -1.919998e-01 -3.174603e-02
   endloop
 endfacet
 facet normal  5.990666e-08  3.974548e-07 -1.000000e+00
   outer loop
     vertex -2.235484e-01 -2.698256e-02 -3.174596e-02
     vertex -2.227056e-01 -2.032303e-01 -3.174603e-02
     vertex -2.477283e-01 -1.994587e-01 -3.174603e-02
   endloop
 endfacet
 facet normal -3.709310e-22  3.971683e-07 -1.000000e+00
   outer loop
     vertex -2.235484e-01 -2.698256e-02 -3.174596e-02
     vertex -1.974001e-01 -2.032303e-01 -3.174603e-02
     vertex -2.227056e-01 -2.032303e-01 -3.174603e-02
   endloop
 endfacet
 facet normal  2.068381e-08  4.181364e-07 -1.000000e+00
   outer loop
     vertex -2.235484e-01 -2.698256e-02 -3.174596e-02
     vertex -2.719095e-01 -1.919998e-01 -3.174603e-02
     vertex -2.561111e-01 -2.537179e-02 -3.174596e-02
   endloop
 endfacet
 facet normal -5.957673e-08  3.952658e-07 -1.000000e+00
   outer loop
     vertex -1.909964e-01 -2.516905e-02 -3.174596e-02
     vertex -1.723773e-01 -1.994587e-01 -3.174603e-02
     vertex -1.974001e-01 -2.032303e-01 -3.174603e-02
   endloop
 endfacet
 facet normal -1.199344e-07  3.888179e-07 -1.000000e+00
   outer loop
     vertex -1.909964e-01 -2.516905e-02 -3.174596e-02
     vertex -1.481962e-01 -1.919998e-01 -3.174603e-02
     vertex -1.723773e-01 -1.994587e-01 -3.174603e-02
   endloop
 endfacet
 facet normal -1.798432e-07  3.734483e-07 -1.000000e+00
   outer loop
     vertex -1.909964e-01 -2.516905e-02 -3.174596e-02
     vertex -1.253968e-01 -1.810202e-01 -3.174603e-02
     vertex -1.481962e-01 -1.919998e-01 -3.174603e-02
   endloop
 endfacet
 facet normal -2.379404e-07  3.489945e-07 -1.000000e+00
   outer loop
     vertex -1.909964e-01 -2.516905e-02 -3.174596e-02
     vertex -1.044884e-01 -1.667651e-01 -3.174603e-02
     vertex -1.253968e-01 -1.810202e-01 -3.174603e-02
   endloop
 endfacet
 facet normal -2.194538e-08  3.939124e-07 -1.000000e+00
   outer loop
     vertex -1.909964e-01 -2.516905e-02 -3.174596e-02
     vertex -1.974001e-01 -2.032303e-01 -3.174603e-02
     vertex -2.235484e-01 -2.698256e-02 -3.174596e-02
   endloop
 endfacet
 facet normal -3.293288e-07  3.549321e-07 -1.000000e+00
   outer loop
     vertex -1.588142e-01 -1.995126e-02 -3.174596e-02
     vertex -8.593825e-02 -1.495531e-01 -3.174603e-02
     vertex -1.044884e-01 -1.667651e-01 -3.174603e-02
   endloop
 endfacet
 facet normal -3.972082e-07  3.167631e-07 -1.000000e+00
   outer loop
     vertex -1.588142e-01 -1.995126e-02 -3.174596e-02
     vertex -7.016057e-02 -1.297685e-01 -3.174603e-02
     vertex -8.593825e-02 -1.495531e-01 -3.174603e-02
   endloop
 endfacet
 facet normal -7.292859e-08  4.498083e-07 -1.000000e+00
   outer loop
     vertex -1.588142e-01 -1.995126e-02 -3.174596e-02
     vertex -1.044884e-01 -1.667651e-01 -3.174603e-02
     vertex -1.909964e-01 -2.516905e-02 -3.174596e-02
   endloop
 endfacet
 facet normal -4.603547e-07  2.657860e-07 -1.000000e+00
   outer loop
     vertex -5.750785e-02 -1.078533e-01 -3.174603e-02
     vertex -7.016057e-02 -1.297685e-01 -3.174603e-02
     vertex -1.588142e-01 -1.995126e-02 -3.174596e-02
   endloop
 endfacet
 facet normal -1.650278e-07  6.061476e-07 -1.000000e+00
   outer loop
     vertex -1.273568e-01 -1.138676e-02 -3.174596e-02
     vertex -5.750785e-02 -1.078533e-01 -3.174603e-02
     vertex -1.588142e-01 -1.995126e-02 -3.174596e-02
   endloop
 endfacet
 facet normal -6.498976e-07  2.550661e-07 -1.000000e+00
   outer loop
     vertex -4.826274e-02 -8.429719e-02 -3.174603e-02
     vertex -5.750785e-02 -1.078533e-01 -3.174603e-02
     vertex -1.273568e-01 -1.138676e-02 -3.174596e-02
   endloop
 endfacet
 facet normal -7.311822e-07  1.668877e-07 -1.000000e+00
   outer loop
     vertex -4.263175e-02 -5.962622e-02 -3.174603e-02
     vertex -4.826274e-02 -8.429719e-02 -3.174603e-02
     vertex -1.273568e-01 -1.138676e-02 -3.174596e-02
   endloop
 endfacet
 facet normal -3.353000e-07  8.621924e-07 -1.000000e+00
   outer loop
     vertex -9.697116e-02  4.299766e-04 -3.174596e-02
     vertex -4.263175e-02 -5.962622e-02 -3.174603e-02
     vertex -1.273568e-01 -1.138676e-02 -3.174596e-02
   endloop
 endfacet
 facet normal -1.189667e-06  8.915340e-08 -1.000000e+00
   outer loop
     vertex -4.074067e-02 -3.439155e-02 -3.174603e-02
     vertex -4.263175e-02 -5.962622e-02 -3.174603e-02
     vertex -9.697116e-02  4.299766e-04 -3.174596e-02
   endloop
 endfacet
 facet normal -5.655245e-07  1.097030e-06 -1.000000e+00
   outer loop
     vertex -6.799256e-02  1.536858e-02 -3.174596e-02
     vertex -4.074067e-02 -3.439155e-02 -3.174603e-02
     vertex -9.697116e-02  4.299766e-04 -3.174596e-02
   endloop
 endfacet
 facet normal -1.624029e-06  5.173243e-07 -1.000000e+00
   outer loop
     vertex -4.074067e-02  3.326427e-02 -3.174600e-02
     vertex -4.074067e-02 -3.439155e-02 -3.174603e-02
     vertex -6.799256e-02  1.536858e-02 -3.174596e-02
   endloop
 endfacet
 facet normal -1.000000e+00  0.000000e+00  0.000000e+00
   outer loop
     vertex -3.793650e-01  5.524441e-01 -1.587302e-02
     vertex -3.793650e-01  8.121694e-01  1.269842e-01
     vertex -3.793650e-01  8.121694e-01 -1.587302e-02
   endloop
 endfacet
 facet normal -1.000000e+00 -7.480560e-15  1.360023e-14
   outer loop
     vertex -3.793650e-01  5.524441e-01 -1.587302e-02
     vertex -3.793650e-01  5.524441e-01  1.269842e-01
     vertex -3.793650e-01  8.121694e-01  1.269842e-01
   endloop
 endfacet
 facet normal -1.000000e+00 -7.480560e-15  0.000000e+00
   outer loop
     vertex -3.793650e-01  5.524441e-01 -3.174600e-02
     vertex -3.793650e-01  8.121694e-01 -1.587302e-02
     vertex -3.793650e-01  8.121694e-01 -3.174603e-02
   endloop
 endfacet
 facet normal -1.000000e+00  0.000000e+00 -1.224024e-13
   outer loop
     vertex -3.793650e-01  5.524441e-01 -1.587302e-02
     vertex -3.793650e-01  8.121694e-01 -1.587302e-02
     vertex -3.793650e-01  5.524441e-01 -3.174600e-02
   endloop
 endfacet
 facet normal -5.489057e-01 -8.358843e-01 -1.940047e-13
   outer loop
     vertex -6.799256e-02  5.514746e-01 -3.174596e-02
     vertex -4.074067e-02  5.335789e-01 -3.174600e-02
     vertex -4.074067e-02  5.335789e-01 -1.587302e-02
   endloop
 endfacet
 facet normal -5.489057e-01 -8.358843e-01  2.155602e-14
   outer loop
     vertex -6.799256e-02  5.514746e-01  1.269842e-01
     vertex -4.074067e-02  5.335789e-01 -1.587302e-02
     vertex -4.074067e-02  5.335789e-01  1.269842e-01
   endloop
 endfacet
 facet normal -5.489057e-01 -8.358843e-01 -0.000000e+00
   outer loop
     vertex -6.799256e-02  5.514746e-01  1.269842e-01
     vertex -6.799256e-02  5.514746e-01 -3.174596e-02
     vertex -4.074067e-02  5.335789e-01 -1.587302e-02
   endloop
 endfacet
 facet normal -4.582048e-01 -8.888467e-01 -0.000000e+00
   outer loop
     vertex -9.697116e-02  5.664132e-01  1.269842e-01
     vertex -9.697116e-02  5.664132e-01 -3.174596e-02
     vertex -6.799256e-02  5.514746e-01 -3.174596e-02
   endloop
 endfacet
 facet normal -4.582048e-01 -8.888467e-01  0.000000e+00
   outer loop
     vertex -9.697116e-02  5.664132e-01  1.269842e-01
     vertex -6.799256e-02  5.514746e-01 -3.174596e-02
     vertex -6.799256e-02  5.514746e-01  1.269842e-01
   endloop
 endfacet
 facet normal -3.624490e-01 -9.320036e-01 -0.000000e+00
   outer loop
     vertex -1.273568e-01  5.782299e-01  1.269842e-01
     vertex -1.273568e-01  5.782299e-01 -3.174596e-02
     vertex -9.697116e-02  5.664132e-01 -3.174596e-02
   endloop
 endfacet
 facet normal -3.624490e-01 -9.320036e-01  0.000000e+00
   outer loop
     vertex -1.273568e-01  5.782299e-01  1.269842e-01
     vertex -9.697116e-02  5.664132e-01 -3.174596e-02
     vertex -9.697116e-02  5.664132e-01  1.269842e-01
   endloop
 endfacet
 facet normal -2.626949e-01 -9.648790e-01 -0.000000e+00
   outer loop
     vertex -1.588142e-01  5.867944e-01  1.269842e-01
     vertex -1.588142e-01  5.867944e-01 -3.174596e-02
     vertex -1.273568e-01  5.782299e-01 -3.174596e-02
   endloop
 endfacet
 facet normal -2.626949e-01 -9.648790e-01  0.000000e+00
   outer loop
     vertex -1.588142e-01  5.867944e-01  1.269842e-01
     vertex -1.273568e-01  5.782299e-01 -3.174596e-02
     vertex -1.273568e-01  5.782299e-01  1.269842e-01
   endloop
 endfacet
 facet normal -1.600427e-01 -9.871101e-01 -0.000000e+00
   outer loop
     vertex -1.909964e-01  5.920122e-01  1.269842e-01
     vertex -1.909964e-01  5.920122e-01 -3.174596e-02
     vertex -1.588142e-01  5.867944e-01 -3.174596e-02
   endloop
 endfacet
 facet normal -1.600427e-01 -9.871101e-01  0.000000e+00
   outer loop
     vertex -1.909964e-01  5.920122e-01  1.269842e-01
     vertex -1.588142e-01  5.867944e-01 -3.174596e-02
     vertex -1.588142e-01  5.867944e-01  1.269842e-01
   endloop
 endfacet
 facet normal -5.562506e-02 -9.984517e-01 -0.000000e+00
   outer loop
     vertex -2.235484e-01  5.938257e-01  1.269842e-01
     vertex -2.235484e-01  5.938257e-01 -3.174596e-02
     vertex -1.909964e-01  5.920122e-01 -3.174596e-02
   endloop
 endfacet
 facet normal -5.562506e-02 -9.984517e-01  0.000000e+00
   outer loop
     vertex -2.235484e-01  5.938257e-01  1.269842e-01
     vertex -1.909964e-01  5.920122e-01 -3.174596e-02
     vertex -1.909964e-01  5.920122e-01  1.269842e-01
   endloop
 endfacet
 facet normal  4.940625e-02 -9.987788e-01  0.000000e+00
   outer loop
     vertex -2.561111e-01  5.922150e-01  1.269842e-01
     vertex -2.561111e-01  5.922150e-01 -3.174596e-02
     vertex -2.235484e-01  5.938257e-01 -3.174596e-02
   endloop
 endfacet
 facet normal  4.940625e-02 -9.987788e-01  0.000000e+00
   outer loop
     vertex -2.561111e-01  5.922150e-01  1.269842e-01
     vertex -2.235484e-01  5.938257e-01 -3.174596e-02
     vertex -2.235484e-01  5.938257e-01  1.269842e-01
   endloop
 endfacet
 facet normal  1.538925e-01 -9.880876e-01  0.000000e+00
   outer loop
     vertex -2.883252e-01  5.871977e-01  1.269842e-01
     vertex -2.883252e-01  5.871977e-01 -3.174596e-02
     vertex -2.561111e-01  5.922150e-01 -3.174596e-02
   endloop
 endfacet
 facet normal  1.538925e-01 -9.880876e-01  0.000000e+00
   outer loop
     vertex -2.883252e-01  5.871977e-01  1.269842e-01
     vertex -2.561111e-01  5.922150e-01 -3.174596e-02
     vertex -2.561111e-01  5.922150e-01  1.269842e-01
   endloop
 endfacet
 facet normal  2.566811e-01 -9.664962e-01  0.000000e+00
   outer loop
     vertex -3.198353e-01  5.788293e-01  1.269842e-01
     vertex -3.198353e-01  5.788293e-01 -3.174596e-02
     vertex -2.883252e-01  5.871977e-01 -3.174596e-02
   endloop
 endfacet
 facet normal  2.566811e-01 -9.664962e-01  0.000000e+00
   outer loop
     vertex -3.198353e-01  5.788293e-01  1.269842e-01
     vertex -2.883252e-01  5.871977e-01 -3.174596e-02
     vertex -2.883252e-01  5.871977e-01  1.269842e-01
   endloop
 endfacet
 facet normal  4.526607e-01 -8.916828e-01 -6.309256e-14
   outer loop
     vertex -3.793650e-01  5.524441e-01 -1.587302e-02
     vertex -3.793650e-01  5.524441e-01 -3.174600e-02
     vertex -3.502940e-01  5.672020e-01 -3.174596e-02
   endloop
 endfacet
 facet normal  3.566381e-01 -9.342426e-01  0.000000e+00
   outer loop
     vertex -3.502940e-01  5.672020e-01  1.269842e-01
     vertex -3.502940e-01  5.672020e-01 -3.174596e-02
     vertex -3.198353e-01  5.788293e-01 -3.174596e-02
   endloop
 endfacet
 facet normal  3.566381e-01 -9.342426e-01  0.000000e+00
   outer loop
     vertex -3.502940e-01  5.672020e-01  1.269842e-01
     vertex -3.198353e-01  5.788293e-01 -3.174596e-02
     vertex -3.198353e-01  5.788293e-01  1.269842e-01
   endloop
 endfacet
 facet normal  4.526607e-01 -8.916828e-01  0.000000e+00
   outer loop
     vertex -3.502940e-01  5.672020e-01  1.269842e-01
     vertex -3.793650e-01  5.524441e-01 -1.587302e-02
     vertex -3.502940e-01  5.672020e-01 -3.174596e-02
   endloop
 endfacet
 facet normal  4.526607e-01 -8.916828e-01  7.010265e-15
   outer loop
     vertex -3.793650e-01  5.524441e-01  1.269842e-01
     vertex -3.793650e-01  5.524441e-01 -1.587302e-02
     vertex -3.502940e-01  5.672020e-01  1.269842e-01
   endloop
 endfacet
 facet normal  0.000000e+00  0.000000e+00  1.000000e+00
   outer loop
     vertex -3.341675e-01  6.970078e-01  1.269842e-01
     vertex -3.793650e-01  5.524441e-01  1.269842e-01
     vertex -3.502940e-01  5.672020e-01  1.269842e-01
   endloop
 endfacet
 facet normal  0.000000e+00  0.000000e+00  1.000000e+00
   outer loop
     vertex -3.156173e-01  6.797958e-01  1.269842e-01
     vertex -3.502940e-01  5.672020e-01  1.269842e-01
     vertex -3.198353e-01  5.788293e-01  1.269842e-01
   endloop
 endfacet
 facet normal  0.000000e+00  0.000000e+00  1.000000e+00
   outer loop
     vertex -3.156173e-01  6.797958e-01  1.269842e-01
     vertex -3.341675e-01  6.970078e-01  1.269842e-01
     vertex -3.502940e-01  5.672020e-01  1.269842e-01
   endloop
 endfacet
 facet normal  0.000000e+00  0.000000e+00  1.000000e+00
   outer loop
     vertex -3.499451e-01  7.167924e-01  1.269842e-01
     vertex -3.793650e-01  5.524441e-01  1.269842e-01
     vertex -3.341675e-01  6.970078e-01  1.269842e-01
   endloop
 endfacet
 facet normal  0.000000e+00  0.000000e+00  1.000000e+00
   outer loop
     vertex -2.947089e-01  6.655407e-01  1.269842e-01
     vertex -3.198353e-01  5.788293e-01  1.269842e-01
     vertex -2.883252e-01  5.871977e-01  1.269842e-01
   endloop
 endfacet
 facet normal  0.000000e+00  0.000000e+00  1.000000e+00
   outer loop
     vertex -2.947089e-01  6.655407e-01  1.269842e-01
     vertex -3.156173e-01  6.797958e-01  1.269842e-01
     vertex -3.198353e-01  5.788293e-01  1.269842e-01
   endloop
 endfacet
 facet normal  0.000000e+00  0.000000e+00  1.000000e+00
   outer loop
     vertex -3.625979e-01  7.387076e-01  1.269842e-01
     vertex -3.793650e-01  5.524441e-01  1.269842e-01
     vertex -3.499451e-01  7.167924e-01  1.269842e-01
   endloop
 endfacet
 facet normal  0.000000e+00  0.000000e+00  1.000000e+00
   outer loop
     vertex -2.719095e-01  6.545611e-01  1.269842e-01
     vertex -2.883252e-01  5.871977e-01  1.269842e-01
     vertex -2.561111e-01  5.922150e-01  1.269842e-01
   endloop
 endfacet
 facet normal  0.000000e+00  0.000000e+00  1.000000e+00
   outer loop
     vertex -2.719095e-01  6.545611e-01  1.269842e-01
     vertex -2.947089e-01  6.655407e-01  1.269842e-01
     vertex -2.883252e-01  5.871977e-01  1.269842e-01
   endloop
 endfacet
 facet normal  0.000000e+00  0.000000e+00  1.000000e+00
   outer loop
     vertex -3.718430e-01  7.622637e-01  1.269842e-01
     vertex -3.793650e-01  5.524441e-01  1.269842e-01
     vertex -3.625979e-01  7.387076e-01  1.269842e-01
   endloop
 endfacet
 facet normal  0.000000e+00  0.000000e+00  1.000000e+00
   outer loop
     vertex -2.477284e-01  6.471022e-01  1.269842e-01
     vertex -2.561111e-01  5.922150e-01  1.269842e-01
     vertex -2.235484e-01  5.938257e-01  1.269842e-01
   endloop
 endfacet
 facet normal  0.000000e+00  0.000000e+00  1.000000e+00
   outer loop
     vertex -2.477284e-01  6.471022e-01  1.269842e-01
     vertex -2.719095e-01  6.545611e-01  1.269842e-01
     vertex -2.561111e-01  5.922150e-01  1.269842e-01
   endloop
 endfacet
 facet normal  0.000000e+00  0.000000e+00  1.000000e+00
   outer loop
     vertex -2.227056e-01  6.433306e-01  1.269842e-01
     vertex -2.477284e-01  6.471022e-01  1.269842e-01
     vertex -2.235484e-01  5.938257e-01  1.269842e-01
   endloop
 endfacet
 facet normal  0.000000e+00  0.000000e+00  1.000000e+00
   outer loop
     vertex -1.974001e-01  6.433306e-01  1.269842e-01
     vertex -2.235484e-01  5.938257e-01  1.269842e-01
     vertex -1.909964e-01  5.920122e-01  1.269842e-01
   endloop
 endfacet
 facet normal  0.000000e+00  0.000000e+00  1.000000e+00
   outer loop
     vertex -1.974001e-01  6.433306e-01  1.269842e-01
     vertex -2.227056e-01  6.433306e-01  1.269842e-01
     vertex -2.235484e-01  5.938257e-01  1.269842e-01
   endloop
 endfacet
 facet normal  0.000000e+00  0.000000e+00  1.000000e+00
   outer loop
     vertex -1.723773e-01  6.471022e-01  1.269842e-01
     vertex -1.909964e-01  5.920122e-01  1.269842e-01
     vertex -1.588142e-01  5.867944e-01  1.269842e-01
   endloop
 endfacet
 facet normal  0.000000e+00  0.000000e+00  1.000000e+00
   outer loop
     vertex -1.723773e-01  6.471022e-01  1.269842e-01
     vertex -1.974001e-01  6.433306e-01  1.269842e-01
     vertex -1.909964e-01  5.920122e-01  1.269842e-01
   endloop
 endfacet
 facet normal  0.000000e+00  0.000000e+00  1.000000e+00
   outer loop
     vertex -1.481962e-01  6.545611e-01  1.269842e-01
     vertex -1.588142e-01  5.867944e-01  1.269842e-01
     vertex -1.273568e-01  5.782299e-01  1.269842e-01
   endloop
 endfacet
 facet normal  0.000000e+00  0.000000e+00  1.000000e+00
   outer loop
     vertex -1.481962e-01  6.545611e-01  1.269842e-01
     vertex -1.723773e-01  6.471022e-01  1.269842e-01
     vertex -1.588142e-01  5.867944e-01  1.269842e-01
   endloop
 endfacet
 facet normal  0.000000e+00  0.000000e+00  1.000000e+00
   outer loop
     vertex -1.253968e-01  6.655407e-01  1.269842e-01
     vertex -1.273568e-01  5.782299e-01  1.269842e-01
     vertex -9.697116e-02  5.664132e-01  1.269842e-01
   endloop
 endfacet
 facet normal  0.000000e+00  0.000000e+00  1.000000e+00
   outer loop
     vertex -1.253968e-01  6.655407e-01  1.269842e-01
     vertex -1.481962e-01  6.545611e-01  1.269842e-01
     vertex -1.273568e-01  5.782299e-01  1.269842e-01
   endloop
 endfacet
 facet normal  0.000000e+00  0.000000e+00  1.000000e+00
   outer loop
     vertex -1.044884e-01  6.797958e-01  1.269842e-01
     vertex -9.697116e-02  5.664132e-01  1.269842e-01
     vertex -6.799256e-02  5.514746e-01  1.269842e-01
   endloop
 endfacet
 facet normal  0.000000e+00  0.000000e+00  1.000000e+00
   outer loop
     vertex -1.044884e-01  6.797958e-01  1.269842e-01
     vertex -1.253968e-01  6.655407e-01  1.269842e-01
     vertex -9.697116e-02  5.664132e-01  1.269842e-01
   endloop
 endfacet
 facet normal  0.000000e+00  0.000000e+00  1.000000e+00
   outer loop
     vertex -8.593824e-02  6.970078e-01  1.269842e-01
     vertex -6.799256e-02  5.514746e-01  1.269842e-01
     vertex -4.074067e-02  5.335789e-01  1.269842e-01
   endloop
 endfacet
 facet normal  0.000000e+00  0.000000e+00  1.000000e+00
   outer loop
     vertex -8.593824e-02  6.970078e-01  1.269842e-01
     vertex -1.044884e-01  6.797958e-01  1.269842e-01
     vertex -6.799256e-02  5.514746e-01  1.269842e-01
   endloop
 endfacet
 facet normal  0.000000e+00  0.000000e+00  1.000000e+00
   outer loop
     vertex -7.016056e-02  7.167924e-01  1.269842e-01
     vertex -8.593824e-02  6.970078e-01  1.269842e-01
     vertex -4.074067e-02  5.335789e-01  1.269842e-01
   endloop
 endfacet
 facet normal  0.000000e+00  0.000000e+00  1.000000e+00
   outer loop
     vertex -5.750785e-02  7.387076e-01  1.269842e-01
     vertex -7.016056e-02  7.167924e-01  1.269842e-01
     vertex -4.074067e-02  5.335789e-01  1.269842e-01
   endloop
 endfacet
 facet normal  0.000000e+00  0.000000e+00  1.000000e+00
   outer loop
     vertex -4.826273e-02  7.622637e-01  1.269842e-01
     vertex -5.750785e-02  7.387076e-01  1.269842e-01
     vertex -4.074067e-02  5.335789e-01  1.269842e-01
   endloop
 endfacet
 facet normal  0.000000e+00  0.000000e+00  1.000000e+00
   outer loop
     vertex -3.793650e-01  8.121694e-01  1.269842e-01
     vertex -3.793650e-01  5.524441e-01  1.269842e-01
     vertex -3.774739e-01  7.869347e-01  1.269842e-01
   endloop
 endfacet
 facet normal  0.000000e+00  0.000000e+00  1.000000e+00
   outer loop
     vertex -3.774739e-01  7.869347e-01  1.269842e-01
     vertex -3.793650e-01  5.524441e-01  1.269842e-01
     vertex -3.718430e-01  7.622637e-01  1.269842e-01
   endloop
 endfacet
 facet normal  0.000000e+00 -0.000000e+00  1.000000e+00
   outer loop
     vertex -4.074067e-02  5.335789e-01  1.269842e-01
     vertex -4.074067e-02  8.121694e-01  1.269842e-01
     vertex -4.263175e-02  7.869347e-01  1.269842e-01
   endloop
 endfacet
 facet normal  0.000000e+00  0.000000e+00  1.000000e+00
   outer loop
     vertex -4.074067e-02  5.335789e-01  1.269842e-01
     vertex -4.263175e-02  7.869347e-01  1.269842e-01
     vertex -4.826273e-02  7.622637e-01  1.269842e-01
   endloop
 endfacet
 facet normal -9.972038e-01  7.473009e-02  0.000000e+00
   outer loop
     vertex -4.263175e-02  7.869347e-01 -1.587302e-02
     vertex -4.074067e-02  8.121694e-01  1.269842e-01
     vertex -4.074067e-02  8.121694e-01 -1.587302e-02
   endloop
 endfacet
 facet normal -9.972038e-01  7.473009e-02  0.000000e+00
   outer loop
     vertex -4.263175e-02  7.869347e-01 -1.587302e-02
     vertex -4.263175e-02  7.869347e-01  1.269842e-01
     vertex -4.074067e-02  8.121694e-01  1.269842e-01
   endloop
 endfacet
 facet normal -9.749279e-01  2.225209e-01  0.000000e+00
   outer loop
     vertex -4.826273e-02  7.622637e-01 -1.587302e-02
     vertex -4.826273e-02  7.622637e-01  1.269842e-01
     vertex -4.263175e-02  7.869347e-01  1.269842e-01
   endloop
 endfacet
 facet normal -9.749279e-01  2.225209e-01  0.000000e+00
   outer loop
     vertex -4.826273e-02  7.622637e-01 -1.587302e-02
     vertex -4.263175e-02  7.869347e-01  1.269842e-01
     vertex -4.263175e-02  7.869347e-01 -1.587302e-02
   endloop
 endfacet
 facet normal -9.308737e-01  3.653410e-01  0.000000e+00
   outer loop
     vertex -5.750785e-02  7.387076e-01 -1.587302e-02
     vertex -5.750785e-02  7.387076e-01  1.269842e-01
     vertex -4.826273e-02  7.622637e-01  1.269842e-01
   endloop
 endfacet
 facet normal -9.308737e-01  3.653410e-01  0.000000e+00
   outer loop
     vertex -5.750785e-02  7.387076e-01 -1.587302e-02
     vertex -4.826273e-02  7.622637e-01  1.269842e-01
     vertex -4.826273e-02  7.622637e-01 -1.587302e-02
   endloop
 endfacet
 facet normal -8.660254e-01  5.000000e-01  0.000000e+00
   outer loop
     vertex -7.016056e-02  7.167924e-01 -1.587302e-02
     vertex -7.016056e-02  7.167924e-01  1.269842e-01
     vertex -5.750785e-02  7.387076e-01  1.269842e-01
   endloop
 endfacet
 facet normal -8.660254e-01  5.000000e-01  0.000000e+00
   outer loop
     vertex -7.016056e-02  7.167924e-01 -1.587302e-02
     vertex -5.750785e-02  7.387076e-01  1.269842e-01
     vertex -5.750785e-02  7.387076e-01 -1.587302e-02
   endloop
 endfacet
 facet normal -7.818315e-01  6.234898e-01  0.000000e+00
   outer loop
     vertex -8.593824e-02  6.970078e-01 -1.587302e-02
     vertex -8.593824e-02  6.970078e-01  1.269842e-01
     vertex -7.016056e-02  7.167924e-01  1.269842e-01
   endloop
 endfacet
 facet normal -7.818315e-01  6.234898e-01  0.000000e+00
   outer loop
     vertex -8.593824e-02  6.970078e-01 -1.587302e-02
     vertex -7.016056e-02  7.167924e-01  1.269842e-01
     vertex -7.016056e-02  7.167924e-01 -1.587302e-02
   endloop
 endfacet
 facet normal -6.801727e-01  7.330519e-01  0.000000e+00
   outer loop
     vertex -1.044884e-01  6.797958e-01 -1.587302e-02
     vertex -1.044884e-01  6.797958e-01  1.269842e-01
     vertex -8.593824e-02  6.970078e-01  1.269842e-01
   endloop
 endfacet
 facet normal -6.801727e-01  7.330519e-01  0.000000e+00
   outer loop
     vertex -1.044884e-01  6.797958e-01 -1.587302e-02
     vertex -8.593824e-02  6.970078e-01  1.269842e-01
     vertex -8.593824e-02  6.970078e-01 -1.587302e-02
   endloop
 endfacet
 facet normal -5.633201e-01  8.262388e-01  0.000000e+00
   outer loop
     vertex -1.253968e-01  6.655407e-01 -1.587302e-02
     vertex -1.253968e-01  6.655407e-01  1.269842e-01
     vertex -1.044884e-01  6.797958e-01  1.269842e-01
   endloop
 endfacet
 facet normal -5.633201e-01  8.262388e-01  0.000000e+00
   outer loop
     vertex -1.253968e-01  6.655407e-01 -1.587302e-02
     vertex -1.044884e-01  6.797958e-01  1.269842e-01
     vertex -1.044884e-01  6.797958e-01 -1.587302e-02
   endloop
 endfacet
 facet normal -4.338837e-01  9.009689e-01  0.000000e+00
   outer loop
     vertex -1.481962e-01  6.545611e-01 -1.587302e-02
     vertex -1.481962e-01  6.545611e-01  1.269842e-01
     vertex -1.253968e-01  6.655407e-01  1.269842e-01
   endloop
 endfacet
 facet normal -4.338837e-01  9.009689e-01  0.000000e+00
   outer loop
     vertex -1.481962e-01  6.545611e-01 -1.587302e-02
     vertex -1.253968e-01  6.655407e-01  1.269842e-01
     vertex -1.253968e-01  6.655407e-01 -1.587302e-02
   endloop
 endfacet
 facet normal -2.947552e-01  9.555728e-01  0.000000e+00
   outer loop
     vertex -1.723773e-01  6.471022e-01 -1.587302e-02
     vertex -1.723773e-01  6.471022e-01  1.269842e-01
     vertex -1.481962e-01  6.545611e-01  1.269842e-01
   endloop
 endfacet
 facet normal -2.947552e-01  9.555728e-01  0.000000e+00
   outer loop
     vertex -1.723773e-01  6.471022e-01 -1.587302e-02
     vertex -1.481962e-01  6.545611e-01  1.269842e-01
     vertex -1.481962e-01  6.545611e-01 -1.587302e-02
   endloop
 endfacet
 facet normal -1.490423e-01  9.888308e-01  0.000000e+00
   outer loop
     vertex -1.974001e-01  6.433306e-01 -1.587302e-02
     vertex -1.974001e-01  6.433306e-01  1.269842e-01
     vertex -1.723773e-01  6.471022e-01  1.269842e-01
   endloop
 endfacet
 facet normal -1.490423e-01  9.888308e-01  0.000000e+00
   outer loop
     vertex -1.974001e-01  6.433306e-01 -1.587302e-02
     vertex -1.723773e-01  6.471022e-01  1.269842e-01
     vertex -1.723773e-01  6.471022e-01 -1.587302e-02
   endloop
 endfacet
 facet normal  0.000000e+00  1.000000e+00  0.000000e+00
   outer loop
     vertex -2.227056e-01  6.433306e-01 -1.587302e-02
     vertex -2.227056e-01  6.433306e-01  1.269842e-01
     vertex -1.974001e-01  6.433306e-01  1.269842e-01
   endloop
 endfacet
 facet normal  0.000000e+00  1.000000e+00  0.000000e+00
   outer loop
     vertex -2.227056e-01  6.433306e-01 -1.587302e-02
     vertex -1.974001e-01  6.433306e-01  1.269842e-01
     vertex -1.974001e-01  6.433306e-01 -1.587302e-02
   endloop
 endfacet
 facet normal  1.490423e-01  9.888308e-01 -0.000000e+00
   outer loop
     vertex -2.477284e-01  6.471022e-01 -1.587302e-02
     vertex -2.477284e-01  6.471022e-01  1.269842e-01
     vertex -2.227056e-01  6.433306e-01  1.269842e-01
   endloop
 endfacet
 facet normal  1.490423e-01  9.888308e-01  0.000000e+00
   outer loop
     vertex -2.477284e-01  6.471022e-01 -1.587302e-02
     vertex -2.227056e-01  6.433306e-01  1.269842e-01
     vertex -2.227056e-01  6.433306e-01 -1.587302e-02
   endloop
 endfacet
 facet normal  2.947552e-01  9.555728e-01 -0.000000e+00
   outer loop
     vertex -2.719095e-01  6.545611e-01 -1.587302e-02
     vertex -2.719095e-01  6.545611e-01  1.269842e-01
     vertex -2.477284e-01  6.471022e-01  1.269842e-01
   endloop
 endfacet
 facet normal  2.947552e-01  9.555728e-01  0.000000e+00
   outer loop
     vertex -2.719095e-01  6.545611e-01 -1.587302e-02
     vertex -2.477284e-01  6.471022e-01  1.269842e-01
     vertex -2.477284e-01  6.471022e-01 -1.587302e-02
   endloop
 endfacet
 facet normal  4.338837e-01  9.009689e-01  0.000000e+00
   outer loop
     vertex -2.947089e-01  6.655407e-01 -1.587302e-02
     vertex -2.719095e-01  6.545611e-01  1.269842e-01
     vertex -2.719095e-01  6.545611e-01 -1.587302e-02
   endloop
 endfacet
 facet normal  4.338837e-01  9.009689e-01 -0.000000e+00
   outer loop
     vertex -2.947089e-01  6.655407e-01 -1.587302e-02
     vertex -2.947089e-01  6.655407e-01  1.269842e-01
     vertex -2.719095e-01  6.545611e-01  1.269842e-01
   endloop
 endfacet
 facet normal  5.633201e-01  8.262388e-01  0.000000e+00
   outer loop
     vertex -3.156173e-01  6.797958e-01 -1.587302e-02
     vertex -2.947089e-01  6.655407e-01  1.269842e-01
     vertex -2.947089e-01  6.655407e-01 -1.587302e-02
   endloop
 endfacet
 facet normal  5.633201e-01  8.262388e-01 -0.000000e+00
   outer loop
     vertex -3.156173e-01  6.797958e-01 -1.587302e-02
     vertex -3.156173e-01  6.797958e-01  1.269842e-01
     vertex -2.947089e-01  6.655407e-01  1.269842e-01
   endloop
 endfacet
 facet normal  6.801727e-01  7.330519e-01  0.000000e+00
   outer loop
     vertex -3.341675e-01  6.970078e-01 -1.587302e-02
     vertex -3.156173e-01  6.797958e-01  1.269842e-01
     vertex -3.156173e-01  6.797958e-01 -1.587302e-02
   endloop
 endfacet
 facet normal  6.801727e-01  7.330519e-01 -0.000000e+00
   outer loop
     vertex -3.341675e-01  6.970078e-01 -1.587302e-02
     vertex -3.341675e-01  6.970078e-01  1.269842e-01
     vertex -3.156173e-01  6.797958e-01  1.269842e-01
   endloop
 endfacet
 facet normal  7.818315e-01  6.234898e-01 -0.000000e+00
   outer loop
     vertex -3.341675e-01  6.970078e-01 -1.587302e-02
     vertex -3.499451e-01  7.167924e-01  1.269842e-01
     vertex -3.341675e-01  6.970078e-01  1.269842e-01
   endloop
 endfacet
 facet normal  7.818315e-01  6.234898e-01 -0.000000e+00
   outer loop
     vertex -3.499451e-01  7.167924e-01 -1.587302e-02
     vertex -3.499451e-01  7.167924e-01  1.269842e-01
     vertex -3.341675e-01  6.970078e-01 -1.587302e-02
   endloop
 endfacet
 facet normal  8.660254e-01  5.000000e-01  0.000000e+00
   outer loop
     vertex -3.625979e-01  7.387076e-01 -1.587302e-02
     vertex -3.499451e-01  7.167924e-01  1.269842e-01
     vertex -3.499451e-01  7.167924e-01 -1.587302e-02
   endloop
 endfacet
 facet normal  8.660254e-01  5.000000e-01 -0.000000e+00
   outer loop
     vertex -3.625979e-01  7.387076e-01 -1.587302e-02
     vertex -3.625979e-01  7.387076e-01  1.269842e-01
     vertex -3.499451e-01  7.167924e-01  1.269842e-01
   endloop
 endfacet
 facet normal  9.308737e-01  3.653410e-01 -0.000000e+00
   outer loop
     vertex -3.718430e-01  7.622637e-01 -1.587302e-02
     vertex -3.718430e-01  7.622637e-01  1.269842e-01
     vertex -3.625979e-01  7.387076e-01  1.269842e-01
   endloop
 endfacet
 facet normal  9.308737e-01  3.653410e-01  0.000000e+00
   outer loop
     vertex -3.718430e-01  7.622637e-01 -1.587302e-02
     vertex -3.625979e-01  7.387076e-01  1.269842e-01
     vertex -3.625979e-01  7.387076e-01 -1.587302e-02
   endloop
 endfacet
 facet normal  9.749279e-01  2.225209e-01 -0.000000e+00
   outer loop
     vertex -3.774739e-01  7.869347e-01 -1.587302e-02
     vertex -3.774739e-01  7.869347e-01  1.269842e-01
     vertex -3.718430e-01  7.622637e-01  1.269842e-01
   endloop
 endfacet
 facet normal  9.749279e-01  2.225209e-01  0.000000e+00
   outer loop
     vertex -3.774739e-01  7.869347e-01 -1.587302e-02
     vertex -3.718430e-01  7.622637e-01  1.269842e-01
     vertex -3.718430e-01  7.622637e-01 -1.587302e-02
   endloop
 endfacet
 facet normal  9.972038e-01  7.473009e-02 -0.000000e+00
   outer loop
     vertex -3.793650e-01  8.121694e-01 -1.587302e-02
     vertex -3.793650e-01  8.121694e-01  1.269842e-01
     vertex -3.774739e-01  7.869347e-01  1.269842e-01
   endloop
 endfacet
 facet normal  9.972038e-01  7.473009e-02  0.000000e+00
   outer loop
     vertex -3.793650e-01  8.121694e-01 -1.587302e-02
     vertex -3.774739e-01  7.869347e-01  1.269842e-01
     vertex -3.774739e-01  7.869347e-01 -1.587302e-02
   endloop
 endfacet
 facet normal  1.577173e-06 -7.352078e-07 -1.000000e+00
   outer loop
     vertex -3.341675e-01  6.970078e-01 -3.174603e-02
     vertex -3.502940e-01  5.672020e-01 -3.174596e-02
     vertex -3.793650e-01  5.524441e-01 -3.174600e-02
   endloop
 endfacet
 facet normal  2.689494e-07 -7.045350e-07 -1.000000e+00
   outer loop
     vertex -3.156173e-01  6.797958e-01 -3.174603e-02
     vertex -3.198353e-01  5.788293e-01 -3.174596e-02
     vertex -3.502940e-01  5.672020e-01 -3.174596e-02
   endloop
 endfacet
 facet normal -4.486490e-07 -4.835286e-07 -1.000000e+00
   outer loop
     vertex -3.156173e-01  6.797958e-01 -3.174603e-02
     vertex -3.502940e-01  5.672020e-01 -3.174596e-02
     vertex -3.341675e-01  6.970078e-01 -3.174603e-02
   endloop
 endfacet
 facet normal -2.180912e-07 -1.739220e-07 -1.000000e+00
   outer loop
     vertex -3.499451e-01  7.167924e-01 -3.174603e-02
     vertex -3.341675e-01  6.970078e-01 -3.174603e-02
     vertex -3.793650e-01  5.524441e-01 -3.174600e-02
   endloop
 endfacet
 facet normal  2.322701e-07 -8.745799e-07 -1.000000e+00
   outer loop
     vertex -2.947089e-01  6.655407e-01 -3.174603e-02
     vertex -2.883252e-01  5.871977e-01 -3.174596e-02
     vertex -3.198353e-01  5.788293e-01 -3.174596e-02
   endloop
 endfacet
 facet normal -4.595927e-07 -6.740987e-07 -1.000000e+00
   outer loop
     vertex -2.947089e-01  6.655407e-01 -3.174603e-02
     vertex -3.198353e-01  5.788293e-01 -3.174596e-02
     vertex -3.156173e-01  6.797958e-01 -3.174603e-02
   endloop
 endfacet
 facet normal -2.815623e-07 -1.625600e-07 -1.000000e+00
   outer loop
     vertex -3.625979e-01  7.387076e-01 -3.174603e-02
     vertex -3.499451e-01  7.167924e-01 -3.174603e-02
     vertex -3.793650e-01  5.524441e-01 -3.174600e-02
   endloop
 endfacet
 facet normal  1.682287e-07 -1.080135e-06 -1.000000e+00
   outer loop
     vertex -2.719095e-01  6.545611e-01 -3.174603e-02
     vertex -2.561111e-01  5.922150e-01 -3.174596e-02
     vertex -2.883252e-01  5.871977e-01 -3.174596e-02
   endloop
 endfacet
 facet normal -4.478646e-07 -9.300005e-07 -1.000000e+00
   outer loop
     vertex -2.719095e-01  6.545611e-01 -3.174603e-02
     vertex -2.883252e-01  5.871977e-01 -3.174596e-02
     vertex -2.947089e-01  6.655407e-01 -3.174603e-02
   endloop
 endfacet
 facet normal -3.894506e-07 -1.528481e-07 -1.000000e+00
   outer loop
     vertex -3.718430e-01  7.622637e-01 -3.174603e-02
     vertex -3.625979e-01  7.387076e-01 -3.174603e-02
     vertex -3.793650e-01  5.524441e-01 -3.174600e-02
   endloop
 endfacet
 facet normal  6.356715e-08 -1.285050e-06 -1.000000e+00
   outer loop
     vertex -2.477284e-01  6.471022e-01 -3.174603e-02
     vertex -2.235484e-01  5.938257e-01 -3.174596e-02
     vertex -2.561111e-01  5.922150e-01 -3.174596e-02
   endloop
 endfacet
 facet normal -3.756921e-07 -1.217964e-06 -1.000000e+00
   outer loop
     vertex -2.477284e-01  6.471022e-01 -3.174603e-02
     vertex -2.561111e-01  5.922150e-01 -3.174596e-02
     vertex -2.719095e-01  6.545611e-01 -3.174603e-02
   endloop
 endfacet
 facet normal -2.125809e-07 -1.410382e-06 -1.000000e+00
   outer loop
     vertex -2.227056e-01  6.433306e-01 -3.174603e-02
     vertex -2.235484e-01  5.938257e-01 -3.174596e-02
     vertex -2.477284e-01  6.471022e-01 -3.174603e-02
   endloop
 endfacet
 facet normal -7.652406e-08 -1.373582e-06 -1.000000e+00
   outer loop
     vertex -1.974001e-01  6.433306e-01 -3.174603e-02
     vertex -1.909964e-01  5.920122e-01 -3.174596e-02
     vertex -2.235484e-01  5.938257e-01 -3.174596e-02
   endloop
 endfacet
 facet normal -0.000000e+00 -1.414002e-06 -1.000000e+00
   outer loop
     vertex -1.974001e-01  6.433306e-01 -3.174603e-02
     vertex -2.235484e-01  5.938257e-01 -3.174596e-02
     vertex -2.227056e-01  6.433306e-01 -3.174603e-02
   endloop
 endfacet
 facet normal -1.953111e-07 -1.204638e-06 -1.000000e+00
   outer loop
     vertex -1.723773e-01  6.471022e-01 -3.174603e-02
     vertex -1.588142e-01  5.867944e-01 -3.174596e-02
     vertex -1.909964e-01  5.920122e-01 -3.174596e-02
   endloop
 endfacet
 facet normal  2.017994e-07 -1.338852e-06 -1.000000e+00
   outer loop
     vertex -1.723773e-01  6.471022e-01 -3.174603e-02
     vertex -1.909964e-01  5.920122e-01 -3.174596e-02
     vertex -1.974001e-01  6.433306e-01 -3.174603e-02
   endloop
 endfacet
 facet normal -2.697233e-07 -9.906943e-07 -1.000000e+00
   outer loop
     vertex -1.481962e-01  6.545611e-01 -3.174603e-02
     vertex -1.273568e-01  5.782299e-01 -3.174596e-02
     vertex -1.588142e-01  5.867944e-01 -3.174596e-02
   endloop
 endfacet
 facet normal  3.348063e-07 -1.085415e-06 -1.000000e+00
   outer loop
     vertex -1.481962e-01  6.545611e-01 -3.174603e-02
     vertex -1.588142e-01  5.867944e-01 -3.174596e-02
     vertex -1.723773e-01  6.471022e-01 -3.174603e-02
   endloop
 endfacet
 facet normal -3.090896e-07 -7.947949e-07 -1.000000e+00
   outer loop
     vertex -1.253968e-01  6.655407e-01 -3.174603e-02
     vertex -9.697116e-02  5.664132e-01 -3.174596e-02
     vertex -1.273568e-01  5.782299e-01 -3.174596e-02
   endloop
 endfacet
 facet normal  3.903141e-07 -8.104957e-07 -1.000000e+00
   outer loop
     vertex -1.253968e-01  6.655407e-01 -3.174603e-02
     vertex -1.273568e-01  5.782299e-01 -3.174596e-02
     vertex -1.481962e-01  6.545611e-01 -3.174603e-02
   endloop
 endfacet
 facet normal -3.295242e-07 -6.392262e-07 -1.000000e+00
   outer loop
     vertex -1.044884e-01  6.797958e-01 -3.174603e-02
     vertex -6.799256e-02  5.514746e-01 -3.174596e-02
     vertex -9.697116e-02  5.664132e-01 -3.174596e-02
   endloop
 endfacet
 facet normal  4.027178e-07 -5.906785e-07 -1.000000e+00
   outer loop
     vertex -1.044884e-01  6.797958e-01 -3.174603e-02
     vertex -9.697116e-02  5.664132e-01 -3.174596e-02
     vertex -1.253968e-01  6.655407e-01 -3.174603e-02
   endloop
 endfacet
 facet normal -1.741159e-06 -6.956917e-07 -1.000000e+00
   outer loop
     vertex -8.593824e-02  6.970078e-01 -3.174603e-02
     vertex -4.074067e-02  5.335789e-01 -3.174600e-02
     vertex -6.799256e-02  5.514746e-01 -3.174596e-02
   endloop
 endfacet
 facet normal  4.004732e-07 -4.316074e-07 -1.000000e+00
   outer loop
     vertex -8.593824e-02  6.970078e-01 -3.174603e-02
     vertex -6.799256e-02  5.514746e-01 -3.174596e-02
     vertex -1.044884e-01  6.797958e-01 -3.174603e-02
   endloop
 endfacet
 facet normal  1.993986e-07 -1.590151e-07 -1.000000e+00
   outer loop
     vertex -7.016056e-02  7.167924e-01 -3.174603e-02
     vertex -4.074067e-02  5.335789e-01 -3.174600e-02
     vertex -8.593824e-02  6.970078e-01 -3.174603e-02
   endloop
 endfacet
 facet normal  2.588791e-07 -1.494639e-07 -1.000000e+00
   outer loop
     vertex -5.750785e-02  7.387076e-01 -3.174603e-02
     vertex -4.074067e-02  5.335789e-01 -3.174600e-02
     vertex -7.016056e-02  7.167924e-01 -3.174603e-02
   endloop
 endfacet
 facet normal  3.598075e-07 -1.412140e-07 -1.000000e+00
   outer loop
     vertex -4.826273e-02  7.622637e-01 -3.174603e-02
     vertex -4.074067e-02  5.335789e-01 -3.174600e-02
     vertex -5.750785e-02  7.387076e-01 -3.174603e-02
   endloop
 endfacet
 facet normal -1.798218e-06 -1.347578e-07 -1.000000e+00
   outer loop
     vertex -3.793650e-01  8.121694e-01 -3.174603e-02
     vertex -3.774739e-01  7.869347e-01 -3.174603e-02
     vertex -3.793650e-01  5.524441e-01 -3.174600e-02
   endloop
 endfacet
 facet normal -6.316319e-07 -1.441659e-07 -1.000000e+00
   outer loop
     vertex -3.774739e-01  7.869347e-01 -3.174603e-02
     vertex -3.718430e-01  7.622637e-01 -3.174603e-02
     vertex -3.793650e-01  5.524441e-01 -3.174600e-02
   endloop
 endfacet
 facet normal  1.676448e-06 -1.256324e-07 -1.000000e+00
   outer loop
     vertex -4.074067e-02  5.335789e-01 -3.174600e-02
     vertex -4.263175e-02  7.869347e-01 -3.174603e-02
     vertex -4.074067e-02  8.121694e-01 -3.174603e-02
   endloop
 endfacet
 facet normal  5.860891e-07 -1.337710e-07 -1.000000e+00
   outer loop
     vertex -4.074067e-02  5.335789e-01 -3.174600e-02
     vertex -4.826273e-02  7.622637e-01 -3.174603e-02
     vertex -4.263175e-02  7.869347e-01 -3.174603e-02
   endloop
 endfacet
 facet normal -9.972038e-01  7.473009e-02  0.000000e+00
   outer loop
     vertex -4.263175e-02  7.869347e-01 -1.587302e-02
     vertex -4.074067e-02  8.121694e-01 -1.587302e-02
     vertex -4.074067e-02  8.121694e-01 -3.174603e-02
   endloop
 endfacet
 facet normal -9.972038e-01  7.473009e-02  0.000000e+00
   outer loop
     vertex -4.263175e-02  7.869347e-01 -1.587302e-02
     vertex -4.074067e-02  8.121694e-01 -3.174603e-02
     vertex -4.263175e-02  7.869347e-01 -3.174603e-02
   endloop
 endfacet
 facet normal -9.749279e-01  2.225209e-01  0.000000e+00
   outer loop
     vertex -4.826273e-02  7.622637e-01 -1.587302e-02
     vertex -4.263175e-02  7.869347e-01 -3.174603e-02
     vertex -4.826273e-02  7.622637e-01 -3.174603e-02
   endloop
 endfacet
 facet normal -9.749279e-01  2.225209e-01  0.000000e+00
   outer loop
     vertex -4.826273e-02  7.622637e-01 -1.587302e-02
     vertex -4.263175e-02  7.869347e-01 -1.587302e-02
     vertex -4.263175e-02  7.869347e-01 -3.174603e-02
   endloop
 endfacet
 facet normal -9.308737e-01  3.653410e-01  0.000000e+00
   outer loop
     vertex -5.750785e-02  7.387076e-01 -1.587302e-02
     vertex -4.826273e-02  7.622637e-01 -3.174603e-02
     vertex -5.750785e-02  7.387076e-01 -3.174603e-02
   endloop
 endfacet
 facet normal -9.308737e-01  3.653410e-01  0.000000e+00
   outer loop
     vertex -5.750785e-02  7.387076e-01 -1.587302e-02
     vertex -4.826273e-02  7.622637e-01 -1.587302e-02
     vertex -4.826273e-02  7.622637e-01 -3.174603e-02
   endloop
 endfacet
 facet normal -8.660254e-01  5.000000e-01  0.000000e+00
   outer loop
     vertex -7.016056e-02  7.167924e-01 -1.587302e-02
     vertex -5.750785e-02  7.387076e-01 -3.174603e-02
     vertex -7.016056e-02  7.167924e-01 -3.174603e-02
   endloop
 endfacet
 facet normal -8.660254e-01  5.000000e-01  0.000000e+00
   outer loop
     vertex -7.016056e-02  7.167924e-01 -1.587302e-02
     vertex -5.750785e-02  7.387076e-01 -1.587302e-02
     vertex -5.750785e-02  7.387076e-01 -3.174603e-02
   endloop
 endfacet
 facet normal -7.818315e-01  6.234898e-01  0.000000e+00
   outer loop
     vertex -8.593824e-02  6.970078e-01 -1.587302e-02
     vertex -7.016056e-02  7.167924e-01 -3.174603e-02
     vertex -8.593824e-02  6.970078e-01 -3.174603e-02
   endloop
 endfacet
 facet normal -7.818315e-01  6.234898e-01  0.000000e+00
   outer loop
     vertex -8.593824e-02  6.970078e-01 -1.587302e-02
     vertex -7.016056e-02  7.167924e-01 -1.587302e-02
     vertex -7.016056e-02  7.167924e-01 -3.174603e-02
   endloop
 endfacet
 facet normal -6.801727e-01  7.330519e-01  0.000000e+00
   outer loop
     vertex -1.044884e-01  6.797958e-01 -1.587302e-02
     vertex -8.593824e-02  6.970078e-01 -3.174603e-02
     vertex -1.044884e-01  6.797958e-01 -3.174603e-02
   endloop
 endfacet
 facet normal -6.801727e-01  7.330519e-01  0.000000e+00
   outer loop
     vertex -1.044884e-01  6.797958e-01 -1.587302e-02
     vertex -8.593824e-02  6.970078e-01 -1.587302e-02
     vertex -8.593824e-02  6.970078e-01 -3.174603e-02
   endloop
 endfacet
 facet normal -5.633201e-01  8.262388e-01  0.000000e+00
   outer loop
     vertex -1.253968e-01  6.655407e-01 -1.587302e-02
     vertex -1.044884e-01  6.797958e-01 -3.174603e-02
     vertex -1.253968e-01  6.655407e-01 -3.174603e-02
   endloop
 endfacet
 facet normal -5.633201e-01  8.262388e-01  0.000000e+00
   outer loop
     vertex -1.253968e-01  6.655407e-01 -1.587302e-02
     vertex -1.044884e-01  6.797958e-01 -1.587302e-02
     vertex -1.044884e-01  6.797958e-01 -3.174603e-02
   endloop
 endfacet
 facet normal -4.338837e-01  9.009689e-01  0.000000e+00
   outer loop
     vertex -1.481962e-01  6.545611e-01 -1.587302e-02
     vertex -1.253968e-01  6.655407e-01 -3.174603e-02
     vertex -1.481962e-01  6.545611e-01 -3.174603e-02
   endloop
 endfacet
 facet normal -4.338837e-01  9.009689e-01  0.000000e+00
   outer loop
     vertex -1.481962e-01  6.545611e-01 -1.587302e-02
     vertex -1.253968e-01  6.655407e-01 -1.587302e-02
     vertex -1.253968e-01  6.655407e-01 -3.174603e-02
   endloop
 endfacet
 facet normal -2.947552e-01  9.555728e-01  0.000000e+00
   outer loop
     vertex -1.723773e-01  6.471022e-01 -1.587302e-02
     vertex -1.481962e-01  6.545611e-01 -3.174603e-02
     vertex -1.723773e-01  6.471022e-01 -3.174603e-02
   endloop
 endfacet
 facet normal -2.947552e-01  9.555728e-01  0.000000e+00
   outer loop
     vertex -1.723773e-01  6.471022e-01 -1.587302e-02
     vertex -1.481962e-01  6.545611e-01 -1.587302e-02
     vertex -1.481962e-01  6.545611e-01 -3.174603e-02
   endloop
 endfacet
 facet normal -1.490423e-01  9.888308e-01  0.000000e+00
   outer loop
     vertex -1.974001e-01  6.433306e-01 -1.587302e-02
     vertex -1.723773e-01  6.471022e-01 -3.174603e-02
     vertex -1.974001e-01  6.433306e-01 -3.174603e-02
   endloop
 endfacet
 facet normal -1.490423e-01  9.888308e-01  0.000000e+00
   outer loop
     vertex -1.974001e-01  6.433306e-01 -1.587302e-02
     vertex -1.723773e-01  6.471022e-01 -1.587302e-02
     vertex -1.723773e-01  6.471022e-01 -3.174603e-02
   endloop
 endfacet
 facet normal  0.000000e+00  1.000000e+00  0.000000e+00
   outer loop
     vertex -2.227056e-01  6.433306e-01 -1.587302e-02
     vertex -1.974001e-01  6.433306e-01 -3.174603e-02
     vertex -2.227056e-01  6.433306e-01 -3.174603e-02
   endloop
 endfacet
 facet normal -0.000000e+00  1.000000e+00  0.000000e+00
   outer loop
     vertex -2.227056e-01  6.433306e-01 -1.587302e-02
     vertex -1.974001e-01  6.433306e-01 -1.587302e-02
     vertex -1.974001e-01  6.433306e-01 -3.174603e-02
   endloop
 endfacet
 facet normal  1.490423e-01  9.888308e-01  0.000000e+00
   outer loop
     vertex -2.477284e-01  6.471022e-01 -1.587302e-02
     vertex -2.227056e-01  6.433306e-01 -3.174603e-02
     vertex -2.477284e-01  6.471022e-01 -3.174603e-02
   endloop
 endfacet
 facet normal  1.490423e-01  9.888308e-01  0.000000e+00
   outer loop
     vertex -2.477284e-01  6.471022e-01 -1.587302e-02
     vertex -2.227056e-01  6.433306e-01 -1.587302e-02
     vertex -2.227056e-01  6.433306e-01 -3.174603e-02
   endloop
 endfacet
 facet normal  2.947552e-01  9.555728e-01  0.000000e+00
   outer loop
     vertex -2.719095e-01  6.545611e-01 -1.587302e-02
     vertex -2.477284e-01  6.471022e-01 -3.174603e-02
     vertex -2.719095e-01  6.545611e-01 -3.174603e-02
   endloop
 endfacet
 facet normal  2.947552e-01  9.555728e-01  0.000000e+00
   outer loop
     vertex -2.719095e-01  6.545611e-01 -1.587302e-02
     vertex -2.477284e-01  6.471022e-01 -1.587302e-02
     vertex -2.477284e-01  6.471022e-01 -3.174603e-02
   endloop
 endfacet
 facet normal  4.338837e-01  9.009689e-01  0.000000e+00
   outer loop
     vertex -2.947089e-01  6.655407e-01 -1.587302e-02
     vertex -2.719095e-01  6.545611e-01 -1.587302e-02
     vertex -2.719095e-01  6.545611e-01 -3.174603e-02
   endloop
 endfacet
 facet normal  4.338837e-01  9.009689e-01  0.000000e+00
   outer loop
     vertex -2.947089e-01  6.655407e-01 -1.587302e-02
     vertex -2.719095e-01  6.545611e-01 -3.174603e-02
     vertex -2.947089e-01  6.655407e-01 -3.174603e-02
   endloop
 endfacet
 facet normal  5.633201e-01  8.262388e-01  0.000000e+00
   outer loop
     vertex -3.156173e-01  6.797958e-01 -1.587302e-02
     vertex -2.947089e-01  6.655407e-01 -1.587302e-02
     vertex -2.947089e-01  6.655407e-01 -3.174603e-02
   endloop
 endfacet
 facet normal  5.633201e-01  8.262388e-01  0.000000e+00
   outer loop
     vertex -3.156173e-01  6.797958e-01 -1.587302e-02
     vertex -2.947089e-01  6.655407e-01 -3.174603e-02
     vertex -3.156173e-01  6.797958e-01 -3.174603e-02
   endloop
 endfacet
 facet normal  6.801727e-01  7.330519e-01  0.000000e+00
   outer loop
     vertex -3.341675e-01  6.970078e-01 -1.587302e-02
     vertex -3.156173e-01  6.797958e-01 -1.587302e-02
     vertex -3.156173e-01  6.797958e-01 -3.174603e-02
   endloop
 endfacet
 facet normal  6.801727e-01  7.330519e-01  0.000000e+00
   outer loop
     vertex -3.341675e-01  6.970078e-01 -1.587302e-02
     vertex -3.156173e-01  6.797958e-01 -3.174603e-02
     vertex -3.341675e-01  6.970078e-01 -3.174603e-02
   endloop
 endfacet
 facet normal  7.818315e-01  6.234898e-01  0.000000e+00
   outer loop
     vertex -3.499451e-01  7.167924e-01 -1.587302e-02
     vertex -3.341675e-01  6.970078e-01 -1.587302e-02
     vertex -3.341675e-01  6.970078e-01 -3.174603e-02
   endloop
 endfacet
 facet normal  7.818315e-01  6.234898e-01  0.000000e+00
   outer loop
     vertex -3.499451e-01  7.167924e-01 -1.587302e-02
     vertex -3.341675e-01  6.970078e-01 -3.174603e-02
     vertex -3.499451e-01  7.167924e-01 -3.174603e-02
   endloop
 endfacet
 facet normal  8.660254e-01  5.000000e-01  0.000000e+00
   outer loop
     vertex -3.625979e-01  7.387076e-01 -1.587302e-02
     vertex -3.499451e-01  7.167924e-01 -1.587302e-02
     vertex -3.499451e-01  7.167924e-01 -3.174603e-02
   endloop
 endfacet
 facet normal  8.660254e-01  5.000000e-01  0.000000e+00
   outer loop
     vertex -3.625979e-01  7.387076e-01 -1.587302e-02
     vertex -3.499451e-01  7.167924e-01 -3.174603e-02
     vertex -3.625979e-01  7.387076e-01 -3.174603e-02
   endloop
 endfacet
 facet normal  9.308737e-01  3.653410e-01  0.000000e+00
   outer loop
     vertex -3.718430e-01  7.622637e-01 -1.587302e-02
     vertex -3.625979e-01  7.387076e-01 -3.174603e-02
     vertex -3.718430e-01  7.622637e-01 -3.174603e-02
   endloop
 endfacet
 facet normal  9.308737e-01  3.653410e-01  0.000000e+00
   outer loop
     vertex -3.718430e-01  7.622637e-01 -1.587302e-02
     vertex -3.625979e-01  7.387076e-01 -1.587302e-02
     vertex -3.625979e-01  7.387076e-01 -3.174603e-02
   endloop
 endfacet
 facet normal  9.749279e-01  2.225209e-01  0.000000e+00
   outer loop
     vertex -3.774739e-01  7.869347e-01 -1.587302e-02
     vertex -3.718430e-01  7.622637e-01 -3.174603e-02
     vertex -3.774739e-01  7.869347e-01 -3.174603e-02
   endloop
 endfacet
 facet normal  9.749279e-01  2.225209e-01  0.000000e+00
   outer loop
     vertex -3.774739e-01  7.869347e-01 -1.587302e-02
     vertex -3.718430e-01  7.622637e-01 -1.587302e-02
     vertex -3.718430e-01  7.622637e-01 -3.174603e-02
   endloop
 endfacet
 facet normal  9.972038e-01  7.473009e-02  0.000000e+00
   outer loop
     vertex -3.793650e-01  8.121694e-01 -1.587302e-02
     vertex -3.774739e-01  7.869347e-01 -3.174603e-02
     vertex -3.793650e-01  8.121694e-01 -3.174603e-02
   endloop
 endfacet
 facet normal  9.972038e-01  7.473009e-02  0.000000e+00
   outer loop
     vertex -3.793650e-01  8.121694e-01 -1.587302e-02
     vertex -3.774739e-01  7.869347e-01 -1.587302e-02
     vertex -3.774739e-01  7.869347e-01 -3.174603e-02
   endloop
 endfacet
 facet normal  1.000000e+00 -2.490715e-17 -2.749682e-13
   outer loop
     vertex -4.074067e-02  8.121694e-01 -1.587302e-02
     vertex -4.074067e-02  5.335789e-01 -1.587302e-02
     vertex -4.074067e-02  5.335789e-01 -3.174600e-02
   endloop
 endfacet
 facet normal  1.000000e+00 -1.569150e-14  0.000000e+00
   outer loop
     vertex -4.074067e-02  8.121694e-01 -1.587302e-02
     vertex -4.074067e-02  5.335789e-01 -3.174600e-02
     vertex -4.074067e-02  8.121694e-01 -3.174603e-02
   endloop
 endfacet
 facet normal  1.000000e+00 -2.490715e-17  3.055194e-14
   outer loop
     vertex -4.074067e-02  8.121694e-01 -1.587302e-02
     vertex -4.074067e-02  5.335789e-01  1.269842e-01
     vertex -4.074067e-02  5.335789e-01 -1.587302e-02
   endloop
 endfacet
 facet normal  1.000000e+00 -1.569150e-14  0.000000e+00
   outer loop
     vertex -4.074067e-02  8.121694e-01 -1.587302e-02
     vertex -4.074067e-02  8.121694e-01  1.269842e-01
     vertex -4.074067e-02  5.335789e-01  1.269842e-01
   endloop
 endfacet
endsolid
