solid 
 facet normal  0.000000e+00 -1.000000e+00  0.000000e+00
   outer loop
     vertex  3.232805e-01 -2.262786e-01 -1.587302e-02
     vertex -4.541446e-01 -2.262786e-01  3.174604e-01
     vertex -4.541446e-01 -2.262786e-01 -1.587302e-02
   endloop
 endfacet
 facet normal  0.000000e+00 -1.000000e+00  0.000000e+00
   outer loop
     vertex  3.232805e-01 -2.262786e-01 -1.587302e-02
     vertex  3.232805e-01 -2.262786e-01  3.174604e-01
     vertex -4.541446e-01 -2.262786e-01  3.174604e-01
   endloop
 endfacet
 facet normal -1.000000e+00  0.000000e+00  0.000000e+00
   outer loop
     vertex -4.541446e-01 -1.211010e-02  1.303362e-01
     vertex -4.541446e-01  9.541452e-02  3.174604e-01
     vertex -4.541446e-01  1.774339e-04  1.180486e-01
   endloop
 endfacet
 facet normal -1.000000e+00  0.000000e+00  0.000000e+00
   outer loop
     vertex -4.541446e-01 -2.682380e-02  1.395814e-01
     vertex -4.541446e-01  9.541452e-02  3.174604e-01
     vertex -4.541446e-01 -1.211010e-02  1.303362e-01
   endloop
 endfacet
 facet normal -1.000000e+00  0.000000e+00  0.000000e+00
   outer loop
     vertex -4.541446e-01  9.422663e-03  1.033349e-01
     vertex -4.541446e-01  1.774339e-04  1.180486e-01
     vertex -4.541446e-01  9.541452e-02  3.174604e-01
   endloop
 endfacet
 facet normal -1.000000e+00  0.000000e+00  0.000000e+00
   outer loop
     vertex -4.541446e-01  1.516199e-02  8.693287e-02
     vertex -4.541446e-01  9.422663e-03  1.033349e-01
     vertex -4.541446e-01  9.541452e-02  3.174604e-01
   endloop
 endfacet
 facet normal -1.000000e+00  0.000000e+00  0.000000e+00
   outer loop
     vertex -4.541446e-01 -4.322585e-02  1.453207e-01
     vertex -4.541446e-01  9.541452e-02  3.174604e-01
     vertex -4.541446e-01 -2.682380e-02  1.395814e-01
   endloop
 endfacet
 facet normal -1.000000e+00  0.000000e+00  0.000000e+00
   outer loop
     vertex -4.541446e-01 -6.049379e-02  1.472663e-01
     vertex -4.541446e-01 -2.262786e-01  3.174604e-01
     vertex -4.541446e-01  9.541452e-02  3.174604e-01
   endloop
 endfacet
 facet normal -1.000000e+00  0.000000e+00  0.000000e+00
   outer loop
     vertex -4.541446e-01 -6.049379e-02  1.472663e-01
     vertex -4.541446e-01  9.541452e-02  3.174604e-01
     vertex -4.541446e-01 -4.322585e-02  1.453207e-01
   endloop
 endfacet
 facet normal -1.000000e+00  0.000000e+00  0.000000e+00
   outer loop
     vertex -4.541446e-01  9.541452e-02 -1.587302e-02
     vertex -4.541446e-01  1.710762e-02  6.966493e-02
     vertex -4.541446e-01  1.516199e-02  8.693287e-02
   endloop
 endfacet
 facet normal -1.000000e+00  0.000000e+00  0.000000e+00
   outer loop
     vertex -4.541446e-01  9.541452e-02 -1.587302e-02
     vertex -4.541446e-01  1.516199e-02  8.693287e-02
     vertex -4.541446e-01  9.541452e-02  3.174604e-01
   endloop
 endfacet
 facet normal -1.000000e+00  0.000000e+00  0.000000e+00
   outer loop
     vertex -4.541446e-01 -7.776173e-02  1.453207e-01
     vertex -4.541446e-01 -2.262786e-01  3.174604e-01
     vertex -4.541446e-01 -6.049379e-02  1.472663e-01
   endloop
 endfacet
 facet normal -1.000000e+00  0.000000e+00  0.000000e+00
   outer loop
     vertex -4.541446e-01  1.516199e-02  5.239700e-02
     vertex -4.541446e-01  1.710762e-02  6.966493e-02
     vertex -4.541446e-01  9.541452e-02 -1.587302e-02
   endloop
 endfacet
 facet normal -1.000000e+00  0.000000e+00  0.000000e+00
   outer loop
     vertex -4.541446e-01 -9.416379e-02  1.395814e-01
     vertex -4.541446e-01 -2.262786e-01  3.174604e-01
     vertex -4.541446e-01 -7.776173e-02  1.453207e-01
   endloop
 endfacet
 facet normal -1.000000e+00  0.000000e+00  0.000000e+00
   outer loop
     vertex -4.541446e-01  9.422663e-03  3.599494e-02
     vertex -4.541446e-01  1.516199e-02  5.239700e-02
     vertex -4.541446e-01  9.541452e-02 -1.587302e-02
   endloop
 endfacet
 facet normal -1.000000e+00  0.000000e+00  0.000000e+00
   outer loop
     vertex -4.541446e-01 -1.088775e-01  1.303362e-01
     vertex -4.541446e-01 -2.262786e-01  3.174604e-01
     vertex -4.541446e-01 -9.416379e-02  1.395814e-01
   endloop
 endfacet
 facet normal -1.000000e+00  0.000000e+00  0.000000e+00
   outer loop
     vertex -4.541446e-01  1.774339e-04  2.128125e-02
     vertex -4.541446e-01  9.422663e-03  3.599494e-02
     vertex -4.541446e-01  9.541452e-02 -1.587302e-02
   endloop
 endfacet
 facet normal -1.000000e+00  0.000000e+00  0.000000e+00
   outer loop
     vertex -4.541446e-01 -1.211650e-01  1.180486e-01
     vertex -4.541446e-01 -2.262786e-01  3.174604e-01
     vertex -4.541446e-01 -1.088775e-01  1.303362e-01
   endloop
 endfacet
 facet normal -1.000000e+00  0.000000e+00  0.000000e+00
   outer loop
     vertex -4.541446e-01 -1.211010e-02  8.993707e-03
     vertex -4.541446e-01  1.774339e-04  2.128125e-02
     vertex -4.541446e-01  9.541452e-02 -1.587302e-02
   endloop
 endfacet
 facet normal -1.000000e+00  0.000000e+00  0.000000e+00
   outer loop
     vertex -4.541446e-01 -1.304103e-01  1.033349e-01
     vertex -4.541446e-01 -2.262786e-01  3.174604e-01
     vertex -4.541446e-01 -1.211650e-01  1.180486e-01
   endloop
 endfacet
 facet normal -1.000000e+00  0.000000e+00  0.000000e+00
   outer loop
     vertex -4.541446e-01 -2.682380e-02 -2.515225e-04
     vertex -4.541446e-01 -1.211010e-02  8.993707e-03
     vertex -4.541446e-01  9.541452e-02 -1.587302e-02
   endloop
 endfacet
 facet normal -1.000000e+00  0.000000e+00  0.000000e+00
   outer loop
     vertex -4.541446e-01 -4.322585e-02 -5.990849e-03
     vertex -4.541446e-01 -2.682380e-02 -2.515225e-04
     vertex -4.541446e-01  9.541452e-02 -1.587302e-02
   endloop
 endfacet
 facet normal -1.000000e+00  0.000000e+00  0.000000e+00
   outer loop
     vertex -4.541446e-01 -1.361496e-01  8.693287e-02
     vertex -4.541446e-01 -2.262786e-01  3.174604e-01
     vertex -4.541446e-01 -1.304103e-01  1.033349e-01
   endloop
 endfacet
 facet normal -1.000000e+00  0.000000e+00  0.000000e+00
   outer loop
     vertex -4.541446e-01 -2.262786e-01 -1.587302e-02
     vertex -4.541446e-01 -1.361496e-01  8.693287e-02
     vertex -4.541446e-01 -1.380952e-01  6.966493e-02
   endloop
 endfacet
 facet normal -1.000000e+00  0.000000e+00  0.000000e+00
   outer loop
     vertex -4.541446e-01 -2.262786e-01 -1.587302e-02
     vertex -4.541446e-01 -1.380952e-01  6.966493e-02
     vertex -4.541446e-01 -1.361496e-01  5.239700e-02
   endloop
 endfacet
 facet normal -1.000000e+00  0.000000e+00  0.000000e+00
   outer loop
     vertex -4.541446e-01 -2.262786e-01 -1.587302e-02
     vertex -4.541446e-01 -1.361496e-01  5.239700e-02
     vertex -4.541446e-01 -1.304103e-01  3.599494e-02
   endloop
 endfacet
 facet normal -1.000000e+00  0.000000e+00  0.000000e+00
   outer loop
     vertex -4.541446e-01 -2.262786e-01 -1.587302e-02
     vertex -4.541446e-01 -1.304103e-01  3.599494e-02
     vertex -4.541446e-01 -1.211650e-01  2.128125e-02
   endloop
 endfacet
 facet normal -1.000000e+00  0.000000e+00  0.000000e+00
   outer loop
     vertex -4.541446e-01 -2.262786e-01 -1.587302e-02
     vertex -4.541446e-01 -1.211650e-01  2.128125e-02
     vertex -4.541446e-01 -1.088775e-01  8.993707e-03
   endloop
 endfacet
 facet normal -1.000000e+00  0.000000e+00  0.000000e+00
   outer loop
     vertex -4.541446e-01 -2.262786e-01 -1.587302e-02
     vertex -4.541446e-01 -1.088775e-01  8.993707e-03
     vertex -4.541446e-01 -9.416379e-02 -2.515225e-04
   endloop
 endfacet
 facet normal -1.000000e+00  0.000000e+00  0.000000e+00
   outer loop
     vertex -4.541446e-01 -2.262786e-01 -1.587302e-02
     vertex -4.541446e-01 -9.416379e-02 -2.515225e-04
     vertex -4.541446e-01 -7.776173e-02 -5.990849e-03
   endloop
 endfacet
 facet normal -1.000000e+00  0.000000e+00  0.000000e+00
   outer loop
     vertex -4.541446e-01 -2.262786e-01 -1.587302e-02
     vertex -4.541446e-01 -2.262786e-01  3.174604e-01
     vertex -4.541446e-01 -1.361496e-01  8.693287e-02
   endloop
 endfacet
 facet normal -1.000000e+00  0.000000e+00  0.000000e+00
   outer loop
     vertex -4.541446e-01 -2.262786e-01 -1.587302e-02
     vertex -4.541446e-01 -6.049379e-02 -7.936478e-03
     vertex -4.541446e-01  9.541452e-02 -1.587302e-02
   endloop
 endfacet
 facet normal -1.000000e+00  0.000000e+00  0.000000e+00
   outer loop
     vertex -4.541446e-01 -6.049379e-02 -7.936478e-03
     vertex -4.541446e-01 -4.322585e-02 -5.990849e-03
     vertex -4.541446e-01  9.541452e-02 -1.587302e-02
   endloop
 endfacet
 facet normal -1.000000e+00  0.000000e+00  0.000000e+00
   outer loop
     vertex -4.541446e-01 -2.262786e-01 -1.587302e-02
     vertex -4.541446e-01 -7.776173e-02 -5.990849e-03
     vertex -4.541446e-01 -6.049379e-02 -7.936478e-03
   endloop
 endfacet
 facet normal  1.000000e+00  0.000000e+00 -0.000000e+00
   outer loop
     vertex  3.232805e-01 -1.211650e-01  1.180486e-01
     vertex  3.232805e-01 -1.088775e-01  1.303362e-01
     vertex  3.232805e-01 -2.262786e-01  3.174604e-01
   endloop
 endfacet
 facet normal  1.000000e+00  0.000000e+00  0.000000e+00
   outer loop
     vertex  3.232805e-01 -9.416379e-02  1.395814e-01
     vertex  3.232805e-01 -2.262786e-01  3.174604e-01
     vertex  3.232805e-01 -1.088775e-01  1.303362e-01
   endloop
 endfacet
 facet normal  1.000000e+00  0.000000e+00 -0.000000e+00
   outer loop
     vertex  3.232805e-01 -1.304103e-01  1.033349e-01
     vertex  3.232805e-01 -1.211650e-01  1.180486e-01
     vertex  3.232805e-01 -2.262786e-01  3.174604e-01
   endloop
 endfacet
 facet normal  1.000000e+00  0.000000e+00 -0.000000e+00
   outer loop
     vertex  3.232805e-01 -1.361496e-01  8.693287e-02
     vertex  3.232805e-01 -1.304103e-01  1.033349e-01
     vertex  3.232805e-01 -2.262786e-01  3.174604e-01
   endloop
 endfacet
 facet normal  1.000000e+00  0.000000e+00  0.000000e+00
   outer loop
     vertex  3.232805e-01 -7.776173e-02  1.453207e-01
     vertex  3.232805e-01 -2.262786e-01  3.174604e-01
     vertex  3.232805e-01 -9.416379e-02  1.395814e-01
   endloop
 endfacet
 facet normal  1.000000e+00  0.000000e+00  0.000000e+00
   outer loop
     vertex  3.232805e-01 -2.262786e-01 -1.587302e-02
     vertex  3.232805e-01 -1.361496e-01  8.693287e-02
     vertex  3.232805e-01 -2.262786e-01  3.174604e-01
   endloop
 endfacet
 facet normal  1.000000e+00  0.000000e+00 -0.000000e+00
   outer loop
     vertex  3.232805e-01 -1.380952e-01  6.966493e-02
     vertex  3.232805e-01 -1.361496e-01  8.693287e-02
     vertex  3.232805e-01 -2.262786e-01 -1.587302e-02
   endloop
 endfacet
 facet normal  1.000000e+00  0.000000e+00 -0.000000e+00
   outer loop
     vertex  3.232805e-01 -6.049379e-02  1.472663e-01
     vertex  3.232805e-01  9.541452e-02  3.174604e-01
     vertex  3.232805e-01 -2.262786e-01  3.174604e-01
   endloop
 endfacet
 facet normal  1.000000e+00  0.000000e+00  0.000000e+00
   outer loop
     vertex  3.232805e-01 -6.049379e-02  1.472663e-01
     vertex  3.232805e-01 -2.262786e-01  3.174604e-01
     vertex  3.232805e-01 -7.776173e-02  1.453207e-01
   endloop
 endfacet
 facet normal  1.000000e+00  0.000000e+00  0.000000e+00
   outer loop
     vertex  3.232805e-01 -1.361496e-01  5.239700e-02
     vertex  3.232805e-01 -1.380952e-01  6.966493e-02
     vertex  3.232805e-01 -2.262786e-01 -1.587302e-02
   endloop
 endfacet
 facet normal  1.000000e+00  0.000000e+00 -0.000000e+00
   outer loop
     vertex  3.232805e-01 -4.322585e-02  1.453207e-01
     vertex  3.232805e-01  9.541452e-02  3.174604e-01
     vertex  3.232805e-01 -6.049379e-02  1.472663e-01
   endloop
 endfacet
 facet normal  1.000000e+00  0.000000e+00  0.000000e+00
   outer loop
     vertex  3.232805e-01 -1.304103e-01  3.599494e-02
     vertex  3.232805e-01 -1.361496e-01  5.239700e-02
     vertex  3.232805e-01 -2.262786e-01 -1.587302e-02
   endloop
 endfacet
 facet normal  1.000000e+00  0.000000e+00 -0.000000e+00
   outer loop
     vertex  3.232805e-01 -2.682380e-02  1.395814e-01
     vertex  3.232805e-01  9.541452e-02  3.174604e-01
     vertex  3.232805e-01 -4.322585e-02  1.453207e-01
   endloop
 endfacet
 facet normal  1.000000e+00  0.000000e+00  0.000000e+00
   outer loop
     vertex  3.232805e-01 -1.211650e-01  2.128125e-02
     vertex  3.232805e-01 -1.304103e-01  3.599494e-02
     vertex  3.232805e-01 -2.262786e-01 -1.587302e-02
   endloop
 endfacet
 facet normal  1.000000e+00  0.000000e+00 -0.000000e+00
   outer loop
     vertex  3.232805e-01 -1.211010e-02  1.303362e-01
     vertex  3.232805e-01  9.541452e-02  3.174604e-01
     vertex  3.232805e-01 -2.682380e-02  1.395814e-01
   endloop
 endfacet
 facet normal  1.000000e+00  0.000000e+00  0.000000e+00
   outer loop
     vertex  3.232805e-01 -1.088775e-01  8.993707e-03
     vertex  3.232805e-01 -1.211650e-01  2.128125e-02
     vertex  3.232805e-01 -2.262786e-01 -1.587302e-02
   endloop
 endfacet
 facet normal  1.000000e+00  0.000000e+00 -0.000000e+00
   outer loop
     vertex  3.232805e-01  1.774339e-04  1.180486e-01
     vertex  3.232805e-01  9.541452e-02  3.174604e-01
     vertex  3.232805e-01 -1.211010e-02  1.303362e-01
   endloop
 endfacet
 facet normal  1.000000e+00  0.000000e+00  0.000000e+00
   outer loop
     vertex  3.232805e-01 -9.416379e-02 -2.515225e-04
     vertex  3.232805e-01 -1.088775e-01  8.993707e-03
     vertex  3.232805e-01 -2.262786e-01 -1.587302e-02
   endloop
 endfacet
 facet normal  1.000000e+00  0.000000e+00 -0.000000e+00
   outer loop
     vertex  3.232805e-01  9.422663e-03  1.033349e-01
     vertex  3.232805e-01  9.541452e-02  3.174604e-01
     vertex  3.232805e-01  1.774339e-04  1.180486e-01
   endloop
 endfacet
 facet normal  1.000000e+00  0.000000e+00  0.000000e+00
   outer loop
     vertex  3.232805e-01 -7.776173e-02 -5.990849e-03
     vertex  3.232805e-01 -9.416379e-02 -2.515225e-04
     vertex  3.232805e-01 -2.262786e-01 -1.587302e-02
   endloop
 endfacet
 facet normal  1.000000e+00  0.000000e+00 -0.000000e+00
   outer loop
     vertex  3.232805e-01  1.516199e-02  8.693287e-02
     vertex  3.232805e-01  9.541452e-02  3.174604e-01
     vertex  3.232805e-01  9.422663e-03  1.033349e-01
   endloop
 endfacet
 facet normal  1.000000e+00  0.000000e+00  0.000000e+00
   outer loop
     vertex  3.232805e-01  9.541452e-02 -1.587302e-02
     vertex  3.232805e-01  1.516199e-02  8.693287e-02
     vertex  3.232805e-01  1.710762e-02  6.966493e-02
   endloop
 endfacet
 facet normal  1.000000e+00  0.000000e+00  0.000000e+00
   outer loop
     vertex  3.232805e-01  9.541452e-02 -1.587302e-02
     vertex  3.232805e-01 -2.682380e-02 -2.515225e-04
     vertex  3.232805e-01 -4.322585e-02 -5.990849e-03
   endloop
 endfacet
 facet normal  1.000000e+00  0.000000e+00  0.000000e+00
   outer loop
     vertex  3.232805e-01  9.541452e-02 -1.587302e-02
     vertex  3.232805e-01 -1.211010e-02  8.993707e-03
     vertex  3.232805e-01 -2.682380e-02 -2.515225e-04
   endloop
 endfacet
 facet normal  1.000000e+00  0.000000e+00  0.000000e+00
   outer loop
     vertex  3.232805e-01  9.541452e-02 -1.587302e-02
     vertex  3.232805e-01  1.774339e-04  2.128125e-02
     vertex  3.232805e-01 -1.211010e-02  8.993707e-03
   endloop
 endfacet
 facet normal  1.000000e+00  0.000000e+00  0.000000e+00
   outer loop
     vertex  3.232805e-01  9.541452e-02 -1.587302e-02
     vertex  3.232805e-01  9.422663e-03  3.599494e-02
     vertex  3.232805e-01  1.774339e-04  2.128125e-02
   endloop
 endfacet
 facet normal  1.000000e+00  0.000000e+00  0.000000e+00
   outer loop
     vertex  3.232805e-01  9.541452e-02 -1.587302e-02
     vertex  3.232805e-01  1.516199e-02  5.239700e-02
     vertex  3.232805e-01  9.422663e-03  3.599494e-02
   endloop
 endfacet
 facet normal  1.000000e+00  0.000000e+00  0.000000e+00
   outer loop
     vertex  3.232805e-01  9.541452e-02 -1.587302e-02
     vertex  3.232805e-01  1.710762e-02  6.966493e-02
     vertex  3.232805e-01  1.516199e-02  5.239700e-02
   endloop
 endfacet
 facet normal  1.000000e+00  0.000000e+00 -0.000000e+00
   outer loop
     vertex  3.232805e-01  9.541452e-02 -1.587302e-02
     vertex  3.232805e-01  9.541452e-02  3.174604e-01
     vertex  3.232805e-01  1.516199e-02  8.693287e-02
   endloop
 endfacet
 facet normal  1.000000e+00  0.000000e+00  0.000000e+00
   outer loop
     vertex  3.232805e-01  9.541452e-02 -1.587302e-02
     vertex  3.232805e-01 -6.049379e-02 -7.936478e-03
     vertex  3.232805e-01 -2.262786e-01 -1.587302e-02
   endloop
 endfacet
 facet normal  1.000000e+00  0.000000e+00  0.000000e+00
   outer loop
     vertex  3.232805e-01 -6.049379e-02 -7.936478e-03
     vertex  3.232805e-01 -7.776173e-02 -5.990849e-03
     vertex  3.232805e-01 -2.262786e-01 -1.587302e-02
   endloop
 endfacet
 facet normal  1.000000e+00  0.000000e+00  0.000000e+00
   outer loop
     vertex  3.232805e-01  9.541452e-02 -1.587302e-02
     vertex  3.232805e-01 -4.322585e-02 -5.990849e-03
     vertex  3.232805e-01 -6.049379e-02 -7.936478e-03
   endloop
 endfacet
 facet normal -0.000000e+00 -1.000000e+00  0.000000e+00
   outer loop
     vertex  3.232805e-01 -2.262786e-01 -1.587302e-02
     vertex -4.541446e-01 -2.262786e-01 -1.587302e-02
     vertex -4.541446e-01 -2.262786e-01 -3.174603e-02
   endloop
 endfacet
 facet normal  0.000000e+00 -1.000000e+00 -0.000000e+00
   outer loop
     vertex  3.232805e-01 -2.262786e-01 -1.587302e-02
     vertex -4.541446e-01 -2.262786e-01 -3.174603e-02
     vertex  3.232805e-01 -2.262786e-01 -3.174603e-02
   endloop
 endfacet
 facet normal  0.000000e+00  0.000000e+00  1.000000e+00
   outer loop
     vertex -4.125220e-01 -1.007054e-01  3.174604e-01
     vertex -4.365079e-01 -1.007054e-01  3.174604e-01
     vertex -4.541446e-01 -2.262786e-01  3.174604e-01
   endloop
 endfacet
 facet normal  0.000000e+00  0.000000e+00  1.000000e+00
   outer loop
     vertex -4.541446e-01  9.541452e-02  3.174604e-01
     vertex -4.365079e-01 -2.874774e-02  3.174604e-01
     vertex -4.125220e-01 -2.874774e-02  3.174604e-01
   endloop
 endfacet
 facet normal  0.000000e+00  0.000000e+00  1.000000e+00
   outer loop
     vertex  2.710759e-01 -1.007054e-01  3.174604e-01
     vertex -4.541446e-01 -2.262786e-01  3.174604e-01
     vertex  3.232805e-01 -2.262786e-01  3.174604e-01
   endloop
 endfacet
 facet normal  0.000000e+00  0.000000e+00  1.000000e+00
   outer loop
     vertex  2.710759e-01 -1.007054e-01  3.174604e-01
     vertex -4.125220e-01 -1.007054e-01  3.174604e-01
     vertex -4.541446e-01 -2.262786e-01  3.174604e-01
   endloop
 endfacet
 facet normal  0.000000e+00  0.000000e+00  1.000000e+00
   outer loop
     vertex  3.070547e-01 -1.007054e-01  3.174604e-01
     vertex  2.710759e-01 -1.007054e-01  3.174604e-01
     vertex  3.232805e-01 -2.262786e-01  3.174604e-01
   endloop
 endfacet
 facet normal  0.000000e+00  0.000000e+00  1.000000e+00
   outer loop
     vertex  2.710759e-01 -2.874774e-02  3.174604e-01
     vertex -4.125220e-01 -2.874774e-02  3.174604e-01
     vertex -4.125220e-01 -1.007054e-01  3.174604e-01
   endloop
 endfacet
 facet normal  0.000000e+00  0.000000e+00  1.000000e+00
   outer loop
     vertex  2.710759e-01 -2.874774e-02  3.174604e-01
     vertex -4.125220e-01 -1.007054e-01  3.174604e-01
     vertex  2.710759e-01 -1.007054e-01  3.174604e-01
   endloop
 endfacet
 facet normal  0.000000e+00  0.000000e+00  1.000000e+00
   outer loop
     vertex  2.710759e-01 -2.874774e-02  3.174604e-01
     vertex -4.541446e-01  9.541452e-02  3.174604e-01
     vertex -4.125220e-01 -2.874774e-02  3.174604e-01
   endloop
 endfacet
 facet normal  0.000000e+00  0.000000e+00  1.000000e+00
   outer loop
     vertex  3.232805e-01  9.541452e-02  3.174604e-01
     vertex  2.710759e-01 -2.874774e-02  3.174604e-01
     vertex  3.070547e-01 -2.874774e-02  3.174604e-01
   endloop
 endfacet
 facet normal  0.000000e+00  0.000000e+00  1.000000e+00
   outer loop
     vertex  3.232805e-01  9.541452e-02  3.174604e-01
     vertex -4.541446e-01  9.541452e-02  3.174604e-01
     vertex  2.710759e-01 -2.874774e-02  3.174604e-01
   endloop
 endfacet
 facet normal  0.000000e+00 -0.000000e+00  1.000000e+00
   outer loop
     vertex  3.232805e-01 -2.262786e-01  3.174604e-01
     vertex  3.232805e-01  9.541452e-02  3.174604e-01
     vertex  3.070547e-01 -2.874774e-02  3.174604e-01
   endloop
 endfacet
 facet normal  0.000000e+00  0.000000e+00  1.000000e+00
   outer loop
     vertex  3.232805e-01 -2.262786e-01  3.174604e-01
     vertex  3.070547e-01 -2.874774e-02  3.174604e-01
     vertex  3.070547e-01 -1.007054e-01  3.174604e-01
   endloop
 endfacet
 facet normal  0.000000e+00  0.000000e+00  1.000000e+00
   outer loop
     vertex -4.541446e-01  9.541452e-02  3.174604e-01
     vertex -4.541446e-01 -2.262786e-01  3.174604e-01
     vertex -4.365079e-01 -1.007054e-01  3.174604e-01
   endloop
 endfacet
 facet normal  0.000000e+00  0.000000e+00  1.000000e+00
   outer loop
     vertex -4.541446e-01  9.541452e-02  3.174604e-01
     vertex -4.365079e-01 -1.007054e-01  3.174604e-01
     vertex -4.365079e-01 -2.874774e-02  3.174604e-01
   endloop
 endfacet
 facet normal  0.000000e+00  1.000000e+00  0.000000e+00
   outer loop
     vertex -4.541446e-01  9.541452e-02 -1.587302e-02
     vertex  3.232805e-01  9.541452e-02  3.174604e-01
     vertex  3.232805e-01  9.541452e-02 -1.587302e-02
   endloop
 endfacet
 facet normal  0.000000e+00  1.000000e+00  0.000000e+00
   outer loop
     vertex -4.541446e-01  9.541452e-02 -1.587302e-02
     vertex -4.541446e-01  9.541452e-02  3.174604e-01
     vertex  3.232805e-01  9.541452e-02  3.174604e-01
   endloop
 endfacet
 facet normal -1.000000e+00  0.000000e+00  0.000000e+00
   outer loop
     vertex -4.541446e-01 -2.262786e-01 -1.587302e-02
     vertex -4.541446e-01  9.541452e-02 -1.587302e-02
     vertex -4.541446e-01  9.541452e-02 -3.174603e-02
   endloop
 endfacet
 facet normal -1.000000e+00  0.000000e+00  0.000000e+00
   outer loop
     vertex -4.541446e-01 -2.262786e-01 -1.587302e-02
     vertex -4.541446e-01  9.541452e-02 -3.174603e-02
     vertex -4.541446e-01 -2.262786e-01 -3.174603e-02
   endloop
 endfacet
 facet normal  0.000000e+00 -9.937122e-01 -1.119645e-01
   outer loop
     vertex  3.232805e-01  1.516199e-02  8.693287e-02
     vertex -4.541446e-01  1.710762e-02  6.966493e-02
     vertex  3.232805e-01  1.710762e-02  6.966493e-02
   endloop
 endfacet
 facet normal -0.000000e+00 -9.937122e-01 -1.119645e-01
   outer loop
     vertex  3.232805e-01  1.516199e-02  8.693287e-02
     vertex -4.541446e-01  1.516199e-02  8.693287e-02
     vertex -4.541446e-01  1.710762e-02  6.966493e-02
   endloop
 endfacet
 facet normal  0.000000e+00 -9.438833e-01 -3.302791e-01
   outer loop
     vertex  3.232805e-01  9.422663e-03  1.033349e-01
     vertex -4.541446e-01  1.516199e-02  8.693287e-02
     vertex  3.232805e-01  1.516199e-02  8.693287e-02
   endloop
 endfacet
 facet normal -0.000000e+00 -9.438833e-01 -3.302791e-01
   outer loop
     vertex  3.232805e-01  9.422663e-03  1.033349e-01
     vertex -4.541446e-01  9.422663e-03  1.033349e-01
     vertex -4.541446e-01  1.516199e-02  8.693287e-02
   endloop
 endfacet
 facet normal  0.000000e+00 -8.467242e-01 -5.320321e-01
   outer loop
     vertex  3.232805e-01  1.774339e-04  1.180486e-01
     vertex -4.541446e-01  9.422663e-03  1.033349e-01
     vertex  3.232805e-01  9.422663e-03  1.033349e-01
   endloop
 endfacet
 facet normal -0.000000e+00 -8.467242e-01 -5.320321e-01
   outer loop
     vertex  3.232805e-01  1.774339e-04  1.180486e-01
     vertex -4.541446e-01  1.774339e-04  1.180486e-01
     vertex -4.541446e-01  9.422663e-03  1.033349e-01
   endloop
 endfacet
 facet normal -0.000000e+00 -4.215268e-01 -9.068159e-01
   outer loop
     vertex -4.125220e-01 -2.874774e-02  1.404757e-01
     vertex -4.365079e-01 -2.874774e-02  1.404757e-01
     vertex -4.541446e-01 -2.682380e-02  1.395814e-01
   endloop
 endfacet
 facet normal  0.000000e+00 -7.071068e-01 -7.071068e-01
   outer loop
     vertex  3.232805e-01 -1.211010e-02  1.303362e-01
     vertex -4.541446e-01  1.774339e-04  1.180486e-01
     vertex  3.232805e-01  1.774339e-04  1.180486e-01
   endloop
 endfacet
 facet normal -0.000000e+00 -7.071068e-01 -7.071068e-01
   outer loop
     vertex  3.232805e-01 -1.211010e-02  1.303362e-01
     vertex -4.541446e-01 -1.211010e-02  1.303362e-01
     vertex -4.541446e-01  1.774339e-04  1.180486e-01
   endloop
 endfacet
 facet normal  1.183278e-02 -3.302559e-01 -9.438172e-01
   outer loop
     vertex -4.541446e-01 -4.322585e-02  1.453207e-01
     vertex -4.541446e-01 -2.682380e-02  1.395814e-01
     vertex -4.365079e-01 -2.874774e-02  1.404757e-01
   endloop
 endfacet
 facet normal  1.654296e-03 -3.191564e-01 -9.477006e-01
   outer loop
     vertex -4.365079e-01 -4.293682e-02  1.452542e-01
     vertex -4.541446e-01 -4.322585e-02  1.453207e-01
     vertex -4.365079e-01 -2.874774e-02  1.404757e-01
   endloop
 endfacet
 facet normal -0.000000e+00 -5.320321e-01 -8.467242e-01
   outer loop
     vertex  3.232805e-01 -2.682380e-02  1.395814e-01
     vertex -4.541446e-01 -2.682380e-02  1.395814e-01
     vertex -4.541446e-01 -1.211010e-02  1.303362e-01
   endloop
 endfacet
 facet normal  0.000000e+00 -5.320321e-01 -8.467242e-01
   outer loop
     vertex  3.232805e-01 -2.682380e-02  1.395814e-01
     vertex -4.541446e-01 -1.211010e-02  1.303362e-01
     vertex  3.232805e-01 -1.211010e-02  1.303362e-01
   endloop
 endfacet
 facet normal -0.000000e+00 -4.215268e-01 -9.068159e-01
   outer loop
     vertex  2.710759e-01 -2.874774e-02  1.404757e-01
     vertex -4.125220e-01 -2.874774e-02  1.404757e-01
     vertex -4.541446e-01 -2.682380e-02  1.395814e-01
   endloop
 endfacet
 facet normal  0.000000e+00 -4.215268e-01 -9.068159e-01
   outer loop
     vertex  2.710759e-01 -2.874774e-02  1.404757e-01
     vertex -4.541446e-01 -2.682380e-02  1.395814e-01
     vertex  3.232805e-01 -2.682380e-02  1.395814e-01
   endloop
 endfacet
 facet normal -0.000000e+00 -4.215268e-01 -9.068159e-01
   outer loop
     vertex  3.070547e-01 -2.874774e-02  1.404757e-01
     vertex  2.710759e-01 -2.874774e-02  1.404757e-01
     vertex  3.232805e-01 -2.682380e-02  1.395814e-01
   endloop
 endfacet
 facet normal  1.455468e-02 -1.119526e-01 -9.936070e-01
   outer loop
     vertex -4.541446e-01 -6.049379e-02  1.472663e-01
     vertex -4.541446e-01 -4.322585e-02  1.453207e-01
     vertex -4.365079e-01 -5.777944e-02  1.472189e-01
   endloop
 endfacet
 facet normal  0.000000e+00 -3.191569e-01 -9.477019e-01
   outer loop
     vertex  2.710759e-01 -4.293682e-02  1.452542e-01
     vertex -4.125220e-01 -2.874774e-02  1.404757e-01
     vertex  2.710759e-01 -2.874774e-02  1.404757e-01
   endloop
 endfacet
 facet normal -0.000000e+00 -3.191569e-01 -9.477019e-01
   outer loop
     vertex  2.710759e-01 -4.293682e-02  1.452542e-01
     vertex -4.125220e-01 -4.293682e-02  1.452542e-01
     vertex -4.125220e-01 -2.874774e-02  1.404757e-01
   endloop
 endfacet
 facet normal -1.286157e-02 -3.302517e-01 -9.438053e-01
   outer loop
     vertex  3.232805e-01 -4.322585e-02  1.453207e-01
     vertex  3.070547e-01 -2.874774e-02  1.404757e-01
     vertex  3.232805e-01 -2.682380e-02  1.395814e-01
   endloop
 endfacet
 facet normal -1.798150e-03 -3.191564e-01 -9.477004e-01
   outer loop
     vertex  3.232805e-01 -4.322585e-02  1.453207e-01
     vertex  3.070547e-01 -4.293682e-02  1.452542e-01
     vertex  3.070547e-01 -2.874774e-02  1.404757e-01
   endloop
 endfacet
 facet normal  2.299543e-02  1.119349e-01 -9.934494e-01
   outer loop
     vertex -4.541446e-01 -7.776173e-02  1.453207e-01
     vertex -4.541446e-01 -6.049379e-02  1.472663e-01
     vertex -4.365079e-01 -7.272311e-02  1.462967e-01
   endloop
 endfacet
 facet normal  0.000000e+00 -1.312238e-01 -9.913528e-01
   outer loop
     vertex  2.710759e-01 -5.777944e-02  1.472189e-01
     vertex -4.125220e-01 -4.293682e-02  1.452542e-01
     vertex  2.710759e-01 -4.293682e-02  1.452542e-01
   endloop
 endfacet
 facet normal -0.000000e+00 -1.312238e-01 -9.913528e-01
   outer loop
     vertex  2.710759e-01 -5.777944e-02  1.472189e-01
     vertex -4.125220e-01 -5.777944e-02  1.472189e-01
     vertex -4.125220e-01 -4.293682e-02  1.452542e-01
   endloop
 endfacet
 facet normal -1.582003e-02 -1.119505e-01 -9.935879e-01
   outer loop
     vertex  3.232805e-01 -6.049379e-02  1.472663e-01
     vertex  3.070547e-01 -5.777944e-02  1.472189e-01
     vertex  3.232805e-01 -4.322585e-02  1.453207e-01
   endloop
 endfacet
 facet normal  2.716861e-02  3.301571e-01 -9.435349e-01
   outer loop
     vertex -4.541446e-01 -9.416379e-02  1.395814e-01
     vertex -4.541446e-01 -7.776173e-02  1.453207e-01
     vertex -4.365079e-01 -8.721154e-02  1.425219e-01
   endloop
 endfacet
 facet normal -2.499387e-02  1.119295e-01 -9.934018e-01
   outer loop
     vertex  3.232805e-01 -7.776173e-02  1.453207e-01
     vertex  3.070547e-01 -7.272311e-02  1.462967e-01
     vertex  3.232805e-01 -6.049379e-02  1.472663e-01
   endloop
 endfacet
 facet normal  0.000000e+00  5.720156e-01 -8.202428e-01
   outer loop
     vertex -4.541446e-01 -1.088775e-01  1.303362e-01
     vertex -4.365079e-01 -1.007054e-01  1.360351e-01
     vertex -4.125220e-01 -1.007054e-01  1.360351e-01
   endloop
 endfacet
 facet normal  2.707363e-02  5.318371e-01 -8.464138e-01
   outer loop
     vertex -4.541446e-01 -1.088775e-01  1.303362e-01
     vertex -4.541446e-01 -9.416379e-02  1.395814e-01
     vertex -4.365079e-01 -1.007054e-01  1.360351e-01
   endloop
 endfacet
 facet normal -2.952916e-02  3.301350e-01 -9.434717e-01
   outer loop
     vertex  3.232805e-01 -9.416379e-02  1.395814e-01
     vertex  3.070547e-01 -8.721154e-02  1.425219e-01
     vertex  3.232805e-01 -7.776173e-02  1.453207e-01
   endloop
 endfacet
 facet normal  0.000000e+00  5.720156e-01 -8.202428e-01
   outer loop
     vertex  2.710759e-01 -1.007054e-01  1.360351e-01
     vertex -4.541446e-01 -1.088775e-01  1.303362e-01
     vertex -4.125220e-01 -1.007054e-01  1.360351e-01
   endloop
 endfacet
 facet normal -2.942595e-02  5.318017e-01 -8.463575e-01
   outer loop
     vertex  3.232805e-01 -1.088775e-01  1.303362e-01
     vertex  3.070547e-01 -1.007054e-01  1.360351e-01
     vertex  3.232805e-01 -9.416379e-02  1.395814e-01
   endloop
 endfacet
 facet normal  0.000000e+00  5.720156e-01 -8.202428e-01
   outer loop
     vertex  3.232805e-01 -1.088775e-01  1.303362e-01
     vertex  2.710759e-01 -1.007054e-01  1.360351e-01
     vertex  3.070547e-01 -1.007054e-01  1.360351e-01
   endloop
 endfacet
 facet normal  0.000000e+00  5.720156e-01 -8.202428e-01
   outer loop
     vertex  3.232805e-01 -1.088775e-01  1.303362e-01
     vertex -4.541446e-01 -1.088775e-01  1.303362e-01
     vertex  2.710759e-01 -1.007054e-01  1.360351e-01
   endloop
 endfacet
 facet normal  0.000000e+00  7.071068e-01 -7.071068e-01
   outer loop
     vertex  3.232805e-01 -1.211650e-01  1.180486e-01
     vertex -4.541446e-01 -1.088775e-01  1.303362e-01
     vertex  3.232805e-01 -1.088775e-01  1.303362e-01
   endloop
 endfacet
 facet normal  0.000000e+00  7.071068e-01 -7.071068e-01
   outer loop
     vertex  3.232805e-01 -1.211650e-01  1.180486e-01
     vertex -4.541446e-01 -1.211650e-01  1.180486e-01
     vertex -4.541446e-01 -1.088775e-01  1.303362e-01
   endloop
 endfacet
 facet normal  0.000000e+00  8.467242e-01 -5.320321e-01
   outer loop
     vertex  3.232805e-01 -1.211650e-01  1.180486e-01
     vertex -4.541446e-01 -1.304103e-01  1.033349e-01
     vertex -4.541446e-01 -1.211650e-01  1.180486e-01
   endloop
 endfacet
 facet normal  0.000000e+00  8.467242e-01 -5.320321e-01
   outer loop
     vertex  3.232805e-01 -1.304103e-01  1.033349e-01
     vertex -4.541446e-01 -1.304103e-01  1.033349e-01
     vertex  3.232805e-01 -1.211650e-01  1.180486e-01
   endloop
 endfacet
 facet normal  0.000000e+00  9.438833e-01 -3.302791e-01
   outer loop
     vertex  3.232805e-01 -1.304103e-01  1.033349e-01
     vertex -4.541446e-01 -1.361496e-01  8.693287e-02
     vertex -4.541446e-01 -1.304103e-01  1.033349e-01
   endloop
 endfacet
 facet normal  0.000000e+00  9.438833e-01 -3.302791e-01
   outer loop
     vertex  3.232805e-01 -1.361496e-01  8.693287e-02
     vertex -4.541446e-01 -1.361496e-01  8.693287e-02
     vertex  3.232805e-01 -1.304103e-01  1.033349e-01
   endloop
 endfacet
 facet normal  0.000000e+00  9.937122e-01 -1.119645e-01
   outer loop
     vertex  3.232805e-01 -1.380952e-01  6.966493e-02
     vertex -4.541446e-01 -1.361496e-01  8.693287e-02
     vertex  3.232805e-01 -1.361496e-01  8.693287e-02
   endloop
 endfacet
 facet normal  0.000000e+00  9.937122e-01 -1.119645e-01
   outer loop
     vertex  3.232805e-01 -1.380952e-01  6.966493e-02
     vertex -4.541446e-01 -1.380952e-01  6.966493e-02
     vertex -4.541446e-01 -1.361496e-01  8.693287e-02
   endloop
 endfacet
 facet normal  0.000000e+00  9.937122e-01  1.119645e-01
   outer loop
     vertex  3.232805e-01 -1.380952e-01  6.966493e-02
     vertex -4.541446e-01 -1.361496e-01  5.239700e-02
     vertex -4.541446e-01 -1.380952e-01  6.966493e-02
   endloop
 endfacet
 facet normal  0.000000e+00  9.937122e-01  1.119645e-01
   outer loop
     vertex  3.232805e-01 -1.361496e-01  5.239700e-02
     vertex -4.541446e-01 -1.361496e-01  5.239700e-02
     vertex  3.232805e-01 -1.380952e-01  6.966493e-02
   endloop
 endfacet
 facet normal  0.000000e+00  9.438833e-01  3.302791e-01
   outer loop
     vertex  3.232805e-01 -1.304103e-01  3.599494e-02
     vertex -4.541446e-01 -1.361496e-01  5.239700e-02
     vertex  3.232805e-01 -1.361496e-01  5.239700e-02
   endloop
 endfacet
 facet normal  0.000000e+00  9.438833e-01  3.302791e-01
   outer loop
     vertex  3.232805e-01 -1.304103e-01  3.599494e-02
     vertex -4.541446e-01 -1.304103e-01  3.599494e-02
     vertex -4.541446e-01 -1.361496e-01  5.239700e-02
   endloop
 endfacet
 facet normal  0.000000e+00  8.467242e-01  5.320321e-01
   outer loop
     vertex  3.232805e-01 -1.211650e-01  2.128125e-02
     vertex -4.541446e-01 -1.304103e-01  3.599494e-02
     vertex  3.232805e-01 -1.304103e-01  3.599494e-02
   endloop
 endfacet
 facet normal  0.000000e+00  8.467242e-01  5.320321e-01
   outer loop
     vertex  3.232805e-01 -1.211650e-01  2.128125e-02
     vertex -4.541446e-01 -1.211650e-01  2.128125e-02
     vertex -4.541446e-01 -1.304103e-01  3.599494e-02
   endloop
 endfacet
 facet normal  0.000000e+00  5.720156e-01  8.202428e-01
   outer loop
     vertex -4.125220e-01 -1.007054e-01  3.294734e-03
     vertex -4.365079e-01 -1.007054e-01  3.294734e-03
     vertex -4.541446e-01 -1.088775e-01  8.993707e-03
   endloop
 endfacet
 facet normal  2.707363e-02  5.318371e-01  8.464138e-01
   outer loop
     vertex -4.541446e-01 -9.416379e-02 -2.515225e-04
     vertex -4.541446e-01 -1.088775e-01  8.993707e-03
     vertex -4.365079e-01 -1.007054e-01  3.294734e-03
   endloop
 endfacet
 facet normal  0.000000e+00  7.071068e-01  7.071068e-01
   outer loop
     vertex  3.232805e-01 -1.088775e-01  8.993707e-03
     vertex -4.541446e-01 -1.211650e-01  2.128125e-02
     vertex  3.232805e-01 -1.211650e-01  2.128125e-02
   endloop
 endfacet
 facet normal  0.000000e+00  7.071068e-01  7.071068e-01
   outer loop
     vertex  3.232805e-01 -1.088775e-01  8.993707e-03
     vertex -4.541446e-01 -1.088775e-01  8.993707e-03
     vertex -4.541446e-01 -1.211650e-01  2.128125e-02
   endloop
 endfacet
 facet normal  0.000000e+00  5.720156e-01  8.202428e-01
   outer loop
     vertex  2.710759e-01 -1.007054e-01  3.294734e-03
     vertex -4.125220e-01 -1.007054e-01  3.294734e-03
     vertex -4.541446e-01 -1.088775e-01  8.993707e-03
   endloop
 endfacet
 facet normal  0.000000e+00  5.720156e-01  8.202428e-01
   outer loop
     vertex  2.710759e-01 -1.007054e-01  3.294734e-03
     vertex -4.541446e-01 -1.088775e-01  8.993707e-03
     vertex  3.232805e-01 -1.088775e-01  8.993707e-03
   endloop
 endfacet
 facet normal  0.000000e+00  5.720156e-01  8.202428e-01
   outer loop
     vertex  3.070547e-01 -1.007054e-01  3.294734e-03
     vertex  2.710759e-01 -1.007054e-01  3.294734e-03
     vertex  3.232805e-01 -1.088775e-01  8.993707e-03
   endloop
 endfacet
 facet normal  2.716861e-02  3.301571e-01  9.435349e-01
   outer loop
     vertex -4.541446e-01 -7.776173e-02 -5.990849e-03
     vertex -4.541446e-01 -9.416379e-02 -2.515225e-04
     vertex -4.365079e-01 -8.721154e-02 -3.192057e-03
   endloop
 endfacet
 facet normal -2.942595e-02  5.318017e-01  8.463575e-01
   outer loop
     vertex  3.232805e-01 -9.416379e-02 -2.515225e-04
     vertex  3.070547e-01 -1.007054e-01  3.294734e-03
     vertex  3.232805e-01 -1.088775e-01  8.993707e-03
   endloop
 endfacet
 facet normal  2.299543e-02  1.119349e-01  9.934494e-01
   outer loop
     vertex -4.541446e-01 -6.049379e-02 -7.936478e-03
     vertex -4.541446e-01 -7.776173e-02 -5.990849e-03
     vertex -4.365079e-01 -7.272311e-02 -6.966803e-03
   endloop
 endfacet
 facet normal -2.952916e-02  3.301350e-01  9.434717e-01
   outer loop
     vertex  3.232805e-01 -7.776173e-02 -5.990849e-03
     vertex  3.070547e-01 -8.721154e-02 -3.192057e-03
     vertex  3.232805e-01 -9.416379e-02 -2.515225e-04
   endloop
 endfacet
 facet normal  1.455468e-02 -1.119526e-01  9.936070e-01
   outer loop
     vertex -4.541446e-01 -4.322585e-02 -5.990849e-03
     vertex -4.541446e-01 -6.049379e-02 -7.936478e-03
     vertex -4.365079e-01 -5.777944e-02 -7.888992e-03
   endloop
 endfacet
 facet normal -2.499387e-02  1.119295e-01  9.934018e-01
   outer loop
     vertex  3.232805e-01 -6.049379e-02 -7.936478e-03
     vertex  3.070547e-01 -7.272311e-02 -6.966803e-03
     vertex  3.232805e-01 -7.776173e-02 -5.990849e-03
   endloop
 endfacet
 facet normal  1.654296e-03 -3.191564e-01  9.477006e-01
   outer loop
     vertex -4.365079e-01 -2.874774e-02 -1.145851e-03
     vertex -4.541446e-01 -4.322585e-02 -5.990849e-03
     vertex -4.365079e-01 -4.293682e-02 -5.924297e-03
   endloop
 endfacet
 facet normal  1.183278e-02 -3.302559e-01  9.438172e-01
   outer loop
     vertex -4.541446e-01 -2.682380e-02 -2.515225e-04
     vertex -4.541446e-01 -4.322585e-02 -5.990849e-03
     vertex -4.365079e-01 -2.874774e-02 -1.145851e-03
   endloop
 endfacet
 facet normal  0.000000e+00 -4.215268e-01  9.068159e-01
   outer loop
     vertex -4.541446e-01 -2.682380e-02 -2.515225e-04
     vertex -4.365079e-01 -2.874774e-02 -1.145851e-03
     vertex -4.125220e-01 -2.874774e-02 -1.145851e-03
   endloop
 endfacet
 facet normal  0.000000e+00 -1.312238e-01  9.913528e-01
   outer loop
     vertex  2.710759e-01 -4.293682e-02 -5.924297e-03
     vertex -4.125220e-01 -4.293682e-02 -5.924297e-03
     vertex -4.125220e-01 -5.777944e-02 -7.888992e-03
   endloop
 endfacet
 facet normal  0.000000e+00 -1.312238e-01  9.913528e-01
   outer loop
     vertex  2.710759e-01 -4.293682e-02 -5.924297e-03
     vertex -4.125220e-01 -5.777944e-02 -7.888992e-03
     vertex  2.710759e-01 -5.777944e-02 -7.888992e-03
   endloop
 endfacet
 facet normal -1.582003e-02 -1.119505e-01  9.935879e-01
   outer loop
     vertex  3.232805e-01 -4.322585e-02 -5.990849e-03
     vertex  3.070547e-01 -5.777944e-02 -7.888992e-03
     vertex  3.232805e-01 -6.049379e-02 -7.936478e-03
   endloop
 endfacet
 facet normal  0.000000e+00 -3.191569e-01  9.477019e-01
   outer loop
     vertex  2.710759e-01 -2.874774e-02 -1.145851e-03
     vertex -4.125220e-01 -4.293682e-02 -5.924297e-03
     vertex  2.710759e-01 -4.293682e-02 -5.924297e-03
   endloop
 endfacet
 facet normal  0.000000e+00 -3.191569e-01  9.477019e-01
   outer loop
     vertex  2.710759e-01 -2.874774e-02 -1.145851e-03
     vertex -4.125220e-01 -2.874774e-02 -1.145851e-03
     vertex -4.125220e-01 -4.293682e-02 -5.924297e-03
   endloop
 endfacet
 facet normal  0.000000e+00 -4.215268e-01  9.068159e-01
   outer loop
     vertex  2.710759e-01 -2.874774e-02 -1.145851e-03
     vertex -4.541446e-01 -2.682380e-02 -2.515225e-04
     vertex -4.125220e-01 -2.874774e-02 -1.145851e-03
   endloop
 endfacet
 facet normal -1.798150e-03 -3.191564e-01  9.477004e-01
   outer loop
     vertex  3.070547e-01 -2.874774e-02 -1.145851e-03
     vertex  3.070547e-01 -4.293682e-02 -5.924297e-03
     vertex  3.232805e-01 -4.322585e-02 -5.990849e-03
   endloop
 endfacet
 facet normal  0.000000e+00 -4.215268e-01  9.068159e-01
   outer loop
     vertex  3.232805e-01 -2.682380e-02 -2.515225e-04
     vertex  2.710759e-01 -2.874774e-02 -1.145851e-03
     vertex  3.070547e-01 -2.874774e-02 -1.145851e-03
   endloop
 endfacet
 facet normal  0.000000e+00 -4.215268e-01  9.068159e-01
   outer loop
     vertex  3.232805e-01 -2.682380e-02 -2.515225e-04
     vertex -4.541446e-01 -2.682380e-02 -2.515225e-04
     vertex  2.710759e-01 -2.874774e-02 -1.145851e-03
   endloop
 endfacet
 facet normal -1.286157e-02 -3.302517e-01  9.438053e-01
   outer loop
     vertex  3.232805e-01 -2.682380e-02 -2.515225e-04
     vertex  3.070547e-01 -2.874774e-02 -1.145851e-03
     vertex  3.232805e-01 -4.322585e-02 -5.990849e-03
   endloop
 endfacet
 facet normal  0.000000e+00 -5.320321e-01  8.467242e-01
   outer loop
     vertex  3.232805e-01 -2.682380e-02 -2.515225e-04
     vertex -4.541446e-01 -1.211010e-02  8.993707e-03
     vertex -4.541446e-01 -2.682380e-02 -2.515225e-04
   endloop
 endfacet
 facet normal  0.000000e+00 -5.320321e-01  8.467242e-01
   outer loop
     vertex  3.232805e-01 -1.211010e-02  8.993707e-03
     vertex -4.541446e-01 -1.211010e-02  8.993707e-03
     vertex  3.232805e-01 -2.682380e-02 -2.515225e-04
   endloop
 endfacet
 facet normal  0.000000e+00 -7.071068e-01  7.071068e-01
   outer loop
     vertex  3.232805e-01  1.774339e-04  2.128125e-02
     vertex -4.541446e-01 -1.211010e-02  8.993707e-03
     vertex  3.232805e-01 -1.211010e-02  8.993707e-03
   endloop
 endfacet
 facet normal  0.000000e+00 -7.071068e-01  7.071068e-01
   outer loop
     vertex  3.232805e-01  1.774339e-04  2.128125e-02
     vertex -4.541446e-01  1.774339e-04  2.128125e-02
     vertex -4.541446e-01 -1.211010e-02  8.993707e-03
   endloop
 endfacet
 facet normal  0.000000e+00 -8.467242e-01  5.320321e-01
   outer loop
     vertex  3.232805e-01  9.422663e-03  3.599494e-02
     vertex -4.541446e-01  1.774339e-04  2.128125e-02
     vertex  3.232805e-01  1.774339e-04  2.128125e-02
   endloop
 endfacet
 facet normal  0.000000e+00 -8.467242e-01  5.320321e-01
   outer loop
     vertex  3.232805e-01  9.422663e-03  3.599494e-02
     vertex -4.541446e-01  9.422663e-03  3.599494e-02
     vertex -4.541446e-01  1.774339e-04  2.128125e-02
   endloop
 endfacet
 facet normal  0.000000e+00 -9.438833e-01  3.302791e-01
   outer loop
     vertex  3.232805e-01  1.516199e-02  5.239700e-02
     vertex -4.541446e-01  9.422663e-03  3.599494e-02
     vertex  3.232805e-01  9.422663e-03  3.599494e-02
   endloop
 endfacet
 facet normal  0.000000e+00 -9.438833e-01  3.302791e-01
   outer loop
     vertex  3.232805e-01  1.516199e-02  5.239700e-02
     vertex -4.541446e-01  1.516199e-02  5.239700e-02
     vertex -4.541446e-01  9.422663e-03  3.599494e-02
   endloop
 endfacet
 facet normal  0.000000e+00 -9.937122e-01  1.119645e-01
   outer loop
     vertex  3.232805e-01  1.516199e-02  5.239700e-02
     vertex -4.541446e-01  1.710762e-02  6.966493e-02
     vertex -4.541446e-01  1.516199e-02  5.239700e-02
   endloop
 endfacet
 facet normal  0.000000e+00 -9.937122e-01  1.119645e-01
   outer loop
     vertex  3.232805e-01  1.710762e-02  6.966493e-02
     vertex -4.541446e-01  1.710762e-02  6.966493e-02
     vertex  3.232805e-01  1.516199e-02  5.239700e-02
   endloop
 endfacet
 facet normal -1.590320e-03 -1.312237e-01 -9.913515e-01
   outer loop
     vertex -4.365079e-01 -5.777944e-02  1.472189e-01
     vertex -4.541446e-01 -4.322585e-02  1.453207e-01
     vertex -4.365079e-01 -4.293682e-02  1.452542e-01
   endloop
 endfacet
 facet normal -1.216597e-02  6.158933e-02 -9.980274e-01
   outer loop
     vertex -4.365079e-01 -7.272311e-02  1.462967e-01
     vertex -4.541446e-01 -6.049379e-02  1.472663e-01
     vertex -4.365079e-01 -5.777944e-02  1.472189e-01
   endloop
 endfacet
 facet normal -1.847569e-02  2.520758e-01 -9.675311e-01
   outer loop
     vertex -4.365079e-01 -8.721154e-02  1.425219e-01
     vertex -4.541446e-01 -7.776173e-02  1.453207e-01
     vertex -4.365079e-01 -7.272311e-02  1.462967e-01
   endloop
 endfacet
 facet normal -2.051580e-02  4.331677e-01 -9.010798e-01
   outer loop
     vertex -4.365079e-01 -1.007054e-01  1.360351e-01
     vertex -4.541446e-01 -9.416379e-02  1.395814e-01
     vertex -4.365079e-01 -8.721154e-02  1.425219e-01
   endloop
 endfacet
 facet normal  0.000000e+00  6.159388e-02 -9.981013e-01
   outer loop
     vertex -4.125220e-01 -5.777944e-02  1.472189e-01
     vertex  2.710759e-01 -7.272311e-02  1.462967e-01
     vertex -4.125220e-01 -7.272311e-02  1.462967e-01
   endloop
 endfacet
 facet normal  0.000000e+00  2.521188e-01 -9.676963e-01
   outer loop
     vertex  2.710759e-01 -7.272311e-02  1.462967e-01
     vertex -4.125220e-01 -8.721154e-02  1.425219e-01
     vertex -4.125220e-01 -7.272311e-02  1.462967e-01
   endloop
 endfacet
 facet normal -4.205915e-03  4.332550e-01 -9.012616e-01
   outer loop
     vertex  2.710759e-01 -7.272311e-02  1.462967e-01
     vertex -4.125220e-01 -1.007054e-01  1.360351e-01
     vertex -4.125220e-01 -8.721154e-02  1.425219e-01
   endloop
 endfacet
 facet normal  4.205915e-03  2.521166e-01 -9.676877e-01
   outer loop
     vertex  2.710759e-01 -7.272311e-02  1.462967e-01
     vertex  2.710759e-01 -8.721154e-02  1.425219e-01
     vertex -4.125220e-01 -1.007054e-01  1.360351e-01
   endloop
 endfacet
 facet normal  0.000000e+00  4.332589e-01 -9.012695e-01
   outer loop
     vertex  2.710759e-01 -8.721154e-02  1.425219e-01
     vertex  2.710759e-01 -1.007054e-01  1.360351e-01
     vertex -4.125220e-01 -1.007054e-01  1.360351e-01
   endloop
 endfacet
 facet normal  0.000000e+00  6.159388e-02 -9.981013e-01
   outer loop
     vertex -4.125220e-01 -5.777944e-02  1.472189e-01
     vertex  2.710759e-01 -5.777944e-02  1.472189e-01
     vertex  2.710759e-01 -7.272311e-02  1.462967e-01
   endloop
 endfacet
 facet normal -2.051580e-02  4.331677e-01  9.010798e-01
   outer loop
     vertex -4.365079e-01 -8.721154e-02 -3.192057e-03
     vertex -4.541446e-01 -9.416379e-02 -2.515225e-04
     vertex -4.365079e-01 -1.007054e-01  3.294734e-03
   endloop
 endfacet
 facet normal -1.847569e-02  2.520758e-01  9.675311e-01
   outer loop
     vertex -4.365079e-01 -7.272311e-02 -6.966803e-03
     vertex -4.541446e-01 -7.776173e-02 -5.990849e-03
     vertex -4.365079e-01 -8.721154e-02 -3.192057e-03
   endloop
 endfacet
 facet normal -1.216597e-02  6.158933e-02  9.980274e-01
   outer loop
     vertex -4.365079e-01 -5.777944e-02 -7.888992e-03
     vertex -4.541446e-01 -6.049379e-02 -7.936478e-03
     vertex -4.365079e-01 -7.272311e-02 -6.966803e-03
   endloop
 endfacet
 facet normal -1.590320e-03 -1.312237e-01  9.913515e-01
   outer loop
     vertex -4.365079e-01 -4.293682e-02 -5.924297e-03
     vertex -4.541446e-01 -4.322585e-02 -5.990849e-03
     vertex -4.365079e-01 -5.777944e-02 -7.888992e-03
   endloop
 endfacet
 facet normal  0.000000e+00  4.332589e-01  9.012695e-01
   outer loop
     vertex -4.125220e-01 -1.007054e-01  3.294734e-03
     vertex  2.710759e-01 -8.721154e-02 -3.192057e-03
     vertex -4.125220e-01 -8.721154e-02 -3.192057e-03
   endloop
 endfacet
 facet normal  0.000000e+00  2.521188e-01  9.676963e-01
   outer loop
     vertex  2.710759e-01 -8.721154e-02 -3.192057e-03
     vertex -4.125220e-01 -7.272311e-02 -6.966803e-03
     vertex -4.125220e-01 -8.721154e-02 -3.192057e-03
   endloop
 endfacet
 facet normal -4.205915e-03  6.159334e-02  9.980925e-01
   outer loop
     vertex  2.710759e-01 -8.721154e-02 -3.192057e-03
     vertex -4.125220e-01 -5.777944e-02 -7.888992e-03
     vertex -4.125220e-01 -7.272311e-02 -6.966803e-03
   endloop
 endfacet
 facet normal  4.205915e-03  2.521166e-01  9.676877e-01
   outer loop
     vertex  2.710759e-01 -8.721154e-02 -3.192057e-03
     vertex  2.710759e-01 -7.272311e-02 -6.966803e-03
     vertex -4.125220e-01 -5.777944e-02 -7.888992e-03
   endloop
 endfacet
 facet normal  0.000000e+00  6.159388e-02  9.981013e-01
   outer loop
     vertex  2.710759e-01 -7.272311e-02 -6.966803e-03
     vertex  2.710759e-01 -5.777944e-02 -7.888992e-03
     vertex -4.125220e-01 -5.777944e-02 -7.888992e-03
   endloop
 endfacet
 facet normal -0.000000e+00  4.332589e-01  9.012695e-01
   outer loop
     vertex -4.125220e-01 -1.007054e-01  3.294734e-03
     vertex  2.710759e-01 -1.007054e-01  3.294734e-03
     vertex  2.710759e-01 -8.721154e-02 -3.192057e-03
   endloop
 endfacet
 facet normal  1.728611e-03 -1.312237e-01 -9.913513e-01
   outer loop
     vertex  3.070547e-01 -4.293682e-02  1.452542e-01
     vertex  3.232805e-01 -4.322585e-02  1.453207e-01
     vertex  3.070547e-01 -5.777944e-02  1.472189e-01
   endloop
 endfacet
 facet normal  1.322372e-02  6.158850e-02 -9.980140e-01
   outer loop
     vertex  3.070547e-01 -5.777944e-02  1.472189e-01
     vertex  3.232805e-01 -6.049379e-02  1.472663e-01
     vertex  3.070547e-01 -7.272311e-02  1.462967e-01
   endloop
 endfacet
 facet normal  2.008168e-02  2.520680e-01 -9.675011e-01
   outer loop
     vertex  3.070547e-01 -7.272311e-02  1.462967e-01
     vertex  3.232805e-01 -7.776173e-02  1.453207e-01
     vertex  3.070547e-01 -8.721154e-02  1.425219e-01
   endloop
 endfacet
 facet normal  2.229896e-02  4.331511e-01 -9.010454e-01
   outer loop
     vertex  3.070547e-01 -8.721154e-02  1.425219e-01
     vertex  3.232805e-01 -9.416379e-02  1.395814e-01
     vertex  3.070547e-01 -1.007054e-01  1.360351e-01
   endloop
 endfacet
 facet normal  2.229896e-02  4.331511e-01  9.010454e-01
   outer loop
     vertex  3.070547e-01 -1.007054e-01  3.294734e-03
     vertex  3.232805e-01 -9.416379e-02 -2.515225e-04
     vertex  3.070547e-01 -8.721154e-02 -3.192057e-03
   endloop
 endfacet
 facet normal  2.008168e-02  2.520680e-01  9.675011e-01
   outer loop
     vertex  3.070547e-01 -8.721154e-02 -3.192057e-03
     vertex  3.232805e-01 -7.776173e-02 -5.990849e-03
     vertex  3.070547e-01 -7.272311e-02 -6.966803e-03
   endloop
 endfacet
 facet normal  1.322372e-02  6.158850e-02  9.980140e-01
   outer loop
     vertex  3.070547e-01 -7.272311e-02 -6.966803e-03
     vertex  3.232805e-01 -6.049379e-02 -7.936478e-03
     vertex  3.070547e-01 -5.777944e-02 -7.888992e-03
   endloop
 endfacet
 facet normal  1.728611e-03 -1.312237e-01  9.913513e-01
   outer loop
     vertex  3.070547e-01 -5.777944e-02 -7.888992e-03
     vertex  3.232805e-01 -4.322585e-02 -5.990849e-03
     vertex  3.070547e-01 -4.293682e-02 -5.924297e-03
   endloop
 endfacet
 facet normal  1.000000e+00  0.000000e+00  0.000000e+00
   outer loop
     vertex  3.232805e-01  9.541452e-02 -1.587302e-02
     vertex  3.232805e-01 -2.262786e-01 -1.587302e-02
     vertex  3.232805e-01 -2.262786e-01 -3.174603e-02
   endloop
 endfacet
 facet normal  1.000000e+00  0.000000e+00  0.000000e+00
   outer loop
     vertex  3.232805e-01  9.541452e-02 -1.587302e-02
     vertex  3.232805e-01 -2.262786e-01 -3.174603e-02
     vertex  3.232805e-01  9.541452e-02 -3.174603e-02
   endloop
 endfacet
 facet normal  0.000000e+00  4.778090e-07 -1.000000e+00
   outer loop
     vertex -4.125220e-01 -1.007054e-01 -3.174597e-02
     vertex -4.541446e-01 -2.262786e-01 -3.174603e-02
     vertex -4.365079e-01 -1.007054e-01 -3.174597e-02
   endloop
 endfacet
 facet normal  0.000000e+00 -4.832386e-07 -1.000000e+00
   outer loop
     vertex -4.541446e-01  9.541452e-02 -3.174603e-02
     vertex -4.125220e-01 -2.874774e-02 -3.174597e-02
     vertex -4.365079e-01 -2.874774e-02 -3.174597e-02
   endloop
 endfacet
 facet normal  0.000000e+00  4.778090e-07 -1.000000e+00
   outer loop
     vertex  2.710759e-01 -1.007054e-01 -3.174597e-02
     vertex  3.232805e-01 -2.262786e-01 -3.174603e-02
     vertex -4.541446e-01 -2.262786e-01 -3.174603e-02
   endloop
 endfacet
 facet normal  0.000000e+00  4.778090e-07 -1.000000e+00
   outer loop
     vertex  2.710759e-01 -1.007054e-01 -3.174597e-02
     vertex -4.541446e-01 -2.262786e-01 -3.174603e-02
     vertex -4.125220e-01 -1.007054e-01 -3.174597e-02
   endloop
 endfacet
 facet normal  0.000000e+00  4.778090e-07 -1.000000e+00
   outer loop
     vertex  3.070547e-01 -1.007054e-01 -3.174597e-02
     vertex  3.232805e-01 -2.262786e-01 -3.174603e-02
     vertex  2.710759e-01 -1.007054e-01 -3.174597e-02
   endloop
 endfacet
 facet normal -0.000000e+00  0.000000e+00 -1.000000e+00
   outer loop
     vertex  2.710759e-01 -2.874774e-02 -3.174597e-02
     vertex -4.125220e-01 -1.007054e-01 -3.174597e-02
     vertex -4.125220e-01 -2.874774e-02 -3.174597e-02
   endloop
 endfacet
 facet normal  0.000000e+00 -0.000000e+00 -1.000000e+00
   outer loop
     vertex  2.710759e-01 -2.874774e-02 -3.174597e-02
     vertex  2.710759e-01 -1.007054e-01 -3.174597e-02
     vertex -4.125220e-01 -1.007054e-01 -3.174597e-02
   endloop
 endfacet
 facet normal -0.000000e+00 -4.832386e-07 -1.000000e+00
   outer loop
     vertex  2.710759e-01 -2.874774e-02 -3.174597e-02
     vertex -4.125220e-01 -2.874774e-02 -3.174597e-02
     vertex -4.541446e-01  9.541452e-02 -3.174603e-02
   endloop
 endfacet
 facet normal  0.000000e+00 -4.832386e-07 -1.000000e+00
   outer loop
     vertex  3.232805e-01  9.541452e-02 -3.174603e-02
     vertex  3.070547e-01 -2.874774e-02 -3.174597e-02
     vertex  2.710759e-01 -2.874774e-02 -3.174597e-02
   endloop
 endfacet
 facet normal -0.000000e+00 -4.832386e-07 -1.000000e+00
   outer loop
     vertex  3.232805e-01  9.541452e-02 -3.174603e-02
     vertex  2.710759e-01 -2.874774e-02 -3.174597e-02
     vertex -4.541446e-01  9.541452e-02 -3.174603e-02
   endloop
 endfacet
 facet normal -3.697832e-06  0.000000e+00 -1.000000e+00
   outer loop
     vertex  3.232805e-01 -2.262786e-01 -3.174603e-02
     vertex  3.070547e-01 -2.874774e-02 -3.174597e-02
     vertex  3.232805e-01  9.541452e-02 -3.174603e-02
   endloop
 endfacet
 facet normal -3.697832e-06  0.000000e+00 -1.000000e+00
   outer loop
     vertex  3.232805e-01 -2.262786e-01 -3.174603e-02
     vertex  3.070547e-01 -1.007054e-01 -3.174597e-02
     vertex  3.070547e-01 -2.874774e-02 -3.174597e-02
   endloop
 endfacet
 facet normal  3.402000e-06  0.000000e+00 -1.000000e+00
   outer loop
     vertex -4.541446e-01  9.541452e-02 -3.174603e-02
     vertex -4.365079e-01 -1.007054e-01 -3.174597e-02
     vertex -4.541446e-01 -2.262786e-01 -3.174603e-02
   endloop
 endfacet
 facet normal  3.402000e-06  0.000000e+00 -1.000000e+00
   outer loop
     vertex -4.541446e-01  9.541452e-02 -3.174603e-02
     vertex -4.365079e-01 -2.874774e-02 -3.174597e-02
     vertex -4.365079e-01 -1.007054e-01 -3.174597e-02
   endloop
 endfacet
 facet normal -0.000000e+00  1.000000e+00  0.000000e+00
   outer loop
     vertex -4.365079e-01 -1.007054e-01  3.174604e-01
     vertex -4.125220e-01 -1.007054e-01  3.174604e-01
     vertex -4.125220e-01 -1.007054e-01  1.360351e-01
   endloop
 endfacet
 facet normal  0.000000e+00  1.000000e+00  0.000000e+00
   outer loop
     vertex -4.365079e-01 -1.007054e-01  3.174604e-01
     vertex -4.125220e-01 -1.007054e-01  1.360351e-01
     vertex -4.365079e-01 -1.007054e-01  1.360351e-01
   endloop
 endfacet
 facet normal -1.000000e+00  0.000000e+00 -0.000000e+00
   outer loop
     vertex -4.125220e-01 -2.874774e-02  3.174604e-01
     vertex -4.125220e-01 -2.874774e-02  1.404757e-01
     vertex -4.125220e-01 -4.293682e-02  1.452542e-01
   endloop
 endfacet
 facet normal -1.000000e+00  0.000000e+00  0.000000e+00
   outer loop
     vertex -4.125220e-01 -2.874774e-02  3.174604e-01
     vertex -4.125220e-01 -4.293682e-02  1.452542e-01
     vertex -4.125220e-01 -5.777944e-02  1.472189e-01
   endloop
 endfacet
 facet normal -1.000000e+00  0.000000e+00  0.000000e+00
   outer loop
     vertex -4.125220e-01 -1.007054e-01  3.174604e-01
     vertex -4.125220e-01 -5.777944e-02  1.472189e-01
     vertex -4.125220e-01 -7.272311e-02  1.462967e-01
   endloop
 endfacet
 facet normal -1.000000e+00  0.000000e+00  0.000000e+00
   outer loop
     vertex -4.125220e-01 -1.007054e-01  3.174604e-01
     vertex -4.125220e-01 -7.272311e-02  1.462967e-01
     vertex -4.125220e-01 -8.721154e-02  1.425219e-01
   endloop
 endfacet
 facet normal -1.000000e+00  0.000000e+00  0.000000e+00
   outer loop
     vertex -4.125220e-01 -1.007054e-01  3.174604e-01
     vertex -4.125220e-01 -8.721154e-02  1.425219e-01
     vertex -4.125220e-01 -1.007054e-01  1.360351e-01
   endloop
 endfacet
 facet normal -1.000000e+00  0.000000e+00  0.000000e+00
   outer loop
     vertex -4.125220e-01 -1.007054e-01  3.174604e-01
     vertex -4.125220e-01 -2.874774e-02  3.174604e-01
     vertex -4.125220e-01 -5.777944e-02  1.472189e-01
   endloop
 endfacet
 facet normal -0.000000e+00 -1.000000e+00  0.000000e+00
   outer loop
     vertex -4.125220e-01 -2.874774e-02  3.174604e-01
     vertex -4.365079e-01 -2.874774e-02  3.174604e-01
     vertex -4.365079e-01 -2.874774e-02  1.404757e-01
   endloop
 endfacet
 facet normal  0.000000e+00 -1.000000e+00 -0.000000e+00
   outer loop
     vertex -4.125220e-01 -2.874774e-02  3.174604e-01
     vertex -4.365079e-01 -2.874774e-02  1.404757e-01
     vertex -4.125220e-01 -2.874774e-02  1.404757e-01
   endloop
 endfacet
 facet normal  1.000000e+00  0.000000e+00  0.000000e+00
   outer loop
     vertex -4.365079e-01 -1.007054e-01  3.174604e-01
     vertex -4.365079e-01 -7.272311e-02  1.462967e-01
     vertex -4.365079e-01 -5.777944e-02  1.472189e-01
   endloop
 endfacet
 facet normal  1.000000e+00  0.000000e+00  0.000000e+00
   outer loop
     vertex -4.365079e-01 -1.007054e-01  3.174604e-01
     vertex -4.365079e-01 -8.721154e-02  1.425219e-01
     vertex -4.365079e-01 -7.272311e-02  1.462967e-01
   endloop
 endfacet
 facet normal  1.000000e+00  0.000000e+00  0.000000e+00
   outer loop
     vertex -4.365079e-01 -1.007054e-01  3.174604e-01
     vertex -4.365079e-01 -1.007054e-01  1.360351e-01
     vertex -4.365079e-01 -8.721154e-02  1.425219e-01
   endloop
 endfacet
 facet normal  1.000000e+00  0.000000e+00  0.000000e+00
   outer loop
     vertex -4.365079e-01 -2.874774e-02  3.174604e-01
     vertex -4.365079e-01 -4.293682e-02  1.452542e-01
     vertex -4.365079e-01 -2.874774e-02  1.404757e-01
   endloop
 endfacet
 facet normal  1.000000e+00  0.000000e+00  0.000000e+00
   outer loop
     vertex -4.365079e-01 -2.874774e-02  3.174604e-01
     vertex -4.365079e-01 -5.777944e-02  1.472189e-01
     vertex -4.365079e-01 -4.293682e-02  1.452542e-01
   endloop
 endfacet
 facet normal  1.000000e+00  0.000000e+00  0.000000e+00
   outer loop
     vertex -4.365079e-01 -2.874774e-02  3.174604e-01
     vertex -4.365079e-01 -1.007054e-01  3.174604e-01
     vertex -4.365079e-01 -5.777944e-02  1.472189e-01
   endloop
 endfacet
 facet normal -0.000000e+00  1.000000e+00  0.000000e+00
   outer loop
     vertex  2.710759e-01 -1.007054e-01  3.174604e-01
     vertex  3.070547e-01 -1.007054e-01  3.174604e-01
     vertex  3.070547e-01 -1.007054e-01  1.360351e-01
   endloop
 endfacet
 facet normal  0.000000e+00  1.000000e+00  0.000000e+00
   outer loop
     vertex  2.710759e-01 -1.007054e-01  3.174604e-01
     vertex  3.070547e-01 -1.007054e-01  1.360351e-01
     vertex  2.710759e-01 -1.007054e-01  1.360351e-01
   endloop
 endfacet
 facet normal -1.000000e+00  0.000000e+00 -0.000000e+00
   outer loop
     vertex  3.070547e-01 -2.874774e-02  3.174604e-01
     vertex  3.070547e-01 -2.874774e-02  1.404757e-01
     vertex  3.070547e-01 -4.293682e-02  1.452542e-01
   endloop
 endfacet
 facet normal -1.000000e+00  0.000000e+00  0.000000e+00
   outer loop
     vertex  3.070547e-01 -2.874774e-02  3.174604e-01
     vertex  3.070547e-01 -4.293682e-02  1.452542e-01
     vertex  3.070547e-01 -5.777944e-02  1.472189e-01
   endloop
 endfacet
 facet normal -1.000000e+00  0.000000e+00  0.000000e+00
   outer loop
     vertex  3.070547e-01 -1.007054e-01  3.174604e-01
     vertex  3.070547e-01 -5.777944e-02  1.472189e-01
     vertex  3.070547e-01 -7.272311e-02  1.462967e-01
   endloop
 endfacet
 facet normal -1.000000e+00  0.000000e+00  0.000000e+00
   outer loop
     vertex  3.070547e-01 -1.007054e-01  3.174604e-01
     vertex  3.070547e-01 -7.272311e-02  1.462967e-01
     vertex  3.070547e-01 -8.721154e-02  1.425219e-01
   endloop
 endfacet
 facet normal -1.000000e+00  0.000000e+00  0.000000e+00
   outer loop
     vertex  3.070547e-01 -1.007054e-01  3.174604e-01
     vertex  3.070547e-01 -8.721154e-02  1.425219e-01
     vertex  3.070547e-01 -1.007054e-01  1.360351e-01
   endloop
 endfacet
 facet normal -1.000000e+00  0.000000e+00  0.000000e+00
   outer loop
     vertex  3.070547e-01 -1.007054e-01  3.174604e-01
     vertex  3.070547e-01 -2.874774e-02  3.174604e-01
     vertex  3.070547e-01 -5.777944e-02  1.472189e-01
   endloop
 endfacet
 facet normal -0.000000e+00 -1.000000e+00  0.000000e+00
   outer loop
     vertex  3.070547e-01 -2.874774e-02  3.174604e-01
     vertex  2.710759e-01 -2.874774e-02  3.174604e-01
     vertex  2.710759e-01 -2.874774e-02  1.404757e-01
   endloop
 endfacet
 facet normal  0.000000e+00 -1.000000e+00 -0.000000e+00
   outer loop
     vertex  3.070547e-01 -2.874774e-02  3.174604e-01
     vertex  2.710759e-01 -2.874774e-02  1.404757e-01
     vertex  3.070547e-01 -2.874774e-02  1.404757e-01
   endloop
 endfacet
 facet normal  1.000000e+00  0.000000e+00  0.000000e+00
   outer loop
     vertex  2.710759e-01 -1.007054e-01  3.174604e-01
     vertex  2.710759e-01 -7.272311e-02  1.462967e-01
     vertex  2.710759e-01 -5.777944e-02  1.472189e-01
   endloop
 endfacet
 facet normal  1.000000e+00  0.000000e+00  0.000000e+00
   outer loop
     vertex  2.710759e-01 -1.007054e-01  3.174604e-01
     vertex  2.710759e-01 -8.721154e-02  1.425219e-01
     vertex  2.710759e-01 -7.272311e-02  1.462967e-01
   endloop
 endfacet
 facet normal  1.000000e+00  0.000000e+00  0.000000e+00
   outer loop
     vertex  2.710759e-01 -1.007054e-01  3.174604e-01
     vertex  2.710759e-01 -1.007054e-01  1.360351e-01
     vertex  2.710759e-01 -8.721154e-02  1.425219e-01
   endloop
 endfacet
 facet normal  1.000000e+00  0.000000e+00  0.000000e+00
   outer loop
     vertex  2.710759e-01 -2.874774e-02  3.174604e-01
     vertex  2.710759e-01 -4.293682e-02  1.452542e-01
     vertex  2.710759e-01 -2.874774e-02  1.404757e-01
   endloop
 endfacet
 facet normal  1.000000e+00  0.000000e+00  0.000000e+00
   outer loop
     vertex  2.710759e-01 -2.874774e-02  3.174604e-01
     vertex  2.710759e-01 -5.777944e-02  1.472189e-01
     vertex  2.710759e-01 -4.293682e-02  1.452542e-01
   endloop
 endfacet
 facet normal  1.000000e+00  0.000000e+00  0.000000e+00
   outer loop
     vertex  2.710759e-01 -2.874774e-02  3.174604e-01
     vertex  2.710759e-01 -1.007054e-01  3.174604e-01
     vertex  2.710759e-01 -5.777944e-02  1.472189e-01
   endloop
 endfacet
 facet normal -0.000000e+00  1.000000e+00  0.000000e+00
   outer loop
     vertex -4.541446e-01  9.541452e-02 -1.587302e-02
     vertex  3.232805e-01  9.541452e-02 -1.587302e-02
     vertex  3.232805e-01  9.541452e-02 -3.174603e-02
   endloop
 endfacet
 facet normal  0.000000e+00  1.000000e+00  0.000000e+00
   outer loop
     vertex -4.541446e-01  9.541452e-02 -1.587302e-02
     vertex  3.232805e-01  9.541452e-02 -3.174603e-02
     vertex -4.541446e-01  9.541452e-02 -3.174603e-02
   endloop
 endfacet
 facet normal  1.000000e+00  0.000000e+00  0.000000e+00
   outer loop
     vertex -4.365079e-01 -8.721154e-02 -3.192057e-03
     vertex -4.365079e-01 -1.007054e-01  3.294734e-03
     vertex -4.365079e-01 -1.007054e-01 -3.174597e-02
   endloop
 endfacet
 facet normal  1.000000e+00  0.000000e+00  0.000000e+00
   outer loop
     vertex -4.365079e-01 -7.272311e-02 -6.966803e-03
     vertex -4.365079e-01 -8.721154e-02 -3.192057e-03
     vertex -4.365079e-01 -1.007054e-01 -3.174597e-02
   endloop
 endfacet
 facet normal  1.000000e+00  0.000000e+00  0.000000e+00
   outer loop
     vertex -4.365079e-01 -5.777944e-02 -7.888992e-03
     vertex -4.365079e-01 -7.272311e-02 -6.966803e-03
     vertex -4.365079e-01 -1.007054e-01 -3.174597e-02
   endloop
 endfacet
 facet normal  1.000000e+00  0.000000e+00  0.000000e+00
   outer loop
     vertex -4.365079e-01 -2.874774e-02 -3.174597e-02
     vertex -4.365079e-01 -5.777944e-02 -7.888992e-03
     vertex -4.365079e-01 -1.007054e-01 -3.174597e-02
   endloop
 endfacet
 facet normal  1.000000e+00  0.000000e+00  0.000000e+00
   outer loop
     vertex -4.365079e-01 -4.293682e-02 -5.924297e-03
     vertex -4.365079e-01 -5.777944e-02 -7.888992e-03
     vertex -4.365079e-01 -2.874774e-02 -3.174597e-02
   endloop
 endfacet
 facet normal  1.000000e+00  0.000000e+00  0.000000e+00
   outer loop
     vertex -4.365079e-01 -2.874774e-02 -1.145851e-03
     vertex -4.365079e-01 -4.293682e-02 -5.924297e-03
     vertex -4.365079e-01 -2.874774e-02 -3.174597e-02
   endloop
 endfacet
 facet normal -0.000000e+00 -1.000000e+00  0.000000e+00
   outer loop
     vertex -4.125220e-01 -2.874774e-02 -1.145851e-03
     vertex -4.365079e-01 -2.874774e-02 -1.145851e-03
     vertex -4.365079e-01 -2.874774e-02 -3.174597e-02
   endloop
 endfacet
 facet normal  0.000000e+00 -1.000000e+00 -0.000000e+00
   outer loop
     vertex -4.125220e-01 -2.874774e-02 -1.145851e-03
     vertex -4.365079e-01 -2.874774e-02 -3.174597e-02
     vertex -4.125220e-01 -2.874774e-02 -3.174597e-02
   endloop
 endfacet
 facet normal -1.000000e+00  0.000000e+00  0.000000e+00
   outer loop
     vertex -4.125220e-01 -4.293682e-02 -5.924297e-03
     vertex -4.125220e-01 -2.874774e-02 -1.145851e-03
     vertex -4.125220e-01 -2.874774e-02 -3.174597e-02
   endloop
 endfacet
 facet normal -1.000000e+00  0.000000e+00  0.000000e+00
   outer loop
     vertex -4.125220e-01 -5.777944e-02 -7.888992e-03
     vertex -4.125220e-01 -4.293682e-02 -5.924297e-03
     vertex -4.125220e-01 -2.874774e-02 -3.174597e-02
   endloop
 endfacet
 facet normal -1.000000e+00  0.000000e+00  0.000000e+00
   outer loop
     vertex -4.125220e-01 -1.007054e-01 -3.174597e-02
     vertex -4.125220e-01 -7.272311e-02 -6.966803e-03
     vertex -4.125220e-01 -5.777944e-02 -7.888992e-03
   endloop
 endfacet
 facet normal -1.000000e+00  0.000000e+00  0.000000e+00
   outer loop
     vertex -4.125220e-01 -1.007054e-01 -3.174597e-02
     vertex -4.125220e-01 -5.777944e-02 -7.888992e-03
     vertex -4.125220e-01 -2.874774e-02 -3.174597e-02
   endloop
 endfacet
 facet normal -1.000000e+00  0.000000e+00 -0.000000e+00
   outer loop
     vertex -4.125220e-01 -8.721154e-02 -3.192057e-03
     vertex -4.125220e-01 -7.272311e-02 -6.966803e-03
     vertex -4.125220e-01 -1.007054e-01 -3.174597e-02
   endloop
 endfacet
 facet normal -1.000000e+00  0.000000e+00  0.000000e+00
   outer loop
     vertex -4.125220e-01 -1.007054e-01  3.294734e-03
     vertex -4.125220e-01 -8.721154e-02 -3.192057e-03
     vertex -4.125220e-01 -1.007054e-01 -3.174597e-02
   endloop
 endfacet
 facet normal -0.000000e+00  1.000000e+00  0.000000e+00
   outer loop
     vertex -4.365079e-01 -1.007054e-01  3.294734e-03
     vertex -4.125220e-01 -1.007054e-01  3.294734e-03
     vertex -4.125220e-01 -1.007054e-01 -3.174597e-02
   endloop
 endfacet
 facet normal  0.000000e+00  1.000000e+00  0.000000e+00
   outer loop
     vertex -4.365079e-01 -1.007054e-01  3.294734e-03
     vertex -4.125220e-01 -1.007054e-01 -3.174597e-02
     vertex -4.365079e-01 -1.007054e-01 -3.174597e-02
   endloop
 endfacet
 facet normal  1.000000e+00  0.000000e+00  0.000000e+00
   outer loop
     vertex  2.710759e-01 -8.721154e-02 -3.192057e-03
     vertex  2.710759e-01 -1.007054e-01  3.294734e-03
     vertex  2.710759e-01 -1.007054e-01 -3.174597e-02
   endloop
 endfacet
 facet normal  1.000000e+00  0.000000e+00  0.000000e+00
   outer loop
     vertex  2.710759e-01 -7.272311e-02 -6.966803e-03
     vertex  2.710759e-01 -8.721154e-02 -3.192057e-03
     vertex  2.710759e-01 -1.007054e-01 -3.174597e-02
   endloop
 endfacet
 facet normal  1.000000e+00  0.000000e+00  0.000000e+00
   outer loop
     vertex  2.710759e-01 -5.777944e-02 -7.888992e-03
     vertex  2.710759e-01 -7.272311e-02 -6.966803e-03
     vertex  2.710759e-01 -1.007054e-01 -3.174597e-02
   endloop
 endfacet
 facet normal  1.000000e+00  0.000000e+00  0.000000e+00
   outer loop
     vertex  2.710759e-01 -2.874774e-02 -3.174597e-02
     vertex  2.710759e-01 -5.777944e-02 -7.888992e-03
     vertex  2.710759e-01 -1.007054e-01 -3.174597e-02
   endloop
 endfacet
 facet normal  1.000000e+00  0.000000e+00  0.000000e+00
   outer loop
     vertex  2.710759e-01 -4.293682e-02 -5.924297e-03
     vertex  2.710759e-01 -5.777944e-02 -7.888992e-03
     vertex  2.710759e-01 -2.874774e-02 -3.174597e-02
   endloop
 endfacet
 facet normal  1.000000e+00  0.000000e+00  0.000000e+00
   outer loop
     vertex  2.710759e-01 -2.874774e-02 -1.145851e-03
     vertex  2.710759e-01 -4.293682e-02 -5.924297e-03
     vertex  2.710759e-01 -2.874774e-02 -3.174597e-02
   endloop
 endfacet
 facet normal -0.000000e+00 -1.000000e+00  0.000000e+00
   outer loop
     vertex  3.070547e-01 -2.874774e-02 -1.145851e-03
     vertex  2.710759e-01 -2.874774e-02 -1.145851e-03
     vertex  2.710759e-01 -2.874774e-02 -3.174597e-02
   endloop
 endfacet
 facet normal  0.000000e+00 -1.000000e+00 -0.000000e+00
   outer loop
     vertex  3.070547e-01 -2.874774e-02 -1.145851e-03
     vertex  2.710759e-01 -2.874774e-02 -3.174597e-02
     vertex  3.070547e-01 -2.874774e-02 -3.174597e-02
   endloop
 endfacet
 facet normal -1.000000e+00  0.000000e+00  0.000000e+00
   outer loop
     vertex  3.070547e-01 -4.293682e-02 -5.924297e-03
     vertex  3.070547e-01 -2.874774e-02 -1.145851e-03
     vertex  3.070547e-01 -2.874774e-02 -3.174597e-02
   endloop
 endfacet
 facet normal -1.000000e+00  0.000000e+00  0.000000e+00
   outer loop
     vertex  3.070547e-01 -5.777944e-02 -7.888992e-03
     vertex  3.070547e-01 -4.293682e-02 -5.924297e-03
     vertex  3.070547e-01 -2.874774e-02 -3.174597e-02
   endloop
 endfacet
 facet normal -1.000000e+00  0.000000e+00  0.000000e+00
   outer loop
     vertex  3.070547e-01 -1.007054e-01 -3.174597e-02
     vertex  3.070547e-01 -7.272311e-02 -6.966803e-03
     vertex  3.070547e-01 -5.777944e-02 -7.888992e-03
   endloop
 endfacet
 facet normal -1.000000e+00  0.000000e+00  0.000000e+00
   outer loop
     vertex  3.070547e-01 -1.007054e-01 -3.174597e-02
     vertex  3.070547e-01 -5.777944e-02 -7.888992e-03
     vertex  3.070547e-01 -2.874774e-02 -3.174597e-02
   endloop
 endfacet
 facet normal -1.000000e+00  0.000000e+00 -0.000000e+00
   outer loop
     vertex  3.070547e-01 -8.721154e-02 -3.192057e-03
     vertex  3.070547e-01 -7.272311e-02 -6.966803e-03
     vertex  3.070547e-01 -1.007054e-01 -3.174597e-02
   endloop
 endfacet
 facet normal -1.000000e+00  0.000000e+00  0.000000e+00
   outer loop
     vertex  3.070547e-01 -1.007054e-01  3.294734e-03
     vertex  3.070547e-01 -8.721154e-02 -3.192057e-03
     vertex  3.070547e-01 -1.007054e-01 -3.174597e-02
   endloop
 endfacet
 facet normal -0.000000e+00  1.000000e+00  0.000000e+00
   outer loop
     vertex  2.710759e-01 -1.007054e-01  3.294734e-03
     vertex  3.070547e-01 -1.007054e-01  3.294734e-03
     vertex  3.070547e-01 -1.007054e-01 -3.174597e-02
   endloop
 endfacet
 facet normal  0.000000e+00  1.000000e+00  0.000000e+00
   outer loop
     vertex  2.710759e-01 -1.007054e-01  3.294734e-03
     vertex  3.070547e-01 -1.007054e-01 -3.174597e-02
     vertex  2.710759e-01 -1.007054e-01 -3.174597e-02
   endloop
 endfacet
endsolid
