solid 
 facet normal -1.000000e+00  0.000000e+00  0.000000e+00
   outer loop
     vertex -7.031746e-01 -1.539682e-01 -1.587302e-02
     vertex -7.031746e-01 -1.539682e-01  1.966491e-01
     vertex -7.031746e-01 -1.587302e-02  1.966491e-01
   endloop
 endfacet
 facet normal -1.000000e+00  0.000000e+00  0.000000e+00
   outer loop
     vertex -7.031746e-01 -1.539682e-01 -3.174603e-02
     vertex -7.031746e-01 -1.015873e+00 -4.885359e-02
     vertex -7.031746e-01 -1.015873e+00 -3.174603e-02
   endloop
 endfacet
 facet normal -1.000000e+00  0.000000e+00  0.000000e+00
   outer loop
     vertex -7.031746e-01 -1.587302e-02 -4.885359e-02
     vertex -7.031746e-01 -1.539682e-01 -3.174603e-02
     vertex -7.031746e-01 -1.539682e-01 -1.587302e-02
   endloop
 endfacet
 facet normal -1.000000e+00  0.000000e+00  0.000000e+00
   outer loop
     vertex -7.031746e-01 -1.587302e-02 -4.885359e-02
     vertex -7.031746e-01 -1.539682e-01 -1.587302e-02
     vertex -7.031746e-01 -1.587302e-02  1.966491e-01
   endloop
 endfacet
 facet normal -1.000000e+00  0.000000e+00  0.000000e+00
   outer loop
     vertex -7.031746e-01 -1.015873e+00 -4.885359e-02
     vertex -7.031746e-01 -1.539682e-01 -3.174603e-02
     vertex -7.031746e-01 -1.587302e-02 -4.885359e-02
   endloop
 endfacet
 facet normal -1.000000e+00  0.000000e+00  0.000000e+00
   outer loop
     vertex -7.031746e-01 -1.587302e-02 -4.885359e-02
     vertex -7.031746e-01 -1.587302e-02  1.966491e-01
     vertex -7.031746e-01  0.000000e+00  1.966491e-01
   endloop
 endfacet
 facet normal -1.000000e+00  0.000000e+00  0.000000e+00
   outer loop
     vertex -7.031746e-01 -1.587302e-02 -4.885359e-02
     vertex -7.031746e-01  0.000000e+00  1.966491e-01
     vertex -7.031746e-01  0.000000e+00 -4.885359e-02
   endloop
 endfacet
 facet normal -0.000000e+00  0.000000e+00 -1.000000e+00
   outer loop
     vertex -6.895940e-02 -1.587302e-02 -4.885359e-02
     vertex -7.031746e-01 -1.015873e+00 -4.885359e-02
     vertex -7.031746e-01 -1.587302e-02 -4.885359e-02
   endloop
 endfacet
 facet normal  0.000000e+00 -0.000000e+00 -1.000000e+00
   outer loop
     vertex -6.895940e-02 -1.587302e-02 -4.885359e-02
     vertex -6.895940e-02 -1.015873e+00 -4.885359e-02
     vertex -7.031746e-01 -1.015873e+00 -4.885359e-02
   endloop
 endfacet
 facet normal  0.000000e+00 -1.000000e+00  0.000000e+00
   outer loop
     vertex -6.895940e-02 -1.015873e+00 -4.885359e-02
     vertex -7.031746e-01 -1.015873e+00 -3.174603e-02
     vertex -7.031746e-01 -1.015873e+00 -4.885359e-02
   endloop
 endfacet
 facet normal  0.000000e+00 -1.000000e+00  0.000000e+00
   outer loop
     vertex  5.652558e-01 -1.015873e+00 -4.885359e-02
     vertex  5.267638e-01 -1.015873e+00 -3.174603e-02
     vertex -6.895940e-02 -1.015873e+00 -4.885359e-02
   endloop
 endfacet
 facet normal  0.000000e+00 -1.000000e+00  0.000000e+00
   outer loop
     vertex  5.267638e-01 -1.015873e+00 -3.174603e-02
     vertex -7.031746e-01 -1.015873e+00 -3.174603e-02
     vertex -6.895940e-02 -1.015873e+00 -4.885359e-02
   endloop
 endfacet
 facet normal -2.428613e-16 -0.000000e+00 -1.000000e+00
   outer loop
     vertex -7.317460e-01 -1.539682e-01 -3.174603e-02
     vertex -7.031746e-01 -1.015873e+00 -3.174603e-02
     vertex -7.317460e-01 -1.017460e+00 -3.174603e-02
   endloop
 endfacet
 facet normal  0.000000e+00  8.050650e-18 -1.000000e+00
   outer loop
     vertex -7.031746e-01 -1.539682e-01 -3.174603e-02
     vertex -7.031746e-01 -1.015873e+00 -3.174603e-02
     vertex -7.317460e-01 -1.539682e-01 -3.174603e-02
   endloop
 endfacet
 facet normal -0.000000e+00  0.000000e+00 -1.000000e+00
   outer loop
     vertex  5.888889e-01 -1.539682e-01 -3.174603e-02
     vertex  5.267638e-01 -1.015873e+00 -3.174603e-02
     vertex  5.267638e-01 -1.539682e-01 -3.174603e-02
   endloop
 endfacet
 facet normal  0.000000e+00 -0.000000e+00 -1.000000e+00
   outer loop
     vertex  5.888889e-01 -1.539682e-01 -3.174603e-02
     vertex  5.888889e-01 -1.017460e+00 -3.174603e-02
     vertex  5.267638e-01 -1.015873e+00 -3.174603e-02
   endloop
 endfacet
 facet normal  0.000000e+00 -4.371257e-15 -1.000000e+00
   outer loop
     vertex -7.317460e-01 -1.017460e+00 -3.174603e-02
     vertex -7.031746e-01 -1.015873e+00 -3.174603e-02
     vertex  5.888889e-01 -1.017460e+00 -3.174603e-02
   endloop
 endfacet
 facet normal  5.641660e-18  2.207958e-16 -1.000000e+00
   outer loop
     vertex -7.031746e-01 -1.015873e+00 -3.174603e-02
     vertex  5.267638e-01 -1.015873e+00 -3.174603e-02
     vertex  5.888889e-01 -1.017460e+00 -3.174603e-02
   endloop
 endfacet
 facet normal -0.000000e+00  1.000000e+00  0.000000e+00
   outer loop
     vertex -7.317460e-01 -1.539682e-01 -1.587302e-02
     vertex -7.031746e-01 -1.539682e-01 -1.587302e-02
     vertex -7.031746e-01 -1.539682e-01 -3.174603e-02
   endloop
 endfacet
 facet normal  0.000000e+00  1.000000e+00  0.000000e+00
   outer loop
     vertex -7.317460e-01 -1.539682e-01 -1.587302e-02
     vertex -7.031746e-01 -1.539682e-01 -3.174603e-02
     vertex -7.317460e-01 -1.539682e-01 -3.174603e-02
   endloop
 endfacet
 facet normal  0.000000e+00  1.000000e+00  0.000000e+00
   outer loop
     vertex  4.910495e-01 -1.539682e-01 -1.587302e-02
     vertex  5.888889e-01 -1.539682e-01  5.714286e-01
     vertex  5.888889e-01 -1.539682e-01 -1.587302e-02
   endloop
 endfacet
 facet normal -0.000000e+00  1.000000e+00  0.000000e+00
   outer loop
     vertex  1.287485e-02 -1.539682e-01  1.966491e-01
     vertex  5.888889e-01 -1.539682e-01  5.714286e-01
     vertex  4.910495e-01 -1.539682e-01 -1.587302e-02
   endloop
 endfacet
 facet normal -0.000000e+00  1.000000e+00  0.000000e+00
   outer loop
     vertex -7.317460e-01 -1.539682e-01  5.714286e-01
     vertex  5.888889e-01 -1.539682e-01  5.714286e-01
     vertex  1.287485e-02 -1.539682e-01  1.966491e-01
   endloop
 endfacet
 facet normal  0.000000e+00  1.000000e+00 -0.000000e+00
   outer loop
     vertex -7.031746e-01 -1.539682e-01  1.966491e-01
     vertex -7.317460e-01 -1.539682e-01  5.714286e-01
     vertex  1.287485e-02 -1.539682e-01  1.966491e-01
   endloop
 endfacet
 facet normal  0.000000e+00  1.000000e+00  0.000000e+00
   outer loop
     vertex -7.317460e-01 -1.539682e-01 -1.587302e-02
     vertex -7.031746e-01 -1.539682e-01  1.966491e-01
     vertex -7.031746e-01 -1.539682e-01 -1.587302e-02
   endloop
 endfacet
 facet normal  0.000000e+00  1.000000e+00  0.000000e+00
   outer loop
     vertex -7.317460e-01 -1.539682e-01  5.714286e-01
     vertex -7.031746e-01 -1.539682e-01  1.966491e-01
     vertex -7.317460e-01 -1.539682e-01 -1.587302e-02
   endloop
 endfacet
 facet normal -0.000000e+00  0.000000e+00  1.000000e+00
   outer loop
     vertex -7.031746e-01 -1.587302e-02  1.966491e-01
     vertex  1.287485e-02 -1.539682e-01  1.966491e-01
     vertex  1.287485e-02 -1.587302e-02  1.966491e-01
   endloop
 endfacet
 facet normal  0.000000e+00  0.000000e+00  1.000000e+00
   outer loop
     vertex -7.031746e-01 -1.587302e-02  1.966491e-01
     vertex -7.031746e-01 -1.539682e-01  1.966491e-01
     vertex  1.287485e-02 -1.539682e-01  1.966491e-01
   endloop
 endfacet
 facet normal  0.000000e+00  0.000000e+00  1.000000e+00
   outer loop
     vertex -7.031746e-01 -1.587302e-02  1.966491e-01
     vertex  1.287485e-02 -1.587302e-02  1.966491e-01
     vertex  1.287485e-02  0.000000e+00  1.966491e-01
   endloop
 endfacet
 facet normal  0.000000e+00  0.000000e+00  1.000000e+00
   outer loop
     vertex -7.031746e-01 -1.587302e-02  1.966491e-01
     vertex  1.287485e-02  0.000000e+00  1.966491e-01
     vertex -7.031746e-01  0.000000e+00  1.966491e-01
   endloop
 endfacet
 facet normal  0.000000e+00  0.000000e+00 -1.000000e+00
   outer loop
     vertex -6.895940e-02 -1.587302e-02 -4.885359e-02
     vertex -7.031746e-01 -1.587302e-02 -4.885359e-02
     vertex -7.031746e-01  0.000000e+00 -4.885359e-02
   endloop
 endfacet
 facet normal  0.000000e+00  0.000000e+00 -1.000000e+00
   outer loop
     vertex -6.895940e-02 -1.587302e-02 -4.885359e-02
     vertex -7.031746e-01  0.000000e+00 -4.885359e-02
     vertex -6.895940e-02  0.000000e+00 -4.885359e-02
   endloop
 endfacet
 facet normal  0.000000e+00  1.000000e+00  0.000000e+00
   outer loop
     vertex -6.895940e-02  0.000000e+00 -4.885359e-02
     vertex -7.031746e-01  0.000000e+00 -4.885359e-02
     vertex -7.031746e-01  0.000000e+00  1.966491e-01
   endloop
 endfacet
 facet normal  0.000000e+00  1.000000e+00  0.000000e+00
   outer loop
     vertex  1.287485e-02  0.000000e+00  1.966491e-01
     vertex -6.895940e-02  0.000000e+00 -4.885359e-02
     vertex -7.031746e-01  0.000000e+00  1.966491e-01
   endloop
 endfacet
 facet normal  0.000000e+00  1.000000e+00  0.000000e+00
   outer loop
     vertex  5.652558e-01  0.000000e+00 -4.885359e-02
     vertex -6.895940e-02  0.000000e+00 -4.885359e-02
     vertex  1.287485e-02  0.000000e+00  1.966491e-01
   endloop
 endfacet
 facet normal -0.000000e+00  0.000000e+00 -1.000000e+00
   outer loop
     vertex  5.652558e-01 -1.587302e-02 -4.885359e-02
     vertex -6.895940e-02 -1.015873e+00 -4.885359e-02
     vertex -6.895940e-02 -1.587302e-02 -4.885359e-02
   endloop
 endfacet
 facet normal  0.000000e+00 -0.000000e+00 -1.000000e+00
   outer loop
     vertex  5.652558e-01 -1.587302e-02 -4.885359e-02
     vertex  5.652558e-01 -1.015873e+00 -4.885359e-02
     vertex -6.895940e-02 -1.015873e+00 -4.885359e-02
   endloop
 endfacet
 facet normal  4.061385e-01  0.000000e+00  9.138115e-01
   outer loop
     vertex  5.267638e-01 -1.539682e-01 -3.174603e-02
     vertex  5.267638e-01 -1.015873e+00 -3.174603e-02
     vertex  5.652558e-01 -1.015873e+00 -4.885359e-02
   endloop
 endfacet
 facet normal  4.061385e-01 -1.607076e-16  9.138115e-01
   outer loop
     vertex  5.652558e-01 -1.587302e-02 -4.885359e-02
     vertex  4.910495e-01 -1.539682e-01 -1.587302e-02
     vertex  5.267638e-01 -1.539682e-01 -3.174603e-02
   endloop
 endfacet
 facet normal  4.061385e-01  0.000000e+00  9.138115e-01
   outer loop
     vertex  1.287485e-02 -1.587302e-02  1.966491e-01
     vertex  1.287485e-02 -1.539682e-01  1.966491e-01
     vertex  4.910495e-01 -1.539682e-01 -1.587302e-02
   endloop
 endfacet
 facet normal  4.061385e-01 -1.662492e-16  9.138115e-01
   outer loop
     vertex  1.287485e-02 -1.587302e-02  1.966491e-01
     vertex  4.910495e-01 -1.539682e-01 -1.587302e-02
     vertex  5.652558e-01 -1.587302e-02 -4.885359e-02
   endloop
 endfacet
 facet normal  4.061385e-01  0.000000e+00  9.138115e-01
   outer loop
     vertex  5.652558e-01 -1.587302e-02 -4.885359e-02
     vertex  5.267638e-01 -1.539682e-01 -3.174603e-02
     vertex  5.652558e-01 -1.015873e+00 -4.885359e-02
   endloop
 endfacet
 facet normal -1.000000e+00  0.000000e+00  0.000000e+00
   outer loop
     vertex -7.317460e-01 -1.017460e+00 -1.587302e-02
     vertex -7.317460e-01 -1.539682e-01 -1.587302e-02
     vertex -7.317460e-01 -1.539682e-01 -3.174603e-02
   endloop
 endfacet
 facet normal -1.000000e+00  0.000000e+00  0.000000e+00
   outer loop
     vertex -7.317460e-01 -1.017460e+00 -1.587302e-02
     vertex -7.317460e-01 -1.539682e-01 -3.174603e-02
     vertex -7.317460e-01 -1.017460e+00 -3.174603e-02
   endloop
 endfacet
 facet normal  0.000000e+00  1.000000e+00  0.000000e+00
   outer loop
     vertex  5.267638e-01 -1.539682e-01 -3.174603e-02
     vertex  5.888889e-01 -1.539682e-01 -1.587302e-02
     vertex  5.888889e-01 -1.539682e-01 -3.174603e-02
   endloop
 endfacet
 facet normal -0.000000e+00  1.000000e+00  0.000000e+00
   outer loop
     vertex  4.910495e-01 -1.539682e-01 -1.587302e-02
     vertex  5.888889e-01 -1.539682e-01 -1.587302e-02
     vertex  5.267638e-01 -1.539682e-01 -3.174603e-02
   endloop
 endfacet
 facet normal  1.000000e+00  0.000000e+00  0.000000e+00
   outer loop
     vertex  5.888889e-01 -1.539682e-01 -1.587302e-02
     vertex  5.888889e-01 -1.017460e+00 -1.587302e-02
     vertex  5.888889e-01 -1.017460e+00 -3.174603e-02
   endloop
 endfacet
 facet normal  1.000000e+00  0.000000e+00  0.000000e+00
   outer loop
     vertex  5.888889e-01 -1.539682e-01 -1.587302e-02
     vertex  5.888889e-01 -1.017460e+00 -3.174603e-02
     vertex  5.888889e-01 -1.539682e-01 -3.174603e-02
   endloop
 endfacet
 facet normal -0.000000e+00 -1.000000e+00  0.000000e+00
   outer loop
     vertex  5.888889e-01 -1.017460e+00 -1.587302e-02
     vertex -7.317460e-01 -1.017460e+00 -1.587302e-02
     vertex -7.317460e-01 -1.017460e+00 -3.174603e-02
   endloop
 endfacet
 facet normal  0.000000e+00 -1.000000e+00 -0.000000e+00
   outer loop
     vertex  5.888889e-01 -1.017460e+00 -1.587302e-02
     vertex -7.317460e-01 -1.017460e+00 -3.174603e-02
     vertex  5.888889e-01 -1.017460e+00 -3.174603e-02
   endloop
 endfacet
 facet normal -1.000000e+00  0.000000e+00  0.000000e+00
   outer loop
     vertex -7.317460e-01 -1.017460e+00 -1.587302e-02
     vertex -7.317460e-01 -1.539682e-01  5.714286e-01
     vertex -7.317460e-01 -1.539682e-01 -1.587302e-02
   endloop
 endfacet
 facet normal -1.000000e+00  0.000000e+00  0.000000e+00
   outer loop
     vertex -7.317460e-01 -1.017460e+00 -1.587302e-02
     vertex -7.317460e-01 -1.017460e+00  5.714286e-01
     vertex -7.317460e-01 -1.539682e-01  5.714286e-01
   endloop
 endfacet
 facet normal  0.000000e+00  0.000000e+00  1.000000e+00
   outer loop
     vertex  5.888889e-01 -1.539682e-01  5.714286e-01
     vertex -7.317460e-01 -1.017460e+00  5.714286e-01
     vertex  5.888889e-01 -1.017460e+00  5.714286e-01
   endloop
 endfacet
 facet normal  0.000000e+00  0.000000e+00  1.000000e+00
   outer loop
     vertex  5.888889e-01 -1.539682e-01  5.714286e-01
     vertex -7.317460e-01 -1.539682e-01  5.714286e-01
     vertex -7.317460e-01 -1.017460e+00  5.714286e-01
   endloop
 endfacet
 facet normal  1.000000e+00  0.000000e+00  0.000000e+00
   outer loop
     vertex  5.888889e-01 -1.539682e-01 -1.587302e-02
     vertex  5.888889e-01 -1.017460e+00  5.714286e-01
     vertex  5.888889e-01 -1.017460e+00 -1.587302e-02
   endloop
 endfacet
 facet normal  1.000000e+00  0.000000e+00 -0.000000e+00
   outer loop
     vertex  5.888889e-01 -1.539682e-01 -1.587302e-02
     vertex  5.888889e-01 -1.539682e-01  5.714286e-01
     vertex  5.888889e-01 -1.017460e+00  5.714286e-01
   endloop
 endfacet
 facet normal  4.061385e-01  0.000000e+00  9.138115e-01
   outer loop
     vertex  1.287485e-02 -1.587302e-02  1.966491e-01
     vertex  5.652558e-01 -1.587302e-02 -4.885359e-02
     vertex  5.652558e-01  0.000000e+00 -4.885359e-02
   endloop
 endfacet
 facet normal  4.061385e-01 -0.000000e+00  9.138115e-01
   outer loop
     vertex  1.287485e-02 -1.587302e-02  1.966491e-01
     vertex  5.652558e-01  0.000000e+00 -4.885359e-02
     vertex  1.287485e-02  0.000000e+00  1.966491e-01
   endloop
 endfacet
 facet normal  0.000000e+00  0.000000e+00 -1.000000e+00
   outer loop
     vertex  5.652558e-01 -1.587302e-02 -4.885359e-02
     vertex -6.895940e-02 -1.587302e-02 -4.885359e-02
     vertex -6.895940e-02  0.000000e+00 -4.885359e-02
   endloop
 endfacet
 facet normal  0.000000e+00  0.000000e+00 -1.000000e+00
   outer loop
     vertex  5.652558e-01 -1.587302e-02 -4.885359e-02
     vertex -6.895940e-02  0.000000e+00 -4.885359e-02
     vertex  5.652558e-01  0.000000e+00 -4.885359e-02
   endloop
 endfacet
 facet normal  0.000000e+00 -1.000000e+00  0.000000e+00
   outer loop
     vertex  5.888889e-01 -1.017460e+00 -1.587302e-02
     vertex -7.317460e-01 -1.017460e+00  5.714286e-01
     vertex -7.317460e-01 -1.017460e+00 -1.587302e-02
   endloop
 endfacet
 facet normal  0.000000e+00 -1.000000e+00  0.000000e+00
   outer loop
     vertex  5.888889e-01 -1.017460e+00 -1.587302e-02
     vertex  5.888889e-01 -1.017460e+00  5.714286e-01
     vertex -7.317460e-01 -1.017460e+00  5.714286e-01
   endloop
 endfacet
endsolid
