solid 
 facet normal -0.000000e+00  0.000000e+00 -1.000000e+00
   outer loop
     vertex -3.687830e-01 -3.809524e-01 -1.042504e+00
     vertex -7.430335e-01 -3.809524e-01 -1.042504e+00
     vertex -7.430335e-01 -1.587302e-02 -1.042504e+00
   endloop
 endfacet
 facet normal  0.000000e+00  0.000000e+00 -1.000000e+00
   outer loop
     vertex  6.495591e-01 -1.587302e-02 -1.042504e+00
     vertex  2.788361e-01 -3.809524e-01 -1.042504e+00
     vertex -3.687830e-01 -3.809524e-01 -1.042504e+00
   endloop
 endfacet
 facet normal  0.000000e+00 -0.000000e+00 -1.000000e+00
   outer loop
     vertex  6.495591e-01 -1.587302e-02 -1.042504e+00
     vertex  6.495591e-01 -3.809524e-01 -1.042504e+00
     vertex  2.788361e-01 -3.809524e-01 -1.042504e+00
   endloop
 endfacet
 facet normal -0.000000e+00  0.000000e+00 -1.000000e+00
   outer loop
     vertex  6.495591e-01 -1.587302e-02 -1.042504e+00
     vertex -3.687830e-01 -3.809524e-01 -1.042504e+00
     vertex -7.430335e-01 -1.587302e-02 -1.042504e+00
   endloop
 endfacet
 facet normal -1.000000e+00  0.000000e+00  0.000000e+00
   outer loop
     vertex -7.430335e-01 -1.587302e-02 -1.042504e+00
     vertex -7.430335e-01 -3.809524e-01  5.490300e-01
     vertex -7.430335e-01 -1.587302e-02  5.490300e-01
   endloop
 endfacet
 facet normal -1.000000e+00  0.000000e+00  0.000000e+00
   outer loop
     vertex -7.430335e-01 -1.587302e-02 -1.042504e+00
     vertex -7.430335e-01 -3.809524e-01 -1.042504e+00
     vertex -7.430335e-01 -3.809524e-01  5.490300e-01
   endloop
 endfacet
 facet normal  1.000000e+00  0.000000e+00  0.000000e+00
   outer loop
     vertex  6.495591e-01 -1.587302e-02  5.490300e-01
     vertex  6.495591e-01 -3.809524e-01 -1.042504e+00
     vertex  6.495591e-01 -1.587302e-02 -1.042504e+00
   endloop
 endfacet
 facet normal  1.000000e+00  0.000000e+00  0.000000e+00
   outer loop
     vertex  6.495591e-01 -1.587302e-02  5.490300e-01
     vertex  6.495591e-01 -3.809524e-01  5.490300e-01
     vertex  6.495591e-01 -3.809524e-01 -1.042504e+00
   endloop
 endfacet
 facet normal  0.000000e+00  0.000000e+00 -1.000000e+00
   outer loop
     vertex  6.495591e-01 -1.587302e-02 -1.042504e+00
     vertex -7.430335e-01 -1.587302e-02 -1.042504e+00
     vertex -7.430335e-01  0.000000e+00 -1.042504e+00
   endloop
 endfacet
 facet normal  0.000000e+00  0.000000e+00 -1.000000e+00
   outer loop
     vertex  6.495591e-01 -1.587302e-02 -1.042504e+00
     vertex -7.430335e-01  0.000000e+00 -1.042504e+00
     vertex  6.495591e-01  0.000000e+00 -1.042504e+00
   endloop
 endfacet
 facet normal  0.000000e+00  1.000000e+00  4.832386e-07
   outer loop
     vertex -3.687830e-01 -3.809524e-01 -1.166667e+00
     vertex -7.645502e-01 -3.809524e-01 -1.166667e+00
     vertex -7.430335e-01 -3.809524e-01 -1.042504e+00
   endloop
 endfacet
 facet normal -8.016021e-08  1.000000e+00  2.416193e-07
   outer loop
     vertex -3.687830e-01 -3.809524e-01 -1.042504e+00
     vertex -3.687830e-01 -3.809524e-01 -1.166667e+00
     vertex -7.430335e-01 -3.809524e-01 -1.042504e+00
   endloop
 endfacet
 facet normal -8.016021e-08  1.000000e+00 -3.603813e-07
   outer loop
     vertex -3.687830e-01 -3.809524e-01  6.322752e-01
     vertex -3.687830e-01 -3.809524e-01  5.490300e-01
     vertex -7.430335e-01 -3.809524e-01  5.490300e-01
   endloop
 endfacet
 facet normal  0.000000e+00  1.000000e+00 -7.207627e-07
   outer loop
     vertex -3.687830e-01 -3.809524e-01  6.322752e-01
     vertex -7.430335e-01 -3.809524e-01  5.490300e-01
     vertex -7.645502e-01 -3.809524e-01  6.322752e-01
   endloop
 endfacet
 facet normal  2.788527e-06  1.000000e+00  0.000000e+00
   outer loop
     vertex -7.645502e-01 -3.809524e-01  6.322752e-01
     vertex -7.430335e-01 -3.809524e-01 -1.042504e+00
     vertex -7.645502e-01 -3.809524e-01 -1.166667e+00
   endloop
 endfacet
 facet normal  2.788527e-06  1.000000e+00  0.000000e+00
   outer loop
     vertex -7.645502e-01 -3.809524e-01  6.322752e-01
     vertex -7.430335e-01 -3.809524e-01  5.490300e-01
     vertex -7.430335e-01 -3.809524e-01 -1.042504e+00
   endloop
 endfacet
 facet normal -0.000000e+00 -1.000000e+00  0.000000e+00
   outer loop
     vertex  2.788361e-01 -3.809524e-01  5.490300e-01
     vertex -3.687830e-01 -3.809524e-01  5.490300e-01
     vertex -3.687830e-01 -3.809524e-01 -1.042504e+00
   endloop
 endfacet
 facet normal  0.000000e+00 -1.000000e+00  0.000000e+00
   outer loop
     vertex  2.788361e-01 -3.809524e-01  5.490300e-01
     vertex -3.687830e-01 -3.809524e-01 -1.042504e+00
     vertex  2.788361e-01 -3.809524e-01 -1.042504e+00
   endloop
 endfacet
 facet normal  8.092295e-08  1.000000e+00  2.416193e-07
   outer loop
     vertex  6.495591e-01 -3.809524e-01 -1.042504e+00
     vertex  2.788361e-01 -3.809524e-01 -1.166667e+00
     vertex  2.788361e-01 -3.809524e-01 -1.042504e+00
   endloop
 endfacet
 facet normal  0.000000e+00  1.000000e+00  4.832386e-07
   outer loop
     vertex  6.495591e-01 -3.809524e-01 -1.042504e+00
     vertex  6.746033e-01 -3.809524e-01 -1.166667e+00
     vertex  2.788361e-01 -3.809524e-01 -1.166667e+00
   endloop
 endfacet
 facet normal  8.092295e-08  1.000000e+00 -3.603813e-07
   outer loop
     vertex  6.495591e-01 -3.809524e-01  5.490300e-01
     vertex  2.788361e-01 -3.809524e-01  5.490300e-01
     vertex  2.788361e-01 -3.809524e-01  6.322752e-01
   endloop
 endfacet
 facet normal  0.000000e+00  1.000000e+00 -7.207627e-07
   outer loop
     vertex  6.746033e-01 -3.809524e-01  6.322752e-01
     vertex  6.495591e-01 -3.809524e-01  5.490300e-01
     vertex  2.788361e-01 -3.809524e-01  6.322752e-01
   endloop
 endfacet
 facet normal -2.395770e-06  1.000000e+00  0.000000e+00
   outer loop
     vertex  6.746033e-01 -3.809524e-01 -1.166667e+00
     vertex  6.495591e-01 -3.809524e-01  5.490300e-01
     vertex  6.746033e-01 -3.809524e-01  6.322752e-01
   endloop
 endfacet
 facet normal -2.395770e-06  1.000000e+00  0.000000e+00
   outer loop
     vertex  6.746033e-01 -3.809524e-01 -1.166667e+00
     vertex  6.495591e-01 -3.809524e-01 -1.042504e+00
     vertex  6.495591e-01 -3.809524e-01  5.490300e-01
   endloop
 endfacet
 facet normal -0.000000e+00  0.000000e+00  1.000000e+00
   outer loop
     vertex  2.788361e-01 -3.809524e-01  5.490300e-01
     vertex  6.495591e-01 -3.809524e-01  5.490300e-01
     vertex  6.495591e-01 -1.587302e-02  5.490300e-01
   endloop
 endfacet
 facet normal  1.714315e-16 -1.740816e-16  1.000000e+00
   outer loop
     vertex -3.687830e-01 -3.809524e-01  5.490300e-01
     vertex  2.788361e-01 -3.809524e-01  5.490300e-01
     vertex  6.495591e-01 -1.587302e-02  5.490300e-01
   endloop
 endfacet
 facet normal -2.966524e-16  0.000000e+00  1.000000e+00
   outer loop
     vertex -7.430335e-01 -1.587302e-02  5.490300e-01
     vertex -7.430335e-01 -3.809524e-01  5.490300e-01
     vertex -3.687830e-01 -3.809524e-01  5.490300e-01
   endloop
 endfacet
 facet normal -0.000000e+00  3.041046e-16  1.000000e+00
   outer loop
     vertex -7.430335e-01 -1.587302e-02  5.490300e-01
     vertex -3.687830e-01 -3.809524e-01  5.490300e-01
     vertex  6.495591e-01 -1.587302e-02  5.490300e-01
   endloop
 endfacet
 facet normal -1.000000e+00  0.000000e+00  0.000000e+00
   outer loop
     vertex -7.430335e-01 -1.587302e-02 -1.042504e+00
     vertex -7.430335e-01 -1.587302e-02  5.490300e-01
     vertex -7.430335e-01  0.000000e+00  5.490300e-01
   endloop
 endfacet
 facet normal -1.000000e+00  0.000000e+00  0.000000e+00
   outer loop
     vertex -7.430335e-01 -1.587302e-02 -1.042504e+00
     vertex -7.430335e-01  0.000000e+00  5.490300e-01
     vertex -7.430335e-01  0.000000e+00 -1.042504e+00
   endloop
 endfacet
 facet normal  1.000000e+00  0.000000e+00  0.000000e+00
   outer loop
     vertex  6.495591e-01 -1.587302e-02  5.490300e-01
     vertex  6.495591e-01 -1.587302e-02 -1.042504e+00
     vertex  6.495591e-01  0.000000e+00 -1.042504e+00
   endloop
 endfacet
 facet normal  1.000000e+00 -0.000000e+00  0.000000e+00
   outer loop
     vertex  6.495591e-01 -1.587302e-02  5.490300e-01
     vertex  6.495591e-01  0.000000e+00 -1.042504e+00
     vertex  6.495591e-01  0.000000e+00  5.490300e-01
   endloop
 endfacet
 facet normal  0.000000e+00  1.000000e+00  0.000000e+00
   outer loop
     vertex  6.495591e-01  0.000000e+00  5.490300e-01
     vertex  6.495591e-01  0.000000e+00 -1.042504e+00
     vertex -7.430335e-01  0.000000e+00 -1.042504e+00
   endloop
 endfacet
 facet normal  0.000000e+00  1.000000e+00  0.000000e+00
   outer loop
     vertex  6.495591e-01  0.000000e+00  5.490300e-01
     vertex -7.430335e-01  0.000000e+00 -1.042504e+00
     vertex -7.430335e-01  0.000000e+00  5.490300e-01
   endloop
 endfacet
 facet normal -1.000000e+00  0.000000e+00  0.000000e+00
   outer loop
     vertex -7.645502e-01 -3.968254e-01 -1.166667e+00
     vertex -7.645502e-01 -3.968254e-01  6.322752e-01
     vertex -7.645502e-01 -3.809524e-01  6.322752e-01
   endloop
 endfacet
 facet normal -1.000000e+00  0.000000e+00  0.000000e+00
   outer loop
     vertex -7.645502e-01 -3.968254e-01 -1.166667e+00
     vertex -7.645502e-01 -3.809524e-01  6.322752e-01
     vertex -7.645502e-01 -3.809524e-01 -1.166667e+00
   endloop
 endfacet
 facet normal  0.000000e+00  0.000000e+00  1.000000e+00
   outer loop
     vertex -7.645502e-01 -3.968254e-01  6.322752e-01
     vertex -3.687830e-01 -3.968254e-01  6.322752e-01
     vertex -3.687830e-01 -3.809524e-01  6.322752e-01
   endloop
 endfacet
 facet normal  0.000000e+00  0.000000e+00  1.000000e+00
   outer loop
     vertex -7.645502e-01 -3.968254e-01  6.322752e-01
     vertex -3.687830e-01 -3.809524e-01  6.322752e-01
     vertex -7.645502e-01 -3.809524e-01  6.322752e-01
   endloop
 endfacet
 facet normal  1.000000e+00  0.000000e+00  0.000000e+00
   outer loop
     vertex -3.687830e-01 -3.809524e-01 -1.042504e+00
     vertex -3.687830e-01 -3.968254e-01 -1.166667e+00
     vertex -3.687830e-01 -3.809524e-01 -1.166667e+00
   endloop
 endfacet
 facet normal  1.000000e+00  0.000000e+00 -6.668394e-16
   outer loop
     vertex -3.687830e-01 -3.968254e-01  6.322752e-01
     vertex -3.687830e-01 -3.809524e-01  5.490300e-01
     vertex -3.687830e-01 -3.809524e-01  6.322752e-01
   endloop
 endfacet
 facet normal  1.000000e+00  0.000000e+00  0.000000e+00
   outer loop
     vertex -3.687830e-01 -3.968254e-01  6.322752e-01
     vertex -3.687830e-01 -3.968254e-01 -1.166667e+00
     vertex -3.687830e-01 -3.809524e-01 -1.042504e+00
   endloop
 endfacet
 facet normal  1.000000e+00  3.680131e-15  3.487901e-17
   outer loop
     vertex -3.687830e-01 -3.968254e-01  6.322752e-01
     vertex -3.687830e-01 -3.809524e-01 -1.042504e+00
     vertex -3.687830e-01 -3.809524e-01  5.490300e-01
   endloop
 endfacet
 facet normal  0.000000e+00  0.000000e+00 -1.000000e+00
   outer loop
     vertex -3.687830e-01 -3.968254e-01 -1.166667e+00
     vertex -7.645502e-01 -3.968254e-01 -1.166667e+00
     vertex -7.645502e-01 -3.809524e-01 -1.166667e+00
   endloop
 endfacet
 facet normal  0.000000e+00  0.000000e+00 -1.000000e+00
   outer loop
     vertex -3.687830e-01 -3.968254e-01 -1.166667e+00
     vertex -7.645502e-01 -3.809524e-01 -1.166667e+00
     vertex -3.687830e-01 -3.809524e-01 -1.166667e+00
   endloop
 endfacet
 facet normal -1.000000e+00  0.000000e+00  0.000000e+00
   outer loop
     vertex  2.788361e-01 -3.809524e-01  5.490300e-01
     vertex  2.788361e-01 -3.968254e-01  6.322752e-01
     vertex  2.788361e-01 -3.809524e-01  6.322752e-01
   endloop
 endfacet
 facet normal -1.000000e+00  0.000000e+00 -4.470855e-16
   outer loop
     vertex  2.788361e-01 -3.968254e-01 -1.166667e+00
     vertex  2.788361e-01 -3.809524e-01 -1.042504e+00
     vertex  2.788361e-01 -3.809524e-01 -1.166667e+00
   endloop
 endfacet
 facet normal -1.000000e+00  0.000000e+00  0.000000e+00
   outer loop
     vertex  2.788361e-01 -3.968254e-01 -1.166667e+00
     vertex  2.788361e-01 -3.968254e-01  6.322752e-01
     vertex  2.788361e-01 -3.809524e-01  5.490300e-01
   endloop
 endfacet
 facet normal -1.000000e+00 -3.770041e-15  3.487901e-17
   outer loop
     vertex  2.788361e-01 -3.968254e-01 -1.166667e+00
     vertex  2.788361e-01 -3.809524e-01  5.490300e-01
     vertex  2.788361e-01 -3.809524e-01 -1.042504e+00
   endloop
 endfacet
 facet normal  0.000000e+00  0.000000e+00  1.000000e+00
   outer loop
     vertex  2.788361e-01 -3.968254e-01  6.322752e-01
     vertex  6.746033e-01 -3.968254e-01  6.322752e-01
     vertex  6.746033e-01 -3.809524e-01  6.322752e-01
   endloop
 endfacet
 facet normal  0.000000e+00  0.000000e+00  1.000000e+00
   outer loop
     vertex  2.788361e-01 -3.968254e-01  6.322752e-01
     vertex  6.746033e-01 -3.809524e-01  6.322752e-01
     vertex  2.788361e-01 -3.809524e-01  6.322752e-01
   endloop
 endfacet
 facet normal  1.000000e+00  0.000000e+00  0.000000e+00
   outer loop
     vertex  6.746033e-01 -3.968254e-01  6.322752e-01
     vertex  6.746033e-01 -3.968254e-01 -1.166667e+00
     vertex  6.746033e-01 -3.809524e-01 -1.166667e+00
   endloop
 endfacet
 facet normal  1.000000e+00 -0.000000e+00  0.000000e+00
   outer loop
     vertex  6.746033e-01 -3.968254e-01  6.322752e-01
     vertex  6.746033e-01 -3.809524e-01 -1.166667e+00
     vertex  6.746033e-01 -3.809524e-01  6.322752e-01
   endloop
 endfacet
 facet normal  0.000000e+00  0.000000e+00 -1.000000e+00
   outer loop
     vertex  6.746033e-01 -3.968254e-01 -1.166667e+00
     vertex  2.788361e-01 -3.968254e-01 -1.166667e+00
     vertex  2.788361e-01 -3.809524e-01 -1.166667e+00
   endloop
 endfacet
 facet normal  0.000000e+00  0.000000e+00 -1.000000e+00
   outer loop
     vertex  6.746033e-01 -3.968254e-01 -1.166667e+00
     vertex  2.788361e-01 -3.809524e-01 -1.166667e+00
     vertex  6.746033e-01 -3.809524e-01 -1.166667e+00
   endloop
 endfacet
 facet normal  0.000000e+00  0.000000e+00  1.000000e+00
   outer loop
     vertex -7.430335e-01 -1.587302e-02  5.490300e-01
     vertex  6.495591e-01 -1.587302e-02  5.490300e-01
     vertex  6.495591e-01  0.000000e+00  5.490300e-01
   endloop
 endfacet
 facet normal  0.000000e+00  0.000000e+00  1.000000e+00
   outer loop
     vertex -7.430335e-01 -1.587302e-02  5.490300e-01
     vertex  6.495591e-01  0.000000e+00  5.490300e-01
     vertex -7.430335e-01  0.000000e+00  5.490300e-01
   endloop
 endfacet
 facet normal -1.000000e+00  0.000000e+00  0.000000e+00
   outer loop
     vertex -7.645502e-01 -3.968254e-01 -1.166667e+00
     vertex -7.645502e-01 -5.714286e-01  6.322752e-01
     vertex -7.645502e-01 -3.968254e-01  6.322752e-01
   endloop
 endfacet
 facet normal -1.000000e+00  0.000000e+00  0.000000e+00
   outer loop
     vertex -7.645502e-01 -3.968254e-01 -1.166667e+00
     vertex -7.645502e-01 -5.714286e-01 -1.166667e+00
     vertex -7.645502e-01 -5.714286e-01  6.322752e-01
   endloop
 endfacet
 facet normal -0.000000e+00  0.000000e+00  1.000000e+00
   outer loop
     vertex -7.645502e-01 -3.968254e-01  6.322752e-01
     vertex -3.687830e-01 -5.714286e-01  6.322752e-01
     vertex -3.687830e-01 -3.968254e-01  6.322752e-01
   endloop
 endfacet
 facet normal  0.000000e+00  0.000000e+00  1.000000e+00
   outer loop
     vertex -7.645502e-01 -3.968254e-01  6.322752e-01
     vertex -7.645502e-01 -5.714286e-01  6.322752e-01
     vertex -3.687830e-01 -5.714286e-01  6.322752e-01
   endloop
 endfacet
 facet normal  1.000000e+00  0.000000e+00  0.000000e+00
   outer loop
     vertex -3.687830e-01 -3.968254e-01  6.322752e-01
     vertex -3.687830e-01 -5.714286e-01 -1.166667e+00
     vertex -3.687830e-01 -3.968254e-01 -1.166667e+00
   endloop
 endfacet
 facet normal  1.000000e+00  0.000000e+00  0.000000e+00
   outer loop
     vertex -3.687830e-01 -3.968254e-01  6.322752e-01
     vertex -3.687830e-01 -5.714286e-01  6.322752e-01
     vertex -3.687830e-01 -5.714286e-01 -1.166667e+00
   endloop
 endfacet
 facet normal -0.000000e+00  0.000000e+00 -1.000000e+00
   outer loop
     vertex -3.687830e-01 -3.968254e-01 -1.166667e+00
     vertex -7.645502e-01 -5.714286e-01 -1.166667e+00
     vertex -7.645502e-01 -3.968254e-01 -1.166667e+00
   endloop
 endfacet
 facet normal  0.000000e+00 -0.000000e+00 -1.000000e+00
   outer loop
     vertex -3.687830e-01 -3.968254e-01 -1.166667e+00
     vertex -3.687830e-01 -5.714286e-01 -1.166667e+00
     vertex -7.645502e-01 -5.714286e-01 -1.166667e+00
   endloop
 endfacet
 facet normal -1.000000e+00  0.000000e+00  0.000000e+00
   outer loop
     vertex  2.788361e-01 -3.968254e-01 -1.166667e+00
     vertex  2.788361e-01 -5.714286e-01  6.322752e-01
     vertex  2.788361e-01 -3.968254e-01  6.322752e-01
   endloop
 endfacet
 facet normal -1.000000e+00  0.000000e+00  0.000000e+00
   outer loop
     vertex  2.788361e-01 -3.968254e-01 -1.166667e+00
     vertex  2.788361e-01 -5.714286e-01 -1.166667e+00
     vertex  2.788361e-01 -5.714286e-01  6.322752e-01
   endloop
 endfacet
 facet normal -0.000000e+00  0.000000e+00  1.000000e+00
   outer loop
     vertex  2.788361e-01 -3.968254e-01  6.322752e-01
     vertex  6.746033e-01 -5.714286e-01  6.322752e-01
     vertex  6.746033e-01 -3.968254e-01  6.322752e-01
   endloop
 endfacet
 facet normal  0.000000e+00  0.000000e+00  1.000000e+00
   outer loop
     vertex  2.788361e-01 -3.968254e-01  6.322752e-01
     vertex  2.788361e-01 -5.714286e-01  6.322752e-01
     vertex  6.746033e-01 -5.714286e-01  6.322752e-01
   endloop
 endfacet
 facet normal  1.000000e+00  0.000000e+00  0.000000e+00
   outer loop
     vertex  6.746033e-01 -3.968254e-01  6.322752e-01
     vertex  6.746033e-01 -5.714286e-01 -1.166667e+00
     vertex  6.746033e-01 -3.968254e-01 -1.166667e+00
   endloop
 endfacet
 facet normal  1.000000e+00  0.000000e+00  0.000000e+00
   outer loop
     vertex  6.746033e-01 -3.968254e-01  6.322752e-01
     vertex  6.746033e-01 -5.714286e-01  6.322752e-01
     vertex  6.746033e-01 -5.714286e-01 -1.166667e+00
   endloop
 endfacet
 facet normal -0.000000e+00  0.000000e+00 -1.000000e+00
   outer loop
     vertex  6.746033e-01 -3.968254e-01 -1.166667e+00
     vertex  2.788361e-01 -5.714286e-01 -1.166667e+00
     vertex  2.788361e-01 -3.968254e-01 -1.166667e+00
   endloop
 endfacet
 facet normal  0.000000e+00 -0.000000e+00 -1.000000e+00
   outer loop
     vertex  6.746033e-01 -3.968254e-01 -1.166667e+00
     vertex  6.746033e-01 -5.714286e-01 -1.166667e+00
     vertex  2.788361e-01 -5.714286e-01 -1.166667e+00
   endloop
 endfacet
 facet normal  0.000000e+00 -1.000000e+00 -0.000000e+00
   outer loop
     vertex -3.687830e-01 -5.714286e-01  6.322752e-01
     vertex -7.645502e-01 -5.714286e-01 -1.166667e+00
     vertex -3.687830e-01 -5.714286e-01 -1.166667e+00
   endloop
 endfacet
 facet normal -0.000000e+00 -1.000000e+00  0.000000e+00
   outer loop
     vertex -3.687830e-01 -5.714286e-01  6.322752e-01
     vertex -7.645502e-01 -5.714286e-01  6.322752e-01
     vertex -7.645502e-01 -5.714286e-01 -1.166667e+00
   endloop
 endfacet
 facet normal -0.000000e+00 -1.000000e+00  0.000000e+00
   outer loop
     vertex  6.746033e-01 -5.714286e-01  6.322752e-01
     vertex  2.788361e-01 -5.714286e-01  6.322752e-01
     vertex  2.788361e-01 -5.714286e-01 -1.166667e+00
   endloop
 endfacet
 facet normal  0.000000e+00 -1.000000e+00 -0.000000e+00
   outer loop
     vertex  6.746033e-01 -5.714286e-01  6.322752e-01
     vertex  2.788361e-01 -5.714286e-01 -1.166667e+00
     vertex  6.746033e-01 -5.714286e-01 -1.166667e+00
   endloop
 endfacet
endsolid
