solid 
 facet normal -1.000000e+00  0.000000e+00 -0.000000e+00
   outer loop
     vertex -4.467372e-01 -1.587302e-02  8.259259e-01
     vertex -4.467372e-01 -1.587302e-02 -9.744268e-01
     vertex -4.467372e-01 -4.761905e-01 -9.744268e-01
   endloop
 endfacet
 facet normal -1.000000e+00 -0.000000e+00  0.000000e+00
   outer loop
     vertex -4.467372e-01 -1.587302e-02  8.259259e-01
     vertex -4.467372e-01 -4.761905e-01 -9.744268e-01
     vertex -4.467372e-01 -4.761905e-01  8.259259e-01
   endloop
 endfacet
 facet normal  0.000000e+00  0.000000e+00 -1.000000e+00
   outer loop
     vertex -4.467372e-01 -1.587302e-02 -9.744268e-01
     vertex  2.982364e-01 -1.587302e-02 -9.744268e-01
     vertex  2.982364e-01 -4.761905e-01 -9.744268e-01
   endloop
 endfacet
 facet normal  0.000000e+00  0.000000e+00 -1.000000e+00
   outer loop
     vertex -4.467372e-01 -1.587302e-02 -9.744268e-01
     vertex  2.982364e-01 -4.761905e-01 -9.744268e-01
     vertex -4.467372e-01 -4.761905e-01 -9.744268e-01
   endloop
 endfacet
 facet normal  0.000000e+00  0.000000e+00  1.000000e+00
   outer loop
     vertex  2.982364e-01 -1.587302e-02  8.259259e-01
     vertex -4.467372e-01 -1.587302e-02  8.259259e-01
     vertex -4.467372e-01 -4.761905e-01  8.259259e-01
   endloop
 endfacet
 facet normal  0.000000e+00  0.000000e+00  1.000000e+00
   outer loop
     vertex  2.982364e-01 -1.587302e-02  8.259259e-01
     vertex -4.467372e-01 -4.761905e-01  8.259259e-01
     vertex  2.982364e-01 -4.761905e-01  8.259259e-01
   endloop
 endfacet
 facet normal -1.000000e+00  0.000000e+00  0.000000e+00
   outer loop
     vertex -4.467372e-01 -1.587302e-02  8.259259e-01
     vertex -4.467372e-01  0.000000e+00 -9.744268e-01
     vertex -4.467372e-01 -1.587302e-02 -9.744268e-01
   endloop
 endfacet
 facet normal -1.000000e+00  0.000000e+00  0.000000e+00
   outer loop
     vertex -4.467372e-01 -1.587302e-02  8.259259e-01
     vertex -4.467372e-01  0.000000e+00  8.259259e-01
     vertex -4.467372e-01  0.000000e+00 -9.744268e-01
   endloop
 endfacet
 facet normal  0.000000e+00 -1.000000e+00 -0.000000e+00
   outer loop
     vertex  2.982364e-01 -4.761905e-01  8.259259e-01
     vertex -4.467372e-01 -4.761905e-01 -9.744268e-01
     vertex  2.982364e-01 -4.761905e-01 -9.744268e-01
   endloop
 endfacet
 facet normal -0.000000e+00 -1.000000e+00  0.000000e+00
   outer loop
     vertex  2.982364e-01 -4.761905e-01  8.259259e-01
     vertex -4.467372e-01 -4.761905e-01  8.259259e-01
     vertex -4.467372e-01 -4.761905e-01 -9.744268e-01
   endloop
 endfacet
 facet normal  1.000000e+00 -6.242765e-17  5.952464e-17
   outer loop
     vertex  2.982364e-01 -3.688198e-01  5.958754e-03
     vertex  2.982364e-01 -3.545668e-01  2.090687e-02
     vertex  2.982364e-01 -4.761905e-01  8.259259e-01
   endloop
 endfacet
 facet normal  1.000000e+00 -4.433392e-17  6.225827e-17
   outer loop
     vertex  2.982364e-01 -3.377425e-01  3.288745e-02
     vertex  2.982364e-01 -4.761905e-01  8.259259e-01
     vertex  2.982364e-01 -3.545668e-01  2.090687e-02
   endloop
 endfacet
 facet normal  1.000000e+00 -8.751125e-17  5.624007e-17
   outer loop
     vertex  2.982364e-01 -3.799863e-01 -1.141663e-02
     vertex  2.982364e-01 -3.688198e-01  5.958754e-03
     vertex  2.982364e-01 -4.761905e-01  8.259259e-01
   endloop
 endfacet
 facet normal  1.000000e+00 -2.960658e-17  6.482936e-17
   outer loop
     vertex  2.982364e-01 -3.189548e-01  4.146750e-02
     vertex  2.982364e-01 -4.761905e-01  8.259259e-01
     vertex  2.982364e-01 -3.377425e-01  3.288745e-02
   endloop
 endfacet
 facet normal  1.000000e+00 -1.286691e-16  5.151134e-17
   outer loop
     vertex  2.982364e-01 -3.876627e-01 -3.059128e-02
     vertex  2.982364e-01 -3.799863e-01 -1.141663e-02
     vertex  2.982364e-01 -4.761905e-01  8.259259e-01
   endloop
 endfacet
 facet normal  1.000000e+00 -1.637102e-17  6.748228e-17
   outer loop
     vertex  2.982364e-01 -2.988828e-01  4.633690e-02
     vertex  2.982364e-01 -4.761905e-01  8.259259e-01
     vertex  2.982364e-01 -3.189548e-01  4.146750e-02
   endloop
 endfacet
 facet normal  1.000000e+00 -2.188856e-16  4.218675e-17
   outer loop
     vertex  2.982364e-01 -3.915715e-01 -5.087218e-02
     vertex  2.982364e-01 -3.876627e-01 -3.059128e-02
     vertex  2.982364e-01 -4.761905e-01  8.259259e-01
   endloop
 endfacet
 facet normal  1.000000e+00  0.000000e+00  7.129553e-17
   outer loop
     vertex  2.982364e-01 -2.782521e-01  4.731966e-02
     vertex  2.982364e-01 -1.587302e-02  8.259259e-01
     vertex  2.982364e-01 -4.761905e-01  8.259259e-01
   endloop
 endfacet
 facet normal  1.000000e+00 -3.355589e-18  7.044247e-17
   outer loop
     vertex  2.982364e-01 -2.782521e-01  4.731966e-02
     vertex  2.982364e-01 -4.761905e-01  8.259259e-01
     vertex  2.982364e-01 -2.988828e-01  4.633690e-02
   endloop
 endfacet
 facet normal  1.000000e+00 -6.560128e-16  0.000000e+00
   outer loop
     vertex  2.982364e-01 -3.915715e-01 -7.152634e-02
     vertex  2.982364e-01 -3.915715e-01 -5.087218e-02
     vertex  2.982364e-01 -4.761905e-01  8.259259e-01
   endloop
 endfacet
 facet normal  1.000000e+00  9.777041e-18  6.800081e-17
   outer loop
     vertex  2.982364e-01 -2.578081e-01  4.438027e-02
     vertex  2.982364e-01 -1.587302e-02  8.259259e-01
     vertex  2.982364e-01 -2.782521e-01  4.731966e-02
   endloop
 endfacet
 facet normal  1.000000e+00  2.220390e-17  6.415396e-17
   outer loop
     vertex  2.982364e-01 -2.382900e-01  3.762496e-02
     vertex  2.982364e-01 -1.587302e-02  8.259259e-01
     vertex  2.982364e-01 -2.578081e-01  4.438027e-02
   endloop
 endfacet
 facet normal  1.000000e+00  3.496117e-17  6.055453e-17
   outer loop
     vertex  2.982364e-01 -2.204029e-01  2.729788e-02
     vertex  2.982364e-01 -1.587302e-02  8.259259e-01
     vertex  2.982364e-01 -2.382900e-01  3.762496e-02
   endloop
 endfacet
 facet normal  1.000000e+00  4.929085e-17  5.688467e-17
   outer loop
     vertex  2.982364e-01 -2.047936e-01  1.377229e-02
     vertex  2.982364e-01 -1.587302e-02  8.259259e-01
     vertex  2.982364e-01 -2.204029e-01  2.729788e-02
   endloop
 endfacet
 facet normal  1.000000e+00  6.707443e-17  5.274792e-17
   outer loop
     vertex  2.982364e-01 -1.920260e-01 -2.462973e-03
     vertex  2.982364e-01 -1.587302e-02  8.259259e-01
     vertex  2.982364e-01 -2.047936e-01  1.377229e-02
   endloop
 endfacet
 facet normal  1.000000e+00  9.202515e-17  4.744226e-17
   outer loop
     vertex  2.982364e-01 -1.825617e-01 -2.082112e-02
     vertex  2.982364e-01 -1.587302e-02  8.259259e-01
     vertex  2.982364e-01 -1.920260e-01 -2.462973e-03
   endloop
 endfacet
 facet normal  1.000000e+00  1.336600e-16  3.924612e-17
   outer loop
     vertex  2.982364e-01 -1.767428e-01 -4.063863e-02
     vertex  2.982364e-01 -1.587302e-02  8.259259e-01
     vertex  2.982364e-01 -1.825617e-01 -2.082112e-02
   endloop
 endfacet
 facet normal  1.000000e+00 -2.146281e-16 -4.136617e-17
   outer loop
     vertex  2.982364e-01 -4.761905e-01 -9.744268e-01
     vertex  2.982364e-01 -3.876627e-01 -9.180724e-02
     vertex  2.982364e-01 -3.915715e-01 -7.152634e-02
   endloop
 endfacet
 facet normal  1.000000e+00 -1.256263e-16 -5.029316e-17
   outer loop
     vertex  2.982364e-01 -4.761905e-01 -9.744268e-01
     vertex  2.982364e-01 -3.799863e-01 -1.109819e-01
     vertex  2.982364e-01 -3.876627e-01 -9.180724e-02
   endloop
 endfacet
 facet normal  1.000000e+00 -8.525663e-17 -5.479111e-17
   outer loop
     vertex  2.982364e-01 -4.761905e-01 -9.744268e-01
     vertex  2.982364e-01 -3.688198e-01 -1.283573e-01
     vertex  2.982364e-01 -3.799863e-01 -1.109819e-01
   endloop
 endfacet
 facet normal  1.000000e+00 -6.072790e-17 -5.790393e-17
   outer loop
     vertex  2.982364e-01 -4.761905e-01 -9.744268e-01
     vertex  2.982364e-01 -3.545668e-01 -1.433054e-01
     vertex  2.982364e-01 -3.688198e-01 -1.283573e-01
   endloop
 endfacet
 facet normal  1.000000e+00 -4.307296e-17 -6.048750e-17
   outer loop
     vertex  2.982364e-01 -4.761905e-01 -9.744268e-01
     vertex  2.982364e-01 -3.377425e-01 -1.552860e-01
     vertex  2.982364e-01 -3.545668e-01 -1.433054e-01
   endloop
 endfacet
 facet normal  1.000000e+00 -2.873075e-17 -6.291157e-17
   outer loop
     vertex  2.982364e-01 -4.761905e-01 -9.744268e-01
     vertex  2.982364e-01 -3.189548e-01 -1.638660e-01
     vertex  2.982364e-01 -3.377425e-01 -1.552860e-01
   endloop
 endfacet
 facet normal  1.000000e+00 -1.586752e-17 -6.540683e-17
   outer loop
     vertex  2.982364e-01 -4.761905e-01 -9.744268e-01
     vertex  2.982364e-01 -2.988828e-01 -1.687354e-01
     vertex  2.982364e-01 -3.189548e-01 -1.638660e-01
   endloop
 endfacet
 facet normal  1.000000e+00 -3.248004e-18 -6.818399e-17
   outer loop
     vertex  2.982364e-01 -4.761905e-01 -9.744268e-01
     vertex  2.982364e-01 -2.782521e-01 -1.697182e-01
     vertex  2.982364e-01 -2.988828e-01 -1.687354e-01
   endloop
 endfacet
 facet normal  1.000000e+00 -6.560128e-16  0.000000e+00
   outer loop
     vertex  2.982364e-01 -4.761905e-01 -9.744268e-01
     vertex  2.982364e-01 -3.915715e-01 -7.152634e-02
     vertex  2.982364e-01 -4.761905e-01  8.259259e-01
   endloop
 endfacet
 facet normal  1.000000e+00  9.474105e-18 -6.589384e-17
   outer loop
     vertex  2.982364e-01 -1.587302e-02 -9.744268e-01
     vertex  2.982364e-01 -2.578081e-01 -1.667788e-01
     vertex  2.982364e-01 -2.782521e-01 -1.697182e-01
   endloop
 endfacet
 facet normal  1.000000e+00  2.155370e-17 -6.227534e-17
   outer loop
     vertex  2.982364e-01 -1.587302e-02 -9.744268e-01
     vertex  2.982364e-01 -2.382900e-01 -1.600235e-01
     vertex  2.982364e-01 -2.578081e-01 -1.667788e-01
   endloop
 endfacet
 facet normal  1.000000e+00  3.399325e-17 -5.887804e-17
   outer loop
     vertex  2.982364e-01 -1.587302e-02 -9.744268e-01
     vertex  2.982364e-01 -2.204029e-01 -1.496964e-01
     vertex  2.982364e-01 -2.382900e-01 -1.600235e-01
   endloop
 endfacet
 facet normal  1.000000e+00  4.800676e-17 -5.540275e-17
   outer loop
     vertex  2.982364e-01 -1.587302e-02 -9.744268e-01
     vertex  2.982364e-01 -2.047936e-01 -1.361708e-01
     vertex  2.982364e-01 -2.204029e-01 -1.496964e-01
   endloop
 endfacet
 facet normal  1.000000e+00  6.545105e-17 -5.147127e-17
   outer loop
     vertex  2.982364e-01 -1.587302e-02 -9.744268e-01
     vertex  2.982364e-01 -1.920260e-01 -1.199355e-01
     vertex  2.982364e-01 -2.047936e-01 -1.361708e-01
   endloop
 endfacet
 facet normal  1.000000e+00  9.001703e-17 -4.640701e-17
   outer loop
     vertex  2.982364e-01 -1.587302e-02 -9.744268e-01
     vertex  2.982364e-01 -1.825617e-01 -1.015774e-01
     vertex  2.982364e-01 -1.920260e-01 -1.199355e-01
   endloop
 endfacet
 facet normal  1.000000e+00  1.312381e-16 -3.853499e-17
   outer loop
     vertex  2.982364e-01 -1.587302e-02 -9.744268e-01
     vertex  2.982364e-01 -1.767428e-01 -8.175989e-02
     vertex  2.982364e-01 -1.825617e-01 -1.015774e-01
   endloop
 endfacet
 facet normal  1.000000e+00  0.000000e+00 -6.898292e-17
   outer loop
     vertex  2.982364e-01 -1.587302e-02 -9.744268e-01
     vertex  2.982364e-01 -2.782521e-01 -1.697182e-01
     vertex  2.982364e-01 -4.761905e-01 -9.744268e-01
   endloop
 endfacet
 facet normal  1.000000e+00  3.493322e-16 -0.000000e+00
   outer loop
     vertex  2.982364e-01 -1.587302e-02 -9.744268e-01
     vertex  2.982364e-01 -1.587302e-02  8.259259e-01
     vertex  2.982364e-01 -1.747795e-01 -6.119926e-02
   endloop
 endfacet
 facet normal  1.000000e+00  2.278627e-16  2.175825e-17
   outer loop
     vertex  2.982364e-01 -1.747795e-01 -6.119926e-02
     vertex  2.982364e-01 -1.587302e-02  8.259259e-01
     vertex  2.982364e-01 -1.767428e-01 -4.063863e-02
   endloop
 endfacet
 facet normal  1.000000e+00  2.255550e-16 -2.153789e-17
   outer loop
     vertex  2.982364e-01 -1.587302e-02 -9.744268e-01
     vertex  2.982364e-01 -1.747795e-01 -6.119926e-02
     vertex  2.982364e-01 -1.767428e-01 -8.175989e-02
   endloop
 endfacet
 facet normal  0.000000e+00  0.000000e+00 -1.000000e+00
   outer loop
     vertex -4.467372e-01 -1.587302e-02 -9.744268e-01
     vertex  2.982364e-01  0.000000e+00 -9.744268e-01
     vertex  2.982364e-01 -1.587302e-02 -9.744268e-01
   endloop
 endfacet
 facet normal  0.000000e+00  0.000000e+00 -1.000000e+00
   outer loop
     vertex -4.467372e-01 -1.587302e-02 -9.744268e-01
     vertex -4.467372e-01  0.000000e+00 -9.744268e-01
     vertex  2.982364e-01  0.000000e+00 -9.744268e-01
   endloop
 endfacet
 facet normal  0.000000e+00  0.000000e+00  1.000000e+00
   outer loop
     vertex  2.982364e-01 -1.587302e-02  8.259259e-01
     vertex -4.467372e-01  0.000000e+00  8.259259e-01
     vertex -4.467372e-01 -1.587302e-02  8.259259e-01
   endloop
 endfacet
 facet normal  0.000000e+00 -0.000000e+00  1.000000e+00
   outer loop
     vertex  2.982364e-01 -1.587302e-02  8.259259e-01
     vertex  2.982364e-01  0.000000e+00  8.259259e-01
     vertex -4.467372e-01  0.000000e+00  8.259259e-01
   endloop
 endfacet
 facet normal  0.000000e+00  1.000000e+00  0.000000e+00
   outer loop
     vertex  2.982364e-01  1.040834e-17  8.259259e-01
     vertex  2.982364e-01  1.040834e-17 -9.744268e-01
     vertex -4.467372e-01  1.040834e-17 -9.744268e-01
   endloop
 endfacet
 facet normal  0.000000e+00  1.000000e+00  0.000000e+00
   outer loop
     vertex  2.982364e-01  1.040834e-17  8.259259e-01
     vertex -4.467372e-01  1.040834e-17 -9.744268e-01
     vertex -4.467372e-01  1.040834e-17  8.259259e-01
   endloop
 endfacet
 facet normal  1.000000e+00  0.000000e+00  0.000000e+00
   outer loop
     vertex  2.982364e-01 -1.587302e-02 -9.744268e-01
     vertex  2.982364e-01  0.000000e+00  8.259259e-01
     vertex  2.982364e-01 -1.587302e-02  8.259259e-01
   endloop
 endfacet
 facet normal  1.000000e+00  0.000000e+00  0.000000e+00
   outer loop
     vertex  2.982364e-01 -1.587302e-02 -9.744268e-01
     vertex  2.982364e-01  0.000000e+00 -9.744268e-01
     vertex  2.982364e-01  0.000000e+00  8.259259e-01
   endloop
 endfacet
 facet normal  0.000000e+00 -9.954719e-01 -9.505604e-02
   outer loop
     vertex  2.982364e-01 -1.767428e-01 -4.063863e-02
     vertex -1.587302e-01 -1.747795e-01 -6.119926e-02
     vertex  2.982364e-01 -1.747795e-01 -6.119926e-02
   endloop
 endfacet
 facet normal -0.000000e+00 -9.954719e-01 -9.505604e-02
   outer loop
     vertex  2.982364e-01 -1.767428e-01 -4.063863e-02
     vertex -1.587302e-01 -1.767428e-01 -4.063863e-02
     vertex -1.587302e-01 -1.747795e-01 -6.119926e-02
   endloop
 endfacet
 facet normal -0.000000e+00 -9.594930e-01 -2.817326e-01
   outer loop
     vertex  2.982364e-01 -1.825617e-01 -2.082112e-02
     vertex -1.587302e-01 -1.825617e-01 -2.082112e-02
     vertex -1.587302e-01 -1.767428e-01 -4.063863e-02
   endloop
 endfacet
 facet normal  0.000000e+00 -9.594930e-01 -2.817326e-01
   outer loop
     vertex  2.982364e-01 -1.825617e-01 -2.082112e-02
     vertex -1.587302e-01 -1.767428e-01 -4.063863e-02
     vertex  2.982364e-01 -1.767428e-01 -4.063863e-02
   endloop
 endfacet
 facet normal -0.000000e+00 -8.888354e-01 -4.582265e-01
   outer loop
     vertex  2.982364e-01 -1.920260e-01 -2.462973e-03
     vertex -1.587302e-01 -1.920260e-01 -2.462973e-03
     vertex -1.587302e-01 -1.825617e-01 -2.082112e-02
   endloop
 endfacet
 facet normal  0.000000e+00 -8.888354e-01 -4.582265e-01
   outer loop
     vertex  2.982364e-01 -1.920260e-01 -2.462973e-03
     vertex -1.587302e-01 -1.825617e-01 -2.082112e-02
     vertex  2.982364e-01 -1.825617e-01 -2.082112e-02
   endloop
 endfacet
 facet normal -0.000000e+00 -7.860531e-01 -6.181590e-01
   outer loop
     vertex  2.982364e-01 -2.047936e-01  1.377229e-02
     vertex -1.587302e-01 -2.047936e-01  1.377229e-02
     vertex -1.587302e-01 -1.920260e-01 -2.462973e-03
   endloop
 endfacet
 facet normal  0.000000e+00 -7.860531e-01 -6.181590e-01
   outer loop
     vertex  2.982364e-01 -2.047936e-01  1.377229e-02
     vertex -1.587302e-01 -1.920260e-01 -2.462973e-03
     vertex  2.982364e-01 -1.920260e-01 -2.462973e-03
   endloop
 endfacet
 facet normal -0.000000e+00 -6.548607e-01 -7.557496e-01
   outer loop
     vertex  2.982364e-01 -2.204029e-01  2.729788e-02
     vertex -1.587302e-01 -2.204029e-01  2.729788e-02
     vertex -1.587302e-01 -2.047936e-01  1.377229e-02
   endloop
 endfacet
 facet normal  0.000000e+00 -6.548607e-01 -7.557496e-01
   outer loop
     vertex  2.982364e-01 -2.204029e-01  2.729788e-02
     vertex -1.587302e-01 -2.047936e-01  1.377229e-02
     vertex  2.982364e-01 -2.047936e-01  1.377229e-02
   endloop
 endfacet
 facet normal -0.000000e+00 -5.000000e-01 -8.660254e-01
   outer loop
     vertex  2.982364e-01 -2.382900e-01  3.762496e-02
     vertex -1.587302e-01 -2.382900e-01  3.762496e-02
     vertex -1.587302e-01 -2.204029e-01  2.729788e-02
   endloop
 endfacet
 facet normal  0.000000e+00 -5.000000e-01 -8.660254e-01
   outer loop
     vertex  2.982364e-01 -2.382900e-01  3.762496e-02
     vertex -1.587302e-01 -2.204029e-01  2.729788e-02
     vertex  2.982364e-01 -2.204029e-01  2.729788e-02
   endloop
 endfacet
 facet normal -0.000000e+00 -3.270680e-01 -9.450008e-01
   outer loop
     vertex  2.982364e-01 -2.578081e-01  4.438027e-02
     vertex -1.587302e-01 -2.578081e-01  4.438027e-02
     vertex -1.587302e-01 -2.382900e-01  3.762496e-02
   endloop
 endfacet
 facet normal  0.000000e+00 -3.270680e-01 -9.450008e-01
   outer loop
     vertex  2.982364e-01 -2.578081e-01  4.438027e-02
     vertex -1.587302e-01 -2.382900e-01  3.762496e-02
     vertex  2.982364e-01 -2.382900e-01  3.762496e-02
   endloop
 endfacet
 facet normal  0.000000e+00 -1.423148e-01 -9.898214e-01
   outer loop
     vertex  2.982364e-01 -2.782521e-01  4.731966e-02
     vertex -1.587302e-01 -2.578081e-01  4.438027e-02
     vertex  2.982364e-01 -2.578081e-01  4.438027e-02
   endloop
 endfacet
 facet normal -0.000000e+00 -1.423148e-01 -9.898214e-01
   outer loop
     vertex  2.982364e-01 -2.782521e-01  4.731966e-02
     vertex -1.587302e-01 -2.782521e-01  4.731966e-02
     vertex -1.587302e-01 -2.578081e-01  4.438027e-02
   endloop
 endfacet
 facet normal  0.000000e+00  4.758192e-02 -9.988673e-01
   outer loop
     vertex  2.982364e-01 -2.782521e-01  4.731966e-02
     vertex -1.587302e-01 -2.988828e-01  4.633690e-02
     vertex -1.587302e-01 -2.782521e-01  4.731966e-02
   endloop
 endfacet
 facet normal  0.000000e+00  4.758192e-02 -9.988673e-01
   outer loop
     vertex  2.982364e-01 -2.988828e-01  4.633690e-02
     vertex -1.587302e-01 -2.988828e-01  4.633690e-02
     vertex  2.982364e-01 -2.782521e-01  4.731966e-02
   endloop
 endfacet
 facet normal  0.000000e+00  2.357589e-01 -9.718116e-01
   outer loop
     vertex  2.982364e-01 -3.189548e-01  4.146750e-02
     vertex -1.587302e-01 -2.988828e-01  4.633690e-02
     vertex  2.982364e-01 -2.988828e-01  4.633690e-02
   endloop
 endfacet
 facet normal  0.000000e+00  2.357589e-01 -9.718116e-01
   outer loop
     vertex  2.982364e-01 -3.189548e-01  4.146750e-02
     vertex -1.587302e-01 -3.189548e-01  4.146750e-02
     vertex -1.587302e-01 -2.988828e-01  4.633690e-02
   endloop
 endfacet
 facet normal  0.000000e+00  4.154150e-01 -9.096320e-01
   outer loop
     vertex  2.982364e-01 -3.377425e-01  3.288745e-02
     vertex -1.587302e-01 -3.189548e-01  4.146750e-02
     vertex  2.982364e-01 -3.189548e-01  4.146750e-02
   endloop
 endfacet
 facet normal  0.000000e+00  4.154150e-01 -9.096320e-01
   outer loop
     vertex  2.982364e-01 -3.377425e-01  3.288745e-02
     vertex -1.587302e-01 -3.377425e-01  3.288745e-02
     vertex -1.587302e-01 -3.189548e-01  4.146750e-02
   endloop
 endfacet
 facet normal  0.000000e+00  5.800569e-01 -8.145760e-01
   outer loop
     vertex  2.982364e-01 -3.545668e-01  2.090687e-02
     vertex -1.587302e-01 -3.377425e-01  3.288745e-02
     vertex  2.982364e-01 -3.377425e-01  3.288745e-02
   endloop
 endfacet
 facet normal  0.000000e+00  5.800569e-01 -8.145760e-01
   outer loop
     vertex  2.982364e-01 -3.545668e-01  2.090687e-02
     vertex -1.587302e-01 -3.545668e-01  2.090687e-02
     vertex -1.587302e-01 -3.377425e-01  3.288745e-02
   endloop
 endfacet
 facet normal  0.000000e+00  7.237340e-01 -6.900790e-01
   outer loop
     vertex  2.982364e-01 -3.688198e-01  5.958754e-03
     vertex -1.587302e-01 -3.545668e-01  2.090687e-02
     vertex  2.982364e-01 -3.545668e-01  2.090687e-02
   endloop
 endfacet
 facet normal  0.000000e+00  7.237340e-01 -6.900790e-01
   outer loop
     vertex  2.982364e-01 -3.688198e-01  5.958754e-03
     vertex -1.587302e-01 -3.688198e-01  5.958754e-03
     vertex -1.587302e-01 -3.545668e-01  2.090687e-02
   endloop
 endfacet
 facet normal  0.000000e+00  8.412535e-01 -5.406408e-01
   outer loop
     vertex  2.982364e-01 -3.799863e-01 -1.141663e-02
     vertex -1.587302e-01 -3.688198e-01  5.958754e-03
     vertex  2.982364e-01 -3.688198e-01  5.958754e-03
   endloop
 endfacet
 facet normal  0.000000e+00  8.412535e-01 -5.406408e-01
   outer loop
     vertex  2.982364e-01 -3.799863e-01 -1.141663e-02
     vertex -1.587302e-01 -3.799863e-01 -1.141663e-02
     vertex -1.587302e-01 -3.688198e-01  5.958754e-03
   endloop
 endfacet
 facet normal  0.000000e+00  9.283679e-01 -3.716625e-01
   outer loop
     vertex  2.982364e-01 -3.876627e-01 -3.059128e-02
     vertex -1.587302e-01 -3.799863e-01 -1.141663e-02
     vertex  2.982364e-01 -3.799863e-01 -1.141663e-02
   endloop
 endfacet
 facet normal  0.000000e+00  9.283679e-01 -3.716625e-01
   outer loop
     vertex  2.982364e-01 -3.876627e-01 -3.059128e-02
     vertex -1.587302e-01 -3.876627e-01 -3.059128e-02
     vertex -1.587302e-01 -3.799863e-01 -1.141663e-02
   endloop
 endfacet
 facet normal  0.000000e+00  9.819287e-01 -1.892512e-01
   outer loop
     vertex  2.982364e-01 -3.915715e-01 -5.087218e-02
     vertex -1.587302e-01 -3.876627e-01 -3.059128e-02
     vertex  2.982364e-01 -3.876627e-01 -3.059128e-02
   endloop
 endfacet
 facet normal  0.000000e+00  9.819287e-01 -1.892512e-01
   outer loop
     vertex  2.982364e-01 -3.915715e-01 -5.087218e-02
     vertex -1.587302e-01 -3.915715e-01 -5.087218e-02
     vertex -1.587302e-01 -3.876627e-01 -3.059128e-02
   endloop
 endfacet
 facet normal  0.000000e+00  1.000000e+00 -0.000000e+00
   outer loop
     vertex  2.982364e-01 -3.915715e-01 -7.152634e-02
     vertex -1.587302e-01 -3.915715e-01 -5.087218e-02
     vertex  2.982364e-01 -3.915715e-01 -5.087218e-02
   endloop
 endfacet
 facet normal  0.000000e+00  1.000000e+00  0.000000e+00
   outer loop
     vertex  2.982364e-01 -3.915715e-01 -7.152634e-02
     vertex -1.587302e-01 -3.915715e-01 -7.152634e-02
     vertex -1.587302e-01 -3.915715e-01 -5.087218e-02
   endloop
 endfacet
 facet normal  0.000000e+00  9.819287e-01  1.892512e-01
   outer loop
     vertex  2.982364e-01 -3.876627e-01 -9.180724e-02
     vertex -1.587302e-01 -3.915715e-01 -7.152634e-02
     vertex  2.982364e-01 -3.915715e-01 -7.152634e-02
   endloop
 endfacet
 facet normal  0.000000e+00  9.819287e-01  1.892512e-01
   outer loop
     vertex  2.982364e-01 -3.876627e-01 -9.180724e-02
     vertex -1.587302e-01 -3.876627e-01 -9.180724e-02
     vertex -1.587302e-01 -3.915715e-01 -7.152634e-02
   endloop
 endfacet
 facet normal  0.000000e+00  9.283679e-01  3.716625e-01
   outer loop
     vertex  2.982364e-01 -3.799863e-01 -1.109819e-01
     vertex -1.587302e-01 -3.876627e-01 -9.180724e-02
     vertex  2.982364e-01 -3.876627e-01 -9.180724e-02
   endloop
 endfacet
 facet normal  0.000000e+00  9.283679e-01  3.716625e-01
   outer loop
     vertex  2.982364e-01 -3.799863e-01 -1.109819e-01
     vertex -1.587302e-01 -3.799863e-01 -1.109819e-01
     vertex -1.587302e-01 -3.876627e-01 -9.180724e-02
   endloop
 endfacet
 facet normal  0.000000e+00  8.412535e-01  5.406408e-01
   outer loop
     vertex  2.982364e-01 -3.799863e-01 -1.109819e-01
     vertex -1.587302e-01 -3.688198e-01 -1.283573e-01
     vertex -1.587302e-01 -3.799863e-01 -1.109819e-01
   endloop
 endfacet
 facet normal  0.000000e+00  8.412535e-01  5.406408e-01
   outer loop
     vertex  2.982364e-01 -3.688198e-01 -1.283573e-01
     vertex -1.587302e-01 -3.688198e-01 -1.283573e-01
     vertex  2.982364e-01 -3.799863e-01 -1.109819e-01
   endloop
 endfacet
 facet normal  0.000000e+00  7.237340e-01  6.900790e-01
   outer loop
     vertex  2.982364e-01 -3.545668e-01 -1.433054e-01
     vertex -1.587302e-01 -3.688198e-01 -1.283573e-01
     vertex  2.982364e-01 -3.688198e-01 -1.283573e-01
   endloop
 endfacet
 facet normal  0.000000e+00  7.237340e-01  6.900790e-01
   outer loop
     vertex  2.982364e-01 -3.545668e-01 -1.433054e-01
     vertex -1.587302e-01 -3.545668e-01 -1.433054e-01
     vertex -1.587302e-01 -3.688198e-01 -1.283573e-01
   endloop
 endfacet
 facet normal  0.000000e+00  5.800569e-01  8.145760e-01
   outer loop
     vertex  2.982364e-01 -3.545668e-01 -1.433054e-01
     vertex -1.587302e-01 -3.377425e-01 -1.552860e-01
     vertex -1.587302e-01 -3.545668e-01 -1.433054e-01
   endloop
 endfacet
 facet normal  0.000000e+00  5.800569e-01  8.145760e-01
   outer loop
     vertex  2.982364e-01 -3.377425e-01 -1.552860e-01
     vertex -1.587302e-01 -3.377425e-01 -1.552860e-01
     vertex  2.982364e-01 -3.545668e-01 -1.433054e-01
   endloop
 endfacet
 facet normal  0.000000e+00  4.154150e-01  9.096320e-01
   outer loop
     vertex  2.982364e-01 -3.189548e-01 -1.638660e-01
     vertex -1.587302e-01 -3.189548e-01 -1.638660e-01
     vertex -1.587302e-01 -3.377425e-01 -1.552860e-01
   endloop
 endfacet
 facet normal  0.000000e+00  2.357589e-01  9.718116e-01
   outer loop
     vertex  2.982364e-01 -3.189548e-01 -1.638660e-01
     vertex -1.587302e-01 -2.988828e-01 -1.687354e-01
     vertex -1.587302e-01 -3.189548e-01 -1.638660e-01
   endloop
 endfacet
 facet normal  0.000000e+00  4.154150e-01  9.096320e-01
   outer loop
     vertex  2.982364e-01 -3.189548e-01 -1.638660e-01
     vertex -1.587302e-01 -3.377425e-01 -1.552860e-01
     vertex  2.982364e-01 -3.377425e-01 -1.552860e-01
   endloop
 endfacet
 facet normal  0.000000e+00  2.357589e-01  9.718116e-01
   outer loop
     vertex  2.982364e-01 -2.988828e-01 -1.687354e-01
     vertex -1.587302e-01 -2.988828e-01 -1.687354e-01
     vertex  2.982364e-01 -3.189548e-01 -1.638660e-01
   endloop
 endfacet
 facet normal  0.000000e+00  4.758192e-02  9.988673e-01
   outer loop
     vertex  2.982364e-01 -2.782521e-01 -1.697182e-01
     vertex -1.587302e-01 -2.782521e-01 -1.697182e-01
     vertex -1.587302e-01 -2.988828e-01 -1.687354e-01
   endloop
 endfacet
 facet normal  0.000000e+00 -1.423148e-01  9.898214e-01
   outer loop
     vertex  2.982364e-01 -2.782521e-01 -1.697182e-01
     vertex -1.587302e-01 -2.578081e-01 -1.667788e-01
     vertex -1.587302e-01 -2.782521e-01 -1.697182e-01
   endloop
 endfacet
 facet normal  0.000000e+00  4.758192e-02  9.988673e-01
   outer loop
     vertex  2.982364e-01 -2.782521e-01 -1.697182e-01
     vertex -1.587302e-01 -2.988828e-01 -1.687354e-01
     vertex  2.982364e-01 -2.988828e-01 -1.687354e-01
   endloop
 endfacet
 facet normal  0.000000e+00 -1.423148e-01  9.898214e-01
   outer loop
     vertex  2.982364e-01 -2.578081e-01 -1.667788e-01
     vertex -1.587302e-01 -2.578081e-01 -1.667788e-01
     vertex  2.982364e-01 -2.782521e-01 -1.697182e-01
   endloop
 endfacet
 facet normal  0.000000e+00 -3.270680e-01  9.450008e-01
   outer loop
     vertex  2.982364e-01 -2.382900e-01 -1.600235e-01
     vertex -1.587302e-01 -2.382900e-01 -1.600235e-01
     vertex -1.587302e-01 -2.578081e-01 -1.667788e-01
   endloop
 endfacet
 facet normal  0.000000e+00 -3.270680e-01  9.450008e-01
   outer loop
     vertex  2.982364e-01 -2.382900e-01 -1.600235e-01
     vertex -1.587302e-01 -2.578081e-01 -1.667788e-01
     vertex  2.982364e-01 -2.578081e-01 -1.667788e-01
   endloop
 endfacet
 facet normal  0.000000e+00 -5.000000e-01  8.660254e-01
   outer loop
     vertex  2.982364e-01 -2.204029e-01 -1.496964e-01
     vertex -1.587302e-01 -2.204029e-01 -1.496964e-01
     vertex -1.587302e-01 -2.382900e-01 -1.600235e-01
   endloop
 endfacet
 facet normal  0.000000e+00 -6.548607e-01  7.557496e-01
   outer loop
     vertex  2.982364e-01 -2.204029e-01 -1.496964e-01
     vertex -1.587302e-01 -2.047936e-01 -1.361708e-01
     vertex -1.587302e-01 -2.204029e-01 -1.496964e-01
   endloop
 endfacet
 facet normal  0.000000e+00 -5.000000e-01  8.660254e-01
   outer loop
     vertex  2.982364e-01 -2.204029e-01 -1.496964e-01
     vertex -1.587302e-01 -2.382900e-01 -1.600235e-01
     vertex  2.982364e-01 -2.382900e-01 -1.600235e-01
   endloop
 endfacet
 facet normal  0.000000e+00 -6.548607e-01  7.557496e-01
   outer loop
     vertex  2.982364e-01 -2.047936e-01 -1.361708e-01
     vertex -1.587302e-01 -2.047936e-01 -1.361708e-01
     vertex  2.982364e-01 -2.204029e-01 -1.496964e-01
   endloop
 endfacet
 facet normal  0.000000e+00 -7.860531e-01  6.181590e-01
   outer loop
     vertex  2.982364e-01 -1.920260e-01 -1.199355e-01
     vertex -1.587302e-01 -1.920260e-01 -1.199355e-01
     vertex -1.587302e-01 -2.047936e-01 -1.361708e-01
   endloop
 endfacet
 facet normal  0.000000e+00 -7.860531e-01  6.181590e-01
   outer loop
     vertex  2.982364e-01 -1.920260e-01 -1.199355e-01
     vertex -1.587302e-01 -2.047936e-01 -1.361708e-01
     vertex  2.982364e-01 -2.047936e-01 -1.361708e-01
   endloop
 endfacet
 facet normal  0.000000e+00 -8.888354e-01  4.582265e-01
   outer loop
     vertex  2.982364e-01 -1.825617e-01 -1.015774e-01
     vertex -1.587302e-01 -1.825617e-01 -1.015774e-01
     vertex -1.587302e-01 -1.920260e-01 -1.199355e-01
   endloop
 endfacet
 facet normal  0.000000e+00 -8.888354e-01  4.582265e-01
   outer loop
     vertex  2.982364e-01 -1.825617e-01 -1.015774e-01
     vertex -1.587302e-01 -1.920260e-01 -1.199355e-01
     vertex  2.982364e-01 -1.920260e-01 -1.199355e-01
   endloop
 endfacet
 facet normal  0.000000e+00 -9.594930e-01  2.817326e-01
   outer loop
     vertex  2.982364e-01 -1.767428e-01 -8.175989e-02
     vertex -1.587302e-01 -1.767428e-01 -8.175989e-02
     vertex -1.587302e-01 -1.825617e-01 -1.015774e-01
   endloop
 endfacet
 facet normal  0.000000e+00 -9.954719e-01  9.505604e-02
   outer loop
     vertex  2.982364e-01 -1.767428e-01 -8.175989e-02
     vertex -1.587302e-01 -1.747795e-01 -6.119926e-02
     vertex -1.587302e-01 -1.767428e-01 -8.175989e-02
   endloop
 endfacet
 facet normal  0.000000e+00 -9.594930e-01  2.817326e-01
   outer loop
     vertex  2.982364e-01 -1.767428e-01 -8.175989e-02
     vertex -1.587302e-01 -1.825617e-01 -1.015774e-01
     vertex  2.982364e-01 -1.825617e-01 -1.015774e-01
   endloop
 endfacet
 facet normal  0.000000e+00 -9.954719e-01  9.505604e-02
   outer loop
     vertex  2.982364e-01 -1.747795e-01 -6.119926e-02
     vertex -1.587302e-01 -1.747795e-01 -6.119926e-02
     vertex  2.982364e-01 -1.767428e-01 -8.175989e-02
   endloop
 endfacet
 facet normal  1.000000e+00  0.000000e+00  0.000000e+00
   outer loop
     vertex -1.587302e-01 -2.047936e-01  1.377229e-02
     vertex -1.587302e-01 -1.747795e-01 -6.119926e-02
     vertex -1.587302e-01 -1.767428e-01 -4.063863e-02
   endloop
 endfacet
 facet normal  1.000000e+00  0.000000e+00  0.000000e+00
   outer loop
     vertex -1.587302e-01 -2.047936e-01  1.377229e-02
     vertex -1.587302e-01 -1.767428e-01 -4.063863e-02
     vertex -1.587302e-01 -1.825617e-01 -2.082112e-02
   endloop
 endfacet
 facet normal  1.000000e+00  0.000000e+00  0.000000e+00
   outer loop
     vertex -1.587302e-01 -2.047936e-01  1.377229e-02
     vertex -1.587302e-01 -1.825617e-01 -2.082112e-02
     vertex -1.587302e-01 -1.920260e-01 -2.462973e-03
   endloop
 endfacet
 facet normal  1.000000e+00  0.000000e+00  0.000000e+00
   outer loop
     vertex -1.587302e-01 -2.047936e-01  1.377229e-02
     vertex -1.587302e-01 -2.204029e-01  2.729788e-02
     vertex -1.587302e-01 -2.382900e-01  3.762496e-02
   endloop
 endfacet
 facet normal  1.000000e+00  0.000000e+00  0.000000e+00
   outer loop
     vertex -1.587302e-01 -2.047936e-01  1.377229e-02
     vertex -1.587302e-01 -2.382900e-01  3.762496e-02
     vertex -1.587302e-01 -2.578081e-01  4.438027e-02
   endloop
 endfacet
 facet normal  1.000000e+00  0.000000e+00  0.000000e+00
   outer loop
     vertex -1.587302e-01 -2.047936e-01  1.377229e-02
     vertex -1.587302e-01 -2.578081e-01  4.438027e-02
     vertex -1.587302e-01 -2.782521e-01  4.731966e-02
   endloop
 endfacet
 facet normal  1.000000e+00  0.000000e+00  0.000000e+00
   outer loop
     vertex -1.587302e-01 -2.047936e-01  1.377229e-02
     vertex -1.587302e-01 -2.782521e-01  4.731966e-02
     vertex -1.587302e-01 -2.988828e-01  4.633690e-02
   endloop
 endfacet
 facet normal  1.000000e+00  0.000000e+00  0.000000e+00
   outer loop
     vertex -1.587302e-01 -2.047936e-01  1.377229e-02
     vertex -1.587302e-01 -2.988828e-01  4.633690e-02
     vertex -1.587302e-01 -3.189548e-01  4.146750e-02
   endloop
 endfacet
 facet normal  1.000000e+00  0.000000e+00  0.000000e+00
   outer loop
     vertex -1.587302e-01 -2.047936e-01  1.377229e-02
     vertex -1.587302e-01 -3.189548e-01  4.146750e-02
     vertex -1.587302e-01 -3.377425e-01  3.288745e-02
   endloop
 endfacet
 facet normal  1.000000e+00  0.000000e+00  0.000000e+00
   outer loop
     vertex -1.587302e-01 -2.047936e-01  1.377229e-02
     vertex -1.587302e-01 -3.377425e-01  3.288745e-02
     vertex -1.587302e-01 -3.545668e-01  2.090687e-02
   endloop
 endfacet
 facet normal  1.000000e+00  0.000000e+00  0.000000e+00
   outer loop
     vertex -1.587302e-01 -2.047936e-01  1.377229e-02
     vertex -1.587302e-01 -3.545668e-01  2.090687e-02
     vertex -1.587302e-01 -3.688198e-01  5.958754e-03
   endloop
 endfacet
 facet normal  1.000000e+00  0.000000e+00  0.000000e+00
   outer loop
     vertex -1.587302e-01 -2.047936e-01  1.377229e-02
     vertex -1.587302e-01 -3.688198e-01  5.958754e-03
     vertex -1.587302e-01 -3.799863e-01 -1.141663e-02
   endloop
 endfacet
 facet normal  1.000000e+00  0.000000e+00  0.000000e+00
   outer loop
     vertex -1.587302e-01 -2.047936e-01  1.377229e-02
     vertex -1.587302e-01 -3.799863e-01 -1.141663e-02
     vertex -1.587302e-01 -3.876627e-01 -3.059128e-02
   endloop
 endfacet
 facet normal  1.000000e+00  0.000000e+00  0.000000e+00
   outer loop
     vertex -1.587302e-01 -2.047936e-01  1.377229e-02
     vertex -1.587302e-01 -3.876627e-01 -3.059128e-02
     vertex -1.587302e-01 -3.915715e-01 -5.087218e-02
   endloop
 endfacet
 facet normal  1.000000e+00  0.000000e+00  0.000000e+00
   outer loop
     vertex -1.587302e-01 -2.047936e-01  1.377229e-02
     vertex -1.587302e-01 -3.915715e-01 -5.087218e-02
     vertex -1.587302e-01 -3.915715e-01 -7.152634e-02
   endloop
 endfacet
 facet normal  1.000000e+00  0.000000e+00  0.000000e+00
   outer loop
     vertex -1.587302e-01 -2.047936e-01  1.377229e-02
     vertex -1.587302e-01 -3.915715e-01 -7.152634e-02
     vertex -1.587302e-01 -3.876627e-01 -9.180724e-02
   endloop
 endfacet
 facet normal  1.000000e+00  0.000000e+00  0.000000e+00
   outer loop
     vertex -1.587302e-01 -2.047936e-01  1.377229e-02
     vertex -1.587302e-01 -3.876627e-01 -9.180724e-02
     vertex -1.587302e-01 -3.799863e-01 -1.109819e-01
   endloop
 endfacet
 facet normal  1.000000e+00  0.000000e+00  0.000000e+00
   outer loop
     vertex -1.587302e-01 -2.047936e-01  1.377229e-02
     vertex -1.587302e-01 -3.799863e-01 -1.109819e-01
     vertex -1.587302e-01 -3.688198e-01 -1.283573e-01
   endloop
 endfacet
 facet normal  1.000000e+00  0.000000e+00  0.000000e+00
   outer loop
     vertex -1.587302e-01 -2.047936e-01  1.377229e-02
     vertex -1.587302e-01 -3.688198e-01 -1.283573e-01
     vertex -1.587302e-01 -3.545668e-01 -1.433054e-01
   endloop
 endfacet
 facet normal  1.000000e+00  0.000000e+00  0.000000e+00
   outer loop
     vertex -1.587302e-01 -2.047936e-01  1.377229e-02
     vertex -1.587302e-01 -3.545668e-01 -1.433054e-01
     vertex -1.587302e-01 -3.377425e-01 -1.552860e-01
   endloop
 endfacet
 facet normal  1.000000e+00  0.000000e+00  0.000000e+00
   outer loop
     vertex -1.587302e-01 -2.047936e-01  1.377229e-02
     vertex -1.587302e-01 -3.377425e-01 -1.552860e-01
     vertex -1.587302e-01 -3.189548e-01 -1.638660e-01
   endloop
 endfacet
 facet normal  1.000000e+00  0.000000e+00  0.000000e+00
   outer loop
     vertex -1.587302e-01 -2.047936e-01  1.377229e-02
     vertex -1.587302e-01 -3.189548e-01 -1.638660e-01
     vertex -1.587302e-01 -2.988828e-01 -1.687354e-01
   endloop
 endfacet
 facet normal  1.000000e+00  0.000000e+00  0.000000e+00
   outer loop
     vertex -1.587302e-01 -2.047936e-01  1.377229e-02
     vertex -1.587302e-01 -2.988828e-01 -1.687354e-01
     vertex -1.587302e-01 -2.782521e-01 -1.697182e-01
   endloop
 endfacet
 facet normal  1.000000e+00  0.000000e+00  0.000000e+00
   outer loop
     vertex -1.587302e-01 -2.047936e-01  1.377229e-02
     vertex -1.587302e-01 -2.782521e-01 -1.697182e-01
     vertex -1.587302e-01 -2.578081e-01 -1.667788e-01
   endloop
 endfacet
 facet normal  1.000000e+00  0.000000e+00  0.000000e+00
   outer loop
     vertex -1.587302e-01 -2.047936e-01  1.377229e-02
     vertex -1.587302e-01 -2.578081e-01 -1.667788e-01
     vertex -1.587302e-01 -2.382900e-01 -1.600235e-01
   endloop
 endfacet
 facet normal  1.000000e+00  0.000000e+00  0.000000e+00
   outer loop
     vertex -1.587302e-01 -2.047936e-01  1.377229e-02
     vertex -1.587302e-01 -2.382900e-01 -1.600235e-01
     vertex -1.587302e-01 -2.204029e-01 -1.496964e-01
   endloop
 endfacet
 facet normal  1.000000e+00  0.000000e+00  0.000000e+00
   outer loop
     vertex -1.587302e-01 -2.047936e-01  1.377229e-02
     vertex -1.587302e-01 -2.204029e-01 -1.496964e-01
     vertex -1.587302e-01 -2.047936e-01 -1.361708e-01
   endloop
 endfacet
 facet normal  1.000000e+00  0.000000e+00  0.000000e+00
   outer loop
     vertex -1.587302e-01 -2.047936e-01  1.377229e-02
     vertex -1.587302e-01 -2.047936e-01 -1.361708e-01
     vertex -1.587302e-01 -1.920260e-01 -1.199355e-01
   endloop
 endfacet
 facet normal  1.000000e+00  0.000000e+00  0.000000e+00
   outer loop
     vertex -1.587302e-01 -2.047936e-01  1.377229e-02
     vertex -1.587302e-01 -1.920260e-01 -1.199355e-01
     vertex -1.587302e-01 -1.825617e-01 -1.015774e-01
   endloop
 endfacet
 facet normal  1.000000e+00  0.000000e+00  0.000000e+00
   outer loop
     vertex -1.587302e-01 -2.047936e-01  1.377229e-02
     vertex -1.587302e-01 -1.825617e-01 -1.015774e-01
     vertex -1.587302e-01 -1.767428e-01 -8.175989e-02
   endloop
 endfacet
 facet normal  1.000000e+00  0.000000e+00  0.000000e+00
   outer loop
     vertex -1.587302e-01 -2.047936e-01  1.377229e-02
     vertex -1.587302e-01 -1.767428e-01 -8.175989e-02
     vertex -1.587302e-01 -1.747795e-01 -6.119926e-02
   endloop
 endfacet
endsolid
