solid 
 facet normal  0.000000e+00 -1.000000e+00  0.000000e+00
   outer loop
     vertex -1.587302e-02 -7.959436e-01  3.567902e-01
     vertex -1.587302e-02 -7.959436e-01 -5.010582e-01
     vertex  3.174609e-02 -7.959436e-01 -5.010582e-01
   endloop
 endfacet
 facet normal  0.000000e+00 -1.000000e+00  0.000000e+00
   outer loop
     vertex -1.587302e-02 -7.959436e-01  3.567902e-01
     vertex  3.174609e-02 -7.959436e-01 -5.010582e-01
     vertex  3.174609e-02 -7.959436e-01  3.567902e-01
   endloop
 endfacet
 facet normal  0.000000e+00  0.000000e+00 -1.000000e+00
   outer loop
     vertex -1.587302e-02 -7.959436e-01 -5.010582e-01
     vertex -1.587302e-02  6.516755e-01 -5.010582e-01
     vertex  3.174609e-02  6.516755e-01 -5.010582e-01
   endloop
 endfacet
 facet normal  0.000000e+00  0.000000e+00 -1.000000e+00
   outer loop
     vertex -1.587302e-02 -7.959436e-01 -5.010582e-01
     vertex  3.174609e-02  6.516755e-01 -5.010582e-01
     vertex  3.174609e-02 -7.959436e-01 -5.010582e-01
   endloop
 endfacet
 facet normal  0.000000e+00  0.000000e+00  1.000000e+00
   outer loop
     vertex -1.587302e-02  6.516755e-01  3.567902e-01
     vertex -1.587302e-02 -7.959436e-01  3.567902e-01
     vertex  3.174609e-02 -7.959436e-01  3.567902e-01
   endloop
 endfacet
 facet normal -0.000000e+00  0.000000e+00  1.000000e+00
   outer loop
     vertex -1.587302e-02  6.516755e-01  3.567902e-01
     vertex  3.174609e-02 -7.959436e-01  3.567902e-01
     vertex  3.174609e-02  6.516755e-01  3.567902e-01
   endloop
 endfacet
 facet normal  0.000000e+00 -1.000000e+00 -0.000000e+00
   outer loop
     vertex -1.587302e-02 -7.959436e-01  3.567902e-01
     vertex -3.174603e-02 -7.959436e-01 -5.010582e-01
     vertex -1.587302e-02 -7.959436e-01 -5.010582e-01
   endloop
 endfacet
 facet normal -0.000000e+00 -1.000000e+00  0.000000e+00
   outer loop
     vertex -1.587302e-02 -7.959436e-01  3.567902e-01
     vertex -3.174603e-02 -7.959436e-01  3.567902e-01
     vertex -3.174603e-02 -7.959436e-01 -5.010582e-01
   endloop
 endfacet
 facet normal  1.000000e+00  0.000000e+00  0.000000e+00
   outer loop
     vertex  3.174609e-02 -1.169312e-01 -5.449738e-02
     vertex  3.174609e-02 -7.959436e-01  3.567902e-01
     vertex  3.174609e-02 -7.959436e-01 -5.010582e-01
   endloop
 endfacet
 facet normal  1.000000e+00  0.000000e+00  0.000000e+00
   outer loop
     vertex  3.174609e-02 -1.169312e-01 -5.449738e-02
     vertex  3.174609e-02 -7.959436e-01 -5.010582e-01
     vertex  3.174609e-02 -1.169312e-01 -1.222223e-01
   endloop
 endfacet
 facet normal  1.000000e+00  0.000000e+00  0.000000e+00
   outer loop
     vertex  3.174609e-02  6.516755e-01 -5.010582e-01
     vertex  3.174609e-02 -2.645467e-03 -1.222223e-01
     vertex  3.174609e-02 -1.169312e-01 -1.222223e-01
   endloop
 endfacet
 facet normal  1.000000e+00  0.000000e+00  0.000000e+00
   outer loop
     vertex  3.174609e-02  6.516755e-01 -5.010582e-01
     vertex  3.174609e-02 -2.645467e-03 -5.449738e-02
     vertex  3.174609e-02 -2.645467e-03 -1.222223e-01
   endloop
 endfacet
 facet normal  1.000000e+00  0.000000e+00  0.000000e+00
   outer loop
     vertex  3.174609e-02  6.516755e-01 -5.010582e-01
     vertex  3.174609e-02 -1.169312e-01 -1.222223e-01
     vertex  3.174609e-02 -7.959436e-01 -5.010582e-01
   endloop
 endfacet
 facet normal  1.000000e+00  0.000000e+00  0.000000e+00
   outer loop
     vertex  3.174609e-02  6.516755e-01  3.567902e-01
     vertex  3.174609e-02 -1.169312e-01 -5.449738e-02
     vertex  3.174609e-02 -2.645467e-03 -5.449738e-02
   endloop
 endfacet
 facet normal  1.000000e+00  0.000000e+00  0.000000e+00
   outer loop
     vertex  3.174609e-02  6.516755e-01  3.567902e-01
     vertex  3.174609e-02 -7.959436e-01  3.567902e-01
     vertex  3.174609e-02 -1.169312e-01 -5.449738e-02
   endloop
 endfacet
 facet normal  1.000000e+00  0.000000e+00  0.000000e+00
   outer loop
     vertex  3.174609e-02  6.516755e-01  3.567902e-01
     vertex  3.174609e-02 -2.645467e-03 -5.449738e-02
     vertex  3.174609e-02  6.516755e-01 -5.010582e-01
   endloop
 endfacet
 facet normal  0.000000e+00  1.000000e+00  0.000000e+00
   outer loop
     vertex -1.587302e-02  6.516755e-01 -5.010582e-01
     vertex -1.587302e-02  6.516755e-01  3.567902e-01
     vertex  3.174609e-02  6.516755e-01  3.567902e-01
   endloop
 endfacet
 facet normal  0.000000e+00  1.000000e+00  0.000000e+00
   outer loop
     vertex -1.587302e-02  6.516755e-01 -5.010582e-01
     vertex  3.174609e-02  6.516755e-01  3.567902e-01
     vertex  3.174609e-02  6.516755e-01 -5.010582e-01
   endloop
 endfacet
 facet normal  0.000000e+00  0.000000e+00 -1.000000e+00
   outer loop
     vertex -1.587302e-02 -7.959436e-01 -5.010582e-01
     vertex -3.174603e-02  6.516755e-01 -5.010582e-01
     vertex -1.587302e-02  6.516755e-01 -5.010582e-01
   endloop
 endfacet
 facet normal  0.000000e+00  0.000000e+00 -1.000000e+00
   outer loop
     vertex -1.587302e-02 -7.959436e-01 -5.010582e-01
     vertex -3.174603e-02 -7.959436e-01 -5.010582e-01
     vertex -3.174603e-02  6.516755e-01 -5.010582e-01
   endloop
 endfacet
 facet normal  0.000000e+00  0.000000e+00  1.000000e+00
   outer loop
     vertex -1.587302e-02  6.516755e-01  3.567902e-01
     vertex -3.174603e-02 -7.959436e-01  3.567902e-01
     vertex -1.587302e-02 -7.959436e-01  3.567902e-01
   endloop
 endfacet
 facet normal  0.000000e+00  0.000000e+00  1.000000e+00
   outer loop
     vertex -1.587302e-02  6.516755e-01  3.567902e-01
     vertex -3.174603e-02  6.516755e-01  3.567902e-01
     vertex -3.174603e-02 -7.959436e-01  3.567902e-01
   endloop
 endfacet
 facet normal -1.000000e+00 -0.000000e+00  0.000000e+00
   outer loop
     vertex -3.174603e-02 -1.169312e-01 -5.449738e-02
     vertex -3.174603e-02 -7.959436e-01 -5.010582e-01
     vertex -3.174603e-02 -7.959436e-01  3.567902e-01
   endloop
 endfacet
 facet normal -1.000000e+00  0.000000e+00 -0.000000e+00
   outer loop
     vertex -3.174603e-02 -1.169312e-01 -5.449738e-02
     vertex -3.174603e-02 -1.169312e-01 -1.222223e-01
     vertex -3.174603e-02 -7.959436e-01 -5.010582e-01
   endloop
 endfacet
 facet normal -1.000000e+00  0.000000e+00  0.000000e+00
   outer loop
     vertex -3.174603e-02  6.516755e-01 -5.010582e-01
     vertex -3.174603e-02 -1.169312e-01 -1.222223e-01
     vertex -3.174603e-02 -2.645467e-03 -1.222223e-01
   endloop
 endfacet
 facet normal -1.000000e+00  0.000000e+00  0.000000e+00
   outer loop
     vertex -3.174603e-02  6.516755e-01 -5.010582e-01
     vertex -3.174603e-02 -2.645467e-03 -1.222223e-01
     vertex -3.174603e-02 -2.645467e-03 -5.449738e-02
   endloop
 endfacet
 facet normal -1.000000e+00  0.000000e+00  0.000000e+00
   outer loop
     vertex -3.174603e-02  6.516755e-01 -5.010582e-01
     vertex -3.174603e-02 -7.959436e-01 -5.010582e-01
     vertex -3.174603e-02 -1.169312e-01 -1.222223e-01
   endloop
 endfacet
 facet normal -1.000000e+00  0.000000e+00  0.000000e+00
   outer loop
     vertex -3.174603e-02  6.516755e-01  3.567902e-01
     vertex -3.174603e-02 -2.645467e-03 -5.449738e-02
     vertex -3.174603e-02 -1.169312e-01 -5.449738e-02
   endloop
 endfacet
 facet normal -1.000000e+00 -0.000000e+00  0.000000e+00
   outer loop
     vertex -3.174603e-02  6.516755e-01  3.567902e-01
     vertex -3.174603e-02 -1.169312e-01 -5.449738e-02
     vertex -3.174603e-02 -7.959436e-01  3.567902e-01
   endloop
 endfacet
 facet normal -1.000000e+00  0.000000e+00 -0.000000e+00
   outer loop
     vertex -3.174603e-02  6.516755e-01  3.567902e-01
     vertex -3.174603e-02  6.516755e-01 -5.010582e-01
     vertex -3.174603e-02 -2.645467e-03 -5.449738e-02
   endloop
 endfacet
 facet normal  0.000000e+00  0.000000e+00  1.000000e+00
   outer loop
     vertex  3.174609e-02 -2.645467e-03 -1.222223e-01
     vertex -3.174603e-02 -1.169312e-01 -1.222223e-01
     vertex  3.174609e-02 -1.169312e-01 -1.222223e-01
   endloop
 endfacet
 facet normal  0.000000e+00  0.000000e+00  1.000000e+00
   outer loop
     vertex  3.174609e-02 -2.645467e-03 -1.222223e-01
     vertex -3.174603e-02 -2.645467e-03 -1.222223e-01
     vertex -3.174603e-02 -1.169312e-01 -1.222223e-01
   endloop
 endfacet
 facet normal  0.000000e+00 -1.000000e+00 -0.000000e+00
   outer loop
     vertex  3.174609e-02 -2.645467e-03 -5.449738e-02
     vertex -3.174603e-02 -2.645467e-03 -1.222223e-01
     vertex  3.174609e-02 -2.645467e-03 -1.222223e-01
   endloop
 endfacet
 facet normal -0.000000e+00 -1.000000e+00  0.000000e+00
   outer loop
     vertex  3.174609e-02 -2.645467e-03 -5.449738e-02
     vertex -3.174603e-02 -2.645467e-03 -5.449738e-02
     vertex -3.174603e-02 -2.645467e-03 -1.222223e-01
   endloop
 endfacet
 facet normal  0.000000e+00  0.000000e+00 -1.000000e+00
   outer loop
     vertex  3.174609e-02 -1.169312e-01 -5.449738e-02
     vertex -3.174603e-02 -2.645467e-03 -5.449738e-02
     vertex  3.174609e-02 -2.645467e-03 -5.449738e-02
   endloop
 endfacet
 facet normal  0.000000e+00  0.000000e+00 -1.000000e+00
   outer loop
     vertex  3.174609e-02 -1.169312e-01 -5.449738e-02
     vertex -3.174603e-02 -1.169312e-01 -5.449738e-02
     vertex -3.174603e-02 -2.645467e-03 -5.449738e-02
   endloop
 endfacet
 facet normal  0.000000e+00  1.000000e+00 -0.000000e+00
   outer loop
     vertex  3.174609e-02 -1.169312e-01 -1.222223e-01
     vertex -3.174603e-02 -1.169312e-01 -5.449738e-02
     vertex  3.174609e-02 -1.169312e-01 -5.449738e-02
   endloop
 endfacet
 facet normal  0.000000e+00  1.000000e+00  0.000000e+00
   outer loop
     vertex  3.174609e-02 -1.169312e-01 -1.222223e-01
     vertex -3.174603e-02 -1.169312e-01 -1.222223e-01
     vertex -3.174603e-02 -1.169312e-01 -5.449738e-02
   endloop
 endfacet
 facet normal  0.000000e+00  1.000000e+00 -0.000000e+00
   outer loop
     vertex -1.587302e-02  6.516755e-01 -5.010582e-01
     vertex -3.174603e-02  6.516755e-01  3.567902e-01
     vertex -1.587302e-02  6.516755e-01  3.567902e-01
   endloop
 endfacet
 facet normal  0.000000e+00  1.000000e+00  0.000000e+00
   outer loop
     vertex -1.587302e-02  6.516755e-01 -5.010582e-01
     vertex -3.174603e-02  6.516755e-01 -5.010582e-01
     vertex -3.174603e-02  6.516755e-01  3.567902e-01
   endloop
 endfacet
endsolid
