solid 
 facet normal  0.000000e+00 -1.000000e+00  0.000000e+00
   outer loop
     vertex  4.417990e-01 -5.825397e-01 -1.587302e-02
     vertex -5.825397e-01 -5.825397e-01  9.523810e-01
     vertex -5.825397e-01 -5.825397e-01 -1.587302e-02
   endloop
 endfacet
 facet normal  0.000000e+00 -1.000000e+00  0.000000e+00
   outer loop
     vertex  4.417990e-01 -5.825397e-01 -1.587302e-02
     vertex  4.417990e-01 -5.825397e-01  9.523810e-01
     vertex -5.825397e-01 -5.825397e-01  9.523810e-01
   endloop
 endfacet
 facet normal -1.000000e+00  0.000000e+00  0.000000e+00
   outer loop
     vertex -5.825397e-01 -5.825397e-01 -1.587302e-02
     vertex -5.825397e-01  4.417990e-01  9.523810e-01
     vertex -5.825397e-01  4.417990e-01 -1.587302e-02
   endloop
 endfacet
 facet normal -1.000000e+00  0.000000e+00  0.000000e+00
   outer loop
     vertex -5.825397e-01 -5.825397e-01 -1.587302e-02
     vertex -5.825397e-01 -5.825397e-01  9.523810e-01
     vertex -5.825397e-01  4.417990e-01  9.523810e-01
   endloop
 endfacet
 facet normal  1.000000e+00  0.000000e+00  0.000000e+00
   outer loop
     vertex  4.417990e-01  4.417990e-01 -1.587302e-02
     vertex  4.417990e-01 -5.825397e-01  9.523810e-01
     vertex  4.417990e-01 -5.825397e-01 -1.587302e-02
   endloop
 endfacet
 facet normal  1.000000e+00  0.000000e+00 -0.000000e+00
   outer loop
     vertex  4.417990e-01  4.417990e-01 -1.587302e-02
     vertex  4.417990e-01  4.417990e-01  9.523810e-01
     vertex  4.417990e-01 -5.825397e-01  9.523810e-01
   endloop
 endfacet
 facet normal -0.000000e+00 -1.000000e+00  0.000000e+00
   outer loop
     vertex  4.417990e-01 -5.825397e-01 -1.587302e-02
     vertex -5.825397e-01 -5.825397e-01 -1.587302e-02
     vertex -5.825397e-01 -5.825397e-01 -3.174603e-02
   endloop
 endfacet
 facet normal  0.000000e+00 -1.000000e+00 -0.000000e+00
   outer loop
     vertex  4.417990e-01 -5.825397e-01 -1.587302e-02
     vertex -5.825397e-01 -5.825397e-01 -3.174603e-02
     vertex  4.417990e-01 -5.825397e-01 -3.174603e-02
   endloop
 endfacet
 facet normal  0.000000e+00  0.000000e+00  1.000000e+00
   outer loop
     vertex  4.417990e-01 -5.825397e-01  9.523810e-01
     vertex -2.968254e-01 -2.968254e-01  9.523810e-01
     vertex -5.825397e-01 -5.825397e-01  9.523810e-01
   endloop
 endfacet
 facet normal  0.000000e+00  0.000000e+00  1.000000e+00
   outer loop
     vertex -5.825397e-01  4.417990e-01  9.523810e-01
     vertex -5.825397e-01 -5.825397e-01  9.523810e-01
     vertex -2.968254e-01 -2.968254e-01  9.523810e-01
   endloop
 endfacet
 facet normal  0.000000e+00  0.000000e+00  1.000000e+00
   outer loop
     vertex  1.687831e-01 -2.968254e-01  9.523810e-01
     vertex -2.968254e-01 -2.968254e-01  9.523810e-01
     vertex  4.417990e-01 -5.825397e-01  9.523810e-01
   endloop
 endfacet
 facet normal  0.000000e+00  0.000000e+00  1.000000e+00
   outer loop
     vertex -2.968254e-01  1.687831e-01  9.523810e-01
     vertex -5.825397e-01  4.417990e-01  9.523810e-01
     vertex -2.968254e-01 -2.968254e-01  9.523810e-01
   endloop
 endfacet
 facet normal  0.000000e+00  0.000000e+00  1.000000e+00
   outer loop
     vertex  4.417990e-01  4.417990e-01  9.523810e-01
     vertex -2.968254e-01  1.687831e-01  9.523810e-01
     vertex  1.687831e-01  1.687831e-01  9.523810e-01
   endloop
 endfacet
 facet normal  0.000000e+00  0.000000e+00  1.000000e+00
   outer loop
     vertex  4.417990e-01  4.417990e-01  9.523810e-01
     vertex  1.687831e-01  1.687831e-01  9.523810e-01
     vertex  1.687831e-01 -2.968254e-01  9.523810e-01
   endloop
 endfacet
 facet normal  0.000000e+00  0.000000e+00  1.000000e+00
   outer loop
     vertex  4.417990e-01  4.417990e-01  9.523810e-01
     vertex  1.687831e-01 -2.968254e-01  9.523810e-01
     vertex  4.417990e-01 -5.825397e-01  9.523810e-01
   endloop
 endfacet
 facet normal  0.000000e+00  0.000000e+00  1.000000e+00
   outer loop
     vertex  4.417990e-01  4.417990e-01  9.523810e-01
     vertex -5.825397e-01  4.417990e-01  9.523810e-01
     vertex -2.968254e-01  1.687831e-01  9.523810e-01
   endloop
 endfacet
 facet normal  0.000000e+00  1.000000e+00  0.000000e+00
   outer loop
     vertex -5.825397e-01  4.417990e-01 -1.587302e-02
     vertex  4.417990e-01  4.417990e-01  9.523810e-01
     vertex  4.417990e-01  4.417990e-01 -1.587302e-02
   endloop
 endfacet
 facet normal  0.000000e+00  1.000000e+00  0.000000e+00
   outer loop
     vertex -5.825397e-01  4.417990e-01 -1.587302e-02
     vertex -5.825397e-01  4.417990e-01  9.523810e-01
     vertex  4.417990e-01  4.417990e-01  9.523810e-01
   endloop
 endfacet
 facet normal -1.000000e+00  0.000000e+00  0.000000e+00
   outer loop
     vertex -5.825397e-01 -5.825397e-01 -1.587302e-02
     vertex -5.825397e-01  4.417990e-01 -1.587302e-02
     vertex -5.825397e-01  4.417990e-01 -3.174603e-02
   endloop
 endfacet
 facet normal -1.000000e+00  0.000000e+00  0.000000e+00
   outer loop
     vertex -5.825397e-01 -5.825397e-01 -1.587302e-02
     vertex -5.825397e-01  4.417990e-01 -3.174603e-02
     vertex -5.825397e-01 -5.825397e-01 -3.174603e-02
   endloop
 endfacet
 facet normal  1.000000e+00  0.000000e+00  0.000000e+00
   outer loop
     vertex  4.417990e-01  4.417990e-01 -1.587302e-02
     vertex  4.417990e-01 -5.825397e-01 -1.587302e-02
     vertex  4.417990e-01 -5.825397e-01 -3.174603e-02
   endloop
 endfacet
 facet normal  1.000000e+00  0.000000e+00  0.000000e+00
   outer loop
     vertex  4.417990e-01  4.417990e-01 -1.587302e-02
     vertex  4.417990e-01 -5.825397e-01 -3.174603e-02
     vertex  4.417990e-01  4.417990e-01 -3.174603e-02
   endloop
 endfacet
 facet normal  0.000000e+00 -0.000000e+00 -1.000000e+00
   outer loop
     vertex  4.417990e-01  4.417990e-01 -3.174603e-02
     vertex  4.417990e-01 -5.825397e-01 -3.174603e-02
     vertex -5.825397e-01 -5.825397e-01 -3.174603e-02
   endloop
 endfacet
 facet normal -0.000000e+00  0.000000e+00 -1.000000e+00
   outer loop
     vertex  4.417990e-01  4.417990e-01 -3.174603e-02
     vertex -5.825397e-01 -5.825397e-01 -3.174603e-02
     vertex -5.825397e-01  4.417990e-01 -3.174603e-02
   endloop
 endfacet
 facet normal -0.000000e+00 -1.000000e+00  0.000000e+00
   outer loop
     vertex  1.687831e-01 -2.968254e-01  9.682540e-01
     vertex -2.968254e-01 -2.968254e-01  9.682540e-01
     vertex -2.968254e-01 -2.968254e-01  9.523810e-01
   endloop
 endfacet
 facet normal  0.000000e+00 -1.000000e+00 -0.000000e+00
   outer loop
     vertex  1.687831e-01 -2.968254e-01  9.682540e-01
     vertex -2.968254e-01 -2.968254e-01  9.523810e-01
     vertex  1.687831e-01 -2.968254e-01  9.523810e-01
   endloop
 endfacet
 facet normal  1.000000e+00  0.000000e+00  0.000000e+00
   outer loop
     vertex  1.687831e-01  1.687831e-01  9.682540e-01
     vertex  1.687831e-01 -2.968254e-01  9.682540e-01
     vertex  1.687831e-01 -2.968254e-01  9.523810e-01
   endloop
 endfacet
 facet normal  1.000000e+00  0.000000e+00  0.000000e+00
   outer loop
     vertex  1.687831e-01  1.687831e-01  9.682540e-01
     vertex  1.687831e-01 -2.968254e-01  9.523810e-01
     vertex  1.687831e-01  1.687831e-01  9.523810e-01
   endloop
 endfacet
 facet normal -0.000000e+00  1.000000e+00  0.000000e+00
   outer loop
     vertex -2.968254e-01  1.687831e-01  9.682540e-01
     vertex  1.687831e-01  1.687831e-01  9.682540e-01
     vertex  1.687831e-01  1.687831e-01  9.523810e-01
   endloop
 endfacet
 facet normal  0.000000e+00  1.000000e+00  0.000000e+00
   outer loop
     vertex -2.968254e-01  1.687831e-01  9.682540e-01
     vertex  1.687831e-01  1.687831e-01  9.523810e-01
     vertex -2.968254e-01  1.687831e-01  9.523810e-01
   endloop
 endfacet
 facet normal -1.000000e+00  0.000000e+00  0.000000e+00
   outer loop
     vertex -2.968254e-01 -2.968254e-01  9.682540e-01
     vertex -2.968254e-01  1.687831e-01  9.682540e-01
     vertex -2.968254e-01  1.687831e-01  9.523810e-01
   endloop
 endfacet
 facet normal -1.000000e+00  0.000000e+00  0.000000e+00
   outer loop
     vertex -2.968254e-01 -2.968254e-01  9.682540e-01
     vertex -2.968254e-01  1.687831e-01  9.523810e-01
     vertex -2.968254e-01 -2.968254e-01  9.523810e-01
   endloop
 endfacet
 facet normal -0.000000e+00  1.000000e+00  0.000000e+00
   outer loop
     vertex -5.825397e-01  4.417990e-01 -1.587302e-02
     vertex  4.417990e-01  4.417990e-01 -1.587302e-02
     vertex  4.417990e-01  4.417990e-01 -3.174603e-02
   endloop
 endfacet
 facet normal  0.000000e+00  1.000000e+00  0.000000e+00
   outer loop
     vertex -5.825397e-01  4.417990e-01 -1.587302e-02
     vertex  4.417990e-01  4.417990e-01 -3.174603e-02
     vertex -5.825397e-01  4.417990e-01 -3.174603e-02
   endloop
 endfacet
 facet normal  0.000000e+00 -1.000000e+00  0.000000e+00
   outer loop
     vertex  1.687831e-01 -2.968254e-01  9.682540e-01
     vertex -2.968254e-01 -2.968254e-01  9.841270e-01
     vertex -2.968254e-01 -2.968254e-01  9.682540e-01
   endloop
 endfacet
 facet normal  0.000000e+00 -1.000000e+00  0.000000e+00
   outer loop
     vertex  1.687831e-01 -2.968254e-01  9.682540e-01
     vertex  1.687831e-01 -2.968254e-01  9.841270e-01
     vertex -2.968254e-01 -2.968254e-01  9.841270e-01
   endloop
 endfacet
 facet normal  1.000000e+00  0.000000e+00  0.000000e+00
   outer loop
     vertex  1.687831e-01  1.687831e-01  9.682540e-01
     vertex  1.687831e-01 -2.968254e-01  9.841270e-01
     vertex  1.687831e-01 -2.968254e-01  9.682540e-01
   endloop
 endfacet
 facet normal  1.000000e+00  0.000000e+00 -0.000000e+00
   outer loop
     vertex  1.687831e-01  1.687831e-01  9.682540e-01
     vertex  1.687831e-01  1.687831e-01  9.841270e-01
     vertex  1.687831e-01 -2.968254e-01  9.841270e-01
   endloop
 endfacet
 facet normal  0.000000e+00  1.000000e+00  0.000000e+00
   outer loop
     vertex -2.968254e-01  1.687831e-01  9.682540e-01
     vertex  1.687831e-01  1.687831e-01  9.841270e-01
     vertex  1.687831e-01  1.687831e-01  9.682540e-01
   endloop
 endfacet
 facet normal  0.000000e+00  1.000000e+00  0.000000e+00
   outer loop
     vertex -2.968254e-01  1.687831e-01  9.682540e-01
     vertex -2.968254e-01  1.687831e-01  9.841270e-01
     vertex  1.687831e-01  1.687831e-01  9.841270e-01
   endloop
 endfacet
 facet normal -1.000000e+00  0.000000e+00  0.000000e+00
   outer loop
     vertex -2.968254e-01 -2.968254e-01  9.682540e-01
     vertex -2.968254e-01  1.687831e-01  9.841270e-01
     vertex -2.968254e-01  1.687831e-01  9.682540e-01
   endloop
 endfacet
 facet normal -1.000000e+00  0.000000e+00  0.000000e+00
   outer loop
     vertex -2.968254e-01 -2.968254e-01  9.682540e-01
     vertex -2.968254e-01 -2.968254e-01  9.841270e-01
     vertex -2.968254e-01  1.687831e-01  9.841270e-01
   endloop
 endfacet
 facet normal  0.000000e+00  0.000000e+00  1.000000e+00
   outer loop
     vertex  1.687831e-01  1.687831e-01  9.841270e-01
     vertex -2.968254e-01 -2.968254e-01  9.841270e-01
     vertex  1.687831e-01 -2.968254e-01  9.841270e-01
   endloop
 endfacet
 facet normal  0.000000e+00  0.000000e+00  1.000000e+00
   outer loop
     vertex  1.687831e-01  1.687831e-01  9.841270e-01
     vertex -2.968254e-01  1.687831e-01  9.841270e-01
     vertex -2.968254e-01 -2.968254e-01  9.841270e-01
   endloop
 endfacet
endsolid
