solid 
 facet normal  0.000000e+00 -1.000000e+00  0.000000e+00
   outer loop
     vertex  7.883604e-02 -2.079365e-01 -1.587302e-02
     vertex -2.146384e-01 -2.079365e-01  6.000000e-08
     vertex -2.146384e-01 -2.079365e-01 -1.587302e-02
   endloop
 endfacet
 facet normal  0.000000e+00 -1.000000e+00  0.000000e+00
   outer loop
     vertex  7.883604e-02 -2.079365e-01 -1.587302e-02
     vertex  7.883604e-02 -2.079365e-01  6.000000e-08
     vertex -2.146384e-01 -2.079365e-01  6.000000e-08
   endloop
 endfacet
 facet normal -1.000000e+00  0.000000e+00  0.000000e+00
   outer loop
     vertex -2.146384e-01 -2.079365e-01 -1.587302e-02
     vertex -2.146384e-01  9.292769e-01  6.000000e-08
     vertex -2.146384e-01  9.292769e-01 -1.587302e-02
   endloop
 endfacet
 facet normal -1.000000e+00  0.000000e+00  0.000000e+00
   outer loop
     vertex -2.146384e-01 -2.079365e-01 -1.587302e-02
     vertex -2.146384e-01 -2.079365e-01  6.000000e-08
     vertex -2.146384e-01  9.292769e-01  6.000000e-08
   endloop
 endfacet
 facet normal  1.000000e+00  0.000000e+00  0.000000e+00
   outer loop
     vertex  7.883604e-02  9.292769e-01 -1.587302e-02
     vertex  7.883604e-02 -2.079365e-01  6.000000e-08
     vertex  7.883604e-02 -2.079365e-01 -1.587302e-02
   endloop
 endfacet
 facet normal  1.000000e+00  0.000000e+00 -0.000000e+00
   outer loop
     vertex  7.883604e-02  9.292769e-01 -1.587302e-02
     vertex  7.883604e-02  9.292769e-01  6.000000e-08
     vertex  7.883604e-02 -2.079365e-01  6.000000e-08
   endloop
 endfacet
 facet normal -0.000000e+00 -1.000000e+00  0.000000e+00
   outer loop
     vertex  7.883604e-02 -2.079365e-01 -1.587302e-02
     vertex -2.146384e-01 -2.079365e-01 -1.587302e-02
     vertex -2.146384e-01 -2.079365e-01 -3.174603e-02
   endloop
 endfacet
 facet normal  0.000000e+00 -1.000000e+00 -0.000000e+00
   outer loop
     vertex  7.883604e-02 -2.079365e-01 -1.587302e-02
     vertex -2.146384e-01 -2.079365e-01 -3.174603e-02
     vertex  7.883604e-02 -2.079365e-01 -3.174603e-02
   endloop
 endfacet
 facet normal  0.000000e+00  0.000000e+00  1.000000e+00
   outer loop
     vertex -6.789938e-02 -5.915736e-02  6.000000e-08
     vertex -7.069996e-02 -5.667627e-02  6.000000e-08
     vertex -2.146384e-01 -2.079365e-01  6.000000e-08
   endloop
 endfacet
 facet normal  0.000000e+00  0.000000e+00  1.000000e+00
   outer loop
     vertex -7.282539e-02 -5.359706e-02  6.000000e-08
     vertex -2.146384e-01 -2.079365e-01  6.000000e-08
     vertex -7.069996e-02 -5.667627e-02  6.000000e-08
   endloop
 endfacet
 facet normal  0.000000e+00  0.000000e+00  1.000000e+00
   outer loop
     vertex -6.458643e-02 -6.089614e-02  6.000000e-08
     vertex -6.789938e-02 -5.915736e-02  6.000000e-08
     vertex -2.146384e-01 -2.079365e-01  6.000000e-08
   endloop
 endfacet
 facet normal  0.000000e+00  0.000000e+00  1.000000e+00
   outer loop
     vertex -7.415215e-02 -5.009867e-02  6.000000e-08
     vertex -2.146384e-01 -2.079365e-01  6.000000e-08
     vertex -7.282539e-02 -5.359706e-02  6.000000e-08
   endloop
 endfacet
 facet normal  0.000000e+00  0.000000e+00  1.000000e+00
   outer loop
     vertex -6.095362e-02 -6.179154e-02  6.000000e-08
     vertex -2.146384e-01 -2.079365e-01  6.000000e-08
     vertex  7.883604e-02 -2.079365e-01  6.000000e-08
   endloop
 endfacet
 facet normal  0.000000e+00  0.000000e+00  1.000000e+00
   outer loop
     vertex -6.095362e-02 -6.179154e-02  6.000000e-08
     vertex -6.458643e-02 -6.089614e-02  6.000000e-08
     vertex -2.146384e-01 -2.079365e-01  6.000000e-08
   endloop
 endfacet
 facet normal  0.000000e+00  0.000000e+00  1.000000e+00
   outer loop
     vertex -7.460314e-02 -4.638442e-02  6.000000e-08
     vertex -2.146384e-01 -2.079365e-01  6.000000e-08
     vertex -7.415215e-02 -5.009867e-02  6.000000e-08
   endloop
 endfacet
 facet normal  0.000000e+00  0.000000e+00  1.000000e+00
   outer loop
     vertex -5.721210e-02 -6.179154e-02  6.000000e-08
     vertex -6.095362e-02 -6.179154e-02  6.000000e-08
     vertex  7.883604e-02 -2.079365e-01  6.000000e-08
   endloop
 endfacet
 facet normal  0.000000e+00  0.000000e+00  1.000000e+00
   outer loop
     vertex -7.415215e-02 -4.267017e-02  6.000000e-08
     vertex -2.146384e-01 -2.079365e-01  6.000000e-08
     vertex -7.460314e-02 -4.638442e-02  6.000000e-08
   endloop
 endfacet
 facet normal  0.000000e+00  0.000000e+00  1.000000e+00
   outer loop
     vertex -5.357929e-02 -6.089614e-02  6.000000e-08
     vertex -5.721210e-02 -6.179154e-02  6.000000e-08
     vertex  7.883604e-02 -2.079365e-01  6.000000e-08
   endloop
 endfacet
 facet normal  0.000000e+00  0.000000e+00  1.000000e+00
   outer loop
     vertex -7.282539e-02 -3.917179e-02  6.000000e-08
     vertex -2.146384e-01 -2.079365e-01  6.000000e-08
     vertex -7.415215e-02 -4.267017e-02  6.000000e-08
   endloop
 endfacet
 facet normal  0.000000e+00  0.000000e+00  1.000000e+00
   outer loop
     vertex -5.026633e-02 -5.915736e-02  6.000000e-08
     vertex -5.357929e-02 -6.089614e-02  6.000000e-08
     vertex  7.883604e-02 -2.079365e-01  6.000000e-08
   endloop
 endfacet
 facet normal  0.000000e+00  0.000000e+00  1.000000e+00
   outer loop
     vertex -4.746576e-02 -5.667627e-02  6.000000e-08
     vertex -5.026633e-02 -5.915736e-02  6.000000e-08
     vertex  7.883604e-02 -2.079365e-01  6.000000e-08
   endloop
 endfacet
 facet normal  0.000000e+00  0.000000e+00  1.000000e+00
   outer loop
     vertex -4.534033e-02 -5.359706e-02  6.000000e-08
     vertex -4.746576e-02 -5.667627e-02  6.000000e-08
     vertex  7.883604e-02 -2.079365e-01  6.000000e-08
   endloop
 endfacet
 facet normal  0.000000e+00  0.000000e+00  1.000000e+00
   outer loop
     vertex -4.401357e-02 -5.009867e-02  6.000000e-08
     vertex -4.534033e-02 -5.359706e-02  6.000000e-08
     vertex  7.883604e-02 -2.079365e-01  6.000000e-08
   endloop
 endfacet
 facet normal  0.000000e+00  0.000000e+00  1.000000e+00
   outer loop
     vertex -4.356258e-02 -4.638442e-02  6.000000e-08
     vertex -4.401357e-02 -5.009867e-02  6.000000e-08
     vertex  7.883604e-02 -2.079365e-01  6.000000e-08
   endloop
 endfacet
 facet normal  0.000000e+00  0.000000e+00  1.000000e+00
   outer loop
     vertex -4.401357e-02 -4.267017e-02  6.000000e-08
     vertex -4.356258e-02 -4.638442e-02  6.000000e-08
     vertex  7.883604e-02 -2.079365e-01  6.000000e-08
   endloop
 endfacet
 facet normal  0.000000e+00  0.000000e+00  1.000000e+00
   outer loop
     vertex -4.534033e-02 -3.917179e-02  6.000000e-08
     vertex -4.401357e-02 -4.267017e-02  6.000000e-08
     vertex  7.883604e-02 -2.079365e-01  6.000000e-08
   endloop
 endfacet
 facet normal  0.000000e+00  0.000000e+00  1.000000e+00
   outer loop
     vertex -2.146384e-01  9.292769e-01  6.000000e-08
     vertex -6.458643e-02 -3.187270e-02  6.000000e-08
     vertex -6.095362e-02 -3.097730e-02  6.000000e-08
   endloop
 endfacet
 facet normal  0.000000e+00  0.000000e+00  1.000000e+00
   outer loop
     vertex -2.146384e-01  9.292769e-01  6.000000e-08
     vertex -6.789938e-02 -3.361148e-02  6.000000e-08
     vertex -6.458643e-02 -3.187270e-02  6.000000e-08
   endloop
 endfacet
 facet normal  0.000000e+00  0.000000e+00  1.000000e+00
   outer loop
     vertex -2.146384e-01  9.292769e-01  6.000000e-08
     vertex -7.069996e-02 -3.609257e-02  6.000000e-08
     vertex -6.789938e-02 -3.361148e-02  6.000000e-08
   endloop
 endfacet
 facet normal  0.000000e+00  0.000000e+00  1.000000e+00
   outer loop
     vertex -2.146384e-01  9.292769e-01  6.000000e-08
     vertex -7.282539e-02 -3.917179e-02  6.000000e-08
     vertex -7.069996e-02 -3.609257e-02  6.000000e-08
   endloop
 endfacet
 facet normal  0.000000e+00  0.000000e+00  1.000000e+00
   outer loop
     vertex -2.146384e-01  9.292769e-01  6.000000e-08
     vertex -2.146384e-01 -2.079365e-01  6.000000e-08
     vertex -7.282539e-02 -3.917179e-02  6.000000e-08
   endloop
 endfacet
 facet normal  0.000000e+00  0.000000e+00  1.000000e+00
   outer loop
     vertex  7.883604e-02  9.292769e-01  6.000000e-08
     vertex -4.746576e-02 -3.609257e-02  6.000000e-08
     vertex -4.534033e-02 -3.917179e-02  6.000000e-08
   endloop
 endfacet
 facet normal  0.000000e+00  0.000000e+00  1.000000e+00
   outer loop
     vertex  7.883604e-02  9.292769e-01  6.000000e-08
     vertex -5.026633e-02 -3.361148e-02  6.000000e-08
     vertex -4.746576e-02 -3.609257e-02  6.000000e-08
   endloop
 endfacet
 facet normal  0.000000e+00  0.000000e+00  1.000000e+00
   outer loop
     vertex  7.883604e-02  9.292769e-01  6.000000e-08
     vertex -5.357929e-02 -3.187270e-02  6.000000e-08
     vertex -5.026633e-02 -3.361148e-02  6.000000e-08
   endloop
 endfacet
 facet normal  0.000000e+00  0.000000e+00  1.000000e+00
   outer loop
     vertex  7.883604e-02  9.292769e-01  6.000000e-08
     vertex -5.721210e-02 -3.097730e-02  6.000000e-08
     vertex -5.357929e-02 -3.187270e-02  6.000000e-08
   endloop
 endfacet
 facet normal  0.000000e+00  0.000000e+00  1.000000e+00
   outer loop
     vertex  7.883604e-02  9.292769e-01  6.000000e-08
     vertex -6.095362e-02 -3.097730e-02  6.000000e-08
     vertex -5.721210e-02 -3.097730e-02  6.000000e-08
   endloop
 endfacet
 facet normal  0.000000e+00  0.000000e+00  1.000000e+00
   outer loop
     vertex  7.883604e-02  9.292769e-01  6.000000e-08
     vertex -4.534033e-02 -3.917179e-02  6.000000e-08
     vertex  7.883604e-02 -2.079365e-01  6.000000e-08
   endloop
 endfacet
 facet normal  0.000000e+00  0.000000e+00  1.000000e+00
   outer loop
     vertex  7.883604e-02  9.292769e-01  6.000000e-08
     vertex -2.146384e-01  9.292769e-01  6.000000e-08
     vertex -6.095362e-02 -3.097730e-02  6.000000e-08
   endloop
 endfacet
 facet normal  0.000000e+00  1.000000e+00  0.000000e+00
   outer loop
     vertex -2.146384e-01  9.292769e-01 -1.587302e-02
     vertex  7.883604e-02  9.292769e-01  6.000000e-08
     vertex  7.883604e-02  9.292769e-01 -1.587302e-02
   endloop
 endfacet
 facet normal  0.000000e+00  1.000000e+00  0.000000e+00
   outer loop
     vertex -2.146384e-01  9.292769e-01 -1.587302e-02
     vertex -2.146384e-01  9.292769e-01  6.000000e-08
     vertex  7.883604e-02  9.292769e-01  6.000000e-08
   endloop
 endfacet
 facet normal -1.000000e+00  0.000000e+00  0.000000e+00
   outer loop
     vertex -2.146384e-01 -2.079365e-01 -1.587302e-02
     vertex -2.146384e-01  9.292769e-01 -1.587302e-02
     vertex -2.146384e-01  9.292769e-01 -3.174603e-02
   endloop
 endfacet
 facet normal -1.000000e+00  0.000000e+00  0.000000e+00
   outer loop
     vertex -2.146384e-01 -2.079365e-01 -1.587302e-02
     vertex -2.146384e-01  9.292769e-01 -3.174603e-02
     vertex -2.146384e-01 -2.079365e-01 -3.174603e-02
   endloop
 endfacet
 facet normal  1.000000e+00  0.000000e+00  0.000000e+00
   outer loop
     vertex  7.883604e-02  9.292769e-01 -1.587302e-02
     vertex  7.883604e-02 -2.079365e-01 -1.587302e-02
     vertex  7.883604e-02 -2.079365e-01 -3.174603e-02
   endloop
 endfacet
 facet normal  1.000000e+00  0.000000e+00  0.000000e+00
   outer loop
     vertex  7.883604e-02  9.292769e-01 -1.587302e-02
     vertex  7.883604e-02 -2.079365e-01 -3.174603e-02
     vertex  7.883604e-02  9.292769e-01 -3.174603e-02
   endloop
 endfacet
 facet normal -0.000000e+00  0.000000e+00 -1.000000e+00
   outer loop
     vertex -6.789938e-02 -5.915736e-02 -3.174603e-02
     vertex -2.146384e-01 -2.079365e-01 -3.174603e-02
     vertex -7.069996e-02 -5.667627e-02 -3.174603e-02
   endloop
 endfacet
 facet normal  0.000000e+00 -0.000000e+00 -1.000000e+00
   outer loop
     vertex -7.282539e-02 -5.359706e-02 -3.174603e-02
     vertex -7.069996e-02 -5.667627e-02 -3.174603e-02
     vertex -2.146384e-01 -2.079365e-01 -3.174603e-02
   endloop
 endfacet
 facet normal -0.000000e+00  0.000000e+00 -1.000000e+00
   outer loop
     vertex -6.458643e-02 -6.089614e-02 -3.174603e-02
     vertex -2.146384e-01 -2.079365e-01 -3.174603e-02
     vertex -6.789938e-02 -5.915736e-02 -3.174603e-02
   endloop
 endfacet
 facet normal  0.000000e+00 -0.000000e+00 -1.000000e+00
   outer loop
     vertex -7.415215e-02 -5.009867e-02 -3.174603e-02
     vertex -7.282539e-02 -5.359706e-02 -3.174603e-02
     vertex -2.146384e-01 -2.079365e-01 -3.174603e-02
   endloop
 endfacet
 facet normal  0.000000e+00 -0.000000e+00 -1.000000e+00
   outer loop
     vertex -6.095362e-02 -6.179154e-02 -3.174603e-02
     vertex  7.883604e-02 -2.079365e-01 -3.174603e-02
     vertex -2.146384e-01 -2.079365e-01 -3.174603e-02
   endloop
 endfacet
 facet normal -0.000000e+00  0.000000e+00 -1.000000e+00
   outer loop
     vertex -6.095362e-02 -6.179154e-02 -3.174603e-02
     vertex -2.146384e-01 -2.079365e-01 -3.174603e-02
     vertex -6.458643e-02 -6.089614e-02 -3.174603e-02
   endloop
 endfacet
 facet normal  0.000000e+00 -0.000000e+00 -1.000000e+00
   outer loop
     vertex -7.460314e-02 -4.638442e-02 -3.174603e-02
     vertex -7.415215e-02 -5.009867e-02 -3.174603e-02
     vertex -2.146384e-01 -2.079365e-01 -3.174603e-02
   endloop
 endfacet
 facet normal -0.000000e+00 -0.000000e+00 -1.000000e+00
   outer loop
     vertex -5.721210e-02 -6.179154e-02 -3.174603e-02
     vertex  7.883604e-02 -2.079365e-01 -3.174603e-02
     vertex -6.095362e-02 -6.179154e-02 -3.174603e-02
   endloop
 endfacet
 facet normal  0.000000e+00  0.000000e+00 -1.000000e+00
   outer loop
     vertex -7.415215e-02 -4.267017e-02 -3.174603e-02
     vertex -7.460314e-02 -4.638442e-02 -3.174603e-02
     vertex -2.146384e-01 -2.079365e-01 -3.174603e-02
   endloop
 endfacet
 facet normal  0.000000e+00 -0.000000e+00 -1.000000e+00
   outer loop
     vertex -5.357929e-02 -6.089614e-02 -3.174603e-02
     vertex  7.883604e-02 -2.079365e-01 -3.174603e-02
     vertex -5.721210e-02 -6.179154e-02 -3.174603e-02
   endloop
 endfacet
 facet normal  0.000000e+00  0.000000e+00 -1.000000e+00
   outer loop
     vertex -7.282539e-02 -3.917179e-02 -3.174603e-02
     vertex -7.415215e-02 -4.267017e-02 -3.174603e-02
     vertex -2.146384e-01 -2.079365e-01 -3.174603e-02
   endloop
 endfacet
 facet normal  0.000000e+00 -0.000000e+00 -1.000000e+00
   outer loop
     vertex -5.026633e-02 -5.915736e-02 -3.174603e-02
     vertex  7.883604e-02 -2.079365e-01 -3.174603e-02
     vertex -5.357929e-02 -6.089614e-02 -3.174603e-02
   endloop
 endfacet
 facet normal  0.000000e+00 -0.000000e+00 -1.000000e+00
   outer loop
     vertex -4.746576e-02 -5.667627e-02 -3.174603e-02
     vertex  7.883604e-02 -2.079365e-01 -3.174603e-02
     vertex -5.026633e-02 -5.915736e-02 -3.174603e-02
   endloop
 endfacet
 facet normal  0.000000e+00 -0.000000e+00 -1.000000e+00
   outer loop
     vertex -4.534033e-02 -5.359706e-02 -3.174603e-02
     vertex  7.883604e-02 -2.079365e-01 -3.174603e-02
     vertex -4.746576e-02 -5.667627e-02 -3.174603e-02
   endloop
 endfacet
 facet normal  0.000000e+00 -0.000000e+00 -1.000000e+00
   outer loop
     vertex -4.401357e-02 -5.009867e-02 -3.174603e-02
     vertex  7.883604e-02 -2.079365e-01 -3.174603e-02
     vertex -4.534033e-02 -5.359706e-02 -3.174603e-02
   endloop
 endfacet
 facet normal  0.000000e+00 -0.000000e+00 -1.000000e+00
   outer loop
     vertex -4.356258e-02 -4.638442e-02 -3.174603e-02
     vertex  7.883604e-02 -2.079365e-01 -3.174603e-02
     vertex -4.401357e-02 -5.009867e-02 -3.174603e-02
   endloop
 endfacet
 facet normal  0.000000e+00  0.000000e+00 -1.000000e+00
   outer loop
     vertex -4.401357e-02 -4.267017e-02 -3.174603e-02
     vertex  7.883604e-02 -2.079365e-01 -3.174603e-02
     vertex -4.356258e-02 -4.638442e-02 -3.174603e-02
   endloop
 endfacet
 facet normal  0.000000e+00  0.000000e+00 -1.000000e+00
   outer loop
     vertex -4.534033e-02 -3.917179e-02 -3.174603e-02
     vertex  7.883604e-02 -2.079365e-01 -3.174603e-02
     vertex -4.401357e-02 -4.267017e-02 -3.174603e-02
   endloop
 endfacet
 facet normal  0.000000e+00  0.000000e+00 -1.000000e+00
   outer loop
     vertex -2.146384e-01  9.292769e-01 -3.174603e-02
     vertex -6.095362e-02 -3.097730e-02 -3.174603e-02
     vertex -6.458643e-02 -3.187270e-02 -3.174603e-02
   endloop
 endfacet
 facet normal  0.000000e+00  0.000000e+00 -1.000000e+00
   outer loop
     vertex -2.146384e-01  9.292769e-01 -3.174603e-02
     vertex -6.458643e-02 -3.187270e-02 -3.174603e-02
     vertex -6.789938e-02 -3.361148e-02 -3.174603e-02
   endloop
 endfacet
 facet normal  0.000000e+00  0.000000e+00 -1.000000e+00
   outer loop
     vertex -2.146384e-01  9.292769e-01 -3.174603e-02
     vertex -6.789938e-02 -3.361148e-02 -3.174603e-02
     vertex -7.069996e-02 -3.609257e-02 -3.174603e-02
   endloop
 endfacet
 facet normal  0.000000e+00  0.000000e+00 -1.000000e+00
   outer loop
     vertex -2.146384e-01  9.292769e-01 -3.174603e-02
     vertex -7.069996e-02 -3.609257e-02 -3.174603e-02
     vertex -7.282539e-02 -3.917179e-02 -3.174603e-02
   endloop
 endfacet
 facet normal  0.000000e+00  0.000000e+00 -1.000000e+00
   outer loop
     vertex -2.146384e-01  9.292769e-01 -3.174603e-02
     vertex -7.282539e-02 -3.917179e-02 -3.174603e-02
     vertex -2.146384e-01 -2.079365e-01 -3.174603e-02
   endloop
 endfacet
 facet normal  0.000000e+00  0.000000e+00 -1.000000e+00
   outer loop
     vertex  7.883604e-02  9.292769e-01 -3.174603e-02
     vertex -4.534033e-02 -3.917179e-02 -3.174603e-02
     vertex -4.746576e-02 -3.609257e-02 -3.174603e-02
   endloop
 endfacet
 facet normal  0.000000e+00  0.000000e+00 -1.000000e+00
   outer loop
     vertex  7.883604e-02  9.292769e-01 -3.174603e-02
     vertex -4.746576e-02 -3.609257e-02 -3.174603e-02
     vertex -5.026633e-02 -3.361148e-02 -3.174603e-02
   endloop
 endfacet
 facet normal  0.000000e+00  0.000000e+00 -1.000000e+00
   outer loop
     vertex  7.883604e-02  9.292769e-01 -3.174603e-02
     vertex -5.026633e-02 -3.361148e-02 -3.174603e-02
     vertex -5.357929e-02 -3.187270e-02 -3.174603e-02
   endloop
 endfacet
 facet normal  0.000000e+00  0.000000e+00 -1.000000e+00
   outer loop
     vertex  7.883604e-02  9.292769e-01 -3.174603e-02
     vertex -5.357929e-02 -3.187270e-02 -3.174603e-02
     vertex -5.721210e-02 -3.097730e-02 -3.174603e-02
   endloop
 endfacet
 facet normal  0.000000e+00  0.000000e+00 -1.000000e+00
   outer loop
     vertex  7.883604e-02  9.292769e-01 -3.174603e-02
     vertex -5.721210e-02 -3.097730e-02 -3.174603e-02
     vertex -6.095362e-02 -3.097730e-02 -3.174603e-02
   endloop
 endfacet
 facet normal  0.000000e+00 -0.000000e+00 -1.000000e+00
   outer loop
     vertex  7.883604e-02  9.292769e-01 -3.174603e-02
     vertex  7.883604e-02 -2.079365e-01 -3.174603e-02
     vertex -4.534033e-02 -3.917179e-02 -3.174603e-02
   endloop
 endfacet
 facet normal -0.000000e+00  0.000000e+00 -1.000000e+00
   outer loop
     vertex  7.883604e-02  9.292769e-01 -3.174603e-02
     vertex -6.095362e-02 -3.097730e-02 -3.174603e-02
     vertex -2.146384e-01  9.292769e-01 -3.174603e-02
   endloop
 endfacet
 facet normal -9.927089e-01 -1.205367e-01  0.000000e+00
   outer loop
     vertex -4.401357e-02 -4.267017e-02  6.000000e-08
     vertex -4.356258e-02 -4.638442e-02 -3.174603e-02
     vertex -4.356258e-02 -4.638442e-02  6.000000e-08
   endloop
 endfacet
 facet normal -9.927089e-01 -1.205367e-01 -0.000000e+00
   outer loop
     vertex -4.401357e-02 -4.267017e-02  6.000000e-08
     vertex -4.401357e-02 -4.267017e-02 -3.174603e-02
     vertex -4.356258e-02 -4.638442e-02 -3.174603e-02
   endloop
 endfacet
 facet normal -9.350162e-01 -3.546049e-01 -0.000000e+00
   outer loop
     vertex -4.534033e-02 -3.917179e-02  6.000000e-08
     vertex -4.534033e-02 -3.917179e-02 -3.174603e-02
     vertex -4.401357e-02 -4.267017e-02 -3.174603e-02
   endloop
 endfacet
 facet normal -9.350162e-01 -3.546049e-01  0.000000e+00
   outer loop
     vertex -4.534033e-02 -3.917179e-02  6.000000e-08
     vertex -4.401357e-02 -4.267017e-02 -3.174603e-02
     vertex -4.401357e-02 -4.267017e-02  6.000000e-08
   endloop
 endfacet
 facet normal -8.229839e-01 -5.680647e-01 -0.000000e+00
   outer loop
     vertex -4.746576e-02 -3.609257e-02  6.000000e-08
     vertex -4.746576e-02 -3.609257e-02 -3.174603e-02
     vertex -4.534033e-02 -3.917179e-02 -3.174603e-02
   endloop
 endfacet
 facet normal -8.229839e-01 -5.680647e-01  0.000000e+00
   outer loop
     vertex -4.746576e-02 -3.609257e-02  6.000000e-08
     vertex -4.534033e-02 -3.917179e-02 -3.174603e-02
     vertex -4.534033e-02 -3.917179e-02  6.000000e-08
   endloop
 endfacet
 facet normal -6.631227e-01 -7.485107e-01 -0.000000e+00
   outer loop
     vertex -5.026633e-02 -3.361148e-02  6.000000e-08
     vertex -5.026633e-02 -3.361148e-02 -3.174603e-02
     vertex -4.746576e-02 -3.609257e-02 -3.174603e-02
   endloop
 endfacet
 facet normal -6.631227e-01 -7.485107e-01  0.000000e+00
   outer loop
     vertex -5.026633e-02 -3.361148e-02  6.000000e-08
     vertex -4.746576e-02 -3.609257e-02 -3.174603e-02
     vertex -4.746576e-02 -3.609257e-02  6.000000e-08
   endloop
 endfacet
 facet normal -4.647232e-01 -8.854560e-01 -0.000000e+00
   outer loop
     vertex -5.357929e-02 -3.187270e-02  6.000000e-08
     vertex -5.357929e-02 -3.187270e-02 -3.174603e-02
     vertex -5.026633e-02 -3.361148e-02 -3.174603e-02
   endloop
 endfacet
 facet normal -4.647232e-01 -8.854560e-01  0.000000e+00
   outer loop
     vertex -5.357929e-02 -3.187270e-02  6.000000e-08
     vertex -5.026633e-02 -3.361148e-02 -3.174603e-02
     vertex -5.026633e-02 -3.361148e-02  6.000000e-08
   endloop
 endfacet
 facet normal -2.393157e-01 -9.709418e-01 -0.000000e+00
   outer loop
     vertex -5.721210e-02 -3.097730e-02  6.000000e-08
     vertex -5.721210e-02 -3.097730e-02 -3.174603e-02
     vertex -5.357929e-02 -3.187270e-02 -3.174603e-02
   endloop
 endfacet
 facet normal -2.393157e-01 -9.709418e-01  0.000000e+00
   outer loop
     vertex -5.721210e-02 -3.097730e-02  6.000000e-08
     vertex -5.357929e-02 -3.187270e-02 -3.174603e-02
     vertex -5.357929e-02 -3.187270e-02  6.000000e-08
   endloop
 endfacet
 facet normal  0.000000e+00 -1.000000e+00  0.000000e+00
   outer loop
     vertex -6.095362e-02 -3.097730e-02  6.000000e-08
     vertex -6.095362e-02 -3.097730e-02 -3.174603e-02
     vertex -5.721210e-02 -3.097730e-02 -3.174603e-02
   endloop
 endfacet
 facet normal  0.000000e+00 -1.000000e+00  0.000000e+00
   outer loop
     vertex -6.095362e-02 -3.097730e-02  6.000000e-08
     vertex -5.721210e-02 -3.097730e-02 -3.174603e-02
     vertex -5.721210e-02 -3.097730e-02  6.000000e-08
   endloop
 endfacet
 facet normal  2.393157e-01 -9.709418e-01  0.000000e+00
   outer loop
     vertex -6.458643e-02 -3.187270e-02  6.000000e-08
     vertex -6.458643e-02 -3.187270e-02 -3.174603e-02
     vertex -6.095362e-02 -3.097730e-02 -3.174603e-02
   endloop
 endfacet
 facet normal  2.393157e-01 -9.709418e-01  0.000000e+00
   outer loop
     vertex -6.458643e-02 -3.187270e-02  6.000000e-08
     vertex -6.095362e-02 -3.097730e-02 -3.174603e-02
     vertex -6.095362e-02 -3.097730e-02  6.000000e-08
   endloop
 endfacet
 facet normal  4.647232e-01 -8.854560e-01  0.000000e+00
   outer loop
     vertex -6.789938e-02 -3.361148e-02  6.000000e-08
     vertex -6.789938e-02 -3.361148e-02 -3.174603e-02
     vertex -6.458643e-02 -3.187270e-02 -3.174603e-02
   endloop
 endfacet
 facet normal  4.647232e-01 -8.854560e-01  0.000000e+00
   outer loop
     vertex -6.789938e-02 -3.361148e-02  6.000000e-08
     vertex -6.458643e-02 -3.187270e-02 -3.174603e-02
     vertex -6.458643e-02 -3.187270e-02  6.000000e-08
   endloop
 endfacet
 facet normal  6.631227e-01 -7.485107e-01  0.000000e+00
   outer loop
     vertex -7.069996e-02 -3.609257e-02  6.000000e-08
     vertex -7.069996e-02 -3.609257e-02 -3.174603e-02
     vertex -6.789938e-02 -3.361148e-02 -3.174603e-02
   endloop
 endfacet
 facet normal  6.631227e-01 -7.485107e-01  0.000000e+00
   outer loop
     vertex -7.069996e-02 -3.609257e-02  6.000000e-08
     vertex -6.789938e-02 -3.361148e-02 -3.174603e-02
     vertex -6.789938e-02 -3.361148e-02  6.000000e-08
   endloop
 endfacet
 facet normal  8.229839e-01 -5.680647e-01  0.000000e+00
   outer loop
     vertex -7.282539e-02 -3.917179e-02  6.000000e-08
     vertex -7.282539e-02 -3.917179e-02 -3.174603e-02
     vertex -7.069996e-02 -3.609257e-02 -3.174603e-02
   endloop
 endfacet
 facet normal  8.229839e-01 -5.680647e-01  0.000000e+00
   outer loop
     vertex -7.282539e-02 -3.917179e-02  6.000000e-08
     vertex -7.069996e-02 -3.609257e-02 -3.174603e-02
     vertex -7.069996e-02 -3.609257e-02  6.000000e-08
   endloop
 endfacet
 facet normal  9.350162e-01 -3.546049e-01  0.000000e+00
   outer loop
     vertex -7.415215e-02 -4.267017e-02  6.000000e-08
     vertex -7.282539e-02 -3.917179e-02 -3.174603e-02
     vertex -7.282539e-02 -3.917179e-02  6.000000e-08
   endloop
 endfacet
 facet normal  9.350162e-01 -3.546049e-01  0.000000e+00
   outer loop
     vertex -7.415215e-02 -4.267017e-02  6.000000e-08
     vertex -7.415215e-02 -4.267017e-02 -3.174603e-02
     vertex -7.282539e-02 -3.917179e-02 -3.174603e-02
   endloop
 endfacet
 facet normal  9.927089e-01 -1.205367e-01  0.000000e+00
   outer loop
     vertex -7.460314e-02 -4.638442e-02  6.000000e-08
     vertex -7.415215e-02 -4.267017e-02 -3.174603e-02
     vertex -7.415215e-02 -4.267017e-02  6.000000e-08
   endloop
 endfacet
 facet normal  9.927089e-01 -1.205367e-01  0.000000e+00
   outer loop
     vertex -7.460314e-02 -4.638442e-02  6.000000e-08
     vertex -7.460314e-02 -4.638442e-02 -3.174603e-02
     vertex -7.415215e-02 -4.267017e-02 -3.174603e-02
   endloop
 endfacet
 facet normal  9.927089e-01  1.205367e-01  0.000000e+00
   outer loop
     vertex -7.415215e-02 -5.009867e-02  6.000000e-08
     vertex -7.460314e-02 -4.638442e-02 -3.174603e-02
     vertex -7.460314e-02 -4.638442e-02  6.000000e-08
   endloop
 endfacet
 facet normal  9.927089e-01  1.205367e-01  0.000000e+00
   outer loop
     vertex -7.415215e-02 -5.009867e-02  6.000000e-08
     vertex -7.415215e-02 -5.009867e-02 -3.174603e-02
     vertex -7.460314e-02 -4.638442e-02 -3.174603e-02
   endloop
 endfacet
 facet normal  9.350162e-01  3.546049e-01  0.000000e+00
   outer loop
     vertex -7.282539e-02 -5.359706e-02  6.000000e-08
     vertex -7.415215e-02 -5.009867e-02 -3.174603e-02
     vertex -7.415215e-02 -5.009867e-02  6.000000e-08
   endloop
 endfacet
 facet normal  9.350162e-01  3.546049e-01  0.000000e+00
   outer loop
     vertex -7.282539e-02 -5.359706e-02  6.000000e-08
     vertex -7.282539e-02 -5.359706e-02 -3.174603e-02
     vertex -7.415215e-02 -5.009867e-02 -3.174603e-02
   endloop
 endfacet
 facet normal  8.229839e-01  5.680647e-01  0.000000e+00
   outer loop
     vertex -7.069996e-02 -5.667627e-02  6.000000e-08
     vertex -7.282539e-02 -5.359706e-02 -3.174603e-02
     vertex -7.282539e-02 -5.359706e-02  6.000000e-08
   endloop
 endfacet
 facet normal  8.229839e-01  5.680647e-01  0.000000e+00
   outer loop
     vertex -7.069996e-02 -5.667627e-02  6.000000e-08
     vertex -7.069996e-02 -5.667627e-02 -3.174603e-02
     vertex -7.282539e-02 -5.359706e-02 -3.174603e-02
   endloop
 endfacet
 facet normal  6.631227e-01  7.485107e-01  0.000000e+00
   outer loop
     vertex -6.789938e-02 -5.915736e-02  6.000000e-08
     vertex -7.069996e-02 -5.667627e-02 -3.174603e-02
     vertex -7.069996e-02 -5.667627e-02  6.000000e-08
   endloop
 endfacet
 facet normal  6.631227e-01  7.485107e-01  0.000000e+00
   outer loop
     vertex -6.789938e-02 -5.915736e-02  6.000000e-08
     vertex -6.789938e-02 -5.915736e-02 -3.174603e-02
     vertex -7.069996e-02 -5.667627e-02 -3.174603e-02
   endloop
 endfacet
 facet normal  4.647232e-01  8.854560e-01  0.000000e+00
   outer loop
     vertex -6.458643e-02 -6.089614e-02  6.000000e-08
     vertex -6.789938e-02 -5.915736e-02 -3.174603e-02
     vertex -6.789938e-02 -5.915736e-02  6.000000e-08
   endloop
 endfacet
 facet normal  4.647232e-01  8.854560e-01  0.000000e+00
   outer loop
     vertex -6.458643e-02 -6.089614e-02  6.000000e-08
     vertex -6.458643e-02 -6.089614e-02 -3.174603e-02
     vertex -6.789938e-02 -5.915736e-02 -3.174603e-02
   endloop
 endfacet
 facet normal  2.393157e-01  9.709418e-01  0.000000e+00
   outer loop
     vertex -6.095362e-02 -6.179154e-02  6.000000e-08
     vertex -6.458643e-02 -6.089614e-02 -3.174603e-02
     vertex -6.458643e-02 -6.089614e-02  6.000000e-08
   endloop
 endfacet
 facet normal  2.393157e-01  9.709418e-01  0.000000e+00
   outer loop
     vertex -6.095362e-02 -6.179154e-02  6.000000e-08
     vertex -6.095362e-02 -6.179154e-02 -3.174603e-02
     vertex -6.458643e-02 -6.089614e-02 -3.174603e-02
   endloop
 endfacet
 facet normal  1.854562e-15  1.000000e+00  0.000000e+00
   outer loop
     vertex -5.721210e-02 -6.179154e-02  6.000000e-08
     vertex -6.095362e-02 -6.179154e-02 -3.174603e-02
     vertex -6.095362e-02 -6.179154e-02  6.000000e-08
   endloop
 endfacet
 facet normal  1.854562e-15  1.000000e+00  0.000000e+00
   outer loop
     vertex -5.721210e-02 -6.179154e-02  6.000000e-08
     vertex -5.721210e-02 -6.179154e-02 -3.174603e-02
     vertex -6.095362e-02 -6.179154e-02 -3.174603e-02
   endloop
 endfacet
 facet normal -2.393157e-01  9.709418e-01  0.000000e+00
   outer loop
     vertex -5.357929e-02 -6.089614e-02  6.000000e-08
     vertex -5.721210e-02 -6.179154e-02 -3.174603e-02
     vertex -5.721210e-02 -6.179154e-02  6.000000e-08
   endloop
 endfacet
 facet normal -2.393157e-01  9.709418e-01  0.000000e+00
   outer loop
     vertex -5.357929e-02 -6.089614e-02  6.000000e-08
     vertex -5.357929e-02 -6.089614e-02 -3.174603e-02
     vertex -5.721210e-02 -6.179154e-02 -3.174603e-02
   endloop
 endfacet
 facet normal -4.647232e-01  8.854560e-01  0.000000e+00
   outer loop
     vertex -5.026633e-02 -5.915736e-02  6.000000e-08
     vertex -5.357929e-02 -6.089614e-02 -3.174603e-02
     vertex -5.357929e-02 -6.089614e-02  6.000000e-08
   endloop
 endfacet
 facet normal -4.647232e-01  8.854560e-01  0.000000e+00
   outer loop
     vertex -5.026633e-02 -5.915736e-02  6.000000e-08
     vertex -5.026633e-02 -5.915736e-02 -3.174603e-02
     vertex -5.357929e-02 -6.089614e-02 -3.174603e-02
   endloop
 endfacet
 facet normal -6.631227e-01  7.485107e-01  0.000000e+00
   outer loop
     vertex -4.746576e-02 -5.667627e-02  6.000000e-08
     vertex -5.026633e-02 -5.915736e-02 -3.174603e-02
     vertex -5.026633e-02 -5.915736e-02  6.000000e-08
   endloop
 endfacet
 facet normal -6.631227e-01  7.485107e-01  0.000000e+00
   outer loop
     vertex -4.746576e-02 -5.667627e-02  6.000000e-08
     vertex -4.746576e-02 -5.667627e-02 -3.174603e-02
     vertex -5.026633e-02 -5.915736e-02 -3.174603e-02
   endloop
 endfacet
 facet normal -8.229839e-01  5.680647e-01  0.000000e+00
   outer loop
     vertex -4.534033e-02 -5.359706e-02  6.000000e-08
     vertex -4.534033e-02 -5.359706e-02 -3.174603e-02
     vertex -4.746576e-02 -5.667627e-02 -3.174603e-02
   endloop
 endfacet
 facet normal -8.229839e-01  5.680647e-01  0.000000e+00
   outer loop
     vertex -4.534033e-02 -5.359706e-02  6.000000e-08
     vertex -4.746576e-02 -5.667627e-02 -3.174603e-02
     vertex -4.746576e-02 -5.667627e-02  6.000000e-08
   endloop
 endfacet
 facet normal -9.350162e-01  3.546049e-01  0.000000e+00
   outer loop
     vertex -4.534033e-02 -5.359706e-02  6.000000e-08
     vertex -4.401357e-02 -5.009867e-02 -3.174603e-02
     vertex -4.534033e-02 -5.359706e-02 -3.174603e-02
   endloop
 endfacet
 facet normal -9.350162e-01  3.546049e-01  0.000000e+00
   outer loop
     vertex -4.401357e-02 -5.009867e-02  6.000000e-08
     vertex -4.401357e-02 -5.009867e-02 -3.174603e-02
     vertex -4.534033e-02 -5.359706e-02  6.000000e-08
   endloop
 endfacet
 facet normal -9.927089e-01  1.205367e-01  0.000000e+00
   outer loop
     vertex -4.356258e-02 -4.638442e-02  6.000000e-08
     vertex -4.356258e-02 -4.638442e-02 -3.174603e-02
     vertex -4.401357e-02 -5.009867e-02 -3.174603e-02
   endloop
 endfacet
 facet normal -9.927089e-01  1.205367e-01  0.000000e+00
   outer loop
     vertex -4.356258e-02 -4.638442e-02  6.000000e-08
     vertex -4.401357e-02 -5.009867e-02 -3.174603e-02
     vertex -4.401357e-02 -5.009867e-02  6.000000e-08
   endloop
 endfacet
 facet normal -0.000000e+00  1.000000e+00  0.000000e+00
   outer loop
     vertex -2.146384e-01  9.292769e-01 -1.587302e-02
     vertex  7.883604e-02  9.292769e-01 -1.587302e-02
     vertex  7.883604e-02  9.292769e-01 -3.174603e-02
   endloop
 endfacet
 facet normal  0.000000e+00  1.000000e+00  0.000000e+00
   outer loop
     vertex -2.146384e-01  9.292769e-01 -1.587302e-02
     vertex  7.883604e-02  9.292769e-01 -3.174603e-02
     vertex -2.146384e-01  9.292769e-01 -3.174603e-02
   endloop
 endfacet
endsolid
