solid 
 facet normal  0.000000e+00 -1.000000e+00  0.000000e+00
   outer loop
     vertex -9.259251e-02 -4.805996e-01 -1.587302e-02
     vertex -6.202821e-01 -4.805996e-01  6.349212e-02
     vertex -6.202821e-01 -4.805996e-01 -1.587302e-02
   endloop
 endfacet
 facet normal  0.000000e+00 -1.000000e+00  0.000000e+00
   outer loop
     vertex -9.259251e-02 -4.805996e-01 -1.587302e-02
     vertex -9.259251e-02 -4.805996e-01  6.349212e-02
     vertex -6.202821e-01 -4.805996e-01  6.349212e-02
   endloop
 endfacet
 facet normal -1.000000e+00  0.000000e+00  0.000000e+00
   outer loop
     vertex -6.202821e-01 -4.805996e-01 -1.587302e-02
     vertex -6.202821e-01 -4.132274e-01  6.349212e-02
     vertex -6.202821e-01 -4.132274e-01 -1.587302e-02
   endloop
 endfacet
 facet normal -1.000000e+00  0.000000e+00  0.000000e+00
   outer loop
     vertex -6.202821e-01 -4.805996e-01 -1.587302e-02
     vertex -6.202821e-01 -4.805996e-01  6.349212e-02
     vertex -6.202821e-01 -4.132274e-01  6.349212e-02
   endloop
 endfacet
 facet normal  1.000000e+00  2.059870e-16  0.000000e+00
   outer loop
     vertex -9.259251e-02 -4.132274e-01 -1.587302e-02
     vertex -9.259251e-02 -4.805996e-01  6.349212e-02
     vertex -9.259251e-02 -4.805996e-01 -1.587302e-02
   endloop
 endfacet
 facet normal  1.000000e+00  2.059870e-16 -0.000000e+00
   outer loop
     vertex -9.259251e-02 -4.132274e-01 -1.587302e-02
     vertex -9.259251e-02 -4.132274e-01  6.349212e-02
     vertex -9.259251e-02 -4.805996e-01  6.349212e-02
   endloop
 endfacet
 facet normal -0.000000e+00 -1.000000e+00  0.000000e+00
   outer loop
     vertex -9.259251e-02 -4.805996e-01 -1.587302e-02
     vertex -6.202821e-01 -4.805996e-01 -1.587302e-02
     vertex -6.202821e-01 -4.805996e-01 -3.174603e-02
   endloop
 endfacet
 facet normal  0.000000e+00 -1.000000e+00 -0.000000e+00
   outer loop
     vertex -9.259251e-02 -4.805996e-01 -1.587302e-02
     vertex -6.202821e-01 -4.805996e-01 -3.174603e-02
     vertex -9.259251e-02 -4.805996e-01 -3.174603e-02
   endloop
 endfacet
 facet normal  0.000000e+00  0.000000e+00  1.000000e+00
   outer loop
     vertex -9.259251e-02 -4.132274e-01  6.349212e-02
     vertex -6.202821e-01 -4.132274e-01  6.349212e-02
     vertex -6.202821e-01 -4.805996e-01  6.349212e-02
   endloop
 endfacet
 facet normal  0.000000e+00  0.000000e+00  1.000000e+00
   outer loop
     vertex -9.259251e-02 -4.132274e-01  6.349212e-02
     vertex -6.202821e-01 -4.805996e-01  6.349212e-02
     vertex -9.259251e-02 -4.805996e-01  6.349212e-02
   endloop
 endfacet
 facet normal -1.000000e+00  0.000000e+00  0.000000e+00
   outer loop
     vertex -6.202821e-01 -4.805996e-01 -1.587302e-02
     vertex -6.202821e-01 -4.132274e-01 -1.587302e-02
     vertex -6.202821e-01 -4.132274e-01 -3.174603e-02
   endloop
 endfacet
 facet normal -1.000000e+00  0.000000e+00  0.000000e+00
   outer loop
     vertex -6.202821e-01 -4.805996e-01 -1.587302e-02
     vertex -6.202821e-01 -4.132274e-01 -3.174603e-02
     vertex -6.202821e-01 -4.805996e-01 -3.174603e-02
   endloop
 endfacet
 facet normal -4.219143e-16 -1.000000e+00  0.000000e+00
   outer loop
     vertex -6.202821e-01 -4.132274e-01 -1.587302e-02
     vertex -7.518519e-01 -4.132274e-01  6.349212e-02
     vertex -7.518519e-01 -4.132274e-01 -1.587302e-02
   endloop
 endfacet
 facet normal -4.219143e-16 -1.000000e+00  0.000000e+00
   outer loop
     vertex -6.202821e-01 -4.132274e-01 -1.587302e-02
     vertex -6.202821e-01 -4.132274e-01  6.349212e-02
     vertex -7.518519e-01 -4.132274e-01  6.349212e-02
   endloop
 endfacet
 facet normal  1.000000e+00  2.059870e-16  0.000000e+00
   outer loop
     vertex -9.259251e-02 -4.132274e-01 -1.587302e-02
     vertex -9.259251e-02 -4.805996e-01 -1.587302e-02
     vertex -9.259251e-02 -4.805996e-01 -3.174603e-02
   endloop
 endfacet
 facet normal  1.000000e+00  2.059870e-16  0.000000e+00
   outer loop
     vertex -9.259251e-02 -4.132274e-01 -1.587302e-02
     vertex -9.259251e-02 -4.805996e-01 -3.174603e-02
     vertex -9.259251e-02 -4.132274e-01 -3.174603e-02
   endloop
 endfacet
 facet normal  0.000000e+00 -1.000000e+00  0.000000e+00
   outer loop
     vertex  3.968263e-02 -4.132274e-01 -1.587302e-02
     vertex -9.259251e-02 -4.132274e-01  6.349212e-02
     vertex -9.259251e-02 -4.132274e-01 -1.587302e-02
   endloop
 endfacet
 facet normal  0.000000e+00 -1.000000e+00  0.000000e+00
   outer loop
     vertex  3.968263e-02 -4.132274e-01 -1.587302e-02
     vertex  3.968263e-02 -4.132274e-01  6.349212e-02
     vertex -9.259251e-02 -4.132274e-01  6.349212e-02
   endloop
 endfacet
 facet normal  0.000000e+00  0.000000e+00 -1.000000e+00
   outer loop
     vertex -9.259251e-02 -4.132274e-01 -3.174603e-02
     vertex -6.202821e-01 -4.805996e-01 -3.174603e-02
     vertex -6.202821e-01 -4.132274e-01 -3.174603e-02
   endloop
 endfacet
 facet normal  0.000000e+00 -0.000000e+00 -1.000000e+00
   outer loop
     vertex -9.259251e-02 -4.132274e-01 -3.174603e-02
     vertex -9.259251e-02 -4.805996e-01 -3.174603e-02
     vertex -6.202821e-01 -4.805996e-01 -3.174603e-02
   endloop
 endfacet
 facet normal  0.000000e+00  0.000000e+00  1.000000e+00
   outer loop
     vertex -9.259251e-02  8.439155e-01  6.349212e-02
     vertex -6.202821e-01  8.439155e-01  6.349212e-02
     vertex -6.202821e-01 -4.132274e-01  6.349212e-02
   endloop
 endfacet
 facet normal  0.000000e+00  0.000000e+00  1.000000e+00
   outer loop
     vertex -9.259251e-02  8.439155e-01  6.349212e-02
     vertex -6.202821e-01 -4.132274e-01  6.349212e-02
     vertex -9.259251e-02 -4.132274e-01  6.349212e-02
   endloop
 endfacet
 facet normal -4.219143e-16 -1.000000e+00  0.000000e+00
   outer loop
     vertex -6.202821e-01 -4.132274e-01 -1.587302e-02
     vertex -7.518519e-01 -4.132274e-01 -1.587302e-02
     vertex -7.518519e-01 -4.132274e-01 -3.174603e-02
   endloop
 endfacet
 facet normal -4.219143e-16 -1.000000e+00 -0.000000e+00
   outer loop
     vertex -6.202821e-01 -4.132274e-01 -1.587302e-02
     vertex -7.518519e-01 -4.132274e-01 -3.174603e-02
     vertex -6.202821e-01 -4.132274e-01 -3.174603e-02
   endloop
 endfacet
 facet normal  0.000000e+00  0.000000e+00  1.000000e+00
   outer loop
     vertex -6.202821e-01  8.439155e-01  6.349212e-02
     vertex -7.518519e-01  8.439155e-01  6.349212e-02
     vertex -7.518519e-01 -4.132274e-01  6.349212e-02
   endloop
 endfacet
 facet normal  0.000000e+00  0.000000e+00  1.000000e+00
   outer loop
     vertex -6.202821e-01  8.439155e-01  6.349212e-02
     vertex -7.518519e-01 -4.132274e-01  6.349212e-02
     vertex -6.202821e-01 -4.132274e-01  6.349212e-02
   endloop
 endfacet
 facet normal -1.000000e+00  0.000000e+00  0.000000e+00
   outer loop
     vertex -7.518519e-01 -4.132274e-01 -1.587302e-02
     vertex -7.518519e-01  8.439155e-01  6.349212e-02
     vertex -7.518519e-01  8.439155e-01 -1.587302e-02
   endloop
 endfacet
 facet normal -1.000000e+00  0.000000e+00  0.000000e+00
   outer loop
     vertex -7.518519e-01 -4.132274e-01 -1.587302e-02
     vertex -7.518519e-01 -4.132274e-01  6.349212e-02
     vertex -7.518519e-01  8.439155e-01  6.349212e-02
   endloop
 endfacet
 facet normal -0.000000e+00 -1.000000e+00  0.000000e+00
   outer loop
     vertex  3.968263e-02 -4.132274e-01 -1.587302e-02
     vertex -9.259251e-02 -4.132274e-01 -1.587302e-02
     vertex -9.259251e-02 -4.132274e-01 -3.174603e-02
   endloop
 endfacet
 facet normal  0.000000e+00 -1.000000e+00 -0.000000e+00
   outer loop
     vertex  3.968263e-02 -4.132274e-01 -1.587302e-02
     vertex -9.259251e-02 -4.132274e-01 -3.174603e-02
     vertex  3.968263e-02 -4.132274e-01 -3.174603e-02
   endloop
 endfacet
 facet normal  1.000000e+00  0.000000e+00  0.000000e+00
   outer loop
     vertex  3.968263e-02  8.439155e-01 -1.587302e-02
     vertex  3.968263e-02 -4.132274e-01  6.349212e-02
     vertex  3.968263e-02 -4.132274e-01 -1.587302e-02
   endloop
 endfacet
 facet normal  1.000000e+00  0.000000e+00 -0.000000e+00
   outer loop
     vertex  3.968263e-02  8.439155e-01 -1.587302e-02
     vertex  3.968263e-02  8.439155e-01  6.349212e-02
     vertex  3.968263e-02 -4.132274e-01  6.349212e-02
   endloop
 endfacet
 facet normal  0.000000e+00  0.000000e+00  1.000000e+00
   outer loop
     vertex  3.968263e-02  8.439155e-01  6.349212e-02
     vertex -9.259251e-02  8.439155e-01  6.349212e-02
     vertex -9.259251e-02 -4.132274e-01  6.349212e-02
   endloop
 endfacet
 facet normal  0.000000e+00  0.000000e+00  1.000000e+00
   outer loop
     vertex  3.968263e-02  8.439155e-01  6.349212e-02
     vertex -9.259251e-02 -4.132274e-01  6.349212e-02
     vertex  3.968263e-02 -4.132274e-01  6.349212e-02
   endloop
 endfacet
 facet normal  0.000000e+00  0.000000e+00 -1.000000e+00
   outer loop
     vertex -9.259251e-02  8.439155e-01 -3.174603e-02
     vertex -6.202821e-01 -4.132274e-01 -3.174603e-02
     vertex -6.202821e-01  8.439155e-01 -3.174603e-02
   endloop
 endfacet
 facet normal  0.000000e+00  0.000000e+00 -1.000000e+00
   outer loop
     vertex -9.259251e-02  8.439155e-01 -3.174603e-02
     vertex -9.259251e-02 -4.132274e-01 -3.174603e-02
     vertex -6.202821e-01 -4.132274e-01 -3.174603e-02
   endloop
 endfacet
 facet normal  0.000000e+00  0.000000e+00  1.000000e+00
   outer loop
     vertex -9.259251e-02  9.105821e-01  6.349212e-02
     vertex -6.202821e-01  9.105821e-01  6.349212e-02
     vertex -6.202821e-01  8.439155e-01  6.349212e-02
   endloop
 endfacet
 facet normal  0.000000e+00  0.000000e+00  1.000000e+00
   outer loop
     vertex -9.259251e-02  9.105821e-01  6.349212e-02
     vertex -6.202821e-01  8.439155e-01  6.349212e-02
     vertex -9.259251e-02  8.439155e-01  6.349212e-02
   endloop
 endfacet
 facet normal -0.000000e+00  0.000000e+00 -1.000000e+00
   outer loop
     vertex -6.202821e-01  8.439155e-01 -3.174603e-02
     vertex -7.518519e-01 -4.132274e-01 -3.174603e-02
     vertex -7.518519e-01  8.439155e-01 -3.174603e-02
   endloop
 endfacet
 facet normal  0.000000e+00 -0.000000e+00 -1.000000e+00
   outer loop
     vertex -6.202821e-01  8.439155e-01 -3.174603e-02
     vertex -6.202821e-01 -4.132274e-01 -3.174603e-02
     vertex -7.518519e-01 -4.132274e-01 -3.174603e-02
   endloop
 endfacet
 facet normal -1.000000e+00  0.000000e+00  0.000000e+00
   outer loop
     vertex -7.518519e-01 -4.132274e-01 -1.587302e-02
     vertex -7.518519e-01  8.439155e-01 -1.587302e-02
     vertex -7.518519e-01  8.439155e-01 -3.174603e-02
   endloop
 endfacet
 facet normal -1.000000e+00  0.000000e+00  0.000000e+00
   outer loop
     vertex -7.518519e-01 -4.132274e-01 -1.587302e-02
     vertex -7.518519e-01  8.439155e-01 -3.174603e-02
     vertex -7.518519e-01 -4.132274e-01 -3.174603e-02
   endloop
 endfacet
 facet normal  0.000000e+00  1.000000e+00  0.000000e+00
   outer loop
     vertex -7.518519e-01  8.439155e-01 -1.587302e-02
     vertex -6.202821e-01  8.439155e-01  6.349212e-02
     vertex -6.202821e-01  8.439155e-01 -1.587302e-02
   endloop
 endfacet
 facet normal  0.000000e+00  1.000000e+00  0.000000e+00
   outer loop
     vertex -7.518519e-01  8.439155e-01 -1.587302e-02
     vertex -7.518519e-01  8.439155e-01  6.349212e-02
     vertex -6.202821e-01  8.439155e-01  6.349212e-02
   endloop
 endfacet
 facet normal  1.000000e+00  0.000000e+00  0.000000e+00
   outer loop
     vertex  3.968263e-02  8.439155e-01 -1.587302e-02
     vertex  3.968263e-02 -4.132274e-01 -1.587302e-02
     vertex  3.968263e-02 -4.132274e-01 -3.174603e-02
   endloop
 endfacet
 facet normal  1.000000e+00  0.000000e+00  0.000000e+00
   outer loop
     vertex  3.968263e-02  8.439155e-01 -1.587302e-02
     vertex  3.968263e-02 -4.132274e-01 -3.174603e-02
     vertex  3.968263e-02  8.439155e-01 -3.174603e-02
   endloop
 endfacet
 facet normal -0.000000e+00  0.000000e+00 -1.000000e+00
   outer loop
     vertex  3.968263e-02  8.439155e-01 -3.174603e-02
     vertex -9.259251e-02 -4.132274e-01 -3.174603e-02
     vertex -9.259251e-02  8.439155e-01 -3.174603e-02
   endloop
 endfacet
 facet normal  0.000000e+00 -0.000000e+00 -1.000000e+00
   outer loop
     vertex  3.968263e-02  8.439155e-01 -3.174603e-02
     vertex  3.968263e-02 -4.132274e-01 -3.174603e-02
     vertex -9.259251e-02 -4.132274e-01 -3.174603e-02
   endloop
 endfacet
 facet normal  8.393286e-16  1.000000e+00  0.000000e+00
   outer loop
     vertex -9.259251e-02  8.439155e-01 -1.587302e-02
     vertex  3.968263e-02  8.439155e-01  6.349212e-02
     vertex  3.968263e-02  8.439155e-01 -1.587302e-02
   endloop
 endfacet
 facet normal  8.393286e-16  1.000000e+00 -0.000000e+00
   outer loop
     vertex -9.259251e-02  8.439155e-01 -1.587302e-02
     vertex -9.259251e-02  8.439155e-01  6.349212e-02
     vertex  3.968263e-02  8.439155e-01  6.349212e-02
   endloop
 endfacet
 facet normal -0.000000e+00  0.000000e+00 -1.000000e+00
   outer loop
     vertex -9.259251e-02  9.105821e-01 -3.174603e-02
     vertex -6.202821e-01  8.439155e-01 -3.174603e-02
     vertex -6.202821e-01  9.105821e-01 -3.174603e-02
   endloop
 endfacet
 facet normal  0.000000e+00 -0.000000e+00 -1.000000e+00
   outer loop
     vertex -9.259251e-02  9.105821e-01 -3.174603e-02
     vertex -9.259251e-02  8.439155e-01 -3.174603e-02
     vertex -6.202821e-01  8.439155e-01 -3.174603e-02
   endloop
 endfacet
 facet normal -1.000000e+00  0.000000e+00  0.000000e+00
   outer loop
     vertex -6.202821e-01  8.439155e-01 -1.587302e-02
     vertex -6.202821e-01  9.105821e-01  6.349212e-02
     vertex -6.202821e-01  9.105821e-01 -1.587302e-02
   endloop
 endfacet
 facet normal -1.000000e+00  0.000000e+00  0.000000e+00
   outer loop
     vertex -6.202821e-01  8.439155e-01 -1.587302e-02
     vertex -6.202821e-01  8.439155e-01  6.349212e-02
     vertex -6.202821e-01  9.105821e-01  6.349212e-02
   endloop
 endfacet
 facet normal  0.000000e+00  1.000000e+00  0.000000e+00
   outer loop
     vertex -6.202821e-01  9.105821e-01 -1.587302e-02
     vertex -9.259251e-02  9.105821e-01  6.349212e-02
     vertex -9.259251e-02  9.105821e-01 -1.587302e-02
   endloop
 endfacet
 facet normal  0.000000e+00  1.000000e+00  0.000000e+00
   outer loop
     vertex -6.202821e-01  9.105821e-01 -1.587302e-02
     vertex -6.202821e-01  9.105821e-01  6.349212e-02
     vertex -9.259251e-02  9.105821e-01  6.349212e-02
   endloop
 endfacet
 facet normal  1.000000e+00  0.000000e+00  0.000000e+00
   outer loop
     vertex -9.259251e-02  9.105821e-01 -1.587302e-02
     vertex -9.259251e-02  8.439155e-01  6.349212e-02
     vertex -9.259251e-02  8.439155e-01 -1.587302e-02
   endloop
 endfacet
 facet normal  1.000000e+00  0.000000e+00 -0.000000e+00
   outer loop
     vertex -9.259251e-02  9.105821e-01 -1.587302e-02
     vertex -9.259251e-02  9.105821e-01  6.349212e-02
     vertex -9.259251e-02  8.439155e-01  6.349212e-02
   endloop
 endfacet
 facet normal -0.000000e+00  1.000000e+00  0.000000e+00
   outer loop
     vertex -7.518519e-01  8.439155e-01 -1.587302e-02
     vertex -6.202821e-01  8.439155e-01 -1.587302e-02
     vertex -6.202821e-01  8.439155e-01 -3.174603e-02
   endloop
 endfacet
 facet normal  0.000000e+00  1.000000e+00  0.000000e+00
   outer loop
     vertex -7.518519e-01  8.439155e-01 -1.587302e-02
     vertex -6.202821e-01  8.439155e-01 -3.174603e-02
     vertex -7.518519e-01  8.439155e-01 -3.174603e-02
   endloop
 endfacet
 facet normal  8.393286e-16  1.000000e+00  0.000000e+00
   outer loop
     vertex -9.259251e-02  8.439155e-01 -1.587302e-02
     vertex  3.968263e-02  8.439155e-01 -1.587302e-02
     vertex  3.968263e-02  8.439155e-01 -3.174603e-02
   endloop
 endfacet
 facet normal  8.393286e-16  1.000000e+00  0.000000e+00
   outer loop
     vertex -9.259251e-02  8.439155e-01 -1.587302e-02
     vertex  3.968263e-02  8.439155e-01 -3.174603e-02
     vertex -9.259251e-02  8.439155e-01 -3.174603e-02
   endloop
 endfacet
 facet normal -1.000000e+00  0.000000e+00  0.000000e+00
   outer loop
     vertex -6.202821e-01  8.439155e-01 -1.587302e-02
     vertex -6.202821e-01  9.105821e-01 -1.587302e-02
     vertex -6.202821e-01  9.105821e-01 -3.174603e-02
   endloop
 endfacet
 facet normal -1.000000e+00  0.000000e+00  0.000000e+00
   outer loop
     vertex -6.202821e-01  8.439155e-01 -1.587302e-02
     vertex -6.202821e-01  9.105821e-01 -3.174603e-02
     vertex -6.202821e-01  8.439155e-01 -3.174603e-02
   endloop
 endfacet
 facet normal -0.000000e+00  1.000000e+00  0.000000e+00
   outer loop
     vertex -6.202821e-01  9.105821e-01 -1.587302e-02
     vertex -9.259251e-02  9.105821e-01 -1.587302e-02
     vertex -9.259251e-02  9.105821e-01 -3.174603e-02
   endloop
 endfacet
 facet normal  0.000000e+00  1.000000e+00  0.000000e+00
   outer loop
     vertex -6.202821e-01  9.105821e-01 -1.587302e-02
     vertex -9.259251e-02  9.105821e-01 -3.174603e-02
     vertex -6.202821e-01  9.105821e-01 -3.174603e-02
   endloop
 endfacet
 facet normal  1.000000e+00  0.000000e+00  0.000000e+00
   outer loop
     vertex -9.259251e-02  9.105821e-01 -1.587302e-02
     vertex -9.259251e-02  8.439155e-01 -1.587302e-02
     vertex -9.259251e-02  8.439155e-01 -3.174603e-02
   endloop
 endfacet
 facet normal  1.000000e+00  0.000000e+00  0.000000e+00
   outer loop
     vertex -9.259251e-02  9.105821e-01 -1.587302e-02
     vertex -9.259251e-02  8.439155e-01 -3.174603e-02
     vertex -9.259251e-02  9.105821e-01 -3.174603e-02
   endloop
 endfacet
endsolid
