solid 
 facet normal -0.000000e+00  0.000000e+00 -1.000000e+00
   outer loop
     vertex  8.968254e-01 -1.587302e-02 -1.058730e+00
     vertex -1.058730e+00 -3.809524e-01 -1.058730e+00
     vertex -1.058730e+00 -1.587302e-02 -1.058730e+00
   endloop
 endfacet
 facet normal  0.000000e+00 -0.000000e+00 -1.000000e+00
   outer loop
     vertex  8.968254e-01 -1.587302e-02 -1.058730e+00
     vertex  8.968254e-01 -3.809524e-01 -1.058730e+00
     vertex -1.058730e+00 -3.809524e-01 -1.058730e+00
   endloop
 endfacet
 facet normal -1.000000e+00  0.000000e+00  0.000000e+00
   outer loop
     vertex -1.058730e+00 -1.587302e-02 -1.058730e+00
     vertex -1.058730e+00 -3.809524e-01  8.968254e-01
     vertex -1.058730e+00 -1.587302e-02  8.968254e-01
   endloop
 endfacet
 facet normal -1.000000e+00  0.000000e+00  0.000000e+00
   outer loop
     vertex -1.058730e+00 -1.587302e-02 -1.058730e+00
     vertex -1.058730e+00 -3.809524e-01 -1.058730e+00
     vertex -1.058730e+00 -3.809524e-01  8.968254e-01
   endloop
 endfacet
 facet normal  1.000000e+00  0.000000e+00  0.000000e+00
   outer loop
     vertex  8.968254e-01 -1.587302e-02  8.968254e-01
     vertex  8.968254e-01 -3.809524e-01 -1.058730e+00
     vertex  8.968254e-01 -1.587302e-02 -1.058730e+00
   endloop
 endfacet
 facet normal  1.000000e+00  0.000000e+00  0.000000e+00
   outer loop
     vertex  8.968254e-01 -1.587302e-02  8.968254e-01
     vertex  8.968254e-01 -3.809524e-01  8.968254e-01
     vertex  8.968254e-01 -3.809524e-01 -1.058730e+00
   endloop
 endfacet
 facet normal  0.000000e+00  0.000000e+00 -1.000000e+00
   outer loop
     vertex  8.968254e-01 -1.587302e-02 -1.058730e+00
     vertex -1.058730e+00 -1.587302e-02 -1.058730e+00
     vertex -1.058730e+00  0.000000e+00 -1.058730e+00
   endloop
 endfacet
 facet normal  0.000000e+00  0.000000e+00 -1.000000e+00
   outer loop
     vertex  8.968254e-01 -1.587302e-02 -1.058730e+00
     vertex -1.058730e+00  0.000000e+00 -1.058730e+00
     vertex  8.968254e-01  0.000000e+00 -1.058730e+00
   endloop
 endfacet
 facet normal  0.000000e+00 -1.000000e+00 -0.000000e+00
   outer loop
     vertex  8.968254e-01 -3.809524e-01  8.968254e-01
     vertex -1.058730e+00 -3.809524e-01 -1.058730e+00
     vertex  8.968254e-01 -3.809524e-01 -1.058730e+00
   endloop
 endfacet
 facet normal -0.000000e+00 -1.000000e+00  0.000000e+00
   outer loop
     vertex  8.968254e-01 -3.809524e-01  8.968254e-01
     vertex -1.058730e+00 -3.809524e-01  8.968254e-01
     vertex -1.058730e+00 -3.809524e-01 -1.058730e+00
   endloop
 endfacet
 facet normal -0.000000e+00  0.000000e+00  1.000000e+00
   outer loop
     vertex -1.058730e+00 -1.587302e-02  8.968254e-01
     vertex  8.968254e-01 -3.809524e-01  8.968254e-01
     vertex  8.968254e-01 -1.587302e-02  8.968254e-01
   endloop
 endfacet
 facet normal  0.000000e+00  0.000000e+00  1.000000e+00
   outer loop
     vertex -1.058730e+00 -1.587302e-02  8.968254e-01
     vertex -1.058730e+00 -3.809524e-01  8.968254e-01
     vertex  8.968254e-01 -3.809524e-01  8.968254e-01
   endloop
 endfacet
 facet normal -1.000000e+00  0.000000e+00  0.000000e+00
   outer loop
     vertex -1.058730e+00 -1.587302e-02 -1.058730e+00
     vertex -1.058730e+00 -1.587302e-02  8.968254e-01
     vertex -1.058730e+00  0.000000e+00  8.968254e-01
   endloop
 endfacet
 facet normal -1.000000e+00  0.000000e+00  0.000000e+00
   outer loop
     vertex -1.058730e+00 -1.587302e-02 -1.058730e+00
     vertex -1.058730e+00  0.000000e+00  8.968254e-01
     vertex -1.058730e+00  0.000000e+00 -1.058730e+00
   endloop
 endfacet
 facet normal  1.000000e+00  0.000000e+00  0.000000e+00
   outer loop
     vertex  8.968254e-01 -1.587302e-02  8.968254e-01
     vertex  8.968254e-01 -1.587302e-02 -1.058730e+00
     vertex  8.968254e-01  0.000000e+00 -1.058730e+00
   endloop
 endfacet
 facet normal  1.000000e+00 -0.000000e+00  0.000000e+00
   outer loop
     vertex  8.968254e-01 -1.587302e-02  8.968254e-01
     vertex  8.968254e-01  0.000000e+00 -1.058730e+00
     vertex  8.968254e-01  0.000000e+00  8.968254e-01
   endloop
 endfacet
 facet normal  0.000000e+00  1.000000e+00  0.000000e+00
   outer loop
     vertex -4.078568e-01  0.000000e+00 -1.373546e-01
     vertex -3.932113e-01  0.000000e+00 -1.541177e-01
     vertex -1.058730e+00  0.000000e+00 -1.058730e+00
   endloop
 endfacet
 facet normal  0.000000e+00  1.000000e+00  0.000000e+00
   outer loop
     vertex -3.758081e-01  0.000000e+00 -1.679964e-01
     vertex -1.058730e+00  0.000000e+00 -1.058730e+00
     vertex -3.932113e-01  0.000000e+00 -1.541177e-01
   endloop
 endfacet
 facet normal  0.000000e+00  1.000000e+00  0.000000e+00
   outer loop
     vertex -4.192738e-01  0.000000e+00 -1.182459e-01
     vertex -4.078568e-01  0.000000e+00 -1.373546e-01
     vertex -1.058730e+00  0.000000e+00 -1.058730e+00
   endloop
 endfacet
 facet normal  0.000000e+00  1.000000e+00  0.000000e+00
   outer loop
     vertex -3.562063e-01  0.000000e+00 -1.785445e-01
     vertex -1.058730e+00  0.000000e+00 -1.058730e+00
     vertex -3.758081e-01  0.000000e+00 -1.679964e-01
   endloop
 endfacet
 facet normal  0.000000e+00  1.000000e+00  0.000000e+00
   outer loop
     vertex -4.270952e-01  0.000000e+00 -9.740560e-02
     vertex -4.192738e-01  0.000000e+00 -1.182459e-01
     vertex -1.058730e+00  0.000000e+00 -1.058730e+00
   endloop
 endfacet
 facet normal  0.000000e+00  1.000000e+00  0.000000e+00
   outer loop
     vertex -3.350361e-01  0.000000e+00 -1.854231e-01
     vertex -1.058730e+00  0.000000e+00 -1.058730e+00
     vertex -3.562063e-01  0.000000e+00 -1.785445e-01
   endloop
 endfacet
 facet normal  0.000000e+00  1.000000e+00  0.000000e+00
   outer loop
     vertex -4.310699e-01  0.000000e+00 -7.550368e-02
     vertex -4.270952e-01  0.000000e+00 -9.740560e-02
     vertex -1.058730e+00  0.000000e+00 -1.058730e+00
   endloop
 endfacet
 facet normal  0.000000e+00  1.000000e+00  0.000000e+00
   outer loop
     vertex -3.129780e-01  0.000000e+00 -1.884111e-01
     vertex -1.058730e+00  0.000000e+00 -1.058730e+00
     vertex -3.350361e-01  0.000000e+00 -1.854231e-01
   endloop
 endfacet
 facet normal  0.000000e+00  1.000000e+00  0.000000e+00
   outer loop
     vertex -2.907407e-01  0.000000e+00 -1.874124e-01
     vertex -1.058730e+00  0.000000e+00 -1.058730e+00
     vertex -3.129780e-01  0.000000e+00 -1.884111e-01
   endloop
 endfacet
 facet normal  0.000000e+00  1.000000e+00  0.000000e+00
   outer loop
     vertex -1.058730e+00  0.000000e+00  8.968254e-01
     vertex -2.907407e-01  0.000000e+00  5.866470e-02
     vertex -3.129780e-01  0.000000e+00  5.966337e-02
   endloop
 endfacet
 facet normal  0.000000e+00  1.000000e+00  0.000000e+00
   outer loop
     vertex -1.058730e+00  0.000000e+00  8.968254e-01
     vertex -3.129780e-01  0.000000e+00  5.966337e-02
     vertex -3.350361e-01  0.000000e+00  5.667539e-02
   endloop
 endfacet
 facet normal  0.000000e+00  1.000000e+00  0.000000e+00
   outer loop
     vertex -1.058730e+00  0.000000e+00  8.968254e-01
     vertex -3.350361e-01  0.000000e+00  5.667539e-02
     vertex -3.562063e-01  0.000000e+00  4.979678e-02
   endloop
 endfacet
 facet normal  0.000000e+00  1.000000e+00  0.000000e+00
   outer loop
     vertex -1.058730e+00  0.000000e+00  8.968254e-01
     vertex -3.562063e-01  0.000000e+00  4.979678e-02
     vertex -3.758081e-01  0.000000e+00  3.924864e-02
   endloop
 endfacet
 facet normal  0.000000e+00  1.000000e+00  0.000000e+00
   outer loop
     vertex -1.058730e+00  0.000000e+00  8.968254e-01
     vertex -3.758081e-01  0.000000e+00  3.924864e-02
     vertex -3.932113e-01  0.000000e+00  2.536998e-02
   endloop
 endfacet
 facet normal  0.000000e+00  1.000000e+00  0.000000e+00
   outer loop
     vertex -1.058730e+00  0.000000e+00  8.968254e-01
     vertex -3.932113e-01  0.000000e+00  2.536998e-02
     vertex -4.078568e-01  0.000000e+00  8.606882e-03
   endloop
 endfacet
 facet normal  0.000000e+00  1.000000e+00  0.000000e+00
   outer loop
     vertex -1.058730e+00  0.000000e+00  8.968254e-01
     vertex -4.078568e-01  0.000000e+00  8.606882e-03
     vertex -4.192738e-01  0.000000e+00 -1.050188e-02
   endloop
 endfacet
 facet normal  0.000000e+00  1.000000e+00  0.000000e+00
   outer loop
     vertex -1.058730e+00  0.000000e+00  8.968254e-01
     vertex -4.192738e-01  0.000000e+00 -1.050188e-02
     vertex -4.270952e-01  0.000000e+00 -3.134213e-02
   endloop
 endfacet
 facet normal  0.000000e+00  1.000000e+00  0.000000e+00
   outer loop
     vertex -1.058730e+00  0.000000e+00  8.968254e-01
     vertex -4.270952e-01  0.000000e+00 -3.134213e-02
     vertex -4.310699e-01  0.000000e+00 -5.324404e-02
   endloop
 endfacet
 facet normal  0.000000e+00  1.000000e+00  0.000000e+00
   outer loop
     vertex -1.058730e+00  0.000000e+00  8.968254e-01
     vertex -4.310699e-01  0.000000e+00 -5.324404e-02
     vertex -4.310699e-01  0.000000e+00 -7.550368e-02
   endloop
 endfacet
 facet normal  0.000000e+00  1.000000e+00  0.000000e+00
   outer loop
     vertex -1.058730e+00  0.000000e+00  8.968254e-01
     vertex -4.310699e-01  0.000000e+00 -7.550368e-02
     vertex -1.058730e+00  0.000000e+00 -1.058730e+00
   endloop
 endfacet
 facet normal  0.000000e+00  1.000000e+00  0.000000e+00
   outer loop
     vertex  3.571285e-02  0.000000e+00 -1.541177e-01
     vertex -2.299935e-01  0.000000e+00 -1.614478e-01
     vertex -2.139044e-01  0.000000e+00 -1.460650e-01
   endloop
 endfacet
 facet normal  0.000000e+00  1.000000e+00  0.000000e+00
   outer loop
     vertex  2.106737e-02  0.000000e+00 -1.373546e-01
     vertex -2.139044e-01  0.000000e+00 -1.460650e-01
     vertex -2.008205e-01  0.000000e+00 -1.280566e-01
   endloop
 endfacet
 facet normal  0.000000e+00  1.000000e+00  0.000000e+00
   outer loop
     vertex  2.106737e-02  0.000000e+00 -1.373546e-01
     vertex  3.571285e-02  0.000000e+00 -1.541177e-01
     vertex -2.139044e-01  0.000000e+00 -1.460650e-01
   endloop
 endfacet
 facet normal  0.000000e+00  1.000000e+00  0.000000e+00
   outer loop
     vertex  5.311613e-02  0.000000e+00 -1.679964e-01
     vertex -2.299935e-01  0.000000e+00 -1.614478e-01
     vertex  3.571285e-02  0.000000e+00 -1.541177e-01
   endloop
 endfacet
 facet normal  0.000000e+00  1.000000e+00  0.000000e+00
   outer loop
     vertex  5.311613e-02  0.000000e+00 -1.679964e-01
     vertex -2.485708e-01  0.000000e+00 -1.737106e-01
     vertex -2.299935e-01  0.000000e+00 -1.614478e-01
   endloop
 endfacet
 facet normal  0.000000e+00  1.000000e+00  0.000000e+00
   outer loop
     vertex  9.650417e-03  0.000000e+00 -1.182458e-01
     vertex -2.008205e-01  0.000000e+00 -1.280566e-01
     vertex -1.911624e-01  0.000000e+00 -1.080014e-01
   endloop
 endfacet
 facet normal  0.000000e+00  1.000000e+00  0.000000e+00
   outer loop
     vertex  9.650417e-03  0.000000e+00 -1.182458e-01
     vertex  2.106737e-02  0.000000e+00 -1.373546e-01
     vertex -2.008205e-01  0.000000e+00 -1.280566e-01
   endloop
 endfacet
 facet normal  0.000000e+00  1.000000e+00  0.000000e+00
   outer loop
     vertex  7.271787e-02  0.000000e+00 -1.785445e-01
     vertex -2.485708e-01  0.000000e+00 -1.737106e-01
     vertex  5.311613e-02  0.000000e+00 -1.679964e-01
   endloop
 endfacet
 facet normal  0.000000e+00  1.000000e+00  0.000000e+00
   outer loop
     vertex  7.271787e-02  0.000000e+00 -1.785445e-01
     vertex -2.690392e-01  0.000000e+00 -1.824592e-01
     vertex -2.485708e-01  0.000000e+00 -1.737106e-01
   endloop
 endfacet
 facet normal  0.000000e+00  1.000000e+00  0.000000e+00
   outer loop
     vertex  1.828941e-03  0.000000e+00 -9.740560e-02
     vertex  9.650417e-03  0.000000e+00 -1.182458e-01
     vertex -1.911624e-01  0.000000e+00 -1.080014e-01
   endloop
 endfacet
 facet normal  0.000000e+00  1.000000e+00  0.000000e+00
   outer loop
     vertex  1.828941e-03  0.000000e+00 -9.740560e-02
     vertex -1.911624e-01  0.000000e+00 -1.080014e-01
     vertex -1.852405e-01  0.000000e+00 -8.654389e-02
   endloop
 endfacet
 facet normal  0.000000e+00  1.000000e+00  0.000000e+00
   outer loop
     vertex  9.388804e-02  0.000000e+00 -1.854231e-01
     vertex -1.058730e+00  0.000000e+00 -1.058730e+00
     vertex -2.907407e-01  0.000000e+00 -1.874124e-01
   endloop
 endfacet
 facet normal  0.000000e+00  1.000000e+00  0.000000e+00
   outer loop
     vertex  9.388804e-02  0.000000e+00 -1.854231e-01
     vertex  8.968254e-01  0.000000e+00 -1.058730e+00
     vertex -1.058730e+00  0.000000e+00 -1.058730e+00
   endloop
 endfacet
 facet normal  0.000000e+00  1.000000e+00  0.000000e+00
   outer loop
     vertex  9.388804e-02  0.000000e+00 -1.854231e-01
     vertex -2.907407e-01  0.000000e+00 -1.874124e-01
     vertex -2.690392e-01  0.000000e+00 -1.824592e-01
   endloop
 endfacet
 facet normal  0.000000e+00  1.000000e+00  0.000000e+00
   outer loop
     vertex  9.388804e-02  0.000000e+00 -1.854231e-01
     vertex -2.690392e-01  0.000000e+00 -1.824592e-01
     vertex  7.271787e-02  0.000000e+00 -1.785445e-01
   endloop
 endfacet
 facet normal  0.000000e+00  1.000000e+00  0.000000e+00
   outer loop
     vertex -2.145670e-03  0.000000e+00 -7.550368e-02
     vertex -1.852405e-01  0.000000e+00 -8.654389e-02
     vertex -1.832452e-01  0.000000e+00 -6.437386e-02
   endloop
 endfacet
 facet normal  0.000000e+00  1.000000e+00  0.000000e+00
   outer loop
     vertex -2.145670e-03  0.000000e+00 -7.550368e-02
     vertex  1.828941e-03  0.000000e+00 -9.740560e-02
     vertex -1.852405e-01  0.000000e+00 -8.654389e-02
   endloop
 endfacet
 facet normal  0.000000e+00  1.000000e+00  0.000000e+00
   outer loop
     vertex  1.159462e-01  0.000000e+00 -1.884111e-01
     vertex  8.968254e-01  0.000000e+00 -1.058730e+00
     vertex  9.388804e-02  0.000000e+00 -1.854231e-01
   endloop
 endfacet
 facet normal  0.000000e+00  1.000000e+00  0.000000e+00
   outer loop
     vertex -2.145670e-03  0.000000e+00 -5.324405e-02
     vertex -1.832452e-01  0.000000e+00 -6.437386e-02
     vertex -1.852405e-01  0.000000e+00 -4.220384e-02
   endloop
 endfacet
 facet normal  0.000000e+00  1.000000e+00  0.000000e+00
   outer loop
     vertex -2.145670e-03  0.000000e+00 -5.324405e-02
     vertex -2.145670e-03  0.000000e+00 -7.550368e-02
     vertex -1.832452e-01  0.000000e+00 -6.437386e-02
   endloop
 endfacet
 facet normal  0.000000e+00  1.000000e+00  0.000000e+00
   outer loop
     vertex  1.381834e-01  0.000000e+00 -1.874124e-01
     vertex  8.968254e-01  0.000000e+00 -1.058730e+00
     vertex  1.159462e-01  0.000000e+00 -1.884111e-01
   endloop
 endfacet
 facet normal  0.000000e+00  1.000000e+00  0.000000e+00
   outer loop
     vertex  1.828941e-03  0.000000e+00 -3.134213e-02
     vertex -1.852405e-01  0.000000e+00 -4.220384e-02
     vertex -1.911624e-01  0.000000e+00 -2.074637e-02
   endloop
 endfacet
 facet normal  0.000000e+00  1.000000e+00  0.000000e+00
   outer loop
     vertex  1.828941e-03  0.000000e+00 -3.134213e-02
     vertex -2.145670e-03  0.000000e+00 -5.324405e-02
     vertex -1.852405e-01  0.000000e+00 -4.220384e-02
   endloop
 endfacet
 facet normal  0.000000e+00  1.000000e+00  0.000000e+00
   outer loop
     vertex  1.598850e-01  0.000000e+00 -1.824592e-01
     vertex  8.968254e-01  0.000000e+00 -1.058730e+00
     vertex  1.381834e-01  0.000000e+00 -1.874124e-01
   endloop
 endfacet
 facet normal  0.000000e+00  1.000000e+00  0.000000e+00
   outer loop
     vertex  9.650417e-03  0.000000e+00 -1.050188e-02
     vertex -1.911624e-01  0.000000e+00 -2.074637e-02
     vertex -2.008205e-01  0.000000e+00 -6.911304e-04
   endloop
 endfacet
 facet normal  0.000000e+00  1.000000e+00  0.000000e+00
   outer loop
     vertex  9.650417e-03  0.000000e+00 -1.050188e-02
     vertex  1.828941e-03  0.000000e+00 -3.134213e-02
     vertex -1.911624e-01  0.000000e+00 -2.074637e-02
   endloop
 endfacet
 facet normal  0.000000e+00  1.000000e+00  0.000000e+00
   outer loop
     vertex  1.803533e-01  0.000000e+00 -1.737106e-01
     vertex  8.968254e-01  0.000000e+00 -1.058730e+00
     vertex  1.598850e-01  0.000000e+00 -1.824592e-01
   endloop
 endfacet
 facet normal  0.000000e+00  1.000000e+00  0.000000e+00
   outer loop
     vertex  2.106737e-02  0.000000e+00  8.606875e-03
     vertex -2.008205e-01  0.000000e+00 -6.911304e-04
     vertex -2.139044e-01  0.000000e+00  1.731730e-02
   endloop
 endfacet
 facet normal  0.000000e+00  1.000000e+00  0.000000e+00
   outer loop
     vertex  2.106737e-02  0.000000e+00  8.606875e-03
     vertex  9.650417e-03  0.000000e+00 -1.050188e-02
     vertex -2.008205e-01  0.000000e+00 -6.911304e-04
   endloop
 endfacet
 facet normal  0.000000e+00  1.000000e+00  0.000000e+00
   outer loop
     vertex  1.989306e-01  0.000000e+00 -1.614478e-01
     vertex  8.968254e-01  0.000000e+00 -1.058730e+00
     vertex  1.803533e-01  0.000000e+00 -1.737106e-01
   endloop
 endfacet
 facet normal  0.000000e+00  1.000000e+00  0.000000e+00
   outer loop
     vertex  3.571285e-02  0.000000e+00  2.536997e-02
     vertex -2.139044e-01  0.000000e+00  1.731730e-02
     vertex -2.299935e-01  0.000000e+00  3.270010e-02
   endloop
 endfacet
 facet normal  0.000000e+00  1.000000e+00  0.000000e+00
   outer loop
     vertex  3.571285e-02  0.000000e+00  2.536997e-02
     vertex  2.106737e-02  0.000000e+00  8.606875e-03
     vertex -2.139044e-01  0.000000e+00  1.731730e-02
   endloop
 endfacet
 facet normal  0.000000e+00  1.000000e+00  0.000000e+00
   outer loop
     vertex  2.150198e-01  0.000000e+00 -1.460650e-01
     vertex  8.968254e-01  0.000000e+00 -1.058730e+00
     vertex  1.989306e-01  0.000000e+00 -1.614478e-01
   endloop
 endfacet
 facet normal  0.000000e+00  1.000000e+00  0.000000e+00
   outer loop
     vertex  5.311613e-02  0.000000e+00  3.924863e-02
     vertex -2.299935e-01  0.000000e+00  3.270010e-02
     vertex -2.485708e-01  0.000000e+00  4.496287e-02
   endloop
 endfacet
 facet normal  0.000000e+00  1.000000e+00  0.000000e+00
   outer loop
     vertex  5.311613e-02  0.000000e+00  3.924863e-02
     vertex  3.571285e-02  0.000000e+00  2.536997e-02
     vertex -2.299935e-01  0.000000e+00  3.270010e-02
   endloop
 endfacet
 facet normal  0.000000e+00  1.000000e+00  0.000000e+00
   outer loop
     vertex  2.281037e-01  0.000000e+00 -1.280566e-01
     vertex  8.968254e-01  0.000000e+00 -1.058730e+00
     vertex  2.150198e-01  0.000000e+00 -1.460650e-01
   endloop
 endfacet
 facet normal  0.000000e+00  1.000000e+00  0.000000e+00
   outer loop
     vertex  7.271787e-02  0.000000e+00  4.979677e-02
     vertex -2.485708e-01  0.000000e+00  4.496287e-02
     vertex -2.690392e-01  0.000000e+00  5.371146e-02
   endloop
 endfacet
 facet normal  0.000000e+00  1.000000e+00  0.000000e+00
   outer loop
     vertex  7.271787e-02  0.000000e+00  4.979677e-02
     vertex  5.311613e-02  0.000000e+00  3.924863e-02
     vertex -2.485708e-01  0.000000e+00  4.496287e-02
   endloop
 endfacet
 facet normal  0.000000e+00  1.000000e+00  0.000000e+00
   outer loop
     vertex  2.377618e-01  0.000000e+00 -1.080014e-01
     vertex  8.968254e-01  0.000000e+00 -1.058730e+00
     vertex  2.281037e-01  0.000000e+00 -1.280566e-01
   endloop
 endfacet
 facet normal  0.000000e+00  1.000000e+00  0.000000e+00
   outer loop
     vertex  9.388804e-02  0.000000e+00  5.667538e-02
     vertex -2.907407e-01  0.000000e+00  5.866470e-02
     vertex -1.058730e+00  0.000000e+00  8.968254e-01
   endloop
 endfacet
 facet normal  0.000000e+00  1.000000e+00  0.000000e+00
   outer loop
     vertex  9.388804e-02  0.000000e+00  5.667538e-02
     vertex -2.690392e-01  0.000000e+00  5.371146e-02
     vertex -2.907407e-01  0.000000e+00  5.866470e-02
   endloop
 endfacet
 facet normal  0.000000e+00  1.000000e+00  0.000000e+00
   outer loop
     vertex  9.388804e-02  0.000000e+00  5.667538e-02
     vertex  7.271787e-02  0.000000e+00  4.979677e-02
     vertex -2.690392e-01  0.000000e+00  5.371146e-02
   endloop
 endfacet
 facet normal  0.000000e+00  1.000000e+00  0.000000e+00
   outer loop
     vertex  2.436837e-01  0.000000e+00 -8.654389e-02
     vertex  8.968254e-01  0.000000e+00 -1.058730e+00
     vertex  2.377618e-01  0.000000e+00 -1.080014e-01
   endloop
 endfacet
 facet normal  0.000000e+00  1.000000e+00  0.000000e+00
   outer loop
     vertex  2.456790e-01  0.000000e+00 -6.437386e-02
     vertex  8.968254e-01  0.000000e+00 -1.058730e+00
     vertex  2.436837e-01  0.000000e+00 -8.654389e-02
   endloop
 endfacet
 facet normal  0.000000e+00  1.000000e+00  0.000000e+00
   outer loop
     vertex  8.968254e-01  0.000000e+00  8.968254e-01
     vertex  8.968254e-01  0.000000e+00 -1.058730e+00
     vertex  2.456790e-01  0.000000e+00 -6.437386e-02
   endloop
 endfacet
 facet normal  0.000000e+00  1.000000e+00  0.000000e+00
   outer loop
     vertex  8.968254e-01  0.000000e+00  8.968254e-01
     vertex  2.456790e-01  0.000000e+00 -6.437386e-02
     vertex  2.436837e-01  0.000000e+00 -4.220384e-02
   endloop
 endfacet
 facet normal  0.000000e+00  1.000000e+00  0.000000e+00
   outer loop
     vertex  8.968254e-01  0.000000e+00  8.968254e-01
     vertex  2.436837e-01  0.000000e+00 -4.220384e-02
     vertex  2.377618e-01  0.000000e+00 -2.074638e-02
   endloop
 endfacet
 facet normal  0.000000e+00  1.000000e+00  0.000000e+00
   outer loop
     vertex  8.968254e-01  0.000000e+00  8.968254e-01
     vertex  2.377618e-01  0.000000e+00 -2.074638e-02
     vertex  2.281037e-01  0.000000e+00 -6.911358e-04
   endloop
 endfacet
 facet normal  0.000000e+00  1.000000e+00  0.000000e+00
   outer loop
     vertex  8.968254e-01  0.000000e+00  8.968254e-01
     vertex  2.281037e-01  0.000000e+00 -6.911358e-04
     vertex  2.150198e-01  0.000000e+00  1.731729e-02
   endloop
 endfacet
 facet normal  0.000000e+00  1.000000e+00  0.000000e+00
   outer loop
     vertex  8.968254e-01  0.000000e+00  8.968254e-01
     vertex  2.150198e-01  0.000000e+00  1.731729e-02
     vertex  1.989306e-01  0.000000e+00  3.270009e-02
   endloop
 endfacet
 facet normal  0.000000e+00  1.000000e+00  0.000000e+00
   outer loop
     vertex  8.968254e-01  0.000000e+00  8.968254e-01
     vertex  1.989306e-01  0.000000e+00  3.270009e-02
     vertex  1.803533e-01  0.000000e+00  4.496286e-02
   endloop
 endfacet
 facet normal  0.000000e+00  1.000000e+00  0.000000e+00
   outer loop
     vertex  8.968254e-01  0.000000e+00  8.968254e-01
     vertex  1.803533e-01  0.000000e+00  4.496286e-02
     vertex  1.598850e-01  0.000000e+00  5.371145e-02
   endloop
 endfacet
 facet normal  0.000000e+00  1.000000e+00  0.000000e+00
   outer loop
     vertex  8.968254e-01  0.000000e+00  8.968254e-01
     vertex  1.598850e-01  0.000000e+00  5.371145e-02
     vertex  1.381834e-01  0.000000e+00  5.866469e-02
   endloop
 endfacet
 facet normal  0.000000e+00  1.000000e+00  0.000000e+00
   outer loop
     vertex  8.968254e-01  0.000000e+00  8.968254e-01
     vertex  1.381834e-01  0.000000e+00  5.866469e-02
     vertex  1.159462e-01  0.000000e+00  5.966336e-02
   endloop
 endfacet
 facet normal  0.000000e+00  1.000000e+00  0.000000e+00
   outer loop
     vertex  8.968254e-01  0.000000e+00  8.968254e-01
     vertex  1.159462e-01  0.000000e+00  5.966336e-02
     vertex  9.388804e-02  0.000000e+00  5.667538e-02
   endloop
 endfacet
 facet normal  0.000000e+00  1.000000e+00  0.000000e+00
   outer loop
     vertex  8.968254e-01  0.000000e+00  8.968254e-01
     vertex  9.388804e-02  0.000000e+00  5.667538e-02
     vertex -1.058730e+00  0.000000e+00  8.968254e-01
   endloop
 endfacet
 facet normal  0.000000e+00  0.000000e+00  1.000000e+00
   outer loop
     vertex -1.058730e+00 -1.587302e-02  8.968254e-01
     vertex  8.968254e-01 -1.587302e-02  8.968254e-01
     vertex  8.968254e-01  0.000000e+00  8.968254e-01
   endloop
 endfacet
 facet normal  0.000000e+00  0.000000e+00  1.000000e+00
   outer loop
     vertex -1.058730e+00 -1.587302e-02  8.968254e-01
     vertex  8.968254e-01  0.000000e+00  8.968254e-01
     vertex -1.058730e+00  0.000000e+00  8.968254e-01
   endloop
 endfacet
 facet normal  0.000000e+00  1.000000e+00  0.000000e+00
   outer loop
     vertex -2.139044e-01  0.000000e+00  1.731730e-02
     vertex -1.852405e-01  0.000000e+00 -4.220384e-02
     vertex -1.832452e-01  0.000000e+00 -6.437386e-02
   endloop
 endfacet
 facet normal  0.000000e+00  1.000000e+00  0.000000e+00
   outer loop
     vertex -2.139044e-01  0.000000e+00  1.731730e-02
     vertex -1.911624e-01  0.000000e+00 -2.074637e-02
     vertex -1.852405e-01  0.000000e+00 -4.220384e-02
   endloop
 endfacet
 facet normal  0.000000e+00  1.000000e+00  0.000000e+00
   outer loop
     vertex -2.139044e-01  0.000000e+00  1.731730e-02
     vertex -2.008205e-01  0.000000e+00 -6.911304e-04
     vertex -1.911624e-01  0.000000e+00 -2.074637e-02
   endloop
 endfacet
 facet normal  0.000000e+00  1.000000e+00  0.000000e+00
   outer loop
     vertex -2.139044e-01  0.000000e+00  1.731730e-02
     vertex -2.485708e-01  0.000000e+00  4.496287e-02
     vertex -2.299935e-01  0.000000e+00  3.270010e-02
   endloop
 endfacet
 facet normal  0.000000e+00  1.000000e+00  0.000000e+00
   outer loop
     vertex -2.139044e-01  0.000000e+00  1.731730e-02
     vertex -2.690392e-01  0.000000e+00  5.371146e-02
     vertex -2.485708e-01  0.000000e+00  4.496287e-02
   endloop
 endfacet
 facet normal  0.000000e+00  1.000000e+00  0.000000e+00
   outer loop
     vertex -2.139044e-01  0.000000e+00  1.731730e-02
     vertex -2.907407e-01  0.000000e+00  5.866470e-02
     vertex -2.690392e-01  0.000000e+00  5.371146e-02
   endloop
 endfacet
 facet normal  0.000000e+00  1.000000e+00  0.000000e+00
   outer loop
     vertex -2.139044e-01  0.000000e+00  1.731730e-02
     vertex -3.129780e-01  0.000000e+00  5.966337e-02
     vertex -2.907407e-01  0.000000e+00  5.866470e-02
   endloop
 endfacet
 facet normal  0.000000e+00  1.000000e+00  0.000000e+00
   outer loop
     vertex -2.139044e-01  0.000000e+00  1.731730e-02
     vertex -3.350361e-01  0.000000e+00  5.667539e-02
     vertex -3.129780e-01  0.000000e+00  5.966337e-02
   endloop
 endfacet
 facet normal  0.000000e+00  1.000000e+00  0.000000e+00
   outer loop
     vertex -2.139044e-01  0.000000e+00  1.731730e-02
     vertex -3.562063e-01  0.000000e+00  4.979678e-02
     vertex -3.350361e-01  0.000000e+00  5.667539e-02
   endloop
 endfacet
 facet normal  0.000000e+00  1.000000e+00  0.000000e+00
   outer loop
     vertex -2.139044e-01  0.000000e+00  1.731730e-02
     vertex -3.758081e-01  0.000000e+00  3.924864e-02
     vertex -3.562063e-01  0.000000e+00  4.979678e-02
   endloop
 endfacet
 facet normal  0.000000e+00  1.000000e+00  0.000000e+00
   outer loop
     vertex -2.139044e-01  0.000000e+00  1.731730e-02
     vertex -3.932113e-01  0.000000e+00  2.536998e-02
     vertex -3.758081e-01  0.000000e+00  3.924864e-02
   endloop
 endfacet
 facet normal  0.000000e+00  1.000000e+00  0.000000e+00
   outer loop
     vertex -2.139044e-01  0.000000e+00  1.731730e-02
     vertex -4.078568e-01  0.000000e+00  8.606882e-03
     vertex -3.932113e-01  0.000000e+00  2.536998e-02
   endloop
 endfacet
 facet normal  0.000000e+00  1.000000e+00  0.000000e+00
   outer loop
     vertex -2.139044e-01  0.000000e+00  1.731730e-02
     vertex -4.192738e-01  0.000000e+00 -1.050188e-02
     vertex -4.078568e-01  0.000000e+00  8.606882e-03
   endloop
 endfacet
 facet normal  0.000000e+00  1.000000e+00  0.000000e+00
   outer loop
     vertex -2.139044e-01  0.000000e+00  1.731730e-02
     vertex -4.270952e-01  0.000000e+00 -3.134213e-02
     vertex -4.192738e-01  0.000000e+00 -1.050188e-02
   endloop
 endfacet
 facet normal  0.000000e+00  1.000000e+00  0.000000e+00
   outer loop
     vertex -2.139044e-01  0.000000e+00  1.731730e-02
     vertex -4.310699e-01  0.000000e+00 -5.324404e-02
     vertex -4.270952e-01  0.000000e+00 -3.134213e-02
   endloop
 endfacet
 facet normal  0.000000e+00  1.000000e+00  0.000000e+00
   outer loop
     vertex -2.139044e-01  0.000000e+00  1.731730e-02
     vertex -4.310699e-01  0.000000e+00 -7.550368e-02
     vertex -4.310699e-01  0.000000e+00 -5.324404e-02
   endloop
 endfacet
 facet normal  0.000000e+00  1.000000e+00  0.000000e+00
   outer loop
     vertex -2.139044e-01  0.000000e+00  1.731730e-02
     vertex -4.270952e-01  0.000000e+00 -9.740560e-02
     vertex -4.310699e-01  0.000000e+00 -7.550368e-02
   endloop
 endfacet
 facet normal  0.000000e+00  1.000000e+00  0.000000e+00
   outer loop
     vertex -2.139044e-01  0.000000e+00  1.731730e-02
     vertex -4.192738e-01  0.000000e+00 -1.182459e-01
     vertex -4.270952e-01  0.000000e+00 -9.740560e-02
   endloop
 endfacet
 facet normal  0.000000e+00  1.000000e+00  0.000000e+00
   outer loop
     vertex -2.139044e-01  0.000000e+00  1.731730e-02
     vertex -4.078568e-01  0.000000e+00 -1.373546e-01
     vertex -4.192738e-01  0.000000e+00 -1.182459e-01
   endloop
 endfacet
 facet normal  0.000000e+00  1.000000e+00  0.000000e+00
   outer loop
     vertex -2.139044e-01  0.000000e+00  1.731730e-02
     vertex -3.932113e-01  0.000000e+00 -1.541177e-01
     vertex -4.078568e-01  0.000000e+00 -1.373546e-01
   endloop
 endfacet
 facet normal  0.000000e+00  1.000000e+00  0.000000e+00
   outer loop
     vertex -2.139044e-01  0.000000e+00  1.731730e-02
     vertex -3.758081e-01  0.000000e+00 -1.679964e-01
     vertex -3.932113e-01  0.000000e+00 -1.541177e-01
   endloop
 endfacet
 facet normal  0.000000e+00  1.000000e+00  0.000000e+00
   outer loop
     vertex -2.139044e-01  0.000000e+00  1.731730e-02
     vertex -3.562063e-01  0.000000e+00 -1.785445e-01
     vertex -3.758081e-01  0.000000e+00 -1.679964e-01
   endloop
 endfacet
 facet normal  0.000000e+00  1.000000e+00  0.000000e+00
   outer loop
     vertex -2.139044e-01  0.000000e+00  1.731730e-02
     vertex -3.350361e-01  0.000000e+00 -1.854231e-01
     vertex -3.562063e-01  0.000000e+00 -1.785445e-01
   endloop
 endfacet
 facet normal  0.000000e+00  1.000000e+00  0.000000e+00
   outer loop
     vertex -2.139044e-01  0.000000e+00  1.731730e-02
     vertex -3.129780e-01  0.000000e+00 -1.884111e-01
     vertex -3.350361e-01  0.000000e+00 -1.854231e-01
   endloop
 endfacet
 facet normal  0.000000e+00  1.000000e+00  0.000000e+00
   outer loop
     vertex -2.139044e-01  0.000000e+00  1.731730e-02
     vertex -2.907407e-01  0.000000e+00 -1.874124e-01
     vertex -3.129780e-01  0.000000e+00 -1.884111e-01
   endloop
 endfacet
 facet normal  0.000000e+00  1.000000e+00  0.000000e+00
   outer loop
     vertex -2.139044e-01  0.000000e+00  1.731730e-02
     vertex -2.690392e-01  0.000000e+00 -1.824592e-01
     vertex -2.907407e-01  0.000000e+00 -1.874124e-01
   endloop
 endfacet
 facet normal  0.000000e+00  1.000000e+00  0.000000e+00
   outer loop
     vertex -2.139044e-01  0.000000e+00  1.731730e-02
     vertex -2.485708e-01  0.000000e+00 -1.737106e-01
     vertex -2.690392e-01  0.000000e+00 -1.824592e-01
   endloop
 endfacet
 facet normal  0.000000e+00  1.000000e+00  0.000000e+00
   outer loop
     vertex -2.139044e-01  0.000000e+00  1.731730e-02
     vertex -2.299935e-01  0.000000e+00 -1.614478e-01
     vertex -2.485708e-01  0.000000e+00 -1.737106e-01
   endloop
 endfacet
 facet normal  0.000000e+00  1.000000e+00  0.000000e+00
   outer loop
     vertex -2.139044e-01  0.000000e+00  1.731730e-02
     vertex -2.139044e-01  0.000000e+00 -1.460650e-01
     vertex -2.299935e-01  0.000000e+00 -1.614478e-01
   endloop
 endfacet
 facet normal  0.000000e+00  1.000000e+00  0.000000e+00
   outer loop
     vertex -2.139044e-01  0.000000e+00  1.731730e-02
     vertex -2.008205e-01  0.000000e+00 -1.280566e-01
     vertex -2.139044e-01  0.000000e+00 -1.460650e-01
   endloop
 endfacet
 facet normal  0.000000e+00  1.000000e+00  0.000000e+00
   outer loop
     vertex -2.139044e-01  0.000000e+00  1.731730e-02
     vertex -1.911624e-01  0.000000e+00 -1.080014e-01
     vertex -2.008205e-01  0.000000e+00 -1.280566e-01
   endloop
 endfacet
 facet normal  0.000000e+00  1.000000e+00  0.000000e+00
   outer loop
     vertex -2.139044e-01  0.000000e+00  1.731730e-02
     vertex -1.852405e-01  0.000000e+00 -8.654389e-02
     vertex -1.911624e-01  0.000000e+00 -1.080014e-01
   endloop
 endfacet
 facet normal  0.000000e+00  1.000000e+00  0.000000e+00
   outer loop
     vertex -2.139044e-01  0.000000e+00  1.731730e-02
     vertex -1.832452e-01  0.000000e+00 -6.437386e-02
     vertex -1.852405e-01  0.000000e+00 -8.654389e-02
   endloop
 endfacet
 facet normal  0.000000e+00  1.000000e+00  0.000000e+00
   outer loop
     vertex  2.150198e-01  0.000000e+00  1.731729e-02
     vertex  2.436837e-01  0.000000e+00 -4.220384e-02
     vertex  2.456790e-01  0.000000e+00 -6.437386e-02
   endloop
 endfacet
 facet normal  0.000000e+00  1.000000e+00  0.000000e+00
   outer loop
     vertex  2.150198e-01  0.000000e+00  1.731729e-02
     vertex  2.377618e-01  0.000000e+00 -2.074638e-02
     vertex  2.436837e-01  0.000000e+00 -4.220384e-02
   endloop
 endfacet
 facet normal  0.000000e+00  1.000000e+00  0.000000e+00
   outer loop
     vertex  2.150198e-01  0.000000e+00  1.731729e-02
     vertex  2.281037e-01  0.000000e+00 -6.911358e-04
     vertex  2.377618e-01  0.000000e+00 -2.074638e-02
   endloop
 endfacet
 facet normal  0.000000e+00  1.000000e+00  0.000000e+00
   outer loop
     vertex  2.150198e-01  0.000000e+00  1.731729e-02
     vertex  1.803533e-01  0.000000e+00  4.496286e-02
     vertex  1.989306e-01  0.000000e+00  3.270009e-02
   endloop
 endfacet
 facet normal  0.000000e+00  1.000000e+00  0.000000e+00
   outer loop
     vertex  2.150198e-01  0.000000e+00  1.731729e-02
     vertex  1.598850e-01  0.000000e+00  5.371145e-02
     vertex  1.803533e-01  0.000000e+00  4.496286e-02
   endloop
 endfacet
 facet normal  0.000000e+00  1.000000e+00  0.000000e+00
   outer loop
     vertex  2.150198e-01  0.000000e+00  1.731729e-02
     vertex  1.381834e-01  0.000000e+00  5.866469e-02
     vertex  1.598850e-01  0.000000e+00  5.371145e-02
   endloop
 endfacet
 facet normal  0.000000e+00  1.000000e+00  0.000000e+00
   outer loop
     vertex  2.150198e-01  0.000000e+00  1.731729e-02
     vertex  1.159462e-01  0.000000e+00  5.966336e-02
     vertex  1.381834e-01  0.000000e+00  5.866469e-02
   endloop
 endfacet
 facet normal  0.000000e+00  1.000000e+00  0.000000e+00
   outer loop
     vertex  2.150198e-01  0.000000e+00  1.731729e-02
     vertex  9.388804e-02  0.000000e+00  5.667538e-02
     vertex  1.159462e-01  0.000000e+00  5.966336e-02
   endloop
 endfacet
 facet normal  0.000000e+00  1.000000e+00  0.000000e+00
   outer loop
     vertex  2.150198e-01  0.000000e+00  1.731729e-02
     vertex  7.271787e-02  0.000000e+00  4.979677e-02
     vertex  9.388804e-02  0.000000e+00  5.667538e-02
   endloop
 endfacet
 facet normal  0.000000e+00  1.000000e+00  0.000000e+00
   outer loop
     vertex  2.150198e-01  0.000000e+00  1.731729e-02
     vertex  5.311613e-02  0.000000e+00  3.924863e-02
     vertex  7.271787e-02  0.000000e+00  4.979677e-02
   endloop
 endfacet
 facet normal  0.000000e+00  1.000000e+00  0.000000e+00
   outer loop
     vertex  2.150198e-01  0.000000e+00  1.731729e-02
     vertex  3.571285e-02  0.000000e+00  2.536997e-02
     vertex  5.311613e-02  0.000000e+00  3.924863e-02
   endloop
 endfacet
 facet normal  0.000000e+00  1.000000e+00  0.000000e+00
   outer loop
     vertex  2.150198e-01  0.000000e+00  1.731729e-02
     vertex  2.106737e-02  0.000000e+00  8.606875e-03
     vertex  3.571285e-02  0.000000e+00  2.536997e-02
   endloop
 endfacet
 facet normal  0.000000e+00  1.000000e+00  0.000000e+00
   outer loop
     vertex  2.150198e-01  0.000000e+00  1.731729e-02
     vertex  9.650417e-03  0.000000e+00 -1.050188e-02
     vertex  2.106737e-02  0.000000e+00  8.606875e-03
   endloop
 endfacet
 facet normal  0.000000e+00  1.000000e+00  0.000000e+00
   outer loop
     vertex  2.150198e-01  0.000000e+00  1.731729e-02
     vertex  1.828941e-03  0.000000e+00 -3.134213e-02
     vertex  9.650417e-03  0.000000e+00 -1.050188e-02
   endloop
 endfacet
 facet normal  0.000000e+00  1.000000e+00  0.000000e+00
   outer loop
     vertex  2.150198e-01  0.000000e+00  1.731729e-02
     vertex -2.145670e-03  0.000000e+00 -5.324405e-02
     vertex  1.828941e-03  0.000000e+00 -3.134213e-02
   endloop
 endfacet
 facet normal  0.000000e+00  1.000000e+00  0.000000e+00
   outer loop
     vertex  2.150198e-01  0.000000e+00  1.731729e-02
     vertex -2.145670e-03  0.000000e+00 -7.550368e-02
     vertex -2.145670e-03  0.000000e+00 -5.324405e-02
   endloop
 endfacet
 facet normal  0.000000e+00  1.000000e+00  0.000000e+00
   outer loop
     vertex  2.150198e-01  0.000000e+00  1.731729e-02
     vertex  1.828941e-03  0.000000e+00 -9.740560e-02
     vertex -2.145670e-03  0.000000e+00 -7.550368e-02
   endloop
 endfacet
 facet normal  0.000000e+00  1.000000e+00  0.000000e+00
   outer loop
     vertex  2.150198e-01  0.000000e+00  1.731729e-02
     vertex  9.650417e-03  0.000000e+00 -1.182458e-01
     vertex  1.828941e-03  0.000000e+00 -9.740560e-02
   endloop
 endfacet
 facet normal  0.000000e+00  1.000000e+00  0.000000e+00
   outer loop
     vertex  2.150198e-01  0.000000e+00  1.731729e-02
     vertex  2.106737e-02  0.000000e+00 -1.373546e-01
     vertex  9.650417e-03  0.000000e+00 -1.182458e-01
   endloop
 endfacet
 facet normal  0.000000e+00  1.000000e+00  0.000000e+00
   outer loop
     vertex  2.150198e-01  0.000000e+00  1.731729e-02
     vertex  3.571285e-02  0.000000e+00 -1.541177e-01
     vertex  2.106737e-02  0.000000e+00 -1.373546e-01
   endloop
 endfacet
 facet normal  0.000000e+00  1.000000e+00  0.000000e+00
   outer loop
     vertex  2.150198e-01  0.000000e+00  1.731729e-02
     vertex  5.311613e-02  0.000000e+00 -1.679964e-01
     vertex  3.571285e-02  0.000000e+00 -1.541177e-01
   endloop
 endfacet
 facet normal  0.000000e+00  1.000000e+00  0.000000e+00
   outer loop
     vertex  2.150198e-01  0.000000e+00  1.731729e-02
     vertex  7.271787e-02  0.000000e+00 -1.785445e-01
     vertex  5.311613e-02  0.000000e+00 -1.679964e-01
   endloop
 endfacet
 facet normal  0.000000e+00  1.000000e+00  0.000000e+00
   outer loop
     vertex  2.150198e-01  0.000000e+00  1.731729e-02
     vertex  9.388804e-02  0.000000e+00 -1.854231e-01
     vertex  7.271787e-02  0.000000e+00 -1.785445e-01
   endloop
 endfacet
 facet normal  0.000000e+00  1.000000e+00  0.000000e+00
   outer loop
     vertex  2.150198e-01  0.000000e+00  1.731729e-02
     vertex  1.159462e-01  0.000000e+00 -1.884111e-01
     vertex  9.388804e-02  0.000000e+00 -1.854231e-01
   endloop
 endfacet
 facet normal  0.000000e+00  1.000000e+00  0.000000e+00
   outer loop
     vertex  2.150198e-01  0.000000e+00  1.731729e-02
     vertex  1.381834e-01  0.000000e+00 -1.874124e-01
     vertex  1.159462e-01  0.000000e+00 -1.884111e-01
   endloop
 endfacet
 facet normal  0.000000e+00  1.000000e+00  0.000000e+00
   outer loop
     vertex  2.150198e-01  0.000000e+00  1.731729e-02
     vertex  1.598850e-01  0.000000e+00 -1.824592e-01
     vertex  1.381834e-01  0.000000e+00 -1.874124e-01
   endloop
 endfacet
 facet normal  0.000000e+00  1.000000e+00  0.000000e+00
   outer loop
     vertex  2.150198e-01  0.000000e+00  1.731729e-02
     vertex  1.803533e-01  0.000000e+00 -1.737106e-01
     vertex  1.598850e-01  0.000000e+00 -1.824592e-01
   endloop
 endfacet
 facet normal  0.000000e+00  1.000000e+00  0.000000e+00
   outer loop
     vertex  2.150198e-01  0.000000e+00  1.731729e-02
     vertex  1.989306e-01  0.000000e+00 -1.614478e-01
     vertex  1.803533e-01  0.000000e+00 -1.737106e-01
   endloop
 endfacet
 facet normal  0.000000e+00  1.000000e+00  0.000000e+00
   outer loop
     vertex  2.150198e-01  0.000000e+00  1.731729e-02
     vertex  2.150198e-01  0.000000e+00 -1.460650e-01
     vertex  1.989306e-01  0.000000e+00 -1.614478e-01
   endloop
 endfacet
 facet normal  0.000000e+00  1.000000e+00  0.000000e+00
   outer loop
     vertex  2.150198e-01  0.000000e+00  1.731729e-02
     vertex  2.281037e-01  0.000000e+00 -1.280566e-01
     vertex  2.150198e-01  0.000000e+00 -1.460650e-01
   endloop
 endfacet
 facet normal  0.000000e+00  1.000000e+00  0.000000e+00
   outer loop
     vertex  2.150198e-01  0.000000e+00  1.731729e-02
     vertex  2.377618e-01  0.000000e+00 -1.080014e-01
     vertex  2.281037e-01  0.000000e+00 -1.280566e-01
   endloop
 endfacet
 facet normal  0.000000e+00  1.000000e+00  0.000000e+00
   outer loop
     vertex  2.150198e-01  0.000000e+00  1.731729e-02
     vertex  2.436837e-01  0.000000e+00 -8.654389e-02
     vertex  2.377618e-01  0.000000e+00 -1.080014e-01
   endloop
 endfacet
 facet normal  0.000000e+00  1.000000e+00  0.000000e+00
   outer loop
     vertex  2.150198e-01  0.000000e+00  1.731729e-02
     vertex  2.456790e-01  0.000000e+00 -6.437386e-02
     vertex  2.436837e-01  0.000000e+00 -8.654389e-02
   endloop
 endfacet
endsolid
