solid 
 facet normal -9.486833e-01 -0.000000e+00 -3.162278e-01
   outer loop
     vertex -9.373897e-01 -1.587302e-02  1.380953e-01
     vertex -9.208868e-01 -5.396826e-01  8.858661e-02
     vertex -9.373897e-01 -7.619048e-01  1.380953e-01
   endloop
 endfacet
 facet normal -9.486833e-01 -3.853938e-16 -3.162278e-01
   outer loop
     vertex -9.208868e-01 -1.587302e-02  8.858661e-02
     vertex -9.208868e-01 -5.396826e-01  8.858661e-02
     vertex -9.373897e-01 -1.587302e-02  1.380953e-01
   endloop
 endfacet
 facet normal -9.486833e-01  1.883606e-16 -3.162278e-01
   outer loop
     vertex -7.111992e-01 -5.396826e-01 -5.404763e-01
     vertex -9.373897e-01 -7.619048e-01  1.380953e-01
     vertex -9.208868e-01 -5.396826e-01  8.858661e-02
   endloop
 endfacet
 facet normal -9.486833e-01  2.934320e-16 -3.162278e-01
   outer loop
     vertex -6.008818e-01 -7.619048e-01 -8.714285e-01
     vertex -9.373897e-01 -7.619048e-01  1.380953e-01
     vertex -7.111992e-01 -5.396826e-01 -5.404763e-01
   endloop
 endfacet
 facet normal -9.486833e-01 -1.898640e-16 -3.162278e-01
   outer loop
     vertex -6.008818e-01 -1.587302e-02 -8.714285e-01
     vertex -7.111992e-01 -5.396826e-01 -5.404763e-01
     vertex -7.111992e-01 -1.587302e-02 -5.404763e-01
   endloop
 endfacet
 facet normal -9.486833e-01 -0.000000e+00 -3.162278e-01
   outer loop
     vertex -6.008818e-01 -1.587302e-02 -8.714285e-01
     vertex -6.008818e-01 -7.619048e-01 -8.714285e-01
     vertex -7.111992e-01 -5.396826e-01 -5.404763e-01
   endloop
 endfacet
 facet normal -9.486833e-01  0.000000e+00 -3.162278e-01
   outer loop
     vertex -9.373897e-01 -1.587302e-02  1.380953e-01
     vertex -9.373897e-01  7.936508e-01  1.380953e-01
     vertex -9.208868e-01  5.714286e-01  8.858661e-02
   endloop
 endfacet
 facet normal -9.486833e-01  3.437296e-16 -3.162278e-01
   outer loop
     vertex -9.208868e-01 -1.587302e-02  8.858661e-02
     vertex -9.373897e-01 -1.587302e-02  1.380953e-01
     vertex -9.208868e-01  5.714286e-01  8.858661e-02
   endloop
 endfacet
 facet normal -9.486833e-01 -1.883606e-16 -3.162278e-01
   outer loop
     vertex -7.111992e-01  5.714286e-01 -5.404763e-01
     vertex -9.208868e-01  5.714286e-01  8.858661e-02
     vertex -9.373897e-01  7.936508e-01  1.380953e-01
   endloop
 endfacet
 facet normal -9.486833e-01 -2.934320e-16 -3.162278e-01
   outer loop
     vertex -6.008818e-01  7.936508e-01 -8.714285e-01
     vertex -7.111992e-01  5.714286e-01 -5.404763e-01
     vertex -9.373897e-01  7.936508e-01  1.380953e-01
   endloop
 endfacet
 facet normal -9.486833e-01  1.693382e-16 -3.162278e-01
   outer loop
     vertex -6.008818e-01 -1.587302e-02 -8.714285e-01
     vertex -7.111992e-01 -1.587302e-02 -5.404763e-01
     vertex -7.111992e-01  5.714286e-01 -5.404763e-01
   endloop
 endfacet
 facet normal -9.486833e-01  0.000000e+00 -3.162278e-01
   outer loop
     vertex -6.008818e-01 -1.587302e-02 -8.714285e-01
     vertex -7.111992e-01  5.714286e-01 -5.404763e-01
     vertex -6.008818e-01  7.936508e-01 -8.714285e-01
   endloop
 endfacet
 facet normal -9.333456e-01  9.004830e-18  3.589791e-01
   outer loop
     vertex -9.373897e-01 -1.587302e-02  4.567905e-02
     vertex -9.208868e-01 -5.396826e-01  8.858661e-02
     vertex -9.208868e-01 -1.587302e-02  8.858661e-02
   endloop
 endfacet
 facet normal -9.333456e-01  0.000000e+00  3.589791e-01
   outer loop
     vertex -9.373897e-01 -1.587302e-02  4.567905e-02
     vertex -9.373897e-01 -5.396826e-01  4.567905e-02
     vertex -9.208868e-01 -5.396826e-01  8.858661e-02
   endloop
 endfacet
 facet normal  0.000000e+00 -1.000000e+00 -0.000000e+00
   outer loop
     vertex -9.208868e-01 -5.396826e-01  8.858661e-02
     vertex -9.373897e-01 -5.396826e-01  4.567905e-02
     vertex -7.878307e-01 -5.396826e-01 -4.777778e-01
   endloop
 endfacet
 facet normal  0.000000e+00 -1.000000e+00  0.000000e+00
   outer loop
     vertex -9.208868e-01 -5.396826e-01  8.858661e-02
     vertex -7.878307e-01 -5.396826e-01 -4.777778e-01
     vertex -7.111992e-01 -5.396826e-01 -5.404763e-01
   endloop
 endfacet
 facet normal -6.332378e-01  0.000000e+00 -7.739573e-01
   outer loop
     vertex -7.111992e-01 -1.587302e-02 -5.404763e-01
     vertex -7.878307e-01 -5.396826e-01 -4.777778e-01
     vertex -7.878307e-01 -1.587302e-02 -4.777778e-01
   endloop
 endfacet
 facet normal -6.332378e-01  2.236930e-16 -7.739573e-01
   outer loop
     vertex -7.111992e-01 -1.587302e-02 -5.404763e-01
     vertex -7.111992e-01 -5.396826e-01 -5.404763e-01
     vertex -7.878307e-01 -5.396826e-01 -4.777778e-01
   endloop
 endfacet
 facet normal -0.000000e+00  0.000000e+00 -1.000000e+00
   outer loop
     vertex  4.086421e-01 -1.587302e-02 -8.714285e-01
     vertex -6.008818e-01 -7.619048e-01 -8.714285e-01
     vertex -6.008818e-01 -1.587302e-02 -8.714285e-01
   endloop
 endfacet
 facet normal  0.000000e+00 -0.000000e+00 -1.000000e+00
   outer loop
     vertex  4.086421e-01 -1.587302e-02 -8.714285e-01
     vertex  4.086421e-01 -7.619048e-01 -8.714285e-01
     vertex -6.008818e-01 -7.619048e-01 -8.714285e-01
   endloop
 endfacet
 facet normal  0.000000e+00 -1.000000e+00  0.000000e+00
   outer loop
     vertex  4.086421e-01 -7.619048e-01 -8.714285e-01
     vertex -9.373897e-01 -7.619048e-01  1.380953e-01
     vertex -6.008818e-01 -7.619048e-01 -8.714285e-01
   endloop
 endfacet
 facet normal  0.000000e+00 -1.000000e+00 -0.000000e+00
   outer loop
     vertex -7.742501e-02 -7.619048e-01  7.737214e-01
     vertex -9.373897e-01 -7.619048e-01  1.380953e-01
     vertex  4.086421e-01 -7.619048e-01 -8.714285e-01
   endloop
 endfacet
 facet normal -0.000000e+00 -1.000000e+00  0.000000e+00
   outer loop
     vertex  7.825397e-01 -7.619048e-01  1.380953e-01
     vertex -7.742501e-02 -7.619048e-01  7.737214e-01
     vertex  4.086421e-01 -7.619048e-01 -8.714285e-01
   endloop
 endfacet
 facet normal -5.943910e-01  0.000000e+00  8.041762e-01
   outer loop
     vertex -8.877268e-01 -5.396826e-01  1.748027e-01
     vertex -7.742501e-02 -7.619048e-01  7.737214e-01
     vertex -7.742501e-02 -5.396826e-01  7.737214e-01
   endloop
 endfacet
 facet normal -5.943910e-01  1.751962e-16  8.041762e-01
   outer loop
     vertex -8.877268e-01 -5.396826e-01  1.748027e-01
     vertex -9.373897e-01 -7.619048e-01  1.380953e-01
     vertex -7.742501e-02 -7.619048e-01  7.737214e-01
   endloop
 endfacet
 facet normal -5.943910e-01 -1.273618e-16  8.041762e-01
   outer loop
     vertex -9.373897e-01 -1.587302e-02  1.380953e-01
     vertex -8.877268e-01 -5.396826e-01  1.748027e-01
     vertex -8.877268e-01 -1.587302e-02  1.748027e-01
   endloop
 endfacet
 facet normal -5.943910e-01  0.000000e+00  8.041762e-01
   outer loop
     vertex -9.373897e-01 -1.587302e-02  1.380953e-01
     vertex -9.373897e-01 -7.619048e-01  1.380953e-01
     vertex -8.877268e-01 -5.396826e-01  1.748027e-01
   endloop
 endfacet
 facet normal -9.333456e-01 -8.031335e-18  3.589791e-01
   outer loop
     vertex -9.373897e-01 -1.587302e-02  4.567905e-02
     vertex -9.208868e-01 -1.587302e-02  8.858661e-02
     vertex -9.208868e-01  5.714286e-01  8.858661e-02
   endloop
 endfacet
 facet normal -9.333456e-01  0.000000e+00  3.589791e-01
   outer loop
     vertex -9.373897e-01 -1.587302e-02  4.567905e-02
     vertex -9.208868e-01  5.714286e-01  8.858661e-02
     vertex -9.373897e-01  5.714286e-01  4.567905e-02
   endloop
 endfacet
 facet normal  0.000000e+00  1.000000e+00  0.000000e+00
   outer loop
     vertex -9.208868e-01  5.714286e-01  8.858661e-02
     vertex -7.878307e-01  5.714286e-01 -4.777778e-01
     vertex -9.373897e-01  5.714286e-01  4.567905e-02
   endloop
 endfacet
 facet normal  0.000000e+00  1.000000e+00  0.000000e+00
   outer loop
     vertex -9.208868e-01  5.714286e-01  8.858661e-02
     vertex -7.111992e-01  5.714286e-01 -5.404763e-01
     vertex -7.878307e-01  5.714286e-01 -4.777778e-01
   endloop
 endfacet
 facet normal -6.332378e-01  0.000000e+00 -7.739573e-01
   outer loop
     vertex -7.111992e-01 -1.587302e-02 -5.404763e-01
     vertex -7.878307e-01 -1.587302e-02 -4.777778e-01
     vertex -7.878307e-01  5.714286e-01 -4.777778e-01
   endloop
 endfacet
 facet normal -6.332378e-01 -1.995099e-16 -7.739573e-01
   outer loop
     vertex -7.111992e-01 -1.587302e-02 -5.404763e-01
     vertex -7.878307e-01  5.714286e-01 -4.777778e-01
     vertex -7.111992e-01  5.714286e-01 -5.404763e-01
   endloop
 endfacet
 facet normal  0.000000e+00  0.000000e+00 -1.000000e+00
   outer loop
     vertex  4.086421e-01 -1.587302e-02 -8.714285e-01
     vertex -6.008818e-01 -1.587302e-02 -8.714285e-01
     vertex -6.008818e-01  7.936508e-01 -8.714285e-01
   endloop
 endfacet
 facet normal  0.000000e+00  0.000000e+00 -1.000000e+00
   outer loop
     vertex  4.086421e-01 -1.587302e-02 -8.714285e-01
     vertex -6.008818e-01  7.936508e-01 -8.714285e-01
     vertex  4.086421e-01  7.936508e-01 -8.714285e-01
   endloop
 endfacet
 facet normal  0.000000e+00  1.000000e+00  0.000000e+00
   outer loop
     vertex  4.086421e-01  7.936508e-01 -8.714285e-01
     vertex -6.008818e-01  7.936508e-01 -8.714285e-01
     vertex -9.373897e-01  7.936508e-01  1.380953e-01
   endloop
 endfacet
 facet normal  0.000000e+00  1.000000e+00  0.000000e+00
   outer loop
     vertex -7.742501e-02  7.936508e-01  7.737214e-01
     vertex  4.086421e-01  7.936508e-01 -8.714285e-01
     vertex -9.373897e-01  7.936508e-01  1.380953e-01
   endloop
 endfacet
 facet normal  0.000000e+00  1.000000e+00  0.000000e+00
   outer loop
     vertex  7.825397e-01  7.936508e-01  1.380953e-01
     vertex  4.086421e-01  7.936508e-01 -8.714285e-01
     vertex -7.742501e-02  7.936508e-01  7.737214e-01
   endloop
 endfacet
 facet normal -5.943910e-01  0.000000e+00  8.041762e-01
   outer loop
     vertex -8.877268e-01  5.714286e-01  1.748027e-01
     vertex -7.742501e-02  5.714286e-01  7.737214e-01
     vertex -7.742501e-02  7.936508e-01  7.737214e-01
   endloop
 endfacet
 facet normal -5.943910e-01 -1.751962e-16  8.041762e-01
   outer loop
     vertex -8.877268e-01  5.714286e-01  1.748027e-01
     vertex -7.742501e-02  7.936508e-01  7.737214e-01
     vertex -9.373897e-01  7.936508e-01  1.380953e-01
   endloop
 endfacet
 facet normal -5.943910e-01  1.135929e-16  8.041762e-01
   outer loop
     vertex -9.373897e-01 -1.587302e-02  1.380953e-01
     vertex -8.877268e-01 -1.587302e-02  1.748027e-01
     vertex -8.877268e-01  5.714286e-01  1.748027e-01
   endloop
 endfacet
 facet normal -5.943910e-01  0.000000e+00  8.041762e-01
   outer loop
     vertex -9.373897e-01 -1.587302e-02  1.380953e-01
     vertex -8.877268e-01  5.714286e-01  1.748027e-01
     vertex -9.373897e-01  7.936508e-01  1.380953e-01
   endloop
 endfacet
 facet normal -9.615240e-01  0.000000e+00 -2.747211e-01
   outer loop
     vertex -7.878307e-01 -1.587302e-02 -4.777778e-01
     vertex -9.373897e-01 -5.396826e-01  4.567905e-02
     vertex -9.373897e-01 -1.587302e-02  4.567905e-02
   endloop
 endfacet
 facet normal -9.615240e-01 -0.000000e+00 -2.747211e-01
   outer loop
     vertex -7.878307e-01 -1.587302e-02 -4.777778e-01
     vertex -7.878307e-01 -5.396826e-01 -4.777778e-01
     vertex -9.373897e-01 -5.396826e-01  4.567905e-02
   endloop
 endfacet
 facet normal  9.377488e-01  0.000000e+00 -3.473143e-01
   outer loop
     vertex  4.086421e-01 -1.587302e-02 -8.714285e-01
     vertex  5.225577e-01 -5.396826e-01 -5.638564e-01
     vertex  4.086421e-01 -7.619048e-01 -8.714285e-01
   endloop
 endfacet
 facet normal  9.377488e-01 -5.152972e-17 -3.473143e-01
   outer loop
     vertex  5.225577e-01 -1.587302e-02 -5.638564e-01
     vertex  5.225577e-01 -5.396826e-01 -5.638564e-01
     vertex  4.086421e-01 -1.587302e-02 -8.714285e-01
   endloop
 endfacet
 facet normal  9.377488e-01 -4.640798e-16 -3.473143e-01
   outer loop
     vertex  7.825397e-01 -7.619048e-01  1.380953e-01
     vertex  4.086421e-01 -7.619048e-01 -8.714285e-01
     vertex  5.225577e-01 -5.396826e-01 -5.638564e-01
   endloop
 endfacet
 facet normal  9.377488e-01 -1.233082e-16 -3.473143e-01
   outer loop
     vertex  7.644189e-01 -5.396826e-01  8.916906e-02
     vertex  7.825397e-01 -7.619048e-01  1.380953e-01
     vertex  5.225577e-01 -5.396826e-01 -5.638564e-01
   endloop
 endfacet
 facet normal  9.377488e-01  5.157326e-17 -3.473143e-01
   outer loop
     vertex  7.825397e-01 -1.587302e-02  1.380953e-01
     vertex  7.644189e-01 -5.396826e-01  8.916906e-02
     vertex  7.644189e-01 -1.587302e-02  8.916906e-02
   endloop
 endfacet
 facet normal  9.377488e-01  0.000000e+00 -3.473143e-01
   outer loop
     vertex  7.825397e-01 -1.587302e-02  1.380953e-01
     vertex  7.825397e-01 -7.619048e-01  1.380953e-01
     vertex  7.644189e-01 -5.396826e-01  8.916906e-02
   endloop
 endfacet
 facet normal  5.943910e-01  0.000000e+00  8.041762e-01
   outer loop
     vertex  7.825397e-01 -1.587302e-02  1.380953e-01
     vertex  7.268964e-01 -5.396826e-01  1.792230e-01
     vertex  7.825397e-01 -7.619048e-01  1.380953e-01
   endloop
 endfacet
 facet normal  5.943910e-01  4.261162e-17  8.041762e-01
   outer loop
     vertex  7.268964e-01 -1.587302e-02  1.792230e-01
     vertex  7.268964e-01 -5.396826e-01  1.792230e-01
     vertex  7.825397e-01 -1.587302e-02  1.380953e-01
   endloop
 endfacet
 facet normal  5.943910e-01 -4.671898e-16  8.041762e-01
   outer loop
     vertex -7.742501e-02 -7.619048e-01  7.737214e-01
     vertex  7.825397e-01 -7.619048e-01  1.380953e-01
     vertex  7.268964e-01 -5.396826e-01  1.792230e-01
   endloop
 endfacet
 facet normal  5.943910e-01  0.000000e+00  8.041762e-01
   outer loop
     vertex -7.742501e-02 -5.396826e-01  7.737214e-01
     vertex -7.742501e-02 -7.619048e-01  7.737214e-01
     vertex  7.268964e-01 -5.396826e-01  1.792230e-01
   endloop
 endfacet
 facet normal  0.000000e+00 -1.000000e+00  0.000000e+00
   outer loop
     vertex -7.742501e-02 -5.396826e-01  7.737214e-01
     vertex -7.504409e-01 -5.396826e-01  5.317460e-01
     vertex -8.877268e-01 -5.396826e-01  1.748027e-01
   endloop
 endfacet
 facet normal -0.000000e+00 -1.000000e+00  0.000000e+00
   outer loop
     vertex -7.742501e-02 -5.396826e-01  7.737214e-01
     vertex -3.391534e-01 -5.396826e-01  8.308642e-01
     vertex -7.504409e-01 -5.396826e-01  5.317460e-01
   endloop
 endfacet
 facet normal -0.000000e+00 -1.000000e+00  0.000000e+00
   outer loop
     vertex  2.216932e-01 -5.396826e-01  8.308642e-01
     vertex -3.391534e-01 -5.396826e-01  8.308642e-01
     vertex -7.742501e-02 -5.396826e-01  7.737214e-01
   endloop
 endfacet
 facet normal -0.000000e+00 -1.000000e+00 -0.000000e+00
   outer loop
     vertex  5.955909e-01 -5.396826e-01  4.943563e-01
     vertex -7.742501e-02 -5.396826e-01  7.737214e-01
     vertex  7.268964e-01 -5.396826e-01  1.792230e-01
   endloop
 endfacet
 facet normal  0.000000e+00 -1.000000e+00  0.000000e+00
   outer loop
     vertex  5.955909e-01 -5.396826e-01  4.943563e-01
     vertex  2.216932e-01 -5.396826e-01  8.308642e-01
     vertex -7.742501e-02 -5.396826e-01  7.737214e-01
   endloop
 endfacet
 facet normal -9.333456e-01  0.000000e+00  3.589791e-01
   outer loop
     vertex -8.877268e-01 -1.587302e-02  1.748027e-01
     vertex -7.504409e-01 -5.396826e-01  5.317460e-01
     vertex -7.504409e-01 -1.587302e-02  5.317460e-01
   endloop
 endfacet
 facet normal -9.333456e-01 -5.706466e-17  3.589791e-01
   outer loop
     vertex -8.877268e-01 -1.587302e-02  1.748027e-01
     vertex -8.877268e-01 -5.396826e-01  1.748027e-01
     vertex -7.504409e-01 -5.396826e-01  5.317460e-01
   endloop
 endfacet
 facet normal -9.615240e-01  0.000000e+00 -2.747211e-01
   outer loop
     vertex -7.878307e-01 -1.587302e-02 -4.777778e-01
     vertex -9.373897e-01 -1.587302e-02  4.567905e-02
     vertex -9.373897e-01  5.714286e-01  4.567905e-02
   endloop
 endfacet
 facet normal -9.615240e-01  0.000000e+00 -2.747211e-01
   outer loop
     vertex -7.878307e-01 -1.587302e-02 -4.777778e-01
     vertex -9.373897e-01  5.714286e-01  4.567905e-02
     vertex -7.878307e-01  5.714286e-01 -4.777778e-01
   endloop
 endfacet
 facet normal  9.377488e-01  0.000000e+00 -3.473143e-01
   outer loop
     vertex  4.086421e-01 -1.587302e-02 -8.714285e-01
     vertex  4.086421e-01  7.936508e-01 -8.714285e-01
     vertex  5.225577e-01  5.714286e-01 -5.638564e-01
   endloop
 endfacet
 facet normal  9.377488e-01  4.640798e-16 -3.473143e-01
   outer loop
     vertex  7.825397e-01  7.936508e-01  1.380953e-01
     vertex  5.225577e-01  5.714286e-01 -5.638564e-01
     vertex  4.086421e-01  7.936508e-01 -8.714285e-01
   endloop
 endfacet
 facet normal  9.377488e-01  4.595894e-17 -3.473143e-01
   outer loop
     vertex  5.225577e-01 -1.587302e-02 -5.638564e-01
     vertex  4.086421e-01 -1.587302e-02 -8.714285e-01
     vertex  5.225577e-01  5.714286e-01 -5.638564e-01
   endloop
 endfacet
 facet normal  9.377488e-01  1.233082e-16 -3.473143e-01
   outer loop
     vertex  7.644189e-01  5.714286e-01  8.916906e-02
     vertex  5.225577e-01  5.714286e-01 -5.638564e-01
     vertex  7.825397e-01  7.936508e-01  1.380953e-01
   endloop
 endfacet
 facet normal  9.377488e-01 -4.599777e-17 -3.473143e-01
   outer loop
     vertex  7.825397e-01 -1.587302e-02  1.380953e-01
     vertex  7.644189e-01 -1.587302e-02  8.916906e-02
     vertex  7.644189e-01  5.714286e-01  8.916906e-02
   endloop
 endfacet
 facet normal  9.377488e-01  0.000000e+00 -3.473143e-01
   outer loop
     vertex  7.825397e-01 -1.587302e-02  1.380953e-01
     vertex  7.644189e-01  5.714286e-01  8.916906e-02
     vertex  7.825397e-01  7.936508e-01  1.380953e-01
   endloop
 endfacet
 facet normal  5.943910e-01 -0.000000e+00  8.041762e-01
   outer loop
     vertex  7.825397e-01 -1.587302e-02  1.380953e-01
     vertex  7.825397e-01  7.936508e-01  1.380953e-01
     vertex  7.268964e-01  5.714286e-01  1.792230e-01
   endloop
 endfacet
 facet normal  5.943910e-01 -3.800496e-17  8.041762e-01
   outer loop
     vertex  7.268964e-01 -1.587302e-02  1.792230e-01
     vertex  7.825397e-01 -1.587302e-02  1.380953e-01
     vertex  7.268964e-01  5.714286e-01  1.792230e-01
   endloop
 endfacet
 facet normal  5.943910e-01  4.671898e-16  8.041762e-01
   outer loop
     vertex -7.742501e-02  7.936508e-01  7.737214e-01
     vertex  7.268964e-01  5.714286e-01  1.792230e-01
     vertex  7.825397e-01  7.936508e-01  1.380953e-01
   endloop
 endfacet
 facet normal  5.943910e-01 -0.000000e+00  8.041762e-01
   outer loop
     vertex -7.742501e-02  5.714286e-01  7.737214e-01
     vertex  7.268964e-01  5.714286e-01  1.792230e-01
     vertex -7.742501e-02  7.936508e-01  7.737214e-01
   endloop
 endfacet
 facet normal  0.000000e+00  1.000000e+00  0.000000e+00
   outer loop
     vertex -7.742501e-02  5.714286e-01  7.737214e-01
     vertex -8.877268e-01  5.714286e-01  1.748027e-01
     vertex -7.504409e-01  5.714286e-01  5.317460e-01
   endloop
 endfacet
 facet normal  0.000000e+00  1.000000e+00  0.000000e+00
   outer loop
     vertex -7.742501e-02  5.714286e-01  7.737214e-01
     vertex -7.504409e-01  5.714286e-01  5.317460e-01
     vertex -3.391534e-01  5.714286e-01  8.308642e-01
   endloop
 endfacet
 facet normal  0.000000e+00  1.000000e+00  0.000000e+00
   outer loop
     vertex  2.216932e-01  5.714286e-01  8.308642e-01
     vertex -7.742501e-02  5.714286e-01  7.737214e-01
     vertex -3.391534e-01  5.714286e-01  8.308642e-01
   endloop
 endfacet
 facet normal  0.000000e+00  1.000000e+00  0.000000e+00
   outer loop
     vertex  5.955909e-01  5.714286e-01  4.943563e-01
     vertex  7.268964e-01  5.714286e-01  1.792230e-01
     vertex -7.742501e-02  5.714286e-01  7.737214e-01
   endloop
 endfacet
 facet normal  0.000000e+00  1.000000e+00  0.000000e+00
   outer loop
     vertex  5.955909e-01  5.714286e-01  4.943563e-01
     vertex -7.742501e-02  5.714286e-01  7.737214e-01
     vertex  2.216932e-01  5.714286e-01  8.308642e-01
   endloop
 endfacet
 facet normal -9.333456e-01  0.000000e+00  3.589791e-01
   outer loop
     vertex -8.877268e-01 -1.587302e-02  1.748027e-01
     vertex -7.504409e-01 -1.587302e-02  5.317460e-01
     vertex -7.504409e-01  5.714286e-01  5.317460e-01
   endloop
 endfacet
 facet normal -9.333456e-01  5.089551e-17  3.589791e-01
   outer loop
     vertex -8.877268e-01 -1.587302e-02  1.748027e-01
     vertex -7.504409e-01  5.714286e-01  5.317460e-01
     vertex -8.877268e-01  5.714286e-01  1.748027e-01
   endloop
 endfacet
 facet normal  5.547003e-01  2.358120e-16 -8.320502e-01
   outer loop
     vertex  5.955909e-01 -1.587302e-02 -5.151675e-01
     vertex  5.225577e-01 -5.396826e-01 -5.638564e-01
     vertex  5.225577e-01 -1.587302e-02 -5.638564e-01
   endloop
 endfacet
 facet normal  5.547003e-01  0.000000e+00 -8.320502e-01
   outer loop
     vertex  5.955909e-01 -1.587302e-02 -5.151675e-01
     vertex  5.955909e-01 -5.396826e-01 -5.151675e-01
     vertex  5.225577e-01 -5.396826e-01 -5.638564e-01
   endloop
 endfacet
 facet normal  0.000000e+00 -1.000000e+00  0.000000e+00
   outer loop
     vertex  7.644189e-01 -5.396826e-01  8.916906e-02
     vertex  5.225577e-01 -5.396826e-01 -5.638564e-01
     vertex  5.955909e-01 -5.396826e-01 -5.151675e-01
   endloop
 endfacet
 facet normal  0.000000e+00 -1.000000e+00 -0.000000e+00
   outer loop
     vertex  7.644189e-01 -5.396826e-01  8.916906e-02
     vertex  5.955909e-01 -5.396826e-01 -5.151675e-01
     vertex  7.825397e-01 -5.396826e-01  4.567905e-02
   endloop
 endfacet
 facet normal  9.230769e-01  0.000000e+00  3.846154e-01
   outer loop
     vertex  7.644189e-01 -1.587302e-02  8.916906e-02
     vertex  7.825397e-01 -5.396826e-01  4.567905e-02
     vertex  7.825397e-01 -1.587302e-02  4.567905e-02
   endloop
 endfacet
 facet normal  9.230769e-01  3.586874e-16  3.846154e-01
   outer loop
     vertex  7.644189e-01 -1.587302e-02  8.916906e-02
     vertex  7.644189e-01 -5.396826e-01  8.916906e-02
     vertex  7.825397e-01 -5.396826e-01  4.567905e-02
   endloop
 endfacet
 facet normal  9.230769e-01  0.000000e+00  3.846154e-01
   outer loop
     vertex  5.955909e-01 -1.587302e-02  4.943563e-01
     vertex  7.268964e-01 -5.396826e-01  1.792230e-01
     vertex  7.268964e-01 -1.587302e-02  1.792230e-01
   endloop
 endfacet
 facet normal  9.230769e-01  0.000000e+00  3.846154e-01
   outer loop
     vertex  5.955909e-01 -1.587302e-02  4.943563e-01
     vertex  5.955909e-01 -5.396826e-01  4.943563e-01
     vertex  7.268964e-01 -5.396826e-01  1.792230e-01
   endloop
 endfacet
 facet normal -5.881717e-01  0.000000e+00  8.087361e-01
   outer loop
     vertex -7.504409e-01 -1.587302e-02  5.317460e-01
     vertex -3.391534e-01 -5.396826e-01  8.308642e-01
     vertex -3.391534e-01 -1.587302e-02  8.308642e-01
   endloop
 endfacet
 facet normal -5.881717e-01  0.000000e+00  8.087361e-01
   outer loop
     vertex -7.504409e-01 -1.587302e-02  5.317460e-01
     vertex -7.504409e-01 -5.396826e-01  5.317460e-01
     vertex -3.391534e-01 -5.396826e-01  8.308642e-01
   endloop
 endfacet
 facet normal -0.000000e+00  0.000000e+00  1.000000e+00
   outer loop
     vertex -3.391534e-01 -1.587302e-02  8.308642e-01
     vertex  2.216932e-01 -5.396826e-01  8.308642e-01
     vertex  2.216932e-01 -1.587302e-02  8.308642e-01
   endloop
 endfacet
 facet normal  0.000000e+00  0.000000e+00  1.000000e+00
   outer loop
     vertex -3.391534e-01 -1.587302e-02  8.308642e-01
     vertex -3.391534e-01 -5.396826e-01  8.308642e-01
     vertex  2.216932e-01 -5.396826e-01  8.308642e-01
   endloop
 endfacet
 facet normal  6.689647e-01  0.000000e+00  7.432941e-01
   outer loop
     vertex  2.216932e-01 -1.587302e-02  8.308642e-01
     vertex  5.955909e-01 -5.396826e-01  4.943563e-01
     vertex  5.955909e-01 -1.587302e-02  4.943563e-01
   endloop
 endfacet
 facet normal  6.689647e-01  0.000000e+00  7.432941e-01
   outer loop
     vertex  2.216932e-01 -1.587302e-02  8.308642e-01
     vertex  2.216932e-01 -5.396826e-01  8.308642e-01
     vertex  5.955909e-01 -5.396826e-01  4.943563e-01
   endloop
 endfacet
 facet normal  5.547003e-01 -2.103188e-16 -8.320502e-01
   outer loop
     vertex  5.955909e-01 -1.587302e-02 -5.151675e-01
     vertex  5.225577e-01 -1.587302e-02 -5.638564e-01
     vertex  5.225577e-01  5.714286e-01 -5.638564e-01
   endloop
 endfacet
 facet normal  5.547003e-01  0.000000e+00 -8.320502e-01
   outer loop
     vertex  5.955909e-01 -1.587302e-02 -5.151675e-01
     vertex  5.225577e-01  5.714286e-01 -5.638564e-01
     vertex  5.955909e-01  5.714286e-01 -5.151675e-01
   endloop
 endfacet
 facet normal  0.000000e+00  1.000000e+00  0.000000e+00
   outer loop
     vertex  7.644189e-01  5.714286e-01  8.916906e-02
     vertex  5.955909e-01  5.714286e-01 -5.151675e-01
     vertex  5.225577e-01  5.714286e-01 -5.638564e-01
   endloop
 endfacet
 facet normal  0.000000e+00  1.000000e+00  0.000000e+00
   outer loop
     vertex  7.644189e-01  5.714286e-01  8.916906e-02
     vertex  7.825397e-01  5.714286e-01  4.567905e-02
     vertex  5.955909e-01  5.714286e-01 -5.151675e-01
   endloop
 endfacet
 facet normal  9.230769e-01  0.000000e+00  3.846154e-01
   outer loop
     vertex  7.644189e-01 -1.587302e-02  8.916906e-02
     vertex  7.825397e-01 -1.587302e-02  4.567905e-02
     vertex  7.825397e-01  5.714286e-01  4.567905e-02
   endloop
 endfacet
 facet normal  9.230769e-01 -3.199104e-16  3.846154e-01
   outer loop
     vertex  7.644189e-01 -1.587302e-02  8.916906e-02
     vertex  7.825397e-01  5.714286e-01  4.567905e-02
     vertex  7.644189e-01  5.714286e-01  8.916906e-02
   endloop
 endfacet
 facet normal  9.230769e-01  0.000000e+00  3.846154e-01
   outer loop
     vertex  5.955909e-01 -1.587302e-02  4.943563e-01
     vertex  7.268964e-01 -1.587302e-02  1.792230e-01
     vertex  7.268964e-01  5.714286e-01  1.792230e-01
   endloop
 endfacet
 facet normal  9.230769e-01 -0.000000e+00  3.846154e-01
   outer loop
     vertex  5.955909e-01 -1.587302e-02  4.943563e-01
     vertex  7.268964e-01  5.714286e-01  1.792230e-01
     vertex  5.955909e-01  5.714286e-01  4.943563e-01
   endloop
 endfacet
 facet normal -5.881717e-01  0.000000e+00  8.087361e-01
   outer loop
     vertex -7.504409e-01 -1.587302e-02  5.317460e-01
     vertex -3.391534e-01 -1.587302e-02  8.308642e-01
     vertex -3.391534e-01  5.714286e-01  8.308642e-01
   endloop
 endfacet
 facet normal -5.881717e-01  0.000000e+00  8.087361e-01
   outer loop
     vertex -7.504409e-01 -1.587302e-02  5.317460e-01
     vertex -3.391534e-01  5.714286e-01  8.308642e-01
     vertex -7.504409e-01  5.714286e-01  5.317460e-01
   endloop
 endfacet
 facet normal  0.000000e+00  0.000000e+00  1.000000e+00
   outer loop
     vertex -3.391534e-01 -1.587302e-02  8.308642e-01
     vertex  2.216932e-01 -1.587302e-02  8.308642e-01
     vertex  2.216932e-01  5.714286e-01  8.308642e-01
   endloop
 endfacet
 facet normal  0.000000e+00  0.000000e+00  1.000000e+00
   outer loop
     vertex -3.391534e-01 -1.587302e-02  8.308642e-01
     vertex  2.216932e-01  5.714286e-01  8.308642e-01
     vertex -3.391534e-01  5.714286e-01  8.308642e-01
   endloop
 endfacet
 facet normal  6.689647e-01  0.000000e+00  7.432941e-01
   outer loop
     vertex  2.216932e-01 -1.587302e-02  8.308642e-01
     vertex  5.955909e-01 -1.587302e-02  4.943563e-01
     vertex  5.955909e-01  5.714286e-01  4.943563e-01
   endloop
 endfacet
 facet normal  6.689647e-01 -0.000000e+00  7.432941e-01
   outer loop
     vertex  2.216932e-01 -1.587302e-02  8.308642e-01
     vertex  5.955909e-01  5.714286e-01  4.943563e-01
     vertex  2.216932e-01  5.714286e-01  8.308642e-01
   endloop
 endfacet
 facet normal  9.486833e-01  0.000000e+00 -3.162277e-01
   outer loop
     vertex  7.825397e-01 -1.587302e-02  4.567905e-02
     vertex  5.955909e-01 -5.396826e-01 -5.151675e-01
     vertex  5.955909e-01 -1.587302e-02 -5.151675e-01
   endloop
 endfacet
 facet normal  9.486833e-01  0.000000e+00 -3.162277e-01
   outer loop
     vertex  7.825397e-01 -1.587302e-02  4.567905e-02
     vertex  7.825397e-01 -5.396826e-01  4.567905e-02
     vertex  5.955909e-01 -5.396826e-01 -5.151675e-01
   endloop
 endfacet
 facet normal  9.486833e-01  0.000000e+00 -3.162277e-01
   outer loop
     vertex  7.825397e-01 -1.587302e-02  4.567905e-02
     vertex  5.955909e-01 -1.587302e-02 -5.151675e-01
     vertex  5.955909e-01  5.714286e-01 -5.151675e-01
   endloop
 endfacet
 facet normal  9.486833e-01  0.000000e+00 -3.162277e-01
   outer loop
     vertex  7.825397e-01 -1.587302e-02  4.567905e-02
     vertex  5.955909e-01  5.714286e-01 -5.151675e-01
     vertex  7.825397e-01  5.714286e-01  4.567905e-02
   endloop
 endfacet
endsolid
