solid 
 facet normal -1.205341e-01 -9.927092e-01  0.000000e+00
   outer loop
     vertex -1.034581e+00 -1.054267e-01 -1.587302e-02
     vertex -1.026984e+00 -1.063492e-01 -1.587302e-02
     vertex -1.026984e+00 -1.063492e-01  1.904762e-01
   endloop
 endfacet
 facet normal -1.205341e-01 -9.927092e-01  0.000000e+00
   outer loop
     vertex -1.034581e+00 -1.054267e-01 -1.587302e-02
     vertex -1.026984e+00 -1.063492e-01  1.904762e-01
     vertex -1.034581e+00 -1.054267e-01  1.904762e-01
   endloop
 endfacet
 facet normal -3.546029e-01 -9.350170e-01  0.000000e+00
   outer loop
     vertex -1.041737e+00 -1.027129e-01 -1.587302e-02
     vertex -1.034581e+00 -1.054267e-01  1.904762e-01
     vertex -1.041737e+00 -1.027129e-01  1.904762e-01
   endloop
 endfacet
 facet normal -3.546029e-01 -9.350170e-01  0.000000e+00
   outer loop
     vertex -1.041737e+00 -1.027129e-01 -1.587302e-02
     vertex -1.034581e+00 -1.054267e-01 -1.587302e-02
     vertex -1.034581e+00 -1.054267e-01  1.904762e-01
   endloop
 endfacet
 facet normal -5.680633e-01 -8.229849e-01  0.000000e+00
   outer loop
     vertex -1.048036e+00 -9.836541e-02 -1.587302e-02
     vertex -1.041737e+00 -1.027129e-01  1.904762e-01
     vertex -1.048036e+00 -9.836541e-02  1.904762e-01
   endloop
 endfacet
 facet normal -5.680633e-01 -8.229849e-01  0.000000e+00
   outer loop
     vertex -1.048036e+00 -9.836541e-02 -1.587302e-02
     vertex -1.041737e+00 -1.027129e-01 -1.587302e-02
     vertex -1.041737e+00 -1.027129e-01  1.904762e-01
   endloop
 endfacet
 facet normal -7.485099e-01 -6.631236e-01  0.000000e+00
   outer loop
     vertex -1.053111e+00 -9.263696e-02 -1.587302e-02
     vertex -1.048036e+00 -9.836541e-02  1.904762e-01
     vertex -1.053111e+00 -9.263696e-02  1.904762e-01
   endloop
 endfacet
 facet normal -7.485099e-01 -6.631236e-01  0.000000e+00
   outer loop
     vertex -1.053111e+00 -9.263696e-02 -1.587302e-02
     vertex -1.048036e+00 -9.836541e-02 -1.587302e-02
     vertex -1.048036e+00 -9.836541e-02  1.904762e-01
   endloop
 endfacet
 facet normal -8.854556e-01 -4.647239e-01  0.000000e+00
   outer loop
     vertex -1.056667e+00 -8.586044e-02 -1.587302e-02
     vertex -1.053111e+00 -9.263696e-02  1.904762e-01
     vertex -1.056667e+00 -8.586044e-02  1.904762e-01
   endloop
 endfacet
 facet normal -8.854556e-01 -4.647239e-01  0.000000e+00
   outer loop
     vertex -1.056667e+00 -8.586044e-02 -1.587302e-02
     vertex -1.053111e+00 -9.263696e-02 -1.587302e-02
     vertex -1.053111e+00 -9.263696e-02  1.904762e-01
   endloop
 endfacet
 facet normal -9.709417e-01 -2.393161e-01  0.000000e+00
   outer loop
     vertex -1.058499e+00 -7.842968e-02 -1.587302e-02
     vertex -1.056667e+00 -8.586044e-02  1.904762e-01
     vertex -1.058499e+00 -7.842968e-02  1.904762e-01
   endloop
 endfacet
 facet normal -9.709417e-01 -2.393161e-01  0.000000e+00
   outer loop
     vertex -1.058499e+00 -7.842968e-02 -1.587302e-02
     vertex -1.056667e+00 -8.586044e-02 -1.587302e-02
     vertex -1.056667e+00 -8.586044e-02  1.904762e-01
   endloop
 endfacet
 facet normal -1.000000e+00  0.000000e+00  0.000000e+00
   outer loop
     vertex -1.058499e+00 -7.077654e-02 -1.587302e-02
     vertex -1.058499e+00 -7.842968e-02  1.904762e-01
     vertex -1.058499e+00 -7.077654e-02  1.904762e-01
   endloop
 endfacet
 facet normal -1.000000e+00  0.000000e+00  0.000000e+00
   outer loop
     vertex -1.058499e+00 -7.077654e-02 -1.587302e-02
     vertex -1.058499e+00 -7.842968e-02 -1.587302e-02
     vertex -1.058499e+00 -7.842968e-02  1.904762e-01
   endloop
 endfacet
 facet normal -9.709417e-01  2.393161e-01  0.000000e+00
   outer loop
     vertex -1.056667e+00 -6.334578e-02 -1.587302e-02
     vertex -1.058499e+00 -7.077654e-02  1.904762e-01
     vertex -1.056667e+00 -6.334578e-02  1.904762e-01
   endloop
 endfacet
 facet normal -9.709417e-01  2.393161e-01  0.000000e+00
   outer loop
     vertex -1.056667e+00 -6.334578e-02 -1.587302e-02
     vertex -1.058499e+00 -7.077654e-02 -1.587302e-02
     vertex -1.058499e+00 -7.077654e-02  1.904762e-01
   endloop
 endfacet
 facet normal -8.854556e-01  4.647239e-01  0.000000e+00
   outer loop
     vertex -1.053111e+00 -5.656926e-02 -1.587302e-02
     vertex -1.056667e+00 -6.334578e-02  1.904762e-01
     vertex -1.053111e+00 -5.656926e-02  1.904762e-01
   endloop
 endfacet
 facet normal -8.854556e-01  4.647239e-01  0.000000e+00
   outer loop
     vertex -1.053111e+00 -5.656926e-02 -1.587302e-02
     vertex -1.056667e+00 -6.334578e-02 -1.587302e-02
     vertex -1.056667e+00 -6.334578e-02  1.904762e-01
   endloop
 endfacet
 facet normal -7.485099e-01  6.631236e-01  0.000000e+00
   outer loop
     vertex -1.048036e+00 -5.084081e-02 -1.587302e-02
     vertex -1.053111e+00 -5.656926e-02  1.904762e-01
     vertex -1.048036e+00 -5.084081e-02  1.904762e-01
   endloop
 endfacet
 facet normal -7.485099e-01  6.631236e-01  0.000000e+00
   outer loop
     vertex -1.048036e+00 -5.084081e-02 -1.587302e-02
     vertex -1.053111e+00 -5.656926e-02 -1.587302e-02
     vertex -1.053111e+00 -5.656926e-02  1.904762e-01
   endloop
 endfacet
 facet normal -5.680633e-01  8.229849e-01  0.000000e+00
   outer loop
     vertex -1.041737e+00 -4.649334e-02 -1.587302e-02
     vertex -1.048036e+00 -5.084081e-02  1.904762e-01
     vertex -1.041737e+00 -4.649334e-02  1.904762e-01
   endloop
 endfacet
 facet normal -5.680633e-01  8.229849e-01  0.000000e+00
   outer loop
     vertex -1.041737e+00 -4.649334e-02 -1.587302e-02
     vertex -1.048036e+00 -5.084081e-02 -1.587302e-02
     vertex -1.048036e+00 -5.084081e-02  1.904762e-01
   endloop
 endfacet
 facet normal -3.546029e-01  9.350170e-01  0.000000e+00
   outer loop
     vertex -1.034581e+00 -4.377952e-02 -1.587302e-02
     vertex -1.041737e+00 -4.649334e-02  1.904762e-01
     vertex -1.034581e+00 -4.377952e-02  1.904762e-01
   endloop
 endfacet
 facet normal -3.546029e-01  9.350170e-01  0.000000e+00
   outer loop
     vertex -1.034581e+00 -4.377952e-02 -1.587302e-02
     vertex -1.041737e+00 -4.649334e-02 -1.587302e-02
     vertex -1.041737e+00 -4.649334e-02  1.904762e-01
   endloop
 endfacet
 facet normal -1.205341e-01  9.927092e-01  0.000000e+00
   outer loop
     vertex -1.026984e+00 -4.285705e-02 -1.587302e-02
     vertex -1.034581e+00 -4.377952e-02  1.904762e-01
     vertex -1.026984e+00 -4.285705e-02  1.904762e-01
   endloop
 endfacet
 facet normal -1.205341e-01  9.927092e-01  0.000000e+00
   outer loop
     vertex -1.026984e+00 -4.285705e-02 -1.587302e-02
     vertex -1.034581e+00 -4.377952e-02 -1.587302e-02
     vertex -1.034581e+00 -4.377952e-02  1.904762e-01
   endloop
 endfacet
 facet normal  8.321678e-14 -1.000000e+00  3.114696e-14
   outer loop
     vertex -9.789552e-01 -1.063492e-01  6.349212e-02
     vertex -9.789552e-01 -1.063492e-01  1.904762e-01
     vertex -1.026984e+00 -1.063492e-01  1.904762e-01
   endloop
 endfacet
 facet normal  8.668415e-16 -1.000000e+00  0.000000e+00
   outer loop
     vertex -1.026984e+00 -1.063492e-01 -1.587302e-02
     vertex -9.789552e-01 -1.063492e-01  6.349212e-02
     vertex -1.026984e+00 -1.063492e-01  1.904762e-01
   endloop
 endfacet
 facet normal  5.152256e-13 -1.000000e+00 -1.042604e-13
   outer loop
     vertex  8.205779e-01 -1.063492e-01  6.349212e-02
     vertex  8.460318e-01 -1.063492e-01  1.904762e-01
     vertex  8.205779e-01 -1.063492e-01  1.904762e-01
   endloop
 endfacet
 facet normal  3.855941e-17 -1.000000e+00  1.586107e-15
   outer loop
     vertex  8.460318e-01 -1.063492e-01 -1.587302e-02
     vertex  8.205779e-01 -1.063492e-01  6.349212e-02
     vertex -9.789552e-01 -1.063492e-01  6.349212e-02
   endloop
 endfacet
 facet normal -7.409328e-18 -1.000000e+00  5.290639e-16
   outer loop
     vertex  8.460318e-01 -1.063492e-01 -1.587302e-02
     vertex -9.789552e-01 -1.063492e-01  6.349212e-02
     vertex -1.026984e+00 -1.063492e-01 -1.587302e-02
   endloop
 endfacet
 facet normal -4.906911e-15 -1.000000e+00  0.000000e+00
   outer loop
     vertex  8.460318e-01 -1.063492e-01 -1.587302e-02
     vertex  8.460318e-01 -1.063492e-01  1.904762e-01
     vertex  8.205779e-01 -1.063492e-01  6.349212e-02
   endloop
 endfacet
 facet normal -2.040411e-13  1.000000e+00  4.147464e-14
   outer loop
     vertex  8.202542e-01 -4.285705e-02  6.349212e-02
     vertex  8.202542e-01 -4.285705e-02  1.904762e-01
     vertex  8.460318e-01 -4.285705e-02  1.904762e-01
   endloop
 endfacet
 facet normal  2.691836e-16  1.000000e+00 -0.000000e+00
   outer loop
     vertex  8.460318e-01 -4.285705e-02 -1.587302e-02
     vertex  8.202542e-01 -4.285705e-02  6.349212e-02
     vertex  8.460318e-01 -4.285705e-02  1.904762e-01
   endloop
 endfacet
 facet normal -8.294679e-14  1.000000e+00 -3.152947e-14
   outer loop
     vertex -9.786316e-01 -4.285705e-02  6.349212e-02
     vertex -1.026984e+00 -4.285705e-02  1.904762e-01
     vertex -9.786316e-01 -4.285705e-02  1.904762e-01
   endloop
 endfacet
 facet normal -3.857329e-18  1.000000e+00 -8.868285e-17
   outer loop
     vertex -9.786316e-01 -4.285705e-02  6.349212e-02
     vertex  8.202542e-01 -4.285705e-02  6.349212e-02
     vertex  8.460318e-01 -4.285705e-02 -1.587302e-02
   endloop
 endfacet
 facet normal -1.435066e-16  1.000000e+00  0.000000e+00
   outer loop
     vertex -1.026984e+00 -4.285705e-02 -1.587302e-02
     vertex -1.026984e+00 -4.285705e-02  1.904762e-01
     vertex -9.786316e-01 -4.285705e-02  6.349212e-02
   endloop
 endfacet
 facet normal -3.704664e-18  1.000000e+00 -8.517297e-17
   outer loop
     vertex -1.026984e+00 -4.285705e-02 -1.587302e-02
     vertex -9.786316e-01 -4.285705e-02  6.349212e-02
     vertex  8.460318e-01 -4.285705e-02 -1.587302e-02
   endloop
 endfacet
 facet normal -1.205341e-01 -9.927092e-01  0.000000e+00
   outer loop
     vertex -1.034581e+00 -1.054267e-01 -1.587302e-02
     vertex -1.026984e+00 -1.063492e-01 -3.174603e-02
     vertex -1.026984e+00 -1.063492e-01 -1.587302e-02
   endloop
 endfacet
 facet normal -1.205341e-01 -9.927092e-01 -0.000000e+00
   outer loop
     vertex -1.034581e+00 -1.054267e-01 -1.587302e-02
     vertex -1.034581e+00 -1.054267e-01 -3.174603e-02
     vertex -1.026984e+00 -1.063492e-01 -3.174603e-02
   endloop
 endfacet
 facet normal -3.546029e-01 -9.350170e-01 -0.000000e+00
   outer loop
     vertex -1.041737e+00 -1.027129e-01 -1.587302e-02
     vertex -1.041737e+00 -1.027129e-01 -3.174603e-02
     vertex -1.034581e+00 -1.054267e-01 -3.174603e-02
   endloop
 endfacet
 facet normal -3.546029e-01 -9.350170e-01  0.000000e+00
   outer loop
     vertex -1.041737e+00 -1.027129e-01 -1.587302e-02
     vertex -1.034581e+00 -1.054267e-01 -3.174603e-02
     vertex -1.034581e+00 -1.054267e-01 -1.587302e-02
   endloop
 endfacet
 facet normal -5.680633e-01 -8.229849e-01 -0.000000e+00
   outer loop
     vertex -1.048036e+00 -9.836541e-02 -1.587302e-02
     vertex -1.048036e+00 -9.836541e-02 -3.174603e-02
     vertex -1.041737e+00 -1.027129e-01 -3.174603e-02
   endloop
 endfacet
 facet normal -5.680633e-01 -8.229849e-01  0.000000e+00
   outer loop
     vertex -1.048036e+00 -9.836541e-02 -1.587302e-02
     vertex -1.041737e+00 -1.027129e-01 -3.174603e-02
     vertex -1.041737e+00 -1.027129e-01 -1.587302e-02
   endloop
 endfacet
 facet normal -7.485099e-01 -6.631236e-01 -0.000000e+00
   outer loop
     vertex -1.053111e+00 -9.263696e-02 -1.587302e-02
     vertex -1.053111e+00 -9.263696e-02 -3.174603e-02
     vertex -1.048036e+00 -9.836541e-02 -3.174603e-02
   endloop
 endfacet
 facet normal -7.485099e-01 -6.631236e-01  0.000000e+00
   outer loop
     vertex -1.053111e+00 -9.263696e-02 -1.587302e-02
     vertex -1.048036e+00 -9.836541e-02 -3.174603e-02
     vertex -1.048036e+00 -9.836541e-02 -1.587302e-02
   endloop
 endfacet
 facet normal -8.854556e-01 -4.647239e-01 -0.000000e+00
   outer loop
     vertex -1.056667e+00 -8.586044e-02 -1.587302e-02
     vertex -1.056667e+00 -8.586044e-02 -3.174603e-02
     vertex -1.053111e+00 -9.263696e-02 -3.174603e-02
   endloop
 endfacet
 facet normal -8.854556e-01 -4.647239e-01  0.000000e+00
   outer loop
     vertex -1.056667e+00 -8.586044e-02 -1.587302e-02
     vertex -1.053111e+00 -9.263696e-02 -3.174603e-02
     vertex -1.053111e+00 -9.263696e-02 -1.587302e-02
   endloop
 endfacet
 facet normal -9.709417e-01 -2.393161e-01 -0.000000e+00
   outer loop
     vertex -1.058499e+00 -7.842968e-02 -1.587302e-02
     vertex -1.058499e+00 -7.842968e-02 -3.174603e-02
     vertex -1.056667e+00 -8.586044e-02 -3.174603e-02
   endloop
 endfacet
 facet normal -9.709417e-01 -2.393161e-01  0.000000e+00
   outer loop
     vertex -1.058499e+00 -7.842968e-02 -1.587302e-02
     vertex -1.056667e+00 -8.586044e-02 -3.174603e-02
     vertex -1.056667e+00 -8.586044e-02 -1.587302e-02
   endloop
 endfacet
 facet normal -1.000000e+00  0.000000e+00 -0.000000e+00
   outer loop
     vertex -1.058499e+00 -7.077654e-02 -1.587302e-02
     vertex -1.058499e+00 -7.077654e-02 -3.174603e-02
     vertex -1.058499e+00 -7.842968e-02 -3.174603e-02
   endloop
 endfacet
 facet normal -1.000000e+00 -0.000000e+00  0.000000e+00
   outer loop
     vertex -1.058499e+00 -7.077654e-02 -1.587302e-02
     vertex -1.058499e+00 -7.842968e-02 -3.174603e-02
     vertex -1.058499e+00 -7.842968e-02 -1.587302e-02
   endloop
 endfacet
 facet normal -9.709417e-01  2.393161e-01  0.000000e+00
   outer loop
     vertex -1.056667e+00 -6.334578e-02 -1.587302e-02
     vertex -1.056667e+00 -6.334578e-02 -3.174603e-02
     vertex -1.058499e+00 -7.077654e-02 -3.174603e-02
   endloop
 endfacet
 facet normal -9.709417e-01  2.393161e-01  0.000000e+00
   outer loop
     vertex -1.056667e+00 -6.334578e-02 -1.587302e-02
     vertex -1.058499e+00 -7.077654e-02 -3.174603e-02
     vertex -1.058499e+00 -7.077654e-02 -1.587302e-02
   endloop
 endfacet
 facet normal -8.854556e-01  4.647239e-01  0.000000e+00
   outer loop
     vertex -1.053111e+00 -5.656926e-02 -1.587302e-02
     vertex -1.053111e+00 -5.656926e-02 -3.174603e-02
     vertex -1.056667e+00 -6.334578e-02 -3.174603e-02
   endloop
 endfacet
 facet normal -8.854556e-01  4.647239e-01  0.000000e+00
   outer loop
     vertex -1.053111e+00 -5.656926e-02 -1.587302e-02
     vertex -1.056667e+00 -6.334578e-02 -3.174603e-02
     vertex -1.056667e+00 -6.334578e-02 -1.587302e-02
   endloop
 endfacet
 facet normal -7.485099e-01  6.631236e-01  0.000000e+00
   outer loop
     vertex -1.048036e+00 -5.084081e-02 -1.587302e-02
     vertex -1.048036e+00 -5.084081e-02 -3.174603e-02
     vertex -1.053111e+00 -5.656926e-02 -3.174603e-02
   endloop
 endfacet
 facet normal -7.485099e-01  6.631236e-01  0.000000e+00
   outer loop
     vertex -1.048036e+00 -5.084081e-02 -1.587302e-02
     vertex -1.053111e+00 -5.656926e-02 -3.174603e-02
     vertex -1.053111e+00 -5.656926e-02 -1.587302e-02
   endloop
 endfacet
 facet normal -5.680633e-01  8.229849e-01  0.000000e+00
   outer loop
     vertex -1.041737e+00 -4.649334e-02 -1.587302e-02
     vertex -1.041737e+00 -4.649334e-02 -3.174603e-02
     vertex -1.048036e+00 -5.084081e-02 -3.174603e-02
   endloop
 endfacet
 facet normal -5.680633e-01  8.229849e-01  0.000000e+00
   outer loop
     vertex -1.041737e+00 -4.649334e-02 -1.587302e-02
     vertex -1.048036e+00 -5.084081e-02 -3.174603e-02
     vertex -1.048036e+00 -5.084081e-02 -1.587302e-02
   endloop
 endfacet
 facet normal -3.546029e-01  9.350170e-01  0.000000e+00
   outer loop
     vertex -1.034581e+00 -4.377952e-02 -1.587302e-02
     vertex -1.034581e+00 -4.377952e-02 -3.174603e-02
     vertex -1.041737e+00 -4.649334e-02 -3.174603e-02
   endloop
 endfacet
 facet normal -3.546029e-01  9.350170e-01  0.000000e+00
   outer loop
     vertex -1.034581e+00 -4.377952e-02 -1.587302e-02
     vertex -1.041737e+00 -4.649334e-02 -3.174603e-02
     vertex -1.041737e+00 -4.649334e-02 -1.587302e-02
   endloop
 endfacet
 facet normal -1.205341e-01  9.927092e-01  0.000000e+00
   outer loop
     vertex -1.026984e+00 -4.285705e-02 -1.587302e-02
     vertex -1.026984e+00 -4.285705e-02 -3.174603e-02
     vertex -1.034581e+00 -4.377952e-02 -3.174603e-02
   endloop
 endfacet
 facet normal -1.205341e-01  9.927092e-01  0.000000e+00
   outer loop
     vertex -1.026984e+00 -4.285705e-02 -1.587302e-02
     vertex -1.034581e+00 -4.377952e-02 -3.174603e-02
     vertex -1.034581e+00 -4.377952e-02 -1.587302e-02
   endloop
 endfacet
 facet normal  0.000000e+00  0.000000e+00  1.000000e+00
   outer loop
     vertex -1.026984e+00 -1.063492e-01  1.904762e-01
     vertex -1.041737e+00 -1.027129e-01  1.904762e-01
     vertex -1.034581e+00 -1.054267e-01  1.904762e-01
   endloop
 endfacet
 facet normal  0.000000e+00  0.000000e+00  1.000000e+00
   outer loop
     vertex -1.026984e+00 -1.063492e-01  1.904762e-01
     vertex -1.048036e+00 -9.836541e-02  1.904762e-01
     vertex -1.041737e+00 -1.027129e-01  1.904762e-01
   endloop
 endfacet
 facet normal  0.000000e+00  0.000000e+00  1.000000e+00
   outer loop
     vertex -1.026984e+00 -4.285705e-02  1.904762e-01
     vertex -1.053111e+00 -9.263696e-02  1.904762e-01
     vertex -1.048036e+00 -9.836541e-02  1.904762e-01
   endloop
 endfacet
 facet normal  0.000000e+00  0.000000e+00  1.000000e+00
   outer loop
     vertex -1.026984e+00 -4.285705e-02  1.904762e-01
     vertex -1.056667e+00 -8.586044e-02  1.904762e-01
     vertex -1.053111e+00 -9.263696e-02  1.904762e-01
   endloop
 endfacet
 facet normal  0.000000e+00  0.000000e+00  1.000000e+00
   outer loop
     vertex -1.026984e+00 -4.285705e-02  1.904762e-01
     vertex -1.058499e+00 -7.842968e-02  1.904762e-01
     vertex -1.056667e+00 -8.586044e-02  1.904762e-01
   endloop
 endfacet
 facet normal  0.000000e+00  0.000000e+00  1.000000e+00
   outer loop
     vertex -1.026984e+00 -4.285705e-02  1.904762e-01
     vertex -1.058499e+00 -7.077654e-02  1.904762e-01
     vertex -1.058499e+00 -7.842968e-02  1.904762e-01
   endloop
 endfacet
 facet normal  0.000000e+00  0.000000e+00  1.000000e+00
   outer loop
     vertex -1.026984e+00 -4.285705e-02  1.904762e-01
     vertex -1.056667e+00 -6.334578e-02  1.904762e-01
     vertex -1.058499e+00 -7.077654e-02  1.904762e-01
   endloop
 endfacet
 facet normal  0.000000e+00  0.000000e+00  1.000000e+00
   outer loop
     vertex -1.026984e+00 -4.285705e-02  1.904762e-01
     vertex -1.053111e+00 -5.656926e-02  1.904762e-01
     vertex -1.056667e+00 -6.334578e-02  1.904762e-01
   endloop
 endfacet
 facet normal  0.000000e+00  0.000000e+00  1.000000e+00
   outer loop
     vertex -1.026984e+00 -4.285705e-02  1.904762e-01
     vertex -1.048036e+00 -5.084081e-02  1.904762e-01
     vertex -1.053111e+00 -5.656926e-02  1.904762e-01
   endloop
 endfacet
 facet normal  0.000000e+00  0.000000e+00  1.000000e+00
   outer loop
     vertex -1.026984e+00 -4.285705e-02  1.904762e-01
     vertex -1.041737e+00 -4.649334e-02  1.904762e-01
     vertex -1.048036e+00 -5.084081e-02  1.904762e-01
   endloop
 endfacet
 facet normal  0.000000e+00  0.000000e+00  1.000000e+00
   outer loop
     vertex -1.026984e+00 -4.285705e-02  1.904762e-01
     vertex -1.034581e+00 -4.377952e-02  1.904762e-01
     vertex -1.041737e+00 -4.649334e-02  1.904762e-01
   endloop
 endfacet
 facet normal  0.000000e+00  0.000000e+00  1.000000e+00
   outer loop
     vertex -1.026984e+00 -4.285705e-02  1.904762e-01
     vertex -1.048036e+00 -9.836541e-02  1.904762e-01
     vertex -1.026984e+00 -1.063492e-01  1.904762e-01
   endloop
 endfacet
 facet normal -7.409328e-18 -1.000000e+00  0.000000e+00
   outer loop
     vertex  8.460318e-01 -1.063492e-01 -1.587302e-02
     vertex -1.026984e+00 -1.063492e-01 -1.587302e-02
     vertex -1.026984e+00 -1.063492e-01 -3.174603e-02
   endloop
 endfacet
 facet normal -7.409328e-18 -1.000000e+00 -0.000000e+00
   outer loop
     vertex  8.460318e-01 -1.063492e-01 -1.587302e-02
     vertex -1.026984e+00 -1.063492e-01 -3.174603e-02
     vertex  8.460318e-01 -1.063492e-01 -3.174603e-02
   endloop
 endfacet
 facet normal -4.973000e-01 -8.675787e-01  0.000000e+00
   outer loop
     vertex  8.544808e-01 -1.111922e-01 -1.587302e-02
     vertex  8.460318e-01 -1.063492e-01  1.904762e-01
     vertex  8.460318e-01 -1.063492e-01 -1.587302e-02
   endloop
 endfacet
 facet normal -4.973000e-01 -8.675787e-01  0.000000e+00
   outer loop
     vertex  8.544808e-01 -1.111922e-01 -1.587302e-02
     vertex  8.544808e-01 -1.111922e-01  1.904762e-01
     vertex  8.460318e-01 -1.063492e-01  1.904762e-01
   endloop
 endfacet
 facet normal -2.710184e-01 -9.625742e-01  0.000000e+00
   outer loop
     vertex  8.638549e-01 -1.138315e-01 -1.587302e-02
     vertex  8.638549e-01 -1.138315e-01  1.904762e-01
     vertex  8.544808e-01 -1.111922e-01  1.904762e-01
   endloop
 endfacet
 facet normal -2.710184e-01 -9.625742e-01  0.000000e+00
   outer loop
     vertex  8.638549e-01 -1.138315e-01 -1.587302e-02
     vertex  8.544808e-01 -1.111922e-01  1.904762e-01
     vertex  8.544808e-01 -1.111922e-01 -1.587302e-02
   endloop
 endfacet
 facet normal -2.841412e-02 -9.995962e-01  0.000000e+00
   outer loop
     vertex  8.735896e-01 -1.141082e-01 -1.587302e-02
     vertex  8.735896e-01 -1.141082e-01  1.904762e-01
     vertex  8.638549e-01 -1.138315e-01  1.904762e-01
   endloop
 endfacet
 facet normal -2.841412e-02 -9.995962e-01  0.000000e+00
   outer loop
     vertex  8.735896e-01 -1.141082e-01 -1.587302e-02
     vertex  8.638549e-01 -1.138315e-01  1.904762e-01
     vertex  8.638549e-01 -1.138315e-01 -1.587302e-02
   endloop
 endfacet
 facet normal  2.159015e-01 -9.764151e-01  0.000000e+00
   outer loop
     vertex  8.830985e-01 -1.120057e-01 -1.587302e-02
     vertex  8.830985e-01 -1.120057e-01  1.904762e-01
     vertex  8.735896e-01 -1.141082e-01  1.904762e-01
   endloop
 endfacet
 facet normal  2.159015e-01 -9.764151e-01  0.000000e+00
   outer loop
     vertex  8.830985e-01 -1.120057e-01 -1.587302e-02
     vertex  8.735896e-01 -1.141082e-01  1.904762e-01
     vertex  8.735896e-01 -1.141082e-01 -1.587302e-02
   endloop
 endfacet
 facet normal  4.472139e-01 -8.944270e-01  0.000000e+00
   outer loop
     vertex  8.918090e-01 -1.076504e-01 -1.587302e-02
     vertex  8.918090e-01 -1.076504e-01  1.904762e-01
     vertex  8.830985e-01 -1.120057e-01  1.904762e-01
   endloop
 endfacet
 facet normal  4.472139e-01 -8.944270e-01  0.000000e+00
   outer loop
     vertex  8.918090e-01 -1.076504e-01 -1.587302e-02
     vertex  8.830985e-01 -1.120057e-01  1.904762e-01
     vertex  8.830985e-01 -1.120057e-01 -1.587302e-02
   endloop
 endfacet
 facet normal  6.515918e-01 -7.585698e-01  0.000000e+00
   outer loop
     vertex  8.991964e-01 -1.013048e-01 -1.587302e-02
     vertex  8.991964e-01 -1.013048e-01  1.904762e-01
     vertex  8.918090e-01 -1.076504e-01  1.904762e-01
   endloop
 endfacet
 facet normal  6.515918e-01 -7.585698e-01  0.000000e+00
   outer loop
     vertex  8.991964e-01 -1.013048e-01 -1.587302e-02
     vertex  8.918090e-01 -1.076504e-01  1.904762e-01
     vertex  8.918090e-01 -1.076504e-01 -1.587302e-02
   endloop
 endfacet
 facet normal  8.167259e-01 -5.770258e-01  0.000000e+00
   outer loop
     vertex  9.048159e-01 -9.335104e-02 -1.587302e-02
     vertex  9.048159e-01 -9.335104e-02  1.904762e-01
     vertex  8.991964e-01 -1.013048e-01  1.904762e-01
   endloop
 endfacet
 facet normal  8.167259e-01 -5.770258e-01  0.000000e+00
   outer loop
     vertex  9.048159e-01 -9.335104e-02 -1.587302e-02
     vertex  8.991964e-01 -1.013048e-01  1.904762e-01
     vertex  8.991964e-01 -1.013048e-01 -1.587302e-02
   endloop
 endfacet
 facet normal  9.326707e-01 -3.607290e-01  0.000000e+00
   outer loop
     vertex  9.083289e-01 -8.426813e-02 -1.587302e-02
     vertex  9.083289e-01 -8.426813e-02  1.904762e-01
     vertex  9.048159e-01 -9.335104e-02  1.904762e-01
   endloop
 endfacet
 facet normal  9.326707e-01 -3.607290e-01  0.000000e+00
   outer loop
     vertex  9.083289e-01 -8.426813e-02 -1.587302e-02
     vertex  9.048159e-01 -9.335104e-02  1.904762e-01
     vertex  9.048159e-01 -9.335104e-02 -1.587302e-02
   endloop
 endfacet
 facet normal  9.924430e-01 -1.227064e-01  0.000000e+00
   outer loop
     vertex  9.095238e-01 -7.460311e-02 -1.587302e-02
     vertex  9.095238e-01 -7.460311e-02  1.904762e-01
     vertex  9.083289e-01 -8.426813e-02  1.904762e-01
   endloop
 endfacet
 facet normal  9.924430e-01 -1.227064e-01  0.000000e+00
   outer loop
     vertex  9.095238e-01 -7.460311e-02 -1.587302e-02
     vertex  9.083289e-01 -8.426813e-02  1.904762e-01
     vertex  9.083289e-01 -8.426813e-02 -1.587302e-02
   endloop
 endfacet
 facet normal  9.924430e-01  1.227064e-01 -0.000000e+00
   outer loop
     vertex  9.083289e-01 -6.493810e-02 -1.587302e-02
     vertex  9.083289e-01 -6.493810e-02  1.904762e-01
     vertex  9.095238e-01 -7.460311e-02  1.904762e-01
   endloop
 endfacet
 facet normal  9.924430e-01  1.227064e-01  0.000000e+00
   outer loop
     vertex  9.083289e-01 -6.493810e-02 -1.587302e-02
     vertex  9.095238e-01 -7.460311e-02  1.904762e-01
     vertex  9.095238e-01 -7.460311e-02 -1.587302e-02
   endloop
 endfacet
 facet normal  9.326707e-01  3.607290e-01 -0.000000e+00
   outer loop
     vertex  9.048159e-01 -5.585518e-02 -1.587302e-02
     vertex  9.048159e-01 -5.585518e-02  1.904762e-01
     vertex  9.083289e-01 -6.493810e-02  1.904762e-01
   endloop
 endfacet
 facet normal  9.326707e-01  3.607290e-01  0.000000e+00
   outer loop
     vertex  9.048159e-01 -5.585518e-02 -1.587302e-02
     vertex  9.083289e-01 -6.493810e-02  1.904762e-01
     vertex  9.083289e-01 -6.493810e-02 -1.587302e-02
   endloop
 endfacet
 facet normal  8.167259e-01  5.770258e-01 -0.000000e+00
   outer loop
     vertex  8.991964e-01 -4.790140e-02 -1.587302e-02
     vertex  8.991964e-01 -4.790140e-02  1.904762e-01
     vertex  9.048159e-01 -5.585518e-02  1.904762e-01
   endloop
 endfacet
 facet normal  8.167259e-01  5.770258e-01  0.000000e+00
   outer loop
     vertex  8.991964e-01 -4.790140e-02 -1.587302e-02
     vertex  9.048159e-01 -5.585518e-02  1.904762e-01
     vertex  9.048159e-01 -5.585518e-02 -1.587302e-02
   endloop
 endfacet
 facet normal  6.515918e-01  7.585698e-01 -0.000000e+00
   outer loop
     vertex  8.918090e-01 -4.155581e-02 -1.587302e-02
     vertex  8.918090e-01 -4.155581e-02  1.904762e-01
     vertex  8.991964e-01 -4.790140e-02  1.904762e-01
   endloop
 endfacet
 facet normal  6.515918e-01  7.585698e-01  0.000000e+00
   outer loop
     vertex  8.918090e-01 -4.155581e-02 -1.587302e-02
     vertex  8.991964e-01 -4.790140e-02  1.904762e-01
     vertex  8.991964e-01 -4.790140e-02 -1.587302e-02
   endloop
 endfacet
 facet normal  4.472139e-01  8.944270e-01 -0.000000e+00
   outer loop
     vertex  8.830985e-01 -3.720056e-02 -1.587302e-02
     vertex  8.830985e-01 -3.720056e-02  1.904762e-01
     vertex  8.918090e-01 -4.155581e-02  1.904762e-01
   endloop
 endfacet
 facet normal  4.472139e-01  8.944270e-01  0.000000e+00
   outer loop
     vertex  8.830985e-01 -3.720056e-02 -1.587302e-02
     vertex  8.918090e-01 -4.155581e-02  1.904762e-01
     vertex  8.918090e-01 -4.155581e-02 -1.587302e-02
   endloop
 endfacet
 facet normal  2.159015e-01  9.764151e-01  0.000000e+00
   outer loop
     vertex  8.735896e-01 -3.509798e-02 -1.587302e-02
     vertex  8.830985e-01 -3.720056e-02  1.904762e-01
     vertex  8.830985e-01 -3.720056e-02 -1.587302e-02
   endloop
 endfacet
 facet normal  2.159015e-01  9.764151e-01 -0.000000e+00
   outer loop
     vertex  8.735896e-01 -3.509798e-02 -1.587302e-02
     vertex  8.735896e-01 -3.509798e-02  1.904762e-01
     vertex  8.830985e-01 -3.720056e-02  1.904762e-01
   endloop
 endfacet
 facet normal -2.841412e-02  9.995962e-01  0.000000e+00
   outer loop
     vertex  8.735896e-01 -3.509798e-02 -1.587302e-02
     vertex  8.638549e-01 -3.537470e-02  1.904762e-01
     vertex  8.735896e-01 -3.509798e-02  1.904762e-01
   endloop
 endfacet
 facet normal -2.841412e-02  9.995962e-01  0.000000e+00
   outer loop
     vertex  8.638549e-01 -3.537470e-02 -1.587302e-02
     vertex  8.638549e-01 -3.537470e-02  1.904762e-01
     vertex  8.735896e-01 -3.509798e-02 -1.587302e-02
   endloop
 endfacet
 facet normal -2.710184e-01  9.625742e-01  0.000000e+00
   outer loop
     vertex  8.544808e-01 -3.801404e-02 -1.587302e-02
     vertex  8.638549e-01 -3.537470e-02  1.904762e-01
     vertex  8.638549e-01 -3.537470e-02 -1.587302e-02
   endloop
 endfacet
 facet normal -2.710184e-01  9.625742e-01  0.000000e+00
   outer loop
     vertex  8.544808e-01 -3.801404e-02 -1.587302e-02
     vertex  8.544808e-01 -3.801404e-02  1.904762e-01
     vertex  8.638549e-01 -3.537470e-02  1.904762e-01
   endloop
 endfacet
 facet normal -4.973000e-01  8.675787e-01  0.000000e+00
   outer loop
     vertex  8.544808e-01 -3.801404e-02 -1.587302e-02
     vertex  8.460318e-01 -4.285705e-02  1.904762e-01
     vertex  8.544808e-01 -3.801404e-02  1.904762e-01
   endloop
 endfacet
 facet normal -4.973000e-01  8.675787e-01  0.000000e+00
   outer loop
     vertex  8.460318e-01 -4.285705e-02 -1.587302e-02
     vertex  8.460318e-01 -4.285705e-02  1.904762e-01
     vertex  8.544808e-01 -3.801404e-02 -1.587302e-02
   endloop
 endfacet
 facet normal  0.000000e+00  0.000000e+00  1.000000e+00
   outer loop
     vertex  8.259119e-01 -9.915923e-02  1.904762e-01
     vertex  8.206931e-01 -1.022185e-01  1.904762e-01
     vertex  8.205779e-01 -1.063492e-01  1.904762e-01
   endloop
 endfacet
 facet normal  0.000000e+00  0.000000e+00  1.000000e+00
   outer loop
     vertex  8.259119e-01 -9.915923e-02  1.904762e-01
     vertex  8.207893e-01 -9.808729e-02  1.904762e-01
     vertex  8.206931e-01 -1.022185e-01  1.904762e-01
   endloop
 endfacet
 facet normal  0.000000e+00  0.000000e+00  1.000000e+00
   outer loop
     vertex  8.208666e-01 -9.395571e-02  1.904762e-01
     vertex  8.207893e-01 -9.808729e-02  1.904762e-01
     vertex  8.259119e-01 -9.915923e-02  1.904762e-01
   endloop
 endfacet
 facet normal  0.000000e+00  0.000000e+00  1.000000e+00
   outer loop
     vertex  8.320061e-01 -1.030828e-01  1.904762e-01
     vertex  8.259119e-01 -9.915923e-02  1.904762e-01
     vertex  8.205779e-01 -1.063492e-01  1.904762e-01
   endloop
 endfacet
 facet normal  0.000000e+00  0.000000e+00  1.000000e+00
   outer loop
     vertex  8.388313e-01 -1.055218e-01  1.904762e-01
     vertex  8.320061e-01 -1.030828e-01  1.904762e-01
     vertex  8.205779e-01 -1.063492e-01  1.904762e-01
   endloop
 endfacet
 facet normal  0.000000e+00  0.000000e+00  1.000000e+00
   outer loop
     vertex  8.460318e-01 -1.063492e-01  1.904762e-01
     vertex  8.388313e-01 -1.055218e-01  1.904762e-01
     vertex  8.205779e-01 -1.063492e-01  1.904762e-01
   endloop
 endfacet
 facet normal -9.996113e-01  2.787810e-02 -3.211160e-15
   outer loop
     vertex  8.206931e-01 -1.022185e-01  1.904762e-01
     vertex  8.205779e-01 -1.063492e-01  6.349212e-02
     vertex  8.205779e-01 -1.063492e-01  1.904762e-01
   endloop
 endfacet
 facet normal -9.996838e-01  2.514484e-02  8.897665e-05
   outer loop
     vertex  8.206931e-01 -1.022185e-01  1.904762e-01
     vertex  8.208056e-01 -9.729720e-02  6.349212e-02
     vertex  8.205779e-01 -1.063492e-01  6.349212e-02
   endloop
 endfacet
 facet normal -9.997288e-01  2.328906e-02  1.701588e-05
   outer loop
     vertex  8.207893e-01 -9.808729e-02  1.904762e-01
     vertex  8.208056e-01 -9.729720e-02  6.349212e-02
     vertex  8.206931e-01 -1.022185e-01  1.904762e-01
   endloop
 endfacet
 facet normal -9.998862e-01  1.508792e-02  8.351324e-05
   outer loop
     vertex  8.208666e-01 -9.395571e-02  1.904762e-01
     vertex  8.209422e-01 -8.824340e-02  6.349212e-02
     vertex  8.208056e-01 -9.729720e-02  6.349212e-02
   endloop
 endfacet
 facet normal -9.998251e-01  1.869952e-02 -1.155248e-05
   outer loop
     vertex  8.208666e-01 -9.395571e-02  1.904762e-01
     vertex  8.208056e-01 -9.729720e-02  6.349212e-02
     vertex  8.207893e-01 -9.808729e-02  1.904762e-01
   endloop
 endfacet
 facet normal -9.999066e-01  1.367069e-02  1.974757e-05
   outer loop
     vertex  8.209339e-01 -8.903361e-02  1.904762e-01
     vertex  8.209422e-01 -8.824340e-02  6.349212e-02
     vertex  8.208666e-01 -9.395571e-02  1.904762e-01
   endloop
 endfacet
 facet normal -9.999873e-01  5.029477e-03  8.897665e-05
   outer loop
     vertex  8.209743e-01 -8.411122e-02  1.904762e-01
     vertex  8.209877e-01 -7.918868e-02  6.349212e-02
     vertex  8.209422e-01 -8.824340e-02  6.349212e-02
   endloop
 endfacet
 facet normal -9.999664e-01  8.202577e-03 -1.428418e-05
   outer loop
     vertex  8.209743e-01 -8.411122e-02  1.904762e-01
     vertex  8.209422e-01 -8.824340e-02  6.349212e-02
     vertex  8.209339e-01 -8.903361e-02  1.904762e-01
   endloop
 endfacet
 facet normal -9.999963e-01  2.734220e-03  0.000000e+00
   outer loop
     vertex  8.209877e-01 -7.918868e-02  1.904762e-01
     vertex  8.209877e-01 -7.918868e-02  6.349212e-02
     vertex  8.209743e-01 -8.411122e-02  1.904762e-01
   endloop
 endfacet
 facet normal  0.000000e+00  0.000000e+00  1.000000e+00
   outer loop
     vertex -9.786316e-01 -4.285705e-02  6.349212e-02
     vertex -9.792372e-01 -6.401660e-02  6.349212e-02
     vertex -9.793451e-01 -8.518454e-02  6.349212e-02
   endloop
 endfacet
 facet normal  0.000000e+00  0.000000e+00  1.000000e+00
   outer loop
     vertex -9.786316e-01 -4.285705e-02  6.349212e-02
     vertex -9.793451e-01 -8.518454e-02  6.349212e-02
     vertex -9.789552e-01 -1.063492e-01  6.349212e-02
   endloop
 endfacet
 facet normal  0.000000e+00  0.000000e+00  1.000000e+00
   outer loop
     vertex  8.209422e-01 -8.824340e-02  6.349212e-02
     vertex  8.205779e-01 -1.063492e-01  6.349212e-02
     vertex  8.208056e-01 -9.729720e-02  6.349212e-02
   endloop
 endfacet
 facet normal  0.000000e+00  0.000000e+00  1.000000e+00
   outer loop
     vertex  8.209877e-01 -7.918868e-02  6.349212e-02
     vertex  8.205779e-01 -1.063492e-01  6.349212e-02
     vertex  8.209422e-01 -8.824340e-02  6.349212e-02
   endloop
 endfacet
 facet normal  0.000000e+00  0.000000e+00  1.000000e+00
   outer loop
     vertex  8.206617e-01 -5.496394e-02  6.349212e-02
     vertex  8.209877e-01 -7.918868e-02  6.349212e-02
     vertex  8.209062e-01 -6.707521e-02  6.349212e-02
   endloop
 endfacet
 facet normal  0.000000e+00  0.000000e+00  1.000000e+00
   outer loop
     vertex  8.202542e-01 -4.285705e-02  6.349212e-02
     vertex -9.789552e-01 -1.063492e-01  6.349212e-02
     vertex  8.205779e-01 -1.063492e-01  6.349212e-02
   endloop
 endfacet
 facet normal  0.000000e+00  0.000000e+00  1.000000e+00
   outer loop
     vertex  8.202542e-01 -4.285705e-02  6.349212e-02
     vertex -9.786316e-01 -4.285705e-02  6.349212e-02
     vertex -9.789552e-01 -1.063492e-01  6.349212e-02
   endloop
 endfacet
 facet normal  0.000000e+00  0.000000e+00  1.000000e+00
   outer loop
     vertex  8.202542e-01 -4.285705e-02  6.349212e-02
     vertex  8.205779e-01 -1.063492e-01  6.349212e-02
     vertex  8.209877e-01 -7.918868e-02  6.349212e-02
   endloop
 endfacet
 facet normal  0.000000e+00  0.000000e+00  1.000000e+00
   outer loop
     vertex  8.202542e-01 -4.285705e-02  6.349212e-02
     vertex  8.209877e-01 -7.918868e-02  6.349212e-02
     vertex  8.206617e-01 -5.496394e-02  6.349212e-02
   endloop
 endfacet
 facet normal  9.995907e-01 -2.860954e-02 -1.719888e-15
   outer loop
     vertex -9.792372e-01 -6.401660e-02  1.904762e-01
     vertex -9.786316e-01 -4.285705e-02  6.349212e-02
     vertex -9.786316e-01 -4.285705e-02  1.904762e-01
   endloop
 endfacet
 facet normal  9.995907e-01 -2.860954e-02  2.653742e-17
   outer loop
     vertex -9.792372e-01 -6.401660e-02  1.904762e-01
     vertex -9.792372e-01 -6.401660e-02  6.349212e-02
     vertex -9.786316e-01 -4.285705e-02  6.349212e-02
   endloop
 endfacet
 facet normal  9.999870e-01 -5.097247e-03  1.609920e-16
   outer loop
     vertex -9.793451e-01 -8.518454e-02  1.904762e-01
     vertex -9.793451e-01 -8.518454e-02  6.349212e-02
     vertex -9.792372e-01 -6.401660e-02  6.349212e-02
   endloop
 endfacet
 facet normal  9.999870e-01 -5.097247e-03 -7.138890e-16
   outer loop
     vertex -9.793451e-01 -8.518454e-02  1.904762e-01
     vertex -9.792372e-01 -6.401660e-02  6.349212e-02
     vertex -9.792372e-01 -6.401660e-02  1.904762e-01
   endloop
 endfacet
 facet normal  9.998304e-01  1.841786e-02  2.048797e-15
   outer loop
     vertex -9.789552e-01 -1.063492e-01  1.904762e-01
     vertex -9.789552e-01 -1.063492e-01  6.349212e-02
     vertex -9.793451e-01 -8.518454e-02  6.349212e-02
   endloop
 endfacet
 facet normal  9.998304e-01  1.841786e-02 -5.816990e-16
   outer loop
     vertex -9.789552e-01 -1.063492e-01  1.904762e-01
     vertex -9.793451e-01 -8.518454e-02  6.349212e-02
     vertex -9.793451e-01 -8.518454e-02  1.904762e-01
   endloop
 endfacet
 facet normal  0.000000e+00  0.000000e+00  1.000000e+00
   outer loop
     vertex -9.789552e-01 -1.063492e-01  1.904762e-01
     vertex -1.000858e+00 -9.263690e-02  1.904762e-01
     vertex -1.005933e+00 -9.836535e-02  1.904762e-01
   endloop
 endfacet
 facet normal  0.000000e+00  0.000000e+00  1.000000e+00
   outer loop
     vertex -9.789552e-01 -1.063492e-01  1.904762e-01
     vertex -1.005933e+00 -9.836535e-02  1.904762e-01
     vertex -1.012231e+00 -1.027128e-01  1.904762e-01
   endloop
 endfacet
 facet normal  0.000000e+00  0.000000e+00  1.000000e+00
   outer loop
     vertex -9.789552e-01 -1.063492e-01  1.904762e-01
     vertex -1.012231e+00 -1.027128e-01  1.904762e-01
     vertex -1.019387e+00 -1.054267e-01  1.904762e-01
   endloop
 endfacet
 facet normal  0.000000e+00  0.000000e+00  1.000000e+00
   outer loop
     vertex -9.789552e-01 -1.063492e-01  1.904762e-01
     vertex -1.019387e+00 -1.054267e-01  1.904762e-01
     vertex -1.026984e+00 -1.063492e-01  1.904762e-01
   endloop
 endfacet
 facet normal  0.000000e+00  0.000000e+00  1.000000e+00
   outer loop
     vertex -9.793451e-01 -8.518454e-02  1.904762e-01
     vertex -9.954695e-01 -7.077655e-02  1.904762e-01
     vertex -9.954695e-01 -7.842967e-02  1.904762e-01
   endloop
 endfacet
 facet normal  0.000000e+00  0.000000e+00  1.000000e+00
   outer loop
     vertex -9.793451e-01 -8.518454e-02  1.904762e-01
     vertex -9.954695e-01 -7.842967e-02  1.904762e-01
     vertex -9.973010e-01 -8.586040e-02  1.904762e-01
   endloop
 endfacet
 facet normal  0.000000e+00  0.000000e+00  1.000000e+00
   outer loop
     vertex -9.793451e-01 -8.518454e-02  1.904762e-01
     vertex -9.973010e-01 -8.586040e-02  1.904762e-01
     vertex -1.000858e+00 -9.263690e-02  1.904762e-01
   endloop
 endfacet
 facet normal  0.000000e+00  0.000000e+00  1.000000e+00
   outer loop
     vertex -9.793451e-01 -8.518454e-02  1.904762e-01
     vertex -1.000858e+00 -9.263690e-02  1.904762e-01
     vertex -9.789552e-01 -1.063492e-01  1.904762e-01
   endloop
 endfacet
 facet normal  0.000000e+00  0.000000e+00  1.000000e+00
   outer loop
     vertex -9.792372e-01 -6.401660e-02  1.904762e-01
     vertex -1.000858e+00 -5.656932e-02  1.904762e-01
     vertex -9.973010e-01 -6.334582e-02  1.904762e-01
   endloop
 endfacet
 facet normal  0.000000e+00  0.000000e+00  1.000000e+00
   outer loop
     vertex -9.792372e-01 -6.401660e-02  1.904762e-01
     vertex -9.973010e-01 -6.334582e-02  1.904762e-01
     vertex -9.954695e-01 -7.077655e-02  1.904762e-01
   endloop
 endfacet
 facet normal  0.000000e+00  0.000000e+00  1.000000e+00
   outer loop
     vertex -9.792372e-01 -6.401660e-02  1.904762e-01
     vertex -9.954695e-01 -7.077655e-02  1.904762e-01
     vertex -9.793451e-01 -8.518454e-02  1.904762e-01
   endloop
 endfacet
 facet normal  0.000000e+00  0.000000e+00  1.000000e+00
   outer loop
     vertex -9.786316e-01 -4.285705e-02  1.904762e-01
     vertex -1.012231e+00 -4.649340e-02  1.904762e-01
     vertex -1.005933e+00 -5.084088e-02  1.904762e-01
   endloop
 endfacet
 facet normal  0.000000e+00  0.000000e+00  1.000000e+00
   outer loop
     vertex -9.786316e-01 -4.285705e-02  1.904762e-01
     vertex -1.005933e+00 -5.084088e-02  1.904762e-01
     vertex -1.000858e+00 -5.656932e-02  1.904762e-01
   endloop
 endfacet
 facet normal  0.000000e+00  0.000000e+00  1.000000e+00
   outer loop
     vertex -9.786316e-01 -4.285705e-02  1.904762e-01
     vertex -1.000858e+00 -5.656932e-02  1.904762e-01
     vertex -9.792372e-01 -6.401660e-02  1.904762e-01
   endloop
 endfacet
 facet normal  0.000000e+00  0.000000e+00  1.000000e+00
   outer loop
     vertex -9.786316e-01 -4.285705e-02  1.904762e-01
     vertex -1.026984e+00 -4.285705e-02  1.904762e-01
     vertex -1.019387e+00 -4.377955e-02  1.904762e-01
   endloop
 endfacet
 facet normal  0.000000e+00  0.000000e+00  1.000000e+00
   outer loop
     vertex -9.786316e-01 -4.285705e-02  1.904762e-01
     vertex -1.019387e+00 -4.377955e-02  1.904762e-01
     vertex -1.012231e+00 -4.649340e-02  1.904762e-01
   endloop
 endfacet
 facet normal -3.704664e-18  1.000000e+00  0.000000e+00
   outer loop
     vertex -1.026984e+00 -4.285705e-02 -1.587302e-02
     vertex  8.460318e-01 -4.285705e-02 -1.587302e-02
     vertex  8.460318e-01 -4.285705e-02 -3.174603e-02
   endloop
 endfacet
 facet normal -3.704664e-18  1.000000e+00  0.000000e+00
   outer loop
     vertex -1.026984e+00 -4.285705e-02 -1.587302e-02
     vertex  8.460318e-01 -4.285705e-02 -3.174603e-02
     vertex -1.026984e+00 -4.285705e-02 -3.174603e-02
   endloop
 endfacet
 facet normal -9.999904e-01 -4.386258e-03  0.000000e+00
   outer loop
     vertex  8.209531e-01 -7.129194e-02  1.904762e-01
     vertex  8.209877e-01 -7.918868e-02  6.349212e-02
     vertex  8.209877e-01 -7.918868e-02  1.904762e-01
   endloop
 endfacet
 facet normal -9.999774e-01 -6.728538e-03  1.456624e-04
   outer loop
     vertex  8.209531e-01 -7.129194e-02  1.904762e-01
     vertex  8.209062e-01 -6.707521e-02  6.349212e-02
     vertex  8.209877e-01 -7.918868e-02  6.349212e-02
   endloop
 endfacet
 facet normal -9.997963e-01 -2.018439e-02  1.357543e-04
   outer loop
     vertex  8.208492e-01 -6.339581e-02  1.904762e-01
     vertex  8.206617e-01 -5.496394e-02  6.349212e-02
     vertex  8.209062e-01 -6.707521e-02  6.349212e-02
   endloop
 endfacet
 facet normal -9.999134e-01 -1.315844e-02 -6.787732e-05
   outer loop
     vertex  8.208492e-01 -6.339581e-02  1.904762e-01
     vertex  8.209062e-01 -6.707521e-02  6.349212e-02
     vertex  8.209531e-01 -7.129194e-02  1.904762e-01
   endloop
 endfacet
 facet normal -9.997595e-01 -2.192960e-02  1.981624e-05
   outer loop
     vertex  8.206760e-01 -5.550090e-02  1.904762e-01
     vertex  8.206617e-01 -5.496394e-02  6.349212e-02
     vertex  8.208492e-01 -6.339581e-02  1.904762e-01
   endloop
 endfacet
 facet normal -9.995893e-01 -2.865603e-02 -8.646072e-06
   outer loop
     vertex  8.205551e-01 -5.128564e-02  1.904762e-01
     vertex  8.206617e-01 -5.496394e-02  6.349212e-02
     vertex  8.206760e-01 -5.550090e-02  1.904762e-01
   endloop
 endfacet
 facet normal -9.994341e-01 -3.363660e-02  1.456624e-04
   outer loop
     vertex  8.204146e-01 -4.707099e-02  1.904762e-01
     vertex  8.202542e-01 -4.285705e-02  6.349212e-02
     vertex  8.206617e-01 -5.496394e-02  6.349212e-02
   endloop
 endfacet
 facet normal -9.994441e-01 -3.333840e-02  1.271083e-04
   outer loop
     vertex  8.204146e-01 -4.707099e-02  1.904762e-01
     vertex  8.206617e-01 -5.496394e-02  6.349212e-02
     vertex  8.205551e-01 -5.128564e-02  1.904762e-01
   endloop
 endfacet
 facet normal -9.992770e-01 -3.802005e-02  1.044138e-15
   outer loop
     vertex  8.202542e-01 -4.285705e-02  1.904762e-01
     vertex  8.202542e-01 -4.285705e-02  6.349212e-02
     vertex  8.204146e-01 -4.707099e-02  1.904762e-01
   endloop
 endfacet
 facet normal  0.000000e+00  0.000000e+00  1.000000e+00
   outer loop
     vertex  8.257299e-01 -5.019724e-02  1.904762e-01
     vertex  8.205551e-01 -5.128564e-02  1.904762e-01
     vertex  8.206760e-01 -5.550090e-02  1.904762e-01
   endloop
 endfacet
 facet normal  0.000000e+00  0.000000e+00  1.000000e+00
   outer loop
     vertex  8.257299e-01 -5.019724e-02  1.904762e-01
     vertex  8.204146e-01 -4.707099e-02  1.904762e-01
     vertex  8.205551e-01 -5.128564e-02  1.904762e-01
   endloop
 endfacet
 facet normal  0.000000e+00  0.000000e+00  1.000000e+00
   outer loop
     vertex  8.202542e-01 -4.285705e-02  1.904762e-01
     vertex  8.204146e-01 -4.707099e-02  1.904762e-01
     vertex  8.257299e-01 -5.019724e-02  1.904762e-01
   endloop
 endfacet
 facet normal  0.000000e+00  0.000000e+00  1.000000e+00
   outer loop
     vertex  8.318651e-01 -4.619333e-02  1.904762e-01
     vertex  8.202542e-01 -4.285705e-02  1.904762e-01
     vertex  8.257299e-01 -5.019724e-02  1.904762e-01
   endloop
 endfacet
 facet normal  0.000000e+00  0.000000e+00  1.000000e+00
   outer loop
     vertex  8.460318e-01 -4.285705e-02  1.904762e-01
     vertex  8.202542e-01 -4.285705e-02  1.904762e-01
     vertex  8.387547e-01 -4.370238e-02  1.904762e-01
   endloop
 endfacet
 facet normal  0.000000e+00  0.000000e+00  1.000000e+00
   outer loop
     vertex  8.387547e-01 -4.370238e-02  1.904762e-01
     vertex  8.202542e-01 -4.285705e-02  1.904762e-01
     vertex  8.318651e-01 -4.619333e-02  1.904762e-01
   endloop
 endfacet
 facet normal  0.000000e+00  0.000000e+00 -1.000000e+00
   outer loop
     vertex -1.026984e+00 -1.063492e-01 -3.174603e-02
     vertex -1.034581e+00 -1.054267e-01 -3.174603e-02
     vertex -1.041737e+00 -1.027129e-01 -3.174603e-02
   endloop
 endfacet
 facet normal  0.000000e+00  0.000000e+00 -1.000000e+00
   outer loop
     vertex -1.026984e+00 -1.063492e-01 -3.174603e-02
     vertex -1.041737e+00 -1.027129e-01 -3.174603e-02
     vertex -1.048036e+00 -9.836541e-02 -3.174603e-02
   endloop
 endfacet
 facet normal  0.000000e+00  0.000000e+00 -1.000000e+00
   outer loop
     vertex -1.026984e+00 -4.285705e-02 -3.174603e-02
     vertex -1.048036e+00 -9.836541e-02 -3.174603e-02
     vertex -1.053111e+00 -9.263696e-02 -3.174603e-02
   endloop
 endfacet
 facet normal  0.000000e+00  0.000000e+00 -1.000000e+00
   outer loop
     vertex -1.026984e+00 -4.285705e-02 -3.174603e-02
     vertex -1.053111e+00 -9.263696e-02 -3.174603e-02
     vertex -1.056667e+00 -8.586044e-02 -3.174603e-02
   endloop
 endfacet
 facet normal  0.000000e+00  0.000000e+00 -1.000000e+00
   outer loop
     vertex -1.026984e+00 -4.285705e-02 -3.174603e-02
     vertex -1.056667e+00 -8.586044e-02 -3.174603e-02
     vertex -1.058499e+00 -7.842968e-02 -3.174603e-02
   endloop
 endfacet
 facet normal  0.000000e+00  0.000000e+00 -1.000000e+00
   outer loop
     vertex -1.026984e+00 -4.285705e-02 -3.174603e-02
     vertex -1.058499e+00 -7.842968e-02 -3.174603e-02
     vertex -1.058499e+00 -7.077654e-02 -3.174603e-02
   endloop
 endfacet
 facet normal  0.000000e+00  0.000000e+00 -1.000000e+00
   outer loop
     vertex -1.026984e+00 -4.285705e-02 -3.174603e-02
     vertex -1.058499e+00 -7.077654e-02 -3.174603e-02
     vertex -1.056667e+00 -6.334578e-02 -3.174603e-02
   endloop
 endfacet
 facet normal  0.000000e+00  0.000000e+00 -1.000000e+00
   outer loop
     vertex -1.026984e+00 -4.285705e-02 -3.174603e-02
     vertex -1.056667e+00 -6.334578e-02 -3.174603e-02
     vertex -1.053111e+00 -5.656926e-02 -3.174603e-02
   endloop
 endfacet
 facet normal  0.000000e+00  0.000000e+00 -1.000000e+00
   outer loop
     vertex -1.026984e+00 -4.285705e-02 -3.174603e-02
     vertex -1.053111e+00 -5.656926e-02 -3.174603e-02
     vertex -1.048036e+00 -5.084081e-02 -3.174603e-02
   endloop
 endfacet
 facet normal  0.000000e+00  0.000000e+00 -1.000000e+00
   outer loop
     vertex -1.026984e+00 -4.285705e-02 -3.174603e-02
     vertex -1.048036e+00 -5.084081e-02 -3.174603e-02
     vertex -1.041737e+00 -4.649334e-02 -3.174603e-02
   endloop
 endfacet
 facet normal  0.000000e+00  0.000000e+00 -1.000000e+00
   outer loop
     vertex -1.026984e+00 -4.285705e-02 -3.174603e-02
     vertex -1.041737e+00 -4.649334e-02 -3.174603e-02
     vertex -1.034581e+00 -4.377952e-02 -3.174603e-02
   endloop
 endfacet
 facet normal  0.000000e+00 -0.000000e+00 -1.000000e+00
   outer loop
     vertex -1.026984e+00 -4.285705e-02 -3.174603e-02
     vertex -1.026984e+00 -1.063492e-01 -3.174603e-02
     vertex -1.048036e+00 -9.836541e-02 -3.174603e-02
   endloop
 endfacet
 facet normal  0.000000e+00  0.000000e+00  1.000000e+00
   outer loop
     vertex -1.005933e+00 -5.084088e-02  1.904762e-01
     vertex -1.026984e+00 -4.285705e-02  1.904762e-01
     vertex -1.026984e+00 -1.063492e-01  1.904762e-01
   endloop
 endfacet
 facet normal  0.000000e+00  0.000000e+00  1.000000e+00
   outer loop
     vertex -1.005933e+00 -5.084088e-02  1.904762e-01
     vertex -1.019387e+00 -4.377955e-02  1.904762e-01
     vertex -1.026984e+00 -4.285705e-02  1.904762e-01
   endloop
 endfacet
 facet normal  0.000000e+00  0.000000e+00  1.000000e+00
   outer loop
     vertex -1.005933e+00 -5.084088e-02  1.904762e-01
     vertex -1.012231e+00 -4.649340e-02  1.904762e-01
     vertex -1.019387e+00 -4.377955e-02  1.904762e-01
   endloop
 endfacet
 facet normal  0.000000e+00  0.000000e+00  1.000000e+00
   outer loop
     vertex -1.005933e+00 -5.084088e-02  1.904762e-01
     vertex -9.973010e-01 -6.334582e-02  1.904762e-01
     vertex -1.000858e+00 -5.656932e-02  1.904762e-01
   endloop
 endfacet
 facet normal  0.000000e+00  0.000000e+00  1.000000e+00
   outer loop
     vertex -1.005933e+00 -5.084088e-02  1.904762e-01
     vertex -9.954695e-01 -7.077655e-02  1.904762e-01
     vertex -9.973010e-01 -6.334582e-02  1.904762e-01
   endloop
 endfacet
 facet normal  0.000000e+00  0.000000e+00  1.000000e+00
   outer loop
     vertex -1.005933e+00 -5.084088e-02  1.904762e-01
     vertex -9.954695e-01 -7.842967e-02  1.904762e-01
     vertex -9.954695e-01 -7.077655e-02  1.904762e-01
   endloop
 endfacet
 facet normal  0.000000e+00  0.000000e+00  1.000000e+00
   outer loop
     vertex -1.005933e+00 -5.084088e-02  1.904762e-01
     vertex -9.973010e-01 -8.586040e-02  1.904762e-01
     vertex -9.954695e-01 -7.842967e-02  1.904762e-01
   endloop
 endfacet
 facet normal  0.000000e+00  0.000000e+00  1.000000e+00
   outer loop
     vertex -1.005933e+00 -5.084088e-02  1.904762e-01
     vertex -1.000858e+00 -9.263690e-02  1.904762e-01
     vertex -9.973010e-01 -8.586040e-02  1.904762e-01
   endloop
 endfacet
 facet normal  0.000000e+00  0.000000e+00  1.000000e+00
   outer loop
     vertex -1.005933e+00 -5.084088e-02  1.904762e-01
     vertex -1.005933e+00 -9.836535e-02  1.904762e-01
     vertex -1.000858e+00 -9.263690e-02  1.904762e-01
   endloop
 endfacet
 facet normal  0.000000e+00  0.000000e+00  1.000000e+00
   outer loop
     vertex -1.005933e+00 -5.084088e-02  1.904762e-01
     vertex -1.012231e+00 -1.027128e-01  1.904762e-01
     vertex -1.005933e+00 -9.836535e-02  1.904762e-01
   endloop
 endfacet
 facet normal  0.000000e+00  0.000000e+00  1.000000e+00
   outer loop
     vertex -1.005933e+00 -5.084088e-02  1.904762e-01
     vertex -1.019387e+00 -1.054267e-01  1.904762e-01
     vertex -1.012231e+00 -1.027128e-01  1.904762e-01
   endloop
 endfacet
 facet normal  0.000000e+00  0.000000e+00  1.000000e+00
   outer loop
     vertex -1.005933e+00 -5.084088e-02  1.904762e-01
     vertex -1.026984e+00 -1.063492e-01  1.904762e-01
     vertex -1.019387e+00 -1.054267e-01  1.904762e-01
   endloop
 endfacet
 facet normal -4.973000e-01 -8.675787e-01  0.000000e+00
   outer loop
     vertex  8.544808e-01 -1.111922e-01 -1.587302e-02
     vertex  8.460318e-01 -1.063492e-01 -1.587302e-02
     vertex  8.460318e-01 -1.063492e-01 -3.174603e-02
   endloop
 endfacet
 facet normal -4.973000e-01 -8.675787e-01 -0.000000e+00
   outer loop
     vertex  8.544808e-01 -1.111922e-01 -1.587302e-02
     vertex  8.460318e-01 -1.063492e-01 -3.174603e-02
     vertex  8.544808e-01 -1.111922e-01 -3.174603e-02
   endloop
 endfacet
 facet normal -2.710184e-01 -9.625742e-01 -0.000000e+00
   outer loop
     vertex  8.638549e-01 -1.138315e-01 -1.587302e-02
     vertex  8.544808e-01 -1.111922e-01 -3.174603e-02
     vertex  8.638549e-01 -1.138315e-01 -3.174603e-02
   endloop
 endfacet
 facet normal -2.710184e-01 -9.625742e-01  0.000000e+00
   outer loop
     vertex  8.638549e-01 -1.138315e-01 -1.587302e-02
     vertex  8.544808e-01 -1.111922e-01 -1.587302e-02
     vertex  8.544808e-01 -1.111922e-01 -3.174603e-02
   endloop
 endfacet
 facet normal -2.841412e-02 -9.995962e-01 -0.000000e+00
   outer loop
     vertex  8.735896e-01 -1.141082e-01 -1.587302e-02
     vertex  8.638549e-01 -1.138315e-01 -3.174603e-02
     vertex  8.735896e-01 -1.141082e-01 -3.174603e-02
   endloop
 endfacet
 facet normal -2.841412e-02 -9.995962e-01  0.000000e+00
   outer loop
     vertex  8.735896e-01 -1.141082e-01 -1.587302e-02
     vertex  8.638549e-01 -1.138315e-01 -1.587302e-02
     vertex  8.638549e-01 -1.138315e-01 -3.174603e-02
   endloop
 endfacet
 facet normal  2.159015e-01 -9.764151e-01  0.000000e+00
   outer loop
     vertex  8.830985e-01 -1.120057e-01 -1.587302e-02
     vertex  8.735896e-01 -1.141082e-01 -3.174603e-02
     vertex  8.830985e-01 -1.120057e-01 -3.174603e-02
   endloop
 endfacet
 facet normal  2.159015e-01 -9.764151e-01  0.000000e+00
   outer loop
     vertex  8.830985e-01 -1.120057e-01 -1.587302e-02
     vertex  8.735896e-01 -1.141082e-01 -1.587302e-02
     vertex  8.735896e-01 -1.141082e-01 -3.174603e-02
   endloop
 endfacet
 facet normal  4.472139e-01 -8.944270e-01  0.000000e+00
   outer loop
     vertex  8.918090e-01 -1.076504e-01 -1.587302e-02
     vertex  8.830985e-01 -1.120057e-01 -3.174603e-02
     vertex  8.918090e-01 -1.076504e-01 -3.174603e-02
   endloop
 endfacet
 facet normal  4.472139e-01 -8.944270e-01  0.000000e+00
   outer loop
     vertex  8.918090e-01 -1.076504e-01 -1.587302e-02
     vertex  8.830985e-01 -1.120057e-01 -1.587302e-02
     vertex  8.830985e-01 -1.120057e-01 -3.174603e-02
   endloop
 endfacet
 facet normal  6.515918e-01 -7.585698e-01  0.000000e+00
   outer loop
     vertex  8.991964e-01 -1.013048e-01 -1.587302e-02
     vertex  8.918090e-01 -1.076504e-01 -3.174603e-02
     vertex  8.991964e-01 -1.013048e-01 -3.174603e-02
   endloop
 endfacet
 facet normal  6.515918e-01 -7.585698e-01  0.000000e+00
   outer loop
     vertex  8.991964e-01 -1.013048e-01 -1.587302e-02
     vertex  8.918090e-01 -1.076504e-01 -1.587302e-02
     vertex  8.918090e-01 -1.076504e-01 -3.174603e-02
   endloop
 endfacet
 facet normal  8.167259e-01 -5.770258e-01  0.000000e+00
   outer loop
     vertex  9.048159e-01 -9.335104e-02 -1.587302e-02
     vertex  8.991964e-01 -1.013048e-01 -3.174603e-02
     vertex  9.048159e-01 -9.335104e-02 -3.174603e-02
   endloop
 endfacet
 facet normal  8.167259e-01 -5.770258e-01  0.000000e+00
   outer loop
     vertex  9.048159e-01 -9.335104e-02 -1.587302e-02
     vertex  8.991964e-01 -1.013048e-01 -1.587302e-02
     vertex  8.991964e-01 -1.013048e-01 -3.174603e-02
   endloop
 endfacet
 facet normal  9.326707e-01 -3.607290e-01  0.000000e+00
   outer loop
     vertex  9.083289e-01 -8.426813e-02 -1.587302e-02
     vertex  9.048159e-01 -9.335104e-02 -3.174603e-02
     vertex  9.083289e-01 -8.426813e-02 -3.174603e-02
   endloop
 endfacet
 facet normal  9.326707e-01 -3.607290e-01  0.000000e+00
   outer loop
     vertex  9.083289e-01 -8.426813e-02 -1.587302e-02
     vertex  9.048159e-01 -9.335104e-02 -1.587302e-02
     vertex  9.048159e-01 -9.335104e-02 -3.174603e-02
   endloop
 endfacet
 facet normal  9.924430e-01 -1.227064e-01  0.000000e+00
   outer loop
     vertex  9.095238e-01 -7.460311e-02 -1.587302e-02
     vertex  9.083289e-01 -8.426813e-02 -3.174603e-02
     vertex  9.095238e-01 -7.460311e-02 -3.174603e-02
   endloop
 endfacet
 facet normal  9.924430e-01 -1.227064e-01  0.000000e+00
   outer loop
     vertex  9.095238e-01 -7.460311e-02 -1.587302e-02
     vertex  9.083289e-01 -8.426813e-02 -1.587302e-02
     vertex  9.083289e-01 -8.426813e-02 -3.174603e-02
   endloop
 endfacet
 facet normal  9.924430e-01  1.227064e-01  0.000000e+00
   outer loop
     vertex  9.083289e-01 -6.493810e-02 -1.587302e-02
     vertex  9.095238e-01 -7.460311e-02 -3.174603e-02
     vertex  9.083289e-01 -6.493810e-02 -3.174603e-02
   endloop
 endfacet
 facet normal  9.924430e-01  1.227064e-01  0.000000e+00
   outer loop
     vertex  9.083289e-01 -6.493810e-02 -1.587302e-02
     vertex  9.095238e-01 -7.460311e-02 -1.587302e-02
     vertex  9.095238e-01 -7.460311e-02 -3.174603e-02
   endloop
 endfacet
 facet normal  9.326707e-01  3.607290e-01  0.000000e+00
   outer loop
     vertex  9.048159e-01 -5.585518e-02 -1.587302e-02
     vertex  9.083289e-01 -6.493810e-02 -3.174603e-02
     vertex  9.048159e-01 -5.585518e-02 -3.174603e-02
   endloop
 endfacet
 facet normal  9.326707e-01  3.607290e-01  0.000000e+00
   outer loop
     vertex  9.048159e-01 -5.585518e-02 -1.587302e-02
     vertex  9.083289e-01 -6.493810e-02 -1.587302e-02
     vertex  9.083289e-01 -6.493810e-02 -3.174603e-02
   endloop
 endfacet
 facet normal  8.167259e-01  5.770258e-01  0.000000e+00
   outer loop
     vertex  8.991964e-01 -4.790140e-02 -1.587302e-02
     vertex  9.048159e-01 -5.585518e-02 -3.174603e-02
     vertex  8.991964e-01 -4.790140e-02 -3.174603e-02
   endloop
 endfacet
 facet normal  8.167259e-01  5.770258e-01  0.000000e+00
   outer loop
     vertex  8.991964e-01 -4.790140e-02 -1.587302e-02
     vertex  9.048159e-01 -5.585518e-02 -1.587302e-02
     vertex  9.048159e-01 -5.585518e-02 -3.174603e-02
   endloop
 endfacet
 facet normal  6.515918e-01  7.585698e-01  0.000000e+00
   outer loop
     vertex  8.918090e-01 -4.155581e-02 -1.587302e-02
     vertex  8.991964e-01 -4.790140e-02 -3.174603e-02
     vertex  8.918090e-01 -4.155581e-02 -3.174603e-02
   endloop
 endfacet
 facet normal  6.515918e-01  7.585698e-01  0.000000e+00
   outer loop
     vertex  8.918090e-01 -4.155581e-02 -1.587302e-02
     vertex  8.991964e-01 -4.790140e-02 -1.587302e-02
     vertex  8.991964e-01 -4.790140e-02 -3.174603e-02
   endloop
 endfacet
 facet normal  4.472139e-01  8.944270e-01  0.000000e+00
   outer loop
     vertex  8.830985e-01 -3.720056e-02 -1.587302e-02
     vertex  8.918090e-01 -4.155581e-02 -3.174603e-02
     vertex  8.830985e-01 -3.720056e-02 -3.174603e-02
   endloop
 endfacet
 facet normal  4.472139e-01  8.944270e-01  0.000000e+00
   outer loop
     vertex  8.830985e-01 -3.720056e-02 -1.587302e-02
     vertex  8.918090e-01 -4.155581e-02 -1.587302e-02
     vertex  8.918090e-01 -4.155581e-02 -3.174603e-02
   endloop
 endfacet
 facet normal  2.159015e-01  9.764151e-01  0.000000e+00
   outer loop
     vertex  8.735896e-01 -3.509798e-02 -1.587302e-02
     vertex  8.830985e-01 -3.720056e-02 -1.587302e-02
     vertex  8.830985e-01 -3.720056e-02 -3.174603e-02
   endloop
 endfacet
 facet normal  2.159015e-01  9.764151e-01  0.000000e+00
   outer loop
     vertex  8.735896e-01 -3.509798e-02 -1.587302e-02
     vertex  8.830985e-01 -3.720056e-02 -3.174603e-02
     vertex  8.735896e-01 -3.509798e-02 -3.174603e-02
   endloop
 endfacet
 facet normal -2.841412e-02  9.995962e-01  0.000000e+00
   outer loop
     vertex  8.638549e-01 -3.537470e-02 -1.587302e-02
     vertex  8.735896e-01 -3.509798e-02 -1.587302e-02
     vertex  8.735896e-01 -3.509798e-02 -3.174603e-02
   endloop
 endfacet
 facet normal -2.841412e-02  9.995962e-01  0.000000e+00
   outer loop
     vertex  8.638549e-01 -3.537470e-02 -1.587302e-02
     vertex  8.735896e-01 -3.509798e-02 -3.174603e-02
     vertex  8.638549e-01 -3.537470e-02 -3.174603e-02
   endloop
 endfacet
 facet normal -2.710184e-01  9.625742e-01  0.000000e+00
   outer loop
     vertex  8.544808e-01 -3.801404e-02 -1.587302e-02
     vertex  8.638549e-01 -3.537470e-02 -1.587302e-02
     vertex  8.638549e-01 -3.537470e-02 -3.174603e-02
   endloop
 endfacet
 facet normal -2.710184e-01  9.625742e-01  0.000000e+00
   outer loop
     vertex  8.544808e-01 -3.801404e-02 -1.587302e-02
     vertex  8.638549e-01 -3.537470e-02 -3.174603e-02
     vertex  8.544808e-01 -3.801404e-02 -3.174603e-02
   endloop
 endfacet
 facet normal -4.973000e-01  8.675787e-01  0.000000e+00
   outer loop
     vertex  8.460318e-01 -4.285705e-02 -1.587302e-02
     vertex  8.544808e-01 -3.801404e-02 -1.587302e-02
     vertex  8.544808e-01 -3.801404e-02 -3.174603e-02
   endloop
 endfacet
 facet normal -4.973000e-01  8.675787e-01  0.000000e+00
   outer loop
     vertex  8.460318e-01 -4.285705e-02 -1.587302e-02
     vertex  8.544808e-01 -3.801404e-02 -3.174603e-02
     vertex  8.460318e-01 -4.285705e-02 -3.174603e-02
   endloop
 endfacet
 facet normal -0.000000e+00  0.000000e+00 -1.000000e+00
   outer loop
     vertex  8.249803e-01 -9.836537e-02 -3.174603e-02
     vertex -1.012231e+00 -1.027128e-01 -3.174603e-02
     vertex -1.005933e+00 -9.836535e-02 -3.174603e-02
   endloop
 endfacet
 facet normal -0.000000e+00  0.000000e+00 -1.000000e+00
   outer loop
     vertex  8.199053e-01 -9.263692e-02 -3.174603e-02
     vertex -1.005933e+00 -9.836535e-02 -3.174603e-02
     vertex -1.000858e+00 -9.263690e-02 -3.174603e-02
   endloop
 endfacet
 facet normal  0.000000e+00 -0.000000e+00 -1.000000e+00
   outer loop
     vertex  8.199053e-01 -9.263692e-02 -3.174603e-02
     vertex  8.249803e-01 -9.836537e-02 -3.174603e-02
     vertex -1.005933e+00 -9.836535e-02 -3.174603e-02
   endloop
 endfacet
 facet normal -0.000000e+00  0.000000e+00 -1.000000e+00
   outer loop
     vertex  8.312787e-01 -1.027128e-01 -3.174603e-02
     vertex -1.019387e+00 -1.054267e-01 -3.174603e-02
     vertex -1.012231e+00 -1.027128e-01 -3.174603e-02
   endloop
 endfacet
 facet normal  0.000000e+00  0.000000e+00 -1.000000e+00
   outer loop
     vertex  8.312787e-01 -1.027128e-01 -3.174603e-02
     vertex -1.012231e+00 -1.027128e-01 -3.174603e-02
     vertex  8.249803e-01 -9.836537e-02 -3.174603e-02
   endloop
 endfacet
 facet normal -0.000000e+00  0.000000e+00 -1.000000e+00
   outer loop
     vertex  8.163487e-01 -8.586041e-02 -3.174603e-02
     vertex -1.000858e+00 -9.263690e-02 -3.174603e-02
     vertex -9.973010e-01 -8.586040e-02 -3.174603e-02
   endloop
 endfacet
 facet normal  0.000000e+00 -0.000000e+00 -1.000000e+00
   outer loop
     vertex  8.163487e-01 -8.586041e-02 -3.174603e-02
     vertex  8.199053e-01 -9.263692e-02 -3.174603e-02
     vertex -1.000858e+00 -9.263690e-02 -3.174603e-02
   endloop
 endfacet
 facet normal -0.000000e+00  0.000000e+00 -1.000000e+00
   outer loop
     vertex  8.384345e-01 -1.054267e-01 -3.174603e-02
     vertex -1.026984e+00 -1.063492e-01 -3.174603e-02
     vertex -1.019387e+00 -1.054267e-01 -3.174603e-02
   endloop
 endfacet
 facet normal  0.000000e+00  0.000000e+00 -1.000000e+00
   outer loop
     vertex  8.384345e-01 -1.054267e-01 -3.174603e-02
     vertex -1.019387e+00 -1.054267e-01 -3.174603e-02
     vertex  8.312787e-01 -1.027128e-01 -3.174603e-02
   endloop
 endfacet
 facet normal -0.000000e+00  0.000000e+00 -1.000000e+00
   outer loop
     vertex  8.145172e-01 -7.842967e-02 -3.174603e-02
     vertex -9.973010e-01 -8.586040e-02 -3.174603e-02
     vertex -9.954695e-01 -7.842967e-02 -3.174603e-02
   endloop
 endfacet
 facet normal  0.000000e+00 -0.000000e+00 -1.000000e+00
   outer loop
     vertex  8.145172e-01 -7.842967e-02 -3.174603e-02
     vertex  8.163487e-01 -8.586041e-02 -3.174603e-02
     vertex -9.973010e-01 -8.586040e-02 -3.174603e-02
   endloop
 endfacet
 facet normal  0.000000e+00  0.000000e+00 -1.000000e+00
   outer loop
     vertex  8.460318e-01 -1.063492e-01 -3.174603e-02
     vertex -1.026984e+00 -1.063492e-01 -3.174603e-02
     vertex  8.384345e-01 -1.054267e-01 -3.174603e-02
   endloop
 endfacet
 facet normal -0.000000e+00  0.000000e+00 -1.000000e+00
   outer loop
     vertex  8.145172e-01 -7.077655e-02 -3.174603e-02
     vertex -9.954695e-01 -7.077655e-02 -3.174603e-02
     vertex -9.973010e-01 -6.334582e-02 -3.174603e-02
   endloop
 endfacet
 facet normal  0.000000e+00  0.000000e+00 -1.000000e+00
   outer loop
     vertex  8.145172e-01 -7.077655e-02 -3.174603e-02
     vertex -9.954695e-01 -7.842967e-02 -3.174603e-02
     vertex -9.954695e-01 -7.077655e-02 -3.174603e-02
   endloop
 endfacet
 facet normal  0.000000e+00 -0.000000e+00 -1.000000e+00
   outer loop
     vertex  8.145172e-01 -7.077655e-02 -3.174603e-02
     vertex  8.145172e-01 -7.842967e-02 -3.174603e-02
     vertex -9.954695e-01 -7.842967e-02 -3.174603e-02
   endloop
 endfacet
 facet normal -0.000000e+00  0.000000e+00 -1.000000e+00
   outer loop
     vertex  8.163487e-01 -6.334581e-02 -3.174603e-02
     vertex -9.973010e-01 -6.334582e-02 -3.174603e-02
     vertex -1.000858e+00 -5.656932e-02 -3.174603e-02
   endloop
 endfacet
 facet normal  0.000000e+00  0.000000e+00 -1.000000e+00
   outer loop
     vertex  8.163487e-01 -6.334581e-02 -3.174603e-02
     vertex  8.145172e-01 -7.077655e-02 -3.174603e-02
     vertex -9.973010e-01 -6.334582e-02 -3.174603e-02
   endloop
 endfacet
 facet normal  0.000000e+00  0.000000e+00 -1.000000e+00
   outer loop
     vertex  8.199053e-01 -5.656930e-02 -3.174603e-02
     vertex  8.163487e-01 -6.334581e-02 -3.174603e-02
     vertex -1.000858e+00 -5.656932e-02 -3.174603e-02
   endloop
 endfacet
 facet normal  0.000000e+00  0.000000e+00 -1.000000e+00
   outer loop
     vertex  8.460318e-01 -4.285705e-02 -3.174603e-02
     vertex  8.384345e-01 -4.377954e-02 -3.174603e-02
     vertex -1.026984e+00 -4.285705e-02 -3.174603e-02
   endloop
 endfacet
 facet normal -0.000000e+00  0.000000e+00 -1.000000e+00
   outer loop
     vertex  8.384345e-01 -4.377954e-02 -3.174603e-02
     vertex -1.019387e+00 -4.377955e-02 -3.174603e-02
     vertex -1.026984e+00 -4.285705e-02 -3.174603e-02
   endloop
 endfacet
 facet normal  0.000000e+00  0.000000e+00 -1.000000e+00
   outer loop
     vertex  8.384345e-01 -4.377954e-02 -3.174603e-02
     vertex  8.312787e-01 -4.649338e-02 -3.174603e-02
     vertex -1.019387e+00 -4.377955e-02 -3.174603e-02
   endloop
 endfacet
 facet normal -0.000000e+00  0.000000e+00 -1.000000e+00
   outer loop
     vertex  8.312787e-01 -4.649338e-02 -3.174603e-02
     vertex -1.012231e+00 -4.649340e-02 -3.174603e-02
     vertex -1.019387e+00 -4.377955e-02 -3.174603e-02
   endloop
 endfacet
 facet normal  0.000000e+00  0.000000e+00 -1.000000e+00
   outer loop
     vertex  8.312787e-01 -4.649338e-02 -3.174603e-02
     vertex  8.249803e-01 -5.084085e-02 -3.174603e-02
     vertex -1.012231e+00 -4.649340e-02 -3.174603e-02
   endloop
 endfacet
 facet normal -0.000000e+00  0.000000e+00 -1.000000e+00
   outer loop
     vertex  8.249803e-01 -5.084085e-02 -3.174603e-02
     vertex -1.005933e+00 -5.084088e-02 -3.174603e-02
     vertex -1.012231e+00 -4.649340e-02 -3.174603e-02
   endloop
 endfacet
 facet normal  0.000000e+00  0.000000e+00 -1.000000e+00
   outer loop
     vertex  8.249803e-01 -5.084085e-02 -3.174603e-02
     vertex -1.000858e+00 -5.656932e-02 -3.174603e-02
     vertex -1.005933e+00 -5.084088e-02 -3.174603e-02
   endloop
 endfacet
 facet normal  0.000000e+00  0.000000e+00 -1.000000e+00
   outer loop
     vertex  8.249803e-01 -5.084085e-02 -3.174603e-02
     vertex  8.199053e-01 -5.656930e-02 -3.174603e-02
     vertex -1.000858e+00 -5.656932e-02 -3.174603e-02
   endloop
 endfacet
 facet normal  0.000000e+00  0.000000e+00  1.000000e+00
   outer loop
     vertex  8.991964e-01 -4.790140e-02  1.904762e-01
     vertex  8.460318e-01 -4.285705e-02  1.904762e-01
     vertex  8.460318e-01 -1.063492e-01  1.904762e-01
   endloop
 endfacet
 facet normal  0.000000e+00  0.000000e+00  1.000000e+00
   outer loop
     vertex  8.991964e-01 -4.790140e-02  1.904762e-01
     vertex  8.460318e-01 -1.063492e-01  1.904762e-01
     vertex  8.544808e-01 -1.111922e-01  1.904762e-01
   endloop
 endfacet
 facet normal  0.000000e+00  0.000000e+00  1.000000e+00
   outer loop
     vertex  8.991964e-01 -4.790140e-02  1.904762e-01
     vertex  8.544808e-01 -1.111922e-01  1.904762e-01
     vertex  8.638549e-01 -1.138315e-01  1.904762e-01
   endloop
 endfacet
 facet normal  0.000000e+00  0.000000e+00  1.000000e+00
   outer loop
     vertex  8.991964e-01 -4.790140e-02  1.904762e-01
     vertex  8.638549e-01 -1.138315e-01  1.904762e-01
     vertex  8.735896e-01 -1.141082e-01  1.904762e-01
   endloop
 endfacet
 facet normal  0.000000e+00  0.000000e+00  1.000000e+00
   outer loop
     vertex  8.991964e-01 -4.790140e-02  1.904762e-01
     vertex  8.735896e-01 -1.141082e-01  1.904762e-01
     vertex  8.830985e-01 -1.120057e-01  1.904762e-01
   endloop
 endfacet
 facet normal  0.000000e+00  0.000000e+00  1.000000e+00
   outer loop
     vertex  8.991964e-01 -4.790140e-02  1.904762e-01
     vertex  8.830985e-01 -1.120057e-01  1.904762e-01
     vertex  8.918090e-01 -1.076504e-01  1.904762e-01
   endloop
 endfacet
 facet normal  0.000000e+00  0.000000e+00  1.000000e+00
   outer loop
     vertex  8.991964e-01 -4.790140e-02  1.904762e-01
     vertex  8.918090e-01 -1.076504e-01  1.904762e-01
     vertex  8.991964e-01 -1.013048e-01  1.904762e-01
   endloop
 endfacet
 facet normal  0.000000e+00  0.000000e+00  1.000000e+00
   outer loop
     vertex  8.991964e-01 -4.790140e-02  1.904762e-01
     vertex  8.991964e-01 -1.013048e-01  1.904762e-01
     vertex  9.048159e-01 -9.335104e-02  1.904762e-01
   endloop
 endfacet
 facet normal  0.000000e+00  0.000000e+00  1.000000e+00
   outer loop
     vertex  8.991964e-01 -4.790140e-02  1.904762e-01
     vertex  9.048159e-01 -9.335104e-02  1.904762e-01
     vertex  9.083289e-01 -8.426813e-02  1.904762e-01
   endloop
 endfacet
 facet normal  0.000000e+00  0.000000e+00  1.000000e+00
   outer loop
     vertex  8.991964e-01 -4.790140e-02  1.904762e-01
     vertex  9.083289e-01 -8.426813e-02  1.904762e-01
     vertex  9.095238e-01 -7.460311e-02  1.904762e-01
   endloop
 endfacet
 facet normal  0.000000e+00  0.000000e+00  1.000000e+00
   outer loop
     vertex  8.991964e-01 -4.790140e-02  1.904762e-01
     vertex  9.095238e-01 -7.460311e-02  1.904762e-01
     vertex  9.083289e-01 -6.493810e-02  1.904762e-01
   endloop
 endfacet
 facet normal  0.000000e+00  0.000000e+00  1.000000e+00
   outer loop
     vertex  8.991964e-01 -4.790140e-02  1.904762e-01
     vertex  9.083289e-01 -6.493810e-02  1.904762e-01
     vertex  9.048159e-01 -5.585518e-02  1.904762e-01
   endloop
 endfacet
 facet normal  0.000000e+00  0.000000e+00  1.000000e+00
   outer loop
     vertex  8.991964e-01 -4.790140e-02  1.904762e-01
     vertex  8.918090e-01 -4.155581e-02  1.904762e-01
     vertex  8.830985e-01 -3.720056e-02  1.904762e-01
   endloop
 endfacet
 facet normal  0.000000e+00  0.000000e+00  1.000000e+00
   outer loop
     vertex  8.991964e-01 -4.790140e-02  1.904762e-01
     vertex  8.830985e-01 -3.720056e-02  1.904762e-01
     vertex  8.735896e-01 -3.509798e-02  1.904762e-01
   endloop
 endfacet
 facet normal  0.000000e+00  0.000000e+00  1.000000e+00
   outer loop
     vertex  8.991964e-01 -4.790140e-02  1.904762e-01
     vertex  8.735896e-01 -3.509798e-02  1.904762e-01
     vertex  8.638549e-01 -3.537470e-02  1.904762e-01
   endloop
 endfacet
 facet normal  0.000000e+00  0.000000e+00  1.000000e+00
   outer loop
     vertex  8.991964e-01 -4.790140e-02  1.904762e-01
     vertex  8.638549e-01 -3.537470e-02  1.904762e-01
     vertex  8.544808e-01 -3.801404e-02  1.904762e-01
   endloop
 endfacet
 facet normal  0.000000e+00  0.000000e+00  1.000000e+00
   outer loop
     vertex  8.991964e-01 -4.790140e-02  1.904762e-01
     vertex  8.544808e-01 -3.801404e-02  1.904762e-01
     vertex  8.460318e-01 -4.285705e-02  1.904762e-01
   endloop
 endfacet
 facet normal  0.000000e+00  0.000000e+00  1.000000e+00
   outer loop
     vertex  8.209339e-01 -8.903361e-02  1.904762e-01
     vertex  8.259119e-01 -9.915923e-02  1.904762e-01
     vertex  8.320061e-01 -1.030828e-01  1.904762e-01
   endloop
 endfacet
 facet normal  0.000000e+00  0.000000e+00  1.000000e+00
   outer loop
     vertex  8.209339e-01 -8.903361e-02  1.904762e-01
     vertex  8.208666e-01 -9.395571e-02  1.904762e-01
     vertex  8.259119e-01 -9.915923e-02  1.904762e-01
   endloop
 endfacet
 facet normal  0.000000e+00  0.000000e+00  1.000000e+00
   outer loop
     vertex  8.209743e-01 -8.411122e-02  1.904762e-01
     vertex  8.320061e-01 -1.030828e-01  1.904762e-01
     vertex  8.388313e-01 -1.055218e-01  1.904762e-01
   endloop
 endfacet
 facet normal  0.000000e+00  0.000000e+00  1.000000e+00
   outer loop
     vertex  8.209743e-01 -8.411122e-02  1.904762e-01
     vertex  8.209339e-01 -8.903361e-02  1.904762e-01
     vertex  8.320061e-01 -1.030828e-01  1.904762e-01
   endloop
 endfacet
 facet normal  0.000000e+00  0.000000e+00  1.000000e+00
   outer loop
     vertex  8.460318e-01 -1.063492e-01  1.904762e-01
     vertex  8.209743e-01 -8.411122e-02  1.904762e-01
     vertex  8.388313e-01 -1.055218e-01  1.904762e-01
   endloop
 endfacet
 facet normal  0.000000e+00  0.000000e+00  1.000000e+00
   outer loop
     vertex  8.209877e-01 -7.918868e-02  1.904762e-01
     vertex  8.209743e-01 -8.411122e-02  1.904762e-01
     vertex  8.460318e-01 -1.063492e-01  1.904762e-01
   endloop
 endfacet
 facet normal  0.000000e+00  0.000000e+00  1.000000e+00
   outer loop
     vertex  8.209531e-01 -7.129194e-02  1.904762e-01
     vertex  8.209877e-01 -7.918868e-02  1.904762e-01
     vertex  8.460318e-01 -1.063492e-01  1.904762e-01
   endloop
 endfacet
 facet normal  0.000000e+00  0.000000e+00  1.000000e+00
   outer loop
     vertex  8.257299e-01 -5.019724e-02  1.904762e-01
     vertex  8.206760e-01 -5.550090e-02  1.904762e-01
     vertex  8.208492e-01 -6.339581e-02  1.904762e-01
   endloop
 endfacet
 facet normal  0.000000e+00  0.000000e+00  1.000000e+00
   outer loop
     vertex  8.318651e-01 -4.619333e-02  1.904762e-01
     vertex  8.257299e-01 -5.019724e-02  1.904762e-01
     vertex  8.208492e-01 -6.339581e-02  1.904762e-01
   endloop
 endfacet
 facet normal  0.000000e+00  0.000000e+00  1.000000e+00
   outer loop
     vertex  8.387547e-01 -4.370238e-02  1.904762e-01
     vertex  8.208492e-01 -6.339581e-02  1.904762e-01
     vertex  8.209531e-01 -7.129194e-02  1.904762e-01
   endloop
 endfacet
 facet normal  0.000000e+00  0.000000e+00  1.000000e+00
   outer loop
     vertex  8.387547e-01 -4.370238e-02  1.904762e-01
     vertex  8.318651e-01 -4.619333e-02  1.904762e-01
     vertex  8.208492e-01 -6.339581e-02  1.904762e-01
   endloop
 endfacet
 facet normal  0.000000e+00  0.000000e+00  1.000000e+00
   outer loop
     vertex  8.460318e-01 -4.285705e-02  1.904762e-01
     vertex  8.209531e-01 -7.129194e-02  1.904762e-01
     vertex  8.460318e-01 -1.063492e-01  1.904762e-01
   endloop
 endfacet
 facet normal  0.000000e+00  0.000000e+00  1.000000e+00
   outer loop
     vertex  8.460318e-01 -4.285705e-02  1.904762e-01
     vertex  8.387547e-01 -4.370238e-02  1.904762e-01
     vertex  8.209531e-01 -7.129194e-02  1.904762e-01
   endloop
 endfacet
 facet normal -0.000000e+00  0.000000e+00 -1.000000e+00
   outer loop
     vertex -1.005933e+00 -5.084088e-02 -3.174603e-02
     vertex -1.026984e+00 -1.063492e-01 -3.174603e-02
     vertex -1.026984e+00 -4.285705e-02 -3.174603e-02
   endloop
 endfacet
 facet normal  0.000000e+00  0.000000e+00 -1.000000e+00
   outer loop
     vertex -1.005933e+00 -5.084088e-02 -3.174603e-02
     vertex -1.026984e+00 -4.285705e-02 -3.174603e-02
     vertex -1.019387e+00 -4.377955e-02 -3.174603e-02
   endloop
 endfacet
 facet normal  0.000000e+00  0.000000e+00 -1.000000e+00
   outer loop
     vertex -1.005933e+00 -5.084088e-02 -3.174603e-02
     vertex -1.019387e+00 -4.377955e-02 -3.174603e-02
     vertex -1.012231e+00 -4.649340e-02 -3.174603e-02
   endloop
 endfacet
 facet normal  0.000000e+00  0.000000e+00 -1.000000e+00
   outer loop
     vertex -1.005933e+00 -5.084088e-02 -3.174603e-02
     vertex -1.000858e+00 -5.656932e-02 -3.174603e-02
     vertex -9.973010e-01 -6.334582e-02 -3.174603e-02
   endloop
 endfacet
 facet normal  0.000000e+00  0.000000e+00 -1.000000e+00
   outer loop
     vertex -1.005933e+00 -5.084088e-02 -3.174603e-02
     vertex -9.973010e-01 -6.334582e-02 -3.174603e-02
     vertex -9.954695e-01 -7.077655e-02 -3.174603e-02
   endloop
 endfacet
 facet normal  0.000000e+00  0.000000e+00 -1.000000e+00
   outer loop
     vertex -1.005933e+00 -5.084088e-02 -3.174603e-02
     vertex -9.954695e-01 -7.077655e-02 -3.174603e-02
     vertex -9.954695e-01 -7.842967e-02 -3.174603e-02
   endloop
 endfacet
 facet normal  0.000000e+00  0.000000e+00 -1.000000e+00
   outer loop
     vertex -1.005933e+00 -5.084088e-02 -3.174603e-02
     vertex -9.954695e-01 -7.842967e-02 -3.174603e-02
     vertex -9.973010e-01 -8.586040e-02 -3.174603e-02
   endloop
 endfacet
 facet normal  0.000000e+00  0.000000e+00 -1.000000e+00
   outer loop
     vertex -1.005933e+00 -5.084088e-02 -3.174603e-02
     vertex -9.973010e-01 -8.586040e-02 -3.174603e-02
     vertex -1.000858e+00 -9.263690e-02 -3.174603e-02
   endloop
 endfacet
 facet normal  0.000000e+00  0.000000e+00 -1.000000e+00
   outer loop
     vertex -1.005933e+00 -5.084088e-02 -3.174603e-02
     vertex -1.000858e+00 -9.263690e-02 -3.174603e-02
     vertex -1.005933e+00 -9.836535e-02 -3.174603e-02
   endloop
 endfacet
 facet normal  0.000000e+00 -0.000000e+00 -1.000000e+00
   outer loop
     vertex -1.005933e+00 -5.084088e-02 -3.174603e-02
     vertex -1.005933e+00 -9.836535e-02 -3.174603e-02
     vertex -1.012231e+00 -1.027128e-01 -3.174603e-02
   endloop
 endfacet
 facet normal  0.000000e+00  0.000000e+00 -1.000000e+00
   outer loop
     vertex -1.005933e+00 -5.084088e-02 -3.174603e-02
     vertex -1.012231e+00 -1.027128e-01 -3.174603e-02
     vertex -1.019387e+00 -1.054267e-01 -3.174603e-02
   endloop
 endfacet
 facet normal  0.000000e+00  0.000000e+00 -1.000000e+00
   outer loop
     vertex -1.005933e+00 -5.084088e-02 -3.174603e-02
     vertex -1.019387e+00 -1.054267e-01 -3.174603e-02
     vertex -1.026984e+00 -1.063492e-01 -3.174603e-02
   endloop
 endfacet
 facet normal -0.000000e+00  0.000000e+00 -1.000000e+00
   outer loop
     vertex  8.991964e-01 -4.790140e-02 -3.174603e-02
     vertex  8.460318e-01 -1.063492e-01 -3.174603e-02
     vertex  8.460318e-01 -4.285705e-02 -3.174603e-02
   endloop
 endfacet
 facet normal  0.000000e+00  0.000000e+00 -1.000000e+00
   outer loop
     vertex  8.991964e-01 -4.790140e-02 -3.174603e-02
     vertex  8.544808e-01 -1.111922e-01 -3.174603e-02
     vertex  8.460318e-01 -1.063492e-01 -3.174603e-02
   endloop
 endfacet
 facet normal  0.000000e+00  0.000000e+00 -1.000000e+00
   outer loop
     vertex  8.991964e-01 -4.790140e-02 -3.174603e-02
     vertex  8.638549e-01 -1.138315e-01 -3.174603e-02
     vertex  8.544808e-01 -1.111922e-01 -3.174603e-02
   endloop
 endfacet
 facet normal  0.000000e+00  0.000000e+00 -1.000000e+00
   outer loop
     vertex  8.991964e-01 -4.790140e-02 -3.174603e-02
     vertex  8.735896e-01 -1.141082e-01 -3.174603e-02
     vertex  8.638549e-01 -1.138315e-01 -3.174603e-02
   endloop
 endfacet
 facet normal  0.000000e+00  0.000000e+00 -1.000000e+00
   outer loop
     vertex  8.991964e-01 -4.790140e-02 -3.174603e-02
     vertex  8.830985e-01 -1.120057e-01 -3.174603e-02
     vertex  8.735896e-01 -1.141082e-01 -3.174603e-02
   endloop
 endfacet
 facet normal  0.000000e+00  0.000000e+00 -1.000000e+00
   outer loop
     vertex  8.991964e-01 -4.790140e-02 -3.174603e-02
     vertex  8.918090e-01 -1.076504e-01 -3.174603e-02
     vertex  8.830985e-01 -1.120057e-01 -3.174603e-02
   endloop
 endfacet
 facet normal  0.000000e+00 -0.000000e+00 -1.000000e+00
   outer loop
     vertex  8.991964e-01 -4.790140e-02 -3.174603e-02
     vertex  8.991964e-01 -1.013048e-01 -3.174603e-02
     vertex  8.918090e-01 -1.076504e-01 -3.174603e-02
   endloop
 endfacet
 facet normal  0.000000e+00  0.000000e+00 -1.000000e+00
   outer loop
     vertex  8.991964e-01 -4.790140e-02 -3.174603e-02
     vertex  9.048159e-01 -9.335104e-02 -3.174603e-02
     vertex  8.991964e-01 -1.013048e-01 -3.174603e-02
   endloop
 endfacet
 facet normal  0.000000e+00  0.000000e+00 -1.000000e+00
   outer loop
     vertex  8.991964e-01 -4.790140e-02 -3.174603e-02
     vertex  9.083289e-01 -8.426813e-02 -3.174603e-02
     vertex  9.048159e-01 -9.335104e-02 -3.174603e-02
   endloop
 endfacet
 facet normal  0.000000e+00  0.000000e+00 -1.000000e+00
   outer loop
     vertex  8.991964e-01 -4.790140e-02 -3.174603e-02
     vertex  9.095238e-01 -7.460311e-02 -3.174603e-02
     vertex  9.083289e-01 -8.426813e-02 -3.174603e-02
   endloop
 endfacet
 facet normal  0.000000e+00  0.000000e+00 -1.000000e+00
   outer loop
     vertex  8.991964e-01 -4.790140e-02 -3.174603e-02
     vertex  9.083289e-01 -6.493810e-02 -3.174603e-02
     vertex  9.095238e-01 -7.460311e-02 -3.174603e-02
   endloop
 endfacet
 facet normal  0.000000e+00  0.000000e+00 -1.000000e+00
   outer loop
     vertex  8.991964e-01 -4.790140e-02 -3.174603e-02
     vertex  9.048159e-01 -5.585518e-02 -3.174603e-02
     vertex  9.083289e-01 -6.493810e-02 -3.174603e-02
   endloop
 endfacet
 facet normal  0.000000e+00  0.000000e+00 -1.000000e+00
   outer loop
     vertex  8.991964e-01 -4.790140e-02 -3.174603e-02
     vertex  8.830985e-01 -3.720056e-02 -3.174603e-02
     vertex  8.918090e-01 -4.155581e-02 -3.174603e-02
   endloop
 endfacet
 facet normal  0.000000e+00  0.000000e+00 -1.000000e+00
   outer loop
     vertex  8.991964e-01 -4.790140e-02 -3.174603e-02
     vertex  8.735896e-01 -3.509798e-02 -3.174603e-02
     vertex  8.830985e-01 -3.720056e-02 -3.174603e-02
   endloop
 endfacet
 facet normal  0.000000e+00  0.000000e+00 -1.000000e+00
   outer loop
     vertex  8.991964e-01 -4.790140e-02 -3.174603e-02
     vertex  8.638549e-01 -3.537470e-02 -3.174603e-02
     vertex  8.735896e-01 -3.509798e-02 -3.174603e-02
   endloop
 endfacet
 facet normal  0.000000e+00  0.000000e+00 -1.000000e+00
   outer loop
     vertex  8.991964e-01 -4.790140e-02 -3.174603e-02
     vertex  8.544808e-01 -3.801404e-02 -3.174603e-02
     vertex  8.638549e-01 -3.537470e-02 -3.174603e-02
   endloop
 endfacet
 facet normal  0.000000e+00  0.000000e+00 -1.000000e+00
   outer loop
     vertex  8.991964e-01 -4.790140e-02 -3.174603e-02
     vertex  8.460318e-01 -4.285705e-02 -3.174603e-02
     vertex  8.544808e-01 -3.801404e-02 -3.174603e-02
   endloop
 endfacet
 facet normal  0.000000e+00 -0.000000e+00 -1.000000e+00
   outer loop
     vertex  8.460318e-01 -4.285705e-02 -3.174603e-02
     vertex  8.460318e-01 -1.063492e-01 -3.174603e-02
     vertex  8.384345e-01 -1.054267e-01 -3.174603e-02
   endloop
 endfacet
 facet normal  0.000000e+00  0.000000e+00 -1.000000e+00
   outer loop
     vertex  8.460318e-01 -4.285705e-02 -3.174603e-02
     vertex  8.384345e-01 -1.054267e-01 -3.174603e-02
     vertex  8.312787e-01 -1.027128e-01 -3.174603e-02
   endloop
 endfacet
 facet normal  0.000000e+00  0.000000e+00 -1.000000e+00
   outer loop
     vertex  8.460318e-01 -4.285705e-02 -3.174603e-02
     vertex  8.312787e-01 -1.027128e-01 -3.174603e-02
     vertex  8.249803e-01 -9.836537e-02 -3.174603e-02
   endloop
 endfacet
 facet normal  0.000000e+00  0.000000e+00 -1.000000e+00
   outer loop
     vertex  8.460318e-01 -4.285705e-02 -3.174603e-02
     vertex  8.249803e-01 -9.836537e-02 -3.174603e-02
     vertex  8.199053e-01 -9.263692e-02 -3.174603e-02
   endloop
 endfacet
 facet normal  0.000000e+00  0.000000e+00 -1.000000e+00
   outer loop
     vertex  8.460318e-01 -4.285705e-02 -3.174603e-02
     vertex  8.199053e-01 -9.263692e-02 -3.174603e-02
     vertex  8.163487e-01 -8.586041e-02 -3.174603e-02
   endloop
 endfacet
 facet normal  0.000000e+00  0.000000e+00 -1.000000e+00
   outer loop
     vertex  8.460318e-01 -4.285705e-02 -3.174603e-02
     vertex  8.163487e-01 -8.586041e-02 -3.174603e-02
     vertex  8.145172e-01 -7.842967e-02 -3.174603e-02
   endloop
 endfacet
 facet normal  0.000000e+00  0.000000e+00 -1.000000e+00
   outer loop
     vertex  8.460318e-01 -4.285705e-02 -3.174603e-02
     vertex  8.145172e-01 -7.842967e-02 -3.174603e-02
     vertex  8.145172e-01 -7.077655e-02 -3.174603e-02
   endloop
 endfacet
 facet normal  0.000000e+00  0.000000e+00 -1.000000e+00
   outer loop
     vertex  8.460318e-01 -4.285705e-02 -3.174603e-02
     vertex  8.145172e-01 -7.077655e-02 -3.174603e-02
     vertex  8.163487e-01 -6.334581e-02 -3.174603e-02
   endloop
 endfacet
 facet normal  0.000000e+00  0.000000e+00 -1.000000e+00
   outer loop
     vertex  8.460318e-01 -4.285705e-02 -3.174603e-02
     vertex  8.163487e-01 -6.334581e-02 -3.174603e-02
     vertex  8.199053e-01 -5.656930e-02 -3.174603e-02
   endloop
 endfacet
 facet normal  0.000000e+00  0.000000e+00 -1.000000e+00
   outer loop
     vertex  8.460318e-01 -4.285705e-02 -3.174603e-02
     vertex  8.199053e-01 -5.656930e-02 -3.174603e-02
     vertex  8.249803e-01 -5.084085e-02 -3.174603e-02
   endloop
 endfacet
 facet normal  0.000000e+00  0.000000e+00 -1.000000e+00
   outer loop
     vertex  8.460318e-01 -4.285705e-02 -3.174603e-02
     vertex  8.249803e-01 -5.084085e-02 -3.174603e-02
     vertex  8.312787e-01 -4.649338e-02 -3.174603e-02
   endloop
 endfacet
 facet normal  0.000000e+00  0.000000e+00 -1.000000e+00
   outer loop
     vertex  8.460318e-01 -4.285705e-02 -3.174603e-02
     vertex  8.312787e-01 -4.649338e-02 -3.174603e-02
     vertex  8.384345e-01 -4.377954e-02 -3.174603e-02
   endloop
 endfacet
endsolid
