solid 
 facet normal -1.000000e+00  0.000000e+00  0.000000e+00
   outer loop
     vertex -4.234568e-01  2.594357e-01 -1.587302e-02
     vertex -4.234568e-01 -3.924162e-01 -1.587302e-02
     vertex -4.234568e-01 -3.924162e-01  6.349212e-02
   endloop
 endfacet
 facet normal -1.000000e+00  0.000000e+00  0.000000e+00
   outer loop
     vertex -4.234568e-01  2.594357e-01 -1.587302e-02
     vertex -4.234568e-01 -3.924162e-01  6.349212e-02
     vertex -4.234568e-01  2.594357e-01  6.349212e-02
   endloop
 endfacet
 facet normal  0.000000e+00 -1.000000e+00  0.000000e+00
   outer loop
     vertex -4.234568e-01 -3.924162e-01 -1.587302e-02
     vertex  2.904762e-01 -3.924162e-01 -1.587302e-02
     vertex  2.904762e-01 -3.924162e-01  6.349212e-02
   endloop
 endfacet
 facet normal  0.000000e+00 -1.000000e+00  0.000000e+00
   outer loop
     vertex -4.234568e-01 -3.924162e-01 -1.587302e-02
     vertex  2.904762e-01 -3.924162e-01  6.349212e-02
     vertex -4.234568e-01 -3.924162e-01  6.349212e-02
   endloop
 endfacet
 facet normal  0.000000e+00  1.000000e+00  0.000000e+00
   outer loop
     vertex  2.904762e-01  2.594357e-01 -1.587302e-02
     vertex -4.234568e-01  2.594357e-01 -1.587302e-02
     vertex -4.234568e-01  2.594357e-01  6.349212e-02
   endloop
 endfacet
 facet normal  0.000000e+00  1.000000e+00 -0.000000e+00
   outer loop
     vertex  2.904762e-01  2.594357e-01 -1.587302e-02
     vertex -4.234568e-01  2.594357e-01  6.349212e-02
     vertex  2.904762e-01  2.594357e-01  6.349212e-02
   endloop
 endfacet
 facet normal -1.000000e+00  0.000000e+00  0.000000e+00
   outer loop
     vertex -4.234568e-01 -1.246913e-01 -3.174603e-02
     vertex -4.234568e-01 -3.924162e-01 -3.174603e-02
     vertex -4.234568e-01 -3.924162e-01 -1.587302e-02
   endloop
 endfacet
 facet normal -1.000000e+00  0.000000e+00 -0.000000e+00
   outer loop
     vertex -4.234568e-01  2.594357e-01 -1.587302e-02
     vertex -4.234568e-01  2.594357e-01 -3.174603e-02
     vertex -4.234568e-01 -4.761852e-03 -3.174603e-02
   endloop
 endfacet
 facet normal -1.000000e+00 -0.000000e+00  0.000000e+00
   outer loop
     vertex -4.234568e-01  2.594357e-01 -1.587302e-02
     vertex -4.234568e-01 -1.246913e-01 -3.174603e-02
     vertex -4.234568e-01 -3.924162e-01 -1.587302e-02
   endloop
 endfacet
 facet normal -1.000000e+00  0.000000e+00  0.000000e+00
   outer loop
     vertex -4.234568e-01  2.594357e-01 -1.587302e-02
     vertex -4.234568e-01 -4.761852e-03 -3.174603e-02
     vertex -4.234568e-01 -1.246913e-01 -3.174603e-02
   endloop
 endfacet
 facet normal  0.000000e+00  0.000000e+00  1.000000e+00
   outer loop
     vertex  2.904762e-01  2.594357e-01  6.349212e-02
     vertex -4.234568e-01 -3.924162e-01  6.349212e-02
     vertex  2.904762e-01 -3.924162e-01  6.349212e-02
   endloop
 endfacet
 facet normal  0.000000e+00  0.000000e+00  1.000000e+00
   outer loop
     vertex  2.904762e-01  2.594357e-01  6.349212e-02
     vertex -4.234568e-01  2.594357e-01  6.349212e-02
     vertex -4.234568e-01 -3.924162e-01  6.349212e-02
   endloop
 endfacet
 facet normal  1.000000e+00  0.000000e+00  0.000000e+00
   outer loop
     vertex  2.904762e-01 -3.924162e-01 -1.587302e-02
     vertex  2.904762e-01  2.594357e-01 -1.587302e-02
     vertex  2.904762e-01  2.594357e-01  6.349212e-02
   endloop
 endfacet
 facet normal  1.000000e+00  0.000000e+00  0.000000e+00
   outer loop
     vertex  2.904762e-01 -3.924162e-01 -1.587302e-02
     vertex  2.904762e-01  2.594357e-01  6.349212e-02
     vertex  2.904762e-01 -3.924162e-01  6.349212e-02
   endloop
 endfacet
 facet normal  0.000000e+00 -1.000000e+00  0.000000e+00
   outer loop
     vertex -4.234568e-01 -3.924162e-01 -1.587302e-02
     vertex  2.904762e-01 -3.924162e-01 -3.174603e-02
     vertex  2.904762e-01 -3.924162e-01 -1.587302e-02
   endloop
 endfacet
 facet normal  0.000000e+00 -1.000000e+00  0.000000e+00
   outer loop
     vertex -4.234568e-01 -3.924162e-01 -1.587302e-02
     vertex -4.234568e-01 -3.924162e-01 -3.174603e-02
     vertex  2.904762e-01 -3.924162e-01 -3.174603e-02
   endloop
 endfacet
 facet normal  0.000000e+00  1.000000e+00  0.000000e+00
   outer loop
     vertex  2.904762e-01  2.594357e-01 -1.587302e-02
     vertex -4.234568e-01  2.594357e-01 -3.174603e-02
     vertex -4.234568e-01  2.594357e-01 -1.587302e-02
   endloop
 endfacet
 facet normal  0.000000e+00  1.000000e+00  0.000000e+00
   outer loop
     vertex  2.904762e-01  2.594357e-01 -1.587302e-02
     vertex  2.904762e-01  2.594357e-01 -3.174603e-02
     vertex -4.234568e-01  2.594357e-01 -3.174603e-02
   endloop
 endfacet
 facet normal -0.000000e+00  0.000000e+00 -1.000000e+00
   outer loop
     vertex  2.904762e-01 -1.246913e-01 -3.174603e-02
     vertex -4.234568e-01 -3.924162e-01 -3.174603e-02
     vertex -4.234568e-01 -1.246913e-01 -3.174603e-02
   endloop
 endfacet
 facet normal  0.000000e+00 -0.000000e+00 -1.000000e+00
   outer loop
     vertex  2.904762e-01 -1.246913e-01 -3.174603e-02
     vertex  2.904762e-01 -3.924162e-01 -3.174603e-02
     vertex -4.234568e-01 -3.924162e-01 -3.174603e-02
   endloop
 endfacet
 facet normal  0.000000e+00  0.000000e+00  1.000000e+00
   outer loop
     vertex -4.234568e-01 -4.761852e-03 -3.174603e-02
     vertex -4.365079e-01 -4.761852e-03 -3.174603e-02
     vertex -4.365079e-01 -1.246913e-01 -3.174603e-02
   endloop
 endfacet
 facet normal  0.000000e+00  0.000000e+00  1.000000e+00
   outer loop
     vertex -4.234568e-01 -4.761852e-03 -3.174603e-02
     vertex -4.365079e-01 -1.246913e-01 -3.174603e-02
     vertex -4.234568e-01 -1.246913e-01 -3.174603e-02
   endloop
 endfacet
 facet normal -0.000000e+00  0.000000e+00 -1.000000e+00
   outer loop
     vertex  2.904762e-01  2.594357e-01 -3.174603e-02
     vertex -4.234568e-01 -4.761852e-03 -3.174603e-02
     vertex -4.234568e-01  2.594357e-01 -3.174603e-02
   endloop
 endfacet
 facet normal  0.000000e+00 -0.000000e+00 -1.000000e+00
   outer loop
     vertex  2.904762e-01  2.594357e-01 -3.174603e-02
     vertex  2.904762e-01 -4.761852e-03 -3.174603e-02
     vertex -4.234568e-01 -4.761852e-03 -3.174603e-02
   endloop
 endfacet
 facet normal  1.000000e+00  0.000000e+00  0.000000e+00
   outer loop
     vertex  2.904762e-01 -4.761852e-03 -3.174603e-02
     vertex  2.904762e-01  2.594357e-01 -3.174603e-02
     vertex  2.904762e-01  2.594357e-01 -1.587302e-02
   endloop
 endfacet
 facet normal  1.000000e+00  0.000000e+00  0.000000e+00
   outer loop
     vertex  2.904762e-01 -3.924162e-01 -1.587302e-02
     vertex  2.904762e-01 -3.924162e-01 -3.174603e-02
     vertex  2.904762e-01 -1.246913e-01 -3.174603e-02
   endloop
 endfacet
 facet normal  1.000000e+00 -0.000000e+00  0.000000e+00
   outer loop
     vertex  2.904762e-01 -3.924162e-01 -1.587302e-02
     vertex  2.904762e-01 -4.761852e-03 -3.174603e-02
     vertex  2.904762e-01  2.594357e-01 -1.587302e-02
   endloop
 endfacet
 facet normal  1.000000e+00  0.000000e+00  0.000000e+00
   outer loop
     vertex  2.904762e-01 -3.924162e-01 -1.587302e-02
     vertex  2.904762e-01 -1.246913e-01 -3.174603e-02
     vertex  2.904762e-01 -4.761852e-03 -3.174603e-02
   endloop
 endfacet
 facet normal  1.063338e-15 -1.000000e+00  0.000000e+00
   outer loop
     vertex -4.234568e-01 -1.246913e-01 -3.174603e-02
     vertex -4.365079e-01 -1.246913e-01 -3.174603e-02
     vertex -4.365079e-01 -1.246913e-01 -1.015873e+00
   endloop
 endfacet
 facet normal  0.000000e+00 -1.000000e+00  1.410162e-17
   outer loop
     vertex  2.904762e-01 -1.246913e-01 -3.174603e-02
     vertex -4.365079e-01 -1.246913e-01 -1.015873e+00
     vertex  3.070547e-01 -1.246913e-01 -1.015873e+00
   endloop
 endfacet
 facet normal  0.000000e+00 -1.000000e+00  1.410162e-17
   outer loop
     vertex  2.904762e-01 -1.246913e-01 -3.174603e-02
     vertex -4.234568e-01 -1.246913e-01 -3.174603e-02
     vertex -4.365079e-01 -1.246913e-01 -1.015873e+00
   endloop
 endfacet
 facet normal -8.370957e-16 -1.000000e+00 -0.000000e+00
   outer loop
     vertex  3.070547e-01 -1.246913e-01 -3.174603e-02
     vertex  2.904762e-01 -1.246913e-01 -3.174603e-02
     vertex  3.070547e-01 -1.246913e-01 -1.015873e+00
   endloop
 endfacet
 facet normal -1.000000e+00  0.000000e+00  0.000000e+00
   outer loop
     vertex -4.365079e-01 -1.246913e-01 -3.174603e-02
     vertex -4.365079e-01 -4.761852e-03 -3.174603e-02
     vertex -4.365079e-01 -4.761852e-03 -1.015873e+00
   endloop
 endfacet
 facet normal -1.000000e+00  0.000000e+00  0.000000e+00
   outer loop
     vertex -4.365079e-01 -1.246913e-01 -3.174603e-02
     vertex -4.365079e-01 -4.761852e-03 -1.015873e+00
     vertex -4.365079e-01 -1.246913e-01 -1.015873e+00
   endloop
 endfacet
 facet normal  3.139109e-16  1.000000e+00  0.000000e+00
   outer loop
     vertex  2.904762e-01 -4.761852e-03 -3.174603e-02
     vertex  3.070547e-01 -4.761852e-03 -3.174603e-02
     vertex  3.070547e-01 -4.761852e-03 -1.015873e+00
   endloop
 endfacet
 facet normal  0.000000e+00  1.000000e+00 -5.288109e-18
   outer loop
     vertex  2.904762e-01 -4.761852e-03 -3.174603e-02
     vertex  3.070547e-01 -4.761852e-03 -1.015873e+00
     vertex -4.365079e-01 -4.761852e-03 -1.015873e+00
   endloop
 endfacet
 facet normal  0.000000e+00  1.000000e+00 -5.288109e-18
   outer loop
     vertex -4.234568e-01 -4.761852e-03 -3.174603e-02
     vertex  2.904762e-01 -4.761852e-03 -3.174603e-02
     vertex -4.365079e-01 -4.761852e-03 -1.015873e+00
   endloop
 endfacet
 facet normal -3.987518e-16  1.000000e+00  0.000000e+00
   outer loop
     vertex -4.365079e-01 -4.761852e-03 -3.174603e-02
     vertex -4.234568e-01 -4.761852e-03 -3.174603e-02
     vertex -4.365079e-01 -4.761852e-03 -1.015873e+00
   endloop
 endfacet
 facet normal  0.000000e+00  0.000000e+00  1.000000e+00
   outer loop
     vertex  3.070547e-01 -4.761852e-03 -3.174603e-02
     vertex  2.904762e-01 -4.761852e-03 -3.174603e-02
     vertex  2.904762e-01 -1.246913e-01 -3.174603e-02
   endloop
 endfacet
 facet normal  0.000000e+00  0.000000e+00  1.000000e+00
   outer loop
     vertex  3.070547e-01 -4.761852e-03 -3.174603e-02
     vertex  2.904762e-01 -1.246913e-01 -3.174603e-02
     vertex  3.070547e-01 -1.246913e-01 -3.174603e-02
   endloop
 endfacet
 facet normal  1.000000e+00  0.000000e+00  0.000000e+00
   outer loop
     vertex  3.070547e-01 -4.761852e-03 -3.174603e-02
     vertex  3.070547e-01 -1.246913e-01 -3.174603e-02
     vertex  3.070547e-01 -1.246913e-01 -1.015873e+00
   endloop
 endfacet
 facet normal  1.000000e+00  0.000000e+00  0.000000e+00
   outer loop
     vertex  3.070547e-01 -4.761852e-03 -3.174603e-02
     vertex  3.070547e-01 -1.246913e-01 -1.015873e+00
     vertex  3.070547e-01 -4.761852e-03 -1.015873e+00
   endloop
 endfacet
 facet normal  0.000000e+00 -0.000000e+00 -1.000000e+00
   outer loop
     vertex  3.070547e-01 -4.761852e-03 -1.015873e+00
     vertex  3.070547e-01 -1.246913e-01 -1.015873e+00
     vertex -4.365079e-01 -1.246913e-01 -1.015873e+00
   endloop
 endfacet
 facet normal -0.000000e+00  0.000000e+00 -1.000000e+00
   outer loop
     vertex  3.070547e-01 -4.761852e-03 -1.015873e+00
     vertex -4.365079e-01 -1.246913e-01 -1.015873e+00
     vertex -4.365079e-01 -4.761852e-03 -1.015873e+00
   endloop
 endfacet
endsolid
