solid 
 facet normal  1.108261e-15  0.000000e+00 -1.000000e+00
   outer loop
     vertex -2.839515e-02 -1.587302e-02 -3.509703e-02
     vertex -1.587302e-02 -6.261018e-02 -3.509703e-02
     vertex -2.839515e-02 -6.261018e-02 -3.509703e-02
   endloop
 endfacet
 facet normal  0.000000e+00  2.297432e-17 -1.000000e+00
   outer loop
     vertex  6.349207e-01 -6.261018e-02 -3.509703e-02
     vertex  9.197530e-01 -6.666667e-01 -3.509703e-02
     vertex  6.349207e-01 -6.666667e-01 -3.509703e-02
   endloop
 endfacet
 facet normal -0.000000e+00 -2.969326e-16 -1.000000e+00
   outer loop
     vertex  6.349207e-01 -6.261018e-02 -3.509703e-02
     vertex -1.587302e-02 -6.261018e-02 -3.509703e-02
     vertex -2.839515e-02 -1.587302e-02 -3.509703e-02
   endloop
 endfacet
 facet normal -4.872266e-17 -0.000000e+00 -1.000000e+00
   outer loop
     vertex  9.197530e-01 -1.587302e-02 -3.509703e-02
     vertex  9.197530e-01 -6.666667e-01 -3.509703e-02
     vertex  6.349207e-01 -6.261018e-02 -3.509703e-02
   endloop
 endfacet
 facet normal -0.000000e+00 -2.969326e-16 -1.000000e+00
   outer loop
     vertex  9.197530e-01 -1.587302e-02 -3.509703e-02
     vertex  6.349207e-01 -6.261018e-02 -3.509703e-02
     vertex -2.839515e-02 -1.587302e-02 -3.509703e-02
   endloop
 endfacet
 facet normal  0.000000e+00  0.000000e+00 -1.000000e+00
   outer loop
     vertex  9.197530e-01 -1.587302e-02 -3.509703e-02
     vertex -2.839515e-02 -1.587302e-02 -3.509703e-02
     vertex -2.839515e-02  0.000000e+00 -3.509703e-02
   endloop
 endfacet
 facet normal  0.000000e+00  0.000000e+00 -1.000000e+00
   outer loop
     vertex  9.197530e-01 -1.587302e-02 -3.509703e-02
     vertex -2.839515e-02  0.000000e+00 -3.509703e-02
     vertex  9.197530e-01  0.000000e+00 -3.509703e-02
   endloop
 endfacet
 facet normal  1.000000e+00  0.000000e+00  0.000000e+00
   outer loop
     vertex  9.197530e-01 -1.587302e-02  7.550265e-01
     vertex  9.197530e-01 -6.666667e-01 -3.509703e-02
     vertex  9.197530e-01 -1.587302e-02 -3.509703e-02
   endloop
 endfacet
 facet normal  1.000000e+00  0.000000e+00  0.000000e+00
   outer loop
     vertex  9.197530e-01 -1.587302e-02  7.550265e-01
     vertex  9.197530e-01 -6.666667e-01  7.550265e-01
     vertex  9.197530e-01 -6.666667e-01 -3.509703e-02
   endloop
 endfacet
 facet normal  0.000000e+00 -1.000000e+00  0.000000e+00
   outer loop
     vertex -2.839515e-02 -6.666667e-01  7.550265e-01
     vertex -2.839515e-02 -6.666667e-01  2.650793e-01
     vertex -1.587302e-02 -6.666667e-01  2.650793e-01
   endloop
 endfacet
 facet normal  0.000000e+00 -1.000000e+00  0.000000e+00
   outer loop
     vertex  6.349207e-01 -6.666667e-01  2.650793e-01
     vertex  6.349207e-01 -6.666667e-01 -3.509703e-02
     vertex  9.197530e-01 -6.666667e-01 -3.509703e-02
   endloop
 endfacet
 facet normal  0.000000e+00 -1.000000e+00  0.000000e+00
   outer loop
     vertex  6.349207e-01 -6.666667e-01  2.650793e-01
     vertex -2.839515e-02 -6.666667e-01  7.550265e-01
     vertex -1.587302e-02 -6.666667e-01  2.650793e-01
   endloop
 endfacet
 facet normal -0.000000e+00 -1.000000e+00  0.000000e+00
   outer loop
     vertex  9.197530e-01 -6.666667e-01  7.550265e-01
     vertex -2.839515e-02 -6.666667e-01  7.550265e-01
     vertex  6.349207e-01 -6.666667e-01  2.650793e-01
   endloop
 endfacet
 facet normal  0.000000e+00 -1.000000e+00 -0.000000e+00
   outer loop
     vertex  9.197530e-01 -6.666667e-01  7.550265e-01
     vertex  6.349207e-01 -6.666667e-01  2.650793e-01
     vertex  9.197530e-01 -6.666667e-01 -3.509703e-02
   endloop
 endfacet
 facet normal -1.000000e+00 -0.000000e+00  0.000000e+00
   outer loop
     vertex  6.349207e-01 -6.261018e-02  2.650793e-01
     vertex  6.349207e-01 -6.666667e-01 -3.509703e-02
     vertex  6.349207e-01 -6.666667e-01  2.650793e-01
   endloop
 endfacet
 facet normal -1.000000e+00  0.000000e+00 -0.000000e+00
   outer loop
     vertex  6.349207e-01 -6.261018e-02  2.650793e-01
     vertex  6.349207e-01 -6.261018e-02 -3.509703e-02
     vertex  6.349207e-01 -6.666667e-01 -3.509703e-02
   endloop
 endfacet
 facet normal  0.000000e+00 -1.000000e+00  0.000000e+00
   outer loop
     vertex -1.587302e-02 -6.261018e-02 -3.509703e-02
     vertex  6.349207e-01 -6.261018e-02  2.650793e-01
     vertex -1.587302e-02 -6.261018e-02  2.650793e-01
   endloop
 endfacet
 facet normal  0.000000e+00 -1.000000e+00  0.000000e+00
   outer loop
     vertex -1.587302e-02 -6.261018e-02 -3.509703e-02
     vertex  6.349207e-01 -6.261018e-02 -3.509703e-02
     vertex  6.349207e-01 -6.261018e-02  2.650793e-01
   endloop
 endfacet
 facet normal  0.000000e+00 -1.000000e+00  0.000000e+00
   outer loop
     vertex -1.587302e-02 -6.261018e-02 -3.509703e-02
     vertex -1.587302e-02 -6.261018e-02  2.650793e-01
     vertex -2.839515e-02 -6.261018e-02  2.650793e-01
   endloop
 endfacet
 facet normal -0.000000e+00 -1.000000e+00  0.000000e+00
   outer loop
     vertex -1.587302e-02 -6.261018e-02 -3.509703e-02
     vertex -2.839515e-02 -6.261018e-02  2.650793e-01
     vertex -2.839515e-02 -6.261018e-02 -3.509703e-02
   endloop
 endfacet
 facet normal -1.000000e+00  0.000000e+00  0.000000e+00
   outer loop
     vertex -2.839515e-02 -6.261018e-02  2.650793e-01
     vertex -2.839515e-02 -6.666667e-01  7.550265e-01
     vertex -2.839515e-02 -1.587302e-02  7.550265e-01
   endloop
 endfacet
 facet normal -1.000000e+00  0.000000e+00  0.000000e+00
   outer loop
     vertex -2.839515e-02 -6.261018e-02  2.650793e-01
     vertex -2.839515e-02 -6.666667e-01  2.650793e-01
     vertex -2.839515e-02 -6.666667e-01  7.550265e-01
   endloop
 endfacet
 facet normal -1.000000e+00  0.000000e+00  0.000000e+00
   outer loop
     vertex -2.839515e-02 -1.587302e-02 -3.509703e-02
     vertex -2.839515e-02 -6.261018e-02 -3.509703e-02
     vertex -2.839515e-02 -6.261018e-02  2.650793e-01
   endloop
 endfacet
 facet normal -1.000000e+00  0.000000e+00  0.000000e+00
   outer loop
     vertex -2.839515e-02 -1.587302e-02 -3.509703e-02
     vertex -2.839515e-02 -6.261018e-02  2.650793e-01
     vertex -2.839515e-02 -1.587302e-02  7.550265e-01
   endloop
 endfacet
 facet normal -1.000000e+00  0.000000e+00  0.000000e+00
   outer loop
     vertex -2.839515e-02 -1.587302e-02 -3.509703e-02
     vertex -2.839515e-02 -1.587302e-02  7.550265e-01
     vertex -2.839515e-02  0.000000e+00  7.550265e-01
   endloop
 endfacet
 facet normal -1.000000e+00  0.000000e+00  0.000000e+00
   outer loop
     vertex -2.839515e-02 -1.587302e-02 -3.509703e-02
     vertex -2.839515e-02  0.000000e+00  7.550265e-01
     vertex -2.839515e-02  0.000000e+00 -3.509703e-02
   endloop
 endfacet
 facet normal  1.000000e+00  0.000000e+00  0.000000e+00
   outer loop
     vertex  9.197530e-01 -1.587302e-02  7.550265e-01
     vertex  9.197530e-01 -1.587302e-02 -3.509703e-02
     vertex  9.197530e-01  0.000000e+00 -3.509703e-02
   endloop
 endfacet
 facet normal  1.000000e+00 -0.000000e+00  0.000000e+00
   outer loop
     vertex  9.197530e-01 -1.587302e-02  7.550265e-01
     vertex  9.197530e-01  0.000000e+00 -3.509703e-02
     vertex  9.197530e-01  0.000000e+00  7.550265e-01
   endloop
 endfacet
 facet normal  0.000000e+00  1.000000e+00  0.000000e+00
   outer loop
     vertex  9.197530e-01  0.000000e+00  7.550265e-01
     vertex  9.197530e-01  0.000000e+00 -3.509703e-02
     vertex -2.839515e-02  0.000000e+00 -3.509703e-02
   endloop
 endfacet
 facet normal  0.000000e+00  1.000000e+00  0.000000e+00
   outer loop
     vertex  9.197530e-01  0.000000e+00  7.550265e-01
     vertex -2.839515e-02  0.000000e+00 -3.509703e-02
     vertex -2.839515e-02  0.000000e+00  7.550265e-01
   endloop
 endfacet
 facet normal -0.000000e+00  0.000000e+00  1.000000e+00
   outer loop
     vertex -2.839515e-02 -1.587302e-02  7.550265e-01
     vertex  9.197530e-01 -6.666667e-01  7.550265e-01
     vertex  9.197530e-01 -1.587302e-02  7.550265e-01
   endloop
 endfacet
 facet normal  0.000000e+00  0.000000e+00  1.000000e+00
   outer loop
     vertex -2.839515e-02 -1.587302e-02  7.550265e-01
     vertex -2.839515e-02 -6.666667e-01  7.550265e-01
     vertex  9.197530e-01 -6.666667e-01  7.550265e-01
   endloop
 endfacet
 facet normal  0.000000e+00  0.000000e+00 -1.000000e+00
   outer loop
     vertex -1.587302e-02 -6.261018e-02  2.650793e-01
     vertex  6.349207e-01 -6.666667e-01  2.650793e-01
     vertex -1.587302e-02 -6.666667e-01  2.650793e-01
   endloop
 endfacet
 facet normal  0.000000e+00  0.000000e+00 -1.000000e+00
   outer loop
     vertex -1.587302e-02 -6.261018e-02  2.650793e-01
     vertex  6.349207e-01 -6.261018e-02  2.650793e-01
     vertex  6.349207e-01 -6.666667e-01  2.650793e-01
   endloop
 endfacet
 facet normal  0.000000e+00 -0.000000e+00 -1.000000e+00
   outer loop
     vertex -1.587302e-02 -6.261018e-02  2.650793e-01
     vertex -1.587302e-02 -6.666667e-01  2.650793e-01
     vertex -2.839515e-02 -6.666667e-01  2.650793e-01
   endloop
 endfacet
 facet normal -0.000000e+00  0.000000e+00 -1.000000e+00
   outer loop
     vertex -1.587302e-02 -6.261018e-02  2.650793e-01
     vertex -2.839515e-02 -6.666667e-01  2.650793e-01
     vertex -2.839515e-02 -6.261018e-02  2.650793e-01
   endloop
 endfacet
 facet normal  0.000000e+00  0.000000e+00  1.000000e+00
   outer loop
     vertex -2.839515e-02 -1.587302e-02  7.550265e-01
     vertex  9.197530e-01 -1.587302e-02  7.550265e-01
     vertex  9.197530e-01  0.000000e+00  7.550265e-01
   endloop
 endfacet
 facet normal  0.000000e+00  0.000000e+00  1.000000e+00
   outer loop
     vertex -2.839515e-02 -1.587302e-02  7.550265e-01
     vertex  9.197530e-01  0.000000e+00  7.550265e-01
     vertex -2.839515e-02  0.000000e+00  7.550265e-01
   endloop
 endfacet
endsolid
