solid 
 facet normal  0.000000e+00 -1.000000e+00  0.000000e+00
   outer loop
     vertex  6.541446e-01 -7.109348e-01 -1.587302e-02
     vertex -8.019400e-01 -7.109348e-01  6.000000e-08
     vertex -8.019400e-01 -7.109348e-01 -1.587302e-02
   endloop
 endfacet
 facet normal  0.000000e+00 -1.000000e+00  0.000000e+00
   outer loop
     vertex  6.541446e-01 -7.109348e-01 -1.587302e-02
     vertex  6.541446e-01 -7.109348e-01  6.000000e-08
     vertex -8.019400e-01 -7.109348e-01  6.000000e-08
   endloop
 endfacet
 facet normal -1.000000e+00  0.000000e+00  0.000000e+00
   outer loop
     vertex -8.019400e-01 -7.109348e-01  6.000000e-08
     vertex -8.019400e-01 -6.031159e-02  6.000000e-08
     vertex -8.019400e-01 -6.359659e-02 -5.120647e-03
   endloop
 endfacet
 facet normal -1.000000e+00  0.000000e+00  0.000000e+00
   outer loop
     vertex -8.019400e-01 -7.109348e-01  6.000000e-08
     vertex -8.019400e-01 -6.359659e-02 -5.120647e-03
     vertex -8.019400e-01 -6.658979e-02 -1.041721e-02
   endloop
 endfacet
 facet normal -1.000000e+00  0.000000e+00  0.000000e+00
   outer loop
     vertex -8.019400e-01 -7.109348e-01  6.000000e-08
     vertex -8.019400e-01 -6.658979e-02 -1.041721e-02
     vertex -8.019400e-01 -6.928182e-02 -1.587302e-02
   endloop
 endfacet
 facet normal -1.000000e+00  0.000000e+00  0.000000e+00
   outer loop
     vertex -8.019400e-01 -7.109348e-01 -1.587302e-02
     vertex -8.019400e-01 -7.109348e-01  6.000000e-08
     vertex -8.019400e-01 -6.928182e-02 -1.587302e-02
   endloop
 endfacet
 facet normal  1.000000e+00  0.000000e+00  0.000000e+00
   outer loop
     vertex  6.541446e-01  5.631394e-01 -1.587302e-02
     vertex  6.541446e-01 -7.109348e-01  6.000000e-08
     vertex  6.541446e-01 -7.109348e-01 -1.587302e-02
   endloop
 endfacet
 facet normal  1.000000e+00  0.000000e+00 -0.000000e+00
   outer loop
     vertex  6.541446e-01  5.631394e-01 -1.587302e-02
     vertex  6.541446e-01  5.631394e-01  6.000000e-08
     vertex  6.541446e-01 -7.109348e-01  6.000000e-08
   endloop
 endfacet
 facet normal -0.000000e+00 -1.000000e+00  0.000000e+00
   outer loop
     vertex  6.541446e-01 -7.109348e-01 -1.587302e-02
     vertex -8.019400e-01 -7.109348e-01 -1.587302e-02
     vertex -8.019400e-01 -7.109348e-01 -6.349206e-02
   endloop
 endfacet
 facet normal  0.000000e+00 -1.000000e+00 -0.000000e+00
   outer loop
     vertex  6.541446e-01 -7.109348e-01 -1.587302e-02
     vertex -8.019400e-01 -7.109348e-01 -6.349206e-02
     vertex  6.541446e-01 -7.109348e-01 -6.349206e-02
   endloop
 endfacet
 facet normal  6.205607e-17  0.000000e+00  1.000000e+00
   outer loop
     vertex -7.460318e-01 -6.031159e-02  6.000000e-08
     vertex -8.019400e-01 -6.031159e-02  6.000000e-08
     vertex -8.019400e-01 -7.109348e-01  6.000000e-08
   endloop
 endfacet
 facet normal  0.000000e+00  5.332498e-18  1.000000e+00
   outer loop
     vertex -7.301587e-01 -6.031159e-02  6.000000e-08
     vertex -7.460318e-01 -6.031159e-02  6.000000e-08
     vertex -8.019400e-01 -7.109348e-01  6.000000e-08
   endloop
 endfacet
 facet normal  6.205607e-17  0.000000e+00  1.000000e+00
   outer loop
     vertex -8.019400e-01  5.631394e-01  6.000000e-08
     vertex -8.019400e-01  1.192180e-01  6.000000e-08
     vertex -7.460318e-01  1.192180e-01  6.000000e-08
   endloop
 endfacet
 facet normal  0.000000e+00 -7.815454e-18  1.000000e+00
   outer loop
     vertex -8.019400e-01  5.631394e-01  6.000000e-08
     vertex -7.460318e-01  1.192180e-01  6.000000e-08
     vertex -7.301587e-01  1.192180e-01  6.000000e-08
   endloop
 endfacet
 facet normal  0.000000e+00  5.332498e-18  1.000000e+00
   outer loop
     vertex  6.541446e-01 -7.109348e-01  6.000000e-08
     vertex -7.301587e-01 -6.031159e-02  6.000000e-08
     vertex -8.019400e-01 -7.109348e-01  6.000000e-08
   endloop
 endfacet
 facet normal -2.506276e-18  0.000000e+00  1.000000e+00
   outer loop
     vertex  6.541446e-01  5.631394e-01  6.000000e-08
     vertex -7.301587e-01  1.192180e-01  6.000000e-08
     vertex -7.301587e-01 -6.031159e-02  6.000000e-08
   endloop
 endfacet
 facet normal -2.506276e-18  0.000000e+00  1.000000e+00
   outer loop
     vertex  6.541446e-01  5.631394e-01  6.000000e-08
     vertex -7.301587e-01 -6.031159e-02  6.000000e-08
     vertex  6.541446e-01 -7.109348e-01  6.000000e-08
   endloop
 endfacet
 facet normal  0.000000e+00 -7.815454e-18  1.000000e+00
   outer loop
     vertex  6.541446e-01  5.631394e-01  6.000000e-08
     vertex -8.019400e-01  5.631394e-01  6.000000e-08
     vertex -7.301587e-01  1.192180e-01  6.000000e-08
   endloop
 endfacet
 facet normal -1.000000e+00  0.000000e+00  0.000000e+00
   outer loop
     vertex -8.019400e-01 -7.109348e-01 -6.349206e-02
     vertex -8.019400e-01 -7.918875e-02 -6.119926e-02
     vertex -8.019400e-01 -7.918606e-02 -6.196358e-02
   endloop
 endfacet
 facet normal -1.000000e+00  0.000000e+00  0.000000e+00
   outer loop
     vertex -8.019400e-01 -7.109348e-01 -6.349206e-02
     vertex -8.019400e-01 -7.918606e-02 -6.196358e-02
     vertex -8.019400e-01 -7.917799e-02 -6.272786e-02
   endloop
 endfacet
 facet normal -1.000000e+00  0.000000e+00  0.000000e+00
   outer loop
     vertex -8.019400e-01 -7.109348e-01 -6.349206e-02
     vertex -8.019400e-01 -7.917799e-02 -6.272786e-02
     vertex -8.019400e-01 -7.916455e-02 -6.349206e-02
   endloop
 endfacet
 facet normal -1.000000e+00  0.000000e+00  0.000000e+00
   outer loop
     vertex -8.019400e-01 -7.109348e-01 -1.587302e-02
     vertex -8.019400e-01 -6.928182e-02 -1.587302e-02
     vertex -8.019400e-01 -7.474767e-02 -3.045430e-02
   endloop
 endfacet
 facet normal -1.000000e+00  0.000000e+00  0.000000e+00
   outer loop
     vertex -8.019400e-01 -7.109348e-01 -1.587302e-02
     vertex -8.019400e-01 -7.474767e-02 -3.045430e-02
     vertex -8.019400e-01 -7.807274e-02 -4.566723e-02
   endloop
 endfacet
 facet normal -1.000000e+00  0.000000e+00  0.000000e+00
   outer loop
     vertex -8.019400e-01 -7.109348e-01 -1.587302e-02
     vertex -8.019400e-01 -7.807274e-02 -4.566723e-02
     vertex -8.019400e-01 -7.918875e-02 -6.119926e-02
   endloop
 endfacet
 facet normal -1.000000e+00  0.000000e+00  0.000000e+00
   outer loop
     vertex -8.019400e-01 -7.109348e-01 -1.587302e-02
     vertex -8.019400e-01 -7.918875e-02 -6.119926e-02
     vertex -8.019400e-01 -7.109348e-01 -6.349206e-02
   endloop
 endfacet
 facet normal  0.000000e+00 -9.974286e-01  7.166691e-02
   outer loop
     vertex -8.019400e-01 -7.807274e-02 -4.566723e-02
     vertex -9.841270e-01 -7.918875e-02 -6.119926e-02
     vertex -8.019400e-01 -7.918875e-02 -6.119926e-02
   endloop
 endfacet
 facet normal -2.005980e-03 -9.954699e-01  9.505585e-02
   outer loop
     vertex -8.019400e-01 -7.807274e-02 -4.566723e-02
     vertex -9.841270e-01 -7.722544e-02 -4.063863e-02
     vertex -9.841270e-01 -7.918875e-02 -6.119926e-02
   endloop
 endfacet
 facet normal -2.699664e-03 -9.594895e-01  2.817315e-01
   outer loop
     vertex -8.019400e-01 -7.474767e-02 -3.045430e-02
     vertex -9.841270e-01 -7.140650e-02 -2.082112e-02
     vertex -9.841270e-01 -7.722544e-02 -4.063863e-02
   endloop
 endfacet
 facet normal  1.350207e-03 -9.769360e-01  2.135282e-01
   outer loop
     vertex -8.019400e-01 -7.474767e-02 -3.045430e-02
     vertex -9.841270e-01 -7.722544e-02 -4.063863e-02
     vertex -8.019400e-01 -7.807274e-02 -4.566723e-02
   endloop
 endfacet
 facet normal  1.386995e-03 -9.363734e-01  3.510026e-01
   outer loop
     vertex -8.019400e-01 -6.928182e-02 -1.587302e-02
     vertex -9.841270e-01 -7.140650e-02 -2.082112e-02
     vertex -8.019400e-01 -7.474767e-02 -3.045430e-02
   endloop
 endfacet
 facet normal -2.668069e-03 -8.888323e-01  4.582249e-01
   outer loop
     vertex -8.019400e-01 -6.658979e-02 -1.041721e-02
     vertex -9.841270e-01 -6.194222e-02 -2.462973e-03
     vertex -9.841270e-01 -7.140650e-02 -2.082112e-02
   endloop
 endfacet
 facet normal -1.559571e-03 -8.967723e-01  4.424895e-01
   outer loop
     vertex -8.019400e-01 -6.658979e-02 -1.041721e-02
     vertex -9.841270e-01 -7.140650e-02 -2.082112e-02
     vertex -8.019400e-01 -6.928182e-02 -1.587302e-02
   endloop
 endfacet
 facet normal -7.285311e-04 -8.705979e-01  4.919947e-01
   outer loop
     vertex -8.019400e-01 -6.359659e-02 -5.120647e-03
     vertex -9.841270e-01 -6.194222e-02 -2.462973e-03
     vertex -8.019400e-01 -6.658979e-02 -1.041721e-02
   endloop
 endfacet
 facet normal  2.335965e-04 -8.416928e-01  5.399567e-01
   outer loop
     vertex -8.019400e-01 -6.031159e-02  6.000000e-08
     vertex -9.841270e-01 -6.194222e-02 -2.462973e-03
     vertex -8.019400e-01 -6.359659e-02 -5.120647e-03
   endloop
 endfacet
 facet normal -1.321631e-03 -7.860524e-01  6.181584e-01
   outer loop
     vertex -8.019400e-01 -6.031159e-02  6.000000e-08
     vertex -9.841270e-01 -4.917467e-02  1.377229e-02
     vertex -9.841270e-01 -6.194222e-02 -2.462973e-03
   endloop
 endfacet
 facet normal  5.148157e-04 -7.742361e-01  6.328967e-01
   outer loop
     vertex -7.460318e-01 -4.814843e-02  1.483403e-02
     vertex -9.841270e-01 -4.917467e-02  1.377229e-02
     vertex -8.019400e-01 -6.031159e-02  6.000000e-08
   endloop
 endfacet
 facet normal -5.475567e-04 -6.548606e-01  7.557495e-01
   outer loop
     vertex -7.460318e-01 -4.814843e-02  1.483403e-02
     vertex -9.841270e-01 -3.356530e-02  2.729788e-02
     vertex -9.841270e-01 -4.917467e-02  1.377229e-02
   endloop
 endfacet
 facet normal -6.116065e-15 -7.732857e-01  6.340578e-01
   outer loop
     vertex -7.460318e-01 -4.814843e-02  1.483403e-02
     vertex -8.019400e-01 -6.031159e-02  6.000000e-08
     vertex -7.460318e-01 -6.031159e-02  6.000000e-08
   endloop
 endfacet
 facet normal -2.525411e-07 -6.497120e-01  7.601805e-01
   outer loop
     vertex -7.460318e-01 -3.356585e-02  2.729749e-02
     vertex -9.841270e-01 -3.356530e-02  2.729788e-02
     vertex -7.460318e-01 -4.814843e-02  1.483403e-02
   endloop
 endfacet
 facet normal  2.525232e-07 -5.058820e-01  8.626027e-01
   outer loop
     vertex -7.460318e-01 -1.701851e-02  3.700184e-02
     vertex -9.841270e-01 -3.356530e-02  2.729788e-02
     vertex -7.460318e-01 -3.356585e-02  2.729749e-02
   endloop
 endfacet
 facet normal -5.480230e-04 -4.999999e-01  8.660253e-01
   outer loop
     vertex -7.460318e-01 -1.701851e-02  3.700184e-02
     vertex -9.841270e-01 -1.567828e-02  3.762496e-02
     vertex -9.841270e-01 -3.356530e-02  2.729788e-02
   endloop
 endfacet
 facet normal -1.011682e-03 -3.270678e-01  9.450003e-01
   outer loop
     vertex -7.460318e-01  9.777042e-04  4.364455e-02
     vertex -9.841270e-01  3.839914e-03  4.438027e-02
     vertex -9.841270e-01 -1.567828e-02  3.762496e-02
   endloop
 endfacet
 facet normal  5.059694e-04 -3.462799e-01  9.381311e-01
   outer loop
     vertex -7.460318e-01  9.777042e-04  4.364455e-02
     vertex -9.841270e-01 -1.567828e-02  3.762496e-02
     vertex -7.460318e-01 -1.701851e-02  3.700184e-02
   endloop
 endfacet
 facet normal -1.391163e-03 -1.423147e-01  9.898205e-01
   outer loop
     vertex -7.460318e-01  1.986171e-02  4.701849e-02
     vertex -9.841270e-01  2.428384e-02  4.731966e-02
     vertex -9.841270e-01  3.839914e-03  4.438027e-02
   endloop
 endfacet
 facet normal  9.275493e-04 -1.758816e-01  9.844109e-01
   outer loop
     vertex -7.460318e-01  1.986171e-02  4.701849e-02
     vertex -9.841270e-01  3.839914e-03  4.438027e-02
     vertex -7.460318e-01  9.777042e-04  4.364455e-02
   endloop
 endfacet
 facet normal -1.686396e-03  4.758185e-02  9.988659e-01
   outer loop
     vertex -7.460318e-01  3.904475e-02  4.701849e-02
     vertex -9.841270e-01  4.491460e-02  4.633690e-02
     vertex -9.841270e-01  2.428384e-02  4.731966e-02
   endloop
 endfacet
 facet normal  1.264914e-03  0.000000e+00  9.999992e-01
   outer loop
     vertex -7.460318e-01  3.904475e-02  4.701849e-02
     vertex -9.841270e-01  2.428384e-02  4.731966e-02
     vertex -7.460318e-01  1.986171e-02  4.701849e-02
   endloop
 endfacet
 facet normal -1.897326e-03  2.357585e-01  9.718098e-01
   outer loop
     vertex -7.460318e-01  5.792876e-02  4.364455e-02
     vertex -9.841270e-01  6.498654e-02  4.146750e-02
     vertex -9.841270e-01  4.491460e-02  4.633690e-02
   endloop
 endfacet
 facet normal  1.518002e-03  1.758815e-01  9.844102e-01
   outer loop
     vertex -7.460318e-01  5.792876e-02  4.364455e-02
     vertex -9.841270e-01  4.491460e-02  4.633690e-02
     vertex -7.460318e-01  3.904475e-02  4.701849e-02
   endloop
 endfacet
 facet normal -2.023915e-03  4.154142e-01  9.096301e-01
   outer loop
     vertex -7.460318e-01  7.592497e-02  3.700184e-02
     vertex -9.841270e-01  8.377422e-02  3.288745e-02
     vertex -9.841270e-01  6.498654e-02  4.146750e-02
   endloop
 endfacet
 facet normal  1.686766e-03  3.462794e-01  9.381299e-01
   outer loop
     vertex -7.460318e-01  7.592497e-02  3.700184e-02
     vertex -9.841270e-01  6.498654e-02  4.146750e-02
     vertex -7.460318e-01  5.792876e-02  4.364455e-02
   endloop
 endfacet
 facet normal -2.066140e-03  5.800557e-01  8.145742e-01
   outer loop
     vertex -7.460318e-01  9.247232e-02  2.729749e-02
     vertex -9.841270e-01  1.005986e-01  2.090687e-02
     vertex -9.841270e-01  8.377422e-02  3.288745e-02
   endloop
 endfacet
 facet normal  1.771175e-03  5.058812e-01  8.626013e-01
   outer loop
     vertex -7.460318e-01  9.247232e-02  2.729749e-02
     vertex -9.841270e-01  8.377422e-02  3.288745e-02
     vertex -7.460318e-01  7.592497e-02  3.700184e-02
   endloop
 endfacet
 facet normal -2.023993e-03  7.237326e-01  6.900776e-01
   outer loop
     vertex -7.460318e-01  1.070549e-01  1.483403e-02
     vertex -9.841270e-01  1.148516e-01  5.958754e-03
     vertex -9.841270e-01  1.005986e-01  2.090687e-02
   endloop
 endfacet
 facet normal  1.771214e-03  6.497110e-01  7.601793e-01
   outer loop
     vertex -7.460318e-01  1.070549e-01  1.483403e-02
     vertex -9.841270e-01  1.005986e-01  2.090687e-02
     vertex -7.460318e-01  9.247232e-02  2.729749e-02
   endloop
 endfacet
 facet normal -2.479764e-03  8.412509e-01  5.406392e-01
   outer loop
     vertex -8.019400e-01  1.192180e-01  6.000000e-08
     vertex -9.841270e-01  1.260181e-01 -1.141663e-02
     vertex -9.841270e-01  1.148516e-01  5.958754e-03
   endloop
 endfacet
 facet normal  1.971828e-03  7.769152e-01  6.296021e-01
   outer loop
     vertex -8.019400e-01  1.192180e-01  6.000000e-08
     vertex -9.841270e-01  1.148516e-01  5.958754e-03
     vertex -7.460318e-01  1.070549e-01  1.483403e-02
   endloop
 endfacet
 facet normal -2.420502e-03  8.416903e-01  5.399551e-01
   outer loop
     vertex -8.019400e-01  1.225030e-01 -5.120647e-03
     vertex -9.841270e-01  1.260181e-01 -1.141663e-02
     vertex -8.019400e-01  1.192180e-01  6.000000e-08
   endloop
 endfacet
 facet normal -4.567411e-15  7.732857e-01  6.340578e-01
   outer loop
     vertex -7.460318e-01  1.192180e-01  6.000000e-08
     vertex -8.019400e-01  1.192180e-01  6.000000e-08
     vertex -7.460318e-01  1.070549e-01  1.483403e-02
   endloop
 endfacet
 facet normal -2.053664e-04  8.705981e-01  4.919948e-01
   outer loop
     vertex -8.019400e-01  1.254963e-01 -1.041721e-02
     vertex -9.841270e-01  1.260181e-01 -1.141663e-02
     vertex -8.019400e-01  1.225030e-01 -5.120647e-03
   endloop
 endfacet
 facet normal -1.967660e-03  9.283661e-01  3.716617e-01
   outer loop
     vertex -8.019400e-01  1.281883e-01 -1.587302e-02
     vertex -9.841270e-01  1.336944e-01 -3.059128e-02
     vertex -9.841270e-01  1.260181e-01 -1.141663e-02
   endloop
 endfacet
 facet normal  1.411710e-04  8.967734e-01  4.424901e-01
   outer loop
     vertex -8.019400e-01  1.281883e-01 -1.587302e-02
     vertex -9.841270e-01  1.260181e-01 -1.141663e-02
     vertex -8.019400e-01  1.254963e-01 -1.041721e-02
   endloop
 endfacet
 facet normal  2.467294e-04  9.376032e-01  3.477070e-01
   outer loop
     vertex -8.019400e-01  1.338678e-01 -3.118814e-02
     vertex -9.841270e-01  1.336944e-01 -3.059128e-02
     vertex -8.019400e-01  1.281883e-01 -1.587302e-02
   endloop
 endfacet
 facet normal -1.590594e-03  9.819275e-01  1.892510e-01
   outer loop
     vertex -8.019400e-01  1.371871e-01 -4.718166e-02
     vertex -9.841270e-01  1.376033e-01 -5.087218e-02
     vertex -9.841270e-01  1.336944e-01 -3.059128e-02
   endloop
 endfacet
 facet normal -2.661913e-04  9.791357e-01  2.032072e-01
   outer loop
     vertex -8.019400e-01  1.371871e-01 -4.718166e-02
     vertex -9.841270e-01  1.336944e-01 -3.059128e-02
     vertex -8.019400e-01  1.338678e-01 -3.118814e-02
   endloop
 endfacet
 facet normal -2.567369e-03  9.999967e-01 -1.343392e-15
   outer loop
     vertex -8.019400e-01  1.380710e-01 -6.349206e-02
     vertex -9.841270e-01  1.376033e-01 -7.152634e-02
     vertex -9.841270e-01  1.376033e-01 -5.087218e-02
   endloop
 endfacet
 facet normal  1.184785e-03  9.985341e-01  5.411381e-02
   outer loop
     vertex -8.019400e-01  1.380710e-01 -6.349206e-02
     vertex -9.841270e-01  1.376033e-01 -5.087218e-02
     vertex -8.019400e-01  1.371871e-01 -4.718166e-02
   endloop
 endfacet
 facet normal -2.027449e-03  9.819267e-01 -1.892509e-01
   outer loop
     vertex -7.460318e-01  1.358551e-01 -8.314735e-02
     vertex -9.841270e-01  1.336944e-01 -9.180724e-02
     vertex -9.841270e-01  1.376033e-01 -7.152634e-02
   endloop
 endfacet
 facet normal -4.957249e-15  9.937050e-01 -1.120283e-01
   outer loop
     vertex -7.460318e-01  1.358551e-01 -8.314735e-02
     vertex -8.019400e-01  1.380710e-01 -6.349206e-02
     vertex -7.460318e-01  1.380710e-01 -6.349206e-02
   endloop
 endfacet
 facet normal  2.124240e-03  9.943575e-01 -1.060596e-01
   outer loop
     vertex -7.460318e-01  1.358551e-01 -8.314735e-02
     vertex -9.841270e-01  1.376033e-01 -7.152634e-02
     vertex -8.019400e-01  1.380710e-01 -6.349206e-02
   endloop
 endfacet
 facet normal -2.060573e-03  9.283660e-01 -3.716617e-01
   outer loop
     vertex -7.460318e-01  1.301123e-01 -1.020751e-01
     vertex -9.841270e-01  1.260181e-01 -1.109819e-01
     vertex -9.841270e-01  1.336944e-01 -9.180724e-02
   endloop
 endfacet
 facet normal  1.876153e-03  9.569223e-01 -2.903380e-01
   outer loop
     vertex -7.460318e-01  1.301123e-01 -1.020751e-01
     vertex -9.841270e-01  1.336944e-01 -9.180724e-02
     vertex -7.460318e-01  1.358551e-01 -8.314735e-02
   endloop
 endfacet
 facet normal -2.063886e-03  8.412517e-01 -5.406397e-01
   outer loop
     vertex -7.460318e-01  1.210329e-01 -1.196480e-01
     vertex -9.841270e-01  1.148516e-01 -1.283573e-01
     vertex -9.841270e-01  1.260181e-01 -1.109819e-01
   endloop
 endfacet
 facet normal  1.894372e-03  8.884219e-01 -4.590239e-01
   outer loop
     vertex -7.460318e-01  1.210329e-01 -1.196480e-01
     vertex -9.841270e-01  1.260181e-01 -1.109819e-01
     vertex -7.460318e-01  1.301123e-01 -1.020751e-01
   endloop
 endfacet
 facet normal -2.037387e-03  7.237325e-01 -6.900776e-01
   outer loop
     vertex -7.460318e-01  1.089178e-01 -1.352834e-01
     vertex -9.841270e-01  1.005986e-01 -1.433054e-01
     vertex -9.841270e-01  1.148516e-01 -1.283573e-01
   endloop
 endfacet
 facet normal  1.882779e-03  7.904727e-01 -6.124943e-01
   outer loop
     vertex -7.460318e-01  1.089178e-01 -1.352834e-01
     vertex -9.841270e-01  1.148516e-01 -1.283573e-01
     vertex -7.460318e-01  1.210329e-01 -1.196480e-01
   endloop
 endfacet
 facet normal -1.981078e-03  5.800558e-01 -8.145744e-01
   outer loop
     vertex -7.460318e-01  9.416873e-02 -1.484631e-01
     vertex -9.841270e-01  8.377422e-02 -1.552860e-01
     vertex -9.841270e-01  1.005986e-01 -1.433054e-01
   endloop
 endfacet
 facet normal  1.841375e-03  6.663215e-01 -7.456623e-01
   outer loop
     vertex -7.460318e-01  9.416873e-02 -1.484631e-01
     vertex -9.841270e-01  1.005986e-01 -1.433054e-01
     vertex -7.460318e-01  1.089178e-01 -1.352834e-01
   endloop
 endfacet
 facet normal -1.894963e-03  4.154143e-01 -9.096304e-01
   outer loop
     vertex -7.460318e-01  7.727450e-02 -1.587503e-01
     vertex -9.841270e-01  6.498654e-02 -1.638660e-01
     vertex -9.841270e-01  8.377422e-02 -1.552860e-01
   endloop
 endfacet
 facet normal  1.770162e-03  5.200835e-01 -8.541136e-01
   outer loop
     vertex -7.460318e-01  7.727450e-02 -1.587503e-01
     vertex -9.841270e-01  8.377422e-02 -1.552860e-01
     vertex -7.460318e-01  9.416873e-02 -1.484631e-01
   endloop
 endfacet
 facet normal -1.779047e-03  2.357586e-01 -9.718100e-01
   outer loop
     vertex -7.460318e-01  5.879512e-02 -1.658039e-01
     vertex -9.841270e-01  4.491460e-02 -1.687354e-01
     vertex -9.841270e-01  6.498654e-02 -1.638660e-01
   endloop
 endfacet
 facet normal  1.669146e-03  3.566060e-01 -9.342534e-01
   outer loop
     vertex -7.460318e-01  5.879512e-02 -1.658039e-01
     vertex -9.841270e-01  6.498654e-02 -1.638660e-01
     vertex -7.460318e-01  7.727450e-02 -1.587503e-01
   endloop
 endfacet
 facet normal -1.633338e-03  4.758185e-02 -9.988660e-01
   outer loop
     vertex -7.460318e-01  3.934314e-02 -1.693902e-01
     vertex -9.841270e-01  2.428384e-02 -1.697182e-01
     vertex -9.841270e-01  4.491460e-02 -1.687354e-01
   endloop
 endfacet
 facet normal  1.538332e-03  1.813080e-01 -9.834252e-01
   outer loop
     vertex -7.460318e-01  3.934314e-02 -1.693902e-01
     vertex -9.841270e-01  4.491460e-02 -1.687354e-01
     vertex -7.460318e-01  5.879512e-02 -1.658039e-01
   endloop
 endfacet
 facet normal  1.377729e-03  2.806453e-15 -9.999991e-01
   outer loop
     vertex -7.460318e-01  1.956333e-02 -1.693902e-01
     vertex -9.841270e-01  2.428384e-02 -1.697182e-01
     vertex -7.460318e-01  3.934314e-02 -1.693902e-01
   endloop
 endfacet
 facet normal -1.457845e-03 -1.423147e-01 -9.898204e-01
   outer loop
     vertex -7.460318e-01  1.956333e-02 -1.693902e-01
     vertex -9.841270e-01  3.839914e-03 -1.667788e-01
     vertex -9.841270e-01  2.428384e-02 -1.697182e-01
   endloop
 endfacet
 facet normal  1.187349e-03 -1.813081e-01 -9.834256e-01
   outer loop
     vertex -7.460318e-01  1.113426e-04 -1.658039e-01
     vertex -9.841270e-01  3.839914e-03 -1.667788e-01
     vertex -7.460318e-01  1.956333e-02 -1.693902e-01
   endloop
 endfacet
 facet normal -1.252580e-03 -3.270677e-01 -9.450001e-01
   outer loop
     vertex -7.460318e-01  1.113426e-04 -1.658039e-01
     vertex -9.841270e-01 -1.567828e-02 -1.600235e-01
     vertex -9.841270e-01  3.839914e-03 -1.667788e-01
   endloop
 endfacet
 facet normal  9.672021e-04 -3.566064e-01 -9.342542e-01
   outer loop
     vertex -7.460318e-01 -1.836804e-02 -1.587503e-01
     vertex -9.841270e-01 -1.567828e-02 -1.600235e-01
     vertex -7.460318e-01  1.113426e-04 -1.658039e-01
   endloop
 endfacet
 facet normal -1.017556e-03 -4.999997e-01 -8.660250e-01
   outer loop
     vertex -7.460318e-01 -1.836804e-02 -1.587503e-01
     vertex -9.841270e-01 -3.356530e-02 -1.496964e-01
     vertex -9.841270e-01 -1.567828e-02 -1.600235e-01
   endloop
 endfacet
 facet normal  7.173040e-04 -5.200841e-01 -8.541147e-01
   outer loop
     vertex -7.460318e-01 -3.526227e-02 -1.484631e-01
     vertex -9.841270e-01 -3.356530e-02 -1.496964e-01
     vertex -7.460318e-01 -1.836804e-02 -1.587503e-01
   endloop
 endfacet
 facet normal -7.527881e-04 -6.548605e-01 -7.557494e-01
   outer loop
     vertex -7.460318e-01 -3.526227e-02 -1.484631e-01
     vertex -9.841270e-01 -4.917467e-02 -1.361708e-01
     vertex -9.841270e-01 -3.356530e-02 -1.496964e-01
   endloop
 endfacet
 facet normal  4.376706e-04 -6.663226e-01 -7.456635e-01
   outer loop
     vertex -7.460318e-01 -5.001135e-02 -1.352834e-01
     vertex -9.841270e-01 -4.917467e-02 -1.361708e-01
     vertex -7.460318e-01 -3.526227e-02 -1.484631e-01
   endloop
 endfacet
 facet normal -4.582939e-04 -7.860530e-01 -6.181589e-01
   outer loop
     vertex -7.460318e-01 -5.001135e-02 -1.352834e-01
     vertex -9.841270e-01 -6.194222e-02 -1.199355e-01
     vertex -9.841270e-01 -4.917467e-02 -1.361708e-01
   endloop
 endfacet
 facet normal  1.283204e-04 -7.904741e-01 -6.124954e-01
   outer loop
     vertex -7.460318e-01 -6.212639e-02 -1.196480e-01
     vertex -9.841270e-01 -6.194222e-02 -1.199355e-01
     vertex -7.460318e-01 -5.001135e-02 -1.352834e-01
   endloop
 endfacet
 facet normal -1.328100e-04 -8.884235e-01 -4.590247e-01
   outer loop
     vertex -7.460318e-01 -7.120581e-02 -1.020751e-01
     vertex -9.841270e-01 -6.194222e-02 -1.199355e-01
     vertex -7.460318e-01 -6.212639e-02 -1.196480e-01
   endloop
 endfacet
 facet normal -2.087108e-04 -8.888354e-01 -4.582265e-01
   outer loop
     vertex -7.460318e-01 -7.120581e-02 -1.020751e-01
     vertex -9.841270e-01 -7.140650e-02 -1.015774e-01
     vertex -9.841270e-01 -6.194222e-02 -1.199355e-01
   endloop
 endfacet
 facet normal  1.996389e-04 -9.569240e-01 -2.903385e-01
   outer loop
     vertex -7.460318e-01 -7.694865e-02 -8.314735e-02
     vertex -9.841270e-01 -7.140650e-02 -1.015774e-01
     vertex -7.460318e-01 -7.120581e-02 -1.020751e-01
   endloop
 endfacet
 facet normal -5.263116e-04 -9.594928e-01 -2.817325e-01
   outer loop
     vertex -7.460318e-01 -7.694865e-02 -8.314735e-02
     vertex -9.841270e-01 -7.722544e-02 -8.175989e-02
     vertex -9.841270e-01 -7.140650e-02 -1.015774e-01
   endloop
 endfacet
 facet normal  5.109367e-04 -9.938656e-01 -1.105931e-01
   outer loop
     vertex -8.019400e-01 -7.916455e-02 -6.349206e-02
     vertex -9.841270e-01 -7.722544e-02 -8.175989e-02
     vertex -7.460318e-01 -7.694865e-02 -8.314735e-02
   endloop
 endfacet
 facet normal -1.064057e-03 -9.954714e-01 -9.505599e-02
   outer loop
     vertex -8.019400e-01 -7.916455e-02 -6.349206e-02
     vertex -9.841270e-01 -7.918875e-02 -6.119926e-02
     vertex -9.841270e-01 -7.722544e-02 -8.175989e-02
   endloop
 endfacet
 facet normal -8.854181e-05 -9.998453e-01 -1.758721e-02
   outer loop
     vertex -8.019400e-01 -7.917799e-02 -6.272786e-02
     vertex -9.841270e-01 -7.918875e-02 -6.119926e-02
     vertex -8.019400e-01 -7.916455e-02 -6.349206e-02
   endloop
 endfacet
 facet normal -2.951442e-05 -9.999443e-01 -1.055267e-02
   outer loop
     vertex -8.019400e-01 -7.918606e-02 -6.196358e-02
     vertex -9.841270e-01 -7.918875e-02 -6.119926e-02
     vertex -8.019400e-01 -7.917799e-02 -6.272786e-02
   endloop
 endfacet
 facet normal -0.000000e+00 -9.999938e-01 -3.517616e-03
   outer loop
     vertex -8.019400e-01 -7.918875e-02 -6.119926e-02
     vertex -9.841270e-01 -7.918875e-02 -6.119926e-02
     vertex -8.019400e-01 -7.918606e-02 -6.196358e-02
   endloop
 endfacet
 facet normal -6.743290e-15 -9.937050e-01 -1.120283e-01
   outer loop
     vertex -7.460318e-01 -7.916455e-02 -6.349206e-02
     vertex -8.019400e-01 -7.916455e-02 -6.349206e-02
     vertex -7.460318e-01 -7.694865e-02 -8.314735e-02
   endloop
 endfacet
 facet normal  0.000000e+00  1.000000e+00  0.000000e+00
   outer loop
     vertex -8.019400e-01  5.631394e-01 -1.587302e-02
     vertex  6.541446e-01  5.631394e-01  6.000000e-08
     vertex  6.541446e-01  5.631394e-01 -1.587302e-02
   endloop
 endfacet
 facet normal  0.000000e+00  1.000000e+00  0.000000e+00
   outer loop
     vertex -8.019400e-01  5.631394e-01 -1.587302e-02
     vertex -8.019400e-01  5.631394e-01  6.000000e-08
     vertex  6.541446e-01  5.631394e-01  6.000000e-08
   endloop
 endfacet
 facet normal  1.000000e+00  0.000000e+00  0.000000e+00
   outer loop
     vertex  6.541446e-01  5.631394e-01 -1.587302e-02
     vertex  6.541446e-01 -7.109348e-01 -1.587302e-02
     vertex  6.541446e-01 -7.109348e-01 -6.349206e-02
   endloop
 endfacet
 facet normal  1.000000e+00  0.000000e+00  0.000000e+00
   outer loop
     vertex  6.541446e-01  5.631394e-01 -1.587302e-02
     vertex  6.541446e-01 -7.109348e-01 -6.349206e-02
     vertex  6.541446e-01  5.631394e-01 -6.349206e-02
   endloop
 endfacet
 facet normal -7.446728e-16  0.000000e+00 -1.000000e+00
   outer loop
     vertex -7.460318e-01 -7.916455e-02 -6.349206e-02
     vertex -8.019400e-01 -7.109348e-01 -6.349206e-02
     vertex -8.019400e-01 -7.916455e-02 -6.349206e-02
   endloop
 endfacet
 facet normal -0.000000e+00 -6.589954e-17 -1.000000e+00
   outer loop
     vertex -7.301587e-01 -7.916455e-02 -6.349206e-02
     vertex -8.019400e-01 -7.109348e-01 -6.349206e-02
     vertex -7.460318e-01 -7.916455e-02 -6.349206e-02
   endloop
 endfacet
 facet normal -2.482243e-16 -0.000000e+00 -1.000000e+00
   outer loop
     vertex -8.019400e-01  5.631394e-01 -6.349206e-02
     vertex -7.460318e-01  1.380710e-01 -6.349206e-02
     vertex -8.019400e-01  1.380710e-01 -6.349206e-02
   endloop
 endfacet
 facet normal  0.000000e+00  3.264837e-17 -1.000000e+00
   outer loop
     vertex -8.019400e-01  5.631394e-01 -6.349206e-02
     vertex -7.301587e-01  1.380710e-01 -6.349206e-02
     vertex -7.460318e-01  1.380710e-01 -6.349206e-02
   endloop
 endfacet
 facet normal -0.000000e+00 -6.589954e-17 -1.000000e+00
   outer loop
     vertex  6.541446e-01 -7.109348e-01 -6.349206e-02
     vertex -8.019400e-01 -7.109348e-01 -6.349206e-02
     vertex -7.301587e-01 -7.916455e-02 -6.349206e-02
   endloop
 endfacet
 facet normal -2.920747e-17  1.277672e-16 -1.000000e+00
   outer loop
     vertex  6.541446e-01  5.631394e-01 -6.349206e-02
     vertex -7.301587e-01 -7.916455e-02 -6.349206e-02
     vertex -7.301587e-01  1.380710e-01 -6.349206e-02
   endloop
 endfacet
 facet normal  0.000000e+00  3.264837e-17 -1.000000e+00
   outer loop
     vertex  6.541446e-01  5.631394e-01 -6.349206e-02
     vertex -7.301587e-01  1.380710e-01 -6.349206e-02
     vertex -8.019400e-01  5.631394e-01 -6.349206e-02
   endloop
 endfacet
 facet normal  3.007532e-17  0.000000e+00 -1.000000e+00
   outer loop
     vertex  6.541446e-01  5.631394e-01 -6.349206e-02
     vertex  6.541446e-01 -7.109348e-01 -6.349206e-02
     vertex -7.301587e-01 -7.916455e-02 -6.349206e-02
   endloop
 endfacet
 facet normal  0.000000e+00 -7.732857e-01  6.340578e-01
   outer loop
     vertex -7.460318e-01 -4.814843e-02  1.483403e-02
     vertex -7.460318e-01 -6.031159e-02  6.000000e-08
     vertex -7.301587e-01 -6.031159e-02  6.000000e-08
   endloop
 endfacet
 facet normal  0.000000e+00 -7.732857e-01  6.340578e-01
   outer loop
     vertex -7.460318e-01 -4.814843e-02  1.483403e-02
     vertex -7.301587e-01 -6.031159e-02  6.000000e-08
     vertex -7.301587e-01 -4.814843e-02  1.483403e-02
   endloop
 endfacet
 facet normal  0.000000e+00 -6.497120e-01  7.601805e-01
   outer loop
     vertex -7.460318e-01 -3.356585e-02  2.729749e-02
     vertex -7.301587e-01 -4.814843e-02  1.483403e-02
     vertex -7.301587e-01 -3.356585e-02  2.729749e-02
   endloop
 endfacet
 facet normal  0.000000e+00 -6.497120e-01  7.601805e-01
   outer loop
     vertex -7.460318e-01 -3.356585e-02  2.729749e-02
     vertex -7.460318e-01 -4.814843e-02  1.483403e-02
     vertex -7.301587e-01 -4.814843e-02  1.483403e-02
   endloop
 endfacet
 facet normal  0.000000e+00 -5.058820e-01  8.626027e-01
   outer loop
     vertex -7.460318e-01 -1.701851e-02  3.700184e-02
     vertex -7.301587e-01 -3.356585e-02  2.729749e-02
     vertex -7.301587e-01 -1.701851e-02  3.700184e-02
   endloop
 endfacet
 facet normal  0.000000e+00 -5.058820e-01  8.626027e-01
   outer loop
     vertex -7.460318e-01 -1.701851e-02  3.700184e-02
     vertex -7.460318e-01 -3.356585e-02  2.729749e-02
     vertex -7.301587e-01 -3.356585e-02  2.729749e-02
   endloop
 endfacet
 facet normal  0.000000e+00 -3.462799e-01  9.381312e-01
   outer loop
     vertex -7.460318e-01  9.777042e-04  4.364455e-02
     vertex -7.301587e-01 -1.701851e-02  3.700184e-02
     vertex -7.301587e-01  9.777042e-04  4.364455e-02
   endloop
 endfacet
 facet normal  0.000000e+00 -3.462799e-01  9.381312e-01
   outer loop
     vertex -7.460318e-01  9.777042e-04  4.364455e-02
     vertex -7.460318e-01 -1.701851e-02  3.700184e-02
     vertex -7.301587e-01 -1.701851e-02  3.700184e-02
   endloop
 endfacet
 facet normal  0.000000e+00 -1.758817e-01  9.844113e-01
   outer loop
     vertex -7.460318e-01  1.986171e-02  4.701849e-02
     vertex -7.301587e-01  9.777042e-04  4.364455e-02
     vertex -7.301587e-01  1.986171e-02  4.701849e-02
   endloop
 endfacet
 facet normal  0.000000e+00 -1.758817e-01  9.844113e-01
   outer loop
     vertex -7.460318e-01  1.986171e-02  4.701849e-02
     vertex -7.460318e-01  9.777042e-04  4.364455e-02
     vertex -7.301587e-01  9.777042e-04  4.364455e-02
   endloop
 endfacet
 facet normal -0.000000e+00  0.000000e+00  1.000000e+00
   outer loop
     vertex -7.460318e-01  3.904475e-02  4.701849e-02
     vertex -7.301587e-01  1.986171e-02  4.701849e-02
     vertex -7.301587e-01  3.904475e-02  4.701849e-02
   endloop
 endfacet
 facet normal  0.000000e+00  0.000000e+00  1.000000e+00
   outer loop
     vertex -7.460318e-01  3.904475e-02  4.701849e-02
     vertex -7.460318e-01  1.986171e-02  4.701849e-02
     vertex -7.301587e-01  1.986171e-02  4.701849e-02
   endloop
 endfacet
 facet normal -0.000000e+00  1.758817e-01  9.844113e-01
   outer loop
     vertex -7.460318e-01  5.792876e-02  4.364455e-02
     vertex -7.301587e-01  3.904475e-02  4.701849e-02
     vertex -7.301587e-01  5.792876e-02  4.364455e-02
   endloop
 endfacet
 facet normal  0.000000e+00  1.758817e-01  9.844113e-01
   outer loop
     vertex -7.460318e-01  5.792876e-02  4.364455e-02
     vertex -7.460318e-01  3.904475e-02  4.701849e-02
     vertex -7.301587e-01  3.904475e-02  4.701849e-02
   endloop
 endfacet
 facet normal -0.000000e+00  3.462799e-01  9.381312e-01
   outer loop
     vertex -7.460318e-01  7.592497e-02  3.700184e-02
     vertex -7.301587e-01  5.792876e-02  4.364455e-02
     vertex -7.301587e-01  7.592497e-02  3.700184e-02
   endloop
 endfacet
 facet normal  0.000000e+00  3.462799e-01  9.381312e-01
   outer loop
     vertex -7.460318e-01  7.592497e-02  3.700184e-02
     vertex -7.460318e-01  5.792876e-02  4.364455e-02
     vertex -7.301587e-01  5.792876e-02  4.364455e-02
   endloop
 endfacet
 facet normal -0.000000e+00  5.058820e-01  8.626027e-01
   outer loop
     vertex -7.460318e-01  9.247232e-02  2.729749e-02
     vertex -7.301587e-01  7.592497e-02  3.700184e-02
     vertex -7.301587e-01  9.247232e-02  2.729749e-02
   endloop
 endfacet
 facet normal  0.000000e+00  5.058820e-01  8.626027e-01
   outer loop
     vertex -7.460318e-01  9.247232e-02  2.729749e-02
     vertex -7.460318e-01  7.592497e-02  3.700184e-02
     vertex -7.301587e-01  7.592497e-02  3.700184e-02
   endloop
 endfacet
 facet normal -0.000000e+00  6.497120e-01  7.601805e-01
   outer loop
     vertex -7.460318e-01  1.070549e-01  1.483403e-02
     vertex -7.301587e-01  9.247232e-02  2.729749e-02
     vertex -7.301587e-01  1.070549e-01  1.483403e-02
   endloop
 endfacet
 facet normal  0.000000e+00  6.497120e-01  7.601805e-01
   outer loop
     vertex -7.460318e-01  1.070549e-01  1.483403e-02
     vertex -7.460318e-01  9.247232e-02  2.729749e-02
     vertex -7.301587e-01  9.247232e-02  2.729749e-02
   endloop
 endfacet
 facet normal -0.000000e+00  7.732857e-01  6.340578e-01
   outer loop
     vertex -7.460318e-01  1.192180e-01  6.000000e-08
     vertex -7.301587e-01  1.070549e-01  1.483403e-02
     vertex -7.301587e-01  1.192180e-01  6.000000e-08
   endloop
 endfacet
 facet normal  0.000000e+00  7.732857e-01  6.340578e-01
   outer loop
     vertex -7.460318e-01  1.192180e-01  6.000000e-08
     vertex -7.460318e-01  1.070549e-01  1.483403e-02
     vertex -7.301587e-01  1.070549e-01  1.483403e-02
   endloop
 endfacet
 facet normal  1.000000e+00  0.000000e+00  0.000000e+00
   outer loop
     vertex -7.301587e-01 -4.814843e-02  1.483403e-02
     vertex -7.301587e-01 -6.031159e-02  6.000000e-08
     vertex -7.301587e-01  1.192180e-01  6.000000e-08
   endloop
 endfacet
 facet normal  1.000000e+00  0.000000e+00  0.000000e+00
   outer loop
     vertex -7.301587e-01 -4.814843e-02  1.483403e-02
     vertex -7.301587e-01 -1.701851e-02  3.700184e-02
     vertex -7.301587e-01 -3.356585e-02  2.729749e-02
   endloop
 endfacet
 facet normal  1.000000e+00  0.000000e+00  0.000000e+00
   outer loop
     vertex -7.301587e-01 -4.814843e-02  1.483403e-02
     vertex -7.301587e-01  9.777042e-04  4.364455e-02
     vertex -7.301587e-01 -1.701851e-02  3.700184e-02
   endloop
 endfacet
 facet normal  1.000000e+00  0.000000e+00  0.000000e+00
   outer loop
     vertex -7.301587e-01 -4.814843e-02  1.483403e-02
     vertex -7.301587e-01  1.986171e-02  4.701849e-02
     vertex -7.301587e-01  9.777042e-04  4.364455e-02
   endloop
 endfacet
 facet normal  1.000000e+00  0.000000e+00  0.000000e+00
   outer loop
     vertex -7.301587e-01 -4.814843e-02  1.483403e-02
     vertex -7.301587e-01  3.904475e-02  4.701849e-02
     vertex -7.301587e-01  1.986171e-02  4.701849e-02
   endloop
 endfacet
 facet normal  1.000000e+00  0.000000e+00  0.000000e+00
   outer loop
     vertex -7.301587e-01 -4.814843e-02  1.483403e-02
     vertex -7.301587e-01  5.792876e-02  4.364455e-02
     vertex -7.301587e-01  3.904475e-02  4.701849e-02
   endloop
 endfacet
 facet normal  1.000000e+00  0.000000e+00  0.000000e+00
   outer loop
     vertex -7.301587e-01 -4.814843e-02  1.483403e-02
     vertex -7.301587e-01  7.592497e-02  3.700184e-02
     vertex -7.301587e-01  5.792876e-02  4.364455e-02
   endloop
 endfacet
 facet normal  1.000000e+00  0.000000e+00  0.000000e+00
   outer loop
     vertex -7.301587e-01 -4.814843e-02  1.483403e-02
     vertex -7.301587e-01  9.247232e-02  2.729749e-02
     vertex -7.301587e-01  7.592497e-02  3.700184e-02
   endloop
 endfacet
 facet normal  1.000000e+00 -0.000000e+00  0.000000e+00
   outer loop
     vertex -7.301587e-01 -4.814843e-02  1.483403e-02
     vertex -7.301587e-01  1.070549e-01  1.483403e-02
     vertex -7.301587e-01  9.247232e-02  2.729749e-02
   endloop
 endfacet
 facet normal  1.000000e+00  0.000000e+00  0.000000e+00
   outer loop
     vertex -7.301587e-01 -4.814843e-02  1.483403e-02
     vertex -7.301587e-01  1.192180e-01  6.000000e-08
     vertex -7.301587e-01  1.070549e-01  1.483403e-02
   endloop
 endfacet
 facet normal -1.000000e+00  0.000000e+00  0.000000e+00
   outer loop
     vertex -8.019400e-01  1.225030e-01 -5.120647e-03
     vertex -8.019400e-01  1.192180e-01  6.000000e-08
     vertex -8.019400e-01  5.631394e-01  6.000000e-08
   endloop
 endfacet
 facet normal -1.000000e+00  0.000000e+00  0.000000e+00
   outer loop
     vertex -8.019400e-01  1.254963e-01 -1.041721e-02
     vertex -8.019400e-01  1.225030e-01 -5.120647e-03
     vertex -8.019400e-01  5.631394e-01  6.000000e-08
   endloop
 endfacet
 facet normal -1.000000e+00  0.000000e+00  0.000000e+00
   outer loop
     vertex -8.019400e-01  1.281883e-01 -1.587302e-02
     vertex -8.019400e-01  5.631394e-01  6.000000e-08
     vertex -8.019400e-01  5.631394e-01 -1.587302e-02
   endloop
 endfacet
 facet normal -1.000000e+00  0.000000e+00  0.000000e+00
   outer loop
     vertex -8.019400e-01  1.281883e-01 -1.587302e-02
     vertex -8.019400e-01  1.254963e-01 -1.041721e-02
     vertex -8.019400e-01  5.631394e-01  6.000000e-08
   endloop
 endfacet
 facet normal -1.000000e+00  0.000000e+00  0.000000e+00
   outer loop
     vertex -8.019400e-01  1.371871e-01 -4.718166e-02
     vertex -8.019400e-01  5.631394e-01 -1.587302e-02
     vertex -8.019400e-01  5.631394e-01 -6.349206e-02
   endloop
 endfacet
 facet normal -1.000000e+00  0.000000e+00  0.000000e+00
   outer loop
     vertex -8.019400e-01  1.371871e-01 -4.718166e-02
     vertex -8.019400e-01  5.631394e-01 -6.349206e-02
     vertex -8.019400e-01  1.380710e-01 -6.349206e-02
   endloop
 endfacet
 facet normal -1.000000e+00  0.000000e+00  0.000000e+00
   outer loop
     vertex -8.019400e-01  1.338678e-01 -3.118814e-02
     vertex -8.019400e-01  5.631394e-01 -1.587302e-02
     vertex -8.019400e-01  1.371871e-01 -4.718166e-02
   endloop
 endfacet
 facet normal -1.000000e+00  0.000000e+00  0.000000e+00
   outer loop
     vertex -8.019400e-01  1.281883e-01 -1.587302e-02
     vertex -8.019400e-01  5.631394e-01 -1.587302e-02
     vertex -8.019400e-01  1.338678e-01 -3.118814e-02
   endloop
 endfacet
 facet normal  0.000000e+00  9.937050e-01 -1.120283e-01
   outer loop
     vertex -7.460318e-01  1.358551e-01 -8.314735e-02
     vertex -7.460318e-01  1.380710e-01 -6.349206e-02
     vertex -7.301587e-01  1.380710e-01 -6.349206e-02
   endloop
 endfacet
 facet normal  0.000000e+00  9.937050e-01 -1.120283e-01
   outer loop
     vertex -7.460318e-01  1.358551e-01 -8.314735e-02
     vertex -7.301587e-01  1.380710e-01 -6.349206e-02
     vertex -7.301587e-01  1.358551e-01 -8.314735e-02
   endloop
 endfacet
 facet normal  0.000000e+00  9.569240e-01 -2.903385e-01
   outer loop
     vertex -7.460318e-01  1.301123e-01 -1.020751e-01
     vertex -7.301587e-01  1.358551e-01 -8.314735e-02
     vertex -7.301587e-01  1.301123e-01 -1.020751e-01
   endloop
 endfacet
 facet normal  0.000000e+00  9.569240e-01 -2.903385e-01
   outer loop
     vertex -7.460318e-01  1.301123e-01 -1.020751e-01
     vertex -7.460318e-01  1.358551e-01 -8.314735e-02
     vertex -7.301587e-01  1.358551e-01 -8.314735e-02
   endloop
 endfacet
 facet normal  0.000000e+00  8.884235e-01 -4.590247e-01
   outer loop
     vertex -7.460318e-01  1.210329e-01 -1.196480e-01
     vertex -7.301587e-01  1.301123e-01 -1.020751e-01
     vertex -7.301587e-01  1.210329e-01 -1.196480e-01
   endloop
 endfacet
 facet normal  0.000000e+00  8.884235e-01 -4.590247e-01
   outer loop
     vertex -7.460318e-01  1.210329e-01 -1.196480e-01
     vertex -7.460318e-01  1.301123e-01 -1.020751e-01
     vertex -7.301587e-01  1.301123e-01 -1.020751e-01
   endloop
 endfacet
 facet normal  0.000000e+00  7.904741e-01 -6.124954e-01
   outer loop
     vertex -7.460318e-01  1.089178e-01 -1.352834e-01
     vertex -7.301587e-01  1.210329e-01 -1.196480e-01
     vertex -7.301587e-01  1.089178e-01 -1.352834e-01
   endloop
 endfacet
 facet normal  0.000000e+00  7.904741e-01 -6.124954e-01
   outer loop
     vertex -7.460318e-01  1.089178e-01 -1.352834e-01
     vertex -7.460318e-01  1.210329e-01 -1.196480e-01
     vertex -7.301587e-01  1.210329e-01 -1.196480e-01
   endloop
 endfacet
 facet normal  0.000000e+00  6.663226e-01 -7.456636e-01
   outer loop
     vertex -7.460318e-01  9.416873e-02 -1.484631e-01
     vertex -7.301587e-01  1.089178e-01 -1.352834e-01
     vertex -7.301587e-01  9.416873e-02 -1.484631e-01
   endloop
 endfacet
 facet normal  0.000000e+00  6.663226e-01 -7.456636e-01
   outer loop
     vertex -7.460318e-01  9.416873e-02 -1.484631e-01
     vertex -7.460318e-01  1.089178e-01 -1.352834e-01
     vertex -7.301587e-01  1.089178e-01 -1.352834e-01
   endloop
 endfacet
 facet normal  0.000000e+00  5.200843e-01 -8.541149e-01
   outer loop
     vertex -7.460318e-01  7.727450e-02 -1.587503e-01
     vertex -7.301587e-01  9.416873e-02 -1.484631e-01
     vertex -7.301587e-01  7.727450e-02 -1.587503e-01
   endloop
 endfacet
 facet normal  0.000000e+00  5.200843e-01 -8.541149e-01
   outer loop
     vertex -7.460318e-01  7.727450e-02 -1.587503e-01
     vertex -7.460318e-01  9.416873e-02 -1.484631e-01
     vertex -7.301587e-01  9.416873e-02 -1.484631e-01
   endloop
 endfacet
 facet normal  0.000000e+00  3.566065e-01 -9.342547e-01
   outer loop
     vertex -7.460318e-01  5.879512e-02 -1.658039e-01
     vertex -7.301587e-01  7.727450e-02 -1.587503e-01
     vertex -7.301587e-01  5.879512e-02 -1.658039e-01
   endloop
 endfacet
 facet normal  0.000000e+00  3.566065e-01 -9.342547e-01
   outer loop
     vertex -7.460318e-01  5.879512e-02 -1.658039e-01
     vertex -7.460318e-01  7.727450e-02 -1.587503e-01
     vertex -7.301587e-01  7.727450e-02 -1.587503e-01
   endloop
 endfacet
 facet normal  0.000000e+00  1.813082e-01 -9.834263e-01
   outer loop
     vertex -7.460318e-01  3.934314e-02 -1.693902e-01
     vertex -7.301587e-01  5.879512e-02 -1.658039e-01
     vertex -7.301587e-01  3.934314e-02 -1.693902e-01
   endloop
 endfacet
 facet normal  0.000000e+00  1.813082e-01 -9.834263e-01
   outer loop
     vertex -7.460318e-01  3.934314e-02 -1.693902e-01
     vertex -7.460318e-01  5.879512e-02 -1.658039e-01
     vertex -7.301587e-01  5.879512e-02 -1.658039e-01
   endloop
 endfacet
 facet normal  0.000000e+00  2.806455e-15 -1.000000e+00
   outer loop
     vertex -7.460318e-01  1.956333e-02 -1.693902e-01
     vertex -7.301587e-01  3.934314e-02 -1.693902e-01
     vertex -7.301587e-01  1.956333e-02 -1.693902e-01
   endloop
 endfacet
 facet normal  0.000000e+00  2.806455e-15 -1.000000e+00
   outer loop
     vertex -7.460318e-01  1.956333e-02 -1.693902e-01
     vertex -7.460318e-01  3.934314e-02 -1.693902e-01
     vertex -7.301587e-01  3.934314e-02 -1.693902e-01
   endloop
 endfacet
 facet normal  0.000000e+00 -1.813082e-01 -9.834263e-01
   outer loop
     vertex -7.460318e-01  1.113426e-04 -1.658039e-01
     vertex -7.301587e-01  1.956333e-02 -1.693902e-01
     vertex -7.301587e-01  1.113426e-04 -1.658039e-01
   endloop
 endfacet
 facet normal  0.000000e+00 -1.813082e-01 -9.834263e-01
   outer loop
     vertex -7.460318e-01  1.113426e-04 -1.658039e-01
     vertex -7.460318e-01  1.956333e-02 -1.693902e-01
     vertex -7.301587e-01  1.956333e-02 -1.693902e-01
   endloop
 endfacet
 facet normal  0.000000e+00 -3.566065e-01 -9.342547e-01
   outer loop
     vertex -7.460318e-01 -1.836804e-02 -1.587503e-01
     vertex -7.301587e-01  1.113426e-04 -1.658039e-01
     vertex -7.301587e-01 -1.836804e-02 -1.587503e-01
   endloop
 endfacet
 facet normal  0.000000e+00 -3.566065e-01 -9.342547e-01
   outer loop
     vertex -7.460318e-01 -1.836804e-02 -1.587503e-01
     vertex -7.460318e-01  1.113426e-04 -1.658039e-01
     vertex -7.301587e-01  1.113426e-04 -1.658039e-01
   endloop
 endfacet
 facet normal  0.000000e+00 -5.200843e-01 -8.541149e-01
   outer loop
     vertex -7.460318e-01 -3.526227e-02 -1.484631e-01
     vertex -7.301587e-01 -1.836804e-02 -1.587503e-01
     vertex -7.301587e-01 -3.526227e-02 -1.484631e-01
   endloop
 endfacet
 facet normal  0.000000e+00 -5.200843e-01 -8.541149e-01
   outer loop
     vertex -7.460318e-01 -3.526227e-02 -1.484631e-01
     vertex -7.460318e-01 -1.836804e-02 -1.587503e-01
     vertex -7.301587e-01 -1.836804e-02 -1.587503e-01
   endloop
 endfacet
 facet normal  0.000000e+00 -6.663226e-01 -7.456636e-01
   outer loop
     vertex -7.460318e-01 -5.001135e-02 -1.352834e-01
     vertex -7.301587e-01 -3.526227e-02 -1.484631e-01
     vertex -7.301587e-01 -5.001135e-02 -1.352834e-01
   endloop
 endfacet
 facet normal  0.000000e+00 -6.663226e-01 -7.456636e-01
   outer loop
     vertex -7.460318e-01 -5.001135e-02 -1.352834e-01
     vertex -7.460318e-01 -3.526227e-02 -1.484631e-01
     vertex -7.301587e-01 -3.526227e-02 -1.484631e-01
   endloop
 endfacet
 facet normal  0.000000e+00 -7.904741e-01 -6.124954e-01
   outer loop
     vertex -7.460318e-01 -6.212639e-02 -1.196480e-01
     vertex -7.301587e-01 -5.001135e-02 -1.352834e-01
     vertex -7.301587e-01 -6.212639e-02 -1.196480e-01
   endloop
 endfacet
 facet normal  0.000000e+00 -7.904741e-01 -6.124954e-01
   outer loop
     vertex -7.460318e-01 -6.212639e-02 -1.196480e-01
     vertex -7.460318e-01 -5.001135e-02 -1.352834e-01
     vertex -7.301587e-01 -5.001135e-02 -1.352834e-01
   endloop
 endfacet
 facet normal  0.000000e+00 -8.884235e-01 -4.590247e-01
   outer loop
     vertex -7.460318e-01 -7.120581e-02 -1.020751e-01
     vertex -7.301587e-01 -6.212639e-02 -1.196480e-01
     vertex -7.301587e-01 -7.120581e-02 -1.020751e-01
   endloop
 endfacet
 facet normal  0.000000e+00 -8.884235e-01 -4.590247e-01
   outer loop
     vertex -7.460318e-01 -7.120581e-02 -1.020751e-01
     vertex -7.460318e-01 -6.212639e-02 -1.196480e-01
     vertex -7.301587e-01 -6.212639e-02 -1.196480e-01
   endloop
 endfacet
 facet normal  0.000000e+00 -9.569240e-01 -2.903385e-01
   outer loop
     vertex -7.460318e-01 -7.694865e-02 -8.314735e-02
     vertex -7.460318e-01 -7.120581e-02 -1.020751e-01
     vertex -7.301587e-01 -7.120581e-02 -1.020751e-01
   endloop
 endfacet
 facet normal  0.000000e+00 -9.569240e-01 -2.903385e-01
   outer loop
     vertex -7.460318e-01 -7.694865e-02 -8.314735e-02
     vertex -7.301587e-01 -7.120581e-02 -1.020751e-01
     vertex -7.301587e-01 -7.694865e-02 -8.314735e-02
   endloop
 endfacet
 facet normal  0.000000e+00 -9.937050e-01 -1.120283e-01
   outer loop
     vertex -7.460318e-01 -7.916455e-02 -6.349206e-02
     vertex -7.460318e-01 -7.694865e-02 -8.314735e-02
     vertex -7.301587e-01 -7.694865e-02 -8.314735e-02
   endloop
 endfacet
 facet normal  0.000000e+00 -9.937050e-01 -1.120283e-01
   outer loop
     vertex -7.460318e-01 -7.916455e-02 -6.349206e-02
     vertex -7.301587e-01 -7.694865e-02 -8.314735e-02
     vertex -7.301587e-01 -7.916455e-02 -6.349206e-02
   endloop
 endfacet
 facet normal -1.000000e+00  0.000000e+00  0.000000e+00
   outer loop
     vertex -9.841270e-01 -4.917467e-02  1.377229e-02
     vertex -9.841270e-01 -7.918875e-02 -6.119926e-02
     vertex -9.841270e-01 -7.722544e-02 -4.063863e-02
   endloop
 endfacet
 facet normal -1.000000e+00  0.000000e+00  0.000000e+00
   outer loop
     vertex -9.841270e-01 -4.917467e-02  1.377229e-02
     vertex -9.841270e-01 -7.722544e-02 -4.063863e-02
     vertex -9.841270e-01 -7.140650e-02 -2.082112e-02
   endloop
 endfacet
 facet normal -1.000000e+00  0.000000e+00  0.000000e+00
   outer loop
     vertex -9.841270e-01 -4.917467e-02  1.377229e-02
     vertex -9.841270e-01 -7.140650e-02 -2.082112e-02
     vertex -9.841270e-01 -6.194222e-02 -2.462973e-03
   endloop
 endfacet
 facet normal -1.000000e+00  0.000000e+00  0.000000e+00
   outer loop
     vertex -9.841270e-01 -4.917467e-02  1.377229e-02
     vertex -9.841270e-01 -3.356530e-02  2.729788e-02
     vertex -9.841270e-01 -1.567828e-02  3.762496e-02
   endloop
 endfacet
 facet normal -1.000000e+00  0.000000e+00  0.000000e+00
   outer loop
     vertex -9.841270e-01 -4.917467e-02  1.377229e-02
     vertex -9.841270e-01 -1.567828e-02  3.762496e-02
     vertex -9.841270e-01  3.839914e-03  4.438027e-02
   endloop
 endfacet
 facet normal -1.000000e+00  0.000000e+00  0.000000e+00
   outer loop
     vertex -9.841270e-01 -4.917467e-02  1.377229e-02
     vertex -9.841270e-01  3.839914e-03  4.438027e-02
     vertex -9.841270e-01  2.428384e-02  4.731966e-02
   endloop
 endfacet
 facet normal -1.000000e+00  0.000000e+00  0.000000e+00
   outer loop
     vertex -9.841270e-01 -4.917467e-02  1.377229e-02
     vertex -9.841270e-01  2.428384e-02  4.731966e-02
     vertex -9.841270e-01  4.491460e-02  4.633690e-02
   endloop
 endfacet
 facet normal -1.000000e+00  0.000000e+00  0.000000e+00
   outer loop
     vertex -9.841270e-01 -4.917467e-02  1.377229e-02
     vertex -9.841270e-01  4.491460e-02  4.633690e-02
     vertex -9.841270e-01  6.498654e-02  4.146750e-02
   endloop
 endfacet
 facet normal -1.000000e+00  0.000000e+00  0.000000e+00
   outer loop
     vertex -9.841270e-01 -4.917467e-02  1.377229e-02
     vertex -9.841270e-01  6.498654e-02  4.146750e-02
     vertex -9.841270e-01  8.377422e-02  3.288745e-02
   endloop
 endfacet
 facet normal -1.000000e+00  0.000000e+00  0.000000e+00
   outer loop
     vertex -9.841270e-01 -4.917467e-02  1.377229e-02
     vertex -9.841270e-01  8.377422e-02  3.288745e-02
     vertex -9.841270e-01  1.005986e-01  2.090687e-02
   endloop
 endfacet
 facet normal -1.000000e+00  0.000000e+00  0.000000e+00
   outer loop
     vertex -9.841270e-01 -4.917467e-02  1.377229e-02
     vertex -9.841270e-01  1.005986e-01  2.090687e-02
     vertex -9.841270e-01  1.148516e-01  5.958754e-03
   endloop
 endfacet
 facet normal -1.000000e+00  0.000000e+00  0.000000e+00
   outer loop
     vertex -9.841270e-01 -4.917467e-02  1.377229e-02
     vertex -9.841270e-01  1.148516e-01  5.958754e-03
     vertex -9.841270e-01  1.260181e-01 -1.141663e-02
   endloop
 endfacet
 facet normal -1.000000e+00  0.000000e+00  0.000000e+00
   outer loop
     vertex -9.841270e-01 -4.917467e-02  1.377229e-02
     vertex -9.841270e-01  1.260181e-01 -1.141663e-02
     vertex -9.841270e-01  1.336944e-01 -3.059128e-02
   endloop
 endfacet
 facet normal -1.000000e+00  0.000000e+00  0.000000e+00
   outer loop
     vertex -9.841270e-01 -4.917467e-02  1.377229e-02
     vertex -9.841270e-01  1.336944e-01 -3.059128e-02
     vertex -9.841270e-01  1.376033e-01 -5.087218e-02
   endloop
 endfacet
 facet normal -1.000000e+00  0.000000e+00  0.000000e+00
   outer loop
     vertex -9.841270e-01 -4.917467e-02  1.377229e-02
     vertex -9.841270e-01  1.376033e-01 -5.087218e-02
     vertex -9.841270e-01  1.376033e-01 -7.152634e-02
   endloop
 endfacet
 facet normal -1.000000e+00  0.000000e+00  0.000000e+00
   outer loop
     vertex -9.841270e-01 -4.917467e-02  1.377229e-02
     vertex -9.841270e-01  1.376033e-01 -7.152634e-02
     vertex -9.841270e-01  1.336944e-01 -9.180724e-02
   endloop
 endfacet
 facet normal -1.000000e+00  0.000000e+00  0.000000e+00
   outer loop
     vertex -9.841270e-01 -4.917467e-02  1.377229e-02
     vertex -9.841270e-01  1.336944e-01 -9.180724e-02
     vertex -9.841270e-01  1.260181e-01 -1.109819e-01
   endloop
 endfacet
 facet normal -1.000000e+00  0.000000e+00  0.000000e+00
   outer loop
     vertex -9.841270e-01 -4.917467e-02  1.377229e-02
     vertex -9.841270e-01  1.260181e-01 -1.109819e-01
     vertex -9.841270e-01  1.148516e-01 -1.283573e-01
   endloop
 endfacet
 facet normal -1.000000e+00  0.000000e+00  0.000000e+00
   outer loop
     vertex -9.841270e-01 -4.917467e-02  1.377229e-02
     vertex -9.841270e-01  1.148516e-01 -1.283573e-01
     vertex -9.841270e-01  1.005986e-01 -1.433054e-01
   endloop
 endfacet
 facet normal -1.000000e+00  0.000000e+00  0.000000e+00
   outer loop
     vertex -9.841270e-01 -4.917467e-02  1.377229e-02
     vertex -9.841270e-01  1.005986e-01 -1.433054e-01
     vertex -9.841270e-01  8.377422e-02 -1.552860e-01
   endloop
 endfacet
 facet normal -1.000000e+00  0.000000e+00  0.000000e+00
   outer loop
     vertex -9.841270e-01 -4.917467e-02  1.377229e-02
     vertex -9.841270e-01  8.377422e-02 -1.552860e-01
     vertex -9.841270e-01  6.498654e-02 -1.638660e-01
   endloop
 endfacet
 facet normal -1.000000e+00  0.000000e+00  0.000000e+00
   outer loop
     vertex -9.841270e-01 -4.917467e-02  1.377229e-02
     vertex -9.841270e-01  6.498654e-02 -1.638660e-01
     vertex -9.841270e-01  4.491460e-02 -1.687354e-01
   endloop
 endfacet
 facet normal -1.000000e+00  0.000000e+00  0.000000e+00
   outer loop
     vertex -9.841270e-01 -4.917467e-02  1.377229e-02
     vertex -9.841270e-01  4.491460e-02 -1.687354e-01
     vertex -9.841270e-01  2.428384e-02 -1.697182e-01
   endloop
 endfacet
 facet normal -1.000000e+00  0.000000e+00  0.000000e+00
   outer loop
     vertex -9.841270e-01 -4.917467e-02  1.377229e-02
     vertex -9.841270e-01  2.428384e-02 -1.697182e-01
     vertex -9.841270e-01  3.839914e-03 -1.667788e-01
   endloop
 endfacet
 facet normal -1.000000e+00  0.000000e+00  0.000000e+00
   outer loop
     vertex -9.841270e-01 -4.917467e-02  1.377229e-02
     vertex -9.841270e-01  3.839914e-03 -1.667788e-01
     vertex -9.841270e-01 -1.567828e-02 -1.600235e-01
   endloop
 endfacet
 facet normal -1.000000e+00  0.000000e+00  0.000000e+00
   outer loop
     vertex -9.841270e-01 -4.917467e-02  1.377229e-02
     vertex -9.841270e-01 -1.567828e-02 -1.600235e-01
     vertex -9.841270e-01 -3.356530e-02 -1.496964e-01
   endloop
 endfacet
 facet normal -1.000000e+00  0.000000e+00 -0.000000e+00
   outer loop
     vertex -9.841270e-01 -4.917467e-02  1.377229e-02
     vertex -9.841270e-01 -3.356530e-02 -1.496964e-01
     vertex -9.841270e-01 -4.917467e-02 -1.361708e-01
   endloop
 endfacet
 facet normal -1.000000e+00  0.000000e+00  0.000000e+00
   outer loop
     vertex -9.841270e-01 -4.917467e-02  1.377229e-02
     vertex -9.841270e-01 -4.917467e-02 -1.361708e-01
     vertex -9.841270e-01 -6.194222e-02 -1.199355e-01
   endloop
 endfacet
 facet normal -1.000000e+00  0.000000e+00  0.000000e+00
   outer loop
     vertex -9.841270e-01 -4.917467e-02  1.377229e-02
     vertex -9.841270e-01 -6.194222e-02 -1.199355e-01
     vertex -9.841270e-01 -7.140650e-02 -1.015774e-01
   endloop
 endfacet
 facet normal -1.000000e+00  0.000000e+00  0.000000e+00
   outer loop
     vertex -9.841270e-01 -4.917467e-02  1.377229e-02
     vertex -9.841270e-01 -7.140650e-02 -1.015774e-01
     vertex -9.841270e-01 -7.722544e-02 -8.175989e-02
   endloop
 endfacet
 facet normal -1.000000e+00  0.000000e+00  0.000000e+00
   outer loop
     vertex -9.841270e-01 -4.917467e-02  1.377229e-02
     vertex -9.841270e-01 -7.722544e-02 -8.175989e-02
     vertex -9.841270e-01 -7.918875e-02 -6.119926e-02
   endloop
 endfacet
 facet normal -0.000000e+00  1.000000e+00  0.000000e+00
   outer loop
     vertex -8.019400e-01  5.631394e-01 -1.587302e-02
     vertex  6.541446e-01  5.631394e-01 -1.587302e-02
     vertex  6.541446e-01  5.631394e-01 -6.349206e-02
   endloop
 endfacet
 facet normal  0.000000e+00  1.000000e+00  0.000000e+00
   outer loop
     vertex -8.019400e-01  5.631394e-01 -1.587302e-02
     vertex  6.541446e-01  5.631394e-01 -6.349206e-02
     vertex -8.019400e-01  5.631394e-01 -6.349206e-02
   endloop
 endfacet
 facet normal  1.000000e+00  0.000000e+00  0.000000e+00
   outer loop
     vertex -7.301587e-01  1.380710e-01 -6.349206e-02
     vertex -7.301587e-01  1.301123e-01 -1.020751e-01
     vertex -7.301587e-01  1.358551e-01 -8.314735e-02
   endloop
 endfacet
 facet normal  1.000000e+00  0.000000e+00  0.000000e+00
   outer loop
     vertex -7.301587e-01  1.380710e-01 -6.349206e-02
     vertex -7.301587e-01  1.210329e-01 -1.196480e-01
     vertex -7.301587e-01  1.301123e-01 -1.020751e-01
   endloop
 endfacet
 facet normal  1.000000e+00  0.000000e+00  0.000000e+00
   outer loop
     vertex -7.301587e-01 -7.916455e-02 -6.349206e-02
     vertex -7.301587e-01  1.089178e-01 -1.352834e-01
     vertex -7.301587e-01  1.210329e-01 -1.196480e-01
   endloop
 endfacet
 facet normal  1.000000e+00  0.000000e+00  0.000000e+00
   outer loop
     vertex -7.301587e-01 -7.916455e-02 -6.349206e-02
     vertex -7.301587e-01  9.416873e-02 -1.484631e-01
     vertex -7.301587e-01  1.089178e-01 -1.352834e-01
   endloop
 endfacet
 facet normal  1.000000e+00  0.000000e+00  0.000000e+00
   outer loop
     vertex -7.301587e-01 -7.916455e-02 -6.349206e-02
     vertex -7.301587e-01  7.727450e-02 -1.587503e-01
     vertex -7.301587e-01  9.416873e-02 -1.484631e-01
   endloop
 endfacet
 facet normal  1.000000e+00  0.000000e+00  0.000000e+00
   outer loop
     vertex -7.301587e-01 -7.916455e-02 -6.349206e-02
     vertex -7.301587e-01  5.879512e-02 -1.658039e-01
     vertex -7.301587e-01  7.727450e-02 -1.587503e-01
   endloop
 endfacet
 facet normal  1.000000e+00  0.000000e+00  0.000000e+00
   outer loop
     vertex -7.301587e-01 -7.916455e-02 -6.349206e-02
     vertex -7.301587e-01  3.934314e-02 -1.693902e-01
     vertex -7.301587e-01  5.879512e-02 -1.658039e-01
   endloop
 endfacet
 facet normal  1.000000e+00  0.000000e+00  0.000000e+00
   outer loop
     vertex -7.301587e-01 -7.916455e-02 -6.349206e-02
     vertex -7.301587e-01  1.956333e-02 -1.693902e-01
     vertex -7.301587e-01  3.934314e-02 -1.693902e-01
   endloop
 endfacet
 facet normal  1.000000e+00  0.000000e+00  0.000000e+00
   outer loop
     vertex -7.301587e-01 -7.916455e-02 -6.349206e-02
     vertex -7.301587e-01  1.113426e-04 -1.658039e-01
     vertex -7.301587e-01  1.956333e-02 -1.693902e-01
   endloop
 endfacet
 facet normal  1.000000e+00  0.000000e+00  0.000000e+00
   outer loop
     vertex -7.301587e-01 -7.916455e-02 -6.349206e-02
     vertex -7.301587e-01 -1.836804e-02 -1.587503e-01
     vertex -7.301587e-01  1.113426e-04 -1.658039e-01
   endloop
 endfacet
 facet normal  1.000000e+00  0.000000e+00  0.000000e+00
   outer loop
     vertex -7.301587e-01 -7.916455e-02 -6.349206e-02
     vertex -7.301587e-01 -3.526227e-02 -1.484631e-01
     vertex -7.301587e-01 -1.836804e-02 -1.587503e-01
   endloop
 endfacet
 facet normal  1.000000e+00  0.000000e+00  0.000000e+00
   outer loop
     vertex -7.301587e-01 -7.916455e-02 -6.349206e-02
     vertex -7.301587e-01 -5.001135e-02 -1.352834e-01
     vertex -7.301587e-01 -3.526227e-02 -1.484631e-01
   endloop
 endfacet
 facet normal  1.000000e+00  0.000000e+00  0.000000e+00
   outer loop
     vertex -7.301587e-01 -7.916455e-02 -6.349206e-02
     vertex -7.301587e-01 -6.212639e-02 -1.196480e-01
     vertex -7.301587e-01 -5.001135e-02 -1.352834e-01
   endloop
 endfacet
 facet normal  1.000000e+00  0.000000e+00  0.000000e+00
   outer loop
     vertex -7.301587e-01 -7.916455e-02 -6.349206e-02
     vertex -7.301587e-01 -7.120581e-02 -1.020751e-01
     vertex -7.301587e-01 -6.212639e-02 -1.196480e-01
   endloop
 endfacet
 facet normal  1.000000e+00  0.000000e+00  0.000000e+00
   outer loop
     vertex -7.301587e-01 -7.916455e-02 -6.349206e-02
     vertex -7.301587e-01 -7.694865e-02 -8.314735e-02
     vertex -7.301587e-01 -7.120581e-02 -1.020751e-01
   endloop
 endfacet
 facet normal  1.000000e+00 -0.000000e+00  0.000000e+00
   outer loop
     vertex -7.301587e-01 -7.916455e-02 -6.349206e-02
     vertex -7.301587e-01  1.210329e-01 -1.196480e-01
     vertex -7.301587e-01  1.380710e-01 -6.349206e-02
   endloop
 endfacet
endsolid
