solid 
 facet normal -1.000000e+00  0.000000e+00  0.000000e+00
   outer loop
     vertex -5.539683e-01 -1.587302e-02 -1.825397e-01
     vertex -5.539683e-01 -4.761905e-01  5.624339e-01
     vertex -5.539683e-01 -1.587302e-02  5.624339e-01
   endloop
 endfacet
 facet normal -1.000000e+00  0.000000e+00  0.000000e+00
   outer loop
     vertex -5.539683e-01 -1.587302e-02 -1.825397e-01
     vertex -5.539683e-01 -4.761905e-01 -1.825397e-01
     vertex -5.539683e-01 -4.761905e-01  5.624339e-01
   endloop
 endfacet
 facet normal -0.000000e+00  0.000000e+00  1.000000e+00
   outer loop
     vertex -5.539683e-01 -1.587302e-02  5.624339e-01
     vertex  1.910053e-01 -4.761905e-01  5.624339e-01
     vertex  1.910053e-01 -1.587302e-02  5.624339e-01
   endloop
 endfacet
 facet normal  0.000000e+00  0.000000e+00  1.000000e+00
   outer loop
     vertex -5.539683e-01 -1.587302e-02  5.624339e-01
     vertex -5.539683e-01 -4.761905e-01  5.624339e-01
     vertex  1.910053e-01 -4.761905e-01  5.624339e-01
   endloop
 endfacet
 facet normal -0.000000e+00  0.000000e+00 -1.000000e+00
   outer loop
     vertex -3.174603e-02 -3.968263e-02 -1.825397e-01
     vertex -5.539683e-01 -4.761905e-01 -1.825397e-01
     vertex -5.539683e-01 -1.587302e-02 -1.825397e-01
   endloop
 endfacet
 facet normal  0.000000e+00 -0.000000e+00 -1.000000e+00
   outer loop
     vertex -3.174603e-02 -3.968263e-02 -1.825397e-01
     vertex  1.910053e-01 -4.761905e-01 -1.825397e-01
     vertex -5.539683e-01 -4.761905e-01 -1.825397e-01
   endloop
 endfacet
 facet normal -0.000000e+00 -0.000000e+00 -1.000000e+00
   outer loop
     vertex -1.587302e-02 -3.968263e-02 -1.825397e-01
     vertex  1.910053e-01 -4.761905e-01 -1.825397e-01
     vertex -3.174603e-02 -3.968263e-02 -1.825397e-01
   endloop
 endfacet
 facet normal -0.000000e+00  0.000000e+00 -1.000000e+00
   outer loop
     vertex -3.174603e-02 -1.587302e-02 -1.825397e-01
     vertex -3.174603e-02 -3.968263e-02 -1.825397e-01
     vertex -5.539683e-01 -1.587302e-02 -1.825397e-01
   endloop
 endfacet
 facet normal -0.000000e+00 -0.000000e+00 -1.000000e+00
   outer loop
     vertex  1.910053e-01 -3.968263e-02 -1.825397e-01
     vertex  1.910053e-01 -4.761905e-01 -1.825397e-01
     vertex -1.587302e-02 -3.968263e-02 -1.825397e-01
   endloop
 endfacet
 facet normal -1.000000e+00  0.000000e+00  0.000000e+00
   outer loop
     vertex -5.539683e-01 -1.587302e-02 -1.825397e-01
     vertex -5.539683e-01 -1.587302e-02  5.624339e-01
     vertex -5.539683e-01  0.000000e+00  5.624339e-01
   endloop
 endfacet
 facet normal -1.000000e+00  0.000000e+00  0.000000e+00
   outer loop
     vertex -5.539683e-01 -1.587302e-02 -1.825397e-01
     vertex -5.539683e-01  0.000000e+00  5.624339e-01
     vertex -5.539683e-01  0.000000e+00 -1.825397e-01
   endloop
 endfacet
 facet normal -0.000000e+00 -1.000000e+00  0.000000e+00
   outer loop
     vertex  1.910053e-01 -4.761905e-01  5.624339e-01
     vertex -5.539683e-01 -4.761905e-01  5.624339e-01
     vertex -5.539683e-01 -4.761905e-01 -1.825397e-01
   endloop
 endfacet
 facet normal  0.000000e+00 -1.000000e+00 -0.000000e+00
   outer loop
     vertex  1.910053e-01 -4.761905e-01  5.624339e-01
     vertex -5.539683e-01 -4.761905e-01 -1.825397e-01
     vertex  1.910053e-01 -4.761905e-01 -1.825397e-01
   endloop
 endfacet
 facet normal  1.000000e+00  0.000000e+00  0.000000e+00
   outer loop
     vertex  1.910053e-01 -3.968263e-02 -6.613755e-02
     vertex  1.910053e-01 -4.761905e-01 -1.825397e-01
     vertex  1.910053e-01 -3.968263e-02 -1.825397e-01
   endloop
 endfacet
 facet normal  1.000000e+00  0.000000e+00  0.000000e+00
   outer loop
     vertex  1.910053e-01 -4.761905e-01  5.624339e-01
     vertex  1.910053e-01 -4.761905e-01 -1.825397e-01
     vertex  1.910053e-01 -3.968263e-02 -6.613755e-02
   endloop
 endfacet
 facet normal  1.000000e+00  0.000000e+00  0.000000e+00
   outer loop
     vertex  1.910053e-01 -1.587302e-02  5.624339e-01
     vertex  1.910053e-01 -3.968263e-02 -6.613755e-02
     vertex  1.910053e-01 -1.587302e-02 -6.613755e-02
   endloop
 endfacet
 facet normal  1.000000e+00  0.000000e+00  0.000000e+00
   outer loop
     vertex  1.910053e-01 -1.587302e-02  5.624339e-01
     vertex  1.910053e-01 -4.761905e-01  5.624339e-01
     vertex  1.910053e-01 -3.968263e-02 -6.613755e-02
   endloop
 endfacet
 facet normal  0.000000e+00  0.000000e+00  1.000000e+00
   outer loop
     vertex -5.539683e-01 -1.587302e-02  5.624339e-01
     vertex  1.910053e-01 -1.587302e-02  5.624339e-01
     vertex  1.910053e-01  0.000000e+00  5.624339e-01
   endloop
 endfacet
 facet normal  0.000000e+00  0.000000e+00  1.000000e+00
   outer loop
     vertex -5.539683e-01 -1.587302e-02  5.624339e-01
     vertex  1.910053e-01  0.000000e+00  5.624339e-01
     vertex -5.539683e-01  0.000000e+00  5.624339e-01
   endloop
 endfacet
 facet normal  0.000000e+00  0.000000e+00 -1.000000e+00
   outer loop
     vertex -3.174603e-02 -1.587302e-02 -1.825397e-01
     vertex -5.539683e-01 -1.587302e-02 -1.825397e-01
     vertex -5.539683e-01  0.000000e+00 -1.825397e-01
   endloop
 endfacet
 facet normal  0.000000e+00  0.000000e+00 -1.000000e+00
   outer loop
     vertex -3.174603e-02 -1.587302e-02 -1.825397e-01
     vertex -5.539683e-01  0.000000e+00 -1.825397e-01
     vertex -3.174603e-02  0.000000e+00 -1.825397e-01
   endloop
 endfacet
 facet normal -1.000000e+00  8.742974e-16  0.000000e+00
   outer loop
     vertex -3.174603e-02 -1.587302e-02 -1.825397e-01
     vertex -3.174603e-02 -3.968263e-02 -8.111112e-01
     vertex -3.174603e-02 -3.968263e-02 -1.825397e-01
   endloop
 endfacet
 facet normal -1.000000e+00  0.000000e+00  3.311745e-17
   outer loop
     vertex -3.174603e-02  0.000000e+00 -1.825397e-01
     vertex -3.174603e-02 -3.968263e-02 -8.111112e-01
     vertex -3.174603e-02 -1.587302e-02 -1.825397e-01
   endloop
 endfacet
 facet normal -1.000000e+00  0.000000e+00  3.311745e-17
   outer loop
     vertex -3.174603e-02  7.052910e-01 -8.111112e-01
     vertex -3.174603e-02 -3.968263e-02 -8.111112e-01
     vertex -3.174603e-02  0.000000e+00 -1.825397e-01
   endloop
 endfacet
 facet normal -1.000000e+00 -0.000000e+00 -1.788342e-16
   outer loop
     vertex -3.174603e-02  7.052910e-01 -6.613755e-02
     vertex -3.174603e-02  0.000000e+00 -1.825397e-01
     vertex -3.174603e-02  0.000000e+00 -6.613755e-02
   endloop
 endfacet
 facet normal -1.000000e+00 -2.951503e-17 -0.000000e+00
   outer loop
     vertex -3.174603e-02  7.052910e-01 -6.613755e-02
     vertex -3.174603e-02  7.052910e-01 -8.111112e-01
     vertex -3.174603e-02  0.000000e+00 -1.825397e-01
   endloop
 endfacet
 facet normal  0.000000e+00 -1.000000e+00  0.000000e+00
   outer loop
     vertex -1.587302e-02 -3.968263e-02 -8.111112e-01
     vertex -1.587302e-02 -3.968263e-02 -1.825397e-01
     vertex -3.174603e-02 -3.968263e-02 -1.825397e-01
   endloop
 endfacet
 facet normal  0.000000e+00 -1.000000e+00  0.000000e+00
   outer loop
     vertex -1.587302e-02 -3.968263e-02 -8.111112e-01
     vertex -3.174603e-02 -3.968263e-02 -1.825397e-01
     vertex -3.174603e-02 -3.968263e-02 -8.111112e-01
   endloop
 endfacet
 facet normal  0.000000e+00 -1.000000e+00  0.000000e+00
   outer loop
     vertex  1.910053e-01 -3.968263e-02 -1.825397e-01
     vertex  9.523810e-01 -3.968263e-02 -6.613755e-02
     vertex  1.910053e-01 -3.968263e-02 -6.613755e-02
   endloop
 endfacet
 facet normal  0.000000e+00 -1.000000e+00  0.000000e+00
   outer loop
     vertex  1.910053e-01 -3.968263e-02 -1.825397e-01
     vertex  9.523810e-01 -3.968263e-02 -8.111112e-01
     vertex  9.523810e-01 -3.968263e-02 -6.613755e-02
   endloop
 endfacet
 facet normal  0.000000e+00 -1.000000e+00  0.000000e+00
   outer loop
     vertex -1.587302e-02 -3.968263e-02 -8.111112e-01
     vertex  1.910053e-01 -3.968263e-02 -1.825397e-01
     vertex -1.587302e-02 -3.968263e-02 -1.825397e-01
   endloop
 endfacet
 facet normal  0.000000e+00 -1.000000e+00  0.000000e+00
   outer loop
     vertex -1.587302e-02 -3.968263e-02 -8.111112e-01
     vertex  9.523810e-01 -3.968263e-02 -8.111112e-01
     vertex  1.910053e-01 -3.968263e-02 -1.825397e-01
   endloop
 endfacet
 facet normal  0.000000e+00  1.000000e+00  0.000000e+00
   outer loop
     vertex -3.174603e-02  0.000000e+00 -6.613755e-02
     vertex -3.174603e-02  0.000000e+00 -1.825397e-01
     vertex -5.539683e-01  0.000000e+00 -1.825397e-01
   endloop
 endfacet
 facet normal  0.000000e+00  1.000000e+00  0.000000e+00
   outer loop
     vertex -5.539683e-01  0.000000e+00  5.624339e-01
     vertex -3.174603e-02  0.000000e+00 -6.613755e-02
     vertex -5.539683e-01  0.000000e+00 -1.825397e-01
   endloop
 endfacet
 facet normal  0.000000e+00  1.000000e+00  0.000000e+00
   outer loop
     vertex  1.910053e-01  0.000000e+00  5.624339e-01
     vertex -1.587302e-02  0.000000e+00 -6.613755e-02
     vertex -3.174603e-02  0.000000e+00 -6.613755e-02
   endloop
 endfacet
 facet normal  0.000000e+00  1.000000e+00  0.000000e+00
   outer loop
     vertex  1.910053e-01  0.000000e+00  5.624339e-01
     vertex  1.910053e-01  0.000000e+00 -6.613755e-02
     vertex -1.587302e-02  0.000000e+00 -6.613755e-02
   endloop
 endfacet
 facet normal  0.000000e+00  1.000000e+00  0.000000e+00
   outer loop
     vertex  1.910053e-01  0.000000e+00  5.624339e-01
     vertex -3.174603e-02  0.000000e+00 -6.613755e-02
     vertex -5.539683e-01  0.000000e+00  5.624339e-01
   endloop
 endfacet
 facet normal  0.000000e+00 -0.000000e+00  1.000000e+00
   outer loop
     vertex  1.910053e-01  0.000000e+00 -6.613755e-02
     vertex  9.523810e-01  7.052910e-01 -6.613755e-02
     vertex -1.587302e-02  7.052910e-01 -6.613755e-02
   endloop
 endfacet
 facet normal -0.000000e+00  0.000000e+00  1.000000e+00
   outer loop
     vertex  1.910053e-01  0.000000e+00 -6.613755e-02
     vertex  9.523810e-01 -3.968263e-02 -6.613755e-02
     vertex  9.523810e-01  7.052910e-01 -6.613755e-02
   endloop
 endfacet
 facet normal -0.000000e+00  0.000000e+00  1.000000e+00
   outer loop
     vertex  1.910053e-01 -1.587302e-02 -6.613755e-02
     vertex  9.523810e-01 -3.968263e-02 -6.613755e-02
     vertex  1.910053e-01  0.000000e+00 -6.613755e-02
   endloop
 endfacet
 facet normal  0.000000e+00  0.000000e+00  1.000000e+00
   outer loop
     vertex  1.910053e-01 -3.968263e-02 -6.613755e-02
     vertex  9.523810e-01 -3.968263e-02 -6.613755e-02
     vertex  1.910053e-01 -1.587302e-02 -6.613755e-02
   endloop
 endfacet
 facet normal  0.000000e+00  0.000000e+00  1.000000e+00
   outer loop
     vertex -1.587302e-02  0.000000e+00 -6.613755e-02
     vertex  1.910053e-01  0.000000e+00 -6.613755e-02
     vertex -1.587302e-02  7.052910e-01 -6.613755e-02
   endloop
 endfacet
 facet normal  1.000000e+00  0.000000e+00  0.000000e+00
   outer loop
     vertex  1.910053e-01 -1.587302e-02  5.624339e-01
     vertex  1.910053e-01 -1.587302e-02 -6.613755e-02
     vertex  1.910053e-01  0.000000e+00 -6.613755e-02
   endloop
 endfacet
 facet normal  1.000000e+00 -0.000000e+00  0.000000e+00
   outer loop
     vertex  1.910053e-01 -1.587302e-02  5.624339e-01
     vertex  1.910053e-01  0.000000e+00 -6.613755e-02
     vertex  1.910053e-01  0.000000e+00  5.624339e-01
   endloop
 endfacet
 facet normal  0.000000e+00 -0.000000e+00  1.000000e+00
   outer loop
     vertex -1.587302e-02  0.000000e+00 -6.613755e-02
     vertex -1.587302e-02  7.052910e-01 -6.613755e-02
     vertex -3.174603e-02  7.052910e-01 -6.613755e-02
   endloop
 endfacet
 facet normal  0.000000e+00  0.000000e+00  1.000000e+00
   outer loop
     vertex -1.587302e-02  0.000000e+00 -6.613755e-02
     vertex -3.174603e-02  7.052910e-01 -6.613755e-02
     vertex -3.174603e-02  0.000000e+00 -6.613755e-02
   endloop
 endfacet
 facet normal  0.000000e+00  1.000000e+00  0.000000e+00
   outer loop
     vertex -1.587302e-02  7.052910e-01 -6.613755e-02
     vertex -1.587302e-02  7.052910e-01 -8.111112e-01
     vertex -3.174603e-02  7.052910e-01 -8.111112e-01
   endloop
 endfacet
 facet normal  0.000000e+00  1.000000e+00  0.000000e+00
   outer loop
     vertex -1.587302e-02  7.052910e-01 -6.613755e-02
     vertex -3.174603e-02  7.052910e-01 -8.111112e-01
     vertex -3.174603e-02  7.052910e-01 -6.613755e-02
   endloop
 endfacet
 facet normal  0.000000e+00 -0.000000e+00 -1.000000e+00
   outer loop
     vertex -1.587302e-02  7.052910e-01 -8.111112e-01
     vertex -1.587302e-02 -3.968263e-02 -8.111112e-01
     vertex -3.174603e-02 -3.968263e-02 -8.111112e-01
   endloop
 endfacet
 facet normal -0.000000e+00  0.000000e+00 -1.000000e+00
   outer loop
     vertex -1.587302e-02  7.052910e-01 -8.111112e-01
     vertex -3.174603e-02 -3.968263e-02 -8.111112e-01
     vertex -3.174603e-02  7.052910e-01 -8.111112e-01
   endloop
 endfacet
 facet normal  0.000000e+00  0.000000e+00 -1.000000e+00
   outer loop
     vertex -1.587302e-02  7.052910e-01 -8.111112e-01
     vertex  9.523810e-01 -3.968263e-02 -8.111112e-01
     vertex -1.587302e-02 -3.968263e-02 -8.111112e-01
   endloop
 endfacet
 facet normal  0.000000e+00  0.000000e+00 -1.000000e+00
   outer loop
     vertex -1.587302e-02  7.052910e-01 -8.111112e-01
     vertex  9.523810e-01  7.052910e-01 -8.111112e-01
     vertex  9.523810e-01 -3.968263e-02 -8.111112e-01
   endloop
 endfacet
 facet normal  1.000000e+00  0.000000e+00  0.000000e+00
   outer loop
     vertex  9.523810e-01  7.052910e-01 -6.613755e-02
     vertex  9.523810e-01 -3.968263e-02 -8.111112e-01
     vertex  9.523810e-01  7.052910e-01 -8.111112e-01
   endloop
 endfacet
 facet normal  1.000000e+00  0.000000e+00  0.000000e+00
   outer loop
     vertex  9.523810e-01  7.052910e-01 -6.613755e-02
     vertex  9.523810e-01 -3.968263e-02 -6.613755e-02
     vertex  9.523810e-01 -3.968263e-02 -8.111112e-01
   endloop
 endfacet
 facet normal  0.000000e+00  1.000000e+00  0.000000e+00
   outer loop
     vertex -1.587302e-02  7.052910e-01 -6.613755e-02
     vertex  9.523810e-01  7.052910e-01 -8.111112e-01
     vertex -1.587302e-02  7.052910e-01 -8.111112e-01
   endloop
 endfacet
 facet normal -0.000000e+00  1.000000e+00  0.000000e+00
   outer loop
     vertex -1.587302e-02  7.052910e-01 -6.613755e-02
     vertex  9.523810e-01  7.052910e-01 -6.613755e-02
     vertex  9.523810e-01  7.052910e-01 -8.111112e-01
   endloop
 endfacet
endsolid
