solid 
 facet normal -1.000000e+00  0.000000e+00  0.000000e+00
   outer loop
     vertex -1.070018e+00  2.562611e-01 -1.587302e-02
     vertex -1.070018e+00 -4.068783e-01 -1.587302e-02
     vertex -1.070018e+00 -4.068783e-01  6.349207e-01
   endloop
 endfacet
 facet normal -1.000000e+00  0.000000e+00  0.000000e+00
   outer loop
     vertex -1.070018e+00  2.562611e-01 -1.587302e-02
     vertex -1.070018e+00 -4.068783e-01  6.349207e-01
     vertex -1.070018e+00  2.562611e-01  6.349207e-01
   endloop
 endfacet
 facet normal  0.000000e+00 -1.000000e+00  0.000000e+00
   outer loop
     vertex -1.070018e+00 -4.068783e-01 -1.587302e-02
     vertex  9.194004e-01 -4.068783e-01 -1.587302e-02
     vertex  9.194004e-01 -4.068783e-01  6.349207e-01
   endloop
 endfacet
 facet normal  0.000000e+00 -1.000000e+00  0.000000e+00
   outer loop
     vertex -1.070018e+00 -4.068783e-01 -1.587302e-02
     vertex  9.194004e-01 -4.068783e-01  6.349207e-01
     vertex -1.070018e+00 -4.068783e-01  6.349207e-01
   endloop
 endfacet
 facet normal  0.000000e+00  1.000000e+00  0.000000e+00
   outer loop
     vertex  9.194004e-01  2.562611e-01 -1.587302e-02
     vertex -1.070018e+00  2.562611e-01 -1.587302e-02
     vertex -1.070018e+00  2.562611e-01  6.349207e-01
   endloop
 endfacet
 facet normal  0.000000e+00  1.000000e+00 -0.000000e+00
   outer loop
     vertex  9.194004e-01  2.562611e-01 -1.587302e-02
     vertex -1.070018e+00  2.562611e-01  6.349207e-01
     vertex  9.194004e-01  2.562611e-01  6.349207e-01
   endloop
 endfacet
 facet normal -1.000000e+00 -0.000000e+00  0.000000e+00
   outer loop
     vertex -1.070018e+00  2.562611e-01 -1.587302e-02
     vertex -1.070018e+00 -4.068783e-01 -3.174603e-02
     vertex -1.070018e+00 -4.068783e-01 -1.587302e-02
   endloop
 endfacet
 facet normal -1.000000e+00  0.000000e+00 -0.000000e+00
   outer loop
     vertex -1.070018e+00  2.562611e-01 -1.587302e-02
     vertex -1.070018e+00  2.562611e-01 -3.174603e-02
     vertex -1.070018e+00 -4.068783e-01 -3.174603e-02
   endloop
 endfacet
 facet normal  0.000000e+00  0.000000e+00  1.000000e+00
   outer loop
     vertex -1.070018e+00  2.562611e-01  6.349207e-01
     vertex -1.070018e+00 -4.068783e-01  6.349207e-01
     vertex -7.003528e-01 -2.883598e-01  6.349207e-01
   endloop
 endfacet
 facet normal  0.000000e+00  0.000000e+00  1.000000e+00
   outer loop
     vertex -7.003528e-01  1.490300e-01  6.349207e-01
     vertex -1.070018e+00  2.562611e-01  6.349207e-01
     vertex -7.003528e-01 -2.883598e-01  6.349207e-01
   endloop
 endfacet
 facet normal  0.000000e+00  0.000000e+00  1.000000e+00
   outer loop
     vertex  9.194004e-01 -4.068783e-01  6.349207e-01
     vertex  6.118166e-01 -2.883598e-01  6.349207e-01
     vertex -7.003528e-01 -2.883598e-01  6.349207e-01
   endloop
 endfacet
 facet normal  0.000000e+00  0.000000e+00  1.000000e+00
   outer loop
     vertex  9.194004e-01 -4.068783e-01  6.349207e-01
     vertex -7.003528e-01 -2.883598e-01  6.349207e-01
     vertex -1.070018e+00 -4.068783e-01  6.349207e-01
   endloop
 endfacet
 facet normal  0.000000e+00  0.000000e+00  1.000000e+00
   outer loop
     vertex  9.194004e-01  2.562611e-01  6.349207e-01
     vertex  6.118166e-01  1.490300e-01  6.349207e-01
     vertex  6.118166e-01 -2.883598e-01  6.349207e-01
   endloop
 endfacet
 facet normal  0.000000e+00  0.000000e+00  1.000000e+00
   outer loop
     vertex  9.194004e-01  2.562611e-01  6.349207e-01
     vertex  6.118166e-01 -2.883598e-01  6.349207e-01
     vertex  9.194004e-01 -4.068783e-01  6.349207e-01
   endloop
 endfacet
 facet normal  0.000000e+00  0.000000e+00  1.000000e+00
   outer loop
     vertex  9.194004e-01  2.562611e-01  6.349207e-01
     vertex -1.070018e+00  2.562611e-01  6.349207e-01
     vertex -7.003528e-01  1.490300e-01  6.349207e-01
   endloop
 endfacet
 facet normal  0.000000e+00  0.000000e+00  1.000000e+00
   outer loop
     vertex  9.194004e-01  2.562611e-01  6.349207e-01
     vertex -7.003528e-01  1.490300e-01  6.349207e-01
     vertex  6.118166e-01  1.490300e-01  6.349207e-01
   endloop
 endfacet
 facet normal  1.000000e+00  0.000000e+00  0.000000e+00
   outer loop
     vertex  9.194004e-01 -4.068783e-01 -1.587302e-02
     vertex  9.194004e-01  2.562611e-01 -1.587302e-02
     vertex  9.194004e-01  2.562611e-01  6.349207e-01
   endloop
 endfacet
 facet normal  1.000000e+00  0.000000e+00  0.000000e+00
   outer loop
     vertex  9.194004e-01 -4.068783e-01 -1.587302e-02
     vertex  9.194004e-01  2.562611e-01  6.349207e-01
     vertex  9.194004e-01 -4.068783e-01  6.349207e-01
   endloop
 endfacet
 facet normal  0.000000e+00 -1.000000e+00  0.000000e+00
   outer loop
     vertex -1.070018e+00 -4.068783e-01 -1.587302e-02
     vertex  9.194004e-01 -4.068783e-01 -3.174603e-02
     vertex  9.194004e-01 -4.068783e-01 -1.587302e-02
   endloop
 endfacet
 facet normal  0.000000e+00 -1.000000e+00  0.000000e+00
   outer loop
     vertex -1.070018e+00 -4.068783e-01 -1.587302e-02
     vertex -1.070018e+00 -4.068783e-01 -3.174603e-02
     vertex  9.194004e-01 -4.068783e-01 -3.174603e-02
   endloop
 endfacet
 facet normal  0.000000e+00  1.000000e+00  0.000000e+00
   outer loop
     vertex  9.194004e-01  2.562611e-01 -1.587302e-02
     vertex -1.070018e+00  2.562611e-01 -3.174603e-02
     vertex -1.070018e+00  2.562611e-01 -1.587302e-02
   endloop
 endfacet
 facet normal  0.000000e+00  1.000000e+00  0.000000e+00
   outer loop
     vertex  9.194004e-01  2.562611e-01 -1.587302e-02
     vertex  9.194004e-01  2.562611e-01 -3.174603e-02
     vertex -1.070018e+00  2.562611e-01 -3.174603e-02
   endloop
 endfacet
 facet normal  0.000000e+00 -0.000000e+00 -1.000000e+00
   outer loop
     vertex  9.194004e-01  2.562611e-01 -3.174603e-02
     vertex  9.194004e-01 -4.068783e-01 -3.174603e-02
     vertex -1.070018e+00 -4.068783e-01 -3.174603e-02
   endloop
 endfacet
 facet normal -0.000000e+00  0.000000e+00 -1.000000e+00
   outer loop
     vertex  9.194004e-01  2.562611e-01 -3.174603e-02
     vertex -1.070018e+00 -4.068783e-01 -3.174603e-02
     vertex -1.070018e+00  2.562611e-01 -3.174603e-02
   endloop
 endfacet
 facet normal -0.000000e+00  1.000000e+00  0.000000e+00
   outer loop
     vertex -7.003528e-01 -2.883598e-01  6.349207e-01
     vertex  6.118166e-01 -2.883598e-01  6.349207e-01
     vertex  6.118166e-01 -2.883598e-01  6.349210e-02
   endloop
 endfacet
 facet normal  0.000000e+00  1.000000e+00  0.000000e+00
   outer loop
     vertex -7.003528e-01 -2.883598e-01  6.349207e-01
     vertex  6.118166e-01 -2.883598e-01  6.349210e-02
     vertex -7.003528e-01 -2.883598e-01  6.349210e-02
   endloop
 endfacet
 facet normal -1.000000e+00  0.000000e+00  0.000000e+00
   outer loop
     vertex  6.118166e-01 -2.883598e-01  6.349207e-01
     vertex  6.118166e-01  1.490300e-01  6.349207e-01
     vertex  6.118166e-01  1.490300e-01  6.349210e-02
   endloop
 endfacet
 facet normal -1.000000e+00  0.000000e+00  0.000000e+00
   outer loop
     vertex  6.118166e-01 -2.883598e-01  6.349207e-01
     vertex  6.118166e-01  1.490300e-01  6.349210e-02
     vertex  6.118166e-01 -2.883598e-01  6.349210e-02
   endloop
 endfacet
 facet normal -0.000000e+00 -1.000000e+00  0.000000e+00
   outer loop
     vertex  6.118166e-01  1.490300e-01  6.349207e-01
     vertex -7.003528e-01  1.490300e-01  6.349207e-01
     vertex -7.003528e-01  1.490300e-01  6.349210e-02
   endloop
 endfacet
 facet normal  0.000000e+00 -1.000000e+00 -0.000000e+00
   outer loop
     vertex  6.118166e-01  1.490300e-01  6.349207e-01
     vertex -7.003528e-01  1.490300e-01  6.349210e-02
     vertex  6.118166e-01  1.490300e-01  6.349210e-02
   endloop
 endfacet
 facet normal  1.000000e+00  0.000000e+00  0.000000e+00
   outer loop
     vertex -7.003528e-01  1.490300e-01  6.349207e-01
     vertex -7.003528e-01 -2.883598e-01  6.349207e-01
     vertex -7.003528e-01 -2.883598e-01  6.349210e-02
   endloop
 endfacet
 facet normal  1.000000e+00  0.000000e+00  0.000000e+00
   outer loop
     vertex -7.003528e-01  1.490300e-01  6.349207e-01
     vertex -7.003528e-01 -2.883598e-01  6.349210e-02
     vertex -7.003528e-01  1.490300e-01  6.349210e-02
   endloop
 endfacet
 facet normal  1.000000e+00 -0.000000e+00  0.000000e+00
   outer loop
     vertex  9.194004e-01 -4.068783e-01 -1.587302e-02
     vertex  9.194004e-01  2.562611e-01 -3.174603e-02
     vertex  9.194004e-01  2.562611e-01 -1.587302e-02
   endloop
 endfacet
 facet normal  1.000000e+00  0.000000e+00  0.000000e+00
   outer loop
     vertex  9.194004e-01 -4.068783e-01 -1.587302e-02
     vertex  9.194004e-01 -4.068783e-01 -3.174603e-02
     vertex  9.194004e-01  2.562611e-01 -3.174603e-02
   endloop
 endfacet
 facet normal  0.000000e+00  0.000000e+00  1.000000e+00
   outer loop
     vertex  6.118166e-01  1.490300e-01  6.349210e-02
     vertex -7.003528e-01 -2.883598e-01  6.349210e-02
     vertex  6.118166e-01 -2.883598e-01  6.349210e-02
   endloop
 endfacet
 facet normal  0.000000e+00  0.000000e+00  1.000000e+00
   outer loop
     vertex  6.118166e-01  1.490300e-01  6.349210e-02
     vertex -7.003528e-01  1.490300e-01  6.349210e-02
     vertex -7.003528e-01 -2.883598e-01  6.349210e-02
   endloop
 endfacet
endsolid
