solid 
 facet normal  9.985827e-01  5.322217e-02  0.000000e+00
   outer loop
     vertex  7.587358e-01  2.555176e-01 -1.587302e-02
     vertex  7.606702e-01  2.192241e-01  3.174604e-01
     vertex  7.606702e-01  2.192241e-01 -1.587302e-02
   endloop
 endfacet
 facet normal  9.985827e-01  5.322217e-02 -0.000000e+00
   outer loop
     vertex  7.587358e-01  2.555176e-01 -1.587302e-02
     vertex  7.587358e-01  2.555176e-01  3.174604e-01
     vertex  7.606702e-01  2.192241e-01  3.174604e-01
   endloop
 endfacet
 facet normal  9.872684e-01  1.590635e-01 -0.000000e+00
   outer loop
     vertex  7.529547e-01  2.913999e-01 -1.587302e-02
     vertex  7.529547e-01  2.913999e-01  3.174604e-01
     vertex  7.587358e-01  2.555176e-01  3.174604e-01
   endloop
 endfacet
 facet normal  9.872684e-01  1.590635e-01  0.000000e+00
   outer loop
     vertex  7.529547e-01  2.913999e-01 -1.587302e-02
     vertex  7.587358e-01  2.555176e-01  3.174604e-01
     vertex  7.587358e-01  2.555176e-01 -1.587302e-02
   endloop
 endfacet
 facet normal  9.647679e-01  2.631026e-01 -0.000000e+00
   outer loop
     vertex  7.433922e-01  3.264644e-01 -1.587302e-02
     vertex  7.433922e-01  3.264644e-01  3.174604e-01
     vertex  7.529547e-01  2.913999e-01  3.174604e-01
   endloop
 endfacet
 facet normal  9.647679e-01  2.631026e-01  0.000000e+00
   outer loop
     vertex  7.433922e-01  3.264644e-01 -1.587302e-02
     vertex  7.529547e-01  2.913999e-01  3.174604e-01
     vertex  7.529547e-01  2.913999e-01 -1.587302e-02
   endloop
 endfacet
 facet normal  9.313362e-01  3.641606e-01 -0.000000e+00
   outer loop
     vertex  7.301568e-01  3.603138e-01 -1.587302e-02
     vertex  7.301568e-01  3.603138e-01  3.174604e-01
     vertex  7.433922e-01  3.264644e-01  3.174604e-01
   endloop
 endfacet
 facet normal  9.313362e-01  3.641606e-01  0.000000e+00
   outer loop
     vertex  7.301568e-01  3.603138e-01 -1.587302e-02
     vertex  7.433922e-01  3.264644e-01  3.174604e-01
     vertex  7.433922e-01  3.264644e-01 -1.587302e-02
   endloop
 endfacet
 facet normal  8.873521e-01  4.610925e-01 -0.000000e+00
   outer loop
     vertex  7.133984e-01  3.925646e-01 -1.587302e-02
     vertex  7.133984e-01  3.925646e-01  3.174604e-01
     vertex  7.301568e-01  3.603138e-01  3.174604e-01
   endloop
 endfacet
 facet normal  8.873521e-01  4.610925e-01  0.000000e+00
   outer loop
     vertex  7.133984e-01  3.925646e-01 -1.587302e-02
     vertex  7.301568e-01  3.603138e-01  3.174604e-01
     vertex  7.301568e-01  3.603138e-01 -1.587302e-02
   endloop
 endfacet
 facet normal  8.333139e-01  5.528001e-01 -0.000000e+00
   outer loop
     vertex  6.933068e-01  4.228514e-01 -1.587302e-02
     vertex  6.933068e-01  4.228514e-01  3.174604e-01
     vertex  7.133984e-01  3.925646e-01  3.174604e-01
   endloop
 endfacet
 facet normal  8.333139e-01  5.528001e-01  0.000000e+00
   outer loop
     vertex  6.933068e-01  4.228514e-01 -1.587302e-02
     vertex  7.133984e-01  3.925646e-01  3.174604e-01
     vertex  7.133984e-01  3.925646e-01 -1.587302e-02
   endloop
 endfacet
 facet normal  7.698340e-01  6.382442e-01 -0.000000e+00
   outer loop
     vertex  6.701098e-01  4.508311e-01 -1.587302e-02
     vertex  6.701098e-01  4.508311e-01  3.174604e-01
     vertex  6.933068e-01  4.228514e-01  3.174604e-01
   endloop
 endfacet
 facet normal  7.698340e-01  6.382442e-01  0.000000e+00
   outer loop
     vertex  6.701098e-01  4.508311e-01 -1.587302e-02
     vertex  6.933068e-01  4.228514e-01  3.174604e-01
     vertex  6.933068e-01  4.228514e-01 -1.587302e-02
   endloop
 endfacet
 facet normal  6.976315e-01  7.164567e-01 -0.000000e+00
   outer loop
     vertex  6.440702e-01  4.761865e-01 -1.587302e-02
     vertex  6.440702e-01  4.761865e-01  3.174604e-01
     vertex  6.701098e-01  4.508311e-01  3.174604e-01
   endloop
 endfacet
 facet normal  6.976315e-01  7.164567e-01  0.000000e+00
   outer loop
     vertex  6.440702e-01  4.761865e-01 -1.587302e-02
     vertex  6.701098e-01  4.508311e-01  3.174604e-01
     vertex  6.701098e-01  4.508311e-01 -1.587302e-02
   endloop
 endfacet
 facet normal  6.175246e-01  7.865516e-01 -0.000000e+00
   outer loop
     vertex  6.154830e-01  4.986304e-01 -1.587302e-02
     vertex  6.154830e-01  4.986304e-01  3.174604e-01
     vertex  6.440702e-01  4.761865e-01  3.174604e-01
   endloop
 endfacet
 facet normal  5.304209e-01  8.477344e-01 -0.000000e+00
   outer loop
     vertex  6.154830e-01  4.986304e-01 -1.587302e-02
     vertex  5.846721e-01  5.179086e-01  3.174604e-01
     vertex  6.154830e-01  4.986304e-01  3.174604e-01
   endloop
 endfacet
 facet normal  6.175246e-01  7.865516e-01  0.000000e+00
   outer loop
     vertex  6.154830e-01  4.986304e-01 -1.587302e-02
     vertex  6.440702e-01  4.761865e-01  3.174604e-01
     vertex  6.440702e-01  4.761865e-01 -1.587302e-02
   endloop
 endfacet
 facet normal  5.304209e-01  8.477344e-01 -0.000000e+00
   outer loop
     vertex  5.846721e-01  5.179086e-01 -1.587302e-02
     vertex  5.846721e-01  5.179086e-01  3.174604e-01
     vertex  6.154830e-01  4.986304e-01 -1.587302e-02
   endloop
 endfacet
 facet normal  4.373073e-01  8.993121e-01 -0.000000e+00
   outer loop
     vertex  5.519865e-01  5.338026e-01 -1.587302e-02
     vertex  5.519865e-01  5.338026e-01  3.174604e-01
     vertex  5.846721e-01  5.179086e-01  3.174604e-01
   endloop
 endfacet
 facet normal  4.373073e-01  8.993121e-01  0.000000e+00
   outer loop
     vertex  5.519865e-01  5.338026e-01 -1.587302e-02
     vertex  5.846721e-01  5.179086e-01  3.174604e-01
     vertex  5.846721e-01  5.179086e-01 -1.587302e-02
   endloop
 endfacet
 facet normal  3.392389e-01  9.407003e-01 -0.000000e+00
   outer loop
     vertex  5.177968e-01  5.461322e-01 -1.587302e-02
     vertex  5.177968e-01  5.461322e-01  3.174604e-01
     vertex  5.519865e-01  5.338026e-01  3.174604e-01
   endloop
 endfacet
 facet normal  3.392389e-01  9.407003e-01  0.000000e+00
   outer loop
     vertex  5.177968e-01  5.461322e-01 -1.587302e-02
     vertex  5.519865e-01  5.338026e-01  3.174604e-01
     vertex  5.519865e-01  5.338026e-01 -1.587302e-02
   endloop
 endfacet
 facet normal  2.373267e-01  9.714299e-01 -0.000000e+00
   outer loop
     vertex  4.824901e-01  5.547578e-01 -1.587302e-02
     vertex  4.824901e-01  5.547578e-01  3.174604e-01
     vertex  5.177968e-01  5.461322e-01  3.174604e-01
   endloop
 endfacet
 facet normal  2.373267e-01  9.714299e-01  0.000000e+00
   outer loop
     vertex  4.824901e-01  5.547578e-01 -1.587302e-02
     vertex  5.177968e-01  5.461322e-01  3.174604e-01
     vertex  5.177968e-01  5.461322e-01 -1.587302e-02
   endloop
 endfacet
 facet normal  1.327255e-01  9.911528e-01 -0.000000e+00
   outer loop
     vertex  4.464667e-01  5.595818e-01 -1.587302e-02
     vertex  4.464667e-01  5.595818e-01  3.174604e-01
     vertex  4.824901e-01  5.547578e-01  3.174604e-01
   endloop
 endfacet
 facet normal  1.327255e-01  9.911528e-01  0.000000e+00
   outer loop
     vertex  4.464667e-01  5.595818e-01 -1.587302e-02
     vertex  4.824901e-01  5.547578e-01  3.174604e-01
     vertex  4.824901e-01  5.547578e-01 -1.587302e-02
   endloop
 endfacet
 facet normal  2.662052e-02  9.996456e-01 -0.000000e+00
   outer loop
     vertex  4.101345e-01  5.605493e-01 -1.587302e-02
     vertex  4.101345e-01  5.605493e-01  3.174604e-01
     vertex  4.464667e-01  5.595818e-01  3.174604e-01
   endloop
 endfacet
 facet normal  2.662052e-02  9.996456e-01  0.000000e+00
   outer loop
     vertex  4.101345e-01  5.605493e-01 -1.587302e-02
     vertex  4.464667e-01  5.595818e-01  3.174604e-01
     vertex  4.464667e-01  5.595818e-01 -1.587302e-02
   endloop
 endfacet
 facet normal -7.978611e-02  9.968120e-01  0.000000e+00
   outer loop
     vertex  3.739054e-01  5.576494e-01 -1.587302e-02
     vertex  3.739054e-01  5.576494e-01  3.174604e-01
     vertex  4.101345e-01  5.605493e-01  3.174604e-01
   endloop
 endfacet
 facet normal -7.978611e-02  9.968120e-01  0.000000e+00
   outer loop
     vertex  3.739054e-01  5.576494e-01 -1.587302e-02
     vertex  4.101345e-01  5.605493e-01  3.174604e-01
     vertex  4.101345e-01  5.605493e-01 -1.587302e-02
   endloop
 endfacet
 facet normal -1.852887e-01  9.826841e-01  0.000000e+00
   outer loop
     vertex  3.381897e-01  5.509151e-01 -1.587302e-02
     vertex  3.381897e-01  5.509151e-01  3.174604e-01
     vertex  3.739054e-01  5.576494e-01  3.174604e-01
   endloop
 endfacet
 facet normal -1.852887e-01  9.826841e-01  0.000000e+00
   outer loop
     vertex  3.381897e-01  5.509151e-01 -1.587302e-02
     vertex  3.739054e-01  5.576494e-01  3.174604e-01
     vertex  3.739054e-01  5.576494e-01 -1.587302e-02
   endloop
 endfacet
 facet normal -2.886919e-01  9.574220e-01  0.000000e+00
   outer loop
     vertex  3.033922e-01  5.404226e-01 -1.587302e-02
     vertex  3.033922e-01  5.404226e-01  3.174604e-01
     vertex  3.381897e-01  5.509151e-01  3.174604e-01
   endloop
 endfacet
 facet normal -2.886919e-01  9.574220e-01  0.000000e+00
   outer loop
     vertex  3.033922e-01  5.404226e-01 -1.587302e-02
     vertex  3.381897e-01  5.509151e-01  3.174604e-01
     vertex  3.381897e-01  5.509151e-01 -1.587302e-02
   endloop
 endfacet
 facet normal -3.888242e-01  9.213120e-01  0.000000e+00
   outer loop
     vertex  2.699071e-01  5.262908e-01 -1.587302e-02
     vertex  2.699071e-01  5.262908e-01  3.174604e-01
     vertex  3.033922e-01  5.404226e-01  3.174604e-01
   endloop
 endfacet
 facet normal -4.845509e-01  8.747631e-01  0.000000e+00
   outer loop
     vertex  2.699071e-01  5.262908e-01 -1.587302e-02
     vertex  2.381138e-01  5.086798e-01  3.174604e-01
     vertex  2.699071e-01  5.262908e-01  3.174604e-01
   endloop
 endfacet
 facet normal -3.888242e-01  9.213120e-01  0.000000e+00
   outer loop
     vertex  2.699071e-01  5.262908e-01 -1.587302e-02
     vertex  3.033922e-01  5.404226e-01  3.174604e-01
     vertex  3.033922e-01  5.404226e-01 -1.587302e-02
   endloop
 endfacet
 facet normal -4.845509e-01  8.747631e-01  0.000000e+00
   outer loop
     vertex  2.381138e-01  5.086798e-01 -1.587302e-02
     vertex  2.381138e-01  5.086798e-01  3.174604e-01
     vertex  2.699071e-01  5.262908e-01 -1.587302e-02
   endloop
 endfacet
 facet normal -5.747874e-01  8.183028e-01  0.000000e+00
   outer loop
     vertex  2.083725e-01  4.877891e-01 -1.587302e-02
     vertex  2.381138e-01  5.086798e-01  3.174604e-01
     vertex  2.381138e-01  5.086798e-01 -1.587302e-02
   endloop
 endfacet
 facet normal -5.747874e-01  8.183028e-01  0.000000e+00
   outer loop
     vertex  2.083725e-01  4.877891e-01 -1.587302e-02
     vertex  2.083725e-01  4.877891e-01  3.174604e-01
     vertex  2.381138e-01  5.086798e-01  3.174604e-01
   endloop
 endfacet
 facet normal -6.585114e-01  7.525708e-01  0.000000e+00
   outer loop
     vertex  2.083725e-01  4.877891e-01 -1.587302e-02
     vertex  1.810203e-01  4.638555e-01  3.174604e-01
     vertex  2.083725e-01  4.877891e-01  3.174604e-01
   endloop
 endfacet
 facet normal -6.585114e-01  7.525708e-01  0.000000e+00
   outer loop
     vertex  1.810203e-01  4.638555e-01 -1.587302e-02
     vertex  1.810203e-01  4.638555e-01  3.174604e-01
     vertex  2.083725e-01  4.877891e-01 -1.587302e-02
   endloop
 endfacet
 facet normal -7.347742e-01  6.783118e-01  0.000000e+00
   outer loop
     vertex  1.563671e-01  4.371501e-01 -1.587302e-02
     vertex  1.810203e-01  4.638555e-01  3.174604e-01
     vertex  1.810203e-01  4.638555e-01 -1.587302e-02
   endloop
 endfacet
 facet normal -7.347742e-01  6.783118e-01  0.000000e+00
   outer loop
     vertex  1.563671e-01  4.371501e-01 -1.587302e-02
     vertex  1.563671e-01  4.371501e-01  3.174604e-01
     vertex  1.810203e-01  4.638555e-01  3.174604e-01
   endloop
 endfacet
 facet normal -8.027116e-01  5.963674e-01  0.000000e+00
   outer loop
     vertex  1.346921e-01  4.079756e-01 -1.587302e-02
     vertex  1.563671e-01  4.371501e-01  3.174604e-01
     vertex  1.563671e-01  4.371501e-01 -1.587302e-02
   endloop
 endfacet
 facet normal -8.027116e-01  5.963674e-01  0.000000e+00
   outer loop
     vertex  1.346921e-01  4.079756e-01 -1.587302e-02
     vertex  1.346921e-01  4.079756e-01  3.174604e-01
     vertex  1.563671e-01  4.371501e-01  3.174604e-01
   endloop
 endfacet
 facet normal -8.615541e-01  5.076658e-01  0.000000e+00
   outer loop
     vertex  1.162410e-01  3.766624e-01 -1.587302e-02
     vertex  1.346921e-01  4.079756e-01  3.174604e-01
     vertex  1.346921e-01  4.079756e-01 -1.587302e-02
   endloop
 endfacet
 facet normal -8.615541e-01  5.076658e-01  0.000000e+00
   outer loop
     vertex  1.162410e-01  3.766624e-01 -1.587302e-02
     vertex  1.162410e-01  3.766624e-01  3.174604e-01
     vertex  1.346921e-01  4.079756e-01  3.174604e-01
   endloop
 endfacet
 facet normal -9.106348e-01  4.132122e-01  0.000000e+00
   outer loop
     vertex  1.162410e-01  3.766624e-01 -1.587302e-02
     vertex  1.012228e-01  3.435653e-01  3.174604e-01
     vertex  1.162410e-01  3.766624e-01  3.174604e-01
   endloop
 endfacet
 facet normal -9.106348e-01  4.132122e-01  0.000000e+00
   outer loop
     vertex  1.012228e-01  3.435653e-01 -1.587302e-02
     vertex  1.012228e-01  3.435653e-01  3.174604e-01
     vertex  1.162410e-01  3.766624e-01 -1.587302e-02
   endloop
 endfacet
 facet normal -9.493976e-01  3.140767e-01  0.000000e+00
   outer loop
     vertex  8.980765e-02  3.090594e-01 -1.587302e-02
     vertex  8.980765e-02  3.090594e-01  3.174604e-01
     vertex  1.012228e-01  3.435653e-01  3.174604e-01
   endloop
 endfacet
 facet normal -9.493976e-01  3.140767e-01  0.000000e+00
   outer loop
     vertex  8.980765e-02  3.090594e-01 -1.587302e-02
     vertex  1.012228e-01  3.435653e-01  3.174604e-01
     vertex  1.012228e-01  3.435653e-01 -1.587302e-02
   endloop
 endfacet
 facet normal -9.774034e-01  2.113826e-01  0.000000e+00
   outer loop
     vertex  8.212495e-02  2.735357e-01 -1.587302e-02
     vertex  8.212495e-02  2.735357e-01  3.174604e-01
     vertex  8.980765e-02  3.090594e-01  3.174604e-01
   endloop
 endfacet
 facet normal -9.774034e-01  2.113826e-01  0.000000e+00
   outer loop
     vertex  8.212495e-02  2.735357e-01 -1.587302e-02
     vertex  8.980765e-02  3.090594e-01  3.174604e-01
     vertex  8.980765e-02  3.090594e-01 -1.587302e-02
   endloop
 endfacet
 facet normal -9.943348e-01  1.062935e-01  0.000000e+00
   outer loop
     vertex  7.826171e-02  2.373966e-01 -1.587302e-02
     vertex  7.826171e-02  2.373966e-01  3.174604e-01
     vertex  8.212495e-02  2.735357e-01  3.174604e-01
   endloop
 endfacet
 facet normal -1.000000e+00  1.527339e-15  0.000000e+00
   outer loop
     vertex  7.826171e-02  2.373966e-01 -1.587302e-02
     vertex  7.826171e-02  2.010516e-01  3.174604e-01
     vertex  7.826171e-02  2.373966e-01  3.174604e-01
   endloop
 endfacet
 facet normal -9.943348e-01  1.062935e-01  0.000000e+00
   outer loop
     vertex  7.826171e-02  2.373966e-01 -1.587302e-02
     vertex  8.212495e-02  2.735357e-01  3.174604e-01
     vertex  8.212495e-02  2.735357e-01 -1.587302e-02
   endloop
 endfacet
 facet normal -1.000000e+00  1.527339e-15  0.000000e+00
   outer loop
     vertex  7.826171e-02  2.010516e-01 -1.587302e-02
     vertex  7.826171e-02  2.010516e-01  3.174604e-01
     vertex  7.826171e-02  2.373966e-01 -1.587302e-02
   endloop
 endfacet
 facet normal -9.943348e-01 -1.062935e-01  0.000000e+00
   outer loop
     vertex  8.212495e-02  1.649124e-01 -1.587302e-02
     vertex  8.212495e-02  1.649124e-01  3.174604e-01
     vertex  7.826171e-02  2.010516e-01  3.174604e-01
   endloop
 endfacet
 facet normal -9.943348e-01 -1.062935e-01  0.000000e+00
   outer loop
     vertex  8.212495e-02  1.649124e-01 -1.587302e-02
     vertex  7.826171e-02  2.010516e-01  3.174604e-01
     vertex  7.826171e-02  2.010516e-01 -1.587302e-02
   endloop
 endfacet
 facet normal -9.774034e-01 -2.113826e-01  0.000000e+00
   outer loop
     vertex  8.980765e-02  1.293887e-01 -1.587302e-02
     vertex  8.980765e-02  1.293887e-01  3.174604e-01
     vertex  8.212495e-02  1.649124e-01  3.174604e-01
   endloop
 endfacet
 facet normal -9.493976e-01 -3.140767e-01  0.000000e+00
   outer loop
     vertex  8.980765e-02  1.293887e-01 -1.587302e-02
     vertex  1.012228e-01  9.488281e-02  3.174604e-01
     vertex  8.980765e-02  1.293887e-01  3.174604e-01
   endloop
 endfacet
 facet normal -9.774034e-01 -2.113826e-01  0.000000e+00
   outer loop
     vertex  8.980765e-02  1.293887e-01 -1.587302e-02
     vertex  8.212495e-02  1.649124e-01  3.174604e-01
     vertex  8.212495e-02  1.649124e-01 -1.587302e-02
   endloop
 endfacet
 facet normal -9.106348e-01 -4.132122e-01  0.000000e+00
   outer loop
     vertex  1.012228e-01  9.488281e-02 -1.587302e-02
     vertex  1.162410e-01  6.178577e-02  3.174604e-01
     vertex  1.012228e-01  9.488281e-02  3.174604e-01
   endloop
 endfacet
 facet normal -9.493976e-01 -3.140767e-01  0.000000e+00
   outer loop
     vertex  1.012228e-01  9.488281e-02 -1.587302e-02
     vertex  1.012228e-01  9.488281e-02  3.174604e-01
     vertex  8.980765e-02  1.293887e-01 -1.587302e-02
   endloop
 endfacet
 facet normal -9.106348e-01 -4.132122e-01  0.000000e+00
   outer loop
     vertex  1.162410e-01  6.178577e-02 -1.587302e-02
     vertex  1.162410e-01  6.178577e-02  3.174604e-01
     vertex  1.012228e-01  9.488281e-02 -1.587302e-02
   endloop
 endfacet
 facet normal -8.615541e-01 -5.076658e-01  0.000000e+00
   outer loop
     vertex  1.346921e-01  3.047257e-02 -1.587302e-02
     vertex  1.346921e-01  3.047257e-02  3.174604e-01
     vertex  1.162410e-01  6.178577e-02  3.174604e-01
   endloop
 endfacet
 facet normal -8.615541e-01 -5.076658e-01  0.000000e+00
   outer loop
     vertex  1.346921e-01  3.047257e-02 -1.587302e-02
     vertex  1.162410e-01  6.178577e-02  3.174604e-01
     vertex  1.162410e-01  6.178577e-02 -1.587302e-02
   endloop
 endfacet
 facet normal -8.027116e-01 -5.963674e-01  0.000000e+00
   outer loop
     vertex  1.563671e-01  1.298000e-03 -1.587302e-02
     vertex  1.563671e-01  1.298000e-03  3.174604e-01
     vertex  1.346921e-01  3.047257e-02  3.174604e-01
   endloop
 endfacet
 facet normal -7.347742e-01 -6.783118e-01  0.000000e+00
   outer loop
     vertex  1.563671e-01  1.298000e-03 -1.587302e-02
     vertex  1.810203e-01 -2.540738e-02  3.174604e-01
     vertex  1.563671e-01  1.298000e-03  3.174604e-01
   endloop
 endfacet
 facet normal -8.027116e-01 -5.963674e-01  0.000000e+00
   outer loop
     vertex  1.563671e-01  1.298000e-03 -1.587302e-02
     vertex  1.346921e-01  3.047257e-02  3.174604e-01
     vertex  1.346921e-01  3.047257e-02 -1.587302e-02
   endloop
 endfacet
 facet normal -7.347742e-01 -6.783118e-01  0.000000e+00
   outer loop
     vertex  1.810203e-01 -2.540738e-02 -1.587302e-02
     vertex  1.810203e-01 -2.540738e-02  3.174604e-01
     vertex  1.563671e-01  1.298000e-03 -1.587302e-02
   endloop
 endfacet
 facet normal -6.585114e-01 -7.525708e-01  0.000000e+00
   outer loop
     vertex  2.083725e-01 -4.934099e-02 -1.587302e-02
     vertex  2.083725e-01 -4.934099e-02  3.174604e-01
     vertex  1.810203e-01 -2.540738e-02  3.174604e-01
   endloop
 endfacet
 facet normal -6.585114e-01 -7.525708e-01  0.000000e+00
   outer loop
     vertex  2.083725e-01 -4.934099e-02 -1.587302e-02
     vertex  1.810203e-01 -2.540738e-02  3.174604e-01
     vertex  1.810203e-01 -2.540738e-02 -1.587302e-02
   endloop
 endfacet
 facet normal -5.747874e-01 -8.183028e-01  0.000000e+00
   outer loop
     vertex  2.381138e-01 -7.023165e-02 -1.587302e-02
     vertex  2.381138e-01 -7.023165e-02  3.174604e-01
     vertex  2.083725e-01 -4.934099e-02  3.174604e-01
   endloop
 endfacet
 facet normal -4.845509e-01 -8.747631e-01  0.000000e+00
   outer loop
     vertex  2.381138e-01 -7.023165e-02 -1.587302e-02
     vertex  2.699071e-01 -8.784266e-02  3.174604e-01
     vertex  2.381138e-01 -7.023165e-02  3.174604e-01
   endloop
 endfacet
 facet normal -5.747874e-01 -8.183028e-01  0.000000e+00
   outer loop
     vertex  2.381138e-01 -7.023165e-02 -1.587302e-02
     vertex  2.083725e-01 -4.934099e-02  3.174604e-01
     vertex  2.083725e-01 -4.934099e-02 -1.587302e-02
   endloop
 endfacet
 facet normal -4.845509e-01 -8.747631e-01  0.000000e+00
   outer loop
     vertex  2.699071e-01 -8.784266e-02 -1.587302e-02
     vertex  2.699071e-01 -8.784266e-02  3.174604e-01
     vertex  2.381138e-01 -7.023165e-02 -1.587302e-02
   endloop
 endfacet
 facet normal -3.888242e-01 -9.213120e-01  0.000000e+00
   outer loop
     vertex  3.033922e-01 -1.019745e-01 -1.587302e-02
     vertex  3.033922e-01 -1.019745e-01  3.174604e-01
     vertex  2.699071e-01 -8.784266e-02  3.174604e-01
   endloop
 endfacet
 facet normal -3.888242e-01 -9.213120e-01  0.000000e+00
   outer loop
     vertex  3.033922e-01 -1.019745e-01 -1.587302e-02
     vertex  2.699071e-01 -8.784266e-02  3.174604e-01
     vertex  2.699071e-01 -8.784266e-02 -1.587302e-02
   endloop
 endfacet
 facet normal -2.886919e-01 -9.574220e-01  0.000000e+00
   outer loop
     vertex  3.381897e-01 -1.124670e-01 -1.587302e-02
     vertex  3.381897e-01 -1.124670e-01  3.174604e-01
     vertex  3.033922e-01 -1.019745e-01  3.174604e-01
   endloop
 endfacet
 facet normal -2.886919e-01 -9.574220e-01  0.000000e+00
   outer loop
     vertex  3.381897e-01 -1.124670e-01 -1.587302e-02
     vertex  3.033922e-01 -1.019745e-01  3.174604e-01
     vertex  3.033922e-01 -1.019745e-01 -1.587302e-02
   endloop
 endfacet
 facet normal -1.852887e-01 -9.826841e-01  0.000000e+00
   outer loop
     vertex  3.739054e-01 -1.192013e-01 -1.587302e-02
     vertex  3.739054e-01 -1.192013e-01  3.174604e-01
     vertex  3.381897e-01 -1.124670e-01  3.174604e-01
   endloop
 endfacet
 facet normal -1.852887e-01 -9.826841e-01  0.000000e+00
   outer loop
     vertex  3.739054e-01 -1.192013e-01 -1.587302e-02
     vertex  3.381897e-01 -1.124670e-01  3.174604e-01
     vertex  3.381897e-01 -1.124670e-01 -1.587302e-02
   endloop
 endfacet
 facet normal -7.978611e-02 -9.968120e-01  0.000000e+00
   outer loop
     vertex  4.101345e-01 -1.221012e-01 -1.587302e-02
     vertex  4.101345e-01 -1.221012e-01  3.174604e-01
     vertex  3.739054e-01 -1.192013e-01  3.174604e-01
   endloop
 endfacet
 facet normal -7.978611e-02 -9.968120e-01  0.000000e+00
   outer loop
     vertex  4.101345e-01 -1.221012e-01 -1.587302e-02
     vertex  3.739054e-01 -1.192013e-01  3.174604e-01
     vertex  3.739054e-01 -1.192013e-01 -1.587302e-02
   endloop
 endfacet
 facet normal  2.662052e-02 -9.996456e-01  0.000000e+00
   outer loop
     vertex  4.464667e-01 -1.211336e-01 -1.587302e-02
     vertex  4.101345e-01 -1.221012e-01  3.174604e-01
     vertex  4.101345e-01 -1.221012e-01 -1.587302e-02
   endloop
 endfacet
 facet normal  2.662052e-02 -9.996456e-01  0.000000e+00
   outer loop
     vertex  4.464667e-01 -1.211336e-01 -1.587302e-02
     vertex  4.464667e-01 -1.211336e-01  3.174604e-01
     vertex  4.101345e-01 -1.221012e-01  3.174604e-01
   endloop
 endfacet
 facet normal  1.327255e-01 -9.911528e-01  0.000000e+00
   outer loop
     vertex  4.824901e-01 -1.163097e-01 -1.587302e-02
     vertex  4.464667e-01 -1.211336e-01  3.174604e-01
     vertex  4.464667e-01 -1.211336e-01 -1.587302e-02
   endloop
 endfacet
 facet normal  1.327255e-01 -9.911528e-01  0.000000e+00
   outer loop
     vertex  4.824901e-01 -1.163097e-01 -1.587302e-02
     vertex  4.824901e-01 -1.163097e-01  3.174604e-01
     vertex  4.464667e-01 -1.211336e-01  3.174604e-01
   endloop
 endfacet
 facet normal  2.373267e-01 -9.714299e-01  0.000000e+00
   outer loop
     vertex  4.824901e-01 -1.163097e-01 -1.587302e-02
     vertex  5.177968e-01 -1.076841e-01  3.174604e-01
     vertex  4.824901e-01 -1.163097e-01  3.174604e-01
   endloop
 endfacet
 facet normal  2.373267e-01 -9.714299e-01  0.000000e+00
   outer loop
     vertex  5.177968e-01 -1.076841e-01 -1.587302e-02
     vertex  5.177968e-01 -1.076841e-01  3.174604e-01
     vertex  4.824901e-01 -1.163097e-01 -1.587302e-02
   endloop
 endfacet
 facet normal  3.392389e-01 -9.407003e-01  0.000000e+00
   outer loop
     vertex  5.519865e-01 -9.535443e-02 -1.587302e-02
     vertex  5.177968e-01 -1.076841e-01  3.174604e-01
     vertex  5.177968e-01 -1.076841e-01 -1.587302e-02
   endloop
 endfacet
 facet normal  3.392389e-01 -9.407003e-01  0.000000e+00
   outer loop
     vertex  5.519865e-01 -9.535443e-02 -1.587302e-02
     vertex  5.519865e-01 -9.535443e-02  3.174604e-01
     vertex  5.177968e-01 -1.076841e-01  3.174604e-01
   endloop
 endfacet
 facet normal  4.373073e-01 -8.993121e-01  0.000000e+00
   outer loop
     vertex  5.846721e-01 -7.946048e-02 -1.587302e-02
     vertex  5.519865e-01 -9.535443e-02  3.174604e-01
     vertex  5.519865e-01 -9.535443e-02 -1.587302e-02
   endloop
 endfacet
 facet normal  4.373073e-01 -8.993121e-01  0.000000e+00
   outer loop
     vertex  5.846721e-01 -7.946048e-02 -1.587302e-02
     vertex  5.846721e-01 -7.946048e-02  3.174604e-01
     vertex  5.519865e-01 -9.535443e-02  3.174604e-01
   endloop
 endfacet
 facet normal  5.304209e-01 -8.477344e-01  0.000000e+00
   outer loop
     vertex  5.846721e-01 -7.946048e-02 -1.587302e-02
     vertex  6.154830e-01 -6.018232e-02  3.174604e-01
     vertex  5.846721e-01 -7.946048e-02  3.174604e-01
   endloop
 endfacet
 facet normal  5.304209e-01 -8.477344e-01  0.000000e+00
   outer loop
     vertex  6.154830e-01 -6.018232e-02 -1.587302e-02
     vertex  6.154830e-01 -6.018232e-02  3.174604e-01
     vertex  5.846721e-01 -7.946048e-02 -1.587302e-02
   endloop
 endfacet
 facet normal  6.175246e-01 -7.865516e-01  0.000000e+00
   outer loop
     vertex  6.440702e-01 -3.773838e-02 -1.587302e-02
     vertex  6.154830e-01 -6.018232e-02  3.174604e-01
     vertex  6.154830e-01 -6.018232e-02 -1.587302e-02
   endloop
 endfacet
 facet normal  6.175246e-01 -7.865516e-01  0.000000e+00
   outer loop
     vertex  6.440702e-01 -3.773838e-02 -1.587302e-02
     vertex  6.440702e-01 -3.773838e-02  3.174604e-01
     vertex  6.154830e-01 -6.018232e-02  3.174604e-01
   endloop
 endfacet
 facet normal  6.976315e-01 -7.164567e-01  0.000000e+00
   outer loop
     vertex  6.440702e-01 -3.773838e-02 -1.587302e-02
     vertex  6.701098e-01 -1.238295e-02  3.174604e-01
     vertex  6.440702e-01 -3.773838e-02  3.174604e-01
   endloop
 endfacet
 facet normal  6.976315e-01 -7.164567e-01  0.000000e+00
   outer loop
     vertex  6.701098e-01 -1.238295e-02 -1.587302e-02
     vertex  6.701098e-01 -1.238295e-02  3.174604e-01
     vertex  6.440702e-01 -3.773838e-02 -1.587302e-02
   endloop
 endfacet
 facet normal  7.698340e-01 -6.382442e-01  0.000000e+00
   outer loop
     vertex  6.933068e-01  1.559668e-02 -1.587302e-02
     vertex  6.701098e-01 -1.238295e-02  3.174604e-01
     vertex  6.701098e-01 -1.238295e-02 -1.587302e-02
   endloop
 endfacet
 facet normal  7.698340e-01 -6.382442e-01  0.000000e+00
   outer loop
     vertex  6.933068e-01  1.559668e-02 -1.587302e-02
     vertex  6.933068e-01  1.559668e-02  3.174604e-01
     vertex  6.701098e-01 -1.238295e-02  3.174604e-01
   endloop
 endfacet
 facet normal  8.333139e-01 -5.528001e-01  0.000000e+00
   outer loop
     vertex  7.133984e-01  4.588350e-02 -1.587302e-02
     vertex  6.933068e-01  1.559668e-02  3.174604e-01
     vertex  6.933068e-01  1.559668e-02 -1.587302e-02
   endloop
 endfacet
 facet normal  8.333139e-01 -5.528001e-01  0.000000e+00
   outer loop
     vertex  7.133984e-01  4.588350e-02 -1.587302e-02
     vertex  7.133984e-01  4.588350e-02  3.174604e-01
     vertex  6.933068e-01  1.559668e-02  3.174604e-01
   endloop
 endfacet
 facet normal  8.873521e-01 -4.610925e-01  0.000000e+00
   outer loop
     vertex  7.133984e-01  4.588350e-02 -1.587302e-02
     vertex  7.301568e-01  7.813432e-02  3.174604e-01
     vertex  7.133984e-01  4.588350e-02  3.174604e-01
   endloop
 endfacet
 facet normal  8.873521e-01 -4.610925e-01  0.000000e+00
   outer loop
     vertex  7.301568e-01  7.813432e-02 -1.587302e-02
     vertex  7.301568e-01  7.813432e-02  3.174604e-01
     vertex  7.133984e-01  4.588350e-02 -1.587302e-02
   endloop
 endfacet
 facet normal  9.313362e-01 -3.641606e-01  0.000000e+00
   outer loop
     vertex  7.433922e-01  1.119838e-01 -1.587302e-02
     vertex  7.301568e-01  7.813432e-02  3.174604e-01
     vertex  7.301568e-01  7.813432e-02 -1.587302e-02
   endloop
 endfacet
 facet normal  9.313362e-01 -3.641606e-01  0.000000e+00
   outer loop
     vertex  7.433922e-01  1.119838e-01 -1.587302e-02
     vertex  7.433922e-01  1.119838e-01  3.174604e-01
     vertex  7.301568e-01  7.813432e-02  3.174604e-01
   endloop
 endfacet
 facet normal  9.647679e-01 -2.631026e-01  0.000000e+00
   outer loop
     vertex  7.529547e-01  1.470483e-01 -1.587302e-02
     vertex  7.433922e-01  1.119838e-01  3.174604e-01
     vertex  7.433922e-01  1.119838e-01 -1.587302e-02
   endloop
 endfacet
 facet normal  9.647679e-01 -2.631026e-01  0.000000e+00
   outer loop
     vertex  7.529547e-01  1.470483e-01 -1.587302e-02
     vertex  7.529547e-01  1.470483e-01  3.174604e-01
     vertex  7.433922e-01  1.119838e-01  3.174604e-01
   endloop
 endfacet
 facet normal  9.872684e-01 -1.590635e-01  0.000000e+00
   outer loop
     vertex  7.587358e-01  1.829306e-01 -1.587302e-02
     vertex  7.529547e-01  1.470483e-01  3.174604e-01
     vertex  7.529547e-01  1.470483e-01 -1.587302e-02
   endloop
 endfacet
 facet normal  9.872684e-01 -1.590635e-01  0.000000e+00
   outer loop
     vertex  7.587358e-01  1.829306e-01 -1.587302e-02
     vertex  7.587358e-01  1.829306e-01  3.174604e-01
     vertex  7.529547e-01  1.470483e-01  3.174604e-01
   endloop
 endfacet
 facet normal  9.985827e-01 -5.322217e-02  0.000000e+00
   outer loop
     vertex  7.587358e-01  1.829306e-01 -1.587302e-02
     vertex  7.606702e-01  2.192241e-01  3.174604e-01
     vertex  7.587358e-01  1.829306e-01  3.174604e-01
   endloop
 endfacet
 facet normal  9.985827e-01 -5.322217e-02  0.000000e+00
   outer loop
     vertex  7.606702e-01  2.192241e-01 -1.587302e-02
     vertex  7.606702e-01  2.192241e-01  3.174604e-01
     vertex  7.587358e-01  1.829306e-01 -1.587302e-02
   endloop
 endfacet
 facet normal  9.985827e-01  5.322217e-02  0.000000e+00
   outer loop
     vertex  7.587358e-01  2.555176e-01 -1.587302e-02
     vertex  7.606702e-01  2.192241e-01 -1.587302e-02
     vertex  7.606702e-01  2.192241e-01 -3.174603e-02
   endloop
 endfacet
 facet normal  9.985827e-01  5.322217e-02  0.000000e+00
   outer loop
     vertex  7.587358e-01  2.555176e-01 -1.587302e-02
     vertex  7.606702e-01  2.192241e-01 -3.174603e-02
     vertex  7.587358e-01  2.555176e-01 -3.174603e-02
   endloop
 endfacet
 facet normal  9.872684e-01  1.590635e-01  0.000000e+00
   outer loop
     vertex  7.529547e-01  2.913999e-01 -1.587302e-02
     vertex  7.587358e-01  2.555176e-01 -3.174603e-02
     vertex  7.529547e-01  2.913999e-01 -3.174603e-02
   endloop
 endfacet
 facet normal  9.872684e-01  1.590635e-01  0.000000e+00
   outer loop
     vertex  7.529547e-01  2.913999e-01 -1.587302e-02
     vertex  7.587358e-01  2.555176e-01 -1.587302e-02
     vertex  7.587358e-01  2.555176e-01 -3.174603e-02
   endloop
 endfacet
 facet normal  9.647679e-01  2.631026e-01  0.000000e+00
   outer loop
     vertex  7.433922e-01  3.264644e-01 -1.587302e-02
     vertex  7.529547e-01  2.913999e-01 -3.174603e-02
     vertex  7.433922e-01  3.264644e-01 -3.174603e-02
   endloop
 endfacet
 facet normal  9.647679e-01  2.631026e-01  0.000000e+00
   outer loop
     vertex  7.433922e-01  3.264644e-01 -1.587302e-02
     vertex  7.529547e-01  2.913999e-01 -1.587302e-02
     vertex  7.529547e-01  2.913999e-01 -3.174603e-02
   endloop
 endfacet
 facet normal  9.313362e-01  3.641606e-01  0.000000e+00
   outer loop
     vertex  7.301568e-01  3.603138e-01 -1.587302e-02
     vertex  7.433922e-01  3.264644e-01 -3.174603e-02
     vertex  7.301568e-01  3.603138e-01 -3.174603e-02
   endloop
 endfacet
 facet normal  9.313362e-01  3.641606e-01  0.000000e+00
   outer loop
     vertex  7.301568e-01  3.603138e-01 -1.587302e-02
     vertex  7.433922e-01  3.264644e-01 -1.587302e-02
     vertex  7.433922e-01  3.264644e-01 -3.174603e-02
   endloop
 endfacet
 facet normal  8.873521e-01  4.610925e-01  0.000000e+00
   outer loop
     vertex  7.133984e-01  3.925646e-01 -1.587302e-02
     vertex  7.301568e-01  3.603138e-01 -3.174603e-02
     vertex  7.133984e-01  3.925646e-01 -3.174603e-02
   endloop
 endfacet
 facet normal  8.873521e-01  4.610925e-01  0.000000e+00
   outer loop
     vertex  7.133984e-01  3.925646e-01 -1.587302e-02
     vertex  7.301568e-01  3.603138e-01 -1.587302e-02
     vertex  7.301568e-01  3.603138e-01 -3.174603e-02
   endloop
 endfacet
 facet normal  8.333139e-01  5.528001e-01  0.000000e+00
   outer loop
     vertex  6.933068e-01  4.228514e-01 -1.587302e-02
     vertex  7.133984e-01  3.925646e-01 -3.174603e-02
     vertex  6.933068e-01  4.228514e-01 -3.174603e-02
   endloop
 endfacet
 facet normal  8.333139e-01  5.528001e-01  0.000000e+00
   outer loop
     vertex  6.933068e-01  4.228514e-01 -1.587302e-02
     vertex  7.133984e-01  3.925646e-01 -1.587302e-02
     vertex  7.133984e-01  3.925646e-01 -3.174603e-02
   endloop
 endfacet
 facet normal  7.698340e-01  6.382442e-01  0.000000e+00
   outer loop
     vertex  6.701098e-01  4.508311e-01 -1.587302e-02
     vertex  6.933068e-01  4.228514e-01 -3.174603e-02
     vertex  6.701098e-01  4.508311e-01 -3.174603e-02
   endloop
 endfacet
 facet normal  7.698340e-01  6.382442e-01  0.000000e+00
   outer loop
     vertex  6.701098e-01  4.508311e-01 -1.587302e-02
     vertex  6.933068e-01  4.228514e-01 -1.587302e-02
     vertex  6.933068e-01  4.228514e-01 -3.174603e-02
   endloop
 endfacet
 facet normal  6.976315e-01  7.164567e-01  0.000000e+00
   outer loop
     vertex  6.440702e-01  4.761865e-01 -1.587302e-02
     vertex  6.701098e-01  4.508311e-01 -3.174603e-02
     vertex  6.440702e-01  4.761865e-01 -3.174603e-02
   endloop
 endfacet
 facet normal  6.976315e-01  7.164567e-01  0.000000e+00
   outer loop
     vertex  6.440702e-01  4.761865e-01 -1.587302e-02
     vertex  6.701098e-01  4.508311e-01 -1.587302e-02
     vertex  6.701098e-01  4.508311e-01 -3.174603e-02
   endloop
 endfacet
 facet normal  6.175246e-01  7.865516e-01  0.000000e+00
   outer loop
     vertex  6.154830e-01  4.986304e-01 -1.587302e-02
     vertex  6.440702e-01  4.761865e-01 -3.174603e-02
     vertex  6.154830e-01  4.986304e-01 -3.174603e-02
   endloop
 endfacet
 facet normal  6.175246e-01  7.865516e-01  0.000000e+00
   outer loop
     vertex  6.154830e-01  4.986304e-01 -1.587302e-02
     vertex  6.440702e-01  4.761865e-01 -1.587302e-02
     vertex  6.440702e-01  4.761865e-01 -3.174603e-02
   endloop
 endfacet
 facet normal  5.304209e-01  8.477344e-01  0.000000e+00
   outer loop
     vertex  5.846721e-01  5.179086e-01 -1.587302e-02
     vertex  6.154830e-01  4.986304e-01 -3.174603e-02
     vertex  5.846721e-01  5.179086e-01 -3.174603e-02
   endloop
 endfacet
 facet normal  5.304209e-01  8.477344e-01  0.000000e+00
   outer loop
     vertex  5.846721e-01  5.179086e-01 -1.587302e-02
     vertex  6.154830e-01  4.986304e-01 -1.587302e-02
     vertex  6.154830e-01  4.986304e-01 -3.174603e-02
   endloop
 endfacet
 facet normal  4.373073e-01  8.993121e-01  0.000000e+00
   outer loop
     vertex  5.519865e-01  5.338026e-01 -1.587302e-02
     vertex  5.846721e-01  5.179086e-01 -3.174603e-02
     vertex  5.519865e-01  5.338026e-01 -3.174603e-02
   endloop
 endfacet
 facet normal  4.373073e-01  8.993121e-01  0.000000e+00
   outer loop
     vertex  5.519865e-01  5.338026e-01 -1.587302e-02
     vertex  5.846721e-01  5.179086e-01 -1.587302e-02
     vertex  5.846721e-01  5.179086e-01 -3.174603e-02
   endloop
 endfacet
 facet normal  3.392389e-01  9.407003e-01  0.000000e+00
   outer loop
     vertex  5.177968e-01  5.461322e-01 -1.587302e-02
     vertex  5.519865e-01  5.338026e-01 -3.174603e-02
     vertex  5.177968e-01  5.461322e-01 -3.174603e-02
   endloop
 endfacet
 facet normal  3.392389e-01  9.407003e-01  0.000000e+00
   outer loop
     vertex  5.177968e-01  5.461322e-01 -1.587302e-02
     vertex  5.519865e-01  5.338026e-01 -1.587302e-02
     vertex  5.519865e-01  5.338026e-01 -3.174603e-02
   endloop
 endfacet
 facet normal  2.373267e-01  9.714299e-01  0.000000e+00
   outer loop
     vertex  4.824901e-01  5.547578e-01 -1.587302e-02
     vertex  5.177968e-01  5.461322e-01 -3.174603e-02
     vertex  4.824901e-01  5.547578e-01 -3.174603e-02
   endloop
 endfacet
 facet normal  2.373267e-01  9.714299e-01  0.000000e+00
   outer loop
     vertex  4.824901e-01  5.547578e-01 -1.587302e-02
     vertex  5.177968e-01  5.461322e-01 -1.587302e-02
     vertex  5.177968e-01  5.461322e-01 -3.174603e-02
   endloop
 endfacet
 facet normal  1.327255e-01  9.911528e-01  0.000000e+00
   outer loop
     vertex  4.464667e-01  5.595818e-01 -1.587302e-02
     vertex  4.824901e-01  5.547578e-01 -3.174603e-02
     vertex  4.464667e-01  5.595818e-01 -3.174603e-02
   endloop
 endfacet
 facet normal  1.327255e-01  9.911528e-01  0.000000e+00
   outer loop
     vertex  4.464667e-01  5.595818e-01 -1.587302e-02
     vertex  4.824901e-01  5.547578e-01 -1.587302e-02
     vertex  4.824901e-01  5.547578e-01 -3.174603e-02
   endloop
 endfacet
 facet normal  2.662052e-02  9.996456e-01  0.000000e+00
   outer loop
     vertex  4.101345e-01  5.605493e-01 -1.587302e-02
     vertex  4.464667e-01  5.595818e-01 -3.174603e-02
     vertex  4.101345e-01  5.605493e-01 -3.174603e-02
   endloop
 endfacet
 facet normal  2.662052e-02  9.996456e-01  0.000000e+00
   outer loop
     vertex  4.101345e-01  5.605493e-01 -1.587302e-02
     vertex  4.464667e-01  5.595818e-01 -1.587302e-02
     vertex  4.464667e-01  5.595818e-01 -3.174603e-02
   endloop
 endfacet
 facet normal -7.978611e-02  9.968120e-01  0.000000e+00
   outer loop
     vertex  3.739054e-01  5.576494e-01 -1.587302e-02
     vertex  4.101345e-01  5.605493e-01 -3.174603e-02
     vertex  3.739054e-01  5.576494e-01 -3.174603e-02
   endloop
 endfacet
 facet normal -7.978611e-02  9.968120e-01  0.000000e+00
   outer loop
     vertex  3.739054e-01  5.576494e-01 -1.587302e-02
     vertex  4.101345e-01  5.605493e-01 -1.587302e-02
     vertex  4.101345e-01  5.605493e-01 -3.174603e-02
   endloop
 endfacet
 facet normal -1.852887e-01  9.826841e-01  0.000000e+00
   outer loop
     vertex  3.381897e-01  5.509151e-01 -1.587302e-02
     vertex  3.739054e-01  5.576494e-01 -3.174603e-02
     vertex  3.381897e-01  5.509151e-01 -3.174603e-02
   endloop
 endfacet
 facet normal -1.852887e-01  9.826841e-01  0.000000e+00
   outer loop
     vertex  3.381897e-01  5.509151e-01 -1.587302e-02
     vertex  3.739054e-01  5.576494e-01 -1.587302e-02
     vertex  3.739054e-01  5.576494e-01 -3.174603e-02
   endloop
 endfacet
 facet normal -2.886919e-01  9.574220e-01  0.000000e+00
   outer loop
     vertex  3.033922e-01  5.404226e-01 -1.587302e-02
     vertex  3.381897e-01  5.509151e-01 -3.174603e-02
     vertex  3.033922e-01  5.404226e-01 -3.174603e-02
   endloop
 endfacet
 facet normal -2.886919e-01  9.574220e-01  0.000000e+00
   outer loop
     vertex  3.033922e-01  5.404226e-01 -1.587302e-02
     vertex  3.381897e-01  5.509151e-01 -1.587302e-02
     vertex  3.381897e-01  5.509151e-01 -3.174603e-02
   endloop
 endfacet
 facet normal -3.888242e-01  9.213120e-01  0.000000e+00
   outer loop
     vertex  2.699071e-01  5.262908e-01 -1.587302e-02
     vertex  3.033922e-01  5.404226e-01 -3.174603e-02
     vertex  2.699071e-01  5.262908e-01 -3.174603e-02
   endloop
 endfacet
 facet normal -3.888242e-01  9.213120e-01  0.000000e+00
   outer loop
     vertex  2.699071e-01  5.262908e-01 -1.587302e-02
     vertex  3.033922e-01  5.404226e-01 -1.587302e-02
     vertex  3.033922e-01  5.404226e-01 -3.174603e-02
   endloop
 endfacet
 facet normal -4.845509e-01  8.747631e-01  0.000000e+00
   outer loop
     vertex  2.381138e-01  5.086798e-01 -1.587302e-02
     vertex  2.699071e-01  5.262908e-01 -1.587302e-02
     vertex  2.699071e-01  5.262908e-01 -3.174603e-02
   endloop
 endfacet
 facet normal -4.845509e-01  8.747631e-01  0.000000e+00
   outer loop
     vertex  2.381138e-01  5.086798e-01 -1.587302e-02
     vertex  2.699071e-01  5.262908e-01 -3.174603e-02
     vertex  2.381138e-01  5.086798e-01 -3.174603e-02
   endloop
 endfacet
 facet normal -5.747874e-01  8.183028e-01  0.000000e+00
   outer loop
     vertex  2.083725e-01  4.877891e-01 -1.587302e-02
     vertex  2.381138e-01  5.086798e-01 -1.587302e-02
     vertex  2.381138e-01  5.086798e-01 -3.174603e-02
   endloop
 endfacet
 facet normal -5.747874e-01  8.183028e-01  0.000000e+00
   outer loop
     vertex  2.083725e-01  4.877891e-01 -1.587302e-02
     vertex  2.381138e-01  5.086798e-01 -3.174603e-02
     vertex  2.083725e-01  4.877891e-01 -3.174603e-02
   endloop
 endfacet
 facet normal -6.585114e-01  7.525708e-01  0.000000e+00
   outer loop
     vertex  1.810203e-01  4.638555e-01 -1.587302e-02
     vertex  2.083725e-01  4.877891e-01 -1.587302e-02
     vertex  2.083725e-01  4.877891e-01 -3.174603e-02
   endloop
 endfacet
 facet normal -6.585114e-01  7.525708e-01  0.000000e+00
   outer loop
     vertex  1.810203e-01  4.638555e-01 -1.587302e-02
     vertex  2.083725e-01  4.877891e-01 -3.174603e-02
     vertex  1.810203e-01  4.638555e-01 -3.174603e-02
   endloop
 endfacet
 facet normal -7.347742e-01  6.783118e-01  0.000000e+00
   outer loop
     vertex  1.563671e-01  4.371501e-01 -1.587302e-02
     vertex  1.810203e-01  4.638555e-01 -1.587302e-02
     vertex  1.810203e-01  4.638555e-01 -3.174603e-02
   endloop
 endfacet
 facet normal -7.347742e-01  6.783118e-01  0.000000e+00
   outer loop
     vertex  1.563671e-01  4.371501e-01 -1.587302e-02
     vertex  1.810203e-01  4.638555e-01 -3.174603e-02
     vertex  1.563671e-01  4.371501e-01 -3.174603e-02
   endloop
 endfacet
 facet normal -8.027116e-01  5.963674e-01  0.000000e+00
   outer loop
     vertex  1.346921e-01  4.079756e-01 -1.587302e-02
     vertex  1.563671e-01  4.371501e-01 -1.587302e-02
     vertex  1.563671e-01  4.371501e-01 -3.174603e-02
   endloop
 endfacet
 facet normal -8.027116e-01  5.963674e-01  0.000000e+00
   outer loop
     vertex  1.346921e-01  4.079756e-01 -1.587302e-02
     vertex  1.563671e-01  4.371501e-01 -3.174603e-02
     vertex  1.346921e-01  4.079756e-01 -3.174603e-02
   endloop
 endfacet
 facet normal -8.615541e-01  5.076658e-01  0.000000e+00
   outer loop
     vertex  1.162410e-01  3.766624e-01 -1.587302e-02
     vertex  1.346921e-01  4.079756e-01 -1.587302e-02
     vertex  1.346921e-01  4.079756e-01 -3.174603e-02
   endloop
 endfacet
 facet normal -8.615541e-01  5.076658e-01  0.000000e+00
   outer loop
     vertex  1.162410e-01  3.766624e-01 -1.587302e-02
     vertex  1.346921e-01  4.079756e-01 -3.174603e-02
     vertex  1.162410e-01  3.766624e-01 -3.174603e-02
   endloop
 endfacet
 facet normal -9.106348e-01  4.132122e-01  0.000000e+00
   outer loop
     vertex  1.012228e-01  3.435653e-01 -1.587302e-02
     vertex  1.162410e-01  3.766624e-01 -3.174603e-02
     vertex  1.012228e-01  3.435653e-01 -3.174603e-02
   endloop
 endfacet
 facet normal -9.106348e-01  4.132122e-01  0.000000e+00
   outer loop
     vertex  1.012228e-01  3.435653e-01 -1.587302e-02
     vertex  1.162410e-01  3.766624e-01 -1.587302e-02
     vertex  1.162410e-01  3.766624e-01 -3.174603e-02
   endloop
 endfacet
 facet normal -9.493976e-01  3.140767e-01  0.000000e+00
   outer loop
     vertex  8.980765e-02  3.090594e-01 -1.587302e-02
     vertex  1.012228e-01  3.435653e-01 -3.174603e-02
     vertex  8.980765e-02  3.090594e-01 -3.174603e-02
   endloop
 endfacet
 facet normal -9.493976e-01  3.140767e-01  0.000000e+00
   outer loop
     vertex  8.980765e-02  3.090594e-01 -1.587302e-02
     vertex  1.012228e-01  3.435653e-01 -1.587302e-02
     vertex  1.012228e-01  3.435653e-01 -3.174603e-02
   endloop
 endfacet
 facet normal -9.774034e-01  2.113826e-01  0.000000e+00
   outer loop
     vertex  8.212495e-02  2.735357e-01 -1.587302e-02
     vertex  8.980765e-02  3.090594e-01 -3.174603e-02
     vertex  8.212495e-02  2.735357e-01 -3.174603e-02
   endloop
 endfacet
 facet normal -9.774034e-01  2.113826e-01  0.000000e+00
   outer loop
     vertex  8.212495e-02  2.735357e-01 -1.587302e-02
     vertex  8.980765e-02  3.090594e-01 -1.587302e-02
     vertex  8.980765e-02  3.090594e-01 -3.174603e-02
   endloop
 endfacet
 facet normal -9.943348e-01  1.062935e-01  0.000000e+00
   outer loop
     vertex  7.826171e-02  2.373966e-01 -1.587302e-02
     vertex  8.212495e-02  2.735357e-01 -3.174603e-02
     vertex  7.826171e-02  2.373966e-01 -3.174603e-02
   endloop
 endfacet
 facet normal -9.943348e-01  1.062935e-01  0.000000e+00
   outer loop
     vertex  7.826171e-02  2.373966e-01 -1.587302e-02
     vertex  8.212495e-02  2.735357e-01 -1.587302e-02
     vertex  8.212495e-02  2.735357e-01 -3.174603e-02
   endloop
 endfacet
 facet normal -1.000000e+00  1.527339e-15  0.000000e+00
   outer loop
     vertex  7.826171e-02  2.010516e-01 -1.587302e-02
     vertex  7.826171e-02  2.373966e-01 -3.174603e-02
     vertex  7.826171e-02  2.010516e-01 -3.174603e-02
   endloop
 endfacet
 facet normal -1.000000e+00  1.527339e-15  0.000000e+00
   outer loop
     vertex  7.826171e-02  2.010516e-01 -1.587302e-02
     vertex  7.826171e-02  2.373966e-01 -1.587302e-02
     vertex  7.826171e-02  2.373966e-01 -3.174603e-02
   endloop
 endfacet
 facet normal -9.943348e-01 -1.062935e-01 -0.000000e+00
   outer loop
     vertex  8.212495e-02  1.649124e-01 -1.587302e-02
     vertex  7.826171e-02  2.010516e-01 -3.174603e-02
     vertex  8.212495e-02  1.649124e-01 -3.174603e-02
   endloop
 endfacet
 facet normal -9.943348e-01 -1.062935e-01  0.000000e+00
   outer loop
     vertex  8.212495e-02  1.649124e-01 -1.587302e-02
     vertex  7.826171e-02  2.010516e-01 -1.587302e-02
     vertex  7.826171e-02  2.010516e-01 -3.174603e-02
   endloop
 endfacet
 facet normal -9.774034e-01 -2.113826e-01 -0.000000e+00
   outer loop
     vertex  8.980765e-02  1.293887e-01 -1.587302e-02
     vertex  8.212495e-02  1.649124e-01 -3.174603e-02
     vertex  8.980765e-02  1.293887e-01 -3.174603e-02
   endloop
 endfacet
 facet normal -9.774034e-01 -2.113826e-01  0.000000e+00
   outer loop
     vertex  8.980765e-02  1.293887e-01 -1.587302e-02
     vertex  8.212495e-02  1.649124e-01 -1.587302e-02
     vertex  8.212495e-02  1.649124e-01 -3.174603e-02
   endloop
 endfacet
 facet normal -9.493976e-01 -3.140767e-01 -0.000000e+00
   outer loop
     vertex  1.012228e-01  9.488281e-02 -1.587302e-02
     vertex  8.980765e-02  1.293887e-01 -3.174603e-02
     vertex  1.012228e-01  9.488281e-02 -3.174603e-02
   endloop
 endfacet
 facet normal -9.493976e-01 -3.140767e-01  0.000000e+00
   outer loop
     vertex  1.012228e-01  9.488281e-02 -1.587302e-02
     vertex  8.980765e-02  1.293887e-01 -1.587302e-02
     vertex  8.980765e-02  1.293887e-01 -3.174603e-02
   endloop
 endfacet
 facet normal -9.106348e-01 -4.132122e-01 -0.000000e+00
   outer loop
     vertex  1.162410e-01  6.178577e-02 -1.587302e-02
     vertex  1.012228e-01  9.488281e-02 -3.174603e-02
     vertex  1.162410e-01  6.178577e-02 -3.174603e-02
   endloop
 endfacet
 facet normal -9.106348e-01 -4.132122e-01  0.000000e+00
   outer loop
     vertex  1.162410e-01  6.178577e-02 -1.587302e-02
     vertex  1.012228e-01  9.488281e-02 -1.587302e-02
     vertex  1.012228e-01  9.488281e-02 -3.174603e-02
   endloop
 endfacet
 facet normal -8.615541e-01 -5.076658e-01 -0.000000e+00
   outer loop
     vertex  1.346921e-01  3.047257e-02 -1.587302e-02
     vertex  1.162410e-01  6.178577e-02 -3.174603e-02
     vertex  1.346921e-01  3.047257e-02 -3.174603e-02
   endloop
 endfacet
 facet normal -8.615541e-01 -5.076658e-01  0.000000e+00
   outer loop
     vertex  1.346921e-01  3.047257e-02 -1.587302e-02
     vertex  1.162410e-01  6.178577e-02 -1.587302e-02
     vertex  1.162410e-01  6.178577e-02 -3.174603e-02
   endloop
 endfacet
 facet normal -8.027116e-01 -5.963674e-01 -0.000000e+00
   outer loop
     vertex  1.563671e-01  1.298000e-03 -1.587302e-02
     vertex  1.346921e-01  3.047257e-02 -3.174603e-02
     vertex  1.563671e-01  1.298000e-03 -3.174603e-02
   endloop
 endfacet
 facet normal -8.027116e-01 -5.963674e-01  0.000000e+00
   outer loop
     vertex  1.563671e-01  1.298000e-03 -1.587302e-02
     vertex  1.346921e-01  3.047257e-02 -1.587302e-02
     vertex  1.346921e-01  3.047257e-02 -3.174603e-02
   endloop
 endfacet
 facet normal -7.347742e-01 -6.783118e-01 -0.000000e+00
   outer loop
     vertex  1.810203e-01 -2.540738e-02 -1.587302e-02
     vertex  1.563671e-01  1.298000e-03 -3.174603e-02
     vertex  1.810203e-01 -2.540738e-02 -3.174603e-02
   endloop
 endfacet
 facet normal -7.347742e-01 -6.783118e-01  0.000000e+00
   outer loop
     vertex  1.810203e-01 -2.540738e-02 -1.587302e-02
     vertex  1.563671e-01  1.298000e-03 -1.587302e-02
     vertex  1.563671e-01  1.298000e-03 -3.174603e-02
   endloop
 endfacet
 facet normal -6.585114e-01 -7.525708e-01 -0.000000e+00
   outer loop
     vertex  2.083725e-01 -4.934099e-02 -1.587302e-02
     vertex  1.810203e-01 -2.540738e-02 -3.174603e-02
     vertex  2.083725e-01 -4.934099e-02 -3.174603e-02
   endloop
 endfacet
 facet normal -6.585114e-01 -7.525708e-01  0.000000e+00
   outer loop
     vertex  2.083725e-01 -4.934099e-02 -1.587302e-02
     vertex  1.810203e-01 -2.540738e-02 -1.587302e-02
     vertex  1.810203e-01 -2.540738e-02 -3.174603e-02
   endloop
 endfacet
 facet normal -5.747874e-01 -8.183028e-01 -0.000000e+00
   outer loop
     vertex  2.381138e-01 -7.023165e-02 -1.587302e-02
     vertex  2.083725e-01 -4.934099e-02 -3.174603e-02
     vertex  2.381138e-01 -7.023165e-02 -3.174603e-02
   endloop
 endfacet
 facet normal -4.845509e-01 -8.747631e-01 -0.000000e+00
   outer loop
     vertex  2.381138e-01 -7.023165e-02 -1.587302e-02
     vertex  2.381138e-01 -7.023165e-02 -3.174603e-02
     vertex  2.699071e-01 -8.784266e-02 -3.174603e-02
   endloop
 endfacet
 facet normal -5.747874e-01 -8.183028e-01  0.000000e+00
   outer loop
     vertex  2.381138e-01 -7.023165e-02 -1.587302e-02
     vertex  2.083725e-01 -4.934099e-02 -1.587302e-02
     vertex  2.083725e-01 -4.934099e-02 -3.174603e-02
   endloop
 endfacet
 facet normal -4.845509e-01 -8.747631e-01 -0.000000e+00
   outer loop
     vertex  2.699071e-01 -8.784266e-02 -1.587302e-02
     vertex  2.381138e-01 -7.023165e-02 -1.587302e-02
     vertex  2.699071e-01 -8.784266e-02 -3.174603e-02
   endloop
 endfacet
 facet normal -3.888242e-01 -9.213120e-01 -0.000000e+00
   outer loop
     vertex  3.033922e-01 -1.019745e-01 -1.587302e-02
     vertex  2.699071e-01 -8.784266e-02 -3.174603e-02
     vertex  3.033922e-01 -1.019745e-01 -3.174603e-02
   endloop
 endfacet
 facet normal -2.886919e-01 -9.574220e-01 -0.000000e+00
   outer loop
     vertex  3.033922e-01 -1.019745e-01 -1.587302e-02
     vertex  3.033922e-01 -1.019745e-01 -3.174603e-02
     vertex  3.381897e-01 -1.124670e-01 -3.174603e-02
   endloop
 endfacet
 facet normal -3.888242e-01 -9.213120e-01  0.000000e+00
   outer loop
     vertex  3.033922e-01 -1.019745e-01 -1.587302e-02
     vertex  2.699071e-01 -8.784266e-02 -1.587302e-02
     vertex  2.699071e-01 -8.784266e-02 -3.174603e-02
   endloop
 endfacet
 facet normal -2.886919e-01 -9.574220e-01 -0.000000e+00
   outer loop
     vertex  3.381897e-01 -1.124670e-01 -1.587302e-02
     vertex  3.033922e-01 -1.019745e-01 -1.587302e-02
     vertex  3.381897e-01 -1.124670e-01 -3.174603e-02
   endloop
 endfacet
 facet normal -1.852887e-01 -9.826841e-01 -0.000000e+00
   outer loop
     vertex  3.739054e-01 -1.192013e-01 -1.587302e-02
     vertex  3.381897e-01 -1.124670e-01 -3.174603e-02
     vertex  3.739054e-01 -1.192013e-01 -3.174603e-02
   endloop
 endfacet
 facet normal -1.852887e-01 -9.826841e-01  0.000000e+00
   outer loop
     vertex  3.739054e-01 -1.192013e-01 -1.587302e-02
     vertex  3.381897e-01 -1.124670e-01 -1.587302e-02
     vertex  3.381897e-01 -1.124670e-01 -3.174603e-02
   endloop
 endfacet
 facet normal -7.978611e-02 -9.968120e-01 -0.000000e+00
   outer loop
     vertex  4.101345e-01 -1.221012e-01 -1.587302e-02
     vertex  3.739054e-01 -1.192013e-01 -3.174603e-02
     vertex  4.101345e-01 -1.221012e-01 -3.174603e-02
   endloop
 endfacet
 facet normal -7.978611e-02 -9.968120e-01  0.000000e+00
   outer loop
     vertex  4.101345e-01 -1.221012e-01 -1.587302e-02
     vertex  3.739054e-01 -1.192013e-01 -1.587302e-02
     vertex  3.739054e-01 -1.192013e-01 -3.174603e-02
   endloop
 endfacet
 facet normal  2.662052e-02 -9.996456e-01  0.000000e+00
   outer loop
     vertex  4.464667e-01 -1.211336e-01 -1.587302e-02
     vertex  4.101345e-01 -1.221012e-01 -1.587302e-02
     vertex  4.101345e-01 -1.221012e-01 -3.174603e-02
   endloop
 endfacet
 facet normal  2.662052e-02 -9.996456e-01  0.000000e+00
   outer loop
     vertex  4.464667e-01 -1.211336e-01 -1.587302e-02
     vertex  4.101345e-01 -1.221012e-01 -3.174603e-02
     vertex  4.464667e-01 -1.211336e-01 -3.174603e-02
   endloop
 endfacet
 facet normal  1.327255e-01 -9.911528e-01  0.000000e+00
   outer loop
     vertex  4.824901e-01 -1.163097e-01 -1.587302e-02
     vertex  4.464667e-01 -1.211336e-01 -1.587302e-02
     vertex  4.464667e-01 -1.211336e-01 -3.174603e-02
   endloop
 endfacet
 facet normal  1.327255e-01 -9.911528e-01  0.000000e+00
   outer loop
     vertex  4.824901e-01 -1.163097e-01 -1.587302e-02
     vertex  4.464667e-01 -1.211336e-01 -3.174603e-02
     vertex  4.824901e-01 -1.163097e-01 -3.174603e-02
   endloop
 endfacet
 facet normal  2.373267e-01 -9.714299e-01  0.000000e+00
   outer loop
     vertex  4.824901e-01 -1.163097e-01 -1.587302e-02
     vertex  4.824901e-01 -1.163097e-01 -3.174603e-02
     vertex  5.177968e-01 -1.076841e-01 -3.174603e-02
   endloop
 endfacet
 facet normal  2.373267e-01 -9.714299e-01  0.000000e+00
   outer loop
     vertex  5.177968e-01 -1.076841e-01 -1.587302e-02
     vertex  4.824901e-01 -1.163097e-01 -1.587302e-02
     vertex  5.177968e-01 -1.076841e-01 -3.174603e-02
   endloop
 endfacet
 facet normal  3.392389e-01 -9.407003e-01  0.000000e+00
   outer loop
     vertex  5.519865e-01 -9.535443e-02 -1.587302e-02
     vertex  5.177968e-01 -1.076841e-01 -1.587302e-02
     vertex  5.177968e-01 -1.076841e-01 -3.174603e-02
   endloop
 endfacet
 facet normal  3.392389e-01 -9.407003e-01  0.000000e+00
   outer loop
     vertex  5.519865e-01 -9.535443e-02 -1.587302e-02
     vertex  5.177968e-01 -1.076841e-01 -3.174603e-02
     vertex  5.519865e-01 -9.535443e-02 -3.174603e-02
   endloop
 endfacet
 facet normal  4.373073e-01 -8.993121e-01  0.000000e+00
   outer loop
     vertex  5.846721e-01 -7.946048e-02 -1.587302e-02
     vertex  5.519865e-01 -9.535443e-02 -1.587302e-02
     vertex  5.519865e-01 -9.535443e-02 -3.174603e-02
   endloop
 endfacet
 facet normal  4.373073e-01 -8.993121e-01  0.000000e+00
   outer loop
     vertex  5.846721e-01 -7.946048e-02 -1.587302e-02
     vertex  5.519865e-01 -9.535443e-02 -3.174603e-02
     vertex  5.846721e-01 -7.946048e-02 -3.174603e-02
   endloop
 endfacet
 facet normal  5.304209e-01 -8.477344e-01  0.000000e+00
   outer loop
     vertex  6.154830e-01 -6.018232e-02 -1.587302e-02
     vertex  5.846721e-01 -7.946048e-02 -1.587302e-02
     vertex  5.846721e-01 -7.946048e-02 -3.174603e-02
   endloop
 endfacet
 facet normal  5.304209e-01 -8.477344e-01  0.000000e+00
   outer loop
     vertex  6.154830e-01 -6.018232e-02 -1.587302e-02
     vertex  5.846721e-01 -7.946048e-02 -3.174603e-02
     vertex  6.154830e-01 -6.018232e-02 -3.174603e-02
   endloop
 endfacet
 facet normal  6.175246e-01 -7.865516e-01  0.000000e+00
   outer loop
     vertex  6.440702e-01 -3.773838e-02 -1.587302e-02
     vertex  6.154830e-01 -6.018232e-02 -1.587302e-02
     vertex  6.154830e-01 -6.018232e-02 -3.174603e-02
   endloop
 endfacet
 facet normal  6.175246e-01 -7.865516e-01  0.000000e+00
   outer loop
     vertex  6.440702e-01 -3.773838e-02 -1.587302e-02
     vertex  6.154830e-01 -6.018232e-02 -3.174603e-02
     vertex  6.440702e-01 -3.773838e-02 -3.174603e-02
   endloop
 endfacet
 facet normal  6.976315e-01 -7.164567e-01  0.000000e+00
   outer loop
     vertex  6.701098e-01 -1.238295e-02 -1.587302e-02
     vertex  6.440702e-01 -3.773838e-02 -1.587302e-02
     vertex  6.440702e-01 -3.773838e-02 -3.174603e-02
   endloop
 endfacet
 facet normal  6.976315e-01 -7.164567e-01  0.000000e+00
   outer loop
     vertex  6.701098e-01 -1.238295e-02 -1.587302e-02
     vertex  6.440702e-01 -3.773838e-02 -3.174603e-02
     vertex  6.701098e-01 -1.238295e-02 -3.174603e-02
   endloop
 endfacet
 facet normal  7.698340e-01 -6.382442e-01  0.000000e+00
   outer loop
     vertex  6.933068e-01  1.559668e-02 -1.587302e-02
     vertex  6.701098e-01 -1.238295e-02 -1.587302e-02
     vertex  6.701098e-01 -1.238295e-02 -3.174603e-02
   endloop
 endfacet
 facet normal  7.698340e-01 -6.382442e-01  0.000000e+00
   outer loop
     vertex  6.933068e-01  1.559668e-02 -1.587302e-02
     vertex  6.701098e-01 -1.238295e-02 -3.174603e-02
     vertex  6.933068e-01  1.559668e-02 -3.174603e-02
   endloop
 endfacet
 facet normal  8.333139e-01 -5.528001e-01  0.000000e+00
   outer loop
     vertex  7.133984e-01  4.588350e-02 -1.587302e-02
     vertex  6.933068e-01  1.559668e-02 -1.587302e-02
     vertex  6.933068e-01  1.559668e-02 -3.174603e-02
   endloop
 endfacet
 facet normal  8.333139e-01 -5.528001e-01  0.000000e+00
   outer loop
     vertex  7.133984e-01  4.588350e-02 -1.587302e-02
     vertex  6.933068e-01  1.559668e-02 -3.174603e-02
     vertex  7.133984e-01  4.588350e-02 -3.174603e-02
   endloop
 endfacet
 facet normal  8.873521e-01 -4.610925e-01  0.000000e+00
   outer loop
     vertex  7.301568e-01  7.813432e-02 -1.587302e-02
     vertex  7.133984e-01  4.588350e-02 -1.587302e-02
     vertex  7.133984e-01  4.588350e-02 -3.174603e-02
   endloop
 endfacet
 facet normal  8.873521e-01 -4.610925e-01  0.000000e+00
   outer loop
     vertex  7.301568e-01  7.813432e-02 -1.587302e-02
     vertex  7.133984e-01  4.588350e-02 -3.174603e-02
     vertex  7.301568e-01  7.813432e-02 -3.174603e-02
   endloop
 endfacet
 facet normal  9.313362e-01 -3.641606e-01  0.000000e+00
   outer loop
     vertex  7.433922e-01  1.119838e-01 -1.587302e-02
     vertex  7.301568e-01  7.813432e-02 -1.587302e-02
     vertex  7.301568e-01  7.813432e-02 -3.174603e-02
   endloop
 endfacet
 facet normal  9.313362e-01 -3.641606e-01  0.000000e+00
   outer loop
     vertex  7.433922e-01  1.119838e-01 -1.587302e-02
     vertex  7.301568e-01  7.813432e-02 -3.174603e-02
     vertex  7.433922e-01  1.119838e-01 -3.174603e-02
   endloop
 endfacet
 facet normal  9.647679e-01 -2.631026e-01  0.000000e+00
   outer loop
     vertex  7.433922e-01  1.119838e-01 -1.587302e-02
     vertex  7.433922e-01  1.119838e-01 -3.174603e-02
     vertex  7.529547e-01  1.470483e-01 -3.174603e-02
   endloop
 endfacet
 facet normal  9.647679e-01 -2.631026e-01  0.000000e+00
   outer loop
     vertex  7.529547e-01  1.470483e-01 -1.587302e-02
     vertex  7.433922e-01  1.119838e-01 -1.587302e-02
     vertex  7.529547e-01  1.470483e-01 -3.174603e-02
   endloop
 endfacet
 facet normal  9.872684e-01 -1.590635e-01  0.000000e+00
   outer loop
     vertex  7.587358e-01  1.829306e-01 -1.587302e-02
     vertex  7.529547e-01  1.470483e-01 -1.587302e-02
     vertex  7.529547e-01  1.470483e-01 -3.174603e-02
   endloop
 endfacet
 facet normal  9.872684e-01 -1.590635e-01  0.000000e+00
   outer loop
     vertex  7.587358e-01  1.829306e-01 -1.587302e-02
     vertex  7.529547e-01  1.470483e-01 -3.174603e-02
     vertex  7.587358e-01  1.829306e-01 -3.174603e-02
   endloop
 endfacet
 facet normal  9.985827e-01 -5.322217e-02  0.000000e+00
   outer loop
     vertex  7.606702e-01  2.192241e-01 -1.587302e-02
     vertex  7.587358e-01  1.829306e-01 -1.587302e-02
     vertex  7.587358e-01  1.829306e-01 -3.174603e-02
   endloop
 endfacet
 facet normal  9.985827e-01 -5.322217e-02  0.000000e+00
   outer loop
     vertex  7.606702e-01  2.192241e-01 -1.587302e-02
     vertex  7.587358e-01  1.829306e-01 -3.174603e-02
     vertex  7.606702e-01  2.192241e-01 -3.174603e-02
   endloop
 endfacet
 facet normal  0.000000e+00  0.000000e+00  1.000000e+00
   outer loop
     vertex  6.440702e-01 -3.773838e-02  3.174604e-01
     vertex  5.519865e-01 -9.535443e-02  3.174604e-01
     vertex  5.846721e-01 -7.946048e-02  3.174604e-01
   endloop
 endfacet
 facet normal  0.000000e+00  0.000000e+00  1.000000e+00
   outer loop
     vertex  6.440702e-01 -3.773838e-02  3.174604e-01
     vertex  5.846721e-01 -7.946048e-02  3.174604e-01
     vertex  6.154830e-01 -6.018232e-02  3.174604e-01
   endloop
 endfacet
 facet normal  0.000000e+00  0.000000e+00  1.000000e+00
   outer loop
     vertex  2.381138e-01  5.086798e-01  3.174604e-01
     vertex  2.083725e-01  4.877891e-01  3.174604e-01
     vertex  1.810203e-01  4.638555e-01  3.174604e-01
   endloop
 endfacet
 facet normal  0.000000e+00  0.000000e+00  1.000000e+00
   outer loop
     vertex  7.587358e-01  1.829306e-01  3.174604e-01
     vertex  6.440702e-01 -3.773838e-02  3.174604e-01
     vertex  6.701098e-01 -1.238295e-02  3.174604e-01
   endloop
 endfacet
 facet normal  0.000000e+00  0.000000e+00  1.000000e+00
   outer loop
     vertex  7.587358e-01  1.829306e-01  3.174604e-01
     vertex  6.701098e-01 -1.238295e-02  3.174604e-01
     vertex  6.933068e-01  1.559668e-02  3.174604e-01
   endloop
 endfacet
 facet normal  0.000000e+00  0.000000e+00  1.000000e+00
   outer loop
     vertex  7.587358e-01  1.829306e-01  3.174604e-01
     vertex  6.933068e-01  1.559668e-02  3.174604e-01
     vertex  7.133984e-01  4.588350e-02  3.174604e-01
   endloop
 endfacet
 facet normal  0.000000e+00  0.000000e+00  1.000000e+00
   outer loop
     vertex  7.587358e-01  1.829306e-01  3.174604e-01
     vertex  7.133984e-01  4.588350e-02  3.174604e-01
     vertex  7.301568e-01  7.813432e-02  3.174604e-01
   endloop
 endfacet
 facet normal  0.000000e+00  0.000000e+00  1.000000e+00
   outer loop
     vertex  7.587358e-01  1.829306e-01  3.174604e-01
     vertex  7.301568e-01  7.813432e-02  3.174604e-01
     vertex  7.433922e-01  1.119838e-01  3.174604e-01
   endloop
 endfacet
 facet normal  0.000000e+00  0.000000e+00  1.000000e+00
   outer loop
     vertex  7.587358e-01  1.829306e-01  3.174604e-01
     vertex  7.433922e-01  1.119838e-01  3.174604e-01
     vertex  7.529547e-01  1.470483e-01  3.174604e-01
   endloop
 endfacet
 facet normal  0.000000e+00  0.000000e+00  1.000000e+00
   outer loop
     vertex  5.177968e-01  5.461322e-01  3.174604e-01
     vertex  4.824901e-01  5.547578e-01  3.174604e-01
     vertex  4.464667e-01  5.595818e-01  3.174604e-01
   endloop
 endfacet
 facet normal  0.000000e+00  0.000000e+00  1.000000e+00
   outer loop
     vertex  7.433922e-01  3.264644e-01  3.174604e-01
     vertex  7.587358e-01  2.555176e-01  3.174604e-01
     vertex  7.529547e-01  2.913999e-01  3.174604e-01
   endloop
 endfacet
 facet normal  0.000000e+00  0.000000e+00  1.000000e+00
   outer loop
     vertex  6.154830e-01  4.986304e-01  3.174604e-01
     vertex  5.846721e-01  5.179086e-01  3.174604e-01
     vertex  5.519865e-01  5.338026e-01  3.174604e-01
   endloop
 endfacet
 facet normal  0.000000e+00  0.000000e+00  1.000000e+00
   outer loop
     vertex  6.154830e-01  4.986304e-01  3.174604e-01
     vertex  5.519865e-01  5.338026e-01  3.174604e-01
     vertex  5.177968e-01  5.461322e-01  3.174604e-01
   endloop
 endfacet
 facet normal  0.000000e+00  0.000000e+00  1.000000e+00
   outer loop
     vertex  6.933068e-01  4.228514e-01  3.174604e-01
     vertex  7.433922e-01  3.264644e-01  3.174604e-01
     vertex  7.301568e-01  3.603138e-01  3.174604e-01
   endloop
 endfacet
 facet normal  0.000000e+00  0.000000e+00  1.000000e+00
   outer loop
     vertex  6.933068e-01  4.228514e-01  3.174604e-01
     vertex  7.301568e-01  3.603138e-01  3.174604e-01
     vertex  7.133984e-01  3.925646e-01  3.174604e-01
   endloop
 endfacet
 facet normal  0.000000e+00  0.000000e+00  1.000000e+00
   outer loop
     vertex  6.701098e-01  4.508311e-01  3.174604e-01
     vertex  7.606702e-01  2.192241e-01  3.174604e-01
     vertex  7.587358e-01  2.555176e-01  3.174604e-01
   endloop
 endfacet
 facet normal  0.000000e+00  0.000000e+00  1.000000e+00
   outer loop
     vertex  6.701098e-01  4.508311e-01  3.174604e-01
     vertex  6.440702e-01  4.761865e-01  3.174604e-01
     vertex  6.154830e-01  4.986304e-01  3.174604e-01
   endloop
 endfacet
 facet normal  0.000000e+00  0.000000e+00  1.000000e+00
   outer loop
     vertex  6.701098e-01  4.508311e-01  3.174604e-01
     vertex  4.464667e-01  5.595818e-01  3.174604e-01
     vertex  4.101345e-01  5.605493e-01  3.174604e-01
   endloop
 endfacet
 facet normal  0.000000e+00  0.000000e+00  1.000000e+00
   outer loop
     vertex  6.701098e-01  4.508311e-01  3.174604e-01
     vertex  4.101345e-01  5.605493e-01  3.174604e-01
     vertex  3.739054e-01  5.576494e-01  3.174604e-01
   endloop
 endfacet
 facet normal  0.000000e+00  0.000000e+00  1.000000e+00
   outer loop
     vertex  6.701098e-01  4.508311e-01  3.174604e-01
     vertex  3.739054e-01  5.576494e-01  3.174604e-01
     vertex  3.381897e-01  5.509151e-01  3.174604e-01
   endloop
 endfacet
 facet normal  0.000000e+00  0.000000e+00  1.000000e+00
   outer loop
     vertex  6.701098e-01  4.508311e-01  3.174604e-01
     vertex  3.381897e-01  5.509151e-01  3.174604e-01
     vertex  3.033922e-01  5.404226e-01  3.174604e-01
   endloop
 endfacet
 facet normal  0.000000e+00  0.000000e+00  1.000000e+00
   outer loop
     vertex  6.701098e-01  4.508311e-01  3.174604e-01
     vertex  3.033922e-01  5.404226e-01  3.174604e-01
     vertex  2.699071e-01  5.262908e-01  3.174604e-01
   endloop
 endfacet
 facet normal  0.000000e+00  0.000000e+00  1.000000e+00
   outer loop
     vertex  6.701098e-01  4.508311e-01  3.174604e-01
     vertex  5.519865e-01 -9.535443e-02  3.174604e-01
     vertex  6.440702e-01 -3.773838e-02  3.174604e-01
   endloop
 endfacet
 facet normal  0.000000e+00  0.000000e+00  1.000000e+00
   outer loop
     vertex  6.701098e-01  4.508311e-01  3.174604e-01
     vertex  2.699071e-01  5.262908e-01  3.174604e-01
     vertex  2.381138e-01  5.086798e-01  3.174604e-01
   endloop
 endfacet
 facet normal  0.000000e+00  0.000000e+00  1.000000e+00
   outer loop
     vertex  6.701098e-01  4.508311e-01  3.174604e-01
     vertex  1.810203e-01  4.638555e-01  3.174604e-01
     vertex  1.563671e-01  4.371501e-01  3.174604e-01
   endloop
 endfacet
 facet normal  0.000000e+00  0.000000e+00  1.000000e+00
   outer loop
     vertex  6.701098e-01  4.508311e-01  3.174604e-01
     vertex  1.563671e-01  4.371501e-01  3.174604e-01
     vertex  1.346921e-01  4.079756e-01  3.174604e-01
   endloop
 endfacet
 facet normal  0.000000e+00  0.000000e+00  1.000000e+00
   outer loop
     vertex  6.701098e-01  4.508311e-01  3.174604e-01
     vertex  1.346921e-01  4.079756e-01  3.174604e-01
     vertex  1.162410e-01  3.766624e-01  3.174604e-01
   endloop
 endfacet
 facet normal  0.000000e+00  0.000000e+00  1.000000e+00
   outer loop
     vertex  6.701098e-01  4.508311e-01  3.174604e-01
     vertex  1.162410e-01  3.766624e-01  3.174604e-01
     vertex  1.012228e-01  3.435653e-01  3.174604e-01
   endloop
 endfacet
 facet normal  0.000000e+00  0.000000e+00  1.000000e+00
   outer loop
     vertex  6.701098e-01  4.508311e-01  3.174604e-01
     vertex  1.012228e-01  3.435653e-01  3.174604e-01
     vertex  8.980765e-02  3.090594e-01  3.174604e-01
   endloop
 endfacet
 facet normal  0.000000e+00  0.000000e+00  1.000000e+00
   outer loop
     vertex  6.701098e-01  4.508311e-01  3.174604e-01
     vertex  8.980765e-02  3.090594e-01  3.174604e-01
     vertex  8.212495e-02  2.735357e-01  3.174604e-01
   endloop
 endfacet
 facet normal  0.000000e+00  0.000000e+00  1.000000e+00
   outer loop
     vertex  6.701098e-01  4.508311e-01  3.174604e-01
     vertex  8.212495e-02  2.735357e-01  3.174604e-01
     vertex  7.826171e-02  2.373966e-01  3.174604e-01
   endloop
 endfacet
 facet normal  0.000000e+00  0.000000e+00  1.000000e+00
   outer loop
     vertex  6.701098e-01  4.508311e-01  3.174604e-01
     vertex  7.826171e-02  2.373966e-01  3.174604e-01
     vertex  7.826171e-02  2.010516e-01  3.174604e-01
   endloop
 endfacet
 facet normal  0.000000e+00  0.000000e+00  1.000000e+00
   outer loop
     vertex  6.701098e-01  4.508311e-01  3.174604e-01
     vertex  7.826171e-02  2.010516e-01  3.174604e-01
     vertex  8.212495e-02  1.649124e-01  3.174604e-01
   endloop
 endfacet
 facet normal  0.000000e+00  0.000000e+00  1.000000e+00
   outer loop
     vertex  6.701098e-01  4.508311e-01  3.174604e-01
     vertex  8.212495e-02  1.649124e-01  3.174604e-01
     vertex  8.980765e-02  1.293887e-01  3.174604e-01
   endloop
 endfacet
 facet normal  0.000000e+00  0.000000e+00  1.000000e+00
   outer loop
     vertex  6.701098e-01  4.508311e-01  3.174604e-01
     vertex  8.980765e-02  1.293887e-01  3.174604e-01
     vertex  1.012228e-01  9.488281e-02  3.174604e-01
   endloop
 endfacet
 facet normal  0.000000e+00  0.000000e+00  1.000000e+00
   outer loop
     vertex  6.701098e-01  4.508311e-01  3.174604e-01
     vertex  1.012228e-01  9.488281e-02  3.174604e-01
     vertex  1.162410e-01  6.178577e-02  3.174604e-01
   endloop
 endfacet
 facet normal  0.000000e+00  0.000000e+00  1.000000e+00
   outer loop
     vertex  6.701098e-01  4.508311e-01  3.174604e-01
     vertex  6.440702e-01 -3.773838e-02  3.174604e-01
     vertex  7.587358e-01  1.829306e-01  3.174604e-01
   endloop
 endfacet
 facet normal  0.000000e+00  0.000000e+00  1.000000e+00
   outer loop
     vertex  6.701098e-01  4.508311e-01  3.174604e-01
     vertex  1.162410e-01  6.178577e-02  3.174604e-01
     vertex  1.346921e-01  3.047257e-02  3.174604e-01
   endloop
 endfacet
 facet normal  0.000000e+00  0.000000e+00  1.000000e+00
   outer loop
     vertex  6.701098e-01  4.508311e-01  3.174604e-01
     vertex  1.346921e-01  3.047257e-02  3.174604e-01
     vertex  1.563671e-01  1.298000e-03  3.174604e-01
   endloop
 endfacet
 facet normal  0.000000e+00  0.000000e+00  1.000000e+00
   outer loop
     vertex  6.701098e-01  4.508311e-01  3.174604e-01
     vertex  1.563671e-01  1.298000e-03  3.174604e-01
     vertex  1.810203e-01 -2.540738e-02  3.174604e-01
   endloop
 endfacet
 facet normal  0.000000e+00  0.000000e+00  1.000000e+00
   outer loop
     vertex  6.701098e-01  4.508311e-01  3.174604e-01
     vertex  1.810203e-01 -2.540738e-02  3.174604e-01
     vertex  2.083725e-01 -4.934099e-02  3.174604e-01
   endloop
 endfacet
 facet normal  0.000000e+00  0.000000e+00  1.000000e+00
   outer loop
     vertex  6.701098e-01  4.508311e-01  3.174604e-01
     vertex  2.083725e-01 -4.934099e-02  3.174604e-01
     vertex  2.381138e-01 -7.023165e-02  3.174604e-01
   endloop
 endfacet
 facet normal  0.000000e+00  0.000000e+00  1.000000e+00
   outer loop
     vertex  6.701098e-01  4.508311e-01  3.174604e-01
     vertex  2.381138e-01 -7.023165e-02  3.174604e-01
     vertex  2.699071e-01 -8.784266e-02  3.174604e-01
   endloop
 endfacet
 facet normal  0.000000e+00  0.000000e+00  1.000000e+00
   outer loop
     vertex  6.701098e-01  4.508311e-01  3.174604e-01
     vertex  2.699071e-01 -8.784266e-02  3.174604e-01
     vertex  3.033922e-01 -1.019745e-01  3.174604e-01
   endloop
 endfacet
 facet normal  0.000000e+00  0.000000e+00  1.000000e+00
   outer loop
     vertex  6.701098e-01  4.508311e-01  3.174604e-01
     vertex  3.033922e-01 -1.019745e-01  3.174604e-01
     vertex  3.381897e-01 -1.124670e-01  3.174604e-01
   endloop
 endfacet
 facet normal  0.000000e+00  0.000000e+00  1.000000e+00
   outer loop
     vertex  6.701098e-01  4.508311e-01  3.174604e-01
     vertex  3.381897e-01 -1.124670e-01  3.174604e-01
     vertex  3.739054e-01 -1.192013e-01  3.174604e-01
   endloop
 endfacet
 facet normal  0.000000e+00  0.000000e+00  1.000000e+00
   outer loop
     vertex  6.701098e-01  4.508311e-01  3.174604e-01
     vertex  3.739054e-01 -1.192013e-01  3.174604e-01
     vertex  4.101345e-01 -1.221012e-01  3.174604e-01
   endloop
 endfacet
 facet normal  0.000000e+00  0.000000e+00  1.000000e+00
   outer loop
     vertex  6.701098e-01  4.508311e-01  3.174604e-01
     vertex  4.101345e-01 -1.221012e-01  3.174604e-01
     vertex  4.464667e-01 -1.211336e-01  3.174604e-01
   endloop
 endfacet
 facet normal  0.000000e+00  0.000000e+00  1.000000e+00
   outer loop
     vertex  6.701098e-01  4.508311e-01  3.174604e-01
     vertex  4.464667e-01 -1.211336e-01  3.174604e-01
     vertex  4.824901e-01 -1.163097e-01  3.174604e-01
   endloop
 endfacet
 facet normal  0.000000e+00  0.000000e+00  1.000000e+00
   outer loop
     vertex  6.701098e-01  4.508311e-01  3.174604e-01
     vertex  4.824901e-01 -1.163097e-01  3.174604e-01
     vertex  5.177968e-01 -1.076841e-01  3.174604e-01
   endloop
 endfacet
 facet normal  0.000000e+00  0.000000e+00  1.000000e+00
   outer loop
     vertex  6.701098e-01  4.508311e-01  3.174604e-01
     vertex  5.177968e-01 -1.076841e-01  3.174604e-01
     vertex  5.519865e-01 -9.535443e-02  3.174604e-01
   endloop
 endfacet
 facet normal  0.000000e+00  0.000000e+00  1.000000e+00
   outer loop
     vertex  6.701098e-01  4.508311e-01  3.174604e-01
     vertex  5.177968e-01  5.461322e-01  3.174604e-01
     vertex  4.464667e-01  5.595818e-01  3.174604e-01
   endloop
 endfacet
 facet normal  0.000000e+00  0.000000e+00  1.000000e+00
   outer loop
     vertex  6.701098e-01  4.508311e-01  3.174604e-01
     vertex  7.587358e-01  2.555176e-01  3.174604e-01
     vertex  7.433922e-01  3.264644e-01  3.174604e-01
   endloop
 endfacet
 facet normal  0.000000e+00  0.000000e+00  1.000000e+00
   outer loop
     vertex  6.701098e-01  4.508311e-01  3.174604e-01
     vertex  7.587358e-01  1.829306e-01  3.174604e-01
     vertex  7.606702e-01  2.192241e-01  3.174604e-01
   endloop
 endfacet
 facet normal  0.000000e+00  0.000000e+00  1.000000e+00
   outer loop
     vertex  6.701098e-01  4.508311e-01  3.174604e-01
     vertex  6.154830e-01  4.986304e-01  3.174604e-01
     vertex  5.177968e-01  5.461322e-01  3.174604e-01
   endloop
 endfacet
 facet normal  0.000000e+00  0.000000e+00  1.000000e+00
   outer loop
     vertex  6.701098e-01  4.508311e-01  3.174604e-01
     vertex  2.381138e-01  5.086798e-01  3.174604e-01
     vertex  1.810203e-01  4.638555e-01  3.174604e-01
   endloop
 endfacet
 facet normal  0.000000e+00  0.000000e+00  1.000000e+00
   outer loop
     vertex  6.701098e-01  4.508311e-01  3.174604e-01
     vertex  7.433922e-01  3.264644e-01  3.174604e-01
     vertex  6.933068e-01  4.228514e-01  3.174604e-01
   endloop
 endfacet
 facet normal  0.000000e+00  0.000000e+00 -1.000000e+00
   outer loop
     vertex  6.440702e-01 -3.773838e-02 -3.174603e-02
     vertex  5.846721e-01 -7.946048e-02 -3.174603e-02
     vertex  5.519865e-01 -9.535443e-02 -3.174603e-02
   endloop
 endfacet
 facet normal  0.000000e+00  0.000000e+00 -1.000000e+00
   outer loop
     vertex  6.440702e-01 -3.773838e-02 -3.174603e-02
     vertex  6.154830e-01 -6.018232e-02 -3.174603e-02
     vertex  5.846721e-01 -7.946048e-02 -3.174603e-02
   endloop
 endfacet
 facet normal  0.000000e+00  0.000000e+00 -1.000000e+00
   outer loop
     vertex  2.381138e-01  5.086798e-01 -3.174603e-02
     vertex  1.810203e-01  4.638555e-01 -3.174603e-02
     vertex  2.083725e-01  4.877891e-01 -3.174603e-02
   endloop
 endfacet
 facet normal  0.000000e+00  0.000000e+00 -1.000000e+00
   outer loop
     vertex  7.587358e-01  1.829306e-01 -3.174603e-02
     vertex  6.701098e-01 -1.238295e-02 -3.174603e-02
     vertex  6.440702e-01 -3.773838e-02 -3.174603e-02
   endloop
 endfacet
 facet normal  0.000000e+00  0.000000e+00 -1.000000e+00
   outer loop
     vertex  7.587358e-01  1.829306e-01 -3.174603e-02
     vertex  6.933068e-01  1.559668e-02 -3.174603e-02
     vertex  6.701098e-01 -1.238295e-02 -3.174603e-02
   endloop
 endfacet
 facet normal  0.000000e+00  0.000000e+00 -1.000000e+00
   outer loop
     vertex  7.587358e-01  1.829306e-01 -3.174603e-02
     vertex  7.133984e-01  4.588350e-02 -3.174603e-02
     vertex  6.933068e-01  1.559668e-02 -3.174603e-02
   endloop
 endfacet
 facet normal  0.000000e+00  0.000000e+00 -1.000000e+00
   outer loop
     vertex  7.587358e-01  1.829306e-01 -3.174603e-02
     vertex  7.301568e-01  7.813432e-02 -3.174603e-02
     vertex  7.133984e-01  4.588350e-02 -3.174603e-02
   endloop
 endfacet
 facet normal  0.000000e+00  0.000000e+00 -1.000000e+00
   outer loop
     vertex  7.587358e-01  1.829306e-01 -3.174603e-02
     vertex  7.433922e-01  1.119838e-01 -3.174603e-02
     vertex  7.301568e-01  7.813432e-02 -3.174603e-02
   endloop
 endfacet
 facet normal  0.000000e+00  0.000000e+00 -1.000000e+00
   outer loop
     vertex  7.587358e-01  1.829306e-01 -3.174603e-02
     vertex  7.529547e-01  1.470483e-01 -3.174603e-02
     vertex  7.433922e-01  1.119838e-01 -3.174603e-02
   endloop
 endfacet
 facet normal  0.000000e+00  0.000000e+00 -1.000000e+00
   outer loop
     vertex  5.177968e-01  5.461322e-01 -3.174603e-02
     vertex  4.464667e-01  5.595818e-01 -3.174603e-02
     vertex  4.824901e-01  5.547578e-01 -3.174603e-02
   endloop
 endfacet
 facet normal  0.000000e+00  0.000000e+00 -1.000000e+00
   outer loop
     vertex  7.433922e-01  3.264644e-01 -3.174603e-02
     vertex  7.529547e-01  2.913999e-01 -3.174603e-02
     vertex  7.587358e-01  2.555176e-01 -3.174603e-02
   endloop
 endfacet
 facet normal  0.000000e+00  0.000000e+00 -1.000000e+00
   outer loop
     vertex  6.154830e-01  4.986304e-01 -3.174603e-02
     vertex  5.519865e-01  5.338026e-01 -3.174603e-02
     vertex  5.846721e-01  5.179086e-01 -3.174603e-02
   endloop
 endfacet
 facet normal  0.000000e+00  0.000000e+00 -1.000000e+00
   outer loop
     vertex  6.154830e-01  4.986304e-01 -3.174603e-02
     vertex  5.177968e-01  5.461322e-01 -3.174603e-02
     vertex  5.519865e-01  5.338026e-01 -3.174603e-02
   endloop
 endfacet
 facet normal  0.000000e+00  0.000000e+00 -1.000000e+00
   outer loop
     vertex  6.933068e-01  4.228514e-01 -3.174603e-02
     vertex  7.301568e-01  3.603138e-01 -3.174603e-02
     vertex  7.433922e-01  3.264644e-01 -3.174603e-02
   endloop
 endfacet
 facet normal  0.000000e+00  0.000000e+00 -1.000000e+00
   outer loop
     vertex  6.933068e-01  4.228514e-01 -3.174603e-02
     vertex  7.133984e-01  3.925646e-01 -3.174603e-02
     vertex  7.301568e-01  3.603138e-01 -3.174603e-02
   endloop
 endfacet
 facet normal  0.000000e+00  0.000000e+00 -1.000000e+00
   outer loop
     vertex  6.701098e-01  4.508311e-01 -3.174603e-02
     vertex  7.587358e-01  2.555176e-01 -3.174603e-02
     vertex  7.606702e-01  2.192241e-01 -3.174603e-02
   endloop
 endfacet
 facet normal  0.000000e+00  0.000000e+00 -1.000000e+00
   outer loop
     vertex  6.701098e-01  4.508311e-01 -3.174603e-02
     vertex  6.154830e-01  4.986304e-01 -3.174603e-02
     vertex  6.440702e-01  4.761865e-01 -3.174603e-02
   endloop
 endfacet
 facet normal  0.000000e+00  0.000000e+00 -1.000000e+00
   outer loop
     vertex  6.701098e-01  4.508311e-01 -3.174603e-02
     vertex  4.101345e-01  5.605493e-01 -3.174603e-02
     vertex  4.464667e-01  5.595818e-01 -3.174603e-02
   endloop
 endfacet
 facet normal  0.000000e+00  0.000000e+00 -1.000000e+00
   outer loop
     vertex  6.701098e-01  4.508311e-01 -3.174603e-02
     vertex  3.739054e-01  5.576494e-01 -3.174603e-02
     vertex  4.101345e-01  5.605493e-01 -3.174603e-02
   endloop
 endfacet
 facet normal  0.000000e+00  0.000000e+00 -1.000000e+00
   outer loop
     vertex  6.701098e-01  4.508311e-01 -3.174603e-02
     vertex  3.381897e-01  5.509151e-01 -3.174603e-02
     vertex  3.739054e-01  5.576494e-01 -3.174603e-02
   endloop
 endfacet
 facet normal  0.000000e+00  0.000000e+00 -1.000000e+00
   outer loop
     vertex  6.701098e-01  4.508311e-01 -3.174603e-02
     vertex  3.033922e-01  5.404226e-01 -3.174603e-02
     vertex  3.381897e-01  5.509151e-01 -3.174603e-02
   endloop
 endfacet
 facet normal  0.000000e+00  0.000000e+00 -1.000000e+00
   outer loop
     vertex  6.701098e-01  4.508311e-01 -3.174603e-02
     vertex  2.699071e-01  5.262908e-01 -3.174603e-02
     vertex  3.033922e-01  5.404226e-01 -3.174603e-02
   endloop
 endfacet
 facet normal  0.000000e+00  0.000000e+00 -1.000000e+00
   outer loop
     vertex  6.701098e-01  4.508311e-01 -3.174603e-02
     vertex  6.440702e-01 -3.773838e-02 -3.174603e-02
     vertex  5.519865e-01 -9.535443e-02 -3.174603e-02
   endloop
 endfacet
 facet normal  0.000000e+00  0.000000e+00 -1.000000e+00
   outer loop
     vertex  6.701098e-01  4.508311e-01 -3.174603e-02
     vertex  2.381138e-01  5.086798e-01 -3.174603e-02
     vertex  2.699071e-01  5.262908e-01 -3.174603e-02
   endloop
 endfacet
 facet normal -0.000000e+00  0.000000e+00 -1.000000e+00
   outer loop
     vertex  6.701098e-01  4.508311e-01 -3.174603e-02
     vertex  1.563671e-01  4.371501e-01 -3.174603e-02
     vertex  1.810203e-01  4.638555e-01 -3.174603e-02
   endloop
 endfacet
 facet normal  0.000000e+00  0.000000e+00 -1.000000e+00
   outer loop
     vertex  6.701098e-01  4.508311e-01 -3.174603e-02
     vertex  1.346921e-01  4.079756e-01 -3.174603e-02
     vertex  1.563671e-01  4.371501e-01 -3.174603e-02
   endloop
 endfacet
 facet normal  0.000000e+00  0.000000e+00 -1.000000e+00
   outer loop
     vertex  6.701098e-01  4.508311e-01 -3.174603e-02
     vertex  1.162410e-01  3.766624e-01 -3.174603e-02
     vertex  1.346921e-01  4.079756e-01 -3.174603e-02
   endloop
 endfacet
 facet normal  0.000000e+00  0.000000e+00 -1.000000e+00
   outer loop
     vertex  6.701098e-01  4.508311e-01 -3.174603e-02
     vertex  1.012228e-01  3.435653e-01 -3.174603e-02
     vertex  1.162410e-01  3.766624e-01 -3.174603e-02
   endloop
 endfacet
 facet normal  0.000000e+00  0.000000e+00 -1.000000e+00
   outer loop
     vertex  6.701098e-01  4.508311e-01 -3.174603e-02
     vertex  8.980765e-02  3.090594e-01 -3.174603e-02
     vertex  1.012228e-01  3.435653e-01 -3.174603e-02
   endloop
 endfacet
 facet normal  0.000000e+00  0.000000e+00 -1.000000e+00
   outer loop
     vertex  6.701098e-01  4.508311e-01 -3.174603e-02
     vertex  8.212495e-02  2.735357e-01 -3.174603e-02
     vertex  8.980765e-02  3.090594e-01 -3.174603e-02
   endloop
 endfacet
 facet normal  0.000000e+00  0.000000e+00 -1.000000e+00
   outer loop
     vertex  6.701098e-01  4.508311e-01 -3.174603e-02
     vertex  7.826171e-02  2.373966e-01 -3.174603e-02
     vertex  8.212495e-02  2.735357e-01 -3.174603e-02
   endloop
 endfacet
 facet normal  0.000000e+00  0.000000e+00 -1.000000e+00
   outer loop
     vertex  6.701098e-01  4.508311e-01 -3.174603e-02
     vertex  7.826171e-02  2.010516e-01 -3.174603e-02
     vertex  7.826171e-02  2.373966e-01 -3.174603e-02
   endloop
 endfacet
 facet normal  0.000000e+00  0.000000e+00 -1.000000e+00
   outer loop
     vertex  6.701098e-01  4.508311e-01 -3.174603e-02
     vertex  8.212495e-02  1.649124e-01 -3.174603e-02
     vertex  7.826171e-02  2.010516e-01 -3.174603e-02
   endloop
 endfacet
 facet normal  0.000000e+00  0.000000e+00 -1.000000e+00
   outer loop
     vertex  6.701098e-01  4.508311e-01 -3.174603e-02
     vertex  8.980765e-02  1.293887e-01 -3.174603e-02
     vertex  8.212495e-02  1.649124e-01 -3.174603e-02
   endloop
 endfacet
 facet normal  0.000000e+00  0.000000e+00 -1.000000e+00
   outer loop
     vertex  6.701098e-01  4.508311e-01 -3.174603e-02
     vertex  1.012228e-01  9.488281e-02 -3.174603e-02
     vertex  8.980765e-02  1.293887e-01 -3.174603e-02
   endloop
 endfacet
 facet normal  0.000000e+00  0.000000e+00 -1.000000e+00
   outer loop
     vertex  6.701098e-01  4.508311e-01 -3.174603e-02
     vertex  1.162410e-01  6.178577e-02 -3.174603e-02
     vertex  1.012228e-01  9.488281e-02 -3.174603e-02
   endloop
 endfacet
 facet normal  0.000000e+00 -0.000000e+00 -1.000000e+00
   outer loop
     vertex  6.701098e-01  4.508311e-01 -3.174603e-02
     vertex  7.587358e-01  1.829306e-01 -3.174603e-02
     vertex  6.440702e-01 -3.773838e-02 -3.174603e-02
   endloop
 endfacet
 facet normal  0.000000e+00  0.000000e+00 -1.000000e+00
   outer loop
     vertex  6.701098e-01  4.508311e-01 -3.174603e-02
     vertex  1.346921e-01  3.047257e-02 -3.174603e-02
     vertex  1.162410e-01  6.178577e-02 -3.174603e-02
   endloop
 endfacet
 facet normal  0.000000e+00  0.000000e+00 -1.000000e+00
   outer loop
     vertex  6.701098e-01  4.508311e-01 -3.174603e-02
     vertex  1.563671e-01  1.298000e-03 -3.174603e-02
     vertex  1.346921e-01  3.047257e-02 -3.174603e-02
   endloop
 endfacet
 facet normal  0.000000e+00  0.000000e+00 -1.000000e+00
   outer loop
     vertex  6.701098e-01  4.508311e-01 -3.174603e-02
     vertex  1.810203e-01 -2.540738e-02 -3.174603e-02
     vertex  1.563671e-01  1.298000e-03 -3.174603e-02
   endloop
 endfacet
 facet normal  0.000000e+00  0.000000e+00 -1.000000e+00
   outer loop
     vertex  6.701098e-01  4.508311e-01 -3.174603e-02
     vertex  2.083725e-01 -4.934099e-02 -3.174603e-02
     vertex  1.810203e-01 -2.540738e-02 -3.174603e-02
   endloop
 endfacet
 facet normal  0.000000e+00  0.000000e+00 -1.000000e+00
   outer loop
     vertex  6.701098e-01  4.508311e-01 -3.174603e-02
     vertex  2.381138e-01 -7.023165e-02 -3.174603e-02
     vertex  2.083725e-01 -4.934099e-02 -3.174603e-02
   endloop
 endfacet
 facet normal  0.000000e+00  0.000000e+00 -1.000000e+00
   outer loop
     vertex  6.701098e-01  4.508311e-01 -3.174603e-02
     vertex  2.699071e-01 -8.784266e-02 -3.174603e-02
     vertex  2.381138e-01 -7.023165e-02 -3.174603e-02
   endloop
 endfacet
 facet normal  0.000000e+00  0.000000e+00 -1.000000e+00
   outer loop
     vertex  6.701098e-01  4.508311e-01 -3.174603e-02
     vertex  3.033922e-01 -1.019745e-01 -3.174603e-02
     vertex  2.699071e-01 -8.784266e-02 -3.174603e-02
   endloop
 endfacet
 facet normal  0.000000e+00  0.000000e+00 -1.000000e+00
   outer loop
     vertex  6.701098e-01  4.508311e-01 -3.174603e-02
     vertex  3.381897e-01 -1.124670e-01 -3.174603e-02
     vertex  3.033922e-01 -1.019745e-01 -3.174603e-02
   endloop
 endfacet
 facet normal  0.000000e+00  0.000000e+00 -1.000000e+00
   outer loop
     vertex  6.701098e-01  4.508311e-01 -3.174603e-02
     vertex  3.739054e-01 -1.192013e-01 -3.174603e-02
     vertex  3.381897e-01 -1.124670e-01 -3.174603e-02
   endloop
 endfacet
 facet normal  0.000000e+00  0.000000e+00 -1.000000e+00
   outer loop
     vertex  6.701098e-01  4.508311e-01 -3.174603e-02
     vertex  4.101345e-01 -1.221012e-01 -3.174603e-02
     vertex  3.739054e-01 -1.192013e-01 -3.174603e-02
   endloop
 endfacet
 facet normal  0.000000e+00  0.000000e+00 -1.000000e+00
   outer loop
     vertex  6.701098e-01  4.508311e-01 -3.174603e-02
     vertex  4.464667e-01 -1.211336e-01 -3.174603e-02
     vertex  4.101345e-01 -1.221012e-01 -3.174603e-02
   endloop
 endfacet
 facet normal  0.000000e+00  0.000000e+00 -1.000000e+00
   outer loop
     vertex  6.701098e-01  4.508311e-01 -3.174603e-02
     vertex  4.824901e-01 -1.163097e-01 -3.174603e-02
     vertex  4.464667e-01 -1.211336e-01 -3.174603e-02
   endloop
 endfacet
 facet normal  0.000000e+00  0.000000e+00 -1.000000e+00
   outer loop
     vertex  6.701098e-01  4.508311e-01 -3.174603e-02
     vertex  5.177968e-01 -1.076841e-01 -3.174603e-02
     vertex  4.824901e-01 -1.163097e-01 -3.174603e-02
   endloop
 endfacet
 facet normal  0.000000e+00  0.000000e+00 -1.000000e+00
   outer loop
     vertex  6.701098e-01  4.508311e-01 -3.174603e-02
     vertex  5.519865e-01 -9.535443e-02 -3.174603e-02
     vertex  5.177968e-01 -1.076841e-01 -3.174603e-02
   endloop
 endfacet
 facet normal  0.000000e+00  0.000000e+00 -1.000000e+00
   outer loop
     vertex  6.701098e-01  4.508311e-01 -3.174603e-02
     vertex  4.464667e-01  5.595818e-01 -3.174603e-02
     vertex  5.177968e-01  5.461322e-01 -3.174603e-02
   endloop
 endfacet
 facet normal  0.000000e+00  0.000000e+00 -1.000000e+00
   outer loop
     vertex  6.701098e-01  4.508311e-01 -3.174603e-02
     vertex  7.433922e-01  3.264644e-01 -3.174603e-02
     vertex  7.587358e-01  2.555176e-01 -3.174603e-02
   endloop
 endfacet
 facet normal  0.000000e+00  0.000000e+00 -1.000000e+00
   outer loop
     vertex  6.701098e-01  4.508311e-01 -3.174603e-02
     vertex  7.606702e-01  2.192241e-01 -3.174603e-02
     vertex  7.587358e-01  1.829306e-01 -3.174603e-02
   endloop
 endfacet
 facet normal  0.000000e+00  0.000000e+00 -1.000000e+00
   outer loop
     vertex  6.701098e-01  4.508311e-01 -3.174603e-02
     vertex  5.177968e-01  5.461322e-01 -3.174603e-02
     vertex  6.154830e-01  4.986304e-01 -3.174603e-02
   endloop
 endfacet
 facet normal  0.000000e+00  0.000000e+00 -1.000000e+00
   outer loop
     vertex  6.701098e-01  4.508311e-01 -3.174603e-02
     vertex  1.810203e-01  4.638555e-01 -3.174603e-02
     vertex  2.381138e-01  5.086798e-01 -3.174603e-02
   endloop
 endfacet
 facet normal  0.000000e+00  0.000000e+00 -1.000000e+00
   outer loop
     vertex  6.701098e-01  4.508311e-01 -3.174603e-02
     vertex  6.933068e-01  4.228514e-01 -3.174603e-02
     vertex  7.433922e-01  3.264644e-01 -3.174603e-02
   endloop
 endfacet
 facet normal  0.000000e+00 -1.000000e+00  0.000000e+00
   outer loop
     vertex -3.179893e-01 -2.534391e-01 -1.587302e-02
     vertex -6.142856e-01 -2.534391e-01  3.174604e-01
     vertex -6.142856e-01 -2.534391e-01 -1.587302e-02
   endloop
 endfacet
 facet normal  0.000000e+00 -1.000000e+00  0.000000e+00
   outer loop
     vertex -3.179893e-01 -2.534391e-01 -1.587302e-02
     vertex -3.179893e-01 -2.534391e-01  3.174604e-01
     vertex -6.142856e-01 -2.534391e-01  3.174604e-01
   endloop
 endfacet
 facet normal -1.000000e+00  0.000000e+00  0.000000e+00
   outer loop
     vertex -6.142856e-01 -2.534391e-01 -1.587302e-02
     vertex -6.142856e-01  6.354498e-01  3.174604e-01
     vertex -6.142856e-01  6.354498e-01 -1.587302e-02
   endloop
 endfacet
 facet normal -1.000000e+00  0.000000e+00  0.000000e+00
   outer loop
     vertex -6.142856e-01 -2.534391e-01 -1.587302e-02
     vertex -6.142856e-01 -2.534391e-01  3.174604e-01
     vertex -6.142856e-01  6.354498e-01  3.174604e-01
   endloop
 endfacet
 facet normal  1.000000e+00  0.000000e+00  0.000000e+00
   outer loop
     vertex -3.179893e-01  6.354498e-01 -1.587302e-02
     vertex -3.179893e-01 -2.534391e-01  3.174604e-01
     vertex -3.179893e-01 -2.534391e-01 -1.587302e-02
   endloop
 endfacet
 facet normal  1.000000e+00  0.000000e+00 -0.000000e+00
   outer loop
     vertex -3.179893e-01  6.354498e-01 -1.587302e-02
     vertex -3.179893e-01  6.354498e-01  3.174604e-01
     vertex -3.179893e-01 -2.534391e-01  3.174604e-01
   endloop
 endfacet
 facet normal -0.000000e+00 -1.000000e+00  0.000000e+00
   outer loop
     vertex -3.179893e-01 -2.534391e-01 -1.587302e-02
     vertex -6.142856e-01 -2.534391e-01 -1.587302e-02
     vertex -6.142856e-01 -2.534391e-01 -3.174603e-02
   endloop
 endfacet
 facet normal  0.000000e+00 -1.000000e+00 -0.000000e+00
   outer loop
     vertex -3.179893e-01 -2.534391e-01 -1.587302e-02
     vertex -6.142856e-01 -2.534391e-01 -3.174603e-02
     vertex -3.179893e-01 -2.534391e-01 -3.174603e-02
   endloop
 endfacet
 facet normal  0.000000e+00  0.000000e+00  1.000000e+00
   outer loop
     vertex -3.179893e-01  6.354498e-01  3.174604e-01
     vertex -6.142856e-01 -2.534391e-01  3.174604e-01
     vertex -3.179893e-01 -2.534391e-01  3.174604e-01
   endloop
 endfacet
 facet normal  0.000000e+00  0.000000e+00  1.000000e+00
   outer loop
     vertex -3.179893e-01  6.354498e-01  3.174604e-01
     vertex -6.142856e-01  6.354498e-01  3.174604e-01
     vertex -6.142856e-01 -2.534391e-01  3.174604e-01
   endloop
 endfacet
 facet normal  0.000000e+00  1.000000e+00  0.000000e+00
   outer loop
     vertex -6.142856e-01  6.354498e-01 -1.587302e-02
     vertex -3.179893e-01  6.354498e-01  3.174604e-01
     vertex -3.179893e-01  6.354498e-01 -1.587302e-02
   endloop
 endfacet
 facet normal  0.000000e+00  1.000000e+00  0.000000e+00
   outer loop
     vertex -6.142856e-01  6.354498e-01 -1.587302e-02
     vertex -6.142856e-01  6.354498e-01  3.174604e-01
     vertex -3.179893e-01  6.354498e-01  3.174604e-01
   endloop
 endfacet
 facet normal -1.000000e+00  0.000000e+00  0.000000e+00
   outer loop
     vertex -6.142856e-01 -2.534391e-01 -1.587302e-02
     vertex -6.142856e-01  6.354498e-01 -1.587302e-02
     vertex -6.142856e-01  6.354498e-01 -3.174603e-02
   endloop
 endfacet
 facet normal -1.000000e+00  0.000000e+00  0.000000e+00
   outer loop
     vertex -6.142856e-01 -2.534391e-01 -1.587302e-02
     vertex -6.142856e-01  6.354498e-01 -3.174603e-02
     vertex -6.142856e-01 -2.534391e-01 -3.174603e-02
   endloop
 endfacet
 facet normal  1.000000e+00  0.000000e+00  0.000000e+00
   outer loop
     vertex -3.179893e-01  6.354498e-01 -1.587302e-02
     vertex -3.179893e-01 -2.534391e-01 -1.587302e-02
     vertex -3.179893e-01 -2.534391e-01 -3.174603e-02
   endloop
 endfacet
 facet normal  1.000000e+00  0.000000e+00  0.000000e+00
   outer loop
     vertex -3.179893e-01  6.354498e-01 -1.587302e-02
     vertex -3.179893e-01 -2.534391e-01 -3.174603e-02
     vertex -3.179893e-01  6.354498e-01 -3.174603e-02
   endloop
 endfacet
 facet normal  0.000000e+00 -0.000000e+00 -1.000000e+00
   outer loop
     vertex -3.179893e-01  6.354498e-01 -3.174603e-02
     vertex -3.179893e-01 -2.534391e-01 -3.174603e-02
     vertex -6.142856e-01 -2.534391e-01 -3.174603e-02
   endloop
 endfacet
 facet normal -0.000000e+00  0.000000e+00 -1.000000e+00
   outer loop
     vertex -3.179893e-01  6.354498e-01 -3.174603e-02
     vertex -6.142856e-01 -2.534391e-01 -3.174603e-02
     vertex -6.142856e-01  6.354498e-01 -3.174603e-02
   endloop
 endfacet
 facet normal -0.000000e+00  1.000000e+00  0.000000e+00
   outer loop
     vertex -6.142856e-01  6.354498e-01 -1.587302e-02
     vertex -3.179893e-01  6.354498e-01 -1.587302e-02
     vertex -3.179893e-01  6.354498e-01 -3.174603e-02
   endloop
 endfacet
 facet normal  0.000000e+00  1.000000e+00  0.000000e+00
   outer loop
     vertex -6.142856e-01  6.354498e-01 -1.587302e-02
     vertex -3.179893e-01  6.354498e-01 -3.174603e-02
     vertex -6.142856e-01  6.354498e-01 -3.174603e-02
   endloop
 endfacet
endsolid
