solid 
 facet normal  0.000000e+00 -1.000000e+00  0.000000e+00
   outer loop
     vertex -4.276896e-01  2.380952e-02 -1.587302e-02
     vertex -5.560846e-01  2.380952e-02  2.857143e-01
     vertex -5.560846e-01  2.380952e-02 -1.587302e-02
   endloop
 endfacet
 facet normal  0.000000e+00 -1.000000e+00  0.000000e+00
   outer loop
     vertex -4.276896e-01  2.380952e-02 -1.587302e-02
     vertex -4.276896e-01  2.380952e-02  2.857143e-01
     vertex -5.560846e-01  2.380952e-02  2.857143e-01
   endloop
 endfacet
 facet normal -1.000000e+00  0.000000e+00  0.000000e+00
   outer loop
     vertex -5.560846e-01  2.380952e-02 -1.587302e-02
     vertex -5.560846e-01  5.924162e-01  2.857143e-01
     vertex -5.560846e-01  5.924162e-01 -1.587302e-02
   endloop
 endfacet
 facet normal -1.000000e+00  0.000000e+00  0.000000e+00
   outer loop
     vertex -5.560846e-01  2.380952e-02 -1.587302e-02
     vertex -5.560846e-01  2.380952e-02  2.857143e-01
     vertex -5.560846e-01  5.924162e-01  2.857143e-01
   endloop
 endfacet
 facet normal  1.000000e+00  0.000000e+00  0.000000e+00
   outer loop
     vertex -4.276896e-01  3.257496e-01  2.857143e-01
     vertex -4.276896e-01  2.380952e-02  2.857143e-01
     vertex -4.276896e-01  2.380952e-02 -1.587302e-02
   endloop
 endfacet
 facet normal  1.000000e+00  0.000000e+00  0.000000e+00
   outer loop
     vertex -4.276896e-01  5.924162e-01 -1.587302e-02
     vertex -4.276896e-01  3.680777e-01  2.857143e-01
     vertex -4.276896e-01  3.257496e-01  2.857143e-01
   endloop
 endfacet
 facet normal  1.000000e+00  0.000000e+00 -0.000000e+00
   outer loop
     vertex -4.276896e-01  5.924162e-01 -1.587302e-02
     vertex -4.276896e-01  5.924162e-01  2.857143e-01
     vertex -4.276896e-01  3.680777e-01  2.857143e-01
   endloop
 endfacet
 facet normal  1.000000e+00  0.000000e+00  0.000000e+00
   outer loop
     vertex -4.276896e-01  5.924162e-01 -1.587302e-02
     vertex -4.276896e-01  3.257496e-01  2.857143e-01
     vertex -4.276896e-01  2.380952e-02 -1.587302e-02
   endloop
 endfacet
 facet normal -0.000000e+00 -1.000000e+00  0.000000e+00
   outer loop
     vertex -4.276896e-01  2.380952e-02 -1.587302e-02
     vertex -5.560846e-01  2.380952e-02 -1.587302e-02
     vertex -5.560846e-01  2.380952e-02 -3.174603e-02
   endloop
 endfacet
 facet normal  0.000000e+00 -1.000000e+00 -0.000000e+00
   outer loop
     vertex -4.276896e-01  2.380952e-02 -1.587302e-02
     vertex -5.560846e-01  2.380952e-02 -3.174603e-02
     vertex -4.276896e-01  2.380952e-02 -3.174603e-02
   endloop
 endfacet
 facet normal  0.000000e+00  0.000000e+00  1.000000e+00
   outer loop
     vertex -4.862433e-01  3.257496e-01  2.857143e-01
     vertex -5.560846e-01  2.380952e-02  2.857143e-01
     vertex -4.276896e-01  2.380952e-02  2.857143e-01
   endloop
 endfacet
 facet normal  0.000000e+00  0.000000e+00  1.000000e+00
   outer loop
     vertex -4.276896e-01  3.257496e-01  2.857143e-01
     vertex -4.862433e-01  3.257496e-01  2.857143e-01
     vertex -4.276896e-01  2.380952e-02  2.857143e-01
   endloop
 endfacet
 facet normal  0.000000e+00  0.000000e+00  1.000000e+00
   outer loop
     vertex -5.560846e-01  5.924162e-01  2.857143e-01
     vertex -4.862433e-01  3.257496e-01  2.857143e-01
     vertex -4.862433e-01  3.680777e-01  2.857143e-01
   endloop
 endfacet
 facet normal  0.000000e+00  0.000000e+00  1.000000e+00
   outer loop
     vertex -4.276896e-01  5.924162e-01  2.857143e-01
     vertex -4.862433e-01  3.680777e-01  2.857143e-01
     vertex -4.276896e-01  3.680777e-01  2.857143e-01
   endloop
 endfacet
 facet normal  0.000000e+00  0.000000e+00  1.000000e+00
   outer loop
     vertex -4.276896e-01  5.924162e-01  2.857143e-01
     vertex -5.560846e-01  5.924162e-01  2.857143e-01
     vertex -4.862433e-01  3.680777e-01  2.857143e-01
   endloop
 endfacet
 facet normal  0.000000e+00  0.000000e+00  1.000000e+00
   outer loop
     vertex -5.560846e-01  5.924162e-01  2.857143e-01
     vertex -5.560846e-01  2.380952e-02  2.857143e-01
     vertex -4.862433e-01  3.257496e-01  2.857143e-01
   endloop
 endfacet
 facet normal  0.000000e+00  1.000000e+00  0.000000e+00
   outer loop
     vertex -5.560846e-01  5.924162e-01 -1.587302e-02
     vertex -4.276896e-01  5.924162e-01  2.857143e-01
     vertex -4.276896e-01  5.924162e-01 -1.587302e-02
   endloop
 endfacet
 facet normal  0.000000e+00  1.000000e+00  0.000000e+00
   outer loop
     vertex -5.560846e-01  5.924162e-01 -1.587302e-02
     vertex -5.560846e-01  5.924162e-01  2.857143e-01
     vertex -4.276896e-01  5.924162e-01  2.857143e-01
   endloop
 endfacet
 facet normal -1.000000e+00  0.000000e+00  0.000000e+00
   outer loop
     vertex -5.560846e-01  2.380952e-02 -1.587302e-02
     vertex -5.560846e-01  5.924162e-01 -1.587302e-02
     vertex -5.560846e-01  5.924162e-01 -3.174603e-02
   endloop
 endfacet
 facet normal -1.000000e+00  0.000000e+00  0.000000e+00
   outer loop
     vertex -5.560846e-01  2.380952e-02 -1.587302e-02
     vertex -5.560846e-01  5.924162e-01 -3.174603e-02
     vertex -5.560846e-01  2.380952e-02 -3.174603e-02
   endloop
 endfacet
 facet normal  1.000000e+00  0.000000e+00  0.000000e+00
   outer loop
     vertex -4.276896e-01  5.924162e-01 -1.587302e-02
     vertex -4.276896e-01  2.380952e-02 -1.587302e-02
     vertex -4.276896e-01  2.380952e-02 -3.174603e-02
   endloop
 endfacet
 facet normal  1.000000e+00  0.000000e+00  0.000000e+00
   outer loop
     vertex -4.276896e-01  5.924162e-01 -1.587302e-02
     vertex -4.276896e-01  2.380952e-02 -3.174603e-02
     vertex -4.276896e-01  5.924162e-01 -3.174603e-02
   endloop
 endfacet
 facet normal -0.000000e+00  0.000000e+00 -1.000000e+00
   outer loop
     vertex -4.072310e-01  3.680777e-01  2.857143e-01
     vertex -4.276896e-01  3.257496e-01  2.857143e-01
     vertex -4.276896e-01  3.680777e-01  2.857143e-01
   endloop
 endfacet
 facet normal  0.000000e+00 -0.000000e+00 -1.000000e+00
   outer loop
     vertex -4.072310e-01  3.680777e-01  2.857143e-01
     vertex -4.072310e-01  3.257496e-01  2.857143e-01
     vertex -4.276896e-01  3.257496e-01  2.857143e-01
   endloop
 endfacet
 facet normal  0.000000e+00 -0.000000e+00 -1.000000e+00
   outer loop
     vertex -4.276896e-01  5.924162e-01 -3.174603e-02
     vertex -4.276896e-01  2.380952e-02 -3.174603e-02
     vertex -5.560846e-01  2.380952e-02 -3.174603e-02
   endloop
 endfacet
 facet normal -0.000000e+00  0.000000e+00 -1.000000e+00
   outer loop
     vertex -4.276896e-01  5.924162e-01 -3.174603e-02
     vertex -5.560846e-01  2.380952e-02 -3.174603e-02
     vertex -5.560846e-01  5.924162e-01 -3.174603e-02
   endloop
 endfacet
 facet normal  0.000000e+00  1.000000e+00  0.000000e+00
   outer loop
     vertex -4.276896e-01  3.680777e-01  2.857143e-01
     vertex -4.072310e-01  3.680777e-01  3.015873e-01
     vertex -4.072310e-01  3.680777e-01  2.857143e-01
   endloop
 endfacet
 facet normal  0.000000e+00  1.000000e+00  0.000000e+00
   outer loop
     vertex -4.862433e-01  3.680777e-01  3.015873e-01
     vertex -4.276896e-01  3.680777e-01  2.857143e-01
     vertex -4.862433e-01  3.680777e-01  2.857143e-01
   endloop
 endfacet
 facet normal -0.000000e+00  1.000000e+00  0.000000e+00
   outer loop
     vertex -4.862433e-01  3.680777e-01  3.015873e-01
     vertex -4.072310e-01  3.680777e-01  3.015873e-01
     vertex -4.276896e-01  3.680777e-01  2.857143e-01
   endloop
 endfacet
 facet normal -1.000000e+00  0.000000e+00  0.000000e+00
   outer loop
     vertex -4.862433e-01  3.257496e-01  3.015873e-01
     vertex -4.862433e-01  3.680777e-01  3.015873e-01
     vertex -4.862433e-01  3.680777e-01  2.857143e-01
   endloop
 endfacet
 facet normal -1.000000e+00  0.000000e+00  0.000000e+00
   outer loop
     vertex -4.862433e-01  3.257496e-01  3.015873e-01
     vertex -4.862433e-01  3.680777e-01  2.857143e-01
     vertex -4.862433e-01  3.257496e-01  2.857143e-01
   endloop
 endfacet
 facet normal  0.000000e+00 -1.000000e+00  0.000000e+00
   outer loop
     vertex -4.276896e-01  3.257496e-01  2.857143e-01
     vertex -4.862433e-01  3.257496e-01  3.015873e-01
     vertex -4.862433e-01  3.257496e-01  2.857143e-01
   endloop
 endfacet
 facet normal  0.000000e+00 -1.000000e+00 -0.000000e+00
   outer loop
     vertex -4.072310e-01  3.257496e-01  3.015873e-01
     vertex -4.276896e-01  3.257496e-01  2.857143e-01
     vertex -4.072310e-01  3.257496e-01  2.857143e-01
   endloop
 endfacet
 facet normal -0.000000e+00 -1.000000e+00  0.000000e+00
   outer loop
     vertex -4.072310e-01  3.257496e-01  3.015873e-01
     vertex -4.862433e-01  3.257496e-01  3.015873e-01
     vertex -4.276896e-01  3.257496e-01  2.857143e-01
   endloop
 endfacet
 facet normal -0.000000e+00  1.000000e+00  0.000000e+00
   outer loop
     vertex -5.560846e-01  5.924162e-01 -1.587302e-02
     vertex -4.276896e-01  5.924162e-01 -1.587302e-02
     vertex -4.276896e-01  5.924162e-01 -3.174603e-02
   endloop
 endfacet
 facet normal  0.000000e+00  1.000000e+00  0.000000e+00
   outer loop
     vertex -5.560846e-01  5.924162e-01 -1.587302e-02
     vertex -4.276896e-01  5.924162e-01 -3.174603e-02
     vertex -5.560846e-01  5.924162e-01 -3.174603e-02
   endloop
 endfacet
 facet normal  1.000000e+00  0.000000e+00  0.000000e+00
   outer loop
     vertex -4.072310e-01  3.680777e-01  3.015873e-01
     vertex -4.072310e-01  3.257496e-01  3.015873e-01
     vertex -4.072310e-01  3.257496e-01  2.857143e-01
   endloop
 endfacet
 facet normal  1.000000e+00  0.000000e+00  0.000000e+00
   outer loop
     vertex -4.072310e-01  3.680777e-01  3.015873e-01
     vertex -4.072310e-01  3.257496e-01  2.857143e-01
     vertex -4.072310e-01  3.680777e-01  2.857143e-01
   endloop
 endfacet
 facet normal  0.000000e+00  1.000000e+00  0.000000e+00
   outer loop
     vertex -4.862433e-01  3.680777e-01  3.015873e-01
     vertex -4.072310e-01  3.680777e-01  5.079366e-01
     vertex -4.072310e-01  3.680777e-01  3.015873e-01
   endloop
 endfacet
 facet normal  0.000000e+00  1.000000e+00  0.000000e+00
   outer loop
     vertex -4.862433e-01  3.680777e-01  3.015873e-01
     vertex -4.862433e-01  3.680777e-01  5.079366e-01
     vertex -4.072310e-01  3.680777e-01  5.079366e-01
   endloop
 endfacet
 facet normal -1.000000e+00  0.000000e+00  0.000000e+00
   outer loop
     vertex -4.862433e-01  3.257496e-01  3.015873e-01
     vertex -4.862433e-01  3.680777e-01  5.079366e-01
     vertex -4.862433e-01  3.680777e-01  3.015873e-01
   endloop
 endfacet
 facet normal -1.000000e+00  0.000000e+00  0.000000e+00
   outer loop
     vertex -4.862433e-01  3.257496e-01  3.015873e-01
     vertex -4.862433e-01  3.257496e-01  5.079366e-01
     vertex -4.862433e-01  3.680777e-01  5.079366e-01
   endloop
 endfacet
 facet normal  0.000000e+00 -1.000000e+00  0.000000e+00
   outer loop
     vertex -4.072310e-01  3.257496e-01  3.015873e-01
     vertex -4.862433e-01  3.257496e-01  5.079366e-01
     vertex -4.862433e-01  3.257496e-01  3.015873e-01
   endloop
 endfacet
 facet normal  0.000000e+00 -1.000000e+00  0.000000e+00
   outer loop
     vertex -4.072310e-01  3.257496e-01  3.015873e-01
     vertex -4.072310e-01  3.257496e-01  5.079366e-01
     vertex -4.862433e-01  3.257496e-01  5.079366e-01
   endloop
 endfacet
 facet normal  1.000000e+00  0.000000e+00  0.000000e+00
   outer loop
     vertex -4.072310e-01  3.680777e-01  3.015873e-01
     vertex -4.072310e-01  3.257496e-01  5.079366e-01
     vertex -4.072310e-01  3.257496e-01  3.015873e-01
   endloop
 endfacet
 facet normal  1.000000e+00  0.000000e+00 -0.000000e+00
   outer loop
     vertex -4.072310e-01  3.680777e-01  3.015873e-01
     vertex -4.072310e-01  3.680777e-01  5.079366e-01
     vertex -4.072310e-01  3.257496e-01  5.079366e-01
   endloop
 endfacet
 facet normal  0.000000e+00  0.000000e+00  1.000000e+00
   outer loop
     vertex -4.072310e-01  3.680777e-01  5.079366e-01
     vertex -4.862433e-01  3.257496e-01  5.079366e-01
     vertex -4.072310e-01  3.257496e-01  5.079366e-01
   endloop
 endfacet
 facet normal  0.000000e+00  0.000000e+00  1.000000e+00
   outer loop
     vertex -4.072310e-01  3.680777e-01  5.079366e-01
     vertex -4.862433e-01  3.680777e-01  5.079366e-01
     vertex -4.862433e-01  3.257496e-01  5.079366e-01
   endloop
 endfacet
endsolid
