solid 
 facet normal  0.000000e+00 -1.000000e+00  0.000000e+00
   outer loop
     vertex  8.305115e-01 -7.742512e-02 -1.587302e-02
     vertex -5.132282e-02 -7.742512e-02  6.984127e-01
     vertex -5.132282e-02 -7.742512e-02 -1.587302e-02
   endloop
 endfacet
 facet normal  0.000000e+00 -1.000000e+00  0.000000e+00
   outer loop
     vertex  8.305115e-01 -7.742512e-02 -1.587302e-02
     vertex  8.305115e-01 -7.742512e-02  6.984127e-01
     vertex -5.132282e-02 -7.742512e-02  6.984127e-01
   endloop
 endfacet
 facet normal -1.000000e+00  0.000000e+00  0.000000e+00
   outer loop
     vertex -5.132282e-02 -7.742512e-02 -1.587302e-02
     vertex -5.132282e-02  6.280423e-01  6.984127e-01
     vertex -5.132282e-02  6.280423e-01 -1.587302e-02
   endloop
 endfacet
 facet normal -1.000000e+00  0.000000e+00  0.000000e+00
   outer loop
     vertex -5.132282e-02 -7.742512e-02 -1.587302e-02
     vertex -5.132282e-02 -7.742512e-02  6.984127e-01
     vertex -5.132282e-02  6.280423e-01  6.984127e-01
   endloop
 endfacet
 facet normal  1.000000e+00  0.000000e+00  0.000000e+00
   outer loop
     vertex  8.305115e-01  6.280423e-01 -1.587302e-02
     vertex  8.305115e-01 -7.742512e-02  6.984127e-01
     vertex  8.305115e-01 -7.742512e-02 -1.587302e-02
   endloop
 endfacet
 facet normal  1.000000e+00  0.000000e+00 -0.000000e+00
   outer loop
     vertex  8.305115e-01  6.280423e-01 -1.587302e-02
     vertex  8.305115e-01  6.280423e-01  6.984127e-01
     vertex  8.305115e-01 -7.742512e-02  6.984127e-01
   endloop
 endfacet
 facet normal -0.000000e+00 -1.000000e+00  0.000000e+00
   outer loop
     vertex  8.305115e-01 -7.742512e-02 -1.587302e-02
     vertex -5.132282e-02 -7.742512e-02 -1.587302e-02
     vertex -5.132282e-02 -7.742512e-02 -3.174603e-02
   endloop
 endfacet
 facet normal  0.000000e+00 -1.000000e+00 -0.000000e+00
   outer loop
     vertex  8.305115e-01 -7.742512e-02 -1.587302e-02
     vertex -5.132282e-02 -7.742512e-02 -3.174603e-02
     vertex  8.305115e-01 -7.742512e-02 -3.174603e-02
   endloop
 endfacet
 facet normal  0.000000e+00  0.000000e+00  1.000000e+00
   outer loop
     vertex  8.305115e-01  6.280423e-01  6.984127e-01
     vertex -5.132282e-02 -7.742512e-02  6.984127e-01
     vertex  8.305115e-01 -7.742512e-02  6.984127e-01
   endloop
 endfacet
 facet normal  0.000000e+00  0.000000e+00  1.000000e+00
   outer loop
     vertex  8.305115e-01  6.280423e-01  6.984127e-01
     vertex -5.132282e-02  6.280423e-01  6.984127e-01
     vertex -5.132282e-02 -7.742512e-02  6.984127e-01
   endloop
 endfacet
 facet normal  0.000000e+00  1.000000e+00  0.000000e+00
   outer loop
     vertex -5.132282e-02  6.280423e-01 -1.587302e-02
     vertex  8.305115e-01  6.280423e-01  6.984127e-01
     vertex  8.305115e-01  6.280423e-01 -1.587302e-02
   endloop
 endfacet
 facet normal  0.000000e+00  1.000000e+00  0.000000e+00
   outer loop
     vertex -5.132282e-02  6.280423e-01 -1.587302e-02
     vertex -5.132282e-02  6.280423e-01  6.984127e-01
     vertex  8.305115e-01  6.280423e-01  6.984127e-01
   endloop
 endfacet
 facet normal -1.000000e+00  0.000000e+00  0.000000e+00
   outer loop
     vertex -5.132282e-02 -7.742512e-02 -1.587302e-02
     vertex -5.132282e-02  6.280423e-01 -1.587302e-02
     vertex -5.132282e-02  6.280423e-01 -3.174603e-02
   endloop
 endfacet
 facet normal -1.000000e+00  0.000000e+00  0.000000e+00
   outer loop
     vertex -5.132282e-02 -7.742512e-02 -1.587302e-02
     vertex -5.132282e-02  6.280423e-01 -3.174603e-02
     vertex -5.132282e-02 -7.742512e-02 -3.174603e-02
   endloop
 endfacet
 facet normal  1.000000e+00  0.000000e+00  0.000000e+00
   outer loop
     vertex  8.305115e-01  6.280423e-01 -1.587302e-02
     vertex  8.305115e-01 -7.742512e-02 -1.587302e-02
     vertex  8.305115e-01 -7.742512e-02 -3.174603e-02
   endloop
 endfacet
 facet normal  1.000000e+00  0.000000e+00  0.000000e+00
   outer loop
     vertex  8.305115e-01  6.280423e-01 -1.587302e-02
     vertex  8.305115e-01 -7.742512e-02 -3.174603e-02
     vertex  8.305115e-01  6.280423e-01 -3.174603e-02
   endloop
 endfacet
 facet normal  0.000000e+00 -0.000000e+00 -1.000000e+00
   outer loop
     vertex  8.305115e-01  6.280423e-01 -3.174603e-02
     vertex  8.305115e-01 -7.742512e-02 -3.174603e-02
     vertex -5.132282e-02 -7.742512e-02 -3.174603e-02
   endloop
 endfacet
 facet normal -0.000000e+00  0.000000e+00 -1.000000e+00
   outer loop
     vertex  8.305115e-01  6.280423e-01 -3.174603e-02
     vertex -5.132282e-02 -7.742512e-02 -3.174603e-02
     vertex -5.132282e-02  6.280423e-01 -3.174603e-02
   endloop
 endfacet
 facet normal -0.000000e+00  1.000000e+00  0.000000e+00
   outer loop
     vertex -5.132282e-02  6.280423e-01 -1.587302e-02
     vertex  8.305115e-01  6.280423e-01 -1.587302e-02
     vertex  8.305115e-01  6.280423e-01 -3.174603e-02
   endloop
 endfacet
 facet normal  0.000000e+00  1.000000e+00  0.000000e+00
   outer loop
     vertex -5.132282e-02  6.280423e-01 -1.587302e-02
     vertex  8.305115e-01  6.280423e-01 -3.174603e-02
     vertex -5.132282e-02  6.280423e-01 -3.174603e-02
   endloop
 endfacet
 facet normal  0.000000e+00  9.927089e-01  1.205367e-01
   outer loop
     vertex  8.730159e-01  3.346259e-01  3.005608e-01
     vertex  8.888890e-01  3.359789e-01  2.894181e-01
     vertex  8.730159e-01  3.359789e-01  2.894181e-01
   endloop
 endfacet
 facet normal -0.000000e+00  9.927089e-01  1.205367e-01
   outer loop
     vertex  8.730159e-01  3.346259e-01  3.005608e-01
     vertex  8.888890e-01  3.346259e-01  3.005608e-01
     vertex  8.888890e-01  3.359789e-01  2.894181e-01
   endloop
 endfacet
 facet normal -0.000000e+00  9.350162e-01  3.546049e-01
   outer loop
     vertex  8.730159e-01  3.306456e-01  3.110560e-01
     vertex  8.888890e-01  3.306456e-01  3.110560e-01
     vertex  8.888890e-01  3.346259e-01  3.005608e-01
   endloop
 endfacet
 facet normal  0.000000e+00  9.350162e-01  3.546049e-01
   outer loop
     vertex  8.730159e-01  3.306456e-01  3.110560e-01
     vertex  8.888890e-01  3.346259e-01  3.005608e-01
     vertex  8.730159e-01  3.346259e-01  3.005608e-01
   endloop
 endfacet
 facet normal -0.000000e+00  8.229839e-01  5.680647e-01
   outer loop
     vertex  8.730159e-01  3.242694e-01  3.202936e-01
     vertex  8.888890e-01  3.242694e-01  3.202936e-01
     vertex  8.888890e-01  3.306456e-01  3.110560e-01
   endloop
 endfacet
 facet normal  0.000000e+00  8.229839e-01  5.680647e-01
   outer loop
     vertex  8.730159e-01  3.242694e-01  3.202936e-01
     vertex  8.888890e-01  3.306456e-01  3.110560e-01
     vertex  8.730159e-01  3.306456e-01  3.110560e-01
   endloop
 endfacet
 facet normal -0.000000e+00  6.631227e-01  7.485107e-01
   outer loop
     vertex  8.730159e-01  3.158676e-01  3.277369e-01
     vertex  8.888890e-01  3.158676e-01  3.277369e-01
     vertex  8.888890e-01  3.242694e-01  3.202936e-01
   endloop
 endfacet
 facet normal  0.000000e+00  6.631227e-01  7.485107e-01
   outer loop
     vertex  8.730159e-01  3.158676e-01  3.277369e-01
     vertex  8.888890e-01  3.242694e-01  3.202936e-01
     vertex  8.730159e-01  3.242694e-01  3.202936e-01
   endloop
 endfacet
 facet normal -0.000000e+00  4.647232e-01  8.854560e-01
   outer loop
     vertex  8.730159e-01  3.059288e-01  3.329532e-01
     vertex  8.888890e-01  3.059288e-01  3.329532e-01
     vertex  8.888890e-01  3.158676e-01  3.277369e-01
   endloop
 endfacet
 facet normal  0.000000e+00  4.647232e-01  8.854560e-01
   outer loop
     vertex  8.730159e-01  3.059288e-01  3.329532e-01
     vertex  8.888890e-01  3.158676e-01  3.277369e-01
     vertex  8.730159e-01  3.158676e-01  3.277369e-01
   endloop
 endfacet
 facet normal -0.000000e+00  2.393157e-01  9.709418e-01
   outer loop
     vertex  8.730159e-01  2.950303e-01  3.356394e-01
     vertex  8.888890e-01  2.950303e-01  3.356394e-01
     vertex  8.888890e-01  3.059288e-01  3.329532e-01
   endloop
 endfacet
 facet normal  0.000000e+00  2.393157e-01  9.709418e-01
   outer loop
     vertex  8.730159e-01  2.950303e-01  3.356394e-01
     vertex  8.888890e-01  3.059288e-01  3.329532e-01
     vertex  8.730159e-01  3.059288e-01  3.329532e-01
   endloop
 endfacet
 facet normal  0.000000e+00  0.000000e+00  1.000000e+00
   outer loop
     vertex  8.730159e-01  2.838058e-01  3.356394e-01
     vertex  8.888890e-01  2.838058e-01  3.356394e-01
     vertex  8.888890e-01  2.950303e-01  3.356394e-01
   endloop
 endfacet
 facet normal  0.000000e+00  0.000000e+00  1.000000e+00
   outer loop
     vertex  8.730159e-01  2.838058e-01  3.356394e-01
     vertex  8.888890e-01  2.950303e-01  3.356394e-01
     vertex  8.730159e-01  2.950303e-01  3.356394e-01
   endloop
 endfacet
 facet normal  0.000000e+00 -2.393157e-01  9.709418e-01
   outer loop
     vertex  8.730159e-01  2.729074e-01  3.329532e-01
     vertex  8.888890e-01  2.729074e-01  3.329532e-01
     vertex  8.888890e-01  2.838058e-01  3.356394e-01
   endloop
 endfacet
 facet normal  0.000000e+00 -2.393157e-01  9.709418e-01
   outer loop
     vertex  8.730159e-01  2.729074e-01  3.329532e-01
     vertex  8.888890e-01  2.838058e-01  3.356394e-01
     vertex  8.730159e-01  2.838058e-01  3.356394e-01
   endloop
 endfacet
 facet normal  0.000000e+00 -4.647232e-01  8.854560e-01
   outer loop
     vertex  8.730159e-01  2.629685e-01  3.277369e-01
     vertex  8.888890e-01  2.629685e-01  3.277369e-01
     vertex  8.888890e-01  2.729074e-01  3.329532e-01
   endloop
 endfacet
 facet normal  0.000000e+00 -4.647232e-01  8.854560e-01
   outer loop
     vertex  8.730159e-01  2.629685e-01  3.277369e-01
     vertex  8.888890e-01  2.729074e-01  3.329532e-01
     vertex  8.730159e-01  2.729074e-01  3.329532e-01
   endloop
 endfacet
 facet normal  0.000000e+00 -6.631227e-01  7.485107e-01
   outer loop
     vertex  8.730159e-01  2.545668e-01  3.202936e-01
     vertex  8.888890e-01  2.545668e-01  3.202936e-01
     vertex  8.888890e-01  2.629685e-01  3.277369e-01
   endloop
 endfacet
 facet normal  0.000000e+00 -6.631227e-01  7.485107e-01
   outer loop
     vertex  8.730159e-01  2.545668e-01  3.202936e-01
     vertex  8.888890e-01  2.629685e-01  3.277369e-01
     vertex  8.730159e-01  2.629685e-01  3.277369e-01
   endloop
 endfacet
 facet normal  0.000000e+00 -8.229839e-01  5.680647e-01
   outer loop
     vertex  8.730159e-01  2.481905e-01  3.110560e-01
     vertex  8.888890e-01  2.545668e-01  3.202936e-01
     vertex  8.730159e-01  2.545668e-01  3.202936e-01
   endloop
 endfacet
 facet normal  0.000000e+00 -8.229839e-01  5.680647e-01
   outer loop
     vertex  8.730159e-01  2.481905e-01  3.110560e-01
     vertex  8.888890e-01  2.481905e-01  3.110560e-01
     vertex  8.888890e-01  2.545668e-01  3.202936e-01
   endloop
 endfacet
 facet normal  0.000000e+00 -9.350162e-01  3.546049e-01
   outer loop
     vertex  8.730159e-01  2.442102e-01  3.005608e-01
     vertex  8.888890e-01  2.481905e-01  3.110560e-01
     vertex  8.730159e-01  2.481905e-01  3.110560e-01
   endloop
 endfacet
 facet normal  0.000000e+00 -9.350162e-01  3.546049e-01
   outer loop
     vertex  8.730159e-01  2.442102e-01  3.005608e-01
     vertex  8.888890e-01  2.442102e-01  3.005608e-01
     vertex  8.888890e-01  2.481905e-01  3.110560e-01
   endloop
 endfacet
 facet normal  0.000000e+00 -9.927089e-01  1.205367e-01
   outer loop
     vertex  8.730159e-01  2.428572e-01  2.894181e-01
     vertex  8.888890e-01  2.442102e-01  3.005608e-01
     vertex  8.730159e-01  2.442102e-01  3.005608e-01
   endloop
 endfacet
 facet normal  0.000000e+00 -9.927089e-01  1.205367e-01
   outer loop
     vertex  8.730159e-01  2.428572e-01  2.894181e-01
     vertex  8.888890e-01  2.428572e-01  2.894181e-01
     vertex  8.888890e-01  2.442102e-01  3.005608e-01
   endloop
 endfacet
 facet normal  0.000000e+00 -9.927089e-01 -1.205367e-01
   outer loop
     vertex  8.730159e-01  2.442102e-01  2.782753e-01
     vertex  8.888890e-01  2.442102e-01  2.782753e-01
     vertex  8.888890e-01  2.428572e-01  2.894181e-01
   endloop
 endfacet
 facet normal  0.000000e+00 -9.927089e-01 -1.205367e-01
   outer loop
     vertex  8.730159e-01  2.442102e-01  2.782753e-01
     vertex  8.888890e-01  2.428572e-01  2.894181e-01
     vertex  8.730159e-01  2.428572e-01  2.894181e-01
   endloop
 endfacet
 facet normal  0.000000e+00 -9.350162e-01 -3.546049e-01
   outer loop
     vertex  8.730159e-01  2.481905e-01  2.677802e-01
     vertex  8.888890e-01  2.442102e-01  2.782753e-01
     vertex  8.730159e-01  2.442102e-01  2.782753e-01
   endloop
 endfacet
 facet normal  0.000000e+00 -9.350162e-01 -3.546049e-01
   outer loop
     vertex  8.730159e-01  2.481905e-01  2.677802e-01
     vertex  8.888890e-01  2.481905e-01  2.677802e-01
     vertex  8.888890e-01  2.442102e-01  2.782753e-01
   endloop
 endfacet
 facet normal  0.000000e+00 -8.229839e-01 -5.680647e-01
   outer loop
     vertex  8.730159e-01  2.545668e-01  2.585425e-01
     vertex  8.888890e-01  2.545668e-01  2.585425e-01
     vertex  8.888890e-01  2.481905e-01  2.677802e-01
   endloop
 endfacet
 facet normal  0.000000e+00 -8.229839e-01 -5.680647e-01
   outer loop
     vertex  8.730159e-01  2.545668e-01  2.585425e-01
     vertex  8.888890e-01  2.481905e-01  2.677802e-01
     vertex  8.730159e-01  2.481905e-01  2.677802e-01
   endloop
 endfacet
 facet normal  0.000000e+00 -6.631227e-01 -7.485107e-01
   outer loop
     vertex  8.730159e-01  2.629685e-01  2.510992e-01
     vertex  8.888890e-01  2.629685e-01  2.510992e-01
     vertex  8.888890e-01  2.545668e-01  2.585425e-01
   endloop
 endfacet
 facet normal  0.000000e+00 -6.631227e-01 -7.485107e-01
   outer loop
     vertex  8.730159e-01  2.629685e-01  2.510992e-01
     vertex  8.888890e-01  2.545668e-01  2.585425e-01
     vertex  8.730159e-01  2.545668e-01  2.585425e-01
   endloop
 endfacet
 facet normal  0.000000e+00 -4.647232e-01 -8.854560e-01
   outer loop
     vertex  8.730159e-01  2.729074e-01  2.458829e-01
     vertex  8.888890e-01  2.729074e-01  2.458829e-01
     vertex  8.888890e-01  2.629685e-01  2.510992e-01
   endloop
 endfacet
 facet normal  0.000000e+00 -4.647232e-01 -8.854560e-01
   outer loop
     vertex  8.730159e-01  2.729074e-01  2.458829e-01
     vertex  8.888890e-01  2.629685e-01  2.510992e-01
     vertex  8.730159e-01  2.629685e-01  2.510992e-01
   endloop
 endfacet
 facet normal  0.000000e+00 -2.393157e-01 -9.709418e-01
   outer loop
     vertex  8.730159e-01  2.838058e-01  2.431967e-01
     vertex  8.888890e-01  2.838058e-01  2.431967e-01
     vertex  8.888890e-01  2.729074e-01  2.458829e-01
   endloop
 endfacet
 facet normal  0.000000e+00 -2.393157e-01 -9.709418e-01
   outer loop
     vertex  8.730159e-01  2.838058e-01  2.431967e-01
     vertex  8.888890e-01  2.729074e-01  2.458829e-01
     vertex  8.730159e-01  2.729074e-01  2.458829e-01
   endloop
 endfacet
 facet normal  0.000000e+00  0.000000e+00 -1.000000e+00
   outer loop
     vertex  8.730159e-01  2.950303e-01  2.431967e-01
     vertex  8.888890e-01  2.950303e-01  2.431967e-01
     vertex  8.888890e-01  2.838058e-01  2.431967e-01
   endloop
 endfacet
 facet normal  0.000000e+00  0.000000e+00 -1.000000e+00
   outer loop
     vertex  8.730159e-01  2.950303e-01  2.431967e-01
     vertex  8.888890e-01  2.838058e-01  2.431967e-01
     vertex  8.730159e-01  2.838058e-01  2.431967e-01
   endloop
 endfacet
 facet normal  0.000000e+00  2.393157e-01 -9.709418e-01
   outer loop
     vertex  8.730159e-01  3.059288e-01  2.458829e-01
     vertex  8.888890e-01  3.059288e-01  2.458829e-01
     vertex  8.888890e-01  2.950303e-01  2.431967e-01
   endloop
 endfacet
 facet normal  0.000000e+00  2.393157e-01 -9.709418e-01
   outer loop
     vertex  8.730159e-01  3.059288e-01  2.458829e-01
     vertex  8.888890e-01  2.950303e-01  2.431967e-01
     vertex  8.730159e-01  2.950303e-01  2.431967e-01
   endloop
 endfacet
 facet normal  0.000000e+00  4.647232e-01 -8.854560e-01
   outer loop
     vertex  8.730159e-01  3.158676e-01  2.510992e-01
     vertex  8.888890e-01  3.158676e-01  2.510992e-01
     vertex  8.888890e-01  3.059288e-01  2.458829e-01
   endloop
 endfacet
 facet normal  0.000000e+00  4.647232e-01 -8.854560e-01
   outer loop
     vertex  8.730159e-01  3.158676e-01  2.510992e-01
     vertex  8.888890e-01  3.059288e-01  2.458829e-01
     vertex  8.730159e-01  3.059288e-01  2.458829e-01
   endloop
 endfacet
 facet normal  0.000000e+00  6.631227e-01 -7.485107e-01
   outer loop
     vertex  8.730159e-01  3.242694e-01  2.585425e-01
     vertex  8.888890e-01  3.242694e-01  2.585425e-01
     vertex  8.888890e-01  3.158676e-01  2.510992e-01
   endloop
 endfacet
 facet normal  0.000000e+00  6.631227e-01 -7.485107e-01
   outer loop
     vertex  8.730159e-01  3.242694e-01  2.585425e-01
     vertex  8.888890e-01  3.158676e-01  2.510992e-01
     vertex  8.730159e-01  3.158676e-01  2.510992e-01
   endloop
 endfacet
 facet normal  0.000000e+00  8.229839e-01 -5.680647e-01
   outer loop
     vertex  8.730159e-01  3.306456e-01  2.677802e-01
     vertex  8.888890e-01  3.306456e-01  2.677802e-01
     vertex  8.888890e-01  3.242694e-01  2.585425e-01
   endloop
 endfacet
 facet normal  0.000000e+00  8.229839e-01 -5.680647e-01
   outer loop
     vertex  8.730159e-01  3.306456e-01  2.677802e-01
     vertex  8.888890e-01  3.242694e-01  2.585425e-01
     vertex  8.730159e-01  3.242694e-01  2.585425e-01
   endloop
 endfacet
 facet normal  0.000000e+00  9.350162e-01 -3.546049e-01
   outer loop
     vertex  8.730159e-01  3.346259e-01  2.782753e-01
     vertex  8.888890e-01  3.346259e-01  2.782753e-01
     vertex  8.888890e-01  3.306456e-01  2.677802e-01
   endloop
 endfacet
 facet normal  0.000000e+00  9.350162e-01 -3.546049e-01
   outer loop
     vertex  8.730159e-01  3.346259e-01  2.782753e-01
     vertex  8.888890e-01  3.306456e-01  2.677802e-01
     vertex  8.730159e-01  3.306456e-01  2.677802e-01
   endloop
 endfacet
 facet normal  0.000000e+00  9.927089e-01 -1.205367e-01
   outer loop
     vertex  8.730159e-01  3.359789e-01  2.894181e-01
     vertex  8.888890e-01  3.359789e-01  2.894181e-01
     vertex  8.888890e-01  3.346259e-01  2.782753e-01
   endloop
 endfacet
 facet normal  0.000000e+00  9.927089e-01 -1.205367e-01
   outer loop
     vertex  8.730159e-01  3.359789e-01  2.894181e-01
     vertex  8.888890e-01  3.346259e-01  2.782753e-01
     vertex  8.730159e-01  3.346259e-01  2.782753e-01
   endloop
 endfacet
 facet normal  0.000000e+00  9.927089e-01  1.205367e-01
   outer loop
     vertex  8.730159e-01  3.346259e-01  3.005608e-01
     vertex  8.730159e-01  3.359789e-01  2.894181e-01
     vertex  8.571429e-01  3.359789e-01  2.894181e-01
   endloop
 endfacet
 facet normal  0.000000e+00  9.927089e-01  1.205367e-01
   outer loop
     vertex  8.730159e-01  3.346259e-01  3.005608e-01
     vertex  8.571429e-01  3.359789e-01  2.894181e-01
     vertex  8.571429e-01  3.346259e-01  3.005608e-01
   endloop
 endfacet
 facet normal  0.000000e+00  9.350162e-01  3.546049e-01
   outer loop
     vertex  8.730159e-01  3.306456e-01  3.110560e-01
     vertex  8.571429e-01  3.346259e-01  3.005608e-01
     vertex  8.571429e-01  3.306456e-01  3.110560e-01
   endloop
 endfacet
 facet normal  0.000000e+00  9.350162e-01  3.546049e-01
   outer loop
     vertex  8.730159e-01  3.306456e-01  3.110560e-01
     vertex  8.730159e-01  3.346259e-01  3.005608e-01
     vertex  8.571429e-01  3.346259e-01  3.005608e-01
   endloop
 endfacet
 facet normal  0.000000e+00  8.229839e-01  5.680647e-01
   outer loop
     vertex  8.730159e-01  3.242694e-01  3.202936e-01
     vertex  8.571429e-01  3.306456e-01  3.110560e-01
     vertex  8.571429e-01  3.242694e-01  3.202936e-01
   endloop
 endfacet
 facet normal  0.000000e+00  8.229839e-01  5.680647e-01
   outer loop
     vertex  8.730159e-01  3.242694e-01  3.202936e-01
     vertex  8.730159e-01  3.306456e-01  3.110560e-01
     vertex  8.571429e-01  3.306456e-01  3.110560e-01
   endloop
 endfacet
 facet normal  0.000000e+00  6.631227e-01  7.485107e-01
   outer loop
     vertex  8.730159e-01  3.158676e-01  3.277369e-01
     vertex  8.571429e-01  3.242694e-01  3.202936e-01
     vertex  8.571429e-01  3.158676e-01  3.277369e-01
   endloop
 endfacet
 facet normal  0.000000e+00  6.631227e-01  7.485107e-01
   outer loop
     vertex  8.730159e-01  3.158676e-01  3.277369e-01
     vertex  8.730159e-01  3.242694e-01  3.202936e-01
     vertex  8.571429e-01  3.242694e-01  3.202936e-01
   endloop
 endfacet
 facet normal  0.000000e+00  4.647232e-01  8.854560e-01
   outer loop
     vertex  8.730159e-01  3.059288e-01  3.329532e-01
     vertex  8.571429e-01  3.158676e-01  3.277369e-01
     vertex  8.571429e-01  3.059288e-01  3.329532e-01
   endloop
 endfacet
 facet normal  0.000000e+00  4.647232e-01  8.854560e-01
   outer loop
     vertex  8.730159e-01  3.059288e-01  3.329532e-01
     vertex  8.730159e-01  3.158676e-01  3.277369e-01
     vertex  8.571429e-01  3.158676e-01  3.277369e-01
   endloop
 endfacet
 facet normal  0.000000e+00  2.393157e-01  9.709418e-01
   outer loop
     vertex  8.730159e-01  2.950303e-01  3.356394e-01
     vertex  8.571429e-01  3.059288e-01  3.329532e-01
     vertex  8.571429e-01  2.950303e-01  3.356394e-01
   endloop
 endfacet
 facet normal  0.000000e+00  2.393157e-01  9.709418e-01
   outer loop
     vertex  8.730159e-01  2.950303e-01  3.356394e-01
     vertex  8.730159e-01  3.059288e-01  3.329532e-01
     vertex  8.571429e-01  3.059288e-01  3.329532e-01
   endloop
 endfacet
 facet normal  0.000000e+00  0.000000e+00  1.000000e+00
   outer loop
     vertex  8.730159e-01  2.838058e-01  3.356394e-01
     vertex  8.571429e-01  2.950303e-01  3.356394e-01
     vertex  8.571429e-01  2.838058e-01  3.356394e-01
   endloop
 endfacet
 facet normal  0.000000e+00 -0.000000e+00  1.000000e+00
   outer loop
     vertex  8.730159e-01  2.838058e-01  3.356394e-01
     vertex  8.730159e-01  2.950303e-01  3.356394e-01
     vertex  8.571429e-01  2.950303e-01  3.356394e-01
   endloop
 endfacet
 facet normal  0.000000e+00 -2.393157e-01  9.709418e-01
   outer loop
     vertex  8.730159e-01  2.729074e-01  3.329532e-01
     vertex  8.571429e-01  2.838058e-01  3.356394e-01
     vertex  8.571429e-01  2.729074e-01  3.329532e-01
   endloop
 endfacet
 facet normal  0.000000e+00 -2.393157e-01  9.709418e-01
   outer loop
     vertex  8.730159e-01  2.729074e-01  3.329532e-01
     vertex  8.730159e-01  2.838058e-01  3.356394e-01
     vertex  8.571429e-01  2.838058e-01  3.356394e-01
   endloop
 endfacet
 facet normal  0.000000e+00 -4.647232e-01  8.854560e-01
   outer loop
     vertex  8.730159e-01  2.629685e-01  3.277369e-01
     vertex  8.571429e-01  2.729074e-01  3.329532e-01
     vertex  8.571429e-01  2.629685e-01  3.277369e-01
   endloop
 endfacet
 facet normal  0.000000e+00 -4.647232e-01  8.854560e-01
   outer loop
     vertex  8.730159e-01  2.629685e-01  3.277369e-01
     vertex  8.730159e-01  2.729074e-01  3.329532e-01
     vertex  8.571429e-01  2.729074e-01  3.329532e-01
   endloop
 endfacet
 facet normal  0.000000e+00 -6.631227e-01  7.485107e-01
   outer loop
     vertex  8.730159e-01  2.545668e-01  3.202936e-01
     vertex  8.571429e-01  2.629685e-01  3.277369e-01
     vertex  8.571429e-01  2.545668e-01  3.202936e-01
   endloop
 endfacet
 facet normal  0.000000e+00 -6.631227e-01  7.485107e-01
   outer loop
     vertex  8.730159e-01  2.545668e-01  3.202936e-01
     vertex  8.730159e-01  2.629685e-01  3.277369e-01
     vertex  8.571429e-01  2.629685e-01  3.277369e-01
   endloop
 endfacet
 facet normal  0.000000e+00 -8.229839e-01  5.680647e-01
   outer loop
     vertex  8.730159e-01  2.481905e-01  3.110560e-01
     vertex  8.730159e-01  2.545668e-01  3.202936e-01
     vertex  8.571429e-01  2.545668e-01  3.202936e-01
   endloop
 endfacet
 facet normal  0.000000e+00 -8.229839e-01  5.680647e-01
   outer loop
     vertex  8.730159e-01  2.481905e-01  3.110560e-01
     vertex  8.571429e-01  2.545668e-01  3.202936e-01
     vertex  8.571429e-01  2.481905e-01  3.110560e-01
   endloop
 endfacet
 facet normal  0.000000e+00 -9.350162e-01  3.546049e-01
   outer loop
     vertex  8.730159e-01  2.442102e-01  3.005608e-01
     vertex  8.730159e-01  2.481905e-01  3.110560e-01
     vertex  8.571429e-01  2.481905e-01  3.110560e-01
   endloop
 endfacet
 facet normal  0.000000e+00 -9.350162e-01  3.546049e-01
   outer loop
     vertex  8.730159e-01  2.442102e-01  3.005608e-01
     vertex  8.571429e-01  2.481905e-01  3.110560e-01
     vertex  8.571429e-01  2.442102e-01  3.005608e-01
   endloop
 endfacet
 facet normal  0.000000e+00 -9.927089e-01  1.205367e-01
   outer loop
     vertex  8.730159e-01  2.428572e-01  2.894181e-01
     vertex  8.730159e-01  2.442102e-01  3.005608e-01
     vertex  8.571429e-01  2.442102e-01  3.005608e-01
   endloop
 endfacet
 facet normal  0.000000e+00 -9.927089e-01  1.205367e-01
   outer loop
     vertex  8.730159e-01  2.428572e-01  2.894181e-01
     vertex  8.571429e-01  2.442102e-01  3.005608e-01
     vertex  8.571429e-01  2.428572e-01  2.894181e-01
   endloop
 endfacet
 facet normal -0.000000e+00 -9.927089e-01 -1.205367e-01
   outer loop
     vertex  8.730159e-01  2.442102e-01  2.782753e-01
     vertex  8.571429e-01  2.428572e-01  2.894181e-01
     vertex  8.571429e-01  2.442102e-01  2.782753e-01
   endloop
 endfacet
 facet normal  0.000000e+00 -9.927089e-01 -1.205367e-01
   outer loop
     vertex  8.730159e-01  2.442102e-01  2.782753e-01
     vertex  8.730159e-01  2.428572e-01  2.894181e-01
     vertex  8.571429e-01  2.428572e-01  2.894181e-01
   endloop
 endfacet
 facet normal  0.000000e+00 -9.350162e-01 -3.546049e-01
   outer loop
     vertex  8.730159e-01  2.481905e-01  2.677802e-01
     vertex  8.730159e-01  2.442102e-01  2.782753e-01
     vertex  8.571429e-01  2.442102e-01  2.782753e-01
   endloop
 endfacet
 facet normal -0.000000e+00 -9.350162e-01 -3.546049e-01
   outer loop
     vertex  8.730159e-01  2.481905e-01  2.677802e-01
     vertex  8.571429e-01  2.442102e-01  2.782753e-01
     vertex  8.571429e-01  2.481905e-01  2.677802e-01
   endloop
 endfacet
 facet normal -0.000000e+00 -8.229839e-01 -5.680647e-01
   outer loop
     vertex  8.730159e-01  2.545668e-01  2.585425e-01
     vertex  8.571429e-01  2.481905e-01  2.677802e-01
     vertex  8.571429e-01  2.545668e-01  2.585425e-01
   endloop
 endfacet
 facet normal  0.000000e+00 -8.229839e-01 -5.680647e-01
   outer loop
     vertex  8.730159e-01  2.545668e-01  2.585425e-01
     vertex  8.730159e-01  2.481905e-01  2.677802e-01
     vertex  8.571429e-01  2.481905e-01  2.677802e-01
   endloop
 endfacet
 facet normal -0.000000e+00 -6.631227e-01 -7.485107e-01
   outer loop
     vertex  8.730159e-01  2.629685e-01  2.510992e-01
     vertex  8.571429e-01  2.545668e-01  2.585425e-01
     vertex  8.571429e-01  2.629685e-01  2.510992e-01
   endloop
 endfacet
 facet normal  0.000000e+00 -6.631227e-01 -7.485107e-01
   outer loop
     vertex  8.730159e-01  2.629685e-01  2.510992e-01
     vertex  8.730159e-01  2.545668e-01  2.585425e-01
     vertex  8.571429e-01  2.545668e-01  2.585425e-01
   endloop
 endfacet
 facet normal -0.000000e+00 -4.647232e-01 -8.854560e-01
   outer loop
     vertex  8.730159e-01  2.729074e-01  2.458829e-01
     vertex  8.571429e-01  2.629685e-01  2.510992e-01
     vertex  8.571429e-01  2.729074e-01  2.458829e-01
   endloop
 endfacet
 facet normal  0.000000e+00 -4.647232e-01 -8.854560e-01
   outer loop
     vertex  8.730159e-01  2.729074e-01  2.458829e-01
     vertex  8.730159e-01  2.629685e-01  2.510992e-01
     vertex  8.571429e-01  2.629685e-01  2.510992e-01
   endloop
 endfacet
 facet normal -0.000000e+00 -2.393157e-01 -9.709418e-01
   outer loop
     vertex  8.730159e-01  2.838058e-01  2.431967e-01
     vertex  8.571429e-01  2.729074e-01  2.458829e-01
     vertex  8.571429e-01  2.838058e-01  2.431967e-01
   endloop
 endfacet
 facet normal  0.000000e+00 -2.393157e-01 -9.709418e-01
   outer loop
     vertex  8.730159e-01  2.838058e-01  2.431967e-01
     vertex  8.730159e-01  2.729074e-01  2.458829e-01
     vertex  8.571429e-01  2.729074e-01  2.458829e-01
   endloop
 endfacet
 facet normal -0.000000e+00  0.000000e+00 -1.000000e+00
   outer loop
     vertex  8.730159e-01  2.950303e-01  2.431967e-01
     vertex  8.571429e-01  2.838058e-01  2.431967e-01
     vertex  8.571429e-01  2.950303e-01  2.431967e-01
   endloop
 endfacet
 facet normal  0.000000e+00 -0.000000e+00 -1.000000e+00
   outer loop
     vertex  8.730159e-01  2.950303e-01  2.431967e-01
     vertex  8.730159e-01  2.838058e-01  2.431967e-01
     vertex  8.571429e-01  2.838058e-01  2.431967e-01
   endloop
 endfacet
 facet normal  0.000000e+00  2.393157e-01 -9.709418e-01
   outer loop
     vertex  8.730159e-01  3.059288e-01  2.458829e-01
     vertex  8.571429e-01  2.950303e-01  2.431967e-01
     vertex  8.571429e-01  3.059288e-01  2.458829e-01
   endloop
 endfacet
 facet normal  0.000000e+00  2.393157e-01 -9.709418e-01
   outer loop
     vertex  8.730159e-01  3.059288e-01  2.458829e-01
     vertex  8.730159e-01  2.950303e-01  2.431967e-01
     vertex  8.571429e-01  2.950303e-01  2.431967e-01
   endloop
 endfacet
 facet normal  0.000000e+00  4.647232e-01 -8.854560e-01
   outer loop
     vertex  8.730159e-01  3.158676e-01  2.510992e-01
     vertex  8.571429e-01  3.059288e-01  2.458829e-01
     vertex  8.571429e-01  3.158676e-01  2.510992e-01
   endloop
 endfacet
 facet normal  0.000000e+00  4.647232e-01 -8.854560e-01
   outer loop
     vertex  8.730159e-01  3.158676e-01  2.510992e-01
     vertex  8.730159e-01  3.059288e-01  2.458829e-01
     vertex  8.571429e-01  3.059288e-01  2.458829e-01
   endloop
 endfacet
 facet normal  0.000000e+00  6.631227e-01 -7.485107e-01
   outer loop
     vertex  8.730159e-01  3.242694e-01  2.585425e-01
     vertex  8.571429e-01  3.158676e-01  2.510992e-01
     vertex  8.571429e-01  3.242694e-01  2.585425e-01
   endloop
 endfacet
 facet normal  0.000000e+00  6.631227e-01 -7.485107e-01
   outer loop
     vertex  8.730159e-01  3.242694e-01  2.585425e-01
     vertex  8.730159e-01  3.158676e-01  2.510992e-01
     vertex  8.571429e-01  3.158676e-01  2.510992e-01
   endloop
 endfacet
 facet normal  0.000000e+00  8.229839e-01 -5.680647e-01
   outer loop
     vertex  8.730159e-01  3.306456e-01  2.677802e-01
     vertex  8.571429e-01  3.242694e-01  2.585425e-01
     vertex  8.571429e-01  3.306456e-01  2.677802e-01
   endloop
 endfacet
 facet normal  0.000000e+00  8.229839e-01 -5.680647e-01
   outer loop
     vertex  8.730159e-01  3.306456e-01  2.677802e-01
     vertex  8.730159e-01  3.242694e-01  2.585425e-01
     vertex  8.571429e-01  3.242694e-01  2.585425e-01
   endloop
 endfacet
 facet normal  0.000000e+00  9.350162e-01 -3.546049e-01
   outer loop
     vertex  8.730159e-01  3.346259e-01  2.782753e-01
     vertex  8.571429e-01  3.306456e-01  2.677802e-01
     vertex  8.571429e-01  3.346259e-01  2.782753e-01
   endloop
 endfacet
 facet normal  0.000000e+00  9.350162e-01 -3.546049e-01
   outer loop
     vertex  8.730159e-01  3.346259e-01  2.782753e-01
     vertex  8.730159e-01  3.306456e-01  2.677802e-01
     vertex  8.571429e-01  3.306456e-01  2.677802e-01
   endloop
 endfacet
 facet normal  0.000000e+00  9.927089e-01 -1.205367e-01
   outer loop
     vertex  8.730159e-01  3.359789e-01  2.894181e-01
     vertex  8.571429e-01  3.346259e-01  2.782753e-01
     vertex  8.571429e-01  3.359789e-01  2.894181e-01
   endloop
 endfacet
 facet normal  0.000000e+00  9.927089e-01 -1.205367e-01
   outer loop
     vertex  8.730159e-01  3.359789e-01  2.894181e-01
     vertex  8.730159e-01  3.346259e-01  2.782753e-01
     vertex  8.571429e-01  3.346259e-01  2.782753e-01
   endloop
 endfacet
 facet normal  1.000000e+00  0.000000e+00  0.000000e+00
   outer loop
     vertex  8.888890e-01  3.242694e-01  3.202936e-01
     vertex  8.888890e-01  3.359789e-01  2.894181e-01
     vertex  8.888890e-01  3.346259e-01  3.005608e-01
   endloop
 endfacet
 facet normal  1.000000e+00  0.000000e+00  0.000000e+00
   outer loop
     vertex  8.888890e-01  3.242694e-01  3.202936e-01
     vertex  8.888890e-01  3.346259e-01  3.005608e-01
     vertex  8.888890e-01  3.306456e-01  3.110560e-01
   endloop
 endfacet
 facet normal  1.000000e+00  0.000000e+00  0.000000e+00
   outer loop
     vertex  8.888890e-01  3.242694e-01  3.202936e-01
     vertex  8.888890e-01  3.158676e-01  3.277369e-01
     vertex  8.888890e-01  3.059288e-01  3.329532e-01
   endloop
 endfacet
 facet normal  1.000000e+00  0.000000e+00  0.000000e+00
   outer loop
     vertex  8.888890e-01  3.242694e-01  3.202936e-01
     vertex  8.888890e-01  3.059288e-01  3.329532e-01
     vertex  8.888890e-01  2.950303e-01  3.356394e-01
   endloop
 endfacet
 facet normal  1.000000e+00  0.000000e+00  0.000000e+00
   outer loop
     vertex  8.888890e-01  3.242694e-01  3.202936e-01
     vertex  8.888890e-01  2.950303e-01  3.356394e-01
     vertex  8.888890e-01  2.838058e-01  3.356394e-01
   endloop
 endfacet
 facet normal  1.000000e+00  0.000000e+00  0.000000e+00
   outer loop
     vertex  8.888890e-01  3.242694e-01  3.202936e-01
     vertex  8.888890e-01  2.838058e-01  3.356394e-01
     vertex  8.888890e-01  2.729074e-01  3.329532e-01
   endloop
 endfacet
 facet normal  1.000000e+00  0.000000e+00  0.000000e+00
   outer loop
     vertex  8.888890e-01  3.242694e-01  3.202936e-01
     vertex  8.888890e-01  2.729074e-01  3.329532e-01
     vertex  8.888890e-01  2.629685e-01  3.277369e-01
   endloop
 endfacet
 facet normal  1.000000e+00  0.000000e+00  0.000000e+00
   outer loop
     vertex  8.888890e-01  3.242694e-01  3.202936e-01
     vertex  8.888890e-01  2.629685e-01  3.277369e-01
     vertex  8.888890e-01  2.545668e-01  3.202936e-01
   endloop
 endfacet
 facet normal  1.000000e+00  0.000000e+00  0.000000e+00
   outer loop
     vertex  8.888890e-01  3.242694e-01  3.202936e-01
     vertex  8.888890e-01  2.545668e-01  3.202936e-01
     vertex  8.888890e-01  2.481905e-01  3.110560e-01
   endloop
 endfacet
 facet normal  1.000000e+00  0.000000e+00  0.000000e+00
   outer loop
     vertex  8.888890e-01  3.242694e-01  3.202936e-01
     vertex  8.888890e-01  2.481905e-01  3.110560e-01
     vertex  8.888890e-01  2.442102e-01  3.005608e-01
   endloop
 endfacet
 facet normal  1.000000e+00  0.000000e+00  0.000000e+00
   outer loop
     vertex  8.888890e-01  3.242694e-01  3.202936e-01
     vertex  8.888890e-01  2.442102e-01  3.005608e-01
     vertex  8.888890e-01  2.428572e-01  2.894181e-01
   endloop
 endfacet
 facet normal  1.000000e+00  0.000000e+00  0.000000e+00
   outer loop
     vertex  8.888890e-01  3.242694e-01  3.202936e-01
     vertex  8.888890e-01  2.428572e-01  2.894181e-01
     vertex  8.888890e-01  2.442102e-01  2.782753e-01
   endloop
 endfacet
 facet normal  1.000000e+00  0.000000e+00  0.000000e+00
   outer loop
     vertex  8.888890e-01  3.242694e-01  3.202936e-01
     vertex  8.888890e-01  2.442102e-01  2.782753e-01
     vertex  8.888890e-01  2.481905e-01  2.677802e-01
   endloop
 endfacet
 facet normal  1.000000e+00  0.000000e+00  0.000000e+00
   outer loop
     vertex  8.888890e-01  3.242694e-01  3.202936e-01
     vertex  8.888890e-01  2.481905e-01  2.677802e-01
     vertex  8.888890e-01  2.545668e-01  2.585425e-01
   endloop
 endfacet
 facet normal  1.000000e+00  0.000000e+00  0.000000e+00
   outer loop
     vertex  8.888890e-01  3.242694e-01  3.202936e-01
     vertex  8.888890e-01  2.545668e-01  2.585425e-01
     vertex  8.888890e-01  2.629685e-01  2.510992e-01
   endloop
 endfacet
 facet normal  1.000000e+00  0.000000e+00  0.000000e+00
   outer loop
     vertex  8.888890e-01  3.242694e-01  3.202936e-01
     vertex  8.888890e-01  2.629685e-01  2.510992e-01
     vertex  8.888890e-01  2.729074e-01  2.458829e-01
   endloop
 endfacet
 facet normal  1.000000e+00  0.000000e+00  0.000000e+00
   outer loop
     vertex  8.888890e-01  3.242694e-01  3.202936e-01
     vertex  8.888890e-01  2.729074e-01  2.458829e-01
     vertex  8.888890e-01  2.838058e-01  2.431967e-01
   endloop
 endfacet
 facet normal  1.000000e+00  0.000000e+00  0.000000e+00
   outer loop
     vertex  8.888890e-01  3.242694e-01  3.202936e-01
     vertex  8.888890e-01  2.838058e-01  2.431967e-01
     vertex  8.888890e-01  2.950303e-01  2.431967e-01
   endloop
 endfacet
 facet normal  1.000000e+00  0.000000e+00  0.000000e+00
   outer loop
     vertex  8.888890e-01  3.242694e-01  3.202936e-01
     vertex  8.888890e-01  2.950303e-01  2.431967e-01
     vertex  8.888890e-01  3.059288e-01  2.458829e-01
   endloop
 endfacet
 facet normal  1.000000e+00  0.000000e+00  0.000000e+00
   outer loop
     vertex  8.888890e-01  3.242694e-01  3.202936e-01
     vertex  8.888890e-01  3.059288e-01  2.458829e-01
     vertex  8.888890e-01  3.158676e-01  2.510992e-01
   endloop
 endfacet
 facet normal  1.000000e+00  0.000000e+00  0.000000e+00
   outer loop
     vertex  8.888890e-01  3.242694e-01  3.202936e-01
     vertex  8.888890e-01  3.158676e-01  2.510992e-01
     vertex  8.888890e-01  3.242694e-01  2.585425e-01
   endloop
 endfacet
 facet normal  1.000000e+00  0.000000e+00  0.000000e+00
   outer loop
     vertex  8.888890e-01  3.242694e-01  3.202936e-01
     vertex  8.888890e-01  3.242694e-01  2.585425e-01
     vertex  8.888890e-01  3.306456e-01  2.677802e-01
   endloop
 endfacet
 facet normal  1.000000e+00  0.000000e+00  0.000000e+00
   outer loop
     vertex  8.888890e-01  3.242694e-01  3.202936e-01
     vertex  8.888890e-01  3.306456e-01  2.677802e-01
     vertex  8.888890e-01  3.346259e-01  2.782753e-01
   endloop
 endfacet
 facet normal  1.000000e+00  0.000000e+00  0.000000e+00
   outer loop
     vertex  8.888890e-01  3.242694e-01  3.202936e-01
     vertex  8.888890e-01  3.346259e-01  2.782753e-01
     vertex  8.888890e-01  3.359789e-01  2.894181e-01
   endloop
 endfacet
 facet normal -1.000000e+00  0.000000e+00  0.000000e+00
   outer loop
     vertex  8.571429e-01  3.242694e-01  3.202936e-01
     vertex  8.571429e-01  3.346259e-01  3.005608e-01
     vertex  8.571429e-01  3.359789e-01  2.894181e-01
   endloop
 endfacet
 facet normal -1.000000e+00  0.000000e+00  0.000000e+00
   outer loop
     vertex  8.571429e-01  3.242694e-01  3.202936e-01
     vertex  8.571429e-01  3.306456e-01  3.110560e-01
     vertex  8.571429e-01  3.346259e-01  3.005608e-01
   endloop
 endfacet
 facet normal -1.000000e+00  0.000000e+00  0.000000e+00
   outer loop
     vertex  8.571429e-01  3.242694e-01  3.202936e-01
     vertex  8.571429e-01  3.059288e-01  3.329532e-01
     vertex  8.571429e-01  3.158676e-01  3.277369e-01
   endloop
 endfacet
 facet normal -1.000000e+00  0.000000e+00  0.000000e+00
   outer loop
     vertex  8.571429e-01  3.242694e-01  3.202936e-01
     vertex  8.571429e-01  2.950303e-01  3.356394e-01
     vertex  8.571429e-01  3.059288e-01  3.329532e-01
   endloop
 endfacet
 facet normal -1.000000e+00  0.000000e+00  0.000000e+00
   outer loop
     vertex  8.571429e-01  3.242694e-01  3.202936e-01
     vertex  8.571429e-01  2.838058e-01  3.356394e-01
     vertex  8.571429e-01  2.950303e-01  3.356394e-01
   endloop
 endfacet
 facet normal -1.000000e+00  0.000000e+00  0.000000e+00
   outer loop
     vertex  8.571429e-01  3.242694e-01  3.202936e-01
     vertex  8.571429e-01  2.729074e-01  3.329532e-01
     vertex  8.571429e-01  2.838058e-01  3.356394e-01
   endloop
 endfacet
 facet normal -1.000000e+00  0.000000e+00  0.000000e+00
   outer loop
     vertex  8.571429e-01  3.242694e-01  3.202936e-01
     vertex  8.571429e-01  2.629685e-01  3.277369e-01
     vertex  8.571429e-01  2.729074e-01  3.329532e-01
   endloop
 endfacet
 facet normal -1.000000e+00  0.000000e+00  0.000000e+00
   outer loop
     vertex  8.571429e-01  3.242694e-01  3.202936e-01
     vertex  8.571429e-01  2.545668e-01  3.202936e-01
     vertex  8.571429e-01  2.629685e-01  3.277369e-01
   endloop
 endfacet
 facet normal -1.000000e+00 -0.000000e+00  0.000000e+00
   outer loop
     vertex  8.571429e-01  3.242694e-01  3.202936e-01
     vertex  8.571429e-01  2.481905e-01  3.110560e-01
     vertex  8.571429e-01  2.545668e-01  3.202936e-01
   endloop
 endfacet
 facet normal -1.000000e+00  0.000000e+00  0.000000e+00
   outer loop
     vertex  8.571429e-01  3.242694e-01  3.202936e-01
     vertex  8.571429e-01  2.442102e-01  3.005608e-01
     vertex  8.571429e-01  2.481905e-01  3.110560e-01
   endloop
 endfacet
 facet normal -1.000000e+00  0.000000e+00  0.000000e+00
   outer loop
     vertex  8.571429e-01  3.242694e-01  3.202936e-01
     vertex  8.571429e-01  2.428572e-01  2.894181e-01
     vertex  8.571429e-01  2.442102e-01  3.005608e-01
   endloop
 endfacet
 facet normal -1.000000e+00  0.000000e+00  0.000000e+00
   outer loop
     vertex  8.571429e-01  3.242694e-01  3.202936e-01
     vertex  8.571429e-01  2.442102e-01  2.782753e-01
     vertex  8.571429e-01  2.428572e-01  2.894181e-01
   endloop
 endfacet
 facet normal -1.000000e+00  0.000000e+00  0.000000e+00
   outer loop
     vertex  8.571429e-01  3.242694e-01  3.202936e-01
     vertex  8.571429e-01  2.481905e-01  2.677802e-01
     vertex  8.571429e-01  2.442102e-01  2.782753e-01
   endloop
 endfacet
 facet normal -1.000000e+00  0.000000e+00  0.000000e+00
   outer loop
     vertex  8.571429e-01  3.242694e-01  3.202936e-01
     vertex  8.571429e-01  2.545668e-01  2.585425e-01
     vertex  8.571429e-01  2.481905e-01  2.677802e-01
   endloop
 endfacet
 facet normal -1.000000e+00  0.000000e+00  0.000000e+00
   outer loop
     vertex  8.571429e-01  3.242694e-01  3.202936e-01
     vertex  8.571429e-01  2.629685e-01  2.510992e-01
     vertex  8.571429e-01  2.545668e-01  2.585425e-01
   endloop
 endfacet
 facet normal -1.000000e+00  0.000000e+00  0.000000e+00
   outer loop
     vertex  8.571429e-01  3.242694e-01  3.202936e-01
     vertex  8.571429e-01  2.729074e-01  2.458829e-01
     vertex  8.571429e-01  2.629685e-01  2.510992e-01
   endloop
 endfacet
 facet normal -1.000000e+00  0.000000e+00  0.000000e+00
   outer loop
     vertex  8.571429e-01  3.242694e-01  3.202936e-01
     vertex  8.571429e-01  2.838058e-01  2.431967e-01
     vertex  8.571429e-01  2.729074e-01  2.458829e-01
   endloop
 endfacet
 facet normal -1.000000e+00  0.000000e+00  0.000000e+00
   outer loop
     vertex  8.571429e-01  3.242694e-01  3.202936e-01
     vertex  8.571429e-01  2.950303e-01  2.431967e-01
     vertex  8.571429e-01  2.838058e-01  2.431967e-01
   endloop
 endfacet
 facet normal -1.000000e+00  0.000000e+00  0.000000e+00
   outer loop
     vertex  8.571429e-01  3.242694e-01  3.202936e-01
     vertex  8.571429e-01  3.059288e-01  2.458829e-01
     vertex  8.571429e-01  2.950303e-01  2.431967e-01
   endloop
 endfacet
 facet normal -1.000000e+00  0.000000e+00  0.000000e+00
   outer loop
     vertex  8.571429e-01  3.242694e-01  3.202936e-01
     vertex  8.571429e-01  3.158676e-01  2.510992e-01
     vertex  8.571429e-01  3.059288e-01  2.458829e-01
   endloop
 endfacet
 facet normal -1.000000e+00  0.000000e+00  0.000000e+00
   outer loop
     vertex  8.571429e-01  3.242694e-01  3.202936e-01
     vertex  8.571429e-01  3.242694e-01  2.585425e-01
     vertex  8.571429e-01  3.158676e-01  2.510992e-01
   endloop
 endfacet
 facet normal -1.000000e+00  0.000000e+00 -0.000000e+00
   outer loop
     vertex  8.571429e-01  3.242694e-01  3.202936e-01
     vertex  8.571429e-01  3.306456e-01  2.677802e-01
     vertex  8.571429e-01  3.242694e-01  2.585425e-01
   endloop
 endfacet
 facet normal -1.000000e+00  0.000000e+00  0.000000e+00
   outer loop
     vertex  8.571429e-01  3.242694e-01  3.202936e-01
     vertex  8.571429e-01  3.346259e-01  2.782753e-01
     vertex  8.571429e-01  3.306456e-01  2.677802e-01
   endloop
 endfacet
 facet normal -1.000000e+00  0.000000e+00  0.000000e+00
   outer loop
     vertex  8.571429e-01  3.242694e-01  3.202936e-01
     vertex  8.571429e-01  3.359789e-01  2.894181e-01
     vertex  8.571429e-01  3.346259e-01  2.782753e-01
   endloop
 endfacet
endsolid
