solid 
 facet normal -0.000000e+00  0.000000e+00 -1.000000e+00
   outer loop
     vertex  1.146391e-02 -1.587302e-02 -3.507937e-01
     vertex -9.507937e-01 -5.079365e-01 -3.507937e-01
     vertex -9.507937e-01 -1.587302e-02 -3.507937e-01
   endloop
 endfacet
 facet normal  0.000000e+00 -0.000000e+00 -1.000000e+00
   outer loop
     vertex  1.146391e-02 -1.587302e-02 -3.507937e-01
     vertex  1.146391e-02 -5.079365e-01 -3.507937e-01
     vertex -9.507937e-01 -5.079365e-01 -3.507937e-01
   endloop
 endfacet
 facet normal -1.000000e+00  0.000000e+00  0.000000e+00
   outer loop
     vertex -9.507937e-01 -1.587302e-02 -3.507937e-01
     vertex -9.507937e-01 -5.079365e-01  6.114639e-01
     vertex -9.507937e-01 -1.587302e-02  6.114639e-01
   endloop
 endfacet
 facet normal -1.000000e+00  0.000000e+00  0.000000e+00
   outer loop
     vertex -9.507937e-01 -1.587302e-02 -3.507937e-01
     vertex -9.507937e-01 -5.079365e-01 -3.507937e-01
     vertex -9.507937e-01 -5.079365e-01  6.114639e-01
   endloop
 endfacet
 facet normal  1.000000e+00  0.000000e+00  0.000000e+00
   outer loop
     vertex  1.146391e-02 -1.587302e-02  6.114639e-01
     vertex  1.146391e-02 -5.079365e-01 -3.507937e-01
     vertex  1.146391e-02 -1.587302e-02 -3.507937e-01
   endloop
 endfacet
 facet normal  1.000000e+00  0.000000e+00  0.000000e+00
   outer loop
     vertex  1.146391e-02 -1.587302e-02  6.114639e-01
     vertex  1.146391e-02 -5.079365e-01  6.114639e-01
     vertex  1.146391e-02 -5.079365e-01 -3.507937e-01
   endloop
 endfacet
 facet normal  0.000000e+00  0.000000e+00 -1.000000e+00
   outer loop
     vertex  1.146391e-02 -1.587302e-02 -3.507937e-01
     vertex -9.507937e-01 -1.587302e-02 -3.507937e-01
     vertex -9.507937e-01  0.000000e+00 -3.507937e-01
   endloop
 endfacet
 facet normal  0.000000e+00  0.000000e+00 -1.000000e+00
   outer loop
     vertex  1.146391e-02 -1.587302e-02 -3.507937e-01
     vertex -9.507937e-01  0.000000e+00 -3.507937e-01
     vertex  1.146391e-02  0.000000e+00 -3.507937e-01
   endloop
 endfacet
 facet normal  0.000000e+00 -1.000000e+00  0.000000e+00
   outer loop
     vertex -9.507937e-01 -5.079365e-01  6.114639e-01
     vertex -9.507937e-01 -5.079365e-01 -3.507937e-01
     vertex -5.253969e-01 -5.079365e-01 -3.968254e-02
   endloop
 endfacet
 facet normal  0.000000e+00 -1.000000e+00  0.000000e+00
   outer loop
     vertex  1.146391e-02 -5.079365e-01 -3.507937e-01
     vertex -5.253969e-01 -5.079365e-01 -3.968254e-02
     vertex -9.507937e-01 -5.079365e-01 -3.507937e-01
   endloop
 endfacet
 facet normal -0.000000e+00 -1.000000e+00 -0.000000e+00
   outer loop
     vertex -5.253969e-01 -5.079365e-01  4.259260e-01
     vertex -9.507937e-01 -5.079365e-01  6.114639e-01
     vertex -5.253969e-01 -5.079365e-01 -3.968254e-02
   endloop
 endfacet
 facet normal -0.000000e+00 -1.000000e+00 -0.000000e+00
   outer loop
     vertex -5.978836e-02 -5.079365e-01 -3.968254e-02
     vertex -5.253969e-01 -5.079365e-01 -3.968254e-02
     vertex  1.146391e-02 -5.079365e-01 -3.507937e-01
   endloop
 endfacet
 facet normal  0.000000e+00 -1.000000e+00  0.000000e+00
   outer loop
     vertex  1.146391e-02 -5.079365e-01  6.114639e-01
     vertex -5.978836e-02 -5.079365e-01  4.259260e-01
     vertex -5.978836e-02 -5.079365e-01 -3.968254e-02
   endloop
 endfacet
 facet normal  0.000000e+00 -1.000000e+00  0.000000e+00
   outer loop
     vertex  1.146391e-02 -5.079365e-01  6.114639e-01
     vertex -5.253969e-01 -5.079365e-01  4.259260e-01
     vertex -5.978836e-02 -5.079365e-01  4.259260e-01
   endloop
 endfacet
 facet normal  0.000000e+00 -1.000000e+00 -0.000000e+00
   outer loop
     vertex  1.146391e-02 -5.079365e-01  6.114639e-01
     vertex -5.978836e-02 -5.079365e-01 -3.968254e-02
     vertex  1.146391e-02 -5.079365e-01 -3.507937e-01
   endloop
 endfacet
 facet normal -0.000000e+00 -1.000000e+00  0.000000e+00
   outer loop
     vertex  1.146391e-02 -5.079365e-01  6.114639e-01
     vertex -9.507937e-01 -5.079365e-01  6.114639e-01
     vertex -5.253969e-01 -5.079365e-01  4.259260e-01
   endloop
 endfacet
 facet normal -0.000000e+00  0.000000e+00  1.000000e+00
   outer loop
     vertex -9.507937e-01 -1.587302e-02  6.114639e-01
     vertex  1.146391e-02 -5.079365e-01  6.114639e-01
     vertex  1.146391e-02 -1.587302e-02  6.114639e-01
   endloop
 endfacet
 facet normal  0.000000e+00  0.000000e+00  1.000000e+00
   outer loop
     vertex -9.507937e-01 -1.587302e-02  6.114639e-01
     vertex -9.507937e-01 -5.079365e-01  6.114639e-01
     vertex  1.146391e-02 -5.079365e-01  6.114639e-01
   endloop
 endfacet
 facet normal -1.000000e+00  0.000000e+00  0.000000e+00
   outer loop
     vertex -9.507937e-01 -1.587302e-02 -3.507937e-01
     vertex -9.507937e-01 -1.587302e-02  6.114639e-01
     vertex -9.507937e-01  0.000000e+00  6.114639e-01
   endloop
 endfacet
 facet normal -1.000000e+00  0.000000e+00  0.000000e+00
   outer loop
     vertex -9.507937e-01 -1.587302e-02 -3.507937e-01
     vertex -9.507937e-01  0.000000e+00  6.114639e-01
     vertex -9.507937e-01  0.000000e+00 -3.507937e-01
   endloop
 endfacet
 facet normal  1.000000e+00  0.000000e+00  0.000000e+00
   outer loop
     vertex  1.146391e-02 -1.587302e-02  6.114639e-01
     vertex  1.146391e-02 -1.587302e-02 -3.507937e-01
     vertex  1.146391e-02  0.000000e+00 -3.507937e-01
   endloop
 endfacet
 facet normal  1.000000e+00 -0.000000e+00  0.000000e+00
   outer loop
     vertex  1.146391e-02 -1.587302e-02  6.114639e-01
     vertex  1.146391e-02  0.000000e+00 -3.507937e-01
     vertex  1.146391e-02  0.000000e+00  6.114639e-01
   endloop
 endfacet
 facet normal  0.000000e+00  1.000000e+00  0.000000e+00
   outer loop
     vertex -9.507937e-01  0.000000e+00  6.114639e-01
     vertex -5.253969e-01  0.000000e+00 -3.968254e-02
     vertex -9.507937e-01  0.000000e+00 -3.507937e-01
   endloop
 endfacet
 facet normal  0.000000e+00  1.000000e+00  0.000000e+00
   outer loop
     vertex  1.146391e-02  0.000000e+00 -3.507937e-01
     vertex -9.507937e-01  0.000000e+00 -3.507937e-01
     vertex -5.253969e-01  0.000000e+00 -3.968254e-02
   endloop
 endfacet
 facet normal  0.000000e+00  1.000000e+00  0.000000e+00
   outer loop
     vertex -5.253969e-01  0.000000e+00  4.259260e-01
     vertex -5.253969e-01  0.000000e+00 -3.968254e-02
     vertex -9.507937e-01  0.000000e+00  6.114639e-01
   endloop
 endfacet
 facet normal  0.000000e+00  1.000000e+00  0.000000e+00
   outer loop
     vertex -5.978836e-02  0.000000e+00 -3.968254e-02
     vertex  1.146391e-02  0.000000e+00 -3.507937e-01
     vertex -5.253969e-01  0.000000e+00 -3.968254e-02
   endloop
 endfacet
 facet normal  0.000000e+00  1.000000e+00  0.000000e+00
   outer loop
     vertex  1.146391e-02  0.000000e+00  6.114639e-01
     vertex -5.978836e-02  0.000000e+00  4.259260e-01
     vertex -5.253969e-01  0.000000e+00  4.259260e-01
   endloop
 endfacet
 facet normal  0.000000e+00  1.000000e+00  0.000000e+00
   outer loop
     vertex  1.146391e-02  0.000000e+00  6.114639e-01
     vertex -5.978836e-02  0.000000e+00 -3.968254e-02
     vertex -5.978836e-02  0.000000e+00  4.259260e-01
   endloop
 endfacet
 facet normal  0.000000e+00  1.000000e+00  0.000000e+00
   outer loop
     vertex  1.146391e-02  0.000000e+00  6.114639e-01
     vertex  1.146391e-02  0.000000e+00 -3.507937e-01
     vertex -5.978836e-02  0.000000e+00 -3.968254e-02
   endloop
 endfacet
 facet normal  0.000000e+00  1.000000e+00  0.000000e+00
   outer loop
     vertex  1.146391e-02  0.000000e+00  6.114639e-01
     vertex -5.253969e-01  0.000000e+00  4.259260e-01
     vertex -9.507937e-01  0.000000e+00  6.114639e-01
   endloop
 endfacet
 facet normal  1.000000e+00  0.000000e+00  0.000000e+00
   outer loop
     vertex -5.978836e-02 -5.079365e-01  4.259260e-01
     vertex -5.978836e-02 -1.015873e+00 -3.968254e-02
     vertex -5.978836e-02 -5.079365e-01 -3.968254e-02
   endloop
 endfacet
 facet normal  1.000000e+00  0.000000e+00  0.000000e+00
   outer loop
     vertex -5.978836e-02 -5.079365e-01  4.259260e-01
     vertex -5.978836e-02 -1.015873e+00  4.259260e-01
     vertex -5.978836e-02 -1.015873e+00 -3.968254e-02
   endloop
 endfacet
 facet normal -0.000000e+00  0.000000e+00  1.000000e+00
   outer loop
     vertex -5.253969e-01 -5.079365e-01  4.259260e-01
     vertex -5.978836e-02 -1.015873e+00  4.259260e-01
     vertex -5.978836e-02 -5.079365e-01  4.259260e-01
   endloop
 endfacet
 facet normal  0.000000e+00  0.000000e+00  1.000000e+00
   outer loop
     vertex -5.253969e-01 -5.079365e-01  4.259260e-01
     vertex -5.253969e-01 -1.015873e+00  4.259260e-01
     vertex -5.978836e-02 -1.015873e+00  4.259260e-01
   endloop
 endfacet
 facet normal -1.000000e+00  0.000000e+00  0.000000e+00
   outer loop
     vertex -5.253969e-01 -5.079365e-01 -3.968254e-02
     vertex -5.253969e-01 -1.015873e+00  4.259260e-01
     vertex -5.253969e-01 -5.079365e-01  4.259260e-01
   endloop
 endfacet
 facet normal -1.000000e+00  0.000000e+00  0.000000e+00
   outer loop
     vertex -5.253969e-01 -5.079365e-01 -3.968254e-02
     vertex -5.253969e-01 -1.015873e+00 -3.968254e-02
     vertex -5.253969e-01 -1.015873e+00  4.259260e-01
   endloop
 endfacet
 facet normal -0.000000e+00  0.000000e+00 -1.000000e+00
   outer loop
     vertex -5.978836e-02 -5.079365e-01 -3.968254e-02
     vertex -5.253969e-01 -1.015873e+00 -3.968254e-02
     vertex -5.253969e-01 -5.079365e-01 -3.968254e-02
   endloop
 endfacet
 facet normal  0.000000e+00 -0.000000e+00 -1.000000e+00
   outer loop
     vertex -5.978836e-02 -5.079365e-01 -3.968254e-02
     vertex -5.978836e-02 -1.015873e+00 -3.968254e-02
     vertex -5.253969e-01 -1.015873e+00 -3.968254e-02
   endloop
 endfacet
 facet normal  0.000000e+00  0.000000e+00  1.000000e+00
   outer loop
     vertex -9.507937e-01 -1.587302e-02  6.114639e-01
     vertex  1.146391e-02 -1.587302e-02  6.114639e-01
     vertex  1.146391e-02  0.000000e+00  6.114639e-01
   endloop
 endfacet
 facet normal  0.000000e+00  0.000000e+00  1.000000e+00
   outer loop
     vertex -9.507937e-01 -1.587302e-02  6.114639e-01
     vertex  1.146391e-02  0.000000e+00  6.114639e-01
     vertex -9.507937e-01  0.000000e+00  6.114639e-01
   endloop
 endfacet
 facet normal  0.000000e+00  1.000000e+00  0.000000e+00
   outer loop
     vertex -5.978836e-02  0.000000e+00  4.259260e-01
     vertex -5.978836e-02  0.000000e+00 -3.968254e-02
     vertex -5.253969e-01  0.000000e+00 -3.968254e-02
   endloop
 endfacet
 facet normal  0.000000e+00  1.000000e+00  0.000000e+00
   outer loop
     vertex -5.978836e-02  0.000000e+00  4.259260e-01
     vertex -5.253969e-01  0.000000e+00 -3.968254e-02
     vertex -5.253969e-01  0.000000e+00  4.259260e-01
   endloop
 endfacet
 facet normal  0.000000e+00 -1.000000e+00 -0.000000e+00
   outer loop
     vertex -5.978836e-02 -1.015873e+00  4.259260e-01
     vertex -5.253969e-01 -1.015873e+00 -3.968254e-02
     vertex -5.978836e-02 -1.015873e+00 -3.968254e-02
   endloop
 endfacet
 facet normal -0.000000e+00 -1.000000e+00  0.000000e+00
   outer loop
     vertex -5.978836e-02 -1.015873e+00  4.259260e-01
     vertex -5.253969e-01 -1.015873e+00  4.259260e-01
     vertex -5.253969e-01 -1.015873e+00 -3.968254e-02
   endloop
 endfacet
endsolid
