solid 
 facet normal  0.000000e+00 -1.000000e+00  0.000000e+00
   outer loop
     vertex  5.289242e-01 -5.264550e-01 -1.587302e-02
     vertex -6.703703e-01 -5.264550e-01  7.301587e-01
     vertex -6.703703e-01 -5.264550e-01 -1.587302e-02
   endloop
 endfacet
 facet normal  0.000000e+00 -1.000000e+00  0.000000e+00
   outer loop
     vertex  5.289242e-01 -5.264550e-01 -1.587302e-02
     vertex  5.289242e-01 -5.264550e-01  7.301587e-01
     vertex -6.703703e-01 -5.264550e-01  7.301587e-01
   endloop
 endfacet
 facet normal -1.000000e+00  0.000000e+00  0.000000e+00
   outer loop
     vertex -6.703703e-01 -5.264550e-01 -1.587302e-02
     vertex -6.703703e-01  3.850089e-01  7.301587e-01
     vertex -6.703703e-01  3.850089e-01 -1.587302e-02
   endloop
 endfacet
 facet normal -1.000000e+00  0.000000e+00  0.000000e+00
   outer loop
     vertex -6.703703e-01 -5.264550e-01 -1.587302e-02
     vertex -6.703703e-01 -5.264550e-01  7.301587e-01
     vertex -6.703703e-01  3.850089e-01  7.301587e-01
   endloop
 endfacet
 facet normal  1.000000e+00  0.000000e+00  0.000000e+00
   outer loop
     vertex  5.289242e-01  3.850089e-01 -1.587302e-02
     vertex  5.289242e-01 -5.264550e-01  7.301587e-01
     vertex  5.289242e-01 -5.264550e-01 -1.587302e-02
   endloop
 endfacet
 facet normal  1.000000e+00  0.000000e+00 -0.000000e+00
   outer loop
     vertex  5.289242e-01  3.850089e-01 -1.587302e-02
     vertex  5.289242e-01  3.850089e-01  7.301587e-01
     vertex  5.289242e-01 -5.264550e-01  7.301587e-01
   endloop
 endfacet
 facet normal -0.000000e+00 -1.000000e+00  0.000000e+00
   outer loop
     vertex  5.289242e-01 -5.264550e-01 -1.587302e-02
     vertex -6.703703e-01 -5.264550e-01 -1.587302e-02
     vertex -6.703703e-01 -5.264550e-01 -3.174603e-02
   endloop
 endfacet
 facet normal  0.000000e+00 -1.000000e+00 -0.000000e+00
   outer loop
     vertex  5.289242e-01 -5.264550e-01 -1.587302e-02
     vertex -6.703703e-01 -5.264550e-01 -3.174603e-02
     vertex  5.289242e-01 -5.264550e-01 -3.174603e-02
   endloop
 endfacet
 facet normal  0.000000e+00  0.000000e+00  1.000000e+00
   outer loop
     vertex -1.534834e-01 -1.878192e-01  7.301587e-01
     vertex -1.720024e-01 -1.720024e-01  7.301587e-01
     vertex -6.703703e-01 -5.264550e-01  7.301587e-01
   endloop
 endfacet
 facet normal  0.000000e+00  0.000000e+00  1.000000e+00
   outer loop
     vertex -1.878192e-01 -1.534834e-01  7.301587e-01
     vertex -6.703703e-01 -5.264550e-01  7.301587e-01
     vertex -1.720024e-01 -1.720024e-01  7.301587e-01
   endloop
 endfacet
 facet normal  0.000000e+00  0.000000e+00  1.000000e+00
   outer loop
     vertex -2.005442e-01 -1.327181e-01  7.301587e-01
     vertex -6.703703e-01 -5.264550e-01  7.301587e-01
     vertex -1.878192e-01 -1.534834e-01  7.301587e-01
   endloop
 endfacet
 facet normal  0.000000e+00  0.000000e+00  1.000000e+00
   outer loop
     vertex -1.327181e-01 -2.005442e-01  7.301587e-01
     vertex -1.534834e-01 -1.878192e-01  7.301587e-01
     vertex -6.703703e-01 -5.264550e-01  7.301587e-01
   endloop
 endfacet
 facet normal  0.000000e+00  0.000000e+00  1.000000e+00
   outer loop
     vertex -2.098641e-01 -1.102178e-01  7.301587e-01
     vertex -6.703703e-01 -5.264550e-01  7.301587e-01
     vertex -2.005442e-01 -1.327181e-01  7.301587e-01
   endloop
 endfacet
 facet normal  0.000000e+00  0.000000e+00  1.000000e+00
   outer loop
     vertex -1.102178e-01 -2.098641e-01  7.301587e-01
     vertex -1.327181e-01 -2.005442e-01  7.301587e-01
     vertex -6.703703e-01 -5.264550e-01  7.301587e-01
   endloop
 endfacet
 facet normal  0.000000e+00  0.000000e+00  1.000000e+00
   outer loop
     vertex -2.155495e-01 -8.653653e-02  7.301587e-01
     vertex -6.703703e-01 -5.264550e-01  7.301587e-01
     vertex -2.098641e-01 -1.102178e-01  7.301587e-01
   endloop
 endfacet
 facet normal  0.000000e+00  0.000000e+00  1.000000e+00
   outer loop
     vertex -8.653653e-02 -2.155495e-01  7.301587e-01
     vertex -1.102178e-01 -2.098641e-01  7.301587e-01
     vertex -6.703703e-01 -5.264550e-01  7.301587e-01
   endloop
 endfacet
 facet normal  0.000000e+00  0.000000e+00  1.000000e+00
   outer loop
     vertex -6.225746e-02 -2.174603e-01  7.301587e-01
     vertex -8.653653e-02 -2.155495e-01  7.301587e-01
     vertex -6.703703e-01 -5.264550e-01  7.301587e-01
   endloop
 endfacet
 facet normal  0.000000e+00  0.000000e+00  1.000000e+00
   outer loop
     vertex -2.174603e-01 -6.225746e-02  7.301587e-01
     vertex -6.703703e-01  3.850089e-01  7.301587e-01
     vertex -6.703703e-01 -5.264550e-01  7.301587e-01
   endloop
 endfacet
 facet normal  0.000000e+00  0.000000e+00  1.000000e+00
   outer loop
     vertex -2.174603e-01 -6.225746e-02  7.301587e-01
     vertex -6.703703e-01 -5.264550e-01  7.301587e-01
     vertex -2.155495e-01 -8.653653e-02  7.301587e-01
   endloop
 endfacet
 facet normal  0.000000e+00  0.000000e+00  1.000000e+00
   outer loop
     vertex -2.155495e-01 -3.797839e-02  7.301587e-01
     vertex -6.703703e-01  3.850089e-01  7.301587e-01
     vertex -2.174603e-01 -6.225746e-02  7.301587e-01
   endloop
 endfacet
 facet normal  0.000000e+00  0.000000e+00  1.000000e+00
   outer loop
     vertex -2.098641e-01 -1.429715e-02  7.301587e-01
     vertex -6.703703e-01  3.850089e-01  7.301587e-01
     vertex -2.155495e-01 -3.797839e-02  7.301587e-01
   endloop
 endfacet
 facet normal  0.000000e+00  0.000000e+00  1.000000e+00
   outer loop
     vertex -2.005442e-01  8.203146e-03  7.301587e-01
     vertex -6.703703e-01  3.850089e-01  7.301587e-01
     vertex -2.098641e-01 -1.429715e-02  7.301587e-01
   endloop
 endfacet
 facet normal  0.000000e+00  0.000000e+00  1.000000e+00
   outer loop
     vertex -1.878192e-01  2.896847e-02  7.301587e-01
     vertex -6.703703e-01  3.850089e-01  7.301587e-01
     vertex -2.005442e-01  8.203146e-03  7.301587e-01
   endloop
 endfacet
 facet normal  0.000000e+00  0.000000e+00  1.000000e+00
   outer loop
     vertex -1.720024e-01  4.748751e-02  7.301587e-01
     vertex -6.703703e-01  3.850089e-01  7.301587e-01
     vertex -1.878192e-01  2.896847e-02  7.301587e-01
   endloop
 endfacet
 facet normal  0.000000e+00  0.000000e+00  1.000000e+00
   outer loop
     vertex -1.534834e-01  6.330426e-02  7.301587e-01
     vertex -6.703703e-01  3.850089e-01  7.301587e-01
     vertex -1.720024e-01  4.748751e-02  7.301587e-01
   endloop
 endfacet
 facet normal  0.000000e+00  0.000000e+00  1.000000e+00
   outer loop
     vertex -1.327181e-01  7.602927e-02  7.301587e-01
     vertex -6.703703e-01  3.850089e-01  7.301587e-01
     vertex -1.534834e-01  6.330426e-02  7.301587e-01
   endloop
 endfacet
 facet normal  0.000000e+00  0.000000e+00  1.000000e+00
   outer loop
     vertex -1.102178e-01  8.534920e-02  7.301587e-01
     vertex -6.703703e-01  3.850089e-01  7.301587e-01
     vertex -1.327181e-01  7.602927e-02  7.301587e-01
   endloop
 endfacet
 facet normal  0.000000e+00  0.000000e+00  1.000000e+00
   outer loop
     vertex  5.289242e-01 -5.264550e-01  7.301587e-01
     vertex -3.797839e-02 -2.155495e-01  7.301587e-01
     vertex -6.225746e-02 -2.174603e-01  7.301587e-01
   endloop
 endfacet
 facet normal  0.000000e+00  0.000000e+00  1.000000e+00
   outer loop
     vertex  5.289242e-01 -5.264550e-01  7.301587e-01
     vertex -1.429715e-02 -2.098641e-01  7.301587e-01
     vertex -3.797839e-02 -2.155495e-01  7.301587e-01
   endloop
 endfacet
 facet normal  0.000000e+00  0.000000e+00  1.000000e+00
   outer loop
     vertex  5.289242e-01 -5.264550e-01  7.301587e-01
     vertex  8.203146e-03 -2.005442e-01  7.301587e-01
     vertex -1.429715e-02 -2.098641e-01  7.301587e-01
   endloop
 endfacet
 facet normal  0.000000e+00  0.000000e+00  1.000000e+00
   outer loop
     vertex  5.289242e-01 -5.264550e-01  7.301587e-01
     vertex  2.896847e-02 -1.878192e-01  7.301587e-01
     vertex  8.203146e-03 -2.005442e-01  7.301587e-01
   endloop
 endfacet
 facet normal  0.000000e+00  0.000000e+00  1.000000e+00
   outer loop
     vertex  5.289242e-01 -5.264550e-01  7.301587e-01
     vertex  4.748751e-02 -1.720024e-01  7.301587e-01
     vertex  2.896847e-02 -1.878192e-01  7.301587e-01
   endloop
 endfacet
 facet normal  0.000000e+00  0.000000e+00  1.000000e+00
   outer loop
     vertex  5.289242e-01 -5.264550e-01  7.301587e-01
     vertex  6.330426e-02 -1.534834e-01  7.301587e-01
     vertex  4.748751e-02 -1.720024e-01  7.301587e-01
   endloop
 endfacet
 facet normal  0.000000e+00  0.000000e+00  1.000000e+00
   outer loop
     vertex  5.289242e-01 -5.264550e-01  7.301587e-01
     vertex  7.602927e-02 -1.327181e-01  7.301587e-01
     vertex  6.330426e-02 -1.534834e-01  7.301587e-01
   endloop
 endfacet
 facet normal  0.000000e+00  0.000000e+00  1.000000e+00
   outer loop
     vertex  5.289242e-01 -5.264550e-01  7.301587e-01
     vertex  8.534920e-02 -1.102178e-01  7.301587e-01
     vertex  7.602927e-02 -1.327181e-01  7.301587e-01
   endloop
 endfacet
 facet normal  0.000000e+00  0.000000e+00  1.000000e+00
   outer loop
     vertex  5.289242e-01 -5.264550e-01  7.301587e-01
     vertex -6.225746e-02 -2.174603e-01  7.301587e-01
     vertex -6.703703e-01 -5.264550e-01  7.301587e-01
   endloop
 endfacet
 facet normal  0.000000e+00  0.000000e+00  1.000000e+00
   outer loop
     vertex -8.653653e-02  9.103456e-02  7.301587e-01
     vertex -6.703703e-01  3.850089e-01  7.301587e-01
     vertex -1.102178e-01  8.534920e-02  7.301587e-01
   endloop
 endfacet
 facet normal  0.000000e+00  0.000000e+00  1.000000e+00
   outer loop
     vertex  9.103456e-02 -8.653653e-02  7.301587e-01
     vertex  8.534920e-02 -1.102178e-01  7.301587e-01
     vertex  5.289242e-01 -5.264550e-01  7.301587e-01
   endloop
 endfacet
 facet normal  0.000000e+00  0.000000e+00  1.000000e+00
   outer loop
     vertex -6.225746e-02  9.294536e-02  7.301587e-01
     vertex -6.703703e-01  3.850089e-01  7.301587e-01
     vertex -8.653653e-02  9.103456e-02  7.301587e-01
   endloop
 endfacet
 facet normal  0.000000e+00  0.000000e+00  1.000000e+00
   outer loop
     vertex  9.294536e-02 -6.225746e-02  7.301587e-01
     vertex  9.103456e-02 -8.653653e-02  7.301587e-01
     vertex  5.289242e-01 -5.264550e-01  7.301587e-01
   endloop
 endfacet
 facet normal  0.000000e+00  0.000000e+00  1.000000e+00
   outer loop
     vertex  5.289242e-01  3.850089e-01  7.301587e-01
     vertex  9.103456e-02 -3.797839e-02  7.301587e-01
     vertex  9.294536e-02 -6.225746e-02  7.301587e-01
   endloop
 endfacet
 facet normal  0.000000e+00  0.000000e+00  1.000000e+00
   outer loop
     vertex  5.289242e-01  3.850089e-01  7.301587e-01
     vertex  9.294536e-02 -6.225746e-02  7.301587e-01
     vertex  5.289242e-01 -5.264550e-01  7.301587e-01
   endloop
 endfacet
 facet normal  0.000000e+00  0.000000e+00  1.000000e+00
   outer loop
     vertex  5.289242e-01  3.850089e-01  7.301587e-01
     vertex  8.534920e-02 -1.429715e-02  7.301587e-01
     vertex  9.103456e-02 -3.797839e-02  7.301587e-01
   endloop
 endfacet
 facet normal  0.000000e+00  0.000000e+00  1.000000e+00
   outer loop
     vertex  5.289242e-01  3.850089e-01  7.301587e-01
     vertex  7.602927e-02  8.203146e-03  7.301587e-01
     vertex  8.534920e-02 -1.429715e-02  7.301587e-01
   endloop
 endfacet
 facet normal  0.000000e+00  0.000000e+00  1.000000e+00
   outer loop
     vertex  5.289242e-01  3.850089e-01  7.301587e-01
     vertex  6.330426e-02  2.896847e-02  7.301587e-01
     vertex  7.602927e-02  8.203146e-03  7.301587e-01
   endloop
 endfacet
 facet normal  0.000000e+00  0.000000e+00  1.000000e+00
   outer loop
     vertex  5.289242e-01  3.850089e-01  7.301587e-01
     vertex  4.748751e-02  4.748751e-02  7.301587e-01
     vertex  6.330426e-02  2.896847e-02  7.301587e-01
   endloop
 endfacet
 facet normal  0.000000e+00  0.000000e+00  1.000000e+00
   outer loop
     vertex  5.289242e-01  3.850089e-01  7.301587e-01
     vertex  2.896847e-02  6.330426e-02  7.301587e-01
     vertex  4.748751e-02  4.748751e-02  7.301587e-01
   endloop
 endfacet
 facet normal  0.000000e+00  0.000000e+00  1.000000e+00
   outer loop
     vertex  5.289242e-01  3.850089e-01  7.301587e-01
     vertex  8.203146e-03  7.602927e-02  7.301587e-01
     vertex  2.896847e-02  6.330426e-02  7.301587e-01
   endloop
 endfacet
 facet normal  0.000000e+00  0.000000e+00  1.000000e+00
   outer loop
     vertex  5.289242e-01  3.850089e-01  7.301587e-01
     vertex -1.429715e-02  8.534920e-02  7.301587e-01
     vertex  8.203146e-03  7.602927e-02  7.301587e-01
   endloop
 endfacet
 facet normal  0.000000e+00  0.000000e+00  1.000000e+00
   outer loop
     vertex  5.289242e-01  3.850089e-01  7.301587e-01
     vertex -3.797839e-02  9.103456e-02  7.301587e-01
     vertex -1.429715e-02  8.534920e-02  7.301587e-01
   endloop
 endfacet
 facet normal  0.000000e+00  0.000000e+00  1.000000e+00
   outer loop
     vertex  5.289242e-01  3.850089e-01  7.301587e-01
     vertex -6.225746e-02  9.294536e-02  7.301587e-01
     vertex -3.797839e-02  9.103456e-02  7.301587e-01
   endloop
 endfacet
 facet normal  0.000000e+00  0.000000e+00  1.000000e+00
   outer loop
     vertex  5.289242e-01  3.850089e-01  7.301587e-01
     vertex -6.703703e-01  3.850089e-01  7.301587e-01
     vertex -6.225746e-02  9.294536e-02  7.301587e-01
   endloop
 endfacet
 facet normal  0.000000e+00  1.000000e+00  0.000000e+00
   outer loop
     vertex -6.703703e-01  3.850089e-01 -1.587302e-02
     vertex  5.289242e-01  3.850089e-01  7.301587e-01
     vertex  5.289242e-01  3.850089e-01 -1.587302e-02
   endloop
 endfacet
 facet normal  0.000000e+00  1.000000e+00  0.000000e+00
   outer loop
     vertex -6.703703e-01  3.850089e-01 -1.587302e-02
     vertex -6.703703e-01  3.850089e-01  7.301587e-01
     vertex  5.289242e-01  3.850089e-01  7.301587e-01
   endloop
 endfacet
 facet normal -1.000000e+00  0.000000e+00  0.000000e+00
   outer loop
     vertex -6.703703e-01 -5.264550e-01 -1.587302e-02
     vertex -6.703703e-01  3.850089e-01 -1.587302e-02
     vertex -6.703703e-01  3.850089e-01 -3.174603e-02
   endloop
 endfacet
 facet normal -1.000000e+00  0.000000e+00  0.000000e+00
   outer loop
     vertex -6.703703e-01 -5.264550e-01 -1.587302e-02
     vertex -6.703703e-01  3.850089e-01 -3.174603e-02
     vertex -6.703703e-01 -5.264550e-01 -3.174603e-02
   endloop
 endfacet
 facet normal  1.000000e+00  0.000000e+00  0.000000e+00
   outer loop
     vertex  5.289242e-01  3.850089e-01 -1.587302e-02
     vertex  5.289242e-01 -5.264550e-01 -1.587302e-02
     vertex  5.289242e-01 -5.264550e-01 -3.174603e-02
   endloop
 endfacet
 facet normal  1.000000e+00  0.000000e+00  0.000000e+00
   outer loop
     vertex  5.289242e-01  3.850089e-01 -1.587302e-02
     vertex  5.289242e-01 -5.264550e-01 -3.174603e-02
     vertex  5.289242e-01  3.850089e-01 -3.174603e-02
   endloop
 endfacet
 facet normal  2.279086e-17  2.668467e-17 -1.000000e+00
   outer loop
     vertex -1.534834e-01 -1.878192e-01 -3.174603e-02
     vertex -6.703703e-01 -5.264550e-01 -3.174603e-02
     vertex -1.720024e-01 -1.720024e-01 -3.174603e-02
   endloop
 endfacet
 facet normal  2.598516e-17  2.219342e-17 -1.000000e+00
   outer loop
     vertex -1.878192e-01 -1.534834e-01 -3.174603e-02
     vertex -1.720024e-01 -1.720024e-01 -3.174603e-02
     vertex -6.703703e-01 -5.264550e-01 -3.174603e-02
   endloop
 endfacet
 facet normal  2.927357e-17  1.793887e-17 -1.000000e+00
   outer loop
     vertex -2.005442e-01 -1.327181e-01 -3.174603e-02
     vertex -1.878192e-01 -1.534834e-01 -3.174603e-02
     vertex -6.703703e-01 -5.264550e-01 -3.174603e-02
   endloop
 endfacet
 facet normal  1.946411e-17  3.176255e-17 -1.000000e+00
   outer loop
     vertex -1.327181e-01 -2.005442e-01 -3.174603e-02
     vertex -6.703703e-01 -5.264550e-01 -3.174603e-02
     vertex -1.534834e-01 -1.878192e-01 -3.174603e-02
   endloop
 endfacet
 facet normal  3.289005e-17  1.362350e-17 -1.000000e+00
   outer loop
     vertex -2.098641e-01 -1.102178e-01 -3.174603e-02
     vertex -2.005442e-01 -1.327181e-01 -3.174603e-02
     vertex -6.703703e-01 -5.264550e-01 -3.174603e-02
   endloop
 endfacet
 facet normal  1.571698e-17  3.794416e-17 -1.000000e+00
   outer loop
     vertex -1.102178e-01 -2.098641e-01 -3.174603e-02
     vertex -6.703703e-01 -5.264550e-01 -3.174603e-02
     vertex -1.327181e-01 -2.005442e-01 -3.174603e-02
   endloop
 endfacet
 facet normal  3.714373e-17  8.917421e-18 -1.000000e+00
   outer loop
     vertex -2.155495e-01 -8.653653e-02 -3.174603e-02
     vertex -2.098641e-01 -1.102178e-01 -3.174603e-02
     vertex -6.703703e-01 -5.264550e-01 -3.174603e-02
   endloop
 endfacet
 facet normal  1.107949e-17  4.614940e-17 -1.000000e+00
   outer loop
     vertex -8.653653e-02 -2.155495e-01 -3.174603e-02
     vertex -6.703703e-01 -5.264550e-01 -3.174603e-02
     vertex -1.102178e-01 -2.098641e-01 -3.174603e-02
   endloop
 endfacet
 facet normal  4.590974e-18  5.833385e-17 -1.000000e+00
   outer loop
     vertex -6.225746e-02 -2.174603e-01 -3.174603e-02
     vertex -6.703703e-01 -5.264550e-01 -3.174603e-02
     vertex -8.653653e-02 -2.155495e-01 -3.174603e-02
   endloop
 endfacet
 facet normal  4.596207e-17  0.000000e+00 -1.000000e+00
   outer loop
     vertex -2.174603e-01 -6.225746e-02 -3.174603e-02
     vertex -6.703703e-01 -5.264550e-01 -3.174603e-02
     vertex -6.703703e-01  3.850089e-01 -3.174603e-02
   endloop
 endfacet
 facet normal  4.253135e-17  3.347290e-18 -1.000000e+00
   outer loop
     vertex -2.174603e-01 -6.225746e-02 -3.174603e-02
     vertex -2.155495e-01 -8.653653e-02 -3.174603e-02
     vertex -6.703703e-01 -5.264550e-01 -3.174603e-02
   endloop
 endfacet
 facet normal  4.264746e-17 -3.356428e-18 -1.000000e+00
   outer loop
     vertex -2.155495e-01 -3.797839e-02 -3.174603e-02
     vertex -2.174603e-01 -6.225746e-02 -3.174603e-02
     vertex -6.703703e-01  3.850089e-01 -3.174603e-02
   endloop
 endfacet
 facet normal  3.741510e-17 -8.982571e-18 -1.000000e+00
   outer loop
     vertex -2.098641e-01 -1.429715e-02 -3.174603e-02
     vertex -2.155495e-01 -3.797839e-02 -3.174603e-02
     vertex -6.703703e-01  3.850089e-01 -3.174603e-02
   endloop
 endfacet
 facet normal  3.325858e-17 -1.377615e-17 -1.000000e+00
   outer loop
     vertex -2.005442e-01  8.203146e-03 -3.174603e-02
     vertex -2.098641e-01 -1.429715e-02 -3.174603e-02
     vertex -6.703703e-01  3.850089e-01 -3.174603e-02
   endloop
 endfacet
 facet normal  2.970701e-17 -1.820448e-17 -1.000000e+00
   outer loop
     vertex -1.878192e-01  2.896847e-02 -3.174603e-02
     vertex -2.005442e-01  8.203146e-03 -3.174603e-02
     vertex -6.703703e-01  3.850089e-01 -3.174603e-02
   endloop
 endfacet
 facet normal  2.646283e-17 -2.260140e-17 -1.000000e+00
   outer loop
     vertex -1.720024e-01  4.748751e-02 -3.174603e-02
     vertex -1.878192e-01  2.896847e-02 -3.174603e-02
     vertex -6.703703e-01  3.850089e-01 -3.174603e-02
   endloop
 endfacet
 facet normal  2.329648e-17 -2.727668e-17 -1.000000e+00
   outer loop
     vertex -1.534834e-01  6.330426e-02 -3.174603e-02
     vertex -1.720024e-01  4.748751e-02 -3.174603e-02
     vertex -6.703703e-01  3.850089e-01 -3.174603e-02
   endloop
 endfacet
 facet normal  1.998028e-17 -3.260486e-17 -1.000000e+00
   outer loop
     vertex -1.327181e-01  7.602927e-02 -3.174603e-02
     vertex -1.534834e-01  6.330426e-02 -3.174603e-02
     vertex -6.703703e-01  3.850089e-01 -3.174603e-02
   endloop
 endfacet
 facet normal  1.621748e-17 -3.915247e-17 -1.000000e+00
   outer loop
     vertex -1.102178e-01  8.534920e-02 -3.174603e-02
     vertex -1.327181e-01  7.602927e-02 -3.174603e-02
     vertex -6.703703e-01  3.850089e-01 -3.174603e-02
   endloop
 endfacet
 facet normal -4.608181e-18  5.855249e-17 -1.000000e+00
   outer loop
     vertex  5.289242e-01 -5.264550e-01 -3.174603e-02
     vertex -6.225746e-02 -2.174603e-01 -3.174603e-02
     vertex -3.797839e-02 -2.155495e-01 -3.174603e-02
   endloop
 endfacet
 facet normal -1.118024e-17  4.656905e-17 -1.000000e+00
   outer loop
     vertex  5.289242e-01 -5.264550e-01 -3.174603e-02
     vertex -3.797839e-02 -2.155495e-01 -3.174603e-02
     vertex -1.429715e-02 -2.098641e-01 -3.174603e-02
   endloop
 endfacet
 facet normal -1.592050e-17  3.843549e-17 -1.000000e+00
   outer loop
     vertex  5.289242e-01 -5.264550e-01 -3.174603e-02
     vertex -1.429715e-02 -2.098641e-01 -3.174603e-02
     vertex  8.203146e-03 -2.005442e-01 -3.174603e-02
   endloop
 endfacet
 facet normal -1.977721e-17  3.227347e-17 -1.000000e+00
   outer loop
     vertex  5.289242e-01 -5.264550e-01 -3.174603e-02
     vertex  8.203146e-03 -2.005442e-01 -3.174603e-02
     vertex  2.896847e-02 -1.878192e-01 -3.174603e-02
   endloop
 endfacet
 facet normal -2.322131e-17  2.718866e-17 -1.000000e+00
   outer loop
     vertex  5.289242e-01 -5.264550e-01 -3.174603e-02
     vertex  2.896847e-02 -1.878192e-01 -3.174603e-02
     vertex  4.748751e-02 -1.720024e-01 -3.174603e-02
   endloop
 endfacet
 facet normal -2.654621e-17  2.267260e-17 -1.000000e+00
   outer loop
     vertex  5.289242e-01 -5.264550e-01 -3.174603e-02
     vertex  4.748751e-02 -1.720024e-01 -3.174603e-02
     vertex  6.330426e-02 -1.534834e-01 -3.174603e-02
   endloop
 endfacet
 facet normal -2.998756e-17  1.837640e-17 -1.000000e+00
   outer loop
     vertex  5.289242e-01 -5.264550e-01 -3.174603e-02
     vertex  6.330426e-02 -1.534834e-01 -3.174603e-02
     vertex  7.602927e-02 -1.327181e-01 -3.174603e-02
   endloop
 endfacet
 facet normal -3.379408e-17  1.399796e-17 -1.000000e+00
   outer loop
     vertex  5.289242e-01 -5.264550e-01 -3.174603e-02
     vertex  7.602927e-02 -1.327181e-01 -3.174603e-02
     vertex  8.534920e-02 -1.102178e-01 -3.174603e-02
   endloop
 endfacet
 facet normal  0.000000e+00  6.736906e-17 -1.000000e+00
   outer loop
     vertex  5.289242e-01 -5.264550e-01 -3.174603e-02
     vertex -6.703703e-01 -5.264550e-01 -3.174603e-02
     vertex -6.225746e-02 -2.174603e-01 -3.174603e-02
   endloop
 endfacet
 facet normal  1.151158e-17 -4.794919e-17 -1.000000e+00
   outer loop
     vertex -8.653653e-02  9.103456e-02 -3.174603e-02
     vertex -1.102178e-01  8.534920e-02 -3.174603e-02
     vertex -6.703703e-01  3.850089e-01 -3.174603e-02
   endloop
 endfacet
 facet normal -3.830083e-17  9.195215e-18 -1.000000e+00
   outer loop
     vertex  9.103456e-02 -8.653653e-02 -3.174603e-02
     vertex  5.289242e-01 -5.264550e-01 -3.174603e-02
     vertex  8.534920e-02 -1.102178e-01 -3.174603e-02
   endloop
 endfacet
 facet normal  4.819645e-18 -6.123940e-17 -1.000000e+00
   outer loop
     vertex -6.225746e-02  9.294536e-02 -3.174603e-02
     vertex -8.653653e-02  9.103456e-02 -3.174603e-02
     vertex -6.703703e-01  3.850089e-01 -3.174603e-02
   endloop
 endfacet
 facet normal -4.405535e-17  3.467231e-18 -1.000000e+00
   outer loop
     vertex  9.294536e-02 -6.225746e-02 -3.174603e-02
     vertex  5.289242e-01 -5.264550e-01 -3.174603e-02
     vertex  9.103456e-02 -8.653653e-02 -3.174603e-02
   endloop
 endfacet
 facet normal -4.417994e-17 -3.477037e-18 -1.000000e+00
   outer loop
     vertex  5.289242e-01  3.850089e-01 -3.174603e-02
     vertex  9.294536e-02 -6.225746e-02 -3.174603e-02
     vertex  9.103456e-02 -3.797839e-02 -3.174603e-02
   endloop
 endfacet
 facet normal -4.774700e-17 -0.000000e+00 -1.000000e+00
   outer loop
     vertex  5.289242e-01  3.850089e-01 -3.174603e-02
     vertex  5.289242e-01 -5.264550e-01 -3.174603e-02
     vertex  9.294536e-02 -6.225746e-02 -3.174603e-02
   endloop
 endfacet
 facet normal -3.858943e-17 -9.264504e-18 -1.000000e+00
   outer loop
     vertex  5.289242e-01  3.850089e-01 -3.174603e-02
     vertex  9.103456e-02 -3.797839e-02 -3.174603e-02
     vertex  8.534920e-02 -1.429715e-02 -3.174603e-02
   endloop
 endfacet
 facet normal -3.418326e-17 -1.415917e-17 -1.000000e+00
   outer loop
     vertex  5.289242e-01  3.850089e-01 -3.174603e-02
     vertex  8.534920e-02 -1.429715e-02 -3.174603e-02
     vertex  7.602927e-02  8.203146e-03 -3.174603e-02
   endloop
 endfacet
 facet normal -3.044257e-17 -1.865523e-17 -1.000000e+00
   outer loop
     vertex  5.289242e-01  3.850089e-01 -3.174603e-02
     vertex  7.602927e-02  8.203146e-03 -3.174603e-02
     vertex  6.330426e-02  2.896847e-02 -3.174603e-02
   endloop
 endfacet
 facet normal -2.704494e-17 -2.309856e-17 -1.000000e+00
   outer loop
     vertex  5.289242e-01  3.850089e-01 -3.174603e-02
     vertex  6.330426e-02  2.896847e-02 -3.174603e-02
     vertex  4.748751e-02  4.748751e-02 -3.174603e-02
   endloop
 endfacet
 facet normal -2.374643e-17 -2.780350e-17 -1.000000e+00
   outer loop
     vertex  5.289242e-01  3.850089e-01 -3.174603e-02
     vertex  4.748751e-02  4.748751e-02 -3.174603e-02
     vertex  2.896847e-02  6.330426e-02 -3.174603e-02
   endloop
 endfacet
 facet normal -2.031035e-17 -3.314347e-17 -1.000000e+00
   outer loop
     vertex  5.289242e-01  3.850089e-01 -3.174603e-02
     vertex  2.896847e-02  6.330426e-02 -3.174603e-02
     vertex  8.203146e-03  7.602927e-02 -3.174603e-02
   endloop
 endfacet
 facet normal -1.643426e-17 -3.967581e-17 -1.000000e+00
   outer loop
     vertex  5.289242e-01  3.850089e-01 -3.174603e-02
     vertex  8.203146e-03  7.602927e-02 -3.174603e-02
     vertex -1.429715e-02  8.534920e-02 -3.174603e-02
   endloop
 endfacet
 facet normal -1.162038e-17 -4.840238e-17 -1.000000e+00
   outer loop
     vertex  5.289242e-01  3.850089e-01 -3.174603e-02
     vertex -1.429715e-02  8.534920e-02 -3.174603e-02
     vertex -3.797839e-02  9.103456e-02 -3.174603e-02
   endloop
 endfacet
 facet normal -4.838613e-18 -6.148040e-17 -1.000000e+00
   outer loop
     vertex  5.289242e-01  3.850089e-01 -3.174603e-02
     vertex -3.797839e-02  9.103456e-02 -3.174603e-02
     vertex -6.225746e-02  9.294536e-02 -3.174603e-02
   endloop
 endfacet
 facet normal -0.000000e+00 -7.127450e-17 -1.000000e+00
   outer loop
     vertex  5.289242e-01  3.850089e-01 -3.174603e-02
     vertex -6.225746e-02  9.294536e-02 -3.174603e-02
     vertex -6.703703e-01  3.850089e-01 -3.174603e-02
   endloop
 endfacet
 facet normal -9.969173e-01 -7.845910e-02  0.000000e+00
   outer loop
     vertex  9.103456e-02 -3.797839e-02  7.301587e-01
     vertex  9.294536e-02 -6.225746e-02 -3.174603e-02
     vertex  9.294536e-02 -6.225746e-02  7.301587e-01
   endloop
 endfacet
 facet normal -9.969173e-01 -7.845910e-02 -0.000000e+00
   outer loop
     vertex  9.103456e-02 -3.797839e-02  7.301587e-01
     vertex  9.103456e-02 -3.797839e-02 -3.174603e-02
     vertex  9.294536e-02 -6.225746e-02 -3.174603e-02
   endloop
 endfacet
 facet normal -9.723699e-01 -2.334454e-01 -0.000000e+00
   outer loop
     vertex  8.534920e-02 -1.429715e-02  7.301587e-01
     vertex  8.534920e-02 -1.429715e-02 -3.174603e-02
     vertex  9.103456e-02 -3.797839e-02 -3.174603e-02
   endloop
 endfacet
 facet normal -9.723699e-01 -2.334454e-01  0.000000e+00
   outer loop
     vertex  8.534920e-02 -1.429715e-02  7.301587e-01
     vertex  9.103456e-02 -3.797839e-02 -3.174603e-02
     vertex  9.103456e-02 -3.797839e-02  7.301587e-01
   endloop
 endfacet
 facet normal -9.238795e-01 -3.826834e-01 -0.000000e+00
   outer loop
     vertex  7.602927e-02  8.203146e-03  7.301587e-01
     vertex  7.602927e-02  8.203146e-03 -3.174603e-02
     vertex  8.534920e-02 -1.429715e-02 -3.174603e-02
   endloop
 endfacet
 facet normal -9.238795e-01 -3.826834e-01  0.000000e+00
   outer loop
     vertex  7.602927e-02  8.203146e-03  7.301587e-01
     vertex  8.534920e-02 -1.429715e-02 -3.174603e-02
     vertex  8.534920e-02 -1.429715e-02  7.301587e-01
   endloop
 endfacet
 facet normal -8.526402e-01 -5.224986e-01  0.000000e+00
   outer loop
     vertex  6.330426e-02  2.896847e-02  7.301587e-01
     vertex  7.602927e-02  8.203146e-03 -3.174603e-02
     vertex  7.602927e-02  8.203146e-03  7.301587e-01
   endloop
 endfacet
 facet normal -8.526402e-01 -5.224986e-01 -0.000000e+00
   outer loop
     vertex  6.330426e-02  2.896847e-02  7.301587e-01
     vertex  6.330426e-02  2.896847e-02 -3.174603e-02
     vertex  7.602927e-02  8.203146e-03 -3.174603e-02
   endloop
 endfacet
 facet normal -7.604060e-01 -6.494480e-01  0.000000e+00
   outer loop
     vertex  4.748751e-02  4.748751e-02  7.301587e-01
     vertex  6.330426e-02  2.896847e-02 -3.174603e-02
     vertex  6.330426e-02  2.896847e-02  7.301587e-01
   endloop
 endfacet
 facet normal -7.604060e-01 -6.494480e-01 -0.000000e+00
   outer loop
     vertex  4.748751e-02  4.748751e-02  7.301587e-01
     vertex  4.748751e-02  4.748751e-02 -3.174603e-02
     vertex  6.330426e-02  2.896847e-02 -3.174603e-02
   endloop
 endfacet
 facet normal -6.494480e-01 -7.604060e-01  0.000000e+00
   outer loop
     vertex  2.896847e-02  6.330426e-02  7.301587e-01
     vertex  4.748751e-02  4.748751e-02 -3.174603e-02
     vertex  4.748751e-02  4.748751e-02  7.301587e-01
   endloop
 endfacet
 facet normal -6.494480e-01 -7.604060e-01 -0.000000e+00
   outer loop
     vertex  2.896847e-02  6.330426e-02  7.301587e-01
     vertex  2.896847e-02  6.330426e-02 -3.174603e-02
     vertex  4.748751e-02  4.748751e-02 -3.174603e-02
   endloop
 endfacet
 facet normal -5.224986e-01 -8.526402e-01  0.000000e+00
   outer loop
     vertex  8.203146e-03  7.602927e-02  7.301587e-01
     vertex  2.896847e-02  6.330426e-02 -3.174603e-02
     vertex  2.896847e-02  6.330426e-02  7.301587e-01
   endloop
 endfacet
 facet normal -5.224986e-01 -8.526402e-01 -0.000000e+00
   outer loop
     vertex  8.203146e-03  7.602927e-02  7.301587e-01
     vertex  8.203146e-03  7.602927e-02 -3.174603e-02
     vertex  2.896847e-02  6.330426e-02 -3.174603e-02
   endloop
 endfacet
 facet normal -3.826834e-01 -9.238795e-01  0.000000e+00
   outer loop
     vertex -1.429715e-02  8.534920e-02  7.301587e-01
     vertex  8.203146e-03  7.602927e-02 -3.174603e-02
     vertex  8.203146e-03  7.602927e-02  7.301587e-01
   endloop
 endfacet
 facet normal -3.826834e-01 -9.238795e-01 -0.000000e+00
   outer loop
     vertex -1.429715e-02  8.534920e-02  7.301587e-01
     vertex -1.429715e-02  8.534920e-02 -3.174603e-02
     vertex  8.203146e-03  7.602927e-02 -3.174603e-02
   endloop
 endfacet
 facet normal -2.334454e-01 -9.723699e-01 -0.000000e+00
   outer loop
     vertex -1.429715e-02  8.534920e-02  7.301587e-01
     vertex -3.797839e-02  9.103456e-02 -3.174603e-02
     vertex -1.429715e-02  8.534920e-02 -3.174603e-02
   endloop
 endfacet
 facet normal -2.334454e-01 -9.723699e-01 -0.000000e+00
   outer loop
     vertex -3.797839e-02  9.103456e-02  7.301587e-01
     vertex -3.797839e-02  9.103456e-02 -3.174603e-02
     vertex -1.429715e-02  8.534920e-02  7.301587e-01
   endloop
 endfacet
 facet normal -7.845910e-02 -9.969173e-01  0.000000e+00
   outer loop
     vertex -6.225746e-02  9.294536e-02  7.301587e-01
     vertex -3.797839e-02  9.103456e-02 -3.174603e-02
     vertex -3.797839e-02  9.103456e-02  7.301587e-01
   endloop
 endfacet
 facet normal -7.845910e-02 -9.969173e-01 -0.000000e+00
   outer loop
     vertex -6.225746e-02  9.294536e-02  7.301587e-01
     vertex -6.225746e-02  9.294536e-02 -3.174603e-02
     vertex -3.797839e-02  9.103456e-02 -3.174603e-02
   endloop
 endfacet
 facet normal  7.845910e-02 -9.969173e-01  0.000000e+00
   outer loop
     vertex -6.225746e-02  9.294536e-02  7.301587e-01
     vertex -8.653653e-02  9.103456e-02 -3.174603e-02
     vertex -6.225746e-02  9.294536e-02 -3.174603e-02
   endloop
 endfacet
 facet normal  7.845910e-02 -9.969173e-01  0.000000e+00
   outer loop
     vertex -8.653653e-02  9.103456e-02  7.301587e-01
     vertex -8.653653e-02  9.103456e-02 -3.174603e-02
     vertex -6.225746e-02  9.294536e-02  7.301587e-01
   endloop
 endfacet
 facet normal  2.334454e-01 -9.723699e-01  0.000000e+00
   outer loop
     vertex -1.102178e-01  8.534920e-02  7.301587e-01
     vertex -8.653653e-02  9.103456e-02 -3.174603e-02
     vertex -8.653653e-02  9.103456e-02  7.301587e-01
   endloop
 endfacet
 facet normal  2.334454e-01 -9.723699e-01  0.000000e+00
   outer loop
     vertex -1.102178e-01  8.534920e-02  7.301587e-01
     vertex -1.102178e-01  8.534920e-02 -3.174603e-02
     vertex -8.653653e-02  9.103456e-02 -3.174603e-02
   endloop
 endfacet
 facet normal  3.826834e-01 -9.238795e-01  0.000000e+00
   outer loop
     vertex -1.327181e-01  7.602927e-02  7.301587e-01
     vertex -1.102178e-01  8.534920e-02 -3.174603e-02
     vertex -1.102178e-01  8.534920e-02  7.301587e-01
   endloop
 endfacet
 facet normal  3.826834e-01 -9.238795e-01  0.000000e+00
   outer loop
     vertex -1.327181e-01  7.602927e-02  7.301587e-01
     vertex -1.327181e-01  7.602927e-02 -3.174603e-02
     vertex -1.102178e-01  8.534920e-02 -3.174603e-02
   endloop
 endfacet
 facet normal  5.224986e-01 -8.526402e-01  0.000000e+00
   outer loop
     vertex -1.534834e-01  6.330426e-02  7.301587e-01
     vertex -1.327181e-01  7.602927e-02 -3.174603e-02
     vertex -1.327181e-01  7.602927e-02  7.301587e-01
   endloop
 endfacet
 facet normal  5.224986e-01 -8.526402e-01  0.000000e+00
   outer loop
     vertex -1.534834e-01  6.330426e-02  7.301587e-01
     vertex -1.534834e-01  6.330426e-02 -3.174603e-02
     vertex -1.327181e-01  7.602927e-02 -3.174603e-02
   endloop
 endfacet
 facet normal  6.494480e-01 -7.604060e-01  0.000000e+00
   outer loop
     vertex -1.720024e-01  4.748751e-02  7.301587e-01
     vertex -1.534834e-01  6.330426e-02 -3.174603e-02
     vertex -1.534834e-01  6.330426e-02  7.301587e-01
   endloop
 endfacet
 facet normal  6.494480e-01 -7.604060e-01  0.000000e+00
   outer loop
     vertex -1.720024e-01  4.748751e-02  7.301587e-01
     vertex -1.720024e-01  4.748751e-02 -3.174603e-02
     vertex -1.534834e-01  6.330426e-02 -3.174603e-02
   endloop
 endfacet
 facet normal  7.604060e-01 -6.494480e-01  0.000000e+00
   outer loop
     vertex -1.878192e-01  2.896847e-02  7.301587e-01
     vertex -1.720024e-01  4.748751e-02 -3.174603e-02
     vertex -1.720024e-01  4.748751e-02  7.301587e-01
   endloop
 endfacet
 facet normal  7.604060e-01 -6.494480e-01  0.000000e+00
   outer loop
     vertex -1.878192e-01  2.896847e-02  7.301587e-01
     vertex -1.878192e-01  2.896847e-02 -3.174603e-02
     vertex -1.720024e-01  4.748751e-02 -3.174603e-02
   endloop
 endfacet
 facet normal  8.526402e-01 -5.224986e-01  0.000000e+00
   outer loop
     vertex -2.005442e-01  8.203146e-03  7.301587e-01
     vertex -1.878192e-01  2.896847e-02 -3.174603e-02
     vertex -1.878192e-01  2.896847e-02  7.301587e-01
   endloop
 endfacet
 facet normal  8.526402e-01 -5.224986e-01  0.000000e+00
   outer loop
     vertex -2.005442e-01  8.203146e-03  7.301587e-01
     vertex -2.005442e-01  8.203146e-03 -3.174603e-02
     vertex -1.878192e-01  2.896847e-02 -3.174603e-02
   endloop
 endfacet
 facet normal  9.238795e-01 -3.826834e-01  0.000000e+00
   outer loop
     vertex -2.098641e-01 -1.429715e-02  7.301587e-01
     vertex -2.005442e-01  8.203146e-03 -3.174603e-02
     vertex -2.005442e-01  8.203146e-03  7.301587e-01
   endloop
 endfacet
 facet normal  9.238795e-01 -3.826834e-01  0.000000e+00
   outer loop
     vertex -2.098641e-01 -1.429715e-02  7.301587e-01
     vertex -2.098641e-01 -1.429715e-02 -3.174603e-02
     vertex -2.005442e-01  8.203146e-03 -3.174603e-02
   endloop
 endfacet
 facet normal  9.723699e-01 -2.334454e-01  0.000000e+00
   outer loop
     vertex -2.155495e-01 -3.797839e-02  7.301587e-01
     vertex -2.155495e-01 -3.797839e-02 -3.174603e-02
     vertex -2.098641e-01 -1.429715e-02 -3.174603e-02
   endloop
 endfacet
 facet normal  9.969173e-01 -7.845910e-02  0.000000e+00
   outer loop
     vertex -2.155495e-01 -3.797839e-02  7.301587e-01
     vertex -2.174603e-01 -6.225746e-02 -3.174603e-02
     vertex -2.155495e-01 -3.797839e-02 -3.174603e-02
   endloop
 endfacet
 facet normal  9.723699e-01 -2.334454e-01  0.000000e+00
   outer loop
     vertex -2.155495e-01 -3.797839e-02  7.301587e-01
     vertex -2.098641e-01 -1.429715e-02 -3.174603e-02
     vertex -2.098641e-01 -1.429715e-02  7.301587e-01
   endloop
 endfacet
 facet normal  9.969173e-01 -7.845910e-02  0.000000e+00
   outer loop
     vertex -2.174603e-01 -6.225746e-02  7.301587e-01
     vertex -2.174603e-01 -6.225746e-02 -3.174603e-02
     vertex -2.155495e-01 -3.797839e-02  7.301587e-01
   endloop
 endfacet
 facet normal  9.969173e-01  7.845910e-02  0.000000e+00
   outer loop
     vertex -2.155495e-01 -8.653653e-02  7.301587e-01
     vertex -2.155495e-01 -8.653653e-02 -3.174603e-02
     vertex -2.174603e-01 -6.225746e-02 -3.174603e-02
   endloop
 endfacet
 facet normal  9.969173e-01  7.845910e-02  0.000000e+00
   outer loop
     vertex -2.155495e-01 -8.653653e-02  7.301587e-01
     vertex -2.174603e-01 -6.225746e-02 -3.174603e-02
     vertex -2.174603e-01 -6.225746e-02  7.301587e-01
   endloop
 endfacet
 facet normal  9.723699e-01  2.334454e-01  0.000000e+00
   outer loop
     vertex -2.098641e-01 -1.102178e-01  7.301587e-01
     vertex -2.098641e-01 -1.102178e-01 -3.174603e-02
     vertex -2.155495e-01 -8.653653e-02 -3.174603e-02
   endloop
 endfacet
 facet normal  9.723699e-01  2.334454e-01  0.000000e+00
   outer loop
     vertex -2.098641e-01 -1.102178e-01  7.301587e-01
     vertex -2.155495e-01 -8.653653e-02 -3.174603e-02
     vertex -2.155495e-01 -8.653653e-02  7.301587e-01
   endloop
 endfacet
 facet normal  9.238795e-01  3.826834e-01  0.000000e+00
   outer loop
     vertex -2.005442e-01 -1.327181e-01  7.301587e-01
     vertex -2.005442e-01 -1.327181e-01 -3.174603e-02
     vertex -2.098641e-01 -1.102178e-01 -3.174603e-02
   endloop
 endfacet
 facet normal  9.238795e-01  3.826834e-01  0.000000e+00
   outer loop
     vertex -2.005442e-01 -1.327181e-01  7.301587e-01
     vertex -2.098641e-01 -1.102178e-01 -3.174603e-02
     vertex -2.098641e-01 -1.102178e-01  7.301587e-01
   endloop
 endfacet
 facet normal  8.526402e-01  5.224986e-01  0.000000e+00
   outer loop
     vertex -1.878192e-01 -1.534834e-01  7.301587e-01
     vertex -1.878192e-01 -1.534834e-01 -3.174603e-02
     vertex -2.005442e-01 -1.327181e-01 -3.174603e-02
   endloop
 endfacet
 facet normal  8.526402e-01  5.224986e-01  0.000000e+00
   outer loop
     vertex -1.878192e-01 -1.534834e-01  7.301587e-01
     vertex -2.005442e-01 -1.327181e-01 -3.174603e-02
     vertex -2.005442e-01 -1.327181e-01  7.301587e-01
   endloop
 endfacet
 facet normal  7.604060e-01  6.494480e-01  0.000000e+00
   outer loop
     vertex -1.720024e-01 -1.720024e-01  7.301587e-01
     vertex -1.720024e-01 -1.720024e-01 -3.174603e-02
     vertex -1.878192e-01 -1.534834e-01 -3.174603e-02
   endloop
 endfacet
 facet normal  7.604060e-01  6.494480e-01  0.000000e+00
   outer loop
     vertex -1.720024e-01 -1.720024e-01  7.301587e-01
     vertex -1.878192e-01 -1.534834e-01 -3.174603e-02
     vertex -1.878192e-01 -1.534834e-01  7.301587e-01
   endloop
 endfacet
 facet normal  6.494480e-01  7.604060e-01  0.000000e+00
   outer loop
     vertex -1.534834e-01 -1.878192e-01  7.301587e-01
     vertex -1.534834e-01 -1.878192e-01 -3.174603e-02
     vertex -1.720024e-01 -1.720024e-01 -3.174603e-02
   endloop
 endfacet
 facet normal  5.224986e-01  8.526402e-01  0.000000e+00
   outer loop
     vertex -1.534834e-01 -1.878192e-01  7.301587e-01
     vertex -1.327181e-01 -2.005442e-01 -3.174603e-02
     vertex -1.534834e-01 -1.878192e-01 -3.174603e-02
   endloop
 endfacet
 facet normal  6.494480e-01  7.604060e-01  0.000000e+00
   outer loop
     vertex -1.534834e-01 -1.878192e-01  7.301587e-01
     vertex -1.720024e-01 -1.720024e-01 -3.174603e-02
     vertex -1.720024e-01 -1.720024e-01  7.301587e-01
   endloop
 endfacet
 facet normal  5.224986e-01  8.526402e-01  0.000000e+00
   outer loop
     vertex -1.327181e-01 -2.005442e-01  7.301587e-01
     vertex -1.327181e-01 -2.005442e-01 -3.174603e-02
     vertex -1.534834e-01 -1.878192e-01  7.301587e-01
   endloop
 endfacet
 facet normal  3.826834e-01  9.238795e-01  0.000000e+00
   outer loop
     vertex -1.102178e-01 -2.098641e-01  7.301587e-01
     vertex -1.102178e-01 -2.098641e-01 -3.174603e-02
     vertex -1.327181e-01 -2.005442e-01 -3.174603e-02
   endloop
 endfacet
 facet normal  2.334454e-01  9.723699e-01  0.000000e+00
   outer loop
     vertex -1.102178e-01 -2.098641e-01  7.301587e-01
     vertex -8.653653e-02 -2.155495e-01 -3.174603e-02
     vertex -1.102178e-01 -2.098641e-01 -3.174603e-02
   endloop
 endfacet
 facet normal  3.826834e-01  9.238795e-01  0.000000e+00
   outer loop
     vertex -1.102178e-01 -2.098641e-01  7.301587e-01
     vertex -1.327181e-01 -2.005442e-01 -3.174603e-02
     vertex -1.327181e-01 -2.005442e-01  7.301587e-01
   endloop
 endfacet
 facet normal  7.845910e-02  9.969173e-01  0.000000e+00
   outer loop
     vertex -8.653653e-02 -2.155495e-01  7.301587e-01
     vertex -6.225746e-02 -2.174603e-01 -3.174603e-02
     vertex -8.653653e-02 -2.155495e-01 -3.174603e-02
   endloop
 endfacet
 facet normal  2.334454e-01  9.723699e-01  0.000000e+00
   outer loop
     vertex -8.653653e-02 -2.155495e-01  7.301587e-01
     vertex -8.653653e-02 -2.155495e-01 -3.174603e-02
     vertex -1.102178e-01 -2.098641e-01  7.301587e-01
   endloop
 endfacet
 facet normal  7.845910e-02  9.969173e-01  0.000000e+00
   outer loop
     vertex -6.225746e-02 -2.174603e-01  7.301587e-01
     vertex -6.225746e-02 -2.174603e-01 -3.174603e-02
     vertex -8.653653e-02 -2.155495e-01  7.301587e-01
   endloop
 endfacet
 facet normal -7.845910e-02  9.969173e-01  0.000000e+00
   outer loop
     vertex -6.225746e-02 -2.174603e-01  7.301587e-01
     vertex -3.797839e-02 -2.155495e-01 -3.174603e-02
     vertex -6.225746e-02 -2.174603e-01 -3.174603e-02
   endloop
 endfacet
 facet normal -7.845910e-02  9.969173e-01  0.000000e+00
   outer loop
     vertex -3.797839e-02 -2.155495e-01  7.301587e-01
     vertex -3.797839e-02 -2.155495e-01 -3.174603e-02
     vertex -6.225746e-02 -2.174603e-01  7.301587e-01
   endloop
 endfacet
 facet normal -2.334454e-01  9.723699e-01  0.000000e+00
   outer loop
     vertex -1.429715e-02 -2.098641e-01  7.301587e-01
     vertex -3.797839e-02 -2.155495e-01 -3.174603e-02
     vertex -3.797839e-02 -2.155495e-01  7.301587e-01
   endloop
 endfacet
 facet normal -2.334454e-01  9.723699e-01  0.000000e+00
   outer loop
     vertex -1.429715e-02 -2.098641e-01  7.301587e-01
     vertex -1.429715e-02 -2.098641e-01 -3.174603e-02
     vertex -3.797839e-02 -2.155495e-01 -3.174603e-02
   endloop
 endfacet
 facet normal -3.826834e-01  9.238795e-01  0.000000e+00
   outer loop
     vertex -1.429715e-02 -2.098641e-01  7.301587e-01
     vertex  8.203146e-03 -2.005442e-01 -3.174603e-02
     vertex -1.429715e-02 -2.098641e-01 -3.174603e-02
   endloop
 endfacet
 facet normal -3.826834e-01  9.238795e-01  0.000000e+00
   outer loop
     vertex  8.203146e-03 -2.005442e-01  7.301587e-01
     vertex  8.203146e-03 -2.005442e-01 -3.174603e-02
     vertex -1.429715e-02 -2.098641e-01  7.301587e-01
   endloop
 endfacet
 facet normal -5.224986e-01  8.526402e-01  0.000000e+00
   outer loop
     vertex  2.896847e-02 -1.878192e-01  7.301587e-01
     vertex  8.203146e-03 -2.005442e-01 -3.174603e-02
     vertex  8.203146e-03 -2.005442e-01  7.301587e-01
   endloop
 endfacet
 facet normal -5.224986e-01  8.526402e-01  0.000000e+00
   outer loop
     vertex  2.896847e-02 -1.878192e-01  7.301587e-01
     vertex  2.896847e-02 -1.878192e-01 -3.174603e-02
     vertex  8.203146e-03 -2.005442e-01 -3.174603e-02
   endloop
 endfacet
 facet normal -6.494480e-01  7.604060e-01  0.000000e+00
   outer loop
     vertex  4.748751e-02 -1.720024e-01  7.301587e-01
     vertex  2.896847e-02 -1.878192e-01 -3.174603e-02
     vertex  2.896847e-02 -1.878192e-01  7.301587e-01
   endloop
 endfacet
 facet normal -6.494480e-01  7.604060e-01  0.000000e+00
   outer loop
     vertex  4.748751e-02 -1.720024e-01  7.301587e-01
     vertex  4.748751e-02 -1.720024e-01 -3.174603e-02
     vertex  2.896847e-02 -1.878192e-01 -3.174603e-02
   endloop
 endfacet
 facet normal -7.604060e-01  6.494480e-01  0.000000e+00
   outer loop
     vertex  6.330426e-02 -1.534834e-01  7.301587e-01
     vertex  4.748751e-02 -1.720024e-01 -3.174603e-02
     vertex  4.748751e-02 -1.720024e-01  7.301587e-01
   endloop
 endfacet
 facet normal -7.604060e-01  6.494480e-01  0.000000e+00
   outer loop
     vertex  6.330426e-02 -1.534834e-01  7.301587e-01
     vertex  6.330426e-02 -1.534834e-01 -3.174603e-02
     vertex  4.748751e-02 -1.720024e-01 -3.174603e-02
   endloop
 endfacet
 facet normal -8.526402e-01  5.224986e-01  0.000000e+00
   outer loop
     vertex  7.602927e-02 -1.327181e-01  7.301587e-01
     vertex  6.330426e-02 -1.534834e-01 -3.174603e-02
     vertex  6.330426e-02 -1.534834e-01  7.301587e-01
   endloop
 endfacet
 facet normal -8.526402e-01  5.224986e-01  0.000000e+00
   outer loop
     vertex  7.602927e-02 -1.327181e-01  7.301587e-01
     vertex  7.602927e-02 -1.327181e-01 -3.174603e-02
     vertex  6.330426e-02 -1.534834e-01 -3.174603e-02
   endloop
 endfacet
 facet normal -9.238795e-01  3.826834e-01  0.000000e+00
   outer loop
     vertex  8.534920e-02 -1.102178e-01  7.301587e-01
     vertex  7.602927e-02 -1.327181e-01 -3.174603e-02
     vertex  7.602927e-02 -1.327181e-01  7.301587e-01
   endloop
 endfacet
 facet normal -9.238795e-01  3.826834e-01  0.000000e+00
   outer loop
     vertex  8.534920e-02 -1.102178e-01  7.301587e-01
     vertex  8.534920e-02 -1.102178e-01 -3.174603e-02
     vertex  7.602927e-02 -1.327181e-01 -3.174603e-02
   endloop
 endfacet
 facet normal -9.723699e-01  2.334454e-01  0.000000e+00
   outer loop
     vertex  9.103456e-02 -8.653653e-02  7.301587e-01
     vertex  8.534920e-02 -1.102178e-01 -3.174603e-02
     vertex  8.534920e-02 -1.102178e-01  7.301587e-01
   endloop
 endfacet
 facet normal -9.723699e-01  2.334454e-01  0.000000e+00
   outer loop
     vertex  9.103456e-02 -8.653653e-02  7.301587e-01
     vertex  9.103456e-02 -8.653653e-02 -3.174603e-02
     vertex  8.534920e-02 -1.102178e-01 -3.174603e-02
   endloop
 endfacet
 facet normal -9.969173e-01  7.845910e-02  0.000000e+00
   outer loop
     vertex  9.103456e-02 -8.653653e-02  7.301587e-01
     vertex  9.294536e-02 -6.225746e-02 -3.174603e-02
     vertex  9.103456e-02 -8.653653e-02 -3.174603e-02
   endloop
 endfacet
 facet normal -9.969173e-01  7.845910e-02  0.000000e+00
   outer loop
     vertex  9.294536e-02 -6.225746e-02  7.301587e-01
     vertex  9.294536e-02 -6.225746e-02 -3.174603e-02
     vertex  9.103456e-02 -8.653653e-02  7.301587e-01
   endloop
 endfacet
 facet normal -0.000000e+00  1.000000e+00  0.000000e+00
   outer loop
     vertex -6.703703e-01  3.850089e-01 -1.587302e-02
     vertex  5.289242e-01  3.850089e-01 -1.587302e-02
     vertex  5.289242e-01  3.850089e-01 -3.174603e-02
   endloop
 endfacet
 facet normal  0.000000e+00  1.000000e+00  0.000000e+00
   outer loop
     vertex -6.703703e-01  3.850089e-01 -1.587302e-02
     vertex  5.289242e-01  3.850089e-01 -3.174603e-02
     vertex -6.703703e-01  3.850089e-01 -3.174603e-02
   endloop
 endfacet
endsolid
