solid 
 facet normal -0.000000e+00  0.000000e+00 -1.000000e+00
   outer loop
     vertex  9.388007e-01 -1.587302e-02 -5.440916e-01
     vertex -9.179894e-01 -1.269842e-01 -5.440916e-01
     vertex -9.179894e-01 -1.587302e-02 -5.440916e-01
   endloop
 endfacet
 facet normal  0.000000e+00 -0.000000e+00 -1.000000e+00
   outer loop
     vertex  9.388007e-01 -1.587302e-02 -5.440916e-01
     vertex  9.388007e-01 -1.269842e-01 -5.440916e-01
     vertex -9.179894e-01 -1.269842e-01 -5.440916e-01
   endloop
 endfacet
 facet normal -1.000000e+00  0.000000e+00  0.000000e+00
   outer loop
     vertex -9.179894e-01 -1.587302e-02 -5.440916e-01
     vertex -9.179894e-01 -1.269842e-01  4.506173e-01
     vertex -9.179894e-01 -1.587302e-02  4.506173e-01
   endloop
 endfacet
 facet normal -1.000000e+00  0.000000e+00  0.000000e+00
   outer loop
     vertex -9.179894e-01 -1.587302e-02 -5.440916e-01
     vertex -9.179894e-01 -1.269842e-01 -5.440916e-01
     vertex -9.179894e-01 -1.269842e-01  4.506173e-01
   endloop
 endfacet
 facet normal  1.000000e+00  0.000000e+00  0.000000e+00
   outer loop
     vertex  9.388007e-01 -1.587302e-02  4.506173e-01
     vertex  9.388007e-01 -1.269842e-01 -5.440916e-01
     vertex  9.388007e-01 -1.587302e-02 -5.440916e-01
   endloop
 endfacet
 facet normal  1.000000e+00  0.000000e+00  0.000000e+00
   outer loop
     vertex  9.388007e-01 -1.587302e-02  4.506173e-01
     vertex  9.388007e-01 -1.269842e-01  4.506173e-01
     vertex  9.388007e-01 -1.269842e-01 -5.440916e-01
   endloop
 endfacet
 facet normal  0.000000e+00  0.000000e+00 -1.000000e+00
   outer loop
     vertex  9.388007e-01 -1.587302e-02 -5.440916e-01
     vertex -9.179894e-01 -1.587302e-02 -5.440916e-01
     vertex -9.179894e-01  0.000000e+00 -5.440916e-01
   endloop
 endfacet
 facet normal  0.000000e+00  0.000000e+00 -1.000000e+00
   outer loop
     vertex  9.388007e-01 -1.587302e-02 -5.440916e-01
     vertex -9.179894e-01  0.000000e+00 -5.440916e-01
     vertex  9.388007e-01  0.000000e+00 -5.440916e-01
   endloop
 endfacet
 facet normal -0.000000e+00 -1.000000e+00  0.000000e+00
   outer loop
     vertex -1.553897e-01 -1.269842e-01 -3.105845e-01
     vertex -1.798116e-01 -1.269842e-01 -2.882429e-01
     vertex -9.179894e-01 -1.269842e-01 -5.440916e-01
   endloop
 endfacet
 facet normal  0.000000e+00 -1.000000e+00 -0.000000e+00
   outer loop
     vertex -2.014197e-01 -1.269842e-01 -2.631696e-01
     vertex -9.179894e-01 -1.269842e-01 -5.440916e-01
     vertex -1.798116e-01 -1.269842e-01 -2.882429e-01
   endloop
 endfacet
 facet normal -0.000000e+00 -1.000000e+00  0.000000e+00
   outer loop
     vertex -1.284967e-01 -1.269842e-01 -3.298808e-01
     vertex -1.553897e-01 -1.269842e-01 -3.105845e-01
     vertex -9.179894e-01 -1.269842e-01 -5.440916e-01
   endloop
 endfacet
 facet normal  0.000000e+00 -1.000000e+00 -0.000000e+00
   outer loop
     vertex -2.199106e-01 -1.269842e-01 -2.357167e-01
     vertex -9.179894e-01 -1.269842e-01 -5.440916e-01
     vertex -2.014197e-01 -1.269842e-01 -2.631696e-01
   endloop
 endfacet
 facet normal -0.000000e+00 -1.000000e+00  0.000000e+00
   outer loop
     vertex -9.951031e-02 -1.269842e-01 -3.458610e-01
     vertex -1.284967e-01 -1.269842e-01 -3.298808e-01
     vertex -9.179894e-01 -1.269842e-01 -5.440916e-01
   endloop
 endfacet
 facet normal  0.000000e+00 -1.000000e+00 -0.000000e+00
   outer loop
     vertex -2.350248e-01 -1.269842e-01 -2.062694e-01
     vertex -9.179894e-01 -1.269842e-01 -5.440916e-01
     vertex -2.199106e-01 -1.269842e-01 -2.357167e-01
   endloop
 endfacet
 facet normal -0.000000e+00 -1.000000e+00  0.000000e+00
   outer loop
     vertex -6.883733e-02 -1.269842e-01 -3.583007e-01
     vertex -9.951031e-02 -1.269842e-01 -3.458610e-01
     vertex -9.179894e-01 -1.269842e-01 -5.440916e-01
   endloop
 endfacet
 facet normal  0.000000e+00 -1.000000e+00 -0.000000e+00
   outer loop
     vertex -2.465502e-01 -1.269842e-01 -1.752413e-01
     vertex -9.179894e-01 -1.269842e-01 -5.440916e-01
     vertex -2.350248e-01 -1.269842e-01 -2.062694e-01
   endloop
 endfacet
 facet normal -0.000000e+00 -1.000000e+00  0.000000e+00
   outer loop
     vertex -3.690835e-02 -1.269842e-01 -3.670253e-01
     vertex -6.883733e-02 -1.269842e-01 -3.583007e-01
     vertex -9.179894e-01 -1.269842e-01 -5.440916e-01
   endloop
 endfacet
 facet normal  0.000000e+00 -1.000000e+00 -0.000000e+00
   outer loop
     vertex -2.543248e-01 -1.269842e-01 -1.430678e-01
     vertex -9.179894e-01 -1.269842e-01 -5.440916e-01
     vertex -2.465502e-01 -1.269842e-01 -1.752413e-01
   endloop
 endfacet
 facet normal -0.000000e+00 -1.000000e+00  0.000000e+00
   outer loop
     vertex -4.171583e-03 -1.269842e-01 -3.719124e-01
     vertex -3.690835e-02 -1.269842e-01 -3.670253e-01
     vertex -9.179894e-01 -1.269842e-01 -5.440916e-01
   endloop
 endfacet
 facet normal  0.000000e+00 -1.000000e+00 -0.000000e+00
   outer loop
     vertex -2.582396e-01 -1.269842e-01 -1.102006e-01
     vertex -9.179894e-01 -1.269842e-01 -5.440916e-01
     vertex -2.543248e-01 -1.269842e-01 -1.430678e-01
   endloop
 endfacet
 facet normal -0.000000e+00 -1.000000e+00  0.000000e+00
   outer loop
     vertex  2.891341e-02 -1.269842e-01 -3.728932e-01
     vertex -4.171583e-03 -1.269842e-01 -3.719124e-01
     vertex -9.179894e-01 -1.269842e-01 -5.440916e-01
   endloop
 endfacet
 facet normal -0.000000e+00 -1.000000e+00  0.000000e+00
   outer loop
     vertex -2.582396e-01 -1.269842e-01 -7.710105e-02
     vertex -9.179894e-01 -1.269842e-01  4.506173e-01
     vertex -9.179894e-01 -1.269842e-01 -5.440916e-01
   endloop
 endfacet
 facet normal  0.000000e+00 -1.000000e+00 -0.000000e+00
   outer loop
     vertex -2.582396e-01 -1.269842e-01 -7.710105e-02
     vertex -9.179894e-01 -1.269842e-01 -5.440916e-01
     vertex -2.582396e-01 -1.269842e-01 -1.102006e-01
   endloop
 endfacet
 facet normal -0.000000e+00 -1.000000e+00  0.000000e+00
   outer loop
     vertex -2.543248e-01 -1.269842e-01 -4.423385e-02
     vertex -9.179894e-01 -1.269842e-01  4.506173e-01
     vertex -2.582396e-01 -1.269842e-01 -7.710105e-02
   endloop
 endfacet
 facet normal -0.000000e+00 -1.000000e+00  0.000000e+00
   outer loop
     vertex -2.465502e-01 -1.269842e-01 -1.206035e-02
     vertex -9.179894e-01 -1.269842e-01  4.506173e-01
     vertex -2.543248e-01 -1.269842e-01 -4.423385e-02
   endloop
 endfacet
 facet normal -0.000000e+00 -1.000000e+00  0.000000e+00
   outer loop
     vertex -2.350248e-01 -1.269842e-01  1.896779e-02
     vertex -9.179894e-01 -1.269842e-01  4.506173e-01
     vertex -2.465502e-01 -1.269842e-01 -1.206035e-02
   endloop
 endfacet
 facet normal -0.000000e+00 -1.000000e+00  0.000000e+00
   outer loop
     vertex -2.199106e-01 -1.269842e-01  4.841502e-02
     vertex -9.179894e-01 -1.269842e-01  4.506173e-01
     vertex -2.350248e-01 -1.269842e-01  1.896779e-02
   endloop
 endfacet
 facet normal -0.000000e+00 -1.000000e+00  0.000000e+00
   outer loop
     vertex -2.014197e-01 -1.269842e-01  7.586796e-02
     vertex -9.179894e-01 -1.269842e-01  4.506173e-01
     vertex -2.199106e-01 -1.269842e-01  4.841502e-02
   endloop
 endfacet
 facet normal -0.000000e+00 -1.000000e+00  0.000000e+00
   outer loop
     vertex -1.798116e-01 -1.269842e-01  1.009412e-01
     vertex -9.179894e-01 -1.269842e-01  4.506173e-01
     vertex -2.014197e-01 -1.269842e-01  7.586796e-02
   endloop
 endfacet
 facet normal -0.000000e+00 -1.000000e+00  0.000000e+00
   outer loop
     vertex -1.553897e-01 -1.269842e-01  1.232828e-01
     vertex -9.179894e-01 -1.269842e-01  4.506173e-01
     vertex -1.798116e-01 -1.269842e-01  1.009412e-01
   endloop
 endfacet
 facet normal -0.000000e+00 -1.000000e+00  0.000000e+00
   outer loop
     vertex -1.284967e-01 -1.269842e-01  1.425792e-01
     vertex -9.179894e-01 -1.269842e-01  4.506173e-01
     vertex -1.553897e-01 -1.269842e-01  1.232828e-01
   endloop
 endfacet
 facet normal -0.000000e+00 -1.000000e+00  0.000000e+00
   outer loop
     vertex -9.951031e-02 -1.269842e-01  1.585594e-01
     vertex -9.179894e-01 -1.269842e-01  4.506173e-01
     vertex -1.284967e-01 -1.269842e-01  1.425792e-01
   endloop
 endfacet
 facet normal -0.000000e+00 -1.000000e+00  0.000000e+00
   outer loop
     vertex -6.883733e-02 -1.269842e-01  1.709991e-01
     vertex -9.179894e-01 -1.269842e-01  4.506173e-01
     vertex -9.951031e-02 -1.269842e-01  1.585594e-01
   endloop
 endfacet
 facet normal -0.000000e+00 -1.000000e+00  0.000000e+00
   outer loop
     vertex -3.690835e-02 -1.269842e-01  1.797237e-01
     vertex -9.179894e-01 -1.269842e-01  4.506173e-01
     vertex -6.883733e-02 -1.269842e-01  1.709991e-01
   endloop
 endfacet
 facet normal  0.000000e+00 -1.000000e+00  0.000000e+00
   outer loop
     vertex  9.388007e-01 -1.269842e-01 -5.440916e-01
     vertex  3.000000e-01 -1.269842e-01 -9.365082e-02
     vertex  2.980391e-01 -1.269842e-01 -1.266922e-01
   endloop
 endfacet
 facet normal  0.000000e+00 -1.000000e+00  0.000000e+00
   outer loop
     vertex  9.388007e-01 -1.269842e-01 -5.440916e-01
     vertex  2.980391e-01 -1.269842e-01 -1.266922e-01
     vertex  2.921842e-01 -1.269842e-01 -1.592698e-01
   endloop
 endfacet
 facet normal  0.000000e+00 -1.000000e+00  0.000000e+00
   outer loop
     vertex  9.388007e-01 -1.269842e-01 -5.440916e-01
     vertex  2.921842e-01 -1.269842e-01 -1.592698e-01
     vertex  2.825172e-01 -1.269842e-01 -1.909262e-01
   endloop
 endfacet
 facet normal  0.000000e+00 -1.000000e+00  0.000000e+00
   outer loop
     vertex  9.388007e-01 -1.269842e-01 -5.440916e-01
     vertex  2.825172e-01 -1.269842e-01 -1.909262e-01
     vertex  2.691740e-01 -1.269842e-01 -2.212171e-01
   endloop
 endfacet
 facet normal  0.000000e+00 -1.000000e+00  0.000000e+00
   outer loop
     vertex  9.388007e-01 -1.269842e-01 -5.440916e-01
     vertex  2.691740e-01 -1.269842e-01 -2.212171e-01
     vertex  2.523419e-01 -1.269842e-01 -2.497172e-01
   endloop
 endfacet
 facet normal  0.000000e+00 -1.000000e+00  0.000000e+00
   outer loop
     vertex  9.388007e-01 -1.269842e-01 -5.440916e-01
     vertex  2.523419e-01 -1.269842e-01 -2.497172e-01
     vertex  2.322571e-01 -1.269842e-01 -2.760265e-01
   endloop
 endfacet
 facet normal  0.000000e+00 -1.000000e+00  0.000000e+00
   outer loop
     vertex  9.388007e-01 -1.269842e-01 -5.440916e-01
     vertex  2.322571e-01 -1.269842e-01 -2.760265e-01
     vertex  2.092016e-01 -1.269842e-01 -2.997757e-01
   endloop
 endfacet
 facet normal  0.000000e+00 -1.000000e+00  0.000000e+00
   outer loop
     vertex  9.388007e-01 -1.269842e-01 -5.440916e-01
     vertex  2.092016e-01 -1.269842e-01 -2.997757e-01
     vertex  1.834990e-01 -1.269842e-01 -3.206313e-01
   endloop
 endfacet
 facet normal  0.000000e+00 -1.000000e+00  0.000000e+00
   outer loop
     vertex  9.388007e-01 -1.269842e-01 -5.440916e-01
     vertex  1.834990e-01 -1.269842e-01 -3.206313e-01
     vertex  1.555102e-01 -1.269842e-01 -3.383006e-01
   endloop
 endfacet
 facet normal  0.000000e+00 -1.000000e+00  0.000000e+00
   outer loop
     vertex  9.388007e-01 -1.269842e-01 -5.440916e-01
     vertex  1.555102e-01 -1.269842e-01 -3.383006e-01
     vertex  1.256280e-01 -1.269842e-01 -3.525355e-01
   endloop
 endfacet
 facet normal  0.000000e+00 -1.000000e+00  0.000000e+00
   outer loop
     vertex  9.388007e-01 -1.269842e-01 -5.440916e-01
     vertex  1.256280e-01 -1.269842e-01 -3.525355e-01
     vertex  9.427194e-02 -1.269842e-01 -3.631363e-01
   endloop
 endfacet
 facet normal  0.000000e+00 -1.000000e+00  0.000000e+00
   outer loop
     vertex  9.388007e-01 -1.269842e-01 -5.440916e-01
     vertex  9.427194e-02 -1.269842e-01 -3.631363e-01
     vertex  6.188218e-02 -1.269842e-01 -3.699541e-01
   endloop
 endfacet
 facet normal  0.000000e+00 -1.000000e+00  0.000000e+00
   outer loop
     vertex  9.388007e-01 -1.269842e-01 -5.440916e-01
     vertex  6.188218e-02 -1.269842e-01 -3.699541e-01
     vertex  2.891341e-02 -1.269842e-01 -3.728932e-01
   endloop
 endfacet
 facet normal  0.000000e+00 -1.000000e+00  0.000000e+00
   outer loop
     vertex  9.388007e-01 -1.269842e-01 -5.440916e-01
     vertex  2.891341e-02 -1.269842e-01 -3.728932e-01
     vertex -9.179894e-01 -1.269842e-01 -5.440916e-01
   endloop
 endfacet
 facet normal  0.000000e+00 -1.000000e+00 -0.000000e+00
   outer loop
     vertex  9.388007e-01 -1.269842e-01  4.506173e-01
     vertex  3.000000e-01 -1.269842e-01 -9.365082e-02
     vertex  9.388007e-01 -1.269842e-01 -5.440916e-01
   endloop
 endfacet
 facet normal  0.000000e+00 -1.000000e+00  0.000000e+00
   outer loop
     vertex  9.388007e-01 -1.269842e-01  4.506173e-01
     vertex  6.188218e-02 -1.269842e-01  1.826525e-01
     vertex  9.427194e-02 -1.269842e-01  1.758347e-01
   endloop
 endfacet
 facet normal  0.000000e+00 -1.000000e+00  0.000000e+00
   outer loop
     vertex  9.388007e-01 -1.269842e-01  4.506173e-01
     vertex  9.427194e-02 -1.269842e-01  1.758347e-01
     vertex  1.256280e-01 -1.269842e-01  1.652339e-01
   endloop
 endfacet
 facet normal  0.000000e+00 -1.000000e+00  0.000000e+00
   outer loop
     vertex  9.388007e-01 -1.269842e-01  4.506173e-01
     vertex  1.256280e-01 -1.269842e-01  1.652339e-01
     vertex  1.555102e-01 -1.269842e-01  1.509989e-01
   endloop
 endfacet
 facet normal  0.000000e+00 -1.000000e+00  0.000000e+00
   outer loop
     vertex  9.388007e-01 -1.269842e-01  4.506173e-01
     vertex  1.555102e-01 -1.269842e-01  1.509989e-01
     vertex  1.834990e-01 -1.269842e-01  1.333296e-01
   endloop
 endfacet
 facet normal  0.000000e+00 -1.000000e+00  0.000000e+00
   outer loop
     vertex  9.388007e-01 -1.269842e-01  4.506173e-01
     vertex  1.834990e-01 -1.269842e-01  1.333296e-01
     vertex  2.092016e-01 -1.269842e-01  1.124740e-01
   endloop
 endfacet
 facet normal  0.000000e+00 -1.000000e+00  0.000000e+00
   outer loop
     vertex  9.388007e-01 -1.269842e-01  4.506173e-01
     vertex  2.092016e-01 -1.269842e-01  1.124740e-01
     vertex  2.322571e-01 -1.269842e-01  8.872489e-02
   endloop
 endfacet
 facet normal  0.000000e+00 -1.000000e+00  0.000000e+00
   outer loop
     vertex  9.388007e-01 -1.269842e-01  4.506173e-01
     vertex  2.322571e-01 -1.269842e-01  8.872489e-02
     vertex  2.523419e-01 -1.269842e-01  6.241558e-02
   endloop
 endfacet
 facet normal  0.000000e+00 -1.000000e+00  0.000000e+00
   outer loop
     vertex  9.388007e-01 -1.269842e-01  4.506173e-01
     vertex  2.523419e-01 -1.269842e-01  6.241558e-02
     vertex  2.691740e-01 -1.269842e-01  3.391545e-02
   endloop
 endfacet
 facet normal  0.000000e+00 -1.000000e+00  0.000000e+00
   outer loop
     vertex  9.388007e-01 -1.269842e-01  4.506173e-01
     vertex  2.691740e-01 -1.269842e-01  3.391545e-02
     vertex  2.825172e-01 -1.269842e-01  3.624562e-03
   endloop
 endfacet
 facet normal  0.000000e+00 -1.000000e+00  0.000000e+00
   outer loop
     vertex  9.388007e-01 -1.269842e-01  4.506173e-01
     vertex  2.825172e-01 -1.269842e-01  3.624562e-03
     vertex  2.921842e-01 -1.269842e-01 -2.803186e-02
   endloop
 endfacet
 facet normal  0.000000e+00 -1.000000e+00  0.000000e+00
   outer loop
     vertex  9.388007e-01 -1.269842e-01  4.506173e-01
     vertex  2.921842e-01 -1.269842e-01 -2.803186e-02
     vertex  2.980391e-01 -1.269842e-01 -6.060942e-02
   endloop
 endfacet
 facet normal  0.000000e+00 -1.000000e+00  0.000000e+00
   outer loop
     vertex  9.388007e-01 -1.269842e-01  4.506173e-01
     vertex  2.980391e-01 -1.269842e-01 -6.060942e-02
     vertex  3.000000e-01 -1.269842e-01 -9.365082e-02
   endloop
 endfacet
 facet normal -0.000000e+00 -1.000000e+00  0.000000e+00
   outer loop
     vertex  9.388007e-01 -1.269842e-01  4.506173e-01
     vertex -9.179894e-01 -1.269842e-01  4.506173e-01
     vertex  2.891341e-02 -1.269842e-01  1.855916e-01
   endloop
 endfacet
 facet normal -0.000000e+00 -1.000000e+00  0.000000e+00
   outer loop
     vertex  2.891341e-02 -1.269842e-01  1.855916e-01
     vertex -9.179894e-01 -1.269842e-01  4.506173e-01
     vertex -4.171583e-03 -1.269842e-01  1.846107e-01
   endloop
 endfacet
 facet normal -0.000000e+00 -1.000000e+00  0.000000e+00
   outer loop
     vertex -4.171583e-03 -1.269842e-01  1.846107e-01
     vertex -9.179894e-01 -1.269842e-01  4.506173e-01
     vertex -3.690835e-02 -1.269842e-01  1.797237e-01
   endloop
 endfacet
 facet normal  0.000000e+00 -1.000000e+00  0.000000e+00
   outer loop
     vertex  9.388007e-01 -1.269842e-01  4.506173e-01
     vertex  2.891341e-02 -1.269842e-01  1.855916e-01
     vertex  6.188218e-02 -1.269842e-01  1.826525e-01
   endloop
 endfacet
 facet normal -0.000000e+00  0.000000e+00  1.000000e+00
   outer loop
     vertex -9.179894e-01 -1.587302e-02  4.506173e-01
     vertex  9.388007e-01 -1.269842e-01  4.506173e-01
     vertex  9.388007e-01 -1.587302e-02  4.506173e-01
   endloop
 endfacet
 facet normal  0.000000e+00  0.000000e+00  1.000000e+00
   outer loop
     vertex -9.179894e-01 -1.587302e-02  4.506173e-01
     vertex -9.179894e-01 -1.269842e-01  4.506173e-01
     vertex  9.388007e-01 -1.269842e-01  4.506173e-01
   endloop
 endfacet
 facet normal -1.000000e+00  0.000000e+00  0.000000e+00
   outer loop
     vertex -9.179894e-01 -1.587302e-02 -5.440916e-01
     vertex -9.179894e-01 -1.587302e-02  4.506173e-01
     vertex -9.179894e-01  0.000000e+00  4.506173e-01
   endloop
 endfacet
 facet normal -1.000000e+00  0.000000e+00  0.000000e+00
   outer loop
     vertex -9.179894e-01 -1.587302e-02 -5.440916e-01
     vertex -9.179894e-01  0.000000e+00  4.506173e-01
     vertex -9.179894e-01  0.000000e+00 -5.440916e-01
   endloop
 endfacet
 facet normal  1.000000e+00  0.000000e+00  0.000000e+00
   outer loop
     vertex  9.388007e-01 -1.587302e-02  4.506173e-01
     vertex  9.388007e-01 -1.587302e-02 -5.440916e-01
     vertex  9.388007e-01  0.000000e+00 -5.440916e-01
   endloop
 endfacet
 facet normal  1.000000e+00 -0.000000e+00  0.000000e+00
   outer loop
     vertex  9.388007e-01 -1.587302e-02  4.506173e-01
     vertex  9.388007e-01  0.000000e+00 -5.440916e-01
     vertex  9.388007e-01  0.000000e+00  4.506173e-01
   endloop
 endfacet
 facet normal  0.000000e+00  1.000000e+00  0.000000e+00
   outer loop
     vertex -1.553897e-01  0.000000e+00 -3.105845e-01
     vertex -9.179894e-01  0.000000e+00 -5.440916e-01
     vertex -1.798116e-01  0.000000e+00 -2.882429e-01
   endloop
 endfacet
 facet normal  0.000000e+00  1.000000e+00  0.000000e+00
   outer loop
     vertex -2.014197e-01  0.000000e+00 -2.631696e-01
     vertex -1.798116e-01  0.000000e+00 -2.882429e-01
     vertex -9.179894e-01  0.000000e+00 -5.440916e-01
   endloop
 endfacet
 facet normal  0.000000e+00  1.000000e+00  0.000000e+00
   outer loop
     vertex -1.284967e-01  0.000000e+00 -3.298808e-01
     vertex -9.179894e-01  0.000000e+00 -5.440916e-01
     vertex -1.553897e-01  0.000000e+00 -3.105845e-01
   endloop
 endfacet
 facet normal  0.000000e+00  1.000000e+00  0.000000e+00
   outer loop
     vertex -2.199106e-01  0.000000e+00 -2.357167e-01
     vertex -2.014197e-01  0.000000e+00 -2.631696e-01
     vertex -9.179894e-01  0.000000e+00 -5.440916e-01
   endloop
 endfacet
 facet normal  0.000000e+00  1.000000e+00  0.000000e+00
   outer loop
     vertex -9.951031e-02  0.000000e+00 -3.458610e-01
     vertex -9.179894e-01  0.000000e+00 -5.440916e-01
     vertex -1.284967e-01  0.000000e+00 -3.298808e-01
   endloop
 endfacet
 facet normal  0.000000e+00  1.000000e+00  0.000000e+00
   outer loop
     vertex -2.350248e-01  0.000000e+00 -2.062694e-01
     vertex -2.199106e-01  0.000000e+00 -2.357167e-01
     vertex -9.179894e-01  0.000000e+00 -5.440916e-01
   endloop
 endfacet
 facet normal  0.000000e+00  1.000000e+00  0.000000e+00
   outer loop
     vertex -6.883733e-02  0.000000e+00 -3.583007e-01
     vertex -9.179894e-01  0.000000e+00 -5.440916e-01
     vertex -9.951031e-02  0.000000e+00 -3.458610e-01
   endloop
 endfacet
 facet normal  0.000000e+00  1.000000e+00  0.000000e+00
   outer loop
     vertex -2.465502e-01  0.000000e+00 -1.752413e-01
     vertex -2.350248e-01  0.000000e+00 -2.062694e-01
     vertex -9.179894e-01  0.000000e+00 -5.440916e-01
   endloop
 endfacet
 facet normal  0.000000e+00  1.000000e+00  0.000000e+00
   outer loop
     vertex -3.690835e-02  0.000000e+00 -3.670253e-01
     vertex -9.179894e-01  0.000000e+00 -5.440916e-01
     vertex -6.883733e-02  0.000000e+00 -3.583007e-01
   endloop
 endfacet
 facet normal  0.000000e+00  1.000000e+00  0.000000e+00
   outer loop
     vertex -2.543248e-01  0.000000e+00 -1.430678e-01
     vertex -2.465502e-01  0.000000e+00 -1.752413e-01
     vertex -9.179894e-01  0.000000e+00 -5.440916e-01
   endloop
 endfacet
 facet normal  0.000000e+00  1.000000e+00  0.000000e+00
   outer loop
     vertex -4.171583e-03  0.000000e+00 -3.719124e-01
     vertex -9.179894e-01  0.000000e+00 -5.440916e-01
     vertex -3.690835e-02  0.000000e+00 -3.670253e-01
   endloop
 endfacet
 facet normal  0.000000e+00  1.000000e+00  0.000000e+00
   outer loop
     vertex -2.582396e-01  0.000000e+00 -1.102006e-01
     vertex -2.543248e-01  0.000000e+00 -1.430678e-01
     vertex -9.179894e-01  0.000000e+00 -5.440916e-01
   endloop
 endfacet
 facet normal  0.000000e+00  1.000000e+00  0.000000e+00
   outer loop
     vertex  2.891341e-02  0.000000e+00 -3.728932e-01
     vertex -9.179894e-01  0.000000e+00 -5.440916e-01
     vertex -4.171583e-03  0.000000e+00 -3.719124e-01
   endloop
 endfacet
 facet normal  0.000000e+00  1.000000e+00  0.000000e+00
   outer loop
     vertex -2.582396e-01  0.000000e+00 -7.710105e-02
     vertex -9.179894e-01  0.000000e+00 -5.440916e-01
     vertex -9.179894e-01  0.000000e+00  4.506173e-01
   endloop
 endfacet
 facet normal  0.000000e+00  1.000000e+00  0.000000e+00
   outer loop
     vertex -2.582396e-01  0.000000e+00 -7.710105e-02
     vertex -2.582396e-01  0.000000e+00 -1.102006e-01
     vertex -9.179894e-01  0.000000e+00 -5.440916e-01
   endloop
 endfacet
 facet normal  0.000000e+00  1.000000e+00  0.000000e+00
   outer loop
     vertex -2.543248e-01  0.000000e+00 -4.423385e-02
     vertex -2.582396e-01  0.000000e+00 -7.710105e-02
     vertex -9.179894e-01  0.000000e+00  4.506173e-01
   endloop
 endfacet
 facet normal  0.000000e+00  1.000000e+00  0.000000e+00
   outer loop
     vertex -2.465502e-01  0.000000e+00 -1.206035e-02
     vertex -2.543248e-01  0.000000e+00 -4.423385e-02
     vertex -9.179894e-01  0.000000e+00  4.506173e-01
   endloop
 endfacet
 facet normal  0.000000e+00  1.000000e+00  0.000000e+00
   outer loop
     vertex -2.350248e-01  0.000000e+00  1.896779e-02
     vertex -2.465502e-01  0.000000e+00 -1.206035e-02
     vertex -9.179894e-01  0.000000e+00  4.506173e-01
   endloop
 endfacet
 facet normal  0.000000e+00  1.000000e+00  0.000000e+00
   outer loop
     vertex -2.199106e-01  0.000000e+00  4.841502e-02
     vertex -2.350248e-01  0.000000e+00  1.896779e-02
     vertex -9.179894e-01  0.000000e+00  4.506173e-01
   endloop
 endfacet
 facet normal  0.000000e+00  1.000000e+00  0.000000e+00
   outer loop
     vertex -2.014197e-01  0.000000e+00  7.586796e-02
     vertex -2.199106e-01  0.000000e+00  4.841502e-02
     vertex -9.179894e-01  0.000000e+00  4.506173e-01
   endloop
 endfacet
 facet normal  0.000000e+00  1.000000e+00  0.000000e+00
   outer loop
     vertex -1.798116e-01  0.000000e+00  1.009412e-01
     vertex -2.014197e-01  0.000000e+00  7.586796e-02
     vertex -9.179894e-01  0.000000e+00  4.506173e-01
   endloop
 endfacet
 facet normal  0.000000e+00  1.000000e+00  0.000000e+00
   outer loop
     vertex -1.553897e-01  0.000000e+00  1.232828e-01
     vertex -1.798116e-01  0.000000e+00  1.009412e-01
     vertex -9.179894e-01  0.000000e+00  4.506173e-01
   endloop
 endfacet
 facet normal  0.000000e+00  1.000000e+00  0.000000e+00
   outer loop
     vertex -1.284967e-01  0.000000e+00  1.425792e-01
     vertex -1.553897e-01  0.000000e+00  1.232828e-01
     vertex -9.179894e-01  0.000000e+00  4.506173e-01
   endloop
 endfacet
 facet normal  0.000000e+00  1.000000e+00  0.000000e+00
   outer loop
     vertex -9.951031e-02  0.000000e+00  1.585594e-01
     vertex -1.284967e-01  0.000000e+00  1.425792e-01
     vertex -9.179894e-01  0.000000e+00  4.506173e-01
   endloop
 endfacet
 facet normal  0.000000e+00  1.000000e+00  0.000000e+00
   outer loop
     vertex -6.883733e-02  0.000000e+00  1.709991e-01
     vertex -9.951031e-02  0.000000e+00  1.585594e-01
     vertex -9.179894e-01  0.000000e+00  4.506173e-01
   endloop
 endfacet
 facet normal  0.000000e+00  1.000000e+00  0.000000e+00
   outer loop
     vertex -3.690835e-02  0.000000e+00  1.797237e-01
     vertex -6.883733e-02  0.000000e+00  1.709991e-01
     vertex -9.179894e-01  0.000000e+00  4.506173e-01
   endloop
 endfacet
 facet normal  0.000000e+00  1.000000e+00  0.000000e+00
   outer loop
     vertex  9.388007e-01  0.000000e+00 -5.440916e-01
     vertex  2.891341e-02  0.000000e+00 -3.728932e-01
     vertex  6.188218e-02  0.000000e+00 -3.699541e-01
   endloop
 endfacet
 facet normal  0.000000e+00  1.000000e+00  0.000000e+00
   outer loop
     vertex  9.388007e-01  0.000000e+00 -5.440916e-01
     vertex  6.188218e-02  0.000000e+00 -3.699541e-01
     vertex  9.427194e-02  0.000000e+00 -3.631363e-01
   endloop
 endfacet
 facet normal  0.000000e+00  1.000000e+00  0.000000e+00
   outer loop
     vertex  9.388007e-01  0.000000e+00 -5.440916e-01
     vertex  9.427194e-02  0.000000e+00 -3.631363e-01
     vertex  1.256280e-01  0.000000e+00 -3.525355e-01
   endloop
 endfacet
 facet normal  0.000000e+00  1.000000e+00  0.000000e+00
   outer loop
     vertex  9.388007e-01  0.000000e+00 -5.440916e-01
     vertex  1.256280e-01  0.000000e+00 -3.525355e-01
     vertex  1.555102e-01  0.000000e+00 -3.383006e-01
   endloop
 endfacet
 facet normal  0.000000e+00  1.000000e+00  0.000000e+00
   outer loop
     vertex  9.388007e-01  0.000000e+00 -5.440916e-01
     vertex  1.555102e-01  0.000000e+00 -3.383006e-01
     vertex  1.834990e-01  0.000000e+00 -3.206313e-01
   endloop
 endfacet
 facet normal  0.000000e+00  1.000000e+00  0.000000e+00
   outer loop
     vertex  9.388007e-01  0.000000e+00 -5.440916e-01
     vertex  1.834990e-01  0.000000e+00 -3.206313e-01
     vertex  2.092016e-01  0.000000e+00 -2.997757e-01
   endloop
 endfacet
 facet normal  0.000000e+00  1.000000e+00  0.000000e+00
   outer loop
     vertex  9.388007e-01  0.000000e+00 -5.440916e-01
     vertex  2.092016e-01  0.000000e+00 -2.997757e-01
     vertex  2.322571e-01  0.000000e+00 -2.760265e-01
   endloop
 endfacet
 facet normal  0.000000e+00  1.000000e+00  0.000000e+00
   outer loop
     vertex  9.388007e-01  0.000000e+00 -5.440916e-01
     vertex  2.322571e-01  0.000000e+00 -2.760265e-01
     vertex  2.523419e-01  0.000000e+00 -2.497172e-01
   endloop
 endfacet
 facet normal  0.000000e+00  1.000000e+00  0.000000e+00
   outer loop
     vertex  9.388007e-01  0.000000e+00 -5.440916e-01
     vertex  2.523419e-01  0.000000e+00 -2.497172e-01
     vertex  2.691740e-01  0.000000e+00 -2.212171e-01
   endloop
 endfacet
 facet normal  0.000000e+00  1.000000e+00  0.000000e+00
   outer loop
     vertex  9.388007e-01  0.000000e+00 -5.440916e-01
     vertex  2.691740e-01  0.000000e+00 -2.212171e-01
     vertex  2.825172e-01  0.000000e+00 -1.909262e-01
   endloop
 endfacet
 facet normal  0.000000e+00  1.000000e+00  0.000000e+00
   outer loop
     vertex  9.388007e-01  0.000000e+00 -5.440916e-01
     vertex  2.825172e-01  0.000000e+00 -1.909262e-01
     vertex  2.921842e-01  0.000000e+00 -1.592698e-01
   endloop
 endfacet
 facet normal  0.000000e+00  1.000000e+00  0.000000e+00
   outer loop
     vertex  9.388007e-01  0.000000e+00 -5.440916e-01
     vertex  2.921842e-01  0.000000e+00 -1.592698e-01
     vertex  2.980391e-01  0.000000e+00 -1.266922e-01
   endloop
 endfacet
 facet normal  0.000000e+00  1.000000e+00  0.000000e+00
   outer loop
     vertex  9.388007e-01  0.000000e+00 -5.440916e-01
     vertex  2.980391e-01  0.000000e+00 -1.266922e-01
     vertex  3.000000e-01  0.000000e+00 -9.365082e-02
   endloop
 endfacet
 facet normal  0.000000e+00  1.000000e+00  0.000000e+00
   outer loop
     vertex  9.388007e-01  0.000000e+00 -5.440916e-01
     vertex -9.179894e-01  0.000000e+00 -5.440916e-01
     vertex  2.891341e-02  0.000000e+00 -3.728932e-01
   endloop
 endfacet
 facet normal  0.000000e+00  1.000000e+00  0.000000e+00
   outer loop
     vertex  9.388007e-01  0.000000e+00  4.506173e-01
     vertex  3.000000e-01  0.000000e+00 -9.365082e-02
     vertex  2.980391e-01  0.000000e+00 -6.060942e-02
   endloop
 endfacet
 facet normal  0.000000e+00  1.000000e+00  0.000000e+00
   outer loop
     vertex  9.388007e-01  0.000000e+00  4.506173e-01
     vertex  2.980391e-01  0.000000e+00 -6.060942e-02
     vertex  2.921842e-01  0.000000e+00 -2.803186e-02
   endloop
 endfacet
 facet normal  0.000000e+00  1.000000e+00  0.000000e+00
   outer loop
     vertex  9.388007e-01  0.000000e+00  4.506173e-01
     vertex  9.388007e-01  0.000000e+00 -5.440916e-01
     vertex  3.000000e-01  0.000000e+00 -9.365082e-02
   endloop
 endfacet
 facet normal  0.000000e+00  1.000000e+00  0.000000e+00
   outer loop
     vertex  9.388007e-01  0.000000e+00  4.506173e-01
     vertex  2.921842e-01  0.000000e+00 -2.803186e-02
     vertex  2.825172e-01  0.000000e+00  3.624562e-03
   endloop
 endfacet
 facet normal  0.000000e+00  1.000000e+00  0.000000e+00
   outer loop
     vertex  9.388007e-01  0.000000e+00  4.506173e-01
     vertex  2.825172e-01  0.000000e+00  3.624562e-03
     vertex  2.691740e-01  0.000000e+00  3.391545e-02
   endloop
 endfacet
 facet normal  0.000000e+00  1.000000e+00  0.000000e+00
   outer loop
     vertex  9.388007e-01  0.000000e+00  4.506173e-01
     vertex  2.691740e-01  0.000000e+00  3.391545e-02
     vertex  2.523419e-01  0.000000e+00  6.241558e-02
   endloop
 endfacet
 facet normal  0.000000e+00  1.000000e+00  0.000000e+00
   outer loop
     vertex  9.388007e-01  0.000000e+00  4.506173e-01
     vertex  2.523419e-01  0.000000e+00  6.241558e-02
     vertex  2.322571e-01  0.000000e+00  8.872489e-02
   endloop
 endfacet
 facet normal  0.000000e+00  1.000000e+00  0.000000e+00
   outer loop
     vertex  9.388007e-01  0.000000e+00  4.506173e-01
     vertex  2.322571e-01  0.000000e+00  8.872489e-02
     vertex  2.092016e-01  0.000000e+00  1.124740e-01
   endloop
 endfacet
 facet normal  0.000000e+00  1.000000e+00  0.000000e+00
   outer loop
     vertex  9.388007e-01  0.000000e+00  4.506173e-01
     vertex  2.092016e-01  0.000000e+00  1.124740e-01
     vertex  1.834990e-01  0.000000e+00  1.333296e-01
   endloop
 endfacet
 facet normal  0.000000e+00  1.000000e+00  0.000000e+00
   outer loop
     vertex  9.388007e-01  0.000000e+00  4.506173e-01
     vertex  1.834990e-01  0.000000e+00  1.333296e-01
     vertex  1.555102e-01  0.000000e+00  1.509989e-01
   endloop
 endfacet
 facet normal  0.000000e+00  1.000000e+00  0.000000e+00
   outer loop
     vertex  9.388007e-01  0.000000e+00  4.506173e-01
     vertex  1.555102e-01  0.000000e+00  1.509989e-01
     vertex  1.256280e-01  0.000000e+00  1.652339e-01
   endloop
 endfacet
 facet normal  0.000000e+00  1.000000e+00  0.000000e+00
   outer loop
     vertex  9.388007e-01  0.000000e+00  4.506173e-01
     vertex  1.256280e-01  0.000000e+00  1.652339e-01
     vertex  9.427194e-02  0.000000e+00  1.758347e-01
   endloop
 endfacet
 facet normal  0.000000e+00  1.000000e+00  0.000000e+00
   outer loop
     vertex  9.388007e-01  0.000000e+00  4.506173e-01
     vertex  9.427194e-02  0.000000e+00  1.758347e-01
     vertex  6.188218e-02  0.000000e+00  1.826525e-01
   endloop
 endfacet
 facet normal  0.000000e+00  1.000000e+00  0.000000e+00
   outer loop
     vertex  9.388007e-01  0.000000e+00  4.506173e-01
     vertex  2.891341e-02  0.000000e+00  1.855916e-01
     vertex -9.179894e-01  0.000000e+00  4.506173e-01
   endloop
 endfacet
 facet normal  0.000000e+00  1.000000e+00  0.000000e+00
   outer loop
     vertex  2.891341e-02  0.000000e+00  1.855916e-01
     vertex -4.171583e-03  0.000000e+00  1.846107e-01
     vertex -9.179894e-01  0.000000e+00  4.506173e-01
   endloop
 endfacet
 facet normal  0.000000e+00  1.000000e+00  0.000000e+00
   outer loop
     vertex -4.171583e-03  0.000000e+00  1.846107e-01
     vertex -3.690835e-02  0.000000e+00  1.797237e-01
     vertex -9.179894e-01  0.000000e+00  4.506173e-01
   endloop
 endfacet
 facet normal  0.000000e+00  1.000000e+00  0.000000e+00
   outer loop
     vertex  9.388007e-01  0.000000e+00  4.506173e-01
     vertex  6.188218e-02  0.000000e+00  1.826525e-01
     vertex  2.891341e-02  0.000000e+00  1.855916e-01
   endloop
 endfacet
 facet normal  9.982437e-01  0.000000e+00  5.924063e-02
   outer loop
     vertex  2.980391e-01 -1.269842e-01 -6.060942e-02
     vertex  3.000000e-01 -1.904762e-01 -9.365082e-02
     vertex  3.000000e-01 -1.269842e-01 -9.365082e-02
   endloop
 endfacet
 facet normal  9.982437e-01 -1.621259e-15  5.924063e-02
   outer loop
     vertex  2.980391e-01 -1.269842e-01 -6.060942e-02
     vertex  2.980391e-01 -1.904762e-01 -6.060942e-02
     vertex  3.000000e-01 -1.904762e-01 -9.365082e-02
   endloop
 endfacet
 facet normal  9.842306e-01  3.998258e-16  1.768903e-01
   outer loop
     vertex  2.921842e-01 -1.269842e-01 -2.803186e-02
     vertex  2.980391e-01 -1.904762e-01 -6.060942e-02
     vertex  2.980391e-01 -1.269842e-01 -6.060942e-02
   endloop
 endfacet
 facet normal  9.842306e-01 -1.673428e-15  1.768903e-01
   outer loop
     vertex  2.921842e-01 -1.269842e-01 -2.803186e-02
     vertex  2.921842e-01 -1.904762e-01 -2.803186e-02
     vertex  2.980391e-01 -1.904762e-01 -6.060942e-02
   endloop
 endfacet
 facet normal  9.564010e-01  1.547713e-16  2.920568e-01
   outer loop
     vertex  2.825172e-01 -1.269842e-01  3.624562e-03
     vertex  2.921842e-01 -1.904762e-01 -2.803186e-02
     vertex  2.921842e-01 -1.269842e-01 -2.803186e-02
   endloop
 endfacet
 facet normal  9.564010e-01 -1.250747e-15  2.920568e-01
   outer loop
     vertex  2.825172e-01 -1.269842e-01  3.624562e-03
     vertex  2.825172e-01 -1.904762e-01  3.624562e-03
     vertex  2.921842e-01 -1.904762e-01 -2.803186e-02
   endloop
 endfacet
 facet normal  9.151456e-01  3.869282e-16  4.031234e-01
   outer loop
     vertex  2.691740e-01 -1.269842e-01  3.391545e-02
     vertex  2.825172e-01 -1.904762e-01  3.624562e-03
     vertex  2.825172e-01 -1.269842e-01  3.624562e-03
   endloop
 endfacet
 facet normal  9.151456e-01 -2.188105e-16  4.031234e-01
   outer loop
     vertex  2.691740e-01 -1.269842e-01  3.391545e-02
     vertex  2.691740e-01 -1.904762e-01  3.391545e-02
     vertex  2.825172e-01 -1.904762e-01  3.624562e-03
   endloop
 endfacet
 facet normal  8.610436e-01  1.263965e-15  5.085311e-01
   outer loop
     vertex  2.523419e-01 -1.269842e-01  6.241558e-02
     vertex  2.691740e-01 -1.904762e-01  3.391545e-02
     vertex  2.691740e-01 -1.269842e-01  3.391545e-02
   endloop
 endfacet
 facet normal  8.610436e-01 -8.235861e-16  5.085311e-01
   outer loop
     vertex  2.523419e-01 -1.269842e-01  6.241558e-02
     vertex  2.523419e-01 -1.904762e-01  6.241558e-02
     vertex  2.691740e-01 -1.904762e-01  3.391545e-02
   endloop
 endfacet
 facet normal  7.948544e-01  4.643138e-16  6.068001e-01
   outer loop
     vertex  2.322571e-01 -1.269842e-01  8.872489e-02
     vertex  2.523419e-01 -1.904762e-01  6.241558e-02
     vertex  2.523419e-01 -1.269842e-01  6.241558e-02
   endloop
 endfacet
 facet normal  7.948544e-01 -2.729153e-16  6.068001e-01
   outer loop
     vertex  2.322571e-01 -1.269842e-01  8.872489e-02
     vertex  2.322571e-01 -1.904762e-01  8.872489e-02
     vertex  2.523419e-01 -1.904762e-01  6.241558e-02
   endloop
 endfacet
 facet normal  7.175073e-01  8.254468e-16  6.965510e-01
   outer loop
     vertex  2.092016e-01 -1.269842e-01  1.124740e-01
     vertex  2.322571e-01 -1.904762e-01  8.872489e-02
     vertex  2.322571e-01 -1.269842e-01  8.872489e-02
   endloop
 endfacet
 facet normal  7.175073e-01 -1.041747e-15  6.965510e-01
   outer loop
     vertex  2.092016e-01 -1.269842e-01  1.124740e-01
     vertex  2.092016e-01 -1.904762e-01  1.124740e-01
     vertex  2.322571e-01 -1.904762e-01  8.872489e-02
   endloop
 endfacet
 facet normal  6.300878e-01 -1.031808e-16  7.765239e-01
   outer loop
     vertex  1.834990e-01 -1.269842e-01  1.333296e-01
     vertex  2.092016e-01 -1.904762e-01  1.124740e-01
     vertex  2.092016e-01 -1.269842e-01  1.124740e-01
   endloop
 endfacet
 facet normal  6.300878e-01  3.647025e-16  7.765239e-01
   outer loop
     vertex  1.834990e-01 -1.269842e-01  1.333296e-01
     vertex  1.834990e-01 -1.904762e-01  1.333296e-01
     vertex  2.092016e-01 -1.904762e-01  1.124740e-01
   endloop
 endfacet
 facet normal  5.338234e-01  1.134989e-15  8.455960e-01
   outer loop
     vertex  1.555102e-01 -1.269842e-01  1.509989e-01
     vertex  1.834990e-01 -1.904762e-01  1.333296e-01
     vertex  1.834990e-01 -1.269842e-01  1.333296e-01
   endloop
 endfacet
 facet normal  5.338234e-01  1.176658e-16  8.455960e-01
   outer loop
     vertex  1.555102e-01 -1.269842e-01  1.509989e-01
     vertex  1.555102e-01 -1.904762e-01  1.509989e-01
     vertex  1.834990e-01 -1.904762e-01  1.333296e-01
   endloop
 endfacet
 facet normal  4.300652e-01  6.964707e-16  9.027978e-01
   outer loop
     vertex  1.256280e-01 -1.269842e-01  1.652339e-01
     vertex  1.555102e-01 -1.904762e-01  1.509989e-01
     vertex  1.555102e-01 -1.269842e-01  1.509989e-01
   endloop
 endfacet
 facet normal  4.300652e-01 -3.387022e-16  9.027978e-01
   outer loop
     vertex  1.256280e-01 -1.269842e-01  1.652339e-01
     vertex  1.256280e-01 -1.904762e-01  1.652339e-01
     vertex  1.555102e-01 -1.904762e-01  1.509989e-01
   endloop
 endfacet
 facet normal  3.202699e-01 -2.579521e-17  9.473264e-01
   outer loop
     vertex  9.427194e-02 -1.269842e-01  1.758347e-01
     vertex  1.256280e-01 -1.904762e-01  1.652339e-01
     vertex  1.256280e-01 -1.269842e-01  1.652339e-01
   endloop
 endfacet
 facet normal  3.202699e-01  5.482360e-16  9.473264e-01
   outer loop
     vertex  9.427194e-02 -1.269842e-01  1.758347e-01
     vertex  9.427194e-02 -1.904762e-01  1.758347e-01
     vertex  1.256280e-01 -1.904762e-01  1.652339e-01
   endloop
 endfacet
 facet normal  2.059786e-01  6.835731e-16  9.785565e-01
   outer loop
     vertex  6.188218e-02 -1.269842e-01  1.826525e-01
     vertex  9.427194e-02 -1.904762e-01  1.758347e-01
     vertex  9.427194e-02 -1.269842e-01  1.758347e-01
   endloop
 endfacet
 facet normal  2.059786e-01  1.800873e-16  9.785565e-01
   outer loop
     vertex  6.188218e-02 -1.269842e-01  1.826525e-01
     vertex  6.188218e-02 -1.904762e-01  1.826525e-01
     vertex  9.427194e-02 -1.904762e-01  1.758347e-01
   endloop
 endfacet
 facet normal  8.879590e-02  7.763432e-17  9.960498e-01
   outer loop
     vertex  6.188218e-02 -1.269842e-01  1.826525e-01
     vertex  2.891341e-02 -1.904762e-01  1.855916e-01
     vertex  6.188218e-02 -1.904762e-01  1.826525e-01
   endloop
 endfacet
 facet normal  8.879590e-02  2.717201e-16  9.960498e-01
   outer loop
     vertex  2.891341e-02 -1.269842e-01  1.855916e-01
     vertex  2.891341e-02 -1.904762e-01  1.855916e-01
     vertex  6.188218e-02 -1.269842e-01  1.826525e-01
   endloop
 endfacet
 facet normal -2.963333e-02 -1.457350e-16  9.995608e-01
   outer loop
     vertex -4.171583e-03 -1.269842e-01  1.846107e-01
     vertex -4.171583e-03 -1.904762e-01  1.846107e-01
     vertex  2.891341e-02 -1.904762e-01  1.855916e-01
   endloop
 endfacet
 facet normal -2.963333e-02 -9.028324e-17  9.995608e-01
   outer loop
     vertex -4.171583e-03 -1.269842e-01  1.846107e-01
     vertex  2.891341e-02 -1.904762e-01  1.855916e-01
     vertex  2.891341e-02 -1.269842e-01  1.855916e-01
   endloop
 endfacet
 facet normal -1.476466e-01  7.290090e-16  9.890402e-01
   outer loop
     vertex -3.690835e-02 -1.269842e-01  1.797237e-01
     vertex -3.690835e-02 -1.904762e-01  1.797237e-01
     vertex -4.171583e-03 -1.904762e-01  1.846107e-01
   endloop
 endfacet
 facet normal -1.476466e-01 -7.222659e-16  9.890402e-01
   outer loop
     vertex -3.690835e-02 -1.269842e-01  1.797237e-01
     vertex -4.171583e-03 -1.904762e-01  1.846107e-01
     vertex -4.171583e-03 -1.269842e-01  1.846107e-01
   endloop
 endfacet
 facet normal -2.635872e-01  3.408275e-16  9.646356e-01
   outer loop
     vertex -6.883733e-02 -1.269842e-01  1.709991e-01
     vertex -6.883733e-02 -1.904762e-01  1.709991e-01
     vertex -3.690835e-02 -1.904762e-01  1.797237e-01
   endloop
 endfacet
 facet normal -3.758276e-01 -6.909539e-16  9.266896e-01
   outer loop
     vertex -6.883733e-02 -1.269842e-01  1.709991e-01
     vertex -9.951031e-02 -1.904762e-01  1.585594e-01
     vertex -6.883733e-02 -1.904762e-01  1.709991e-01
   endloop
 endfacet
 facet normal -2.635872e-01 -1.031808e-16  9.646356e-01
   outer loop
     vertex -6.883733e-02 -1.269842e-01  1.709991e-01
     vertex -3.690835e-02 -1.904762e-01  1.797237e-01
     vertex -3.690835e-02 -1.269842e-01  1.797237e-01
   endloop
 endfacet
 facet normal -3.758276e-01  1.164636e-15  9.266896e-01
   outer loop
     vertex -9.951031e-02 -1.269842e-01  1.585594e-01
     vertex -9.951031e-02 -1.904762e-01  1.585594e-01
     vertex -6.883733e-02 -1.269842e-01  1.709991e-01
   endloop
 endfacet
 facet normal -4.827922e-01  8.489259e-16  8.757349e-01
   outer loop
     vertex -1.284967e-01 -1.269842e-01  1.425792e-01
     vertex -1.284967e-01 -1.904762e-01  1.425792e-01
     vertex -9.951031e-02 -1.904762e-01  1.585594e-01
   endloop
 endfacet
 facet normal -5.829795e-01 -6.883793e-16  8.124869e-01
   outer loop
     vertex -1.284967e-01 -1.269842e-01  1.425792e-01
     vertex -1.553897e-01 -1.904762e-01  1.232828e-01
     vertex -1.284967e-01 -1.904762e-01  1.425792e-01
   endloop
 endfacet
 facet normal -4.827922e-01 -1.547713e-16  8.757349e-01
   outer loop
     vertex -1.284967e-01 -1.269842e-01  1.425792e-01
     vertex -9.951031e-02 -1.904762e-01  1.585594e-01
     vertex -9.951031e-02 -1.269842e-01  1.585594e-01
   endloop
 endfacet
 facet normal -5.829795e-01  5.778160e-16  8.124869e-01
   outer loop
     vertex -1.553897e-01 -1.269842e-01  1.232828e-01
     vertex -1.553897e-01 -1.904762e-01  1.232828e-01
     vertex -1.284967e-01 -1.269842e-01  1.425792e-01
   endloop
 endfacet
 facet normal -6.749830e-01  1.277014e-15  7.378333e-01
   outer loop
     vertex -1.798116e-01 -1.269842e-01  1.009412e-01
     vertex -1.798116e-01 -1.904762e-01  1.009412e-01
     vertex -1.553897e-01 -1.904762e-01  1.232828e-01
   endloop
 endfacet
 facet normal -7.575112e-01 -4.818296e-16  6.528221e-01
   outer loop
     vertex -1.798116e-01 -1.269842e-01  1.009412e-01
     vertex -2.014197e-01 -1.904762e-01  7.586796e-02
     vertex -1.798116e-01 -1.904762e-01  1.009412e-01
   endloop
 endfacet
 facet normal -6.749830e-01 -1.186580e-15  7.378333e-01
   outer loop
     vertex -1.798116e-01 -1.269842e-01  1.009412e-01
     vertex -1.553897e-01 -1.904762e-01  1.232828e-01
     vertex -1.553897e-01 -1.269842e-01  1.232828e-01
   endloop
 endfacet
 facet normal -8.294057e-01 -1.020334e-15  5.586468e-01
   outer loop
     vertex -2.014197e-01 -1.269842e-01  7.586796e-02
     vertex -2.199106e-01 -1.904762e-01  4.841502e-02
     vertex -2.014197e-01 -1.904762e-01  7.586796e-02
   endloop
 endfacet
 facet normal -7.575112e-01  7.512259e-16  6.528221e-01
   outer loop
     vertex -2.014197e-01 -1.269842e-01  7.586796e-02
     vertex -2.014197e-01 -1.904762e-01  7.586796e-02
     vertex -1.798116e-01 -1.269842e-01  1.009412e-01
   endloop
 endfacet
 facet normal -8.896571e-01 -8.226832e-16  4.566292e-01
   outer loop
     vertex -2.199106e-01 -1.269842e-01  4.841502e-02
     vertex -2.350248e-01 -1.904762e-01  1.896779e-02
     vertex -2.199106e-01 -1.904762e-01  4.841502e-02
   endloop
 endfacet
 facet normal -8.294057e-01  9.183915e-16  5.586468e-01
   outer loop
     vertex -2.199106e-01 -1.269842e-01  4.841502e-02
     vertex -2.199106e-01 -1.904762e-01  4.841502e-02
     vertex -2.014197e-01 -1.269842e-01  7.586796e-02
   endloop
 endfacet
 facet normal -8.896571e-01  1.521118e-15  4.566292e-01
   outer loop
     vertex -2.350248e-01 -1.269842e-01  1.896779e-02
     vertex -2.350248e-01 -1.904762e-01  1.896779e-02
     vertex -2.199106e-01 -1.269842e-01  4.841502e-02
   endloop
 endfacet
 facet normal -9.374197e-01 -2.063617e-16  3.482016e-01
   outer loop
     vertex -2.465502e-01 -1.269842e-01 -1.206035e-02
     vertex -2.350248e-01 -1.904762e-01  1.896779e-02
     vertex -2.350248e-01 -1.269842e-01  1.896779e-02
   endloop
 endfacet
 facet normal -9.374197e-01  8.491019e-16  3.482016e-01
   outer loop
     vertex -2.465502e-01 -1.269842e-01 -1.206035e-02
     vertex -2.465502e-01 -1.904762e-01 -1.206035e-02
     vertex -2.350248e-01 -1.904762e-01  1.896779e-02
   endloop
 endfacet
 facet normal -9.720229e-01 -9.120848e-16  2.348860e-01
   outer loop
     vertex -2.465502e-01 -1.269842e-01 -1.206035e-02
     vertex -2.543248e-01 -1.904762e-01 -4.423385e-02
     vertex -2.465502e-01 -1.904762e-01 -1.206035e-02
   endloop
 endfacet
 facet normal -9.720229e-01  8.646063e-16  2.348860e-01
   outer loop
     vertex -2.543248e-01 -1.269842e-01 -4.423385e-02
     vertex -2.543248e-01 -1.904762e-01 -4.423385e-02
     vertex -2.465502e-01 -1.269842e-01 -1.206035e-02
   endloop
 endfacet
 facet normal -9.929811e-01 -8.899348e-16  1.182732e-01
   outer loop
     vertex -2.582396e-01 -1.269842e-01 -7.710105e-02
     vertex -2.543248e-01 -1.904762e-01 -4.423385e-02
     vertex -2.543248e-01 -1.269842e-01 -4.423385e-02
   endloop
 endfacet
 facet normal -9.929811e-01  8.638918e-16  1.182732e-01
   outer loop
     vertex -2.582396e-01 -1.269842e-01 -7.710105e-02
     vertex -2.582396e-01 -1.904762e-01 -7.710105e-02
     vertex -2.543248e-01 -1.904762e-01 -4.423385e-02
   endloop
 endfacet
 facet normal -1.000000e+00 -8.743007e-16  1.677098e-15
   outer loop
     vertex -2.582396e-01 -1.269842e-01 -7.710105e-02
     vertex -2.582396e-01 -1.904762e-01 -1.102006e-01
     vertex -2.582396e-01 -1.904762e-01 -7.710105e-02
   endloop
 endfacet
 facet normal -1.000000e+00  8.743007e-16 -1.677098e-15
   outer loop
     vertex -2.582396e-01 -1.269842e-01 -1.102006e-01
     vertex -2.582396e-01 -1.904762e-01 -1.102006e-01
     vertex -2.582396e-01 -1.269842e-01 -7.710105e-02
   endloop
 endfacet
 facet normal -9.929811e-01 -8.641396e-16 -1.182732e-01
   outer loop
     vertex -2.543248e-01 -1.269842e-01 -1.430678e-01
     vertex -2.582396e-01 -1.904762e-01 -1.102006e-01
     vertex -2.582396e-01 -1.269842e-01 -1.102006e-01
   endloop
 endfacet
 facet normal -9.929811e-01  8.982880e-16 -1.182732e-01
   outer loop
     vertex -2.543248e-01 -1.269842e-01 -1.430678e-01
     vertex -2.543248e-01 -1.904762e-01 -1.430678e-01
     vertex -2.582396e-01 -1.904762e-01 -1.102006e-01
   endloop
 endfacet
 facet normal -9.720229e-01 -8.389362e-16 -2.348860e-01
   outer loop
     vertex -2.543248e-01 -1.269842e-01 -1.430678e-01
     vertex -2.465502e-01 -1.904762e-01 -1.752413e-01
     vertex -2.543248e-01 -1.904762e-01 -1.430678e-01
   endloop
 endfacet
 facet normal -9.720229e-01  9.634251e-16 -2.348860e-01
   outer loop
     vertex -2.465502e-01 -1.269842e-01 -1.752413e-01
     vertex -2.465502e-01 -1.904762e-01 -1.752413e-01
     vertex -2.543248e-01 -1.269842e-01 -1.430678e-01
   endloop
 endfacet
 facet normal -9.374197e-01 -7.738564e-16 -3.482016e-01
   outer loop
     vertex -2.350248e-01 -1.269842e-01 -2.062694e-01
     vertex -2.465502e-01 -1.904762e-01 -1.752413e-01
     vertex -2.465502e-01 -1.269842e-01 -1.752413e-01
   endloop
 endfacet
 facet normal -9.374197e-01  4.659306e-17 -3.482016e-01
   outer loop
     vertex -2.350248e-01 -1.269842e-01 -2.062694e-01
     vertex -2.350248e-01 -1.904762e-01 -2.062694e-01
     vertex -2.465502e-01 -1.904762e-01 -1.752413e-01
   endloop
 endfacet
 facet normal -8.896571e-01 -1.720733e-15 -4.566292e-01
   outer loop
     vertex -2.350248e-01 -1.269842e-01 -2.062694e-01
     vertex -2.199106e-01 -1.904762e-01 -2.357167e-01
     vertex -2.350248e-01 -1.904762e-01 -2.062694e-01
   endloop
 endfacet
 facet normal -8.896571e-01  1.022299e-15 -4.566292e-01
   outer loop
     vertex -2.199106e-01 -1.269842e-01 -2.357167e-01
     vertex -2.199106e-01 -1.904762e-01 -2.357167e-01
     vertex -2.350248e-01 -1.269842e-01 -2.062694e-01
   endloop
 endfacet
 facet normal -8.294057e-01 -6.706755e-16 -5.586468e-01
   outer loop
     vertex -2.014197e-01 -1.269842e-01 -2.631696e-01
     vertex -2.199106e-01 -1.904762e-01 -2.357167e-01
     vertex -2.199106e-01 -1.269842e-01 -2.357167e-01
   endloop
 endfacet
 facet normal -8.294057e-01  7.761211e-16 -5.586468e-01
   outer loop
     vertex -2.014197e-01 -1.269842e-01 -2.631696e-01
     vertex -2.014197e-01 -1.904762e-01 -2.631696e-01
     vertex -2.199106e-01 -1.904762e-01 -2.357167e-01
   endloop
 endfacet
 facet normal -7.575112e-01 -1.031808e-15 -6.528221e-01
   outer loop
     vertex -1.798116e-01 -1.269842e-01 -2.882429e-01
     vertex -2.014197e-01 -1.904762e-01 -2.631696e-01
     vertex -2.014197e-01 -1.269842e-01 -2.631696e-01
   endloop
 endfacet
 facet normal -7.575112e-01  7.672110e-16 -6.528221e-01
   outer loop
     vertex -1.798116e-01 -1.269842e-01 -2.882429e-01
     vertex -1.798116e-01 -1.904762e-01 -2.882429e-01
     vertex -2.014197e-01 -1.904762e-01 -2.631696e-01
   endloop
 endfacet
 facet normal -6.749830e-01 -9.544696e-16 -7.378333e-01
   outer loop
     vertex -1.798116e-01 -1.269842e-01 -2.882429e-01
     vertex -1.553897e-01 -1.904762e-01 -3.105845e-01
     vertex -1.798116e-01 -1.904762e-01 -2.882429e-01
   endloop
 endfacet
 facet normal -6.749830e-01  8.708949e-16 -7.378333e-01
   outer loop
     vertex -1.553897e-01 -1.269842e-01 -3.105845e-01
     vertex -1.553897e-01 -1.904762e-01 -3.105845e-01
     vertex -1.798116e-01 -1.269842e-01 -2.882429e-01
   endloop
 endfacet
 facet normal -5.829795e-01 -9.329949e-16 -8.124869e-01
   outer loop
     vertex -1.553897e-01 -1.269842e-01 -3.105845e-01
     vertex -1.284967e-01 -1.904762e-01 -3.298808e-01
     vertex -1.553897e-01 -1.904762e-01 -3.105845e-01
   endloop
 endfacet
 facet normal -5.829795e-01  6.883793e-16 -8.124869e-01
   outer loop
     vertex -1.284967e-01 -1.269842e-01 -3.298808e-01
     vertex -1.284967e-01 -1.904762e-01 -3.298808e-01
     vertex -1.553897e-01 -1.269842e-01 -3.105845e-01
   endloop
 endfacet
 facet normal -4.827922e-01 -8.512420e-16 -8.757349e-01
   outer loop
     vertex -9.951031e-02 -1.269842e-01 -3.458610e-01
     vertex -1.284967e-01 -1.904762e-01 -3.298808e-01
     vertex -1.284967e-01 -1.269842e-01 -3.298808e-01
   endloop
 endfacet
 facet normal -4.827922e-01  1.547535e-16 -8.757349e-01
   outer loop
     vertex -9.951031e-02 -1.269842e-01 -3.458610e-01
     vertex -9.951031e-02 -1.904762e-01 -3.458610e-01
     vertex -1.284967e-01 -1.904762e-01 -3.298808e-01
   endloop
 endfacet
 facet normal -3.758276e-01 -1.160785e-15 -9.266896e-01
   outer loop
     vertex -6.883733e-02 -1.269842e-01 -3.583007e-01
     vertex -9.951031e-02 -1.904762e-01 -3.458610e-01
     vertex -9.951031e-02 -1.269842e-01 -3.458610e-01
   endloop
 endfacet
 facet normal -3.758276e-01  6.909539e-16 -9.266896e-01
   outer loop
     vertex -6.883733e-02 -1.269842e-01 -3.583007e-01
     vertex -6.883733e-02 -1.904762e-01 -3.583007e-01
     vertex -9.951031e-02 -1.904762e-01 -3.458610e-01
   endloop
 endfacet
 facet normal -2.635872e-01 -3.353378e-16 -9.646356e-01
   outer loop
     vertex -3.690835e-02 -1.269842e-01 -3.670253e-01
     vertex -6.883733e-02 -1.904762e-01 -3.583007e-01
     vertex -6.883733e-02 -1.269842e-01 -3.583007e-01
   endloop
 endfacet
 facet normal -2.635872e-01  9.925881e-17 -9.646356e-01
   outer loop
     vertex -3.690835e-02 -1.269842e-01 -3.670253e-01
     vertex -3.690835e-02 -1.904762e-01 -3.670253e-01
     vertex -6.883733e-02 -1.904762e-01 -3.583007e-01
   endloop
 endfacet
 facet normal -1.476466e-01 -7.290090e-16 -9.890402e-01
   outer loop
     vertex -3.690835e-02 -1.269842e-01 -3.670253e-01
     vertex -4.171583e-03 -1.904762e-01 -3.719124e-01
     vertex -3.690835e-02 -1.904762e-01 -3.670253e-01
   endloop
 endfacet
 facet normal -1.476466e-01  7.261172e-16 -9.890402e-01
   outer loop
     vertex -4.171583e-03 -1.269842e-01 -3.719124e-01
     vertex -4.171583e-03 -1.904762e-01 -3.719124e-01
     vertex -3.690835e-02 -1.269842e-01 -3.670253e-01
   endloop
 endfacet
 facet normal -2.963333e-02  1.450981e-16 -9.995608e-01
   outer loop
     vertex  2.891341e-02 -1.269842e-01 -3.728932e-01
     vertex -4.171583e-03 -1.904762e-01 -3.719124e-01
     vertex -4.171583e-03 -1.269842e-01 -3.719124e-01
   endloop
 endfacet
 facet normal -2.963333e-02  9.067954e-17 -9.995608e-01
   outer loop
     vertex  2.891341e-02 -1.269842e-01 -3.728932e-01
     vertex  2.891341e-02 -1.904762e-01 -3.728932e-01
     vertex -4.171583e-03 -1.904762e-01 -3.719124e-01
   endloop
 endfacet
 facet normal  8.879590e-02 -2.708497e-16 -9.960498e-01
   outer loop
     vertex  6.188218e-02 -1.269842e-01 -3.699541e-01
     vertex  2.891341e-02 -1.904762e-01 -3.728932e-01
     vertex  2.891341e-02 -1.269842e-01 -3.728932e-01
   endloop
 endfacet
 facet normal  8.879590e-02 -7.763432e-17 -9.960498e-01
   outer loop
     vertex  6.188218e-02 -1.269842e-01 -3.699541e-01
     vertex  6.188218e-02 -1.904762e-01 -3.699541e-01
     vertex  2.891341e-02 -1.904762e-01 -3.728932e-01
   endloop
 endfacet
 facet normal  2.059786e-01 -1.805665e-16 -9.785565e-01
   outer loop
     vertex  9.427194e-02 -1.269842e-01 -3.631363e-01
     vertex  6.188218e-02 -1.904762e-01 -3.699541e-01
     vertex  6.188218e-02 -1.269842e-01 -3.699541e-01
   endloop
 endfacet
 facet normal  2.059786e-01 -6.754654e-16 -9.785565e-01
   outer loop
     vertex  9.427194e-02 -1.269842e-01 -3.631363e-01
     vertex  9.427194e-02 -1.904762e-01 -3.631363e-01
     vertex  6.188218e-02 -1.904762e-01 -3.699541e-01
   endloop
 endfacet
 facet normal  3.202699e-01 -5.416995e-16 -9.473264e-01
   outer loop
     vertex  1.256280e-01 -1.269842e-01 -3.525355e-01
     vertex  9.427194e-02 -1.904762e-01 -3.631363e-01
     vertex  9.427194e-02 -1.269842e-01 -3.631363e-01
   endloop
 endfacet
 facet normal  3.202699e-01  1.178838e-17 -9.473264e-01
   outer loop
     vertex  1.256280e-01 -1.269842e-01 -3.525355e-01
     vertex  1.256280e-01 -1.904762e-01 -3.525355e-01
     vertex  9.427194e-02 -1.904762e-01 -3.631363e-01
   endloop
 endfacet
 facet normal  4.300652e-01  3.611330e-16 -9.027978e-01
   outer loop
     vertex  1.555102e-01 -1.269842e-01 -3.383006e-01
     vertex  1.256280e-01 -1.904762e-01 -3.525355e-01
     vertex  1.256280e-01 -1.269842e-01 -3.525355e-01
   endloop
 endfacet
 facet normal  4.300652e-01 -6.759220e-16 -9.027978e-01
   outer loop
     vertex  1.555102e-01 -1.269842e-01 -3.383006e-01
     vertex  1.555102e-01 -1.904762e-01 -3.383006e-01
     vertex  1.256280e-01 -1.904762e-01 -3.525355e-01
   endloop
 endfacet
 facet normal  5.338234e-01 -1.176658e-16 -8.455960e-01
   outer loop
     vertex  1.555102e-01 -1.269842e-01 -3.383006e-01
     vertex  1.834990e-01 -1.904762e-01 -3.206313e-01
     vertex  1.555102e-01 -1.904762e-01 -3.383006e-01
   endloop
 endfacet
 facet normal  5.338234e-01 -3.902489e-16 -8.455960e-01
   outer loop
     vertex  1.834990e-01 -1.269842e-01 -3.206313e-01
     vertex  1.834990e-01 -1.904762e-01 -3.206313e-01
     vertex  1.555102e-01 -1.269842e-01 -3.383006e-01
   endloop
 endfacet
 facet normal  6.300878e-01  3.142129e-16 -7.765239e-01
   outer loop
     vertex  1.834990e-01 -1.269842e-01 -3.206313e-01
     vertex  2.092016e-01 -1.904762e-01 -2.997757e-01
     vertex  1.834990e-01 -1.904762e-01 -3.206313e-01
   endloop
 endfacet
 facet normal  6.300878e-01  4.616269e-16 -7.765239e-01
   outer loop
     vertex  2.092016e-01 -1.269842e-01 -2.997757e-01
     vertex  2.092016e-01 -1.904762e-01 -2.997757e-01
     vertex  1.834990e-01 -1.269842e-01 -3.206313e-01
   endloop
 endfacet
 facet normal  7.175073e-01 -7.943993e-16 -6.965510e-01
   outer loop
     vertex  2.322571e-01 -1.269842e-01 -2.760265e-01
     vertex  2.322571e-01 -1.904762e-01 -2.760265e-01
     vertex  2.092016e-01 -1.904762e-01 -2.997757e-01
   endloop
 endfacet
 facet normal  7.948544e-01  2.729153e-16 -6.068001e-01
   outer loop
     vertex  2.322571e-01 -1.269842e-01 -2.760265e-01
     vertex  2.523419e-01 -1.904762e-01 -2.497172e-01
     vertex  2.322571e-01 -1.904762e-01 -2.760265e-01
   endloop
 endfacet
 facet normal  7.175073e-01  1.341351e-15 -6.965510e-01
   outer loop
     vertex  2.322571e-01 -1.269842e-01 -2.760265e-01
     vertex  2.092016e-01 -1.904762e-01 -2.997757e-01
     vertex  2.092016e-01 -1.269842e-01 -2.997757e-01
   endloop
 endfacet
 facet normal  7.948544e-01 -4.406654e-16 -6.068001e-01
   outer loop
     vertex  2.523419e-01 -1.269842e-01 -2.497172e-01
     vertex  2.523419e-01 -1.904762e-01 -2.497172e-01
     vertex  2.322571e-01 -1.269842e-01 -2.760265e-01
   endloop
 endfacet
 facet normal  8.610436e-01 -1.263052e-15 -5.085311e-01
   outer loop
     vertex  2.691740e-01 -1.269842e-01 -2.212171e-01
     vertex  2.691740e-01 -1.904762e-01 -2.212171e-01
     vertex  2.523419e-01 -1.904762e-01 -2.497172e-01
   endloop
 endfacet
 facet normal  8.610436e-01  8.254468e-16 -5.085311e-01
   outer loop
     vertex  2.691740e-01 -1.269842e-01 -2.212171e-01
     vertex  2.523419e-01 -1.904762e-01 -2.497172e-01
     vertex  2.523419e-01 -1.269842e-01 -2.497172e-01
   endloop
 endfacet
 facet normal  9.151456e-01 -4.860917e-16 -4.031234e-01
   outer loop
     vertex  2.825172e-01 -1.269842e-01 -1.909262e-01
     vertex  2.825172e-01 -1.904762e-01 -1.909262e-01
     vertex  2.691740e-01 -1.904762e-01 -2.212171e-01
   endloop
 endfacet
 facet normal  9.151456e-01  2.063617e-16 -4.031234e-01
   outer loop
     vertex  2.825172e-01 -1.269842e-01 -1.909262e-01
     vertex  2.691740e-01 -1.904762e-01 -2.212171e-01
     vertex  2.691740e-01 -1.269842e-01 -2.212171e-01
   endloop
 endfacet
 facet normal  9.564010e-01 -1.599622e-16 -2.920568e-01
   outer loop
     vertex  2.921842e-01 -1.269842e-01 -1.592698e-01
     vertex  2.921842e-01 -1.904762e-01 -1.592698e-01
     vertex  2.825172e-01 -1.904762e-01 -1.909262e-01
   endloop
 endfacet
 facet normal  9.564010e-01  1.186580e-15 -2.920568e-01
   outer loop
     vertex  2.921842e-01 -1.269842e-01 -1.592698e-01
     vertex  2.825172e-01 -1.904762e-01 -1.909262e-01
     vertex  2.825172e-01 -1.269842e-01 -1.909262e-01
   endloop
 endfacet
 facet normal  9.842306e-01 -4.342377e-16 -1.768903e-01
   outer loop
     vertex  2.980391e-01 -1.269842e-01 -1.266922e-01
     vertex  2.980391e-01 -1.904762e-01 -1.266922e-01
     vertex  2.921842e-01 -1.904762e-01 -1.592698e-01
   endloop
 endfacet
 facet normal  9.842306e-01  1.676689e-15 -1.768903e-01
   outer loop
     vertex  2.980391e-01 -1.269842e-01 -1.266922e-01
     vertex  2.921842e-01 -1.904762e-01 -1.592698e-01
     vertex  2.921842e-01 -1.269842e-01 -1.592698e-01
   endloop
 endfacet
 facet normal  9.982437e-01  0.000000e+00 -5.924063e-02
   outer loop
     vertex  3.000000e-01 -1.269842e-01 -9.365082e-02
     vertex  3.000000e-01 -1.904762e-01 -9.365082e-02
     vertex  2.980391e-01 -1.904762e-01 -1.266922e-01
   endloop
 endfacet
 facet normal  9.982437e-01  1.605752e-15 -5.924063e-02
   outer loop
     vertex  3.000000e-01 -1.269842e-01 -9.365082e-02
     vertex  2.980391e-01 -1.904762e-01 -1.266922e-01
     vertex  2.980391e-01 -1.269842e-01 -1.266922e-01
   endloop
 endfacet
 facet normal  0.000000e+00  0.000000e+00  1.000000e+00
   outer loop
     vertex -9.179894e-01 -1.587302e-02  4.506173e-01
     vertex  9.388007e-01 -1.587302e-02  4.506173e-01
     vertex  9.388007e-01  0.000000e+00  4.506173e-01
   endloop
 endfacet
 facet normal  0.000000e+00  0.000000e+00  1.000000e+00
   outer loop
     vertex -9.179894e-01 -1.587302e-02  4.506173e-01
     vertex  9.388007e-01  0.000000e+00  4.506173e-01
     vertex -9.179894e-01  0.000000e+00  4.506173e-01
   endloop
 endfacet
 facet normal  0.000000e+00  1.000000e+00  0.000000e+00
   outer loop
     vertex  2.092016e-01  0.000000e+00 -2.997757e-01
     vertex  1.834990e-01  0.000000e+00 -3.206313e-01
     vertex  1.555102e-01  0.000000e+00 -3.383006e-01
   endloop
 endfacet
 facet normal  0.000000e+00  1.000000e+00  0.000000e+00
   outer loop
     vertex -1.284967e-01  0.000000e+00  1.425792e-01
     vertex -1.798116e-01  0.000000e+00  1.009412e-01
     vertex -1.553897e-01  0.000000e+00  1.232828e-01
   endloop
 endfacet
 facet normal  0.000000e+00  1.000000e+00  0.000000e+00
   outer loop
     vertex  2.691740e-01  0.000000e+00  3.391545e-02
     vertex  2.825172e-01  0.000000e+00  3.624562e-03
     vertex  2.921842e-01  0.000000e+00 -2.803186e-02
   endloop
 endfacet
 facet normal  0.000000e+00  1.000000e+00  0.000000e+00
   outer loop
     vertex  1.555102e-01  0.000000e+00  1.509989e-01
     vertex  9.427194e-02  0.000000e+00  1.758347e-01
     vertex  1.256280e-01  0.000000e+00  1.652339e-01
   endloop
 endfacet
 facet normal  0.000000e+00  1.000000e+00  0.000000e+00
   outer loop
     vertex  2.092016e-01  0.000000e+00  1.124740e-01
     vertex  2.980391e-01  0.000000e+00 -6.060942e-02
     vertex  3.000000e-01  0.000000e+00 -9.365082e-02
   endloop
 endfacet
 facet normal  0.000000e+00  1.000000e+00  0.000000e+00
   outer loop
     vertex  2.092016e-01  0.000000e+00  1.124740e-01
     vertex  2.921842e-01  0.000000e+00 -2.803186e-02
     vertex  2.980391e-01  0.000000e+00 -6.060942e-02
   endloop
 endfacet
 facet normal  0.000000e+00  1.000000e+00  0.000000e+00
   outer loop
     vertex  2.092016e-01  0.000000e+00  1.124740e-01
     vertex  2.523419e-01  0.000000e+00  6.241558e-02
     vertex  2.691740e-01  0.000000e+00  3.391545e-02
   endloop
 endfacet
 facet normal  0.000000e+00  1.000000e+00  0.000000e+00
   outer loop
     vertex  2.092016e-01  0.000000e+00  1.124740e-01
     vertex  2.322571e-01  0.000000e+00  8.872489e-02
     vertex  2.523419e-01  0.000000e+00  6.241558e-02
   endloop
 endfacet
 facet normal  0.000000e+00  1.000000e+00  0.000000e+00
   outer loop
     vertex  2.092016e-01  0.000000e+00  1.124740e-01
     vertex  1.555102e-01  0.000000e+00  1.509989e-01
     vertex  1.834990e-01  0.000000e+00  1.333296e-01
   endloop
 endfacet
 facet normal  0.000000e+00  1.000000e+00  0.000000e+00
   outer loop
     vertex  2.092016e-01  0.000000e+00  1.124740e-01
     vertex  6.188218e-02  0.000000e+00  1.826525e-01
     vertex  9.427194e-02  0.000000e+00  1.758347e-01
   endloop
 endfacet
 facet normal  0.000000e+00  1.000000e+00  0.000000e+00
   outer loop
     vertex  2.092016e-01  0.000000e+00  1.124740e-01
     vertex  2.891341e-02  0.000000e+00  1.855916e-01
     vertex  6.188218e-02  0.000000e+00  1.826525e-01
   endloop
 endfacet
 facet normal  0.000000e+00  1.000000e+00  0.000000e+00
   outer loop
     vertex  2.092016e-01  0.000000e+00  1.124740e-01
     vertex -4.171583e-03  0.000000e+00  1.846107e-01
     vertex  2.891341e-02  0.000000e+00  1.855916e-01
   endloop
 endfacet
 facet normal  0.000000e+00  1.000000e+00  0.000000e+00
   outer loop
     vertex  2.092016e-01  0.000000e+00  1.124740e-01
     vertex -3.690835e-02  0.000000e+00  1.797237e-01
     vertex -4.171583e-03  0.000000e+00  1.846107e-01
   endloop
 endfacet
 facet normal  0.000000e+00  1.000000e+00  0.000000e+00
   outer loop
     vertex  2.092016e-01  0.000000e+00  1.124740e-01
     vertex -6.883733e-02  0.000000e+00  1.709991e-01
     vertex -3.690835e-02  0.000000e+00  1.797237e-01
   endloop
 endfacet
 facet normal  0.000000e+00  1.000000e+00  0.000000e+00
   outer loop
     vertex  2.092016e-01  0.000000e+00  1.124740e-01
     vertex -9.951031e-02  0.000000e+00  1.585594e-01
     vertex -6.883733e-02  0.000000e+00  1.709991e-01
   endloop
 endfacet
 facet normal  0.000000e+00  1.000000e+00  0.000000e+00
   outer loop
     vertex  2.092016e-01  0.000000e+00  1.124740e-01
     vertex -1.284967e-01  0.000000e+00  1.425792e-01
     vertex -9.951031e-02  0.000000e+00  1.585594e-01
   endloop
 endfacet
 facet normal  0.000000e+00  1.000000e+00  0.000000e+00
   outer loop
     vertex  2.092016e-01  0.000000e+00  1.124740e-01
     vertex -2.014197e-01  0.000000e+00  7.586796e-02
     vertex -1.798116e-01  0.000000e+00  1.009412e-01
   endloop
 endfacet
 facet normal  0.000000e+00  1.000000e+00  0.000000e+00
   outer loop
     vertex  2.092016e-01  0.000000e+00  1.124740e-01
     vertex -2.199106e-01  0.000000e+00  4.841502e-02
     vertex -2.014197e-01  0.000000e+00  7.586796e-02
   endloop
 endfacet
 facet normal  0.000000e+00  1.000000e+00  0.000000e+00
   outer loop
     vertex  2.092016e-01  0.000000e+00  1.124740e-01
     vertex  9.427194e-02  0.000000e+00  1.758347e-01
     vertex  1.555102e-01  0.000000e+00  1.509989e-01
   endloop
 endfacet
 facet normal  0.000000e+00  1.000000e+00  0.000000e+00
   outer loop
     vertex  2.092016e-01  0.000000e+00  1.124740e-01
     vertex -2.350248e-01  0.000000e+00  1.896779e-02
     vertex -2.199106e-01  0.000000e+00  4.841502e-02
   endloop
 endfacet
 facet normal  0.000000e+00  1.000000e+00  0.000000e+00
   outer loop
     vertex  2.092016e-01  0.000000e+00  1.124740e-01
     vertex -2.465502e-01  0.000000e+00 -1.206035e-02
     vertex -2.350248e-01  0.000000e+00  1.896779e-02
   endloop
 endfacet
 facet normal  0.000000e+00  1.000000e+00  0.000000e+00
   outer loop
     vertex  2.092016e-01  0.000000e+00  1.124740e-01
     vertex -2.543248e-01  0.000000e+00 -4.423385e-02
     vertex -2.465502e-01  0.000000e+00 -1.206035e-02
   endloop
 endfacet
 facet normal  0.000000e+00  1.000000e+00  0.000000e+00
   outer loop
     vertex  2.092016e-01  0.000000e+00  1.124740e-01
     vertex -2.582396e-01  0.000000e+00 -7.710105e-02
     vertex -2.543248e-01  0.000000e+00 -4.423385e-02
   endloop
 endfacet
 facet normal  0.000000e+00  1.000000e+00  0.000000e+00
   outer loop
     vertex  2.092016e-01  0.000000e+00  1.124740e-01
     vertex -2.582396e-01  0.000000e+00 -1.102006e-01
     vertex -2.582396e-01  0.000000e+00 -7.710105e-02
   endloop
 endfacet
 facet normal  0.000000e+00  1.000000e+00  0.000000e+00
   outer loop
     vertex  2.092016e-01  0.000000e+00  1.124740e-01
     vertex -2.543248e-01  0.000000e+00 -1.430678e-01
     vertex -2.582396e-01  0.000000e+00 -1.102006e-01
   endloop
 endfacet
 facet normal  0.000000e+00  1.000000e+00  0.000000e+00
   outer loop
     vertex  2.092016e-01  0.000000e+00  1.124740e-01
     vertex -2.465502e-01  0.000000e+00 -1.752413e-01
     vertex -2.543248e-01  0.000000e+00 -1.430678e-01
   endloop
 endfacet
 facet normal  0.000000e+00  1.000000e+00  0.000000e+00
   outer loop
     vertex  2.092016e-01  0.000000e+00  1.124740e-01
     vertex -2.350248e-01  0.000000e+00 -2.062694e-01
     vertex -2.465502e-01  0.000000e+00 -1.752413e-01
   endloop
 endfacet
 facet normal  0.000000e+00  1.000000e+00  0.000000e+00
   outer loop
     vertex  2.092016e-01  0.000000e+00  1.124740e-01
     vertex -2.199106e-01  0.000000e+00 -2.357167e-01
     vertex -2.350248e-01  0.000000e+00 -2.062694e-01
   endloop
 endfacet
 facet normal  0.000000e+00  1.000000e+00  0.000000e+00
   outer loop
     vertex  2.092016e-01  0.000000e+00  1.124740e-01
     vertex -2.014197e-01  0.000000e+00 -2.631696e-01
     vertex -2.199106e-01  0.000000e+00 -2.357167e-01
   endloop
 endfacet
 facet normal  0.000000e+00  1.000000e+00  0.000000e+00
   outer loop
     vertex  2.092016e-01  0.000000e+00  1.124740e-01
     vertex -1.798116e-01  0.000000e+00 -2.882429e-01
     vertex -2.014197e-01  0.000000e+00 -2.631696e-01
   endloop
 endfacet
 facet normal  0.000000e+00  1.000000e+00  0.000000e+00
   outer loop
     vertex  2.092016e-01  0.000000e+00  1.124740e-01
     vertex -1.553897e-01  0.000000e+00 -3.105845e-01
     vertex -1.798116e-01  0.000000e+00 -2.882429e-01
   endloop
 endfacet
 facet normal  0.000000e+00  1.000000e+00  0.000000e+00
   outer loop
     vertex  2.092016e-01  0.000000e+00  1.124740e-01
     vertex -1.284967e-01  0.000000e+00 -3.298808e-01
     vertex -1.553897e-01  0.000000e+00 -3.105845e-01
   endloop
 endfacet
 facet normal  0.000000e+00  1.000000e+00  0.000000e+00
   outer loop
     vertex  2.092016e-01  0.000000e+00  1.124740e-01
     vertex -9.951031e-02  0.000000e+00 -3.458610e-01
     vertex -1.284967e-01  0.000000e+00 -3.298808e-01
   endloop
 endfacet
 facet normal  0.000000e+00  1.000000e+00  0.000000e+00
   outer loop
     vertex  2.092016e-01  0.000000e+00  1.124740e-01
     vertex -6.883733e-02  0.000000e+00 -3.583007e-01
     vertex -9.951031e-02  0.000000e+00 -3.458610e-01
   endloop
 endfacet
 facet normal  0.000000e+00  1.000000e+00  0.000000e+00
   outer loop
     vertex  2.092016e-01  0.000000e+00  1.124740e-01
     vertex -3.690835e-02  0.000000e+00 -3.670253e-01
     vertex -6.883733e-02  0.000000e+00 -3.583007e-01
   endloop
 endfacet
 facet normal  0.000000e+00  1.000000e+00  0.000000e+00
   outer loop
     vertex  2.092016e-01  0.000000e+00  1.124740e-01
     vertex -4.171583e-03  0.000000e+00 -3.719124e-01
     vertex -3.690835e-02  0.000000e+00 -3.670253e-01
   endloop
 endfacet
 facet normal  0.000000e+00  1.000000e+00  0.000000e+00
   outer loop
     vertex  2.092016e-01  0.000000e+00  1.124740e-01
     vertex  2.891341e-02  0.000000e+00 -3.728932e-01
     vertex -4.171583e-03  0.000000e+00 -3.719124e-01
   endloop
 endfacet
 facet normal  0.000000e+00  1.000000e+00  0.000000e+00
   outer loop
     vertex  2.092016e-01  0.000000e+00  1.124740e-01
     vertex  6.188218e-02  0.000000e+00 -3.699541e-01
     vertex  2.891341e-02  0.000000e+00 -3.728932e-01
   endloop
 endfacet
 facet normal  0.000000e+00  1.000000e+00  0.000000e+00
   outer loop
     vertex  2.092016e-01  0.000000e+00  1.124740e-01
     vertex  9.427194e-02  0.000000e+00 -3.631363e-01
     vertex  6.188218e-02  0.000000e+00 -3.699541e-01
   endloop
 endfacet
 facet normal  0.000000e+00  1.000000e+00  0.000000e+00
   outer loop
     vertex  2.092016e-01  0.000000e+00  1.124740e-01
     vertex  1.256280e-01  0.000000e+00 -3.525355e-01
     vertex  9.427194e-02  0.000000e+00 -3.631363e-01
   endloop
 endfacet
 facet normal  0.000000e+00  1.000000e+00  0.000000e+00
   outer loop
     vertex  2.092016e-01  0.000000e+00  1.124740e-01
     vertex  1.555102e-01  0.000000e+00 -3.383006e-01
     vertex  1.256280e-01  0.000000e+00 -3.525355e-01
   endloop
 endfacet
 facet normal  0.000000e+00  1.000000e+00  0.000000e+00
   outer loop
     vertex  2.092016e-01  0.000000e+00  1.124740e-01
     vertex  2.322571e-01  0.000000e+00 -2.760265e-01
     vertex  2.092016e-01  0.000000e+00 -2.997757e-01
   endloop
 endfacet
 facet normal  0.000000e+00  1.000000e+00  0.000000e+00
   outer loop
     vertex  2.092016e-01  0.000000e+00  1.124740e-01
     vertex  2.523419e-01  0.000000e+00 -2.497172e-01
     vertex  2.322571e-01  0.000000e+00 -2.760265e-01
   endloop
 endfacet
 facet normal  0.000000e+00  1.000000e+00  0.000000e+00
   outer loop
     vertex  2.092016e-01  0.000000e+00  1.124740e-01
     vertex  2.691740e-01  0.000000e+00  3.391545e-02
     vertex  2.921842e-01  0.000000e+00 -2.803186e-02
   endloop
 endfacet
 facet normal  0.000000e+00  1.000000e+00  0.000000e+00
   outer loop
     vertex  2.092016e-01  0.000000e+00  1.124740e-01
     vertex  2.691740e-01  0.000000e+00 -2.212171e-01
     vertex  2.523419e-01  0.000000e+00 -2.497172e-01
   endloop
 endfacet
 facet normal  0.000000e+00  1.000000e+00  0.000000e+00
   outer loop
     vertex  2.092016e-01  0.000000e+00  1.124740e-01
     vertex  2.825172e-01  0.000000e+00 -1.909262e-01
     vertex  2.691740e-01  0.000000e+00 -2.212171e-01
   endloop
 endfacet
 facet normal  0.000000e+00  1.000000e+00  0.000000e+00
   outer loop
     vertex  2.092016e-01  0.000000e+00  1.124740e-01
     vertex  2.921842e-01  0.000000e+00 -1.592698e-01
     vertex  2.825172e-01  0.000000e+00 -1.909262e-01
   endloop
 endfacet
 facet normal  0.000000e+00  1.000000e+00  0.000000e+00
   outer loop
     vertex  2.092016e-01  0.000000e+00  1.124740e-01
     vertex  2.980391e-01  0.000000e+00 -1.266922e-01
     vertex  2.921842e-01  0.000000e+00 -1.592698e-01
   endloop
 endfacet
 facet normal  0.000000e+00  1.000000e+00  0.000000e+00
   outer loop
     vertex  2.092016e-01  0.000000e+00  1.124740e-01
     vertex  3.000000e-01  0.000000e+00 -9.365082e-02
     vertex  2.980391e-01  0.000000e+00 -1.266922e-01
   endloop
 endfacet
 facet normal  0.000000e+00  1.000000e+00  0.000000e+00
   outer loop
     vertex  2.092016e-01  0.000000e+00  1.124740e-01
     vertex  2.092016e-01  0.000000e+00 -2.997757e-01
     vertex  1.555102e-01  0.000000e+00 -3.383006e-01
   endloop
 endfacet
 facet normal  0.000000e+00  1.000000e+00  0.000000e+00
   outer loop
     vertex  2.092016e-01  0.000000e+00  1.124740e-01
     vertex -1.798116e-01  0.000000e+00  1.009412e-01
     vertex -1.284967e-01  0.000000e+00  1.425792e-01
   endloop
 endfacet
 facet normal  0.000000e+00 -1.000000e+00  0.000000e+00
   outer loop
     vertex  2.092016e-01 -1.904762e-01 -2.997757e-01
     vertex  1.555102e-01 -1.904762e-01 -3.383006e-01
     vertex  1.834990e-01 -1.904762e-01 -3.206313e-01
   endloop
 endfacet
 facet normal  0.000000e+00 -1.000000e+00  0.000000e+00
   outer loop
     vertex -1.284967e-01 -1.904762e-01  1.425792e-01
     vertex -1.553897e-01 -1.904762e-01  1.232828e-01
     vertex -1.798116e-01 -1.904762e-01  1.009412e-01
   endloop
 endfacet
 facet normal  0.000000e+00 -1.000000e+00  0.000000e+00
   outer loop
     vertex  2.691740e-01 -1.904762e-01  3.391545e-02
     vertex  2.921842e-01 -1.904762e-01 -2.803186e-02
     vertex  2.825172e-01 -1.904762e-01  3.624562e-03
   endloop
 endfacet
 facet normal  0.000000e+00 -1.000000e+00  0.000000e+00
   outer loop
     vertex  1.555102e-01 -1.904762e-01  1.509989e-01
     vertex  1.256280e-01 -1.904762e-01  1.652339e-01
     vertex  9.427194e-02 -1.904762e-01  1.758347e-01
   endloop
 endfacet
 facet normal  0.000000e+00 -1.000000e+00  0.000000e+00
   outer loop
     vertex  2.092016e-01 -1.904762e-01  1.124740e-01
     vertex  3.000000e-01 -1.904762e-01 -9.365082e-02
     vertex  2.980391e-01 -1.904762e-01 -6.060942e-02
   endloop
 endfacet
 facet normal  0.000000e+00 -1.000000e+00  0.000000e+00
   outer loop
     vertex  2.092016e-01 -1.904762e-01  1.124740e-01
     vertex  2.980391e-01 -1.904762e-01 -6.060942e-02
     vertex  2.921842e-01 -1.904762e-01 -2.803186e-02
   endloop
 endfacet
 facet normal  0.000000e+00 -1.000000e+00  0.000000e+00
   outer loop
     vertex  2.092016e-01 -1.904762e-01  1.124740e-01
     vertex  2.691740e-01 -1.904762e-01  3.391545e-02
     vertex  2.523419e-01 -1.904762e-01  6.241558e-02
   endloop
 endfacet
 facet normal  0.000000e+00 -1.000000e+00  0.000000e+00
   outer loop
     vertex  2.092016e-01 -1.904762e-01  1.124740e-01
     vertex  2.523419e-01 -1.904762e-01  6.241558e-02
     vertex  2.322571e-01 -1.904762e-01  8.872489e-02
   endloop
 endfacet
 facet normal  0.000000e+00 -1.000000e+00  0.000000e+00
   outer loop
     vertex  2.092016e-01 -1.904762e-01  1.124740e-01
     vertex  1.834990e-01 -1.904762e-01  1.333296e-01
     vertex  1.555102e-01 -1.904762e-01  1.509989e-01
   endloop
 endfacet
 facet normal  0.000000e+00 -1.000000e+00  0.000000e+00
   outer loop
     vertex  2.092016e-01 -1.904762e-01  1.124740e-01
     vertex  9.427194e-02 -1.904762e-01  1.758347e-01
     vertex  6.188218e-02 -1.904762e-01  1.826525e-01
   endloop
 endfacet
 facet normal  0.000000e+00 -1.000000e+00  0.000000e+00
   outer loop
     vertex  2.092016e-01 -1.904762e-01  1.124740e-01
     vertex  6.188218e-02 -1.904762e-01  1.826525e-01
     vertex  2.891341e-02 -1.904762e-01  1.855916e-01
   endloop
 endfacet
 facet normal  0.000000e+00 -1.000000e+00  0.000000e+00
   outer loop
     vertex  2.092016e-01 -1.904762e-01  1.124740e-01
     vertex  2.891341e-02 -1.904762e-01  1.855916e-01
     vertex -4.171583e-03 -1.904762e-01  1.846107e-01
   endloop
 endfacet
 facet normal  0.000000e+00 -1.000000e+00  0.000000e+00
   outer loop
     vertex  2.092016e-01 -1.904762e-01  1.124740e-01
     vertex -4.171583e-03 -1.904762e-01  1.846107e-01
     vertex -3.690835e-02 -1.904762e-01  1.797237e-01
   endloop
 endfacet
 facet normal  0.000000e+00 -1.000000e+00  0.000000e+00
   outer loop
     vertex  2.092016e-01 -1.904762e-01  1.124740e-01
     vertex -3.690835e-02 -1.904762e-01  1.797237e-01
     vertex -6.883733e-02 -1.904762e-01  1.709991e-01
   endloop
 endfacet
 facet normal  0.000000e+00 -1.000000e+00  0.000000e+00
   outer loop
     vertex  2.092016e-01 -1.904762e-01  1.124740e-01
     vertex -6.883733e-02 -1.904762e-01  1.709991e-01
     vertex -9.951031e-02 -1.904762e-01  1.585594e-01
   endloop
 endfacet
 facet normal  0.000000e+00 -1.000000e+00  0.000000e+00
   outer loop
     vertex  2.092016e-01 -1.904762e-01  1.124740e-01
     vertex -9.951031e-02 -1.904762e-01  1.585594e-01
     vertex -1.284967e-01 -1.904762e-01  1.425792e-01
   endloop
 endfacet
 facet normal  0.000000e+00 -1.000000e+00  0.000000e+00
   outer loop
     vertex  2.092016e-01 -1.904762e-01  1.124740e-01
     vertex -1.798116e-01 -1.904762e-01  1.009412e-01
     vertex -2.014197e-01 -1.904762e-01  7.586796e-02
   endloop
 endfacet
 facet normal  0.000000e+00 -1.000000e+00  0.000000e+00
   outer loop
     vertex  2.092016e-01 -1.904762e-01  1.124740e-01
     vertex -2.014197e-01 -1.904762e-01  7.586796e-02
     vertex -2.199106e-01 -1.904762e-01  4.841502e-02
   endloop
 endfacet
 facet normal  0.000000e+00 -1.000000e+00  0.000000e+00
   outer loop
     vertex  2.092016e-01 -1.904762e-01  1.124740e-01
     vertex  1.555102e-01 -1.904762e-01  1.509989e-01
     vertex  9.427194e-02 -1.904762e-01  1.758347e-01
   endloop
 endfacet
 facet normal  0.000000e+00 -1.000000e+00  0.000000e+00
   outer loop
     vertex  2.092016e-01 -1.904762e-01  1.124740e-01
     vertex -2.199106e-01 -1.904762e-01  4.841502e-02
     vertex -2.350248e-01 -1.904762e-01  1.896779e-02
   endloop
 endfacet
 facet normal  0.000000e+00 -1.000000e+00  0.000000e+00
   outer loop
     vertex  2.092016e-01 -1.904762e-01  1.124740e-01
     vertex -2.350248e-01 -1.904762e-01  1.896779e-02
     vertex -2.465502e-01 -1.904762e-01 -1.206035e-02
   endloop
 endfacet
 facet normal  0.000000e+00 -1.000000e+00  0.000000e+00
   outer loop
     vertex  2.092016e-01 -1.904762e-01  1.124740e-01
     vertex -2.465502e-01 -1.904762e-01 -1.206035e-02
     vertex -2.543248e-01 -1.904762e-01 -4.423385e-02
   endloop
 endfacet
 facet normal  0.000000e+00 -1.000000e+00  0.000000e+00
   outer loop
     vertex  2.092016e-01 -1.904762e-01  1.124740e-01
     vertex -2.543248e-01 -1.904762e-01 -4.423385e-02
     vertex -2.582396e-01 -1.904762e-01 -7.710105e-02
   endloop
 endfacet
 facet normal  0.000000e+00 -1.000000e+00  0.000000e+00
   outer loop
     vertex  2.092016e-01 -1.904762e-01  1.124740e-01
     vertex -2.582396e-01 -1.904762e-01 -7.710105e-02
     vertex -2.582396e-01 -1.904762e-01 -1.102006e-01
   endloop
 endfacet
 facet normal  0.000000e+00 -1.000000e+00  0.000000e+00
   outer loop
     vertex  2.092016e-01 -1.904762e-01  1.124740e-01
     vertex -2.582396e-01 -1.904762e-01 -1.102006e-01
     vertex -2.543248e-01 -1.904762e-01 -1.430678e-01
   endloop
 endfacet
 facet normal  0.000000e+00 -1.000000e+00  0.000000e+00
   outer loop
     vertex  2.092016e-01 -1.904762e-01  1.124740e-01
     vertex -2.543248e-01 -1.904762e-01 -1.430678e-01
     vertex -2.465502e-01 -1.904762e-01 -1.752413e-01
   endloop
 endfacet
 facet normal  0.000000e+00 -1.000000e+00  0.000000e+00
   outer loop
     vertex  2.092016e-01 -1.904762e-01  1.124740e-01
     vertex -2.465502e-01 -1.904762e-01 -1.752413e-01
     vertex -2.350248e-01 -1.904762e-01 -2.062694e-01
   endloop
 endfacet
 facet normal  0.000000e+00 -1.000000e+00  0.000000e+00
   outer loop
     vertex  2.092016e-01 -1.904762e-01  1.124740e-01
     vertex -2.350248e-01 -1.904762e-01 -2.062694e-01
     vertex -2.199106e-01 -1.904762e-01 -2.357167e-01
   endloop
 endfacet
 facet normal  0.000000e+00 -1.000000e+00  0.000000e+00
   outer loop
     vertex  2.092016e-01 -1.904762e-01  1.124740e-01
     vertex -2.199106e-01 -1.904762e-01 -2.357167e-01
     vertex -2.014197e-01 -1.904762e-01 -2.631696e-01
   endloop
 endfacet
 facet normal  0.000000e+00 -1.000000e+00  0.000000e+00
   outer loop
     vertex  2.092016e-01 -1.904762e-01  1.124740e-01
     vertex -2.014197e-01 -1.904762e-01 -2.631696e-01
     vertex -1.798116e-01 -1.904762e-01 -2.882429e-01
   endloop
 endfacet
 facet normal  0.000000e+00 -1.000000e+00  0.000000e+00
   outer loop
     vertex  2.092016e-01 -1.904762e-01  1.124740e-01
     vertex -1.798116e-01 -1.904762e-01 -2.882429e-01
     vertex -1.553897e-01 -1.904762e-01 -3.105845e-01
   endloop
 endfacet
 facet normal  0.000000e+00 -1.000000e+00  0.000000e+00
   outer loop
     vertex  2.092016e-01 -1.904762e-01  1.124740e-01
     vertex -1.553897e-01 -1.904762e-01 -3.105845e-01
     vertex -1.284967e-01 -1.904762e-01 -3.298808e-01
   endloop
 endfacet
 facet normal  0.000000e+00 -1.000000e+00  0.000000e+00
   outer loop
     vertex  2.092016e-01 -1.904762e-01  1.124740e-01
     vertex -1.284967e-01 -1.904762e-01 -3.298808e-01
     vertex -9.951031e-02 -1.904762e-01 -3.458610e-01
   endloop
 endfacet
 facet normal  0.000000e+00 -1.000000e+00  0.000000e+00
   outer loop
     vertex  2.092016e-01 -1.904762e-01  1.124740e-01
     vertex -9.951031e-02 -1.904762e-01 -3.458610e-01
     vertex -6.883733e-02 -1.904762e-01 -3.583007e-01
   endloop
 endfacet
 facet normal  0.000000e+00 -1.000000e+00  0.000000e+00
   outer loop
     vertex  2.092016e-01 -1.904762e-01  1.124740e-01
     vertex -6.883733e-02 -1.904762e-01 -3.583007e-01
     vertex -3.690835e-02 -1.904762e-01 -3.670253e-01
   endloop
 endfacet
 facet normal  0.000000e+00 -1.000000e+00  0.000000e+00
   outer loop
     vertex  2.092016e-01 -1.904762e-01  1.124740e-01
     vertex -3.690835e-02 -1.904762e-01 -3.670253e-01
     vertex -4.171583e-03 -1.904762e-01 -3.719124e-01
   endloop
 endfacet
 facet normal  0.000000e+00 -1.000000e+00  0.000000e+00
   outer loop
     vertex  2.092016e-01 -1.904762e-01  1.124740e-01
     vertex -4.171583e-03 -1.904762e-01 -3.719124e-01
     vertex  2.891341e-02 -1.904762e-01 -3.728932e-01
   endloop
 endfacet
 facet normal  0.000000e+00 -1.000000e+00  0.000000e+00
   outer loop
     vertex  2.092016e-01 -1.904762e-01  1.124740e-01
     vertex  2.891341e-02 -1.904762e-01 -3.728932e-01
     vertex  6.188218e-02 -1.904762e-01 -3.699541e-01
   endloop
 endfacet
 facet normal  0.000000e+00 -1.000000e+00  0.000000e+00
   outer loop
     vertex  2.092016e-01 -1.904762e-01  1.124740e-01
     vertex  6.188218e-02 -1.904762e-01 -3.699541e-01
     vertex  9.427194e-02 -1.904762e-01 -3.631363e-01
   endloop
 endfacet
 facet normal  0.000000e+00 -1.000000e+00  0.000000e+00
   outer loop
     vertex  2.092016e-01 -1.904762e-01  1.124740e-01
     vertex  9.427194e-02 -1.904762e-01 -3.631363e-01
     vertex  1.256280e-01 -1.904762e-01 -3.525355e-01
   endloop
 endfacet
 facet normal  0.000000e+00 -1.000000e+00  0.000000e+00
   outer loop
     vertex  2.092016e-01 -1.904762e-01  1.124740e-01
     vertex  1.256280e-01 -1.904762e-01 -3.525355e-01
     vertex  1.555102e-01 -1.904762e-01 -3.383006e-01
   endloop
 endfacet
 facet normal  0.000000e+00 -1.000000e+00  0.000000e+00
   outer loop
     vertex  2.092016e-01 -1.904762e-01  1.124740e-01
     vertex  2.092016e-01 -1.904762e-01 -2.997757e-01
     vertex  2.322571e-01 -1.904762e-01 -2.760265e-01
   endloop
 endfacet
 facet normal  0.000000e+00 -1.000000e+00  0.000000e+00
   outer loop
     vertex  2.092016e-01 -1.904762e-01  1.124740e-01
     vertex  2.322571e-01 -1.904762e-01 -2.760265e-01
     vertex  2.523419e-01 -1.904762e-01 -2.497172e-01
   endloop
 endfacet
 facet normal  0.000000e+00 -1.000000e+00  0.000000e+00
   outer loop
     vertex  2.092016e-01 -1.904762e-01  1.124740e-01
     vertex  2.921842e-01 -1.904762e-01 -2.803186e-02
     vertex  2.691740e-01 -1.904762e-01  3.391545e-02
   endloop
 endfacet
 facet normal  0.000000e+00 -1.000000e+00  0.000000e+00
   outer loop
     vertex  2.092016e-01 -1.904762e-01  1.124740e-01
     vertex  2.523419e-01 -1.904762e-01 -2.497172e-01
     vertex  2.691740e-01 -1.904762e-01 -2.212171e-01
   endloop
 endfacet
 facet normal  0.000000e+00 -1.000000e+00  0.000000e+00
   outer loop
     vertex  2.092016e-01 -1.904762e-01  1.124740e-01
     vertex  2.691740e-01 -1.904762e-01 -2.212171e-01
     vertex  2.825172e-01 -1.904762e-01 -1.909262e-01
   endloop
 endfacet
 facet normal  0.000000e+00 -1.000000e+00  0.000000e+00
   outer loop
     vertex  2.092016e-01 -1.904762e-01  1.124740e-01
     vertex  2.825172e-01 -1.904762e-01 -1.909262e-01
     vertex  2.921842e-01 -1.904762e-01 -1.592698e-01
   endloop
 endfacet
 facet normal  0.000000e+00 -1.000000e+00  0.000000e+00
   outer loop
     vertex  2.092016e-01 -1.904762e-01  1.124740e-01
     vertex  2.921842e-01 -1.904762e-01 -1.592698e-01
     vertex  2.980391e-01 -1.904762e-01 -1.266922e-01
   endloop
 endfacet
 facet normal  0.000000e+00 -1.000000e+00  0.000000e+00
   outer loop
     vertex  2.092016e-01 -1.904762e-01  1.124740e-01
     vertex  2.980391e-01 -1.904762e-01 -1.266922e-01
     vertex  3.000000e-01 -1.904762e-01 -9.365082e-02
   endloop
 endfacet
 facet normal  0.000000e+00 -1.000000e+00 -0.000000e+00
   outer loop
     vertex  2.092016e-01 -1.904762e-01  1.124740e-01
     vertex  1.555102e-01 -1.904762e-01 -3.383006e-01
     vertex  2.092016e-01 -1.904762e-01 -2.997757e-01
   endloop
 endfacet
 facet normal -0.000000e+00 -1.000000e+00  0.000000e+00
   outer loop
     vertex  2.092016e-01 -1.904762e-01  1.124740e-01
     vertex -1.284967e-01 -1.904762e-01  1.425792e-01
     vertex -1.798116e-01 -1.904762e-01  1.009412e-01
   endloop
 endfacet
endsolid
