solid 
 facet normal -1.000000e+00  0.000000e+00 -0.000000e+00
   outer loop
     vertex -1.222222e-01 -1.587302e-02  1.940072e-03
     vertex -1.222222e-01 -1.587302e-02 -1.222222e-01
     vertex -1.222222e-01 -1.015873e+00 -1.222222e-01
   endloop
 endfacet
 facet normal -1.000000e+00 -0.000000e+00  0.000000e+00
   outer loop
     vertex -1.222222e-01 -1.587302e-02  1.940072e-03
     vertex -1.222222e-01 -1.015873e+00 -1.222222e-01
     vertex -1.222222e-01 -1.015873e+00  1.940072e-03
   endloop
 endfacet
 facet normal  0.000000e+00  0.000000e+00 -1.000000e+00
   outer loop
     vertex -1.222222e-01 -1.587302e-02 -1.222222e-01
     vertex  1.940072e-03 -1.587302e-02 -1.222222e-01
     vertex  1.940072e-03 -1.015873e+00 -1.222222e-01
   endloop
 endfacet
 facet normal  0.000000e+00  0.000000e+00 -1.000000e+00
   outer loop
     vertex -1.222222e-01 -1.587302e-02 -1.222222e-01
     vertex  1.940072e-03 -1.015873e+00 -1.222222e-01
     vertex -1.222222e-01 -1.015873e+00 -1.222222e-01
   endloop
 endfacet
 facet normal -3.379124e-18 -3.814242e-18  1.000000e+00
   outer loop
     vertex -6.789938e-02 -1.543956e-01  1.940072e-03
     vertex -7.069996e-02 -1.519145e-01  1.940072e-03
     vertex -1.222222e-01 -1.015873e+00  1.940072e-03
   endloop
 endfacet
 facet normal -5.355161e-18 -3.696401e-18  1.000000e+00
   outer loop
     vertex -7.282539e-02 -1.488353e-01  1.940072e-03
     vertex -1.222222e-01 -1.015873e+00  1.940072e-03
     vertex -7.069996e-02 -1.519145e-01  1.940072e-03
   endloop
 endfacet
 facet normal -2.045989e-18 -3.898307e-18  1.000000e+00
   outer loop
     vertex -6.458643e-02 -1.561344e-01  1.940072e-03
     vertex -6.789938e-02 -1.543956e-01  1.940072e-03
     vertex -1.222222e-01 -1.015873e+00  1.940072e-03
   endloop
 endfacet
 facet normal  0.000000e+00 -4.039674e-18  1.000000e+00
   outer loop
     vertex -6.095362e-02 -1.570298e-01  1.940072e-03
     vertex -1.222222e-01 -1.015873e+00  1.940072e-03
     vertex  1.940072e-03 -1.015873e+00  1.940072e-03
   endloop
 endfacet
 facet normal -9.784853e-19 -3.969871e-18  1.000000e+00
   outer loop
     vertex -6.095362e-02 -1.570298e-01  1.940072e-03
     vertex -6.458643e-02 -1.561344e-01  1.940072e-03
     vertex -1.222222e-01 -1.015873e+00  1.940072e-03
   endloop
 endfacet
 facet normal  0.000000e+00 -4.039674e-18  1.000000e+00
   outer loop
     vertex -5.721210e-02 -1.570298e-01  1.940072e-03
     vertex -6.095362e-02 -1.570298e-01  1.940072e-03
     vertex  1.940072e-03 -1.015873e+00  1.940072e-03
   endloop
 endfacet
 facet normal  9.790696e-19 -3.972242e-18  1.000000e+00
   outer loop
     vertex -5.357929e-02 -1.561344e-01  1.940072e-03
     vertex -5.721210e-02 -1.570298e-01  1.940072e-03
     vertex  1.940072e-03 -1.015873e+00  1.940072e-03
   endloop
 endfacet
 facet normal  2.048546e-18 -3.903178e-18  1.000000e+00
   outer loop
     vertex -5.026633e-02 -1.543956e-01  1.940072e-03
     vertex -5.357929e-02 -1.561344e-01  1.940072e-03
     vertex  1.940072e-03 -1.015873e+00  1.940072e-03
   endloop
 endfacet
 facet normal  3.386104e-18 -3.822121e-18  1.000000e+00
   outer loop
     vertex -4.746576e-02 -1.519145e-01  1.940072e-03
     vertex -5.026633e-02 -1.543956e-01  1.940072e-03
     vertex  1.940072e-03 -1.015873e+00  1.940072e-03
   endloop
 endfacet
 facet normal  5.372713e-18 -3.708516e-18  1.000000e+00
   outer loop
     vertex -4.534033e-02 -1.488353e-01  1.940072e-03
     vertex -4.746576e-02 -1.519145e-01  1.940072e-03
     vertex  1.940072e-03 -1.015873e+00  1.940072e-03
   endloop
 endfacet
 facet normal -6.816928e-18  2.765736e-17  1.000000e+00
   outer loop
     vertex -1.222222e-01 -1.587302e-02  1.940072e-03
     vertex -6.458643e-02 -1.271110e-01  1.940072e-03
     vertex -6.095362e-02 -1.262156e-01  1.940072e-03
   endloop
 endfacet
 facet normal -1.286973e-17  2.452122e-17  1.000000e+00
   outer loop
     vertex -1.222222e-01 -1.587302e-02  1.940072e-03
     vertex -6.789938e-02 -1.288497e-01  1.940072e-03
     vertex -6.458643e-02 -1.271110e-01  1.940072e-03
   endloop
 endfacet
 facet normal -1.907892e-17  2.153565e-17  1.000000e+00
   outer loop
     vertex -1.222222e-01 -1.587302e-02  1.940072e-03
     vertex -7.069996e-02 -1.313308e-01  1.940072e-03
     vertex -6.789938e-02 -1.288497e-01  1.940072e-03
   endloop
 endfacet
 facet normal -2.644053e-17  1.825058e-17  1.000000e+00
   outer loop
     vertex -1.222222e-01 -1.587302e-02  1.940072e-03
     vertex -7.282539e-02 -1.344100e-01  1.940072e-03
     vertex -7.069996e-02 -1.313308e-01  1.940072e-03
   endloop
 endfacet
 facet normal -3.677133e-17  1.394552e-17  1.000000e+00
   outer loop
     vertex -1.222222e-01 -1.587302e-02  1.940072e-03
     vertex -7.415215e-02 -1.379084e-01  1.940072e-03
     vertex -7.282539e-02 -1.344100e-01  1.940072e-03
   endloop
 endfacet
 facet normal -5.516882e-17  6.698707e-18  1.000000e+00
   outer loop
     vertex -1.222222e-01 -1.587302e-02  1.940072e-03
     vertex -7.460314e-02 -1.416227e-01  1.940072e-03
     vertex -7.415215e-02 -1.379084e-01  1.940072e-03
   endloop
 endfacet
 facet normal -1.072463e-16 -1.302206e-17  1.000000e+00
   outer loop
     vertex -1.222222e-01 -1.587302e-02  1.940072e-03
     vertex -7.415215e-02 -1.453369e-01  1.940072e-03
     vertex -7.460314e-02 -1.416227e-01  1.940072e-03
   endloop
 endfacet
 facet normal  5.709011e-17  6.931994e-18  1.000000e+00
   outer loop
     vertex  1.940072e-03 -1.587302e-02  1.940072e-03
     vertex -4.401357e-02 -1.379084e-01  1.940072e-03
     vertex -4.356258e-02 -1.416227e-01  1.940072e-03
   endloop
 endfacet
 facet normal  3.761507e-17  1.426551e-17  1.000000e+00
   outer loop
     vertex  1.940072e-03 -1.587302e-02  1.940072e-03
     vertex -4.534033e-02 -1.344100e-01  1.940072e-03
     vertex -4.401357e-02 -1.379084e-01  1.940072e-03
   endloop
 endfacet
 facet normal  2.687398e-17  1.854977e-17  1.000000e+00
   outer loop
     vertex  1.940072e-03 -1.587302e-02  1.940072e-03
     vertex -4.746576e-02 -1.313308e-01  1.940072e-03
     vertex -4.534033e-02 -1.344100e-01  1.940072e-03
   endloop
 endfacet
 facet normal  1.930358e-17  2.178924e-17  1.000000e+00
   outer loop
     vertex  1.940072e-03 -1.587302e-02  1.940072e-03
     vertex -5.026633e-02 -1.288497e-01  1.940072e-03
     vertex -4.746576e-02 -1.313308e-01  1.940072e-03
   endloop
 endfacet
 facet normal  1.297157e-17  2.471525e-17  1.000000e+00
   outer loop
     vertex  1.940072e-03 -1.587302e-02  1.940072e-03
     vertex -5.357929e-02 -1.271110e-01  1.940072e-03
     vertex -5.026633e-02 -1.288497e-01  1.940072e-03
   endloop
 endfacet
 facet normal  6.845394e-18  2.777285e-17  1.000000e+00
   outer loop
     vertex  1.940072e-03 -1.587302e-02  1.940072e-03
     vertex -5.721210e-02 -1.262156e-01  1.940072e-03
     vertex -5.357929e-02 -1.271110e-01  1.940072e-03
   endloop
 endfacet
 facet normal  0.000000e+00  3.144252e-17  1.000000e+00
   outer loop
     vertex  1.940072e-03 -1.587302e-02  1.940072e-03
     vertex -6.095362e-02 -1.262156e-01  1.940072e-03
     vertex -5.721210e-02 -1.262156e-01  1.940072e-03
   endloop
 endfacet
 facet normal  1.147536e-16 -1.393361e-17  1.000000e+00
   outer loop
     vertex  1.940072e-03 -1.587302e-02  1.940072e-03
     vertex -4.356258e-02 -1.416227e-01  1.940072e-03
     vertex -4.401357e-02 -1.453369e-01  1.940072e-03
   endloop
 endfacet
 facet normal  0.000000e+00  3.144252e-17  1.000000e+00
   outer loop
     vertex  1.940072e-03 -1.587302e-02  1.940072e-03
     vertex -1.222222e-01 -1.587302e-02  1.940072e-03
     vertex -6.095362e-02 -1.262156e-01  1.940072e-03
   endloop
 endfacet
 facet normal -7.217483e-17  0.000000e+00  1.000000e+00
   outer loop
     vertex -1.222222e-01 -1.587302e-02  1.940072e-03
     vertex -1.222222e-01 -1.015873e+00  1.940072e-03
     vertex -7.415215e-02 -1.453369e-01  1.940072e-03
   endloop
 endfacet
 facet normal -9.173072e-18 -3.478887e-18  1.000000e+00
   outer loop
     vertex -7.415215e-02 -1.453369e-01  1.940072e-03
     vertex -1.222222e-01 -1.015873e+00  1.940072e-03
     vertex -7.282539e-02 -1.488353e-01  1.940072e-03
   endloop
 endfacet
 facet normal  7.549885e-17 -0.000000e+00  1.000000e+00
   outer loop
     vertex  1.940072e-03 -1.015873e+00  1.940072e-03
     vertex  1.940072e-03 -1.587302e-02  1.940072e-03
     vertex -4.401357e-02 -1.453369e-01  1.940072e-03
   endloop
 endfacet
 facet normal  9.224690e-18 -3.498464e-18  1.000000e+00
   outer loop
     vertex  1.940072e-03 -1.015873e+00  1.940072e-03
     vertex -4.401357e-02 -1.453369e-01  1.940072e-03
     vertex -4.534033e-02 -1.488353e-01  1.940072e-03
   endloop
 endfacet
 facet normal -1.000000e+00  0.000000e+00  0.000000e+00
   outer loop
     vertex -1.222222e-01 -1.587302e-02  1.940072e-03
     vertex -1.222222e-01  0.000000e+00 -1.222222e-01
     vertex -1.222222e-01 -1.587302e-02 -1.222222e-01
   endloop
 endfacet
 facet normal -1.000000e+00  0.000000e+00  0.000000e+00
   outer loop
     vertex -1.222222e-01 -1.587302e-02  1.940072e-03
     vertex -1.222222e-01  0.000000e+00  1.940072e-03
     vertex -1.222222e-01  0.000000e+00 -1.222222e-01
   endloop
 endfacet
 facet normal  0.000000e+00 -1.000000e+00  0.000000e+00
   outer loop
     vertex -1.222222e-01 -1.015873e+00  1.940072e-03
     vertex -1.222222e-01 -1.015873e+00 -1.222222e-01
     vertex -1.081128e-01 -1.015873e+00 -1.081128e-01
   endloop
 endfacet
 facet normal  0.000000e+00 -1.000000e+00  0.000000e+00
   outer loop
     vertex  1.940072e-03 -1.015873e+00 -1.222222e-01
     vertex -1.081128e-01 -1.015873e+00 -1.081128e-01
     vertex -1.222222e-01 -1.015873e+00 -1.222222e-01
   endloop
 endfacet
 facet normal -0.000000e+00 -1.000000e+00 -0.000000e+00
   outer loop
     vertex -1.216928e-02 -1.015873e+00 -1.081128e-01
     vertex -1.081128e-01 -1.015873e+00 -1.081128e-01
     vertex  1.940072e-03 -1.015873e+00 -1.222222e-01
   endloop
 endfacet
 facet normal -0.000000e+00 -1.000000e+00 -0.000000e+00
   outer loop
     vertex -1.081128e-01 -1.015873e+00 -1.216928e-02
     vertex -1.222222e-01 -1.015873e+00  1.940072e-03
     vertex -1.081128e-01 -1.015873e+00 -1.081128e-01
   endloop
 endfacet
 facet normal  0.000000e+00 -1.000000e+00  0.000000e+00
   outer loop
     vertex  1.940072e-03 -1.015873e+00  1.940072e-03
     vertex -1.216928e-02 -1.015873e+00 -1.216928e-02
     vertex -1.216928e-02 -1.015873e+00 -1.081128e-01
   endloop
 endfacet
 facet normal  0.000000e+00 -1.000000e+00 -0.000000e+00
   outer loop
     vertex  1.940072e-03 -1.015873e+00  1.940072e-03
     vertex -1.216928e-02 -1.015873e+00 -1.081128e-01
     vertex  1.940072e-03 -1.015873e+00 -1.222222e-01
   endloop
 endfacet
 facet normal -0.000000e+00 -1.000000e+00  0.000000e+00
   outer loop
     vertex  1.940072e-03 -1.015873e+00  1.940072e-03
     vertex -1.222222e-01 -1.015873e+00  1.940072e-03
     vertex -1.081128e-01 -1.015873e+00 -1.216928e-02
   endloop
 endfacet
 facet normal  0.000000e+00 -1.000000e+00  0.000000e+00
   outer loop
     vertex  1.940072e-03 -1.015873e+00  1.940072e-03
     vertex -1.081128e-01 -1.015873e+00 -1.216928e-02
     vertex -1.216928e-02 -1.015873e+00 -1.216928e-02
   endloop
 endfacet
 facet normal  1.000000e+00  0.000000e+00 -0.000000e+00
   outer loop
     vertex  1.940072e-03 -1.587302e-02 -1.222222e-01
     vertex  1.940072e-03 -1.587302e-02  1.940072e-03
     vertex  1.940072e-03 -1.015873e+00  1.940072e-03
   endloop
 endfacet
 facet normal  1.000000e+00  0.000000e+00  0.000000e+00
   outer loop
     vertex  1.940072e-03 -1.587302e-02 -1.222222e-01
     vertex  1.940072e-03 -1.015873e+00  1.940072e-03
     vertex  1.940072e-03 -1.015873e+00 -1.222222e-01
   endloop
 endfacet
 facet normal  0.000000e+00  0.000000e+00 -1.000000e+00
   outer loop
     vertex -1.222222e-01 -1.587302e-02 -1.222222e-01
     vertex  1.940072e-03  0.000000e+00 -1.222222e-01
     vertex  1.940072e-03 -1.587302e-02 -1.222222e-01
   endloop
 endfacet
 facet normal  0.000000e+00  0.000000e+00 -1.000000e+00
   outer loop
     vertex -1.222222e-01 -1.587302e-02 -1.222222e-01
     vertex -1.222222e-01  0.000000e+00 -1.222222e-01
     vertex  1.940072e-03  0.000000e+00 -1.222222e-01
   endloop
 endfacet
 facet normal  0.000000e+00  0.000000e+00  1.000000e+00
   outer loop
     vertex  1.940072e-03 -1.587302e-02  1.940072e-03
     vertex -1.222222e-01  0.000000e+00  1.940072e-03
     vertex -1.222222e-01 -1.587302e-02  1.940072e-03
   endloop
 endfacet
 facet normal  0.000000e+00 -0.000000e+00  1.000000e+00
   outer loop
     vertex  1.940072e-03 -1.587302e-02  1.940072e-03
     vertex  1.940072e-03  0.000000e+00  1.940072e-03
     vertex -1.222222e-01  0.000000e+00  1.940072e-03
   endloop
 endfacet
 facet normal -9.927089e-01 -1.205367e-01  0.000000e+00
   outer loop
     vertex -4.401357e-02 -1.379084e-01  1.940072e-03
     vertex -4.356258e-02 -1.416227e-01 -1.216928e-02
     vertex -4.356258e-02 -1.416227e-01  1.940072e-03
   endloop
 endfacet
 facet normal -9.927089e-01 -1.205367e-01 -0.000000e+00
   outer loop
     vertex -4.401357e-02 -1.379084e-01  1.940072e-03
     vertex -4.401357e-02 -1.379084e-01 -1.216928e-02
     vertex -4.356258e-02 -1.416227e-01 -1.216928e-02
   endloop
 endfacet
 facet normal -9.350162e-01 -3.546049e-01 -0.000000e+00
   outer loop
     vertex -4.534033e-02 -1.344100e-01  1.940072e-03
     vertex -4.534033e-02 -1.344100e-01 -1.216928e-02
     vertex -4.401357e-02 -1.379084e-01 -1.216928e-02
   endloop
 endfacet
 facet normal -9.350162e-01 -3.546049e-01  0.000000e+00
   outer loop
     vertex -4.534033e-02 -1.344100e-01  1.940072e-03
     vertex -4.401357e-02 -1.379084e-01 -1.216928e-02
     vertex -4.401357e-02 -1.379084e-01  1.940072e-03
   endloop
 endfacet
 facet normal -8.229839e-01 -5.680647e-01 -0.000000e+00
   outer loop
     vertex -4.746576e-02 -1.313308e-01  1.940072e-03
     vertex -4.746576e-02 -1.313308e-01 -1.216928e-02
     vertex -4.534033e-02 -1.344100e-01 -1.216928e-02
   endloop
 endfacet
 facet normal -8.229839e-01 -5.680647e-01  0.000000e+00
   outer loop
     vertex -4.746576e-02 -1.313308e-01  1.940072e-03
     vertex -4.534033e-02 -1.344100e-01 -1.216928e-02
     vertex -4.534033e-02 -1.344100e-01  1.940072e-03
   endloop
 endfacet
 facet normal -6.631227e-01 -7.485107e-01 -0.000000e+00
   outer loop
     vertex -5.026633e-02 -1.288497e-01  1.940072e-03
     vertex -5.026633e-02 -1.288497e-01 -1.216928e-02
     vertex -4.746576e-02 -1.313308e-01 -1.216928e-02
   endloop
 endfacet
 facet normal -6.631227e-01 -7.485107e-01  0.000000e+00
   outer loop
     vertex -5.026633e-02 -1.288497e-01  1.940072e-03
     vertex -4.746576e-02 -1.313308e-01 -1.216928e-02
     vertex -4.746576e-02 -1.313308e-01  1.940072e-03
   endloop
 endfacet
 facet normal -4.647232e-01 -8.854560e-01 -0.000000e+00
   outer loop
     vertex -5.357929e-02 -1.271110e-01  1.940072e-03
     vertex -5.357929e-02 -1.271110e-01 -1.216928e-02
     vertex -5.026633e-02 -1.288497e-01 -1.216928e-02
   endloop
 endfacet
 facet normal -4.647232e-01 -8.854560e-01  0.000000e+00
   outer loop
     vertex -5.357929e-02 -1.271110e-01  1.940072e-03
     vertex -5.026633e-02 -1.288497e-01 -1.216928e-02
     vertex -5.026633e-02 -1.288497e-01  1.940072e-03
   endloop
 endfacet
 facet normal -2.393157e-01 -9.709418e-01 -0.000000e+00
   outer loop
     vertex -5.721210e-02 -1.262156e-01  1.940072e-03
     vertex -5.721210e-02 -1.262156e-01 -1.216928e-02
     vertex -5.357929e-02 -1.271110e-01 -1.216928e-02
   endloop
 endfacet
 facet normal -2.393157e-01 -9.709418e-01  0.000000e+00
   outer loop
     vertex -5.721210e-02 -1.262156e-01  1.940072e-03
     vertex -5.357929e-02 -1.271110e-01 -1.216928e-02
     vertex -5.357929e-02 -1.271110e-01  1.940072e-03
   endloop
 endfacet
 facet normal  0.000000e+00 -1.000000e+00  0.000000e+00
   outer loop
     vertex -6.095362e-02 -1.262156e-01  1.940072e-03
     vertex -6.095362e-02 -1.262156e-01 -1.216928e-02
     vertex -5.721210e-02 -1.262156e-01 -1.216928e-02
   endloop
 endfacet
 facet normal  0.000000e+00 -1.000000e+00  0.000000e+00
   outer loop
     vertex -6.095362e-02 -1.262156e-01  1.940072e-03
     vertex -5.721210e-02 -1.262156e-01 -1.216928e-02
     vertex -5.721210e-02 -1.262156e-01  1.940072e-03
   endloop
 endfacet
 facet normal  2.393157e-01 -9.709418e-01  0.000000e+00
   outer loop
     vertex -6.458643e-02 -1.271110e-01  1.940072e-03
     vertex -6.458643e-02 -1.271110e-01 -1.216928e-02
     vertex -6.095362e-02 -1.262156e-01 -1.216928e-02
   endloop
 endfacet
 facet normal  2.393157e-01 -9.709418e-01  0.000000e+00
   outer loop
     vertex -6.458643e-02 -1.271110e-01  1.940072e-03
     vertex -6.095362e-02 -1.262156e-01 -1.216928e-02
     vertex -6.095362e-02 -1.262156e-01  1.940072e-03
   endloop
 endfacet
 facet normal  4.647232e-01 -8.854560e-01  0.000000e+00
   outer loop
     vertex -6.789938e-02 -1.288497e-01  1.940072e-03
     vertex -6.789938e-02 -1.288497e-01 -1.216928e-02
     vertex -6.458643e-02 -1.271110e-01 -1.216928e-02
   endloop
 endfacet
 facet normal  4.647232e-01 -8.854560e-01  0.000000e+00
   outer loop
     vertex -6.789938e-02 -1.288497e-01  1.940072e-03
     vertex -6.458643e-02 -1.271110e-01 -1.216928e-02
     vertex -6.458643e-02 -1.271110e-01  1.940072e-03
   endloop
 endfacet
 facet normal  6.631227e-01 -7.485107e-01  0.000000e+00
   outer loop
     vertex -7.069996e-02 -1.313308e-01  1.940072e-03
     vertex -7.069996e-02 -1.313308e-01 -1.216928e-02
     vertex -6.789938e-02 -1.288497e-01 -1.216928e-02
   endloop
 endfacet
 facet normal  6.631227e-01 -7.485107e-01  0.000000e+00
   outer loop
     vertex -7.069996e-02 -1.313308e-01  1.940072e-03
     vertex -6.789938e-02 -1.288497e-01 -1.216928e-02
     vertex -6.789938e-02 -1.288497e-01  1.940072e-03
   endloop
 endfacet
 facet normal  8.229839e-01 -5.680647e-01  0.000000e+00
   outer loop
     vertex -7.282539e-02 -1.344100e-01  1.940072e-03
     vertex -7.282539e-02 -1.344100e-01 -1.216928e-02
     vertex -7.069996e-02 -1.313308e-01 -1.216928e-02
   endloop
 endfacet
 facet normal  8.229839e-01 -5.680647e-01  0.000000e+00
   outer loop
     vertex -7.282539e-02 -1.344100e-01  1.940072e-03
     vertex -7.069996e-02 -1.313308e-01 -1.216928e-02
     vertex -7.069996e-02 -1.313308e-01  1.940072e-03
   endloop
 endfacet
 facet normal  9.350162e-01 -3.546049e-01  0.000000e+00
   outer loop
     vertex -7.415215e-02 -1.379084e-01  1.940072e-03
     vertex -7.282539e-02 -1.344100e-01 -1.216928e-02
     vertex -7.282539e-02 -1.344100e-01  1.940072e-03
   endloop
 endfacet
 facet normal  9.350162e-01 -3.546049e-01  0.000000e+00
   outer loop
     vertex -7.415215e-02 -1.379084e-01  1.940072e-03
     vertex -7.415215e-02 -1.379084e-01 -1.216928e-02
     vertex -7.282539e-02 -1.344100e-01 -1.216928e-02
   endloop
 endfacet
 facet normal  9.927089e-01 -1.205367e-01  0.000000e+00
   outer loop
     vertex -7.460314e-02 -1.416227e-01  1.940072e-03
     vertex -7.415215e-02 -1.379084e-01 -1.216928e-02
     vertex -7.415215e-02 -1.379084e-01  1.940072e-03
   endloop
 endfacet
 facet normal  9.927089e-01 -1.205367e-01  0.000000e+00
   outer loop
     vertex -7.460314e-02 -1.416227e-01  1.940072e-03
     vertex -7.460314e-02 -1.416227e-01 -1.216928e-02
     vertex -7.415215e-02 -1.379084e-01 -1.216928e-02
   endloop
 endfacet
 facet normal  9.927089e-01  1.205367e-01  0.000000e+00
   outer loop
     vertex -7.415215e-02 -1.453369e-01  1.940072e-03
     vertex -7.460314e-02 -1.416227e-01 -1.216928e-02
     vertex -7.460314e-02 -1.416227e-01  1.940072e-03
   endloop
 endfacet
 facet normal  9.927089e-01  1.205367e-01  0.000000e+00
   outer loop
     vertex -7.415215e-02 -1.453369e-01  1.940072e-03
     vertex -7.415215e-02 -1.453369e-01 -1.216928e-02
     vertex -7.460314e-02 -1.416227e-01 -1.216928e-02
   endloop
 endfacet
 facet normal  9.350162e-01  3.546049e-01  0.000000e+00
   outer loop
     vertex -7.282539e-02 -1.488353e-01  1.940072e-03
     vertex -7.415215e-02 -1.453369e-01 -1.216928e-02
     vertex -7.415215e-02 -1.453369e-01  1.940072e-03
   endloop
 endfacet
 facet normal  9.350162e-01  3.546049e-01  0.000000e+00
   outer loop
     vertex -7.282539e-02 -1.488353e-01  1.940072e-03
     vertex -7.282539e-02 -1.488353e-01 -1.216928e-02
     vertex -7.415215e-02 -1.453369e-01 -1.216928e-02
   endloop
 endfacet
 facet normal  8.229839e-01  5.680647e-01  0.000000e+00
   outer loop
     vertex -7.069996e-02 -1.519145e-01  1.940072e-03
     vertex -7.282539e-02 -1.488353e-01 -1.216928e-02
     vertex -7.282539e-02 -1.488353e-01  1.940072e-03
   endloop
 endfacet
 facet normal  8.229839e-01  5.680647e-01  0.000000e+00
   outer loop
     vertex -7.069996e-02 -1.519145e-01  1.940072e-03
     vertex -7.069996e-02 -1.519145e-01 -1.216928e-02
     vertex -7.282539e-02 -1.488353e-01 -1.216928e-02
   endloop
 endfacet
 facet normal  6.631227e-01  7.485107e-01  0.000000e+00
   outer loop
     vertex -6.789938e-02 -1.543956e-01  1.940072e-03
     vertex -7.069996e-02 -1.519145e-01 -1.216928e-02
     vertex -7.069996e-02 -1.519145e-01  1.940072e-03
   endloop
 endfacet
 facet normal  6.631227e-01  7.485107e-01  0.000000e+00
   outer loop
     vertex -6.789938e-02 -1.543956e-01  1.940072e-03
     vertex -6.789938e-02 -1.543956e-01 -1.216928e-02
     vertex -7.069996e-02 -1.519145e-01 -1.216928e-02
   endloop
 endfacet
 facet normal  4.647232e-01  8.854560e-01  0.000000e+00
   outer loop
     vertex -6.458643e-02 -1.561344e-01  1.940072e-03
     vertex -6.789938e-02 -1.543956e-01 -1.216928e-02
     vertex -6.789938e-02 -1.543956e-01  1.940072e-03
   endloop
 endfacet
 facet normal  4.647232e-01  8.854560e-01  0.000000e+00
   outer loop
     vertex -6.458643e-02 -1.561344e-01  1.940072e-03
     vertex -6.458643e-02 -1.561344e-01 -1.216928e-02
     vertex -6.789938e-02 -1.543956e-01 -1.216928e-02
   endloop
 endfacet
 facet normal  2.393157e-01  9.709418e-01  0.000000e+00
   outer loop
     vertex -6.095362e-02 -1.570298e-01  1.940072e-03
     vertex -6.458643e-02 -1.561344e-01 -1.216928e-02
     vertex -6.458643e-02 -1.561344e-01  1.940072e-03
   endloop
 endfacet
 facet normal  2.393157e-01  9.709418e-01  0.000000e+00
   outer loop
     vertex -6.095362e-02 -1.570298e-01  1.940072e-03
     vertex -6.095362e-02 -1.570298e-01 -1.216928e-02
     vertex -6.458643e-02 -1.561344e-01 -1.216928e-02
   endloop
 endfacet
 facet normal  0.000000e+00  1.000000e+00  0.000000e+00
   outer loop
     vertex -5.721210e-02 -1.570298e-01  1.940072e-03
     vertex -6.095362e-02 -1.570298e-01 -1.216928e-02
     vertex -6.095362e-02 -1.570298e-01  1.940072e-03
   endloop
 endfacet
 facet normal  0.000000e+00  1.000000e+00  0.000000e+00
   outer loop
     vertex -5.721210e-02 -1.570298e-01  1.940072e-03
     vertex -5.721210e-02 -1.570298e-01 -1.216928e-02
     vertex -6.095362e-02 -1.570298e-01 -1.216928e-02
   endloop
 endfacet
 facet normal -2.393157e-01  9.709418e-01  0.000000e+00
   outer loop
     vertex -5.357929e-02 -1.561344e-01  1.940072e-03
     vertex -5.721210e-02 -1.570298e-01 -1.216928e-02
     vertex -5.721210e-02 -1.570298e-01  1.940072e-03
   endloop
 endfacet
 facet normal -2.393157e-01  9.709418e-01  0.000000e+00
   outer loop
     vertex -5.357929e-02 -1.561344e-01  1.940072e-03
     vertex -5.357929e-02 -1.561344e-01 -1.216928e-02
     vertex -5.721210e-02 -1.570298e-01 -1.216928e-02
   endloop
 endfacet
 facet normal -4.647232e-01  8.854560e-01  0.000000e+00
   outer loop
     vertex -5.026633e-02 -1.543956e-01  1.940072e-03
     vertex -5.357929e-02 -1.561344e-01 -1.216928e-02
     vertex -5.357929e-02 -1.561344e-01  1.940072e-03
   endloop
 endfacet
 facet normal -4.647232e-01  8.854560e-01  0.000000e+00
   outer loop
     vertex -5.026633e-02 -1.543956e-01  1.940072e-03
     vertex -5.026633e-02 -1.543956e-01 -1.216928e-02
     vertex -5.357929e-02 -1.561344e-01 -1.216928e-02
   endloop
 endfacet
 facet normal -6.631227e-01  7.485107e-01  0.000000e+00
   outer loop
     vertex -4.746576e-02 -1.519145e-01  1.940072e-03
     vertex -5.026633e-02 -1.543956e-01 -1.216928e-02
     vertex -5.026633e-02 -1.543956e-01  1.940072e-03
   endloop
 endfacet
 facet normal -6.631227e-01  7.485107e-01  0.000000e+00
   outer loop
     vertex -4.746576e-02 -1.519145e-01  1.940072e-03
     vertex -4.746576e-02 -1.519145e-01 -1.216928e-02
     vertex -5.026633e-02 -1.543956e-01 -1.216928e-02
   endloop
 endfacet
 facet normal -8.229839e-01  5.680647e-01  0.000000e+00
   outer loop
     vertex -4.534033e-02 -1.488353e-01  1.940072e-03
     vertex -4.534033e-02 -1.488353e-01 -1.216928e-02
     vertex -4.746576e-02 -1.519145e-01 -1.216928e-02
   endloop
 endfacet
 facet normal -8.229839e-01  5.680647e-01  0.000000e+00
   outer loop
     vertex -4.534033e-02 -1.488353e-01  1.940072e-03
     vertex -4.746576e-02 -1.519145e-01 -1.216928e-02
     vertex -4.746576e-02 -1.519145e-01  1.940072e-03
   endloop
 endfacet
 facet normal -9.350162e-01  3.546049e-01  0.000000e+00
   outer loop
     vertex -4.401357e-02 -1.453369e-01  1.940072e-03
     vertex -4.401357e-02 -1.453369e-01 -1.216928e-02
     vertex -4.534033e-02 -1.488353e-01 -1.216928e-02
   endloop
 endfacet
 facet normal -9.350162e-01  3.546049e-01  0.000000e+00
   outer loop
     vertex -4.401357e-02 -1.453369e-01  1.940072e-03
     vertex -4.534033e-02 -1.488353e-01 -1.216928e-02
     vertex -4.534033e-02 -1.488353e-01  1.940072e-03
   endloop
 endfacet
 facet normal -9.927089e-01  1.205367e-01  0.000000e+00
   outer loop
     vertex -4.356258e-02 -1.416227e-01  1.940072e-03
     vertex -4.356258e-02 -1.416227e-01 -1.216928e-02
     vertex -4.401357e-02 -1.453369e-01 -1.216928e-02
   endloop
 endfacet
 facet normal -9.927089e-01  1.205367e-01  0.000000e+00
   outer loop
     vertex -4.356258e-02 -1.416227e-01  1.940072e-03
     vertex -4.401357e-02 -1.453369e-01 -1.216928e-02
     vertex -4.401357e-02 -1.453369e-01  1.940072e-03
   endloop
 endfacet
 facet normal  0.000000e+00  1.000000e+00  0.000000e+00
   outer loop
     vertex -1.222222e-01  6.591949e-17  1.940072e-03
     vertex -1.081128e-01  6.591949e-17 -1.081128e-01
     vertex -1.222222e-01  6.591949e-17 -1.222222e-01
   endloop
 endfacet
 facet normal  0.000000e+00  1.000000e+00  0.000000e+00
   outer loop
     vertex  1.940072e-03  6.591949e-17 -1.222222e-01
     vertex -1.222222e-01  6.591949e-17 -1.222222e-01
     vertex -1.081128e-01  6.591949e-17 -1.081128e-01
   endloop
 endfacet
 facet normal  0.000000e+00  1.000000e+00  0.000000e+00
   outer loop
     vertex -1.216928e-02  6.591949e-17 -1.081128e-01
     vertex  1.940072e-03  6.591949e-17 -1.222222e-01
     vertex -1.081128e-01  6.591949e-17 -1.081128e-01
   endloop
 endfacet
 facet normal  0.000000e+00  1.000000e+00  0.000000e+00
   outer loop
     vertex -1.081128e-01  6.591949e-17 -1.216928e-02
     vertex -1.081128e-01  6.591949e-17 -1.081128e-01
     vertex -1.222222e-01  6.591949e-17  1.940072e-03
   endloop
 endfacet
 facet normal  0.000000e+00  1.000000e+00  0.000000e+00
   outer loop
     vertex  1.940072e-03  6.591949e-17  1.940072e-03
     vertex -1.216928e-02  6.591949e-17 -1.081128e-01
     vertex -1.216928e-02  6.591949e-17 -1.216928e-02
   endloop
 endfacet
 facet normal  0.000000e+00  1.000000e+00  0.000000e+00
   outer loop
     vertex  1.940072e-03  6.591949e-17  1.940072e-03
     vertex  1.940072e-03  6.591949e-17 -1.222222e-01
     vertex -1.216928e-02  6.591949e-17 -1.081128e-01
   endloop
 endfacet
 facet normal  0.000000e+00  1.000000e+00  0.000000e+00
   outer loop
     vertex  1.940072e-03  6.591949e-17  1.940072e-03
     vertex -1.081128e-01  6.591949e-17 -1.216928e-02
     vertex -1.222222e-01  6.591949e-17  1.940072e-03
   endloop
 endfacet
 facet normal  0.000000e+00  1.000000e+00  0.000000e+00
   outer loop
     vertex  1.940072e-03  6.591949e-17  1.940072e-03
     vertex -1.216928e-02  6.591949e-17 -1.216928e-02
     vertex -1.081128e-01  6.591949e-17 -1.216928e-02
   endloop
 endfacet
 facet normal -0.000000e+00  0.000000e+00  1.000000e+00
   outer loop
     vertex -1.081128e-01 -1.587302e-02 -1.081128e-01
     vertex -1.216928e-02 -1.015873e+00 -1.081128e-01
     vertex -1.216928e-02 -1.587302e-02 -1.081128e-01
   endloop
 endfacet
 facet normal  0.000000e+00  0.000000e+00  1.000000e+00
   outer loop
     vertex -1.081128e-01 -1.587302e-02 -1.081128e-01
     vertex -1.081128e-01 -1.015873e+00 -1.081128e-01
     vertex -1.216928e-02 -1.015873e+00 -1.081128e-01
   endloop
 endfacet
 facet normal -1.000000e+00  0.000000e+00  0.000000e+00
   outer loop
     vertex -1.216928e-02 -1.587302e-02 -1.081128e-01
     vertex -1.216928e-02 -1.015873e+00 -1.216928e-02
     vertex -1.216928e-02 -1.587302e-02 -1.216928e-02
   endloop
 endfacet
 facet normal -1.000000e+00  0.000000e+00  0.000000e+00
   outer loop
     vertex -1.216928e-02 -1.587302e-02 -1.081128e-01
     vertex -1.216928e-02 -1.015873e+00 -1.081128e-01
     vertex -1.216928e-02 -1.015873e+00 -1.216928e-02
   endloop
 endfacet
 facet normal  3.426207e-18  3.867388e-18 -1.000000e+00
   outer loop
     vertex -6.789938e-02 -1.543956e-01 -1.216928e-02
     vertex -1.081128e-01 -1.015873e+00 -1.216928e-02
     vertex -7.069996e-02 -1.519145e-01 -1.216928e-02
   endloop
 endfacet
 facet normal  5.474383e-18  3.778694e-18 -1.000000e+00
   outer loop
     vertex -7.282539e-02 -1.488353e-01 -1.216928e-02
     vertex -7.069996e-02 -1.519145e-01 -1.216928e-02
     vertex -1.081128e-01 -1.015873e+00 -1.216928e-02
   endloop
 endfacet
 facet normal  2.063156e-18  3.931015e-18 -1.000000e+00
   outer loop
     vertex -6.458643e-02 -1.561344e-01 -1.216928e-02
     vertex -1.081128e-01 -1.015873e+00 -1.216928e-02
     vertex -6.789938e-02 -1.543956e-01 -1.216928e-02
   endloop
 endfacet
 facet normal  0.000000e+00  4.039674e-18 -1.000000e+00
   outer loop
     vertex -6.095362e-02 -1.570298e-01 -1.216928e-02
     vertex -1.216928e-02 -1.015873e+00 -1.216928e-02
     vertex -1.081128e-01 -1.015873e+00 -1.216928e-02
   endloop
 endfacet
 facet normal  9.823944e-19  3.985731e-18 -1.000000e+00
   outer loop
     vertex -6.095362e-02 -1.570298e-01 -1.216928e-02
     vertex -1.081128e-01 -1.015873e+00 -1.216928e-02
     vertex -6.458643e-02 -1.561344e-01 -1.216928e-02
   endloop
 endfacet
 facet normal  0.000000e+00  4.039674e-18 -1.000000e+00
   outer loop
     vertex -5.721210e-02 -1.570298e-01 -1.216928e-02
     vertex -1.216928e-02 -1.015873e+00 -1.216928e-02
     vertex -6.095362e-02 -1.570298e-01 -1.216928e-02
   endloop
 endfacet
 facet normal -9.829835e-19  3.988121e-18 -1.000000e+00
   outer loop
     vertex -5.357929e-02 -1.561344e-01 -1.216928e-02
     vertex -1.216928e-02 -1.015873e+00 -1.216928e-02
     vertex -5.721210e-02 -1.570298e-01 -1.216928e-02
   endloop
 endfacet
 facet normal -2.065756e-18  3.935968e-18 -1.000000e+00
   outer loop
     vertex -5.026633e-02 -1.543956e-01 -1.216928e-02
     vertex -1.216928e-02 -1.015873e+00 -1.216928e-02
     vertex -5.357929e-02 -1.561344e-01 -1.216928e-02
   endloop
 endfacet
 facet normal -3.433383e-18  3.875488e-18 -1.000000e+00
   outer loop
     vertex -4.746576e-02 -1.519145e-01 -1.216928e-02
     vertex -1.216928e-02 -1.015873e+00 -1.216928e-02
     vertex -5.026633e-02 -1.543956e-01 -1.216928e-02
   endloop
 endfacet
 facet normal -5.492725e-18  3.791355e-18 -1.000000e+00
   outer loop
     vertex -4.534033e-02 -1.488353e-01 -1.216928e-02
     vertex -1.216928e-02 -1.015873e+00 -1.216928e-02
     vertex -4.746576e-02 -1.519145e-01 -1.216928e-02
   endloop
 endfacet
 facet normal  7.011300e-18 -2.844596e-17 -1.000000e+00
   outer loop
     vertex -1.081128e-01 -1.587302e-02 -1.216928e-02
     vertex -6.095362e-02 -1.262156e-01 -1.216928e-02
     vertex -6.458643e-02 -1.271110e-01 -1.216928e-02
   endloop
 endfacet
 facet normal  1.358050e-17 -2.587549e-17 -1.000000e+00
   outer loop
     vertex -1.081128e-01 -1.587302e-02 -1.216928e-02
     vertex -6.458643e-02 -1.271110e-01 -1.216928e-02
     vertex -6.789938e-02 -1.288497e-01 -1.216928e-02
   endloop
 endfacet
 facet normal  2.068375e-17 -2.334713e-17 -1.000000e+00
   outer loop
     vertex -1.081128e-01 -1.587302e-02 -1.216928e-02
     vertex -6.789938e-02 -1.288497e-01 -1.216928e-02
     vertex -7.069996e-02 -1.313308e-01 -1.216928e-02
   endloop
 endfacet
 facet normal  2.962613e-17 -2.044944e-17 -1.000000e+00
   outer loop
     vertex -1.081128e-01 -1.587302e-02 -1.216928e-02
     vertex -7.069996e-02 -1.313308e-01 -1.216928e-02
     vertex -7.282539e-02 -1.344100e-01 -1.216928e-02
   endloop
 endfacet
 facet normal  4.323696e-17 -1.639762e-17 -1.000000e+00
   outer loop
     vertex -1.081128e-01 -1.587302e-02 -1.216928e-02
     vertex -7.282539e-02 -1.344100e-01 -1.216928e-02
     vertex -7.415215e-02 -1.379084e-01 -1.216928e-02
   endloop
 endfacet
 facet normal  7.112660e-17 -8.636333e-18 -1.000000e+00
   outer loop
     vertex -1.081128e-01 -1.587302e-02 -1.216928e-02
     vertex -7.415215e-02 -1.379084e-01 -1.216928e-02
     vertex -7.460314e-02 -1.416227e-01 -1.216928e-02
   endloop
 endfacet
 facet normal  1.902012e-16  2.309461e-17 -1.000000e+00
   outer loop
     vertex -1.081128e-01 -1.587302e-02 -1.216928e-02
     vertex -7.460314e-02 -1.416227e-01 -1.216928e-02
     vertex -7.415215e-02 -1.453369e-01 -1.216928e-02
   endloop
 endfacet
 facet normal -7.435261e-17 -9.028041e-18 -1.000000e+00
   outer loop
     vertex -1.216928e-02 -1.587302e-02 -1.216928e-02
     vertex -4.356258e-02 -1.416227e-01 -1.216928e-02
     vertex -4.401357e-02 -1.379084e-01 -1.216928e-02
   endloop
 endfacet
 facet normal -4.440823e-17 -1.684182e-17 -1.000000e+00
   outer loop
     vertex -1.216928e-02 -1.587302e-02 -1.216928e-02
     vertex -4.401357e-02 -1.379084e-01 -1.216928e-02
     vertex -4.534033e-02 -1.344100e-01 -1.216928e-02
   endloop
 endfacet
 facet normal -3.017140e-17 -2.082581e-17 -1.000000e+00
   outer loop
     vertex -1.216928e-02 -1.587302e-02 -1.216928e-02
     vertex -4.534033e-02 -1.344100e-01 -1.216928e-02
     vertex -4.746576e-02 -1.313308e-01 -1.216928e-02
   endloop
 endfacet
 facet normal -2.094806e-17 -2.364547e-17 -1.000000e+00
   outer loop
     vertex -1.216928e-02 -1.587302e-02 -1.216928e-02
     vertex -4.746576e-02 -1.313308e-01 -1.216928e-02
     vertex -5.026633e-02 -1.288497e-01 -1.216928e-02
   endloop
 endfacet
 facet normal -1.369395e-17 -2.609164e-17 -1.000000e+00
   outer loop
     vertex -1.216928e-02 -1.587302e-02 -1.216928e-02
     vertex -5.026633e-02 -1.288497e-01 -1.216928e-02
     vertex -5.357929e-02 -1.271110e-01 -1.216928e-02
   endloop
 endfacet
 facet normal -7.041416e-18 -2.856815e-17 -1.000000e+00
   outer loop
     vertex -1.216928e-02 -1.587302e-02 -1.216928e-02
     vertex -5.357929e-02 -1.271110e-01 -1.216928e-02
     vertex -5.721210e-02 -1.262156e-01 -1.216928e-02
   endloop
 endfacet
 facet normal  0.000000e+00 -3.144252e-17 -1.000000e+00
   outer loop
     vertex -1.216928e-02 -1.587302e-02 -1.216928e-02
     vertex -5.721210e-02 -1.262156e-01 -1.216928e-02
     vertex -6.095362e-02 -1.262156e-01 -1.216928e-02
   endloop
 endfacet
 facet normal -2.151658e-16  2.612586e-17 -1.000000e+00
   outer loop
     vertex -1.216928e-02 -1.587302e-02 -1.216928e-02
     vertex -4.401357e-02 -1.453369e-01 -1.216928e-02
     vertex -4.356258e-02 -1.416227e-01 -1.216928e-02
   endloop
 endfacet
 facet normal -0.000000e+00 -3.144252e-17 -1.000000e+00
   outer loop
     vertex -1.216928e-02 -1.587302e-02 -1.216928e-02
     vertex -6.095362e-02 -1.262156e-01 -1.216928e-02
     vertex -1.081128e-01 -1.587302e-02 -1.216928e-02
   endloop
 endfacet
 facet normal  1.021607e-16  0.000000e+00 -1.000000e+00
   outer loop
     vertex -1.081128e-01 -1.587302e-02 -1.216928e-02
     vertex -7.415215e-02 -1.453369e-01 -1.216928e-02
     vertex -1.081128e-01 -1.015873e+00 -1.216928e-02
   endloop
 endfacet
 facet normal  9.528529e-18  3.613695e-18 -1.000000e+00
   outer loop
     vertex -7.415215e-02 -1.453369e-01 -1.216928e-02
     vertex -7.282539e-02 -1.488353e-01 -1.216928e-02
     vertex -1.081128e-01 -1.015873e+00 -1.216928e-02
   endloop
 endfacet
 facet normal -1.089504e-16  0.000000e+00 -1.000000e+00
   outer loop
     vertex -1.216928e-02 -1.015873e+00 -1.216928e-02
     vertex -4.401357e-02 -1.453369e-01 -1.216928e-02
     vertex -1.216928e-02 -1.587302e-02 -1.216928e-02
   endloop
 endfacet
 facet normal -9.584238e-18  3.634822e-18 -1.000000e+00
   outer loop
     vertex -1.216928e-02 -1.015873e+00 -1.216928e-02
     vertex -4.534033e-02 -1.488353e-01 -1.216928e-02
     vertex -4.401357e-02 -1.453369e-01 -1.216928e-02
   endloop
 endfacet
 facet normal  1.000000e+00  0.000000e+00  0.000000e+00
   outer loop
     vertex -1.081128e-01 -1.587302e-02 -1.216928e-02
     vertex -1.081128e-01 -1.015873e+00 -1.081128e-01
     vertex -1.081128e-01 -1.587302e-02 -1.081128e-01
   endloop
 endfacet
 facet normal  1.000000e+00  0.000000e+00  0.000000e+00
   outer loop
     vertex -1.081128e-01 -1.587302e-02 -1.216928e-02
     vertex -1.081128e-01 -1.015873e+00 -1.216928e-02
     vertex -1.081128e-01 -1.015873e+00 -1.081128e-01
   endloop
 endfacet
 facet normal  1.000000e+00  0.000000e+00  0.000000e+00
   outer loop
     vertex  1.940072e-03 -1.587302e-02 -1.222222e-01
     vertex  1.940072e-03  0.000000e+00  1.940072e-03
     vertex  1.940072e-03 -1.587302e-02  1.940072e-03
   endloop
 endfacet
 facet normal  1.000000e+00  0.000000e+00  0.000000e+00
   outer loop
     vertex  1.940072e-03 -1.587302e-02 -1.222222e-01
     vertex  1.940072e-03  0.000000e+00 -1.222222e-01
     vertex  1.940072e-03  0.000000e+00  1.940072e-03
   endloop
 endfacet
 facet normal  0.000000e+00  0.000000e+00  1.000000e+00
   outer loop
     vertex -1.081128e-01 -1.587302e-02 -1.081128e-01
     vertex -1.216928e-02 -1.587302e-02 -1.081128e-01
     vertex -1.216928e-02  0.000000e+00 -1.081128e-01
   endloop
 endfacet
 facet normal  0.000000e+00  0.000000e+00  1.000000e+00
   outer loop
     vertex -1.081128e-01 -1.587302e-02 -1.081128e-01
     vertex -1.216928e-02  0.000000e+00 -1.081128e-01
     vertex -1.081128e-01  0.000000e+00 -1.081128e-01
   endloop
 endfacet
 facet normal -1.000000e+00  0.000000e+00  0.000000e+00
   outer loop
     vertex -1.216928e-02 -1.587302e-02 -1.081128e-01
     vertex -1.216928e-02 -1.587302e-02 -1.216928e-02
     vertex -1.216928e-02  0.000000e+00 -1.216928e-02
   endloop
 endfacet
 facet normal -1.000000e+00  0.000000e+00  0.000000e+00
   outer loop
     vertex -1.216928e-02 -1.587302e-02 -1.081128e-01
     vertex -1.216928e-02  0.000000e+00 -1.216928e-02
     vertex -1.216928e-02  0.000000e+00 -1.081128e-01
   endloop
 endfacet
 facet normal  0.000000e+00  0.000000e+00 -1.000000e+00
   outer loop
     vertex -1.216928e-02 -1.587302e-02 -1.216928e-02
     vertex -1.081128e-01 -1.587302e-02 -1.216928e-02
     vertex -1.081128e-01  0.000000e+00 -1.216928e-02
   endloop
 endfacet
 facet normal  0.000000e+00  0.000000e+00 -1.000000e+00
   outer loop
     vertex -1.216928e-02 -1.587302e-02 -1.216928e-02
     vertex -1.081128e-01  0.000000e+00 -1.216928e-02
     vertex -1.216928e-02  0.000000e+00 -1.216928e-02
   endloop
 endfacet
 facet normal  1.000000e+00  0.000000e+00  0.000000e+00
   outer loop
     vertex -1.081128e-01 -1.587302e-02 -1.216928e-02
     vertex -1.081128e-01 -1.587302e-02 -1.081128e-01
     vertex -1.081128e-01  0.000000e+00 -1.081128e-01
   endloop
 endfacet
 facet normal  1.000000e+00 -0.000000e+00  0.000000e+00
   outer loop
     vertex -1.081128e-01 -1.587302e-02 -1.216928e-02
     vertex -1.081128e-01  0.000000e+00 -1.081128e-01
     vertex -1.081128e-01  0.000000e+00 -1.216928e-02
   endloop
 endfacet
endsolid
