solid 
 facet normal -0.000000e+00  0.000000e+00 -1.000000e+00
   outer loop
     vertex  5.257496e-01 -1.587302e-02 -4.936508e-01
     vertex -4.365080e-01 -1.015873e+00 -4.936508e-01
     vertex -4.365080e-01 -1.587302e-02 -4.936508e-01
   endloop
 endfacet
 facet normal  0.000000e+00 -0.000000e+00 -1.000000e+00
   outer loop
     vertex  5.257496e-01 -1.587302e-02 -4.936508e-01
     vertex  5.257496e-01 -1.015873e+00 -4.936508e-01
     vertex -4.365080e-01 -1.015873e+00 -4.936508e-01
   endloop
 endfacet
 facet normal -1.000000e+00  0.000000e+00  0.000000e+00
   outer loop
     vertex -4.365080e-01 -1.587302e-02 -4.936508e-01
     vertex -4.365080e-01 -1.015873e+00  4.686068e-01
     vertex -4.365080e-01 -1.587302e-02  4.686068e-01
   endloop
 endfacet
 facet normal -1.000000e+00  0.000000e+00  0.000000e+00
   outer loop
     vertex -4.365080e-01 -1.587302e-02 -4.936508e-01
     vertex -4.365080e-01 -1.015873e+00 -4.936508e-01
     vertex -4.365080e-01 -1.015873e+00  4.686068e-01
   endloop
 endfacet
 facet normal  1.000000e+00  0.000000e+00  0.000000e+00
   outer loop
     vertex  5.257496e-01 -1.587302e-02  4.686068e-01
     vertex  5.257496e-01 -1.015873e+00 -4.936508e-01
     vertex  5.257496e-01 -1.587302e-02 -4.936508e-01
   endloop
 endfacet
 facet normal  1.000000e+00  0.000000e+00  0.000000e+00
   outer loop
     vertex  5.257496e-01 -1.587302e-02  4.686068e-01
     vertex  5.257496e-01 -1.015873e+00  4.686068e-01
     vertex  5.257496e-01 -1.015873e+00 -4.936508e-01
   endloop
 endfacet
 facet normal  0.000000e+00  0.000000e+00 -1.000000e+00
   outer loop
     vertex  5.257496e-01 -1.587302e-02 -4.936508e-01
     vertex -4.365080e-01 -1.587302e-02 -4.936508e-01
     vertex -4.365080e-01  0.000000e+00 -4.936508e-01
   endloop
 endfacet
 facet normal  0.000000e+00  0.000000e+00 -1.000000e+00
   outer loop
     vertex  5.257496e-01 -1.587302e-02 -4.936508e-01
     vertex -4.365080e-01  0.000000e+00 -4.936508e-01
     vertex  5.257496e-01  0.000000e+00 -4.936508e-01
   endloop
 endfacet
 facet normal  0.000000e+00 -1.000000e+00 -0.000000e+00
   outer loop
     vertex  5.257496e-01 -1.015873e+00  4.686068e-01
     vertex -4.365080e-01 -1.015873e+00 -4.936508e-01
     vertex  5.257496e-01 -1.015873e+00 -4.936508e-01
   endloop
 endfacet
 facet normal -0.000000e+00 -1.000000e+00  0.000000e+00
   outer loop
     vertex  5.257496e-01 -1.015873e+00  4.686068e-01
     vertex -4.365080e-01 -1.015873e+00  4.686068e-01
     vertex -4.365080e-01 -1.015873e+00 -4.936508e-01
   endloop
 endfacet
 facet normal -0.000000e+00  0.000000e+00  1.000000e+00
   outer loop
     vertex -4.365080e-01 -1.587302e-02  4.686068e-01
     vertex  5.257496e-01 -1.015873e+00  4.686068e-01
     vertex  5.257496e-01 -1.587302e-02  4.686068e-01
   endloop
 endfacet
 facet normal  0.000000e+00  0.000000e+00  1.000000e+00
   outer loop
     vertex -4.365080e-01 -1.587302e-02  4.686068e-01
     vertex -4.365080e-01 -1.015873e+00  4.686068e-01
     vertex  5.257496e-01 -1.015873e+00  4.686068e-01
   endloop
 endfacet
 facet normal -1.000000e+00  0.000000e+00  0.000000e+00
   outer loop
     vertex -4.365080e-01 -1.587302e-02 -4.936508e-01
     vertex -4.365080e-01 -1.587302e-02  4.686068e-01
     vertex -4.365080e-01  0.000000e+00  4.686068e-01
   endloop
 endfacet
 facet normal -1.000000e+00  0.000000e+00  0.000000e+00
   outer loop
     vertex -4.365080e-01 -1.587302e-02 -4.936508e-01
     vertex -4.365080e-01  0.000000e+00  4.686068e-01
     vertex -4.365080e-01  0.000000e+00 -4.936508e-01
   endloop
 endfacet
 facet normal  1.000000e+00  0.000000e+00  0.000000e+00
   outer loop
     vertex  5.257496e-01 -1.587302e-02  4.686068e-01
     vertex  5.257496e-01 -1.587302e-02 -4.936508e-01
     vertex  5.257496e-01  0.000000e+00 -4.936508e-01
   endloop
 endfacet
 facet normal  1.000000e+00 -0.000000e+00  0.000000e+00
   outer loop
     vertex  5.257496e-01 -1.587302e-02  4.686068e-01
     vertex  5.257496e-01  0.000000e+00 -4.936508e-01
     vertex  5.257496e-01  0.000000e+00  4.686068e-01
   endloop
 endfacet
 facet normal  0.000000e+00  1.000000e+00  0.000000e+00
   outer loop
     vertex  7.883608e-02  0.000000e+00 -2.047618e-01
     vertex -4.365080e-01  0.000000e+00 -4.936508e-01
     vertex -1.146376e-02  0.000000e+00 -2.047618e-01
   endloop
 endfacet
 facet normal  0.000000e+00  1.000000e+00  0.000000e+00
   outer loop
     vertex  5.257496e-01  0.000000e+00 -4.936508e-01
     vertex -4.365080e-01  0.000000e+00 -4.936508e-01
     vertex  7.883608e-02  0.000000e+00 -2.047618e-01
   endloop
 endfacet
 facet normal  0.000000e+00  1.000000e+00  0.000000e+00
   outer loop
     vertex -1.146376e-02  0.000000e+00  1.451500e-01
     vertex -4.365080e-01  0.000000e+00 -4.936508e-01
     vertex -4.365080e-01  0.000000e+00  4.686068e-01
   endloop
 endfacet
 facet normal  0.000000e+00  1.000000e+00  0.000000e+00
   outer loop
     vertex -1.146376e-02  0.000000e+00  1.451500e-01
     vertex -1.146376e-02  0.000000e+00 -2.047618e-01
     vertex -4.365080e-01  0.000000e+00 -4.936508e-01
   endloop
 endfacet
 facet normal  0.000000e+00  1.000000e+00  0.000000e+00
   outer loop
     vertex  7.883608e-02  0.000000e+00  1.451500e-01
     vertex -1.146376e-02  0.000000e+00  1.451500e-01
     vertex -4.365080e-01  0.000000e+00  4.686068e-01
   endloop
 endfacet
 facet normal  0.000000e+00  1.000000e+00  0.000000e+00
   outer loop
     vertex  7.883608e-02  0.000000e+00  1.451500e-01
     vertex  5.257496e-01  0.000000e+00 -4.936508e-01
     vertex  7.883608e-02  0.000000e+00 -2.047618e-01
   endloop
 endfacet
 facet normal  0.000000e+00  1.000000e+00  0.000000e+00
   outer loop
     vertex  5.257496e-01  0.000000e+00  4.686068e-01
     vertex  5.257496e-01  0.000000e+00 -4.936508e-01
     vertex  7.883608e-02  0.000000e+00  1.451500e-01
   endloop
 endfacet
 facet normal  0.000000e+00  1.000000e+00  0.000000e+00
   outer loop
     vertex  5.257496e-01  0.000000e+00  4.686068e-01
     vertex  7.883608e-02  0.000000e+00  1.451500e-01
     vertex -4.365080e-01  0.000000e+00  4.686068e-01
   endloop
 endfacet
 facet normal  0.000000e+00  0.000000e+00  1.000000e+00
   outer loop
     vertex -4.365080e-01 -1.587302e-02  4.686068e-01
     vertex  5.257496e-01 -1.587302e-02  4.686068e-01
     vertex  5.257496e-01  0.000000e+00  4.686068e-01
   endloop
 endfacet
 facet normal  0.000000e+00  0.000000e+00  1.000000e+00
   outer loop
     vertex -4.365080e-01 -1.587302e-02  4.686068e-01
     vertex  5.257496e-01  0.000000e+00  4.686068e-01
     vertex -4.365080e-01  0.000000e+00  4.686068e-01
   endloop
 endfacet
 facet normal  0.000000e+00  0.000000e+00  1.000000e+00
   outer loop
     vertex  7.883608e-02 -9.841270e-01 -2.047618e-01
     vertex -1.146376e-02  0.000000e+00 -2.047618e-01
     vertex -1.146376e-02 -9.841270e-01 -2.047618e-01
   endloop
 endfacet
 facet normal  0.000000e+00 -0.000000e+00  1.000000e+00
   outer loop
     vertex  7.883608e-02 -9.841270e-01 -2.047618e-01
     vertex  7.883608e-02  0.000000e+00 -2.047618e-01
     vertex -1.146376e-02  0.000000e+00 -2.047618e-01
   endloop
 endfacet
 facet normal -1.000000e+00  0.000000e+00  0.000000e+00
   outer loop
     vertex  7.883608e-02 -9.841270e-01  1.451500e-01
     vertex  7.883608e-02  0.000000e+00 -2.047618e-01
     vertex  7.883608e-02 -9.841270e-01 -2.047618e-01
   endloop
 endfacet
 facet normal -1.000000e+00  0.000000e+00  0.000000e+00
   outer loop
     vertex  7.883608e-02 -9.841270e-01  1.451500e-01
     vertex  7.883608e-02  0.000000e+00  1.451500e-01
     vertex  7.883608e-02  0.000000e+00 -2.047618e-01
   endloop
 endfacet
 facet normal  0.000000e+00  0.000000e+00 -1.000000e+00
   outer loop
     vertex -1.146376e-02 -9.841270e-01  1.451500e-01
     vertex  7.883608e-02  0.000000e+00  1.451500e-01
     vertex  7.883608e-02 -9.841270e-01  1.451500e-01
   endloop
 endfacet
 facet normal  0.000000e+00  0.000000e+00 -1.000000e+00
   outer loop
     vertex -1.146376e-02 -9.841270e-01  1.451500e-01
     vertex -1.146376e-02  0.000000e+00  1.451500e-01
     vertex  7.883608e-02  0.000000e+00  1.451500e-01
   endloop
 endfacet
 facet normal  1.000000e+00  0.000000e+00  0.000000e+00
   outer loop
     vertex -1.146376e-02 -9.841270e-01 -2.047618e-01
     vertex -1.146376e-02  0.000000e+00  1.451500e-01
     vertex -1.146376e-02 -9.841270e-01  1.451500e-01
   endloop
 endfacet
 facet normal  1.000000e+00  0.000000e+00  0.000000e+00
   outer loop
     vertex -1.146376e-02 -9.841270e-01 -2.047618e-01
     vertex -1.146376e-02  0.000000e+00 -2.047618e-01
     vertex -1.146376e-02  0.000000e+00  1.451500e-01
   endloop
 endfacet
 facet normal  0.000000e+00  1.000000e+00  0.000000e+00
   outer loop
     vertex  7.883608e-02 -9.841270e-01  1.451500e-01
     vertex  7.883608e-02 -9.841270e-01 -2.047618e-01
     vertex -1.146376e-02 -9.841270e-01 -2.047618e-01
   endloop
 endfacet
 facet normal  0.000000e+00  1.000000e+00  0.000000e+00
   outer loop
     vertex  7.883608e-02 -9.841270e-01  1.451500e-01
     vertex -1.146376e-02 -9.841270e-01 -2.047618e-01
     vertex -1.146376e-02 -9.841270e-01  1.451500e-01
   endloop
 endfacet
endsolid
